<?xml version="1.0" encoding="utf-8"?>
<!-- Generator: Adobe Illustrator 26.0.1, SVG Export Plug-In . SVG Version: 6.00 Build 0)  -->
<svg version="1.1" id="Layer_1" xmlns="http://www.w3.org/2000/svg" xmlns:xlink="http://www.w3.org/1999/xlink" x="0px" y="0px"
	 width="171" height="137.52" viewBox="0 0 171 137.52" style="enable-background:new 0 0 171 137.52;" xml:space="preserve">
<style type="text/css">
	.st0{fill:#BE0000;}
	.st1{fill:#FFFFFF;}
</style>
<path class="st0" d="M143.85,136.25h-117c-14.64,0-26.5-11.86-26.5-26.5l0,0c0-14.64,11.86-26.5,26.5-26.5h117
	c14.64,0,26.5,11.86,26.5,26.5l0,0C170.35,124.38,158.49,136.25,143.85,136.25z"/>
<g>
	<path class="st1" d="M39.15,105.4l-0.99-1.88c1.55-0.39,2.87-0.85,4.01-1.38c-0.72-0.58-1.57-1.16-2.56-1.76l1.33-1.33
		c1.11,0.7,2.08,1.4,2.9,2.1c1.06-0.77,1.86-1.64,2.42-2.61h-5.63v-2h8.04v1.57c-0.6,1.55-1.55,2.85-2.83,3.96h7.92
		c-1.74-1.45-3.12-3.14-4.18-5.07l1.74-0.99c0.43,0.72,0.89,1.43,1.42,2.1c1.06-0.7,2-1.47,2.78-2.32l1.47,1.3
		c-0.87,0.87-1.88,1.64-3.04,2.34c0.43,0.43,0.87,0.82,1.33,1.18c1.11-0.82,2.1-1.72,2.92-2.68l1.47,1.3
		c-0.82,0.89-1.79,1.69-2.9,2.42c1.06,0.68,2.25,1.28,3.55,1.76l-1.18,1.76c-1.69-0.68-3.21-1.5-4.52-2.44v1.26h-4.18v1.35
		l-0.07,0.68h7.66V108h-8.18c-0.43,0.97-1.06,1.81-1.88,2.54c-1.47,1.21-3.86,2.13-7.17,2.78l-1.16-1.81
		c3.29-0.6,5.53-1.38,6.74-2.29c0.43-0.39,0.77-0.77,1.06-1.21h-7.05v-1.98h7.83l0.07-0.68V104h-4.11v-0.7
		C42.75,104.16,41.08,104.86,39.15,105.4z M46.18,91.12v1.42h2.42v2.05h-2.42v1.45h-2.25v-1.45h-5.28v-2.05h5.29v-1.42H46.18z
		 M54.32,91.12v1.42h5.31v2.05h-5.31v1.47h-2.25v-1.47h-2.42v-2.05h2.42v-1.42H54.32z M59.13,111.6l-1.23,1.86
		c-2.54-1.4-5.15-2.49-7.83-3.29l1.06-1.57C54.06,109.43,56.71,110.42,59.13,111.6z"/>
	<path class="st1" d="M67.92,100.37l-1.64,1.64c-0.94-1.09-2.27-2.25-3.99-3.48l1.62-1.59C65.5,98.1,66.83,99.24,67.92,100.37z
		 M68.37,104.5c-1.11,3.04-2.37,5.89-3.74,8.58l-2.29-1.01c1.52-2.73,2.83-5.53,3.94-8.38L68.37,104.5z M68.45,94.62l-1.64,1.62
		c-0.99-1.06-2.37-2.17-4.13-3.38l1.62-1.59C65.94,92.38,67.31,93.49,68.45,94.62z M79.24,113.05l-0.58-2.08l1.96,0.07
		c0.53,0,0.8-0.36,0.8-1.06V108h-3.96v4.76h-2.08V108h-3.91v5.15h-2.13V97.28h4.9c-0.87-0.53-1.79-1.09-2.8-1.62l1.47-1.43
		c1.16,0.63,2.22,1.28,3.19,1.91c1.16-0.63,2.34-1.38,3.53-2.25H69.08v-2.08h13.7v1.86C81.4,95,79.81,96.21,78,97.27h5.53v13.19
		c0,1.71-0.75,2.58-2.2,2.58h-2.09V113.05z M75.38,101.7v-2.32h-3.91v2.32H75.38z M75.38,105.98v-2.27h-3.91v2.27H75.38z
		 M77.46,101.7h3.96v-2.32h-3.96V101.7z M77.46,105.98h3.96v-2.27h-3.96V105.98z"/>
	<path class="st1" d="M97.74,91.43v1.59h-5.41l0.8,0.34c-0.07,0.17-0.15,0.34-0.19,0.48h3.99v1.28h-1.96
		c-0.02,0.41-0.05,0.75-0.05,1.01h2.71v1.33h-3c-0.02,0.05-0.02,0.07-0.02,0.1c1.09,0.41,2.08,0.87,2.97,1.4l-0.85,1.28h0.68v1.57
		h-8.02c-1.21,0-1.81-0.6-1.81-1.79v-7H86.9v-1.59H97.74z M90.5,112.64v0.72h-2.17V105h5.77v-0.87h-7.05v-1.69h20.77v1.69h-6.84V105
		h5.56v8.36h-2.15v-0.72H90.5z M89.96,95.25c0.7-0.58,1.23-1.3,1.62-2.22H89.5v6.74c0,0.31,0.15,0.48,0.48,0.48h1.01l-0.8-1.33
		c1.35-0.24,2.25-0.72,2.68-1.45h-2.8v-1.33h0.89L89.96,95.25z M91.44,109.53l-0.87-1.38c1.5-0.24,2.51-0.51,3.04-0.85
		c0.34-0.27,0.58-0.56,0.7-0.87h-3.82v4.76h13.89v-2.71h-3.86c-1.11,0-1.67-0.41-1.67-1.21v-0.85h-2.63
		c-0.19,0.72-0.58,1.33-1.16,1.81c-0.48,0.34-1.09,0.63-1.86,0.87h9.2v1.3h-9.28v-1.28C92.62,109.28,92.07,109.41,91.44,109.53z
		 M91.29,100.25h5.34c-0.87-0.68-1.76-1.21-2.63-1.64C93.39,99.36,92.5,99.91,91.29,100.25z M93.23,95.13h-1.01
		c-0.29,0.39-0.6,0.72-0.89,1.01h1.88C93.2,95.83,93.23,95.49,93.23,95.13z M96.24,104.14v0.87h2.58v-0.87H96.24z M103.06,98.73
		c0.68-0.39,1.26-0.82,1.79-1.28h-6.64v-1.57h0.68l-1.33-1.18c0.63-0.34,1.11-0.68,1.47-1.06c0.36-0.39,0.56-1.11,0.56-2.17h6.16
		v1.88c0,0.19,0.15,0.31,0.46,0.31h1.84v1.67h-2.34c-1.26,0-1.86-0.56-1.86-1.62v-0.68h-2.51c-0.05,0.48-0.22,0.97-0.51,1.45
		c-0.34,0.43-0.94,0.92-1.81,1.4h8.14v1.38c-0.6,0.82-1.3,1.55-2.13,2.15c1.11,0.41,2.17,0.85,3.14,1.3l-1.16,1.38
		c-1.09-0.58-2.29-1.11-3.65-1.64c-1.35,0.68-2.87,1.18-4.61,1.52l-0.77-1.57c1.16-0.19,2.2-0.44,3.16-0.77
		c-0.89-0.31-1.81-0.6-2.78-0.89l0.92-1.11C100.62,97.96,101.87,98.34,103.06,98.73z M104.38,106.43h-3.67v0.51
		c0,0.19,0.1,0.29,0.34,0.29h3.33V106.43z"/>
	<path class="st1" d="M118.51,91.85v1.79c-0.63,2.08-1.38,4.28-2.25,6.57c1.33,2.2,2.05,4.13,2.15,5.8c0,1.14-0.24,1.96-0.68,2.46
		c-0.65,0.63-1.79,0.94-3.43,0.97l-0.75-2.34c0.48,0.1,0.92,0.15,1.26,0.15c0.53-0.05,0.92-0.17,1.11-0.31
		c0.17-0.19,0.27-0.48,0.27-0.92c0-1.62-0.72-3.43-2.15-5.46c0.94-2.42,1.69-4.61,2.22-6.55h-2.83v19.35h-2.22v-21.5h7.3V91.85z
		 M132.35,101.89v2.17h-3.84v5.92c0,0.6,0.19,0.92,0.58,0.92h0.75c0.19,0,0.36-0.1,0.48-0.24c0.17-0.19,0.29-1.18,0.36-2.97
		l2.08,0.72c-0.19,2.22-0.43,3.55-0.75,3.96c-0.34,0.36-0.89,0.56-1.72,0.58h-1.93c-0.7,0-1.21-0.24-1.55-0.7
		c-0.39-0.48-0.58-1.06-0.58-1.74v-6.45h-1.76c-0.19,2.42-0.58,4.23-1.21,5.41c-0.77,1.45-2.08,2.71-3.91,3.77l-1.47-1.88
		c1.55-0.82,2.66-1.81,3.33-2.95c0.53-0.94,0.87-2.39,1.01-4.35h-3.04v-2.17C119.18,101.89,132.35,101.89,132.35,101.89z
		 M132.16,98.25h-1.91v1.42h-9.23v-1.42h-1.96v-5.24h5.27c-0.24-0.63-0.48-1.18-0.77-1.71l2.37-0.39c0.27,0.63,0.51,1.33,0.75,2.1
		h5.48V98.25z M129.96,97.62v-2.44h-8.67v2.44H129.96z"/>
	<path class="st1" d="M19.23,118.72h1.83v4.65h0.04c0.24-0.39,0.5-0.75,0.73-1.09l2.66-3.55h2.26l-3.48,4.3l3.71,5.8h-2.16
		l-2.85-4.63l-0.92,1.08v3.55h-1.83L19.23,118.72L19.23,118.72z"/>
	<path class="st1" d="M28.56,121.53l0.75,3.31c0.18,0.78,0.34,1.57,0.48,2.37h0.03c0.15-0.78,0.39-1.6,0.58-2.35l0.96-3.33h1.5
		l0.92,3.24c0.23,0.85,0.42,1.65,0.58,2.44h0.03c0.11-0.79,0.29-1.59,0.48-2.44l0.81-3.24h1.81l-2.29,7.3h-1.71l-0.87-2.97
		c-0.23-0.77-0.39-1.46-0.56-2.34h-0.03c-0.17,0.9-0.35,1.62-0.56,2.34l-0.93,2.97h-1.72l-2.16-7.3H28.56z"/>
	<path class="st1" d="M44.27,127.08c0,0.66,0.03,1.3,0.12,1.75h-1.67l-0.14-0.81h-0.04c-0.44,0.57-1.2,0.98-2.16,0.98
		c-1.47,0-2.29-1.06-2.29-2.17c0-1.83,1.63-2.77,4.33-2.76v-0.13c0-0.48-0.19-1.27-1.48-1.27c-0.72,0-1.47,0.22-1.96,0.54l-0.36-1.2
		c0.54-0.33,1.48-0.65,2.64-0.65c2.34,0,3.02,1.48,3.02,3.09v2.63H44.27z M42.47,125.26c-1.31-0.02-2.55,0.25-2.55,1.36
		c0,0.72,0.47,1.05,1.05,1.05c0.75,0,1.27-0.48,1.45-1.01c0.05-0.13,0.05-0.27,0.05-0.4V125.26z"/>
	<path class="st1" d="M47.13,120.48c-0.62,0-1.02-0.45-1.02-0.99c0-0.57,0.42-1,1.03-1c0.63,0,1.02,0.44,1.04,1
		C48.18,120.03,47.77,120.48,47.13,120.48L47.13,120.48z M46.22,128.83v-7.3h1.84v7.3H46.22z"/>
	<path class="st1" d="M60.48,128.53c-0.44,0.21-1.4,0.45-2.62,0.45c-3.21,0-5.16-2.01-5.16-5.08c0-3.33,2.32-5.33,5.41-5.33
		c1.22,0,2.07,0.24,2.45,0.44l-0.39,1.47c-0.48-0.21-1.15-0.39-1.98-0.39c-2.05,0-3.54,1.29-3.54,3.72c0,2.22,1.29,3.63,3.52,3.63
		c0.73,0,1.52-0.15,2.01-0.36L60.48,128.53z"/>
	<path class="st1" d="M61.98,118.17h1.84v4.35h0.03c0.22-0.34,0.54-0.63,0.91-0.82c0.38-0.21,0.81-0.33,1.27-0.33
		c1.25,0,2.55,0.83,2.55,3.17v4.3h-1.83v-4.11c0-1.05-0.39-1.86-1.41-1.86c-0.72,0-1.23,0.48-1.44,1.04
		c-0.06,0.16-0.08,0.36-0.08,0.55v4.38h-1.84C61.98,128.84,61.98,118.17,61.98,118.17z"/>
	<path class="st1" d="M77.1,126.64c0,0.87,0.03,1.59,0.06,2.19h-1.6l-0.09-1.09h-0.04c-0.31,0.51-1.04,1.26-2.35,1.26
		s-2.53-0.79-2.53-3.18v-4.29h1.84v3.97c0,1.22,0.39,2,1.37,2c0.75,0,1.23-0.51,1.41-0.99c0.08-0.15,0.1-0.36,0.1-0.57v-4.41h1.85
		v5.11H77.1z"/>
	<path class="st1" d="M79.1,123.7c0-0.84-0.03-1.54-0.06-2.17h1.6l0.09,1.09h0.04c0.33-0.57,1.12-1.26,2.34-1.26
		c1.27,0,2.59,0.83,2.59,3.13v4.33h-1.84v-4.12c0-1.05-0.39-1.84-1.4-1.84c-0.73,0-1.25,0.52-1.44,1.08
		c-0.06,0.15-0.09,0.38-0.09,0.58v4.3h-1.85v-5.12H79.1z"/>
	<path class="st1" d="M94.29,127.77c0,1.53-0.31,2.62-1.08,3.31c-0.75,0.67-1.81,0.88-2.82,0.88c-0.93,0-1.92-0.21-2.55-0.58
		l0.4-1.4c0.46,0.27,1.25,0.56,2.13,0.56c1.2,0,2.1-0.63,2.1-2.21v-0.63h-0.02c-0.42,0.65-1.15,1.08-2.13,1.08
		c-1.81,0-3.1-1.5-3.1-3.57c0-2.4,1.56-3.85,3.31-3.85c1.12,0,1.77,0.54,2.12,1.14h0.03l0.08-0.98h1.59
		c-0.03,0.5-0.06,1.09-0.06,2.1V127.77z M92.45,124.45c0-0.18-0.01-0.34-0.06-0.5c-0.19-0.67-0.72-1.18-1.5-1.18
		c-1.04,0-1.8,0.9-1.8,2.38c0,1.25,0.63,2.25,1.79,2.25c0.69,0,1.29-0.45,1.5-1.12c0.06-0.18,0.07-0.44,0.07-0.65V124.45z"/>
	<path class="st1" d="M101.3,118.72v4.05h4.27v-4.05h1.84v10.11h-1.84v-4.45h-4.27v4.45h-1.85v-10.11H101.3z"/>
	<path class="st1" d="M112.65,129c-2.05,0-3.66-1.41-3.66-3.76c0-2.4,1.57-3.87,3.78-3.87c2.17,0,3.63,1.53,3.63,3.75
		c0,2.68-1.89,3.88-3.73,3.88H112.65z M112.71,127.66c1.05,0,1.79-1.02,1.79-2.5c0-1.14-0.51-2.46-1.77-2.46
		c-1.31,0-1.83,1.27-1.83,2.49c0,1.41,0.71,2.48,1.8,2.48h0.01V127.66z"/>
	<path class="st1" d="M117.84,127.12c0.4,0.25,1.2,0.54,1.86,0.54c0.81,0,1.17-0.35,1.17-0.83c0-0.49-0.3-0.73-1.2-1.06
		c-1.42-0.48-2.01-1.26-2.01-2.13c0-1.29,1.06-2.28,2.76-2.28c0.81,0,1.52,0.19,1.95,0.44l-0.38,1.29c-0.3-0.18-0.9-0.42-1.54-0.42
		c-0.66,0-1.02,0.33-1.02,0.78c0,0.46,0.34,0.67,1.27,1.02c1.33,0.46,1.94,1.14,1.95,2.22c0,1.33-1.03,2.29-2.97,2.29
		c-0.88,0-1.68-0.21-2.22-0.51L117.84,127.12z"/>
	<path class="st1" d="M124.17,123.96c0-0.96-0.03-1.74-0.06-2.43h1.62l0.09,1.12h0.03c0.54-0.83,1.4-1.29,2.5-1.29
		c1.68,0,3.07,1.44,3.07,3.72c0,2.64-1.67,3.92-3.33,3.92c-0.92,0-1.68-0.39-2.06-0.98H126v3.78h-1.85v-7.84H124.17z M126.01,125.77
		c0,0.18,0.01,0.35,0.04,0.51c0.19,0.75,0.84,1.29,1.63,1.29c1.17,0,1.86-0.98,1.86-2.42c0-1.29-0.63-2.34-1.81-2.34
		c-0.76,0-1.47,0.55-1.67,1.36c-0.03,0.15-0.06,0.31-0.06,0.46L126.01,125.77L126.01,125.77z"/>
	<path class="st1" d="M133.86,120.48c-0.61,0-1.02-0.45-1.02-0.99c0-0.57,0.42-1,1.04-1c0.63,0,1.02,0.44,1.03,1
		c0,0.54-0.4,0.99-1.03,0.99H133.86z M132.94,128.83v-7.3h1.85v7.3H132.94z"/>
	<path class="st1" d="M138.9,119.65v1.88h1.75v1.38h-1.75v3.21c0,0.9,0.24,1.35,0.94,1.35c0.33,0,0.51-0.02,0.72-0.08l0.03,1.4
		c-0.27,0.1-0.77,0.19-1.33,0.19c-0.69,0-1.25-0.23-1.59-0.6c-0.41-0.42-0.58-1.09-0.58-2.05v-3.42h-1.04v-1.38h1.04v-1.36
		L138.9,119.65z"/>
	<path class="st1" d="M147.72,127.08c0,0.66,0.03,1.3,0.12,1.75h-1.67l-0.13-0.81H146c-0.44,0.57-1.2,0.98-2.16,0.98
		c-1.47,0-2.29-1.06-2.29-2.17c0-1.83,1.64-2.77,4.33-2.76v-0.13c0-0.48-0.19-1.27-1.48-1.27c-0.72,0-1.47,0.22-1.96,0.54l-0.36-1.2
		c0.54-0.33,1.49-0.65,2.64-0.65c2.34,0,3.01,1.48,3.01,3.09L147.72,127.08L147.72,127.08z M145.92,125.26
		c-1.3-0.02-2.55,0.25-2.55,1.36c0,0.72,0.46,1.05,1.05,1.05c0.75,0,1.27-0.48,1.46-1.01c0.04-0.13,0.04-0.27,0.04-0.4V125.26z"/>
	<path class="st1" d="M149.67,118.17h1.85v10.66h-1.85V118.17z"/>
</g>
<g>
	<path d="M84.86,39.43c-5.34-3.08-9.66-10.56-9.64-16.7c0.01-2.06,0.51-3.7,1.36-4.86c-2.36,0.73-3.79,3.37-3.81,7.17
		c-0.02,6.14,4.3,13.62,9.64,16.7c3.89,2.25,7.24,1.53,8.79-1.39C89.51,41.07,87.29,40.83,84.86,39.43z"/>
	<path d="M82.54,6.67c-5.77-3.33-10.81-3.64-14.58-1.45c1.58-0.92,3.13-1.92,4.78-2.88c3.77-2.19,9-1.88,14.76,1.45
		c11.46,6.62,20.72,22.65,20.68,35.82c-0.01,3.56-0.45,8.26-3.32,12.81L89.05,76.56l-5.95,3.47l18.18-28.67
		c1.23-2.33,1.93-5.31,1.94-8.87C103.26,29.33,94,13.29,82.54,6.67z"/>
</g>
<path class="st0" d="M103.22,42.49c-0.01,3.56-0.71,6.54-1.94,8.87L83.1,80.03L65.06,33.49c-2.04-6.99-2.56-10.41-2.55-15.22
	C62.54,5.1,71.08,0.05,82.54,6.67C94,13.29,103.26,29.33,103.22,42.49z M82.44,41.63c5.34,3.09,9.69,0.61,9.71-5.53
	c0.02-6.14-4.3-13.62-9.65-16.7c-5.34-3.08-9.68-0.61-9.7,5.54C72.78,31.07,77.1,38.55,82.44,41.63L82.44,41.63"/>
</svg>
