<svg xmlns="http://www.w3.org/2000/svg" width="120" height="114.51" viewBox="0 0 120 114.51">
  <g id="Layer_2" data-name="Layer 2">
    <g id="Pointer">
      <g>
        <rect y="82.31" width="120" height="32.2" rx="16.1" style="fill: #be0000"/>
        <g>
          <path d="M13.68,102.36l-.75-1.43a19.07,19.07,0,0,0,4.38-1.66,24.73,24.73,0,0,0-2.95-2.1l1-1a28.07,28.07,0,0,1,3.17,2.32,9.35,9.35,0,0,0,2.75-3.16H15.35V93.76H23.1V95a10.72,10.72,0,0,1-3.19,4.37H29A16.8,16.8,0,0,1,24.41,94l1.32-.75a13.56,13.56,0,0,0,1.55,2.25A14.1,14.1,0,0,0,30.35,93l1.13,1a14.55,14.55,0,0,1-3.26,2.49A13.19,13.19,0,0,0,29.84,98,15.53,15.53,0,0,0,33,95.21l1.11,1A14.62,14.62,0,0,1,31,98.78a19.21,19.21,0,0,0,3.94,2L34,102.14a20.68,20.68,0,0,1-4.76-2.63v1.33H24.84v1.49c0,.34-.05.68-.1,1h7.9v1.52H24.36a6.75,6.75,0,0,1-1.91,2.68q-2.2,1.81-7.2,2.82l-.89-1.4c3.28-.62,5.58-1.45,6.88-2.46a4.92,4.92,0,0,0,1.31-1.64H15.11v-1.52h8c.05-.34.09-.68.12-1v-1.49H18.9v-.75A19.29,19.29,0,0,1,13.68,102.36ZM20.59,88.2v1.65h2.58v1.57H20.59v1.66H18.87V91.42h-5.5V89.85h5.5V88.2Zm8.09,0v1.65h5.53v1.57H28.68v1.69H27V91.42H24.38V89.85H27V88.2Zm4.9,20.8-.94,1.43a40.4,40.4,0,0,0-7.9-3.51l.83-1.2A43.68,43.68,0,0,1,33.58,109Z" style="fill: #fff"/>
          <path d="M42.35,97.65l-1.23,1.23a24,24,0,0,0-4-3.5l1.23-1.19A27.45,27.45,0,0,1,42.35,97.65Zm.46,3.84A78.21,78.21,0,0,1,39,110l-1.74-.75a69.73,69.73,0,0,0,4-8.43Zm.07-9.59-1.23,1.21a26.85,26.85,0,0,0-4.11-3.41l1.23-1.21A26.67,26.67,0,0,1,42.88,91.9Zm11,18.14-.43-1.59,2,.07c.63,0,.94-.39.94-1.14v-2.56H51.87v4.93h-1.6v-4.93H45.8v5.32H44.18V94.56h5.54c-1-.63-2.15-1.28-3.46-2l1.14-1.09c1.25.66,2.36,1.31,3.38,1.94a31.32,31.32,0,0,0,4.13-2.73H43.8v-1.6H57.25v1.43a26.52,26.52,0,0,1-5.09,3.84,1.66,1.66,0,0,0,.24.17H58v13.19c0,1.52-.67,2.29-2,2.29Zm-3.6-11V96.18H45.8V99Zm0,4.28v-2.76H45.8v2.76ZM51.87,99h4.46V96.18H51.87Zm0,4.28h4.46v-2.76H51.87Z" style="fill: #fff"/>
          <path d="M72.32,88.66v1.26H66.5l1.06.43c-.1.25-.19.46-.29.68H71.5v1H69.42c0,.53,0,1,0,1.26h2.88v1.08H69.18c-.05.12-.07.22-.12.32a15.83,15.83,0,0,1,3,1.57l-.67,1a12.94,12.94,0,0,0-2.83-1.78,5.16,5.16,0,0,1-3,1.83l-.65-1.08c1.59-.34,2.58-1,2.92-1.89H64.76V93.33H68c0-.37,0-.78,0-1.26H66.69a7,7,0,0,1-1.11,1.23l-.94-.82a6,6,0,0,0,1.81-2.56H63.94v7a.55.55,0,0,0,.63.63H72v1.25h-7.9a1.49,1.49,0,0,1-1.67-1.69V89.92h-.82V88.66Zm-7.49,20.92v.77H63.16v-8.14h5.9V101H61.74V99.7H82.42V101H75.31v1.2H81v8.14H79.35v-.77Zm5.85-6.23a2.9,2.9,0,0,1-1.14,1.93A9.65,9.65,0,0,1,66,106.56l-.68-1.08a8.85,8.85,0,0,0,3.14-1,2.14,2.14,0,0,0,.82-1.18H64.83v5.07H79.35v-2.9h-4.2c-1,0-1.45-.41-1.45-1.18v-1Zm6.59,3v1H67.56v-1ZM70.7,101v1.2h3V101Zm9.45-12.32v2c0,.24.16.36.53.36h2v1.28H80.31c-1.11,0-1.64-.46-1.64-1.38v-1h-3a3.63,3.63,0,0,1-.53,1.55,6,6,0,0,1-1.82,1.44l-1-1a5.51,5.51,0,0,0,1.49-1.14,3.22,3.22,0,0,0,.56-2.12ZM77.73,96a9.85,9.85,0,0,0,2.1-1.64H72.92V93.11h8.65v1.08a10.64,10.64,0,0,1-2.34,2.35A36.06,36.06,0,0,1,82.68,98l-.89,1.06A34.17,34.17,0,0,0,78,97.33,16.16,16.16,0,0,1,73.24,99l-.61-1.23a16,16,0,0,0,3.7-1c-1-.39-2.13-.75-3.26-1.09l.72-.87C75.19,95.14,76.5,95.55,77.73,96Zm1.62,7.37H75.12v.75a.36.36,0,0,0,.41.41h3.82Z" style="fill: #fff"/>
          <path d="M93,89.12v1.36c-.66,2.19-1.43,4.46-2.32,6.83a12.31,12.31,0,0,1,2.19,5.75,3.49,3.49,0,0,1-.72,2.37,5.27,5.27,0,0,1-3.41.89l-.58-1.76a8.29,8.29,0,0,0,1,.09,3.07,3.07,0,0,0,1.64-.41,1.49,1.49,0,0,0,.41-1.18A9.69,9.69,0,0,0,89,97.58a69.38,69.38,0,0,0,2.32-6.84H87.73v19.59H86V89.12Zm13.88,10.1v1.64h-4v6.55c0,.63.22,1,.71,1h1a1,1,0,0,0,.68-.24c.26-.22.43-1.28.5-3.16l1.6.53c-.15,2.15-.41,3.43-.75,3.86a2.27,2.27,0,0,1-1.67.58h-1.91a1.71,1.71,0,0,1-1.4-.6,2.3,2.3,0,0,1-.5-1.52v-7H98.91a14.58,14.58,0,0,1-1.26,5.65,9.87,9.87,0,0,1-4.05,3.7l-1.09-1.43a9.06,9.06,0,0,0,3.57-3,11.79,11.79,0,0,0,1.14-4.88H93.86V99.22Zm-.26-4H105V92H95.55v3.26H93.86v-4.9h5.48a15.42,15.42,0,0,0-.87-2l1.79-.29a24.39,24.39,0,0,1,.85,2.29h5.53Zm-1.76-.31v1.57H95.65V94.92Z" style="fill: #fff"/>
        </g>
        <g>
          <path d="M59.51,38.49c-5.34-3.08-9.65-10.56-9.63-16.7a8.06,8.06,0,0,1,1.36-4.86c-2.36.72-3.8,3.36-3.81,7.17,0,6.14,4.3,13.62,9.64,16.7,3.89,2.25,7.25,1.53,8.79-1.38C64.16,40.13,61.94,39.89,59.51,38.49Z"/>
          <path d="M57.19,5.73C51.42,2.4,46.38,2.09,42.61,4.28c1.58-.91,3.13-1.92,4.78-2.88,3.78-2.19,9-1.88,14.77,1.45C73.62,9.46,82.88,25.5,82.84,38.67a23.45,23.45,0,0,1-3.32,12.81L63.7,75.62l-6,3.47L75.94,50.42a19.06,19.06,0,0,0,1.93-8.87C77.91,28.39,68.65,12.35,57.19,5.73Z"/>
        </g>
        <path d="M77.87,41.55a19.06,19.06,0,0,1-1.93,8.87L57.75,79.09l-18-46.54c-2-7-2.56-10.41-2.55-15.21,0-13.17,8.57-18.22,20-11.61S77.91,28.39,77.87,41.55Zm-20.78-.86c5.35,3.09,9.69.61,9.71-5.53s-4.3-13.62-9.65-16.71-9.68-.6-9.7,5.54,4.3,13.62,9.64,16.7h0" style="fill: #be0000"/>
      </g>
    </g>
  </g>
</svg>
