<?xml version="1.0" encoding="utf-8"?>
<!-- Generator: Adobe Illustrator 26.0.1, SVG Export Plug-In . SVG Version: 6.00 Build 0)  -->
<svg version="1.1" id="Layer_2_00000085944223802820166710000001798045671578583446_"
	 xmlns="http://www.w3.org/2000/svg" xmlns:xlink="http://www.w3.org/1999/xlink" x="0px" y="0px" width="120" height="135.3" viewBox="0 0 120 135.3"
	 style="enable-background:new 0 0 120 135.3;" xml:space="preserve">
<style type="text/css">
	.st0{fill:#BE0000;}
	.st1{fill:#FFFFFF;}
</style>
<g>
	<path class="st0" d="M93.5,135.3h-67C11.9,135.3,0,123.4,0,108.8l0,0c0-14.6,11.9-26.5,26.5-26.5h67c14.6,0,26.5,11.9,26.5,26.5
		l0,0C120,123.4,108.1,135.3,93.5,135.3z"/>
	<g>
		<path class="st1" d="M46.5,89.3v2.2H35.3c-0.8,2.2-1.7,4.2-2.9,6h12.3v12.6h-2.3v-1.2H33v1.2h-2.4v-10c-1.4,1.6-2.9,3.1-4.6,4.5
			l-1.4-2.3c3.8-2.8,6.6-6.4,8.3-10.8h-7.7v-2.2L46.5,89.3L46.5,89.3z M42.5,106.7v-7H33v7H42.5z"/>
		<path class="st1" d="M54.3,97.7l-1.6,1.6c-0.9-1.1-2.2-2.3-3.9-3.6l1.6-1.5C51.9,95.3,53.2,96.5,54.3,97.7z M54.3,101.4
			c-1,3.1-2,6-3.2,8.7l-2-0.9c1.3-2.8,2.4-5.6,3.3-8.5L54.3,101.4z M54.7,91.8l-1.6,1.6c-0.9-1.1-2.2-2.2-3.9-3.4l1.6-1.5
			C52.3,89.6,53.6,90.7,54.7,91.8z M61.8,107.4c0.9-1.9,1.3-4.1,1.3-6.6v-12h7.2V108c0,1.5-0.8,2.2-2.3,2.2h-1.7l-0.6-2
			c0.6,0.1,1.1,0.1,1.7,0.1s0.8-0.4,0.8-1.1v-5.1c-1,0.2-2,0.5-3.1,0.7c-0.3,2.9-1.1,5.4-2.4,7.3l-1.6-1.4
			C61.3,108.3,61.6,107.9,61.8,107.4l-4.8,0.1v1.3h-2.1v-9.9h2.5v-4.2h-2.9v-2.1h2.9v-4h2.2v4h2.9v2.1h-2.9v4.2h2.3L61.8,107.4
			L61.8,107.4z M59.8,105.7V101H57v4.7H59.8z M68.3,90.9h-3v3.6c1,0.2,2.1,0.4,3,0.7V90.9z M65.2,100.8c1.1-0.2,2.1-0.4,3-0.6v-2.9
			c-1-0.3-2-0.6-3-0.8V100.8z"/>
		<path class="st1" d="M75.6,94.3v-6.1h2.2v6.1h2.1v2.2h-2.1v7.4c0.7-0.3,1.4-0.7,2.1-1v2.2c-2,1-4.1,1.8-6.4,2.5l-0.6-2.2
			c0.9-0.2,1.8-0.4,2.7-0.7v-8.2h-2.2v-2.2C73.3,94.3,75.6,94.3,75.6,94.3z M88.1,88.1v1.1h5.7V91h-5.7v1.1h6.7v1
			c-0.2,1.2-0.5,2.4-1,3.7l-2-0.6c0.3-0.7,0.6-1.4,0.8-2.2h-4.7v1.4l3.3-0.4l0.3,1.7l-3.6,0.5v0.3c0,0.5,0.2,0.8,0.8,0.8h4.8v1.7
			h-5.7c-1.3,0-2-0.5-2-1.5v-0.9l-2.1,0.3l-0.2-1.7l2.4-0.3v-1.7h-3V99c0,4.5-1.1,8.4-3.2,11.6l-1.6-1.4c1.8-2.7,2.7-6.1,2.8-10.2
			v-6.8H86v-4C85.9,88.1,88.1,88.1,88.1,88.1z M86.2,107.9v-1.6h-2.8v-4.5H85v2.9h1.2v-3.9H88v7.2h1.3v-7.2h1.8v3.9h1.2v-2.9h1.6
			v4.5h-2.8v1.6h4v1.9h-13v-1.9H86.2z"/>
	</g>
	<g>
		<path class="st1" d="M20.5,123.9c0.6,0.3,1.5,0.6,2.4,0.6c1.2,0,1.8-0.6,1.8-1.4s-0.5-1.2-1.8-1.7c-1.7-0.6-2.7-1.5-2.7-2.9
			c0-1.7,1.4-2.9,3.6-2.9c1.1,0,1.9,0.2,2.4,0.5l-0.4,1.5c-0.4-0.2-1.1-0.5-2-0.5c-1.2,0-1.7,0.6-1.7,1.2c0,0.8,0.6,1.1,1.9,1.7
			c1.8,0.7,2.6,1.6,2.6,3c0,1.6-1.2,3-3.8,3c-1.1,0-2.2-0.3-2.7-0.6L20.5,123.9z"/>
		<path class="st1" d="M28.2,115.2h1.9v4.3l0,0c0.2-0.3,0.5-0.6,0.9-0.8c0.4-0.2,0.8-0.3,1.3-0.3c1.2,0,2.5,0.8,2.5,3.2v4.3H33v-4.1
			c0-1.1-0.4-1.9-1.4-1.9c-0.7,0-1.2,0.5-1.4,1c-0.1,0.2-0.1,0.4-0.1,0.6v4.4h-1.9V115.2z"/>
		<path class="st1" d="M38.1,122.8c0,1.3,1.1,1.9,2.2,1.9c0.8,0,1.5-0.1,2-0.3l0.3,1.3c-0.6,0.3-1.5,0.5-2.5,0.5
			c-2.4,0-3.8-1.5-3.8-3.7c0-2,1.2-3.9,3.6-3.9c2.4,0,3.2,1.9,3.2,3.6c0,0.3,0,0.6-0.1,0.8L38.1,122.8L38.1,122.8z M41.3,121.5
			c0-0.7-0.3-1.8-1.5-1.8c-1.1,0-1.6,1-1.7,1.8H41.3z"/>
		<path class="st1" d="M46.4,121.8L46.4,121.8c0.2-0.3,0.4-0.6,0.6-0.9l1.8-2.3H51l-2.7,3l3.1,4.3h-2.3l-2.1-3.2l-0.6,0.7v2.5h-1.8
			v-10.7h1.8V121.8L46.4,121.8z"/>
		<path class="st1" d="M56.5,125.9L54,115.8h2l1,4.6c0.2,1.2,0.5,2.5,0.7,3.5l0,0c0.2-1.1,0.5-2.3,0.7-3.6l1.1-4.6h1.9l1,4.7
			c0.2,1.2,0.5,2.3,0.6,3.4l0,0c0.2-1.1,0.4-2.3,0.7-3.5l1-4.6h1.9l-2.7,10.1h-2l-1-4.8c-0.2-1.1-0.4-2.1-0.6-3.2l0,0
			c-0.2,1.1-0.4,2.1-0.7,3.2l-1.2,4.8C58.5,125.9,56.5,125.9,56.5,125.9z"/>
		<path class="st1" d="M74,123.7c0,0.9,0,1.6,0.1,2.2h-1.6l-0.1-1.1l0,0c-0.3,0.5-1,1.3-2.3,1.3s-2.5-0.8-2.5-3.2v-4.3h1.8v4
			c0,1.2,0.4,2,1.4,2c0.8,0,1.2-0.5,1.4-1c0.1-0.2,0.1-0.4,0.1-0.6v-4.4H74V123.7L74,123.7z"/>
		<path class="st1" d="M81,115.8v4.1h4.3v-4.1h1.8v10.1h-1.8v-4.5H81v4.5h-1.8v-10.1H81z"/>
		<path class="st1" d="M95.7,123.7c0,0.9,0,1.6,0.1,2.2h-1.6l-0.1-1.1H94c-0.3,0.5-1,1.3-2.3,1.3s-2.5-0.8-2.5-3.2v-4.3H91v4
			c0,1.2,0.4,2,1.4,2c0.8,0,1.2-0.5,1.4-1c0.1-0.2,0.1-0.4,0.1-0.6v-4.4h1.8L95.7,123.7L95.7,123.7z"/>
		<path class="st1" d="M98.6,117.5c-0.6,0-1-0.4-1-1s0.4-1,1-1s1,0.4,1,1S99.2,117.5,98.6,117.5L98.6,117.5z M97.7,125.9v-7.3h1.8
			v7.3H97.7z"/>
	</g>
	<g>
		<path d="M59.5,38.5c-5.3-3.1-9.7-10.6-9.6-16.7c0-2.1,0.5-3.7,1.4-4.9c-2.4,0.7-3.8,3.4-3.8,7.2c0,6.1,4.3,13.6,9.6,16.7
			c3.9,2.2,7.2,1.5,8.8-1.4C64.2,40.1,61.9,39.9,59.5,38.5z"/>
		<path d="M57.2,5.7c-5.8-3.3-10.8-3.6-14.6-1.4c1.6-0.9,3.1-1.9,4.8-2.9c3.8-2.2,9-1.9,14.8,1.5c11.5,6.6,20.7,22.6,20.7,35.8
			c0,3.6-0.4,8.3-3.3,12.8L63.7,75.6l-6,3.5l18.2-28.7c1.2-2.3,1.9-5.3,1.9-8.9C77.9,28.4,68.7,12.4,57.2,5.7z"/>
	</g>
	<path class="st0" d="M77.9,41.5c0,3.6-0.7,6.5-1.9,8.9L57.8,79.1l-18-46.5c-2-7-2.6-10.4-2.5-15.2c0-13.2,8.6-18.2,20-11.6
		S77.9,28.4,77.9,41.5z M57.1,40.7c5.3,3.1,9.7,0.6,9.7-5.5s-4.3-13.6-9.7-16.7c-5.3-3.1-9.7-0.6-9.7,5.5
		C47.4,30.1,51.8,37.6,57.1,40.7L57.1,40.7"/>
</g>
</svg>
