<?xml version="1.0" encoding="utf-8"?>
<!-- Generator: Adobe Illustrator 24.3.0, SVG Export Plug-In . SVG Version: 6.00 Build 0)  -->
<svg version="1.1" id="Layer_2" xmlns="http://www.w3.org/2000/svg" xmlns:xlink="http://www.w3.org/1999/xlink" x="0px" y="0px"
	 viewBox="0 0 120 135.31" style="enable-background:new 0 0 120 135.31;" xml:space="preserve">
<style type="text/css">
	.st0{fill:#BE0000;}
	.st1{fill:#FFFFFF;}
</style>
<g>
	<path class="st0" d="M93.5,135.31h-67c-14.64,0-26.5-11.86-26.5-26.5v0c0-14.64,11.86-26.5,26.5-26.5h67
		c14.64,0,26.5,11.86,26.5,26.5v0C120,123.44,108.14,135.31,93.5,135.31z"/>
	<g>
		<path class="st1" d="M46.55,89.29v2.22H35.35c-0.75,2.15-1.71,4.15-2.87,5.99h12.34v12.61h-2.34v-1.16h-9.52v1.16h-2.37v-10
			c-1.35,1.64-2.9,3.14-4.59,4.47l-1.43-2.29c3.82-2.8,6.57-6.4,8.29-10.77H25.2v-2.22H46.55z M42.47,106.73v-7h-9.52v7H42.47z"/>
		<path class="st1" d="M54.28,97.67l-1.59,1.57c-0.92-1.11-2.22-2.29-3.91-3.6l1.57-1.5C51.89,95.33,53.19,96.51,54.28,97.67z
			 M54.35,101.42c-0.97,3.07-2.05,5.97-3.24,8.67l-2.05-0.92c1.26-2.78,2.37-5.63,3.31-8.53L54.35,101.42z M54.69,91.83l-1.57,1.59
			c-0.92-1.06-2.22-2.22-3.89-3.43l1.57-1.5C52.35,89.61,53.63,90.72,54.69,91.83z M61.81,107.41c0.87-1.86,1.3-4.06,1.35-6.59
			V88.83h7.2v19.25c0,1.47-0.77,2.22-2.29,2.22h-1.74l-0.56-2.03c0.58,0.07,1.14,0.12,1.67,0.12s0.82-0.36,0.82-1.06v-5.07
			c-0.99,0.24-2.03,0.48-3.14,0.68c-0.29,2.95-1.11,5.39-2.44,7.34l-1.64-1.45c0.24-0.39,0.48-0.8,0.68-1.21h-4.81v1.33h-2.08v-9.88
			h2.46v-4.2h-2.92v-2.1h2.92v-3.99h2.17v3.99h2.92v2.1h-2.92v4.2h2.34V107.41z M59.76,105.67v-4.66h-2.85v4.66H59.76z M68.26,90.91
			h-3.02v3.58c1.04,0.19,2.05,0.43,3.02,0.72V90.91z M65.24,100.76c1.09-0.19,2.1-0.39,3.02-0.58v-2.95c-1.01-0.29-2-0.56-3.02-0.75
			V100.76z"/>
		<path class="st1" d="M75.58,94.32v-6.13h2.2v6.13h2.05v2.22h-2.05v7.37c0.7-0.31,1.4-0.65,2.08-0.99v2.17
			c-1.98,0.99-4.11,1.83-6.38,2.54l-0.56-2.2c0.92-0.19,1.79-0.43,2.66-0.7v-8.19h-2.25v-2.22H75.58z M88.11,88.08v1.09h5.68v1.81
			h-5.68v1.13h6.69v1.01c-0.19,1.21-0.51,2.44-0.97,3.65l-2.03-0.56c0.31-0.65,0.58-1.38,0.77-2.15h-4.73v1.38l3.29-0.44l0.29,1.74
			l-3.58,0.48v0.27c0,0.48,0.24,0.75,0.75,0.75h4.78v1.67h-5.65c-1.3,0-1.96-0.51-1.96-1.5V97.5l-2.13,0.29l-0.24-1.74l2.37-0.31
			v-1.67H82.8v4.83c0,4.54-1.06,8.38-3.19,11.57l-1.59-1.4c1.79-2.68,2.73-6.06,2.8-10.15v-6.81h5.05v-4.03H88.11z M86.23,107.89
			v-1.57h-2.8v-4.52h1.62v2.87h1.18v-3.94h1.81v7.15h1.3v-7.15h1.81v3.94h1.21v-2.87h1.59v4.52h-2.8v1.57h4.01v1.88h-13v-1.88H86.23
			z"/>
	</g>
	<g>
		<path class="st1" d="M20.51,123.88c0.58,0.34,1.5,0.64,2.44,0.64c1.17,0,1.83-0.55,1.83-1.38c0-0.76-0.51-1.21-1.79-1.68
			c-1.68-0.58-2.74-1.49-2.74-2.92c0-1.67,1.38-2.91,3.58-2.91c1.1,0,1.89,0.24,2.42,0.5l-0.43,1.5c-0.38-0.2-1.08-0.48-2.03-0.48
			c-1.17,0-1.67,0.62-1.67,1.21c0,0.78,0.59,1.14,1.94,1.65c1.75,0.67,2.59,1.56,2.59,3c0,1.63-1.23,3.03-3.83,3.03
			c-1.08,0-2.19-0.3-2.74-0.63L20.51,123.88z"/>
		<path class="st1" d="M28.25,115.23h1.85v4.35h0.03c0.23-0.34,0.54-0.63,0.92-0.82c0.38-0.21,0.81-0.33,1.27-0.33
			c1.25,0,2.55,0.83,2.55,3.17v4.3h-1.85v-4.11c0-1.05-0.39-1.86-1.41-1.86c-0.72,0-1.23,0.48-1.44,1.04
			c-0.06,0.16-0.07,0.36-0.07,0.55v4.38h-1.85V115.23z"/>
		<path class="st1" d="M38.13,122.76c0.04,1.32,1.08,1.89,2.25,1.89c0.85,0,1.46-0.13,2.03-0.33l0.27,1.26
			c-0.63,0.27-1.5,0.46-2.55,0.46c-2.37,0-3.76-1.46-3.76-3.69c0-2.03,1.23-3.93,3.57-3.93c2.37,0,3.15,1.95,3.15,3.55
			c0,0.34-0.03,0.62-0.06,0.78H38.13z M41.34,121.47c0.02-0.67-0.29-1.79-1.51-1.79c-1.14,0-1.62,1.04-1.7,1.79H41.34z"/>
		<path class="st1" d="M46.41,121.8h0.03c0.18-0.29,0.39-0.6,0.57-0.86l1.79-2.35h2.22l-2.71,2.98l3.09,4.32h-2.26l-2.1-3.23
			l-0.62,0.74v2.49h-1.84v-10.67h1.84V121.8z"/>
		<path class="st1" d="M56.48,125.89L54,115.78h1.96l0.96,4.59c0.25,1.23,0.5,2.52,0.66,3.52h0.03c0.17-1.07,0.45-2.26,0.74-3.55
			l1.09-4.56h1.94l1,4.65c0.24,1.2,0.46,2.33,0.61,3.42h0.03c0.18-1.12,0.42-2.26,0.69-3.51l1.05-4.56h1.88l-2.73,10.11h-1.97
			l-1.05-4.77c-0.25-1.14-0.43-2.1-0.57-3.19H60.3c-0.17,1.08-0.36,2.05-0.66,3.21l-1.17,4.75H56.48z"/>
		<path class="st1" d="M73.97,123.7c0,0.87,0.03,1.59,0.06,2.19h-1.6l-0.09-1.09h-0.04c-0.31,0.51-1.04,1.26-2.35,1.26
			c-1.32,0-2.54-0.79-2.54-3.18v-4.29h1.84v3.97c0,1.21,0.39,2,1.37,2c0.75,0,1.23-0.51,1.41-0.99c0.08-0.15,0.11-0.36,0.11-0.57
			v-4.41h1.84V123.7z"/>
		<path class="st1" d="M80.99,115.78v4.05h4.27v-4.05h1.84v10.11h-1.84v-4.46h-4.27v4.46h-1.84v-10.11H80.99z"/>
		<path class="st1" d="M95.69,123.7c0,0.87,0.03,1.59,0.06,2.19h-1.6l-0.09-1.09H94c-0.32,0.51-1.04,1.26-2.35,1.26
			c-1.32,0-2.54-0.79-2.54-3.18v-4.29h1.84v3.97c0,1.21,0.39,2,1.37,2c0.75,0,1.23-0.51,1.41-0.99c0.08-0.15,0.1-0.36,0.1-0.57
			v-4.41h1.85V123.7z"/>
		<path class="st1" d="M98.59,117.54c-0.61,0-1.02-0.45-1.02-0.99c0-0.57,0.42-1,1.03-1c0.63,0,1.02,0.43,1.04,1
			c0,0.54-0.4,0.99-1.04,0.99H98.59z M97.68,125.89v-7.3h1.85v7.3H97.68z"/>
	</g>
	<g>
		<path d="M59.51,38.49c-5.34-3.08-9.66-10.56-9.64-16.7c0.01-2.06,0.51-3.7,1.36-4.86c-2.36,0.73-3.79,3.37-3.81,7.17
			c-0.02,6.14,4.3,13.62,9.64,16.7c3.89,2.25,7.24,1.53,8.79-1.39C64.16,40.13,61.94,39.89,59.51,38.49z"/>
		<path d="M57.19,5.73C51.42,2.4,46.38,2.09,42.61,4.28c1.58-0.92,3.13-1.92,4.78-2.88c3.77-2.19,9-1.88,14.76,1.45
			C73.62,9.46,82.88,25.5,82.84,38.67c-0.01,3.56-0.45,8.26-3.32,12.81L63.7,75.62l-5.95,3.47l18.18-28.67
			c1.23-2.33,1.93-5.31,1.94-8.87C77.91,28.39,68.65,12.35,57.19,5.73z"/>
	</g>
	<path class="st0" d="M77.87,41.55c-0.01,3.56-0.71,6.54-1.94,8.87L57.75,79.09L39.71,32.55c-2.04-6.99-2.56-10.41-2.55-15.22
		c0.03-13.17,8.57-18.22,20.03-11.6C68.65,12.35,77.91,28.39,77.87,41.55z M57.09,40.69c5.34,3.09,9.69,0.61,9.71-5.53
		c0.02-6.14-4.3-13.62-9.65-16.7c-5.34-3.08-9.68-0.61-9.7,5.54C47.43,30.13,51.75,37.61,57.09,40.69L57.09,40.69"/>
</g>
</svg>
