<svg xmlns="http://www.w3.org/2000/svg" width="100" height="114.51" viewBox="0 0 100 114.51">
  <g id="Layer_2" data-name="Layer 2">
    <g id="Pointer">
      <g>
        <rect y="82.31" width="100" height="32.2" rx="16.1" style="fill: #be0000"/>
        <g>
          <path d="M36.48,89.56v1.69H25.1A27.72,27.72,0,0,1,22,97.75H34.6V110H32.81v-1.3H22.71V110H20.93V99.19a28.53,28.53,0,0,1-5.13,5.17l-1.06-1.71a24.64,24.64,0,0,0,8.53-11.4h-8V89.56ZM32.81,107V99.41H22.71V107Z" style="fill: #fff"/>
          <path d="M44.09,97.87,42.9,99.05a26,26,0,0,0-4-3.6l1.18-1.13A27.74,27.74,0,0,1,44.09,97.87Zm0,3.47c-1,3-2.08,6-3.26,8.65l-1.57-.7a76.41,76.41,0,0,0,3.33-8.55ZM44.5,92l-1.21,1.21A23.93,23.93,0,0,0,39.4,89.8l1.18-1.14A28.42,28.42,0,0,1,44.5,92Zm7.19,15.44H46.6v1.42H45V99.19h2.56V94.6H44.45V93h3.14V88.86h1.66V93h3.14V94.6H49.25v4.59h2.44ZM50.12,106v-5.27H46.6V106Zm2.35,4.25-1.26-1.11a15.68,15.68,0,0,0,2.13-8.31V89.05h6.83v19.3a1.69,1.69,0,0,1-2,1.88H56.31l-.41-1.54c.65,0,1.25.09,1.83.09s.85-.33.85-1V102c-1.19.32-2.44.58-3.77.8A15.74,15.74,0,0,1,52.47,110.21Zm2.46-9.52c0,.15,0,.32,0,.51,1.35-.24,2.58-.48,3.67-.77V97.12a31.44,31.44,0,0,0-3.65-.92Zm3.65-10H54.93V94.7a30.82,30.82,0,0,1,3.65.87Z" style="fill: #fff"/>
          <path d="M65.84,94.58V88.25h1.67v6.33h2.25v1.69H67.51v8c.77-.34,1.52-.68,2.27-1.07v1.67a38.8,38.8,0,0,1-6.28,2.51l-.43-1.66c.94-.22,1.86-.49,2.77-.8V96.27H63.4V94.58Zm12-6.42v1.25h5.8v1.4h-5.8v1.55h6.77v.8a19.49,19.49,0,0,1-1,3.57L82,96.32a14.4,14.4,0,0,0,.87-2.46H77.58v1.83l3.53-.48.22,1.35-3.75.51v.63a.75.75,0,0,0,.85.84h4.85v1.31H77.75c-1.18,0-1.76-.49-1.76-1.45V97.29l-2.34.31-.17-1.35L76,95.91v-2H72.53v5a21.07,21.07,0,0,1-3.06,11.5l-1.23-1.09A19.09,19.09,0,0,0,71,98.93V92.36h5.12v-4.2Zm-1.4,20v-2h-2.9v-4.3h1.26v3h1.64v-4h1.4v7.39h1.72v-7.39h1.4v4h1.64v-3h1.26v4.3h-2.9v2h4.15v1.45h-13V108.2Z" style="fill: #fff"/>
        </g>
        <g>
          <path d="M49.51,38.49c-5.34-3.08-9.65-10.56-9.63-16.7a8.06,8.06,0,0,1,1.36-4.86c-2.36.72-3.8,3.36-3.81,7.17,0,6.14,4.3,13.62,9.64,16.7,3.89,2.25,7.25,1.53,8.79-1.38C54.16,40.13,51.94,39.89,49.51,38.49Z"/>
          <path d="M47.19,5.73C41.42,2.4,36.38,2.09,32.61,4.28c1.58-.91,3.13-1.92,4.78-2.88,3.78-2.19,9-1.88,14.77,1.45C63.62,9.46,72.88,25.5,72.84,38.67a23.45,23.45,0,0,1-3.32,12.81L53.7,75.62l-6,3.47L65.94,50.42a19.06,19.06,0,0,0,1.93-8.87C67.91,28.39,58.65,12.35,47.19,5.73Z"/>
        </g>
        <path d="M67.87,41.55a19.06,19.06,0,0,1-1.93,8.87L47.75,79.09l-18-46.54c-2-7-2.56-10.41-2.55-15.21,0-13.17,8.57-18.22,20-11.61S67.91,28.39,67.87,41.55Zm-20.78-.86c5.35,3.09,9.69.61,9.71-5.53s-4.3-13.62-9.65-16.71-9.68-.6-9.7,5.54,4.3,13.62,9.64,16.7h0" style="fill: #be0000"/>
      </g>
    </g>
  </g>
</svg>
