<svg xmlns="http://www.w3.org/2000/svg" width="100" height="114.51" viewBox="0 0 100 114.51">
  <g id="Layer_2" data-name="Layer 2">
    <g id="Pointer">
      <g>
        <rect y="82.31" width="100" height="32.2" rx="16.1" style="fill: #be0000"/>
        <g>
          <path d="M19,103.83A31.45,31.45,0,0,1,17,110l-1.62-.58a30.43,30.43,0,0,0,2-6Zm17-3.24c0,4.79-.31,7.59-.91,8.39s-1.77,1.2-3.48,1.2l-2.15,0L29,108.49c.79.05,1.54.1,2.24.1,1.5,0,2.35-.43,2.59-1.28a23.51,23.51,0,0,0,.36-5.17H17.66V89.07H35.3v1.55H27.74v2.27h6.47v1.52H27.74v2.27h6.42v1.55H27.74v2.36Zm-16.59-10v2.27h6.67V90.62Zm0,6.06h6.67V94.41H19.38Zm0,3.91h6.67V98.23H19.38Zm3.86,8.6-1.64.22a32.45,32.45,0,0,0-.55-5.48l1.57-.17A30,30,0,0,1,23.24,109.19Zm4.69-1.25-1.52.6c-.39-1.59-.82-3.14-1.35-4.66l1.49-.39C27.13,105.11,27.59,106.59,27.93,107.94ZM32,106.75l-1.5.37a28.17,28.17,0,0,0-1.3-3.55l1.42-.49A25.71,25.71,0,0,1,32,106.75Z" style="fill: #fff"/>
          <path d="M43.07,97.33a28.27,28.27,0,0,1-2.8,12.88L39,109.05q2.38-4.53,2.41-11.72V89.12H59.28V95H43.07Zm6.4,7.13a23.15,23.15,0,0,1-5.53,5.22l-1-1.31a22,22,0,0,0,5.46-4.88Zm-6.4-13.77V93.4H57.64V90.69Zm8,10V96H52.8v4.73H60v1.57H52.8v8H51.11v-8h-7v-1.57Zm-2.19-1.26-1.16.85a27.56,27.56,0,0,0-2.42-3.24l1.26-.79A24.54,24.54,0,0,1,48.92,99.48Zm5.19,5,1.09-1a44.82,44.82,0,0,1,5.75,5.1l-1.14,1.16A44.48,44.48,0,0,0,54.11,104.53Zm4.52-7.73a18,18,0,0,1-2.44,3.53l-1.38-.7a18.33,18.33,0,0,0,2.37-3.53Z" style="fill: #fff"/>
          <path d="M70.51,105.09a46,46,0,0,1-6.89,2.15l-.41-1.67c.94-.19,1.86-.39,2.78-.63V96.13H63.38V94.44H66V88.25H67.7v6.19h2.66v1.69H67.7v8.31c1-.34,1.89-.68,2.81-1.07Zm6.47-14V88.23H78.6v2.82h3.81a21.09,21.09,0,0,0-2-2.32L81.57,88a19.35,19.35,0,0,1,2.1,2.42l-.89.62h2.39v1.6H78.6V95h5.55v13.17c0,1.35-.62,2-1.88,2h-2l-.43-1.64,1.88.07a.75.75,0,0,0,.85-.82V105h-4v5.16H77V105H73.11v5.24H71.5V95H77V92.65H70.7v-1.6Zm-3.87,5.51v2.73H77V96.56Zm0,6.91H77v-2.63H73.11Zm9.45-6.91h-4v2.73h4Zm0,4.28h-4v2.63h4Z" style="fill: #fff"/>
        </g>
        <g>
          <path d="M49.51,38.49c-5.34-3.08-9.65-10.56-9.63-16.7a8.06,8.06,0,0,1,1.36-4.86c-2.36.72-3.8,3.36-3.81,7.17,0,6.14,4.3,13.62,9.64,16.7,3.89,2.25,7.25,1.53,8.79-1.38C54.16,40.13,51.94,39.89,49.51,38.49Z"/>
          <path d="M47.19,5.73C41.42,2.4,36.38,2.09,32.61,4.28c1.58-.91,3.13-1.92,4.78-2.88,3.78-2.19,9-1.88,14.77,1.45C63.62,9.46,72.88,25.5,72.84,38.67a23.45,23.45,0,0,1-3.32,12.81L53.7,75.62l-6,3.47L65.94,50.42a19.06,19.06,0,0,0,1.93-8.87C67.91,28.39,58.65,12.35,47.19,5.73Z"/>
        </g>
        <path d="M67.87,41.55a19.06,19.06,0,0,1-1.93,8.87L47.75,79.09l-18-46.54c-2-7-2.56-10.41-2.55-15.21,0-13.17,8.57-18.22,20-11.61S67.91,28.39,67.87,41.55Zm-20.78-.86c5.35,3.09,9.69.61,9.71-5.53s-4.3-13.62-9.65-16.71-9.68-.6-9.7,5.54,4.3,13.62,9.64,16.7h0" style="fill: #be0000"/>
      </g>
    </g>
  </g>
</svg>
