<?xml version="1.0" encoding="utf-8"?>
<!-- Generator: Adobe Illustrator 24.3.0, SVG Export Plug-In . SVG Version: 6.00 Build 0)  -->
<svg version="1.1" id="Layer_2" xmlns="http://www.w3.org/2000/svg" xmlns:xlink="http://www.w3.org/1999/xlink" x="0px" y="0px"
	 viewBox="0 0 120 135.31" style="enable-background:new 0 0 120 135.31;" xml:space="preserve">
<style type="text/css">
	.st0{fill:#BE0000;}
	.st1{fill:#FFFFFF;}
</style>
<g>
	<path class="st0" d="M93.5,135.31h-67c-14.64,0-26.5-11.86-26.5-26.5v0c0-14.64,11.86-26.5,26.5-26.5h67
		c14.64,0,26.5,11.86,26.5,26.5v0C120,123.44,108.14,135.31,93.5,135.31z"/>
	<g>
		<path class="st1" d="M29.19,103.88c-0.48,2.37-1.09,4.44-1.84,6.23l-2.15-0.77c0.77-1.59,1.43-3.58,1.98-5.99L29.19,103.88z
			 M46.19,100.35c0,4.95-0.31,7.85-0.94,8.67c-0.63,0.82-1.81,1.26-3.57,1.26c-0.72,0-1.45-0.02-2.22-0.05l-0.53-2.2
			c0.85,0.1,1.64,0.14,2.37,0.14c1.3,0,2.05-0.39,2.25-1.16c0.19-0.77,0.31-2.32,0.31-4.64H27.5V88.81h17.87v2.05h-7.29v1.81h6.21
			v1.96h-6.21v1.84h6.16v1.98h-6.16v1.91H46.19z M29.77,90.86v1.81h6.06v-1.81H29.77z M29.77,96.46h6.06v-1.84h-6.06V96.46z
			 M29.77,100.35h6.06v-1.91h-6.06V100.35z M33.46,109.12l-2.17,0.29c-0.07-2.34-0.24-4.16-0.48-5.46l2.05-0.22
			C33.15,105.04,33.37,106.85,33.46,109.12z M38.15,107.82l-2,0.77c-0.39-1.57-0.82-3.12-1.3-4.61l1.96-0.51
			C37.38,105.06,37.81,106.51,38.15,107.82z M42.13,106.66l-1.96,0.48c-0.34-1.23-0.73-2.39-1.21-3.5l1.86-0.63
			C41.31,104.07,41.75,105.28,42.13,106.66z"/>
		<path class="st1" d="M53.34,97.21c-0.02,5.1-0.94,9.49-2.73,13.16l-1.72-1.54c1.47-3,2.22-6.88,2.25-11.62V88.9h18.38v6.28H53.34
			V97.21z M59.59,104.63c-1.47,2-3.29,3.74-5.43,5.19l-1.38-1.71c2.12-1.35,3.94-2.92,5.39-4.71L59.59,104.63z M53.34,90.96v2.2
			h14.01v-2.2H53.34z M60.85,100.5v-4.56h2.22v4.56h6.96v2.08h-6.96v7.78h-2.22v-7.78h-6.86v-2.08H60.85z M59.04,99.36l-1.55,1.09
			c-0.58-0.97-1.35-2.03-2.32-3.19l1.64-1.04C57.78,97.41,58.51,98.45,59.04,99.36z M63.99,104.73l1.43-1.35
			c1.57,1.11,3.48,2.75,5.7,4.95l-1.52,1.55C67.88,108.04,66.02,106.32,63.99,104.73z M68.84,96.88c-0.58,1.21-1.38,2.42-2.34,3.58
			l-1.79-0.92c0.94-1.21,1.69-2.39,2.25-3.58L68.84,96.88z"/>
		<path class="st1" d="M80.58,105.26c-2.17,0.87-4.47,1.59-6.93,2.2l-0.56-2.22c0.89-0.17,1.76-0.36,2.63-0.58v-8.26h-2.42v-2.22
			h2.42v-5.99h2.25v5.99h2.46v2.22h-2.46V104c0.87-0.29,1.74-0.63,2.61-0.99V105.26z M86.71,90.79v-2.63h2.15v2.63H92
			c-0.48-0.63-1.04-1.28-1.71-1.98l1.5-0.92c0.89,0.89,1.57,1.69,2.05,2.37l-0.75,0.53h2.15v2.13h-6.38v1.86h5.46v13.12
			c0,1.57-0.75,2.37-2.22,2.37h-1.86l-0.56-2.15l1.69,0.1c0.56,0,0.84-0.27,0.84-0.8v-2.17h-3.36v5.02h-2.15v-5.02h-3.24v5.1h-2.12
			V94.77h5.36v-1.86h-6.09v-2.13H86.71z M83.48,96.83v2.25h3.24v-2.25H83.48z M83.48,103.25h3.24v-2.2h-3.24V103.25z M92.22,96.83
			h-3.36v2.25h3.36V96.83z M92.22,101.05h-3.36v2.2h3.36V101.05z"/>
	</g>
	<g>
		<path class="st1" d="M38.12,121.76c-0.06-1.3-0.13-2.86-0.12-4.25h-0.04c-0.33,1.23-0.75,2.6-1.2,3.87l-1.48,4.38h-1.41
			l-1.35-4.32c-0.39-1.29-0.75-2.67-1.02-3.93h-0.03c-0.05,1.32-0.1,2.93-0.18,4.3l-0.22,4.07h-1.73L30,115.78h2.43l1.32,4.06
			c0.36,1.18,0.67,2.39,0.93,3.51h0.04c0.27-1.1,0.61-2.34,1-3.53l1.39-4.05h2.4l0.58,10.11h-1.8L38.12,121.76z"/>
		<path class="st1" d="M47.64,124.13c0,0.66,0.03,1.3,0.12,1.75H46.1l-0.14-0.81h-0.04c-0.43,0.57-1.2,0.97-2.16,0.97
			c-1.47,0-2.29-1.06-2.29-2.17c0-1.83,1.64-2.77,4.33-2.76V121c0-0.48-0.19-1.28-1.48-1.28c-0.72,0-1.47,0.22-1.96,0.54l-0.36-1.2
			c0.54-0.33,1.49-0.64,2.64-0.64c2.34,0,3.02,1.48,3.02,3.09V124.13z M45.84,122.32c-1.31-0.02-2.55,0.25-2.55,1.36
			c0,0.72,0.47,1.05,1.05,1.05c0.75,0,1.27-0.48,1.45-1c0.05-0.13,0.05-0.27,0.05-0.41V122.32z"/>
		<path class="st1" d="M52.74,123.88c0.58,0.34,1.5,0.65,2.44,0.65c1.17,0,1.83-0.56,1.83-1.38c0-0.76-0.51-1.21-1.78-1.68
			c-1.68-0.58-2.75-1.48-2.75-2.92c0-1.67,1.38-2.91,3.58-2.91c1.09,0,1.89,0.24,2.42,0.5l-0.44,1.5c-0.38-0.2-1.08-0.48-2.02-0.48
			c-1.17,0-1.67,0.62-1.67,1.21c0,0.78,0.58,1.14,1.93,1.65c1.75,0.68,2.59,1.56,2.59,3c0,1.63-1.23,3.03-3.82,3.03
			c-1.08,0-2.19-0.3-2.75-0.63L52.74,123.88z"/>
		<path class="st1" d="M60.48,115.22h1.84v4.35h0.03c0.22-0.34,0.54-0.63,0.92-0.82c0.38-0.21,0.81-0.33,1.27-0.33
			c1.25,0,2.55,0.83,2.55,3.17v4.3h-1.84v-4.11c0-1.05-0.39-1.86-1.41-1.86c-0.72,0-1.23,0.48-1.44,1.04
			c-0.06,0.16-0.08,0.36-0.08,0.55v4.38h-1.84V115.22z"/>
		<path class="st1" d="M69.98,117.54c-0.62,0-1.02-0.45-1.02-0.99c0-0.57,0.42-1,1.04-1c0.63,0,1.02,0.43,1.03,1
			c0,0.54-0.4,0.99-1.03,0.99H69.98z M69.06,125.89v-7.3h1.85v7.3H69.06z"/>
		<path class="st1" d="M76.08,115.92c0.67-0.12,1.59-0.21,2.82-0.21c1.35,0,2.33,0.29,2.97,0.83c0.6,0.5,0.99,1.29,0.99,2.24
			c0,0.96-0.3,1.74-0.85,2.28c-0.75,0.73-1.89,1.09-3.2,1.09c-0.34,0-0.64-0.01-0.9-0.08v3.83h-1.83V115.92z M77.91,120.61
			c0.24,0.08,0.53,0.09,0.9,0.09c1.38,0,2.22-0.69,2.22-1.86c0-1.11-0.78-1.71-2.05-1.71c-0.51,0-0.87,0.04-1.07,0.09V120.61z"/>
		<path class="st1" d="M87.21,126.05c-2.06,0-3.66-1.41-3.66-3.76c0-2.4,1.57-3.87,3.78-3.87c2.18,0,3.63,1.53,3.63,3.75
			c0,2.68-1.89,3.88-3.73,3.88H87.21z M87.27,124.72c1.05,0,1.79-1.02,1.79-2.5c0-1.14-0.51-2.46-1.77-2.46
			c-1.3,0-1.83,1.27-1.83,2.49c0,1.41,0.71,2.48,1.8,2.48H87.27z"/>
	</g>
	<g>
		<path d="M59.51,38.49c-5.34-3.08-9.66-10.56-9.64-16.7c0.01-2.06,0.51-3.7,1.36-4.86c-2.36,0.73-3.79,3.37-3.81,7.17
			c-0.02,6.14,4.3,13.62,9.64,16.7c3.89,2.25,7.24,1.53,8.79-1.39C64.16,40.13,61.94,39.89,59.51,38.49z"/>
		<path d="M57.19,5.73C51.42,2.4,46.38,2.09,42.61,4.28c1.58-0.92,3.13-1.92,4.78-2.88c3.77-2.19,9-1.88,14.76,1.45
			C73.62,9.46,82.88,25.5,82.84,38.67c-0.01,3.56-0.45,8.26-3.32,12.81L63.7,75.62l-5.95,3.47l18.18-28.67
			c1.23-2.33,1.93-5.31,1.94-8.87C77.91,28.39,68.65,12.35,57.19,5.73z"/>
	</g>
	<path class="st0" d="M77.87,41.55c-0.01,3.56-0.71,6.54-1.94,8.87L57.75,79.09L39.71,32.55c-2.04-6.99-2.56-10.41-2.55-15.22
		c0.03-13.17,8.57-18.22,20.03-11.6C68.65,12.35,77.91,28.39,77.87,41.55z M57.09,40.69c5.34,3.09,9.69,0.61,9.71-5.53
		c0.02-6.14-4.3-13.62-9.65-16.7c-5.34-3.08-9.68-0.61-9.7,5.54C47.43,30.13,51.75,37.61,57.09,40.69L57.09,40.69"/>
</g>
</svg>
