<svg xmlns="http://www.w3.org/2000/svg" width="100" height="114.51" viewBox="0 0 100 114.51">
  <g id="Layer_2" data-name="Layer 2">
    <g id="Pointer">
      <g>
        <rect y="82.31" width="100" height="32.2" rx="16.1" style="fill: #be0000"/>
        <g>
          <path d="M23.17,89.17v1.6H21.8v19.66H20.2v-4.59a34.71,34.71,0,0,1-5,1.64l-.41-1.62,1.19-.26V90.77h-1v-1.6Zm-3,5.17V90.77H17.52v3.57Zm0,5.12V95.89H17.52v3.57Zm0,4.76V101H17.52v4.15A24.26,24.26,0,0,0,20.2,104.22Zm9.47-5.15-1.23.32c-.1-.39-.17-.77-.24-1.11-1.84.34-3.53.6-5.08.79l-.33-1.25A13,13,0,0,0,26.24,94l-3.09.29L22.79,93a1.6,1.6,0,0,0,.6-.55A21.9,21.9,0,0,0,25.68,88l1.43.55a24.46,24.46,0,0,1-2.44,4.28l2.44-.27,1.21-2,1.33.53A31.14,31.14,0,0,1,25,97.58l2.9-.51c-.2-.7-.39-1.35-.58-2l1.18-.38A30.65,30.65,0,0,1,29.67,99.07Zm-4.54,1.21v4h2.08a9.62,9.62,0,0,0,.12-1.43V99.75H28.9v3.14a8.85,8.85,0,0,1-1.24,4.71,7.35,7.35,0,0,1-3.79,2.56L23,108.78a6.68,6.68,0,0,0,3.38-2.19c.15-.27.29-.53.42-.82H23.61v-5.49ZM37,99.15l-1.23.31c-.1-.46-.22-.89-.32-1.33-1.78.24-3.4.46-4.9.63l-.32-1.26a11.93,11.93,0,0,0,3-3.72l-3.07.29-.36-1.25a1.64,1.64,0,0,0,.6-.56,21.79,21.79,0,0,0,1.93-4.08l1.43.56a24.86,24.86,0,0,1-2.13,3.93c.77,0,1.57-.12,2.37-.21.34-.63.68-1.31,1.06-2l1.33.53a30,30,0,0,1-4.15,6.36l2.92-.44c-.19-.72-.41-1.45-.65-2.15l1.18-.36A41.23,41.23,0,0,1,37,99.15Zm-1,1.18V106H32.35v4.45H30.76V99.73h1.59v4.8h2.13v-4.2Z" style="fill: #fff"/>
          <path d="M43.87,94.8V91.32c-1.21.19-2.44.34-3.7.44l-.55-1.55a33,33,0,0,0,9-1.81l.82,1.45A29.07,29.07,0,0,1,45.56,91V94.8h4.13v1.62H45.56v1.21a50.91,50.91,0,0,1,4.23,4.22l-1,1.5c-1.25-1.71-2.32-3.09-3.21-4.11v10.9H43.87V99.41a23.38,23.38,0,0,1-4.13,6.23L39,103.76a18.9,18.9,0,0,0,4.86-7.17v-.17H39.64V94.8Zm16,14.54H58.22v-1.91H52.35v2.15H50.68V89.8h9.23Zm-1.69-3.55V91.42H52.35v14.37Z" style="fill: #fff"/>
          <path d="M65.84,94.58V88.25h1.67v6.33h2.25v1.69H67.51v8c.77-.34,1.52-.68,2.27-1.07v1.67a38.8,38.8,0,0,1-6.28,2.51l-.43-1.66c.94-.22,1.86-.49,2.77-.8V96.27H63.4V94.58Zm12-6.42v1.25h5.8v1.4h-5.8v1.55h6.77v.8a19.49,19.49,0,0,1-1,3.57L82,96.32a14.4,14.4,0,0,0,.87-2.46H77.58v1.83l3.53-.48.22,1.35-3.75.51v.63a.75.75,0,0,0,.85.84h4.85v1.31H77.75c-1.18,0-1.76-.49-1.76-1.45V97.29l-2.34.31-.17-1.35L76,95.91v-2H72.53v5a21.07,21.07,0,0,1-3.06,11.5l-1.24-1.09A19,19,0,0,0,71,98.93V92.36h5.12v-4.2Zm-1.4,20v-2h-2.9v-4.3h1.26v3h1.64v-4h1.4v7.39h1.72v-7.39h1.4v4h1.64v-3h1.26v4.3h-2.9v2h4.15v1.45h-13V108.2Z" style="fill: #fff"/>
        </g>
        <g>
          <path d="M49.51,38.49c-5.34-3.08-9.65-10.56-9.63-16.7a8.06,8.06,0,0,1,1.36-4.86c-2.36.72-3.8,3.36-3.81,7.17,0,6.14,4.3,13.62,9.64,16.7,3.89,2.25,7.25,1.53,8.79-1.38C54.16,40.13,51.94,39.89,49.51,38.49Z"/>
          <path d="M47.19,5.73C41.42,2.4,36.38,2.09,32.61,4.28c1.58-.91,3.13-1.92,4.78-2.88,3.78-2.19,9-1.88,14.77,1.45C63.62,9.46,72.88,25.5,72.84,38.67a23.45,23.45,0,0,1-3.32,12.81L53.7,75.62l-6,3.47L65.94,50.42a19.06,19.06,0,0,0,1.93-8.87C67.91,28.39,58.65,12.35,47.19,5.73Z"/>
        </g>
        <path d="M67.87,41.55a19.06,19.06,0,0,1-1.93,8.87L47.75,79.09l-18-46.54c-2-7-2.56-10.41-2.55-15.21,0-13.17,8.57-18.22,20-11.61S67.91,28.39,67.87,41.55Zm-20.78-.86c5.35,3.09,9.69.61,9.71-5.53s-4.3-13.62-9.65-16.71-9.68-.6-9.7,5.54,4.3,13.62,9.64,16.7h0" style="fill: #be0000"/>
      </g>
    </g>
  </g>
</svg>
