<?xml version="1.0" encoding="utf-8"?>
<!-- Generator: Adobe Illustrator 24.3.0, SVG Export Plug-In . SVG Version: 6.00 Build 0)  -->
<svg version="1.1" id="Layer_2_1_" xmlns="http://www.w3.org/2000/svg" xmlns:xlink="http://www.w3.org/1999/xlink" x="0px" y="0px"
	 width="120" height="135.3" viewBox="0 0 120 135.3" style="enable-background:new 0 0 120 135.3;" xml:space="preserve">
<style type="text/css">
	.st0{fill:#BE0000;}
	.st1{enable-background:new    ;}
	.st2{fill:#FFFFFF;}
</style>
<g>
	<path class="st0" d="M93.5,135.3h-67C11.9,135.3,0,123.4,0,108.8l0,0c0-14.6,11.9-26.5,26.5-26.5h67c14.6,0,26.5,11.9,26.5,26.5
		l0,0C120,123.4,108.1,135.3,93.5,135.3z"/>
	<g class="st1">
		<path class="st2" d="M33.2,88.9V91H32v19.4h-2.1v-4.3c-1.5,0.6-3,1.1-4.6,1.5l-0.5-2.1c0.4-0.1,0.7-0.1,1.1-0.2V91h-0.9v-2.1H33.2
			z M29.8,94.1V91h-2v3.1H29.8z M29.8,99.2v-3.1h-2v3.1H29.8z M29.8,104v-2.8h-2v3.5C28.5,104.6,29.2,104.3,29.8,104z M39.8,99
			l-1.6,0.4c-0.1-0.3-0.1-0.6-0.2-0.9c-1.8,0.3-3.4,0.5-4.9,0.7l-0.4-1.6c0.8-0.5,1.9-1.6,3.1-3.4c-0.9,0.1-1.8,0.2-2.7,0.3
			l-0.5-1.7c0.3-0.1,0.5-0.4,0.8-0.7c0.8-1.2,1.5-2.6,2.1-4.1l1.9,0.7c-0.8,1.6-1.5,2.9-2.3,3.9c0.6,0,1.3-0.1,1.9-0.2
			c0.4-0.6,0.7-1.2,1.1-1.9l1.7,0.7c-1,1.6-1.9,2.9-2.6,3.9l1.4-0.5C39.1,96,39.5,97.4,39.8,99z M35.3,100.2v3.9h1.6
			c0-0.4,0.1-0.8,0.1-1.2v-3.2h2.1v3.2c-0.1,2-0.5,3.6-1.3,4.8c-0.8,1.1-2.1,2-3.8,2.6l-1.1-1.8c1.6-0.6,2.7-1.3,3.3-2.1
			c0.1-0.1,0.1-0.3,0.2-0.4h-3v-5.8H35.3z M35.4,97.3c0.7-0.1,1.4-0.2,2.2-0.4c-0.2-0.6-0.3-1.1-0.5-1.6
			C36.5,96.1,35.9,96.8,35.4,97.3z M47.1,99.1l-1.6,0.4c-0.1-0.4-0.2-0.8-0.2-1.2c-1.7,0.2-3.3,0.4-4.8,0.6l-0.4-1.6
			c0.7-0.5,1.6-1.6,2.7-3.3c-0.9,0.1-1.8,0.2-2.8,0.3l-0.5-1.6c0.3-0.1,0.5-0.4,0.8-0.7c0.7-1.1,1.2-2.4,1.7-3.8l1.9,0.7
			c-0.7,1.4-1.3,2.6-2,3.6c0.6,0,1.2-0.1,1.9-0.2l1-1.8l1.7,0.7c-0.8,1.5-1.5,2.7-2.2,3.7l1.4-0.5C46.3,95.7,46.7,97.3,47.1,99.1z
			 M46.2,100.3v5.9h-3.6v4.3h-2.1V99.7h2.1v4.7h1.6v-4.1H46.2z M42.6,97.1c0.7-0.1,1.4-0.2,2.3-0.3c-0.2-0.7-0.4-1.3-0.6-1.9
			C43.7,95.8,43.1,96.6,42.6,97.1z"/>
		<path class="st2" d="M53.6,94.5v-2.9c-1.1,0.2-2.2,0.3-3.4,0.4L49.5,90c3.7-0.3,6.7-0.9,9-1.8l1.1,1.9c-1.2,0.4-2.5,0.8-3.8,1.1
			v3.3h3.9v2.1h-3.9v1c1.4,1.2,2.7,2.5,4.1,4l-1.4,2c-1.1-1.5-2-2.8-2.8-3.7v10.3h-2.2v-9.8c-1,2-2.2,3.9-3.7,5.6l-1-2.5
			c2.1-1.9,3.7-4.2,4.7-6.6v-0.1h-4v-2.1H53.6z M70.2,109.4H68v-1.8h-5.2v2.1h-2.2V89.5h9.7V109.4z M68,105.4V91.7h-5.2v13.7H68z"/>
		<path class="st2" d="M75.6,94.3v-6.1h2.2v6.1h2.1v2.2h-2.1v7.4c0.7-0.3,1.4-0.7,2.1-1v2.2c-2,1-4.1,1.8-6.4,2.5l-0.6-2.2
			c0.9-0.2,1.8-0.4,2.7-0.7v-8.2h-2.2v-2.2H75.6z M88.1,88.1v1.1h5.7V91h-5.7v1.1h6.7v1c-0.2,1.2-0.5,2.4-1,3.6l-2-0.6
			c0.3-0.7,0.6-1.4,0.8-2.1h-4.7v1.4l3.3-0.4l0.3,1.7l-3.6,0.5v0.3c0,0.5,0.2,0.7,0.7,0.7h4.8v1.7h-5.7c-1.3,0-2-0.5-2-1.5v-0.9
			l-2.1,0.3l-0.2-1.7l2.4-0.3v-1.7h-3v4.8c0,4.5-1.1,8.4-3.2,11.6l-1.6-1.4c1.8-2.7,2.7-6.1,2.8-10.1v-6.8h5v-4H88.1z M86.2,107.9
			v-1.6h-2.8v-4.5H85v2.9h1.2v-3.9H88v7.1h1.3v-7.1h1.8v3.9h1.2v-2.9H94v4.5h-2.8v1.6h4v1.9h-13v-1.9H86.2z"/>
	</g>
	<g class="st1">
		<path class="st2" d="M19.9,115.8h1.8v8.6h4.2v1.5h-6V115.8z"/>
		<path class="st2" d="M33.5,123.7c0,0.9,0,1.6,0.1,2.2H32l-0.1-1.1h0c-0.3,0.5-1,1.3-2.4,1.3c-1.3,0-2.5-0.8-2.5-3.2v-4.3h1.8v4
			c0,1.2,0.4,2,1.4,2c0.8,0,1.2-0.5,1.4-1c0.1-0.1,0.1-0.4,0.1-0.6v-4.4h1.8V123.7z"/>
		<path class="st2" d="M36.8,122.8c0,1.3,1.1,1.9,2.2,1.9c0.9,0,1.5-0.1,2-0.3l0.3,1.3c-0.6,0.3-1.5,0.5-2.5,0.5
			c-2.4,0-3.8-1.5-3.8-3.7c0-2,1.2-3.9,3.6-3.9c2.4,0,3.1,2,3.1,3.6c0,0.3,0,0.6-0.1,0.8H36.8z M40,121.5c0-0.7-0.3-1.8-1.5-1.8
			c-1.1,0-1.6,1-1.7,1.8H40z"/>
		<path class="st2" d="M43.3,120.8c0-0.8,0-1.5-0.1-2.2h1.6l0.1,1.1h0c0.3-0.6,1.1-1.3,2.3-1.3c1.3,0,2.6,0.8,2.6,3.1v4.3H48v-4.1
			c0-1-0.4-1.8-1.4-1.8c-0.7,0-1.2,0.5-1.4,1.1c-0.1,0.1-0.1,0.4-0.1,0.6v4.3h-1.8V120.8z"/>
		<path class="st2" d="M56.1,125.9l-2.5-10.1h2l1,4.6c0.3,1.2,0.5,2.5,0.7,3.5h0c0.2-1.1,0.5-2.3,0.7-3.6l1.1-4.6H61l1,4.6
			c0.2,1.2,0.5,2.3,0.6,3.4h0c0.2-1.1,0.4-2.3,0.7-3.5l1-4.6h1.9l-2.7,10.1h-2l-1.1-4.8c-0.3-1.1-0.4-2.1-0.6-3.2h0
			c-0.2,1.1-0.4,2.1-0.7,3.2l-1.2,4.8H56.1z"/>
		<path class="st2" d="M70.1,126.1c-2.1,0-3.7-1.4-3.7-3.8c0-2.4,1.6-3.9,3.8-3.9c2.2,0,3.6,1.5,3.6,3.8
			C73.8,124.9,71.9,126.1,70.1,126.1L70.1,126.1z M70.1,124.7c1.1,0,1.8-1,1.8-2.5c0-1.1-0.5-2.5-1.8-2.5c-1.3,0-1.8,1.3-1.8,2.5
			C68.3,123.7,69,124.7,70.1,124.7L70.1,124.7z"/>
		<path class="st2" d="M80.4,115.8v4h4.3v-4h1.8v10.1h-1.8v-4.5h-4.3v4.5h-1.8v-10.1H80.4z"/>
		<path class="st2" d="M95.1,123.7c0,0.9,0,1.6,0.1,2.2h-1.6l-0.1-1.1h0c-0.3,0.5-1,1.3-2.4,1.3c-1.3,0-2.5-0.8-2.5-3.2v-4.3h1.8v4
			c0,1.2,0.4,2,1.4,2c0.8,0,1.2-0.5,1.4-1c0.1-0.1,0.1-0.4,0.1-0.6v-4.4h1.8V123.7z"/>
		<path class="st2" d="M98,117.5c-0.6,0-1-0.5-1-1c0-0.6,0.4-1,1-1c0.6,0,1,0.4,1,1C99,117.1,98.6,117.5,98,117.5L98,117.5z
			 M97.1,125.9v-7.3h1.8v7.3H97.1z"/>
	</g>
	<g>
		<path d="M59.5,38.5c-5.3-3.1-9.7-10.6-9.6-16.7c0-2.1,0.5-3.7,1.4-4.9c-2.4,0.7-3.8,3.4-3.8,7.2c0,6.1,4.3,13.6,9.6,16.7
			c3.9,2.2,7.2,1.5,8.8-1.4C64.2,40.1,61.9,39.9,59.5,38.5z"/>
		<path d="M57.2,5.7c-5.8-3.3-10.8-3.6-14.6-1.4c1.6-0.9,3.1-1.9,4.8-2.9c3.8-2.2,9-1.9,14.8,1.5c11.5,6.6,20.7,22.6,20.7,35.8
			c0,3.6-0.4,8.3-3.3,12.8L63.7,75.6l-6,3.5l18.2-28.7c1.2-2.3,1.9-5.3,1.9-8.9C77.9,28.4,68.7,12.4,57.2,5.7z"/>
	</g>
	<path class="st0" d="M77.9,41.5c0,3.6-0.7,6.5-1.9,8.9L57.8,79.1l-18-46.5c-2-7-2.6-10.4-2.5-15.2c0-13.2,8.6-18.2,20-11.6
		S77.9,28.4,77.9,41.5z M57.1,40.7c5.3,3.1,9.7,0.6,9.7-5.5c0-6.1-4.3-13.6-9.7-16.7c-5.3-3.1-9.7-0.6-9.7,5.5
		C47.4,30.1,51.8,37.6,57.1,40.7L57.1,40.7"/>
</g>
</svg>
