<?xml version="1.0" encoding="utf-8"?>
<!-- Generator: Adobe Illustrator 24.3.0, SVG Export Plug-In . SVG Version: 6.00 Build 0)  -->
<svg version="1.1" id="Layer_2" xmlns="http://www.w3.org/2000/svg" xmlns:xlink="http://www.w3.org/1999/xlink" x="0px" y="0px"
	 width="120" height="135.31" viewBox="0 0 120 135.31" style="enable-background:new 0 0 120 135.31;" xml:space="preserve">
<style type="text/css">
	.st0{fill:#BE0000;}
	.st1{fill:#FFFFFF;}
	.st2{font-family:'PingFangTC-Medium-B5pc-H';}
	.st3{font-size:24.15px;}
	.st4{font-family:'MyriadPro-Semibold';}
	.st5{font-size:15px;}
</style>
<g>
	<path class="st0" d="M93.5,135.31h-67c-14.64,0-26.5-11.86-26.5-26.5v0c0-14.64,11.86-26.5,26.5-26.5h67
		c14.64,0,26.5,11.86,26.5,26.5v0C120,123.44,108.14,135.31,93.5,135.31z"/>
	<text transform="matrix(1 0 0 1 23.7761 107.8909)" class="st1 st2 st3">聯和墟</text>
	<text transform="matrix(1 0 0 1 18.7969 125.8909)" class="st1 st4 st5">Luen Wo Hui</text>
	<g>
		<path d="M59.51,38.49c-5.34-3.08-9.66-10.56-9.64-16.7c0.01-2.06,0.51-3.7,1.36-4.86c-2.36,0.73-3.79,3.37-3.81,7.17
			c-0.02,6.14,4.3,13.62,9.64,16.7c3.89,2.25,7.24,1.53,8.79-1.39C64.16,40.13,61.94,39.89,59.51,38.49z"/>
		<path d="M57.19,5.73C51.42,2.4,46.38,2.09,42.61,4.28c1.58-0.92,3.13-1.92,4.78-2.88c3.77-2.19,9-1.88,14.76,1.45
			C73.62,9.46,82.88,25.5,82.84,38.67c-0.01,3.56-0.45,8.26-3.32,12.81L63.7,75.62l-5.95,3.47l18.18-28.67
			c1.23-2.33,1.93-5.31,1.94-8.87C77.91,28.39,68.65,12.35,57.19,5.73z"/>
	</g>
	<path class="st0" d="M77.87,41.55c-0.01,3.56-0.71,6.54-1.94,8.87L57.75,79.09L39.71,32.55c-2.04-6.99-2.56-10.41-2.55-15.22
		c0.03-13.17,8.57-18.22,20.03-11.6C68.65,12.35,77.91,28.39,77.87,41.55z M57.09,40.69c5.34,3.09,9.69,0.61,9.71-5.53
		c0.02-6.14-4.3-13.62-9.65-16.7c-5.34-3.08-9.68-0.61-9.7,5.54C47.43,30.13,51.75,37.61,57.09,40.69L57.09,40.69"/>
</g>
</svg>
