<svg xmlns="http://www.w3.org/2000/svg" width="140" height="114.51" viewBox="0 0 140 114.51">
  <g id="Layer_2" data-name="Layer 2">
    <g id="Pointer">
      <g>
        <rect y="82.31" width="140" height="32.2" rx="16.1" style="fill: #be0000"/>
        <g>
          <path d="M31.87,94.63H30.21v-3h-17v3H11.53V90.06h9.4A18.44,18.44,0,0,0,20,88.28L21.87,88a15.34,15.34,0,0,1,.87,2.07h9.13Zm-1.5,15.7H28.71v-.87H14.82v.89H13.15V101.8H30.37ZM29,93.13v1.4H14.38v-1.4Zm-8.12,11.79v-1.76H14.82v1.76Zm0,3.16v-1.86H14.82v1.86Zm7.37-12.19v4.59h-13V95.89Zm-1.64,1.32H16.87v2h9.74Zm-4,7.71h6.11v-1.76H22.6Zm6.11,3.16v-1.86H22.6v1.86Z" style="fill: #fff"/>
          <path d="M41.46,90.33a14.61,14.61,0,0,0-1.36-2L42,88a20.94,20.94,0,0,1,1.25,2.34h5.2a8.56,8.56,0,0,0,1.28-2.42l1.86.25a8.35,8.35,0,0,1-1.26,2.17h5.19v1.52H46.7v1.67h7.78V94.9H46.7v1.64H56v1.54H52a11.22,11.22,0,0,1-1,2.13h5.43v1.55H35.27v-1.55H41a13.17,13.17,0,0,0-1.16-2.13H35.68V96.54H45V94.9H37.23V93.52H45V91.85H36.14V90.33Zm12.49,20h-1.7v-1H39.5v1H37.81v-7H54Zm-1.7-2.63V104.9H39.5v2.82Zm-1.93-9.64H41.63a22.3,22.3,0,0,1,.94,2.13h6.71A10.74,10.74,0,0,0,50.32,98.08Z" style="fill: #fff"/>
          <path d="M64.57,88.66a18.77,18.77,0,0,1-5.34,7.25l-.51-1.64A16.21,16.21,0,0,0,63.07,88Zm.53,6.26a18,18,0,0,1-2,3.7v11.61H61.52v-9.68a19.66,19.66,0,0,1-2.07,2L58.94,101a18.12,18.12,0,0,0,4.76-6.69Zm3.67,6.4V98.93h1.67v2.39h3.5v1.55h-3.5v3.4c1.42-.24,2.82-.53,4.2-.82V107c-3,.72-6.21,1.3-9.66,1.78l-.41-1.66c1.42-.15,2.82-.34,4.2-.56v-3.69h-3.4v-1.55Zm0-9.66V88.47h1.66v3.19h3.36V93.2H70.46v3.27h3.87v-1h6.83V97H78.87v10.89c0,1.5-.65,2.25-1.93,2.25H74.09l-.37-1.62c.92.08,1.81.12,2.66.12.53,0,.8-.38.8-1.16V97H74.42v1H65V96.47H68.8V93.2H65.51V91.66ZM80.73,89.8v1.57h-6V89.8Z" style="fill: #fff"/>
          <path d="M85.84,94.58V88.25h1.67v6.33h2.25v1.69H87.51v8c.77-.34,1.52-.68,2.27-1.07v1.67a38.8,38.8,0,0,1-6.28,2.51l-.43-1.66c.94-.22,1.86-.49,2.77-.8V96.27H83.4V94.58Zm12-6.42v1.25h5.8v1.4h-5.8v1.55h6.77v.8a19.49,19.49,0,0,1-1,3.57L102,96.32a14.4,14.4,0,0,0,.87-2.46H97.58v1.83l3.53-.48.22,1.35-3.75.51v.63a.75.75,0,0,0,.85.84h4.85v1.31H97.75c-1.18,0-1.76-.49-1.76-1.45V97.29l-2.34.31-.17-1.35L96,95.91v-2H92.53v5a21.07,21.07,0,0,1-3.06,11.5l-1.23-1.09A19.09,19.09,0,0,0,91,98.93V92.36h5.12v-4.2Zm-1.4,20v-2h-2.9v-4.3h1.26v3h1.64v-4h1.4v7.39h1.72v-7.39h1.4v4h1.64v-3h1.26v4.3h-2.9v2h4.15v1.45h-13V108.2Z" style="fill: #fff"/>
          <path d="M117.36,90.93a24.93,24.93,0,0,0-1.26-2.73l1.86-.29c.39.9.78,1.91,1.16,3H129V92.6h-9.8v3.17h7.85v8.76a2,2,0,0,1-2.2,2.2h-2.42l-.43-1.67,2.29.1a.9.9,0,0,0,1-1V97.43H119.2v12.83h-1.79V97.43h-5.82v9.47h-1.72V95.77h7.54V92.6H107.6V90.93Z" style="fill: #fff"/>
        </g>
        <g>
          <path d="M69.51,38.49c-5.34-3.08-9.65-10.56-9.63-16.7a8.06,8.06,0,0,1,1.36-4.86c-2.36.72-3.8,3.36-3.81,7.17,0,6.14,4.3,13.62,9.64,16.7,3.89,2.25,7.25,1.53,8.79-1.38C74.16,40.13,71.94,39.89,69.51,38.49Z"/>
          <path d="M67.19,5.73C61.42,2.4,56.38,2.09,52.61,4.28c1.58-.91,3.13-1.92,4.78-2.88,3.78-2.19,9-1.88,14.77,1.45C83.62,9.46,92.88,25.5,92.84,38.67a23.45,23.45,0,0,1-3.32,12.81L73.7,75.62l-6,3.47L85.94,50.42a19.06,19.06,0,0,0,1.93-8.87C87.91,28.39,78.65,12.35,67.19,5.73Z"/>
        </g>
        <path d="M87.87,41.55a19.06,19.06,0,0,1-1.93,8.87L67.75,79.09l-18-46.54c-2-7-2.56-10.41-2.55-15.21,0-13.17,8.57-18.22,20-11.61S87.91,28.39,87.87,41.55Zm-20.78-.86c5.35,3.09,9.69.61,9.71-5.53s-4.3-13.62-9.65-16.71-9.68-.6-9.7,5.54,4.3,13.62,9.64,16.7h0" style="fill: #be0000"/>
      </g>
    </g>
  </g>
</svg>
