<?xml version="1.0" encoding="utf-8"?>
<!-- Generator: Adobe Illustrator 26.0.1, SVG Export Plug-In . SVG Version: 6.00 Build 0)  -->
<svg version="1.1" id="Layer_1" xmlns="http://www.w3.org/2000/svg" xmlns:xlink="http://www.w3.org/1999/xlink" x="0px" y="0px"
	 width="182.9px" height="137.5px" viewBox="0 0 182.9 137.5" style="enable-background:new 0 0 182.9 137.5;" xml:space="preserve"
	>
<path style="fill:#BE0000;" d="M154.7,135.5h-127C13,135.5,1.2,123.7,1.2,109v0c0-14.6,11.9-26.5,26.5-26.5h127
	c14.6,0,26.5,11.9,26.5,26.5v0C181.2,123.7,169.3,135.5,154.7,135.5z"/>
<g>
	<path style="fill:#FFFFFF;" d="M53.2,96.9H51V94H34.8v2.8h-2.2V92h9.1c-0.2-0.6-0.5-1.1-0.8-1.5l2.4-0.4c0.3,0.6,0.6,1.2,0.8,1.9
		h9.1V96.9z M51.7,112.6h-2.2v-0.7H36.4v0.7h-2.2v-8.7h17.5V112.6z M50.1,95.2V97H35.6v-1.8H50.1z M49.5,98.1v4.8H36.2v-4.8H49.5z
		 M41.8,107v-1.4h-5.4v1.4H41.8z M41.8,110.1v-1.4h-5.4v1.4H41.8z M47.4,99.8h-9.1v1.5h9.1V99.8z M44,107h5.5v-1.4H44V107z
		 M49.5,110.1v-1.4H44v1.4H49.5z"/>
	<path style="fill:#FFFFFF;" d="M62.2,92.3c-0.4-0.6-0.7-1.2-1.2-1.7l2.6-0.4c0.4,0.6,0.7,1.4,1.1,2.1h4.9c0.5-0.7,0.9-1.4,1.1-2.2
		l2.4,0.3c-0.3,0.7-0.6,1.3-1,1.9h4.8v2h-8.7v1.2h7.6v1.8h-7.6v1.2h9.1v2h-3.9c-0.2,0.6-0.5,1.2-0.8,1.7h5.1v2H56.4v-2h5.4
		c-0.3-0.6-0.6-1.2-0.9-1.7h-4.1v-2h9.1v-1.2h-7.6v-1.8h7.6v-1.2h-8.7v-2H62.2z M75.3,112.6h-2.2v-0.8H61v0.8h-2.2v-7.2h16.6V112.6z
		 M73.1,109.7v-2.3H61v2.3H73.1z M71.1,100.5h-7.9c0.2,0.5,0.5,1.1,0.7,1.7h6.4C70.6,101.6,70.9,101,71.1,100.5z"/>
	<path style="fill:#FFFFFF;" d="M85.9,91c-1.1,2.7-2.9,5.1-5.4,7.2l-0.7-2.1c1.9-1.7,3.2-3.7,4.1-6L85.9,91z M86.4,97.3
		c-0.5,1.2-1.1,2.4-1.9,3.5v11.7h-2.1v-9.2c-0.6,0.6-1.1,1.1-1.7,1.6l-0.7-2.1c2-1.8,3.6-4,4.5-6.4L86.4,97.3z M89.7,103.3v-2.1h2.2
		v2.1h3.3v2h-3.3v2.8c1.4-0.2,2.7-0.5,4-0.8v2c-3,0.7-6.3,1.3-9.8,1.8l-0.5-2.2c1.4-0.1,2.8-0.3,4.1-0.5v-3.2h-3.2v-2H89.7z
		 M89.7,93.6v-3h2.2v3h3.2v2h-3.2v2.8h3.5v-1h7v2.1h-2.1V110c0,1.6-0.7,2.4-2.1,2.4h-2.9l-0.5-2.1c0.9,0.1,1.8,0.2,2.7,0.2
		c0.4,0,0.6-0.3,0.6-1v-10h-2.4v1h-9.5v-2h3.6v-2.8h-3.1v-2H89.7z M102,91.8v2.1h-6.1v-2.1H102z"/>
	<path style="fill:#FFFFFF;" d="M106.8,96.5v-6.1h2.2v6.1h2.1v2.2h-2.1v7.4c0.7-0.3,1.4-0.7,2.1-1v2.2c-2,1-4.1,1.8-6.4,2.5
		l-0.6-2.2c0.9-0.2,1.8-0.4,2.7-0.7v-8.2h-2.2v-2.2H106.8z M119.3,90.3v1.1h5.7v1.8h-5.7v1.1h6.7v1c-0.2,1.2-0.5,2.4-1,3.6l-2-0.6
		c0.3-0.7,0.6-1.4,0.8-2.1H119v1.4l3.3-0.4l0.3,1.7l-3.6,0.5v0.3c0,0.5,0.2,0.7,0.7,0.7h4.8v1.7h-5.7c-1.3,0-2-0.5-2-1.5v-0.9
		l-2.1,0.3l-0.2-1.7l2.4-0.3v-1.7h-3v4.8c0,4.5-1.1,8.4-3.2,11.6l-1.6-1.4c1.8-2.7,2.7-6.1,2.8-10.1v-6.8h5v-4H119.3z M117.4,110.1
		v-1.6h-2.8V104h1.6v2.9h1.2V103h1.8v7.1h1.3V103h1.8v3.9h1.2V104h1.6v4.5h-2.8v1.6h4v1.9h-13v-1.9H117.4z"/>
	<path style="fill:#FFFFFF;" d="M138.2,92.9c-0.4-0.9-0.7-1.7-1.2-2.4l2.5-0.4c0.4,0.8,0.7,1.8,1,2.8h9.7v2.2h-9.6v2.6h7.9v9
		c0,1.5-0.8,2.3-2.4,2.3h-2.4l-0.6-2.2l2.3,0.1c0.6,0,0.9-0.3,0.9-0.8v-6.2h-5.6v12.7h-2.3V99.9H133v9.3h-2.2V97.7h7.5v-2.6h-9.6
		v-2.2H138.2z"/>
	<path style="fill:#FFFFFF;" d="M22.9,118h5.8v1.5h-4v2.8h3.7v1.5h-3.7v4.3h-1.8V118z"/>
	<path style="fill:#FFFFFF;" d="M36.5,125.9c0,0.9,0,1.6,0.1,2.2H35l-0.1-1.1h0c-0.3,0.5-1,1.3-2.4,1.3c-1.3,0-2.5-0.8-2.5-3.2v-4.3
		h1.8v4c0,1.2,0.4,2,1.4,2c0.8,0,1.2-0.5,1.4-1c0.1-0.2,0.1-0.4,0.1-0.6v-4.4h1.8V125.9z"/>
	<path style="fill:#FFFFFF;" d="M41.7,126.1c0.6,0.3,1.5,0.6,2.4,0.6c1.2,0,1.8-0.6,1.8-1.4c0-0.8-0.5-1.2-1.8-1.7
		c-1.7-0.6-2.7-1.5-2.7-2.9c0-1.7,1.4-2.9,3.6-2.9c1.1,0,1.9,0.2,2.4,0.5l-0.4,1.5c-0.4-0.2-1.1-0.5-2-0.5c-1.2,0-1.7,0.6-1.7,1.2
		c0,0.8,0.6,1.1,1.9,1.6c1.8,0.7,2.6,1.6,2.6,3c0,1.6-1.2,3-3.8,3c-1.1,0-2.2-0.3-2.7-0.6L41.7,126.1z"/>
	<path style="fill:#FFFFFF;" d="M49.4,117.4h1.8v4.3h0c0.2-0.3,0.5-0.6,0.9-0.8c0.4-0.2,0.8-0.3,1.3-0.3c1.2,0,2.6,0.8,2.6,3.2v4.3
		h-1.8V124c0-1-0.4-1.9-1.4-1.9c-0.7,0-1.2,0.5-1.4,1c-0.1,0.2-0.1,0.4-0.1,0.6v4.4h-1.8V117.4z"/>
	<path style="fill:#FFFFFF;" d="M58.9,119.8c-0.6,0-1-0.5-1-1c0-0.6,0.4-1,1-1c0.6,0,1,0.4,1,1C60,119.3,59.5,119.8,58.9,119.8
		L58.9,119.8z M58,128.1v-7.3h1.8v7.3H58z"/>
	<path style="fill:#FFFFFF;" d="M61.8,123c0-0.8,0-1.5-0.1-2.2h1.6l0.1,1.1h0c0.3-0.6,1.1-1.3,2.3-1.3c1.3,0,2.6,0.8,2.6,3.1v4.3
		h-1.8V124c0-1-0.4-1.8-1.4-1.8c-0.7,0-1.2,0.5-1.4,1.1c-0.1,0.1-0.1,0.4-0.1,0.6v4.3h-1.8V123z"/>
	<path style="fill:#FFFFFF;" d="M73.6,126.1c0.6,0.3,1.5,0.6,2.4,0.6c1.2,0,1.8-0.6,1.8-1.4c0-0.8-0.5-1.2-1.8-1.7
		c-1.7-0.6-2.7-1.5-2.7-2.9c0-1.7,1.4-2.9,3.6-2.9c1.1,0,1.9,0.2,2.4,0.5l-0.4,1.5c-0.4-0.2-1.1-0.5-2-0.5c-1.2,0-1.7,0.6-1.7,1.2
		c0,0.8,0.6,1.1,1.9,1.6c1.8,0.7,2.6,1.6,2.6,3c0,1.6-1.2,3-3.8,3c-1.1,0-2.2-0.3-2.7-0.6L73.6,126.1z"/>
	<path style="fill:#FFFFFF;" d="M83.4,118.9v1.9h1.8v1.4h-1.8v3.2c0,0.9,0.2,1.4,0.9,1.4c0.3,0,0.5,0,0.7-0.1l0,1.4
		c-0.3,0.1-0.8,0.2-1.3,0.2c-0.7,0-1.2-0.2-1.6-0.6c-0.4-0.4-0.6-1.1-0.6-2.1v-3.4h-1v-1.4h1v-1.4L83.4,118.9z"/>
	<path style="fill:#FFFFFF;" d="M86.5,123.2c0-1,0-1.7-0.1-2.4H88l0.1,1.4h0c0.4-1,1.2-1.5,2-1.5c0.2,0,0.3,0,0.4,0v1.7
		c-0.2,0-0.3,0-0.6,0c-0.9,0-1.5,0.6-1.6,1.4c0,0.2,0,0.4,0,0.6v3.8h-1.8V123.2z"/>
	<path style="fill:#FFFFFF;" d="M93,125c0,1.3,1.1,1.9,2.2,1.9c0.9,0,1.5-0.1,2-0.3l0.3,1.3c-0.6,0.3-1.5,0.5-2.5,0.5
		c-2.4,0-3.8-1.5-3.8-3.7c0-2,1.2-3.9,3.6-3.9c2.4,0,3.1,2,3.1,3.6c0,0.3,0,0.6-0.1,0.8H93z M96.2,123.7c0-0.7-0.3-1.8-1.5-1.8
		c-1.1,0-1.6,1-1.7,1.8H96.2z"/>
	<path style="fill:#FFFFFF;" d="M100.8,125c0,1.3,1.1,1.9,2.2,1.9c0.9,0,1.5-0.1,2-0.3l0.3,1.3c-0.6,0.3-1.5,0.5-2.6,0.5
		c-2.4,0-3.8-1.5-3.8-3.7c0-2,1.2-3.9,3.6-3.9c2.4,0,3.1,2,3.1,3.6c0,0.3,0,0.6-0.1,0.8H100.8z M104,123.7c0-0.7-0.3-1.8-1.5-1.8
		c-1.1,0-1.6,1-1.7,1.8H104z"/>
	<path style="fill:#FFFFFF;" d="M109.3,118.9v1.9h1.8v1.4h-1.8v3.2c0,0.9,0.2,1.4,0.9,1.4c0.3,0,0.5,0,0.7-0.1l0,1.4
		c-0.3,0.1-0.8,0.2-1.3,0.2c-0.7,0-1.2-0.2-1.6-0.6c-0.4-0.4-0.6-1.1-0.6-2.1v-3.4h-1v-1.4h1v-1.4L109.3,118.9z"/>
	<path style="fill:#FFFFFF;" d="M124.2,124c-0.1-1.3-0.1-2.9-0.1-4.2h0c-0.3,1.2-0.8,2.6-1.2,3.9l-1.5,4.4h-1.4l-1.4-4.3
		c-0.4-1.3-0.8-2.7-1-3.9h0c0,1.3-0.1,2.9-0.2,4.3l-0.2,4.1h-1.7L116,118h2.4l1.3,4.1c0.4,1.2,0.7,2.4,0.9,3.5h0
		c0.3-1.1,0.6-2.3,1-3.5l1.4-4h2.4l0.6,10.1h-1.8L124.2,124z"/>
	<path style="fill:#FFFFFF;" d="M133.7,126.4c0,0.7,0,1.3,0.1,1.8h-1.7l-0.1-0.8h0c-0.4,0.6-1.2,1-2.2,1c-1.5,0-2.3-1.1-2.3-2.2
		c0-1.8,1.6-2.8,4.3-2.8v-0.1c0-0.5-0.2-1.3-1.5-1.3c-0.7,0-1.5,0.2-2,0.5l-0.4-1.2c0.5-0.3,1.5-0.6,2.6-0.6c2.3,0,3,1.5,3,3.1
		V126.4z M131.9,124.5c-1.3,0-2.6,0.3-2.6,1.4c0,0.7,0.5,1.1,1.1,1.1c0.8,0,1.3-0.5,1.5-1c0-0.1,0-0.3,0-0.4V124.5z"/>
	<path style="fill:#FFFFFF;" d="M135.6,123.2c0-1,0-1.7-0.1-2.4h1.6l0.1,1.4h0c0.4-1,1.2-1.5,2-1.5c0.2,0,0.3,0,0.4,0v1.7
		c-0.2,0-0.3,0-0.6,0c-0.9,0-1.5,0.6-1.6,1.4c0,0.2,0,0.4,0,0.6v3.8h-1.8V123.2z"/>
	<path style="fill:#FFFFFF;" d="M142.8,124L142.8,124c0.2-0.3,0.4-0.6,0.6-0.9l1.8-2.4h2.2l-2.7,3l3.1,4.3h-2.3l-2.1-3.2l-0.6,0.7
		v2.5H141v-10.7h1.8V124z"/>
	<path style="fill:#FFFFFF;" d="M149.8,125c0,1.3,1.1,1.9,2.2,1.9c0.9,0,1.5-0.1,2-0.3l0.3,1.3c-0.6,0.3-1.5,0.5-2.6,0.5
		c-2.4,0-3.8-1.5-3.8-3.7c0-2,1.2-3.9,3.6-3.9c2.4,0,3.1,2,3.1,3.6c0,0.3,0,0.6-0.1,0.8H149.8z M153,123.7c0-0.7-0.3-1.8-1.5-1.8
		c-1.1,0-1.6,1-1.7,1.8H153z"/>
	<path style="fill:#FFFFFF;" d="M158.4,118.9v1.9h1.8v1.4h-1.8v3.2c0,0.9,0.2,1.4,0.9,1.4c0.3,0,0.5,0,0.7-0.1l0,1.4
		c-0.3,0.1-0.8,0.2-1.3,0.2c-0.7,0-1.2-0.2-1.6-0.6c-0.4-0.4-0.6-1.1-0.6-2.1v-3.4h-1v-1.4h1v-1.4L158.4,118.9z"/>
</g>
<g>
	<path d="M90.7,38.7C85.3,35.6,81,28.1,81,22c0-2.1,0.5-3.7,1.4-4.9c-2.4,0.7-3.8,3.4-3.8,7.2c0,6.1,4.3,13.6,9.6,16.7
		c3.9,2.2,7.2,1.5,8.8-1.4C95.3,40.4,93.1,40.1,90.7,38.7z"/>
	<path d="M88.4,6c-5.8-3.3-10.8-3.6-14.6-1.5c1.6-0.9,3.1-1.9,4.8-2.9c3.8-2.2,9-1.9,14.8,1.4c11.5,6.6,20.7,22.7,20.7,35.8
		c0,3.6-0.5,8.3-3.3,12.8L94.9,75.8l-5.9,3.5l18.2-28.7c1.2-2.3,1.9-5.3,1.9-8.9C109.1,28.6,99.8,12.6,88.4,6z"/>
</g>
<path style="fill:#BE0000;" d="M109,41.8c0,3.6-0.7,6.5-1.9,8.9L88.9,79.3l-18-46.5c-2-7-2.6-10.4-2.5-15.2c0-13.2,8.6-18.2,20-11.6
	C99.8,12.6,109.1,28.6,109,41.8z M88.3,40.9c5.3,3.1,9.7,0.6,9.7-5.5c0-6.1-4.3-13.6-9.6-16.7c-5.3-3.1-9.7-0.6-9.7,5.5
	C78.6,30.4,82.9,37.8,88.3,40.9L88.3,40.9"/>
</svg>
