<?xml version="1.0" encoding="utf-8"?>
<!-- Generator: Adobe Illustrator 26.0.1, SVG Export Plug-In . SVG Version: 6.00 Build 0)  -->
<svg version="1.1" id="Layer_1" xmlns="http://www.w3.org/2000/svg" xmlns:xlink="http://www.w3.org/1999/xlink" x="0px" y="0px"
	 width="181.5px" height="135.3px" viewBox="0 0 181.5 135.3" style="enable-background:new 0 0 181.5 135.3;" xml:space="preserve"
	>
<path style="fill:#BE0000;" d="M154,135.3H27c-14.6,0-26.5-11.9-26.5-26.5v0c0-14.6,11.9-26.5,26.5-26.5h127
	c14.6,0,26.5,11.9,26.5,26.5v0C180.5,123.4,168.6,135.3,154,135.3z"/>
<g>
	<path style="fill:#FFFFFF;" d="M52.8,95c0.1-1.1,0.2-2.3,0.2-3.5v-1.4h2.3V91c0,1.4-0.1,2.8-0.2,4h10v2.2h-9.5
		c1.7,5.7,5.1,10.2,10,13.3l-1.4,1.9c-4.7-3-8-7.3-9.9-12.7c-0.6,2.3-1.5,4.3-2.6,6.1c1.1,1.1,2.4,2.5,3.9,4.3l-1.6,1.6
		c-1.1-1.5-2.3-2.9-3.6-4.2c-1.6,2-3.6,3.6-6,4.9l-1.5-1.9c5.2-2.6,8.3-7,9.5-13.2h-8.9V95H52.8z"/>
	<path style="fill:#FFFFFF;" d="M72,96.5v-2.9c-1.1,0.2-2.2,0.3-3.4,0.4L67.9,92c3.7-0.3,6.7-0.9,9-1.8l1.1,1.9
		c-1.2,0.4-2.5,0.8-3.8,1.1v3.3h3.9v2.1h-3.9v1c1.4,1.2,2.7,2.5,4.1,4l-1.4,2c-1.1-1.5-2-2.8-2.8-3.7v10.3H72v-9.8
		c-1,2-2.2,3.9-3.7,5.6l-1-2.5c2.1-1.9,3.7-4.2,4.7-6.6v-0.1h-4v-2.1H72z M88.6,111.4h-2.2v-1.8h-5.2v2.1h-2.2V91.5h9.7V111.4z
		 M86.4,107.4V93.7h-5.2v13.7H86.4z"/>
	<path style="fill:#FFFFFF;" d="M93.1,112.5l-1.7-1.6c1.3-1.9,2-4.4,2.1-7.8v-3.8h19.3v1.8H95.7v2l-0.1,1.4H113v1.9h-7.8
		c0.6,0.8,1.4,1.5,2.4,2.1c0.7-0.7,1.3-1.3,1.9-2.1l1.9,1c-0.7,0.7-1.4,1.4-2.1,2c1.3,0.5,2.8,0.9,4.4,1.2l-1.2,1.8
		c-4.3-0.9-7.3-2.6-9.1-5l1.6-0.9h-5.4v3.5c1.7-0.3,3.2-0.7,4.4-1l0.4,2c-2,0.5-4.4,1-7.2,1.4l-0.6-1.7c0.5-0.2,0.8-0.5,0.8-1v-3.1
		h-2.1C95,108.8,94.2,110.9,93.1,112.5z M98.9,91.2v-1.1h2.1v1.1h3.3v-1.1h2.1v1.1h5.3v7.3H93.6v-7.3H98.9z M98.9,94.1V93h-3.2v1.1
		H98.9z M98.9,95.7h-3.2v1.1h3.2V95.7z M111.3,102v1.6H97.1V102H111.3z M101,94.1h3.3V93H101V94.1z M104.3,95.7H101v1.1h3.3V95.7z
		 M106.4,94.1h3.2V93h-3.2V94.1z M109.6,95.7h-3.2v1.1h3.2V95.7z"/>
	<path style="fill:#FFFFFF;" d="M118.2,96.3v-6.1h2.2v6.1h2.1v2.2h-2.1v7.4c0.7-0.3,1.4-0.7,2.1-1v2.2c-2,1-4.1,1.8-6.4,2.5
		l-0.6-2.2c0.9-0.2,1.8-0.4,2.7-0.7v-8.2h-2.2v-2.2H118.2z M130.7,90.1v1.1h5.7V93h-5.7v1.1h6.7v1c-0.2,1.2-0.5,2.4-1,3.6l-2-0.6
		c0.3-0.7,0.6-1.4,0.8-2.1h-4.7v1.4l3.3-0.4l0.3,1.7l-3.6,0.5v0.3c0,0.5,0.2,0.7,0.7,0.7h4.8v1.7h-5.7c-1.3,0-2-0.5-2-1.5v-0.9
		l-2.1,0.3l-0.2-1.7l2.4-0.3v-1.7h-3v4.8c0,4.5-1.1,8.4-3.2,11.6l-1.6-1.4c1.8-2.7,2.7-6.1,2.8-10.1v-6.8h5v-4H130.7z M128.8,109.9
		v-1.6H126v-4.5h1.6v2.9h1.2v-3.9h1.8v7.1h1.3v-7.1h1.8v3.9h1.2v-2.9h1.6v4.5h-2.8v1.6h4v1.9h-13v-1.9H128.8z"/>
	<path style="fill:#FFFFFF;" d="M19.4,119.3h-2.9v-1.5h7.6v1.5h-2.9v8.6h-1.8V119.3z"/>
	<path style="fill:#FFFFFF;" d="M30,126.1c0,0.7,0,1.3,0.1,1.8h-1.7l-0.1-0.8h0c-0.4,0.6-1.2,1-2.2,1c-1.5,0-2.3-1.1-2.3-2.2
		c0-1.8,1.6-2.8,4.3-2.8V123c0-0.5-0.2-1.3-1.5-1.3c-0.7,0-1.5,0.2-2,0.5l-0.4-1.2c0.5-0.3,1.5-0.6,2.6-0.6c2.3,0,3,1.5,3,3.1V126.1
		z M28.2,124.3c-1.3,0-2.6,0.3-2.6,1.4c0,0.7,0.5,1.1,1.1,1.1c0.8,0,1.3-0.5,1.5-1c0-0.1,0-0.3,0-0.4V124.3z"/>
	<path style="fill:#FFFFFF;" d="M32.8,119.5c-0.6,0-1-0.5-1-1c0-0.6,0.4-1,1-1c0.6,0,1,0.4,1,1C33.9,119.1,33.5,119.5,32.8,119.5
		L32.8,119.5z M31.9,127.9v-7.3h1.8v7.3H31.9z"/>
	<path style="fill:#FFFFFF;" d="M38.9,117.9c0.7-0.1,1.6-0.2,2.8-0.2c1.4,0,2.3,0.3,3,0.8c0.6,0.5,1,1.3,1,2.2c0,1-0.3,1.7-0.9,2.3
		c-0.8,0.7-1.9,1.1-3.2,1.1c-0.3,0-0.6,0-0.9-0.1v3.8h-1.8V117.9z M40.8,122.6c0.2,0.1,0.5,0.1,0.9,0.1c1.4,0,2.2-0.7,2.2-1.9
		c0-1.1-0.8-1.7-2.1-1.7c-0.5,0-0.9,0-1.1,0.1V122.6z"/>
	<path style="fill:#FFFFFF;" d="M50.1,128.1c-2.1,0-3.7-1.4-3.7-3.8c0-2.4,1.6-3.9,3.8-3.9c2.2,0,3.6,1.5,3.6,3.8
		C53.8,126.9,51.9,128.1,50.1,128.1L50.1,128.1z M50.1,126.7c1,0,1.8-1,1.8-2.5c0-1.1-0.5-2.5-1.8-2.5c-1.3,0-1.8,1.3-1.8,2.5
		C48.3,125.7,49,126.7,50.1,126.7L50.1,126.7z"/>
	<path style="fill:#FFFFFF;" d="M58.5,117.8h5.8v1.5h-4v2.8h3.7v1.5h-3.7v4.3h-1.8V117.8z"/>
	<path style="fill:#FFFFFF;" d="M71.1,126.1c0,0.7,0,1.3,0.1,1.8h-1.7l-0.1-0.8h0c-0.4,0.6-1.2,1-2.2,1c-1.5,0-2.3-1.1-2.3-2.2
		c0-1.8,1.6-2.8,4.3-2.8V123c0-0.5-0.2-1.3-1.5-1.3c-0.7,0-1.5,0.2-2,0.5l-0.4-1.2c0.5-0.3,1.5-0.6,2.6-0.6c2.3,0,3,1.5,3,3.1V126.1
		z M69.3,124.3c-1.3,0-2.6,0.3-2.6,1.4c0,0.7,0.5,1.1,1.1,1.1c0.8,0,1.3-0.5,1.5-1c0-0.1,0-0.3,0-0.4V124.3z"/>
	<path style="fill:#FFFFFF;" d="M73.1,122.9c0-1,0-1.7-0.1-2.4h1.6l0.1,1.4h0c0.4-1,1.2-1.5,2-1.5c0.2,0,0.3,0,0.4,0v1.7
		c-0.2,0-0.3,0-0.6,0c-0.9,0-1.5,0.6-1.6,1.4c0,0.2,0,0.4,0,0.6v3.8h-1.8V122.9z"/>
	<path style="fill:#FFFFFF;" d="M78.4,122.8c0-0.8,0-1.5-0.1-2.2h1.6l0.1,1.1h0c0.3-0.6,1-1.2,2.2-1.2c1,0,1.7,0.5,2,1.4h0
		c0.3-0.4,0.6-0.7,0.9-0.9c0.4-0.3,0.9-0.4,1.5-0.4c1.2,0,2.4,0.8,2.4,3.2v4.3h-1.8v-4c0-1.2-0.4-1.9-1.3-1.9c-0.6,0-1.1,0.5-1.3,1
		c-0.1,0.2-0.1,0.4-0.1,0.6v4.4h-1.8v-4.2c0-1-0.4-1.7-1.3-1.7c-0.7,0-1.2,0.5-1.3,1c-0.1,0.2-0.1,0.4-0.1,0.6v4.3h-1.8V122.8z"/>
	<path style="fill:#FFFFFF;" d="M92.4,124.8c0,1.3,1.1,1.9,2.2,1.9c0.9,0,1.5-0.1,2-0.3l0.3,1.3c-0.6,0.3-1.5,0.5-2.5,0.5
		c-2.4,0-3.8-1.5-3.8-3.7c0-2,1.2-3.9,3.6-3.9c2.4,0,3.1,2,3.1,3.6c0,0.3,0,0.6-0.1,0.8H92.4z M95.6,123.5c0-0.7-0.3-1.8-1.5-1.8
		c-1.1,0-1.6,1-1.7,1.8H95.6z"/>
	<path style="fill:#FFFFFF;" d="M98.9,122.9c0-1,0-1.7-0.1-2.4h1.6l0.1,1.4h0c0.4-1,1.2-1.5,2-1.5c0.2,0,0.3,0,0.4,0v1.7
		c-0.2,0-0.3,0-0.6,0c-0.9,0-1.5,0.6-1.6,1.4c0,0.2,0,0.4,0,0.6v3.8h-1.8V122.9z"/>
	<path style="fill:#FFFFFF;" d="M104.1,126.2c0.4,0.3,1.2,0.5,1.9,0.5c0.8,0,1.2-0.3,1.2-0.8c0-0.5-0.3-0.7-1.2-1.1
		c-1.4-0.5-2-1.3-2-2.1c0-1.3,1.1-2.3,2.8-2.3c0.8,0,1.5,0.2,1.9,0.4l-0.4,1.3c-0.3-0.2-0.9-0.4-1.5-0.4c-0.7,0-1,0.3-1,0.8
		c0,0.5,0.3,0.7,1.3,1c1.3,0.5,1.9,1.1,1.9,2.2c0,1.3-1,2.3-3,2.3c-0.9,0-1.7-0.2-2.2-0.5L104.1,126.2z"/>
	<path style="fill:#FFFFFF;" d="M111.8,117.5l-0.3,3.9h-1.1l-0.3-3.9H111.8z"/>
	<path style="fill:#FFFFFF;" d="M125.1,123.8c-0.1-1.3-0.1-2.9-0.1-4.2h0c-0.3,1.2-0.8,2.6-1.2,3.9l-1.5,4.4h-1.4l-1.4-4.3
		c-0.4-1.3-0.8-2.7-1-3.9h0c0,1.3-0.1,2.9-0.2,4.3l-0.2,4.1h-1.7l0.7-10.1h2.4l1.3,4.1c0.4,1.2,0.7,2.4,0.9,3.5h0
		c0.3-1.1,0.6-2.3,1-3.5l1.4-4h2.4l0.6,10.1h-1.8L125.1,123.8z"/>
	<path style="fill:#FFFFFF;" d="M134.7,126.1c0,0.7,0,1.3,0.1,1.8h-1.7l-0.1-0.8h0c-0.4,0.6-1.2,1-2.2,1c-1.5,0-2.3-1.1-2.3-2.2
		c0-1.8,1.6-2.8,4.3-2.8V123c0-0.5-0.2-1.3-1.5-1.3c-0.7,0-1.5,0.2-2,0.5l-0.4-1.2c0.5-0.3,1.5-0.6,2.6-0.6c2.3,0,3,1.5,3,3.1V126.1
		z M132.9,124.3c-1.3,0-2.6,0.3-2.6,1.4c0,0.7,0.5,1.1,1.1,1.1c0.8,0,1.3-0.5,1.5-1c0-0.1,0-0.3,0-0.4V124.3z"/>
	<path style="fill:#FFFFFF;" d="M136.6,122.9c0-1,0-1.7-0.1-2.4h1.6l0.1,1.4h0c0.4-1,1.2-1.5,2-1.5c0.2,0,0.3,0,0.4,0v1.7
		c-0.2,0-0.3,0-0.6,0c-0.9,0-1.5,0.6-1.6,1.4c0,0.2,0,0.4,0,0.6v3.8h-1.8V122.9z"/>
	<path style="fill:#FFFFFF;" d="M143.8,123.8L143.8,123.8c0.2-0.3,0.4-0.6,0.6-0.9l1.8-2.4h2.2l-2.7,3l3.1,4.3h-2.3l-2.1-3.2
		l-0.6,0.7v2.5H142v-10.7h1.8V123.8z"/>
	<path style="fill:#FFFFFF;" d="M150.8,124.8c0,1.3,1.1,1.9,2.2,1.9c0.9,0,1.5-0.1,2-0.3l0.3,1.3c-0.6,0.3-1.5,0.5-2.6,0.5
		c-2.4,0-3.8-1.5-3.8-3.7c0-2,1.2-3.9,3.6-3.9c2.4,0,3.1,2,3.1,3.6c0,0.3,0,0.6-0.1,0.8H150.8z M154,123.5c0-0.7-0.3-1.8-1.5-1.8
		c-1.1,0-1.6,1-1.7,1.8H154z"/>
	<path style="fill:#FFFFFF;" d="M159.3,118.7v1.9h1.8v1.4h-1.8v3.2c0,0.9,0.2,1.4,0.9,1.4c0.3,0,0.5,0,0.7-0.1l0,1.4
		c-0.3,0.1-0.8,0.2-1.3,0.2c-0.7,0-1.2-0.2-1.6-0.6c-0.4-0.4-0.6-1.1-0.6-2.1V122h-1v-1.4h1v-1.4L159.3,118.7z"/>
</g>
<g>
	<path d="M90,38.5c-5.3-3.1-9.7-10.6-9.6-16.7c0-2.1,0.5-3.7,1.4-4.9c-2.4,0.7-3.8,3.4-3.8,7.2c0,6.1,4.3,13.6,9.6,16.7
		c3.9,2.2,7.2,1.5,8.8-1.4C94.7,40.1,92.4,39.9,90,38.5z"/>
	<path d="M87.7,5.7c-5.8-3.3-10.8-3.6-14.6-1.5c1.6-0.9,3.1-1.9,4.8-2.9c3.8-2.2,9-1.9,14.8,1.4c11.5,6.6,20.7,22.7,20.7,35.8
		c0,3.6-0.5,8.3-3.3,12.8L94.2,75.6l-5.9,3.5l18.2-28.7c1.2-2.3,1.9-5.3,1.9-8.9C108.4,28.4,99.2,12.3,87.7,5.7z"/>
</g>
<path style="fill:#BE0000;" d="M108.4,41.6c0,3.6-0.7,6.5-1.9,8.9L88.3,79.1l-18-46.5c-2-7-2.6-10.4-2.5-15.2
	c0-13.2,8.6-18.2,20-11.6C99.2,12.3,108.4,28.4,108.4,41.6z M87.6,40.7c5.3,3.1,9.7,0.6,9.7-5.5c0-6.1-4.3-13.6-9.6-16.7
	C82.3,15.4,78,17.8,78,24C77.9,30.1,82.3,37.6,87.6,40.7L87.6,40.7"/>
</svg>
