<svg xmlns="http://www.w3.org/2000/svg" width="120" height="114.51" viewBox="0 0 120 114.51">
  <g id="Layer_2" data-name="Layer 2">
    <g id="Pointer">
      <g>
        <rect y="82.31" width="120" height="32.2" rx="16.1" style="fill: #be0000"/>
        <g>
          <path d="M22.5,93.3a33.91,33.91,0,0,0,.22-3.84V88.25H24.5v.82a37.54,37.54,0,0,1-.24,4.23H34.43V95H24.72A23.67,23.67,0,0,0,35,108.88l-1.09,1.4A24.6,24.6,0,0,1,23.66,96.76a22.31,22.31,0,0,1-2.88,7,41.5,41.5,0,0,1,4.16,4.59l-1.23,1.23A43.1,43.1,0,0,0,19.87,105a20.05,20.05,0,0,1-6.21,5.22l-1.09-1.45c5.31-2.71,8.55-7.3,9.69-13.82H13.15V93.3Z" style="fill: #fff"/>
          <path d="M41.79,94.8V91.32c-1.2.19-2.44.34-3.69.44l-.56-1.55a33,33,0,0,0,9-1.81l.82,1.45A28.24,28.24,0,0,1,43.48,91V94.8h4.13v1.62H43.48v1.21a49.42,49.42,0,0,1,4.23,4.22l-1,1.5c-1.26-1.72-2.32-3.09-3.22-4.11v10.9H41.79V99.41a23.15,23.15,0,0,1-4.13,6.23l-.72-1.88a19.06,19.06,0,0,0,4.85-7.17v-.17H37.57V94.8Zm16,14.54H56.14v-1.91H50.27v2.15H48.6V89.8h9.23Zm-1.69-3.55V91.42H50.27v14.37Z" style="fill: #fff"/>
          <path d="M62.3,110.38,61,109.19a14.08,14.08,0,0,0,2.14-7.94V97.6H82.08V99H64.86v2.27l-.08,1.57H82.37v1.42H68.87v4.21a49.66,49.66,0,0,0,4.85-1.09l.29,1.52A60.83,60.83,0,0,1,67,110.26l-.44-1.33a.87.87,0,0,0,.7-.82v-3.87H64.59A14.19,14.19,0,0,1,62.3,110.38Zm6.35-20.92V88.2h1.59v1.26H74V88.2H75.6v1.26H81v7H63.31v-7Zm0,2.85v-1.5H64.93v1.5Zm0,1.26H64.93v1.49h3.72Zm11.91,6.66v1.28H66.62v-1.28ZM70.24,92.31H74v-1.5H70.24ZM74,93.57H70.24v1.49H74Zm6.69,11.76a19.4,19.4,0,0,1-2.37,2.15,20.37,20.37,0,0,0,4.81,1.45l-.92,1.35c-4.34-.94-7.41-2.65-9.22-5.17l1.3-.72A9.06,9.06,0,0,0,77,106.78a19.25,19.25,0,0,0,2.22-2.2Zm-5.1-13h3.77v-1.5H75.6Zm3.77,1.26H75.6v1.49h3.77Z" style="fill: #fff"/>
          <path d="M87.92,94.58V88.25h1.67v6.33h2.24v1.69H89.59v8c.77-.34,1.52-.68,2.27-1.07v1.67a38.8,38.8,0,0,1-6.28,2.51l-.44-1.66c.94-.22,1.86-.49,2.78-.8V96.27H85.48V94.58Zm12-6.42v1.25h5.8v1.4H99.9v1.55h6.76v.8a18.7,18.7,0,0,1-1,3.57l-1.55-.41a14.4,14.4,0,0,0,.87-2.46H99.66v1.83l3.52-.48.22,1.35-3.74.51v.63a.74.74,0,0,0,.84.84h4.86v1.31H99.83c-1.19,0-1.77-.49-1.77-1.45V97.29l-2.34.31-.17-1.35,2.51-.34v-2H94.61v5a21.07,21.07,0,0,1-3.07,11.5l-1.23-1.09a19,19,0,0,0,2.78-10.36V92.36h5.12v-4.2Zm-1.4,20v-2H95.6v-4.3h1.26v3H98.5v-4h1.4v7.39h1.71v-7.39H103v4h1.64v-3h1.25v4.3H103v2h4.15v1.45h-13V108.2Z" style="fill: #fff"/>
        </g>
        <g>
          <path d="M59.51,38.49c-5.34-3.08-9.65-10.56-9.63-16.7a8.06,8.06,0,0,1,1.36-4.86c-2.36.72-3.8,3.36-3.81,7.17,0,6.14,4.3,13.62,9.64,16.7,3.89,2.25,7.25,1.53,8.79-1.38C64.16,40.13,61.94,39.89,59.51,38.49Z"/>
          <path d="M57.19,5.73C51.42,2.4,46.38,2.09,42.61,4.28c1.58-.91,3.13-1.92,4.78-2.88,3.78-2.19,9-1.88,14.77,1.45C73.62,9.46,82.88,25.5,82.84,38.67a23.45,23.45,0,0,1-3.32,12.81L63.7,75.62l-6,3.47L75.94,50.42a19.06,19.06,0,0,0,1.93-8.87C77.91,28.39,68.65,12.35,57.19,5.73Z"/>
        </g>
        <path d="M77.87,41.55a19.06,19.06,0,0,1-1.93,8.87L57.75,79.09l-18-46.54c-2-7-2.56-10.41-2.55-15.21,0-13.17,8.57-18.22,20-11.61S77.91,28.39,77.87,41.55Zm-20.78-.86c5.35,3.09,9.69.61,9.71-5.53s-4.3-13.62-9.65-16.71-9.68-.6-9.7,5.54,4.3,13.62,9.64,16.7h0" style="fill: #be0000"/>
      </g>
    </g>
  </g>
</svg>
