<?xml version="1.0" encoding="utf-8"?>
<!-- Generator: Adobe Illustrator 26.0.1, SVG Export Plug-In . SVG Version: 6.00 Build 0)  -->
<svg version="1.1" id="Layer_1" xmlns="http://www.w3.org/2000/svg" xmlns:xlink="http://www.w3.org/1999/xlink" x="0px" y="0px"
	 width="231px" height="137.4px" viewBox="0 0 231 137.4" style="enable-background:new 0 0 231 137.4;" xml:space="preserve">
<g>
	<path style="fill:#BE0000;" d="M203.7,135.3h-177c-14.6,0-26.5-11.9-26.5-26.5v0c0-14.6,11.9-26.5,26.5-26.5h177
		c14.6,0,26.5,11.9,26.5,26.5v0C230.2,123.4,218.3,135.3,203.7,135.3z"/>
	<g>
		<path style="fill:#FFFFFF;" d="M41.7,94.9v-1.8c-2.2,0.1-4.6,0.2-7.1,0.2l-0.7-2c6.5,0,12-0.4,16.5-1.3l1.1,1.8
			c-2.2,0.5-4.7,0.9-7.6,1.1v1.9h9.2V97h-7.5c3.1,1.3,5.9,2.7,8.2,4.3l-1.5,1.8c-0.7-0.5-1.4-1.1-2.2-1.5v10.8h-2.2v-1.2h-10v1.2
			h-2.2V102c-0.9,0.4-1.8,0.8-2.7,1.2l-1.3-2c3.8-1.2,6.5-2.6,8-4.1h-7.4v-2.2H41.7z M36.6,101.5h5.1v-4
			C40.5,99,38.8,100.3,36.6,101.5z M47.8,105.4v-1.9h-10v1.9H47.8z M47.8,109.1v-1.8h-10v1.8H47.8z M43.9,98.3v3.2h6
			C48.2,100.4,46.2,99.3,43.9,98.3z"/>
		<path style="fill:#FFFFFF;" d="M61.4,99.9l-1.6,1.6c-1-1.1-2.3-2.3-4-3.5l1.6-1.6C59,97.5,60.4,98.7,61.4,99.9z M61.4,104.4
			c-0.9,2.9-1.9,5.5-3,8l-2.3-1c1.2-2.5,2.3-5.1,3.2-7.8L61.4,104.4z M62.2,94.1l-1.6,1.6c-1-1.1-2.4-2.4-4.3-3.7l1.6-1.6
			C59.6,91.7,61,92.9,62.2,94.1z M65.8,92.5v-2.4H68v2.4h3.5v-2.4h2.2v2.4h2.9v2.1h-2.9V97h3.6v2.1h-3.6c1,1.4,2.4,2.5,4.4,3.4l-1,2
			c-1.2-0.6-2.2-1.3-3-2v4.7h-7.3v1.8c0,0.6,0.3,0.8,1,0.8h6.2c0.4,0,0.7-0.2,0.8-0.5c0.1-0.2,0.2-0.9,0.3-2l2.2,0.7
			c-0.1,1.2-0.3,2.1-0.5,2.6c-0.3,0.8-1,1.3-2.1,1.3H67c-1.6,0-2.3-0.7-2.3-2.1v-6.6c-0.7,0.6-1.5,1.2-2.4,1.7l-1.2-1.9
			c2.2-1.2,3.7-2.5,4.6-4h-3.5V97h3.6v-2.3h-2.7v-2.1H65.8z M73.1,101.3c-0.6-0.7-1.1-1.4-1.5-2.2h-3.7c-0.3,0.8-0.8,1.5-1.3,2.2
			H73.1z M72.1,105.2v-2h-5.2v2H72.1z M71.5,97v-2.3H68V97H71.5z"/>
		<path style="fill:#FFFFFF;" d="M81.5,97.7v-1.2l-0.7,0.8l-1.2-1.6c1.3-1.5,2.4-3.3,3.5-5.3h1.5c1.1,1.3,2.2,2.6,3.2,4l-1.3,1.4v2
			H85v2.2h2.3v2.1H85v6.8c0.7-0.2,1.4-0.4,2.1-0.6v2.1c-2.1,0.6-4.3,1.1-6.6,1.6l-0.5-2.1c1-0.1,2-0.3,3-0.5V102h-2.6v-2.1H83v-2.2
			H81.5z M82.6,108.1l-1.5,0.4c-0.3-1.6-0.6-3.2-1-4.7l1.5-0.5C82,104.7,82.3,106.3,82.6,108.1z M86.3,95.7
			c-0.9-1.3-1.6-2.3-2.2-3.1c-0.6,1.1-1.2,2.1-1.9,3.1H86.3z M87.7,103.3c-0.2,1.5-0.6,2.9-0.9,4.1l-1.4-0.5c0.3-1,0.6-2.4,0.9-4
			L87.7,103.3z M90.7,91.9v-1.8h2.1v1.8h2.3v2h-2.3v1.3H96c0-1.6-0.1-3.2-0.1-5h1.9c0,1.8,0,3.5,0.1,5h3.6v2H98
			c0.1,2.3,0.2,4.1,0.4,5.4c0,0.5,0.1,0.9,0.2,1.4c0.5-1.6,1-3.5,1.3-5.6l1.8,0.7c-0.6,3.3-1.4,6.1-2.4,8.3c0,0.2,0.1,0.4,0.2,0.6
			c0.3,1.1,0.6,1.7,0.8,1.7c0.2,0,0.4-1.1,0.6-3.4l1.6,0.9c-0.4,3.4-1,5.1-1.8,5.1c-0.6,0-1.3-0.7-2-2.2c-0.1-0.2-0.2-0.5-0.3-0.7
			c-0.7,1.1-1.5,2-2.4,2.7l-0.7-1.1c-2.1,0.3-4.4,0.6-6.8,0.8l-0.5-1.9c1-0.1,2-0.1,3-0.2V108h-2.5v-1.7h2.5v-1.2
			c-0.7,0-1.4,0-2.1,0l-0.5-1.6c2.7,0,5-0.2,6.8-0.7l0.9,1.5c-0.8,0.2-1.8,0.4-2.9,0.5v1.4h2.4v1.7h-2.4v1.3l2.7-0.4v0.7
			c0.7-0.8,1.4-1.7,1.9-2.8c-0.3-1.1-0.5-2.2-0.7-3.6c-0.3-1.7-0.5-3.7-0.6-6.1h-8.6v-2h3.2v-1.3h-2.4v-2H90.7z M95.1,98.1v4.3h-6.7
			v-4.3H95.1z M93.2,99.6h-2.9v1.4h2.9V99.6z M102,93.6l-1.5,1c-0.5-0.9-1.2-2-2.1-3.1l1.5-0.9C100.8,91.8,101.5,92.8,102,93.6z"/>
		<path style="fill:#FFFFFF;" d="M112.9,90.9v5c2.1-1.6,3.5-3.6,4.2-5.9l2.2,0.4c-0.2,0.5-0.4,1-0.6,1.5h5.7v1.7
			c-0.7,1.9-1.8,3.6-3.3,5.1c1.5,1.2,3.3,2.1,5.4,2.8l-1.3,1.9c-2.3-0.8-4.2-1.8-5.8-3.2c-1.6,1.3-3.5,2.3-5.7,3.3l-1.4-1.8
			c2.1-0.8,4-1.8,5.5-3c-0.7-0.8-1.3-1.7-1.9-2.6c-0.6,0.6-1.2,1.2-1.9,1.7l-1.3-1.7V99h-2.3v3.4h2.2v2.2h-2.2v3.8
			c1-0.3,1.9-0.6,2.8-0.9v2.3c-2.5,0.9-5.5,1.8-8.8,2.6L104,110l1.1-0.2v-8.5h2v8c0.5-0.1,0.9-0.2,1.4-0.4V99h-3.4v-8.1H112.9z
			 M110.8,93h-3.5v3.9h3.5V93z M124.4,112.3h-2.2v-0.9h-5.3v0.9h-2.2v-9.2h9.7V112.3z M122.2,109.3v-4.1h-5.3v4.1H122.2z
			 M119.5,97.3c1-1,1.8-2.1,2.5-3.3h-4.3c-0.1,0.1-0.2,0.3-0.3,0.4C118,95.4,118.7,96.4,119.5,97.3z"/>
		<path style="fill:#FFFFFF;" d="M130.9,95.8v-5.7h2.2v5.7h2.2v2.2h-2.2v14.3h-2.2V98.1h-2.4v-2.2H130.9z M145.3,105.1v-1h2.2v1h2.7
			v2h-2.7v3.1c0,1.4-0.7,2.2-2.1,2.2h-2.7l-0.5-2.1c0.9,0.1,1.7,0.1,2.5,0.1c0.4,0,0.6-0.3,0.6-0.7v-2.5h-6.2c1.2,0.9,2.2,1.8,3,2.7
			l-1.4,1.4c-0.8-1-1.9-2-3.3-3.1l1.1-1H135v-2H145.3z M141.7,91.7v-1.5h2.2v1.5h2.2c-0.2-0.4-0.4-0.8-0.6-1.2l2-0.3l0.5,1.5h2v1.9
			h-6.1v1h5.4v7.6c0,1.2-0.7,1.7-2.1,1.7h-1.3l-0.5-1.7l1.2,0.1c0.3,0,0.5-0.2,0.5-0.6v-0.4h-3.3v2.4h-2.2v-2.4h-3.2v2.6h-2.1v-9.3
			h5.4v-1h-6.1v-1.9H141.7z M141.7,97.3v-1.1h-3.2v1.1H141.7z M141.7,99.8v-1h-3.2v1H141.7z M143.9,97.3h3.3v-1.1h-3.3V97.3z
			 M143.9,99.8h3.3v-1h-3.3V99.8z"/>
		<path style="fill:#FFFFFF;" d="M154.2,100.5l-2-0.6c0.7-2.6,1.1-5.2,1.2-8l2,0.1c0,1-0.1,1.9-0.2,2.9h1.3v-4.8h2.2v4.8h1.8v2.2
			h-1.8v5.1c0.6-0.3,1.1-0.5,1.7-0.8v2.2c-0.6,0.3-1.1,0.5-1.7,0.8v8h-2.2v-7.1c-1.1,0.4-2.3,0.8-3.5,1.2l-0.5-2.2
			c1.4-0.3,2.7-0.7,4-1.1v-6h-1.5C154.8,98.3,154.5,99.4,154.2,100.5z M165.4,90.6c-0.2,1.2-0.5,2.2-0.8,3.2h9.2
			c0,8.3-0.1,13.4-0.4,15.4c-0.3,2.1-1.6,3.1-4.1,3.1c-0.3,0-0.9,0-1.8-0.1l-0.5-2.1c0.8,0.1,1.4,0.1,2,0.1c1.3,0,2.1-0.7,2.3-2.1
			c0.1-1.2,0.2-5.2,0.3-12.1h-1.1c-0.5,3.9-1.2,7-2.1,9.3c-1.1,2.6-2.8,4.8-5,6.9l-1.4-1.8c2-1.8,3.5-3.8,4.5-6
			c0.9-2.1,1.5-4.9,2-8.4h-1.4c-1,5.2-2.8,8.9-5.5,11.3l-1.5-1.7c2.4-2,4-5.2,4.9-9.6h-1.2c-0.6,1.4-1.3,2.7-2.1,3.6l-1.7-1.4
			c1.5-1.9,2.6-4.6,3.2-8.2L165.4,90.6z"/>
		<path style="fill:#FFFFFF;" d="M198.2,97h-1.6v5.7h-7.3v1.9h8v7.9h-2.1v-0.9h-5.9v0.9h-2.1V97h-1.3v-1.6l-0.6,0.6
			c-0.5-0.6-0.9-1.1-1.3-1.5v1.8h-4.4v-0.8c-0.6,0.6-1.2,1.3-1.8,1.9l-1.2-1.7c1.5-1.5,2.9-3.2,4.2-5.2h2.1c1,1,2,2,2.9,3v-1h5
			c-0.3-0.7-0.6-1.4-0.8-1.9l2.2-0.3c0.3,0.7,0.5,1.4,0.8,2.3h5.3V97z M186.3,111.1l-1.9,0.8c-0.2-0.5-0.3-1-0.5-1.5
			c-1.8,0.7-3.8,1.4-6,2l-0.7-1.8c0.4-0.2,0.6-0.5,0.6-0.8V97.4h7.5v9.2H180v3.2c1.2-0.4,2.2-0.8,3.2-1.2c-0.2-0.5-0.4-0.9-0.6-1.3
			l1.9-0.6C185.1,108,185.7,109.5,186.3,111.1z M183.2,99.6H180v1.5h3.2V99.6z M180,104.5h3.2V103H180V104.5z M183.8,94.4
			c-0.7-0.8-1.4-1.5-1.9-2c-0.5,0.7-1,1.4-1.5,2H183.8z M196,96.3v-1.8h-8.1v1.8H196z M194.4,100.8v-2.5h-5.2v2.5H194.4z
			 M189.2,109.5h5.9v-2.9h-5.9V109.5z"/>
		<path style="fill:#FFFFFF;" d="M25.3,117.8v4h4.3v-4h1.8v10.1h-1.8v-4.5h-4.3v4.5h-1.8v-10.1H25.3z"/>
		<path style="fill:#FFFFFF;" d="M36.7,128.1c-2.1,0-3.7-1.4-3.7-3.8c0-2.4,1.6-3.9,3.8-3.9c2.2,0,3.6,1.5,3.6,3.8
			C40.4,126.9,38.5,128.1,36.7,128.1L36.7,128.1z M36.7,126.7c1,0,1.8-1,1.8-2.5c0-1.1-0.5-2.5-1.8-2.5c-1.3,0-1.8,1.3-1.8,2.5
			C34.9,125.7,35.6,126.7,36.7,126.7L36.7,126.7z"/>
		<path style="fill:#FFFFFF;" d="M41.9,122.8c0-0.8,0-1.5-0.1-2.2h1.6l0.1,1.1h0c0.3-0.6,1.1-1.3,2.3-1.3c1.3,0,2.6,0.8,2.6,3.1v4.3
			h-1.8v-4.1c0-1-0.4-1.8-1.4-1.8c-0.7,0-1.2,0.5-1.4,1.1c-0.1,0.1-0.1,0.4-0.1,0.6v4.3h-1.8V122.8z"/>
		<path style="fill:#FFFFFF;" d="M57.1,126.8c0,1.5-0.3,2.6-1.1,3.3c-0.8,0.7-1.8,0.9-2.8,0.9c-0.9,0-1.9-0.2-2.5-0.6l0.4-1.4
			c0.5,0.3,1.2,0.6,2.1,0.6c1.2,0,2.1-0.6,2.1-2.2v-0.6h0c-0.4,0.6-1.2,1.1-2.1,1.1c-1.8,0-3.1-1.5-3.1-3.6c0-2.4,1.6-3.9,3.3-3.9
			c1.1,0,1.8,0.5,2.1,1.1h0l0.1-1h1.6c0,0.5-0.1,1.1-0.1,2.1V126.8z M55.3,123.5c0-0.2,0-0.3-0.1-0.5c-0.2-0.7-0.7-1.2-1.5-1.2
			c-1,0-1.8,0.9-1.8,2.4c0,1.2,0.6,2.2,1.8,2.2c0.7,0,1.3-0.5,1.5-1.1c0.1-0.2,0.1-0.4,0.1-0.6V123.5z"/>
		<path style="fill:#FFFFFF;" d="M62.3,117.8h1.8v4.6h0c0.2-0.4,0.5-0.8,0.7-1.1l2.7-3.6h2.3l-3.5,4.3l3.7,5.8h-2.2l-2.8-4.6
			l-0.9,1.1v3.6h-1.8V117.8z"/>
		<path style="fill:#FFFFFF;" d="M74,128.1c-2.1,0-3.7-1.4-3.7-3.8c0-2.4,1.6-3.9,3.8-3.9c2.2,0,3.6,1.5,3.6,3.8
			C77.7,126.9,75.9,128.1,74,128.1L74,128.1z M74.1,126.7c1,0,1.8-1,1.8-2.5c0-1.1-0.5-2.5-1.8-2.5c-1.3,0-1.8,1.3-1.8,2.5
			C72.2,125.7,72.9,126.7,74.1,126.7L74.1,126.7z"/>
		<path style="fill:#FFFFFF;" d="M79.3,122.8c0-0.8,0-1.5-0.1-2.2h1.6l0.1,1.1h0c0.3-0.6,1.1-1.3,2.3-1.3c1.3,0,2.6,0.8,2.6,3.1v4.3
			H84v-4.1c0-1-0.4-1.8-1.4-1.8c-0.7,0-1.2,0.5-1.4,1.1c-0.1,0.1-0.1,0.4-0.1,0.6v4.3h-1.8V122.8z"/>
		<path style="fill:#FFFFFF;" d="M94.5,126.8c0,1.5-0.3,2.6-1.1,3.3c-0.8,0.7-1.8,0.9-2.8,0.9c-0.9,0-1.9-0.2-2.5-0.6l0.4-1.4
			c0.5,0.3,1.2,0.6,2.1,0.6c1.2,0,2.1-0.6,2.1-2.2v-0.6h0c-0.4,0.6-1.2,1.1-2.1,1.1c-1.8,0-3.1-1.5-3.1-3.6c0-2.4,1.6-3.9,3.3-3.9
			c1.1,0,1.8,0.5,2.1,1.1h0l0.1-1h1.6c0,0.5-0.1,1.1-0.1,2.1V126.8z M92.6,123.5c0-0.2,0-0.3-0.1-0.5c-0.2-0.7-0.7-1.2-1.5-1.2
			c-1,0-1.8,0.9-1.8,2.4c0,1.2,0.6,2.2,1.8,2.2c0.7,0,1.3-0.5,1.5-1.1c0.1-0.2,0.1-0.4,0.1-0.6V123.5z"/>
		<path style="fill:#FFFFFF;" d="M99.6,117.9c0.7-0.1,1.7-0.2,2.8-0.2c1.5,0,2.4,0.2,3.1,0.8c0.6,0.5,0.9,1.2,0.9,2
			c0,1.3-0.9,2.2-1.8,2.5v0c0.7,0.3,1.2,1,1.4,2c0.3,1.3,0.6,2.4,0.8,2.8h-1.9c-0.1-0.3-0.4-1.1-0.7-2.4c-0.3-1.3-0.8-1.7-1.8-1.8
			h-0.9v4.2h-1.8V117.9z M101.4,122.4h1.1c1.2,0,2-0.7,2-1.7c0-1.1-0.8-1.6-2-1.6c-0.6,0-1,0-1.1,0.1V122.4z"/>
		<path style="fill:#FFFFFF;" d="M113.9,126.1c0,0.7,0,1.3,0.1,1.8h-1.7l-0.1-0.8h0c-0.4,0.6-1.2,1-2.2,1c-1.5,0-2.3-1.1-2.3-2.2
			c0-1.8,1.6-2.8,4.3-2.8V123c0-0.5-0.2-1.3-1.5-1.3c-0.7,0-1.5,0.2-2,0.5l-0.4-1.2c0.5-0.3,1.5-0.6,2.6-0.6c2.3,0,3,1.5,3,3.1
			V126.1z M112.1,124.3c-1.3,0-2.6,0.3-2.6,1.4c0,0.7,0.5,1.1,1.1,1.1c0.8,0,1.3-0.5,1.5-1c0-0.1,0-0.3,0-0.4V124.3z"/>
		<path style="fill:#FFFFFF;" d="M116.8,119.5c-0.6,0-1-0.5-1-1c0-0.6,0.4-1,1-1c0.6,0,1,0.4,1,1
			C117.8,119.1,117.4,119.5,116.8,119.5L116.8,119.5z M115.8,127.9v-7.3h1.8v7.3H115.8z"/>
		<path style="fill:#FFFFFF;" d="M119.7,117.2h1.8v10.7h-1.8V117.2z"/>
		<path style="fill:#FFFFFF;" d="M124.6,120.6l0.8,3.3c0.2,0.8,0.3,1.6,0.5,2.4h0c0.1-0.8,0.4-1.6,0.6-2.4l1-3.3h1.5l0.9,3.2
			c0.2,0.9,0.4,1.6,0.6,2.4h0c0.1-0.8,0.3-1.6,0.5-2.4l0.8-3.2h1.8l-2.3,7.3h-1.7l-0.9-3c-0.2-0.8-0.4-1.5-0.6-2.3h0
			c-0.2,0.9-0.3,1.6-0.6,2.3l-0.9,3h-1.7l-2.2-7.3H124.6z"/>
		<path style="fill:#FFFFFF;" d="M140.3,126.1c0,0.7,0,1.3,0.1,1.8h-1.7l-0.1-0.8h0c-0.4,0.6-1.2,1-2.2,1c-1.5,0-2.3-1.1-2.3-2.2
			c0-1.8,1.6-2.8,4.3-2.8V123c0-0.5-0.2-1.3-1.5-1.3c-0.7,0-1.5,0.2-2,0.5l-0.4-1.2c0.5-0.3,1.5-0.6,2.6-0.6c2.3,0,3,1.5,3,3.1
			V126.1z M138.5,124.3c-1.3,0-2.6,0.3-2.6,1.4c0,0.7,0.5,1.1,1.1,1.1c0.8,0,1.3-0.5,1.5-1c0-0.1,0-0.3,0-0.4V124.3z"/>
		<path style="fill:#FFFFFF;" d="M143.3,120.6l1.3,3.9c0.1,0.4,0.3,1,0.4,1.4h0c0.1-0.4,0.2-1,0.4-1.4l1.1-3.9h2l-1.8,5
			c-1,2.7-1.7,3.9-2.5,4.7c-0.7,0.6-1.5,0.9-1.9,0.9l-0.4-1.5c0.3-0.1,0.7-0.2,1.1-0.5c0.3-0.2,0.8-0.7,1-1.2
			c0.1-0.1,0.1-0.2,0.1-0.3c0-0.1,0-0.2-0.1-0.4l-2.7-6.7H143.3z"/>
		<path style="fill:#FFFFFF;" d="M161.4,123.8c-0.1-1.3-0.1-2.9-0.1-4.2h0c-0.3,1.2-0.8,2.6-1.2,3.9l-1.5,4.4h-1.4l-1.4-4.3
			c-0.4-1.3-0.8-2.7-1-3.9h0c0,1.3-0.1,2.9-0.2,4.3l-0.2,4.1h-1.7l0.7-10.1h2.4l1.3,4.1c0.4,1.2,0.7,2.4,0.9,3.5h0
			c0.3-1.1,0.6-2.3,1-3.5l1.4-4h2.4l0.6,10.1h-1.8L161.4,123.8z"/>
		<path style="fill:#FFFFFF;" d="M171.7,125.7c0,0.9,0,1.6,0.1,2.2h-1.6l-0.1-1.1h0c-0.3,0.5-1,1.3-2.4,1.3c-1.3,0-2.5-0.8-2.5-3.2
			v-4.3h1.8v4c0,1.2,0.4,2,1.4,2c0.7,0,1.2-0.5,1.4-1c0.1-0.2,0.1-0.4,0.1-0.6v-4.4h1.8V125.7z"/>
		<path style="fill:#FFFFFF;" d="M173.6,126.2c0.4,0.3,1.2,0.5,1.9,0.5c0.8,0,1.2-0.3,1.2-0.8c0-0.5-0.3-0.7-1.2-1.1
			c-1.4-0.5-2-1.3-2-2.1c0-1.3,1.1-2.3,2.8-2.3c0.8,0,1.5,0.2,1.9,0.4l-0.4,1.3c-0.3-0.2-0.9-0.4-1.5-0.4c-0.7,0-1,0.3-1,0.8
			c0,0.5,0.3,0.7,1.3,1c1.3,0.5,1.9,1.1,1.9,2.2c0,1.3-1,2.3-3,2.3c-0.9,0-1.7-0.2-2.2-0.5L173.6,126.2z"/>
		<path style="fill:#FFFFFF;" d="M181.3,124.8c0,1.3,1.1,1.9,2.2,1.9c0.9,0,1.5-0.1,2-0.3l0.3,1.3c-0.6,0.3-1.5,0.5-2.5,0.5
			c-2.4,0-3.8-1.5-3.8-3.7c0-2,1.2-3.9,3.6-3.9c2.4,0,3.1,2,3.1,3.6c0,0.3,0,0.6-0.1,0.8H181.3z M184.5,123.5c0-0.7-0.3-1.8-1.5-1.8
			c-1.1,0-1.6,1-1.7,1.8H184.5z"/>
		<path style="fill:#FFFFFF;" d="M194.2,125.7c0,0.9,0,1.6,0.1,2.2h-1.6l-0.1-1.1h0c-0.3,0.5-1,1.3-2.4,1.3c-1.3,0-2.5-0.8-2.5-3.2
			v-4.3h1.8v4c0,1.2,0.4,2,1.4,2c0.7,0,1.2-0.5,1.4-1c0.1-0.2,0.1-0.4,0.1-0.6v-4.4h1.8V125.7z"/>
		<path style="fill:#FFFFFF;" d="M196.2,122.8c0-0.8,0-1.5-0.1-2.2h1.6l0.1,1.1h0c0.3-0.6,1-1.2,2.2-1.2c1,0,1.7,0.5,2,1.4h0
			c0.3-0.4,0.6-0.7,0.9-0.9c0.4-0.3,0.9-0.4,1.5-0.4c1.2,0,2.4,0.8,2.4,3.2v4.3h-1.8v-4c0-1.2-0.4-1.9-1.3-1.9c-0.6,0-1.1,0.5-1.3,1
			c-0.1,0.2-0.1,0.4-0.1,0.6v4.4h-1.8v-4.2c0-1-0.4-1.7-1.3-1.7c-0.7,0-1.2,0.5-1.3,1c-0.1,0.2-0.1,0.4-0.1,0.6v4.3h-1.8V122.8z"/>
	</g>
	<g>
		<path d="M114.7,38.5c-5.3-3.1-9.7-10.6-9.6-16.7c0-2.1,0.5-3.7,1.4-4.9c-2.4,0.7-3.8,3.4-3.8,7.2c0,6.1,4.3,13.6,9.6,16.7
			c3.9,2.2,7.2,1.5,8.8-1.4C119.3,40.1,117.1,39.9,114.7,38.5z"/>
		<path d="M112.4,5.7c-5.8-3.3-10.8-3.6-14.6-1.5c1.6-0.9,3.1-1.9,4.8-2.9c3.8-2.2,9-1.9,14.8,1.4c11.5,6.6,20.7,22.7,20.7,35.8
			c0,3.6-0.5,8.3-3.3,12.8l-15.8,24.1l-5.9,3.5l18.2-28.7c1.2-2.3,1.9-5.3,1.9-8.9C133.1,28.4,123.8,12.3,112.4,5.7z"/>
	</g>
	<path style="fill:#BE0000;" d="M133,41.6c0,3.6-0.7,6.5-1.9,8.9l-18.2,28.7l-18-46.5c-2-7-2.6-10.4-2.5-15.2
		c0-13.2,8.6-18.2,20-11.6C123.8,12.3,133.1,28.4,133,41.6z M112.3,40.7c5.3,3.1,9.7,0.6,9.7-5.5c0-6.1-4.3-13.6-9.6-16.7
		c-5.3-3.1-9.7-0.6-9.7,5.5C102.6,30.1,106.9,37.6,112.3,40.7L112.3,40.7"/>
</g>
</svg>
