<svg xmlns="http://www.w3.org/2000/svg" width="190" height="114.51" viewBox="0 0 190 114.51">
  <g id="Layer_2" data-name="Layer 2">
    <g id="Pointer">
      <g>
        <rect y="82.31" width="190" height="32.2" rx="16.1" style="fill: #be0000"/>
        <g>
          <path d="M21.8,93.13V90.84q-3.47.21-7.48.21l-.51-1.52a88.64,88.64,0,0,0,16.55-1.35l.79,1.4a53.94,53.94,0,0,1-7.65,1.14v2.41h9.39v1.64H24.46a50.43,50.43,0,0,1,9,4.81L32.31,101a43.19,43.19,0,0,0-8.81-5.07v3.84h6.28v10.55h-1.7V109H17.38v1.3H15.69V99.73H21.8V94.9c-1.64,2.34-4.71,4.37-9.2,6.06l-.94-1.55q6.23-2.05,8.5-4.64h-8V93.13Zm6.28,10.53v-2.39H17.38v2.39Zm0,3.77v-2.27H17.38v2.27Z" style="fill: #fff"/>
          <path d="M41.08,98.06l-1.21,1.23a24.54,24.54,0,0,0-4-3.5l1.21-1.18A27.48,27.48,0,0,1,41.08,98.06Zm0,4.25a70.38,70.38,0,0,1-3.22,8l-1.73-.75a69.52,69.52,0,0,0,3.38-7.85Zm.79-10-1.23,1.2a27.61,27.61,0,0,0-4.27-3.67l1.23-1.18A30.52,30.52,0,0,1,41.82,92.29Zm4.06-1.5V88.23h1.69v2.56h4.06V88.23h1.69v2.56h3.07v1.57H53.32v2.87h3.84v1.6h-4a10.11,10.11,0,0,0,4.71,4l-.72,1.5a14.47,14.47,0,0,1-3.34-2.37v5H46.49v2.32c0,.62.33.94,1.06,1h6.5a1.07,1.07,0,0,0,1-.58,7.84,7.84,0,0,0,.38-2.19l1.65.53a12,12,0,0,1-.49,2.61,2.06,2.06,0,0,1-2,1.23H46.92c-1.45,0-2.15-.65-2.15-2v-7.17a19.33,19.33,0,0,1-2.83,2.12l-.89-1.47a11.6,11.6,0,0,0,4.86-4.54H42.09v-1.6h3.79V92.36H43V90.79Zm7.54,8.7a12.21,12.21,0,0,1-1.89-2.66h-4a10.25,10.25,0,0,1-1.59,2.66Zm-1.19,4V101H46.49v2.51Zm-.6-8.24V92.36H47.57v2.87Z" style="fill: #fff"/>
          <path d="M61.36,95.5V94.22c-.29.36-.56.7-.85,1L59.6,94a29.71,29.71,0,0,0,3.6-5.48h1.16a51.59,51.59,0,0,1,3.26,4.18l-1.07,1.13a42.14,42.14,0,0,0-2.65-3.6A29.16,29.16,0,0,1,61.53,94h4.85V95.5H64.62v2.68h2.49v1.59H64.62v7.42c.82-.22,1.62-.46,2.39-.7v1.62a53.18,53.18,0,0,1-6.66,1.64L60,108.13c1.06-.17,2.1-.36,3.12-.58V99.77H60.35V98.18h2.73V95.5Zm1,10.68-1.18.29a46.88,46.88,0,0,0-1.09-4.67l1.18-.36A43.79,43.79,0,0,1,62.4,106.18Zm5-4.83a24.44,24.44,0,0,1-1,4.17l-1.11-.41a28.89,28.89,0,0,0,1-4.08Zm3.39-11.24v-2h1.59v2h2.54v1.55H72.35V93.4h3.7c0-1.6-.08-3.34-.08-5.2h1.5c0,1.91,0,3.65.07,5.2h3.77v1.54H77.59c.1,2.42.24,4.38.44,5.87.09.75.19,1.43.29,2.06a37.35,37.35,0,0,0,1.59-6.4l1.35.58a34.45,34.45,0,0,1-2.44,8.35,9.24,9.24,0,0,0,.32,1c.38,1.16.72,1.76,1,1.76s.49-1.25.7-3.76l1.26.67c-.39,3.34-1,5-1.69,5s-1.26-.75-1.93-2.2c-.15-.34-.29-.68-.41-1a10.63,10.63,0,0,1-2.61,3l-.8-1.18c-2.08.31-4.3.58-6.64.8l-.39-1.5c1.06-.07,2.13-.17,3.19-.27v-2h-2.7v-1.3h2.7v-1.6c-.77,0-1.57.08-2.39.08L68,101.78a29,29,0,0,0,6.79-.68l.67,1.16a19.26,19.26,0,0,1-3.07.53v1.72H75v1.3H72.37v1.79c1-.12,2-.26,2.93-.41V108A12.94,12.94,0,0,0,77.42,105c-.29-1.11-.53-2.34-.75-3.74a59.64,59.64,0,0,1-.55-6.31H67.35V93.4h3.41V91.66H68.17V90.11Zm4.13,6.09v4.15H68.37V96.2Zm-1.48,1.16H69.84V99.2h3.57ZM81.7,91.8l-1.14.8a23.63,23.63,0,0,0-2.15-3.14l1.14-.72A27.41,27.41,0,0,1,81.7,91.8Z" style="fill: #fff"/>
          <path d="M92.56,89.12v7.59H90.15v3.89h2.51v1.64H90.15v4.49c1.06-.34,2.1-.68,3.07-1v1.74A75.46,75.46,0,0,1,84.4,110l-.48-1.69,1.28-.29V99.29h1.54v8.38c.61-.14,1.21-.31,1.79-.46V96.71H85.12V89.12Zm-1.66,1.6H86.81v4.39H90.9Zm7.9-2.3c-.2.61-.42,1.19-.66,1.77h6v1.25a15.68,15.68,0,0,1-3.6,5.36,17,17,0,0,0,5.78,3l-1,1.43a16.48,16.48,0,0,1-6-3.34,24.39,24.39,0,0,1-5.84,3.44l-1-1.41a22.84,22.84,0,0,0,5.7-3.21,15,15,0,0,1-2.2-3.07,16.69,16.69,0,0,1-2.1,2l-1-1.38a12.4,12.4,0,0,0,4.35-6.18Zm5.29,21.81h-1.67v-1.06H96.33v1.06H94.66v-9h9.43Zm-1.67-2.65v-4.74H96.33v4.74ZM99.33,95.69a15.39,15.39,0,0,0,3-4h-5c-.14.19-.26.41-.41.61A13.34,13.34,0,0,0,99.33,95.69Z" style="fill: #fff"/>
          <path d="M111,94.1V88.2h1.72v5.9h2.44v1.69h-2.44v14.49H111V95.79h-2.6V94.1Zm14.4,9.23v-1.21h1.69v1.21h2.88v1.54h-2.88v3.5a1.68,1.68,0,0,1-1.86,1.91h-2.68l-.36-1.62q1.3.12,2.46.12c.48,0,.75-.29.75-.82v-3.09H114.88v-1.54Zm-3.6-13.43V88.23h1.67V89.9h2.8c-.24-.54-.48-1-.72-1.45L127,88.2c.22.51.44,1.07.66,1.7h2.07v1.47h-6.3v1.3h5.48v7.54c0,1.06-.63,1.62-1.83,1.62h-1.33l-.37-1.33,1.26.07c.44,0,.65-.24.65-.7V99.2h-3.86v2.48h-1.67V99.2h-3.84v2.6H116.3V92.67h5.46v-1.3h-6.3V89.9Zm0,18.06-1.09,1.09a22.09,22.09,0,0,0-3.31-3.09l1.06-1A24,24,0,0,1,121.74,108Zm0-12.53V94h-3.84v1.45Zm0,2.58v-1.4h-3.84V98Zm1.67-2.58h3.86V94h-3.86Zm0,2.58h3.86v-1.4h-3.86Z" style="fill: #fff"/>
          <path d="M133.64,98.42,132.12,98a27.38,27.38,0,0,0,1.55-8.07l1.52.12c-.05,1.06-.15,2.13-.29,3.16h1.69v-5h1.69v5h2v1.7h-2v5.79c.68-.31,1.3-.63,1.93-1v1.64c-.63.34-1.28.65-1.93,1v8h-1.69v-7.25c-1.23.48-2.49.94-3.79,1.35l-.42-1.69a30.7,30.7,0,0,0,4.21-1.3V94.9h-2A33.12,33.12,0,0,1,133.64,98.42ZM145,88.57a35.21,35.21,0,0,1-.89,3.48h9.37q0,12.09-.36,14.92-.41,3.19-3.91,3.19c-.34,0-.95,0-1.82-.07l-.41-1.57c.78,0,1.43.1,2,.1a2.35,2.35,0,0,0,2.53-2.32c.17-1.36.27-5.56.32-12.56h-1.65a40.27,40.27,0,0,1-2.2,9.56,20.24,20.24,0,0,1-5,6.79L142,108.71a18.45,18.45,0,0,0,4.54-6.08,34.82,34.82,0,0,0,2.1-8.89h-1.88q-1.46,7.89-5.51,11.47l-1.13-1.3c2.48-2.13,4.17-5.54,5.09-10.17H143.5a16,16,0,0,1-2.2,3.81L140,96.47a18.93,18.93,0,0,0,3.33-8.34Z" style="fill: #fff"/>
          <path d="M177.79,95h-1.57v5.55h-7.49v2.2h8.19v7.63h-1.64v-1.06h-6.55v1h-1.62V95h-1.37V93.3l-.61.63a51.78,51.78,0,0,0-3.45-3.87c-.63.92-1.28,1.77-2,2.59h4V94.1h-4.44v-.94c-.63.67-1.26,1.35-1.93,2l-1-1.33a29.72,29.72,0,0,0,4.38-5.31h1.54c1.19,1.16,2.32,2.37,3.41,3.62V90.6h5.19a17,17,0,0,0-.94-2.13l1.69-.27c.29.71.58,1.5.85,2.4h5.26Zm-11.86,14.2-1.42.65c-.2-.58-.39-1.08-.56-1.57a46.34,46.34,0,0,1-6.13,2l-.49-1.37a.74.74,0,0,0,.49-.71V95.69H165v8.7h-5.5v3.91c1.47-.48,2.78-1,3.91-1.45-.27-.6-.53-1.16-.8-1.66l1.45-.49A30.5,30.5,0,0,1,165.93,109.17Zm-2.61-11.88h-3.86v2h3.86Zm-3.86,5.5h3.86v-2.05h-3.86Zm16.71-8.33V92.19h-8.79v2.27Zm-1.59,4.59V96h-5.85v3.07Zm-5.85,8.7h6.55v-3.48h-6.55Z" style="fill: #fff"/>
        </g>
        <g>
          <path d="M94.51,38.49c-5.34-3.08-9.65-10.56-9.63-16.7a8.06,8.06,0,0,1,1.36-4.86c-2.36.72-3.8,3.36-3.81,7.17,0,6.14,4.3,13.62,9.64,16.7,3.89,2.25,7.25,1.53,8.79-1.38C99.16,40.13,96.94,39.89,94.51,38.49Z"/>
          <path d="M92.19,5.73C86.42,2.4,81.38,2.09,77.61,4.28c1.58-.91,3.13-1.92,4.78-2.88,3.78-2.19,9-1.88,14.77,1.45,11.46,6.61,20.72,22.65,20.68,35.82a23.45,23.45,0,0,1-3.32,12.81L98.7,75.62l-6,3.47,18.19-28.67a19.06,19.06,0,0,0,1.93-8.87C112.91,28.39,103.65,12.35,92.19,5.73Z"/>
        </g>
        <path d="M112.87,41.55a19.06,19.06,0,0,1-1.93,8.87L92.75,79.09l-18-46.54c-2-7-2.56-10.41-2.55-15.21,0-13.17,8.57-18.22,20-11.61S112.91,28.39,112.87,41.55Zm-20.78-.86c5.35,3.09,9.69.61,9.71-5.53s-4.3-13.62-9.65-16.71-9.68-.6-9.7,5.54,4.3,13.62,9.64,16.7h0" style="fill: #be0000"/>
      </g>
    </g>
  </g>
</svg>
