<svg xmlns="http://www.w3.org/2000/svg" width="100" height="119.73" viewBox="0 0 100 119.73">
  <g id="Layer_2" data-name="Layer 2">
    <g id="Pointer">
      <g>
        <rect y="86.06" width="100" height="33.67" rx="16.1" style="fill: #be0000"/>
        <g>
          <path d="M27,105.43a16.74,16.74,0,0,1-.36,1.82h9.28v1.67H26A11,11,0,0,1,23.78,112c-1.57,1.46-4.35,2.63-8.31,3.48l-.73-1.76c3.53-.66,6.09-1.65,7.63-2.93A8.45,8.45,0,0,0,24,108.92H15.85v-1.67h8.92a12.14,12.14,0,0,0,.48-2Zm-5.41-10.7a17.12,17.12,0,0,0-1.13-2.35l1.79-.31a24.28,24.28,0,0,1,1.11,2.66h5.14a13.16,13.16,0,0,0,1-2.76l1.81.26a11.13,11.13,0,0,1-1,2.5h5.39v1.66H26.72v2.43h7.61v1.56H26.72v2.48h9.69v1.66H15.3v-1.66H25v-2.48H17.45V98.82H25V96.39H16.09V94.73ZM37,113.94l-1,1.57a46.66,46.66,0,0,0-9.34-4.19l.91-1.44A50.62,50.62,0,0,1,37,113.94Z" style="fill: #fff"/>
          <path d="M39.47,107.15l-.55-1.84a21.56,21.56,0,0,0,4.63-7.86l1.53.74a31.59,31.59,0,0,1-1.24,3v14.24H42.1V104A23.64,23.64,0,0,1,39.47,107.15Zm5.36-13v-2H46.5v2h3v1.65h-3v2H44.83v-2H39.59V94.14ZM60.41,99.3V101h-2v11.69c0,1.62-.72,2.45-2.17,2.45H52.32L52,113.44c1.28.07,2.51.12,3.67.12.73,0,1.09-.45,1.09-1.33V101H45.82V99.3Zm-6.35,4.34v6.94H46.69v-6.94Zm-1.57,1.59H48.26V109h4.23ZM55.2,92.1v2h5.24v1.65H55.2v2.32H53.53V95.79h-3V94.14h3v-2Z" style="fill: #fff"/>
          <path d="M67.94,115.31H66.25v-12.6a31.28,31.28,0,0,1-2.53,6L63,106.82a24.07,24.07,0,0,0,3.22-7.95H63.52V97.12h2.73v-5h1.69v5h2.15v1.75H67.94v1.44a47.31,47.31,0,0,1,2.88,3.91l-.94,1.44c-.75-1.41-1.4-2.55-1.94-3.43Zm9.23-21.75V92.17h1.6v1.39H83.4v2.88h1.72V98H83.4v2.85H78.77v1.39H84v4.14H78.09l-1,1.49h8v1.44H82.24a7,7,0,0,1-2.07,2.83c1.59.56,3.23,1.21,4.92,2l-.94,1.26c-1.78-.86-3.6-1.61-5.38-2.27a21.56,21.56,0,0,1-7.59,2.25l-.65-1.47a25.34,25.34,0,0,0,6.33-1.46q-2-.64-3.84-1.14c.48-.66,1-1.31,1.42-2H70.87v-1.44h4.56c.34-.5.66-1,.94-1.49H72V102.2h5.22v-1.39H72.53V98H70.92V96.44h1.61V93.56Zm0,9.83H73.5v1.69h3.67Zm0-6.8V94.88H74.1v1.71Zm0,1.22H74.1v1.71h3.07Zm-2,12.8c1.09.25,2.2.56,3.36.93a5.91,5.91,0,0,0,2.17-2.27H76.13C75.77,109.78,75.43,110.21,75.14,110.61Zm3.63-14h3.09V94.88H78.77Zm3.09,1.22H78.77v1.71h3.09Zm.58,5.58H78.77v1.69h3.67Z" style="fill: #fff"/>
        </g>
        <g>
          <path d="M49.51,40.24c-5.34-3.22-9.65-11-9.63-17.46a8.71,8.71,0,0,1,1.36-5.08c-2.36.76-3.8,3.52-3.81,7.5,0,6.42,4.3,14.24,9.64,17.46,3.89,2.35,7.25,1.6,8.79-1.45C54.16,42,51.94,41.71,49.51,40.24Z"/>
          <path d="M47.19,6C41.42,2.51,36.38,2.19,32.61,4.48c1.58-1,3.13-2,4.78-3,3.78-2.29,9-2,14.77,1.51C63.62,9.89,72.88,26.66,72.84,40.43a25.42,25.42,0,0,1-3.32,13.4L53.7,79.06l-6,3.63,18.19-30a20.65,20.65,0,0,0,1.93-9.27C67.91,29.68,58.65,12.91,47.19,6Z"/>
        </g>
        <path d="M67.87,43.45a20.65,20.65,0,0,1-1.93,9.27l-18.19,30L29.71,34c-2-7.31-2.56-10.89-2.55-15.91,0-13.77,8.57-19,20-12.13S67.91,29.68,67.87,43.45Zm-20.78-.9c5.35,3.22,9.69.63,9.71-5.79S52.5,22.52,47.15,19.3s-9.68-.64-9.7,5.78,4.3,14.24,9.64,17.47h0" style="fill: #be0000"/>
      </g>
    </g>
  </g>
</svg>
