<svg xmlns="http://www.w3.org/2000/svg" width="100" height="114.51" viewBox="0 0 100 114.51">
  <g id="Layer_2" data-name="Layer 2">
    <g id="Pointer">
      <g>
        <rect y="82.31" width="100" height="32.2" rx="16.1" style="fill: #be0000"/>
        <g>
          <path d="M17.06,102v1.35H15.59v-14h8.55v14H22.71V102H20.76v8.33H19.07V102Zm2.15-11.23H17.06v4.17h2.15Zm-2.15,9.75h2.15V96.39H17.06Zm5.65-9.75h-2.1v4.17h2.1Zm-2.1,9.75h2.1V96.39h-2.1Zm5.77,3.63a27,27,0,0,1-1.13,5.07l-1.38-.48a21.19,21.19,0,0,0,1.26-4.91Zm.87-2.85h9.11a40.68,40.68,0,0,1-.48,7.34c-.34,1.06-1.33,1.62-2.93,1.62H31.82l-.51-1.48c.63,0,1.19,0,1.72,0a1.43,1.43,0,0,0,1.45-.87,31.08,31.08,0,0,0,.31-5.17H25.71V90h2.68a7.13,7.13,0,0,0,.72-2l1.74.25A7.92,7.92,0,0,1,30.1,90h5V97H27.25V98.4h9.16v1.4H27.25Zm6.28-9.88H27.25v1.49h6.28Zm-6.28,4.22h6.28V94.17H27.25Zm1.82,13-1.29.17a24.21,24.21,0,0,0-.5-4.61l1.18-.15A24.13,24.13,0,0,1,29.07,108.59Zm2.68-.65-1.19.29a34.06,34.06,0,0,0-.89-4.23l1.11-.24C31.14,105,31.46,106.44,31.75,107.94Zm2.48-.82-1.06.38a29.48,29.48,0,0,0-1.33-3.64l1.11-.29A34.22,34.22,0,0,1,34.23,107.12Z" style="fill: #fff"/>
          <path d="M40.2,93.86V89.75h8.91A11,11,0,0,0,48,88.2l1.86-.29a14.64,14.64,0,0,1,1.09,1.84h8.91v4.11H58.14v.94H52.78a12.88,12.88,0,0,0,3.33,2.8,14.75,14.75,0,0,0,1.86-2l1.36.84a21.32,21.32,0,0,1-2,1.91A25.75,25.75,0,0,0,61,99.77l-.72,1.53a28.9,28.9,0,0,1-3.63-1.62v4.9H51v3.65c0,1.35-.65,2-2,2h-2.7l-.37-1.64c.87.07,1.7.12,2.47.12.53,0,.82-.31.82-.94v-3.24H43.38V99.82a23.36,23.36,0,0,1-3.45,1.36l-1-1.33a20.92,20.92,0,0,0,3.87-1.48,21.56,21.56,0,0,0-1.91-2l1.3-.82a18.27,18.27,0,0,1,1.93,2A14.31,14.31,0,0,0,47.3,94.8H41.89v-.94Zm6.3,12.48a21.2,21.2,0,0,1-6.26,3.58l-.72-1.55a18.23,18.23,0,0,0,5.94-3.21ZM58.12,91.2H41.89v2.15h6.42a14.81,14.81,0,0,0,1-2l1.49.6c-.21.49-.43.94-.67,1.38h8Zm-13,9.15H55V98.78H45.17c-.05,0-.1,0-.1.08Zm0,2.88H55v-1.62H45.07Zm8.29-5.8A12.1,12.1,0,0,1,51,94.8H49.25a14.92,14.92,0,0,1-2.31,2.63Zm6.71,11.06-.91,1.41a24.2,24.2,0,0,0-5.51-3.43l.87-1.31A28,28,0,0,1,60.07,108.49Z" style="fill: #fff"/>
          <path d="M68.72,88.66a18.77,18.77,0,0,1-5.34,7.25l-.51-1.64A16.21,16.21,0,0,0,67.22,88Zm.53,6.26a18,18,0,0,1-2,3.7v11.61H65.67v-9.68a19.66,19.66,0,0,1-2.07,2L63.09,101a18.12,18.12,0,0,0,4.76-6.69Zm3.67,6.4V98.93h1.67v2.39h3.5v1.55h-3.5v3.4c1.42-.24,2.82-.53,4.2-.82V107c-3,.72-6.21,1.3-9.66,1.78l-.41-1.66c1.42-.15,2.82-.34,4.2-.56v-3.69H69.51v-1.55Zm0-9.66V88.47h1.66v3.19H78V93.2H74.61v3.27h3.87v-1h6.83V97H83v10.89c0,1.5-.66,2.25-1.94,2.25H78.23l-.36-1.62c.92.08,1.81.12,2.66.12.53,0,.8-.38.8-1.16V97H78.57v1H69.18V96.47H73V93.2H69.66V91.66ZM84.88,89.8v1.57h-6V89.8Z" style="fill: #fff"/>
        </g>
        <g>
          <path d="M49.51,38.49c-5.34-3.08-9.65-10.56-9.63-16.7a8.06,8.06,0,0,1,1.36-4.86c-2.36.72-3.8,3.36-3.81,7.17,0,6.14,4.3,13.62,9.64,16.7,3.89,2.25,7.25,1.53,8.79-1.38C54.16,40.13,51.94,39.89,49.51,38.49Z"/>
          <path d="M47.19,5.73C41.42,2.4,36.38,2.09,32.61,4.28c1.58-.91,3.13-1.92,4.78-2.88,3.78-2.19,9-1.88,14.77,1.45C63.62,9.46,72.88,25.5,72.84,38.67a23.45,23.45,0,0,1-3.32,12.81L53.7,75.62l-6,3.47L65.94,50.42a19.06,19.06,0,0,0,1.93-8.87C67.91,28.39,58.65,12.35,47.19,5.73Z"/>
        </g>
        <path d="M67.87,41.55a19.06,19.06,0,0,1-1.93,8.87L47.75,79.09l-18-46.54c-2-7-2.56-10.41-2.55-15.21,0-13.17,8.57-18.22,20-11.61S67.91,28.39,67.87,41.55Zm-20.78-.86c5.35,3.09,9.69.61,9.71-5.53s-4.3-13.62-9.65-16.71-9.68-.6-9.7,5.54,4.3,13.62,9.64,16.7h0" style="fill: #be0000"/>
      </g>
    </g>
  </g>
</svg>
