<svg xmlns="http://www.w3.org/2000/svg" width="100" height="114.51" viewBox="0 0 100 114.51">
  <g id="Layer_2" data-name="Layer 2">
    <g id="Pointer">
      <g>
        <rect y="82.31" width="100" height="32.2" rx="16.1" style="fill: #be0000"/>
        <g>
          <path d="M40.22,90h8.46v1.54H30.56v5.78c-.07,5.38-.85,9.71-2.32,12.94l-1.3-1.15c1.25-2.83,1.93-6.77,2-11.79V90h9.51a14.69,14.69,0,0,0-1.08-1.74L39.11,88A14.5,14.5,0,0,1,40.22,90Zm-5,3.89v-1.5h1.6v1.5h3.57v1.42H36.77V97h2.87v6.88H36.79v1.77h3.55v1.54H36.79v3H35.17v-3h-4v-1.54h4V103.9h-3V97h3V95.35H31.72V93.93Zm3,5.89V98.4H33.7v1.42Zm0,1.26H33.7v1.42h4.44Zm2.71,9.22-1.26-1.11a12.13,12.13,0,0,0,2.06-7.07V93.2H48v15c0,1.26-.6,1.88-1.76,1.88h-2l-.42-1.59c.7,0,1.36.07,2,.07.41,0,.63-.31.63-.94v-3.79H43.14A13,13,0,0,1,40.85,110.3Zm5.46-15.57H43.24v3h3.07Zm-3.07,7.58h3.07v-3H43.24Z" style="fill: #fff"/>
          <path d="M56.64,88.66a18.67,18.67,0,0,1-5.34,7.25l-.5-1.64A16.43,16.43,0,0,0,55.15,88Zm.53,6.26a18.31,18.31,0,0,1-2,3.69v11.62H53.6v-9.68a20.79,20.79,0,0,1-2.08,2L51,101a17.89,17.89,0,0,0,4.76-6.69Zm3.68,6.4V98.93h1.66v2.39H66v1.55h-3.5v3.4c1.43-.24,2.83-.53,4.2-.82V107c-3,.72-6.2,1.3-9.66,1.78l-.41-1.66c1.43-.15,2.83-.34,4.21-.56v-3.69H57.44v-1.55Zm0-9.66V88.47h1.67v3.19h3.35V93.2H62.54v3.26H66.4v-1h6.84V97h-2.3v10.89c0,1.5-.65,2.25-1.93,2.25H66.16l-.36-1.62c.91.07,1.81.12,2.65.12.54,0,.8-.38.8-1.16V97H66.5v1H57.1V96.46h3.77V93.2H57.58V91.66ZM72.8,89.8v1.57h-6V89.8Z" style="fill: #fff"/>
        </g>
        <g>
          <path d="M49.51,38.49c-5.34-3.08-9.65-10.56-9.63-16.7a8.06,8.06,0,0,1,1.36-4.86c-2.36.72-3.8,3.36-3.81,7.17,0,6.14,4.3,13.62,9.64,16.7,3.89,2.25,7.25,1.53,8.79-1.38C54.16,40.13,51.94,39.89,49.51,38.49Z"/>
          <path d="M47.19,5.73C41.42,2.4,36.38,2.09,32.61,4.28c1.58-.91,3.13-1.92,4.78-2.88,3.78-2.19,9-1.88,14.77,1.45C63.62,9.46,72.88,25.5,72.84,38.67a23.45,23.45,0,0,1-3.32,12.81L53.7,75.62l-6,3.47L65.94,50.42a19.06,19.06,0,0,0,1.93-8.87C67.91,28.39,58.65,12.35,47.19,5.73Z"/>
        </g>
        <path d="M67.87,41.55a19.06,19.06,0,0,1-1.93,8.87L47.75,79.09l-18-46.54c-2-7-2.56-10.41-2.55-15.21,0-13.17,8.57-18.22,20-11.61S67.91,28.39,67.87,41.55Zm-20.78-.86c5.35,3.09,9.69.61,9.71-5.53s-4.3-13.62-9.65-16.71-9.68-.6-9.7,5.54,4.3,13.62,9.64,16.7h0" style="fill: #be0000"/>
      </g>
    </g>
  </g>
</svg>
