<?xml version="1.0" encoding="utf-8"?>
<!-- Generator: Adobe Illustrator 26.0.1, SVG Export Plug-In . SVG Version: 6.00 Build 0)  -->
<svg version="1.1" id="Layer_1" xmlns="http://www.w3.org/2000/svg" xmlns:xlink="http://www.w3.org/1999/xlink" x="0px" y="0px"
	 width="130px" height="139.1px" viewBox="0 0 130 139.1" style="enable-background:new 0 0 130 139.1;" xml:space="preserve">
<path style="fill:#BE0000;" d="M103.5,139.1h-77C11.9,139.1,0,127.2,0,112.6v0C0,98,11.9,86.1,26.5,86.1h77
	c14.6,0,26.5,11.9,26.5,26.5v0C130,127.2,118.1,139.1,103.5,139.1z"/>
<g>
	<path style="fill:#FFFFFF;" d="M55.4,95.6h8.4v2H45.8v5.5c-0.1,5.4-0.8,9.8-2.3,13l-1.7-1.5c1.2-2.8,1.8-6.6,1.8-11.5v-7.6H53
		c-0.3-0.5-0.6-1-0.9-1.5l2.3-0.4C54.8,94.3,55.1,94.9,55.4,95.6z M49.9,99.5v-1.3H52v1.3h3.4v1.9H52v1.2h2.8v7.3h-2.8v1.3h3.4v1.9
		c0.7-1.5,1-3.2,1-5.2v-9.2h6.7v15c0,1.4-0.7,2.2-2,2.2h-2l-0.6-2.1c0.7,0.1,1.3,0.1,1.9,0.1c0.3,0,0.5-0.3,0.5-1v-3.1h-2.7
		c-0.3,2.5-1,4.7-2.2,6.4l-1.6-1.5c0.3-0.5,0.6-1,0.9-1.5h-3.3v2.8H50v-2.8h-3.9v-2H50v-1.3h-3v-7.3h2.9v-1.2h-3.3v-1.9H49.9z
		 M52.9,105.4v-1.1H49v1.1H52.9z M52.9,107H49v1h3.9V107z M61,100.8h-2.5v2.6H61V100.8z M58.5,107.9H61v-2.6h-2.5V107.9z"/>
	<path style="fill:#FFFFFF;" d="M71.8,94.6c-1.1,2.7-2.9,5.1-5.4,7.2l-0.7-2.1c1.9-1.7,3.2-3.7,4.1-6L71.8,94.6z M72.3,100.8
		c-0.5,1.2-1.1,2.4-1.9,3.5V116h-2.1v-9.2c-0.6,0.6-1.1,1.1-1.7,1.6l-0.7-2.1c2-1.8,3.6-4,4.5-6.4L72.3,100.8z M75.6,106.9v-2.2h2.2
		v2.2h3.3v2h-3.3v2.8c1.4-0.2,2.7-0.5,4-0.8v2c-3,0.7-6.3,1.3-9.8,1.8l-0.5-2.2c1.4-0.1,2.8-0.3,4.1-0.5v-3.2h-3.2v-2H75.6z
		 M75.6,97.2v-3h2.2v3H81v2h-3.2v2.8h3.5v-1h7v2.1h-2.1v10.6c0,1.6-0.7,2.4-2.1,2.4h-2.9l-0.5-2.1c0.9,0.1,1.8,0.2,2.7,0.2
		c0.4,0,0.6-0.3,0.6-1v-10h-2.4v1H72v-2h3.6v-2.8h-3.1v-2H75.6z M87.9,95.4v2.1h-6.1v-2.1H87.9z"/>
	<path style="fill:#FFFFFF;" d="M23.2,123.1h-2.9v-1.5H28v1.5H25v8.6h-1.8V123.1z"/>
	<path style="fill:#FFFFFF;" d="M29.2,128.5c0,1.3,1.1,1.9,2.2,1.9c0.9,0,1.5-0.1,2-0.3l0.3,1.3c-0.6,0.3-1.5,0.5-2.6,0.5
		c-2.4,0-3.8-1.5-3.8-3.7c0-2,1.2-3.9,3.6-3.9c2.4,0,3.1,2,3.1,3.6c0,0.3,0,0.6-0.1,0.8H29.2z M32.4,127.3c0-0.7-0.3-1.8-1.5-1.8
		c-1.1,0-1.6,1-1.7,1.8H32.4z"/>
	<path style="fill:#FFFFFF;" d="M35.7,126.5c0-0.8,0-1.5-0.1-2.2h1.6l0.1,1.1h0c0.3-0.6,1-1.2,2.2-1.2c1,0,1.7,0.5,2,1.3h0
		c0.3-0.4,0.6-0.7,0.9-0.9c0.4-0.3,0.9-0.4,1.5-0.4c1.2,0,2.4,0.8,2.4,3.2v4.3h-1.8v-4c0-1.2-0.4-1.9-1.3-1.9c-0.6,0-1.1,0.5-1.3,1
		c-0.1,0.2-0.1,0.4-0.1,0.6v4.4h-1.8v-4.2c0-1-0.4-1.7-1.3-1.7c-0.7,0-1.2,0.5-1.3,1c-0.1,0.2-0.1,0.4-0.1,0.6v4.3h-1.8V126.5z"/>
	<path style="fill:#FFFFFF;" d="M48.4,126.8c0-1,0-1.7-0.1-2.4h1.6l0.1,1.1h0c0.5-0.8,1.4-1.3,2.5-1.3c1.7,0,3.1,1.4,3.1,3.7
		c0,2.6-1.7,3.9-3.3,3.9c-0.9,0-1.7-0.4-2.1-1h0v3.8h-1.8V126.8z M50.2,128.6c0,0.2,0,0.3,0,0.5c0.2,0.8,0.8,1.3,1.6,1.3
		c1.2,0,1.9-1,1.9-2.4c0-1.3-0.6-2.3-1.8-2.3c-0.8,0-1.5,0.6-1.7,1.4c0,0.2-0.1,0.3-0.1,0.5V128.6z"/>
	<path style="fill:#FFFFFF;" d="M57.1,121H59v10.7h-1.8V121z"/>
	<path style="fill:#FFFFFF;" d="M62.3,128.5c0,1.3,1.1,1.9,2.2,1.9c0.9,0,1.5-0.1,2-0.3l0.3,1.3c-0.6,0.3-1.5,0.5-2.5,0.5
		c-2.4,0-3.8-1.5-3.8-3.7c0-2,1.2-3.9,3.6-3.9c2.4,0,3.2,2,3.2,3.6c0,0.3,0,0.6-0.1,0.8H62.3z M65.5,127.3c0-0.7-0.3-1.8-1.5-1.8
		c-1.1,0-1.6,1-1.7,1.8H65.5z"/>
	<path style="fill:#FFFFFF;" d="M71.9,129.7c0.6,0.3,1.5,0.6,2.4,0.6c1.2,0,1.8-0.6,1.8-1.4c0-0.8-0.5-1.2-1.8-1.7
		c-1.7-0.6-2.7-1.5-2.7-2.9c0-1.7,1.4-2.9,3.6-2.9c1.1,0,1.9,0.2,2.4,0.5l-0.4,1.5c-0.4-0.2-1.1-0.5-2-0.5c-1.2,0-1.7,0.6-1.7,1.2
		c0,0.8,0.6,1.1,1.9,1.7c1.8,0.7,2.6,1.6,2.6,3c0,1.6-1.2,3-3.8,3c-1.1,0-2.2-0.3-2.7-0.6L71.9,129.7z"/>
	<path style="fill:#FFFFFF;" d="M81.7,122.5v1.9h1.8v1.4h-1.8v3.2c0,0.9,0.2,1.3,0.9,1.3c0.3,0,0.5,0,0.7-0.1l0,1.4
		c-0.3,0.1-0.8,0.2-1.3,0.2c-0.7,0-1.2-0.2-1.6-0.6c-0.4-0.4-0.6-1.1-0.6-2.1v-3.4h-1v-1.4h1V123L81.7,122.5z"/>
	<path style="fill:#FFFFFF;" d="M84.8,126.7c0-1,0-1.7-0.1-2.4h1.6l0.1,1.4h0c0.4-1,1.2-1.5,2-1.5c0.2,0,0.3,0,0.4,0v1.7
		c-0.2,0-0.3,0-0.6,0c-0.9,0-1.5,0.6-1.6,1.4c0,0.2,0,0.4,0,0.6v3.8h-1.8V126.7z"/>
	<path style="fill:#FFFFFF;" d="M91.3,128.5c0,1.3,1.1,1.9,2.2,1.9c0.9,0,1.5-0.1,2-0.3l0.3,1.3c-0.6,0.3-1.5,0.5-2.5,0.5
		c-2.4,0-3.8-1.5-3.8-3.7c0-2,1.2-3.9,3.6-3.9c2.4,0,3.1,2,3.1,3.6c0,0.3,0,0.6-0.1,0.8H91.3z M94.6,127.3c0-0.7-0.3-1.8-1.5-1.8
		c-1.1,0-1.6,1-1.7,1.8H94.6z"/>
	<path style="fill:#FFFFFF;" d="M99.1,128.5c0,1.3,1.1,1.9,2.2,1.9c0.9,0,1.5-0.1,2-0.3l0.3,1.3c-0.6,0.3-1.5,0.5-2.6,0.5
		c-2.4,0-3.8-1.5-3.8-3.7c0-2,1.2-3.9,3.6-3.9c2.4,0,3.1,2,3.1,3.6c0,0.3,0,0.6-0.1,0.8H99.1z M102.3,127.3c0-0.7-0.3-1.8-1.5-1.8
		c-1.1,0-1.6,1-1.7,1.8H102.3z"/>
	<path style="fill:#FFFFFF;" d="M107.6,122.5v1.9h1.8v1.4h-1.8v3.2c0,0.9,0.2,1.3,0.9,1.3c0.3,0,0.5,0,0.7-0.1l0,1.4
		c-0.3,0.1-0.8,0.2-1.3,0.2c-0.7,0-1.2-0.2-1.6-0.6c-0.4-0.4-0.6-1.1-0.6-2.1v-3.4h-1v-1.4h1V123L107.6,122.5z"/>
</g>
<g>
	<path d="M64.5,42.3c-5.3-3.1-9.7-10.6-9.6-16.7c0-2.1,0.5-3.7,1.4-4.9c-2.4,0.7-3.8,3.4-3.8,7.2c0,6.1,4.3,13.6,9.6,16.7
		c3.9,2.2,7.2,1.5,8.8-1.4C69.2,43.9,66.9,43.7,64.5,42.3z"/>
	<path d="M62.2,9.5c-5.8-3.3-10.8-3.6-14.6-1.5c1.6-0.9,3.1-1.9,4.8-2.9c3.8-2.2,9-1.9,14.8,1.4c11.5,6.6,20.7,22.7,20.7,35.8
		c0,3.6-0.5,8.3-3.3,12.8L68.7,79.4l-5.9,3.5l18.2-28.7c1.2-2.3,1.9-5.3,1.9-8.9C82.9,32.2,73.6,16.1,62.2,9.5z"/>
</g>
<path style="fill:#BE0000;" d="M82.9,45.3c0,3.6-0.7,6.5-1.9,8.9L62.8,82.9l-18-46.5c-2-7-2.6-10.4-2.5-15.2
	c0-13.2,8.6-18.2,20-11.6C73.6,16.1,82.9,32.2,82.9,45.3z M62.1,44.5c5.3,3.1,9.7,0.6,9.7-5.5c0-6.1-4.3-13.6-9.6-16.7
	c-5.3-3.1-9.7-0.6-9.7,5.5C52.4,33.9,56.8,41.4,62.1,44.5L62.1,44.5"/>
</svg>
