<?xml version="1.0" encoding="utf-8"?>
<!-- Generator: Adobe Illustrator 26.0.1, SVG Export Plug-In . SVG Version: 6.00 Build 0)  -->
<svg version="1.1" id="Layer_1" xmlns="http://www.w3.org/2000/svg" xmlns:xlink="http://www.w3.org/1999/xlink" x="0px" y="0px"
	 width="210px" height="134.9px" viewBox="0 0 210 134.9" style="enable-background:new 0 0 210 134.9;" xml:space="preserve">
<path style="fill:#BE0000;" d="M183.5,135.3h-157C11.9,135.3,0,123.4,0,108.8v0c0-14.6,11.9-26.5,26.5-26.5h157
	c14.6,0,26.5,11.9,26.5,26.5v0C210,123.4,198.1,135.3,183.5,135.3z"/>
<g>
	<path style="fill:#FFFFFF;" d="M39.5,99.6l-1.6,1.6c-1-1.1-2.3-2.2-4.1-3.5l1.6-1.6C37,97.3,38.4,98.4,39.5,99.6z M39.6,103.4
		c-1,3.1-2.1,6-3.4,8.7l-2.1-0.9c1.4-2.8,2.5-5.6,3.5-8.5L39.6,103.4z M40.1,93.8l-1.6,1.6c-1-1.1-2.3-2.2-4.1-3.5l1.6-1.6
		C37.6,91.5,39,92.6,40.1,93.8z M54.8,112.3h-2.2V111H43v1.2h-2.2v-18h5.9v-4.1H49v4.1h5.9V112.3z M46.7,101.4v-5H43v5H46.7z
		 M46.7,108.9v-5.4H43v5.4H46.7z M49,101.4h3.7v-5H49V101.4z M49,108.9h3.7v-5.4H49V108.9z"/>
	<path style="fill:#FFFFFF;" d="M70.7,91.8h8.6v2.2H61.4v5.5c-0.1,5.4-0.7,9.7-2,12.9l-2-1.7c1.1-2.7,1.6-6.4,1.7-11.2v-7.7h9
		c-0.2-0.5-0.5-1-0.7-1.4l2.6-0.4C70.2,90.4,70.4,91.1,70.7,91.8z M64.1,100.9v3.5c0,3-0.7,5.1-1.8,6.5l-1.3-1.1
		c1-1.1,1.4-2.9,1.5-5.4v-3.5H64.1z M65.1,97.5v-2.7h2.1v2.7h2.6v2.1h-2.7v12.8h-2V99.6h-3v-2.1H65.1z M69.8,100.8v6.1
		c0,0.3,0.1,0.5,0.5,0.5h0.5c0.1-0.9,0.2-1.8,0.2-2.9v-3.5h1.6v3.5c0,3-0.6,5.2-1.6,6.6l-1.3-1.1c0.2-0.3,0.4-0.7,0.6-1.1h-0.6
		c-1,0-1.5-0.6-1.5-1.8v-6.2H69.8z M73.6,97.5v-2.7h2.1v2.7h2.9v2.1h-3v12.8h-2V99.6h-2.9v-2.1H73.6z M78.3,100.8v7.4
		c0,0.4,0.2,0.7,0.5,0.7h1.1v1.5h-1.7c-1,0-1.5-0.7-1.5-2v-7.6H78.3z"/>
	<path style="fill:#FFFFFF;" d="M84.7,96.3v-6.2H87v6.2h2.5v2.2H87v7.3c1-0.4,2-0.8,2.9-1.2v2.3c-2.4,1.1-4.9,2-7.6,2.7l-0.6-2.3
		c1-0.2,2-0.4,3-0.7v-8h-2.7v-2.2H84.7z M98.3,90.1v5.3l5-1.5c0,3.2-0.4,6.5-1.2,10l-2.1-0.7c0.5-1.9,0.8-4,1.1-6.4l-2.8,0.8v9.5
		h-2.2v-8.9L93.6,99v9.6c0,0.8,0.4,1.2,1.1,1.2h5.9c0.4,0,0.7-0.2,0.9-0.5c0.2-0.3,0.4-1.4,0.5-3.3l2.1,0.7c-0.2,2.5-0.5,4.1-1,4.5
		c-0.5,0.5-1.1,0.7-2.1,0.7h-7.1c-1.8,0-2.7-1-2.7-2.9v-9.4l-1.5,0.4v-2.2l1.5-0.4v-4.9h2.2v4.2l2.5-0.7v-6H98.3z"/>
	<path style="fill:#FFFFFF;" d="M115.4,98.4c0.3-1.5,0.5-3.2,0.6-5h-8.5v-2.2h19.2v2.2h-8.4c-0.1,1.8-0.3,3.5-0.6,5h9.7v2.2h-8.6
		c1.7,4.3,4.8,7.7,9.4,10l-1.4,1.9c-4.7-2.6-7.9-6.2-9.7-10.8c-0.4,1.4-0.8,2.5-1.4,3.4c-1.6,2.9-4.4,5.4-8.2,7.5l-1.4-1.9
		c3.5-1.8,6-4,7.5-6.5c0.6-0.9,1-2.1,1.4-3.5h-8.1v-2.2H115.4z"/>
	<path style="fill:#FFFFFF;" d="M134.9,99.3c-0.1,5.5-1.2,9.8-3.2,13l-1.7-1.8c1.6-2.7,2.5-6.4,2.7-11.2v-7.5c6.3,0,12-0.6,17-1.6
		l1.1,2.1c-4.7,0.9-10,1.4-15.8,1.6v2.9h17.1V99h-17.1V99.3z M150.3,112.4H148v-1h-8.9v1h-2.3v-10.5h13.5V112.4z M148,109.2V104
		h-8.9v5.1H148z"/>
	<path style="fill:#FFFFFF;" d="M167.8,91.8h8.4v2h-17.9v5.5c-0.1,5.4-0.8,9.8-2.3,13l-1.7-1.5c1.2-2.8,1.8-6.6,1.8-11.5v-7.6h9.4
		c-0.3-0.5-0.6-1-0.9-1.5l2.3-0.4C167.2,90.5,167.6,91.1,167.8,91.8z M162.4,95.7v-1.3h2.1v1.3h3.4v1.9h-3.4v1.2h2.8v7.3h-2.8v1.3
		h3.4v1.9c0.7-1.5,1-3.2,1-5.2V95h6.7v15c0,1.4-0.7,2.2-2,2.2h-2l-0.6-2.1c0.7,0.1,1.3,0.1,1.9,0.1c0.3,0,0.5-0.3,0.5-1v-3.1h-2.7
		c-0.3,2.5-1,4.7-2.2,6.4L167,111c0.3-0.5,0.6-1,0.9-1.5h-3.3v2.8h-2.1v-2.8h-3.9v-2h3.9v-1.3h-3v-7.3h2.9v-1.2h-3.3v-1.9H162.4z
		 M165.3,101.7v-1.1h-3.9v1.1H165.3z M165.3,103.2h-3.9v1h3.9V103.2z M173.5,97H171v2.6h2.5V97z M171,104.1h2.5v-2.6H171V104.1z"/>
	<path style="fill:#FFFFFF;" d="M23.6,127.9v-4.2l-3.2-5.9h2.1l1.2,2.6c0.3,0.8,0.6,1.3,0.9,2h0c0.2-0.6,0.5-1.3,0.9-2l1.2-2.6h2.1
		l-3.4,5.8v4.3H23.6z"/>
	<path style="fill:#FFFFFF;" d="M34.3,126.1c0,0.7,0,1.3,0.1,1.8h-1.7l-0.1-0.8h0c-0.4,0.6-1.2,1-2.2,1c-1.5,0-2.3-1.1-2.3-2.2
		c0-1.8,1.6-2.8,4.3-2.8V123c0-0.5-0.2-1.3-1.5-1.3c-0.7,0-1.5,0.2-2,0.5l-0.4-1.2c0.5-0.3,1.5-0.6,2.6-0.6c2.3,0,3,1.5,3,3.1V126.1
		z M32.5,124.3c-1.3,0-2.5,0.3-2.5,1.4c0,0.7,0.5,1.1,1,1.1c0.8,0,1.3-0.5,1.5-1c0-0.1,0-0.3,0-0.4V124.3z"/>
	<path style="fill:#FFFFFF;" d="M36.2,122.8c0-0.8,0-1.5-0.1-2.2h1.6l0.1,1.1h0c0.3-0.6,1.1-1.3,2.3-1.3c1.3,0,2.6,0.8,2.6,3.1v4.3
		H41v-4.1c0-1-0.4-1.8-1.4-1.8c-0.7,0-1.2,0.5-1.4,1.1c-0.1,0.1-0.1,0.4-0.1,0.6v4.3h-1.8V122.8z"/>
	<path style="fill:#FFFFFF;" d="M56.5,123.8c-0.1-1.3-0.1-2.9-0.1-4.2h0c-0.3,1.2-0.8,2.6-1.2,3.9l-1.5,4.4h-1.4l-1.4-4.3
		c-0.4-1.3-0.8-2.7-1-3.9h0c0,1.3-0.1,2.9-0.2,4.3l-0.2,4.1h-1.7l0.7-10.1h2.4l1.3,4.1c0.4,1.2,0.7,2.4,0.9,3.5h0
		c0.3-1.1,0.6-2.3,1-3.5l1.4-4h2.4l0.6,10.1h-1.8L56.5,123.8z"/>
	<path style="fill:#FFFFFF;" d="M66.1,126.1c0,0.7,0,1.3,0.1,1.8h-1.7l-0.1-0.8h0c-0.4,0.6-1.2,1-2.2,1c-1.5,0-2.3-1.1-2.3-2.2
		c0-1.8,1.6-2.8,4.3-2.8V123c0-0.5-0.2-1.3-1.5-1.3c-0.7,0-1.5,0.2-2,0.5l-0.4-1.2c0.5-0.3,1.5-0.6,2.6-0.6c2.3,0,3,1.5,3,3.1V126.1
		z M64.3,124.3c-1.3,0-2.5,0.3-2.5,1.4c0,0.7,0.5,1.1,1,1.1c0.8,0,1.3-0.5,1.5-1c0-0.1,0-0.3,0-0.4V124.3z"/>
	<path style="fill:#FFFFFF;" d="M72.5,119.3h-2.9v-1.5h7.6v1.5h-2.9v8.6h-1.8V119.3z"/>
	<path style="fill:#FFFFFF;" d="M78.5,124.8c0,1.3,1.1,1.9,2.2,1.9c0.9,0,1.5-0.1,2-0.3l0.3,1.3c-0.6,0.3-1.5,0.5-2.5,0.5
		c-2.4,0-3.8-1.5-3.8-3.7c0-2,1.2-3.9,3.6-3.9c2.4,0,3.1,2,3.1,3.6c0,0.3,0,0.6-0.1,0.8H78.5z M81.8,123.5c0-0.7-0.3-1.8-1.5-1.8
		c-1.1,0-1.6,1-1.7,1.8H81.8z"/>
	<path style="fill:#FFFFFF;" d="M85.9,119.5c-0.6,0-1-0.5-1-1c0-0.6,0.4-1,1-1c0.6,0,1,0.4,1,1C86.9,119.1,86.5,119.5,85.9,119.5
		L85.9,119.5z M85,127.9v-7.3h1.8v7.3H85z"/>
	<path style="fill:#FFFFFF;" d="M93.3,119.3h-2.9v-1.5h7.6v1.5h-2.9v8.6h-1.8V119.3z"/>
	<path style="fill:#FFFFFF;" d="M99.8,119.5c-0.6,0-1-0.5-1-1c0-0.6,0.4-1,1-1c0.6,0,1,0.4,1,1C100.9,119.1,100.5,119.5,99.8,119.5
		L99.8,119.5z M98.9,127.9v-7.3h1.8v7.3H98.9z"/>
	<path style="fill:#FFFFFF;" d="M102.8,122.8c0-0.8,0-1.5-0.1-2.2h1.6l0.1,1.1h0c0.3-0.6,1.1-1.3,2.3-1.3c1.3,0,2.6,0.8,2.6,3.1v4.3
		h-1.8v-4.1c0-1-0.4-1.8-1.4-1.8c-0.7,0-1.2,0.5-1.4,1.1c-0.1,0.1-0.1,0.4-0.1,0.6v4.3h-1.8V122.8z"/>
	<path style="fill:#FFFFFF;" d="M116.4,117.8v4h4.3v-4h1.8v10.1h-1.8v-4.5h-4.3v4.5h-1.8v-10.1H116.4z"/>
	<path style="fill:#FFFFFF;" d="M130.2,126.1c0,0.7,0,1.3,0.1,1.8h-1.7l-0.1-0.8h0c-0.4,0.6-1.2,1-2.2,1c-1.5,0-2.3-1.1-2.3-2.2
		c0-1.8,1.6-2.8,4.3-2.8V123c0-0.5-0.2-1.3-1.5-1.3c-0.7,0-1.5,0.2-2,0.5l-0.4-1.2c0.5-0.3,1.5-0.6,2.6-0.6c2.3,0,3,1.5,3,3.1V126.1
		z M128.4,124.3c-1.3,0-2.5,0.3-2.5,1.4c0,0.7,0.5,1.1,1,1.1c0.8,0,1.3-0.5,1.5-1c0-0.1,0-0.3,0-0.4V124.3z"/>
	<path style="fill:#FFFFFF;" d="M138.7,125.7c0,0.9,0,1.6,0.1,2.2h-1.6l-0.1-1.1h0c-0.3,0.5-1,1.3-2.4,1.3c-1.3,0-2.5-0.8-2.5-3.2
		v-4.3h1.8v4c0,1.2,0.4,2,1.4,2c0.8,0,1.2-0.5,1.4-1c0.1-0.2,0.1-0.4,0.1-0.6v-4.4h1.8V125.7z"/>
	<path style="fill:#FFFFFF;" d="M145.2,119.3h-2.9v-1.5h7.6v1.5H147v8.6h-1.8V119.3z"/>
	<path style="fill:#FFFFFF;" d="M151.2,124.8c0,1.3,1.1,1.9,2.2,1.9c0.9,0,1.5-0.1,2-0.3l0.3,1.3c-0.6,0.3-1.5,0.5-2.5,0.5
		c-2.4,0-3.8-1.5-3.8-3.7c0-2,1.2-3.9,3.6-3.9c2.4,0,3.1,2,3.1,3.6c0,0.3,0,0.6-0.1,0.8H151.2z M154.4,123.5c0-0.7-0.3-1.8-1.5-1.8
		c-1.1,0-1.6,1-1.7,1.8H154.4z"/>
	<path style="fill:#FFFFFF;" d="M157.6,122.8c0-0.8,0-1.5-0.1-2.2h1.6l0.1,1.1h0c0.3-0.6,1-1.2,2.2-1.2c1,0,1.7,0.5,2,1.4h0
		c0.3-0.4,0.6-0.7,0.9-0.9c0.4-0.3,0.9-0.4,1.5-0.4c1.2,0,2.4,0.8,2.4,3.2v4.3h-1.8v-4c0-1.2-0.4-1.9-1.3-1.9c-0.6,0-1.1,0.5-1.3,1
		c-0.1,0.2-0.1,0.4-0.1,0.6v4.4h-1.8v-4.2c0-1-0.4-1.7-1.3-1.7c-0.7,0-1.2,0.5-1.3,1c-0.1,0.2-0.1,0.4-0.1,0.6v4.3h-1.8V122.8z"/>
	<path style="fill:#FFFFFF;" d="M170.4,123c0-1,0-1.7-0.1-2.4h1.6l0.1,1.1h0c0.5-0.8,1.4-1.3,2.5-1.3c1.7,0,3.1,1.4,3.1,3.7
		c0,2.6-1.7,3.9-3.3,3.9c-0.9,0-1.7-0.4-2.1-1h0v3.8h-1.8V123z M172.2,124.8c0,0.2,0,0.3,0,0.5c0.2,0.8,0.8,1.3,1.6,1.3
		c1.2,0,1.9-1,1.9-2.4c0-1.3-0.6-2.3-1.8-2.3c-0.8,0-1.5,0.6-1.7,1.4c0,0.1-0.1,0.3-0.1,0.5V124.8z"/>
	<path style="fill:#FFFFFF;" d="M179.1,117.2h1.8v10.7h-1.8V117.2z"/>
	<path style="fill:#FFFFFF;" d="M184.3,124.8c0,1.3,1.1,1.9,2.2,1.9c0.9,0,1.5-0.1,2-0.3l0.3,1.3c-0.6,0.3-1.5,0.5-2.6,0.5
		c-2.4,0-3.8-1.5-3.8-3.7c0-2,1.2-3.9,3.6-3.9c2.4,0,3.1,2,3.1,3.6c0,0.3,0,0.6-0.1,0.8H184.3z M187.5,123.5c0-0.7-0.3-1.8-1.5-1.8
		c-1.1,0-1.6,1-1.7,1.8H187.5z"/>
</g>
<g>
	<path d="M104.5,38.5c-5.3-3.1-9.7-10.6-9.6-16.7c0-2.1,0.5-3.7,1.4-4.9c-2.4,0.7-3.8,3.4-3.8,7.2c0,6.1,4.3,13.6,9.6,16.7
		c3.9,2.2,7.2,1.5,8.8-1.4C109.2,40.1,106.9,39.9,104.5,38.5z"/>
	<path d="M102.2,5.7c-5.8-3.3-10.8-3.6-14.6-1.5c1.6-0.9,3.1-1.9,4.8-2.9c3.8-2.2,9-1.9,14.8,1.4c11.5,6.6,20.7,22.7,20.7,35.8
		c0,3.6-0.5,8.3-3.3,12.8l-15.8,24.1l-5.9,3.5l18.2-28.7c1.2-2.3,1.9-5.3,1.9-8.9C122.9,28.4,113.6,12.3,102.2,5.7z"/>
</g>
<path style="fill:#BE0000;" d="M122.9,41.6c0,3.6-0.7,6.5-1.9,8.9l-18.2,28.7l-18-46.5c-2-7-2.6-10.4-2.5-15.2
	c0-13.2,8.6-18.2,20-11.6C113.6,12.3,122.9,28.4,122.9,41.6z M102.1,40.7c5.3,3.1,9.7,0.6,9.7-5.5c0-6.1-4.3-13.6-9.6-16.7
	c-5.3-3.1-9.7-0.6-9.7,5.5C92.4,30.1,96.8,37.6,102.1,40.7L102.1,40.7"/>
</svg>
