<svg xmlns="http://www.w3.org/2000/svg" width="170" height="114.51" viewBox="0 0 170 114.51">
  <g id="Layer_2" data-name="Layer 2">
    <g id="Pointer">
      <g>
        <rect y="82.31" width="170" height="32.2" rx="16.1" style="fill: #be0000"/>
        <g>
          <path d="M19.29,97.82l-1.23,1.23A24.53,24.53,0,0,0,14,95.55l1.25-1.19A29.82,29.82,0,0,1,19.29,97.82Zm.05,3.5c-1.07,3.09-2.22,6-3.48,8.72l-1.59-.7a76.09,76.09,0,0,0,3.52-8.6ZM19.92,92l-1.23,1.23a24.23,24.23,0,0,0-4.09-3.46l1.24-1.2A27.47,27.47,0,0,1,19.92,92Zm14.73,18.21H33v-1.45H22.7v1.43H21V92.48h6V88.23h1.74v4.25h5.94ZM27,99.65V94.12H22.7v5.53Zm0,7.49v-5.89H22.7v5.89Zm1.74-7.49H33V94.12H28.71Zm0,7.49H33v-5.89H28.71Z" style="fill: #fff"/>
          <path d="M50.42,90h8.77v1.66H41.12v5.85q-.1,8-2.1,12.75L37.55,109c1.18-2.73,1.81-6.55,1.86-11.45V90h9.1a13.25,13.25,0,0,0-.87-1.77l2-.34C49.89,88.54,50.15,89.24,50.42,90Zm-6.55,8.91v3.43c0,2.92-.67,5.07-1.88,6.42l-1-.87c1-1.15,1.57-3,1.59-5.55V98.93Zm1.45-3.19v-3h1.62v3h2.83v1.57H46.89v13H45.4v-13H42.16V95.74Zm4.28,3.12v6.06a.51.51,0,0,0,.58.56h.67a18.74,18.74,0,0,0,.29-3.07V98.93H52.4v3.48c0,3-.55,5.17-1.62,6.57l-1-.87a5.76,5.76,0,0,0,.77-1.48h-.82c-.92,0-1.38-.53-1.38-1.57v-6.2Zm4.23-3.12v-3h1.64v3h3.09v1.57H55.4v13H53.9v-13H50.78V95.74Zm4.27,3.17v7.51c0,.48.19.72.61.72h1.18v1.19H58.25c-.92,0-1.38-.61-1.38-1.77V98.91Z" style="fill: #fff"/>
          <path d="M65,94.68V88.25h1.74v6.43h2.7v1.69h-2.7v7.95c1.09-.39,2.15-.8,3.19-1.28v1.71a49.23,49.23,0,0,1-7.66,2.68l-.43-1.74c1.06-.24,2.12-.5,3.16-.79V96.37H62.13V94.68Zm13-6.52v5.62l5.08-1.49A52.68,52.68,0,0,1,82,101.83l-1.59-.49a57.53,57.53,0,0,0,1-6.86L78,95.5v9.61H76.36V96l-3.09.92V107c0,.82.38,1.26,1.15,1.26h6.21a1.2,1.2,0,0,0,1.11-.51,9.4,9.4,0,0,0,.56-3.6l1.62.51c-.17,2.49-.49,4-1,4.54a2.61,2.61,0,0,1-2,.7H73.89c-1.54,0-2.29-.87-2.29-2.56v-9.9l-1.74.5V96.22l1.74-.5v-5.1h1.67v4.59l3.09-.92V88.16Z" style="fill: #fff"/>
          <path d="M95.68,96.71a49.1,49.1,0,0,0,.6-5.56H87.54V89.46h19.08v1.69H98a52.91,52.91,0,0,1-.62,5.56h9.9v1.66H98.43A19.28,19.28,0,0,0,108.07,109l-1.09,1.4A20.4,20.4,0,0,1,97,98.86,16.7,16.7,0,0,1,95.41,103a19.84,19.84,0,0,1-8.24,7.37L86.09,109a18.13,18.13,0,0,0,7.68-6.59,15.25,15.25,0,0,0,1.54-4h-8.4V96.71Z" style="fill: #fff"/>
          <path d="M114.66,97.31c-.15,5.41-1.26,9.71-3.29,12.92l-1.28-1.32c1.77-2.81,2.71-6.67,2.85-11.6V90.06a87.17,87.17,0,0,0,16.79-1.66L130.6,90a91.54,91.54,0,0,1-15.94,1.64V95h17.39v1.69H114.66Zm15.48,13H128.4v-1.14h-9.78v1.14h-1.74V100.06h13.26Zm-1.74-2.83v-5.75h-9.78v5.75Z" style="fill: #fff"/>
          <path d="M147.67,90h8.46v1.55H138v5.77q-.1,8.08-2.32,13l-1.3-1.16c1.25-2.83,1.93-6.77,2-11.79V90h9.51a14.69,14.69,0,0,0-1.08-1.74l1.76-.31A14.5,14.5,0,0,1,147.67,90Zm-5,3.89v-1.5h1.6v1.5h3.57v1.42h-3.57V97h2.87v6.89h-2.85v1.76h3.55v1.54h-3.55v3h-1.62v-3h-4v-1.54h4v-1.76h-3V97h3V95.35h-3.45V93.93Zm3,5.89V98.4h-4.44v1.42Zm0,1.26h-4.44v1.42h4.44Zm2.71,9.23L147,109.19a12.13,12.13,0,0,0,2.06-7.07V93.2h6.3v15c0,1.26-.6,1.88-1.76,1.88h-2.06l-.41-1.59c.71,0,1.36.07,2,.07.41,0,.63-.31.63-.94v-3.79h-3.17A13,13,0,0,1,148.3,110.31Zm5.46-15.58h-3.07v3h3.07Zm-3.07,7.58h3.07v-3h-3.07Z" style="fill: #fff"/>
        </g>
        <g>
          <path d="M84.51,38.49c-5.34-3.08-9.65-10.56-9.63-16.7a8.06,8.06,0,0,1,1.36-4.86c-2.36.72-3.8,3.36-3.81,7.17,0,6.14,4.3,13.62,9.64,16.7,3.89,2.25,7.25,1.53,8.79-1.38C89.16,40.13,86.94,39.89,84.51,38.49Z"/>
          <path d="M82.19,5.73C76.42,2.4,71.38,2.09,67.61,4.28c1.58-.91,3.13-1.92,4.78-2.88,3.78-2.19,9-1.88,14.77,1.45,11.46,6.61,20.72,22.65,20.68,35.82a23.45,23.45,0,0,1-3.32,12.81L88.7,75.62l-6,3.47,18.19-28.67a19.06,19.06,0,0,0,1.93-8.87C102.91,28.39,93.65,12.35,82.19,5.73Z"/>
        </g>
        <path d="M102.87,41.55a19.06,19.06,0,0,1-1.93,8.87L82.75,79.09l-18-46.54c-2-7-2.56-10.41-2.55-15.21,0-13.17,8.57-18.22,20-11.61S102.91,28.39,102.87,41.55Zm-20.78-.86c5.35,3.09,9.69.61,9.71-5.53s-4.3-13.62-9.65-16.71-9.68-.6-9.7,5.54,4.3,13.62,9.64,16.7h0" style="fill: #be0000"/>
      </g>
    </g>
  </g>
</svg>
