<svg xmlns="http://www.w3.org/2000/svg" width="97.73" height="86.84" viewBox="0 0 97.73 86.84">
  <g id="Layer_2" data-name="Layer 2">
    <g id="Icon">
      <g>
        <g>
          <path d="M56.28,12.45a15.69,15.69,0,0,0,7.14,4.27l-1.16,1.53c-3.11-1.05-6.43-3-7.9-5.39l0,6.6H52.7V12.9a15.08,15.08,0,0,1-7.79,5.44l-1.12-1.47A14.49,14.49,0,0,0,51,12.45H46.79V4.88H52.7V3.41H44.87V1.83H52.7V0h1.62V1.83h8.07V3.41h-8l0,1.47h6.15v7.57ZM52.7,7.88V6.45H48.43l0,1.45Zm-4.27,3,4.27,0V9.45H48.43Zm10.4-4.45H54.34l0,1.43,4.51,0Zm-4.49,3v1.44h4.49V9.45Z" style="fill: #214534"/>
          <path d="M62.89,42H47.61C46.47,42,46,41,46,40V26.27l-1.36,0v-1.6l18.19,0v1.6H47.59l0,13.25c0,.6.22.84.88.84h14.4ZM54.6,39H48.49V33l6.11,0Zm-4.49-4.4v2.82l2.85,0,0-2.86ZM60,31.84l-9.71,0,0-4.81H60ZM51.9,30.37h6.43V28.49H51.9Zm10,2.61v5.91H55.7V33Zm-1.62,1.56-2.91,0v2.76l2.89,0Z" style="fill: #214534"/>
        </g>
        <g>
          <path d="M6.36,20H3.31v2.37H6.72v1.21H1.83V15.51H6.54v1.21H3.31v2.09H6.36Z" style="fill: #214534"/>
          <path d="M12.49,22.19a8.08,8.08,0,0,0,.09,1.4H11.25L11.14,23h0a2.16,2.16,0,0,1-1.73.78A1.74,1.74,0,0,1,7.55,22c0-1.47,1.3-2.22,3.46-2.21v-.1c0-.38-.15-1-1.18-1a3.05,3.05,0,0,0-1.58.44l-.28-1a4.11,4.11,0,0,1,2.11-.52,2.19,2.19,0,0,1,2.41,2.47Zm-1.44-1.45c-1.05,0-2,.2-2,1.09a.77.77,0,0,0,.84.84,1.2,1.2,0,0,0,1.16-.8.93.93,0,0,0,0-.33Z" style="fill: #214534"/>
          <path d="M14,22.23a3.23,3.23,0,0,0,1.49.43c.65,0,.93-.28.93-.66s-.24-.59-1-.85c-1.14-.39-1.6-1-1.6-1.71,0-1,.85-1.82,2.2-1.82a3.39,3.39,0,0,1,1.56.35l-.3,1a2.62,2.62,0,0,0-1.23-.34c-.53,0-.82.27-.82.63s.28.54,1,.81c1.07.38,1.55.91,1.56,1.78,0,1.07-.83,1.83-2.37,1.83a3.78,3.78,0,0,1-1.78-.4Z" style="fill: #214534"/>
          <path d="M20.75,16.25v1.5h1.4v1.11h-1.4v2.56c0,.72.19,1.08.75,1.08a1.91,1.91,0,0,0,.58-.06l0,1.12a3.39,3.39,0,0,1-1.07.15,1.69,1.69,0,0,1-1.27-.48,2.3,2.3,0,0,1-.47-1.64V18.86h-.82V17.75h.82V16.66Z" style="fill: #214534"/>
          <path d="M24.24,21.09A1.58,1.58,0,0,0,26,22.6a4.64,4.64,0,0,0,1.62-.27l.21,1a5.16,5.16,0,0,1-2,.37,2.76,2.76,0,0,1-3-2.95,2.89,2.89,0,0,1,2.86-3.14,2.54,2.54,0,0,1,2.52,2.84,4.18,4.18,0,0,1-.05.63Zm2.56-1a1.25,1.25,0,0,0-1.21-1.43,1.44,1.44,0,0,0-1.35,1.43Z" style="fill: #214534"/>
          <path d="M29.39,19.64c0-.8,0-1.37-.05-1.89h1.27l.06,1.11h0a1.74,1.74,0,0,1,1.6-1.24,1.25,1.25,0,0,1,.35,0V19a1.89,1.89,0,0,0-.44,0,1.29,1.29,0,0,0-1.32,1.12,2,2,0,0,0,0,.44v3H29.39Z" style="fill: #214534"/>
          <path d="M33.66,19.49c0-.67,0-1.23,0-1.74h1.28l.08.88h0a2.15,2.15,0,0,1,1.87-1c1,0,2.08.66,2.08,2.51v3.46H37.47v-3.3c0-.83-.31-1.47-1.11-1.47a1.23,1.23,0,0,0-1.15.86,1.32,1.32,0,0,0-.08.47v3.44H33.66Z" style="fill: #214534"/>
          <path d="M3,27.63a14.69,14.69,0,0,1,2.35-.18,4.84,4.84,0,0,1,3.29.94,3.59,3.59,0,0,1,1.27,3,4.14,4.14,0,0,1-1.26,3.21A5.34,5.34,0,0,1,5,35.68a16.44,16.44,0,0,1-2-.11Zm1.48,6.85a6.45,6.45,0,0,0,.81,0,2.77,2.77,0,0,0,3.06-3.1A2.56,2.56,0,0,0,5.46,28.6a4.62,4.62,0,0,0-1,.09Z" style="fill: #214534"/>
          <path d="M11.84,28.91a.8.8,0,1,1,.84-.79.78.78,0,0,1-.84.79Zm-.73,6.68V29.75h1.48v5.84Z" style="fill: #214534"/>
          <path d="M14.12,34.23a3.27,3.27,0,0,0,1.49.43c.65,0,.93-.28.93-.66s-.24-.59-.95-.85c-1.14-.39-1.61-1-1.61-1.71,0-1,.85-1.82,2.2-1.82a3.36,3.36,0,0,1,1.56.35l-.3,1a2.62,2.62,0,0,0-1.23-.34c-.53,0-.82.27-.82.63s.28.54,1,.81c1.07.38,1.55.91,1.56,1.78,0,1.07-.83,1.83-2.37,1.83a3.78,3.78,0,0,1-1.78-.4Z" style="fill: #214534"/>
          <path d="M20.88,28.25v1.5h1.4v1.11h-1.4v2.56c0,.72.19,1.08.75,1.08a1.87,1.87,0,0,0,.58-.06l0,1.12a3.35,3.35,0,0,1-1.07.15,1.69,1.69,0,0,1-1.27-.48,2.3,2.3,0,0,1-.46-1.64V30.86H18.6V29.75h.83V28.66Z" style="fill: #214534"/>
          <path d="M23.4,31.64c0-.8,0-1.37,0-1.89h1.27l.06,1.11h0a1.74,1.74,0,0,1,1.6-1.24,1.25,1.25,0,0,1,.35,0V31a1.89,1.89,0,0,0-.44,0,1.29,1.29,0,0,0-1.32,1.12,2,2,0,0,0,0,.44v3H23.4Z" style="fill: #214534"/>
          <path d="M28.4,28.91a.8.8,0,1,1,.84-.79.78.78,0,0,1-.84.79Zm-.73,6.68V29.75h1.47v5.84Z" style="fill: #214534"/>
          <path d="M35,35.41a4.22,4.22,0,0,1-1.66.3,2.81,2.81,0,0,1-3-3,3,3,0,0,1,3.25-3.11,4.06,4.06,0,0,1,1.43.26L34.78,31a2.39,2.39,0,0,0-1.11-.23,1.89,1.89,0,0,0,0,3.78,2.93,2.93,0,0,0,1.16-.23Z" style="fill: #214534"/>
          <path d="M38,28.25v1.5h1.4v1.11H38v2.56c0,.72.19,1.08.76,1.08a1.84,1.84,0,0,0,.57-.06l0,1.12a3.44,3.44,0,0,1-1.07.15A1.68,1.68,0,0,1,37,35.23a2.25,2.25,0,0,1-.47-1.64V30.86h-.83V29.75h.83V28.66Z" style="fill: #214534"/>
        </g>
        <g style="isolation: isolate">
          <polygon points="52.63 85.01 0 65.86 45.09 46.09 97.71 65.25 52.63 85.01" style="fill: #c4dc77"/>
          <polygon points="52.65 86.84 52.63 85.01 97.71 65.25 97.73 67.08 52.65 86.84" style="fill: #718044"/>
          <polygon points="0.02 67.69 0 65.86 52.63 85.01 52.65 86.84 0.02 67.69" style="fill: #444d28"/>
        </g>
        <g>
          <rect x="58.41" y="52.45" width="2.68" height="0.95" style="fill: #89b37b"/>
          <rect x="59.22" y="51.09" width="2.25" height="0.78" style="fill: #89b37b"/>
          <polygon points="59.22 51.09 60.26 50.77 61.92 50.77 61.48 51.09 59.22 51.09" style="fill: #eedb9b"/>
          <polygon points="58.41 52.46 59.22 51.87 61.25 51.87 61.09 52.46 58.41 52.46" style="fill: #eedb9b"/>
          <path d="M77.21,60.67H63.56A3.35,3.35,0,0,1,60,56.88l1.08-5.21A6.84,6.84,0,0,1,68,46.58h4.82a6.82,6.82,0,0,1,6.88,5.09l1.09,5.21A3.35,3.35,0,0,1,77.21,60.67Z" style="fill: #fffbdd"/>
          <path d="M82.47,61.69h-5c-1.13,0-2-.8-1.78-1.67L76,58.36a2.84,2.84,0,0,1,2.89-1.88h2a2.83,2.83,0,0,1,2.89,1.88L84.24,60C84.45,60.89,83.6,61.69,82.47,61.69Z" style="fill: #679840"/>
          <path d="M76,65.19H73.51c-.57,0-1-.4-.89-.84l.2-.83a1.41,1.41,0,0,1,1.44-.94h1a1.43,1.43,0,0,1,1.44.94l.2.83C77,64.79,76.59,65.19,76,65.19Z" style="fill: #ecc438;stroke: #89b37b;stroke-miterlimit: 10;stroke-width: 0.083969662505943px"/>
          <rect x="57.59" y="56.06" width="7.64" height="1.71" style="fill: #ecc438"/>
          <rect x="58.91" y="58.59" width="8.82" height="1.71" style="fill: #ecc438"/>
          <g>
            <polygon points="58.91 58.55 57.73 57.74 66.48 57.74 67.66 58.55 58.91 58.55" style="fill: #679840"/>
            <path d="M66.47,57.76l1.12.77H58.92l-1.13-.77h8.68m0,0H57.66l1.25.86h8.82l-1.25-.86Z" style="fill: #89b37b"/>
          </g>
          <g>
            <polygon points="57.59 56.04 56.57 55.22 64.14 55.22 65.16 56.04 57.59 56.04" style="fill: #fff"/>
            <path d="M64.13,55.24l1,.78H57.6l-1-.78h7.5m0,0H56.51l1.08.86h7.63l-1.08-.86Z" style="fill: #89b37b"/>
          </g>
          <rect x="59.96" y="61.12" width="9.18" height="1.71" style="fill: #ecc438"/>
          <g>
            <polygon points="60.09 61.09 58.88 60.27 67.86 60.27 69.07 61.09 60.09 61.09" style="fill: #679840"/>
            <path d="M67.85,60.29l1.15.78H60.11L59,60.29h8.9m0,0h-9l1.28.86h9l-1.28-.86Z" style="fill: #89b37b"/>
          </g>
          <polygon points="56.51 55.2 56.51 59.76 59.96 62.83 59.96 61.11 58.91 60.29 58.91 58.57 57.66 57.72 57.66 56.06 56.51 55.2" style="fill: #89b37b"/>
          <g>
            <polygon points="72.57 41.03 68.22 41.03 67.9 42.51 71.9 42.51 72.68 41.79 72.57 41.03" style="fill: #eedb9b"/>
            <polygon points="67.9 35.6 69.4 34.16 72.68 34.16 71.18 35.6 67.9 35.6" style="fill: #fffbdd"/>
            <rect x="67.9" y="35.6" width="3.28" height="0.51" style="fill: #ecc438"/>
            <rect x="67.9" y="36.11" width="0.85" height="0.51" style="fill: #89b37b"/>
            <polygon points="67.15 49.27 66.3 49.27 67.94 36.62 68.79 36.62 67.15 49.27" style="fill: #89b37b"/>
            <g>
              <rect x="69.65" y="31.54" width="1" height="1.7" style="fill: #679840"/>
              <rect x="69.65" y="32.72" width="1" height="0.51" style="fill: #89b37b"/>
              <polygon points="70.34 33.76 69.95 33.76 69.65 33.23 70.64 33.23 70.34 33.76" style="fill: #eedb9b"/>
              <rect x="69.95" y="33.76" width="0.36" height="1.11" style="fill: #ecc438"/>
            </g>
            <rect x="67.9" y="42.51" width="3.28" height="6.76" style="fill: #ecc438"/>
            <rect x="67.9" y="42.51" width="3.28" height="0.54" style="fill: #fff"/>
            <polygon points="67.15 49.27 67.9 49.27 67.9 43.05 67.15 49.27" style="fill: #eedb9b"/>
            <polygon points="71.18 49.27 71.9 49.27 71.18 43.05 71.18 49.27" style="fill: #eedb9b"/>
            <polygon points="67.16 42.51 66.45 42.51 66.45 48.12 67.16 42.51" style="fill: #ecc438"/>
            <polygon points="71.9 42.51 72.6 42.51 72.6 47.87 71.9 42.51" style="fill: #ecc438"/>
            <rect x="69.35" y="36.62" width="1.58" height="1.99" style="fill: #ecc438"/>
            <rect x="68.75" y="36.11" width="1.58" height="0.51" style="fill: #93d5d8"/>
            <rect x="69.75" y="38.61" width="0.79" height="2.89" style="fill: #ecc438"/>
            <polygon points="72.75 49.27 74.25 47.83 74.11 46.43 72.57 47.58 72.75 49.27" style="fill: #ecc438"/>
            <polygon points="72.6 42.51 74.11 41.07 74.11 46.43 72.57 47.58 72.6 42.51" style="fill: #679840"/>
            <polygon points="71.9 42.51 73.42 41.07 74.11 41.07 72.6 42.51 71.9 42.51" style="fill: #fff"/>
            <polygon points="71.18 35.6 72.68 34.16 72.68 35.29 71.18 36.62 71.18 35.6" style="fill: #679840"/>
            <polygon points="73.42 41.07 72.68 41.79 71.95 35.94 72.68 35.29 73.42 41.07" style="fill: #89b37b"/>
            <polygon points="66.45 42.51 67.32 41.41 67.16 42.51 66.45 42.51" style="fill: #eedb9b"/>
            <polyline points="68.32 37.46 70.94 37.46 72.41 36.26" style="fill: none;stroke: #fff;stroke-linecap: round;stroke-linejoin: round;stroke-width: 0.272901540179771px"/>
            <polyline points="68.32 38.55 70.94 38.55 72.41 37.36" style="fill: none;stroke: #fff;stroke-linecap: round;stroke-linejoin: round;stroke-width: 0.272901540179771px"/>
            <polyline points="68.14 39.65 70.94 39.65 72.59 38.28" style="fill: none;stroke: #fff;stroke-linecap: round;stroke-linejoin: round;stroke-width: 0.272901540179771px"/>
            <polyline points="67.92 40.83 70.94 40.83 72.66 39.39" style="fill: none;stroke: #fff;stroke-linecap: round;stroke-linejoin: round;stroke-width: 0.272901540179771px"/>
            <polygon points="71.9 49.27 72.75 49.27 71.18 36.57 70.33 36.57 71.9 49.27" style="fill: #89b37b"/>
          </g>
          <rect x="56.51" y="54.11" width="6.17" height="1.09" style="fill: #89b37b"/>
          <g>
            <polygon points="56.61 54.13 58.24 53.41 61.09 53.42 62.59 54.13 56.61 54.13" style="fill: #fff"/>
            <path d="M61.08,53.44l1.41.67H56.71l1.53-.67h2.84m0,0H58.23l-1.72.75h6.17l-1.59-.75Z" style="fill: #89b37b"/>
          </g>
          <polyline points="61.15 58.28 56.02 52.07 59.22 48.4 63.16 48.28" style="fill: none;stroke: #eedb9b;stroke-linecap: round;stroke-linejoin: round;stroke-width: 0.408760317105366px"/>
          <line x1="60.01" y1="56.88" x2="60.01" y2="61.11" style="fill: none;stroke: #eedb9b;stroke-linecap: round;stroke-linejoin: round;stroke-width: 0.408760317105366px"/>
          <line x1="58.41" y1="54.96" x2="58.41" y2="58.05" style="fill: none;stroke: #eedb9b;stroke-linecap: round;stroke-linejoin: round;stroke-width: 0.408760317105366px"/>
          <line x1="56.87" y1="55.47" x2="56.87" y2="53.02" style="fill: none;stroke: #eedb9b;stroke-linecap: round;stroke-linejoin: round;stroke-width: 0.408760317105366px"/>
          <line x1="58.41" y1="53.4" x2="58.41" y2="49.31" style="fill: none;stroke: #eedb9b;stroke-linecap: round;stroke-linejoin: round;stroke-width: 0.408760317105366px"/>
          <line x1="60.26" y1="50.77" x2="60.26" y2="48.37" style="fill: none;stroke: #eedb9b;stroke-linecap: round;stroke-linejoin: round;stroke-width: 0.408760317105366px"/>
          <polygon points="66.45 42.51 66.45 43.05 67.09 43.05 67.16 42.51 66.45 42.51" style="fill: #fff"/>
          <polygon points="71.98 43.05 72.6 43.05 72.6 42.51 71.9 42.51 71.98 43.05" style="fill: #fff"/>
          <rect x="70.33" y="36.11" width="0.85" height="0.51" style="fill: #89b37b"/>
        </g>
        <g>
          <path d="M54.37,61.91l-4.66-8.16-40.27,0L5.7,61.65a5.16,5.16,0,0,0,1.24,6.1C8.37,69,10.21,70.2,12,70.2H46.69a9.09,9.09,0,0,0,4.43-1.1,8.43,8.43,0,0,0,3.5-3.45,2.71,2.71,0,0,0,.21-.57A4.28,4.28,0,0,0,54.37,61.91Z" style="fill: #89b37b"/>
          <path d="M43.11,60.72H15.7a6.24,6.24,0,0,1-6.19-5.27l0-.22a4.19,4.19,0,0,1,4.16-4.7l31.86,0a4.2,4.2,0,0,1,3.89,5.78,7.8,7.8,0,0,1-2.77,3.36A6.25,6.25,0,0,1,43.11,60.72Z" style="fill: #eedb9b"/>
          <g>
            <rect x="15.15" y="48.29" width="15.29" height="4.49" style="fill: #89b37b"/>
            <g>
              <line x1="18.43" y1="48.29" x2="18.43" y2="52.78" style="fill: none;stroke: #679840;stroke-linecap: round;stroke-linejoin: round;stroke-width: 0.210454976876564px"/>
              <line x1="21.51" y1="48.29" x2="21.51" y2="52.78" style="fill: none;stroke: #679840;stroke-linecap: round;stroke-linejoin: round;stroke-width: 0.210454976876564px"/>
              <line x1="24.6" y1="48.29" x2="24.6" y2="52.78" style="fill: none;stroke: #679840;stroke-linecap: round;stroke-linejoin: round;stroke-width: 0.210454976876564px"/>
              <line x1="27.68" y1="48.29" x2="27.68" y2="52.78" style="fill: none;stroke: #679840;stroke-linecap: round;stroke-linejoin: round;stroke-width: 0.210454976876564px"/>
            </g>
            <line x1="15.15" y1="50.54" x2="30.44" y2="50.54" style="fill: none;stroke: #679840;stroke-linecap: round;stroke-linejoin: round;stroke-width: 0.210454976876564px"/>
            <rect x="14.19" y="47.8" width="17.21" height="0.49" style="fill: #fff;stroke: #231f20;stroke-miterlimit: 10;stroke-width: 0.094056820268224px"/>
            <rect x="14.31" y="48.29" width="0.83" height="4.49" style="fill: #eedb9b;stroke: #679840;stroke-miterlimit: 10;stroke-width: 0.126272986125938px"/>
            <rect x="30.44" y="48.29" width="0.83" height="4.49" style="fill: #fff;stroke: #231f20;stroke-miterlimit: 10;stroke-width: 0.094056820268224px"/>
          </g>
          <g>
            <rect x="27.4" y="48.29" width="15.29" height="4.49" style="fill: #89b37b"/>
            <g>
              <line x1="30.68" y1="48.29" x2="30.68" y2="52.78" style="fill: #fff;stroke: #231f20;stroke-miterlimit: 10;stroke-width: 0.094056820268224px"/>
              <line x1="33.77" y1="48.29" x2="33.77" y2="52.78" style="fill: #fff;stroke: #3a472b;stroke-linecap: round;stroke-linejoin: round;stroke-width: 0.132856206960649px"/>
              <line x1="36.85" y1="48.29" x2="36.85" y2="52.78" style="fill: #fff;stroke: #507035;stroke-linecap: round;stroke-linejoin: round;stroke-width: 0.171655590184139px"/>
              <line x1="39.94" y1="48.29" x2="39.94" y2="52.78" style="fill: none;stroke: #679840;stroke-linecap: round;stroke-linejoin: round;stroke-width: 0.210454976876564px"/>
            </g>
            <line x1="27.4" y1="50.54" x2="42.7" y2="50.54" style="fill: none;stroke: #679840;stroke-linecap: round;stroke-linejoin: round;stroke-width: 0.210454976876564px"/>
            <rect x="26.44" y="47.8" width="17.21" height="0.49" style="fill: #fff;stroke: #231f20;stroke-miterlimit: 10;stroke-width: 0.094056820268224px"/>
            <rect x="26.57" y="48.29" width="0.83" height="4.49" style="fill: #fff;stroke: #231f20;stroke-miterlimit: 10;stroke-width: 0.094056820268224px"/>
            <rect x="42.7" y="48.29" width="0.83" height="4.49" style="fill: #eedb9b;stroke: #679840;stroke-miterlimit: 10;stroke-width: 0.126272986125938px"/>
          </g>
          <g>
            <rect x="22.03" y="51.31" width="15.29" height="4.49" style="fill: #89b37b"/>
            <g>
              <line x1="25.31" y1="51.31" x2="25.31" y2="55.81" style="fill: none;stroke: #679840;stroke-linecap: round;stroke-linejoin: round;stroke-width: 0.210454976876564px"/>
              <line x1="28.39" y1="51.31" x2="28.39" y2="55.81" style="fill: none;stroke: #679840;stroke-linecap: round;stroke-linejoin: round;stroke-width: 0.210454976876564px"/>
              <line x1="31.48" y1="51.31" x2="31.48" y2="55.81" style="fill: none;stroke: #679840;stroke-linecap: round;stroke-linejoin: round;stroke-width: 0.210454976876564px"/>
              <line x1="34.56" y1="51.31" x2="34.56" y2="55.81" style="fill: none;stroke: #679840;stroke-linecap: round;stroke-linejoin: round;stroke-width: 0.210454976876564px"/>
            </g>
            <line x1="22.03" y1="53.56" x2="37.32" y2="53.56" style="fill: none;stroke: #679840;stroke-linecap: round;stroke-linejoin: round;stroke-width: 0.210454976876564px"/>
            <rect x="21.07" y="50.83" width="17.21" height="0.49" style="fill: #fff;stroke: #231f20;stroke-miterlimit: 10;stroke-width: 0.094056820268224px"/>
            <rect x="21.19" y="51.31" width="0.83" height="4.49" style="fill: #eedb9b;stroke: #679840;stroke-miterlimit: 10;stroke-width: 0.126272986125938px"/>
            <rect x="37.32" y="51.31" width="0.83" height="4.49" style="fill: #eedb9b;stroke: #679840;stroke-miterlimit: 10;stroke-width: 0.126272986125938px"/>
          </g>
          <g>
            <path d="M13,48.28S19.71,45,22.63,41.5c0,0,5.16,5.11,10.21,6.78L22.31,50.1Z" style="fill: #fff;stroke: #93d5d8;stroke-miterlimit: 10;stroke-width: 0.084181990750626px"/>
            <polygon points="22.79 40.2 20.59 42.81 25 42.81 22.79 40.2" style="fill: #fff;stroke: #93d5d8;stroke-miterlimit: 10;stroke-width: 0.084181990750626px"/>
          </g>
          <g>
            <path d="M25.21,48.28S32,45,34.89,41.5c0,0,5.16,5.11,10.21,6.78L34.56,50.1Z" style="fill: #fff;stroke: #93d5d8;stroke-miterlimit: 10;stroke-width: 0.084181990750626px"/>
            <polygon points="35.05 40.2 32.84 42.81 37.25 42.81 35.05 40.2" style="fill: #fff;stroke: #93d5d8;stroke-miterlimit: 10;stroke-width: 0.084181990750626px"/>
          </g>
          <g>
            <path d="M19.73,51.35s6.75-3.31,9.68-6.77c0,0,5.15,5.1,10.21,6.77L29.08,52.89Z" style="fill: #fff;stroke: #93d5d8;stroke-miterlimit: 10;stroke-width: 0.084181990750626px"/>
            <polygon points="29.57 43.27 27.36 45.88 31.77 45.88 29.57 43.27" style="fill: #fff;stroke: #93d5d8;stroke-miterlimit: 10;stroke-width: 0.084181990750626px"/>
          </g>
          <g>
            <line x1="22.79" y1="40.2" x2="22.79" y2="37.93" style="fill: none;stroke: #679840;stroke-miterlimit: 10;stroke-width: 0.252545972251877px"/>
            <rect x="22.39" y="39.98" width="0.81" height="0.48" style="fill: #fff;stroke: #93d5d8;stroke-miterlimit: 10;stroke-width: 0.084181990750626px"/>
          </g>
          <g>
            <line x1="29.57" y1="43.25" x2="29.57" y2="40.98" style="fill: none;stroke: #679840;stroke-miterlimit: 10;stroke-width: 0.252545972251877px"/>
            <rect x="29.16" y="43.03" width="0.81" height="0.48" style="fill: #fff;stroke: #93d5d8;stroke-miterlimit: 10;stroke-width: 0.084181990750626px"/>
          </g>
          <g>
            <line x1="35.05" y1="40.2" x2="35.05" y2="37.93" style="fill: none;stroke: #679840;stroke-miterlimit: 10;stroke-width: 0.252545972251877px"/>
            <rect x="34.65" y="39.98" width="0.81" height="0.48" style="fill: #fff;stroke: #93d5d8;stroke-miterlimit: 10;stroke-width: 0.084181990750626px"/>
          </g>
          <g>
            <polygon points="32.63 58.86 25.7 58.86 26.96 56.93 31.37 56.93 32.63 58.86" style="fill: #fff"/>
            <polygon points="29.39 52.87 28.93 52.87 28.93 52.89 27.6 57.85 27.99 57.84 28.93 54.29 28.93 58.39 29.34 58.39 29.34 54.22 30.34 57.84 30.73 57.81 29.39 52.87" style="fill: #93d5d8;stroke: #89b37b;stroke-miterlimit: 10;stroke-width: 0.042090995375312px"/>
            <rect x="25.69" y="58.86" width="6.94" height="1.05" style="fill: #ecc438"/>
          </g>
          <g>
            <polygon points="23.54 57.44 16.6 57.44 17.87 55.51 22.28 55.51 23.54 57.44" style="fill: #fff"/>
            <polygon points="20.3 51.45 19.84 51.45 19.84 51.47 18.51 56.43 18.9 56.42 19.84 52.87 19.84 56.97 20.25 56.97 20.25 52.8 21.25 56.42 21.64 56.39 20.3 51.45" style="fill: #93d5d8;stroke: #89b37b;stroke-miterlimit: 10;stroke-width: 0.042090995375312px"/>
            <rect x="16.6" y="57.44" width="6.94" height="1.05" style="fill: #ecc438"/>
          </g>
          <g>
            <polygon points="16.12 53.32 10.48 53.32 11.51 51.75 15.09 51.75 16.12 53.32" style="fill: #fff"/>
            <polygon points="13.48 48.33 13.11 48.33 12.03 52.51 12.35 52.49 13.11 49.61 13.11 52.94 13.44 52.94 13.44 49.55 14.26 52.49 14.57 52.47 13.48 48.33" style="fill: #93d5d8;stroke: #89b37b;stroke-miterlimit: 10;stroke-width: 0.042090995375312px"/>
            <rect x="10.48" y="53.32" width="5.64" height="0.85" style="fill: #ecc438"/>
          </g>
          <g>
            <polygon points="47.92 53.32 42.28 53.32 43.31 51.75 46.89 51.75 47.92 53.32" style="fill: #fff"/>
            <polygon points="45.28 48.29 44.91 48.29 43.83 52.51 44.15 52.49 44.91 49.61 44.91 52.94 45.24 52.94 45.24 49.55 46.05 52.49 46.37 52.47 45.28 48.29" style="fill: #93d5d8;stroke: #89b37b;stroke-miterlimit: 10;stroke-width: 0.042090995375312px"/>
            <rect x="42.28" y="53.32" width="5.64" height="0.85" style="fill: #ecc438"/>
          </g>
          <g>
            <polygon points="42.7 57.44 35.76 57.44 37.02 55.51 41.43 55.51 42.7 57.44" style="fill: #fff"/>
            <polygon points="39.45 51.45 39 51.45 39 51.47 37.66 56.43 38.05 56.42 39 52.87 39 56.97 39.4 56.97 39.4 52.8 40.4 56.42 40.79 56.39 39.45 51.45" style="fill: #93d5d8;stroke: #89b37b;stroke-miterlimit: 10;stroke-width: 0.042090995375312px"/>
            <rect x="35.76" y="57.44" width="6.94" height="1.05" style="fill: #ecc438"/>
          </g>
          <rect x="34.56" y="62.5" width="9.64" height="0.75" style="fill: #eedb9b"/>
          <polygon points="44.2 62.5 34.56 62.5 35.18 61.73 43.59 61.73 44.2 62.5" style="fill: #ecc438"/>
          <polygon points="45.92 70.27 32.84 70.27 34.56 63.25 44.2 63.25 45.92 70.27" style="fill: #fff"/>
          <path d="M36,70.27c0-3.09,1.5-5.59,3.35-5.59s3.36,2.5,3.36,5.59Z" style="fill: #679840"/>
          <circle cx="8.91" cy="62.03" r="2.65" style="fill: #679840"/>
          <circle cx="21.19" cy="63.77" r="2.65" style="fill: #679840"/>
          <circle cx="49.07" cy="58.86" r="2.65" style="fill: #679840"/>
          <circle cx="16.54" cy="67.12" r="2.65" style="fill: #ecc438"/>
          <circle cx="31.33" cy="63.31" r="1.76" style="fill: #ecc438"/>
          <circle cx="29.67" cy="65.52" r="1.76" style="fill: #679840"/>
          <circle cx="22.04" cy="65.27" r="1.5" style="fill: #eedb9b"/>
          <circle cx="48.21" cy="63.31" r="1.5" style="fill: #eedb9b"/>
          <circle cx="10.48" cy="64.2" r="1.32" style="fill: #ecc438"/>
        </g>
        <g>
          <path d="M68.12,79.27a41.76,41.76,0,0,0-9.62-1,41.83,41.83,0,0,0-9.62,1h-5v3.11c0,2.28,6.54,4.13,14.6,4.13s14.6-1.85,14.6-4.13V79.27Z" style="fill: #89b37b"/>
          <ellipse cx="58.5" cy="79.27" rx="14.6" ry="4.13" style="fill: #fff"/>
          <ellipse cx="58.5" cy="79.11" rx="11.57" ry="3.27" style="fill: #93d5d8"/>
          <path d="M65.43,80.65a.46.46,0,0,1-.44-.3.47.47,0,0,1,.26-.62.64.64,0,0,0,.41-.39,1.86,1.86,0,0,0-.23-1.25h0L58,64.32a.48.48,0,0,1,.2-.65.47.47,0,0,1,.64.19l7.47,13.76a2.78,2.78,0,0,1,.31,2,1.59,1.59,0,0,1-1,1A.39.39,0,0,1,65.43,80.65Z" style="fill: #679840"/>
          <path d="M52,78.72a.5.5,0,0,1-.4-.21.48.48,0,0,1,.13-.67L67.51,67.09a.48.48,0,1,1,.53.79L52.23,78.64A.56.56,0,0,1,52,78.72Z" style="fill: #679840"/>
          <g>
            <path d="M53.82,80.31a3.32,3.32,0,0,1-1-.15,2.62,2.62,0,0,1-1.67-1.53c-.59-1.49.16-3.57,1.8-4.95a.42.42,0,0,1,.54.65c-1.35,1.12-2,2.84-1.56,4a1.75,1.75,0,0,0,1.14,1,3.62,3.62,0,0,0,3-.63.42.42,0,1,1,.46.7A4.93,4.93,0,0,1,53.82,80.31Z" style="fill: #679840"/>
            <polygon points="56.48 71.4 51.9 73.52 52.66 74.92 56.48 71.4" style="fill: #679840"/>
            <polygon points="60.75 75.96 56.42 81.92 54.99 79.26 60.75 75.96" style="fill: #679840"/>
          </g>
          <polygon points="60.75 75.96 61.29 76.95 57.23 82.38 56.42 81.92 60.75 75.96" style="fill: #eedb9b"/>
          <polygon points="56.48 71.4 56.82 72.39 53.41 75.4 52.66 74.92 56.48 71.4" style="fill: #eedb9b"/>
          <ellipse cx="63.44" cy="78.84" rx="1.16" ry="0.6" style="fill: #eedb9b"/>
          <ellipse cx="61.91" cy="80.05" rx="1.16" ry="0.6" style="fill: #ecc438"/>
          <ellipse cx="53.32" cy="81.12" rx="1.16" ry="0.6" style="fill: #eedb9b"/>
          <ellipse cx="49.63" cy="78.29" rx="1.16" ry="0.6" style="fill: #eedb9b"/>
          <ellipse cx="48.92" cy="78.94" rx="1.16" ry="0.6" style="fill: #ecc438"/>
          <ellipse cx="68.33" cy="79.27" rx="1.16" ry="0.6" style="fill: #ecc438"/>
          <rect x="64.69" y="66.93" width="1.96" height="1.23" rx="0.42" transform="translate(-26.47 47.91) rotate(-33.78)" style="fill: #eedb9b"/>
          <rect x="65.93" y="68.76" width="1.96" height="1.3" rx="0.45" transform="translate(-27.3 48.92) rotate(-33.78)" style="fill: #eedb9b"/>
          <path d="M68,69.24l-.32-.48,1.59-1.07A1.51,1.51,0,0,0,69,67.1l-.34-.51a1.55,1.55,0,0,0-.44-.47l-1.6,1.07-.32-.49,1.67-1.12c.13-.08.35-.13.67.13a2.56,2.56,0,0,1,.51.56l.34.51c.5.75.42,1.18.18,1.34Z" style="fill: #fff"/>
          <rect x="57.38" y="73.25" width="1.7" height="1.5" transform="translate(87.37 -15.54) rotate(56.22)" style="fill: #fff"/>
          <rect x="57.38" y="73.66" width="1.7" height="0.69" transform="translate(87.37 -15.54) rotate(56.22)" style="fill: #ecc438"/>
        </g>
      </g>
    </g>
  </g>
</svg>
