<svg xmlns="http://www.w3.org/2000/svg" width="125.61" height="56" viewBox="0 0 125.61 56">
  <g id="Layer_2" data-name="Layer 2">
    <g id="Iron">
      <g>
        <g>
          <path d="M115,17.53a20.37,20.37,0,0,0,9.3,5.56l-1.51,2c-4-1.38-8.38-4-10.3-7l0,8.61h-2.13V18.12a19.66,19.66,0,0,1-10.15,7.08l-1.47-1.91a18.87,18.87,0,0,0,9.37-5.76h-5.46V7.66h7.71V5.74H100.13V3.69h10.21V1.3h2.11V3.69H123V5.74H112.47l0,1.92h8v9.87Zm-4.67-6V9.71h-5.57l0,1.88Zm-5.57,3.94,5.57,0V13.62h-5.57Zm13.55-5.79h-5.85l0,1.85,5.87,0Zm-5.85,3.88v1.88h5.85V13.62Z" style="fill: #fff"/>
          <path d="M123.61,56H103.7c-1.49,0-2.16-1.23-2.16-2.61V35.56l-1.78,0V33.45l23.71,0v2.08h-19.8l0,17.27c0,.78.28,1.09,1.15,1.09h18.76Zm-10.8-3.91h-8V44.3l8,0ZM107,46.36V50l3.72,0,0-3.74Zm12.85-3.55-12.65,0,0-6.27h12.62ZM109.3,40.9h8.38V38.46H109.3Zm13,3.4V52h-8V44.3Zm-2.11,2-3.8,0V50l3.77,0Z" style="fill: #fff"/>
        </g>
        <g>
          <path d="M116.31,16.23a20.32,20.32,0,0,0,9.3,5.56l-1.51,2c-4-1.38-8.38-4-10.3-7l0,8.61h-2.13V16.82a19.7,19.7,0,0,1-10.15,7.08L100,22a18.87,18.87,0,0,0,9.37-5.76h-5.46V6.36h7.71V4.44H101.43V2.39h10.21V0h2.11V2.39h10.51V4.44H113.77l0,1.92h8v9.87Zm-4.67-6V8.41h-5.57l0,1.88Zm-5.57,3.94,5.57,0V12.32h-5.57Zm13.55-5.79h-5.85l0,1.85,5.87,0Zm-5.85,3.88v1.88h5.85V12.32Z" style="fill: #214534"/>
          <path d="M124.91,54.7H105c-1.49,0-2.16-1.23-2.16-2.61V34.26l-1.78,0V32.15l23.71,0v2.08H105l0,17.27c0,.78.28,1.09,1.15,1.09h18.76Zm-10.8-3.91h-8V43l8,0Zm-5.85-5.73v3.68l3.71,0L112,45Zm12.85-3.55-12.65,0,0-6.27h12.62ZM110.6,39.6H119V37.16H110.6Zm13,3.4v7.71h-8V43Zm-2.11,2-3.8,0v3.6l3.77,0Z" style="fill: #214534"/>
        </g>
        <g style="isolation: isolate">
          <polygon points="52.63 52.6 0 33.45 45.09 13.68 97.71 32.84 52.63 52.6" style="fill: #c4dc77"/>
          <polygon points="52.65 54.44 52.63 52.6 97.71 32.84 97.73 34.67 52.65 54.44" style="fill: #718044"/>
          <polygon points="0.02 35.28 0 33.45 52.63 52.6 52.65 54.44 0.02 35.28" style="fill: #444d28"/>
        </g>
        <g>
          <rect x="72.8" y="29.57" width="1.8" height="0.64" style="fill: #89b37b"/>
          <rect x="73.34" y="28.66" width="1.52" height="0.52" style="fill: #89b37b"/>
          <polygon points="73.34 28.66 74.04 28.44 75.16 28.44 74.86 28.66 73.34 28.66" style="fill: #eedb9b"/>
          <polygon points="72.8 29.58 73.34 29.18 74.7 29.18 74.6 29.58 72.8 29.58" style="fill: #eedb9b"/>
          <path d="M85.43,35.09H76.26a2.25,2.25,0,0,1-2.39-2.54l.73-3.5a4.59,4.59,0,0,1,4.62-3.42h3.24a4.6,4.6,0,0,1,4.63,3.42l.72,3.5A2.24,2.24,0,0,1,85.43,35.09Z" style="fill: #fffbdd"/>
          <path d="M89,35.78H85.58c-.76,0-1.34-.54-1.2-1.12l.26-1.11a1.93,1.93,0,0,1,2-1.27H88a1.91,1.91,0,0,1,1.94,1.27l.27,1.11C90.29,35.24,89.72,35.78,89,35.78Z" style="fill: #679840"/>
          <path d="M84.64,38.13h-1.7c-.38,0-.66-.27-.59-.56l.13-.56a1,1,0,0,1,1-.63h.68a1,1,0,0,1,1,.63l.13.56C85.3,37.86,85,38.13,84.64,38.13Z" style="fill: #ecc438;stroke: #89b37b;stroke-miterlimit: 10;stroke-width: 0.056420809191539px"/>
          <rect x="72.24" y="32" width="5.13" height="1.15" style="fill: #ecc438"/>
          <rect x="73.13" y="33.7" width="5.93" height="1.15" style="fill: #ecc438"/>
          <g>
            <polygon points="73.13 33.67 72.34 33.13 78.22 33.13 79.01 33.67 73.13 33.67" style="fill: #679840"/>
            <path d="M78.21,33.14l.76.52H73.14l-.76-.52h5.83m0,0H72.29l.84.58h5.93l-.84-.58Z" style="fill: #89b37b"/>
          </g>
          <g>
            <polygon points="72.25 31.98 71.56 31.44 76.65 31.44 77.33 31.98 72.25 31.98" style="fill: #fff"/>
            <path d="M76.64,31.45l.65.52h-5l-.65-.52h5m0,0H71.52l.72.58h5.14l-.73-.58Z" style="fill: #89b37b"/>
          </g>
          <rect x="73.84" y="35.4" width="6.17" height="1.15" style="fill: #ecc438"/>
          <g>
            <polygon points="73.93 35.38 73.11 34.83 79.14 34.83 79.96 35.38 73.93 35.38" style="fill: #679840"/>
            <path d="M79.14,34.84l.77.52h-6l-.78-.52h6m0,0H73.07l.86.58H80l-.86-.58Z" style="fill: #89b37b"/>
          </g>
          <polygon points="71.52 31.42 71.52 34.48 73.84 36.55 73.84 35.39 73.13 34.84 73.13 33.69 72.29 33.11 72.29 32 71.52 31.42" style="fill: #89b37b"/>
          <g>
            <polygon points="82.31 21.9 79.39 21.9 79.17 22.89 81.86 22.89 82.39 22.41 82.31 21.9" style="fill: #eedb9b"/>
            <polygon points="79.17 18.25 80.18 17.28 82.39 17.28 81.38 18.25 79.17 18.25" style="fill: #fffbdd"/>
            <rect x="79.17" y="18.25" width="2.21" height="0.34" style="fill: #ecc438"/>
            <rect x="79.17" y="18.59" width="0.57" height="0.34" style="fill: #89b37b"/>
            <polygon points="78.67 27.43 78.1 27.43 79.2 18.93 79.77 18.93 78.67 27.43" style="fill: #89b37b"/>
            <g>
              <rect x="80.35" y="15.52" width="0.67" height="1.14" style="fill: #679840"/>
              <rect x="80.35" y="16.32" width="0.67" height="0.34" style="fill: #89b37b"/>
              <polygon points="80.82 17.02 80.55 17.02 80.35 16.66 81.02 16.66 80.82 17.02" style="fill: #eedb9b"/>
              <rect x="80.55" y="17.02" width="0.24" height="0.75" style="fill: #ecc438"/>
            </g>
            <rect x="79.17" y="22.89" width="2.21" height="4.54" style="fill: #ecc438"/>
            <rect x="79.17" y="22.89" width="2.21" height="0.37" style="fill: #fff"/>
            <polygon points="78.67 27.43 79.17 27.43 79.17 23.26 78.67 27.43" style="fill: #eedb9b"/>
            <polygon points="81.38 27.43 81.86 27.43 81.38 23.26 81.38 27.43" style="fill: #eedb9b"/>
            <polygon points="78.67 22.89 78.2 22.89 78.2 26.66 78.67 22.89" style="fill: #ecc438"/>
            <polygon points="81.86 22.89 82.33 22.89 82.33 26.49 81.86 22.89" style="fill: #ecc438"/>
            <rect x="80.15" y="18.94" width="1.06" height="1.34" style="fill: #ecc438"/>
            <rect x="79.74" y="18.59" width="1.06" height="0.34" style="fill: #93d5d8"/>
            <rect x="80.42" y="20.27" width="0.53" height="1.94" style="fill: #ecc438"/>
            <polygon points="82.43 27.43 83.44 26.47 83.34 25.53 82.31 26.3 82.43 27.43" style="fill: #ecc438"/>
            <polygon points="82.33 22.89 83.34 21.93 83.34 25.53 82.31 26.3 82.33 22.89" style="fill: #679840"/>
            <polygon points="81.86 22.89 82.88 21.93 83.34 21.93 82.33 22.89 81.86 22.89" style="fill: #fff"/>
            <polygon points="81.38 18.25 82.39 17.28 82.39 18.05 81.38 18.93 81.38 18.25" style="fill: #679840"/>
            <polygon points="82.88 21.93 82.39 22.41 81.89 18.48 82.39 18.05 82.88 21.93" style="fill: #89b37b"/>
            <polygon points="78.2 22.89 78.78 22.16 78.67 22.89 78.2 22.89" style="fill: #eedb9b"/>
            <polyline points="79.46 19.5 81.22 19.5 82.21 18.7" style="fill: none;stroke: #fff;stroke-linecap: round;stroke-linejoin: round;stroke-width: 0.183367721949224px"/>
            <polyline points="79.46 20.24 81.22 20.24 82.21 19.43" style="fill: none;stroke: #fff;stroke-linecap: round;stroke-linejoin: round;stroke-width: 0.183367721949224px"/>
            <polyline points="79.33 20.97 81.22 20.97 82.32 20.05" style="fill: none;stroke: #fff;stroke-linecap: round;stroke-linejoin: round;stroke-width: 0.183367721949224px"/>
            <polyline points="79.19 21.77 81.22 21.77 82.37 20.8" style="fill: none;stroke: #fff;stroke-linecap: round;stroke-linejoin: round;stroke-width: 0.183367721949224px"/>
            <polygon points="81.86 27.43 82.43 27.43 81.38 18.9 80.81 18.9 81.86 27.43" style="fill: #89b37b"/>
          </g>
          <rect x="71.52" y="30.69" width="4.15" height="0.73" style="fill: #89b37b"/>
          <g>
            <polygon points="71.59 30.7 72.69 30.22 74.6 30.22 75.6 30.7 71.59 30.7" style="fill: #fff"/>
            <path d="M74.59,30.24l1,.45H71.65l1-.45h1.9m0,0H72.68l-1.16.5h4.15l-1.07-.5Z" style="fill: #89b37b"/>
          </g>
          <polyline points="74.64 33.49 71.19 29.32 73.34 26.85 75.99 26.77" style="fill: none;stroke: #eedb9b;stroke-linecap: round;stroke-linejoin: round;stroke-width: 0.274653811486291px"/>
          <line x1="73.87" y1="32.55" x2="73.87" y2="35.39" style="fill: none;stroke: #eedb9b;stroke-linecap: round;stroke-linejoin: round;stroke-width: 0.274653811486291px"/>
          <line x1="72.8" y1="31.26" x2="72.8" y2="33.33" style="fill: none;stroke: #eedb9b;stroke-linecap: round;stroke-linejoin: round;stroke-width: 0.274653811486291px"/>
          <line x1="71.76" y1="31.61" x2="71.76" y2="29.96" style="fill: none;stroke: #eedb9b;stroke-linecap: round;stroke-linejoin: round;stroke-width: 0.274653811486291px"/>
          <line x1="72.8" y1="30.21" x2="72.8" y2="27.47" style="fill: none;stroke: #eedb9b;stroke-linecap: round;stroke-linejoin: round;stroke-width: 0.274653811486291px"/>
          <line x1="74.04" y1="28.44" x2="74.04" y2="26.83" style="fill: none;stroke: #eedb9b;stroke-linecap: round;stroke-linejoin: round;stroke-width: 0.274653811486291px"/>
          <polygon points="78.2 22.89 78.2 23.26 78.63 23.26 78.67 22.89 78.2 22.89" style="fill: #fff"/>
          <polygon points="81.92 23.26 82.33 23.26 82.33 22.89 81.86 22.89 81.92 23.26" style="fill: #fff"/>
          <rect x="80.81" y="18.59" width="0.57" height="0.34" style="fill: #89b37b"/>
        </g>
        <g>
          <polygon points="54.83 17.56 62.12 11.17 70.03 11.69 63.62 18.13 54.83 17.56" style="fill: #93d5d8"/>
          <rect x="54.39" y="17.83" width="8.8" height="13.34" transform="translate(1.72 -3.78) rotate(3.73)" style="fill: #89b37b"/>
          <rect x="53.9" y="31.16" width="8.8" height="1.71" transform="translate(2.21 -3.73) rotate(3.73)" style="fill: #679840"/>
          <g>
            <rect x="55.16" y="18.85" width="1.71" height="3.05" rx="0.33" transform="translate(1.45 -3.6) rotate(3.73)" style="fill: #ecc438"/>
            <rect x="61.2" y="19.24" width="1.71" height="3.05" rx="0.33" transform="translate(1.48 -4) rotate(3.73)" style="fill: #ecc438"/>
            <rect x="57.26" y="19.04" width="3.54" height="3.05" rx="0.33" transform="translate(1.46 -3.8) rotate(3.73)" style="fill: #ecc438"/>
          </g>
          <g>
            <rect x="54.79" y="24.91" width="1.71" height="2.33" rx="0.28" transform="translate(1.82 -3.57) rotate(3.73)" style="fill: #ecc438"/>
            <rect x="60.83" y="25.31" width="1.71" height="2.33" rx="0.28" transform="translate(1.85 -3.96) rotate(3.73)" style="fill: #ecc438"/>
            <rect x="56.89" y="25.11" width="3.54" height="2.33" rx="0.28" transform="translate(1.84 -3.76) rotate(3.73)" style="fill: #ecc438"/>
          </g>
          <g>
            <rect x="57.32" y="23.43" width="2.97" height="1.23" transform="translate(1.69 -3.78) rotate(3.73)" style="fill: #679840"/>
            <rect x="57.61" y="23.65" width="2.39" height="0.78" transform="translate(1.69 -3.78) rotate(3.73)" style="fill: #ecc438"/>
          </g>
          <line x1="54.81" y1="17.99" x2="63.59" y2="18.56" style="fill: none;stroke: #eedb9b;stroke-miterlimit: 10;stroke-width: 0.053385943876769px"/>
          <ellipse cx="58.43" cy="29.78" rx="0.68" ry="0.76" transform="translate(24.91 86.15) rotate(-86.27)" style="fill: #93d5d8"/>
          <ellipse cx="58.43" cy="29.78" rx="0.48" ry="0.54" transform="matrix(0.07, -1, 1, 0.07, 24.91, 86.15)" style="fill: #ecc438"/>
          <ellipse cx="61.44" cy="30.7" rx="0.25" ry="0.28" transform="translate(26.8 90.02) rotate(-86.27)" style="fill: #93d5d8;stroke: #fff;stroke-miterlimit: 10;stroke-width: 0.026692971938385px"/>
          <ellipse cx="62.15" cy="30.75" rx="0.25" ry="0.28" transform="translate(27.41 90.76) rotate(-86.27)" style="fill: #93d5d8;stroke: #fff;stroke-miterlimit: 10;stroke-width: 0.026692971938385px"/>
          <ellipse cx="54.8" cy="30.27" rx="0.25" ry="0.28" transform="translate(21.02 82.98) rotate(-86.27)" style="fill: #ecc438;stroke: #fff;stroke-miterlimit: 10;stroke-width: 0.026692971938385px"/>
          <ellipse cx="55.5" cy="30.32" rx="0.25" ry="0.28" transform="matrix(0.07, -1, 1, 0.07, 21.63, 83.73)" style="fill: #ecc438;stroke: #fff;stroke-miterlimit: 10;stroke-width: 0.026692971938385px"/>
          <ellipse cx="54.95" cy="27.85" rx="0.25" ry="0.28" transform="translate(23.59 80.87) rotate(-86.27)" style="fill: #679840;stroke: #fff;stroke-miterlimit: 10;stroke-width: 0.026692971938385px"/>
          <ellipse cx="54.91" cy="28.47" rx="0.25" ry="0.28" transform="translate(22.93 81.41) rotate(-86.27)" style="fill: #679840;stroke: #fff;stroke-miterlimit: 10;stroke-width: 0.026692971938385px"/>
          <g>
            <path d="M60.73,31.71h0l-.11.05V31.7l.13-.06h.07l0,.59h-.08Z" style="fill: #fff"/>
            <path d="M61,32.09c0-.07,0-.12.13-.15h0A.16.16,0,0,1,61,31.8a.16.16,0,0,1,.19-.14c.11,0,.17.08.16.15a.14.14,0,0,1-.1.13h0a.14.14,0,0,1,.1.15c0,.11-.09.17-.21.16S61,32.18,61,32.09Zm.31,0c0-.07,0-.11-.12-.14s-.11.06-.11.12a.1.1,0,0,0,.11.11A.09.09,0,0,0,61.3,32.11Zm-.19-.31c0,.06,0,.09.1.12a.14.14,0,0,0,.1-.1.11.11,0,0,0-.1-.11A.09.09,0,0,0,61.11,31.8Z" style="fill: #fff"/>
          </g>
          <polygon points="61.67 18.01 56.78 17.69 57.48 16.43 61.15 16.67 61.67 18.01" style="fill: #eedb9b"/>
          <g>
            <path d="M58.55,17h0l-.11.05v-.06l.13-.06h.07l0,.59h-.07Z" style="fill: #679840"/>
            <path d="M58.81,17.33a.18.18,0,0,1,.13-.15h0a.14.14,0,0,1-.09-.14A.16.16,0,0,1,59,16.9c.12,0,.17.08.16.16a.15.15,0,0,1-.1.13h0a.17.17,0,0,1,.11.16.18.18,0,0,1-.21.15A.17.17,0,0,1,58.81,17.33Zm.32,0c0-.07-.05-.11-.12-.14a.15.15,0,0,0-.12.12.12.12,0,0,0,.11.12A.12.12,0,0,0,59.13,17.35Zm-.2-.31c0,.06,0,.1.1.12a.13.13,0,0,0,.1-.1s0-.1-.09-.1S58.93,17,58.93,17Z" style="fill: #679840"/>
          </g>
          <g>
            <polygon points="69.07 26.52 62.64 33.15 63.62 18.13 70.03 11.69 69.07 26.52" style="fill: #ecc438"/>
            <g>
              <g>
                <path d="M64.56,21.13l-.66.67s-.06,0-.06-.05L64,19a.4.4,0,0,1,.08-.2l.66-.68s.06,0,.06.06l-.18,2.79A.4.4,0,0,1,64.56,21.13Z" style="fill: #eedb9b"/>
                <path d="M64.68,19.05l-.62.64s0,0,0,0l0-.64a.15.15,0,0,1,0-.09l.61-.64s0,0,0,0l0,.63A.19.19,0,0,1,64.68,19.05Z" style="fill: #89b37b"/>
              </g>
              <g>
                <path d="M65.49,20.17l-.66.67s-.06,0-.06-.05L65,18a.4.4,0,0,1,.08-.2l.66-.68s.06,0,.06.06L65.57,20A.4.4,0,0,1,65.49,20.17Z" style="fill: #eedb9b"/>
                <path d="M65.61,18.09l-.62.64s0,0,0,0l0-.64A.15.15,0,0,1,65,18l.61-.63s0,0,0,0l0,.63A.19.19,0,0,1,65.61,18.09Z" style="fill: #89b37b"/>
              </g>
              <g>
                <path d="M66.42,19.21l-.66.67s-.06,0-.06-.05L65.88,17a.4.4,0,0,1,.08-.2l.66-.68s.06,0,.06.06L66.5,19A.4.4,0,0,1,66.42,19.21Z" style="fill: #eedb9b"/>
                <path d="M66.54,17.14l-.62.63s0,0,0,0l0-.64A.15.15,0,0,1,66,17l.61-.63s0,0,0,0l0,.63A.24.24,0,0,1,66.54,17.14Z" style="fill: #89b37b"/>
              </g>
              <g>
                <path d="M67.35,18.25l-.66.67s-.06,0-.06-.05l.18-2.79a.4.4,0,0,1,.08-.2l.66-.68s.06,0,.06.06l-.18,2.79A.4.4,0,0,1,67.35,18.25Z" style="fill: #eedb9b"/>
                <path d="M67.47,16.18l-.62.63s0,0,0,0l0-.63a.15.15,0,0,1,0-.1l.61-.63s0,0,0,0l0,.63A.24.24,0,0,1,67.47,16.18Z" style="fill: #89b37b"/>
              </g>
              <g>
                <path d="M68.28,17.29l-.66.67s-.06,0-.06-.05l.18-2.79a.4.4,0,0,1,.08-.2l.66-.67s.06,0,.06.05l-.18,2.79A.4.4,0,0,1,68.28,17.29Z" style="fill: #eedb9b"/>
                <path d="M68.4,15.22l-.62.63s0,0,0,0l0-.63a.15.15,0,0,1,0-.1l.62-.63s0,0,0,0l0,.64A.24.24,0,0,1,68.4,15.22Z" style="fill: #89b37b"/>
              </g>
              <g>
                <path d="M69.21,16.33l-.66.68s-.06,0-.06-.06l.18-2.79a.4.4,0,0,1,.08-.2l.66-.67s.06,0,.06.05l-.18,2.79A.4.4,0,0,1,69.21,16.33Z" style="fill: #eedb9b"/>
                <path d="M69.33,14.26l-.62.63s0,0,0,0l0-.63a.13.13,0,0,1,0-.09l.62-.64s0,0,0,0l0,.64A.24.24,0,0,1,69.33,14.26Z" style="fill: #89b37b"/>
              </g>
            </g>
            <path d="M67.3,23.28l-2.18,2.25c-.1.11-.17,0-.16-.13l.11-1.68a.9.9,0,0,1,.2-.51L67.45,21c.1-.1.17,0,.16.14l-.11,1.68A.9.9,0,0,1,67.3,23.28Z" style="fill: #eedb9b"/>
            <path d="M67.37,28.31l-3,3.14.14-1a2.49,2.49,0,0,1,.41-1.17L67.05,27c.17-.17.3,0,.31.43Z" style="fill: #679840"/>
            <g>
              <polygon points="65.34 25.3 65.24 25.41 65.39 23.08 65.49 22.98 65.34 25.3" style="fill: #89b37b"/>
              <polygon points="66.26 24.36 66.16 24.46 66.31 22.14 66.41 22.04 66.26 24.36" style="fill: #89b37b"/>
              <polygon points="67.18 23.41 67.08 23.51 67.23 21.18 67.33 21.09 67.18 23.41" style="fill: #89b37b"/>
              <polygon points="65.03 24.32 65.05 24.05 67.59 21.43 67.57 21.7 65.03 24.32" style="fill: #89b37b"/>
            </g>
            <g>
              <polygon points="63.98 31.02 63.18 31.84 63.63 24.89 64.43 24.07 63.98 31.02" style="fill: #eedb9b"/>
              <polygon points="63.98 31.02 63.18 31.84 63.41 28.36 64.2 27.55 63.98 31.02" style="fill: #679840"/>
              <line x1="63.81" y1="27.95" x2="63.58" y2="31.42" style="fill: none;stroke: #ecc438;stroke-miterlimit: 10;stroke-width: 0.053385943876769px"/>
            </g>
            <g>
              <polygon points="68.63 26.22 67.83 27.04 68.29 20.1 69.08 19.28 68.63 26.22" style="fill: #eedb9b"/>
              <polygon points="68.63 26.22 67.83 27.04 68.06 23.57 68.86 22.75 68.63 26.22" style="fill: #679840"/>
              <line x1="68.46" y1="23.16" x2="68.23" y2="26.63" style="fill: none;stroke: #ecc438;stroke-miterlimit: 10;stroke-width: 0.053385943876769px"/>
            </g>
          </g>
          <line x1="57.22" y1="21.13" x2="60.76" y2="21.36" style="fill: none;stroke: #eedb9b;stroke-miterlimit: 10;stroke-width: 0.213543775507077px"/>
          <polygon points="57.48 16.43 60.86 13.48 64.34 13.7 61.15 16.67 57.48 16.43" style="fill: #fff"/>
          <polygon points="61.67 18.01 65.15 14.66 64.33 13.69 61.15 16.67 61.67 18.01" style="fill: #ecc438"/>
          <line x1="62.95" y1="13.6" x2="66.13" y2="7.55" style="fill: none;stroke: #679840;stroke-linecap: round;stroke-linejoin: round;stroke-width: 0.373701607137383px"/>
          <line x1="64.03" y1="7.27" x2="68.37" y2="7.55" style="fill: none;stroke: #679840;stroke-linecap: round;stroke-linejoin: round;stroke-width: 0.373701607137383px"/>
        </g>
        <g>
          <path d="M59.3,44.88a27.74,27.74,0,0,0-6.47-.69,27.84,27.84,0,0,0-6.48.69H43V47c0,1.53,4.4,2.78,9.83,2.78S62.65,48.5,62.65,47V44.88Z" style="fill: #89b37b"/>
          <ellipse cx="52.83" cy="44.88" rx="9.82" ry="2.78" style="fill: #fff"/>
          <ellipse cx="52.83" cy="44.77" rx="7.79" ry="2.2" style="fill: #93d5d8"/>
          <path d="M57.49,45.81a.33.33,0,0,1-.3-.2.31.31,0,0,1,.18-.42.48.48,0,0,0,.28-.27,1.35,1.35,0,0,0-.16-.84h0l-5-9.26a.32.32,0,0,1,.13-.44.32.32,0,0,1,.43.13l5,9.26a1.89,1.89,0,0,1,.21,1.36,1.12,1.12,0,0,1-.65.65Z" style="fill: #679840"/>
          <path d="M48.43,44.51a.31.31,0,0,1-.27-.15.32.32,0,0,1,.08-.44l10.65-7.24a.31.31,0,0,1,.44.09.33.33,0,0,1-.08.45L48.61,44.45A.32.32,0,0,1,48.43,44.51Z" style="fill: #679840"/>
          <g>
            <path d="M49.68,45.57a2.24,2.24,0,0,1-.68-.1,1.75,1.75,0,0,1-1.12-1,3.16,3.16,0,0,1,1.21-3.33.28.28,0,1,1,.36.43,2.64,2.64,0,0,0-1,2.69,1.18,1.18,0,0,0,.76.7,2.41,2.41,0,0,0,2-.43.29.29,0,0,1,.31.48A3.38,3.38,0,0,1,49.68,45.57Z" style="fill: #679840"/>
            <polygon points="51.47 39.58 48.39 41.01 48.9 41.95 51.47 39.58" style="fill: #679840"/>
            <polygon points="54.34 42.65 51.43 46.66 50.47 44.87 54.34 42.65" style="fill: #679840"/>
          </g>
          <polygon points="54.34 42.65 54.7 43.31 51.97 46.97 51.43 46.66 54.34 42.65" style="fill: #eedb9b"/>
          <polygon points="51.47 39.58 51.69 40.25 49.4 42.27 48.9 41.95 51.47 39.58" style="fill: #eedb9b"/>
          <ellipse cx="56.15" cy="44.59" rx="0.78" ry="0.41" style="fill: #eedb9b"/>
          <ellipse cx="55.12" cy="45.4" rx="0.78" ry="0.41" style="fill: #ecc438"/>
          <ellipse cx="49.34" cy="46.12" rx="0.78" ry="0.41" style="fill: #eedb9b"/>
          <ellipse cx="46.86" cy="44.22" rx="0.78" ry="0.41" style="fill: #eedb9b"/>
          <ellipse cx="46.38" cy="44.65" rx="0.78" ry="0.41" style="fill: #ecc438"/>
          <ellipse cx="59.44" cy="44.88" rx="0.78" ry="0.41" style="fill: #ecc438"/>
          <rect x="56.99" y="36.58" width="1.32" height="0.83" rx="0.28" transform="translate(-10.84 38.3) rotate(-33.78)" style="fill: #eedb9b"/>
          <rect x="57.83" y="37.81" width="1.32" height="0.87" rx="0.3" transform="translate(-11.39 38.97) rotate(-33.78)" style="fill: #eedb9b"/>
          <path d="M59.19,38.13,59,37.8l1.08-.71a1.19,1.19,0,0,0-.19-.4l-.22-.34a1.17,1.17,0,0,0-.3-.32l-1.07.72-.22-.33,1.12-.75c.09-.06.24-.09.45.08a1.59,1.59,0,0,1,.34.38l.23.34c.34.51.29.8.13.91Z" style="fill: #fff"/>
          <rect x="52.07" y="40.83" width="1.14" height="1.01" transform="translate(57.73 -25.41) rotate(56.22)" style="fill: #fff"/>
          <rect x="52.07" y="41.1" width="1.14" height="0.46" transform="translate(57.73 -25.41) rotate(56.22)" style="fill: #ecc438"/>
        </g>
        <g>
          <path d="M51.19,29.27l-4.07-7.13-35.2,0L8.65,29a4.51,4.51,0,0,0,1.08,5.33,7.31,7.31,0,0,0,4.46,2.15H44.48a8,8,0,0,0,3.87-1,7.42,7.42,0,0,0,3.06-3,2.26,2.26,0,0,0,.18-.5A3.78,3.78,0,0,0,51.19,29.27Z" style="fill: #89b37b"/>
          <path d="M41.35,28.23h-24A5.46,5.46,0,0,1,12,23.62l0-.19a3.66,3.66,0,0,1,3.64-4.1l27.84,0a3.65,3.65,0,0,1,3.4,5,6.68,6.68,0,0,1-2.42,2.94A5.39,5.39,0,0,1,41.35,28.23Z" style="fill: #eedb9b"/>
          <g>
            <rect x="16.91" y="17.36" width="13.37" height="3.93" style="fill: #89b37b"/>
            <g>
              <line x1="19.78" y1="17.36" x2="19.78" y2="21.29" style="fill: none;stroke: #679840;stroke-linecap: round;stroke-linejoin: round;stroke-width: 0.183946305867067px"/>
              <line x1="22.47" y1="17.36" x2="22.47" y2="21.29" style="fill: none;stroke: #679840;stroke-linecap: round;stroke-linejoin: round;stroke-width: 0.183946305867067px"/>
              <line x1="25.17" y1="17.36" x2="25.17" y2="21.29" style="fill: none;stroke: #679840;stroke-linecap: round;stroke-linejoin: round;stroke-width: 0.183946305867067px"/>
              <line x1="27.86" y1="17.36" x2="27.86" y2="21.29" style="fill: none;stroke: #679840;stroke-linecap: round;stroke-linejoin: round;stroke-width: 0.183946305867067px"/>
            </g>
            <line x1="16.91" y1="19.33" x2="30.27" y2="19.33" style="fill: none;stroke: #679840;stroke-linecap: round;stroke-linejoin: round;stroke-width: 0.183946305867067px"/>
            <rect x="16.07" y="16.94" width="15.04" height="0.43" style="fill: #fff;stroke: #231f20;stroke-miterlimit: 10;stroke-width: 0.082209529499937px"/>
            <rect x="16.18" y="17.36" width="0.73" height="3.93" style="fill: #eedb9b;stroke: #679840;stroke-miterlimit: 10;stroke-width: 0.11036778352024px"/>
            <rect x="30.27" y="17.36" width="0.73" height="3.93" style="fill: #fff;stroke: #231f20;stroke-miterlimit: 10;stroke-width: 0.082209529499937px"/>
          </g>
          <g>
            <rect x="27.62" y="17.36" width="13.37" height="3.93" style="fill: #89b37b"/>
            <g>
              <line x1="30.49" y1="17.36" x2="30.49" y2="21.29" style="fill: #fff;stroke: #231f20;stroke-miterlimit: 10;stroke-width: 0.082209529499937px"/>
              <line x1="33.18" y1="17.36" x2="33.18" y2="21.29" style="fill: #fff;stroke: #3a472b;stroke-linecap: round;stroke-linejoin: round;stroke-width: 0.116121789299644px"/>
              <line x1="35.88" y1="17.36" x2="35.88" y2="21.29" style="fill: #fff;stroke: #507035;stroke-linecap: round;stroke-linejoin: round;stroke-width: 0.150034046067359px"/>
              <line x1="38.57" y1="17.36" x2="38.57" y2="21.29" style="fill: none;stroke: #679840;stroke-linecap: round;stroke-linejoin: round;stroke-width: 0.183946305867067px"/>
            </g>
            <line x1="27.62" y1="19.33" x2="40.99" y2="19.33" style="fill: none;stroke: #679840;stroke-linecap: round;stroke-linejoin: round;stroke-width: 0.183946305867067px"/>
            <rect x="26.78" y="16.94" width="15.04" height="0.43" style="fill: #fff;stroke: #231f20;stroke-miterlimit: 10;stroke-width: 0.082209529499937px"/>
            <rect x="26.89" y="17.36" width="0.73" height="3.93" style="fill: #fff;stroke: #231f20;stroke-miterlimit: 10;stroke-width: 0.082209529499937px"/>
            <rect x="40.99" y="17.36" width="0.73" height="3.93" style="fill: #eedb9b;stroke: #679840;stroke-miterlimit: 10;stroke-width: 0.11036778352024px"/>
          </g>
          <g>
            <rect x="22.92" y="20.01" width="13.37" height="3.93" style="fill: #89b37b"/>
            <g>
              <line x1="25.79" y1="20.01" x2="25.79" y2="23.93" style="fill: none;stroke: #679840;stroke-linecap: round;stroke-linejoin: round;stroke-width: 0.183946305867067px"/>
              <line x1="28.49" y1="20.01" x2="28.49" y2="23.93" style="fill: none;stroke: #679840;stroke-linecap: round;stroke-linejoin: round;stroke-width: 0.183946305867067px"/>
              <line x1="31.18" y1="20.01" x2="31.18" y2="23.93" style="fill: none;stroke: #679840;stroke-linecap: round;stroke-linejoin: round;stroke-width: 0.183946305867067px"/>
              <line x1="33.88" y1="20.01" x2="33.88" y2="23.93" style="fill: none;stroke: #679840;stroke-linecap: round;stroke-linejoin: round;stroke-width: 0.183946305867067px"/>
            </g>
            <line x1="22.92" y1="21.97" x2="36.29" y2="21.97" style="fill: none;stroke: #679840;stroke-linecap: round;stroke-linejoin: round;stroke-width: 0.183946305867067px"/>
            <rect x="22.08" y="19.58" width="15.04" height="0.43" style="fill: #fff;stroke: #231f20;stroke-miterlimit: 10;stroke-width: 0.082209529499937px"/>
            <rect x="22.19" y="20.01" width="0.73" height="3.93" style="fill: #eedb9b;stroke: #679840;stroke-miterlimit: 10;stroke-width: 0.11036778352024px"/>
            <rect x="36.29" y="20.01" width="0.73" height="3.93" style="fill: #eedb9b;stroke: #679840;stroke-miterlimit: 10;stroke-width: 0.11036778352024px"/>
          </g>
          <g>
            <path d="M15,17.35s5.91-2.89,8.46-5.92c0,0,4.51,4.47,8.93,5.92L23.17,19Z" style="fill: #fff;stroke: #93d5d8;stroke-miterlimit: 10;stroke-width: 0.073578522346827px"/>
            <polygon points="23.59 10.29 21.66 12.57 25.52 12.57 23.59 10.29" style="fill: #fff;stroke: #93d5d8;stroke-miterlimit: 10;stroke-width: 0.073578522346827px"/>
          </g>
          <g>
            <path d="M25.7,17.35s5.91-2.89,8.46-5.92c0,0,4.51,4.47,8.93,5.92L33.88,19Z" style="fill: #fff;stroke: #93d5d8;stroke-miterlimit: 10;stroke-width: 0.073578522346827px"/>
            <polygon points="34.3 10.29 32.38 12.57 36.23 12.57 34.3 10.29" style="fill: #fff;stroke: #93d5d8;stroke-miterlimit: 10;stroke-width: 0.073578522346827px"/>
          </g>
          <g>
            <path d="M20.91,20s5.91-2.89,8.46-5.92c0,0,4.51,4.46,8.93,5.92l-9.21,1.35Z" style="fill: #fff;stroke: #93d5d8;stroke-miterlimit: 10;stroke-width: 0.073578522346827px"/>
            <polygon points="29.51 12.98 27.58 15.26 31.44 15.26 29.51 12.98" style="fill: #fff;stroke: #93d5d8;stroke-miterlimit: 10;stroke-width: 0.073578522346827px"/>
          </g>
          <g>
            <line x1="23.59" y1="10.3" x2="23.59" y2="8.31" style="fill: none;stroke: #679840;stroke-miterlimit: 10;stroke-width: 0.22073556704048px"/>
            <rect x="23.24" y="10.1" width="0.7" height="0.42" style="fill: #fff;stroke: #93d5d8;stroke-miterlimit: 10;stroke-width: 0.073578522346827px"/>
          </g>
          <g>
            <line x1="29.51" y1="12.96" x2="29.51" y2="10.97" style="fill: none;stroke: #679840;stroke-miterlimit: 10;stroke-width: 0.22073556704048px"/>
            <rect x="29.16" y="12.77" width="0.7" height="0.42" style="fill: #fff;stroke: #93d5d8;stroke-miterlimit: 10;stroke-width: 0.073578522346827px"/>
          </g>
          <g>
            <line x1="34.3" y1="10.3" x2="34.3" y2="8.31" style="fill: none;stroke: #679840;stroke-miterlimit: 10;stroke-width: 0.22073556704048px"/>
            <rect x="33.95" y="10.1" width="0.7" height="0.42" style="fill: #fff;stroke: #93d5d8;stroke-miterlimit: 10;stroke-width: 0.073578522346827px"/>
          </g>
          <g>
            <polygon points="32.19 26.6 26.13 26.6 27.23 24.91 31.08 24.91 32.19 26.6" style="fill: #fff"/>
            <polygon points="29.35 21.37 28.96 21.37 28.96 21.39 27.79 25.72 28.13 25.71 28.96 22.61 28.96 26.19 29.31 26.19 29.31 22.54 30.18 25.71 30.52 25.69 29.35 21.37" style="fill: #93d5d8;stroke: #89b37b;stroke-miterlimit: 10;stroke-width: 0.036789261173413px"/>
            <rect x="26.13" y="26.6" width="6.06" height="0.92" style="fill: #ecc438"/>
          </g>
          <g>
            <polygon points="24.24 25.36 18.18 25.36 19.29 23.67 23.14 23.67 24.24 25.36" style="fill: #fff"/>
            <polygon points="21.41 20.13 21.01 20.13 21.01 20.15 19.84 24.48 20.18 24.47 21.01 21.37 21.01 24.95 21.36 24.95 21.36 21.3 22.24 24.47 22.58 24.45 21.41 20.13" style="fill: #93d5d8;stroke: #89b37b;stroke-miterlimit: 10;stroke-width: 0.036789261173413px"/>
            <rect x="18.18" y="25.36" width="6.06" height="0.92" style="fill: #ecc438"/>
          </g>
          <g>
            <polygon points="17.76 21.76 12.83 21.76 13.73 20.39 16.86 20.39 17.76 21.76" style="fill: #fff"/>
            <polygon points="15.45 17.4 15.13 17.4 14.18 21.05 14.46 21.04 15.13 18.52 15.13 21.43 15.42 21.43 15.42 18.46 16.13 21.04 16.41 21.02 15.45 17.4" style="fill: #93d5d8;stroke: #89b37b;stroke-miterlimit: 10;stroke-width: 0.036789261173413px"/>
            <rect x="12.83" y="21.76" width="4.93" height="0.74" style="fill: #ecc438"/>
          </g>
          <g>
            <polygon points="45.55 21.76 40.62 21.76 41.52 20.39 44.65 20.39 45.55 21.76" style="fill: #fff"/>
            <polygon points="43.25 17.36 42.92 17.36 41.98 21.05 42.25 21.04 42.92 18.52 42.92 21.43 43.21 21.43 43.21 18.46 43.92 21.04 44.2 21.02 43.25 17.36" style="fill: #93d5d8;stroke: #89b37b;stroke-miterlimit: 10;stroke-width: 0.036789261173413px"/>
            <rect x="40.62" y="21.76" width="4.93" height="0.74" style="fill: #ecc438"/>
          </g>
          <g>
            <polygon points="40.98 25.36 34.92 25.36 36.03 23.67 39.88 23.67 40.98 25.36" style="fill: #fff"/>
            <polygon points="38.15 20.13 37.75 20.13 37.75 20.15 36.59 24.48 36.93 24.47 37.75 21.37 37.75 24.95 38.11 24.95 38.11 21.3 38.98 24.47 39.32 24.45 38.15 20.13" style="fill: #93d5d8;stroke: #89b37b;stroke-miterlimit: 10;stroke-width: 0.036789261173413px"/>
            <rect x="34.92" y="25.36" width="6.06" height="0.92" style="fill: #ecc438"/>
          </g>
          <rect x="33.88" y="29.78" width="8.43" height="0.65" style="fill: #eedb9b"/>
          <polygon points="42.3 29.78 33.88 29.78 34.41 29.11 41.77 29.11 42.3 29.78" style="fill: #ecc438"/>
          <polygon points="43.81 36.58 32.38 36.58 33.88 30.44 42.3 30.44 43.81 36.58" style="fill: #fff"/>
          <path d="M35.16,36.57c0-2.69,1.31-4.88,2.93-4.88S41,33.88,41,36.57Z" style="fill: #679840"/>
          <circle cx="11.46" cy="29.38" r="2.31" style="fill: #679840"/>
          <circle cx="22.19" cy="30.9" r="2.31" style="fill: #679840"/>
          <circle cx="46.55" cy="26.6" r="2.31" style="fill: #679840"/>
          <circle cx="18.13" cy="33.82" r="2.31" style="fill: #ecc438"/>
          <circle cx="31.05" cy="30.49" r="1.54" style="fill: #ecc438"/>
          <circle cx="29.6" cy="32.42" r="1.54" style="fill: #679840"/>
          <circle cx="22.94" cy="32.21" r="1.31" style="fill: #eedb9b"/>
          <circle cx="45.81" cy="30.49" r="1.31" style="fill: #eedb9b"/>
          <circle cx="12.83" cy="31.27" r="1.16" style="fill: #ecc438"/>
        </g>
      </g>
    </g>
  </g>
</svg>
