<svg xmlns="http://www.w3.org/2000/svg" width="157.19" height="162.74" viewBox="0 0 157.19 162.74">
  <g id="Layer_2" data-name="Layer 2">
    <g id="Iron">
      <g>
        <g>
          <path d="M120.05,6.67a7,7,0,0,0-1.77-3.79l1.66-.9a7.41,7.41,0,0,1,2,4.16l-1,.48,3.57,0v2h-3.17v3.09l2.5,0v2h-2.5v3.41h2.44v2h-2.44l0,3.52,3.6,0v2.05H117v2.08h-2.11V12.3a13.14,13.14,0,0,1-1.3,1.8l-.73-.74,0,1.64h-4.13l-.34,1.57h5.12l0,7.45a2.44,2.44,0,0,1-1.3,2.06,7.56,7.56,0,0,1-3.06.33l-1-1.88,2.67,0c.43-.06.54-.45.54-1l-1.77.65a4.28,4.28,0,0,0-.14-1.38l-5.23.87-.82-1.8,1.18-.31c.79,0,1-1.52,1.3-3h-2.59V27h-2.11V18.62H99.83l0-2,1.41-.06V15.3h2.14v1.27h3l.28-1.57H101.8V7.26h2.11v.51l1.15-1a13.11,13.11,0,0,1,2.87,1.66,13.38,13.38,0,0,0,1.49-2.33l1.41.79a16.49,16.49,0,0,1-1.52,2.64,8.56,8.56,0,0,1,1.38,1.57l0-3.88,2.14,0v4.33c2.17-2.42,3.18-7.28,3.24-10l1.94.56a22.51,22.51,0,0,1-.82,4.53ZM100.37,6v-2h5.48a7.58,7.58,0,0,0-1.77-1.6l1.91-1a9.22,9.22,0,0,1,2,2.64h6.21V6Zm4.38,7-.84-.59,0,.59Zm-.84-1.57a14.27,14.27,0,0,0,2.81-1.72,14.61,14.61,0,0,0-2.81-1.52Zm6.83.36-1.35,1A8.74,8.74,0,0,0,108,10.86a13.32,13.32,0,0,1-3,2.05l5.68.06Zm.68,6.86H108a9.72,9.72,0,0,1-.88,2.67l1.72-.28a10.32,10.32,0,0,1-1-1.15l1.72-.56A8.08,8.08,0,0,1,111.36,23Zm7.79-4.81H117l0,3.38,2.19,0ZM117,19.24l0,3.49h2.22V19.24Zm2.19-7.39V8.7l-2.19,0v3.13Z" style="fill: #fff"/>
          <path d="M118.06,55.24a7.43,7.43,0,0,0,2.58.12,4.83,4.83,0,0,0,.65-2.67c.14-1.13.22-2.54.25-3.3l-18.05,0,0-14.82,7,0a8.15,8.15,0,0,0,1.72-2.72c.79.31,1.32.67,2,.95a11,11,0,0,1-1.15,1.8h7.68v8.5H105.68v1.06h17.49v2.06H105.68v1.15l18.08,0A44.55,44.55,0,0,1,123,55.5a2.58,2.58,0,0,1-1.57,1.83,8.49,8.49,0,0,1-2.79.14l-.56-1.75,0,1.21h-2.14c0-.56,0-1,0-1.12l-11.93,0V57h-2.13V50.89H104v2.89h4.93V49.51h2.13v4.3l4.9,0v-3h2.11ZM105.65,36.63l0,1.15h12.88V36.63Zm0,3.2,0,1.24h12.88V39.83Z" style="fill: #fff"/>
          <path d="M124.83,86.94H104.92c-1.49,0-2.16-1.23-2.16-2.61V66.5l-1.77,0V64.39l23.7,0V66.5h-19.8l0,17.27c0,.78.28,1.09,1.16,1.09h18.75ZM114,83h-8V75.25l8,0Zm-5.84-5.74V81l3.71,0,0-3.74ZM121,73.75l-12.66,0,0-6.27H121Zm-10.52-1.91h8.38V69.4h-8.38Zm13,3.41V83h-8v-7.7Zm-2.11,2-3.79,0v3.6l3.76,0Z" style="fill: #fff"/>
        </g>
        <g>
          <path d="M121.35,5.37a7,7,0,0,0-1.77-3.8l1.66-.89a7.41,7.41,0,0,1,2.05,4.16l-1,.48,3.57,0v2h-3.17v3.09l2.5,0v2h-2.5v3.41h2.44v2h-2.44l0,3.52,3.6,0v2.05h-7.93v2.08h-2.11V11a13.14,13.14,0,0,1-1.3,1.8l-.73-.74,0,1.64h-4.13l-.34,1.57h5.12l0,7.45a2.44,2.44,0,0,1-1.3,2.06,7.56,7.56,0,0,1-3.06.33l-1-1.88,2.67,0c.43-.06.54-.45.54-1L111,23a4.28,4.28,0,0,0-.14-1.38l-5.23.87-.82-1.8,1.18-.31c.79,0,1-1.52,1.3-3h-2.59V25.7h-2.11V17.32h-1.41l0-2,1.41-.06V14h2.14v1.27h3L108,13.7H103.1V6h2.11v.51l1.15-1a13.11,13.11,0,0,1,2.87,1.66,13.38,13.38,0,0,0,1.49-2.33l1.41.79a16.49,16.49,0,0,1-1.52,2.64A8.56,8.56,0,0,1,112,9.81L112,5.93l2.14,0v4.33c2.17-2.42,3.18-7.28,3.24-10l1.94.56a22.51,22.51,0,0,1-.82,4.53Zm-19.68-.7v-2h5.48A7.58,7.58,0,0,0,105.38,1l1.91-1a9.22,9.22,0,0,1,2,2.64h6.21v2Zm4.38,7-.84-.59,0,.59Zm-.84-1.57A14.27,14.27,0,0,0,108,8.38a14.61,14.61,0,0,0-2.81-1.52Zm6.83.36-1.35,1a8.74,8.74,0,0,0-1.37-1.94,13.32,13.32,0,0,1-3,2l5.68.06Zm.68,6.86h-3.4a9.72,9.72,0,0,1-.88,2.67l1.72-.28a10.32,10.32,0,0,1-1-1.15l1.72-.56a8.08,8.08,0,0,1,1.74,3.65Zm7.79-4.81h-2.22l0,3.38,2.19,0Zm-2.19,5.43,0,3.49h2.22V17.94Zm2.19-7.39V7.4l-2.19,0v3.13Z" style="fill: #003869"/>
          <path d="M119.36,53.94a7.43,7.43,0,0,0,2.58.12,4.83,4.83,0,0,0,.65-2.67c.14-1.13.22-2.54.25-3.3l-18,0,0-14.82,7,0a8.15,8.15,0,0,0,1.72-2.72c.79.31,1.32.67,2,.95a11.7,11.7,0,0,1-1.15,1.8h7.68v8.5H107v1.06h17.49v2.06H107v1.15l18.08,0a44.55,44.55,0,0,1-.73,8.16A2.58,2.58,0,0,1,122.76,56a8.49,8.49,0,0,1-2.79.14l-.56-1.75,0,1.21h-2.14c0-.56,0-1,0-1.12l-11.93,0v1.13h-2.13V49.59h2.13v2.89h4.93V48.21h2.13v4.3l4.9,0v-3h2.11ZM107,35.33l0,1.15h12.88V35.33Zm0,3.2,0,1.24h12.88V38.53Z" style="fill: #003869"/>
          <path d="M126.13,85.64H106.22c-1.49,0-2.16-1.23-2.16-2.61V65.2l-1.77,0V63.09l23.7,0V65.2h-19.8l0,17.27c0,.78.28,1.09,1.16,1.09h18.75Zm-10.8-3.9h-8V74l8,0ZM109.49,76v3.68l3.71,0,0-3.74Zm12.85-3.55-12.66,0,0-6.27h12.63Zm-10.52-1.91h8.38V68.1h-8.38Zm13,3.41v7.7h-8V74Zm-2.11,2-3.79,0v3.6l3.76,0Z" style="fill: #003869"/>
        </g>
        <g style="isolation: isolate">
          <polygon points="79.09 139.48 10.67 114.58 69.28 88.89 137.7 113.79 79.09 139.48" style="fill: #999"/>
          <polygon points="79.11 141.87 79.09 139.48 137.7 113.79 137.73 116.17 79.11 141.87" style="fill: #666766"/>
          <polygon points="10.7 116.97 10.67 114.58 79.09 139.48 79.11 141.87 10.7 116.97" style="fill: #4d4d4e"/>
        </g>
        <g>
          <path d="M106.13,104.51l-2.33,1.34h0l-2.31,1.34-.6.34c-1,.57-1.9,3.44-1.9,7.69l2.51-1.45.14.06-.06.18a1.1,1.1,0,0,0-.06.26,1.53,1.53,0,0,0,0,.3h0l-.18.11L98,116.57h0v0c0-5.16,1.12-8.65,2.32-9.34l11.58-6.69v8l-2.18,1.26h0a1.18,1.18,0,0,0,0-.27l-.06-.19h0a.57.57,0,0,0-.12-.18.63.63,0,0,0-.66-.15,1.17,1.17,0,0,0-.28.13,2.42,2.42,0,0,0-1,1.12h0l-.12.32-.06.26a1.51,1.51,0,0,0,0,.3h0l-.19.1-.17.11-3.25,1.87a2.13,2.13,0,0,0,0-.27,1.07,1.07,0,0,0-.07-.19h0a.57.57,0,0,0-.12-.18l-.09-.08.3-.07,2.32-1.33v-3.23l5.26-3v-3.4Z" style="fill: #8ac8d3"/>
          <path d="M111.92,100.51l-11.58,6.69-8.11-4.67,11.58-6.69Zm-4,.18h0v-.64h0a.38.38,0,0,0-.22-.34l-3.57-2.08a1.17,1.17,0,0,0-1.06,0l-5.89,3.42a.38.38,0,0,0-.22.32V102h0a.35.35,0,0,0,.22.3l3.52,2.09a1.17,1.17,0,0,0,1.06,0l5.94-3.43A.37.37,0,0,0,107.88,100.69Z" style="fill: #f7f0f8"/>
          <polygon points="111.39 101.47 111.39 104.87 106.13 107.88 106.13 104.51 111.39 101.47" style="fill: #6db3c5"/>
          <path d="M109.6,109.9V110a.09.09,0,0,0,0,.05,1466420864284,1466420864284,0,0,0,0,.12.13.13,0,0,1,0,.06s0,0,0,.06a2.25,2.25,0,0,1-.08.24s0,0,0,.06l-.27-.07a1,1,0,0,0,.09-.39v0h0a.63.63,0,0,0,0-.26.31.31,0,0,0-.12-.15.47.47,0,0,0-.48,0,1.4,1.4,0,0,0-.47.52h0a1.47,1.47,0,0,0-.1.22l-.26-.08c0-.06,0-.12.07-.17l0-.09h0L108,110a2,2,0,0,1,.25-.33,1.66,1.66,0,0,1,.39-.32l.06,0,.11,0a.68.68,0,0,1,.3-.05h.1l0,0,.06,0h0l0,0h0l.12.11,0,0a.56.56,0,0,1,.07.18A.77.77,0,0,1,109.6,109.9Z" style="fill: #f2fff3"/>
          <path d="M109.45,110.58l0,.12,0,.06,0,0-.14.22,0,.06-.07.09,0,.06-.08.08a1.62,1.62,0,0,1-.34.26l-.05,0-.12,0a.59.59,0,0,1-.47,0l0,0,0,0h0l0,0,0,0,0,0,0-.07,0,0a.14.14,0,0,1,0-.06l0,0v0a.51.51,0,0,1,0-.13h0V111h0a1.64,1.64,0,0,1,.11-.56l0-.09.26.08a.14.14,0,0,0,0,.07.84.84,0,0,0,0,.31h0v0a.39.39,0,0,0,.64.35,1.41,1.41,0,0,0,.56-.7Z" style="fill: #f2fff3"/>
          <path d="M108.86,109l.43.25-.06,0,0,0h-.1a.68.68,0,0,0-.3.05l-.11,0-.06,0a1.66,1.66,0,0,0-.39.32,2,2,0,0,0-.25.33.75.75,0,0,0-.07.12h0l0,.09a2,2,0,0,0-.1.26,1.64,1.64,0,0,0-.11.56h0v.09h0a.51.51,0,0,0,0,.13v0s0,0,0,0a.14.14,0,0,0,0,.06s0,0,0,0l0,.07,0,0,0,0,0,0h0l-.64-.36h0l.19-.1h0a1.51,1.51,0,0,1,0-.3l.06-.26.12-.32h0a2.42,2.42,0,0,1,1-1.12A1.17,1.17,0,0,1,108.86,109Z" style="fill: #78bbf4"/>
          <path d="M109.27,110.09h0v0a1,1,0,0,1-.09.39,1.41,1.41,0,0,1-.56.7.39.39,0,0,1-.64-.35v0h0a.84.84,0,0,1,0-.31.14.14,0,0,1,0-.07,1.47,1.47,0,0,1,.1-.22h0a1.4,1.4,0,0,1,.47-.52.47.47,0,0,1,.48,0,.31.31,0,0,1,.12.15A.63.63,0,0,1,109.27,110.09Z" style="fill: #78bbf4"/>
          <path d="M107.88,100.69h0a.37.37,0,0,1-.22.31l-5.94,3.43a1.17,1.17,0,0,1-1.06,0l-3.52-2.09a.35.35,0,0,1-.22-.3h0v-.66a.36.36,0,0,0,.21.3l3.53,2.09a1.14,1.14,0,0,0,1,0l6-3.43a.41.41,0,0,0,.22-.28h0Z" style="fill: #35a7bd"/>
          <path d="M107.66,99.71a.38.38,0,0,1,.22.34.41.41,0,0,1-.22.28l-6,3.43a1.14,1.14,0,0,1-1,0l-3.53-2.09a.36.36,0,0,1-.21-.3.38.38,0,0,1,.22-.32L103,97.63a1.17,1.17,0,0,1,1.06,0Z" style="fill: #f7f0f8"/>
          <polygon points="106.13 107.88 106.13 111.11 103.81 112.44 103.81 109.22 103.81 105.88 103.8 105.86 103.8 105.85 106.13 104.51 106.13 107.88" style="fill: #35a7bd"/>
          <path d="M103.81,109.22v3.22l-.3.07a.69.69,0,0,0-.57-.07l-.29.12a2.54,2.54,0,0,0-1,1.13h0l-.06.14-.14-.06v-3.23Z" style="fill: #8ac8d3"/>
          <polygon points="103.81 105.88 103.81 109.22 101.5 110.54 101.5 107.2 101.49 107.19 103.8 105.86 103.81 105.88" style="fill: #6db3c5"/>
          <path d="M103.68,113.33h0a1.8,1.8,0,0,1-.15.66l-.26-.07a1.19,1.19,0,0,0,.08-.4h0a.63.63,0,0,0,0-.26.31.31,0,0,0-.12-.15.45.45,0,0,0-.48,0,1.25,1.25,0,0,0-.47.52h0a1.89,1.89,0,0,0-.09.21l-.26-.07a1.23,1.23,0,0,1,.12-.26h0a2,2,0,0,1,.71-.77.68.68,0,0,1,.66-.08l0,0a.52.52,0,0,1,.16.17.75.75,0,0,1,.07.18A1.1,1.1,0,0,1,103.68,113.33Z" style="fill: #f7f0f8"/>
          <path d="M103.27,113.92l.26.07a2.12,2.12,0,0,1-.83,1,.65.65,0,0,1-.74,0,.72.72,0,0,1-.23-.59h0a1.84,1.84,0,0,1,.1-.56.36.36,0,0,1,0-.09l.26.07,0,.08a1.12,1.12,0,0,0,0,.31h0c0,.41.3.58.65.37A1.4,1.4,0,0,0,103.27,113.92Z" style="fill: #f7f0f8"/>
          <path d="M102.94,112.44l.42.25a.68.68,0,0,0-.66.08,2,2,0,0,0-.71.77h0a1.23,1.23,0,0,0-.12.26.36.36,0,0,0,0,.09,1.84,1.84,0,0,0-.1.56h0a.72.72,0,0,0,.23.59h0l-.64-.36h0l.18-.11h0a1.53,1.53,0,0,1,0-.3,1.1,1.1,0,0,1,.06-.26l.06-.18.06-.14h0a2.54,2.54,0,0,1,1-1.13l.29-.12Z" style="fill: #35a7bd"/>
          <path d="M103.35,113.52h0a1.19,1.19,0,0,1-.08.4,1.4,1.4,0,0,1-.57.71c-.35.21-.64,0-.65-.37h0a1.12,1.12,0,0,1,0-.31l0-.08a1.89,1.89,0,0,1,.09-.21h0a1.25,1.25,0,0,1,.47-.52.45.45,0,0,1,.48,0,.31.31,0,0,1,.12.15A.63.63,0,0,1,103.35,113.52Z" style="fill: #35a7bd"/>
          <path d="M101.5,110.54v3.23L99,115.22c0-4.25.92-7.12,1.9-7.69l.6-.34h0Z" style="fill: #35a7bd"/>
          <path d="M97.53,115v-.85c-.39,0-.72-.14-1-.15a1,1,0,0,0-.76.22h0s1.8,1,1.8,1Zm-6.93-3.76h0s1.63.92,1.63.92a1.84,1.84,0,0,0,0-.25c-.2-.7-.84-1-1.38-1.44l-.2-.18S90.61,111.14,90.6,111.23Zm1.63-8.7,8.11,4.67c-1.2.69-2.32,4.18-2.32,9.34v0l-8.1-4.69C89.91,106.71,91.07,103.2,92.23,102.53Zm7,5-6.93-4h0c-.83.8-1.41,3.39-1.63,5.33l6.93,4C97.53,110.92,98.48,107.9,99.18,107.48Z" style="fill: #8ac8d3"/>
          <path d="M92.25,103.49l6.93,4c-.7.42-1.65,3.44-1.65,5.33l-6.93-4c.22-1.94.8-4.53,1.63-5.33Z" style="fill: #6db3c5"/>
          <path d="M97.53,115v.25s-1.8-1-1.8-1h0l.4,0h0Z" style="fill: #35a7bd"/>
          <path d="M97.53,115l-1.4-.81h0a1.51,1.51,0,0,1,.36-.18c.32,0,.65.12,1,.15Z" style="fill: #f2fff3"/>
          <path d="M95.73,114.21a1,1,0,0,1,.76-.22,1.51,1.51,0,0,0-.36.18Z" style="fill: #35a7bd"/>
          <path d="M92.18,111.91a1.84,1.84,0,0,1,0,.25s-1.63-.91-1.63-.92h0l.2-.12Z" style="fill: #35a7bd"/>
          <path d="M92.18,111.91l-1.38-.8v-.64C91.34,110.92,92,111.21,92.18,111.91Z" style="fill: #f2fff3"/>
          <path d="M90.8,110.47v.64l-.2.12c0-.09,0-.94,0-.94Z" style="fill: #35a7bd"/>
        </g>
        <g>
          <path d="M155.54,144.15c1.64.94,2.06,1.18,1.24,1.77a14,14,0,0,1-1.24.76l-4.33,2.47a5.21,5.21,0,0,1-2.22,1h-.05a5.35,5.35,0,0,1-2.12-.94l-1.68-.94v0l.39-.65.12-.19.69.4.71.41h0l.36.21h0c1.57.94,1.53.88,3.49-.25l4.07-2.36a3.62,3.62,0,0,0,1.17-.85c.12-.24-.09-.45-.63-.78Z" style="fill: #6db3c5"/>
          <path d="M156.78,145.92h0l-.51,3c0-.59-.64-1.3-1.1-1.06l-.37.22-3.76,2.23a2.52,2.52,0,0,0-1,2.23h0l-1.13-2.4H149a5.21,5.21,0,0,0,2.22-1l4.33-2.47A14,14,0,0,0,156.78,145.92Z" style="fill: #48a6f6"/>
          <path d="M155.54,144.15c.54.33.75.54.63.78h0l-2.65-1.52-.1-.49,1.75,1h0Z" style="fill: #35a7bd"/>
          <path d="M156.13,144.92h0a3.62,3.62,0,0,1-1.17.85l-4.07,2.36c-2,1.13-1.92,1.19-3.49.25h0l-.36-.21.64,0c3.19,0,5.78-1.77,5.78-4a.76.76,0,0,0,0-.15,0,0,0,0,0,0,0c-.12-.31-.26-.61-.41-.91l.41.24Z" style="fill: #2798f8"/>
          <path d="M153.48,144.09a.76.76,0,0,1,0,.15c0,2.19-2.59,4-5.78,4l-.64,0h0l-.71-.41a12,12,0,0,0-.55-1.07,9.14,9.14,0,0,0,1.2.09c3.19,0,5.78-1.78,5.78-4v-.18h0c.1.17.2.34.29.51s.29.6.41.91A0,0,0,0,1,153.48,144.09Z" style="fill: #f7f0f8"/>
          <path d="M152.78,142.65h0v.18c0,2.18-2.59,4-5.78,4a9.14,9.14,0,0,1-1.2-.09,12.79,12.79,0,0,0-1-1.46,9.42,9.42,0,0,0,1.2.08c3.19,0,5.77-1.77,5.77-3.95v-.17h0A12,12,0,0,1,152.78,142.65Z" style="fill: #6db3c5"/>
          <path d="M151.76,141.19h0v.17c0,2.18-2.58,3.95-5.77,3.95a9.42,9.42,0,0,1-1.2-.08,19.73,19.73,0,0,0-2.14-2.25h0a29.26,29.26,0,0,0-3.21-2.52c-1.07-.74-2.09-1.37-3-1.87l-4.66-2.69,6.18-3.57h0l1.18,2-1.58.92-.19.55-.2.55-.09.26c1,1,2,1.92,2.92,2.71a3.57,3.57,0,0,0,2.24.71c1.61,0,2.92-.89,2.92-2a1.68,1.68,0,0,0-.69-1.29l-.35-.25h0c-.33-.24-.7-.49-1.1-.76-.23-.16-.48-.32-.74-.47L140,133.88h0l-1.18-2h0l4.7,2.71A30.46,30.46,0,0,1,151.76,141.19Zm-2.64.32a2.36,2.36,0,1,0-2.31,1.89A2.13,2.13,0,0,0,149.12,141.51Z" style="fill: #f7f0f8"/>
          <path d="M148.94,150.11l1.13,2.4L130.13,141l-.82-1.75h0l15.83,9,1.68.94A5.35,5.35,0,0,0,148.94,150.11Z" style="fill: #18a3f4"/>
          <path d="M146.81,139.61a1.93,1.93,0,1,1-2.32,1.9A2.13,2.13,0,0,1,146.81,139.61Z" style="fill: #18a3f4"/>
          <path d="M146.35,147.77l-.69-.4-.12.19-13.74-7.92v-1l11.65,6.74h0l2.33,1.35h0A12,12,0,0,1,146.35,147.77Z" style="fill: #f7f0f8"/>
          <path d="M145.8,146.7h0l-2.33-1.35h0L131.8,138.6v-.82h0l13,7.46h0A12.79,12.79,0,0,1,145.8,146.7Z" style="fill: #6db3c5"/>
          <polygon points="145.54 147.56 145.15 148.21 145.15 148.22 129.31 139.25 129.31 139.24 131.77 137.83 131.8 137.83 131.8 138.6 131.8 139.64 145.54 147.56" style="fill: #2798f8"/>
          <path d="M144.78,145.24h0l-13-7.46h0v-1L142.63,143h0A19.73,19.73,0,0,1,144.78,145.24Z" style="fill: #f7f0f8"/>
          <path d="M144.52,136.74a1.68,1.68,0,0,1,.69,1.29c0,1.11-1.31,2-2.92,2a3.57,3.57,0,0,1-2.24-.71c-1-.79-2-1.74-2.92-2.71l.09-.26,2.83,2.25a3.35,3.35,0,0,0,2,.68c1.42,0,2.56-.84,2.55-1.81a1.21,1.21,0,0,0-.45-1Z" style="fill: #8ac8d3"/>
          <path d="M144.62,137.47c0,1-1.13,1.78-2.55,1.81a3.35,3.35,0,0,1-2-.68l-2.83-2.25.2-.55,2.49,1.73a2.71,2.71,0,0,0,1.62.49c1.13,0,2-.66,2-1.43a1,1,0,0,0-.49-.87c.4.27.77.52,1.1.76h0A1.21,1.21,0,0,1,144.62,137.47Z" style="fill: #6db3c5"/>
          <path d="M143.55,136.59c0,.77-.89,1.41-2,1.43a2.71,2.71,0,0,1-1.62-.49l-2.49-1.73.19-.55,2.37,1.34a2.27,2.27,0,0,0,1.2.37c.84,0,1.52-.49,1.51-1.06a.72.72,0,0,0-.37-.65c.26.15.51.31.74.47A1,1,0,0,1,143.55,136.59Z" style="fill: #8ac8d3"/>
          <path d="M142.69,135.9c0,.57-.67,1-1.51,1.06a2.27,2.27,0,0,1-1.2-.37l-2.37-1.34,1.58-.92.28.49-.51.29,1.77,1,.92-.51-1-.58h0l-.68-1.15h0l2.36,1.37A.72.72,0,0,1,142.69,135.9Z" style="fill: #f7f0f8"/>
          <path d="M142.63,143l-10.83-6.25v-.83l4.66,2.69c.87.5,1.89,1.13,3,1.87A29.26,29.26,0,0,1,142.63,143Z" style="fill: #18a3f4"/>
          <polygon points="141.65 135.63 140.73 136.15 138.96 135.11 139.47 134.82 139.73 135.26 139.73 135.26 140.49 135.7 140.88 135.48 140.89 135.48 140.63 135.05 140.64 135.04 141.65 135.63" style="fill: #35a7bd"/>
          <polygon points="140.63 135.05 140.89 135.48 140.88 135.48 140.49 135.7 140.1 135.04 139.84 134.6 139.56 134.12 139.95 133.89 140.63 135.04 140.63 135.05" style="fill: #8ac8d3"/>
          <polygon points="140.1 135.04 140.49 135.7 139.73 135.26 139.73 135.26 139.47 134.82 139.19 134.33 139.56 134.12 139.84 134.6 140.1 135.04" style="fill: #6db3c5"/>
          <polygon points="138.77 131.88 139.95 133.89 139.56 134.12 137.53 130.66 137.62 130.71 137.97 130.51 138.77 131.88" style="fill: #8ac8d3"/>
          <polygon points="137.53 130.66 139.56 134.12 139.19 134.33 138.01 132.33 136.76 130.21 137.53 130.66" style="fill: #6db3c5"/>
          <polygon points="138.53 129.94 138.53 130.2 137.97 130.51 137.62 130.71 137.62 130.46 137.62 130.45 137.85 130.32 138.31 130.06 138.53 129.94 138.53 129.94" style="fill: #6db3c5"/>
          <polygon points="138.53 129.94 138.31 130.06 137.85 130.32 137.62 130.45 137.61 130.46 137.3 130.27 137.29 130.27 136.54 129.82 136.54 129.83 136.07 129.55 135.85 129.42 135.84 129.42 136.73 128.91 138.53 129.94" style="fill: #8ac8d3"/>
          <polygon points="137.62 130.46 137.62 130.71 137.53 130.66 136.76 130.21 135.85 129.68 135.85 129.42 136.07 129.55 136.54 129.83 137.29 130.27 137.3 130.27 137.61 130.46 137.62 130.45 137.62 130.46" style="fill: #35a7bd"/>
        </g>
        <g>
          <path d="M118.73,110.46V111a.37.37,0,0,1-.22.3l-12.8,7.44a1.17,1.17,0,0,1-1.06,0l-1.3-.75a.37.37,0,0,1-.22-.29v-.5a.38.38,0,0,0,.22.31l1.3.75a1.17,1.17,0,0,0,1.06,0l12.8-7.44A.37.37,0,0,0,118.73,110.46Z" style="fill: #35a7bd"/>
          <path d="M118.73,104.83v.48a.4.4,0,0,1-.22.31L116,107.1l-.81.47-3.82,2.22-.82.47-3.43,2v-.48l11.43-6.64A.4.4,0,0,0,118.73,104.83Z" style="fill: #35a7bd"/>
          <path d="M118.73,104.83a.4.4,0,0,1-.22.31l-11.43,6.64v-1.24l-1.29-.74,10.4-6a1.17,1.17,0,0,1,1.06,0l1.26.72A.4.4,0,0,1,118.73,104.83Z" style="fill: #f7f0f8"/>
          <path d="M118.51,110.16a.32.32,0,0,1,0,.61l-12.8,7.44a1.17,1.17,0,0,1-1.06,0l-1.3-.75a.38.38,0,0,1-.22-.31h0a.38.38,0,0,1,.22-.31l2.54-1.46v1c0,.15.18.28.4.28s.41-.13.41-.28v-1.5l3.82-2.2v1c0,.16.18.28.41.28s.4-.12.4-.28v-1.49l3.82-2.21v1c0,.16.19.28.41.28s.41-.12.41-.28v-1.47l.22-.13a1.23,1.23,0,0,1,1.06,0Z" style="fill: #8ac8d3"/>
          <path d="M116,109.56V111c0-.15-.18-.28-.41-.28s-.41.13-.41.28v-1Z" style="fill: #ecf7ee"/>
          <polygon points="115.97 107.1 115.97 109.56 115.15 110.03 115.15 107.57 115.15 107.57 115.96 107.09 115.97 107.1" style="fill: #f7f0f8"/>
          <path d="M115.56,110.75c.23,0,.41.13.41.28s-.18.28-.41.28-.41-.12-.41-.28S115.34,110.75,115.56,110.75Z" style="fill: #f7f0f8"/>
          <path d="M111.33,112.24v1.49c0-.15-.18-.27-.4-.27s-.41.12-.41.27v-1Z" style="fill: #f7f0f8"/>
          <polygon points="111.33 109.8 111.33 112.24 110.52 112.71 110.52 110.27 110.51 110.26 111.33 109.79 111.33 109.8" style="fill: #f7f0f8"/>
          <path d="M110.93,113.46c.22,0,.4.12.4.27s-.18.28-.4.28-.41-.12-.41-.28S110.7,113.46,110.93,113.46Z" style="fill: #f7f0f8"/>
          <polygon points="107.08 112.26 107.08 112.54 106.89 112.65 106.89 112.65 106.89 110.65 107.08 110.54 107.08 111.78 107.08 112.26" style="fill: #48a6f6"/>
          <polygon points="107.08 110.54 106.89 110.65 105.71 109.97 105.6 109.91 105.18 109.66 103.41 108.64 103.6 108.53 105.18 109.44 105.71 109.75 105.79 109.8 107.08 110.54" style="fill: #2798f8"/>
          <polygon points="106.89 110.65 106.89 112.65 106.7 112.55 106.64 112.51 106.22 112.27 103.87 110.91 103.41 110.65 103.41 108.64 105.18 109.66 105.6 109.91 105.71 109.97 106.89 110.65" style="fill: #8ac8d3"/>
          <path d="M106.7,114.91v1.5c0-.15-.18-.28-.41-.28s-.4.13-.4.28v-1Z" style="fill: #f7f0f8"/>
          <polygon points="106.7 112.55 106.7 114.91 105.89 115.38 105.89 112.95 106.64 112.51 106.7 112.55" style="fill: #f7f0f8"/>
          <path d="M106.64,112.51l-.75.44-.18.1a1.17,1.17,0,0,1-1.06,0l-1.3-.75a.36.36,0,0,1-.22-.29v-.49a.35.35,0,0,0,.22.3l1.3.75a1.17,1.17,0,0,0,1.06,0l.51-.3Z" style="fill: #35a7bd"/>
          <path d="M106.29,116.13c.23,0,.41.13.41.28s-.18.28-.41.28-.4-.13-.4-.28S106.07,116.13,106.29,116.13Z" style="fill: #f7f0f8"/>
          <path d="M106.22,112.27l-.51.3a1.17,1.17,0,0,1-1.06,0l-1.3-.75a.35.35,0,0,1-.22-.3h0a.37.37,0,0,1,.22-.31l.52-.3Z" style="fill: #f7f0f8"/>
          <path d="M105.71,109.36v.39l-.53-.31v-.08c0,.1.12.18.27.18S105.71,109.46,105.71,109.36Z" style="fill: #48a6f6"/>
          <path d="M105.45,109.17c.15,0,.26.09.26.19s-.11.18-.26.18-.26-.08-.27-.18h0C105.18,109.26,105.3,109.17,105.45,109.17Z" style="fill: #2798f8"/>
          <path d="M103.13,117.62v0Z" style="fill: #35a7bd"/>
        </g>
        <g>
          <path d="M127.24,115.55h0v.22l-.22.13-1.18.68a1.07,1.07,0,0,0-.07-.19l1.25-.72.21-.13Z" style="fill: #48a6f6"/>
          <path d="M127,115.43l.21.12-.21.13-1.25.72h0a.57.57,0,0,0-.12-.18l1.37-.79Z" style="fill: #18a3f4"/>
          <polygon points="122.39 110.84 127.02 113.52 126.44 113.85 125.86 114.19 125.86 114.19 123.54 112.85 121.23 111.51 122.39 110.84" style="fill: #8ac8d3"/>
          <path d="M127,113.52v1.91l-1.37.79a.63.63,0,0,0-.66-.15l-.29.12a2.56,2.56,0,0,0-1,1.12h0l-3.89,2.25a.67.67,0,0,0-.72-.13,1.58,1.58,0,0,0-.23.11,2.47,2.47,0,0,0-1,1.12l-1.36.79v-1l2.32-2.23,2.32-1.34,4.63-2.67h0l.58-.34Z" style="fill: #6db3c5"/>
          <path d="M127,115.91v.29l-1.15.66a1.12,1.12,0,0,0,0-.27Z" style="fill: #6db3c5"/>
          <path d="M119.75,117.26l-.22.39,5-3-1.26-1.48-.19.11-1.7,1Zm6.11-3.07-4.63,2.67-2.32,1.34,2.32-4,2.31-1.34h0Z" style="fill: #f7f0f8"/>
          <path d="M125.73,117h0a2,2,0,0,1-.14.66l-.27-.07a1.19,1.19,0,0,0,.08-.4h0a.63.63,0,0,0-.05-.26.31.31,0,0,0-.12-.15.45.45,0,0,0-.48,0,1.25,1.25,0,0,0-.47.52h0a2,2,0,0,0-.1.21l-.26-.07a1.23,1.23,0,0,1,.12-.26h0a2.07,2.07,0,0,1,.71-.78.72.72,0,0,1,.65-.08h0l0,0a.44.44,0,0,1,.16.17.48.48,0,0,1,.07.18A.77.77,0,0,1,125.73,117Z" style="fill: #f7f0f8"/>
          <path d="M125.32,117.55l.27.07a2.2,2.2,0,0,1-.84,1,.65.65,0,0,1-.74,0,.72.72,0,0,1-.23-.59h0a2,2,0,0,1,.1-.57.59.59,0,0,1,0-.08l.26.07a.24.24,0,0,0,0,.08.85.85,0,0,0-.06.31h0c0,.41.3.58.65.37A1.4,1.4,0,0,0,125.32,117.55Z" style="fill: #f7f0f8"/>
          <path d="M125.4,117.15h0a1.19,1.19,0,0,1-.08.4,1.4,1.4,0,0,1-.57.71c-.35.21-.64,0-.65-.37h0a.85.85,0,0,1,.06-.31.24.24,0,0,1,0-.08,2,2,0,0,1,.1-.21h0a1.25,1.25,0,0,1,.47-.52.45.45,0,0,1,.48,0,.31.31,0,0,1,.12.15A.63.63,0,0,1,125.4,117.15Z" style="fill: #35a7bd"/>
          <path d="M125,116.07l.41.24a.72.72,0,0,0-.65.08,2.07,2.07,0,0,0-.71.78h0a1.23,1.23,0,0,0-.12.26.59.59,0,0,0,0,.08,2,2,0,0,0-.1.57h0a.72.72,0,0,0,.23.59h0l-.64-.36v0l.18-.1h0a1.53,1.53,0,0,1,0-.3,2,2,0,0,1,.06-.26,2.19,2.19,0,0,1,.12-.33h0a2.56,2.56,0,0,1,1-1.12Z" style="fill: #35a7bd"/>
          <polygon points="123.32 113.22 124.58 114.7 124.23 114.64 123.15 113.37 123.13 113.33 123.32 113.22" style="fill: #35a7bd"/>
          <polygon points="124.58 114.7 119.53 117.64 119.75 117.26 124.23 114.64 124.58 114.7" style="fill: #35a7bd"/>
          <polygon points="123.15 113.37 124.23 114.64 119.75 117.26 121.43 114.31 123.13 113.33 123.15 113.37" style="fill: #6db3c5"/>
          <path d="M119.86,119.56l3.89-2.25a2.19,2.19,0,0,0-.12.33L120,119.75A.76.76,0,0,0,119.86,119.56Z" style="fill: #18a3f4"/>
          <path d="M120,119.75l3.65-2.11a2,2,0,0,0-.06.26l-3.53,2A.64.64,0,0,0,120,119.75Z" style="fill: #48a6f6"/>
          <path d="M120,119.93l3.53-2a1.53,1.53,0,0,0,0,.3h0l-.18.1-3.29,1.91A1.27,1.27,0,0,0,120,119.93Z" style="fill: #6db3c5"/>
          <path d="M123.54,112.85l-2.31,1.34L115.62,111l2.25-1.37Zm-3.19-.8-.47-.81-.92-.53-.46.27-.47.8,1.38.8h0Z" style="fill: #f7f0f8"/>
          <path d="M115.83,111.51l-1.94,3.35v0l4.85,2.8,2-3.36Zm5.4,2.68-2.32,4-5.6-3.23,2.31-4Z" style="fill: #f7f0f8"/>
          <polygon points="120.7 114.32 118.75 117.68 113.9 114.88 113.89 114.86 115.83 111.5 120.7 114.32" style="fill: #6db3c5"/>
          <polygon points="119.88 111.25 120.35 112.05 119.41 112.58 119.41 112.58 119.41 112.58 119.42 111.51 119.88 111.25" style="fill: #48a6f6"/>
          <polygon points="119.88 111.25 119.42 111.51 118.5 110.98 118.96 110.71 119.88 111.25" style="fill: #f2fff3"/>
          <path d="M119.88,120.32h0a1.78,1.78,0,0,1-.14.66l-.26-.08a1.12,1.12,0,0,0,.07-.4h0a.53.53,0,0,0,0-.26.33.33,0,0,0-.12-.14.43.43,0,0,0-.47,0,1.35,1.35,0,0,0-.48.52h0a2,2,0,0,0-.1.21l-.26-.08,0-.08a.89.89,0,0,1,.08-.17h0a2,2,0,0,1,.72-.78.74.74,0,0,1,.66-.08l.05,0a.7.7,0,0,1,.23.35A1.12,1.12,0,0,1,119.88,120.32Z" style="fill: #f7f0f8"/>
          <path d="M119.48,120.9l.26.08a2.12,2.12,0,0,1-.83,1,.65.65,0,0,1-.74,0,.71.71,0,0,1-.24-.59h0a1.64,1.64,0,0,1,.11-.56l0-.09.26.08s0,0,0,.07a1.25,1.25,0,0,0,0,.32h0c0,.41.29.58.65.37A1.43,1.43,0,0,0,119.48,120.9Z" style="fill: #f7f0f8"/>
          <path d="M119.14,119.43l.43.24a.74.74,0,0,0-.66.08,2,2,0,0,0-.72.78h0a.89.89,0,0,0-.08.17l0,.08,0,.09a1.64,1.64,0,0,0-.11.56h0a.71.71,0,0,0,.24.59h0l-.63-.35h0l.23-.12h0c0-.09,0-.2,0-.3l.06-.25c0-.11.08-.22.12-.33a2.47,2.47,0,0,1,1-1.12A1.58,1.58,0,0,1,119.14,119.43Z" style="fill: #35a7bd"/>
          <path d="M119.55,120.5h0a1.12,1.12,0,0,1-.07.4,1.43,1.43,0,0,1-.57.72c-.36.21-.65,0-.65-.37h0a1.25,1.25,0,0,1,0-.32s0-.05,0-.07a2,2,0,0,1,.1-.21h0a1.35,1.35,0,0,1,.48-.52.43.43,0,0,1,.47,0,.33.33,0,0,1,.12.14A.53.53,0,0,1,119.55,120.5Z" style="fill: #35a7bd"/>
          <polygon points="119.42 111.51 119.41 112.58 118.03 111.78 118.5 110.98 119.42 111.51" style="fill: #18a3f4"/>
          <polygon points="118.91 118.2 116.59 120.43 113.04 118.38 110.99 117.19 113.31 114.97 118.91 118.2" style="fill: #8ac8d3"/>
          <path d="M118.19,120.53a.89.89,0,0,0-.08.17A.89.89,0,0,1,118.19,120.53Z" style="fill: #35a7bd"/>
          <path d="M116.59,121.45l1.36-.79c0,.11-.09.22-.12.33l-1.24.72h0Z" style="fill: #18a3f4"/>
          <path d="M116.59,121.71l1.24-.72-.06.25-1.18.68h0Z" style="fill: #48a6f6"/>
          <path d="M116.59,121.92l1.18-.68c0,.1,0,.21,0,.3h0l-.23.12-.93.49Z" style="fill: #6db3c5"/>
          <polygon points="116.59 121.92 116.59 122.16 110.99 118.89 110.99 118.69 116.59 121.92 116.59 121.92" style="fill: #8ac8d3"/>
          <polygon points="116.59 121.71 116.59 121.92 110.99 118.69 110.59 118.46 110.59 118.24 110.59 118.23 110.99 118.46 116.59 121.7 116.59 121.71" style="fill: #18a3f4"/>
          <polygon points="116.59 121.45 116.59 121.7 110.99 118.46 110.59 118.23 110.59 118.23 110.99 118 110.99 118.22 116.59 121.45" style="fill: #2798f8"/>
          <path d="M115.2,120.49h0s1.25.71,1.25.71v-.72l-1.1-.63-.15-.08S115.21,120.41,115.2,120.49ZM111,118v-.81h0l2.05,1.19,3.55,2.05v1l-5.6-3.23V118Zm1.43.89v-.72l-1.09-.63-.15-.09s0,.64,0,.72h0Z" style="fill: #8ac8d3"/>
          <path d="M116.45,121v.17s-1.25-.7-1.25-.71h0l.15-.09Z" style="fill: #35a7bd"/>
          <path d="M116.45,120.49V121l-1.1-.64v-.53h0Z" style="fill: #f7f0f8"/>
          <path d="M115.35,119.86h0v.53l-.15.09c0-.08,0-.71,0-.71Z" style="fill: #35a7bd"/>
          <path d="M112.42,118.71v.18l-1.24-.71h0l.15-.09Z" style="fill: #35a7bd"/>
          <path d="M112.42,118.17v.54l-1.09-.63v-.54h0Z" style="fill: #f7f0f8"/>
          <path d="M111.33,117.54h0v.54l-.15.09c0-.08,0-.72,0-.72Z" style="fill: #35a7bd"/>
        </g>
        <g>
          <path d="M133,152.8c2.15,1.25,2,1.33-.41,2.73h0l-1.09.63-.42.24-.41.24-3,1.74-.41.24-.42.24-3,1.76-.41.23-.41.24h0c-2,1.17-2.27,1.17-4.29,0l-.41-.25h0l-.39-.23-4.31-2.49-.42-.24-.41-.24-5.61-3.24-.41-.24-.41-.23L99.41,150l-.42-.24-.41-.24-5.21-3-.42-.25-.41-.23-5.62-3.25-.42-.24-.41-.24h0V141.2l1.32.75h0l5.14,3,1.26.73h0l5.19,3,1.26.73,5.11,3,1.26.72,5.19,3,1.26.73,5.13,3c2.56,1.48,2.56,1.48,5.13,0h0l2.57-1.48,2.57-1.48,2.56-1.48,1-.56c.64-.4,1-.66,1-.92h0Z" style="fill: #18a3f4"/>
          <path d="M133,153.81h0c0,.26-.32.52-1,.92l-1,.56v-5.93h0c1.27-.74,1.9-1.11,1.9-1.47v5.92Z" style="fill: #8ac8d3"/>
          <path d="M133,147.89c0,.36-.63.73-1.9,1.47h0l-2.57,1.49-2.57,1.48-2.56,1.48h0a6,6,0,0,1-2.57,1.1,5.93,5.93,0,0,1-2.56-1.1h0l-4.64-2.68-.48-.27-1.27-.73-4.7-2.71-.48-.28-1.26-.73h0l1-.56,11.86,6.85c2.57,1.48,2.57,1.48,5.14,0l5.77-3.33c1.31-.75,2-1.12,1.93-1.5v-.76c0-.37-.62-.74-1.93-1.5l-11.18-6.44.28-.16.28.16.23.13,1.86,1.08,10.46,6C132.31,147.14,133,147.51,133,147.89Z" style="fill: #2798f8"/>
          <polygon points="131.45 156.16 131.45 158.01 131.04 158.26 131.04 156.4 131.03 156.4 131.45 156.16 131.45 156.16" style="fill: #6db3c5"/>
          <path d="M131.05,149.36h0v1.9l-2.58,1.49v-1.89h0l2.57-1.49h0Z" style="fill: #6db3c5"/>
          <polygon points="131.05 151.26 131.04 152.32 131.03 152.32 131.03 152.33 128.47 153.81 128.47 152.75 131.05 151.26" style="fill: #8ac8d3"/>
          <polygon points="131.04 152.32 131.03 155.29 128.47 156.77 128.47 153.81 131.03 152.33 131.03 152.32 131.04 152.32" style="fill: #6db3c5"/>
          <polygon points="131.04 156.4 131.04 158.26 130.63 158.02 130.63 158.01 130.63 156.64 130.62 156.64 131.03 156.4 131.04 156.4" style="fill: #35a7bd"/>
          <path d="M131,147.86c0,.38-.62.75-1.93,1.5l-5.77,3.33c-2.57,1.48-2.57,1.48-5.14,0l-11.86-6.85v-.79l11.87,6.85c2.56,1.48,2.56,1.48,5.13,0l5.77-3.33c1.27-.74,1.91-1.11,1.93-1.47Z" style="fill: #35a7bd"/>
          <path d="M129.1,145.6c1.31.76,2,1.13,1.93,1.5s-.66.73-1.93,1.47l-5.77,3.33c-2.57,1.48-2.57,1.48-5.13,0l-11.87-6.85h0l.48-.28.68.4h0l10.71,6.17h0c2.56,1.48,2.56,1.48,5.13,0l4.81-2.77a14.29,14.29,0,0,0,1.64-1c.69-.6.14-.91-1.64-1.94l-11.38-6.57h0l.48-.28.68.4Z" style="fill: #8ac8d3"/>
          <path d="M128.14,145.62c1.78,1,2.33,1.34,1.64,1.94a6.08,6.08,0,0,0-1.87-1.29h0l-9.26-5.33-1.9-1.1h0v-.78Z" style="fill: #6db3c5"/>
          <path d="M127.91,146.27a6.08,6.08,0,0,1,1.87,1.29,14.29,14.29,0,0,1-1.64,1l-4.81,2.77c-2.57,1.48-2.57,1.48-5.13,0h0l-10.71-6.17,9.26-5.33h0l1.9,1.1,9.26,5.33Z" style="fill: #f7f0f8"/>
          <polygon points="128.47 153.81 128.47 156.77 125.9 158.25 125.89 158.25 125.89 155.29 128.47 153.81" style="fill: #8ac8d3"/>
          <polygon points="128.47 152.75 128.47 153.81 125.89 155.29 125.89 154.24 128.47 152.75" style="fill: #8ac8d3"/>
          <polygon points="128.47 150.86 128.47 152.75 125.89 154.24 125.89 152.33 128.46 150.85 128.47 150.86" style="fill: #8ac8d3"/>
          <polygon points="127.61 158.39 127.61 160.24 127.19 160.49 127.19 158.63 127.19 158.62 127.6 158.38 127.61 158.39" style="fill: #6db3c5"/>
          <polygon points="127.19 158.63 127.19 160.49 126.78 160.25 126.78 160.24 126.78 158.87 126.77 158.86 127.19 158.62 127.19 158.63" style="fill: #35a7bd"/>
          <path d="M125.9,158.25l-2.57,1.48h0v-2.94h0l2.56-1.48v3Z" style="fill: #6db3c5"/>
          <path d="M125.89,154.24v1l-2.56,1.48h0v-1.06h0Z" style="fill: #8ac8d3"/>
          <polygon points="125.89 152.33 125.89 154.24 123.33 155.72 123.33 155.72 123.33 153.81 123.33 153.81 123.33 153.81 123.33 153.81 125.89 152.33" style="fill: #6db3c5"/>
          <polygon points="123.74 160.63 123.74 162.48 123.33 162.74 123.33 160.87 123.32 160.85 123.73 160.62 123.74 160.63" style="fill: #6db3c5"/>
          <path d="M123.33,159.72h0c-2.57,1.48-2.57,1.48-5.13,0v-3c2.56,1.48,2.56,1.48,5.13,0Z" style="fill: #8ac8d3"/>
          <polygon points="123.33 160.87 123.33 162.74 122.91 162.5 122.91 162.48 122.91 161.09 123.32 160.85 123.33 160.87" style="fill: #35a7bd"/>
          <path d="M123.33,155.74v1c-2.57,1.47-2.57,1.47-5.13,0v-1C120.76,157.21,120.76,157.21,123.33,155.74Z" style="fill: #8ac8d3"/>
          <path d="M123.33,155.72v0c-2.57,1.47-2.57,1.47-5.13,0v-1.93a5.93,5.93,0,0,0,2.56,1.1,6,6,0,0,0,2.57-1.1h0Z" style="fill: #8ac8d3"/>
          <path d="M118.62,161.1h0v1.37l-.42.26v-1.87h0Z" style="fill: #6db3c5"/>
          <polygon points="118.57 135.81 118.57 136.27 118.2 136.49 115.64 137.97 115.16 138.26 114.47 138.65 105.37 143.94 105.37 143.6 105.37 143.46 114.18 138.35 114.19 138.35 114.87 137.96 115.36 137.67 118.57 135.81" style="fill: #48a6f6"/>
          <polygon points="118.57 135.81 115.36 137.67 114.87 137.96 114.19 138.35 114.18 138.35 105.37 143.46 105.36 143.46 99.55 140.08 108.34 134.98 109.02 134.58 109.51 134.3 109.78 134.14 112.73 132.43 118.57 135.81" style="fill: #f7f0f8"/>
          <path d="M118.21,160.85h0v1.87l-.41-.25h0v-1.85l.39.23Z" style="fill: #35a7bd"/>
          <polygon points="118.2 138.98 118.2 138.99 118.2 139 117.92 139.16 117.23 138.76 116.76 139.04 116.76 139.04 116.76 139.05 116.76 139.83 116.75 139.83 116.75 139.84 107.5 145.16 107.49 145.16 106.81 144.77 106.33 145.05 106.33 145.05 106.33 145.05 106.33 145.84 105.37 146.4 105.37 146.4 105.36 146.4 105.36 146.4 105.37 145.13 105.37 144.24 105.37 143.94 114.47 138.65 115.16 138.26 115.64 137.97 118.2 136.49 118.2 138.98" style="fill: #6db3c5"/>
          <polygon points="118.2 156.77 118.2 159.74 113.07 156.78 113.07 153.81 118.2 156.77" style="fill: #35a7bd"/>
          <path d="M118.2,155.74v1l-5.13-3v-1h0l5.12,3Z" style="fill: #8ac8d3"/>
          <path d="M118.2,155.18v.56h0l-5.12-3,.48-.27h0l4.64,2.68Z" style="fill: #35a7bd"/>
          <polygon points="118.2 153.81 118.2 155.18 118.19 155.18 113.55 152.5 113.55 151.14 113.56 151.12 118.2 153.8 118.2 153.81" style="fill: #f7f0f8"/>
          <polygon points="113.56 151.12 113.55 151.14 113.55 152.5 113.55 152.51 113.07 152.78 113.07 152.78 113.07 150.87 113.08 150.85 113.56 151.12" style="fill: #6db3c5"/>
          <polygon points="113.49 158.13 113.48 158.13 113.48 159.5 113.07 159.76 113.07 157.9 113.07 157.89 113.49 158.13" style="fill: #6db3c5"/>
          <polygon points="113.08 150.85 113.07 150.87 113.07 152.78 111.81 152.06 111.81 151.5 111.81 150.13 111.81 150.12 113.08 150.85" style="fill: #8ac8d3"/>
          <polygon points="113.07 157.89 113.07 157.9 113.07 159.76 112.65 159.52 112.65 159.5 112.65 157.66 112.66 157.65 113.07 157.89" style="fill: #35a7bd"/>
          <polygon points="113.07 153.81 113.07 156.78 111.81 156.05 111.81 155.02 111.81 154.46 111.81 153.08 113.07 153.81" style="fill: #8ac8d3"/>
          <polygon points="113.07 152.78 113.07 153.81 111.81 153.08 111.81 152.06 113.07 152.78" style="fill: #8ac8d3"/>
          <polygon points="111.81 150.12 111.81 150.13 111.81 151.5 107.1 148.79 107.1 147.42 107.11 147.41 111.81 150.12" style="fill: #f7f0f8"/>
          <polygon points="111.81 155.02 111.81 156.05 106.62 153.06 106.62 152.03 111.81 155.02" style="fill: #8ac8d3"/>
          <polygon points="111.81 154.46 111.81 155.02 106.62 152.03 106.62 152.02 107.1 151.75 111.81 154.46" style="fill: #35a7bd"/>
          <polygon points="111.81 153.08 111.81 154.46 107.1 151.75 107.1 150.38 107.1 150.37 111.81 153.08" style="fill: #f7f0f8"/>
          <polygon points="111.81 152.06 111.81 153.08 107.1 150.37 106.62 150.1 106.62 149.07 111.81 152.06" style="fill: #8ac8d3"/>
          <polygon points="111.81 151.5 111.81 152.06 106.62 149.07 107.1 148.79 107.1 148.79 111.81 151.5" style="fill: #35a7bd"/>
          <polygon points="109.78 134.14 109.51 134.3 97.16 127.18 98.31 122.68 98.31 121.9 98.44 121.66 100.23 122.69 98.94 127.89 100.23 128.63 109.78 134.14" style="fill: #2798f8"/>
          <polygon points="109.51 134.3 109.02 134.58 96.47 127.34 97.61 122.89 97.79 122.17 95.1 120.66 95.1 120.66 95.1 120.66 74.95 132.33 75.67 132.74 77.13 133.58 86.08 132.82 99.54 140.58 100.24 140.99 100.24 141.55 86.08 133.38 77.14 134.14 77.14 134.14 73.94 132.3 95.1 120.05 95.1 120.05 98.3 121.89 98.31 121.9 96.98 127.07 97.15 127.17 97.16 127.18 109.51 134.3" style="fill: #8ac8d3"/>
          <polygon points="109.02 134.58 108.34 134.98 96.47 128.13 96.47 127.34 109.02 134.58" style="fill: #6db3c5"/>
          <polygon points="108.34 134.98 99.55 140.08 99.55 140.57 99.54 140.58 86.08 132.82 77.13 133.58 75.67 132.74 95.1 121.48 95.1 121.48 97.61 122.89 96.47 127.34 96.47 128.13 108.34 134.98" style="fill: #f7f0f8"/>
          <polygon points="107.11 147.41 107.1 147.42 107.1 148.79 107.1 148.79 106.62 149.07 106.62 147.14 106.63 147.13 107.11 147.41" style="fill: #6db3c5"/>
          <polygon points="107.1 150.37 107.1 150.38 107.1 151.75 106.62 152.02 106.62 150.1 107.1 150.37" style="fill: #6db3c5"/>
          <polygon points="107.05 154.41 107.03 154.45 107.03 155.82 106.61 156.07 106.61 154.21 106.64 154.18 107.05 154.41" style="fill: #6db3c5"/>
          <polygon points="106.64 154.18 106.61 154.21 106.61 156.07 106.2 155.82 106.2 155.82 106.2 153.98 106.23 153.94 106.64 154.18" style="fill: #35a7bd"/>
          <polygon points="106.63 147.13 106.62 147.14 106.62 149.07 106.62 150.1 105.36 149.37 105.36 148.82 105.36 146.4 105.37 146.4 106.63 147.13" style="fill: #8ac8d3"/>
          <polygon points="106.62 152.03 106.62 153.06 105.36 152.34 105.36 151.76 105.36 149.37 106.62 150.1 106.62 152.02 106.62 152.03 106.62 152.03" style="fill: #8ac8d3"/>
          <polygon points="105.37 144.24 105.37 145.13 105.36 146.4 100.73 143.72 100.24 143.45 100.24 142.32 100.24 141.55 100.24 140.99 105.36 143.94 105.37 143.94 105.37 144.24" style="fill: #35a7bd"/>
          <polygon points="105.37 143.6 105.37 143.94 105.36 143.94 100.24 140.99 99.54 140.58 99.55 140.57 99.55 140.08 105.36 143.46 105.37 143.46 105.37 143.6" style="fill: #18a3f4"/>
          <polygon points="105.36 146.4 105.36 146.4 105.36 148.82 105.35 148.82 100.73 146.15 100.73 143.73 100.73 143.72 105.36 146.4" style="fill: #f7f0f8"/>
          <polygon points="105.36 151.76 105.36 152.34 100.25 149.38 100.25 149.37 100.73 149.09 105.35 151.76 105.36 151.76" style="fill: #35a7bd"/>
          <polygon points="105.36 149.37 105.36 151.76 105.35 151.76 100.73 149.09 100.73 146.69 105.36 149.37" style="fill: #f7f0f8"/>
          <polygon points="105.36 148.82 105.36 149.37 100.73 146.69 100.26 146.42 100.73 146.15 105.35 148.82 105.36 148.82" style="fill: #35a7bd"/>
          <polygon points="100.73 143.72 100.73 143.73 100.73 146.15 100.26 146.42 100.25 146.41 100.25 146.41 100.25 143.46 100.24 143.46 100.24 143.45 100.73 143.72" style="fill: #6db3c5"/>
          <polygon points="100.73 146.69 100.73 149.09 100.25 149.37 100.25 146.44 100.25 146.43 100.26 146.42 100.73 146.69" style="fill: #6db3c5"/>
          <polygon points="100.25 149.37 100.25 149.38 98.99 148.65 98.99 147.74 98.99 147.62 98.99 147.25 98.99 147.06 98.99 146.04 98.99 145.69 100.25 146.41 100.25 146.43 100.25 146.44 100.25 149.37" style="fill: #8ac8d3"/>
          <polygon points="100.25 146.41 100.25 146.41 98.99 145.69 98.99 145.35 98.99 144.65 98.99 144.1 98.99 142.72 100.24 143.45 100.24 143.46 100.25 143.46 100.25 146.41" style="fill: #8ac8d3"/>
          <polygon points="100.24 142.32 100.24 143.45 98.99 142.72 94.28 140 93.8 139.73 92.54 139 87.88 136.31 87.39 136.03 86.08 135.28 77.14 136.03 72 133.07 95.1 119.73 98.44 121.66 98.31 121.9 98.3 121.89 95.1 120.05 95.1 120.05 73.94 132.3 73.94 133.09 77.14 134.92 77.14 134.92 86.08 134.17 86.09 134.17 100.24 142.32" style="fill: #2798f8"/>
          <polygon points="100.24 141.55 100.24 142.32 86.09 134.17 86.08 134.16 86.08 133.38 100.24 141.55" style="fill: #35a7bd"/>
          <polygon points="100.23 122.69 100.23 128.63 98.94 127.89 100.23 122.69" style="fill: #6db3c5"/>
          <polygon points="99.41 150 99.4 150.01 99.4 151.38 98.98 151.63 98.98 149.77 98.99 149.76 99.41 150" style="fill: #6db3c5"/>
          <polygon points="98.99 149.76 98.98 149.77 98.98 151.63 98.57 151.39 98.57 151.38 98.57 149.54 98.58 149.52 98.99 149.76" style="fill: #35a7bd"/>
          <polygon points="98.99 147.74 98.99 148.65 93.8 145.66 93.8 145.65 93.8 144.62 98.98 147.62 98.99 147.62 98.99 147.74" style="fill: #8ac8d3"/>
          <polygon points="98.99 147.25 98.99 147.62 98.98 147.62 93.8 144.62 94.28 144.34 98.98 147.06 98.99 147.06 98.99 147.25" style="fill: #35a7bd"/>
          <polygon points="98.99 146.04 98.99 147.06 98.98 147.06 94.28 144.34 94.28 142.98 94.28 142.97 98.99 145.69 98.99 146.04" style="fill: #f7f0f8"/>
          <polygon points="98.99 145.35 98.99 145.69 94.28 142.97 93.8 142.69 93.8 141.66 93.8 141.66 98.98 144.65 98.99 144.65 98.99 145.35" style="fill: #8ac8d3"/>
          <polygon points="98.99 144.1 98.99 144.65 98.98 144.65 93.8 141.66 94.28 141.39 94.28 141.38 98.98 144.1 98.99 144.1" style="fill: #35a7bd"/>
          <polygon points="98.99 142.72 98.99 144.1 98.98 144.1 94.28 141.38 94.28 140.02 94.28 140 98.99 142.72" style="fill: #f7f0f8"/>
          <polygon points="98.31 121.9 98.31 122.68 97.16 127.18 97.15 127.17 96.98 127.07 98.31 121.9" style="fill: #6db3c5"/>
          <polygon points="97.79 122.17 97.61 122.89 95.1 121.48 95.1 121.48 95.1 120.66 95.1 120.66 95.1 120.66 97.79 122.17" style="fill: #6db3c5"/>
          <polygon points="95.1 120.66 95.1 121.48 75.67 132.74 74.95 132.33 95.1 120.66" style="fill: #6db3c5"/>
          <polygon points="94.28 140 94.28 140.02 94.28 141.38 94.28 141.39 93.8 141.66 93.8 141.65 93.8 139.75 93.8 139.73 94.28 140" style="fill: #6db3c5"/>
          <polygon points="94.28 142.97 94.28 142.98 94.28 144.34 93.8 144.62 93.8 142.69 94.28 142.97" style="fill: #6db3c5"/>
          <polygon points="93.8 139.73 93.8 139.75 93.8 141.65 92.54 140.93 92.54 140.36 92.54 139.01 92.54 139 93.8 139.73" style="fill: #8ac8d3"/>
          <polygon points="93.8 144.62 93.8 145.65 92.54 144.93 92.54 141.96 93.8 142.69 93.8 144.62" style="fill: #8ac8d3"/>
          <polygon points="93.8 141.66 93.8 142.69 92.54 141.96 92.54 140.93 93.8 141.65 93.8 141.66" style="fill: #8ac8d3"/>
          <polygon points="93.37 146.51 93.36 146.52 93.36 147.9 92.95 148.15 92.95 146.29 92.95 146.27 93.37 146.51" style="fill: #6db3c5"/>
          <polygon points="92.95 146.27 92.95 146.29 92.95 148.15 92.54 147.91 92.54 147.9 92.54 146.06 92.55 146.04 92.95 146.27" style="fill: #35a7bd"/>
          <polygon points="92.54 139 92.54 139.01 92.54 140.36 87.88 137.68 87.88 136.31 92.54 139" style="fill: #f7f0f8"/>
          <polygon points="92.54 141.96 92.54 144.93 87.39 141.96 87.39 141.95 87.39 139 92.54 141.96" style="fill: #35a7bd"/>
          <polygon points="92.54 140.93 92.54 141.96 87.39 139 87.39 137.96 92.54 140.93" style="fill: #8ac8d3"/>
          <polygon points="92.54 140.36 92.54 140.93 87.39 137.96 87.39 137.96 87.88 137.68 87.88 137.68 92.54 140.36" style="fill: #35a7bd"/>
          <polygon points="87.88 137.68 87.88 137.68 87.39 137.96 87.39 136.03 87.88 136.31 87.88 137.68" style="fill: #6db3c5"/>
          <polygon points="87.39 139 87.39 141.95 86.08 141.2 86.08 138.25 86.08 138.24 87.39 139" style="fill: #8ac8d3"/>
          <polygon points="87.39 137.96 87.39 139 86.08 138.24 86.08 137.21 86.08 137.21 87.39 137.96" style="fill: #8ac8d3"/>
          <polygon points="87.39 137.96 87.39 137.96 86.08 137.21 86.08 135.28 87.39 136.03 87.39 137.96" style="fill: #8ac8d3"/>
          <polygon points="86.92 142.79 86.91 142.8 86.91 144.16 86.5 144.42 86.5 142.56 86.5 142.55 86.92 142.79" style="fill: #6db3c5"/>
          <polygon points="86.5 142.55 86.5 142.56 86.5 144.42 86.08 144.18 86.08 144.16 86.08 142.32 86.09 142.31 86.5 142.55" style="fill: #35a7bd"/>
          <polygon points="86.09 134.17 86.08 134.17 77.14 134.92 77.14 134.92 77.14 134.14 77.14 134.14 86.08 133.38 86.08 134.16 86.09 134.17" style="fill: #35a7bd"/>
          <polygon points="86.08 141.2 86.08 142.31 83.38 141.43 86.08 141.2" style="fill: #18a3f4"/>
          <polygon points="86.08 138.25 86.08 141.2 83.38 141.43 77.14 141.96 77.14 139 86.08 138.25 86.08 138.25" style="fill: #6db3c5"/>
          <polygon points="86.08 138.24 86.08 138.25 86.08 138.25 77.14 139 77.14 137.97 77.14 137.96 86.08 137.21 86.08 137.21 86.08 138.24" style="fill: #8ac8d3"/>
          <polygon points="86.08 137.21 86.08 137.21 86.08 137.21 77.14 137.96 77.14 136.03 86.08 135.28 86.08 137.21" style="fill: #6db3c5"/>
          <polygon points="77.14 139 77.14 141.96 72 139 72 136.04 77.13 138.99 77.14 139 77.14 139" style="fill: #35a7bd"/>
          <polygon points="77.14 137.97 77.14 139 77.14 139 77.13 138.99 72 136.04 72 135.02 77.14 137.97" style="fill: #8ac8d3"/>
          <polygon points="77.14 137.96 77.14 137.97 72 135.02 72 133.07 77.14 136.03 77.14 137.96" style="fill: #35a7bd"/>
          <polygon points="77.14 134.14 77.14 134.92 73.94 133.09 73.94 132.3 77.14 134.14" style="fill: #35a7bd"/>
        </g>
        <g>
          <path d="M140.57,104.44a4.16,4.16,0,0,1-3.95,4.66,5,5,0,0,1-3.26-.85c1.72-2.23,3.88-5.06,3.88-5.06l-.77-.68a7.35,7.35,0,0,0,.75-1.72A4.63,4.63,0,0,1,140.57,104.44Z" style="fill: #68bd9e"/>
          <path d="M137.49,98.15a7.45,7.45,0,0,1-.27,2.64,5,5,0,0,0-1.85-.18,4.15,4.15,0,0,0-3.94,4.67,3.4,3.4,0,0,0,.17.7l-.38.07-.23-3-1.53,0s.09,1.34.21,3.1a8,8,0,0,1-.34-15.93A8.18,8.18,0,0,1,137.49,98.15Z" style="fill: #68bd9e"/>
          <path d="M136.47,102.51l.77.68s-2.16,2.83-3.88,5.06a4.72,4.72,0,0,1-.86-.74c.82-1.08,1.75-2.28,2.5-3.24A7.29,7.29,0,0,0,136.47,102.51Z" style="fill: #68bd9e"/>
          <path d="M137.22,100.79a7.35,7.35,0,0,1-.75,1.72l-.07-.05-1.4,1.81a7.72,7.72,0,0,1-3.4,1.71,3.4,3.4,0,0,1-.17-.7,4.15,4.15,0,0,1,3.94-4.67A5,5,0,0,1,137.22,100.79Z" style="fill: #68bd9e"/>
          <path d="M136.4,102.46l.07.05a7.29,7.29,0,0,1-1.47,1.76Z" style="fill: #68bd9e"/>
          <path d="M135,104.27c-.75,1-1.68,2.16-2.5,3.24a4.39,4.39,0,0,1-.9-1.53A7.72,7.72,0,0,0,135,104.27Z" style="fill: #68bd9e"/>
          <path d="M132.5,107.51a4.72,4.72,0,0,0,.86.74c-.76,1-1.44,1.86-1.8,2.32,0-.55-.08-1.12-.13-1.69Z" style="fill: #eaac8f"/>
          <path d="M131.56,110.57c.15,2,.27,3.65.26,3.84-.07.37-1.06.62-1.53,0,0-.19-.16-2-.31-4.08l.46,0c0,.51.62.77.84.58A3.44,3.44,0,0,0,131.56,110.57Z" style="fill: #eaac8f"/>
          <path d="M131.43,108.88c0,.57.09,1.14.13,1.69a3.44,3.44,0,0,1-.28.34c-.22.19-.8-.07-.84-.58a.81.81,0,0,1,0-.15C130.5,110.1,130.89,109.59,131.43,108.88Z" style="fill: #eaac8f"/>
          <path d="M131.22,106.05c.07.87.14,1.86.21,2.83-.54.71-.93,1.22-1,1.3a.81.81,0,0,0,0,.15l-.46,0c-.11-1.38-.21-2.89-.31-4.18h.22A8.21,8.21,0,0,0,131.22,106.05Z" style="fill: #eaac8f"/>
          <path d="M131,103l.23,3a8.21,8.21,0,0,1-1.33.13h-.22c-.12-1.76-.21-3.1-.21-3.1Z" style="fill: #68bd9e"/>
        </g>
        <g>
          <path d="M34.35,87.66a7.59,7.59,0,0,1,5.87,8.44,6.58,6.58,0,0,1-8,5.39,7.55,7.55,0,0,1-2.39-1l6.63-5.89-1.31-1.7s-3.49,3.06-7,6.16a7.57,7.57,0,0,1-1.62-3,14.24,14.24,0,0,0,7.3-8.51A3.66,3.66,0,0,1,34.35,87.66Z" style="fill: #68bd9e"/>
          <path d="M35.11,92.91l1.31,1.7-6.63,5.89a7.24,7.24,0,0,1-1.68-1.43C31.62,96,35.11,92.91,35.11,92.91Z" style="fill: #68bd9e"/>
          <path d="M34.4,82.21a14.14,14.14,0,0,1-.61,5.35,6.53,6.53,0,0,0-7.48,5.49,7.12,7.12,0,0,0,.18,3,15.24,15.24,0,0,1-4.17,1.37c-.26-3.33-.45-5.79-.45-5.79l-2.95,0,.42,6a17,17,0,0,1-2.27-.16A9.69,9.69,0,0,0,13.5,87.4a8.36,8.36,0,0,0-9.15-.67,16,16,0,0,1-.64-3.49A15.37,15.37,0,0,1,18.67,67C27.38,66.85,33.79,73.79,34.4,82.21Z" style="fill: #68bd9e"/>
          <path d="M26.31,93.05a6.53,6.53,0,0,1,7.48-5.49,14.24,14.24,0,0,1-7.3,8.51A7.12,7.12,0,0,1,26.31,93.05Z" style="fill: #68bd9e"/>
          <path d="M29.79,100.5c-2.72,2.41-5.54,4.89-6.8,6,0-.9-.12-1.81-.2-2.73l5.32-4.68A7.24,7.24,0,0,0,29.79,100.5Z" style="fill: #eaac8f"/>
          <path d="M23,106.48c.34,4.46.61,8.3.61,8.71-.15.76-2.05,1.27-3,0-.07-.51-.52-6.73-.95-12.66l.94.48a1.36,1.36,0,0,0,1.3-1.41l.7-.05c.06.71.11,1.43.16,2.15L21,105.34c-.37,1.12.77,2,1.32,1.69C22.41,107,22.64,106.79,23,106.48Z" style="fill: #eaac8f"/>
          <path d="M22.79,103.75c.08.92.15,1.83.2,2.73-.35.31-.58.5-.65.55-.55.29-1.69-.57-1.32-1.69Z" style="fill: #eaac8f"/>
          <path d="M22.63,101.6l-.7.05a.61.61,0,0,0-.18-.43c-.15-.09-1-.55-2.25-1.21-.05-.81-.11-1.6-.16-2.34h.42a17.64,17.64,0,0,0,2.56-.24C22.42,98.72,22.52,100.14,22.63,101.6Z" style="fill: #eaac8f"/>
          <path d="M21.87,91.65s.19,2.46.45,5.79a17.64,17.64,0,0,1-2.56.24h-.42l-.42-6Z" style="fill: #68bd9e"/>
          <path d="M21.75,101.22a.61.61,0,0,1,.18.43,1.36,1.36,0,0,1-1.3,1.41l-.94-.48L19.5,100C20.75,100.67,21.6,101.13,21.75,101.22Z" style="fill: #eaac8f"/>
          <path d="M19.5,100l.19,2.57c-.9-.46-2.35-1.23-4-2.1a4.15,4.15,0,0,0,.24-.34,8.48,8.48,0,0,0,.82-1.58Z" style="fill: #eaac8f"/>
          <path d="M13.5,87.4a9.69,9.69,0,0,1,3.57,10.11A15.26,15.26,0,0,1,4.35,86.73,8.36,8.36,0,0,1,13.5,87.4Z" style="fill: #68bd9e"/>
          <path d="M17.07,97.51a8.54,8.54,0,0,1-.34,1L5.12,92.49,4,94.33l11.67,6.15a8.29,8.29,0,0,1-11.8,1.72A9.59,9.59,0,0,1,1.45,89.46a8.29,8.29,0,0,1,2.9-2.73A15.26,15.26,0,0,0,17.07,97.51Z" style="fill: #68bd9e"/>
          <path d="M16.73,98.56a8.48,8.48,0,0,1-.82,1.58,4.15,4.15,0,0,1-.24.34L4,94.33l1.12-1.84Z" style="fill: #68bd9e"/>
        </g>
        <g>
          <g>
            <path d="M12.48,94.16a2.72,2.72,0,0,0,1.64-.54c1.29-.13,2.8.59,3,1.42-.46,1.06-1.9,1-3.38.29a7.65,7.65,0,0,1-1.46-1,.23.23,0,0,0,.15-.14.24.24,0,0,0,0-.08h.07Z" style="fill: #f6c759"/>
            <path d="M13.69,95.33a2.75,2.75,0,0,1-.8,3.44l0,0a4.22,4.22,0,0,1-1-1.83A4,4,0,0,1,12,94.4v0a.23.23,0,0,0,.2,0,7.65,7.65,0,0,0,1.46,1Z" style="fill: #f4ad17"/>
            <path d="M13.91,89.9c1.28,2.06.92,3.16.21,3.72a2.72,2.72,0,0,1-1.64.54c.39-.16,2.32-.58,1-3.12h0c-2.82.86-1.65,2.58-1.53,2.92a2.8,2.8,0,0,1-.81-1.58C11,91.47,11.54,90.44,13.91,89.9Z" style="fill: #f4ad17"/>
            <path d="M11.84,96.92a2.24,2.24,0,0,1-1.78,2.21h0a2.23,2.23,0,0,1,.32-2.81A3.94,3.94,0,0,0,12,94.4,4,4,0,0,0,11.84,96.92Z" style="fill: #f6c759"/>
            <path d="M13.46,91c1.34,2.54-.59,3-1,3.12h-.07a.27.27,0,0,0-.16-.27.28.28,0,0,0-.31.08h0c-.12-.34-1.29-2.06,1.53-2.92Zm-1,2.47c.31,0,.75-.11.45-1.13h0c-.93.51-.73.93-.48,1.12Z" style="fill: #ea601b"/>
            <path d="M12.41,94.15a.24.24,0,0,1,0,.08.28.28,0,0,1-.35.14.32.32,0,0,1-.14-.14.28.28,0,0,1,0-.2.43.43,0,0,1,0-.07.28.28,0,0,1,.31-.08A.27.27,0,0,1,12.41,94.15Z" style="fill: #ea601b"/>
            <path d="M12.89,92.38c.3,1-.14,1.17-.45,1.13h0c-.25-.19-.45-.61.48-1.12Z" style="fill: #f8db98"/>
            <path d="M12,94.37v0a3.94,3.94,0,0,1-1.65,1.92,4.46,4.46,0,0,1-2,.57l0,0a2.74,2.74,0,0,1,1.87-3h0a7,7,0,0,0,1.7.36A.32.32,0,0,0,12,94.37Z" style="fill: #f4ad17"/>
            <path d="M11.9,94a.28.28,0,0,0,0,.2,7,7,0,0,1-1.7-.36c-1.57-.53-2.6-1.53-2.18-2.6.71-.47,2.28.09,3.09,1.1A2.8,2.8,0,0,0,11.92,94h0A.43.43,0,0,0,11.9,94Z" style="fill: #f6c759"/>
          </g>
          <g>
            <path d="M5.56,94a2.8,2.8,0,0,0,.23-1.71c.44-1.22,1.74-2.26,2.57-2,.75.87.09,2.15-1.22,3.17a8,8,0,0,1-1.49.89.31.31,0,0,0-.07-.2l-.06-.05v0Z" style="fill: #f6c759"/>
            <path d="M7.14,93.46a2.74,2.74,0,0,1,2.74,2.22l0,0a4.3,4.3,0,0,1-2.08.11,4,4,0,0,1-2.2-1.27v0a.31.31,0,0,0,.09-.18,8,8,0,0,0,1.49-.89Z" style="fill: #f4ad17"/>
            <path d="M2.34,90.9c2.42-.26,3.25.55,3.45,1.43A2.8,2.8,0,0,1,5.56,94c0-.42.49-2.34-2.39-2.24h0c-.46,2.9,1.6,2.6,2,2.64a2.69,2.69,0,0,1-1.77,0C2.5,94.19,1.8,93.27,2.34,90.9Z" style="fill: #f4ad17"/>
            <path d="M7.77,95.82A2.24,2.24,0,0,1,9,98.38H9a2.23,2.23,0,0,1-2.39-1.51,3.86,3.86,0,0,0-1-2.32A4,4,0,0,0,7.77,95.82Z" style="fill: #f6c759"/>
            <path d="M3.17,91.8c2.88-.1,2.41,1.82,2.39,2.24l0,0v0a.26.26,0,0,0-.31,0,.26.26,0,0,0-.07.31h0c-.35,0-2.41.26-1.95-2.64Zm1.78,2c.17-.26.23-.72-.81-.9h0c0,1,.52,1,.8.92Z" style="fill: #ea601b"/>
            <path d="M5.52,94.1l.06.05a.31.31,0,0,1,.07.2.31.31,0,0,1-.09.18.33.33,0,0,1-.19.06.25.25,0,0,1-.19-.09l0-.06a.26.26,0,0,1,.07-.31A.26.26,0,0,1,5.52,94.1Z" style="fill: #ea601b"/>
            <path d="M4.14,92.89c1,.18,1,.64.81.9l0,0c-.28.13-.75.13-.8-.92Z" style="fill: #f8db98"/>
            <path d="M5.56,94.53v0a3.86,3.86,0,0,1,1,2.32,4.34,4.34,0,0,1-.36,2.06l0,0a2.74,2.74,0,0,1-1.88-3h0a7.51,7.51,0,0,0,1.06-1.38A.33.33,0,0,0,5.56,94.53Z" style="fill: #f4ad17"/>
            <path d="M5.18,94.5a.25.25,0,0,0,.19.09A7.51,7.51,0,0,1,4.31,96c-1.17,1.18-2.52,1.67-3.3.82-.11-.84,1.07-2,2.34-2.3a2.69,2.69,0,0,0,1.77,0h0Z" style="fill: #f6c759"/>
          </g>
        </g>
        <g>
          <g>
            <path d="M53.74,116.48c.07-.34.5.52-.11.43C53.35,116.87,53.7,116.69,53.74,116.48Z" style="fill: #f0be45"/>
            <path d="M52.71,112.31l-.16-.15a1.77,1.77,0,0,0-.24-.17,1,1,0,0,1,.81-.24.11.11,0,0,1,.09.16,1.63,1.63,0,0,1-.45.47Z" style="fill: #f2df80"/>
            <path d="M53.12,111.75a1,1,0,0,0-.81.24,2.68,2.68,0,0,0-.36-.16.82.82,0,0,1,.28-.3c.35-.21,1.33-.09,1.34.15a1.35,1.35,0,0,1-.68.88l-.13-.18a1.63,1.63,0,0,0,.45-.47A.11.11,0,0,0,53.12,111.75Z" style="fill: #f0be45"/>
            <path d="M52.74,117c.16.09.63-.09.46.13C52.71,117.79,52.44,116.83,52.74,117Z" style="fill: #f0be45"/>
            <path d="M53.74,116.48c.07-.34.5.52-.11.43C53.35,116.87,53.7,116.69,53.74,116.48Zm-1,.52c.16.09.63-.09.46.13C52.71,117.79,52.44,116.83,52.74,117Zm-.4.57c.16.21.52.52,1.2.13a1,1,0,0,0,.16-1.62c-.3-.15-.22.14-.56.41-.13.1-.6,0-.73.14a.74.74,0,0,0-.13.87Z" style="fill: #e26e12"/>
            <path d="M52.31,114a1.86,1.86,0,0,1,0-1.07c.24.59.36,1.14.66,1.82a.61.61,0,0,1,.05.12c0,.11.09.21.12.29a1.91,1.91,0,0,1-.37-.43,2.19,2.19,0,0,1-.31-.44.8.8,0,0,1-.08-.16S52.32,114,52.31,114Z" style="fill: #f0be45"/>
            <path d="M51.87,112.05a1,1,0,0,1,.68.11l.16.15,0,.07.13.18a.93.93,0,0,1,0,.1.12.12,0,0,1-.15.17l-.3-.1-.2-.06-.12,0A5.49,5.49,0,0,0,51.87,112.05Z" style="fill: #e26e12"/>
            <path d="M52.55,112.16a1,1,0,0,0-.68-.11l0,0a.75.75,0,0,0-.19-.23l.3.06a2.68,2.68,0,0,1,.36.16A1.77,1.77,0,0,1,52.55,112.16Z" style="fill: #e26e12"/>
            <path d="M50.76,114.54a.06.06,0,1,1,0,.12.06.06,0,1,1,0-.12Z" style="fill: #f2df80"/>
            <path d="M51.07,114.74c0-.1-.09-.21-.21-.26a.19.19,0,0,0-.26.1.3.3,0,0,0,.27.27A.24.24,0,0,0,51.07,114.74Zm-.31-.08a.06.06,0,1,1,0-.12.06.06,0,1,1,0,.12Z" style="fill: #f2df80"/>
            <path d="M50.6,114.58a.3.3,0,0,0,.27.27.24.24,0,0,0,.2-.11.52.52,0,0,0,.07.15c-.11-.07-.14,0-.3,0s-.26-.3-.26-.3S50.58,114.6,50.6,114.58Z" style="fill: #f2df80"/>
            <path d="M50.58,114.61s0,0,0,0a.19.19,0,0,1,.26-.1c.12,0,.16.16.21.26a.52.52,0,0,0,.07.15c-.11-.07-.14,0-.3,0S50.58,114.61,50.58,114.61Zm1-1a1.52,1.52,0,0,0-1.15-.27,4.52,4.52,0,0,1-.63.08,1.92,1.92,0,0,1-.55-.09,1.5,1.5,0,0,0-.23.2l.47,0a.25.25,0,0,1,.22.27v0a1,1,0,0,1-.38.7,3,3,0,0,1-.4.24.22.22,0,0,1,0,.18l0,0a.58.58,0,0,1,.26,0,2.33,2.33,0,0,1,.93.4,8,8,0,0,0,1.07.67c.22.11.62.32.84.12a1.41,1.41,0,0,0,.22-.5,1.76,1.76,0,0,0,.07-.56,2.49,2.49,0,0,0-.22-.85A1.7,1.7,0,0,0,51.54,113.64Z" style="fill: #f2df80"/>
            <path d="M52.28,115.17a2.49,2.49,0,0,0-.22-.85l.37-.06a2.19,2.19,0,0,0,.31.44,1.91,1.91,0,0,0,.37.43c0-.08-.07-.18-.12-.29,0,.11.09.21.14.31a4.94,4.94,0,0,0,.57.93c-.3-.15-.22.14-.56.41-.13.1-.6,0-.73.14a.74.74,0,0,0-.13.87l.06.07c-.11-.08-.27-.21-.49-.35a3.26,3.26,0,0,0-1-.48c-.48-.23-.81-.28-1.06-.82s-.57-.82-.94-.8v-.05a.58.58,0,0,1,.26,0,2.33,2.33,0,0,1,.93.4,8,8,0,0,0,1.07.67c.22.11.62.32.84.12a1.41,1.41,0,0,0,.22-.5A1.76,1.76,0,0,0,52.28,115.17Z" style="fill: #f2df80"/>
            <path d="M50.41,112.62c-.27-.44-1-.49-1.64.12a2,2,0,0,1,1-.68C50.12,112,50.4,112.3,50.41,112.62Z" style="fill: #e26e12"/>
            <path d="M48.85,113.74a.14.14,0,0,1-.26,0s0-.09,0-.13a1.55,1.55,0,0,1,0-.22,2,2,0,0,1,0-.24,1.22,1.22,0,0,1,.17-.37h0c.68-.61,1.37-.56,1.64-.12a.39.39,0,0,1-.27.39,3.32,3.32,0,0,0-.93.35,1.5,1.5,0,0,0-.23.2Z" style="fill: #e26e12"/>
            <path d="M52.43,114.26l-.37.06a1.7,1.7,0,0,0-.52-.68,1.52,1.52,0,0,0-1.15-.27,4.52,4.52,0,0,1-.63.08,1.92,1.92,0,0,1-.55-.09,3.32,3.32,0,0,1,.93-.35.39.39,0,0,0,.27-.39c0-.32-.29-.67-.62-.56a2,2,0,0,0-1,.68h0a1.22,1.22,0,0,0-.17.37l-.19-.07c-.35-.1-.75-.23-.63-.72.06-.27.29-.39.21-.72s-.38-.47-.37-.76c0-.45.7-.53,1-.48h0a2.53,2.53,0,0,0,.47.36,6.27,6.27,0,0,0,2.22.88.57.57,0,0,1,.28.14.75.75,0,0,1,.19.23l0,0a5.49,5.49,0,0,1,.3.59l.12,0,.2.06a1.09,1.09,0,0,1-.26,0,1.12,1.12,0,0,1,.05.13,1.86,1.86,0,0,0,0,1.07s0,.09,0,.13A.8.8,0,0,0,52.43,114.26Z" style="fill: #f2df80"/>
            <path d="M48.38,116.09l-.46-.13a.21.21,0,0,1-.13-.25l.1-.36.13-.45,0-.13a.23.23,0,0,1,.08-.11.2.2,0,0,1,.17,0l.28.08.18.06a.21.21,0,0,1,.11.07.22.22,0,0,1,0,.18l0,0v.05l-.25.84A.2.2,0,0,1,48.38,116.09Z" style="fill: #fff"/>
            <path d="M48.07,114.64a.1.1,0,0,1-.06-.15c.42-.67.72-.37,1.11-.51a.17.17,0,0,1,.23.21.78.78,0,0,1-.76.52l-.28-.08a.2.2,0,0,0-.17,0Z" style="fill: #f2df80"/>
            <polygon points="48.02 121.76 48.02 121.76 48.02 121.76 48.02 121.76 48.02 121.76" style="fill: #e26e12"/>
            <path d="M47.71,114.63a2,2,0,0,1,.57-1,1.11,1.11,0,0,1,.29-.08s0,.09,0,.13a.14.14,0,0,0,.26,0l.13-.18.47,0a.25.25,0,0,1,.22.27v0a1,1,0,0,1-.38.7,3,3,0,0,1-.4.24.21.21,0,0,0-.11-.07l-.18-.06a.78.78,0,0,0,.76-.52.17.17,0,0,0-.23-.21c-.39.14-.69-.16-1.11.51a.1.1,0,0,0,.06.15l.07,0a.23.23,0,0,0-.08.11l0,.13a1.09,1.09,0,0,1-.28-.16A.09.09,0,0,1,47.71,114.63Z" style="fill: #f0be45"/>
            <path d="M47.89,115.35l-.1.36a.21.21,0,0,0,.13.25l.46.13a.2.2,0,0,0,.25-.13l.25-.84c.37,0,.64.15.94.8s.58.59,1.06.82a3.26,3.26,0,0,1,1,.48,3.17,3.17,0,0,0-1.17-.44,2,2,0,0,1-1.26-.73,1.68,1.68,0,0,0-.3.15c-.71.35-2.43,1.08-3,.39a2.87,2.87,0,0,1,0-.32,1.89,1.89,0,0,1,.1-.41l0-.09a.7.7,0,0,1,.57-.46,3.59,3.59,0,0,1,.46,0A2.25,2.25,0,0,0,47.89,115.35Z" style="fill: #f2df80"/>
            <path d="M48,111.62c.08.33-.15.45-.21.72-.12.49.28.62.63.72l.19.07a2,2,0,0,0,0,.24,1.55,1.55,0,0,0,0,.22,1.11,1.11,0,0,0-.29.08,2,2,0,0,0-.57,1,.09.09,0,0,0,0,.11,1.09,1.09,0,0,0,.28.16l-.13.45a2.25,2.25,0,0,1-.58,0,3.59,3.59,0,0,0-.46,0,.7.7,0,0,0-.57.46c-.22-.15-.42-.32-.58-.45l-.41-.35a1.5,1.5,0,0,0-.09-.35c-.27-.67-.85-.64-1.51-.64-.43,0-.85,0-1.27,0a1,1,0,0,1-.19-.41c-.11-.57.49-.88.42-1.46s-.65-.77-.75-1.24a1.72,1.72,0,0,1,.68-1.45c.18-.12.39-.21.57-.33a2.15,2.15,0,0,0,.54-.49,2.72,2.72,0,0,0,.45-.94c1.94.79,3.87,1.71,4.28,2.42a1.3,1.3,0,0,0,.26.33h0c-.32,0-1,0-1,.48C47.6,111.15,47.91,111.36,48,111.62Z" style="fill: #f2df80"/>
            <path d="M47.48,121.39c.1.18.5.35.54.37h0a.59.59,0,0,1-.23-.05h0l-.1-.06h0l-.1-.08h0Z" style="fill: #e26e12"/>
            <path d="M48,121.76s-.44-.19-.54-.37l.07.17h0l.22.39s-1-.11-1.05-.74a.28.28,0,0,1,0-.09h0c.64.34.92-.1.92-.1a2.48,2.48,0,0,0,.37.75Z" style="fill: #e26e12"/>
            <path d="M46.79,118h0Z" style="fill: #f2df80"/>
            <path d="M46.72,121.21c.1.63,1.05.74,1.05.74C47.47,122,46.63,122.07,46.72,121.21Z" style="fill: #e26e12"/>
            <path d="M46.67,118h0Z" style="fill: #f2df80"/>
            <path d="M46.67,118h0Z" style="fill: #f2df80"/>
            <path d="M46.77,119.21c0-.45-.24-.88,0-1.24h0a1.47,1.47,0,0,0,1.14-.59,6.7,6.7,0,0,0-.13.83c0,.47.11.6-.15,1s0,1.8,0,1.8-.28.44-.92.1h0c.05-.31-.12-.44-.12-.7S46.86,120.19,46.77,119.21Z" style="fill: #f0be45"/>
            <path d="M46.39,117.93l.25,0Z" style="fill: #f2df80"/>
            <path d="M49.12,116.2a6.34,6.34,0,0,0-1.19,1.18,1.47,1.47,0,0,1-1.14.59h-.15l-.25,0-.22-.05-.31-.13h0v0l.23-.9v-.06l0-.18C46.69,117.28,48.41,116.55,49.12,116.2Z" style="fill: #f2df80"/>
            <path d="M46.09,116.83l-.23.9C45.87,117.63,46,117.13,46.09,116.83Z" style="fill: #dbddd2"/>
            <path d="M45.86,117.75l.31.13-.31-.13Z" style="fill: #dbddd2"/>
            <polygon points="45.86 117.73 45.86 117.75 45.86 117.75 45.86 117.73" style="fill: #f2df80"/>
            <path d="M45.28,122.8l-.07-.16c.1.18.54.36.54.36h0a.6.6,0,0,1-.24,0h0l-.1-.06h0l-.09-.08Z" style="fill: #e26e12"/>
            <path d="M45.1,122.45c-.2,0-.47-.24-.5-.48a6.25,6.25,0,0,1,.16-.93c0-.47-.29-.91-.29-1.38a1.55,1.55,0,0,1,.08-.47,5.2,5.2,0,0,0,.21-.67c.09-.45,0-.92.05-1.37a2.57,2.57,0,0,1,.08-.38c.09-.31.22-.63.31-.94a2.11,2.11,0,0,0,.09-.86l.41.35c.16.13.36.3.58.45l0,.09a1.89,1.89,0,0,0-.1.41,2.87,2.87,0,0,0,0,.32l0,.18v.06c-.08.3-.22.8-.23.9v0h0a13.12,13.12,0,0,0-.33,1.7c0,.48.1.6-.16,1a1.39,1.39,0,0,0-.11.64,7.79,7.79,0,0,0,.11,1.15A.49.49,0,0,1,45.1,122.45Z" style="fill: #f0be45"/>
            <path d="M44.46,122.35l.07,0,.09,0a.73.73,0,0,0,.48,0,.49.49,0,0,0,.27-.2,2.65,2.65,0,0,0,.38.75s-.44-.18-.54-.36l.07.16h0l.21.39s-1-.11-1.05-.74a.29.29,0,0,1,0-.09Z" style="fill: #e26e12"/>
            <path d="M44.5,120.46c0-.46-.24-.88,0-1.24,0,0,0,0,0,0h0a1.55,1.55,0,0,0-.08.47c0,.47.32.91.29,1.38a6.25,6.25,0,0,0-.16.93c0,.24.3.51.5.48a.73.73,0,0,1-.48,0l-.09,0-.07,0h0c0-.3-.13-.43-.13-.69S44.59,121.43,44.5,120.46Z" style="fill: #f0be45"/>
            <path d="M44.44,122.45c.1.63,1.05.74,1.05.74C45.2,123.22,44.35,123.31,44.44,122.45Z" style="fill: #e26e12"/>
            <path d="M43.86,116.43l.17,0Z" style="fill: #dbddd2"/>
            <path d="M43.52,116.33l.26.08Z" style="fill: #dbddd2"/>
            <path d="M43.24,116.23l.28.1Z" style="fill: #dbddd2"/>
            <path d="M43,116.15l.2.07Z" style="fill: #dbddd2"/>
            <path d="M42.36,115.88l.26.11Z" style="fill: #dbddd2"/>
            <path d="M42.09,115.74l.27.14Z" style="fill: #dbddd2"/>
            <path d="M41.84,115.62l.25.12Z" style="fill: #dbddd2"/>
            <path d="M41.55,115.46l.23.13A1.71,1.71,0,0,1,41.55,115.46Z" style="fill: #dbddd2"/>
            <path d="M41.29,115.32l.26.14Z" style="fill: #dbddd2"/>
            <path d="M41.29,115.32c-.17-.1-.34-.2-.5-.31C41,115.12,41.12,115.22,41.29,115.32Z" style="fill: #dbddd2"/>
            <path d="M40.79,115l-.45-.29.19-.27a5.86,5.86,0,0,0,3.91,1.17v1l-.41-.1-.17,0-.08,0-.26-.08-.28-.1h0l-.2-.07-.39-.16-.26-.11-.27-.14-.25-.12-.06,0-.23-.13-.26-.14C41.12,115.22,41,115.12,40.79,115Z" style="fill: #f0be45"/>
            <path d="M40.79,113.47c-.36.07-.58-.38-.55-.68h0c0-.16.11-.33,0-.49s-.22-.27-.28-.44a.34.34,0,0,1,.29-.48,2.41,2.41,0,0,1,.38,0,.37.37,0,0,0,.15,0,1.57,1.57,0,0,1,.3-.12.57.57,0,0,1,.42.09.81.81,0,0,1,.28.9c-.07.28-.41.4-.57.62s-.13.48-.35.6A.33.33,0,0,1,40.79,113.47Z" style="fill: #f2df80"/>
            <path d="M40.38,109.67c-.64-.06-1.19-1.6-.55-1.93.43-.22.88.13,1.29.1s.94-.44.93.27-.61.44-1,.63a.72.72,0,0,0-.29.33c-.07.14,0,.32-.11.44A.35.35,0,0,1,40.38,109.67Z" style="fill: #f2df80"/>
            <path d="M39.87,114.38c.15.12.31.23.47.34l.45.29C40.46,114.81,40.16,114.59,39.87,114.38Z" style="fill: #dbddd2"/>
            <path d="M41.12,107.84c.26,0,.94-.44.93.27s-.61.44-1,.63a.72.72,0,0,0-.29.33c-.07.14,0,.32-.11.44a.35.35,0,0,1-.29.16c-.64-.06-1.19-1.6-.55-1.93C40.26,107.52,40.71,107.87,41.12,107.84Zm-1.56,2.91a.87.87,0,0,1-.64.35l.17.34.11.2a5.12,5.12,0,0,0,1,1.07l.08.08h0c0-.16.11-.33,0-.49s-.22-.27-.28-.44a.34.34,0,0,1,.29-.48,2.41,2.41,0,0,1,.38,0,.37.37,0,0,0,.15,0,1.57,1.57,0,0,1,.3-.12.57.57,0,0,1,.42.09.81.81,0,0,1,.28.9c-.07.28-.41.4-.57.62s-.13.48-.35.6a2,2,0,0,0,.86.45c.22,0,.43.07.65.09a1,1,0,0,1-.19-.41c-.11-.57.49-.88.42-1.46s-.65-.77-.75-1.24a1.72,1.72,0,0,1,.68-1.45c.18-.12.39-.21.57-.33a2.15,2.15,0,0,0,.54-.49,2.72,2.72,0,0,0,.45-.94l-.64-.25-1.65-.63a2.75,2.75,0,0,1-.36-.15c-.36.62-1.4,0-2,.59a1.51,1.51,0,0,0-.28,1.65C39.34,109.41,39.94,110.29,39.56,110.75Z" style="fill: #f2df80"/>
            <path d="M38,112a10.8,10.8,0,0,0,2.56,2.5l-.19.27c-.16-.11-.32-.22-.47-.34a21.12,21.12,0,0,1-1.75-1.46l-.28-.27s0,0-.05-.05a.3.3,0,0,0-.08-.08h0l-.14-.12-.08,0-.08,0h0l-.08,0-.08,0-.11,0-.1,0-.05,0a.61.61,0,0,1,.61-.43A.53.53,0,0,1,38,112Z" style="fill: #f0be45"/>
            <path d="M37.84,115.81c.1.18.54.36.54.36h0a.47.47,0,0,1-.24,0h0l-.1-.05,0,0s-.09-.07-.09-.08h0Z" style="fill: #e26e12"/>
            <path d="M38.36,111.35c.22.06.44.11.23,0a1.18,1.18,0,0,1-.52-.46c.24.22.49.24.41.19-.57-.36-.66-.85-1.6-1a2.56,2.56,0,0,0,.11-.24l.09-.24c0-.07,0-.14.06-.19a1.45,1.45,0,0,1,.36-.72c.77-.61.78.67.91,1.16a7.42,7.42,0,0,0,.51,1.28l.17.34.11.2-.34,0a1,1,0,0,1-.6-.28.61.61,0,0,0,.28.12A1,1,0,0,1,38.36,111.35Z" style="fill: #f0be45"/>
            <path d="M37.84,112.65l-.05-.05S37.82,112.63,37.84,112.65Z" style="fill: #dbddd2"/>
            <path d="M37.71,112.52h0l-.14-.12Z" style="fill: #dbddd2"/>
            <path d="M37.57,112.4l-.08,0Z" style="fill: #dbddd2"/>
            <path d="M37.49,112.36l-.08,0Z" style="fill: #dbddd2"/>
            <path d="M37.4,112.31l-.08,0Z" style="fill: #dbddd2"/>
            <path d="M38.46,111.79a.94.94,0,0,1-.5-.55,1,1,0,0,0,1,.43h-.11l.34,0a5.12,5.12,0,0,0,1,1.07l.08.08c0,.3.19.75.55.68a.33.33,0,0,0,.12,0,2,2,0,0,0,.86.45c.22,0,.43.07.65.09.42,0,.84,0,1.27,0,.66,0,1.24,0,1.51.64a1.5,1.5,0,0,1,.09.35,2.11,2.11,0,0,1-.09.86c-.09.31-.22.63-.31.94a2.57,2.57,0,0,0-.08.38c-.05.45,0,.92-.05,1.37a5.2,5.2,0,0,1-.21.67h0a14,14,0,0,0,0-2.59h-.05v-1a5.86,5.86,0,0,1-3.91-1.17A10.8,10.8,0,0,1,38,112a.53.53,0,0,0-.38-.21l0-.35s0,0,0,0c-.09-.21-.18-.45-.29-.66.3.37.38.78.68,1,0,0,0,0,0,0a1,1,0,0,1-.1-.17A.64.64,0,0,0,38.46,111.79Z" style="fill: #f0be45"/>
            <path d="M37.24,112.25l.08,0Z" style="fill: #dbddd2"/>
            <path d="M38,115.42c.12.5-.9.11-.91.11h0a2.2,2.2,0,0,0,0-.87,3.52,3.52,0,0,0,0-1.8,1.06,1.06,0,0,1,0-.67l.1,0,.11,0,.08,0,.08,0h0l.08,0,.08,0,.14.12a.3.3,0,0,1,.08.08l.05.05.28.27a1.19,1.19,0,0,0-.08.2A3.74,3.74,0,0,0,38,115.42Z" style="fill: #f2df80"/>
            <path d="M38.38,116.17s-.44-.18-.54-.36l.07.16h0l.21.39s-.95-.11-1-.74a.29.29,0,0,1,0-.09h0s1,.39.91-.11A2.65,2.65,0,0,0,38.38,116.17Z" style="fill: #e26e12"/>
            <path d="M37,112.19l.1,0Z" style="fill: #dbddd2"/>
            <path d="M37.07,115.62c.1.63,1,.74,1,.74C37.83,116.39,37,116.48,37.07,115.62Z" style="fill: #e26e12"/>
            <path d="M38.14,104.89a3.24,3.24,0,0,0,.41-.46,10,10,0,0,0,2.94,2.18c-.36.62-1.4,0-2,.59a1.51,1.51,0,0,0-.28,1.65c.16.56.76,1.44.38,1.9a.87.87,0,0,1-.64.35,7.42,7.42,0,0,1-.51-1.28c-.13-.49-.14-1.77-.91-1.16a1.45,1.45,0,0,0-.36.72c0,.05,0,.12-.06.19l-.09.24a.62.62,0,0,1-.23-.07,1.4,1.4,0,0,1-.67-1.06.81.81,0,0,1,0-.16v0a8.71,8.71,0,0,0,.48-1.23,1.44,1.44,0,0,0,.51-1.07,1.47,1.47,0,0,1,.27-.9C37.55,105.07,37.92,105.06,38.14,104.89Z" style="fill: #f2df80"/>
            <path d="M36.54,107a1.2,1.2,0,0,0-.28-.47c-.25-.29-.52-.3-.81-.51s-.32-.5-.56-.59l-.06,0h0c0-.15.07-.27.09-.37.16-.68.5-.6.78-.6s1.18-.84,1.81-.8c.24,0,.58.36,1,.82a3.24,3.24,0,0,1-.41.46c-.22.17-.59.18-.8.41a1.47,1.47,0,0,0-.27.9,1.44,1.44,0,0,1-.51,1.07A.76.76,0,0,0,36.54,107Z" style="fill: #f2df80"/>
            <path d="M38.59,111.37c.21.09,0,0-.23,0a1,1,0,0,0,.18.15.61.61,0,0,1-.28-.12,1,1,0,0,0,.6.28H39a1,1,0,0,1-1-.43.94.94,0,0,0,.5.55.64.64,0,0,1-.49-.27,1,1,0,0,0,.1.17s0,0,0,0c-.3-.25-.38-.66-.68-1,.11.21.2.45.29.66,0,0,0,.05,0,0a0,0,0,0,1,0,0c-.19-.36-.33-.76-.78-.94h0s.16,0,.11-.07-.26-.15-.26-.19.35.1.39.08-.15-.18-.16-.2h0c.94.2,1,.69,1.6,1,.08.05-.17,0-.41-.19A1.18,1.18,0,0,0,38.59,111.37Z" style="fill: #e26e12"/>
            <path d="M36.48,110.46a.38.38,0,0,1-.32-.22c.16,0,.32.08.49.14A.27.27,0,0,1,36.48,110.46Z" style="fill: #f0be45"/>
            <path d="M36.05,108.67l0-.15a.81.81,0,0,0,0,.16,1.4,1.4,0,0,0,.67,1.06.62.62,0,0,0,.23.07,2.56,2.56,0,0,1-.11.24h0l-.42-.12-.44-.09A2.88,2.88,0,0,1,36.05,108.67Z" style="fill: #f0be45"/>
            <path d="M35.57,115.55a5.1,5.1,0,0,0,.16,1.11h0a.22.22,0,0,1,0,.08c0,.13-.12.17-.26.17a2.31,2.31,0,0,1-.67-.15c0-.06,0-.11,0-.15s0-.09,0-.13v0c0-.21-.07-.33-.07-.53a4.07,4.07,0,0,0,.09-.62,8.36,8.36,0,0,0-.12-1.18,2.59,2.59,0,0,1-.06-.47.06.06,0,0,1,0,0s0-.06,0-.09l0,0,0-.08.06-.08a1,1,0,0,0,.09-.43,3.17,3.17,0,0,0,0-.41c0-.54-.15-1.23-.26-1.89,0-.18-.05-.36-.08-.53a14.91,14.91,0,0,1,1.61.19.38.38,0,0,0,.32.22.27.27,0,0,0,.17-.08l.15.05h0c.45.18.59.58.78.94a0,0,0,0,0,0,0l0,.35a.61.61,0,0,0-.61.43c-.32,1.22-.93,1.37-1.21,2.19A3.19,3.19,0,0,0,35.57,115.55Z" style="fill: #f0be45"/>
            <path d="M35.73,117.29l-.1-.07h0l-.07-.16a1.39,1.39,0,0,0,.54.36h0a.39.39,0,0,1-.24,0h0l-.1,0Z" style="fill: #e26e12"/>
            <path d="M35.45,106c.29.21.56.22.81.51a1.2,1.2,0,0,1,.28.47.76.76,0,0,1,0,.3,8.71,8.71,0,0,1-.48,1.23v0l0,.15a2.88,2.88,0,0,0,0,1.17c-.71-.13-1.15-.08-1.52-.17l-.06-.34a3.89,3.89,0,0,1-.08-.78,8.57,8.57,0,0,1,.11-1.42c0-.1,0-.2,0-.29l.19-.93c0-.1,0-.19.07-.28l.06-.25.06,0C35.13,105.49,35.24,105.83,35.45,106Z" style="fill: #f0be45"/>
            <path d="M36.1,117.41a1.39,1.39,0,0,1-.54-.36l.07.16h0l.22.39s-1-.12-1.05-.75c0,0,0-.06,0-.09h0a2.31,2.31,0,0,0,.67.15c.14,0,.26,0,.26-.17a.22.22,0,0,0,0-.08A2.56,2.56,0,0,0,36.1,117.41Z" style="fill: #e26e12"/>
            <path d="M34.8,116.86c.1.63,1.05.75,1.05.75C35.56,117.63,34.71,117.73,34.8,116.86Z" style="fill: #e26e12"/>
            <path d="M34.77,113.39l0,.08Z" style="fill: #f0be45"/>
            <path d="M34.7,105.9c0-.09,0-.19.07-.27,0,.09-.05.18-.07.28Z" style="fill: #f2df80"/>
            <path d="M34.72,113.51s0,.06,0,.09S34.72,113.54,34.72,113.51Z" style="fill: #f0be45"/>
            <path d="M36.45,109.93c-1.31-.22-2.42.29-2.94-.78s1-3.15,1.22-3.38l0,.13h0l-.19.93a4.43,4.43,0,0,0-.55.68c-.42.64-.6,1.32-.17,1.75a1.33,1.33,0,0,0,.7.4c.37.09.81,0,1.52.17Z" style="fill: #f0be45"/>
            <path d="M33.51,109.15c.52,1.07,1.63.56,2.94.78l.42.12h0s.21.18.16.2-.38-.12-.39-.08.24.15.26.19-.11.07-.11.07l-.15-.05c-.17-.06-.33-.1-.49-.14a14.91,14.91,0,0,0-1.61-.19,1.5,1.5,0,0,1-1.11-.58c-.51-.67-.59-1.66.83-3.22.13-.15.28-.3.46-.48C34.52,106,33,108,33.51,109.15Z" style="fill: #f2df80"/>
          </g>
          <g>
            <path d="M36.89,100.67h0a0,0,0,0,1,0,0A5.28,5.28,0,0,1,38,99.28v0s0,0-.1-.06a.26.26,0,0,1-.14-.17A11.19,11.19,0,0,0,36.89,100.67Z" style="fill: #f2df80"/>
            <path d="M36.91,100.65a0,0,0,0,0,0,0c.06-.06.56-.57.92-.92l.16-.13c.16-.13.36-.25.39-.28h0s-.05,0-.16,0a.21.21,0,0,1-.18,0,0,0,0,0,1,0,0v0S37.33,100.1,36.91,100.65Z" style="fill: #f0be45"/>
            <path d="M38,99.28a5.28,5.28,0,0,0-1.11,1.37C37.33,100.1,38,99.3,38,99.28Z" style="fill: #f2df80"/>
            <path d="M37.76,101.06a2.77,2.77,0,0,0,.07.69s.06.33.1.48,0,.12.07.24a.51.51,0,0,0,.13-.09.26.26,0,0,1-.13.09c.06.12.6,1,.81,1.3v-.38c0-.19,0-.33,0-.33a.09.09,0,0,1,.13,0,1.81,1.81,0,0,1,0,.55v.13a1,1,0,0,0,0,.18l.11.12a3.13,3.13,0,0,0,.34.81s0,0,0,0a.49.49,0,0,1,0-.23.12.12,0,0,1,0-.08,1,1,0,0,0,0-.12,7.22,7.22,0,0,0,0-1.27.08.08,0,0,1,.13,0c.06.07,0,.88,0,1.32,0,0,0,.1,0,.14a.48.48,0,0,1,0,.18l0,.08a.41.41,0,0,0,0,.14.46.46,0,0,0,.14.16.84.84,0,0,0,.68-.12.55.55,0,0,1-.13-.37s0-.08,0-.12a.83.83,0,0,1,0-.15s-.12-.12,0-.42c0,0-.15,0-.12-.31a1,1,0,0,0-.22-.72,3.31,3.31,0,0,1-.77-1.69c0-.65-.07-.91.1-.91h.1a.64.64,0,0,1,.53.29c-.15-.23-.28-.41-.37-.53-.21-.32-.69-.25-.86-.22a2.25,2.25,0,0,1,.21-.75v0a.89.89,0,0,0,.06-.2c.07-.28,0-.49-.26-.55s-.56.15-.78.49l-.08.13a.26.26,0,0,0,.14.17c.07,0,.09,0,.1.06v0l0,0a.21.21,0,0,0,.18,0c.11,0,.15,0,.16,0h0s-.23.15-.39.28a2,2,0,0,1,.06.79A1,1,0,0,0,37.76,101.06Z" style="fill: #fff"/>
            <path d="M38,99.28v0a0,0,0,0,0,0,0Z" style="fill: #cddbdf"/>
            <path d="M38.36,106.55s.21-.13.33-.11-.14.06-.23.3l.37-.26c.06-.06.06-.06.29,0h.07s-.26-.19-.26-.19a4.64,4.64,0,0,1-.06-1.47.69.69,0,0,0,.06-.26,3,3,0,0,1,0-.61l0,0a.74.74,0,0,0-.08-.15,2.44,2.44,0,0,1-.07.68s-.07.09,0,.32a7.11,7.11,0,0,1,0,1.46c0,.14-.17.15-.21.16A.65.65,0,0,0,38.36,106.55Z" style="fill: #e26e12"/>
            <path d="M38.8,103.06s0,.14,0,.33v.38a.74.74,0,0,1,.08.15l0,0a1,1,0,0,1,0-.18v-.13a1.81,1.81,0,0,0,0-.55A.09.09,0,0,0,38.8,103.06Z" style="fill: #e26e12"/>
            <path d="M39,106.64s.22-.13.33-.11-.14.06-.23.31a4.12,4.12,0,0,0,.37-.27c.07-.06.06-.06.29,0s-.19-.18-.19-.18a5.56,5.56,0,0,1-.07-1.34.71.71,0,0,1-.11-.17,7.7,7.7,0,0,1,0,1.45.19.19,0,0,1-.17.15h0A.84.84,0,0,0,39,106.64Z" style="fill: #e26e12"/>
            <path d="M39.22,100.4c-.17,0-.11.26-.1.91a3.31,3.31,0,0,0,.77,1.69,1,1,0,0,1,.22.72c0,.26.12.31.12.31-.13.3,0,.42,0,.42a.83.83,0,0,0,0,.15s0,.08,0,.12a.55.55,0,0,0,.13.37l.06-.1a5.18,5.18,0,0,0,.24-1.53,8.82,8.82,0,0,0,0-1,3.84,3.84,0,0,0-.68-1.65l-.06-.08a.64.64,0,0,0-.53-.29Z" style="fill: #f2df80"/>
            <path d="M39.34,104.63a.49.49,0,0,0,0,.23s0,0,0,0a.71.71,0,0,0,.11.17.41.41,0,0,1,0-.14l0-.08a.48.48,0,0,0,0-.18s0-.09,0-.14c0-.44.07-1.25,0-1.32a.08.08,0,0,0-.13,0,7.22,7.22,0,0,1,0,1.27,1,1,0,0,1,0,.12A.12.12,0,0,0,39.34,104.63Z" style="fill: #e26e12"/>
          </g>
          <g>
            <path d="M29.07,116.59a9.17,9.17,0,0,0,0,1,5.24,5.24,0,0,0,.24,1.53.31.31,0,0,0,.07.09.55.55,0,0,0,.11-.36.49.49,0,0,0,0-.12.42.42,0,0,0,0-.15s.13-.12,0-.42c0,0,.16,0,.12-.31a1,1,0,0,1,.22-.73,3.28,3.28,0,0,0,.77-1.68c0-.66.07-.91-.1-.91h-.1a.66.66,0,0,0-.53.28l-.06.09h0A3.82,3.82,0,0,0,29.07,116.59Z" style="fill: #f2df80"/>
            <path d="M31.29,113.52a.25.25,0,0,1,.16,0,.33.33,0,0,0,.18,0l0-.05v0s0,0,.1-.06a.26.26,0,0,0,.14-.17l-.08-.13c-.22-.34-.44-.56-.78-.49s-.33.26-.26.55a.89.89,0,0,0,.06.2s0,0,0,0a2.52,2.52,0,0,1,.21.75c-.17,0-.65-.1-.86.21l-.37.53a.66.66,0,0,1,.53-.28h.1c.17,0,.11.25.1.91a3.28,3.28,0,0,1-.77,1.68,1,1,0,0,0-.22.73c0,.26-.12.31-.12.31.13.3,0,.42,0,.42a.42.42,0,0,1,0,.15.49.49,0,0,1,0,.12.55.55,0,0,1-.11.36.78.78,0,0,0,.67.12.41.41,0,0,0,.14-.15.37.37,0,0,0,0-.14l0-.08a.69.69,0,0,1,0-.18.59.59,0,0,0,0-.14c0-.44-.07-1.25,0-1.33s.13,0,.13,0a7.68,7.68,0,0,0,0,1.28.43.43,0,0,0,0,.12.09.09,0,0,1,0,.08.41.41,0,0,1,0,.23v0a3.13,3.13,0,0,0,.34-.81l.11-.12v-.31a1.81,1.81,0,0,1,0-.55.09.09,0,0,1,.13,0s0,.14,0,.33V118c.2-.34.75-1.18.8-1.3a.24.24,0,0,1-.12-.09.41.41,0,0,0,.12.09c0-.12.06-.16.08-.24s.09-.47.09-.48a2.29,2.29,0,0,0,.08-.69,1,1,0,0,0-.28-.65,1.68,1.68,0,0,1,.06-.79c-.16-.13-.36-.25-.39-.28Z" style="fill: #fff"/>
            <path d="M30.11,120.57s-.42.24-.19.18.24-.06.29,0,.36.25.38.27c-.1-.25-.34-.29-.23-.31s.36.15.33.11a.63.63,0,0,0-.18-.15,0,0,0,0,1,0,0s0,0,0,0a.19.19,0,0,1-.17-.15,6.94,6.94,0,0,1,0-1.45c0,.06-.07.12-.11.17A4.66,4.66,0,0,1,30.11,120.57Z" style="fill: #e26e12"/>
            <path d="M30.11,117.36c-.05.08.05.89,0,1.33a.59.59,0,0,1,0,.14.69.69,0,0,0,0,.18l0,.08a.37.37,0,0,1,0,.14s.07-.11.11-.17v0a.41.41,0,0,0,0-.23.09.09,0,0,0,0-.08.43.43,0,0,1,0-.12,7.68,7.68,0,0,1,0-1.28S30.18,117.28,30.11,117.36Z" style="fill: #e26e12"/>
            <path d="M30.46,121.39h0Z" style="fill: #d66546"/>
            <path d="M30.74,120.47s-.27.16-.26.19,0,0,0,0h.05c.23-.06.23-.07.29,0a3.77,3.77,0,0,0,.37.26c-.09-.24-.34-.29-.23-.31s.36.16.33.12a.64.64,0,0,0-.17-.16s-.18,0-.21-.16a7.11,7.11,0,0,1,0-1.46c.07-.23,0-.32,0-.32a2.48,2.48,0,0,1-.07-.68.74.74,0,0,0-.08.15s0,0,0,0a2.86,2.86,0,0,1,0,.6.74.74,0,0,0,.05.26A5,5,0,0,1,30.74,120.47Z" style="fill: #e26e12"/>
            <path d="M30.74,117.27a1.81,1.81,0,0,0,0,.55v.31s0,0,0,0a.74.74,0,0,1,.08-.15v-.38c0-.19,0-.33,0-.33A.09.09,0,0,0,30.74,117.27Z" style="fill: #e26e12"/>
            <path d="M31.29,113.52h0s.23.15.39.28l.16.13.92.91c-.4-.52-1.08-1.31-1.12-1.38h0a.08.08,0,0,1,0,0,.33.33,0,0,1-.18,0A.25.25,0,0,0,31.29,113.52Z" style="fill: #f0be45"/>
            <path d="M31.65,113.46l0,.05a.08.08,0,0,0,0,0Z" style="fill: #cddbdf"/>
            <path d="M31.65,113.43v0h0a5.33,5.33,0,0,1,1.12,1.38h0a10,10,0,0,0-.88-1.64.26.26,0,0,1-.14.17C31.68,113.4,31.65,113.4,31.65,113.43Z" style="fill: #f2df80"/>
            <path d="M31.65,113.46c0,.07.72.86,1.12,1.38A5.33,5.33,0,0,0,31.65,113.46Z" style="fill: #f2df80"/>
          </g>
        </g>
        <g>
          <g>
            <path d="M23.69,82.19a3,3,0,0,1,1-.6c1.41-.52,3.12,0,3.27,1s-1.35,1.13-1.54,1.06h0C25.87,82.55,24.31,81.65,23.69,82.19Z" style="fill: #f0f8f7"/>
            <path d="M23.62,82.25c-.33.25.12.51.4.42.15-.25,0-.76-.33-.47h0c.62-.54,2.18.36,2.73,1.46a1.27,1.27,0,0,1-2,1.58c-.94-.78-1.46-2.48-.82-3Z" style="fill: #f6c759"/>
            <path d="M23.66,82.22h0c-1.09-1.37-.61-4.64,1.77-4.64s1.26,3-.73,4a3,3,0,0,0-1,.6s0,0,0,0h0Z" style="fill: #f0f8f7"/>
            <path d="M23.67,82.21h0Z" style="fill: #f6c759"/>
            <path d="M23.65,82.21h0l0,0a2.84,2.84,0,0,0-.8.82c-1.45,1.71-4.51,2.09-4.08-.19S22.56,80.84,23.65,82.21Z" style="fill: #f0f8f7"/>
            <path d="M23.65,82.23Z" style="fill: #f6c759"/>
            <path d="M23.64,82.24h0Z" style="fill: #f6c759"/>
            <path d="M24,82.67c-.28.09-.73-.17-.4-.42h.07C24,81.91,24.17,82.42,24,82.67Z" style="fill: #f4ad17"/>
            <path d="M23.61,82.26c-.64.49-.12,2.19.82,3,0,.2-.47,1.66-1.38,1.26s-1.06-2.15-.24-3.41A2.84,2.84,0,0,1,23.61,82.26Z" style="fill: #f0f8f7"/>
          </g>
          <path d="M23.07,81.34a.08.08,0,0,1-.1,0c-2.19-2.74-2.93-5.79-1.66-6.8a.07.07,0,0,1,.1,0,.07.07,0,0,1,0,.1c-1.21,1-.45,3.92,1.68,6.6A.08.08,0,0,1,23.07,81.34Z" style="fill: #ea601b"/>
          <path d="M23.07,81.34a.08.08,0,0,1-.1,0c-2.37-3-5.12-4.74-6.14-3.93a.07.07,0,0,1-.1,0,.07.07,0,0,1,0-.1c1.1-.87,3.88.86,6.34,3.95A.08.08,0,0,1,23.07,81.34Z" style="fill: #ea601b"/>
          <path d="M23.07,81.34a.08.08,0,0,1-.1,0c-1.44-1.8-3.68-2.4-5-1.35a.07.07,0,0,1-.1,0,.08.08,0,0,1,0-.1c1.39-1.11,3.73-.49,5.21,1.37A.08.08,0,0,1,23.07,81.34Z" style="fill: #ea601b"/>
          <g>
            <g>
              <path d="M28.93,78.42a2.94,2.94,0,0,1,1.15.15c1.43.48,2.45,1.94,1.94,2.82s-1.76,0-1.86-.13h0C30.4,80.06,29.75,78.39,28.93,78.42Z" style="fill: #f0f8f7"/>
              <path d="M28.84,78.42c-.42,0-.23.48,0,.58.28-.1.48-.6,0-.58h0c.82,0,1.47,1.64,1.22,2.84a1.27,1.27,0,0,1-2.54,0c-.24-1.19.4-2.85,1.21-2.84Z" style="fill: #f6c759"/>
              <path d="M28.88,78.43v0c0-1.75,2.42-4,4.28-2.52s-.87,3.11-3.08,2.68a2.94,2.94,0,0,0-1.15-.15h-.05Z" style="fill: #f0f8f7"/>
              <path d="M28.9,78.42h0Z" style="fill: #f6c759"/>
              <path d="M28.88,78.41v0h-.06a2.84,2.84,0,0,0-1.13.15c-2.21.43-4.83-1.17-3.08-2.68S28.88,76.66,28.88,78.41Z" style="fill: #f0f8f7"/>
              <path d="M28.87,78.43h0Z" style="fill: #f6c759"/>
              <path d="M28.85,78.42h0Z" style="fill: #f6c759"/>
              <path d="M28.88,79c-.27-.1-.46-.59,0-.58h.08C29.36,78.4,29.16,78.9,28.88,79Z" style="fill: #f4ad17"/>
              <path d="M28.82,78.42c-.81,0-1.45,1.65-1.21,2.84-.1.18-1.4,1-1.86.13s.51-2.34,1.94-2.82A2.84,2.84,0,0,1,28.82,78.42Z" style="fill: #f0f8f7"/>
            </g>
            <path d="M28.89,78.47a.07.07,0,0,1-.07-.07c0-3.5,1.32-6.35,2.94-6.35a.07.07,0,1,1,0,.14C30.22,72.19,29,75,29,78.4A.07.07,0,0,1,28.89,78.47Z" style="fill: #ea601b"/>
            <path d="M28.89,78.47a.07.07,0,0,1-.07-.07c0-3.8-1.06-6.89-2.36-6.89a.07.07,0,1,1,0-.14c1.4,0,2.5,3.09,2.5,7A.07.07,0,0,1,28.89,78.47Z" style="fill: #ea601b"/>
            <path d="M28.89,78.47a.07.07,0,0,1-.07-.07c0-4.35.61-8.86,1.62-8.86a.08.08,0,0,1,.08.08.08.08,0,0,1-.08.07c-.71,0-1.48,3.5-1.48,8.71A.07.07,0,0,1,28.89,78.47Z" style="fill: #ea601b"/>
            <path d="M28.89,78.47a.07.07,0,0,1-.07-.07c0-2.3-1.38-4.17-3.08-4.17a.07.07,0,0,1,0-.14C27.52,74.09,29,76,29,78.4A.07.07,0,0,1,28.89,78.47Z" style="fill: #ea601b"/>
          </g>
        </g>
        <g>
          <g>
            <polygon points="79.83 81.2 84.31 91.54 84.3 91.55 74.93 96.96 74.93 86.16 74.93 83.99 79.83 81.2" style="fill: #f6c759"/>
            <polygon points="79.83 81.2 74.93 83.99 60.41 75.6 65.24 72.81 79.83 81.2" style="fill: #f0f8f7"/>
            <polygon points="78.92 100.27 79.82 99.75 79.81 99.72 74.93 96.98 74.93 96.96 84.3 91.55 84.31 91.56 91.56 95.76 77.43 103.91 77.43 103.92 74.98 102.55 77.79 100.92 78.92 100.27" style="fill: #f0f8f7"/>
            <polygon points="91.56 99.66 77.46 107.8 77.43 107.8 77.43 107.41 77.43 107.31 77.43 103.92 77.43 103.91 91.56 95.76 91.56 99.66" style="fill: #f6c759"/>
            <path d="M76,105.53,75,104.92v-2.37l2.45,1.37v3.49A2.28,2.28,0,0,0,76,105.53Z" style="fill: #76c5b4"/>
            <path d="M77.2,119.65a.82.82,0,0,1-.37.64l-.45.26a.18.18,0,0,1-.27-.16v-1.77a.78.78,0,0,1,.37-.64l.35-.21c.2-.11.37,0,.37.22Z" style="fill: #a5d7d4"/>
            <polygon points="74.93 99.31 74.93 98.02 78.92 100.27 77.79 100.92 74.93 99.31" style="fill: #a5d7d4"/>
            <polygon points="79.81 99.72 79.82 99.75 78.92 100.27 74.93 98.02 74.93 96.98 79.81 99.72" style="fill: #76c5b4"/>
            <path d="M74.78,121.81v.42a.82.82,0,0,1-.37.64l-.37.21c-.2.12-.37,0-.37-.22v-.41a.84.84,0,0,1,.37-.65l.37-.21C74.61,121.48,74.78,121.57,74.78,121.81Z" style="fill: #a5d7d4"/>
            <path d="M77.43,112.93v1a.91.91,0,0,1-.42.71l-.79.46a.92.92,0,0,0-.41.72v.91a.91.91,0,0,1-.42.72l-.78.46a.93.93,0,0,0-.41.72v.91a.94.94,0,0,1-.42.72l-.79.46c-.22.14-.41,0-.41-.23V110.12L77,107.55v-.5l-2-1.17v-1l1.06.61a2.28,2.28,0,0,1,1.39,1.88v5.52Z" style="fill: #a5d7d4"/>
            <polygon points="77 107.56 72.57 110.12 72.57 109.63 77 107.05 77 107.56" style="fill: #76c5b4"/>
            <polygon points="66.06 112.9 72.57 109.17 72.57 109.63 72.57 110.12 72.57 113.43 66.06 117.25 66.06 112.9" style="fill: #f6c759"/>
            <polygon points="72.54 84.52 66.9 87.76 54.77 80.76 60.41 77.5 72.54 84.52" style="fill: #95d1d2"/>
            <polygon points="72.57 109.17 66.48 105.66 66.47 105.66 64.14 104.31 66.53 102.9 66.55 102.89 67.64 102.26 67.64 100.77 72.52 97.96 72.53 97.96 72.53 97.96 74.93 99.31 77.79 100.92 74.98 102.55 74.98 104.92 74.98 105.88 77 107.05 72.57 109.63 72.57 109.17" style="fill: #95d1d2"/>
            <polygon points="67.64 102.26 66.55 102.89 66.53 102.9 61.5 105.8 61.5 98.1 61.5 98.09 62.83 91.03 67.64 88.19 67.64 100.77 67.64 102.26" style="fill: #f6c759"/>
            <polygon points="67.64 88.19 66.9 87.76 72.54 84.52 72.54 97.95 72.53 97.96 72.52 97.96 67.64 100.77 67.64 88.19" style="fill: #76c5b4"/>
            <polygon points="67.64 88.19 62.83 91.03 48.27 82.62 53.13 79.81 53.97 80.3 54.77 80.76 66.9 87.76 67.64 88.19" style="fill: #f0f8f7"/>
            <polygon points="57.63 108.05 57.64 108.03 61.5 105.8 66.53 102.9 64.14 104.31 66.47 105.66 66.48 105.66 72.57 109.17 66.06 112.9 57.63 108.05" style="fill: #f0f8f7"/>
            <polygon points="66.06 112.9 66.06 117.25 42.84 103.91 42.84 99.56 48.65 102.9 57.63 108.05 66.06 112.9" style="fill: #60bda0"/>
            <polygon points="62.83 91.03 61.5 98.09 61.5 98.1 53.13 93.28 53.13 93.26 53.13 91.09 53.13 91.08 47.3 87.72 48.27 82.62 62.83 91.03" style="fill: #60bda0"/>
            <polygon points="61.5 98.1 61.5 105.8 57.64 108.03 58.58 99.78 61.5 98.1" style="fill: #f6c759"/>
            <path d="M72.54,98V84.52l-12.13-7-5.64,3.25L54,80.3l6.44-3.71,13.13,7.6a2.24,2.24,0,0,1,1.39,2V99.31L72.53,98h0Z" style="fill: #a5d7d4"/>
            <polygon points="58.58 99.78 57.64 108.03 57.63 108.05 48.65 102.9 48.66 102.88 50.21 94.95 58.58 99.78" style="fill: #95d1d2"/>
            <path d="M60.41,75.6,74.93,84v2.17a2.24,2.24,0,0,0-1.39-2l-13.13-7.6L54,80.3l-.84-.49Z" style="fill: #76c5b4"/>
            <polygon points="53.13 93.28 61.5 98.1 58.58 99.78 50.21 94.95 50.22 94.94 53.13 93.26 53.13 93.28" style="fill: #f0f8f7"/>
            <polygon points="53.13 91.09 53.13 93.26 50.22 94.94 50.7 92.49 53.13 91.09" style="fill: #f6c759"/>
            <polygon points="53.13 91.09 50.7 92.49 44.87 89.12 47.3 87.72 53.13 91.08 53.13 91.09" style="fill: #f0f8f7"/>
            <polygon points="50.7 92.49 50.22 94.94 50.21 94.95 48.66 102.88 48.65 102.9 42.84 99.56 44.87 89.12 50.7 92.49" style="fill: #95d1d2"/>
          </g>
          <g>
            <path d="M87.59,92.8a2,2,0,0,1-2,2,2.39,2.39,0,0,1-1.5-.51l2-2.24-.34-.34a3.66,3.66,0,0,0,.42-.78A2.21,2.21,0,0,1,87.59,92.8Z" style="fill: #60bda0"/>
            <path d="M86.36,89.76A3.51,3.51,0,0,1,86.15,91a2.47,2.47,0,0,0-.86-.15,2,2,0,0,0-2,2,2,2,0,0,0,.06.34l-.18,0c0-.81,0-1.42,0-1.42l-.71,0s0,.63,0,1.46a3.74,3.74,0,1,1,.39-7.46A3.84,3.84,0,0,1,86.36,89.76Z" style="fill: #60bda0"/>
            <path d="M85.73,91.76l.34.34-2,2.24a1.9,1.9,0,0,1-.37-.38L85,92.53A3.05,3.05,0,0,0,85.73,91.76Z" style="fill: #60bda0"/>
            <path d="M86.15,91a3.66,3.66,0,0,1-.42.78l0,0-.72.8a3.66,3.66,0,0,1-1.64.69,2,2,0,0,1-.06-.34,2,2,0,0,1,2-2A2.47,2.47,0,0,1,86.15,91Z" style="fill: #60bda0"/>
            <path d="M85.7,91.73l0,0a3.05,3.05,0,0,1-.75.77Z" style="fill: #60bda0"/>
            <path d="M85,92.53,83.71,94a1.91,1.91,0,0,1-.37-.74A3.66,3.66,0,0,0,85,92.53Z" style="fill: #60bda0"/>
            <path d="M83.71,94a1.9,1.9,0,0,0,.37.38c-.39.43-.73.82-.92,1v-.79Z" style="fill: #ea601b"/>
            <path d="M83.16,95.36c0,.94,0,1.72,0,1.81s-.51.25-.71,0c0-.09,0-.93,0-1.92h.22c0,.24.26.38.37.3A1.13,1.13,0,0,0,83.16,95.36Z" style="fill: #ea601b"/>
            <path d="M83.16,94.57v.79a1.13,1.13,0,0,1-.14.15c-.11.08-.37-.06-.37-.3a.17.17,0,0,1,0-.07Z" style="fill: #ea601b"/>
            <path d="M83.16,93.24v1.33l-.5.57a.17.17,0,0,0,0,.07h-.22v-2h.1A4.37,4.37,0,0,0,83.16,93.24Z" style="fill: #ea601b"/>
            <path d="M83.15,91.82s0,.61,0,1.42a4.37,4.37,0,0,1-.63,0h-.1c0-.83,0-1.46,0-1.46Z" style="fill: #60bda0"/>
          </g>
          <g>
            <path d="M74.22,73.73a3.1,3.1,0,0,1,2.86,3.07,2.67,2.67,0,0,1-2.58,2.72c0-.68,0-1.85,0-1.85l-.57,0s0,1.17,0,1.85a3.1,3.1,0,0,1-2.54-3A2.67,2.67,0,0,1,74.22,73.73Z" style="fill: #60bda0"/>
            <path d="M74.49,77.67s0,1.17,0,1.85h0a1.31,1.31,0,0,1-.28,0,1.65,1.65,0,0,1-.31,0c0-.68,0-1.85,0-1.85Z" style="fill: #60bda0"/>
            <path d="M74.22,79.52a1.31,1.31,0,0,0,.28,0c0,.24,0,.42,0,.48s-.42.24-.57,0c0,0,0-.24,0-.48A1.65,1.65,0,0,0,74.22,79.52Z" style="fill: #ea601b"/>
          </g>
          <g>
            <path d="M62.84,101.71a3.11,3.11,0,0,1,2.85,3.08,2.67,2.67,0,0,1-2.57,2.72c0-.69,0-1.86,0-1.86l-.58,0s0,1.16,0,1.85a3.11,3.11,0,0,1-2.54-3A2.69,2.69,0,0,1,62.84,101.71Z" style="fill: #60bda0"/>
            <path d="M63.11,105.65s0,1.17,0,1.86h-.28l-.32,0c0-.69,0-1.85,0-1.85Z" style="fill: #60bda0"/>
            <path d="M62.84,107.51h.27V108c0,.16-.42.24-.58,0,0-.06,0-.24,0-.48Z" style="fill: #ea601b"/>
          </g>
          <g>
            <path d="M53.12,77.51A3.1,3.1,0,0,1,56,80.58,2.67,2.67,0,0,1,53.4,83.3c0-.68,0-1.85,0-1.85l-.57,0s0,1.17,0,1.85a3.1,3.1,0,0,1-2.54-3A2.67,2.67,0,0,1,53.12,77.51Z" style="fill: #60bda0"/>
            <path d="M53.39,81.45s0,1.17,0,1.85h0a1.31,1.31,0,0,1-.28,0,1.65,1.65,0,0,1-.31,0c0-.68,0-1.85,0-1.85Z" style="fill: #60bda0"/>
            <path d="M53.12,83.3a1.31,1.31,0,0,0,.28,0c0,.24,0,.42,0,.48s-.42.24-.57,0c0,0,0-.24,0-.48A1.65,1.65,0,0,0,53.12,83.3Z" style="fill: #ea601b"/>
          </g>
          <polygon points="77 107.05 77 110.85 72.57 113.41 72.57 109.63 77 107.05" style="fill: #76c5b4"/>
        </g>
      </g>
    </g>
  </g>
</svg>
