<svg xmlns="http://www.w3.org/2000/svg" width="136.33" height="149.57" viewBox="0 0 136.33 149.57">
  <g id="Layer_2" data-name="Layer 2">
    <g id="Icon">
      <g>
        <g>
          <path d="M118.82,5.42a5.32,5.32,0,0,0-1.36-2.91l1.28-.69A5.75,5.75,0,0,1,120.31,5l-.8.37,2.74,0V7h-2.43V9.35l1.92,0V10.9h-1.92v2.61h1.87v1.56h-1.87l0,2.69,2.77,0v1.58h-6.09v1.59h-1.62V9.74a9.53,9.53,0,0,1-1,1.38l-.56-.56,0,1.25h-3.17L109.89,13h3.93l0,5.71a1.87,1.87,0,0,1-1,1.58,6.15,6.15,0,0,1-2.36.26l-.75-1.45,2.05,0c.32,0,.41-.34.41-.73l-1.36.5a3,3,0,0,0-.11-1.06l-4,.67-.63-1.38.91-.24c.6,0,.78-1.17,1-2.31h-2V21h-1.62V14.59h-1.08l0-1.55,1.08,0V12H106v1h2.33l.21-1.21h-3.73V5.87h1.62v.39l.88-.75a9.56,9.56,0,0,1,2.2,1.27A11.07,11.07,0,0,0,110.67,5l1.08.6a13.38,13.38,0,0,1-1.17,2,6.7,6.7,0,0,1,1.06,1.21l0-3,1.64,0V9.2c1.66-1.86,2.44-5.59,2.48-7.68l1.49.43a17.23,17.23,0,0,1-.62,3.47Zm-15.1-.54V3.33h4.21a5.81,5.81,0,0,0-1.36-1.23L108,1.3a6.83,6.83,0,0,1,1.56,2h4.77V4.88Zm3.37,5.37-.65-.45,0,.45Zm-.65-1.2a11.31,11.31,0,0,0,2.16-1.32,11.15,11.15,0,0,0-2.16-1.17Zm5.24.28-1,.79a7,7,0,0,0-1.06-1.48,10.86,10.86,0,0,1-2.27,1.57l4.36,0Zm.52,5.26h-2.61a8,8,0,0,1-.67,2.05l1.32-.22a6.83,6.83,0,0,1-.74-.88l1.32-.43a6.22,6.22,0,0,1,1.34,2.8Zm6-3.69h-1.71l0,2.59,1.69,0Zm-1.69,4.17,0,2.67h1.71V15.07Zm1.69-5.68V7l-1.69,0V9.39Z" style="fill: #fff"/>
          <path d="M117.29,42.67a5.7,5.7,0,0,0,2,.09,3.71,3.71,0,0,0,.49-2c.11-.86.17-1.94.2-2.52l-13.86,0,0-11.37,5.38,0a6.52,6.52,0,0,0,1.31-2.1c.61.24,1,.52,1.58.74a8.69,8.69,0,0,1-.89,1.38h5.89v6.51H107.8v.82h13.42v1.58H107.8v.88l13.87,0a34.71,34.71,0,0,1-.56,6.26,2,2,0,0,1-1.21,1.4,6.2,6.2,0,0,1-2.13.11L117.33,43l0,.93h-1.64c0-.43,0-.73,0-.86l-9.15,0V44h-1.64V39.33h1.64v2.22h3.78V38.27h1.64v3.3l3.75,0V39.27h1.62Zm-9.51-14.28,0,.89h9.88v-.89Zm0,2.46,0,.95h9.88v-.95Z" style="fill: #fff"/>
          <path d="M122.49,67H107.21c-1.14,0-1.66-1-1.66-2V51.3l-1.36,0v-1.6l18.19,0v1.6H107.19l0,13.24c0,.61.22.85.89.85h14.39Zm-8.28-3H108.1V58l6.11,0Zm-4.49-4.4v2.83l2.85,0,0-2.87Zm9.86-2.72-9.71,0,0-4.82h9.69Zm-8.07-1.46h6.43V53.52h-6.43Zm10,2.61v5.91h-6.17V58Zm-1.62,1.55-2.91,0v2.76l2.89,0Z" style="fill: #fff"/>
        </g>
        <g>
          <path d="M120.12,4.12a5.32,5.32,0,0,0-1.36-2.91L120,.52a5.75,5.75,0,0,1,1.57,3.19l-.8.37,2.74,0V5.67h-2.44V8.05l1.93,0V9.6h-1.93v2.61H123v1.56h-1.88l0,2.69,2.77,0V18h-6.09v1.59h-1.62V8.44a9.53,9.53,0,0,1-1,1.38l-.56-.56,0,1.25h-3.17l-.26,1.21h3.93l0,5.71a1.87,1.87,0,0,1-1,1.58,6.15,6.15,0,0,1-2.36.26L111,17.82l2,0c.32,0,.41-.34.41-.73l-1.36.5a3.29,3.29,0,0,0-.11-1.06l-4,.67-.63-1.38.91-.24c.6,0,.78-1.17,1-2.31h-2v6.43h-1.62V13.29h-1.08l0-1.55,1.08-.05v-.95h1.64v1h2.33l.21-1.21h-3.73V4.57h1.62V5l.88-.75a9.56,9.56,0,0,1,2.2,1.27A11.07,11.07,0,0,0,112,3.69l1.08.6a13.38,13.38,0,0,1-1.17,2,6.7,6.7,0,0,1,1.06,1.21l0-3,1.64,0V7.9C116.28,6,117.06,2.31,117.1.22l1.49.43A16.63,16.63,0,0,1,118,4.12ZM105,3.58V2h4.21A5.81,5.81,0,0,0,107.87.8l1.46-.8a6.83,6.83,0,0,1,1.56,2h4.77V3.58ZM108.39,9l-.65-.45,0,.45Zm-.65-1.2a11.31,11.31,0,0,0,2.16-1.32,11.15,11.15,0,0,0-2.16-1.17ZM113,8l-1,.79a7,7,0,0,0-1.06-1.48,10.86,10.86,0,0,1-2.27,1.57L113,9Zm.52,5.26h-2.61a8,8,0,0,1-.67,2.05l1.32-.22a6.83,6.83,0,0,1-.74-.88l1.32-.43a6.33,6.33,0,0,1,1.34,2.8Zm6-3.69h-1.71l0,2.59,1.69,0Zm-1.69,4.17,0,2.67h1.71V13.77Zm1.69-5.68V5.67l-1.69,0V8.09Z" style="fill: #003869"/>
          <path d="M118.59,41.37a5.7,5.7,0,0,0,2,.09,3.71,3.71,0,0,0,.49-2.05c.11-.86.17-1.94.2-2.52l-13.86,0,0-11.37,5.38,0a6.52,6.52,0,0,0,1.31-2.1c.61.24,1,.52,1.58.74a8.69,8.69,0,0,1-.89,1.38h5.89v6.51H109.1v.82h13.42v1.58H109.1v.88l13.87,0a34.71,34.71,0,0,1-.56,6.26A2,2,0,0,1,121.2,43a6.2,6.2,0,0,1-2.13.11l-.44-1.34,0,.93H117c0-.43,0-.73,0-.86l-9.15,0v.86h-1.64V38h1.64v2.22h3.78V37h1.64v3.3l3.75,0V38h1.62Zm-9.51-14.28,0,.89H119v-.89Zm0,2.46,0,.95H119v-.95Z" style="fill: #003869"/>
          <path d="M123.79,65.68H108.51c-1.14,0-1.66-1-1.66-2V50l-1.36,0v-1.6l18.19,0V50H108.49l0,13.24c0,.61.22.85.89.85h14.39Zm-8.28-3H109.4v-6l6.11,0ZM111,58.28v2.83l2.85,0,0-2.87Zm9.86-2.72-9.71,0,0-4.82h9.69Zm-8.07-1.46h6.43V52.22h-6.43Zm10,2.61v5.91h-6.17V56.71Zm-1.62,1.55-2.91,0V61l2.89,0Z" style="fill: #003869"/>
        </g>
        <g style="isolation: isolate">
          <polygon points="71.55 126.76 3.14 101.86 61.75 76.16 130.16 101.06 71.55 126.76" style="fill: #999"/>
          <polygon points="71.58 129.14 71.55 126.76 130.16 101.06 130.19 103.44 71.58 129.14" style="fill: #666766"/>
          <polygon points="3.17 104.24 3.14 101.86 71.55 126.76 71.58 129.14 3.17 104.24" style="fill: #4d4d4e"/>
        </g>
        <g>
          <path d="M134.68,127.68c1.64.95,2.06,1.19,1.25,1.78-.28.2-.69.44-1.25.76l-4.33,2.47a5.21,5.21,0,0,1-2.22,1h0a5.35,5.35,0,0,1-2.12-.94l-1.67-1h0l.39-.65.12-.19.69.4.71.41h0l.36.21h0c1.57.94,1.53.88,3.49-.25l4.07-2.37a3.81,3.81,0,0,0,1.17-.84c.12-.24-.09-.45-.63-.78Z" style="fill: #6db3c5"/>
          <path d="M135.93,129.46h0l-.51,3c0-.58-.64-1.29-1.1-1.05l-.37.22-3.76,2.22a2.58,2.58,0,0,0-1,2.24h0l-1.13-2.4h0a5.21,5.21,0,0,0,2.22-1l4.33-2.47C135.24,129.9,135.65,129.66,135.93,129.46Z" style="fill: #48a6f6"/>
          <path d="M134.68,127.69c.54.33.75.54.63.78l0,0-2.65-1.51-.1-.5,1.75,1h0Z" style="fill: #35a7bd"/>
          <path d="M135.27,128.45l0,0a3.81,3.81,0,0,1-1.17.84l-4.07,2.37c-2,1.13-1.92,1.19-3.49.25h0l-.36-.21.64,0c3.19,0,5.78-1.77,5.78-4a.76.76,0,0,0,0-.15s0,0,0,0a9,9,0,0,0-.41-.9l.41.24Z" style="fill: #2798f8"/>
          <path d="M132.62,127.63a.76.76,0,0,1,0,.15c0,2.19-2.59,4-5.78,4l-.64,0h0l-.71-.41c-.16-.36-.35-.72-.55-1.08a7.79,7.79,0,0,0,1.2.09c3.19,0,5.78-1.77,5.78-4v-.17h0c.1.17.2.34.29.51a9,9,0,0,1,.41.9S132.63,127.62,132.62,127.63Z" style="fill: #f7f0f8"/>
          <path d="M131.92,126.19h0v.17c0,2.19-2.59,4-5.78,4a7.79,7.79,0,0,1-1.2-.09,13.63,13.63,0,0,0-1-1.45,9.42,9.42,0,0,0,1.2.08c3.19,0,5.78-1.77,5.78-4a.76.76,0,0,0,0-.15v0h0A12.9,12.9,0,0,1,131.92,126.19Z" style="fill: #6db3c5"/>
          <path d="M130.9,124.72h0v0a.76.76,0,0,1,0,.15c0,2.18-2.59,4-5.78,4a9.42,9.42,0,0,1-1.2-.08,19.73,19.73,0,0,0-2.14-2.25h0a29.26,29.26,0,0,0-3.21-2.52c-1.07-.74-2.09-1.37-3-1.87l-4.66-2.69,6.18-3.57h0l1.18,2-1.58.92-.19.54-.2.56-.09.26c1,1,2,1.92,2.92,2.71a3.63,3.63,0,0,0,2.24.71c1.61,0,2.92-.9,2.92-2a1.68,1.68,0,0,0-.69-1.29l-.35-.26h0c-.33-.24-.7-.5-1.1-.76-.23-.16-.48-.32-.74-.47l-2.36-1.37h0l-1.18-2,0,0,4.7,2.72A30.41,30.41,0,0,1,130.9,124.72Zm-2.64.33a2.36,2.36,0,1,0-2.31,1.89A2.13,2.13,0,0,0,128.26,125.05Z" style="fill: #f7f0f8"/>
          <path d="M128.08,133.65l1.13,2.4-19.94-11.51-.82-1.75h0l15.84,9,1.67,1A5.35,5.35,0,0,0,128.08,133.65Z" style="fill: #18a3f4"/>
          <path d="M126,123.15a1.93,1.93,0,1,1-2.32,1.9A2.13,2.13,0,0,1,126,123.15Z" style="fill: #18a3f4"/>
          <path d="M125.49,131.31l-.69-.4-.12.19-13.74-7.92v-1l11.65,6.74h0l2.33,1.34h0C125.14,130.59,125.33,131,125.49,131.31Z" style="fill: #f7f0f8"/>
          <path d="M124.94,130.23h0l-2.33-1.34h0l-11.65-6.74v-.83h0l13,7.47h0A13.63,13.63,0,0,1,124.94,130.23Z" style="fill: #6db3c5"/>
          <polygon points="124.68 131.1 124.29 131.75 124.28 131.76 108.45 122.79 108.45 122.78 110.91 121.37 110.94 121.37 110.94 122.14 110.94 123.18 124.68 131.1" style="fill: #2798f8"/>
          <path d="M123.92,128.78h0l-13-7.47h0v-1l10.83,6.25h0A19.73,19.73,0,0,1,123.92,128.78Z" style="fill: #f7f0f8"/>
          <path d="M123.66,120.28a1.68,1.68,0,0,1,.69,1.29c0,1.1-1.31,2-2.92,2a3.63,3.63,0,0,1-2.24-.71c-1-.79-1.94-1.74-2.92-2.71l.09-.26,2.83,2.25a3.42,3.42,0,0,0,2,.68c1.42,0,2.56-.84,2.55-1.82a1.24,1.24,0,0,0-.45-1Z" style="fill: #8ac8d3"/>
          <path d="M123.76,121c0,1-1.13,1.79-2.55,1.82a3.42,3.42,0,0,1-2-.68l-2.83-2.25.2-.56,2.49,1.73a2.71,2.71,0,0,0,1.62.5c1.13,0,2-.66,2-1.43a1,1,0,0,0-.49-.87c.4.26.77.52,1.1.76h0A1.24,1.24,0,0,1,123.76,121Z" style="fill: #6db3c5"/>
          <path d="M122.69,120.13c0,.77-.89,1.41-2,1.43a2.71,2.71,0,0,1-1.62-.5l-2.49-1.73.19-.54,2.37,1.34a2.27,2.27,0,0,0,1.2.37c.85,0,1.52-.49,1.51-1.07a.71.71,0,0,0-.37-.64c.26.15.51.31.74.47A1,1,0,0,1,122.69,120.13Z" style="fill: #8ac8d3"/>
          <path d="M121.83,119.43c0,.58-.66,1.06-1.51,1.07a2.27,2.27,0,0,1-1.2-.37l-2.37-1.34,1.58-.92.28.48-.51.3,1.77,1,.92-.51-1-.59h0l-.68-1.16h0l2.36,1.37A.71.71,0,0,1,121.83,119.43Z" style="fill: #f7f0f8"/>
          <path d="M121.77,126.53l-10.83-6.25v-.83l4.66,2.69c.87.5,1.89,1.13,3,1.87A29.26,29.26,0,0,1,121.77,126.53Z" style="fill: #18a3f4"/>
          <polygon points="120.79 119.17 119.87 119.68 118.1 118.65 118.61 118.35 118.87 118.79 118.87 118.79 119.63 119.24 120.03 119.02 120.03 119.02 119.77 118.59 119.78 118.58 120.79 119.17" style="fill: #35a7bd"/>
          <polygon points="119.77 118.59 120.03 119.02 120.03 119.02 119.63 119.24 119.24 118.58 118.98 118.14 118.7 117.65 119.09 117.42 119.77 118.58 119.77 118.59" style="fill: #8ac8d3"/>
          <polygon points="119.24 118.58 119.63 119.24 118.87 118.79 118.87 118.79 118.61 118.35 118.33 117.87 118.7 117.65 118.98 118.14 119.24 118.58" style="fill: #6db3c5"/>
          <polygon points="117.91 115.42 119.09 117.42 118.7 117.65 116.67 114.2 116.76 114.25 117.11 114.05 117.91 115.42" style="fill: #8ac8d3"/>
          <polygon points="116.67 114.2 118.7 117.65 118.33 117.87 117.15 115.87 115.91 113.75 116.67 114.2" style="fill: #6db3c5"/>
          <polygon points="117.67 113.48 117.67 113.73 117.11 114.05 116.76 114.25 116.76 113.99 116.76 113.99 116.99 113.86 117.44 113.6 117.67 113.48 117.67 113.48" style="fill: #6db3c5"/>
          <polygon points="117.67 113.48 117.44 113.6 116.99 113.86 116.76 113.99 116.75 113.99 116.44 113.81 116.44 113.81 115.68 113.36 115.68 113.37 115.21 113.09 114.99 112.96 114.98 112.96 115.87 112.44 117.67 113.48" style="fill: #8ac8d3"/>
          <polygon points="116.76 113.99 116.76 114.25 116.67 114.2 115.91 113.75 114.99 113.21 114.99 112.96 115.21 113.09 115.68 113.37 116.44 113.81 116.44 113.81 116.75 113.99 116.76 113.99 116.76 113.99" style="fill: #35a7bd"/>
        </g>
        <g>
          <path d="M113,139.64c2.15,1.25,2,1.32-.41,2.72h0l-1.08.63-.42.24-.41.24-3,1.75-.41.23-.41.24-3,1.76-.42.24-.4.23h0c-2,1.17-2.27,1.17-4.29,0l-.42-.24h0l-.4-.23L93.56,145l-.41-.24-.41-.24-5.62-3.24-.41-.23-.41-.24-6.82-3.94-.41-.24-.41-.23-5.21-3-.42-.24-.41-.24L67,129.62l-.41-.24-.41-.24h0V128l1.31.76h0l5.14,3,1.26.72h0l5.19,3,1.26.73,5.12,3,1.26.72,5.18,3,1.26.72,5.13,3c2.57,1.48,2.57,1.48,5.13,0h0l2.56-1.48,2.57-1.49,2.56-1.48,1-.56c.64-.39,1-.66,1-.92h0Z" style="fill: #18a3f4"/>
          <path d="M113,140.64h0c0,.26-.32.53-1,.92l-1,.56,0-3v-3h0c1.26-.74,1.9-1.11,1.9-1.47v5.92Z" style="fill: #8ac8d3"/>
          <path d="M113,134.72c0,.36-.64.73-1.9,1.47h0l-2.56,1.48L106,139.16l-2.56,1.48h0a5.86,5.86,0,0,1-2.56,1.11,5.89,5.89,0,0,1-2.57-1.11h0L93.63,138l-.48-.28L91.89,137l-4.7-2.71-.48-.28-1.27-.72h0l1-.56,11.87,6.85c2.57,1.48,2.57,1.48,5.14,0l5.77-3.32c1.31-.76,1.95-1.13,1.92-1.51v-.75c0-.38-.61-.75-1.92-1.51L98,126l.28-.16.29.16.23.14,1.86,1.07,10.45,6C112.39,134,113,134.34,113,134.72Z" style="fill: #2798f8"/>
          <polygon points="111.53 142.99 111.53 144.84 111.11 145.09 111.11 143.23 111.11 143.23 111.53 142.99 111.53 142.99" style="fill: #6db3c5"/>
          <path d="M111.13,136.19h0v1.9l-2.58,1.48v-1.89h0l2.56-1.48h0Z" style="fill: #6db3c5"/>
          <polygon points="111.12 138.1 111.12 139.16 111.11 139.16 111.11 139.16 108.54 140.64 108.54 139.59 111.12 138.1" style="fill: #8ac8d3"/>
          <polygon points="111.12 139.16 111.11 142.12 108.54 143.6 108.54 140.64 111.11 139.16 111.11 139.16 111.12 139.16" style="fill: #6db3c5"/>
          <polygon points="111.11 143.23 111.11 145.09 110.7 144.85 110.7 144.84 110.7 143.47 110.7 143.47 111.11 143.23 111.11 143.23" style="fill: #35a7bd"/>
          <path d="M111.1,134.69c0,.38-.61.75-1.92,1.51l-5.77,3.32c-2.57,1.48-2.57,1.48-5.14,0L86.4,132.67v-.78l11.87,6.84c2.57,1.49,2.57,1.49,5.14,0l5.77-3.33c1.26-.73,1.9-1.1,1.92-1.46Z" style="fill: #35a7bd"/>
          <path d="M109.18,132.43c1.31.76,1.95,1.13,1.92,1.51s-.66.73-1.92,1.46l-5.77,3.33c-2.57,1.49-2.57,1.49-5.14,0L86.4,131.89h0l.48-.27.68.39h0l10.7,6.17h0c2.57,1.48,2.57,1.48,5.14,0l4.81-2.76a13.64,13.64,0,0,0,1.63-1c.69-.6.15-.91-1.63-1.94l-11.39-6.56h0l.48-.27L98,126Z" style="fill: #8ac8d3"/>
          <path d="M108.22,132.45c1.78,1,2.32,1.34,1.63,1.94A5.94,5.94,0,0,0,108,133.1h0l-9.25-5.33-1.9-1.09h0v-.77Z" style="fill: #6db3c5"/>
          <path d="M108,133.1a5.94,5.94,0,0,1,1.87,1.29,13.64,13.64,0,0,1-1.63,1l-4.81,2.76c-2.57,1.48-2.57,1.48-5.14,0h0L87.57,132l9.26-5.33h0l1.9,1.09L108,133.1Z" style="fill: #f7f0f8"/>
          <polygon points="108.54 140.64 108.54 143.6 105.97 145.09 105.97 145.08 105.97 142.13 108.54 140.64" style="fill: #8ac8d3"/>
          <polygon points="108.54 139.59 108.54 140.64 105.97 142.13 105.97 141.07 108.54 139.59" style="fill: #8ac8d3"/>
          <polygon points="108.54 137.69 108.54 139.59 105.97 141.07 105.97 139.16 108.54 137.68 108.54 137.69" style="fill: #8ac8d3"/>
          <polygon points="107.68 145.22 107.68 147.07 107.27 147.33 107.27 145.47 107.26 145.45 107.67 145.22 107.68 145.22" style="fill: #6db3c5"/>
          <polygon points="107.27 145.47 107.27 147.33 106.85 147.09 106.85 147.07 106.85 145.71 106.85 145.69 107.26 145.45 107.27 145.47" style="fill: #35a7bd"/>
          <path d="M106,145.09l-2.56,1.48v-3h0l2.56-1.48v3Z" style="fill: #6db3c5"/>
          <path d="M106,141.07v1.05l-2.56,1.48h0v-1.06h0Z" style="fill: #8ac8d3"/>
          <polygon points="105.97 139.16 105.97 141.07 103.41 142.55 103.4 142.55 103.4 140.64 103.4 140.64 103.41 140.64 103.41 140.64 105.97 139.16" style="fill: #6db3c5"/>
          <polygon points="103.82 147.47 103.82 149.32 103.4 149.57 103.4 147.7 103.39 147.69 103.81 147.45 103.82 147.47" style="fill: #6db3c5"/>
          <path d="M103.4,146.55v0h0c-2.56,1.48-2.56,1.48-5.13,0v-3c2.57,1.49,2.57,1.49,5.13,0Z" style="fill: #8ac8d3"/>
          <polygon points="103.4 147.7 103.4 149.57 102.99 149.33 102.99 149.32 102.99 147.92 103.39 147.69 103.4 147.7" style="fill: #35a7bd"/>
          <path d="M103.4,142.57v1c-2.56,1.48-2.56,1.48-5.13,0v-1C100.84,144.05,100.84,144.05,103.4,142.57Z" style="fill: #8ac8d3"/>
          <path d="M103.4,142.55v0c-2.56,1.48-2.56,1.48-5.13,0v-1.93a5.89,5.89,0,0,0,2.57,1.11,5.86,5.86,0,0,0,2.56-1.11h0Z" style="fill: #8ac8d3"/>
          <path d="M98.7,147.93h0v1.36l-.42.26V147.7h0Z" style="fill: #6db3c5"/>
          <polygon points="98.65 122.64 98.65 123.1 98.28 123.32 95.72 124.81 95.23 125.09 94.55 125.49 85.44 130.78 85.44 130.44 85.44 130.29 94.26 125.19 94.26 125.19 94.94 124.79 95.43 124.51 98.65 122.64" style="fill: #48a6f6"/>
          <polygon points="98.65 122.64 95.43 124.51 94.94 124.79 94.26 125.19 94.26 125.19 85.44 130.29 85.44 130.29 79.62 126.91 88.41 121.81 89.09 121.42 89.58 121.13 89.86 120.97 92.81 119.26 98.65 122.64" style="fill: #f7f0f8"/>
          <path d="M98.28,147.69h0v1.86l-.41-.24v-1.87l.4.23Z" style="fill: #35a7bd"/>
          <polygon points="98.28 125.81 98.28 125.83 98.27 125.83 97.99 125.99 97.31 125.6 96.83 125.87 96.83 125.88 96.83 125.89 96.83 126.66 96.83 126.66 96.83 126.67 87.57 132 87.57 132 86.89 131.61 86.41 131.88 86.4 131.88 86.4 131.89 86.4 132.67 85.45 133.23 85.44 133.24 85.44 133.24 85.44 133.23 85.44 131.96 85.44 131.07 85.44 130.78 94.55 125.49 95.23 125.09 95.72 124.81 98.28 123.32 98.28 125.81" style="fill: #6db3c5"/>
          <polygon points="98.27 143.6 98.27 146.57 93.14 143.61 93.14 140.64 98.27 143.6" style="fill: #35a7bd"/>
          <path d="M98.27,142.57v1l-5.13-3v-1h0l5.12,3Z" style="fill: #8ac8d3"/>
          <path d="M98.27,142v.56h0l-5.12-3,.48-.27h0L98.27,142Z" style="fill: #35a7bd"/>
          <polygon points="98.27 140.64 98.27 142.01 98.27 142.01 93.63 139.34 93.63 137.97 93.63 137.96 98.27 140.63 98.27 140.64" style="fill: #f7f0f8"/>
          <polygon points="93.63 137.96 93.63 137.97 93.63 139.34 93.63 139.34 93.15 139.62 93.14 139.62 93.14 137.7 93.15 137.68 93.63 137.96" style="fill: #6db3c5"/>
          <polygon points="93.56 144.96 93.56 144.97 93.56 146.34 93.14 146.59 93.14 144.73 93.15 144.72 93.56 144.96" style="fill: #6db3c5"/>
          <polygon points="93.15 137.68 93.14 137.7 93.14 139.62 91.88 138.89 91.88 138.33 91.88 136.96 91.89 136.95 93.15 137.68" style="fill: #8ac8d3"/>
          <polygon points="93.15 144.72 93.14 144.73 93.14 146.59 92.73 146.35 92.73 146.34 92.73 144.5 92.74 144.49 93.15 144.72" style="fill: #35a7bd"/>
          <polygon points="93.14 140.64 93.14 143.61 91.88 142.89 91.88 141.85 91.88 141.29 91.88 139.92 93.14 140.64" style="fill: #8ac8d3"/>
          <polygon points="93.14 139.62 93.14 140.64 91.88 139.92 91.88 138.89 93.14 139.62" style="fill: #8ac8d3"/>
          <polygon points="91.89 136.95 91.88 136.96 91.88 138.33 87.18 135.62 87.18 134.25 87.19 134.24 91.89 136.95" style="fill: #f7f0f8"/>
          <polygon points="91.88 141.85 91.88 142.89 86.7 139.89 86.7 138.86 91.88 141.85" style="fill: #8ac8d3"/>
          <polygon points="91.88 141.29 91.88 141.85 86.7 138.86 86.7 138.85 87.17 138.58 91.88 141.29" style="fill: #35a7bd"/>
          <polygon points="91.88 139.92 91.88 141.29 87.17 138.58 87.17 137.21 87.18 137.2 91.88 139.92" style="fill: #f7f0f8"/>
          <polygon points="91.88 138.89 91.88 139.92 87.18 137.2 86.7 136.93 86.7 135.91 91.88 138.89" style="fill: #8ac8d3"/>
          <polygon points="91.88 138.33 91.88 138.89 86.7 135.91 87.18 135.63 87.18 135.62 91.88 138.33" style="fill: #35a7bd"/>
          <polygon points="89.86 120.97 89.58 121.13 77.23 114.01 78.38 109.52 78.38 108.73 78.52 108.49 80.31 109.53 79.02 114.72 80.31 115.46 89.86 120.97" style="fill: #2798f8"/>
          <polygon points="89.58 121.13 89.09 121.42 76.55 114.18 77.68 109.72 77.87 109 75.18 107.49 75.17 107.49 75.17 107.49 55.03 119.16 55.74 119.57 57.21 120.41 66.16 119.65 79.61 127.41 80.32 127.82 80.32 128.38 66.16 120.21 57.22 120.98 57.21 120.97 54.02 119.14 75.17 106.88 75.17 106.89 78.37 108.73 78.38 108.73 77.06 113.91 77.23 114 77.23 114.01 89.58 121.13" style="fill: #8ac8d3"/>
          <polygon points="89.09 121.42 88.41 121.81 76.55 114.96 76.55 114.18 89.09 121.42" style="fill: #6db3c5"/>
          <polygon points="88.41 121.81 79.62 126.91 79.62 127.4 79.61 127.41 66.16 119.65 57.21 120.41 55.74 119.57 75.17 108.32 75.18 108.32 77.68 109.72 76.55 114.18 76.55 114.96 88.41 121.81" style="fill: #f7f0f8"/>
          <polygon points="87.19 134.24 87.18 134.25 87.18 135.62 87.18 135.63 86.7 135.91 86.7 133.97 86.71 133.96 87.19 134.24" style="fill: #6db3c5"/>
          <polygon points="87.18 137.2 87.17 137.21 87.17 138.58 86.7 138.85 86.7 136.93 87.18 137.2" style="fill: #6db3c5"/>
          <polygon points="87.12 141.24 87.11 141.28 87.11 142.65 86.69 142.9 86.69 141.04 86.71 141.01 87.12 141.24" style="fill: #6db3c5"/>
          <polygon points="86.71 141.01 86.69 141.04 86.69 142.9 86.28 142.66 86.28 142.65 86.28 140.81 86.3 140.77 86.71 141.01" style="fill: #35a7bd"/>
          <polygon points="86.71 133.96 86.7 133.97 86.7 135.91 86.7 136.93 85.44 136.2 85.44 135.65 85.44 133.24 85.44 133.24 86.71 133.96" style="fill: #8ac8d3"/>
          <polygon points="86.7 138.86 86.7 139.89 85.44 139.17 85.44 138.59 85.44 136.2 86.7 136.93 86.7 138.85 86.69 138.86 86.7 138.86" style="fill: #8ac8d3"/>
          <polygon points="85.44 131.07 85.44 131.96 85.44 133.23 80.81 130.56 80.32 130.28 80.32 129.16 80.32 128.38 80.32 127.82 85.44 130.78 85.44 130.78 85.44 131.07" style="fill: #35a7bd"/>
          <polygon points="85.44 130.44 85.44 130.78 85.44 130.78 80.32 127.82 79.61 127.41 79.62 127.4 79.62 126.91 85.44 130.29 85.44 130.29 85.44 130.44" style="fill: #18a3f4"/>
          <polygon points="85.44 133.23 85.44 133.24 85.44 135.65 85.43 135.65 80.81 132.98 80.81 130.56 80.81 130.56 85.44 133.23" style="fill: #f7f0f8"/>
          <polygon points="85.44 138.59 85.44 139.17 80.32 136.21 80.32 136.2 80.81 135.92 85.43 138.59 85.44 138.59" style="fill: #35a7bd"/>
          <polygon points="85.44 136.2 85.44 138.59 85.43 138.59 80.81 135.92 80.81 133.52 85.44 136.2" style="fill: #f7f0f8"/>
          <polygon points="85.44 135.65 85.44 136.2 80.81 133.52 80.34 133.25 80.81 132.98 85.43 135.65 85.44 135.65" style="fill: #35a7bd"/>
          <polygon points="80.81 130.56 80.81 130.56 80.81 132.98 80.34 133.25 80.32 133.24 80.32 133.24 80.32 130.29 80.32 130.29 80.32 130.28 80.81 130.56" style="fill: #6db3c5"/>
          <polygon points="80.81 133.52 80.81 135.92 80.32 136.2 80.32 133.27 80.32 133.26 80.34 133.25 80.81 133.52" style="fill: #6db3c5"/>
          <polygon points="80.32 136.2 80.32 136.21 79.06 135.48 79.06 134.58 79.06 134.45 79.06 134.09 79.06 133.89 79.06 132.88 79.06 132.52 80.32 133.24 80.32 133.26 80.32 133.27 80.32 136.2" style="fill: #8ac8d3"/>
          <polygon points="80.32 133.24 80.32 133.24 79.06 132.52 79.06 132.18 79.06 131.48 79.06 130.93 79.06 129.55 80.32 130.28 80.32 130.29 80.32 130.29 80.32 133.24" style="fill: #8ac8d3"/>
          <polygon points="80.32 129.16 80.32 130.28 79.06 129.55 74.36 126.83 73.88 126.56 72.62 125.83 67.95 123.14 67.47 122.86 66.16 122.11 57.22 122.86 52.07 119.9 75.17 106.56 78.52 108.49 78.38 108.73 78.37 108.73 75.17 106.89 75.17 106.88 54.02 119.14 54.02 119.92 57.21 121.75 57.22 121.75 66.16 121 66.16 121 80.32 129.16" style="fill: #2798f8"/>
          <polygon points="80.32 128.38 80.32 129.16 66.16 121 66.16 120.99 66.16 120.21 80.32 128.38" style="fill: #35a7bd"/>
          <polygon points="80.31 109.53 80.31 115.46 79.02 114.72 80.31 109.53" style="fill: #6db3c5"/>
          <polygon points="79.48 136.83 79.48 136.85 79.48 138.21 79.06 138.47 79.06 136.61 79.07 136.59 79.48 136.83" style="fill: #6db3c5"/>
          <polygon points="79.07 136.59 79.06 136.61 79.06 138.47 78.65 138.23 78.65 138.21 78.65 136.37 78.66 136.36 79.07 136.59" style="fill: #35a7bd"/>
          <polygon points="79.06 134.58 79.06 135.48 73.87 132.49 73.87 132.48 73.87 131.46 79.06 134.45 79.06 134.45 79.06 134.58" style="fill: #8ac8d3"/>
          <polygon points="79.06 134.09 79.06 134.45 79.06 134.45 73.87 131.46 74.35 131.18 79.06 133.89 79.06 133.89 79.06 134.09" style="fill: #35a7bd"/>
          <polygon points="79.06 132.88 79.06 133.89 79.06 133.89 74.35 131.18 74.35 129.81 74.36 129.8 79.06 132.52 79.06 132.88" style="fill: #f7f0f8"/>
          <polygon points="79.06 132.18 79.06 132.52 74.36 129.8 73.87 129.52 73.87 128.5 73.88 128.49 79.06 131.48 79.06 131.48 79.06 132.18" style="fill: #8ac8d3"/>
          <polygon points="79.06 130.93 79.06 131.48 79.06 131.48 73.88 128.49 74.35 128.22 74.35 128.22 79.06 130.93 79.06 130.93" style="fill: #35a7bd"/>
          <polygon points="79.06 129.55 79.06 130.93 79.06 130.93 74.35 128.22 74.35 126.85 74.36 126.83 79.06 129.55" style="fill: #f7f0f8"/>
          <polygon points="78.38 108.73 78.38 109.52 77.23 114.01 77.23 114 77.06 113.91 78.38 108.73" style="fill: #6db3c5"/>
          <polygon points="77.87 109 77.68 109.72 75.18 108.32 75.17 108.32 75.17 107.49 75.17 107.49 75.18 107.49 77.87 109" style="fill: #6db3c5"/>
          <polygon points="75.17 107.49 75.17 108.32 55.74 119.57 55.03 119.16 75.17 107.49" style="fill: #6db3c5"/>
          <polygon points="74.36 126.83 74.35 126.85 74.35 128.22 74.35 128.22 73.88 128.49 73.87 128.49 73.87 126.58 73.88 126.56 74.36 126.83" style="fill: #6db3c5"/>
          <polygon points="74.36 129.8 74.35 129.81 74.35 131.18 73.87 131.46 73.87 129.52 74.36 129.8" style="fill: #6db3c5"/>
          <polygon points="73.88 126.56 73.87 126.58 73.87 128.49 72.61 127.76 72.61 127.2 72.61 125.84 72.62 125.83 73.88 126.56" style="fill: #8ac8d3"/>
          <polygon points="73.87 131.46 73.87 132.48 72.61 131.76 72.61 128.79 73.87 129.52 73.87 131.46" style="fill: #8ac8d3"/>
          <polygon points="73.87 128.5 73.87 129.52 72.61 128.79 72.61 127.76 73.87 128.49 73.87 128.5" style="fill: #8ac8d3"/>
          <polygon points="73.45 133.35 73.44 133.36 73.44 134.73 73.03 134.98 73.03 133.12 73.03 133.11 73.45 133.35" style="fill: #6db3c5"/>
          <polygon points="73.03 133.11 73.03 133.12 73.03 134.98 72.61 134.74 72.61 134.73 72.61 132.89 72.62 132.87 73.03 133.11" style="fill: #35a7bd"/>
          <polygon points="72.62 125.83 72.61 125.84 72.61 127.2 67.95 124.51 67.95 123.14 72.62 125.83" style="fill: #f7f0f8"/>
          <polygon points="72.61 128.79 72.61 131.76 67.47 128.79 67.47 128.79 67.47 125.83 72.61 128.79" style="fill: #35a7bd"/>
          <polygon points="72.61 127.76 72.61 128.79 67.47 125.83 67.47 124.79 72.61 127.76" style="fill: #8ac8d3"/>
          <polygon points="72.61 127.2 72.61 127.76 67.47 124.79 67.47 124.79 67.95 124.51 67.95 124.51 72.61 127.2" style="fill: #35a7bd"/>
          <polygon points="67.95 124.51 67.95 124.51 67.47 124.79 67.47 122.86 67.95 123.14 67.95 124.51" style="fill: #6db3c5"/>
          <polygon points="67.47 125.83 67.47 128.79 66.16 128.03 66.16 125.08 66.16 125.07 67.47 125.83" style="fill: #8ac8d3"/>
          <polygon points="67.47 124.79 67.47 125.83 66.16 125.07 66.16 124.04 66.16 124.04 67.47 124.79" style="fill: #8ac8d3"/>
          <polygon points="67.47 124.79 67.47 124.79 66.16 124.04 66.16 122.11 67.47 122.86 67.47 124.79" style="fill: #8ac8d3"/>
          <polygon points="66.99 129.62 66.99 129.63 66.99 131 66.57 131.25 66.57 129.39 66.58 129.38 66.99 129.62" style="fill: #6db3c5"/>
          <polygon points="66.58 129.38 66.57 129.39 66.57 131.25 66.16 131.01 66.16 131 66.16 129.16 66.17 129.14 66.58 129.38" style="fill: #35a7bd"/>
          <polygon points="66.16 121 66.16 121 57.22 121.75 57.21 121.75 57.21 120.97 57.22 120.98 66.16 120.21 66.16 120.99 66.16 121" style="fill: #35a7bd"/>
          <polygon points="66.16 128.03 66.16 129.14 63.45 128.26 66.16 128.03" style="fill: #18a3f4"/>
          <polygon points="66.16 125.08 66.16 128.03 63.45 128.26 57.22 128.79 57.22 125.83 66.16 125.08 66.16 125.08" style="fill: #6db3c5"/>
          <polygon points="66.16 125.07 66.16 125.08 66.16 125.08 57.22 125.83 57.22 124.81 57.22 124.79 66.16 124.04 66.16 124.04 66.16 125.07" style="fill: #8ac8d3"/>
          <polygon points="66.16 124.04 66.16 124.04 66.16 124.04 57.22 124.79 57.22 122.86 66.16 122.11 66.16 124.04" style="fill: #6db3c5"/>
          <polygon points="57.22 125.83 57.22 128.79 52.07 125.83 52.07 122.87 57.21 125.83 57.22 125.83 57.22 125.83" style="fill: #35a7bd"/>
          <polygon points="57.22 124.81 57.22 125.83 57.22 125.83 57.21 125.83 52.07 122.87 52.07 121.85 57.22 124.81" style="fill: #8ac8d3"/>
          <polygon points="57.22 124.79 57.22 124.81 52.07 121.85 52.07 119.9 57.22 122.86 57.22 124.79" style="fill: #35a7bd"/>
          <polygon points="57.21 120.97 57.21 121.75 54.02 119.92 54.02 119.14 57.21 120.97" style="fill: #35a7bd"/>
        </g>
        <g>
          <path d="M128.32,93.59a4.16,4.16,0,0,1-3.94,4.66,5,5,0,0,1-3.27-.85L125,92.34l-.77-.68a7.38,7.38,0,0,0,.76-1.72A4.61,4.61,0,0,1,128.32,93.59Z" style="fill: #68bd9e"/>
          <path d="M125.25,87.3a7.45,7.45,0,0,1-.27,2.64,5.24,5.24,0,0,0-1.86-.19,4.16,4.16,0,0,0-3.94,4.67,4.32,4.32,0,0,0,.17.71l-.38.07c-.13-1.72-.23-3-.23-3l-1.53,0s.09,1.33.22,3.09a8,8,0,0,1-.35-15.92A8.18,8.18,0,0,1,125.25,87.3Z" style="fill: #68bd9e"/>
          <path d="M124.22,91.66l.77.68-3.88,5.06a5.14,5.14,0,0,1-.86-.75c.83-1.07,1.75-2.28,2.51-3.24A7.43,7.43,0,0,0,124.22,91.66Z" style="fill: #68bd9e"/>
          <path d="M125,89.94a7.38,7.38,0,0,1-.76,1.72l-.07-.06-1.39,1.81a7.88,7.88,0,0,1-3.41,1.72,4.32,4.32,0,0,1-.17-.71,4.16,4.16,0,0,1,3.94-4.67A5.24,5.24,0,0,1,125,89.94Z" style="fill: #68bd9e"/>
          <path d="M124.15,91.6l.07.06a7.43,7.43,0,0,1-1.46,1.75Z" style="fill: #68bd9e"/>
          <path d="M122.76,93.41c-.76,1-1.68,2.17-2.51,3.24a4.5,4.5,0,0,1-.9-1.52A7.88,7.88,0,0,0,122.76,93.41Z" style="fill: #68bd9e"/>
          <path d="M120.25,96.65a5.14,5.14,0,0,0,.86.75c-.76,1-1.43,1.85-1.8,2.31,0-.54-.08-1.11-.12-1.68Z" style="fill: #eaac8f"/>
          <path d="M119.31,99.71c.16,2,.27,3.66.27,3.84-.08.38-1.07.62-1.54,0,0-.19-.16-2-.31-4.08l.47,0c0,.51.61.77.84.59Z" style="fill: #eaac8f"/>
          <path d="M119.19,98c0,.57.08,1.14.12,1.68l-.27.35c-.23.18-.8-.08-.84-.59a.65.65,0,0,1,0-.14C118.26,99.24,118.64,98.74,119.19,98Z" style="fill: #eaac8f"/>
          <path d="M119,95.2c.07.87.14,1.85.22,2.83-.55.71-.93,1.21-1,1.3a.65.65,0,0,0,0,.14l-.47,0c-.1-1.38-.21-2.9-.3-4.19h.22A9.37,9.37,0,0,0,119,95.2Z" style="fill: #eaac8f"/>
          <path d="M118.74,92.19s.1,1.29.23,3a9.37,9.37,0,0,1-1.32.13h-.22c-.13-1.76-.22-3.09-.22-3.09Z" style="fill: #68bd9e"/>
        </g>
        <g>
          <path d="M97.32,72.34a7.59,7.59,0,0,1,5.87,8.44,6.57,6.57,0,0,1-8,5.39,7.33,7.33,0,0,1-2.39-1l6.63-5.89L98.08,77.6l-7,6.15a7.5,7.5,0,0,1-1.62-3,14.24,14.24,0,0,0,7.3-8.51Z" style="fill: #68bd9e"/>
          <path d="M98.08,77.6l1.31,1.69-6.63,5.89a7,7,0,0,1-1.68-1.43Z" style="fill: #68bd9e"/>
          <path d="M97.37,66.89a14.12,14.12,0,0,1-.61,5.35,6.54,6.54,0,0,0-7.48,5.5,7.07,7.07,0,0,0,.18,3,15.24,15.24,0,0,1-4.17,1.37c-.26-3.33-.45-5.79-.45-5.79l-3,.06.42,6A15.45,15.45,0,0,1,80,82.19a9.69,9.69,0,0,0-3.57-10.11,8.38,8.38,0,0,0-9.15-.67,15.73,15.73,0,0,1-.64-3.49,15.37,15.37,0,0,1,15-16.25C90.35,51.54,96.76,58.47,97.37,66.89Z" style="fill: #68bd9e"/>
          <path d="M89.28,77.74a6.54,6.54,0,0,1,7.48-5.5,14.24,14.24,0,0,1-7.3,8.51A7.07,7.07,0,0,1,89.28,77.74Z" style="fill: #68bd9e"/>
          <path d="M92.76,85.18c-2.72,2.42-5.54,4.89-6.8,6,0-.89-.12-1.81-.2-2.73l5.32-4.68A7,7,0,0,0,92.76,85.18Z" style="fill: #eaac8f"/>
          <path d="M86,91.16c.34,4.47.61,8.3.61,8.71-.15.77-2,1.27-3,0-.07-.5-.52-6.73-1-12.65l.94.48a1.37,1.37,0,0,0,1.3-1.41l.7-.06c.06.72.11,1.44.16,2.15-1,.88-1.65,1.48-1.77,1.6-.37,1.12.77,2,1.32,1.69Z" style="fill: #eaac8f"/>
          <path d="M85.76,88.43c.08.92.15,1.84.2,2.73l-.65.56C84.76,92,83.62,91.15,84,90,84.11,89.91,84.78,89.31,85.76,88.43Z" style="fill: #eaac8f"/>
          <path d="M85.6,86.28l-.7.06a.62.62,0,0,0-.18-.44l-2.25-1.21c0-.8-.11-1.59-.16-2.34h.42a16.34,16.34,0,0,0,2.56-.24C85.39,83.41,85.49,84.82,85.6,86.28Z" style="fill: #eaac8f"/>
          <path d="M84.84,76.33s.19,2.46.45,5.79a16.34,16.34,0,0,1-2.56.24h-.42l-.42-6Z" style="fill: #68bd9e"/>
          <path d="M84.72,85.9a.62.62,0,0,1,.18.44,1.37,1.37,0,0,1-1.3,1.41l-.94-.48-.19-2.58Z" style="fill: #eaac8f"/>
          <path d="M82.47,84.69l.19,2.58-4-2.11a4,4,0,0,0,.24-.33,8.56,8.56,0,0,0,.82-1.59Z" style="fill: #eaac8f"/>
          <path d="M76.47,72.08A9.69,9.69,0,0,1,80,82.19,15.26,15.26,0,0,1,67.32,71.41,8.38,8.38,0,0,1,76.47,72.08Z" style="fill: #68bd9e"/>
          <path d="M80,82.19a8.54,8.54,0,0,1-.34,1L68.09,77.17,67,79s6.77,3.58,11.67,6.15a8.28,8.28,0,0,1-11.8,1.72,9.57,9.57,0,0,1-2.42-12.73,8.23,8.23,0,0,1,2.9-2.74A15.26,15.26,0,0,0,80,82.19Z" style="fill: #68bd9e"/>
          <path d="M79.7,83.24a8.56,8.56,0,0,1-.82,1.59,4,4,0,0,1-.24.33C73.74,82.59,67,79,67,79l1.12-1.84Z" style="fill: #68bd9e"/>
        </g>
        <g>
          <g>
            <path d="M75.45,78.84a2.77,2.77,0,0,0,1.64-.53c1.29-.14,2.8.58,3,1.42-.46,1-1.9,1-3.38.28a7.14,7.14,0,0,1-1.46-1,.28.28,0,0,0,.15-.15.19.19,0,0,0,0-.07h.07Z" style="fill: #f6c759"/>
            <path d="M76.66,80a2.73,2.73,0,0,1-.8,3.43h0a4.28,4.28,0,0,1-1-1.83A4,4,0,0,1,75,79.08v0a.34.34,0,0,0,.2,0,7.14,7.14,0,0,0,1.46,1Z" style="fill: #f4ad17"/>
            <path d="M76.88,74.58c1.28,2.06.92,3.16.21,3.73a2.77,2.77,0,0,1-1.64.53c.39-.15,2.32-.57,1-3.12h0c-2.82.85-1.65,2.58-1.53,2.91a2.77,2.77,0,0,1-.81-1.57C74,76.16,74.51,75.12,76.88,74.58Z" style="fill: #f4ad17"/>
            <path d="M74.81,81.61A2.23,2.23,0,0,1,73,83.81h0A2.23,2.23,0,0,1,73.35,81,3.94,3.94,0,0,0,75,79.08,4,4,0,0,0,74.81,81.61Z" style="fill: #f6c759"/>
            <path d="M76.43,75.72c1.34,2.55-.59,3-1,3.12h-.07a.25.25,0,0,0-.16-.27.26.26,0,0,0-.31.07h0c-.12-.33-1.29-2.06,1.53-2.91Zm-1,2.47c.31,0,.75-.11.46-1.12h0c-.93.51-.73.93-.48,1.12Z" style="fill: #ea601b"/>
            <path d="M75.38,78.84a.19.19,0,0,1,0,.07.28.28,0,0,1-.15.15.34.34,0,0,1-.2,0,.32.32,0,0,1-.14-.14.3.3,0,0,1,0-.21.43.43,0,0,1,0-.07.26.26,0,0,1,.31-.07A.25.25,0,0,1,75.38,78.84Z" style="fill: #ea601b"/>
            <path d="M75.87,77.07c.29,1-.15,1.16-.46,1.12h0c-.25-.19-.45-.61.48-1.12Z" style="fill: #f8db98"/>
            <path d="M75,79.06v0A3.94,3.94,0,0,1,73.35,81a4.33,4.33,0,0,1-2,.57l0,0a2.74,2.74,0,0,1,1.87-3h0a8.12,8.12,0,0,0,1.7.36A.32.32,0,0,0,75,79.06Z" style="fill: #f4ad17"/>
            <path d="M74.87,78.71a.3.3,0,0,0,0,.21,8.12,8.12,0,0,1-1.7-.36C71.6,78,70.57,77,71,76c.71-.47,2.28.09,3.09,1.11a2.77,2.77,0,0,0,.81,1.57h0A.43.43,0,0,0,74.87,78.71Z" style="fill: #f6c759"/>
          </g>
          <g>
            <path d="M68.53,78.72A2.8,2.8,0,0,0,68.76,77c.44-1.22,1.74-2.26,2.57-2,.75.87.09,2.16-1.22,3.17a7.26,7.26,0,0,1-1.49.89.26.26,0,0,0-.07-.19l-.06-.06h0Z" style="fill: #f6c759"/>
            <path d="M70.11,78.14a2.74,2.74,0,0,1,2.74,2.23l0,0a4.29,4.29,0,0,1-2.08.12,4,4,0,0,1-2.19-1.28l0,0a.31.31,0,0,0,.09-.18,7.26,7.26,0,0,0,1.49-.89Z" style="fill: #f4ad17"/>
            <path d="M65.32,75.58c2.41-.26,3.24.55,3.44,1.43a2.8,2.8,0,0,1-.23,1.71c0-.41.49-2.34-2.39-2.23h0c-.46,2.91,1.6,2.6,2,2.64a2.69,2.69,0,0,1-1.77,0C65.47,78.87,64.77,78,65.32,75.58Z" style="fill: #f4ad17"/>
            <path d="M70.74,80.51A2.23,2.23,0,0,1,72,83.07h0a2.25,2.25,0,0,1-2.4-1.51,3.93,3.93,0,0,0-1-2.33A4,4,0,0,0,70.74,80.51Z" style="fill: #f6c759"/>
            <path d="M66.14,76.49c2.88-.11,2.41,1.82,2.39,2.23l0,0h0a.27.27,0,0,0-.31,0,.27.27,0,0,0-.07.31h0c-.35,0-2.41.27-2-2.64Zm1.78,2c.17-.26.23-.72-.81-.9h0c.06,1.06.52,1.06.8.92Z" style="fill: #ea601b"/>
            <path d="M68.49,78.78l.06.06a.26.26,0,0,1,.07.19.31.31,0,0,1-.09.18.28.28,0,0,1-.19.07.34.34,0,0,1-.19-.09l0-.07a.27.27,0,0,1,.07-.31A.27.27,0,0,1,68.49,78.78Z" style="fill: #ea601b"/>
            <path d="M67.11,77.58c1,.18,1,.64.81.9l0,0c-.28.14-.74.14-.8-.92Z" style="fill: #f8db98"/>
            <path d="M68.53,79.21l0,0a3.93,3.93,0,0,1,1,2.33,4.23,4.23,0,0,1-.36,2.06l0,0a2.74,2.74,0,0,1-1.88-3h0a7.79,7.79,0,0,0,1.06-1.37A.28.28,0,0,0,68.53,79.21Z" style="fill: #f4ad17"/>
            <path d="M68.15,79.19a.34.34,0,0,0,.19.09,7.79,7.79,0,0,1-1.06,1.37c-1.17,1.18-2.52,1.68-3.3.83-.11-.85,1.07-2,2.34-2.31a2.69,2.69,0,0,0,1.77,0h0Z" style="fill: #f6c759"/>
          </g>
        </g>
        <g>
          <g>
            <path d="M114.27,102.76c.07-.34.5.53-.11.44C113.88,103.16,114.23,103,114.27,102.76Z" style="fill: #f0be45"/>
            <path d="M113.23,98.6a.54.54,0,0,0-.15-.15,1.88,1.88,0,0,0-.24-.18,1,1,0,0,1,.81-.23.1.1,0,0,1,.09.15,1.65,1.65,0,0,1-.45.48Z" style="fill: #f2df80"/>
            <path d="M113.65,98a1,1,0,0,0-.81.23,1.73,1.73,0,0,0-.36-.15.85.85,0,0,1,.28-.31c.35-.2,1.33-.09,1.34.15a1.35,1.35,0,0,1-.69.89.81.81,0,0,0-.12-.18,1.65,1.65,0,0,0,.45-.48A.1.1,0,0,0,113.65,98Z" style="fill: #f0be45"/>
            <path d="M113.26,103.28c.17.1.64-.09.47.14C113.24,104.07,113,103.11,113.26,103.28Z" style="fill: #f0be45"/>
            <path d="M114.27,102.76c.07-.34.5.53-.11.44C113.88,103.16,114.23,103,114.27,102.76Zm-1,.52c.17.1.64-.09.47.14C113.24,104.07,113,103.11,113.26,103.28Zm-.39.58c.15.21.52.52,1.2.13a1,1,0,0,0,.16-1.62c-.3-.16-.22.14-.56.41-.13.1-.6,0-.73.13a.74.74,0,0,0-.13.87S112.84,103.83,112.87,103.86Z" style="fill: #e26e12"/>
            <path d="M112.84,100.26a1.89,1.89,0,0,1,0-1.08c.24.6.36,1.14.66,1.83a1.17,1.17,0,0,0,0,.11,3.11,3.11,0,0,1,.12.3,2.6,2.6,0,0,1-.38-.43,3.11,3.11,0,0,1-.3-.44,1.3,1.3,0,0,1-.08-.17S112.85,100.3,112.84,100.26Z" style="fill: #f0be45"/>
            <path d="M112.4,98.34a1,1,0,0,1,.68.11.54.54,0,0,1,.15.15l.06.07a.81.81,0,0,1,.12.18l.06.09a.12.12,0,0,1-.15.17L113,99l-.2-.06-.12,0A5.39,5.39,0,0,0,112.4,98.34Z" style="fill: #e26e12"/>
            <path d="M113.08,98.45a1,1,0,0,0-.68-.11l0-.06a.9.9,0,0,0-.19-.23l.3.07a1.73,1.73,0,0,1,.36.15A1.88,1.88,0,0,1,113.08,98.45Z" style="fill: #e26e12"/>
            <path d="M111.28,100.83s.07,0,.07.06,0,0-.07,0a0,0,0,0,1,0,0S111.25,100.83,111.28,100.83Z" style="fill: #f2df80"/>
            <path d="M111.6,101c0-.1-.09-.22-.21-.26a.2.2,0,0,0-.27.1.33.33,0,0,0,.28.27A.26.26,0,0,0,111.6,101Zm-.32-.09a0,0,0,0,1,0,0s0-.06,0-.06.07,0,.07.06S111.32,100.94,111.28,100.94Z" style="fill: #f2df80"/>
            <path d="M111.12,100.87a.33.33,0,0,0,.28.27.26.26,0,0,0,.2-.11.37.37,0,0,0,.07.14c-.11-.06-.14,0-.3,0s-.26-.3-.26-.3A0,0,0,0,1,111.12,100.87Z" style="fill: #f2df80"/>
            <path d="M111.11,100.9a0,0,0,0,1,0,0,.2.2,0,0,1,.27-.1c.12,0,.16.16.21.26a.37.37,0,0,0,.07.14c-.11-.06-.14,0-.3,0S111.11,100.9,111.11,100.9Zm1-1a1.62,1.62,0,0,0-1.15-.27,4.55,4.55,0,0,1-.63.09,1.92,1.92,0,0,1-.55-.09,1.1,1.1,0,0,0-.23.2c.17,0,.34,0,.47,0a.24.24,0,0,1,.22.26v0a1,1,0,0,1-.38.7,1.61,1.61,0,0,1-.41.24.2.2,0,0,1,0,.18l0,0a.46.46,0,0,1,.26,0,2.31,2.31,0,0,1,.93.39,7.14,7.14,0,0,0,1.07.68c.21.11.62.32.84.12a1.62,1.62,0,0,0,.22-.5,1.76,1.76,0,0,0,.07-.56,2.49,2.49,0,0,0-.22-.85A1.66,1.66,0,0,0,112.07,99.92Z" style="fill: #f2df80"/>
            <path d="M112.81,101.46a2.49,2.49,0,0,0-.22-.85l.37-.06a3.11,3.11,0,0,0,.3.44,2.6,2.6,0,0,0,.38.43,3.11,3.11,0,0,0-.12-.3c0,.12.09.22.14.32a5.28,5.28,0,0,0,.57.93c-.3-.16-.22.14-.56.41-.13.1-.6,0-.73.13a.74.74,0,0,0-.13.87s0,0,.06.08a3.38,3.38,0,0,0-.5-.35,3,3,0,0,0-1-.48c-.48-.23-.81-.29-1.06-.83s-.57-.81-.94-.79v-.06a.46.46,0,0,1,.26,0,2.31,2.31,0,0,1,.93.39,7.14,7.14,0,0,0,1.07.68c.21.11.62.32.84.12a1.62,1.62,0,0,0,.22-.5A1.76,1.76,0,0,0,112.81,101.46Z" style="fill: #f2df80"/>
            <path d="M110.94,98.91c-.27-.45-1-.49-1.64.12a1.93,1.93,0,0,1,1-.68C110.65,98.23,110.93,98.59,110.94,98.91Z" style="fill: #e26e12"/>
            <path d="M109.38,100a.14.14,0,0,1-.26,0,.69.69,0,0,1,0-.13,1.77,1.77,0,0,1,0-.23,1.12,1.12,0,0,1,0-.24,1,1,0,0,1,.17-.37h0c.68-.61,1.37-.57,1.64-.12a.38.38,0,0,1-.27.38,3.34,3.34,0,0,0-.93.36,1.1,1.1,0,0,0-.23.2A1.18,1.18,0,0,0,109.38,100Z" style="fill: #e26e12"/>
            <path d="M113,100.55l-.37.06a1.66,1.66,0,0,0-.52-.69,1.62,1.62,0,0,0-1.15-.27,4.55,4.55,0,0,1-.63.09,1.92,1.92,0,0,1-.55-.09,3.34,3.34,0,0,1,.93-.36.38.38,0,0,0,.27-.38c0-.32-.29-.68-.62-.56a1.93,1.93,0,0,0-1,.68h0a1,1,0,0,0-.17.37l-.19-.06c-.36-.11-.75-.23-.64-.73.06-.26.3-.39.22-.71s-.38-.48-.37-.76c0-.45.7-.54,1-.48h0a3.5,3.5,0,0,0,.46.36,6.59,6.59,0,0,0,2.23.88.55.55,0,0,1,.28.13.9.9,0,0,1,.19.23l0,.06a5.39,5.39,0,0,1,.3.58l.12,0,.2.06-.26,0a.61.61,0,0,1,0,.12,1.89,1.89,0,0,0,0,1.08s0,.08,0,.12A1.3,1.3,0,0,0,113,100.55Z" style="fill: #f2df80"/>
            <path d="M108.91,102.38l-.46-.14a.2.2,0,0,1-.13-.24l.1-.37.13-.45,0-.13a.2.2,0,0,1,.08-.1.17.17,0,0,1,.17,0l.28.08.18,0a.26.26,0,0,1,.1.07.2.2,0,0,1,0,.18l0,0v.06l-.25.83A.2.2,0,0,1,108.91,102.38Z" style="fill: #fff"/>
            <path d="M108.6,100.93a.11.11,0,0,1-.06-.16c.41-.66.72-.36,1.11-.51a.17.17,0,0,1,.22.22.78.78,0,0,1-.75.52l-.28-.08a.17.17,0,0,0-.17,0Z" style="fill: #f2df80"/>
            <polygon points="108.55 108.05 108.55 108.05 108.55 108.05 108.55 108.05 108.55 108.05" style="fill: #e26e12"/>
            <path d="M108.24,100.91a2,2,0,0,1,.57-1,.82.82,0,0,1,.29-.08.69.69,0,0,0,0,.13.14.14,0,0,0,.26,0,1.18,1.18,0,0,1,.13-.18c.17,0,.34,0,.47,0a.24.24,0,0,1,.22.26v0a1,1,0,0,1-.38.7,1.61,1.61,0,0,1-.41.24.26.26,0,0,0-.1-.07l-.18,0a.78.78,0,0,0,.75-.52.17.17,0,0,0-.22-.22c-.39.15-.7-.15-1.11.51a.11.11,0,0,0,.06.16l.07,0a.2.2,0,0,0-.08.1l0,.13a.71.71,0,0,1-.28-.16A.09.09,0,0,1,108.24,100.91Z" style="fill: #f0be45"/>
            <path d="M108.42,101.63l-.1.37a.2.2,0,0,0,.13.24l.46.14a.2.2,0,0,0,.25-.14l.25-.83c.37,0,.64.15.94.79s.58.6,1.06.83a3,3,0,0,1,1,.48,3,3,0,0,0-1.16-.44,2.09,2.09,0,0,1-1.27-.74l-.29.16c-.71.35-2.43,1.08-3,.39a2.81,2.81,0,0,1,0-.32,2.13,2.13,0,0,1,.1-.42l0-.09a.7.7,0,0,1,.57-.45,2.38,2.38,0,0,1,.46,0A1.88,1.88,0,0,0,108.42,101.63Z" style="fill: #f2df80"/>
            <path d="M108.51,97.91c.08.32-.16.45-.22.71-.11.5.28.62.64.73l.19.06a1.12,1.12,0,0,0,0,.24,1.77,1.77,0,0,0,0,.23.82.82,0,0,0-.29.08,2,2,0,0,0-.57,1,.09.09,0,0,0,0,.11.71.71,0,0,0,.28.16l-.13.45a1.88,1.88,0,0,1-.58,0,2.38,2.38,0,0,0-.46,0,.7.7,0,0,0-.57.45,4.88,4.88,0,0,1-.58-.45l-.41-.35a1.56,1.56,0,0,0-.09-.34c-.27-.68-.85-.64-1.51-.64-.43,0-.85,0-1.27,0a.92.92,0,0,1-.19-.41c-.11-.56.49-.87.42-1.45s-.65-.77-.75-1.25a1.67,1.67,0,0,1,.68-1.44c.18-.12.39-.22.57-.33a2.15,2.15,0,0,0,.54-.49,2.92,2.92,0,0,0,.45-.94c1.94.78,3.87,1.7,4.28,2.42a1.5,1.5,0,0,0,.26.33h0c-.32-.06-1,0-1,.48C108.13,97.43,108.44,97.65,108.51,97.91Z" style="fill: #f2df80"/>
            <path d="M108,107.68a1.28,1.28,0,0,0,.54.36h0a.45.45,0,0,1-.23,0h0l-.1,0,0,0-.1-.07h0Z" style="fill: #e26e12"/>
            <path d="M108.55,108a1.28,1.28,0,0,1-.54-.36l.07.17h0l.22.39s-1-.12-1.06-.74c0,0,0-.07,0-.1h0c.63.33.92-.11.92-.11a2.27,2.27,0,0,0,.37.75Z" style="fill: #e26e12"/>
            <path d="M107.32,104.26h0Z" style="fill: #f2df80"/>
            <path d="M107.24,107.5c.11.62,1.06.74,1.06.74C108,108.26,107.15,108.36,107.24,107.5Z" style="fill: #e26e12"/>
            <path d="M107.2,104.25h0Z" style="fill: #f2df80"/>
            <path d="M107.2,104.25h0Z" style="fill: #f2df80"/>
            <path d="M107.3,105.5c0-.46-.24-.88,0-1.24h0a1.5,1.5,0,0,0,1.14-.59,6.43,6.43,0,0,0-.13.83c0,.47.11.59-.15,1s0,1.79,0,1.79-.29.44-.92.11h0c0-.32-.12-.44-.12-.7S107.39,106.48,107.3,105.5Z" style="fill: #f0be45"/>
            <path d="M106.92,104.22a1,1,0,0,0,.25,0A1,1,0,0,1,106.92,104.22Z" style="fill: #f2df80"/>
            <path d="M109.65,102.49a6.34,6.34,0,0,0-1.19,1.18,1.5,1.5,0,0,1-1.14.59h-.15a1,1,0,0,1-.25,0l-.22,0a1.73,1.73,0,0,1-.31-.14h0l.22-.91,0,0,0-.18C107.22,103.57,108.94,102.84,109.65,102.49Z" style="fill: #f2df80"/>
            <path d="M106.61,103.11l-.22.91C106.4,103.91,106.54,103.42,106.61,103.11Z" style="fill: #dbddd2"/>
            <path d="M106.39,104a1.73,1.73,0,0,0,.31.14l-.31-.13Z" style="fill: #dbddd2"/>
            <polygon points="106.39 104.02 106.39 104.03 106.39 104.03 106.39 104.02" style="fill: #f2df80"/>
            <path d="M105.81,109.09l-.07-.17c.1.19.54.37.54.37h0a.6.6,0,0,1-.24-.05h0l-.1,0h0l-.09-.08Z" style="fill: #e26e12"/>
            <path d="M105.63,108.74c-.2,0-.47-.24-.5-.48a5.83,5.83,0,0,1,.16-.93c0-.47-.29-.91-.29-1.38a1.5,1.5,0,0,1,.08-.47c.07-.22.16-.45.21-.67.09-.45,0-.92,0-1.38a2.45,2.45,0,0,1,.08-.37c.09-.32.22-.63.31-1a2.08,2.08,0,0,0,.09-.86l.41.35a4.88,4.88,0,0,0,.58.45l0,.09a2.13,2.13,0,0,0-.1.42,2.81,2.81,0,0,0,0,.32l0,.18,0,0c-.07.31-.21.8-.22.91h0a13.18,13.18,0,0,0-.33,1.71c0,.47.1.6-.16,1a1.44,1.44,0,0,0-.11.65,8,8,0,0,0,.11,1.15A.55.55,0,0,1,105.63,108.74Z" style="fill: #f0be45"/>
            <path d="M105,108.64l.07,0,.08,0a.71.71,0,0,0,.49,0,.55.55,0,0,0,.27-.2,2.79,2.79,0,0,0,.38.75s-.44-.18-.54-.37l.07.17h0l.21.39s-1-.11-1-.74c0,0,0-.06,0-.1Z" style="fill: #e26e12"/>
            <path d="M105,106.74c0-.45-.24-.88,0-1.24,0,0,0,0,0,0h0a1.5,1.5,0,0,0-.08.47c0,.47.32.91.29,1.38a5.83,5.83,0,0,0-.16.93c0,.24.3.51.5.48a.71.71,0,0,1-.49,0l-.08,0-.07,0h0c0-.31-.13-.43-.13-.69S105.12,107.72,105,106.74Z" style="fill: #f0be45"/>
            <path d="M105,108.74c.1.63,1,.74,1,.74C105.73,109.5,104.88,109.6,105,108.74Z" style="fill: #e26e12"/>
            <path d="M104.39,102.72l.17,0Z" style="fill: #dbddd2"/>
            <path d="M104.05,102.62l.25.08Z" style="fill: #dbddd2"/>
            <path d="M103.77,102.52l.28.1Z" style="fill: #dbddd2"/>
            <path d="M103.54,102.43l.2.08Z" style="fill: #dbddd2"/>
            <path d="M102.89,102.16l.26.12Z" style="fill: #dbddd2"/>
            <path d="M102.61,102l.28.13Z" style="fill: #dbddd2"/>
            <path d="M102.37,101.91l.24.12Z" style="fill: #dbddd2"/>
            <path d="M102.08,101.75l.22.12Z" style="fill: #dbddd2"/>
            <path d="M101.82,101.6l.26.15Z" style="fill: #dbddd2"/>
            <path d="M101.82,101.6l-.5-.3Z" style="fill: #dbddd2"/>
            <path d="M101.32,101.3l-.45-.3.18-.27a5.87,5.87,0,0,0,3.92,1.18v1c-.14,0-.27-.06-.41-.09l-.17,0-.09,0-.25-.08-.28-.1h0l-.2-.08c-.13,0-.26-.1-.39-.15l-.26-.12-.28-.13-.24-.12-.07,0-.22-.12-.26-.15Z" style="fill: #f0be45"/>
            <path d="M101.32,99.75c-.36.07-.58-.37-.55-.68h0c0-.15.11-.33,0-.48s-.22-.27-.28-.44a.35.35,0,0,1,.29-.49,2.41,2.41,0,0,1,.38,0,.8.8,0,0,0,.15,0,2.71,2.71,0,0,1,.3-.13.53.53,0,0,1,.42.1.81.81,0,0,1,.28.9c-.07.27-.41.4-.57.62s-.13.48-.35.6A.34.34,0,0,1,101.32,99.75Z" style="fill: #f2df80"/>
            <path d="M100.91,96c-.64-.06-1.19-1.59-.55-1.92.42-.23.87.12,1.29.1.26,0,.94-.44.93.26s-.61.44-1,.63a.84.84,0,0,0-.29.33c-.07.14,0,.32-.12.45A.35.35,0,0,1,100.91,96Z" style="fill: #f2df80"/>
            <path d="M100.4,100.67l.47.33.45.3C101,101.09,100.69,100.88,100.4,100.67Z" style="fill: #dbddd2"/>
            <path d="M101.65,94.13c.26,0,.94-.44.93.26s-.61.44-1,.63a.84.84,0,0,0-.29.33c-.07.14,0,.32-.12.45a.35.35,0,0,1-.28.15c-.64-.06-1.19-1.59-.55-1.92C100.78,93.8,101.23,94.15,101.65,94.13ZM100.09,97a.91.91,0,0,1-.64.35c.06.11.12.23.17.34a2,2,0,0,1,.11.2,5.38,5.38,0,0,0,1,1.07l.08.07h0c0-.15.11-.33,0-.48s-.22-.27-.28-.44a.35.35,0,0,1,.29-.49,2.41,2.41,0,0,1,.38,0,.8.8,0,0,0,.15,0,2.71,2.71,0,0,1,.3-.13.53.53,0,0,1,.42.1.81.81,0,0,1,.28.9c-.07.27-.41.4-.57.62s-.13.48-.35.6a2.16,2.16,0,0,0,.86.45,4.81,4.81,0,0,0,.65.08.92.92,0,0,1-.19-.41c-.11-.56.49-.87.42-1.45s-.65-.77-.75-1.25a1.67,1.67,0,0,1,.68-1.44c.18-.12.39-.22.57-.33a2.15,2.15,0,0,0,.54-.49,2.92,2.92,0,0,0,.45-.94l-.64-.26-1.65-.62L102,92.9c-.36.62-1.4,0-2,.59a1.49,1.49,0,0,0-.28,1.64C99.87,95.7,100.47,96.58,100.09,97Z" style="fill: #f2df80"/>
            <path d="M98.5,98.24a10.9,10.9,0,0,0,2.55,2.49l-.18.27-.47-.33a17.87,17.87,0,0,1-1.75-1.47l-.28-.27-.05,0a.6.6,0,0,0-.08-.08h0a.53.53,0,0,0-.14-.12l-.08,0-.08,0h0l-.08,0-.08,0-.11,0-.1,0h0a.6.6,0,0,1,.61-.43A.53.53,0,0,1,98.5,98.24Z" style="fill: #f0be45"/>
            <path d="M98.37,102.09c.1.19.54.37.54.37h0a.6.6,0,0,1-.24,0h0l-.1-.05h0l-.09-.08h0Z" style="fill: #e26e12"/>
            <path d="M98.89,97.64c.22.06.44.1.23,0,0,0-.22-.05-.52-.46.24.23.49.25.41.2-.57-.37-.67-.85-1.6-1a2.56,2.56,0,0,0,.11-.24l.09-.24a1.67,1.67,0,0,1,.06-.2A1.38,1.38,0,0,1,98,95c.76-.61.78.67.91,1.15a7.52,7.52,0,0,0,.51,1.29c.06.11.12.23.17.34a2,2,0,0,1,.11.2h-.34a1,1,0,0,1-.6-.27.75.75,0,0,0,.28.12A.72.72,0,0,1,98.89,97.64Z" style="fill: #f0be45"/>
            <path d="M98.37,98.93l-.05,0Z" style="fill: #dbddd2"/>
            <path d="M98.24,98.81h0a.53.53,0,0,0-.14-.12A.53.53,0,0,1,98.24,98.81Z" style="fill: #dbddd2"/>
            <path d="M98.1,98.69l-.08,0Z" style="fill: #dbddd2"/>
            <path d="M98,98.64l-.08,0Z" style="fill: #dbddd2"/>
            <path d="M97.93,98.6l-.08,0Z" style="fill: #dbddd2"/>
            <path d="M99,98.08a.88.88,0,0,1-.5-.55,1,1,0,0,0,1,.42h.23a5.38,5.38,0,0,0,1,1.07l.08.07c0,.31.19.75.55.68a.34.34,0,0,0,.12,0,2.16,2.16,0,0,0,.86.45,4.81,4.81,0,0,0,.65.08c.42,0,.84,0,1.27,0,.66,0,1.24,0,1.51.64a1.56,1.56,0,0,1,.09.34,2.08,2.08,0,0,1-.09.86c-.09.32-.22.63-.31,1a2.45,2.45,0,0,0-.08.37c-.06.46,0,.93,0,1.38-.05.22-.14.45-.21.67h0a13.45,13.45,0,0,0,0-2.6h0v-1a5.87,5.87,0,0,1-3.92-1.18,10.9,10.9,0,0,1-2.55-2.49.53.53,0,0,0-.38-.21l0-.36s0,0,0,0c-.09-.21-.18-.45-.29-.66.3.36.38.78.68,1,0,0,0,0,0,0a.86.86,0,0,1-.1-.16A.67.67,0,0,0,99,98.08Z" style="fill: #f0be45"/>
            <path d="M97.77,98.53l.08,0Z" style="fill: #dbddd2"/>
            <path d="M98.53,101.71c.12.49-.9.11-.91.1h0a2,2,0,0,0,0-.86,3.55,3.55,0,0,0,0-1.8c-.06-.34-.09-.5,0-.68l.1,0,.11,0,.08,0,.08,0h0l.08,0,.08,0a.53.53,0,0,1,.14.12.6.6,0,0,1,.08.08l.05,0,.28.27a1.31,1.31,0,0,0-.08.21A3.73,3.73,0,0,0,98.53,101.71Z" style="fill: #f2df80"/>
            <path d="M98.91,102.46s-.44-.18-.54-.37l.07.17h0l.21.39s-1-.11-1.05-.74c0,0,0-.06,0-.09h0s1,.39.91-.1A2.79,2.79,0,0,0,98.91,102.46Z" style="fill: #e26e12"/>
            <path d="M97.56,98.47l.1,0Z" style="fill: #dbddd2"/>
            <path d="M97.6,101.91c.1.63,1.05.74,1.05.74C98.36,102.68,97.51,102.77,97.6,101.91Z" style="fill: #e26e12"/>
            <path d="M98.67,91.17a2.42,2.42,0,0,0,.41-.46A10,10,0,0,0,102,92.9c-.36.62-1.4,0-2,.59a1.49,1.49,0,0,0-.28,1.64c.16.57.76,1.45.38,1.91a.91.91,0,0,1-.64.35,7.52,7.52,0,0,1-.51-1.29c-.13-.48-.15-1.76-.91-1.15a1.38,1.38,0,0,0-.36.71,1.67,1.67,0,0,0-.06.2l-.09.24a.75.75,0,0,1-.24-.08A1.37,1.37,0,0,1,96.62,95a.76.76,0,0,1,0-.15v0a8.71,8.71,0,0,0,.48-1.23,1.46,1.46,0,0,0,.51-1.07,1.43,1.43,0,0,1,.27-.9C98.08,91.36,98.45,91.35,98.67,91.17Z" style="fill: #f2df80"/>
            <path d="M97.07,93.25a1.17,1.17,0,0,0-.28-.46c-.25-.29-.52-.31-.81-.52s-.32-.49-.56-.59h-.06c0-.14.07-.27.09-.36.16-.68.5-.6.78-.6s1.18-.85,1.81-.8c.24,0,.58.35,1,.81a2.42,2.42,0,0,1-.41.46c-.22.18-.59.19-.8.42a1.43,1.43,0,0,0-.27.9,1.46,1.46,0,0,1-.51,1.07A.83.83,0,0,0,97.07,93.25Z" style="fill: #f2df80"/>
            <path d="M99.12,97.65c.21.09,0,0-.23,0a.72.72,0,0,0,.18.15.75.75,0,0,1-.28-.12,1,1,0,0,0,.6.27h.11a1,1,0,0,1-1-.42.88.88,0,0,0,.5.55.67.67,0,0,1-.49-.27.86.86,0,0,0,.1.16s0,0,0,0c-.3-.24-.38-.66-.68-1,.11.21.2.45.29.66,0,0,0,0,0,0h0c-.19-.37-.33-.77-.78-.94h0s.16,0,.11-.07-.26-.15-.26-.19.35.09.39.07-.15-.17-.16-.19h0c.93.2,1,.68,1.6,1,.08,0-.17,0-.41-.2C98.9,97.6,99.12,97.65,99.12,97.65Z" style="fill: #e26e12"/>
            <path d="M97,96.74a.37.37,0,0,1-.32-.21,3.71,3.71,0,0,1,.49.14A.31.31,0,0,1,97,96.74Z" style="fill: #f0be45"/>
            <path d="M96.58,95a.7.7,0,0,1,0-.14.76.76,0,0,0,0,.15A1.37,1.37,0,0,0,97.28,96a.75.75,0,0,0,.24.08,2.56,2.56,0,0,1-.11.24h0L97,96.22l-.44-.1A2.89,2.89,0,0,1,96.58,95Z" style="fill: #f0be45"/>
            <path d="M96.1,101.84a5.18,5.18,0,0,0,.16,1.11h0a.25.25,0,0,1,0,.08c0,.13-.12.17-.26.17a2.37,2.37,0,0,1-.67-.14.5.5,0,0,0,0-.16.59.59,0,0,0,0-.13v0c0-.2-.07-.32-.07-.53a5.71,5.71,0,0,0,.09-.61,7.4,7.4,0,0,0-.13-1.19,3.65,3.65,0,0,1,0-.46.09.09,0,0,1,0-.05.25.25,0,0,1,0-.08v0a.3.3,0,0,0,0-.08l.06-.09a.9.9,0,0,0,.09-.42,3.44,3.44,0,0,0,0-.42c0-.54-.15-1.22-.26-1.89,0-.17-.06-.35-.08-.52a15.51,15.51,0,0,1,1.61.19.37.37,0,0,0,.32.21.31.31,0,0,0,.17-.07l.15,0h0c.45.17.59.57.78.94h0l0,.36a.6.6,0,0,0-.61.43c-.32,1.22-.93,1.36-1.21,2.19A3.12,3.12,0,0,0,96.1,101.84Z" style="fill: #f0be45"/>
            <path d="M96.26,103.58l-.1-.08h0l-.07-.16a1.52,1.52,0,0,0,.54.36h0a.6.6,0,0,1-.24,0h0l-.1-.06Z" style="fill: #e26e12"/>
            <path d="M96,92.27c.29.21.56.23.81.52a1.17,1.17,0,0,1,.28.46.83.83,0,0,1,0,.31,8.71,8.71,0,0,1-.48,1.23v0a.7.7,0,0,0,0,.14,2.89,2.89,0,0,0,0,1.17C95.83,96,95.39,96.05,95,96c0-.12,0-.23-.05-.34a3.89,3.89,0,0,1-.08-.78A8.57,8.57,0,0,1,95,93.42c0-.1,0-.2.05-.3l.19-.93c0-.1,0-.19.07-.28s0-.17.06-.24h.06C95.66,91.78,95.77,92.12,96,92.27Z" style="fill: #f0be45"/>
            <path d="M96.63,103.7a1.52,1.52,0,0,1-.54-.36l.07.16h0l.22.39s-.95-.11-1-.74a.28.28,0,0,1,0-.09h0a2.37,2.37,0,0,0,.67.14c.14,0,.26,0,.26-.17a.25.25,0,0,0,0-.08A2.6,2.6,0,0,0,96.63,103.7Z" style="fill: #e26e12"/>
            <path d="M95.33,103.15c.1.63,1,.74,1,.74C96.09,103.92,95.24,104,95.33,103.15Z" style="fill: #e26e12"/>
            <path d="M95.3,99.68a.3.3,0,0,1,0,.08A.3.3,0,0,0,95.3,99.68Z" style="fill: #f0be45"/>
            <path d="M95.23,92.19c0-.1,0-.19.07-.28,0,.09,0,.18-.07.28Z" style="fill: #f2df80"/>
            <path d="M95.25,99.8a.25.25,0,0,0,0,.08A.22.22,0,0,1,95.25,99.8Z" style="fill: #f0be45"/>
            <path d="M97,96.22c-1.31-.23-2.42.29-2.94-.78s1-3.16,1.22-3.38l0,.13h0l-.19.93a4.82,4.82,0,0,0-.55.68c-.43.65-.6,1.33-.17,1.76A1.35,1.35,0,0,0,95,96c.38.09.82,0,1.53.16Z" style="fill: #f0be45"/>
            <path d="M94,95.44c.52,1.07,1.63.55,2.94.78l.42.12h0s.21.17.16.19-.38-.12-.39-.07.24.14.26.19-.11.07-.11.07l-.15,0a3.71,3.71,0,0,0-.49-.14,15.51,15.51,0,0,0-1.61-.19A1.51,1.51,0,0,1,94,95.75c-.51-.67-.59-1.65.82-3.21.14-.15.29-.31.47-.48C95.05,92.28,93.48,94.27,94,95.44Z" style="fill: #f2df80"/>
          </g>
          <g>
            <path d="M97.42,87h0s0,0,0,0a5.2,5.2,0,0,1,1.11-1.36v0s0,0-.1-.07a.27.27,0,0,1-.14-.16A11.77,11.77,0,0,0,97.42,87Z" style="fill: #f2df80"/>
            <path d="M97.44,86.93s0,0,0,0l.92-.91a1.14,1.14,0,0,1,.16-.14l.39-.27h0a.25.25,0,0,0-.16,0,.32.32,0,0,1-.18,0s0,0,0,0h0S97.86,86.39,97.44,86.93Z" style="fill: #f0be45"/>
            <path d="M98.55,85.57a5.2,5.2,0,0,0-1.11,1.36C97.86,86.39,98.54,85.59,98.55,85.57Z" style="fill: #f2df80"/>
            <path d="M98.29,87.35a2.36,2.36,0,0,0,.07.69s.06.33.1.47,0,.13.07.25l.13-.09a.51.51,0,0,1-.13.09c.06.12.6.95.81,1.29v-.37c0-.2,0-.33,0-.33a.08.08,0,0,1,.13,0,1.76,1.76,0,0,1,0,.54s0,.09,0,.13a1.28,1.28,0,0,1,0,.19l.12.12a3.13,3.13,0,0,0,.34.81s0,0,0,0a.79.79,0,0,1,0-.23.25.25,0,0,1,0-.09l0-.11a7.33,7.33,0,0,0,0-1.28.09.09,0,0,1,.13,0c.06.08,0,.89,0,1.33,0,0,0,.09,0,.13a.53.53,0,0,1,0,.19l0,.08a.37.37,0,0,0,0,.14c0,.08.1.14.14.15.29.14.67-.12.67-.12a.56.56,0,0,1-.12-.36s0-.08,0-.13a1,1,0,0,1,0-.14s-.13-.12,0-.42c0,0-.16,0-.12-.31a1,1,0,0,0-.22-.73,3.33,3.33,0,0,1-.78-1.68c0-.66-.06-.91.11-.91h.1a.63.63,0,0,1,.53.28l-.37-.53c-.21-.31-.69-.25-.86-.21a2.3,2.3,0,0,1,.21-.76s0,0,0,0a.83.83,0,0,0,.06-.21c.07-.28,0-.49-.26-.55s-.56.15-.78.5a1.05,1.05,0,0,0-.08.13.27.27,0,0,0,.14.16c.07,0,.09,0,.1.07v0l0,0a.32.32,0,0,0,.18,0,.25.25,0,0,1,.16,0h0l-.39.27a2,2,0,0,1,.06.8A1,1,0,0,0,98.29,87.35Z" style="fill: #fff"/>
            <path d="M98.55,85.57h0s0,0,0,0Z" style="fill: #cddbdf"/>
            <path d="M98.88,92.84s.22-.14.34-.12-.14.06-.23.31c0,0,.31-.21.37-.27s.06-.06.29,0h.07s-.26-.19-.26-.19a4.69,4.69,0,0,1-.06-1.48.63.63,0,0,0,.06-.26,2.77,2.77,0,0,1,0-.6s0,0,0,0a.7.7,0,0,0-.08-.16,2.52,2.52,0,0,1-.07.69s-.07.08,0,.31a8,8,0,0,1,0,1.47c0,.14-.17.15-.21.16A.67.67,0,0,0,98.88,92.84Z" style="fill: #e26e12"/>
            <path d="M99.33,89.35s0,.13,0,.33v.37a.7.7,0,0,1,.08.16s0,0,0,0a1.28,1.28,0,0,0,0-.19s0-.08,0-.13a1.76,1.76,0,0,0,0-.54A.08.08,0,0,0,99.33,89.35Z" style="fill: #e26e12"/>
            <path d="M99.51,92.93s.22-.14.33-.12-.14.07-.23.31a3.77,3.77,0,0,0,.37-.26c.06-.06.06-.06.29,0s-.19-.19-.19-.19a5.44,5.44,0,0,1-.07-1.33,1,1,0,0,1-.11-.17,7.6,7.6,0,0,1,0,1.44.19.19,0,0,1-.17.16h0a0,0,0,0,0,0,0A.63.63,0,0,0,99.51,92.93Z" style="fill: #e26e12"/>
            <path d="M99.75,86.69c-.17,0-.12.25-.11.91a3.33,3.33,0,0,0,.78,1.68,1,1,0,0,1,.22.73c0,.26.12.31.12.31-.14.3,0,.42,0,.42a1,1,0,0,0,0,.14c0,.05,0,.09,0,.13a.56.56,0,0,0,.12.36l.07-.1a5.1,5.1,0,0,0,.24-1.52,9,9,0,0,0,0-1,3.75,3.75,0,0,0-.68-1.64l-.06-.09a.63.63,0,0,0-.53-.28Z" style="fill: #f2df80"/>
            <path d="M99.86,90.92a.79.79,0,0,0,0,.23s0,0,0,0a1,1,0,0,0,.11.17.37.37,0,0,1,0-.14l0-.08a.53.53,0,0,0,0-.19s0-.08,0-.13c0-.44.07-1.25,0-1.33a.09.09,0,0,0-.13,0,7.33,7.33,0,0,1,0,1.28l0,.11A.25.25,0,0,0,99.86,90.92Z" style="fill: #e26e12"/>
          </g>
          <g>
            <path d="M89.6,102.88a9.17,9.17,0,0,0,0,1.05,5.1,5.1,0,0,0,.24,1.52l.06.1a.53.53,0,0,0,.12-.36.62.62,0,0,0,0-.13.43.43,0,0,0,0-.14s.13-.13,0-.43c0,0,.15,0,.12-.3a1.06,1.06,0,0,1,.21-.73,3.25,3.25,0,0,0,.78-1.68c0-.66.07-.92-.1-.92h-.1a.65.65,0,0,0-.53.29l-.07.09h0A3.88,3.88,0,0,0,89.6,102.88Z" style="fill: #f2df80"/>
            <path d="M91.82,99.8a.25.25,0,0,1,.16,0,.34.34,0,0,0,.18,0l0,0v0s0,0,.1-.06a.26.26,0,0,0,.14-.17l-.08-.12c-.22-.35-.44-.57-.78-.5s-.33.27-.27.55a1.72,1.72,0,0,0,.07.21s0,0,0,0a2.6,2.6,0,0,1,.21.75c-.17,0-.65-.09-.87.22-.08.12-.22.31-.36.53a.65.65,0,0,1,.53-.29H91c.17,0,.11.26.1.92a3.25,3.25,0,0,1-.78,1.68,1.06,1.06,0,0,0-.21.73c0,.26-.12.3-.12.3.13.3,0,.43,0,.43a.43.43,0,0,1,0,.14.62.62,0,0,1,0,.13.53.53,0,0,1-.12.36.81.81,0,0,0,.68.12.52.52,0,0,0,.14-.15.88.88,0,0,0,0-.14.32.32,0,0,1,0-.09.64.64,0,0,1,0-.18.51.51,0,0,0,0-.13c0-.44-.07-1.26,0-1.33a.09.09,0,0,1,.13,0,7.68,7.68,0,0,0,0,1.28.36.36,0,0,0,0,.11.13.13,0,0,1,0,.09.54.54,0,0,1,0,.23h0a2.94,2.94,0,0,0,.34-.8l.11-.13v-.18a.57.57,0,0,0,0-.13,2.07,2.07,0,0,1,0-.55.09.09,0,0,1,.13,0s0,.15,0,.34v.38c.2-.35.75-1.19.8-1.3a.47.47,0,0,1-.12-.09.74.74,0,0,0,.12.09c0-.13,0-.16.08-.24s.09-.47.09-.48a2.34,2.34,0,0,0,.08-.69,1,1,0,0,0-.28-.65,1.71,1.71,0,0,1,.06-.8l-.39-.27Z" style="fill: #fff"/>
            <path d="M90.64,106.85s-.42.25-.19.19.23-.06.29,0l.38.26c-.1-.24-.34-.29-.23-.31s.36.16.33.12A.9.9,0,0,0,91,107h0a.21.21,0,0,1-.17-.16,6.93,6.93,0,0,1,0-1.45,1.42,1.42,0,0,1-.11.18A4.94,4.94,0,0,1,90.64,106.85Z" style="fill: #e26e12"/>
            <path d="M90.64,103.65c0,.07,0,.89,0,1.33a.51.51,0,0,1,0,.13.64.64,0,0,0,0,.18.32.32,0,0,0,0,.09.88.88,0,0,1,0,.14,1.42,1.42,0,0,0,.11-.18h0a.54.54,0,0,0,0-.23.13.13,0,0,0,0-.09.36.36,0,0,1,0-.11,7.68,7.68,0,0,1,0-1.28A.09.09,0,0,0,90.64,103.65Z" style="fill: #e26e12"/>
            <path d="M91,107.67s0,0,0,0Z" style="fill: #d66546"/>
            <path d="M91.27,106.76s-.27.15-.26.19h.07c.23-.06.23-.06.29,0s.35.25.37.27c-.09-.24-.34-.29-.23-.31s.36.15.33.11-.13-.14-.18-.15-.17,0-.2-.16a7.21,7.21,0,0,1,0-1.47c.07-.23,0-.31,0-.31a2.48,2.48,0,0,1-.07-.68l-.08.14,0,0a3.87,3.87,0,0,1,0,.61.78.78,0,0,0,0,.26A5,5,0,0,1,91.27,106.76Z" style="fill: #e26e12"/>
            <path d="M91.27,103.55a2.07,2.07,0,0,0,0,.55.57.57,0,0,1,0,.13v.18l0,0,.08-.14v-.38c0-.19,0-.34,0-.34A.09.09,0,0,0,91.27,103.55Z" style="fill: #e26e12"/>
            <path d="M91.82,99.8h0l.39.27.16.14.92.91c-.4-.53-1.08-1.32-1.12-1.38h0a.05.05,0,0,1,0,0,.34.34,0,0,1-.18,0A.25.25,0,0,0,91.82,99.8Z" style="fill: #f0be45"/>
            <path d="M92.18,99.75l0,0a.05.05,0,0,0,0,0Z" style="fill: #cddbdf"/>
            <path d="M92.18,99.71v0h0a5.33,5.33,0,0,1,1.12,1.38h0a10,10,0,0,0-.88-1.65.26.26,0,0,1-.14.17C92.21,99.69,92.18,99.69,92.18,99.71Z" style="fill: #f2df80"/>
            <path d="M92.18,99.75c0,.06.72.85,1.12,1.38A5.33,5.33,0,0,0,92.18,99.75Z" style="fill: #f2df80"/>
          </g>
        </g>
        <g>
          <g>
            <path d="M86.67,66.87a2.89,2.89,0,0,1,1-.6c1.41-.51,3.12,0,3.27,1s-1.35,1.13-1.54,1.06h0C88.84,67.24,87.28,66.34,86.67,66.87Z" style="fill: #f0f8f7"/>
            <path d="M86.59,66.93c-.33.26.12.52.4.42s0-.76-.33-.47h0c.61-.53,2.17.37,2.72,1.46a1.28,1.28,0,0,1-2,1.59c-.94-.79-1.46-2.49-.82-3Z" style="fill: #f6c759"/>
            <path d="M86.63,66.9h0c-1.09-1.37-.6-4.64,1.77-4.63s1.26,3-.73,4a2.89,2.89,0,0,0-1,.6s0,0,0,0h0Z" style="fill: #f0f8f7"/>
            <path d="M86.64,66.89h0Z" style="fill: #f6c759"/>
            <path d="M86.62,66.89h0a3,3,0,0,0-.8.82c-1.45,1.71-4.51,2.09-4.07-.18S85.53,65.52,86.62,66.89Z" style="fill: #f0f8f7"/>
            <path d="M86.62,66.91h0Z" style="fill: #f6c759"/>
            <path d="M86.61,66.92h0Z" style="fill: #f6c759"/>
            <path d="M87,67.35c-.28.1-.73-.16-.4-.42h.07C87,66.59,87.14,67.1,87,67.35Z" style="fill: #f4ad17"/>
            <path d="M86.58,66.94c-.64.49-.12,2.19.82,3,0,.2-.47,1.66-1.38,1.25S85,69,85.78,67.76A3,3,0,0,1,86.58,66.94Z" style="fill: #f0f8f7"/>
          </g>
          <path d="M86,66a.07.07,0,0,1-.1,0c-2.19-2.74-2.93-5.79-1.66-6.8a.08.08,0,0,1,.1,0,.08.08,0,0,1,0,.11c-1.21,1-.45,3.91,1.68,6.59A.08.08,0,0,1,86,66Z" style="fill: #ea601b"/>
          <path d="M86,66a.07.07,0,0,1-.1,0c-2.37-3-5.12-4.73-6.14-3.92a.08.08,0,0,1-.1,0,.08.08,0,0,1,0-.11c1.1-.87,3.88.86,6.34,4A.08.08,0,0,1,86,66Z" style="fill: #ea601b"/>
          <path d="M86,66a.07.07,0,0,1-.1,0c-1.43-1.8-3.68-2.4-5-1.34a.08.08,0,0,1-.1,0,.09.09,0,0,1,0-.11c1.39-1.1,3.73-.49,5.21,1.37A.08.08,0,0,1,86,66Z" style="fill: #ea601b"/>
          <g>
            <g>
              <path d="M91.9,63.11a2.76,2.76,0,0,1,1.15.14c1.43.48,2.45,2,1.94,2.82s-1.76.05-1.86-.12h0C93.37,64.74,92.72,63.07,91.9,63.11Z" style="fill: #f0f8f7"/>
              <path d="M91.81,63.11c-.42,0-.23.47,0,.57.28-.1.47-.6,0-.57h0c.82,0,1.47,1.63,1.22,2.84a1.34,1.34,0,0,1-1.26,1.19A1.36,1.36,0,0,1,90.58,66c-.24-1.2.4-2.86,1.21-2.84Z" style="fill: #f6c759"/>
              <path d="M91.86,63.11v0c0-1.75,2.41-4,4.27-2.52s-.87,3.11-3.08,2.68a2.76,2.76,0,0,0-1.15-.14h0Z" style="fill: #f0f8f7"/>
              <path d="M91.87,63.11h0Z" style="fill: #f6c759"/>
              <path d="M91.86,63.09v0h-.07a2.84,2.84,0,0,0-1.13.14c-2.21.43-4.83-1.17-3.08-2.68S91.85,61.34,91.86,63.09Z" style="fill: #f0f8f7"/>
              <path d="M91.84,63.11Z" style="fill: #f6c759"/>
              <path d="M91.82,63.11h0Z" style="fill: #f6c759"/>
              <path d="M91.86,63.68c-.28-.1-.47-.58,0-.57h.08C92.33,63.08,92.14,63.58,91.86,63.68Z" style="fill: #f4ad17"/>
              <path d="M91.79,63.11c-.81,0-1.45,1.64-1.21,2.84-.1.17-1.4,1-1.86.12s.51-2.34,1.94-2.82A2.84,2.84,0,0,1,91.79,63.11Z" style="fill: #f0f8f7"/>
            </g>
            <path d="M91.86,63.16a.07.07,0,0,1-.07-.08c0-3.5,1.32-6.35,2.94-6.35a.07.07,0,0,1,.07.07.08.08,0,0,1-.07.08c-1.54,0-2.8,2.78-2.8,6.2A.07.07,0,0,1,91.86,63.16Z" style="fill: #ea601b"/>
            <path d="M91.86,63.16a.07.07,0,0,1-.07-.08c0-3.79-1.06-6.88-2.36-6.88a.08.08,0,0,1-.07-.08.07.07,0,0,1,.07-.07c1.41,0,2.5,3.09,2.5,7A.07.07,0,0,1,91.86,63.16Z" style="fill: #ea601b"/>
            <path d="M91.86,63.16a.07.07,0,0,1-.07-.08c0-4.35.61-8.85,1.62-8.85a.07.07,0,1,1,0,.14c-.71,0-1.48,3.5-1.48,8.71A.07.07,0,0,1,91.86,63.16Z" style="fill: #ea601b"/>
            <path d="M91.86,63.16a.07.07,0,0,1-.07-.08c0-2.29-1.38-4.16-3.08-4.16a.07.07,0,0,1-.07-.07.08.08,0,0,1,.07-.08c1.78,0,3.22,1.94,3.22,4.31A.07.07,0,0,1,91.86,63.16Z" style="fill: #ea601b"/>
          </g>
        </g>
        <g>
          <g>
            <polygon points="50.82 69.2 56.96 83.41 56.96 83.42 44.08 90.85 44.08 76.01 44.08 73.03 50.82 69.2" style="fill: #f6c759"/>
            <polygon points="50.82 69.2 44.08 73.03 24.13 61.51 30.77 57.67 50.82 69.2" style="fill: #f0f8f7"/>
            <polygon points="49.57 95.39 50.8 94.69 50.78 94.65 44.08 90.88 44.08 90.85 56.96 83.42 56.96 83.43 66.92 89.2 47.51 100.39 47.51 100.4 44.14 98.52 48.01 96.29 49.57 95.39" style="fill: #f0f8f7"/>
            <polygon points="66.92 94.56 47.55 105.75 47.51 105.75 47.51 105.2 47.51 105.07 47.51 100.4 47.51 100.39 66.92 89.2 66.92 94.56" style="fill: #f6c759"/>
            <path d="M45.61,102.62l-1.47-.84V98.52l3.37,1.88v4.8A3.13,3.13,0,0,0,45.61,102.62Z" style="fill: #76c5b4"/>
            <path d="M47.2,122a1.16,1.16,0,0,1-.51.88l-.62.36a.25.25,0,0,1-.37-.22V120.6a1.1,1.1,0,0,1,.51-.88l.48-.28c.27-.16.51,0,.51.3Z" style="fill: #a5d7d4"/>
            <polygon points="44.08 94.07 44.08 92.31 49.57 95.39 48.01 96.29 44.08 94.07" style="fill: #a5d7d4"/>
            <polygon points="50.78 94.65 50.8 94.69 49.57 95.39 44.08 92.31 44.08 90.88 50.78 94.65" style="fill: #76c5b4"/>
            <path d="M43.87,125v.57a1.1,1.1,0,0,1-.51.88l-.5.29c-.28.16-.51,0-.51-.29v-.58a1.13,1.13,0,0,1,.51-.88l.5-.29C43.64,124.53,43.87,124.66,43.87,125Z" style="fill: #a5d7d4"/>
            <path d="M47.51,112.78v1.33a1.27,1.27,0,0,1-.57,1l-1.09.62a1.28,1.28,0,0,0-.57,1V118a1.29,1.29,0,0,1-.56,1l-1.08.63a1.28,1.28,0,0,0-.57,1v1.25a1.31,1.31,0,0,1-.57,1l-1.08.63c-.31.18-.57,0-.57-.32V108.93l6.08-3.53v-.69l-2.78-1.61v-1.32l1.47.84a3.13,3.13,0,0,1,1.9,2.58v7.58Z" style="fill: #a5d7d4"/>
            <polygon points="46.92 105.4 40.84 108.93 40.84 108.26 46.92 104.71 46.92 105.4" style="fill: #76c5b4"/>
            <polygon points="31.89 112.74 40.84 107.63 40.84 108.26 40.84 108.93 40.84 113.47 31.89 118.72 31.89 112.74" style="fill: #f6c759"/>
            <polygon points="40.79 73.76 33.05 78.22 16.38 68.6 24.13 64.12 40.79 73.76" style="fill: #95d1d2"/>
            <polygon points="40.84 107.63 32.47 102.8 32.46 102.8 29.26 100.95 32.54 99.01 32.56 99 34.07 98.12 34.07 96.09 40.77 92.22 40.78 92.22 40.78 92.22 44.08 94.07 48.01 96.29 44.14 98.52 44.14 101.78 44.14 103.1 46.92 104.71 40.84 108.26 40.84 107.63" style="fill: #95d1d2"/>
            <polygon points="34.07 98.12 32.56 99 32.54 99.01 25.63 102.99 25.63 92.42 25.63 92.41 27.46 82.7 34.07 78.81 34.07 96.09 34.07 98.12" style="fill: #f6c759"/>
            <polygon points="34.07 78.81 33.05 78.22 40.79 73.76 40.79 92.21 40.78 92.22 40.77 92.22 34.07 96.09 34.07 78.81" style="fill: #76c5b4"/>
            <polygon points="34.07 78.81 27.46 82.7 7.45 71.14 14.13 67.29 15.29 67.97 16.38 68.6 33.05 78.22 34.07 78.81" style="fill: #f0f8f7"/>
            <polygon points="20.31 106.09 20.32 106.06 25.63 102.99 32.54 99.01 29.26 100.95 32.46 102.8 32.47 102.8 40.84 107.63 31.89 112.74 20.31 106.09" style="fill: #f0f8f7"/>
            <polygon points="31.89 112.74 31.89 118.72 0 100.39 0 94.41 7.98 99.01 20.31 106.09 31.89 112.74" style="fill: #60bda0"/>
            <polygon points="27.46 82.7 25.63 92.41 25.63 92.42 14.13 85.79 14.13 85.77 14.13 82.78 14.13 82.77 6.12 78.16 7.45 71.14 27.46 82.7" style="fill: #60bda0"/>
            <polygon points="25.63 92.42 25.63 102.99 20.32 106.06 21.62 94.73 25.63 92.42" style="fill: #f6c759"/>
            <path d="M40.79,92.21V73.76L24.13,64.12,16.38,68.6,15.29,68l8.84-5.1,18,10.44c1.08.64,1.91,1.34,1.91,2.7V94.07l-3.3-1.84h0Z" style="fill: #a5d7d4"/>
            <polygon points="21.62 94.73 20.32 106.06 20.31 106.09 7.98 99.01 8 98.98 10.13 88.09 21.62 94.73" style="fill: #95d1d2"/>
            <path d="M24.13,61.51,44.08,73v3c0-1.36-.83-2.06-1.91-2.7l-18-10.44L15.29,68l-1.16-.68Z" style="fill: #76c5b4"/>
            <polygon points="14.13 85.79 25.63 92.42 21.62 94.73 10.13 88.09 10.13 88.07 14.13 85.77 14.13 85.79" style="fill: #f0f8f7"/>
            <polygon points="14.13 82.78 14.13 85.77 10.13 88.07 10.79 84.71 14.13 82.78" style="fill: #f6c759"/>
            <polygon points="14.13 82.78 10.79 84.71 2.78 80.08 6.12 78.16 14.13 82.77 14.13 82.78" style="fill: #f0f8f7"/>
            <polygon points="10.79 84.71 10.13 88.07 10.13 88.09 8 98.98 7.98 99.01 0 94.41 2.78 80.08 10.79 84.71" style="fill: #95d1d2"/>
          </g>
          <g>
            <path d="M61.47,85.14A2.68,2.68,0,0,1,58.71,88a3.29,3.29,0,0,1-2.06-.7l2.74-3.07-.47-.47a4.4,4.4,0,0,0,.57-1.07A3,3,0,0,1,61.47,85.14Z" style="fill: #60bda0"/>
            <path d="M59.79,81a5,5,0,0,1-.3,1.69,3.33,3.33,0,0,0-1.18-.21,2.68,2.68,0,0,0-2.76,2.81,3.55,3.55,0,0,0,.08.47l-.24,0c0-1.1,0-1.94,0-1.94l-1-.05v2a5.13,5.13,0,0,1,.52-10.25A5.28,5.28,0,0,1,59.79,81Z" style="fill: #60bda0"/>
            <path d="M58.92,83.71l.47.47-2.74,3.07a3.2,3.2,0,0,1-.51-.53l1.75-2A4.46,4.46,0,0,0,58.92,83.71Z" style="fill: #60bda0"/>
            <path d="M59.49,82.64a4.4,4.4,0,0,1-.57,1.07l0,0-1,1.09a4.92,4.92,0,0,1-2.26.95,3.55,3.55,0,0,1-.08-.47,2.68,2.68,0,0,1,2.76-2.81A3.33,3.33,0,0,1,59.49,82.64Z" style="fill: #60bda0"/>
            <path d="M58.88,83.67l0,0a4.46,4.46,0,0,1-1,1.05Z" style="fill: #60bda0"/>
            <path d="M57.89,84.76l-1.75,2a2.76,2.76,0,0,1-.51-1A4.92,4.92,0,0,0,57.89,84.76Z" style="fill: #60bda0"/>
            <path d="M56.14,86.72a3.2,3.2,0,0,0,.51.53c-.53.6-1,1.13-1.26,1.41v-1.1Z" style="fill: #ea601b"/>
            <path d="M55.39,88.66c0,1.28,0,2.35,0,2.47s-.71.35-1,0c0-.12,0-1.28,0-2.63h.31c0,.32.35.51.51.41Z" style="fill: #ea601b"/>
            <path d="M55.39,87.56v1.1l-.19.2c-.16.1-.51-.09-.51-.41v-.1C54.74,88.3,55,88,55.39,87.56Z" style="fill: #ea601b"/>
            <path d="M55.39,85.73v1.83c-.39.43-.65.74-.7.79v.1h-.31c0-.9,0-1.88,0-2.71h.14A4.92,4.92,0,0,0,55.39,85.73Z" style="fill: #ea601b"/>
            <path d="M55.38,83.79s0,.84,0,1.94a4.92,4.92,0,0,1-.86,0h-.14v-2Z" style="fill: #60bda0"/>
          </g>
          <g>
            <path d="M43.11,58.94A4.25,4.25,0,0,1,47,63.15a3.68,3.68,0,0,1-3.54,3.75c0-1,0-2.56,0-2.56l-.79,0s0,1.6,0,2.54a4.28,4.28,0,0,1-3.49-4.16A3.67,3.67,0,0,1,43.11,58.94Z" style="fill: #60bda0"/>
            <path d="M43.48,64.34s0,1.61,0,2.56h-.38a3,3,0,0,1-.43,0c0-.94,0-2.54,0-2.54Z" style="fill: #60bda0"/>
            <path d="M43.11,66.89h.38c0,.32,0,.57,0,.64,0,.23-.57.34-.79,0,0-.08,0-.33,0-.66A3,3,0,0,0,43.11,66.89Z" style="fill: #ea601b"/>
          </g>
          <g>
            <path d="M27.47,97.38a4.26,4.26,0,0,1,3.92,4.22,3.67,3.67,0,0,1-3.54,3.74c0-1,0-2.55,0-2.55l-.8-.05v2.55a4.28,4.28,0,0,1-3.5-4.17A3.68,3.68,0,0,1,27.47,97.38Z" style="fill: #60bda0"/>
            <path d="M27.84,102.79s0,1.6,0,2.55h-.38l-.43,0v-2.55Z" style="fill: #60bda0"/>
            <path d="M27.47,105.34h.38c0,.32,0,.57,0,.65s-.58.33-.8,0v-.65Z" style="fill: #ea601b"/>
          </g>
          <g>
            <path d="M14.12,64.13a4.26,4.26,0,0,1,3.93,4.22,3.68,3.68,0,0,1-3.54,3.74c0-1,0-2.55,0-2.55l-.8-.05s0,1.6,0,2.54a4.28,4.28,0,0,1-3.49-4.16A3.67,3.67,0,0,1,14.12,64.13Z" style="fill: #60bda0"/>
            <path d="M14.5,69.54s0,1.6,0,2.55h0a2.44,2.44,0,0,1-.38,0,2.1,2.1,0,0,1-.43,0c0-.94,0-2.54,0-2.54Z" style="fill: #60bda0"/>
            <path d="M14.12,72.08a2.44,2.44,0,0,0,.38,0v.65c-.06.22-.58.33-.8,0,0-.08,0-.33,0-.66A2.1,2.1,0,0,0,14.12,72.08Z" style="fill: #ea601b"/>
          </g>
          <polygon points="46.92 104.71 46.92 109.92 40.84 113.45 40.84 108.25 46.92 104.71" style="fill: #76c5b4"/>
        </g>
      </g>
    </g>
  </g>
</svg>
