<svg xmlns="http://www.w3.org/2000/svg" width="97.73" height="133.12" viewBox="0 0 97.73 133.12">
  <g id="Layer_2" data-name="Layer 2">
    <g id="Icon">
      <g>
        <g>
          <path d="M68,8.29V6.69h7.7V8.2a11,11,0,0,1-2,2.64h5a14.35,14.35,0,0,1-2.7-5c.56-.2,1-.37,1.56-.56a13.93,13.93,0,0,0,1.07,2.63,5.88,5.88,0,0,0,1.84-1.55H79V4.86H76.29V3.26H79V1.36h1.7l0,1.9h4.46v1.6H80.72v1a2.29,2.29,0,0,0,.21-.57l1.43,1.11a11.34,11.34,0,0,1-2.89,2.78c.19.19.41.52.6.71a9.08,9.08,0,0,0,2.81-2.76c.4.39.84.65,1.25,1A12.16,12.16,0,0,1,81.28,11a13.31,13.31,0,0,0,4.21,2l-1,1.49a7.32,7.32,0,0,1-.9-.34v1.55H76.49c-.71,2.22-3.15,4.32-8.89,4.81l-1.06-1.62c3.71-.28,6.88-1.38,8.07-3.19H68.46V14.05h6.63V12.43h-3v-.34a17.31,17.31,0,0,1-4.68,2.31l-1-1.38a20.8,20.8,0,0,0,3.86-1.73,4.17,4.17,0,0,0-2.09-1.75,11.81,11.81,0,0,1,1.47-1,5.15,5.15,0,0,1,1.59,1.31l.35.54a12.34,12.34,0,0,0,2.14-2.09Zm3.24-3.45H66.78l0-1.62h4.42V1.3l1.73,0,0,1.9,2.54,0V4.82H72.93l0,1.49h-1.7ZM83.82,20.5a13.4,13.4,0,0,0-7.61-2.67l.67-1.54A14.63,14.63,0,0,1,84.62,19Zm-.41-6.43a12.45,12.45,0,0,1-3.64-2.26l0,.62h-3c0,.78,0,1.12,0,1.64Z" style="fill: #fff"/>
          <path d="M67.21,33V31.48h7.88v-1.1H69.63V28.87h5.46V27.81H68V26.28h7l0-1.49,1.68,0v1.51h7.14l0,1.53-7.1,0,0,1h5.57v1.54l-5.55,0,0,1.06h7.94V33Zm4.14,11.22H69.67l0-10.32H82.27l0,8.16A1.81,1.81,0,0,1,81,43.75a16.41,16.41,0,0,1-2.85.07l-.54-1.6,2.5.07a.53.53,0,0,0,.46-.52V40.69H71.35Zm9.22-5.09V38.08l-9.22,0,0,1.08Zm-9.19-2.61,9.19,0V35.47H71.38Z" style="fill: #fff"/>
          <path d="M85.14,66.85H69.86c-1.14,0-1.66-.95-1.66-2V51.17l-1.36,0v-1.6l18.19,0v1.6H69.84l0,13.25c0,.6.22.84.89.84H85.14Zm-8.28-3H70.75v-6l6.11,0Zm-4.49-4.4v2.83l2.85,0,0-2.87Zm9.86-2.72-9.71,0,0-4.82h9.69Zm-8.07-1.46h6.43V53.39H74.16Zm10,2.61v5.91H78V57.88Zm-1.62,1.55-2.91,0v2.76l2.89,0Z" style="fill: #fff"/>
        </g>
        <g>
          <path d="M69.31,7V5.39H77V6.9A11,11,0,0,1,75,9.54h5a14.35,14.35,0,0,1-2.7-5c.56-.2.95-.37,1.56-.56a13.93,13.93,0,0,0,1.07,2.63A5.88,5.88,0,0,0,81.76,5H80.27V3.56H77.59V2h2.68V.06H82L82,2h4.46v1.6H82v1A2.29,2.29,0,0,0,82.23,4l1.43,1.11a11.51,11.51,0,0,1-2.89,2.78c.19.19.41.52.6.71a9,9,0,0,0,2.8-2.76c.41.39.85.65,1.26,1a12.16,12.16,0,0,1-2.85,2.79,13.31,13.31,0,0,0,4.21,2l-1,1.49a7.32,7.32,0,0,1-.9-.34v1.55H77.79c-.71,2.22-3.15,4.32-8.89,4.81l-1.06-1.62c3.71-.28,6.88-1.38,8.07-3.19H69.76V12.75h6.63V11.13h-3v-.34a17.31,17.31,0,0,1-4.68,2.31l-1-1.38A20.8,20.8,0,0,0,71.55,10a4.17,4.17,0,0,0-2.09-1.75,11.81,11.81,0,0,1,1.47-1,5.15,5.15,0,0,1,1.59,1.31l.35.54A12,12,0,0,0,75,7Zm3.23-3.45H68.08l0-1.62h4.42V0l1.73,0,0,1.9,2.54,0V3.52H74.23l0,1.49H72.54ZM85.12,19.2a13.4,13.4,0,0,0-7.61-2.67L78.18,15a14.53,14.53,0,0,1,7.74,2.71Zm-.41-6.43a12.45,12.45,0,0,1-3.64-2.26l0,.62h-3c0,.78,0,1.12,0,1.64Z" style="fill: #003869"/>
          <path d="M68.51,31.71V30.18h7.88v-1.1H70.93V27.57h5.46V26.51H69.33V25h7l0-1.49,1.68,0V25h7.14l0,1.53-7.1,0,0,1h5.57v1.54l-5.55,0,0,1.06H86v1.55Zm4.14,11.22H71l0-10.32H83.57l0,8.16a1.81,1.81,0,0,1-1.25,1.68,16.41,16.41,0,0,1-2.85.07l-.54-1.6,2.5.07a.53.53,0,0,0,.46-.52V39.39H72.65Zm9.22-5.09V36.78l-9.22,0,0,1.08Zm-9.2-2.61,9.2,0V34.17h-9.2Z" style="fill: #003869"/>
          <path d="M86.44,65.55H71.16c-1.14,0-1.66-1-1.66-2V49.87l-1.36,0v-1.6l18.19,0v1.6H71.14l0,13.25c0,.6.22.84.89.84H86.44Zm-8.29-3h-6.1v-6l6.1,0Zm-4.48-4.4V61l2.85,0,0-2.87Zm9.86-2.72-9.71,0,0-4.82h9.69ZM75.46,54h6.43V52.09H75.46Zm10,2.61v5.91H79.26V56.58Zm-1.62,1.55-2.91,0v2.76l2.89,0Z" style="fill: #003869"/>
        </g>
        <g style="isolation: isolate">
          <polygon points="52.63 131.29 0 112.14 45.09 92.37 97.71 111.53 52.63 131.29" style="fill: #6baadb"/>
          <polygon points="52.65 133.13 52.63 131.29 97.71 111.53 97.73 113.36 52.65 133.13" style="fill: #3d77a6"/>
          <polygon points="0.02 113.97 0 112.14 52.63 131.29 52.65 133.13 0.02 113.97" style="fill: #254966"/>
        </g>
        <g>
          <polygon points="19.39 79.84 23.08 79.84 25.82 78.41 25.82 76.85 23.08 75.41 19.39 75.41 16.65 76.85 16.65 78.41 19.39 79.84" style="fill: none"/>
          <polygon points="19.39 59.78 16.65 61.22 16.65 62.77 19.39 64.22 23.08 64.22 25.82 62.77 25.82 61.22 23.08 59.78 19.39 59.78" style="fill: none"/>
          <polygon points="19.39 51.96 16.65 53.4 16.65 54.96 19.39 56.4 23.08 56.4 25.82 54.96 25.82 53.4 23.08 51.96 19.39 51.96" style="fill: none"/>
          <polygon points="19.39 91.04 16.65 92.48 16.65 94.03 19.39 95.47 23.08 95.47 25.82 94.03 25.82 92.48 23.08 91.04 19.39 91.04" style="fill: none"/>
          <polygon points="19.39 72.03 23.08 72.03 25.82 70.59 25.82 69.03 23.08 67.59 19.39 67.59 16.65 69.03 16.65 70.59 19.39 72.03" style="fill: none"/>
          <polygon points="19.39 103.29 23.08 103.29 25.82 101.85 25.82 100.29 23.08 98.85 19.39 98.85 16.65 100.29 16.65 101.85 19.39 103.29" style="fill: none"/>
          <polygon points="19.39 83.22 16.65 84.66 16.65 86.22 19.39 87.66 23.08 87.66 25.82 86.22 25.82 84.66 23.08 83.22 19.39 83.22" style="fill: none"/>
          <path d="M16.65,100.29V43.1H2.16v69.05H16.65V100.29ZM5.79,109.4H4.12v-3.65H5.79Zm0-5.45H4.12v-3.64H5.79Zm0-5.44H4.12V94.86H5.79Zm0-5.45H4.12V89.42H5.79Zm0-5.44H4.12V84H5.79Zm0-5.45H4.12V78.53H5.79Zm0-5.44H4.12V73.08H5.79Zm0-5.45H4.12V67.63H5.79Zm0-5.44H4.12V62.19H5.79Zm0-5.45H4.12V56.74H5.79Zm0-5.44H4.12V51.3H5.79Zm0-5.45H4.12V45.85H5.79Z" style="fill: #33c5be"/>
          <rect x="44" y="44.77" width="3.84" height="65.71" style="fill: #33c5be"/>
          <rect x="49.51" y="44.77" width="3.84" height="65.71" style="fill: #33c5be"/>
          <rect x="38.5" y="44.77" width="3.84" height="65.71" style="fill: #33c5be"/>
          <rect x="55.02" y="44.77" width="3.84" height="65.71" style="fill: #33c5be"/>
          <rect x="27.49" y="44.77" width="3.84" height="65.71" style="fill: #33c5be"/>
          <rect x="32.99" y="44.77" width="3.84" height="65.71" style="fill: #33c5be"/>
          <path d="M55,43.1H25.82V62.78l-2.74,1.44H19.39l-2.74-1.44V69l2.74-1.44h3.69L25.82,69v1.56L23.08,72H19.39l-2.74-1.44v6.26l2.74-1.44h3.69l2.74,1.44V94l-2.74,1.44H19.39L16.65,94v6.26l2.74-1.44h3.69l2.74,1.44v1.56l-2.74,1.44H19.39l-2.74-1.44v6.26l2.74-1.44h3.69l2.74,1.44v4h34.7V43.1H55ZM27.49,110.48V44.77h3.83v65.71Zm5.5,0V44.77h3.84v65.71Zm5.51,0V44.77h3.84v65.71Zm5.5,0V44.77h3.84v65.71Zm5.51,0V44.77h3.84v65.71Zm9.34,0H55V44.77h3.83Z" style="fill: #c0dede"/>
          <polygon points="19.39 51.96 23.08 51.96 25.82 53.4 25.82 47.15 23.08 48.59 19.39 48.59 16.65 47.15 16.65 53.4 19.39 51.96" style="fill: #7597f7"/>
          <polygon points="19.39 56.4 16.65 54.96 16.65 61.22 19.39 59.78 23.08 59.78 25.82 61.22 25.82 54.96 23.08 56.4 19.39 56.4" style="fill: #3cacfa"/>
          <polygon points="19.39 79.84 16.65 78.41 16.65 84.66 19.39 83.22 23.08 83.22 25.82 84.66 25.82 78.41 23.08 79.84 19.39 79.84" style="fill: #7597f7"/>
          <polygon points="19.39 87.66 16.65 86.22 16.65 92.48 19.39 91.04 23.08 91.04 25.82 92.48 25.82 86.22 23.08 87.66 19.39 87.66" style="fill: #3cacfa"/>
          <rect x="4.12" y="45.85" width="1.67" height="3.65" style="fill: #9beeb2"/>
          <rect x="4.12" y="51.3" width="1.67" height="3.65" style="fill: #9beeb2"/>
          <rect x="4.12" y="56.74" width="1.67" height="3.65" style="fill: #9beeb2"/>
          <rect x="4.12" y="62.19" width="1.67" height="3.65" style="fill: #9beeb2"/>
          <rect x="4.12" y="67.63" width="1.67" height="3.65" style="fill: #9beeb2"/>
          <rect x="4.12" y="73.08" width="1.67" height="3.65" style="fill: #9beeb2"/>
          <rect x="4.12" y="78.53" width="1.67" height="3.65" style="fill: #9beeb2"/>
          <rect x="4.12" y="83.97" width="1.67" height="3.65" style="fill: #9beeb2"/>
          <rect x="4.12" y="89.42" width="1.67" height="3.65" style="fill: #9beeb2"/>
          <rect x="4.12" y="94.86" width="1.67" height="3.65" style="fill: #9beeb2"/>
          <rect x="4.12" y="100.31" width="1.67" height="3.65" style="fill: #9beeb2"/>
          <rect x="4.12" y="105.75" width="1.67" height="3.65" style="fill: #9beeb2"/>
        </g>
        <g>
          <polygon points="84.45 71.94 84.45 92.19 83.91 92.19 83.91 71.94 51.16 71.94 51.16 92.19 50.63 92.19 50.63 71.94 46.67 71.94 46.67 114.09 50.63 114.09 50.63 98.03 84.45 98.03 84.45 114.09 88.41 114.09 88.41 71.94 84.45 71.94" style="fill: #f37944"/>
          <g>
            <rect x="47.44" y="75.08" width="32.75" height="20.25" style="fill: #4a3d49"/>
            <rect x="42.95" y="75.08" width="3.96" height="42.15" style="fill: #fff"/>
            <rect x="80.73" y="75.08" width="3.96" height="42.15" style="fill: #fff"/>
            <rect x="48.9" y="75.98" width="29.84" height="18.45" style="fill: #fff"/>
            <rect x="46.91" y="95.33" width="33.82" height="5.84" style="fill: #90baa3"/>
            <g id="eIrykf">
              <g>
                <path d="M64.13,78.75a.85.85,0,0,0,.22,0,1.36,1.36,0,0,1,1.41.25,1.15,1.15,0,0,1,.45.66,1.43,1.43,0,0,1-.21,1.3c-.18.2-.36.4-.55.59-.34.34-.62.73-1,1-.1.08-.12.21-.27.26s-.2,0-.25-.06V80.84c0-.06.1-.12.1-.12V79.6L64,79.51c-.13,0-.29-.06-.4.1v1.1c.14,0,.12.14.2.19v1.85l-.19.11a.42.42,0,0,1-.33-.27s0,0,0,0c-.42-.37-.73-.83-1.14-1.21-.18-.16-.3-.36-.46-.53a.72.72,0,0,1-.16-.44c0-.14-.19-.28,0-.42a1.19,1.19,0,0,1,.06-.42.94.94,0,0,1,.22-.39,1.26,1.26,0,0,1,.7-.44,1,1,0,0,1,.34-.08,1.17,1.17,0,0,1,.61.11c.06,0,.13,0,.19,0a.59.59,0,0,0,.18.2H64l.17-.17S64.13,78.76,64.13,78.75Zm-2.27,1.66a5,5,0,0,0,.73.88c.29.24.47.57.78.84v-.95c0-.09-.14-.09-.2-.14,0-.44,0-.88,0-1.33a.52.52,0,0,1,.15-.39l.13-.13a1.08,1.08,0,0,0-1.58.48,2.64,2.64,0,0,0,0,.38A2.17,2.17,0,0,0,61.86,80.41Zm2.5,1.66,0,0s.12-.09.14-.15a.45.45,0,0,1,.15-.21,7.56,7.56,0,0,0,1.18-1.34,1.94,1.94,0,0,0-.12-.9,1,1,0,0,0-1.46-.29.85.85,0,0,1,.26.37v1.49a.28.28,0,0,0-.2.12Z" style="fill: #b62d44"/>
                <path d="M63.6,78.75c-.12-.18-.26-.35-.19-.58a.5.5,0,0,1,.47-.36c.07,0,.13.1.24,0l.24.28v.38c0,.09-.17.13-.2.24H63.6Z" style="fill: #b62d44"/>
              </g>
            </g>
            <g>
              <g>
                <g>
                  <rect x="51.96" y="84.61" width="0.86" height="3.16" style="fill: #90baa3"/>
                  <polygon points="54.37 84.61 54.37 86 53.6 86 53.6 86.39 54.37 86.39 54.37 87.77 55.24 87.77 55.24 84.61 54.37 84.61" style="fill: #90baa3"/>
                  <path d="M54.37,87a.77.77,0,0,1,0-1.54v-.81a1.58,1.58,0,0,0,0,3.16Z" style="fill: #e4bc81"/>
                </g>
                <g>
                  <path d="M57.47,84.64c0-.08,0-.19.11-.22s.09.06.13.08.06.08,0,.14h.44a.23.23,0,0,1,.16.08.39.39,0,0,1-.12.26,1.74,1.74,0,0,1-.45,0c0,.09,0,.22-.09.27.15,0,.35,0,.45,0s.07,0,.09.06c.08.29-.18.45-.28.67l-.15.15,0,0H59v0a1.27,1.27,0,0,0-.55-.38.09.09,0,0,1,0-.12c0-.07.09-.13.17-.13a1,1,0,0,0,.53-.24,1.27,1.27,0,0,0,0-.2,1.81,1.81,0,0,0-.53,0c-.16-.11-.06-.42.08-.36s.33,0,.47,0,.07-.17.18-.18.13,0,.13.07a.16.16,0,0,1,0,.12h.51c.06,0,.13,0,.14,0a.24.24,0,0,1-.23.31h-.48l-.11.21c.07,0,.17,0,.2.1s0,.07-.08.1-.4.08-.54.21c.13.05.26.22.37.18s.26-.28.46-.18,0,.15,0,.2-.17.09-.24.14a2.3,2.3,0,0,0,.76.43c.08,0,.17,0,.21,0s.11.11,0,.19-.53.35-.61.29-.4-.48-.63-.64c0,0,0,.13-.07.13-.09.21-.4.12-.56.14s0,.1,0,.14h.79l0,0s.08,0,.1,0a.31.31,0,0,1,0,.21c-.17.24-.48.11-.71.13a1,1,0,0,0,.37.26,1.67,1.67,0,0,0,.61.2l-.05.14a3.22,3.22,0,0,1-.33.28c-.23,0-.4-.11-.55-.26s-.25-.38-.18-.6a.52.52,0,0,0-.25,0,3.3,3.3,0,0,1-.45.52,1.09,1.09,0,0,1-.48.34c-.14,0-.2-.14-.34-.16s0-.19-.08-.29,0-.12,0-.16.17.1.36.07a1.32,1.32,0,0,0,.62-.32v0a4,4,0,0,0-.69,0,.08.08,0,0,1-.09,0c-.13-.1,0-.27,0-.4a.14.14,0,0,1,.15,0l0,0h.79a.32.32,0,0,0,0-.14,1.37,1.37,0,0,0-.57,0s-.12,0-.12-.1,0-.09-.07,0a1.81,1.81,0,0,1-.64.43c-.11-.13-.36-.1-.35-.32,0,0,0-.1,0-.13s.1-.14.14-.19.06,0,.11,0a1.1,1.1,0,0,0,.61-.18s-.12-.06-.16-.09a.3.3,0,0,1,0-.21.16.16,0,0,1,.1-.11.74.74,0,0,1,.3.28,1.52,1.52,0,0,0,.32-.26v-.07H57l0,0a.51.51,0,0,1,0-.3.11.11,0,0,1,.12,0l0,0h.43c0-.14,0-.22,0-.28a1.41,1.41,0,0,0-.58,0c-.13,0-.11-.24-.06-.34l.06-.07h.56Z" style="fill: #4a3d49"/>
                  <path d="M62.55,86.08a2.31,2.31,0,0,1-.79.18c-.16,0-.09-.33-.07-.46s.2,0,.32,0h.59c.08,0,.06.06.06.11Zm-.1.71c0,.19-.11.33-.08.53s-.13.12-.21.15a.69.69,0,0,1-.25-.1.33.33,0,0,1-.11-.31c.08-.14.26-.1.38-.16l.21-.1Zm-.24-1.72a.23.23,0,0,1-.18.07c-.08-.08-.07-.2-.13-.29s.12-.2.2-.29.15.17.45.37A.69.69,0,0,1,62.21,85.07Zm2.6-.47a.16.16,0,0,1,.24.06c.08.09,0,.22-.24.43a5.07,5.07,0,0,1-.61.38,3.19,3.19,0,0,0,.88,0c.07,0,.15.06.14.16a3,3,0,0,1-.1.52c0,.54,0,1,0,1.57A.39.39,0,0,1,65,88c0,.14-.11.11-.14,0s-.07-.15-.1-.23c0-.25.06-.46,0-.73a5,5,0,0,1-.68,0l0,0a3.16,3.16,0,0,1,0,.69s-.12.22-.17.06,0-.55-.07-.78h-.62c-.05.28,0,.58-.26.77-.07,0-.13.16-.23.09s-.1-.07-.16-.09-.15,0-.19-.12,0-.13,0-.21.2,0,.28-.09c.36-.38.27-1,.24-1.52-.12-.09-.05-.24,0-.36s0-.12.13-.12a.43.43,0,0,1,.16.07h.47s0,0,0,0-.42-.29-.28-.41h-.5l-.06,0c-.1,0-.12-.3,0-.4s.17,0,.26-.05Zm-.94,1.87h-.58l0,.19a1.66,1.66,0,0,0,.59,0Zm0-.39a.69.69,0,0,1,0-.2,5.8,5.8,0,0,1-.59,0,.44.44,0,0,0,0,.2ZM63.56,85c.14.1.39.11.45.31a.94.94,0,0,0,.37-.24s.08-.09,0-.07Zm1.12.87a4.17,4.17,0,0,0-.5,0c0,.06,0,.12,0,.2a3.34,3.34,0,0,1,.45,0l.06,0c.08,0,.07.11,0,.22s-.28.15-.57.15v.2c.22,0,.4,0,.64,0a1.46,1.46,0,0,0,0-.42.38.38,0,0,0-.06-.31Z" style="fill: #4a3d49"/>
                  <path d="M68.59,84.39a.28.28,0,0,1-.06.26l-.08,0c-.18,0-.46,0-.65,0a.15.15,0,0,0,.16.12h.54c.12,0,0,.14-.06.17s-.24,0-.36.09a.1.1,0,0,1,0,.09,1.92,1.92,0,0,1,.45,0c0,.07,0,.12-.06.16s-.11.1-.16.08a.28.28,0,0,0-.13,0c.08.09.21.09.32.12a.26.26,0,0,1-.07.17l-.06.07,0,0c.07,0,.13,0,.16,0s0,.13,0,.19H67.28l-.06.06h3.27c.15,0-.14.44-.25.5a.83.83,0,0,1-.37-.05c-.19,0-.42-.07-.63-.07h-.38a.16.16,0,0,1,0,.15,3.13,3.13,0,0,0,.53,0c.07,0,.19-.08.26,0l0,0c0,.33-.09.44-.09.8l0,.13c.1,0,.19,0,.16.1l0,.12c0,.14-.09.18-.37.16-.61,0-1.06,0-1.71,0a.09.09,0,0,1-.11,0c-.08,0-.08-.15-.11-.23s.06-.11.07-.17a1.92,1.92,0,0,0-.07-.76c0-.06,0-.13,0-.17a.2.2,0,0,1,.18,0s.09,0,.16,0h.37s0-.1,0-.15a7.9,7.9,0,0,0-1.19,0c-.11.06-.16.1-.23,0a.41.41,0,0,1,0-.36c0-.09.13,0,.43,0a.35.35,0,0,1,0-.37,3.33,3.33,0,0,0,0-1c0-.09-.1-.18,0-.27s.22-.05.3,0Zm-1.17.73c0-.07-.12-.1-.07-.18s.16,0,.22-.09.09-.09.08-.15a.54.54,0,0,0-.31,0,7.15,7.15,0,0,0,0,1,.14.14,0,0,0,.11,0l0-.09a.17.17,0,0,1,0-.14s0,0,.08,0,.23-.07.28-.16-.18,0-.24,0-.06,0-.09-.07,0-.18,0-.21Zm.26-.07s0,.1-.08.11a1.45,1.45,0,0,0,.29,0s0-.08,0-.11ZM67.8,87c-.09,0-.13,0-.15.06v.53h0l1.64,0,0-.57c0-.1-.12-.06-.49-.06,0,0,0,.08,0,.1h.37a.24.24,0,0,1-.06.23c-.1.15-.23,0-.34,0s0,.09-.07.14a2.21,2.21,0,0,1-.62,0s-.09-.06-.07-.12l-.1.05c-.06,0-.14,0-.18,0s-.1-.13-.09-.23.14,0,.24-.05A.4.4,0,0,0,68.1,87Zm.41-1.17a1.51,1.51,0,0,0-.09-.18c0-.07,0-.17-.11-.2s-.16.25-.26.37Zm.38,1.37c.09,0,.09-.12.09-.2h-.37a.38.38,0,0,1,0,.19Zm-.28-.68.06.06s0,.07,0,.09h.29s0-.13,0-.15Zm.51-2.1c.1,0,.16.13.26.09a1,1,0,0,0,.47,0c0-.06.13-.06.17-.06a.16.16,0,0,1,.06.17.5.5,0,0,0-.18.27c.09.08.39,0,.53,0s-.08.39-.25.33a.93.93,0,0,0-.47,0c-.06,0-.06-.06-.07-.1s.15-.22,0-.27a1.63,1.63,0,0,0-.24,0s0,0-.06,0c-.1.15-.11.36-.31.45,0,0-.07,0-.1-.06s0-.16.12-.17a.54.54,0,0,0,0-.51Zm.51,1c-.14,0-.33,0-.47,0a.19.19,0,0,1,0-.24c.08-.07.14,0,.26,0a1.67,1.67,0,0,0,.5,0,.07.07,0,0,1,.07.06.41.41,0,0,1,0,.19c0,.09-.13.12-.18.2a1.78,1.78,0,0,0,.59.1c.08,0,0,.14,0,.19s-.21.22-.37.1a.78.78,0,0,0-.46-.18c-.15.09-.26.28-.46.22a.16.16,0,0,1,0-.18c0-.09.09-.06.17-.07a.19.19,0,0,0,.15-.09,1,1,0,0,0-.31,0c-.06,0,0-.1,0-.14a.36.36,0,0,1,.21,0,.49.49,0,0,0,.16.05C69.15,85.57,69.34,85.53,69.33,85.45Z" style="fill: #4a3d49"/>
                  <path d="M72.44,86.7a.65.65,0,0,0,.11-.3.46.46,0,0,0-.06-.26.47.47,0,0,0-.25-.21.33.33,0,0,1-.13,0c0,.12,0,.29,0,.43,0,.38,0,.68,0,.94a1.1,1.1,0,0,1-.05.53S72,88,72,88a.46.46,0,0,1-.14-.34c0-.38.06-.76.06-1.15a8.74,8.74,0,0,0,0-1.15c0-.19-.13-.43,0-.58l0,0c0-.06.08-.16.18-.11l.08.06a1.67,1.67,0,0,0,.55,0s.16-.09.21,0,.06.21.07.35-.08.1-.11.21a2,2,0,0,1-.37.55.54.54,0,0,1,.26.2.58.58,0,0,1,.09.23.78.78,0,0,1,0,.3.63.63,0,0,1-.28.38l-.2.09c-.18,0-.2,0-.13-.09A.51.51,0,0,0,72.44,86.7Zm-.32-1.62a5.19,5.19,0,0,1,0,.69.92.92,0,0,0,.39-.48c0-.1.07-.21,0-.21ZM75,86.23c.08,0,0,.09,0,.13s-.1.27-.23.31a2.9,2.9,0,0,1-.52,0c.14.14,0,.22,0,.5,0,.1,0,.24.14.26a1.31,1.31,0,0,0,1-.08c.19.06,0,.52-.22.64s-.18,0-.31,0-.61-.18-.78,0a.19.19,0,0,1-.14-.11c-.09-.13.07-.21.07-.34a.67.67,0,0,0,.07-.33.83.83,0,0,0-.07-.41v0h-.29c0,.06,0,.16,0,.23a1.82,1.82,0,0,0-.11.38,1.75,1.75,0,0,1-.52.68c-.09,0-.19.13-.3.07s-.24-.07-.31-.18,0-.14-.05-.2.13-.18.2-.26,0,.06.11.06a.62.62,0,0,0,.59-.19.56.56,0,0,0,.09-.49v-.09a1,1,0,0,0-.34,0s-.1.08-.13,0-.06-.23-.06-.35a.27.27,0,0,1,.15-.13l.09,0ZM74.91,85a.31.31,0,0,1,.25,0,.3.3,0,0,1,.09.22,1.67,1.67,0,0,1-.34.65l-.06,0c-.07,0-.06-.1-.06-.13s.1-.2,0-.3c-.57,0-1,0-1.52,0,0,0,0,.09,0,.12A3.55,3.55,0,0,1,73,86s-.05,0-.07,0-.08-.17-.09-.26.3-.45.14-.66c0-.12.07-.19.14-.27s.13,0,.18.06a1.6,1.6,0,0,0,.57,0c.08-.14-.21-.4.09-.39.14,0,.42.18.3.39Zm-.3.75s0,.05,0,.09,0,.19-.13.22c-.31,0-.66,0-1,0-.06,0-.11.08-.13,0s-.07-.11-.1-.17,0-.14.07-.19.1,0,.13,0C73.9,85.72,74.21,85.69,74.61,85.71Z" style="fill: #4a3d49"/>
                </g>
              </g>
              <g>
                <path d="M53.35,89.33l-.79.74.9,1h-.27l-.76-.86-.27.26v.6H52V89.33h.2v.9l.93-.9Z" style="fill: #4a3d49"/>
                <path d="M53.71,89.81l.31,1,.29-1h.18l.29,1,.31-1h.22l-.43,1.25h-.19l-.29-1-.29,1h-.19l-.42-1.25Z" style="fill: #4a3d49"/>
                <path d="M56.44,89.91a.54.54,0,0,1,.11.35v.8h-.18v-.21a.52.52,0,0,1-.19.17.65.65,0,0,1-.31.08.45.45,0,0,1-.31-.1.33.33,0,0,1-.11-.25.34.34,0,0,1,.17-.32.77.77,0,0,1,.44-.11h.3v-.07a.29.29,0,0,0-.33-.32.41.41,0,0,0-.23.06.29.29,0,0,0-.12.18h-.19a.4.4,0,0,1,.19-.3.64.64,0,0,1,.36-.09A.54.54,0,0,1,56.44,89.91Zm-.37.56c-.28,0-.42.09-.42.28a.17.17,0,0,0,.07.14.29.29,0,0,0,.19.06.45.45,0,0,0,.31-.12.34.34,0,0,0,.14-.26v-.11Z" style="fill: #4a3d49"/>
                <path d="M57.14,89.37a.14.14,0,0,1,0,.11.14.14,0,0,1,0,.1.14.14,0,0,1-.2,0,.14.14,0,0,1,0-.1.14.14,0,0,1,0-.11.15.15,0,0,1,.2,0Zm0,.44v1.25h-.2V89.81Z" style="fill: #4a3d49"/>
                <path d="M59.62,89.45a.59.59,0,0,1,.23.41h-.19a.41.41,0,0,0-.18-.29.58.58,0,0,0-.35-.1.54.54,0,0,0-.46.21.79.79,0,0,0-.16.52.82.82,0,0,0,.15.52.58.58,0,0,0,.47.2.58.58,0,0,0,.35-.11.62.62,0,0,0,.21-.34h.19a.77.77,0,0,1-.27.47.75.75,0,0,1-.48.16.74.74,0,0,1-.62-.27,1,1,0,0,1-.2-.63,1,1,0,0,1,.2-.63.75.75,0,0,1,.62-.28A.78.78,0,0,1,59.62,89.45Z" style="fill: #4a3d49"/>
                <path d="M60.35,89.29V90a.45.45,0,0,1,.18-.18.41.41,0,0,1,.23-.06.4.4,0,0,1,.33.13.53.53,0,0,1,.12.37v.79H61V90.3a.37.37,0,0,0-.09-.27.32.32,0,0,0-.24-.09.3.3,0,0,0-.24.11.44.44,0,0,0-.1.3v.71h-.19V89.29Z" style="fill: #4a3d49"/>
                <path d="M61.73,89.81v.77a.37.37,0,0,0,.07.26.32.32,0,0,0,.25.09.35.35,0,0,0,.23-.09.48.48,0,0,0,.12-.27v-.76h.19v1.25H62.4v-.19a.48.48,0,0,1-.41.23c-.31,0-.46-.17-.46-.51v-.78Z" style="fill: #4a3d49"/>
                <path d="M64,90.29v.77h-.2v-.75c0-.25-.11-.37-.33-.37a.31.31,0,0,0-.22.09.38.38,0,0,0-.11.28v.75h-.2V89.81h.2V90a.41.41,0,0,1,.16-.16.46.46,0,0,1,.23-.06C63.82,89.77,64,90,64,90.29Z" style="fill: #4a3d49"/>
                <path d="M65.25,90v-.21h.19V91q0,.6-.57.6a.61.61,0,0,1-.39-.1.45.45,0,0,1-.17-.31h.19a.32.32,0,0,0,.11.19.45.45,0,0,0,.26.06c.25,0,.38-.14.38-.42v-.22a.47.47,0,0,1-.43.26.54.54,0,0,1-.41-.18.63.63,0,0,1-.15-.45.6.6,0,0,1,.15-.45.49.49,0,0,1,.41-.19A.48.48,0,0,1,65.25,90Zm-.69,0a.51.51,0,0,0-.1.34.47.47,0,0,0,.09.32.34.34,0,0,0,.3.14.37.37,0,0,0,.3-.13.56.56,0,0,0,.1-.33.57.57,0,0,0-.1-.34.37.37,0,0,0-.3-.14A.36.36,0,0,0,64.56,90.07Z" style="fill: #4a3d49"/>
                <path d="M66.83,89.33v.75h1v-.75H68v1.73h-.2v-.81h-1v.81h-.2V89.33Z" style="fill: #4a3d49"/>
                <path d="M69.39,90a.67.67,0,0,1,.16.47.66.66,0,0,1-.16.46.61.61,0,0,1-.9,0,.66.66,0,0,1-.16-.46.67.67,0,0,1,.16-.47.61.61,0,0,1,.9,0Zm-.76.12a.56.56,0,0,0-.1.35.53.53,0,0,0,.1.34.38.38,0,0,0,.62,0,.55.55,0,0,0,.1-.34.56.56,0,0,0-.1-.35.4.4,0,0,0-.62,0Z" style="fill: #4a3d49"/>
                <path d="M70.79,90.16H70.6a.32.32,0,0,0-.1-.17.46.46,0,0,0-.23,0,.35.35,0,0,0-.2,0,.15.15,0,0,0-.08.14.14.14,0,0,0,.1.13l.26.09a1.14,1.14,0,0,1,.33.11.3.3,0,0,1,.15.26q0,.39-.54.39c-.33,0-.51-.15-.54-.44h.19a.42.42,0,0,0,.11.22.38.38,0,0,0,.24.06c.22,0,.34-.08.34-.22a.18.18,0,0,0-.12-.16,1.31,1.31,0,0,0-.27-.08,1.16,1.16,0,0,1-.31-.11.29.29,0,0,1,0-.5.51.51,0,0,1,.34-.1C70.58,89.77,70.75,89.9,70.79,90.16Z" style="fill: #4a3d49"/>
                <path d="M72.11,90a.74.74,0,0,1,.14.46.76.76,0,0,1-.14.46.5.5,0,0,1-.42.2.47.47,0,0,1-.42-.26v.71h-.19V89.81h.18V90a.45.45,0,0,1,.42-.24A.52.52,0,0,1,72.11,90Zm-.75.1a.63.63,0,0,0-.09.35v0a.54.54,0,0,0,.1.35.34.34,0,0,0,.28.14A.37.37,0,0,0,72,90.8a.77.77,0,0,0,0-.72.38.38,0,0,0-.6,0Z" style="fill: #4a3d49"/>
                <path d="M72.8,89.37a.18.18,0,0,1,0,.11.18.18,0,0,1,0,.1.15.15,0,0,1-.11,0,.13.13,0,0,1-.1,0,.14.14,0,0,1,0-.1.14.14,0,0,1,0-.11.18.18,0,0,1,.1,0A.21.21,0,0,1,72.8,89.37Zm0,.44v1.25h-.2V89.81Z" style="fill: #4a3d49"/>
                <path d="M73.51,89.81h.31V90h-.31v.8a.13.13,0,0,0,0,.1.12.12,0,0,0,.09,0h.16v.16H73.6a.26.26,0,0,1-.22-.08.29.29,0,0,1-.06-.21V90h-.25v-.16h.25v-.33l.19-.08Z" style="fill: #4a3d49"/>
                <path d="M75,89.91a.54.54,0,0,1,.11.35v.8h-.18v-.21a.52.52,0,0,1-.19.17.65.65,0,0,1-.31.08.45.45,0,0,1-.31-.1.33.33,0,0,1-.11-.25.34.34,0,0,1,.17-.32.77.77,0,0,1,.44-.11h.3v-.07a.29.29,0,0,0-.33-.32.41.41,0,0,0-.23.06.29.29,0,0,0-.12.18h-.19a.4.4,0,0,1,.19-.3.64.64,0,0,1,.36-.09A.54.54,0,0,1,75,89.91Zm-.37.56c-.28,0-.42.09-.42.28a.17.17,0,0,0,.07.14.29.29,0,0,0,.19.06.45.45,0,0,0,.31-.12.34.34,0,0,0,.14-.26v-.11Z" style="fill: #4a3d49"/>
                <path d="M75.68,89.29v1.77h-.19V89.29Z" style="fill: #4a3d49"/>
              </g>
            </g>
            <g>
              <rect x="45.52" y="95.33" width="1.39" height="1.39" style="fill: #e4bc81"/>
              <rect x="45.52" y="99.78" width="1.39" height="1.39" style="fill: #e4bc81"/>
            </g>
            <g>
              <rect x="80.73" y="95.33" width="1.39" height="1.39" style="fill: #e4bc81"/>
              <rect x="80.73" y="99.78" width="1.39" height="1.39" style="fill: #e4bc81"/>
            </g>
          </g>
          <polygon points="84.69 117.23 88.41 114.09 88.41 71.94 84.69 75.08 84.69 117.23" style="fill: #e4bc81"/>
          <polygon points="80.73 75.08 84.45 71.94 88.41 71.94 84.69 75.08 80.73 75.08" style="fill: #90baa3"/>
          <polygon points="47.45 75.08 51.16 71.94 83.78 71.94 80.19 75.08 47.45 75.08" style="fill: #e4bc81"/>
          <polygon points="42.95 75.08 46.67 71.94 50.49 71.94 46.91 75.08 42.95 75.08" style="fill: #90baa3"/>
          <polygon points="46.91 117.23 50.63 114.09 50.63 101.17 46.91 101.17 46.91 117.23" style="fill: #f37944"/>
        </g>
        <g>
          <path d="M70.68,99.52c.19,1-.15,1.75-1.05,3.63a6.22,6.22,0,0,1-3,2.81c-.8.53-.49.67-.93,1a8.18,8.18,0,0,0-2.66,2.5c-1.12,1.63-1.27,4.75-2.38,5.65a8.92,8.92,0,0,1-3.11,1.66c-1.12.37-1.47-.39-2.5-.1a2.4,2.4,0,0,0-1.46,1.13c-.23.24-.43.24-.71.39s-.78.34-.6.39a3.61,3.61,0,0,0,.69,0,2.54,2.54,0,0,1-.35.32,5,5,0,0,1-1,.55,2.88,2.88,0,0,0,.81,0c.3-.07.51-.13.65-.06a5.77,5.77,0,0,1,.6,1.14c.26.41.45.33.59.54s.22.64.29.65.29,0,.66,0,.75-.46.7-.28,0,1.12-.12,1.44-1.08,1.21-1.35,1.69a5.08,5.08,0,0,1-1.81,1.63c-.83.48-.9.84-.77,1.15s.6.21.5.31-.63.74-.6,1.09.62.29,1.12.09a3.23,3.23,0,0,0,1-.73l.07-.08A19.36,19.36,0,0,0,56,126.31l.86-1c.82-1,2.35-2.87,3.36-3.29a29.72,29.72,0,0,0,5.5-3.83c1.09-1.09,1.25-2.63,1.45-2.35s1.31.86,1.43,1.29a5.46,5.46,0,0,1-.23,1.7,6.41,6.41,0,0,0-.69.34c-.24.16-.08.73.37.76a1.55,1.55,0,0,0,1.24-.63,9.11,9.11,0,0,0,.48-1.83c.12-.56,0-1.62,0-1.6a2.66,2.66,0,0,1,1.21,1,3.94,3.94,0,0,1,.18,1.89s-.52.28-.37.71.69.24,1.13,0a1,1,0,0,0,.49-1.22,25,25,0,0,0-1-4A11,11,0,0,0,70,112.22c-.61-.74-.53-1.85-1-3.35s-1.28-1.6-1.08-1.85a15,15,0,0,0,2.3-2.4A6.61,6.61,0,0,0,71.66,101C71.93,98.77,70.5,98.54,70.68,99.52Z" style="fill: #fff"/>
          <path d="M52.35,127.63a16.9,16.9,0,0,0,2.29-2.11A7.37,7.37,0,0,0,56,123.76c.25-.44,1.33-2.32-.08-2.36a11.76,11.76,0,0,1-.11,1.41c-.1.33-1.09,1.23-1.35,1.72a5.21,5.21,0,0,1-1.83,1.66c-.84.48-.91.85-.78,1.17S52.25,127.6,52.35,127.63Z" style="fill: #67fff2"/>
          <path d="M69.8,115.86h0a0,0,0,0,1,0,0l-.64-.16a5,5,0,0,0-2.07.1h0v0s0,0,.06,0c.19.27,1.3.86,1.42,1.28a5.54,5.54,0,0,1-.23,1.71,6.41,6.41,0,0,0-.69.34c-.23.16-.08.73.38.76a1.55,1.55,0,0,0,1.23-.63,8.48,8.48,0,0,0,.48-1.83C69.88,116.9,69.71,115.84,69.8,115.86Z" style="fill: #67fff2"/>
        </g>
        <g>
          <path d="M24.3,119.05a.73.73,0,0,1-.73-.72V90.52a.73.73,0,0,1,.73-.73.73.73,0,0,1,.72.73v27.81A.72.72,0,0,1,24.3,119.05Z" style="fill: #007d7b"/>
          <g>
            <path d="M24.3,96.55a.75.75,0,0,1-.52-.21.74.74,0,0,1,0-1l4-4a.73.73,0,0,1,1,1l-4,4A.73.73,0,0,1,24.3,96.55Z" style="fill: #007d7b"/>
            <path d="M24.3,96.55a.75.75,0,0,1-.52-.21l-4-4a.73.73,0,0,1,1-1l4,4a.74.74,0,0,1,0,1A.73.73,0,0,1,24.3,96.55Z" style="fill: #007d7b"/>
          </g>
          <g>
            <path d="M24.3,100.76a.75.75,0,0,1-.52-.21.74.74,0,0,1,0-1l4-4a.73.73,0,0,1,1,1l-4,4A.73.73,0,0,1,24.3,100.76Z" style="fill: #007d7b"/>
            <path d="M24.3,100.76a.75.75,0,0,1-.52-.21l-4-4a.73.73,0,1,1,1-1l4,4a.74.74,0,0,1,0,1A.73.73,0,0,1,24.3,100.76Z" style="fill: #007d7b"/>
          </g>
          <g>
            <path d="M24.3,105a.75.75,0,0,1-.52-.21.74.74,0,0,1,0-1l4-4a.73.73,0,0,1,1,1l-4,4A.73.73,0,0,1,24.3,105Z" style="fill: #007d7b"/>
            <path d="M24.3,105a.75.75,0,0,1-.52-.21l-4-4a.73.73,0,1,1,1-1l4,4a.74.74,0,0,1,0,1A.73.73,0,0,1,24.3,105Z" style="fill: #007d7b"/>
          </g>
          <g>
            <path d="M24.3,109.18a.75.75,0,0,1-.52-.21.74.74,0,0,1,0-1l4-4a.73.73,0,0,1,1,1l-4,4A.73.73,0,0,1,24.3,109.18Z" style="fill: #007d7b"/>
            <path d="M24.3,109.18a.75.75,0,0,1-.52-.21l-4-4a.73.73,0,1,1,1-1l4,4a.74.74,0,0,1,0,1A.73.73,0,0,1,24.3,109.18Z" style="fill: #007d7b"/>
          </g>
        </g>
        <g>
          <path d="M31.56,121.1a.73.73,0,0,1-.73-.73V92.56a.73.73,0,1,1,1.46,0v27.81A.73.73,0,0,1,31.56,121.1Z" style="fill: #419461"/>
          <g>
            <path d="M31.56,98.6a.71.71,0,0,1-.51-.21.72.72,0,0,1,0-1l4-4a.72.72,0,0,1,1,1l-4,4A.71.71,0,0,1,31.56,98.6Z" style="fill: #419461"/>
            <path d="M31.56,98.6a.71.71,0,0,1-.51-.21l-4-4a.72.72,0,1,1,1-1l4,4a.72.72,0,0,1,0,1A.71.71,0,0,1,31.56,98.6Z" style="fill: #419461"/>
          </g>
          <g>
            <path d="M31.56,102.81a.71.71,0,0,1-.51-.21.72.72,0,0,1,0-1l4-4a.72.72,0,0,1,1,1l-4,4A.71.71,0,0,1,31.56,102.81Z" style="fill: #419461"/>
            <path d="M31.56,102.81a.71.71,0,0,1-.51-.21l-4-4a.72.72,0,1,1,1-1l4,4a.72.72,0,0,1,0,1A.71.71,0,0,1,31.56,102.81Z" style="fill: #419461"/>
          </g>
          <g>
            <path d="M31.56,107a.71.71,0,0,1-.51-.21.72.72,0,0,1,0-1l4-4a.72.72,0,0,1,1,1l-4,4A.71.71,0,0,1,31.56,107Z" style="fill: #419461"/>
            <path d="M31.56,107a.71.71,0,0,1-.51-.21l-4-4a.72.72,0,1,1,1-1l4,4a.72.72,0,0,1,0,1A.71.71,0,0,1,31.56,107Z" style="fill: #419461"/>
          </g>
          <g>
            <path d="M31.56,111.23a.71.71,0,0,1-.51-.21.72.72,0,0,1,0-1l4-4a.72.72,0,0,1,1,1l-4,4A.71.71,0,0,1,31.56,111.23Z" style="fill: #419461"/>
            <path d="M31.56,111.23a.71.71,0,0,1-.51-.21l-4-4a.72.72,0,1,1,1-1l4,4a.72.72,0,0,1,0,1A.71.71,0,0,1,31.56,111.23Z" style="fill: #419461"/>
          </g>
        </g>
        <g>
          <path d="M38.82,123.14a.72.72,0,0,1-.72-.72V94.61a.72.72,0,0,1,.72-.73.73.73,0,0,1,.73.73v27.81A.73.73,0,0,1,38.82,123.14Z" style="fill: #84b529"/>
          <g>
            <path d="M38.82,100.64a.73.73,0,0,1-.51-.21.74.74,0,0,1,0-1l4-4a.73.73,0,0,1,1,1l-4,4A.73.73,0,0,1,38.82,100.64Z" style="fill: #84b529"/>
            <path d="M38.82,100.64a.73.73,0,0,1-.51-.21l-4-4a.73.73,0,0,1,1-1l4,4a.73.73,0,0,1-.52,1.24Z" style="fill: #84b529"/>
          </g>
          <g>
            <path d="M38.82,104.85a.73.73,0,0,1-.51-.21.74.74,0,0,1,0-1l4-4a.73.73,0,0,1,1,1l-4,4A.73.73,0,0,1,38.82,104.85Z" style="fill: #84b529"/>
            <path d="M38.82,104.85a.73.73,0,0,1-.51-.21l-4-4a.73.73,0,0,1,1-1l4,4a.73.73,0,0,1-.52,1.24Z" style="fill: #84b529"/>
          </g>
          <g>
            <path d="M38.82,109.06a.73.73,0,0,1-.51-.21.74.74,0,0,1,0-1l4-4a.73.73,0,0,1,1,1l-4,4A.73.73,0,0,1,38.82,109.06Z" style="fill: #84b529"/>
            <path d="M38.82,109.06a.73.73,0,0,1-.51-.21l-4-4a.73.73,0,0,1,1-1l4,4a.73.73,0,0,1-.52,1.24Z" style="fill: #84b529"/>
          </g>
          <g>
            <path d="M38.82,113.27a.73.73,0,0,1-.51-.21.74.74,0,0,1,0-1l4-4a.73.73,0,0,1,1,1l-4,4A.73.73,0,0,1,38.82,113.27Z" style="fill: #84b529"/>
            <path d="M38.82,113.27a.73.73,0,0,1-.51-.21l-4-4a.73.73,0,0,1,1-1l4,4a.73.73,0,0,1-.52,1.24Z" style="fill: #84b529"/>
          </g>
        </g>
      </g>
    </g>
  </g>
</svg>
