<svg xmlns="http://www.w3.org/2000/svg" width="116.23" height="116.15" viewBox="0 0 116.23 116.15">
  <g id="Layer_2" data-name="Layer 2">
    <g id="Iron">
      <g>
        <g>
          <path d="M92.15,10.41V8.33h10v2a14.28,14.28,0,0,1-2.67,3.43h6.55a18.68,18.68,0,0,1-3.51-6.58c.73-.25,1.23-.48,2-.73A17.73,17.73,0,0,0,106,9.85a7.6,7.6,0,0,0,2.39-2h-1.94V5.94H103V3.86h3.49V1.38h2.22l0,2.48h5.82V5.94h-5.79V7.29a2.93,2.93,0,0,0,.28-.73L110.85,8a14.51,14.51,0,0,1-3.77,3.63c.26.25.54.68.79.93A11.73,11.73,0,0,0,111.53,9c.53.51,1.09.84,1.63,1.35a15.7,15.7,0,0,1-3.71,3.63,17.58,17.58,0,0,0,5.48,2.61l-1.26,1.94a11,11,0,0,1-1.19-.45v2H103.2c-.92,2.89-4.1,5.62-11.58,6.27l-1.38-2.11c4.84-.37,9-1.8,10.52-4.16h-8V17.92h8.64V15.81H97.49v-.45a21.83,21.83,0,0,1-6.1,3L90,16.57a27.09,27.09,0,0,0,5-2.25A5.46,5.46,0,0,0,92.35,12a15.81,15.81,0,0,1,1.91-1.32,6.54,6.54,0,0,1,2.08,1.72l.45.7a15.89,15.89,0,0,0,2.79-2.73Zm4.22-4.5H90.55l0-2.11h5.76V1.3l2.25,0,0,2.47,3.32,0V5.88H98.56l0,1.94H96.37Zm16.4,20.42a17.52,17.52,0,0,0-9.93-3.49l.87-2a19.08,19.08,0,0,1,10.1,3.55ZM112.23,18A16.16,16.16,0,0,1,107.48,15l0,.81h-4c0,1-.05,1.46,0,2.14Z" style="fill: #fff"/>
          <path d="M91.11,42.65v-2h10.27V39.21H94.26v-2h7.12V35.87h-9.2v-2h9.17l0-1.94,2.19,0v2h9.31l0,2-9.25,0,0,1.32h7.25v2l-7.22,0,0,1.38h10.35v2Zm5.4,14.62H94.32l0-13.44h16.45l0,10.63a2.35,2.35,0,0,1-1.63,2.19,21.06,21.06,0,0,1-3.71.08l-.7-2.08,3.26.09a.68.68,0,0,0,.59-.68v-1.4h-12Zm12-6.64V49.25l-12,0,0,1.4Zm-12-3.4,12,0V45.85h-12Z" style="fill: #fff"/>
          <path d="M114.48,86.77H94.57c-1.49,0-2.17-1.23-2.17-2.61V66.33l-1.77,0V64.22l23.71,0v2.08H94.54l0,17.27c0,.78.28,1.09,1.15,1.09h18.76Zm-10.8-3.9h-8V75.08l8,0Zm-5.85-5.74v3.68l3.71,0,0-3.74Zm12.85-3.54L98,73.61l0-6.27h12.62Zm-10.51-1.92h8.38V69.23h-8.38Zm13,3.41v7.7h-8v-7.7Zm-2.11,2-3.8,0v3.6l3.77,0Z" style="fill: #fff"/>
        </g>
        <g>
          <path d="M93.45,9.11V7h10V9a14.28,14.28,0,0,1-2.67,3.43h6.55a18.77,18.77,0,0,1-3.51-6.58c.73-.25,1.23-.48,2-.73a17.73,17.73,0,0,0,1.41,3.43,7.6,7.6,0,0,0,2.39-2h-1.94V4.64h-3.49V2.56h3.49V.08H110l0,2.48h5.82V4.64H110V6a2.93,2.93,0,0,0,.28-.73l1.85,1.43a14.51,14.51,0,0,1-3.77,3.63c.26.25.54.68.79.93a11.73,11.73,0,0,0,3.66-3.6c.53.51,1.09.84,1.63,1.35a15.7,15.7,0,0,1-3.71,3.63,17.58,17.58,0,0,0,5.48,2.61L115,17.18a11,11,0,0,1-1.19-.45v2H104.5c-.92,2.89-4.1,5.62-11.58,6.27l-1.38-2.11c4.84-.37,9-1.8,10.52-4.16H94V16.62h8.64V14.51H98.79v-.45a21.83,21.83,0,0,1-6.1,3l-1.35-1.8a27.09,27.09,0,0,0,5-2.25,5.46,5.46,0,0,0-2.73-2.28,15.81,15.81,0,0,1,1.91-1.32,6.54,6.54,0,0,1,2.08,1.72l.45.7a15.89,15.89,0,0,0,2.79-2.73Zm4.22-4.5H91.85l0-2.11h5.76V0l2.25,0,0,2.47,3.32,0V4.58H99.86l0,1.94H97.67ZM114.07,25a17.52,17.52,0,0,0-9.93-3.49l.87-2a19.08,19.08,0,0,1,10.1,3.55Zm-.54-8.38a16.16,16.16,0,0,1-4.75-2.95l0,.81h-4c0,1-.06,1.46,0,2.14Z" style="fill: #003869"/>
          <path d="M92.41,41.35v-2h10.27V37.91H95.56V36h7.12V34.57h-9.2v-2h9.17l0-1.94,2.19,0v2h9.31l0,2-9.25,0,0,1.32h7.25v2l-7.22,0,0,1.38h10.35v2ZM97.81,56H95.62l0-13.44H112l0,10.63a2.35,2.35,0,0,1-1.63,2.19,21.06,21.06,0,0,1-3.71.08l-.7-2.08,3.26.09a.68.68,0,0,0,.59-.68v-1.4h-12Zm12-6.64V48l-12,0,0,1.4Zm-12-3.4,12,0V44.55h-12Z" style="fill: #003869"/>
          <path d="M115.78,85.47H95.87c-1.49,0-2.17-1.23-2.17-2.61V65l-1.77,0V62.92l23.71,0V65H95.84l0,17.27c0,.78.28,1.09,1.15,1.09h18.76ZM105,81.57H97V73.78l8,0Zm-5.85-5.74v3.68l3.71,0,0-3.74ZM112,72.29l-12.65,0,0-6.27H112Zm-10.51-1.92h8.38V67.93h-8.38Zm13,3.41v7.7h-8v-7.7Zm-2.11,2-3.8,0v3.6l3.77,0Z" style="fill: #003869"/>
        </g>
        <g style="isolation: isolate">
          <polygon points="52.63 114.31 0 95.16 45.09 75.39 97.71 94.55 52.63 114.31" style="fill: #6baadb"/>
          <polygon points="52.65 116.14 52.63 114.31 97.71 94.55 97.73 96.38 52.65 116.14" style="fill: #3d77a6"/>
          <polygon points="0.02 96.99 0 95.16 52.63 114.31 52.65 116.14 0.02 96.99" style="fill: #254966"/>
        </g>
        <g>
          <polygon points="19.39 62.87 23.08 62.87 25.82 61.42 25.82 59.87 23.08 58.43 19.39 58.43 16.65 59.87 16.65 61.42 19.39 62.87" style="fill: none"/>
          <polygon points="19.39 42.8 16.65 44.24 16.65 45.8 19.39 47.24 23.08 47.24 25.82 45.8 25.82 44.24 23.08 42.8 19.39 42.8" style="fill: none"/>
          <polygon points="19.39 34.98 16.65 36.42 16.65 37.98 19.39 39.42 23.08 39.42 25.82 37.98 25.82 36.42 23.08 34.98 19.39 34.98" style="fill: none"/>
          <polygon points="19.39 74.06 16.65 75.5 16.65 77.06 19.39 78.5 23.08 78.5 25.82 77.06 25.82 75.5 23.08 74.06 19.39 74.06" style="fill: none"/>
          <polygon points="19.39 55.05 23.08 55.05 25.82 53.61 25.82 52.05 23.08 50.61 19.39 50.61 16.65 52.05 16.65 53.61 19.39 55.05" style="fill: none"/>
          <polygon points="19.39 86.31 23.08 86.31 25.82 84.87 25.82 83.31 23.08 81.87 19.39 81.87 16.65 83.31 16.65 84.87 19.39 86.31" style="fill: none"/>
          <polygon points="19.39 66.24 16.65 67.68 16.65 69.24 19.39 70.68 23.08 70.68 25.82 69.24 25.82 67.68 23.08 66.24 19.39 66.24" style="fill: none"/>
          <path d="M16.65,83.31V26.12H2.16V95.17H16.65V83.31ZM5.79,92.42H4.12V88.77H5.79Zm0-5.45H4.12V83.33H5.79Zm0-5.44H4.12V77.88H5.79Zm0-5.45H4.12V72.44H5.79Zm0-5.44H4.12V67H5.79Zm0-5.45H4.12V61.55H5.79Zm0-5.44H4.12V56.1H5.79Zm0-5.45H4.12V50.65H5.79Zm0-5.44H4.12V45.21H5.79Zm0-5.45H4.12V39.76H5.79Zm0-5.44H4.12V34.32H5.79Zm0-5.45H4.12V28.87H5.79Z" style="fill: #33c5be"/>
          <rect x="44" y="27.79" width="3.84" height="65.71" style="fill: #33c5be"/>
          <rect x="49.51" y="27.79" width="3.84" height="65.71" style="fill: #33c5be"/>
          <rect x="38.5" y="27.79" width="3.84" height="65.71" style="fill: #33c5be"/>
          <rect x="55.02" y="27.79" width="3.84" height="65.71" style="fill: #33c5be"/>
          <rect x="27.49" y="27.79" width="3.84" height="65.71" style="fill: #33c5be"/>
          <rect x="32.99" y="27.79" width="3.84" height="65.71" style="fill: #33c5be"/>
          <path d="M55,26.12H25.82V45.8l-2.74,1.44H19.39L16.65,45.8v6.25l2.74-1.44h3.69l2.74,1.44v1.56l-2.74,1.44H19.39l-2.74-1.44v6.26l2.74-1.44h3.69l2.74,1.44V77.05l-2.74,1.44H19.39l-2.74-1.44v6.26l2.74-1.44h3.69l2.74,1.44v1.56l-2.74,1.44H19.39l-2.74-1.44v6.26l2.74-1.44h3.69l2.74,1.44v4h34.7V26.12H55ZM27.49,93.5V27.79h3.83V93.5Zm5.5,0V27.79h3.84V93.5Zm5.51,0V27.79h3.84V93.5Zm5.5,0V27.79h3.84V93.5Zm5.51,0V27.79h3.84V93.5Zm9.34,0H55V27.79h3.83Z" style="fill: #c0dede"/>
          <polygon points="19.39 34.98 23.08 34.98 25.82 36.42 25.82 30.17 23.08 31.61 19.39 31.61 16.65 30.17 16.65 36.42 19.39 34.98" style="fill: #7597f7"/>
          <polygon points="19.39 39.42 16.65 37.98 16.65 44.24 19.39 42.8 23.08 42.8 25.82 44.24 25.82 37.98 23.08 39.42 19.39 39.42" style="fill: #3cacfa"/>
          <polygon points="19.39 62.87 16.65 61.42 16.65 67.68 19.39 66.24 23.08 66.24 25.82 67.68 25.82 61.42 23.08 62.87 19.39 62.87" style="fill: #7597f7"/>
          <polygon points="19.39 70.68 16.65 69.24 16.65 75.5 19.39 74.06 23.08 74.06 25.82 75.5 25.82 69.24 23.08 70.68 19.39 70.68" style="fill: #3cacfa"/>
          <rect x="4.12" y="28.87" width="1.67" height="3.65" style="fill: #9beeb2"/>
          <rect x="4.12" y="34.32" width="1.67" height="3.65" style="fill: #9beeb2"/>
          <rect x="4.12" y="39.76" width="1.67" height="3.65" style="fill: #9beeb2"/>
          <rect x="4.12" y="45.21" width="1.67" height="3.65" style="fill: #9beeb2"/>
          <rect x="4.12" y="50.65" width="1.67" height="3.65" style="fill: #9beeb2"/>
          <rect x="4.12" y="56.1" width="1.67" height="3.65" style="fill: #9beeb2"/>
          <rect x="4.12" y="61.55" width="1.67" height="3.65" style="fill: #9beeb2"/>
          <rect x="4.12" y="66.99" width="1.67" height="3.65" style="fill: #9beeb2"/>
          <rect x="4.12" y="72.44" width="1.67" height="3.65" style="fill: #9beeb2"/>
          <rect x="4.12" y="77.88" width="1.67" height="3.65" style="fill: #9beeb2"/>
          <rect x="4.12" y="83.33" width="1.67" height="3.65" style="fill: #9beeb2"/>
          <rect x="4.12" y="88.77" width="1.67" height="3.65" style="fill: #9beeb2"/>
        </g>
        <g>
          <polygon points="84.45 54.96 84.45 75.21 83.91 75.21 83.91 54.96 51.16 54.96 51.16 75.21 50.63 75.21 50.63 54.96 46.67 54.96 46.67 97.11 50.63 97.11 50.63 81.05 84.45 81.05 84.45 97.11 88.41 97.11 88.41 54.96 84.45 54.96" style="fill: #f37944"/>
          <g>
            <rect x="47.44" y="58.1" width="32.75" height="20.25" style="fill: #4a3d49"/>
            <rect x="42.95" y="58.1" width="3.96" height="42.15" style="fill: #fff"/>
            <rect x="80.73" y="58.1" width="3.96" height="42.15" style="fill: #fff"/>
            <rect x="48.9" y="59" width="29.84" height="18.45" style="fill: #fff"/>
            <rect x="46.91" y="78.35" width="33.82" height="5.84" style="fill: #90baa3"/>
            <g id="eIrykf">
              <g>
                <path d="M64.13,61.77a.85.85,0,0,0,.22,0,1.36,1.36,0,0,1,1.41.25,1.15,1.15,0,0,1,.45.66,1.43,1.43,0,0,1-.21,1.3c-.18.2-.36.41-.55.6-.34.33-.62.72-1,1-.1.08-.12.21-.27.27s-.2,0-.25-.07V63.86c0-.06.1-.12.1-.12V62.62L64,62.53c-.13,0-.29-.06-.4.1v1.11c.14,0,.12.13.2.19v1.84l-.19.11a.42.42,0,0,1-.33-.27s0,0,0,0c-.42-.37-.73-.83-1.14-1.21-.18-.16-.3-.36-.46-.53a.72.72,0,0,1-.16-.44c0-.14-.19-.28,0-.42a1.19,1.19,0,0,1,.06-.42.94.94,0,0,1,.22-.39,1.26,1.26,0,0,1,.7-.44,1,1,0,0,1,.34-.08,1.08,1.08,0,0,1,.61.12c.06,0,.13,0,.19,0a.59.59,0,0,0,.18.2H64s.12-.11.17-.17S64.13,61.78,64.13,61.77Zm-2.27,1.66a5,5,0,0,0,.73.88c.29.24.47.57.78.84v-1c0-.09-.14-.09-.2-.14,0-.44,0-.88,0-1.33a.52.52,0,0,1,.15-.39l.13-.13a1.09,1.09,0,0,0-1.58.48,2.64,2.64,0,0,0,0,.38A2.17,2.17,0,0,0,61.86,63.43Zm2.5,1.66,0,0s.12-.09.14-.15a.45.45,0,0,1,.15-.21,7.22,7.22,0,0,0,1.18-1.34,1.94,1.94,0,0,0-.12-.9,1,1,0,0,0-1.46-.29.85.85,0,0,1,.26.37v1.49a.28.28,0,0,0-.2.12Z" style="fill: #b62d44"/>
                <path d="M63.6,61.77c-.12-.18-.26-.35-.19-.58a.5.5,0,0,1,.47-.36c.07,0,.13.1.24,0l.24.28v.38c0,.09-.17.13-.2.24H63.6Z" style="fill: #b62d44"/>
              </g>
            </g>
            <g>
              <g>
                <g>
                  <rect x="51.96" y="67.63" width="0.86" height="3.16" style="fill: #90baa3"/>
                  <polygon points="54.37 67.63 54.37 69.02 53.6 69.02 53.6 69.41 54.37 69.41 54.37 70.79 55.24 70.79 55.24 67.63 54.37 67.63" style="fill: #90baa3"/>
                  <path d="M54.37,70a.77.77,0,1,1,0-1.54v-.81a1.58,1.58,0,0,0,0,3.16Z" style="fill: #e4bc81"/>
                </g>
                <g>
                  <path d="M57.47,67.66c0-.08,0-.19.11-.22s.09.06.13.08.06.08,0,.14h.44a.21.21,0,0,1,.16.09.39.39,0,0,1-.12.25,1.74,1.74,0,0,1-.45,0c0,.09,0,.22-.09.27.15,0,.35,0,.45-.05s.07,0,.09.06c.08.29-.18.45-.28.67l-.15.15,0,0H59v0a1.27,1.27,0,0,0-.55-.38.09.09,0,0,1,0-.12c0-.07.09-.13.17-.13a1,1,0,0,0,.53-.24,1.27,1.27,0,0,0,0-.2,1.81,1.81,0,0,0-.53,0c-.16-.11-.06-.42.08-.36s.33,0,.47,0,.07-.17.18-.18.13,0,.13.07a.16.16,0,0,1,0,.12h.51c.06,0,.13,0,.14,0a.24.24,0,0,1-.23.31h-.48l-.11.21c.07,0,.17,0,.2.1s0,.07-.08.1-.4.08-.54.21c.13,0,.26.22.37.18s.26-.28.46-.18,0,.15,0,.2-.17.09-.24.14a2.3,2.3,0,0,0,.76.43c.08,0,.17,0,.21,0s.11.11,0,.19-.53.35-.61.29-.4-.48-.63-.64c0,0,0,.13-.07.13-.09.21-.4.12-.56.14s0,.1,0,.14h.79l0,0s.08,0,.1,0a.3.3,0,0,1,0,.21c-.17.24-.48.11-.71.13a1,1,0,0,0,.37.26,1.67,1.67,0,0,0,.61.2l-.05.14a3.22,3.22,0,0,1-.33.28c-.23.05-.4-.11-.55-.26s-.25-.38-.18-.6a.52.52,0,0,0-.25,0,3.3,3.3,0,0,1-.45.52,1.09,1.09,0,0,1-.48.34c-.14,0-.2-.14-.34-.16s0-.19-.08-.29,0-.12,0-.16.17.1.36.07a1.32,1.32,0,0,0,.62-.32v0a4,4,0,0,0-.69,0,.08.08,0,0,1-.09,0c-.13-.1,0-.27,0-.4a.14.14,0,0,1,.15,0l0,0h.79a.32.32,0,0,0,0-.14,1.37,1.37,0,0,0-.57,0s-.12,0-.12-.1,0-.09-.07,0a1.81,1.81,0,0,1-.64.43c-.11-.13-.36-.1-.35-.32,0,0,0-.09,0-.13s.1-.14.14-.18.06,0,.11,0a1.1,1.1,0,0,0,.61-.18s-.12-.06-.16-.08a.33.33,0,0,1,0-.22.16.16,0,0,1,.1-.11.74.74,0,0,1,.3.28,1.52,1.52,0,0,0,.32-.26v-.07H57l0-.05a.51.51,0,0,1,0-.3.11.11,0,0,1,.12,0l0,0h.43c0-.14,0-.22,0-.28a1.41,1.41,0,0,0-.58,0c-.13,0-.11-.24-.06-.34l.06-.07h.56Z" style="fill: #4a3d49"/>
                  <path d="M62.55,69.1a2.31,2.31,0,0,1-.79.18c-.16,0-.09-.33-.07-.46s.2,0,.32,0h.59c.08,0,.06.06.06.11Zm-.1.71c0,.19-.11.33-.08.53s-.13.12-.21.15a.69.69,0,0,1-.25-.1.33.33,0,0,1-.11-.31c.08-.14.26-.1.38-.16l.21-.1Zm-.24-1.72a.23.23,0,0,1-.18.07c-.08-.08-.07-.19-.13-.29s.12-.2.2-.29.15.17.45.37A.69.69,0,0,1,62.21,68.09Zm2.6-.47a.16.16,0,0,1,.24.06c.08.09,0,.22-.24.43a5.07,5.07,0,0,1-.61.38,3.19,3.19,0,0,0,.88,0c.07,0,.15.06.14.16a3,3,0,0,1-.1.52c0,.54,0,1,0,1.57A.39.39,0,0,1,65,71c0,.14-.11.11-.14,0s-.07-.15-.1-.23c0-.25.06-.46,0-.73a5,5,0,0,1-.68,0l0,0a3.16,3.16,0,0,1,0,.69s-.12.22-.17.06,0-.55-.07-.78h-.62c-.05.28,0,.58-.26.77-.07,0-.13.16-.23.09s-.1-.07-.16-.09-.15,0-.19-.12,0-.13,0-.21.2,0,.28-.09c.36-.38.27-1,.24-1.52-.12-.09-.05-.24,0-.36s0-.12.13-.12a.43.43,0,0,1,.16.07h.47s0,0,0,0-.42-.29-.28-.41h-.5l-.06,0c-.1,0-.12-.31,0-.41s.17,0,.26,0Zm-.94,1.87h-.58l0,.19a1.66,1.66,0,0,0,.59,0Zm0-.39a.69.69,0,0,1,0-.2,5.8,5.8,0,0,1-.59,0,.44.44,0,0,0,0,.2ZM63.56,68c.14.1.39.11.45.31a.94.94,0,0,0,.37-.24s.08-.09,0-.07Zm1.12.87h-.5c0,.06,0,.12,0,.2a3.34,3.34,0,0,1,.45,0l.06,0c.08,0,.07.11,0,.22s-.28.15-.57.15v.2c.22,0,.4,0,.64,0a1.46,1.46,0,0,0,0-.42.38.38,0,0,0-.06-.31Z" style="fill: #4a3d49"/>
                  <path d="M68.59,67.41a.28.28,0,0,1-.06.26l-.08,0c-.18,0-.46,0-.65,0a.15.15,0,0,0,.16.12h.54c.12,0,0,.14-.06.17s-.24.05-.36.09a.1.1,0,0,1,0,.09,1.92,1.92,0,0,1,.45,0c0,.07,0,.12-.06.16s-.11.1-.16.08a.28.28,0,0,0-.13,0c.08.09.21.09.32.12a.26.26,0,0,1-.07.17l-.06.07,0,0c.07,0,.13,0,.16,0s0,.13,0,.19H67.28l-.06.07h3.27c.15,0-.14.43-.25.49a.83.83,0,0,1-.37,0c-.19,0-.42-.07-.63-.07h-.38a.16.16,0,0,1,0,.15,3.13,3.13,0,0,0,.53,0c.07,0,.19-.08.26,0l0,0c0,.33-.09.44-.09.8l0,.13c.1,0,.19,0,.16.1l0,.12c0,.14-.09.18-.37.16-.61,0-1.06,0-1.71,0a.09.09,0,0,1-.11,0c-.08,0-.08-.15-.11-.23s.06-.11.07-.17a1.92,1.92,0,0,0-.07-.76c0-.06,0-.13,0-.17a.2.2,0,0,1,.18,0s.09,0,.16,0h.37c0-.05,0-.1,0-.15a7.9,7.9,0,0,0-1.19,0c-.11.06-.16.1-.23,0a.41.41,0,0,1,0-.36c0-.09.13,0,.43,0a.37.37,0,0,1,0-.38,3.33,3.33,0,0,0,0-1c0-.09-.1-.18,0-.27s.22,0,.3,0Zm-1.17.73c0-.07-.12-.1-.07-.18s.16,0,.22-.09.09-.09.08-.15a.54.54,0,0,0-.31,0,7.15,7.15,0,0,0,0,1,.14.14,0,0,0,.11,0l0-.09a.17.17,0,0,1,0-.14s0,0,.08,0,.23-.07.28-.16-.18,0-.24,0-.06,0-.09-.07,0-.18,0-.21Zm.26-.07s0,.1-.08.11a1.45,1.45,0,0,0,.29,0s0-.08,0-.11ZM67.8,70c-.09,0-.13,0-.15.06v.53h0l1.64,0,0-.57c0-.1-.12-.06-.49-.06,0,0,0,.08,0,.1h.37a.24.24,0,0,1-.06.23c-.1.15-.23,0-.34,0s0,.09-.07.14a2.21,2.21,0,0,1-.62,0s-.09-.06-.07-.12l-.1,0c-.06,0-.14,0-.18,0s-.1-.13-.09-.23.14,0,.24,0A.4.4,0,0,0,68.1,70Zm.41-1.17a1.51,1.51,0,0,0-.09-.18c0-.07,0-.17-.11-.2s-.16.25-.26.37Zm.38,1.37c.09,0,.09-.12.09-.2-.15,0-.28,0-.37,0a.38.38,0,0,1,0,.19Zm-.28-.68.06.07s0,.06,0,.08h.29s0-.13,0-.15Zm.51-2.1c.1,0,.16.13.26.09a1,1,0,0,0,.47,0c0-.06.13-.06.17-.06a.16.16,0,0,1,.06.17.5.5,0,0,0-.18.27c.09.08.39,0,.53,0s-.08.38-.25.32a.93.93,0,0,0-.47,0c-.06,0-.06-.06-.07-.1s.15-.22,0-.27a1.63,1.63,0,0,0-.24,0s0,0-.06,0-.11.36-.31.45c0,0-.07,0-.1-.06s0-.16.12-.17a.54.54,0,0,0,0-.51Zm.51,1c-.14,0-.33,0-.47,0a.19.19,0,0,1,0-.24c.08-.07.14,0,.26,0a1.67,1.67,0,0,0,.5,0,.07.07,0,0,1,.07.06.41.41,0,0,1,0,.19c0,.09-.13.12-.18.2a1.78,1.78,0,0,0,.59.1c.08,0,0,.14,0,.19s-.21.22-.37.11a.73.73,0,0,0-.46-.19c-.15.09-.26.28-.46.22a.16.16,0,0,1,0-.18c0-.09.09-.06.17-.07a.19.19,0,0,0,.15-.09,1,1,0,0,0-.31,0c-.06,0,0-.1,0-.14a.36.36,0,0,1,.21,0,.49.49,0,0,0,.16,0C69.15,68.59,69.34,68.55,69.33,68.47Z" style="fill: #4a3d49"/>
                  <path d="M72.44,69.72a.65.65,0,0,0,.11-.3.46.46,0,0,0-.06-.26.47.47,0,0,0-.25-.21.33.33,0,0,1-.13,0c0,.12,0,.29,0,.43,0,.39,0,.68,0,.94a1.1,1.1,0,0,1-.05.53S72,71,72,71a.46.46,0,0,1-.14-.34c0-.38.06-.76.06-1.15a8.74,8.74,0,0,0,0-1.15c0-.19-.13-.43,0-.58l0,0c0-.06.08-.16.18-.11l.08.06a1.67,1.67,0,0,0,.55,0s.16-.09.21,0,.06.21.07.35-.08.1-.11.21a2,2,0,0,1-.37.55.54.54,0,0,1,.26.2.58.58,0,0,1,.09.23.77.77,0,0,1,0,.3.63.63,0,0,1-.28.38.75.75,0,0,1-.2.09c-.18,0-.2,0-.13-.09A.51.51,0,0,0,72.44,69.72Zm-.32-1.62a5.19,5.19,0,0,1,0,.69.92.92,0,0,0,.39-.48c0-.1.07-.21,0-.21ZM75,69.25c.08,0,0,.09,0,.13s-.1.27-.23.31a2.9,2.9,0,0,1-.52,0c.14.14,0,.22,0,.5,0,.1,0,.24.14.27a1.36,1.36,0,0,0,1-.09c.19.06,0,.52-.22.64s-.18,0-.31,0-.61-.18-.78,0a.19.19,0,0,1-.14-.11c-.09-.13.07-.21.07-.34a.67.67,0,0,0,.07-.33.83.83,0,0,0-.07-.41v0h-.29c0,.06,0,.16,0,.23a1.82,1.82,0,0,0-.11.38,1.68,1.68,0,0,1-.52.68c-.09.05-.19.13-.3.07s-.24-.07-.31-.18,0-.14-.05-.2.13-.18.2-.26,0,.06.11.06a.62.62,0,0,0,.59-.19.56.56,0,0,0,.09-.49v-.09a1,1,0,0,0-.34,0s-.1.08-.13,0-.06-.23-.06-.35a.27.27,0,0,1,.15-.13l.09,0ZM74.91,68a.31.31,0,0,1,.25,0,.3.3,0,0,1,.09.22,1.67,1.67,0,0,1-.34.65l-.06,0c-.07,0-.06-.1-.06-.13s.1-.2,0-.29c-.57,0-1,0-1.52,0,0,0,0,.09,0,.12a3.55,3.55,0,0,1-.23.52s-.05,0-.07,0-.08-.17-.09-.26.3-.45.14-.66c0-.12.07-.19.14-.27s.13,0,.18.06a1.6,1.6,0,0,0,.57,0c.08-.14-.21-.4.09-.39.14,0,.42.18.3.39Zm-.3.75s0,0,0,.09,0,.19-.13.22c-.31,0-.66,0-1,0-.06,0-.11.08-.13,0s-.07-.11-.1-.17,0-.14.07-.19.1,0,.13,0C73.9,68.74,74.21,68.71,74.61,68.73Z" style="fill: #4a3d49"/>
                </g>
              </g>
              <g>
                <path d="M53.35,72.35l-.79.74.9,1h-.27l-.76-.87-.27.26v.61H52V72.35h.2v.9l.93-.9Z" style="fill: #4a3d49"/>
                <path d="M53.71,72.83l.31,1,.29-1h.18l.29,1,.31-1h.22l-.43,1.26h-.19l-.29-1-.29,1h-.19l-.42-1.26Z" style="fill: #4a3d49"/>
                <path d="M56.44,72.93a.54.54,0,0,1,.11.35v.81h-.18v-.22a.52.52,0,0,1-.19.17.65.65,0,0,1-.31.08.45.45,0,0,1-.31-.1.33.33,0,0,1-.11-.25.34.34,0,0,1,.17-.32.77.77,0,0,1,.44-.11h.3v-.07A.29.29,0,0,0,56,73a.41.41,0,0,0-.23.06.29.29,0,0,0-.12.18h-.19a.4.4,0,0,1,.19-.3.64.64,0,0,1,.36-.09A.54.54,0,0,1,56.44,72.93Zm-.37.56c-.28,0-.42.09-.42.28a.17.17,0,0,0,.07.14.29.29,0,0,0,.19.06.45.45,0,0,0,.31-.12.34.34,0,0,0,.14-.26v-.11Z" style="fill: #4a3d49"/>
                <path d="M57.14,72.39a.14.14,0,0,1,0,.11.14.14,0,0,1,0,.1.15.15,0,0,1-.2,0,.14.14,0,0,1,0-.1.14.14,0,0,1,0-.11.14.14,0,0,1,.2,0Zm0,.44v1.26h-.2V72.83Z" style="fill: #4a3d49"/>
                <path d="M59.62,72.47a.59.59,0,0,1,.23.41h-.19a.41.41,0,0,0-.18-.29.58.58,0,0,0-.35-.1.54.54,0,0,0-.46.21.79.79,0,0,0-.16.52.82.82,0,0,0,.15.52.58.58,0,0,0,.47.2.52.52,0,0,0,.35-.11.62.62,0,0,0,.21-.34h.19a.77.77,0,0,1-.27.47.75.75,0,0,1-.48.16.74.74,0,0,1-.62-.27,1,1,0,0,1-.2-.63,1,1,0,0,1,.2-.63.75.75,0,0,1,.62-.28A.78.78,0,0,1,59.62,72.47Z" style="fill: #4a3d49"/>
                <path d="M60.35,72.31V73a.45.45,0,0,1,.18-.18.41.41,0,0,1,.23-.06.4.4,0,0,1,.33.13.53.53,0,0,1,.12.37v.8H61v-.77a.37.37,0,0,0-.09-.27.32.32,0,0,0-.24-.09.3.3,0,0,0-.24.11.44.44,0,0,0-.1.3v.72h-.19V72.31Z" style="fill: #4a3d49"/>
                <path d="M61.73,72.83v.77a.37.37,0,0,0,.07.26.32.32,0,0,0,.25.09.35.35,0,0,0,.23-.09.48.48,0,0,0,.12-.27v-.76h.19v1.26H62.4v-.2a.48.48,0,0,1-.41.23c-.31,0-.46-.17-.46-.51v-.78Z" style="fill: #4a3d49"/>
                <path d="M64,73.31v.78h-.2v-.76c0-.25-.11-.37-.33-.37a.31.31,0,0,0-.22.09.38.38,0,0,0-.11.28v.76h-.2V72.83h.2V73a.41.41,0,0,1,.16-.16.46.46,0,0,1,.23-.06C63.82,72.79,64,73,64,73.31Z" style="fill: #4a3d49"/>
                <path d="M65.25,73v-.21h.19V74q0,.6-.57.6a.61.61,0,0,1-.39-.1.45.45,0,0,1-.17-.31h.19a.32.32,0,0,0,.11.19.45.45,0,0,0,.26.06c.25,0,.38-.14.38-.42V73.8a.47.47,0,0,1-.43.26.51.51,0,0,1-.41-.18.63.63,0,0,1-.15-.45.62.62,0,0,1,.15-.45.49.49,0,0,1,.41-.19A.48.48,0,0,1,65.25,73Zm-.69,0a.51.51,0,0,0-.1.34.47.47,0,0,0,.09.32.34.34,0,0,0,.3.14.37.37,0,0,0,.3-.13.56.56,0,0,0,.1-.33.57.57,0,0,0-.1-.34.37.37,0,0,0-.3-.14A.36.36,0,0,0,64.56,73.09Z" style="fill: #4a3d49"/>
                <path d="M66.83,72.35v.75h1v-.75H68v1.74h-.2v-.81h-1v.81h-.2V72.35Z" style="fill: #4a3d49"/>
                <path d="M69.39,73a.67.67,0,0,1,.16.47.66.66,0,0,1-.16.46.61.61,0,0,1-.9,0,.66.66,0,0,1-.16-.46.67.67,0,0,1,.16-.47.61.61,0,0,1,.9,0Zm-.76.12a.56.56,0,0,0-.1.35.53.53,0,0,0,.1.34.38.38,0,0,0,.62,0,.55.55,0,0,0,.1-.34.56.56,0,0,0-.1-.35.4.4,0,0,0-.62,0Z" style="fill: #4a3d49"/>
                <path d="M70.79,73.19H70.6a.32.32,0,0,0-.1-.18.46.46,0,0,0-.23-.05.28.28,0,0,0-.2.05.13.13,0,0,0-.08.13.14.14,0,0,0,.1.13l.26.09a1.14,1.14,0,0,1,.33.11.3.3,0,0,1,.15.26q0,.39-.54.39c-.33,0-.51-.15-.54-.44h.19a.42.42,0,0,0,.11.22.38.38,0,0,0,.24.06c.22,0,.34-.08.34-.22a.18.18,0,0,0-.12-.16,1.31,1.31,0,0,0-.27-.08,1.16,1.16,0,0,1-.31-.11.29.29,0,0,1,0-.5.57.57,0,0,1,.34-.1C70.58,72.79,70.75,72.92,70.79,73.19Z" style="fill: #4a3d49"/>
                <path d="M72.11,73a.74.74,0,0,1,.14.46.76.76,0,0,1-.14.46.5.5,0,0,1-.42.2.47.47,0,0,1-.42-.26v.71h-.19V72.83h.18V73a.45.45,0,0,1,.42-.24A.52.52,0,0,1,72.11,73Zm-.75.1a.63.63,0,0,0-.09.35v0a.54.54,0,0,0,.1.35.34.34,0,0,0,.28.14.37.37,0,0,0,.31-.14.77.77,0,0,0,0-.72.38.38,0,0,0-.6,0Z" style="fill: #4a3d49"/>
                <path d="M72.8,72.39a.18.18,0,0,1,0,.11.18.18,0,0,1,0,.1.15.15,0,0,1-.11,0,.13.13,0,0,1-.1,0,.14.14,0,0,1,0-.1.14.14,0,0,1,0-.11.18.18,0,0,1,.1,0A.21.21,0,0,1,72.8,72.39Zm0,.44v1.26h-.2V72.83Z" style="fill: #4a3d49"/>
                <path d="M73.51,72.83h.31V73h-.31v.8a.13.13,0,0,0,0,.1.12.12,0,0,0,.09,0h.16v.17H73.6a.27.27,0,0,1-.22-.09.29.29,0,0,1-.06-.21V73h-.25v-.16h.25V72.5l.19-.08Z" style="fill: #4a3d49"/>
                <path d="M75,72.93a.54.54,0,0,1,.11.35v.81h-.18v-.22a.52.52,0,0,1-.19.17.65.65,0,0,1-.31.08.45.45,0,0,1-.31-.1.33.33,0,0,1-.11-.25.34.34,0,0,1,.17-.32.77.77,0,0,1,.44-.11h.3v-.07A.29.29,0,0,0,74.6,73a.41.41,0,0,0-.23.06.29.29,0,0,0-.12.18h-.19a.4.4,0,0,1,.19-.3.64.64,0,0,1,.36-.09A.54.54,0,0,1,75,72.93Zm-.37.56c-.28,0-.42.09-.42.28a.17.17,0,0,0,.07.14.29.29,0,0,0,.19.06.45.45,0,0,0,.31-.12.34.34,0,0,0,.14-.26v-.11Z" style="fill: #4a3d49"/>
                <path d="M75.68,72.31v1.78h-.19V72.31Z" style="fill: #4a3d49"/>
              </g>
            </g>
            <g>
              <rect x="45.52" y="78.35" width="1.39" height="1.39" style="fill: #e4bc81"/>
              <rect x="45.52" y="82.8" width="1.39" height="1.39" style="fill: #e4bc81"/>
            </g>
            <g>
              <rect x="80.73" y="78.35" width="1.39" height="1.39" style="fill: #e4bc81"/>
              <rect x="80.73" y="82.8" width="1.39" height="1.39" style="fill: #e4bc81"/>
            </g>
          </g>
          <polygon points="84.69 100.25 88.41 97.11 88.41 54.96 84.69 58.1 84.69 100.25" style="fill: #e4bc81"/>
          <polygon points="80.73 58.1 84.45 54.96 88.41 54.96 84.69 58.1 80.73 58.1" style="fill: #90baa3"/>
          <polygon points="47.45 58.1 51.16 54.96 83.78 54.96 80.19 58.1 47.45 58.1" style="fill: #e4bc81"/>
          <polygon points="42.95 58.1 46.67 54.96 50.49 54.96 46.91 58.1 42.95 58.1" style="fill: #90baa3"/>
          <polygon points="46.91 100.25 50.63 97.11 50.63 84.19 46.91 84.19 46.91 100.25" style="fill: #f37944"/>
        </g>
        <g>
          <path d="M70.68,82.54c.19,1-.15,1.75-1.05,3.63a6.22,6.22,0,0,1-3,2.81c-.8.53-.49.67-.93,1A8.18,8.18,0,0,0,63,92.45c-1.12,1.63-1.27,4.75-2.38,5.65a8.92,8.92,0,0,1-3.11,1.66c-1.12.37-1.47-.39-2.5-.1a2.4,2.4,0,0,0-1.46,1.13c-.23.24-.43.24-.71.39s-.78.34-.6.39a3.61,3.61,0,0,0,.69,0,2.54,2.54,0,0,1-.35.32,5,5,0,0,1-1,.55,2.88,2.88,0,0,0,.81,0c.3-.07.51-.13.65-.06a5.77,5.77,0,0,1,.6,1.14c.26.41.45.33.59.54s.22.64.29.65.29,0,.66,0,.75-.46.7-.28,0,1.12-.12,1.44-1.08,1.21-1.35,1.69a5.08,5.08,0,0,1-1.81,1.63c-.83.48-.9.84-.77,1.15s.6.21.5.31-.63.75-.6,1.09.62.3,1.12.09a3.23,3.23,0,0,0,1-.73l.07-.08A19.36,19.36,0,0,0,56,109.33l.86-1c.82-1,2.35-2.87,3.36-3.29a29.72,29.72,0,0,0,5.5-3.83c1.09-1.09,1.25-2.63,1.45-2.35s1.31.87,1.43,1.29a5.46,5.46,0,0,1-.23,1.7,6.41,6.41,0,0,0-.69.34c-.24.16-.08.73.37.76a1.55,1.55,0,0,0,1.24-.63,9.11,9.11,0,0,0,.48-1.83c.12-.55,0-1.62,0-1.6a2.66,2.66,0,0,1,1.21,1,3.94,3.94,0,0,1,.18,1.89s-.52.28-.37.71.69.24,1.13,0a1,1,0,0,0,.49-1.22,25,25,0,0,0-1-4A11,11,0,0,0,70,95.24c-.61-.74-.53-1.85-1-3.35s-1.28-1.6-1.08-1.85a15,15,0,0,0,2.3-2.4A6.61,6.61,0,0,0,71.66,84C71.93,81.79,70.5,81.56,70.68,82.54Z" style="fill: #fff"/>
          <path d="M52.35,110.65a16.9,16.9,0,0,0,2.29-2.11A7.37,7.37,0,0,0,56,106.78c.25-.44,1.33-2.32-.08-2.36a11.76,11.76,0,0,1-.11,1.41c-.1.33-1.09,1.24-1.35,1.72a5.21,5.21,0,0,1-1.83,1.66c-.84.48-.91.85-.78,1.17S52.25,110.62,52.35,110.65Z" style="fill: #67fff2"/>
          <path d="M69.8,98.88h0v0l-.64-.16a5,5,0,0,0-2.07.1h0v0s0,0,.06,0c.19.27,1.3.86,1.42,1.28a5.49,5.49,0,0,1-.23,1.71,6.41,6.41,0,0,0-.69.34c-.23.16-.08.73.38.76a1.55,1.55,0,0,0,1.23-.63,8.48,8.48,0,0,0,.48-1.83C69.88,99.92,69.71,98.86,69.8,98.88Z" style="fill: #67fff2"/>
        </g>
        <g>
          <path d="M24.3,102.07a.73.73,0,0,1-.73-.72V73.54a.73.73,0,0,1,.73-.73.73.73,0,0,1,.72.73v27.81A.72.72,0,0,1,24.3,102.07Z" style="fill: #007d7b"/>
          <g>
            <path d="M24.3,79.57a.75.75,0,0,1-.52-.21.72.72,0,0,1,0-1l4-4a.72.72,0,0,1,1,1l-4,4A.73.73,0,0,1,24.3,79.57Z" style="fill: #007d7b"/>
            <path d="M24.3,79.57a.75.75,0,0,1-.52-.21l-4-4a.72.72,0,1,1,1-1l4,4a.72.72,0,0,1-.51,1.23Z" style="fill: #007d7b"/>
          </g>
          <g>
            <path d="M24.3,83.78a.75.75,0,0,1-.52-.21.74.74,0,0,1,0-1l4-4a.73.73,0,0,1,1,1l-4,4A.73.73,0,0,1,24.3,83.78Z" style="fill: #007d7b"/>
            <path d="M24.3,83.78a.75.75,0,0,1-.52-.21l-4-4a.73.73,0,1,1,1-1l4,4a.74.74,0,0,1,0,1A.73.73,0,0,1,24.3,83.78Z" style="fill: #007d7b"/>
          </g>
          <g>
            <path d="M24.3,88a.75.75,0,0,1-.52-.21.74.74,0,0,1,0-1l4-4a.73.73,0,0,1,1,1l-4,4A.73.73,0,0,1,24.3,88Z" style="fill: #007d7b"/>
            <path d="M24.3,88a.75.75,0,0,1-.52-.21l-4-4a.73.73,0,1,1,1-1l4,4a.74.74,0,0,1,0,1A.73.73,0,0,1,24.3,88Z" style="fill: #007d7b"/>
          </g>
          <g>
            <path d="M24.3,92.2a.75.75,0,0,1-.52-.21.74.74,0,0,1,0-1l4-4a.73.73,0,0,1,1,1l-4,4A.73.73,0,0,1,24.3,92.2Z" style="fill: #007d7b"/>
            <path d="M24.3,92.2a.75.75,0,0,1-.52-.21l-4-4a.73.73,0,1,1,1-1l4,4a.74.74,0,0,1,0,1A.73.73,0,0,1,24.3,92.2Z" style="fill: #007d7b"/>
          </g>
        </g>
        <g>
          <path d="M31.56,104.12a.73.73,0,0,1-.73-.73V75.58a.73.73,0,0,1,1.46,0v27.81A.73.73,0,0,1,31.56,104.12Z" style="fill: #419461"/>
          <g>
            <path d="M31.56,81.62a.71.71,0,0,1-.51-.21.72.72,0,0,1,0-1l4-4a.72.72,0,0,1,1,1l-4,4A.71.71,0,0,1,31.56,81.62Z" style="fill: #419461"/>
            <path d="M31.56,81.62a.71.71,0,0,1-.51-.21l-4-4a.72.72,0,1,1,1-1l4,4a.72.72,0,0,1,0,1A.71.71,0,0,1,31.56,81.62Z" style="fill: #419461"/>
          </g>
          <g>
            <path d="M31.56,85.83a.71.71,0,0,1-.51-.21.72.72,0,0,1,0-1l4-4a.72.72,0,0,1,1,1l-4,4A.71.71,0,0,1,31.56,85.83Z" style="fill: #419461"/>
            <path d="M31.56,85.83a.71.71,0,0,1-.51-.21l-4-4a.72.72,0,1,1,1-1l4,4a.72.72,0,0,1,0,1A.71.71,0,0,1,31.56,85.83Z" style="fill: #419461"/>
          </g>
          <g>
            <path d="M31.56,90a.71.71,0,0,1-.51-.21.72.72,0,0,1,0-1l4-4a.72.72,0,0,1,1,1l-4,4A.71.71,0,0,1,31.56,90Z" style="fill: #419461"/>
            <path d="M31.56,90a.71.71,0,0,1-.51-.21l-4-4a.72.72,0,1,1,1-1l4,4a.72.72,0,0,1,0,1A.71.71,0,0,1,31.56,90Z" style="fill: #419461"/>
          </g>
          <g>
            <path d="M31.56,94.25a.71.71,0,0,1-.51-.21.72.72,0,0,1,0-1l4-4a.72.72,0,0,1,1,1l-4,4A.71.71,0,0,1,31.56,94.25Z" style="fill: #419461"/>
            <path d="M31.56,94.25a.71.71,0,0,1-.51-.21l-4-4a.72.72,0,1,1,1-1l4,4a.72.72,0,0,1,0,1A.71.71,0,0,1,31.56,94.25Z" style="fill: #419461"/>
          </g>
        </g>
        <g>
          <path d="M38.82,106.16a.72.72,0,0,1-.72-.72V77.63a.73.73,0,0,1,.72-.73.73.73,0,0,1,.73.73v27.81A.73.73,0,0,1,38.82,106.16Z" style="fill: #84b529"/>
          <g>
            <path d="M38.82,83.66a.73.73,0,0,1-.51-.21.74.74,0,0,1,0-1l4-4a.73.73,0,0,1,1,1l-4,4A.73.73,0,0,1,38.82,83.66Z" style="fill: #84b529"/>
            <path d="M38.82,83.66a.73.73,0,0,1-.51-.21l-4-4a.73.73,0,0,1,1-1l4,4a.73.73,0,0,1-.52,1.24Z" style="fill: #84b529"/>
          </g>
          <g>
            <path d="M38.82,87.87a.73.73,0,0,1-.51-.21.74.74,0,0,1,0-1l4-4a.73.73,0,0,1,1,1l-4,4A.73.73,0,0,1,38.82,87.87Z" style="fill: #84b529"/>
            <path d="M38.82,87.87a.73.73,0,0,1-.51-.21l-4-4a.73.73,0,0,1,1-1l4,4a.73.73,0,0,1-.52,1.24Z" style="fill: #84b529"/>
          </g>
          <g>
            <path d="M38.82,92.08a.73.73,0,0,1-.51-.21.74.74,0,0,1,0-1l4-4a.73.73,0,0,1,1,1l-4,4A.73.73,0,0,1,38.82,92.08Z" style="fill: #84b529"/>
            <path d="M38.82,92.08a.73.73,0,0,1-.51-.21l-4-4a.73.73,0,0,1,1-1l4,4a.73.73,0,0,1-.52,1.24Z" style="fill: #84b529"/>
          </g>
          <g>
            <path d="M38.82,96.29a.73.73,0,0,1-.51-.21.74.74,0,0,1,0-1l4-4a.73.73,0,0,1,1,1l-4,4A.73.73,0,0,1,38.82,96.29Z" style="fill: #84b529"/>
            <path d="M38.82,96.29a.73.73,0,0,1-.51-.21l-4-4a.73.73,0,0,1,1-1l4,4a.73.73,0,0,1-.52,1.24Z" style="fill: #84b529"/>
          </g>
        </g>
      </g>
    </g>
  </g>
</svg>
