<svg xmlns="http://www.w3.org/2000/svg" width="99.06" height="104.43" viewBox="0 0 99.06 104.43">
  <g id="Layer_2" data-name="Layer 2">
    <g id="Icon">
      <g>
        <g>
          <path d="M62.1,9.52l.63-.24V5.64l4.57,0V9.87H63.61a3.54,3.54,0,0,1,.52,1h3.41v1.51H64.19v.82H67l0,1.43H64.19v.86l3,0v1.42l-3,0v1H68v.52c1.27-1.38,1.42-3.86,1.46-4.77H68L68,2.31l6.34,0V13.62H72.84v4.23c0,.47.63.43.87.3a2,2,0,0,0,.6-1.38V15.58l1.53.74c-.23,1.23-.47,3-2,3.34a2.43,2.43,0,0,1-2.18-.52,2.42,2.42,0,0,1-.43-1.77V13.62H70.9C70.73,17,69.85,18.8,68,20.68l-1.36-.93.45-.39H59.92v1.32H58.3V13.94A11.6,11.6,0,0,1,57,15.22l-1.14-1.15a8.73,8.73,0,0,0,3-4.18H57.53l0-4.23,4.53,0Zm0-8.2,0,4.25H60.48V4.45H56.77l0-1.57h3.73V1.32ZM59,8.44h1.55l0-1.38H59Zm.88,4v.82h2.65l0-.84Zm0,2.25v.86h2.65v-.86Zm0,2.28v.89l2.65,0v-.87Zm.56-7.07-.37,1h2.44a3.07,3.07,0,0,0-1.25-1Zm7.27-5.46H64.37V5.57H62.75V1.3l1.62,0V2.85h3.38ZM64.24,7v1.4h1.57V7Zm5.35-3.13V5.46h3.06V3.89Zm0,4.81h3.06V7L69.59,7Zm3.06,3.35V10.19H69.59v1.86Z" style="fill: #fff"/>
          <path d="M62.7,32.32H60.61v4.42c.67-.26,1.32-.62,2.24-1v1.69c-1.94.82-3.32,1.46-5.6,2.41l-1.17-1.34c1.14-.47,2.07-.77,2.89-1.14V32.34H56.49l0-1.64H59V25.5l1.68,0,0,5.22H62.7Zm7.6-5.44h4.9v1.6H70v1.31h3.84V32.3h1.74v1.53H73.84v2.61l-3.84,0v1.32h4.12V44.1H72.41l0-1.23-5.41,0v1.25l-1.66,0,0-6.38h3V36.44h-3l0-1.53,3.07,0,0-1.1H64.78c.1,6.88-1.58,9.23-2.68,10.4a14.1,14.1,0,0,1-1.53-.8c1.94-2.11,2.57-5.74,2.54-9,0-2.95,0-4.61,0-7.55h5.5a8.85,8.85,0,0,0-2.33-1.21l1.36-1.05a5,5,0,0,1,3,2Zm-5.52,1.58v3.82l3.53,0v-.95h-3V29.79h3.07V28.48Zm7.65,10.91H67v2h5.41Zm-2.41-8v.95h2.22v-.95Zm0,2.48v1.08h2.22V33.83Z" style="fill: #fff"/>
          <path d="M75.3,66.7H60c-1.14,0-1.66-1-1.66-2V51L57,51V49.4l18.19,0V51H60l0,13.24c0,.61.21.85.88.85H75.3ZM67,63.7H60.91v-6l6.11,0Zm-4.49-4.4v2.83l2.85,0,0-2.87Zm9.86-2.72-9.71,0,0-4.81h9.69Zm-8.07-1.46h6.43V53.24H64.32Zm10,2.61v5.91H68.12V57.73Zm-1.62,1.55-2.91,0v2.76l2.89,0Z" style="fill: #fff"/>
        </g>
        <g>
          <path d="M63.4,8.22,64,8V4.34l4.57,0V8.57H64.91a3.54,3.54,0,0,1,.52,1h3.41v1.51H65.49v.82h2.76l0,1.43H65.49v.86l3,0v1.42l-3,0v1h3.76v.52c1.27-1.38,1.42-3.86,1.46-4.77H69.27L69.25,1l6.34,0V12.32H74.14v4.23c0,.47.63.43.87.3a2,2,0,0,0,.6-1.38V14.28l1.53.74c-.23,1.23-.47,3-2,3.34A2.43,2.43,0,0,1,73,17.84a2.42,2.42,0,0,1-.43-1.77V12.32H72.2c-.17,3.39-1,5.18-2.91,7.06l-1.36-.93.45-.39H61.22v1.32H59.6V12.64a11.6,11.6,0,0,1-1.27,1.28l-1.14-1.15a8.78,8.78,0,0,0,3-4.18H58.83l0-4.23,4.53,0Zm0-8.2,0,4.25H61.78V3.15H58.07l0-1.57h3.73V0ZM60.34,7.14h1.55l0-1.38H60.34Zm.88,4v.82h2.65l0-.84Zm0,2.25v.86h2.65v-.86Zm0,2.28v.89l2.65,0v-.87Zm.56-7.07-.37,1h2.44a3.07,3.07,0,0,0-1.25-1Zm7.27-5.46H65.67V4.27H64.05V0l1.62,0V1.55h3.38ZM65.54,5.72v1.4h1.57V5.72Zm5.35-3.13V4.16H74V2.59Zm0,4.81H74V5.65l-3.06,0ZM74,10.74V8.89H70.89v1.85Z" style="fill: #65181a"/>
          <path d="M64,31H61.91v4.42c.67-.26,1.32-.62,2.24-.95v1.69c-1.94.82-3.32,1.46-5.6,2.41l-1.17-1.34c1.14-.47,2.07-.77,2.89-1.14V31H57.79l0-1.64h2.5V24.2l1.68,0,0,5.22H64Zm7.6-5.44h4.9v1.6H71.3v1.31h3.84V31h1.74v1.53H75.14v2.61l-3.84,0v1.32h4.12V42.8H73.71l0-1.23-5.41,0v1.25l-1.66,0,0-6.38h3V35.14h-3l0-1.53,3.07,0,0-1.1H66.08c.1,6.88-1.58,9.23-2.68,10.4a14.1,14.1,0,0,1-1.53-.8c1.94-2.11,2.57-5.74,2.54-9,0-3,0-4.61,0-7.55h5.5a8.85,8.85,0,0,0-2.33-1.21l1.36-1.05a5,5,0,0,1,3,2Zm-5.52,1.58V31l3.53,0v-.95h-3V28.49h3.07V27.18Zm7.65,10.91H68.32v2h5.41Zm-2.41-8V31h2.22v-.95Zm0,2.48v1.08h2.22V32.53Z" style="fill: #65181a"/>
          <path d="M76.6,65.4H61.33c-1.15,0-1.66-1-1.66-2V49.72l-1.36,0V48.1l18.19,0v1.6H61.31l0,13.24c0,.61.21.85.88.85H76.6Zm-8.28-3H62.21v-6l6.11,0ZM63.83,58v2.83l2.85,0,0-2.87Zm9.86-2.72-9.71,0,0-4.82h9.69Zm-8.07-1.46h6.43V51.94H65.62Zm10,2.61v5.91H69.42V56.43ZM74,58l-2.91,0v2.76l2.89,0Z" style="fill: #65181a"/>
        </g>
        <g style="isolation: isolate">
          <polygon points="53.95 102.6 1.33 83.45 46.41 63.68 99.04 82.83 53.95 102.6" style="fill: #a780d6"/>
          <polygon points="53.98 104.43 53.95 102.6 99.04 82.83 99.06 84.67 53.98 104.43" style="fill: #775b99"/>
          <polygon points="1.35 85.28 1.33 83.45 53.95 102.6 53.98 104.43 1.35 85.28" style="fill: #5b3c80"/>
        </g>
        <g>
          <path d="M26.1,53.43c0,1-1.27,1-2.79.68a21.84,21.84,0,0,0-10.23,0c-1.62.38-3,.38-3-.67,0-2.58,3.58-9.13,8-9.13S26.1,50.85,26.1,53.43Z" style="fill: #45a7a3"/>
          <path d="M12.61,54.54a27.24,27.24,0,0,0-3.13,0c-1.11.06-2.41-.16-2.41-1.55a4.21,4.21,0,0,1,4-4.41A4.21,4.21,0,0,1,15,53C15,54.38,13.72,54.6,12.61,54.54Z" style="fill: #fff1ad"/>
          <line x1="18.1" y1="57.13" x2="18.1" y2="49.32" style="fill: none;stroke: #57225c;stroke-linecap: round;stroke-linejoin: round;stroke-width: 0.56696321926908px"/>
          <path d="M12.6,52.35s.11,2.92,5.41,2.92" style="fill: none;stroke: #57225c;stroke-linecap: round;stroke-linejoin: round;stroke-width: 0.56696321926908px"/>
          <ellipse cx="24.66" cy="73.45" rx="24.66" ry="11.46" style="fill: #bfb26d"/>
          <ellipse cx="24.66" cy="71.75" rx="24.66" ry="11.46" style="fill: #6ac5af"/>
          <path d="M49.35,66.27a48.75,48.75,0,0,0-5.67,0c-2,.12-4.37-.29-4.37-2.81,0-4.42,3.23-8,7.21-8s7.2,3.59,7.2,8C53.72,66,51.37,66.39,49.35,66.27Z" style="fill: #45a7a3"/>
          <g>
            <rect x="19.26" y="59.42" width="12.32" height="7.52" style="fill: #edce37"/>
            <g>
              <polygon points="22.1 81.1 24.66 76.14 24.66 68.78 22.1 73.25 22.1 81.1" style="fill: #fff"/>
              <path d="M24.66,76.14l.92,0a32.83,32.83,0,0,0,5.61-.47,22.66,22.66,0,0,0,4.6-1.27,9.86,9.86,0,0,0,3.11-1.89,3.21,3.21,0,0,0,1.15-2.29V63.68L24.66,68.77Z" style="fill: #fbe4f0"/>
              <path d="M24.66,69.59h.92a32.83,32.83,0,0,0,5.61-.47,22.66,22.66,0,0,0,4.6-1.27A10,10,0,0,0,38.9,66a3.21,3.21,0,0,0,1.15-2.3V62.5H34.4l-2.89,2.31L24.59,67.4Z" style="fill: #edce37"/>
              <polygon points="22.1 81.1 13.93 79.02 13.93 71.91 22.1 74.01 22.1 81.1" style="fill: #fbe4f0"/>
              <rect x="5.85" y="63.32" width="14.69" height="5.34" style="fill: #fbe4f0"/>
              <rect x="7.05" y="64.08" width="12.21" height="4.56" style="fill: #edce37;stroke: #fff;stroke-miterlimit: 10;stroke-width: 0.080994745609869px"/>
              <rect x="8.3" y="65.02" width="2.74" height="3.62" style="fill: #57225c"/>
              <rect x="12.6" y="65.02" width="2.74" height="3.62" style="fill: #57225c"/>
              <path d="M27,66H24.21V61.63h0a1.72,1.72,0,0,1,2.74,0h0Z" style="fill: #57225c"/>
              <path d="M30.59,66.75l-2.74-1.07V61.9h0c.78-.49,2,0,2.74,1.07h0Z" style="fill: #57225c"/>
              <path d="M21.28,66.83l1.83-1.06V62h0c-.52-.49-1.31,0-1.83,1.06h0Z" style="fill: #57225c"/>
              <path d="M38.9,60.06a9.77,9.77,0,0,0-3.11-2,21.34,21.34,0,0,0-4.6-1.35,32.3,32.3,0,0,0-11.21,0,21.34,21.34,0,0,0-4.6,1.35c-.47.21-.9.42-1.29.64a7.22,7.22,0,0,1-3.6,1h-3L5.19,62.51H20.54c0-1.58,2.26-2.86,5-2.86s5.05,1.28,5.05,2.87-2.26,2.88-5.05,2.88A5.29,5.29,0,0,1,23.64,65l-2.49.87-7.58,5.92,9.05,2.34,2-5.38.92,0a30.89,30.89,0,0,0,5.61-.5,21.34,21.34,0,0,0,4.6-1.35,9.77,9.77,0,0,0,3.11-2,3.48,3.48,0,0,0,1.15-2.44A3.52,3.52,0,0,0,38.9,60.06Z" style="fill: #c47eb3"/>
              <g>
                <path d="M25.67,66.65a14.07,14.07,0,0,1-4.22-.75l2.22-.79a4.19,4.19,0,0,0,2,.41,7.7,7.7,0,0,0,3.64-1,2.55,2.55,0,0,0,1.36-2.21c-.14-1.39-1.64-2-2.1-2.23a8.2,8.2,0,0,0-3.17-.56h-.36c-2.16.06-4.49,1.09-4.65,2.88l-.58,0c.08-2.15,2.61-3.74,5.95-3.74,3,0,6.33,1.46,6.33,3.82S28.72,66.65,25.67,66.65Z" style="fill: #57225c"/>
                <path d="M25.81,58.75c3,0,6.23,1.42,6.23,3.72,0,2.13-3,4.08-6.37,4.08a14.15,14.15,0,0,1-3.9-.65l1.86-.66a5.51,5.51,0,0,0,2.09.38,7.79,7.79,0,0,0,3.69-1,2.68,2.68,0,0,0,1.41-2.31c-.14-1.45-1.7-2.13-2.17-2.31l-.07,0a8,8,0,0,0-3.13-.54h-.37c-2.16.06-4.49,1.08-4.73,2.88l-.39,0c.14-2,2.61-3.54,5.85-3.54m0-.2c-3.26,0-6,1.55-6,3.91h0l.78.05c.07-1.88,2.55-2.83,4.55-2.89h.36a7.81,7.81,0,0,1,3.13.56c.48.18,1.91.83,2,2.14s-1.31,2.11-1.31,2.11a7.45,7.45,0,0,1-3.59,1A5.08,5.08,0,0,1,23.64,65l-2.49.88a14.52,14.52,0,0,0,4.52.85c3.26,0,6.57-1.92,6.57-4.28s-3.17-3.92-6.43-3.92Zm-5.27,4Zm0,0Zm0,0h0Zm0,0Zm0,0Zm0,0Zm0,0Zm0,0Zm0,0Zm0,0Zm0,0Zm0,0Zm0,0Zm0,0Zm0,0Zm0,0Zm0,0h0Zm0,0Zm0,0Zm0,0Zm0,0Zm0,0Zm0,0Zm0,0Zm0,0Zm0,0Zm0,0Zm0,0Zm0,0h0Zm0,0Zm0,0Zm0,0Zm0,0Zm0,0Zm0,0Zm0,0Zm0,0Zm0,0Zm0,0Zm0,0v0Zm0,0Zm0,0,0,.78s0-.19,0-.78Z" style="fill: #edce37"/>
              </g>
              <rect x="5.19" y="62.53" width="15.35" height="0.79" style="fill: #57225c"/>
              <polygon points="24.66 68.78 24.66 69.59 22.62 75.47 22.62 74.16 24.66 68.78" style="fill: #45a7a3"/>
              <polygon points="13.57 71.81 13.57 73.13 22.62 75.47 22.62 74.16 13.57 71.81" style="fill: #edce37"/>
            </g>
          </g>
          <ellipse cx="40.83" cy="63.11" rx="3.14" ry="3.49" style="fill: #45a7a3;stroke: #edce37;stroke-miterlimit: 10;stroke-width: 0.161989491219736px"/>
          <ellipse cx="52.44" cy="59.62" rx="2.27" ry="2.52" style="fill: #fff1ad"/>
          <line x1="45.52" y1="62.02" x2="45.52" y2="74.23" style="fill: none;stroke: #57225c;stroke-linecap: round;stroke-linejoin: round;stroke-width: 0.56696321926908px"/>
          <path d="M45.52,70s4.65-1.56,4.65-5.17" style="fill: none;stroke: #57225c;stroke-linecap: round;stroke-linejoin: round;stroke-width: 0.56696321926908px"/>
          <path d="M41.12,62.93s-1.12,5.41,4.4,5.41" style="fill: none;stroke: #57225c;stroke-linecap: round;stroke-linejoin: round;stroke-width: 0.56696321926908px"/>
          <path d="M38.06,77.48a1.85,1.85,0,0,0,1.56-2.54,6.43,6.43,0,0,0-5.95-4.55c-5,0-6.09,3.94-6.32,5.94a1,1,0,0,0,.91,1.15Z" style="fill: #45a7a3;stroke: #fff;stroke-miterlimit: 10;stroke-width: 0.040497372804934px"/>
          <ellipse cx="37.5" cy="72.72" rx="1.99" ry="2.21" style="fill: #45a7a3;stroke: #edce37;stroke-miterlimit: 10;stroke-width: 0.161989491219736px"/>
          <ellipse cx="39.49" cy="74.23" rx="1.42" ry="1.58" style="fill: #edce37"/>
          <path d="M7.68,70.8a17,17,0,0,0-2.26,0c-.81,0-1.75-.12-1.75-1.13a3.06,3.06,0,0,1,2.88-3.2,3.06,3.06,0,0,1,2.88,3.2C9.43,70.68,8.49,70.84,7.68,70.8Z" style="fill: #45a7a3;stroke: #fff;stroke-miterlimit: 10;stroke-width: 0.161989491219736px"/>
          <ellipse cx="8.44" cy="70.51" rx="1.42" ry="1.58" style="fill: #45a7a3;stroke: #edce37;stroke-miterlimit: 10;stroke-width: 0.161989491219736px"/>
        </g>
        <g>
          <path d="M86.22,87.71h0a9.7,9.7,0,0,1,2.17-6.24l4.82-5.9H72c-9.13,0-16.53,7.4-16.53,12.14Z" style="fill: #edce37;stroke: #c47eb3;stroke-miterlimit: 10;stroke-width: 0.070697301633033px"/>
          <path d="M57.64,83.91a1.68,1.68,0,0,0,1,.61c1.81.44,3.77-2.09,5.2-2.88a27,27,0,0,1,15-3.24,19.83,19.83,0,0,1,7,2.13,3.36,3.36,0,0,0,4-.92c1.1-1.34,2.19-2.7,3.29-4H72a18.46,18.46,0,0,0-9.78,2.91,18.91,18.91,0,0,0-3.57,2.92h0C57.91,82.13,57.17,83.2,57.64,83.91Z" style="fill: #45a7a3"/>
          <g>
            <g>
              <path d="M74.13,68.8c-.55-.07-1.11-.11-1.67-.14l-.64.51S73.36,71.3,80.14,71a14.37,14.37,0,0,1-3.37-1.73C75.89,69.06,75,68.91,74.13,68.8Z" style="fill: #fff"/>
              <path d="M71.91,68.64a17.2,17.2,0,0,1-3.26,1.68s.73.55,3.17-1.15l.64-.51Z" style="fill: #edce37"/>
              <path d="M81.37,71.74,80.14,71s-5.53.4-8.32-1.78a8,8,0,0,1-3.17,1.15l-1.36,1.26s-.94,3.2-2.35,6.74l5.84.23H84.45S82.15,71.47,81.37,71.74Z" style="fill: #fbe4f0"/>
            </g>
            <path d="M82.36,70.87a5.4,5.4,0,0,1-2.22.08c.91.78,1.23.79,1.23.79l1.08-.85Z" style="fill: #edce37"/>
            <path d="M83.57,71.2h0l-.09,0h0l-.24-.08-.49-.13-.23,0-1.08.85,3.08,6.81,3.91.27C86.68,77.51,84.47,73.1,83.57,71.2Z" style="fill: #c47eb3"/>
          </g>
          <path d="M75.6,74.08,75,74a8.68,8.68,0,0,0-1.69,0l-.18,0h-.07l-.23.17a9.65,9.65,0,0,0,6,1.83A17.42,17.42,0,0,1,75.6,74.08Z" style="fill: #edce37"/>
          <path d="M78.79,76a9.81,9.81,0,0,1-6-1.83,5,5,0,0,1-1.87.62l-.8.68s-1.88,3.28-2.4,3.29l16,.49S79.25,75.84,78.79,76Z" style="fill: #fbe4f0;stroke: #c47eb3;stroke-miterlimit: 10;stroke-width: 0.070697301633033px"/>
          <polygon points="72.85 80.44 60.36 80.44 62.47 78.25 74.96 78.25 72.85 80.44" style="fill: #fff;stroke: #1d1d1b;stroke-miterlimit: 10;stroke-width: 0.040669754229218px"/>
          <polygon points="72.75 85.34 60.31 85.34 60.36 80.38 72.8 80.38 72.75 85.34" style="fill: #fbe4f0"/>
          <polygon points="72.8 80.44 72.75 85.34 74.65 82.97 74.71 77.99 72.8 80.44" style="fill: #c47eb3"/>
          <polygon points="73.52 79.92 59.33 79.92 61.38 77.96 75.58 77.96 73.52 79.92" style="fill: #fff;stroke: #c47eb3;stroke-miterlimit: 10;stroke-width: 0.023565767211011px"/>
          <polygon points="73.45 79.92 73.45 80.44 75.57 78.52 75.57 78.01 73.45 79.92" style="fill: #57225c"/>
          <rect x="67.91" y="80.38" width="2.43" height="4.97" style="fill: #57225c"/>
          <rect x="67.91" y="82.92" width="2.43" height="2.43" style="fill: #c47eb3"/>
          <polygon points="66.04 75.53 58.93 75.53 61.1 73.05 68.26 73.05 66.04 75.53" style="fill: #fff;stroke: #1d1d1b;stroke-miterlimit: 10;stroke-width: 0.040669754229218px"/>
          <polygon points="66.05 80.44 58.93 80.44 58.98 75.53 66.1 75.53 66.05 80.44" style="fill: #fbe4f0"/>
          <polygon points="66.06 75.51 66.05 80.38 68.25 77.92 68.27 72.97 66.06 75.51" style="fill: #45a7a3"/>
          <rect x="66.05" y="79.92" width="7.39" height="0.45" style="fill: #c47eb3"/>
          <rect x="58.93" y="80.38" width="7.12" height="0.51" style="fill: #c47eb3"/>
          <rect x="61.72" y="77.19" width="1.58" height="1.58" style="fill: #c47eb3"/>
          <rect x="62.06" y="77.53" width="0.91" height="0.91" style="fill: #57225c"/>
          <rect x="63.41" y="74.9" width="2.22" height="0.79" style="fill: #fff;stroke: #1d1d1b;stroke-miterlimit: 10;stroke-width: 0.040669754229218px"/>
          <polygon points="66.05 80.89 66.46 80.38 66.05 80.38 66.05 80.89" style="fill: #57225c"/>
          <polygon points="66.38 76.25 57.93 76.25 60.88 73.05 69.38 73.05 66.38 76.25" style="fill: #fff;stroke: #c47eb3;stroke-miterlimit: 10;stroke-width: 0.023565767211011px"/>
          <polygon points="66.39 76.59 57.93 76.59 57.93 76.25 66.38 76.25 66.39 76.59" style="fill: #c47eb3"/>
          <polygon points="66.38 76.25 66.39 76.59 69.38 73.46 69.38 73.05 66.38 76.25" style="fill: #45a7a3"/>
          <rect x="63.42" y="81.83" width="1.1" height="0.55" style="fill: #edce37"/>
          <rect x="59.32" y="79.18" width="1.1" height="0.55" style="fill: #edce37"/>
          <rect x="59.87" y="78.27" width="1.1" height="0.55" style="fill: #c47eb3"/>
          <rect x="65.01" y="82.55" width="1.25" height="0.62" style="fill: #edce37"/>
          <rect x="71.07" y="81.81" width="1.15" height="0.57" style="fill: #c47eb3"/>
          <path d="M73.52,85.8H71.68c-.1,0-.18-.07-.17-.15l.15-1.17a.45.45,0,0,1,.25-.35l.23-.13a.52.52,0,0,1,.55,0c.4.3,1.11.92,1,1.48v.14A.2.2,0,0,1,73.52,85.8Z" style="fill: #fbe4f0;stroke: #c47eb3;stroke-miterlimit: 10;stroke-width: 0.070697301633033px"/>
          <path d="M71.7,85.42a.72.72,0,0,1-.24.51c-.72.66-1.67-.27-.85-.86C70.93,84.85,71.69,84.93,71.7,85.42Z" style="fill: #fbe4f0;stroke: #c47eb3;stroke-miterlimit: 10;stroke-width: 0.044568312307484px"/>
          <path d="M80.48,79.2c1-1.12,2.66-2.33,4.53,0a.71.71,0,0,1-.56,1.15H81A.7.7,0,0,1,80.48,79.2Z" style="fill: #45a7a3"/>
          <path d="M78.38,80.44c.78-.92,2.17-1.92,3.69-.08a.63.63,0,0,1-.48,1H78.82A.58.58,0,0,1,78.38,80.44Z" style="fill: #45a7a3;stroke: #edce37;stroke-miterlimit: 10;stroke-width: 0.070697301633033px"/>
          <path d="M93.21,75.57v3.67l-7,8.47h0a9.7,9.7,0,0,1,2.17-6.24Z" style="fill: #57225c"/>
          <path d="M72.6,74a3.53,3.53,0,0,0-1.63.75,2.77,2.77,0,0,0,1.87-.62l.23-.17A2.56,2.56,0,0,1,72.6,74Z" style="fill: #fff"/>
          <ellipse cx="58.42" cy="86.06" rx="0.92" ry="0.6" style="fill: #45a7a3"/>
          <path d="M76,79.22l-1.08,3.9A10,10,0,0,1,76,79.22Z" style="fill: #45a7a3"/>
          <path d="M76.51,80.81l-1.85,2.57A7.85,7.85,0,0,1,76.51,80.81Z" style="fill: #45a7a3"/>
          <path d="M66.47,73.53l-.85,3A8,8,0,0,1,66.47,73.53Z" style="fill: #45a7a3"/>
          <path d="M62.33,82.11v4A8,8,0,0,1,62.33,82.11Z" style="fill: #45a7a3"/>
          <path d="M63.5,83.52,63,86.21A5.38,5.38,0,0,1,63.5,83.52Z" style="fill: #45a7a3"/>
        </g>
        <g>
          <path d="M57,95.09l4.76-2.82s-.07,4.43,0,4.5S57,100,57,100Z" style="fill: #57225c"/>
          <rect x="45.42" y="84.17" width="11.55" height="10.92" style="fill: #fbe4f0"/>
          <rect x="44.66" y="83.12" width="13.07" height="1.05" style="fill: #edce37"/>
          <rect x="47.03" y="85.53" width="3.62" height="9.56" style="fill: #c47eb3"/>
          <rect x="48.39" y="89.43" width="2.25" height="2.69" style="fill: #edce37"/>
          <polygon points="50.65 89.43 48.39 89.43 49.8 88.28 50.65 88.28 50.65 89.43" style="fill: #57225c"/>
          <rect x="52.7" y="86.64" width="2.25" height="2.69" style="fill: #c47eb3"/>
          <rect x="52.98" y="86.97" width="1.7" height="2.03" style="fill: #57225c"/>
          <rect x="47.03" y="92.11" width="3.62" height="2.98" style="fill: #edce37"/>
          <rect x="33.24" y="90.15" width="7.98" height="1.65" style="fill: #fbe4f0;stroke: #c47eb3;stroke-miterlimit: 10;stroke-width: 0.093256129638676px"/>
          <rect x="33.24" y="91.8" width="10.08" height="1.65" style="fill: #fbe4f0;stroke: #c47eb3;stroke-miterlimit: 10;stroke-width: 0.093256129638676px"/>
          <rect x="33.24" y="93.44" width="12.17" height="1.65" style="fill: #fbe4f0;stroke: #c47eb3;stroke-miterlimit: 10;stroke-width: 0.093256129638676px"/>
          <rect x="33.24" y="95.09" width="14.27" height="4.94" style="fill: #fbe4f0;stroke: #c47eb3;stroke-miterlimit: 10;stroke-width: 0.055686827611565px"/>
          <rect x="47.51" y="95.09" width="9.46" height="4.94" style="fill: #c47eb3"/>
          <rect x="33.24" y="88.94" width="3.05" height="1.21" style="fill: #fbe4f0;stroke: #c47eb3;stroke-miterlimit: 10;stroke-width: 0.093256129638676px"/>
          <g>
            <rect x="33.9" y="96.33" width="2.05" height="0.91" style="fill: #fff"/>
            <rect x="35.03" y="97.8" width="2.05" height="0.91" style="fill: #c47eb3"/>
          </g>
          <rect x="54.17" y="93.81" width="2.05" height="0.91" style="fill: #c47eb3"/>
          <rect x="41.22" y="97.1" width="1.51" height="0.91" style="fill: #c47eb3"/>
          <rect x="54.04" y="98.21" width="2.3" height="0.91" style="fill: #fbe4f0"/>
          <polygon points="62.48 79.95 49.41 79.95 44.66 83.12 57.73 83.12 62.48 79.95" style="fill: #fff"/>
          <polygon points="57.73 83.12 57.73 84.17 62.48 80.99 62.48 79.95 57.73 83.12" style="fill: #45a7a3"/>
          <polygon points="56.97 95.09 61.73 92.27 61.73 81.46 57.73 84.17 56.97 84.17 56.97 95.09" style="fill: #c47eb3"/>
          <polygon points="33.24 88.94 37.62 85.86 40.65 85.86 36.28 88.94 33.24 88.94" style="fill: #fff"/>
          <polygon points="40.65 85.85 40.65 87.2 36.28 90.15 36.28 88.94 40.65 85.85" style="fill: #edce37"/>
          <polygon points="36.28 90.15 40.65 87.17 44.81 87.17 41.22 90.15 36.28 90.15" style="fill: #fff;stroke: #c47eb3;stroke-miterlimit: 10;stroke-width: 0.050475659373981px"/>
          <polygon points="44.81 87.15 44.81 88.52 41.22 91.8 41.22 90.15 44.81 87.15" style="fill: #57225c"/>
          <polygon points="45.42 89.91 45.42 91.39 43.31 93.44 43.31 91.8 45.42 89.91" style="fill: #57225c"/>
          <polygon points="43.31 93.44 45.42 91.39 45.41 93.44 43.31 93.44" style="fill: #45a7a3"/>
          <polygon points="45.42 88.53 44.79 88.53 41.2 91.8 43.3 91.8 45.42 89.89 45.42 88.53" style="fill: #c47eb3"/>
          <polygon points="58.85 95.05 57.73 95.86 57.73 96.77 58.85 95.96 58.85 95.05" style="fill: #c47eb3"/>
          <polygon points="58.57 89.07 57.45 89.88 57.45 90.79 58.57 89.98 58.57 89.07" style="fill: #edce37;stroke: #c47eb3;stroke-miterlimit: 10;stroke-width: 0.093256129638676px"/>
          <polygon points="60.91 83.12 59.79 83.93 59.79 84.84 60.91 84.03 60.91 83.12" style="fill: #edce37;stroke: #c47eb3;stroke-miterlimit: 10;stroke-width: 0.093256129638676px"/>
          <polygon points="58.29 90.53 57.17 91.34 57.17 92.26 58.29 91.44 58.29 90.53" style="fill: #edce37;stroke: #c47eb3;stroke-miterlimit: 10;stroke-width: 0.093256129638676px"/>
          <polygon points="61.47 95.73 60.35 96.54 60.35 97.45 61.47 96.64 61.47 95.73" style="fill: #c47eb3"/>
          <polygon points="47.03 92.11 48.39 90.97 48.39 92.11 47.03 92.11" style="fill: #57225c"/>
          <line x1="43.99" y1="97.1" x2="47.51" y2="97.1" style="fill: none;stroke: #c47eb3;stroke-linecap: round;stroke-linejoin: round;stroke-width: 0.124341506184902px"/>
          <line x1="45.54" y1="97.14" x2="45.54" y2="98.59" style="fill: none;stroke: #c47eb3;stroke-linecap: round;stroke-linejoin: round;stroke-width: 0.124341506184902px"/>
          <line x1="43.62" y1="98.59" x2="46.36" y2="98.59" style="fill: none;stroke: #fff;stroke-linecap: round;stroke-linejoin: round;stroke-width: 0.124341506184902px"/>
          <line x1="52.24" y1="92.94" x2="54.68" y2="92.94" style="fill: none;stroke: #fff;stroke-miterlimit: 10;stroke-width: 0.093256129638676px"/>
          <line x1="53.46" y1="92.94" x2="53.46" y2="94.54" style="fill: none;stroke: #fff;stroke-miterlimit: 10;stroke-width: 0.093256129638676px"/>
          <line x1="59.35" y1="90.97" x2="61.73" y2="89.63" style="fill: none;stroke: #fff;stroke-miterlimit: 10;stroke-width: 0.093256129638676px"/>
          <line x1="60.13" y1="90.53" x2="60.13" y2="89.07" style="fill: none;stroke: #fff;stroke-miterlimit: 10;stroke-width: 0.093256129638676px"/>
          <line x1="56.97" y1="98.21" x2="58.85" y2="97.1" style="fill: none;stroke: #fbe4f0;stroke-linecap: round;stroke-linejoin: round;stroke-width: 0.093256129638676px"/>
          <line x1="57.91" y1="97.86" x2="57.91" y2="99.12" style="fill: none;stroke: #fbe4f0;stroke-linecap: round;stroke-linejoin: round;stroke-width: 0.093256129638676px"/>
          <g>
            <g>
              <rect x="34.72" y="100.44" width="4.43" height="1.76" style="fill: #45a7a3"/>
              <g>
                <polygon points="34.72 100.42 35.7 99.58 40.12 99.59 39.14 100.42 34.72 100.42" style="fill: #fbe4f0"/>
                <path d="M40,99.61l-.85.78H34.85l.86-.78H40m.14,0Zm0,0H35.69l-1,.88h4.43l1-.88Z" style="fill: #c47eb3"/>
              </g>
              <polygon points="39.15 100.44 39.15 102.2 40.12 101.32 40.12 99.56 39.15 100.44" style="fill: #57225c"/>
            </g>
            <g>
              <rect x="38.2" y="98.99" width="4.43" height="1.76" transform="translate(25.36 -6.81) rotate(14)" style="fill: #c47eb3"/>
              <polygon points="43.93 98.94 39.63 97.87 38.48 98.48 42.78 99.56 43.93 98.94" style="fill: #edce37"/>
              <polygon points="42.78 99.56 42.35 101.26 43.5 100.64 43.93 98.94 42.78 99.56" style="fill: #57225c"/>
            </g>
          </g>
        </g>
      </g>
    </g>
  </g>
</svg>
