<svg xmlns="http://www.w3.org/2000/svg" width="97.73" height="124.15" viewBox="0 0 97.73 124.15">
  <g id="Layer_2" data-name="Layer 2">
    <g id="Iron">
      <g>
        <g>
          <path d="M74.52,12.23l.83-.32V7.07l6.08,0v5.6h-4.9a4.93,4.93,0,0,1,.69,1.38h4.53v2H77.3v1.09H81l0,1.9H77.3V20.2l3.93,0v1.89L77.3,22v1.29h5V24c1.69-1.84,1.89-5.14,2-6.34H82.32l0-15,8.43,0v15H88.81V23.3c0,.63.83.58,1.14.4a2.68,2.68,0,0,0,.81-1.83V20.29l2,1c-.31,1.63-.63,4-2.66,4.44a3.26,3.26,0,0,1-2.9-.69,3.27,3.27,0,0,1-.57-2.35v-5h-.43c-.23,4.5-1.41,6.88-3.88,9.38l-1.8-1.23.6-.52H71.62v1.75H69.47V18.11a16.76,16.76,0,0,1-1.69,1.69l-1.52-1.52c2-1.78,3.56-3.78,3.93-5.56H68.44l0-5.63,6,0Zm0-10.9,0,5.65H72.37V5.49H67.44l0-2.1h5V1.33Zm-4.1,9.47h2.06l0-1.84h-2Zm1.17,5.27v1.09h3.53l0-1.12Zm0,3V20.2h3.53V19.06Zm0,3v1.17l3.53,0V22.1Zm.75-9.41-.49,1.38h3.24a4.08,4.08,0,0,0-1.66-1.38ZM82,5.43H77.53V7H75.38V1.3l2.15,0v2H82ZM77.36,8.9v1.87h2.1V8.9Zm7.12-4.16v2.1h4.07V4.74Zm0,6.4h4.07V8.82l-4.07,0Zm4.07,4.45V13.12H84.48v2.47Z" style="fill: #fff"/>
          <path d="M75.32,42.56H72.54v5.88c.89-.35,1.75-.84,3-1.27v2.24c-2.59,1.09-4.42,2-7.46,3.21l-1.55-1.77c1.52-.64,2.75-1,3.84-1.52V42.58h-3.3l0-2.18h3.33V33.49l2.24,0,0,6.94h2.75Zm10.1-7.23h6.51v2.12H85V39.2h5.11v3.33h2.32v2H90.13V48l-5.11,0v1.75H90.5v8.41H88.23l0-1.64-7.2,0v1.67l-2.21,0,0-8.49h3.93V48h-4l0-2,4.07,0,0-1.47h-4.7c.14,9.15-2.1,12.28-3.56,13.83a19,19,0,0,1-2-1.06c2.59-2.81,3.42-7.63,3.39-12,0-3.93,0-6.14-.06-10h7.32A11.52,11.52,0,0,0,80,33.72l1.81-1.41a6.7,6.7,0,0,1,4,2.67Zm-7.34,2.09V42.5l4.7,0V41.26h-4V39.2h4.07V37.45ZM88.26,51.94h-7.2v2.58h7.2ZM85.05,41.26v1.27h3V41.26Zm0,3.3V46h3V44.56Z" style="fill: #fff"/>
          <path d="M92.08,88.29H71.77c-1.52,0-2.21-1.27-2.21-2.67V67.43l-1.81,0V65.28l24.18,0v2.12H71.74l0,17.61c0,.81.28,1.12,1.17,1.12H92.08Zm-11-4H72.94v-8l8.12,0Zm-6-5.85V82.2l3.79,0,0-3.81ZM88.2,74.83l-12.9,0,0-6.4H88.2Zm-10.72-2H86V70.39H77.48Zm13.25,3.47v7.86H82.52V76.35Zm-2.15,2.07-3.88,0v3.67l3.85,0Z" style="fill: #fff"/>
        </g>
        <g>
          <path d="M75.82,10.93l.83-.32V5.77l6.08,0v5.6h-4.9a4.93,4.93,0,0,1,.69,1.38h4.53v2H78.6v1.09h3.68l0,1.9H78.6V18.9l3.93,0v1.89l-3.93,0V22h5v.69c1.7-1.84,1.9-5.14,2-6.34H83.62l0-15,8.44,0v15H90.11V22c0,.63.83.58,1.14.4a2.68,2.68,0,0,0,.81-1.83V19l2,1c-.31,1.63-.63,4-2.66,4.44a3.26,3.26,0,0,1-2.9-.69A3.27,3.27,0,0,1,88,21.37v-5h-.43c-.23,4.5-1.41,6.88-3.88,9.38l-1.8-1.23.6-.52H72.92v1.75H70.77v-9a16.76,16.76,0,0,1-1.69,1.69L67.56,17c2-1.78,3.56-3.78,3.93-5.56H69.74l0-5.63,6,0Zm0-10.9,0,5.65H73.67V4.19H68.74l0-2.1h5V0ZM71.75,9.5h2.06l0-1.84h-2Zm1.17,5.27v1.09h3.53l0-1.12Zm0,3V18.9h3.53V17.76Zm0,3V22l3.53,0V20.8Zm.75-9.41-.49,1.38h3.24a4.08,4.08,0,0,0-1.66-1.38Zm9.67-7.26H78.83V5.68H76.68V0l2.15,0v2h4.51ZM78.66,7.6V9.47h2.1V7.6Zm7.12-4.16v2.1h4.07V3.44Zm0,6.4h4.07V7.52l-4.07,0Zm4.07,4.45V11.82H85.78v2.47Z" style="fill: #65181a"/>
          <path d="M76.62,41.26H73.84v5.88c.89-.35,1.75-.84,3-1.27v2.24c-2.58,1.09-4.41,2-7.45,3.21l-1.55-1.77c1.52-.63,2.75-1,3.84-1.52V41.28h-3.3l0-2.18h3.33V32.19l2.24,0,0,6.94h2.75ZM86.72,34h6.51v2.12H86.32V37.9h5.11v3.33h2.32v2H91.43v3.47l-5.11,0v1.75H91.8v8.41H89.53l0-1.64-7.2,0V57l-2.21,0,0-8.49h3.93V46.73h-4l0-2,4.07,0,0-1.47h-4.7c.14,9.15-2.1,12.28-3.56,13.83a19,19,0,0,1-2-1.06c2.59-2.81,3.42-7.63,3.39-12,0-3.93,0-6.14-.06-10h7.32a11.52,11.52,0,0,0-3.1-1.61L83.14,31a6.65,6.65,0,0,1,4,2.67Zm-7.34,2.09V41.2l4.7,0V40H80V37.9h4.07V36.15ZM89.56,50.64h-7.2v2.58h7.2ZM86.35,40v1.27h3V40Zm0,3.3V44.7h3V43.26Z" style="fill: #65181a"/>
          <path d="M93.38,87H73.07c-1.52,0-2.21-1.27-2.21-2.67V66.13l-1.81,0V64l24.18,0v2.12H73l0,17.61c0,.81.28,1.12,1.17,1.12H93.38Zm-11-4H74.24v-8l8.12,0Zm-6-5.85V80.9l3.79,0,0-3.81ZM89.5,73.53l-12.9,0,0-6.4H89.5Zm-10.72-2h8.54V69.09H78.78ZM92,75.05v7.86H83.82V75.05Zm-2.15,2.07-3.88,0v3.67l3.85,0Z" style="fill: #65181a"/>
        </g>
        <g style="isolation: isolate">
          <polygon points="52.63 122.32 0 103.16 45.09 83.39 97.71 102.55 52.63 122.32" style="fill: #a780d6"/>
          <polygon points="52.65 124.15 52.63 122.32 97.71 102.55 97.73 104.38 52.65 124.15" style="fill: #775b99"/>
          <polygon points="0.02 105 0 103.16 52.63 122.32 52.65 124.15 0.02 105" style="fill: #5b3c80"/>
        </g>
        <g>
          <path d="M87.11,107.48h0A8.49,8.49,0,0,1,89,102l4.23-5.19H74.57c-8,0-14.53,6.5-14.53,10.67Z" style="fill: #edce37;stroke: #c47eb3;stroke-miterlimit: 10;stroke-width: 0.062140545971161px"/>
          <path d="M62,104.15a1.47,1.47,0,0,0,.91.53c1.59.38,3.32-1.83,4.57-2.53a22.81,22.81,0,0,1,4.67-2,23.21,23.21,0,0,1,8.53-.9,17.54,17.54,0,0,1,6.14,1.87,3,3,0,0,0,3.55-.8l2.89-3.56H74.57a16.58,16.58,0,0,0-11.73,5.13h0C62.23,102.58,61.58,103.52,62,104.15Z" style="fill: #45a7a3"/>
          <g>
            <g>
              <path d="M76.48,90.86c-.48-.06-1-.1-1.46-.12l-.57.45s1.36,1.87,7.32,1.56a12.75,12.75,0,0,1-3-1.52C78,91.09,77.26,91,76.48,90.86Z" style="fill: #fff"/>
              <path d="M74.53,90.72a15.14,15.14,0,0,1-2.87,1.48s.64.48,2.79-1l.57-.45Z" style="fill: #edce37"/>
              <path d="M82.84,93.45l-1.07-.7s-4.86.35-7.32-1.56a7.08,7.08,0,0,1-2.79,1l-1.19,1.11s-.83,2.81-2.07,5.92l5.14.2h12S83.53,93.21,82.84,93.45Z" style="fill: #fbe4f0"/>
            </g>
            <path d="M83.71,92.68a4.74,4.74,0,0,1-1.94.07c.79.69,1.07.7,1.07.7l1-.75Z" style="fill: #edce37"/>
            <path d="M84.78,93h0l-.08,0h0l-.22-.08-.42-.1-.21,0-1,.75,2.71,6,3.44.24C87.51,98.52,85.57,94.64,84.78,93Z" style="fill: #c47eb3"/>
          </g>
          <path d="M77.77,95.5c-.17,0-.34-.07-.52-.09a7.32,7.32,0,0,0-1.48,0l-.16,0-.07,0-.19.14a8.46,8.46,0,0,0,5.23,1.61A15.09,15.09,0,0,1,77.77,95.5Z" style="fill: #edce37"/>
          <path d="M80.58,97.18a8.61,8.61,0,0,1-5.23-1.61,4.47,4.47,0,0,1-1.65.55l-.7.6s-1.66,2.88-2.11,2.88L85,100S81,97.05,80.58,97.18Z" style="fill: #fbe4f0;stroke: #c47eb3;stroke-miterlimit: 10;stroke-width: 0.062140545971161px"/>
          <polygon points="75.35 101.09 64.38 101.09 66.23 99.17 77.21 99.17 75.35 101.09" style="fill: #fff;stroke: #1d1d1b;stroke-miterlimit: 10;stroke-width: 0.035747343589359px"/>
          <polygon points="75.27 105.4 64.33 105.4 64.38 101.04 75.31 101.04 75.27 105.4" style="fill: #fbe4f0"/>
          <polygon points="75.31 101.09 75.27 105.4 76.94 103.32 76.99 98.94 75.31 101.09" style="fill: #c47eb3"/>
          <polygon points="75.95 100.64 63.47 100.64 65.28 98.92 77.76 98.92 75.95 100.64" style="fill: #fff;stroke: #c47eb3;stroke-miterlimit: 10;stroke-width: 0.02071351532372px"/>
          <polygon points="75.88 100.64 75.88 101.09 77.74 99.4 77.74 98.96 75.88 100.64" style="fill: #57225c"/>
          <rect x="71.01" y="101.04" width="2.13" height="4.37" style="fill: #57225c"/>
          <rect x="71.01" y="103.27" width="2.13" height="2.13" style="fill: #c47eb3"/>
          <polygon points="69.37 96.77 63.12 96.77 65.03 94.59 71.32 94.59 69.37 96.77" style="fill: #fff;stroke: #1d1d1b;stroke-miterlimit: 10;stroke-width: 0.035747343589359px"/>
          <polygon points="69.38 101.09 63.12 101.09 63.16 96.77 69.42 96.77 69.38 101.09" style="fill: #fbe4f0"/>
          <polygon points="69.38 96.76 69.38 101.04 71.31 98.88 71.33 94.53 69.38 96.76" style="fill: #45a7a3"/>
          <rect x="69.38" y="100.64" width="6.5" height="0.4" style="fill: #c47eb3"/>
          <rect x="63.12" y="101.04" width="6.26" height="0.45" style="fill: #c47eb3"/>
          <rect x="65.57" y="98.23" width="1.39" height="1.39" style="fill: #c47eb3"/>
          <rect x="65.87" y="98.53" width="0.8" height="0.8" style="fill: #57225c"/>
          <rect x="67.05" y="96.22" width="1.95" height="0.7" style="fill: #fff;stroke: #1d1d1b;stroke-miterlimit: 10;stroke-width: 0.035747343589359px"/>
          <polygon points="69.38 101.49 69.74 101.04 69.38 101.04 69.38 101.49" style="fill: #57225c"/>
          <polygon points="69.67 97.41 62.24 97.41 64.83 94.59 72.3 94.59 69.67 97.41" style="fill: #fff;stroke: #c47eb3;stroke-miterlimit: 10;stroke-width: 0.02071351532372px"/>
          <polygon points="69.67 97.71 62.24 97.71 62.24 97.41 69.67 97.41 69.67 97.71" style="fill: #c47eb3"/>
          <polygon points="69.67 97.41 69.67 97.71 72.3 94.96 72.3 94.59 69.67 97.41" style="fill: #45a7a3"/>
          <rect x="67.06" y="102.32" width="0.97" height="0.48" style="fill: #edce37"/>
          <rect x="63.47" y="99.98" width="0.97" height="0.48" style="fill: #edce37"/>
          <rect x="63.95" y="99.19" width="0.97" height="0.48" style="fill: #c47eb3"/>
          <rect x="68.46" y="102.95" width="1.09" height="0.55" style="fill: #edce37"/>
          <rect x="73.79" y="102.3" width="1.01" height="0.5" style="fill: #c47eb3"/>
          <path d="M75.94,105.8H74.32c-.09,0-.15,0-.14-.13l.13-1a.37.37,0,0,1,.22-.31l.2-.11a.44.44,0,0,1,.48,0c.35.26,1,.81.92,1.3v.13A.17.17,0,0,1,75.94,105.8Z" style="fill: #fbe4f0;stroke: #c47eb3;stroke-miterlimit: 10;stroke-width: 0.062140545971161px"/>
          <path d="M74.34,105.47a.57.57,0,0,1-.21.45c-.63.58-1.47-.24-.74-.76C73.67,105,74.34,105,74.34,105.47Z" style="fill: #fbe4f0;stroke: #c47eb3;stroke-miterlimit: 10;stroke-width: 0.039174044777209px"/>
          <path d="M82.06,100c.84-1,2.34-2.05,4,0a.62.62,0,0,1-.48,1h-3A.61.61,0,0,1,82.06,100Z" style="fill: #45a7a3"/>
          <path d="M80.22,101.09c.68-.8,1.9-1.68,3.24-.07a.55.55,0,0,1-.42.91H80.6A.51.51,0,0,1,80.22,101.09Z" style="fill: #45a7a3;stroke: #edce37;stroke-miterlimit: 10;stroke-width: 0.062140545971161px"/>
          <path d="M93.25,96.81V100l-6.14,7.44h0A8.49,8.49,0,0,1,89,102Z" style="fill: #57225c"/>
          <path d="M75.13,95.46a3.08,3.08,0,0,0-1.43.66,2.49,2.49,0,0,0,1.65-.55l.19-.14A2.83,2.83,0,0,1,75.13,95.46Z" style="fill: #fff"/>
          <ellipse cx="62.67" cy="106.04" rx="0.81" ry="0.53" style="fill: #45a7a3"/>
          <path d="M78.12,100l-1,3.43A9,9,0,0,1,78.12,100Z" style="fill: #45a7a3"/>
          <path d="M78.57,101.42l-1.63,2.26A7.11,7.11,0,0,1,78.57,101.42Z" style="fill: #45a7a3"/>
          <path d="M69.75,95,69,97.7A7,7,0,0,1,69.75,95Z" style="fill: #45a7a3"/>
          <path d="M66.11,102.56v3.56A7,7,0,0,1,66.11,102.56Z" style="fill: #45a7a3"/>
          <path d="M67.14,103.8l-.49,2.37A4.81,4.81,0,0,1,67.14,103.8Z" style="fill: #45a7a3"/>
        </g>
        <g>
          <path d="M54.59,115.1l4-2.37s-.06,3.72,0,3.78-4,2.73-4,2.73Z" style="fill: #57225c"/>
          <rect x="44.9" y="105.93" width="9.69" height="9.16" style="fill: #fbe4f0"/>
          <rect x="44.26" y="105.05" width="10.97" height="0.88" style="fill: #edce37"/>
          <rect x="46.25" y="107.08" width="3.03" height="8.02" style="fill: #c47eb3"/>
          <rect x="47.4" y="110.34" width="1.89" height="2.25" style="fill: #edce37"/>
          <polygon points="49.29 110.34 47.4 110.34 48.58 109.38 49.29 109.38 49.29 110.34" style="fill: #57225c"/>
          <rect x="51.01" y="108.01" width="1.89" height="2.25" style="fill: #c47eb3"/>
          <rect x="51.24" y="108.28" width="1.43" height="1.7" style="fill: #57225c"/>
          <rect x="46.25" y="112.6" width="3.03" height="2.5" style="fill: #edce37"/>
          <rect x="34.68" y="110.95" width="6.69" height="1.38" style="fill: #fbe4f0;stroke: #c47eb3;stroke-miterlimit: 10;stroke-width: 0.078231718224115px"/>
          <rect x="34.68" y="112.33" width="8.45" height="1.38" style="fill: #fbe4f0;stroke: #c47eb3;stroke-miterlimit: 10;stroke-width: 0.078231718224115px"/>
          <rect x="34.68" y="113.71" width="10.21" height="1.38" style="fill: #fbe4f0;stroke: #c47eb3;stroke-miterlimit: 10;stroke-width: 0.078231718224115px"/>
          <rect x="34.68" y="115.1" width="11.97" height="4.14" style="fill: #fbe4f0;stroke: #c47eb3;stroke-miterlimit: 10;stroke-width: 0.046715172754672px"/>
          <rect x="46.65" y="115.1" width="7.94" height="4.14" style="fill: #c47eb3"/>
          <rect x="34.68" y="109.94" width="2.55" height="1.01" style="fill: #fbe4f0;stroke: #c47eb3;stroke-miterlimit: 10;stroke-width: 0.078231718224115px"/>
          <g>
            <rect x="35.24" y="116.13" width="1.72" height="0.77" style="fill: #fff"/>
            <rect x="36.19" y="117.37" width="1.72" height="0.77" style="fill: #c47eb3"/>
          </g>
          <rect x="52.24" y="114.02" width="1.72" height="0.77" style="fill: #c47eb3"/>
          <rect x="41.38" y="116.78" width="1.26" height="0.77" style="fill: #c47eb3"/>
          <rect x="52.13" y="117.71" width="1.93" height="0.77" style="fill: #fbe4f0"/>
          <polygon points="59.22 102.4 48.25 102.4 44.26 105.05 55.23 105.05 59.22 102.4" style="fill: #fff"/>
          <polygon points="55.23 105.05 55.23 105.93 59.22 103.27 59.22 102.4 55.23 105.05" style="fill: #45a7a3"/>
          <polygon points="54.59 115.09 58.58 112.73 58.58 103.66 55.23 105.93 54.59 105.93 54.59 115.09" style="fill: #c47eb3"/>
          <polygon points="34.68 109.94 38.36 107.35 40.9 107.35 37.24 109.94 34.68 109.94" style="fill: #fff"/>
          <polygon points="40.9 107.35 40.9 108.48 37.24 110.95 37.24 109.94 40.9 107.35" style="fill: #edce37"/>
          <polygon points="37.24 110.95 40.9 108.45 44.39 108.45 41.38 110.95 37.24 110.95" style="fill: #fff;stroke: #c47eb3;stroke-miterlimit: 10;stroke-width: 0.042343571158501px"/>
          <polygon points="44.39 108.44 44.39 109.59 41.38 112.33 41.38 110.95 44.39 108.44" style="fill: #57225c"/>
          <polygon points="44.9 110.75 44.9 112 43.14 113.71 43.14 112.33 44.9 110.75" style="fill: #57225c"/>
          <polygon points="43.14 113.71 44.9 112 44.89 113.71 43.14 113.71" style="fill: #45a7a3"/>
          <polygon points="44.9 109.59 44.37 109.59 41.36 112.33 43.12 112.33 44.9 110.73 44.9 109.59" style="fill: #c47eb3"/>
          <polygon points="56.17 115.06 55.23 115.74 55.23 116.51 56.17 115.83 56.17 115.06" style="fill: #c47eb3"/>
          <polygon points="55.93 110.05 55 110.73 55 111.49 55.93 110.81 55.93 110.05" style="fill: #edce37;stroke: #c47eb3;stroke-miterlimit: 10;stroke-width: 0.078231718224115px"/>
          <polygon points="57.9 105.05 56.96 105.73 56.96 106.5 57.9 105.82 57.9 105.05" style="fill: #edce37;stroke: #c47eb3;stroke-miterlimit: 10;stroke-width: 0.078231718224115px"/>
          <polygon points="55.7 111.27 54.76 111.95 54.76 112.72 55.7 112.04 55.7 111.27" style="fill: #edce37;stroke: #c47eb3;stroke-miterlimit: 10;stroke-width: 0.078231718224115px"/>
          <polygon points="58.36 115.63 57.43 116.31 57.43 117.08 58.36 116.4 58.36 115.63" style="fill: #c47eb3"/>
          <polygon points="46.25 112.6 47.4 111.64 47.4 112.6 46.25 112.6" style="fill: #57225c"/>
          <line x1="43.7" y1="116.78" x2="46.65" y2="116.78" style="fill: none;stroke: #c47eb3;stroke-linecap: round;stroke-linejoin: round;stroke-width: 0.104308957632154px"/>
          <line x1="45" y1="116.81" x2="45" y2="118.03" style="fill: none;stroke: #c47eb3;stroke-linecap: round;stroke-linejoin: round;stroke-width: 0.104308957632154px"/>
          <line x1="43.39" y1="118.03" x2="45.69" y2="118.03" style="fill: none;stroke: #fff;stroke-linecap: round;stroke-linejoin: round;stroke-width: 0.104308957632154px"/>
          <line x1="50.62" y1="113.3" x2="52.67" y2="113.3" style="fill: none;stroke: #fff;stroke-miterlimit: 10;stroke-width: 0.078231718224115px"/>
          <line x1="51.64" y1="113.3" x2="51.64" y2="114.64" style="fill: none;stroke: #fff;stroke-miterlimit: 10;stroke-width: 0.078231718224115px"/>
          <line x1="56.59" y1="111.64" x2="58.58" y2="110.51" style="fill: none;stroke: #fff;stroke-miterlimit: 10;stroke-width: 0.078231718224115px"/>
          <line x1="57.24" y1="111.27" x2="57.24" y2="110.05" style="fill: none;stroke: #fff;stroke-miterlimit: 10;stroke-width: 0.078231718224115px"/>
          <line x1="54.59" y1="117.71" x2="56.17" y2="116.78" style="fill: none;stroke: #fbe4f0;stroke-linecap: round;stroke-linejoin: round;stroke-width: 0.078231718224115px"/>
          <line x1="55.38" y1="117.42" x2="55.38" y2="118.47" style="fill: none;stroke: #fbe4f0;stroke-linecap: round;stroke-linejoin: round;stroke-width: 0.078231718224115px"/>
          <g>
            <g>
              <rect x="35.93" y="119.58" width="3.71" height="1.47" style="fill: #45a7a3"/>
              <g>
                <polygon points="35.93 119.56 36.75 118.86 40.45 118.87 39.63 119.56 35.93 119.56" style="fill: #fbe4f0"/>
                <path d="M40.34,118.89l-.72.65H36l.71-.65h3.59m.11,0Zm0,0H36.74l-.81.73h3.71l.81-.73Z" style="fill: #c47eb3"/>
              </g>
              <polygon points="39.64 119.58 39.64 121.06 40.45 120.32 40.45 118.85 39.64 119.58" style="fill: #57225c"/>
            </g>
            <g>
              <rect x="38.85" y="118.37" width="3.71" height="1.47" transform="translate(30.03 -6.31) rotate(14)" style="fill: #c47eb3"/>
              <polygon points="43.65 118.32 40.05 117.42 39.08 117.94 42.69 118.84 43.65 118.32" style="fill: #edce37"/>
              <polygon points="42.69 118.84 42.33 120.27 43.29 119.75 43.65 118.32 42.69 118.84" style="fill: #57225c"/>
            </g>
          </g>
        </g>
        <g>
          <path d="M45,71.05c0,.87-1.05.87-2.31.56a18.22,18.22,0,0,0-8.5,0c-1.35.31-2.48.32-2.48-.56,0-2.15,3-7.59,6.65-7.59S45,68.9,45,71.05Z" style="fill: #45a7a3"/>
          <path d="M33.82,72a22.55,22.55,0,0,0-2.6,0c-.92,0-2-.13-2-1.29A3.5,3.5,0,0,1,32.52,67a3.5,3.5,0,0,1,3.3,3.66C35.82,71.84,34.74,72,33.82,72Z" style="fill: #edce37"/>
          <line x1="38.38" y1="74.13" x2="38.38" y2="67.63" style="fill: none;stroke: #57225c;stroke-linecap: round;stroke-linejoin: round;stroke-width: 0.471013353050495px"/>
          <path d="M33.81,70.15s.09,2.42,4.5,2.42" style="fill: none;stroke: #57225c;stroke-linecap: round;stroke-linejoin: round;stroke-width: 0.471013353050495px"/>
          <ellipse cx="43.82" cy="87.68" rx="20.48" ry="9.52" style="fill: #edce37"/>
          <ellipse cx="43.82" cy="86.27" rx="20.48" ry="9.52" style="fill: #6ac5af"/>
          <path d="M64.34,81.72a41.12,41.12,0,0,0-4.71,0C58,81.81,56,81.48,56,79.38c0-3.67,2.68-6.65,6-6.65s6,3,6,6.65C68,81.48,66,81.81,64.34,81.72Z" style="fill: #45a7a3"/>
          <g>
            <rect x="39.34" y="76.03" width="10.24" height="6.25" style="fill: #edce37"/>
            <g>
              <polygon points="41.7 94.03 43.83 89.92 43.83 83.8 41.7 87.52 41.7 94.03" style="fill: #fff"/>
              <path d="M43.82,89.92h.78a26.93,26.93,0,0,0,4.65-.39,18,18,0,0,0,3.82-1.06,8.25,8.25,0,0,0,2.59-1.56,2.68,2.68,0,0,0,1-1.91V79.57L43.82,83.8Z" style="fill: #fbe4f0"/>
              <path d="M43.82,84.47h.78a26.93,26.93,0,0,0,4.65-.39,18.05,18.05,0,0,0,3.82-1,8.26,8.26,0,0,0,2.59-1.57,2.64,2.64,0,0,0,1-1.9v-1H51.92l-2.4,1.92-5.75,2.14Z" style="fill: #edce37"/>
              <polygon points="41.7 94.03 34.91 92.31 34.91 86.4 41.7 88.14 41.7 94.03" style="fill: #fbe4f0"/>
              <rect x="28.2" y="79.27" width="12.2" height="4.44" style="fill: #fbe4f0"/>
              <rect x="29.2" y="79.89" width="10.14" height="3.79" style="fill: #edce37;stroke: #fff;stroke-miterlimit: 10;stroke-width: 0.067287621864357px"/>
              <rect x="30.24" y="80.68" width="2.28" height="3.01" style="fill: #57225c"/>
              <rect x="33.81" y="80.68" width="2.28" height="3.01" style="fill: #57225c"/>
              <path d="M45.73,81.49H43.46V77.86h0a1.43,1.43,0,0,1,2.27,0h0Z" style="fill: #57225c"/>
              <path d="M48.76,82.11l-2.28-.88V78.09h0c.64-.41,1.63,0,2.28.88h0Z" style="fill: #57225c"/>
              <path d="M41,82.18l1.52-.88V78.16h0c-.43-.41-1.09,0-1.52.88h0Z" style="fill: #57225c"/>
              <path d="M55.66,76.56a8.15,8.15,0,0,0-2.59-1.66,17.4,17.4,0,0,0-3.82-1.12,26,26,0,0,0-9.31,0,17.4,17.4,0,0,0-3.82,1.12,10.87,10.87,0,0,0-1.08.53,6,6,0,0,1-3,.79H29.54l-1.88,2.37H40.41c0-1.32,1.88-2.38,4.19-2.38s4.19,1.07,4.19,2.39S46.91,81,44.6,81a4.4,4.4,0,0,1-1.62-.3l-2.07.72-6.29,4.92,7.51,1.94,1.69-4.46h.78a26,26,0,0,0,4.65-.41,18,18,0,0,0,3.82-1.13,8.15,8.15,0,0,0,2.59-1.66,2.63,2.63,0,0,0,0-4Z" style="fill: #c47eb3"/>
              <g>
                <path d="M44.67,82a12.06,12.06,0,0,1-3.51-.62L43,80.76a3.58,3.58,0,0,0,1.7.33,6.35,6.35,0,0,0,3-.82,2.13,2.13,0,0,0,1.13-1.83c-.11-1.16-1.36-1.71-1.74-1.85a6.69,6.69,0,0,0-2.64-.47h-.3c-1.79,0-3.73.91-3.85,2.4l-.49,0c.06-1.78,2.17-3.1,4.94-3.1,2.53,0,5.26,1.21,5.26,3.17S47.2,82,44.67,82Z" style="fill: #57225c"/>
                <path d="M44.78,75.47c2.49,0,5.18,1.18,5.18,3.09s-2.53,3.38-5.29,3.38a11.78,11.78,0,0,1-3.24-.53L43,80.86a4.68,4.68,0,0,0,1.74.31,6.32,6.32,0,0,0,3.06-.83A2.2,2.2,0,0,0,49,78.43c-.12-1.21-1.41-1.78-1.8-1.92l-.07,0a6.84,6.84,0,0,0-2.6-.44h-.3c-1.8,0-3.74.9-3.93,2.39l-.32,0c.11-1.68,2.16-2.94,4.85-2.94m0-.17c-2.7,0-5,1.29-5,3.25h0l.66,0c.05-1.56,2.11-2.36,3.78-2.4h.29a6.6,6.6,0,0,1,2.61.46c.4.15,1.58.69,1.69,1.78s-1.09,1.76-1.09,1.76a6.22,6.22,0,0,1-3,.81A4.12,4.12,0,0,1,43,80.68l-2.07.73a12.14,12.14,0,0,0,3.76.7c2.71,0,5.45-1.59,5.45-3.55S47.5,75.3,44.78,75.3Zm-4.37,3.31Zm0,0Zm0,0Zm0,0Zm0,0Zm0,0Zm0,0Zm0,0Zm0,0Zm0,0Zm0,0Zm0,0Zm0,0h0Zm0,0Zm0,0h0Zm0,0Zm0,0h0Zm0,0Zm0,0Zm0,0Zm0,0Zm0,0Zm0,0Zm0,0Zm0,0Zm0,0Zm0,0Zm0,0Zm0,0Zm0,0v0Zm0,0Zm0,0h0Zm0,0Zm0,0c0,.16,0,.64,0,.64s0-.16,0-.64Z" style="fill: #edce37"/>
              </g>
              <rect x="27.66" y="78.61" width="12.75" height="0.66" style="fill: #57225c"/>
              <polygon points="43.83 83.8 43.83 84.47 42.13 89.36 42.13 88.27 43.83 83.8" style="fill: #45a7a3"/>
              <polygon points="34.62 86.32 34.62 87.42 42.13 89.36 42.13 88.27 34.62 86.32" style="fill: #edce37"/>
            </g>
          </g>
          <ellipse cx="57.26" cy="79.09" rx="2.61" ry="2.9" style="fill: #45a7a3;stroke: #edce37;stroke-miterlimit: 10;stroke-width: 0.134575243728712px"/>
          <ellipse cx="66.9" cy="76.19" rx="1.88" ry="2.09" style="fill: #edce37"/>
          <line x1="61.16" y1="78.19" x2="61.16" y2="88.33" style="fill: none;stroke: #57225c;stroke-linecap: round;stroke-linejoin: round;stroke-width: 0.471013353050495px"/>
          <path d="M61.16,84.8S65,83.51,65,80.51" style="fill: none;stroke: #57225c;stroke-linecap: round;stroke-linejoin: round;stroke-width: 0.471013353050495px"/>
          <path d="M57.5,78.94s-.93,4.49,3.66,4.49" style="fill: none;stroke: #57225c;stroke-linecap: round;stroke-linejoin: round;stroke-width: 0.471013353050495px"/>
          <path d="M55,91a1.54,1.54,0,0,0,1.3-2.11,5.34,5.34,0,0,0-4.94-3.78c-4.16,0-5.07,3.27-5.26,4.94a.83.83,0,0,0,.76,1Z" style="fill: #45a7a3;stroke: #fff;stroke-miterlimit: 10;stroke-width: 0.033643810932178px"/>
          <ellipse cx="54.5" cy="87.08" rx="1.65" ry="1.84" style="fill: #45a7a3;stroke: #edce37;stroke-miterlimit: 10;stroke-width: 0.134575243728712px"/>
          <ellipse cx="56.15" cy="88.33" rx="1.18" ry="1.31" style="fill: #edce37"/>
          <path d="M29.73,85.48a14.9,14.9,0,0,0-1.89,0c-.67,0-1.45-.1-1.45-.94a2.41,2.41,0,1,1,4.79,0C31.18,85.38,30.4,85.52,29.73,85.48Z" style="fill: #45a7a3;stroke: #fff;stroke-miterlimit: 10;stroke-width: 0.134575243728712px"/>
          <ellipse cx="30.35" cy="85.24" rx="1.18" ry="1.31" style="fill: #45a7a3;stroke: #edce37;stroke-miterlimit: 10;stroke-width: 0.134575243728712px"/>
        </g>
      </g>
    </g>
  </g>
</svg>
