<svg xmlns="http://www.w3.org/2000/svg" width="135.65" height="103.51" viewBox="0 0 135.65 103.51">
  <g id="Layer_2" data-name="Layer 2">
    <g id="Icon">
      <g>
        <g>
          <path d="M91.37,8.77,86,8.79,86,7.1h5.33V1.32h1.68l0,14.2,2.2-.56v1.77l-8.56,2.11-1.1-1.57L91.37,16Zm12.39,5c-.57,3.37-1.1,4.71-2.9,4.71h-2.8A1.93,1.93,0,0,1,96,16.36v-15l1.66,0V8a10.66,10.66,0,0,0,4.62-2.61l1.31,1a12.72,12.72,0,0,1-5.93,3.26l0,6.47c0,.41.09.69.54.69h2.63c.82,0,1.13-1.87,1.25-3.56Z" style="fill: #fff"/>
          <path d="M104.25,42.22H89c-1.15,0-1.67-.95-1.67-2V26.54l-1.35,0V24.92l18.18,0v1.6H89l0,13.24c0,.61.21.84.88.84h14.39Zm-8.28-3H89.86v-6l6.11,0Zm-4.49-4.4v2.83l2.85,0,0-2.87Zm9.86-2.72-9.71,0,0-4.81h9.69Zm-8.07-1.46H99.7V28.76H93.27Zm10,2.61v5.91H97.07V33.25Zm-1.62,1.55-2.91,0v2.76l2.89,0Z" style="fill: #fff"/>
        </g>
        <g>
          <path d="M92.67,7.47l-5.35,0,0-1.69h5.33V0h1.68l0,14.2,2.2-.56v1.77L88,17.54,86.87,16l5.8-1.23Zm12.39,5c-.57,3.37-1.1,4.71-2.9,4.71h-2.8a1.93,1.93,0,0,1-2.07-2.14V0L99,0V6.69a10.66,10.66,0,0,0,4.62-2.61l1.31,1A12.72,12.72,0,0,1,99,8.37l0,6.47c0,.41.09.69.54.69h2.63c.82,0,1.12-1.87,1.25-3.56Z" style="fill: #003869"/>
          <path d="M105.55,40.92H90.28c-1.15,0-1.67-1-1.67-2V25.24l-1.35,0V23.62l18.18,0v1.6H90.25l0,13.24c0,.61.21.85.88.85h14.39Zm-8.28-3H91.16V32l6.11,0Zm-4.49-4.4v2.83l2.85,0,0-2.87Zm9.86-2.72-9.71,0L93,26h9.69Zm-8.07-1.46H101V27.46H94.57Zm10,2.61v5.91H98.37V32Zm-1.62,1.55-2.91,0v2.76l2.89,0Z" style="fill: #003869"/>
        </g>
        <g style="isolation: isolate">
          <polygon points="72.22 101.13 3.8 76.23 62.41 50.53 130.83 75.43 72.22 101.13" style="fill: #6baadb"/>
          <polygon points="72.25 103.51 72.22 101.13 130.83 75.43 130.86 77.82 72.25 103.51" style="fill: #3d77a6"/>
          <polygon points="3.83 78.61 3.8 76.23 72.22 101.13 72.25 103.51 3.83 78.61" style="fill: #254966"/>
        </g>
        <g>
          <polygon points="85.86 54.57 81.88 56.87 81.88 55.75 81.91 55.75 89.84 51.29 89.83 52.26 89.83 52.27 85.86 54.57" style="fill: #ea601b"/>
          <polygon points="81.74 47.78 80.88 47.28 80.88 47.27 81.88 46.67 81.89 46.67 81.91 46.69 82.74 47.17 85.88 48.99 89.84 51.29 81.91 55.75 81.88 55.75 81.87 54.69 86.92 51.78 87.78 51.28 81.74 47.78" style="fill: #fffaf2"/>
          <polygon points="87.78 51.28 86.92 51.78 80.87 48.29 80.88 48.28 80.88 48.28 80.88 48.27 80.88 47.28 81.74 47.78 87.78 51.28" style="fill: #f1935a"/>
          <polygon points="85.88 45.34 85.88 48.99 82.74 47.17 85.87 45.34 85.88 45.34" style="fill: #f6c759"/>
          <polygon points="85.86 54.57 85.88 56.88 85.88 56.88 77.91 61.48 77.91 59.17 77.9 59.17 81.88 56.87 85.86 54.57" style="fill: #f6c759"/>
          <polygon points="85.87 45.34 82.74 47.17 81.91 46.69 81.91 46.68 81.9 43.05 85.87 45.34" style="fill: #fffaf2"/>
          <polygon points="81.88 46.67 80.88 47.27 80.88 47.28 80.88 48.27 80.87 48.28 76.85 50.59 75.84 51.17 73.94 52.26 73.97 47.68 73.97 47.68 81.89 43.04 81.9 43.05 81.91 46.68 81.91 46.69 81.89 46.67 81.88 46.67" style="fill: #f6c759"/>
          <polygon points="73.94 38.45 81.89 43.04 73.97 47.68 73.97 47.68 65.93 43.04 73.94 38.45" style="fill: #f8db98"/>
          <polygon points="81.86 52.27 57.98 66.08 56.97 65.5 80.9 51.7 81.86 52.27" style="fill: #fffaf2"/>
          <polygon points="80.87 48.28 80.88 48.28 80.88 48.28 80.87 48.29 86.92 51.78 81.87 54.69 81.86 52.27 80.9 51.7 56.97 65.5 56.97 65.5 56.97 65.5 56.97 69.07 50 73.09 49.99 73.1 43.94 69.6 50 66.11 49.99 61.47 49.99 61.47 49.98 61.47 46 59.17 46 59.17 49.99 56.89 49.99 56.87 57.96 61.47 57.96 61.47 61.95 59.23 61.95 49.96 65.93 47.66 65.93 47.68 65.93 47.68 73.94 52.26 73.94 52.26 75.84 51.17 76.85 50.59 80.87 48.28" style="fill: #f4b425"/>
          <polygon points="77.91 61.48 77.92 70.79 75.92 71.83 75.92 60.32 77.91 59.17 77.91 61.48" style="fill: #f6c759"/>
          <polygon points="75.92 60.32 75.92 71.83 73.91 70.68 73.9 63.79 73.9 61.48 77.9 59.17 77.91 59.17 75.92 60.32" style="fill: #f4ad17"/>
          <polygon points="65.93 43.04 73.97 47.68 73.94 52.26 73.94 52.26 73.94 52.26 65.93 47.68 65.93 47.68 65.93 47.66 65.93 43.04" style="fill: #f4ad17"/>
          <polygon points="73.9 61.48 73.9 63.79 71.91 64.94 71.91 62.63 73.9 61.48" style="fill: #f6c759"/>
          <polygon points="71.91 64.94 71.91 67.22 69.93 68.36 69.9 63.79 71.91 62.63 71.91 64.94" style="fill: #f6c759"/>
          <polygon points="69.9 63.79 69.93 68.36 67.94 67.23 67.94 64.93 67.94 64.93 69.9 63.79" style="fill: #f4ad17"/>
          <polygon points="67.94 64.93 67.94 67.23 63.94 69.54 63.94 67.24 67.94 64.93 67.94 64.93" style="fill: #ea601b"/>
          <polygon points="65.93 43.04 65.93 47.66 61.95 49.96 61.95 45.36 57.96 43.06 65.93 38.45 65.93 43.04" style="fill: #f6c759"/>
          <polygon points="65.93 38.45 57.96 43.06 57.96 43.06 57.02 42.52 53.97 40.75 61.94 36.15 65.93 38.45" style="fill: #f8db98"/>
          <polygon points="63.94 69.54 63.95 78.85 61.95 79.94 61.95 68.39 63.94 67.24 63.94 69.54" style="fill: #f6c759"/>
          <polygon points="67.94 64.93 63.94 67.24 63.94 67.23 61.95 68.38 61.95 68.39 59.93 69.56 57.98 70.68 57.98 69.67 57.98 69.65 57.98 66.08 81.86 52.27 81.87 54.69 81.88 55.75 81.88 56.87 77.9 59.17 73.9 61.48 71.91 62.63 69.9 63.79 67.94 64.93" style="fill: #f6c759"/>
          <polygon points="61.95 68.39 61.95 79.94 59.94 78.79 59.94 71.85 59.94 69.58 59.93 69.56 61.95 68.39" style="fill: #f4ad17"/>
          <polygon points="61.95 49.96 61.95 59.23 57.96 61.47 57.96 61.47 57.96 47.66 61.95 45.36 61.95 49.96" style="fill: #f6c759"/>
          <polygon points="61.95 45.36 57.96 47.66 46.01 40.76 49.99 38.46 57.02 42.52 57.96 43.06 57.96 43.06 61.95 45.36" style="fill: #f8db98"/>
          <polygon points="57.98 70.68 59.93 69.56 59.94 69.58 59.94 71.85 57.95 73 57.95 70.7 57.98 70.68" style="fill: #ea601b"/>
          <polygon points="57.98 66.08 57.98 69.65 57.96 69.65 56.97 69.08 56.97 69.07 56.97 65.5 56.97 65.5 57.98 66.08" style="fill: #fffaf2"/>
          <polygon points="57.96 47.66 57.96 61.47 49.99 56.87 49.99 47.66 46 45.37 46 40.76 46.01 40.76 57.96 47.66" style="fill: #f4ad17"/>
          <polygon points="57.95 70.69 55.94 71.85 55.94 71.86 53.98 72.99 50 75.29 49.99 75.28 49.99 74.28 57.09 70.17 57.09 70.17 57.96 69.67 57.98 69.67 57.98 70.68 57.95 70.7 57.95 70.69" style="fill: #ea601b"/>
          <polygon points="57.95 73 57.95 75.28 55.97 76.43 55.94 71.86 57.95 70.7 57.95 73" style="fill: #f6c759"/>
          <polygon points="53.97 40.75 57.02 42.52 49.99 38.46 61.96 31.54 73.94 38.45 65.93 43.04 65.93 38.45 61.94 36.15 53.97 40.75" style="fill: #fffaf2"/>
          <polygon points="56.97 65.5 56.97 65.5 56.97 65.5 56.97 65.5" style="fill: #fffaf2"/>
          <polygon points="57.96 69.67 57.09 70.17 57.09 70.17 49.99 74.28 42.04 69.68 42.04 69.68 42.04 69.67 43.04 69.08 43.94 69.6 49.99 73.1 50 73.09 56.97 69.07 56.97 69.08 57.96 69.65 57.98 69.65 57.98 69.67 57.96 69.67" style="fill: #fffaf2"/>
          <polygon points="55.94 71.86 55.97 76.43 53.98 75.29 53.98 75.29 53.98 73 53.98 72.99 55.94 71.86" style="fill: #f4ad17"/>
          <polygon points="53.98 73 53.98 75.29 53.98 75.29 38.03 84.5 38.03 84.5 38.03 72.98 42.03 70.7 49.99 75.28 50 75.29 53.98 72.99 53.98 73" style="fill: #f6c759"/>
          <polygon points="49.99 61.47 50 66.11 43.94 69.6 43.04 69.08 42.04 69.67 42.06 66.11 49.98 61.47 49.99 61.47" style="fill: #f6c759"/>
          <polygon points="49.99 61.47 49.99 61.47 49.98 61.47 49.99 61.47" style="fill: #f6c759"/>
          <polygon points="49.99 74.28 49.99 75.28 42.03 70.7 42.04 69.68 49.99 74.28" style="fill: #ea601b"/>
          <polygon points="46 59.17 49.98 61.47 42.06 66.11 42.06 66.11 34.02 61.47 38.03 59.18 42.01 56.9 42.03 56.89 46 59.17" style="fill: #f8db98"/>
          <polygon points="46 40.76 46 45.37 45.99 45.36 38.03 49.96 38.03 59.18 34.02 61.47 34.02 66.11 34.02 66.11 42.03 70.7 38.03 72.98 14.13 59.18 46 40.76" style="fill: #fffaf2"/>
          <polygon points="46 45.37 49.99 47.66 42.01 52.27 38.03 49.96 45.99 45.36 46 45.37" style="fill: #f8db98"/>
          <polygon points="42.06 66.11 42.06 66.11 42.04 69.67 42.03 69.67 42.04 69.68 42.03 70.7 34.02 66.11 34.02 66.11 34.02 61.47 42.06 66.11" style="fill: #f4ad17"/>
          <polygon points="42.01 56.89 42.01 52.27 49.99 47.66 49.99 56.87 49.99 56.89 46 59.17 46 59.17 42.03 56.89 42.01 56.9 42.01 56.89" style="fill: #f6c759"/>
          <polygon points="42.01 56.89 42.01 56.9 38.03 59.18 38.03 49.96 42.01 52.27 42.01 56.89" style="fill: #f4ad17"/>
          <path d="M18.11,69.54l4,2.28v-4.6l-3-1.72-1-.58v4.62Zm15.92,8V74.13l-7-4-1-.55,0,4.58h0l8,4.62Zm4,6.91h0L14.13,70.7V59.18L38,73Z" style="fill: #f4ad17"/>
          <polygon points="34.04 74.13 34.03 77.59 27.08 73.55 27.06 73.55 27.06 70.1 27.06 70.09 34.04 74.13" style="fill: #fffaf2"/>
          <polygon points="34.03 77.59 34.02 78.73 26.07 74.12 27.06 73.55 27.08 73.55 34.03 77.59" style="fill: #ea601b"/>
          <polygon points="27.06 70.09 27.06 70.1 27.06 73.55 26.07 74.12 26.07 74.12 26.1 69.54 27.06 70.09" style="fill: #f1935a"/>
          <polygon points="22.08 70.69 22.08 71.82 18.11 69.54 19.1 68.97 19.11 68.97 22.08 70.69" style="fill: #ea601b"/>
          <polygon points="22.08 67.22 22.08 70.69 19.11 68.97 19.1 68.97 19.1 65.52 19.1 65.5 22.08 67.22" style="fill: #fffaf2"/>
          <polygon points="18.1 64.92 19.1 65.5 19.1 65.52 19.1 68.97 18.11 69.54 18.1 69.54 18.1 64.92" style="fill: #f1935a"/>
        </g>
        <g>
          <path d="M85.4,62.67a3.93,3.93,0,0,0-2.71,4.58A3.39,3.39,0,0,0,87,69.72a4,4,0,0,0,1.2-.6l-3.65-2.79.62-.92L89,68.32a3.8,3.8,0,0,0,.73-1.61,7.37,7.37,0,0,1-4.09-4.11Z" style="fill: #60bda0"/>
          <path d="M85.21,65.41l-.62.92,3.65,2.79a3.57,3.57,0,0,0,.8-.8Z" style="fill: #60bda0"/>
          <path d="M85.17,59.86a7.46,7.46,0,0,0,.51,2.74,3.39,3.39,0,0,1,4.07,2.55,3.73,3.73,0,0,1,0,1.56,8,8,0,0,0,2.2.55c0-1.72,0-3,0-3l1.53-.08s0,1.32,0,3.09a9,9,0,0,0,1.16-.17,5,5,0,0,1,1.46-5.35,4.33,4.33,0,0,1,4.69-.69,8.32,8.32,0,0,0,.2-1.82,8,8,0,0,0-8.33-7.82A8.15,8.15,0,0,0,85.17,59.86Z" style="fill: #60bda0"/>
          <path d="M89.75,65.15a3.39,3.39,0,0,0-4.07-2.55,7.37,7.37,0,0,0,4.09,4.11A3.73,3.73,0,0,0,89.75,65.15Z" style="fill: #60bda0"/>
          <path d="M88.24,69.12,92,72V70.53L89,68.32A3.57,3.57,0,0,1,88.24,69.12Z" style="fill: #ea9e7a"/>
          <path d="M92,72c0,2.31,0,4.3,0,4.51.11.39,1.11.58,1.53-.08,0-.27,0-3.5,0-6.57l-.47.29a.71.71,0,0,1-.72-.68H92c0,.37,0,.74,0,1.11.55.42.92.7,1,.76.23.56-.32,1-.62.92Z" style="fill: #ea9e7a"/>
          <path d="M92,70.53V72l.36.26c.3.13.85-.36.62-.92C92.88,71.23,92.51,71,92,70.53Z" style="fill: #ea9e7a"/>
          <path d="M92,69.42h.36a.34.34,0,0,1,.08-.23l1.11-.71V67.27l-.22,0a9.77,9.77,0,0,1-1.33,0Z" style="fill: #ea9e7a"/>
          <path d="M92,64.26s0,1.28,0,3a9.77,9.77,0,0,0,1.33,0l.22,0c0-1.77,0-3.09,0-3.09Z" style="fill: #60bda0"/>
          <path d="M92.41,69.19a.34.34,0,0,0-.08.23.71.71,0,0,0,.72.68l.47-.29V68.48Z" style="fill: #ea9e7a"/>
          <path d="M93.52,68.48v1.33l2-1.23a1.09,1.09,0,0,1-.13-.17,5.35,5.35,0,0,1-.49-.78Z" style="fill: #ea9e7a"/>
          <path d="M96.14,61.75a5,5,0,0,0-1.46,5.35,7.89,7.89,0,0,0,6.15-6A4.33,4.33,0,0,0,96.14,61.75Z" style="fill: #60bda0"/>
          <path d="M94.68,67.1c.06.18.13.35.21.53l5.76-3.57.65.91-5.79,3.61a4.29,4.29,0,0,0,6.15.44,5,5,0,0,0,.77-6.66,4.23,4.23,0,0,0-1.6-1.3A7.89,7.89,0,0,1,94.68,67.1Z" style="fill: #60bda0"/>
          <path d="M94.89,67.63a5.35,5.35,0,0,0,.49.78,1.09,1.09,0,0,0,.13.17L101.3,65l-.65-.91Z" style="fill: #60bda0"/>
        </g>
        <g>
          <path d="M2.8,63.41A3.92,3.92,0,0,0,.09,68a3.4,3.4,0,0,0,4.36,2.47,3.9,3.9,0,0,0,1.19-.59L2,67.07l.61-.92,3.84,2.9a3.81,3.81,0,0,0,.72-1.6,7.38,7.38,0,0,1-4.08-4.11A1.53,1.53,0,0,0,2.8,63.41Z" style="fill: #60bda0"/>
          <path d="M2.61,66.15,2,67.07l3.64,2.79a3.89,3.89,0,0,0,.81-.81Z" style="fill: #60bda0"/>
          <path d="M2.57,60.6a7.3,7.3,0,0,0,.52,2.74,3.37,3.37,0,0,1,4.06,2.55,3.57,3.57,0,0,1,0,1.56A8.05,8.05,0,0,0,9.38,68c0-1.73,0-3,0-3l1.52-.08s0,1.32,0,3.09a7.2,7.2,0,0,0,1.16-.17,5,5,0,0,1,1.46-5.35,4.33,4.33,0,0,1,4.69-.68,7.89,7.89,0,0,0-8.12-9.64A8.15,8.15,0,0,0,2.57,60.6Z" style="fill: #60bda0"/>
          <path d="M7.15,65.89a3.37,3.37,0,0,0-4.06-2.55,7.38,7.38,0,0,0,4.08,4.11A3.57,3.57,0,0,0,7.15,65.89Z" style="fill: #60bda0"/>
          <path d="M5.64,69.86c1.49,1.14,3,2.31,3.73,2.82,0-.46,0-.94,0-1.41L6.45,69.05A3.89,3.89,0,0,1,5.64,69.86Z" style="fill: #ea9e7a"/>
          <path d="M9.37,72.68c0,2.32,0,4.31,0,4.52.1.38,1.1.57,1.52-.09,0-.26,0-3.49,0-6.56l-.46.28a.71.71,0,0,1-.73-.68H9.37v1.12l1,.75c.24.57-.32,1-.61.92A3.33,3.33,0,0,1,9.37,72.68Z" style="fill: #ea9e7a"/>
          <path d="M9.37,71.27c0,.47,0,1,0,1.41a3.33,3.33,0,0,0,.36.26c.29.13.85-.35.61-.92Z" style="fill: #ea9e7a"/>
          <path d="M9.37,70.15h.36a.36.36,0,0,1,.08-.23l1.11-.7V68l-.22,0a8.26,8.26,0,0,1-1.32,0C9.37,68.66,9.37,69.4,9.37,70.15Z" style="fill: #ea9e7a"/>
          <path d="M9.39,65s0,1.28,0,3a8.26,8.26,0,0,0,1.32,0l.22,0c0-1.77,0-3.09,0-3.09Z" style="fill: #60bda0"/>
          <path d="M9.81,69.92a.36.36,0,0,0-.08.23.71.71,0,0,0,.73.68l.46-.28V69.22Z" style="fill: #ea9e7a"/>
          <path d="M10.92,69.22v1.33l2-1.24-.14-.16a4.27,4.27,0,0,1-.48-.79Z" style="fill: #ea9e7a"/>
          <path d="M13.54,62.48a5,5,0,0,0-1.46,5.35,7.87,7.87,0,0,0,6.15-6A4.33,4.33,0,0,0,13.54,62.48Z" style="fill: #60bda0"/>
          <path d="M12.08,67.83a4.93,4.93,0,0,0,.22.53l5.76-3.57.64.91-5.78,3.61a4.28,4.28,0,0,0,6.15.44,5,5,0,0,0,.76-6.66,4.2,4.2,0,0,0-1.6-1.29A7.87,7.87,0,0,1,12.08,67.83Z" style="fill: #60bda0"/>
          <path d="M12.3,68.36a4.27,4.27,0,0,0,.48.79l.14.16L18.7,65.7l-.64-.91Z" style="fill: #60bda0"/>
        </g>
        <g>
          <g>
            <path d="M69.67,84.26s0-.05,0-.07v0l0,0,.11.16a1,1,0,0,1,.17.32h0a.15.15,0,0,1-.24-.17A.37.37,0,0,0,69.67,84.26Z" style="fill: #f8db98"/>
            <path d="M69.15,85.8h0Z" style="fill: #845d50"/>
            <path d="M69.1,85.81h0Z" style="fill: #f4b425"/>
            <path d="M69.26,84.9c.13.13,0,.31-.22.26s-.17-.4,0-.58a.08.08,0,0,1,.08,0s0,0,0,.06A.36.36,0,0,0,69.26,84.9Z" style="fill: #f8db98"/>
            <path d="M69.2,83.61c.06.13.18.3.16.45s-.22.2-.36.13-.23-.34-.25-.55a2.49,2.49,0,0,0-.09-.46l.36-.09a3.71,3.71,0,0,0,.16.47Z" style="fill: #f8db98"/>
            <path d="M68.59,85.73l-.08,0-.09-.06.09.06Z" style="fill: #845d50"/>
            <path d="M68.47,80.2a.92.92,0,0,0-.08-.27,1.72,1.72,0,0,0,.08-.84C68.71,79.52,68.71,80,68.47,80.2Z" style="fill: #f8db98"/>
            <path d="M68.57,82.89a3.1,3.1,0,0,0-.38-.69.91.91,0,0,1-.16-.73.38.38,0,0,1,.68-.15c.27.31.16.9.21,1.27,0,.17.06.33.1.5l-.36.09h0A1.9,1.9,0,0,0,68.57,82.89Z" style="fill: #f8db98"/>
            <path d="M68.38,80.12l0,.12h0S68.39,80.17,68.38,80.12Z" style="fill: #f8db98"/>
            <path d="M68.26,85.3l0,.09Z" style="fill: #cfc3c1"/>
            <path d="M68.23,80a.3.3,0,0,1,0,.1l0,0A.09.09,0,0,1,68.23,80Z" style="fill: #f8db98"/>
            <path d="M69.71,85.54l-.12.11h0a.53.53,0,0,1-.15.08h0l-.15.05h-.42l-.14,0h0l-.09,0-.08,0-.09-.06-.06-.07a.51.51,0,0,1-.07-.17l0-.09a.94.94,0,0,0,0-.16,1.1,1.1,0,0,0,1.62.25h0l-.1.12S69.72,85.54,69.71,85.54Z" style="fill: #f4b425"/>
            <path d="M68.47,79.09a1.72,1.72,0,0,1-.08.84,1.07,1.07,0,0,0-.16-.25.66.66,0,0,0-.15-.14,1,1,0,0,0,0-.1,1.09,1.09,0,0,1,.25.1.72.72,0,0,0-.24-.14,1.7,1.7,0,0,0,.09-.5.06.06,0,0,1,.1,0A1.14,1.14,0,0,1,68.47,79.09Z" style="fill: #f4b425"/>
            <path d="M68.08,79.54a1,1,0,0,0-.29-.11.92.92,0,0,1,.33,0A1,1,0,0,1,68.08,79.54Z" style="fill: #f8db98"/>
            <path d="M67.44,82.25a.07.07,0,0,1,0-.08.06.06,0,0,1,.08,0,.08.08,0,0,1,0,.08A.09.09,0,0,1,67.44,82.25Z" style="fill: #f4b425"/>
            <path d="M67.39,82.17a.07.07,0,0,0,0,.08.09.09,0,0,0,.08,0,.08.08,0,0,0,0-.08A.06.06,0,0,0,67.39,82.17Zm.12.31a.35.35,0,0,1-.22-.36.22.22,0,0,1,.3,0,.47.47,0,0,1,.16.33A.31.31,0,0,1,67.51,82.48Z" style="fill: #f4b425"/>
            <path d="M67.29,82.12a.35.35,0,0,0,.22.36.31.31,0,0,0,.24-.07.85.85,0,0,0,0,.17c-.1-.1-.15,0-.32,0s-.21-.37-.21-.37Z" style="fill: #f4b425"/>
            <path d="M67.16,80.9h0a.76.76,0,0,0-.16,0Z" style="fill: #5a342c"/>
            <path d="M67.74,79.59a.93.93,0,0,1,.39.46,1.08,1.08,0,0,0-.29-.31,1,1,0,0,1,.1,1.11,1.35,1.35,0,0,0,0-.72.69.69,0,0,1-.06.53.75.75,0,0,1-.21.32c0-.08.1-.15.13-.21l0,0a1,1,0,0,1-.55.32,3.37,3.37,0,0,0,.32-.19,1.27,1.27,0,0,1-.64,0l.06,0,.07,0a.76.76,0,0,1,.16,0h0c.23,0,.26-.16.26-.32a1.81,1.81,0,0,0-.1-.47,4.42,4.42,0,0,1-.14-.52l.06-.09a.22.22,0,0,1,.11,0h.1A.64.64,0,0,1,67.74,79.59Z" style="fill: #f8db98"/>
            <path d="M67.12,79.56c-.06.61.25,1.1,0,1.11C66.71,80.67,66.86,79.87,67.12,79.56Z" style="fill: #f8db98"/>
            <path d="M67.12,80.67c.25,0-.06-.5,0-1.11C66.86,79.87,66.71,80.67,67.12,80.67Zm.23-.56a1.81,1.81,0,0,1,.1.47c0,.16,0,.32-.26.32h0c-.31,0-.42-.37-.38-.74a2.14,2.14,0,0,1,.09-.34,1.08,1.08,0,0,1,.16-.3l.07-.08a.06.06,0,0,1,.1,0s0,.08,0,.12A4.42,4.42,0,0,0,67.35,80.11Z" style="fill: #f4b425"/>
            <path d="M68.47,80.49l0-.16,0-.09,0-.12s0,.08,0,.13v0a1,1,0,0,1-.31.81,1,1,0,0,0,.23-.84.5.5,0,0,0,0-.13.3.3,0,0,0,0-.1.09.09,0,0,0,0,0,1.11,1.11,0,0,1,0,.17,1,1,0,0,1-.19.77c-.26.33-.68.32-1,.54a.75.75,0,0,1,.19-.17l-.1,0a.76.76,0,0,0-.39.36.71.71,0,0,1,.35-.41c-.27.1-.47.24-.46.57a.84.84,0,0,1,0-.56l-.14.25a.57.57,0,0,1,.13-.35l-.19.16a.83.83,0,0,1,.43-.45,1.27,1.27,0,0,0,.64,0,3.37,3.37,0,0,1-.32.19,1,1,0,0,0,.55-.32l0,0c0,.06-.08.13-.13.21a.75.75,0,0,0,.21-.32.69.69,0,0,0,.06-.53,1.35,1.35,0,0,1,0,.72,1,1,0,0,0-.1-1.11,1.08,1.08,0,0,1,.29.31.93.93,0,0,0-.39-.46.64.64,0,0,0-.26-.1h-.1a.22.22,0,0,0-.11,0,.62.62,0,0,1,.14-.14.5.5,0,0,1,.51-.1.7.7,0,0,0-.48.18h.07a.71.71,0,0,1,.62,0,.72.72,0,0,1,.24.14,1.09,1.09,0,0,0-.25-.1.92.92,0,0,0-.33,0,1,1,0,0,1,.29.11.66.66,0,0,1,.15.14,1.07,1.07,0,0,1,.16.25.92.92,0,0,1,.08.27,1.34,1.34,0,0,1,0,.2S68.47,80.46,68.47,80.49Z" style="fill: #f8db98"/>
            <path d="M65.35,79.54a.63.63,0,0,1,.22-.05.58.58,0,0,0-.21.07S65.34,79.55,65.35,79.54Z" style="fill: #f8db98"/>
            <path d="M64.74,79.89h0Z" style="fill: #5a342c"/>
            <path d="M64.63,79.92l.1,0Z" style="fill: #5a342c"/>
            <path d="M64,87.41a.6.6,0,0,0,.08-.08s0,0,0,0Z" style="fill: #6d4c41"/>
            <path d="M64,80.07a1.67,1.67,0,0,0,.67-.14,2,2,0,0,1-.68.16S63.93,80.06,64,80.07Z" style="fill: #f8db98"/>
            <path d="M63.9,80.21h0Z" style="fill: #f8db98"/>
            <path d="M63.89,80.21l-.1,0Z" style="fill: #5a342c"/>
            <path d="M63.79,80.23a.81.81,0,0,0-.52.31s0,0,0,0A.88.88,0,0,1,63.79,80.23Z" style="fill: #f8db98"/>
            <path d="M63.72,90.91c0,.26-.12.35-.16.6a8.89,8.89,0,0,0-.13,1.63l-.06,0-.07,0a.14.14,0,0,1-.09,0l-.09,0s-.1,0-.13,0l-.05,0h0v0c0-1-.07-1.49-.1-1.91s-.17-.42-.19-.77.07-.38.06-.6c0-.54-.07-1.1-.11-1.61h0l.24-.09.07,0a.61.61,0,0,0,.14-.07l.09,0,.09-.05.15-.09.07-.05.18-.13,0,0,.21-.18.05-.06,0,0,0,0c-.07.87-.38,1.79-.4,2.64C63.6,90.49,63.74,90.46,63.72,90.91Z" style="fill: #f8db98"/>
            <path d="M63.81,95.23a.79.79,0,0,1-.88-.35.81.81,0,0,1,0-.16s.44.4.76,0a.13.13,0,0,0,0-.12,1.1,1.1,0,0,1,.16.52A.43.43,0,0,1,63.81,95.23Z" style="fill: #ea601b"/>
            <path d="M62.93,94.88a.79.79,0,0,0,.88.35h0l0,0h0l-.05,0h0l0,0h-.32l-.07,0h0l0,0,0,0,0,0,0,0,0,0,0,0a.1.1,0,0,1,0-.05v0L63,95v0Z" style="fill: #ea601b"/>
            <path d="M63.68,94.71c-.32.41-.76,0-.76,0a.86.86,0,0,0,0-.15c0-.39-.19-.33-.19-.57s.17-.41.17-.54v-.27h0l.05,0s.09,0,.13,0l.09,0a.14.14,0,0,0,.09,0l.07,0,.06,0a1.34,1.34,0,0,1,0,.2v.11c0,.14,0,.27,0,.41a2.08,2.08,0,0,0,.25.73A.13.13,0,0,1,63.68,94.71Z" style="fill: #f8db98"/>
            <path d="M62.85,88.18l.21-.1a.61.61,0,0,1-.14.07Z" style="fill: #cfc3c1"/>
            <path d="M62.94,80.8c-.13,0-.27,0-.36.1s0,0,0,0S62.81,80.8,62.94,80.8Z" style="fill: #f8db98"/>
            <path d="M62.51,88.3l.1,0h0Z" style="fill: #6d4c41"/>
            <path d="M66.52,83.26a1.81,1.81,0,0,0,.92,1c.27.11.52.21.58.57t0,0c-.48-.47-1.39-.5-1.74-1.44a2.09,2.09,0,0,0-.89,1.41,3.63,3.63,0,0,1-.76,1.86h0s-1.73,1.53-3,1.29a2.68,2.68,0,0,0-.07-.27h0a1.66,1.66,0,0,1,.1-1.26c.25-.3.65-.24,1-.22a1.42,1.42,0,0,0,1-.43,3.35,3.35,0,0,0,.74-1.09,5.84,5.84,0,0,1,.54-1.26,3.68,3.68,0,0,1,.59-.76,1.68,1.68,0,0,1,.43-.28.39.39,0,0,1,.25,0C66.5,82.39,66.44,83,66.52,83.26Z" style="fill: #f4b425"/>
            <path d="M62.32,81.74l0,0S62.31,81.75,62.32,81.74Z" style="fill: #f8db98"/>
            <path d="M62,88.41h0Z" style="fill: #6d4c41"/>
            <path d="M61.93,88.42l-.26,0h0Z" style="fill: #6d4c41"/>
            <path d="M63.69,87.68l0,0-.18.13-.07.05-.15.09-.09.05-.09,0-.21.1-.24.09-.1,0-.21,0h0l-.28,0h0l-.26,0a2.91,2.91,0,0,0,0-.51c1.23.24,2.92-1.26,3-1.29h0l-.26.35-.11.15s0,0,0,0l0,0a.69.69,0,0,1-.11.13.6.6,0,0,1-.08.08l0,0-.05.06Z" style="fill: #f4b425"/>
            <path d="M65.94,79.6l-.15,0a.56.56,0,0,0-.15.1Zm-3.31,1.48a1,1,0,0,0-.49.2C62.27,81.23,62.42,81.18,62.63,81.08Zm1-.64a1.2,1.2,0,0,0-.21.17h0l.19-.11.27-.16Zm2.43-.87a4.45,4.45,0,0,1,.5,0,2,2,0,0,0-.26-.07.64.64,0,0,0-.47.07Zm-2.55.89a1.31,1.31,0,0,1,.36-.17.79.79,0,0,0-.63.25.81.81,0,0,1,.52-.31l.1,0h.29l.48-.23a1.49,1.49,0,0,1-.72.11,2,2,0,0,0,.68-.16h0l.1,0h.2l.29-.1a1.53,1.53,0,0,0-.87.2s0,0,0,0a1.54,1.54,0,0,1,1.08-.23h.06a1.2,1.2,0,0,1,.21-.17.7.7,0,0,0-.32,0,.58.58,0,0,1,.21-.07h.18s0,0,0,0c.34-.19.62,0,.95,0H67a1.08,1.08,0,0,0-.16.3,1.06,1.06,0,0,1-.31,0l-.31.07a2.26,2.26,0,0,0-.61.37,1.5,1.5,0,0,1,.62-.45h-.15l-.21.1a1.93,1.93,0,0,0-.57.53,1,1,0,0,1,.18-.3c-.06.06-.13.12-.18.18a2.77,2.77,0,0,0-.56.79s0,0,0,0a3.09,3.09,0,0,1,.14-.32c-.33.16-.71.2-1,.5a1.35,1.35,0,0,1,.59-.44.68.68,0,0,0-.41.19.57.57,0,0,1,.37-.29l.16-.06a1.73,1.73,0,0,0-.75.35l-.06.06a2.23,2.23,0,0,0-.54.68.12.12,0,0,1,0-.1,2.26,2.26,0,0,0-.22.44,1,1,0,0,1,.21-.64h-.08a.78.78,0,0,0-.34.56.62.62,0,0,1,.2-.55l-.06,0a1.89,1.89,0,0,0-.5.33,1.22,1.22,0,0,1,.3-.3l-.07,0-.09,0a1.79,1.79,0,0,0-.52.38.82.82,0,0,1,.22-.27l0,0s0,0,0,0a1.42,1.42,0,0,0-.39.42,0,0,0,0,1,0,0,1.5,1.5,0,0,1,.45-.52l-.1,0a2.07,2.07,0,0,0-.65.21.76.76,0,0,1,.22-.17l-.43.18a1.27,1.27,0,0,1,.27-.18.3.3,0,0,1-.19,0,.12.12,0,0,1-.06-.06h0a.92.92,0,0,1,.56-.27,1.08,1.08,0,0,1,.81-.28,1.34,1.34,0,0,0,.24-.12,2,2,0,0,0-.42,0c.09-.11.23-.1.36-.1h.12a1,1,0,0,0,.27-.13A.8.8,0,0,1,63.54,80.46Z" style="fill: #f8db98"/>
            <path d="M61.1,95.2a2,2,0,0,0,.24.73.13.13,0,0,1,0,.12.4.4,0,0,1-.32.18,1.53,1.53,0,0,1-.37-.89,2.49,2.49,0,0,1,.06-.9c.17.11.31.11.39-.1v0C61.08,94.63,61.09,94.89,61.1,95.2Z" style="fill: #f4b425"/>
            <path d="M63.55,82.49l.13-.31a2.1,2.1,0,0,0-.13.26c-.09.2-.14.33-.14.33a1.85,1.85,0,0,1,0-.3l-.06.17a3.43,3.43,0,0,0,0,.64s0,0,0,0,0-.25,0-.39a1.53,1.53,0,0,0,0,.3l0,0,.09.5s0,0,0,0a3.47,3.47,0,0,1-.19-.72,2.35,2.35,0,0,1-.1-.22c0,.12,0,.23,0,.35s0,0,0,0a3.51,3.51,0,0,1-.15-.6v.05l0,.19,0,0a1.57,1.57,0,0,0,.16.67s0,0,0,0a1.82,1.82,0,0,1-.26-.74l0-.28a1.5,1.5,0,0,0,0,.29,0,0,0,0,1,0,0,1.43,1.43,0,0,1-.09-.41,2.93,2.93,0,0,0-.4.46h0a2.46,2.46,0,0,1,.17-.27l-.25.23a.82.82,0,0,1,.06-.26,1,1,0,0,1,.07-.15.74.74,0,0,0-.13.12,4,4,0,0,0-.16.82,0,0,0,0,1,0,0,2.06,2.06,0,0,1,0-.43h0a.14.14,0,0,1,0-.06.29.29,0,0,1,0-.09,1.13,1.13,0,0,0-.11.22,2.47,2.47,0,0,0,0,.61s0,0,0,0a3.41,3.41,0,0,1,0-.85v-.12c0,.21-.08.42-.12.63,0,0,0,0,0,0a1.82,1.82,0,0,1,0-.57,1.66,1.66,0,0,1,.13-.52,1.22,1.22,0,0,1,.07-.17l-.15.08a1.59,1.59,0,0,0-.64.8,0,0,0,0,1,0,0,1.43,1.43,0,0,1,.54-.83.73.73,0,0,0-.42.36.73.73,0,0,1,.05-.3,1.15,1.15,0,0,0-.35.48h0c0-.22.27-.48.41-.64l0,0a1.19,1.19,0,0,0-.42.26s0,0,0,0a.81.81,0,0,1,.35-.31l-.22,0s0,0,0,0a1,1,0,0,1,.42-.1l0,0a.12.12,0,0,0,.06.06.3.3,0,0,0,.19,0,1.27,1.27,0,0,0-.27.18l.43-.18a.76.76,0,0,0-.22.17,2.07,2.07,0,0,1,.65-.21l.1,0a1.5,1.5,0,0,0-.45.52,0,0,0,0,0,0,0,1.42,1.42,0,0,1,.39-.42.82.82,0,0,0-.22.27,1.79,1.79,0,0,1,.52-.38l.09,0,.07,0a1.22,1.22,0,0,0-.3.3,1.89,1.89,0,0,1,.5-.33l.06,0a.62.62,0,0,0-.2.55.78.78,0,0,1,.34-.56h.08a1,1,0,0,0-.21.64,2.26,2.26,0,0,1,.22-.44.12.12,0,0,0,0,.1,2.23,2.23,0,0,1,.54-.68l.06-.06a1.73,1.73,0,0,1,.75-.35l-.16.06a.57.57,0,0,0-.37.29.68.68,0,0,1,.41-.19,1.35,1.35,0,0,0-.59.44c.26-.3.64-.34,1-.5a3.09,3.09,0,0,0-.14.32s0,0,0,0a2.77,2.77,0,0,1,.56-.79c0-.06.12-.12.18-.18a1,1,0,0,0-.18.3A1.93,1.93,0,0,1,65.9,80l.21-.1h.15a1.5,1.5,0,0,0-.62.45,2.26,2.26,0,0,1,.61-.37l.31-.07a1.06,1.06,0,0,0,.31,0,2.14,2.14,0,0,0-.09.34,2.58,2.58,0,0,0-.18.46h0a.83.83,0,0,1,.1-.34.1.1,0,0,1,0,0,3.1,3.1,0,0,0-.21.45s0,0,0,0a.78.78,0,0,1,0-.22l-.13.16a.7.7,0,0,1,0-.23.45.45,0,0,1,0-.11l-.09.14a2.29,2.29,0,0,0-.05.7s0,0,0,0a2.7,2.7,0,0,1,0-.57v0a3,3,0,0,0,0,.33h0a3.63,3.63,0,0,0,.1.45,0,0,0,0,1,0,0,2.07,2.07,0,0,1-.19-.74s0-.11,0-.18a.28.28,0,0,0,0,.09,1.93,1.93,0,0,0,.1.72s0,0,0,0a2.29,2.29,0,0,1-.17-.84,1.27,1.27,0,0,0-.13.19.54.54,0,0,0,0,.11,7.93,7.93,0,0,0-.25.83h0a2.61,2.61,0,0,1,.11-.61,2,2,0,0,0-.28,1s0,0,0,0a1.17,1.17,0,0,1,.1-.81l0,0c-.08.19-.15.37-.24.55h0a2.33,2.33,0,0,1,.23-.72,4.11,4.11,0,0,0-.27.56s0,0,0,0,.11-.29.18-.44l-.11.16-.19.25s0-.12,0-.31a2,2,0,0,0-.15.47c0,.12,0,.24,0,.36s0,0,0,0a.3.3,0,0,1,0,.1s0,0,0,0a1.86,1.86,0,0,1-.1-.25,2.42,2.42,0,0,0,.2.61s0,0,0,0a1.75,1.75,0,0,1-.2-.47,4.13,4.13,0,0,1-.15-.5c0,.13,0,.24,0,.37a0,0,0,0,1,0,0c0,.14.08.27.13.4s0,0,0,0a4.76,4.76,0,0,1-.26-.78l0,.19s0,0,0,0a1.59,1.59,0,0,1,0-.38,4.18,4.18,0,0,0-.4.91s0,0,0,0a4.27,4.27,0,0,1,.28-.88,3.59,3.59,0,0,0-.42,1.13s0,0,0,0a3.43,3.43,0,0,1,.06-.34,1.42,1.42,0,0,0-.11.66s0,0,0,0a1.91,1.91,0,0,1,.07-.71l-.09.2S63.55,82.51,63.55,82.49Z" style="fill: #f8db98"/>
            <path d="M67.47,82.53c.17,0,.22,0,.32,0a.85.85,0,0,1,0-.17.47.47,0,0,0-.16-.33.22.22,0,0,0-.3,0l0,0S67.29,82.49,67.47,82.53Zm1.79,2.37a.36.36,0,0,1-.13-.28s0-.06,0-.06a.08.08,0,0,0-.08,0c-.14.18-.22.53,0,.58S69.39,85,69.26,84.9Zm-.69-2a1.9,1.9,0,0,1,.09.29h0a2.49,2.49,0,0,1,.09.46c0,.21,0,.45.25.55s.34,0,.36-.13-.1-.32-.16-.45l0,0a3.71,3.71,0,0,1-.16-.47c0-.17-.07-.33-.1-.5,0-.37.06-1-.21-1.27a.38.38,0,0,0-.68.15.91.91,0,0,0,.16.73A3.1,3.1,0,0,1,68.57,82.89Zm-.13-2.56,0,.16s0-.06,0-.09a.73.73,0,0,0,.1.13A1.6,1.6,0,0,1,69,81.76a5.15,5.15,0,0,0,.48,2.17,2.43,2.43,0,0,0,.15.26h0s0,0,0,.07a.37.37,0,0,1,.07.3.15.15,0,0,0,.24.17h0a1,1,0,0,1-.14.64h0a1.1,1.1,0,0,1-1.62-.25h0a.93.93,0,0,0-.2-.3c-.06-.36-.31-.46-.58-.57a1.81,1.81,0,0,1-.92-1c-.08-.29,0-.87-.33-1a.39.39,0,0,0-.25,0,1.68,1.68,0,0,0-.43.28,3.68,3.68,0,0,0-.59.76,5.84,5.84,0,0,0-.54,1.26,3.35,3.35,0,0,1-.74,1.09,1.42,1.42,0,0,1-1,.43c-.34,0-.74-.08-1,.22a1.66,1.66,0,0,0-.1,1.26h0a2.68,2.68,0,0,1,.07.27,2.91,2.91,0,0,1,0,.51h0c0,1-.4,2-.41,2.92,0,.47.12.44.11.89,0,.26-.13.35-.17.59s-.06.42-.08.59c0,.35,0,.64,0,.91s-.22.21-.39.1a4.24,4.24,0,0,0,.13-.78,2.82,2.82,0,0,0-.3-1.36,2.16,2.16,0,0,1-.08-1.23,15.89,15.89,0,0,0,0-2.29c0-.15,0-.3,0-.45,0-.37.1-.75.12-1.13a1.6,1.6,0,0,0,0-.31c-.05-1-.77-1.44-1.66-1.79a15.92,15.92,0,0,1-2.38-1.17A3.09,3.09,0,0,1,55,82.49l-.06-.16c-.15-.4.25-1.44-.29-1.53-.32,0-.58,1-.91,1.78-.24.58-.52,1.07-.88,1-.87-.16-1.21-2.79-.45-4.61h0a1.26,1.26,0,0,1,.13-.17,3.13,3.13,0,0,1,.52-.56A2.62,2.62,0,0,1,55.86,78c1.58.7,1.78,2.13,3.77,3.09a4.21,4.21,0,0,0,1.76.5h0l0,0a1,1,0,0,0-.42.1s0,0,0,0l.22,0a.81.81,0,0,0-.35.31s0,0,0,0a1.19,1.19,0,0,1,.42-.26l0,0c-.14.16-.42.42-.41.64h0a1.15,1.15,0,0,1,.35-.48.73.73,0,0,0-.05.3.73.73,0,0,1,.42-.36,1.43,1.43,0,0,0-.54.83,0,0,0,0,0,0,0,1.59,1.59,0,0,1,.64-.8l.15-.08a1.22,1.22,0,0,0-.07.17,1.66,1.66,0,0,0-.13.52,1.82,1.82,0,0,0,0,.57s0,0,0,0c0-.21.07-.42.12-.63v.12a3.41,3.41,0,0,0,0,.85s0,0,0,0a2.47,2.47,0,0,1,0-.61,1.13,1.13,0,0,1,.11-.22.29.29,0,0,0,0,.09.14.14,0,0,0,0,.06h0a2.06,2.06,0,0,0,0,.43,0,0,0,0,0,0,0,4,4,0,0,1,.16-.82.74.74,0,0,1,.13-.12,1,1,0,0,0-.07.15.82.82,0,0,0-.06.26l.25-.23a2.46,2.46,0,0,0-.17.27h0a2.93,2.93,0,0,1,.4-.46,1.43,1.43,0,0,0,.09.41,0,0,0,0,0,0,0,1.5,1.5,0,0,1,0-.29l0,.28a1.82,1.82,0,0,0,.26.74s0,0,0,0a1.57,1.57,0,0,1-.16-.67l0,0,0-.19v-.05a3.51,3.51,0,0,0,.15.6s0,0,0,0,0-.23,0-.35a2.35,2.35,0,0,0,.1.22,3.47,3.47,0,0,0,.19.72s0,0,0,0l-.09-.5,0,0a1.53,1.53,0,0,1,0-.3c0,.14,0,.27,0,.39s0,0,0,0a3.43,3.43,0,0,1,0-.64l.06-.17a1.85,1.85,0,0,0,0,.3s.05-.13.14-.33a2.1,2.1,0,0,1,.13-.26l-.13.31s0,0,0,0l.09-.2a1.91,1.91,0,0,0-.07.71s0,0,0,0a1.42,1.42,0,0,1,.11-.66,3.43,3.43,0,0,0-.06.34s0,0,0,0a3.59,3.59,0,0,1,.42-1.13,4.27,4.27,0,0,0-.28.88s0,0,0,0a4.18,4.18,0,0,1,.4-.91,1.59,1.59,0,0,0,0,.38s0,0,0,0l0-.19a4.76,4.76,0,0,0,.26.78s0,0,0,0-.09-.26-.13-.4a0,0,0,0,0,0,0c0-.13,0-.24,0-.37a4.13,4.13,0,0,0,.15.5,1.75,1.75,0,0,0,.2.47s0,0,0,0a2.42,2.42,0,0,1-.2-.61,1.86,1.86,0,0,0,.1.25s0,0,0,0a.3.3,0,0,0,0-.1s0,0,0,0,0-.24,0-.36a2,2,0,0,1,.15-.47c0,.19,0,.31,0,.31l.19-.25.11-.16c-.07.15-.13.3-.18.44s0,0,0,0a4.11,4.11,0,0,1,.27-.56,2.33,2.33,0,0,0-.23.72h0c.09-.18.16-.36.24-.55l0,0a1.17,1.17,0,0,0-.1.81s0,0,0,0a2,2,0,0,1,.28-1,2.61,2.61,0,0,0-.11.61h0a7.93,7.93,0,0,1,.25-.83.54.54,0,0,1,0-.11,1.27,1.27,0,0,1,.13-.19,2.29,2.29,0,0,0,.17.84s0,0,0,0a1.93,1.93,0,0,1-.1-.72.28.28,0,0,1,0-.09c0,.07,0,.13,0,.18a2.07,2.07,0,0,0,.19.74,0,0,0,0,0,0,0,3.63,3.63,0,0,1-.1-.45h0a3,3,0,0,1,0-.33v0a2.7,2.7,0,0,0,0,.57s0,0,0,0a2.29,2.29,0,0,1,.05-.7l.09-.14a.45.45,0,0,0,0,.11.7.7,0,0,0,0,.23l.13-.16a.78.78,0,0,0,0,.22s0,0,0,0a3.1,3.1,0,0,1,.21-.45.1.1,0,0,0,0,0,.83.83,0,0,0-.1.34h0a2.58,2.58,0,0,1,.18-.46c0,.37.07.71.38.74l-.15,0-.07,0-.06,0a.83.83,0,0,0-.43.45l.19-.16a.57.57,0,0,0-.13.35l.14-.25a.84.84,0,0,0,0,.56c0-.33.19-.47.46-.57a.71.71,0,0,0-.35.41.76.76,0,0,1,.39-.36l.1,0a.75.75,0,0,0-.19.17c.33-.22.75-.21,1-.54a1,1,0,0,0,.19-.77,1.11,1.11,0,0,0,0-.17l0,0a.5.5,0,0,1,0,.13,1,1,0,0,1-.23.84,1,1,0,0,0,.31-.81A.21.21,0,0,0,68.44,80.33Z" style="fill: #f4b425"/>
            <path d="M60.58,96.22a.79.79,0,0,0,.87.35h0a0,0,0,0,1,0,0l0,0,0,0h0l0,0h-.36l-.06,0h0l-.08,0h0l-.06-.06s0,0,0,0l0-.06s0,0,0,0h0a.14.14,0,0,1,0-.07,0,0,0,0,1,0,0A.27.27,0,0,1,60.58,96.22Z" style="fill: #ea601b"/>
            <path d="M61,96.23a.63.63,0,0,1-.41-.18h0a.72.72,0,0,0,0-.42c-.06-.11-.14-.14-.14-.3s.17-.4.17-.53v-.47l.06,0,.08.07a2.49,2.49,0,0,0-.06.9,1.53,1.53,0,0,0,.37.89Z" style="fill: #f4b425"/>
            <path d="M61.34,95.93a1,1,0,0,1,.16.51.24.24,0,0,1,0,.13.79.79,0,0,1-.87-.35.91.91,0,0,1,0-.17.63.63,0,0,0,.41.18h0a.4.4,0,0,0,.32-.18A.13.13,0,0,0,61.34,95.93Z" style="fill: #ea601b"/>
            <path d="M56.82,86.21c1.91,1.64,3.13.53,3.13,1a4.28,4.28,0,0,0,.19,1.06v0h0a5.37,5.37,0,0,1-.56-.21L59.39,88c-.19-.07-.37-.16-.56-.24l-.1-.06a5.42,5.42,0,0,1-.48-.26l-.1,0-.5-.32L57.54,87c-.17-.12-.34-.24-.5-.37h0l-.31-.27Z" style="fill: #f4b425"/>
            <path d="M60.82,93.66a4.24,4.24,0,0,1-.13.78l-.08-.07-.06,0v-.2c0-.5,0-.86-.06-1.14s0-.27,0-.39c0-.38-.17-.42-.2-.77s.08-.38.06-.6c0-.54-.07-1.08-.1-1.59s0-1-.08-1.39v0A4.28,4.28,0,0,1,60,87.17c0-.43-1.22.68-3.13-1a9.2,9.2,0,0,1-1.53-1.79,8.24,8.24,0,0,1-.66-1.92H55a3.09,3.09,0,0,0,1.5,1.44,15.92,15.92,0,0,0,2.38,1.17c.89.35,1.61.8,1.66,1.79a1.6,1.6,0,0,1,0,.31c0,.38-.09.76-.12,1.13,0,.15,0,.3,0,.45a15.89,15.89,0,0,1,0,2.29,2.16,2.16,0,0,0,.08,1.23A2.82,2.82,0,0,1,60.82,93.66Z" style="fill: #f4b425"/>
            <path d="M54.84,89.3c0,.35.21.47.21.61A.12.12,0,0,1,55,90a.36.36,0,0,1-.36.19.54.54,0,0,1-.4-.16c0-.26-.16-.32-.19-.52s.12-.38.09-.56-.05-.28-.07-.42l.25,0a.5.5,0,0,0,.38-.18,3.18,3.18,0,0,1,0,.34C54.79,88.85,54.82,89.06,54.84,89.3Z" style="fill: #f8db98"/>
            <path d="M54.9,90.68h-.27l0,0h0l-.07,0,0,0,0,0,0,0,0,0,0,0a.14.14,0,0,0,0-.06l0,0a.5.5,0,0,1,0-.12.77.77,0,0,0,.87.35l0,0,0,0,0,0h0l0,0h-.1Z" style="fill: #ea601b"/>
            <path d="M55.15,90.54a.77.77,0,0,1-.87-.35.86.86,0,0,1,0-.17.54.54,0,0,0,.4.16A.36.36,0,0,0,55,90a.12.12,0,0,0,0-.08,1,1,0,0,1,.15.5A.21.21,0,0,1,55.15,90.54Z" style="fill: #ea601b"/>
            <path d="M55.48,85.1h0a3.09,3.09,0,0,1-.83,1c-.12.09-.16.27-.12.66.07.57.12,1,.19,1.59a.5.5,0,0,1-.38.18l-.25,0a2.38,2.38,0,0,1-.05-.26c-.27-1.34-.54-2-.61-2.42a5.3,5.3,0,0,0,.23-.67c.22-.17.48-.26.41-1.41h0l0,0a.36.36,0,0,1,.33.12h0l0,0,0,0,0,0h0l.1.13.1.13C55,84.52,55.23,84.82,55.48,85.1Z" style="fill: #f8db98"/>
            <path d="M54.64,80.8c.54.09.14,1.13.29,1.53l.06.16h-.36a.27.27,0,0,0-.16-.17c-.27-.09-.42.09-.5.35l-.24-.1C54.06,81.76,54.32,80.75,54.64,80.8Z" style="fill: #f4b425"/>
            <path d="M56,85.66,56,85.6c-.15-.15-.3-.31-.44-.47l0,0h0c-.25-.28-.49-.58-.73-.89l-.1-.13a1.13,1.13,0,0,1-.1-.13h0l0,0,0,0,0,0h0a.36.36,0,0,0-.33-.12l0,0h0a0,0,0,0,0,0,0s0,0,0,0A.35.35,0,0,0,54,84v0a2.63,2.63,0,0,1,0-1.3c.08-.26.23-.44.5-.35a.27.27,0,0,1,.16.17,8.24,8.24,0,0,0,.66,1.92,9.2,9.2,0,0,0,1.53,1.79l-.1.11-.17-.14-.08-.08C56.31,86,56.16,85.81,56,85.66Z" style="fill: #f4b425"/>
            <path d="M52.42,87.32l.15-.14a2.68,2.68,0,0,1-.07.27.08.08,0,0,1,0,0c0,.1-.06.2-.09.3s0,0,0,0,0-.22,0-.33Z" style="fill: #f8db98"/>
            <path d="M52.4,79c-.06.09-.13.19-.19.3C52.27,79.16,52.34,79.06,52.4,79Z" style="fill: #f4b425"/>
            <path d="M52.34,87.38v0c0,.3-.07.6-.12.88l0-.23c0-.39,0-.57.11-.65Z" style="fill: #f8db98"/>
            <path d="M52.31,91.52a.39.39,0,0,0,.37-.19.13.13,0,0,0,0-.08,1.05,1.05,0,0,1,.15.5.24.24,0,0,1-.05.13.79.79,0,0,1-.88-.35s0-.11,0-.17A.59.59,0,0,0,52.31,91.52Z" style="fill: #ea601b"/>
            <path d="M52.64,92h-.36l-.06,0h0l-.07,0h0l-.07-.06a0,0,0,0,0,0,0l0-.06,0,0,0-.08s0,0,0,0l0-.12h0a.79.79,0,0,0,.88.35h0l0,0,0,0,0,0h0Z" style="fill: #ea601b"/>
            <path d="M52.49,90.64c0,.35.21.47.21.61a.13.13,0,0,1,0,.08.39.39,0,0,1-.37.19.59.59,0,0,1-.4-.16c0-.26-.15-.32-.18-.52s.12-.38.09-.56,0-.17,0-.25c0-.25-.08-.48-.1-.68.1,0,.12.16.22.19s.19.14.27.16.14-.14.2-.18C52.4,89.82,52.44,90.18,52.49,90.64Z" style="fill: #f4b425"/>
            <path d="M54,82.68A2.63,2.63,0,0,0,54,84a8.45,8.45,0,0,1-.28,1.19,5.3,5.3,0,0,1-.23.67,6.27,6.27,0,0,1-.29.58l-.09.15-.06.09a3,3,0,0,1-.43.52l-.15.14-.08.06,0,0c-.11.08-.16.26-.11.65l0,.23c0,.42.09.76.14,1.23-.06,0-.12.2-.2.18s-.19-.14-.27-.16-.12-.15-.22-.19c0,.2.06.43.1.68,0-.25-.09-.48-.13-.69s-.12-.51-.18-.73a1.76,1.76,0,0,0-.07-.27c-.06-.22-.11-.41-.16-.57s-.09-.32-.12-.45a1.1,1.1,0,0,1,0-.43.27.27,0,0,1,0-.12h0c.22-.51.73-.1.61-1.78-.06-.9-.14-1.79-.14-2.66a8.36,8.36,0,0,1,.26-2.25h0a.19.19,0,0,1,0-.07l0-.09a3,3,0,0,1,.2-.45h0a1.62,1.62,0,0,1,.1-.18c.06-.11.13-.21.19-.3-.76,1.82-.42,4.45.45,4.61.36.07.64-.42.88-1Z" style="fill: #f4b425"/>
            <path d="M51.46,88.61c0,.18,0,.37,0,.56,0,0,0,0,0,0,0-.28,0-.56,0-.83A1.76,1.76,0,0,1,51.46,88.61Z" style="fill: #f8db98"/>
            <path d="M51.23,87.77c0,.21,0,.42,0,.62a0,0,0,0,1-.06,0c0-.29,0-.68,0-1.07C51.14,87.45,51.18,87.59,51.23,87.77Z" style="fill: #f8db98"/>
            <path d="M52.4,79h0c-.06.09-.13.19-.19.3a1.62,1.62,0,0,0-.1.18h0a3,3,0,0,0-.2.45l0,.09a.19.19,0,0,0,0,.07h0a8.36,8.36,0,0,0-.26,2.25c0,.87.08,1.76.14,2.66.12,1.68-.39,1.27-.61,1.78,0-.55,0-1,0-1.09-.07.51-.1.79-.13,1.19,0,.13,0,.27,0,.44,0-.15,0-.3,0-.45,0-.78.1-1.56.18-2.34s0-1.89,0-2.81a8.1,8.1,0,0,1,.36-2.34c.29-.93,1.3-1.37,1.56-1.13a3.13,3.13,0,0,0-.52.56A1.26,1.26,0,0,0,52.4,79Z" style="fill: #f8db98"/>
          </g>
          <circle cx="67.21" cy="83.35" r="0.56" style="fill: #ea601b"/>
          <g>
            <path d="M70.66,85.05a.15.15,0,0,0,.24-.16.37.37,0,0,1,.06-.3.06.06,0,0,0,0-.07s0,0,0,0l0,0a1,1,0,0,1-.11.17,1.45,1.45,0,0,0-.17.32Z" style="fill: #f4b425"/>
            <path d="M71.48,86.13h0Z" style="fill: #f8db98"/>
            <path d="M71.53,86.13h0Z" style="fill: #f8db98"/>
            <path d="M71.59,85.49c.25,0,.17-.4,0-.59a.06.06,0,0,0-.07,0,.05.05,0,0,0,0,.06.38.38,0,0,1-.13.28C71.24,85.35,71.34,85.54,71.59,85.49Z" style="fill: #f4b425"/>
            <path d="M71.63,84.52c.21-.1.23-.35.26-.55a2.33,2.33,0,0,1,.08-.46l-.36-.1a3,3,0,0,1-.16.48l0,0a.94.94,0,0,0-.16.46C71.3,84.57,71.49,84.58,71.63,84.52Z" style="fill: #f4b425"/>
            <path d="M72,86.05l.09,0a.24.24,0,0,0,.08-.06l-.08.06Z" style="fill: #f8db98"/>
            <path d="M72.25,80.25a2,2,0,0,1-.09-.84c-.23.44-.24.92,0,1.12A1.31,1.31,0,0,1,72.25,80.25Z" style="fill: #f4b425"/>
            <path d="M72.6,81.79a.38.38,0,0,0-.68-.15c-.27.31-.16.91-.21,1.27a2.77,2.77,0,0,1-.1.5l.36.1h0a1.4,1.4,0,0,1,.09-.29,3.29,3.29,0,0,1,.38-.69A.93.93,0,0,0,72.6,81.79Z" style="fill: #f4b425"/>
            <path d="M72.27,85.88a.13.13,0,0,1-.06.07A.13.13,0,0,0,72.27,85.88Z" style="fill: #f8db98"/>
            <path d="M72.26,80.45a.56.56,0,0,0,0,.12h0A.5.5,0,0,1,72.26,80.45Z" style="fill: #f8db98"/>
            <path d="M72.37,85.63s0,.06,0,.09S72.36,85.66,72.37,85.63Z" style="fill: #f8db98"/>
            <path d="M72.41,80.33l0,.1s0,0,0,0A.13.13,0,0,1,72.41,80.33Z" style="fill: #f8db98"/>
            <path d="M72.42,85.46a1.09,1.09,0,0,1-1.62.25v0l.09.12s0,0,0,0l.13.1,0,0,.15.07h0l.16,0h.41l.14,0h0l.08,0,.09,0,.08-.06h0a.13.13,0,0,0,.06-.07.48.48,0,0,0,.08-.16s0-.06,0-.09Z" style="fill: #f8db98"/>
            <path d="M72.5,79.72a1.94,1.94,0,0,1-.08-.5.06.06,0,0,0-.11,0l-.15.22a2,2,0,0,0,.09.84A1.28,1.28,0,0,1,72.4,80l.15-.13,0-.1a.69.69,0,0,0-.25.1A.61.61,0,0,1,72.5,79.72Z" style="fill: #f8db98"/>
            <path d="M72.85,79.75a.73.73,0,0,0-.33,0l0,.1A.79.79,0,0,1,72.85,79.75Z" style="fill: #f8db98"/>
            <path d="M73.19,82.57a.06.06,0,0,0,0-.08.06.06,0,0,0-.07,0,.05.05,0,0,0,0,.07S73.16,82.58,73.19,82.57Z" style="fill: #f8db98"/>
            <path d="M73.17,82.45a.06.06,0,0,1,.07,0,.06.06,0,0,1,0,.08s-.06,0-.07,0A.05.05,0,0,1,73.17,82.45Zm.18,0a.23.23,0,0,0-.31,0,.44.44,0,0,0-.15.32.26.26,0,0,0,.23.07A.35.35,0,0,0,73.35,82.45Z" style="fill: #f8db98"/>
            <path d="M73.35,82.45a.35.35,0,0,1-.23.35.26.26,0,0,1-.23-.07.42.42,0,0,1,0,.17c.11-.1.16,0,.33-.05s.2-.37.2-.37Z" style="fill: #f8db98"/>
            <path d="M73.46,81.22l.17,0-.15,0Z" style="fill: #f8db98"/>
            <path d="M73.69,81.28l-.06,0-.17,0h0c-.22,0-.25-.17-.25-.32a1.76,1.76,0,0,1,.09-.47,5,5,0,0,0,.14-.52.33.33,0,0,0-.06-.1h-.2a1,1,0,0,0-.27.1.93.93,0,0,0-.39.46,1.07,1.07,0,0,1,.3-.3,1,1,0,0,0-.11,1.1,1.42,1.42,0,0,1,0-.71.81.81,0,0,0,.06.53.93.93,0,0,0,.22.31.8.8,0,0,1-.13-.21l0,0a1.09,1.09,0,0,0,.55.32l-.32-.2a1.18,1.18,0,0,0,.64,0Z" style="fill: #f4b425"/>
            <path d="M73.52,81c.4,0,.25-.8,0-1.1C73.57,80.49,73.26,81,73.52,81Z" style="fill: #f4b425"/>
            <path d="M73.52,79.89c.25.3.4,1.11,0,1.1S73.57,80.49,73.52,79.89Zm0,1.33c.31,0,.42-.36.37-.73a1.06,1.06,0,0,0-.09-.35,1.59,1.59,0,0,0-.15-.29l-.07-.08s-.1,0-.1,0,0,.08,0,.12a5,5,0,0,1-.14.52,1.76,1.76,0,0,0-.09.47c0,.15,0,.32.25.32h0Z" style="fill: #f8db98"/>
            <path d="M74.18,81.76a.84.84,0,0,0-.43-.46,1.18,1.18,0,0,1-.64,0l.32.2a1.09,1.09,0,0,1-.55-.32l0,0a.8.8,0,0,0,.13.21.93.93,0,0,1-.22-.31.81.81,0,0,1-.06-.53,1.42,1.42,0,0,0,0,.71,1,1,0,0,1,.11-1.1,1.07,1.07,0,0,0-.3.3.93.93,0,0,1,.39-.46,1,1,0,0,1,.27-.1h.2a.6.6,0,0,0-.13-.14.53.53,0,0,0-.51-.09.69.69,0,0,1,.47.18l-.07,0a.74.74,0,0,0-.62,0,.61.61,0,0,0-.23.15.69.69,0,0,1,.25-.1.73.73,0,0,1,.33,0,.79.79,0,0,0-.3.12L72.4,80a1.28,1.28,0,0,0-.15.25,1.31,1.31,0,0,0-.09.28,1.2,1.2,0,0,0,0,.19.38.38,0,0,0,0,.1.76.76,0,0,1,0-.16l0-.09a.56.56,0,0,1,0-.12.5.5,0,0,0,0,.12v0a1,1,0,0,0,.3.81,1,1,0,0,1-.22-.84.57.57,0,0,1,0-.14l0-.1a.13.13,0,0,0,0,.06l0,.17a1,1,0,0,0,.2.77c.25.32.67.32,1,.53a.74.74,0,0,0-.2-.16l.11,0a.78.78,0,0,1,.38.36.72.72,0,0,0-.34-.41c.26.1.47.25.46.57a.81.81,0,0,0,0-.55c.05.07.08.16.13.24a.52.52,0,0,0-.13-.35A1.54,1.54,0,0,0,74.18,81.76Z" style="fill: #f4b425"/>
            <path d="M75.06,79.81a.6.6,0,0,1,.21.08s0,0,0,0A.6.6,0,0,0,75.06,79.81Z" style="fill: #f8db98"/>
            <path d="M75.89,80.22l-.09,0Z" style="fill: #f8db98"/>
            <path d="M76,80.25l-.11,0Z" style="fill: #f8db98"/>
            <path d="M76.69,80.39a1.49,1.49,0,0,1-.67-.14,1.9,1.9,0,0,0,.68.16S76.7,80.39,76.69,80.39Z" style="fill: #f8db98"/>
            <path d="M76.73,80.54h0Z" style="fill: #f4b425"/>
            <path d="M76.75,80.54h0Z" style="fill: #f8db98"/>
            <path d="M76.85,80.55a.78.78,0,0,1,.51.32s0,0,0,0A.93.93,0,0,0,76.85,80.55Z" style="fill: #f8db98"/>
            <path d="M77.78,88.5l-.07,0-.14-.07-.08,0-.09-.05-.15-.09-.08-.06L77,88l0,0-.22-.19,0,0,0,0,0,0c.07.86.39,1.79.4,2.64,0,.47-.12.43-.11.89,0,.26.13.35.17.59a8.84,8.84,0,0,1,.12,1.64l.07,0a.18.18,0,0,0,.07,0,.14.14,0,0,0,.09,0h.09s.09,0,.13,0l0,0h0v0c0-1,.06-1.48.09-1.9s.17-.42.2-.77-.08-.38-.06-.6c0-.55.07-1.1.1-1.62h0A1.17,1.17,0,0,1,77.78,88.5Z" style="fill: #f4b425"/>
            <path d="M76.83,95.55a.78.78,0,0,0,.87-.34.91.91,0,0,0,0-.17s-.44.41-.75,0a.15.15,0,0,1,0-.13,1,1,0,0,0-.16.53A.16.16,0,0,0,76.83,95.55Z" style="fill: #ea601b"/>
            <path d="M77.68,95.32a.36.36,0,0,0,0-.11.78.78,0,0,1-.87.34h0l0,0h0l0,0h0l0,0h0l0,0h.25l.08,0h0l0,0h0l.05,0,0,0,0,0s0,0,0,0l0-.05,0,0,0-.06Z" style="fill: #f8db98"/>
            <path d="M77.9,94.32c0-.27-.18-.41-.18-.54a2.44,2.44,0,0,1,0-.27h0l0,0s-.09,0-.13,0h-.09a.14.14,0,0,1-.09,0,.18.18,0,0,1-.07,0l-.07,0a1.21,1.21,0,0,0,0,.19s0,.08,0,.11,0,.28,0,.42a1.86,1.86,0,0,1-.24.72A.15.15,0,0,0,77,95c.31.41.75,0,.75,0V94.9C77.7,94.5,77.9,94.57,77.9,94.32Z" style="fill: #f4b425"/>
            <path d="M77.71,88.48l.07,0-.21-.09Z" style="fill: #f8db98"/>
            <path d="M77.69,81.12c.13,0,.28,0,.36.11s0,0,0,0S77.82,81.12,77.69,81.12Z" style="fill: #f8db98"/>
            <path d="M79,88.26a1.27,1.27,0,0,1,.06-.28h0A1.64,1.64,0,0,0,79,86.72a1.11,1.11,0,0,0-1-.23,1.43,1.43,0,0,1-1-.43A3.47,3.47,0,0,1,76.25,85a5.84,5.84,0,0,0-.54-1.26,3.66,3.66,0,0,0-.59-.77,1.8,1.8,0,0,0-.42-.28.45.45,0,0,0-.25,0c-.32.07-.26.66-.33,1a1.8,1.8,0,0,1-.93,1c-.26.11-.52.22-.58.57l0,0c.47-.46,1.39-.5,1.74-1.43.74.66.82,1,.88,1.41A3.71,3.71,0,0,0,76,87h0S77.76,88.5,79,88.26Z" style="fill: #f8db98"/>
            <path d="M78.31,82.07l0,0Z" style="fill: #f4b425"/>
            <path d="M78.67,88.74h0Z" style="fill: #f8db98"/>
            <path d="M78.7,88.74l.26,0h0Z" style="fill: #f8db98"/>
            <path d="M79,88.77a2.78,2.78,0,0,1,0-.51c-1.24.24-2.92-1.26-3-1.3h0a4.22,4.22,0,0,0,.27.36,1.34,1.34,0,0,0,.11.14s0,0,0,0l0,0,.12.13.07.08,0,0,0,0L77,88l0,0,.18.13.08.06.15.09.09.05.08,0,.21.09a1.17,1.17,0,0,0,.24.09l.11,0,.2.06h0l.29.06h0Z" style="fill: #f8db98"/>
            <path d="M74.77,79.84l-.22.06a2.94,2.94,0,0,0-.51-.05l.26-.08A.68.68,0,0,1,74.77,79.84Zm.08,0L75,80l-.3-.07Zm2.12.89a.6.6,0,0,1,.21.17h0l-.2-.12-.26-.16A1.69,1.69,0,0,1,77,80.77Zm1,.63a1.12,1.12,0,0,1,.5.2A4.25,4.25,0,0,1,78,81.4Zm1.28.75A2.11,2.11,0,0,0,79,82a.36.36,0,0,0,.18,0,.16.16,0,0,0,.07-.07,0,0,0,0,1,0,0,1,1,0,0,0-.57-.27,1.07,1.07,0,0,0-.81-.27l-.24-.13a2,2,0,0,1,.42,0c-.08-.12-.23-.11-.36-.11h-.12a1.05,1.05,0,0,1-.26-.13,1,1,0,0,0-.22-.2,1.22,1.22,0,0,0-.36-.18.78.78,0,0,1,.63.26.78.78,0,0,0-.51-.32h-.39L76,80.31a1.54,1.54,0,0,0,.73.1,1.9,1.9,0,0,1-.68-.16h0l-.11,0h0l-.09,0h-.1l-.29-.1a1.46,1.46,0,0,1,.87.21s0,0,0,0A1.62,1.62,0,0,0,75.22,80h0L75,79.86a.66.66,0,0,1,.31,0,.6.6,0,0,0-.21-.08h-.17l0,0a1.15,1.15,0,0,0-1,0h-.28a1.59,1.59,0,0,1,.15.29,1.1,1.1,0,0,0,.31,0c.1,0,.22,0,.31.08a1.82,1.82,0,0,1,.61.37,1.46,1.46,0,0,0-.62-.46h.16l.2.11a1.73,1.73,0,0,1,.58.53,1,1,0,0,0-.19-.3,1.54,1.54,0,0,1,.19.17,3.34,3.34,0,0,1,.56.79s0,0,0,0a1.3,1.3,0,0,0-.14-.32c.34.16.72.19,1,.5a1.23,1.23,0,0,0-.59-.44.76.76,0,0,1,.42.18.68.68,0,0,0-.37-.29L76,81a1.61,1.61,0,0,1,.74.36l.06,0a2.46,2.46,0,0,1,.55.69.14.14,0,0,0,0-.11,2.38,2.38,0,0,1,.23.45,1.16,1.16,0,0,0-.21-.64h.08a.79.79,0,0,1,.34.56.67.67,0,0,0-.21-.56l.06,0a1.75,1.75,0,0,1,.51.34,1.07,1.07,0,0,0-.3-.3l.07,0L78,82a1.43,1.43,0,0,1,.52.38.64.64,0,0,0-.21-.27l0,0,0,0a1.43,1.43,0,0,1,.39.42s0,0,0,0a1.61,1.61,0,0,0-.45-.52l.09,0a2.56,2.56,0,0,1,.66.22.55.55,0,0,0-.23-.17C79,82,79.12,82.1,79.28,82.15Z" style="fill: #f4b425"/>
            <path d="M79.64,96.56a1.7,1.7,0,0,0,.37-.9,2.74,2.74,0,0,0-.07-.9c-.16.12-.31.11-.39-.09v0c0,.27,0,.53,0,.84a2,2,0,0,1-.25.72.15.15,0,0,0,0,.13A.44.44,0,0,0,79.64,96.56Z" style="fill: #f8db98"/>
            <path d="M79.84,82.34a.83.83,0,0,0-.36-.31h.22s0,0,0,0a.82.82,0,0,0-.41-.09l0,0a.16.16,0,0,1-.07.07A.36.36,0,0,1,79,82a2.11,2.11,0,0,1,.27.18c-.16-.05-.29-.12-.44-.17a.55.55,0,0,1,.23.17,2.56,2.56,0,0,0-.66-.22l-.09,0a1.61,1.61,0,0,1,.45.52s0,0,0,0a1.43,1.43,0,0,0-.39-.42.64.64,0,0,1,.21.27A1.43,1.43,0,0,0,78,82l-.08,0-.07,0a1.07,1.07,0,0,1,.3.3,1.75,1.75,0,0,0-.51-.34l-.06,0a.67.67,0,0,1,.21.56.79.79,0,0,0-.34-.56H77.4a1.16,1.16,0,0,1,.21.64,2.38,2.38,0,0,0-.23-.45.14.14,0,0,1,0,.11,2.46,2.46,0,0,0-.55-.69l-.06,0A1.61,1.61,0,0,0,76,81l.16.06a.68.68,0,0,1,.37.29.76.76,0,0,0-.42-.18,1.23,1.23,0,0,1,.59.44c-.25-.31-.63-.34-1-.5a1.3,1.3,0,0,1,.14.32s0,0,0,0a3.34,3.34,0,0,0-.56-.79,1.54,1.54,0,0,0-.19-.17,1,1,0,0,1,.19.3,1.73,1.73,0,0,0-.58-.53l-.2-.11h-.16a1.46,1.46,0,0,1,.62.46,1.82,1.82,0,0,0-.61-.37c-.09,0-.21,0-.31-.08a1.1,1.1,0,0,1-.31,0,1.06,1.06,0,0,1,.09.35A2.32,2.32,0,0,1,74,81s0,0,0,0a.92.92,0,0,0-.11-.33.1.1,0,0,1,0,0,1.85,1.85,0,0,1,.21.45h0a.85.85,0,0,0,0-.23l.13.16a.77.77,0,0,0,0-.22.5.5,0,0,0,0-.12.55.55,0,0,1,.09.14,2.38,2.38,0,0,1,0,.71s0,0,0,0a2.61,2.61,0,0,0,0-.56l0,0a1.87,1.87,0,0,1,0,.34h0c0,.15-.07.3-.1.45s0,0,0,0a1.84,1.84,0,0,0,.19-.73c0-.06,0-.12,0-.19V81a2,2,0,0,1-.1.72s0,0,0,0a2.52,2.52,0,0,0,.18-.85l.13.2,0,.11c.1.27.16.55.25.83a0,0,0,0,0,0,0,2.25,2.25,0,0,0-.11-.61,2,2,0,0,1,.28,1s0,0,0,0a1.21,1.21,0,0,0-.09-.81s0,0,0,.05l.24.55s0,0,0,0a2.31,2.31,0,0,0-.22-.72,5,5,0,0,1,.27.57s0,0,0,0a4.22,4.22,0,0,0-.18-.45l.12.16.18.26a1.81,1.81,0,0,0,0-.32,2.46,2.46,0,0,1,.16.48l0,.36h0s0,.06,0,.09a0,0,0,0,0,0,0,2.6,2.6,0,0,0,.1-.25,2.2,2.2,0,0,1-.19.6s0,0,0,0a1.8,1.8,0,0,0,.2-.47,3.51,3.51,0,0,0,.15-.49,2.25,2.25,0,0,1-.06.36s0,0,0,0a2.91,2.91,0,0,1-.12.39s0,0,0,0a5.94,5.94,0,0,0,.26-.78v.18s0,0,0,0a1.28,1.28,0,0,0,0-.39,4.12,4.12,0,0,1,.4.91s0,0,0,0a4.09,4.09,0,0,0-.28-.88A3.29,3.29,0,0,1,76.92,83s0,0,0,0a1.91,1.91,0,0,0-.06-.33,1.36,1.36,0,0,1,.11.65s0,0,0,0a2,2,0,0,0-.07-.72c0,.07.06.13.09.21s0,0,0,0S77,82.61,77,82.5l.14.26a2.79,2.79,0,0,1,.13.34,1.15,1.15,0,0,0,0-.31l.06.18a3.32,3.32,0,0,1,0,.63,0,0,0,1,0,0,0c0-.12,0-.24,0-.38a2.83,2.83,0,0,1,0,.29l0,0c0,.16,0,.33-.08.49a0,0,0,0,0,0,0,2.64,2.64,0,0,0,.19-.72,1.51,1.51,0,0,0,.11-.22c0,.11,0,.23,0,.34s0,0,0,0a4.27,4.27,0,0,0,.14-.59l0,0,0,.19,0,0a1.84,1.84,0,0,1-.17.68s0,0,0,0A1.91,1.91,0,0,0,78,83l0-.28c0,.1,0,.19,0,.3s0,0,0,0a1.16,1.16,0,0,0,.09-.41,3.14,3.14,0,0,1,.41.47s0,0,0,0a2,2,0,0,0-.17-.27l.26.23a1.46,1.46,0,0,0-.06-.26,1.07,1.07,0,0,1-.07-.15l.12.13a3.77,3.77,0,0,1,.17.81,0,0,0,1,0,0,0,2,2,0,0,0,0-.42s0,0,0,0a.17.17,0,0,1,0,0s0-.07,0-.1a1.47,1.47,0,0,1,.1.22,2.14,2.14,0,0,1,0,.62s0,0,0,0a3.36,3.36,0,0,0,0-.84.56.56,0,0,0,0-.13c.05.21.08.42.12.64,0,0,0,0,0,0a1.84,1.84,0,0,0,0-.57,1.66,1.66,0,0,0-.13-.52l-.06-.16.14.08a1.57,1.57,0,0,1,.65.79s0,0,0,0a1.45,1.45,0,0,0-.54-.83.75.75,0,0,1,.42.37.79.79,0,0,0-.05-.31,1.17,1.17,0,0,1,.35.49h0c0-.23-.27-.48-.41-.64s0,0,0,0a1.34,1.34,0,0,1,.43.26S79.84,82.35,79.84,82.34Z" style="fill: #f4b425"/>
            <path d="M71.55,84.88a.06.06,0,0,1,.07,0c.14.19.22.54,0,.59s-.35-.14-.21-.27a.38.38,0,0,0,.13-.28A.05.05,0,0,1,71.55,84.88Zm.37-3.24a.38.38,0,0,1,.68.15.93.93,0,0,1-.16.74,3.29,3.29,0,0,0-.38.69,1.4,1.4,0,0,0-.09.29h0a2.33,2.33,0,0,0-.08.46c0,.2,0,.45-.26.55s-.33,0-.36-.13a.94.94,0,0,1,.16-.46l0,0a3,3,0,0,0,.16-.48,2.77,2.77,0,0,0,.1-.5C71.76,82.55,71.65,82,71.92,81.64Zm1.45.84s0,.34-.2.37-.22,0-.33.05a.42.42,0,0,0,0-.17.44.44,0,0,1,.15-.32.23.23,0,0,1,.31,0Zm14.41,1.43c.87-.17,1.22-2.8.46-4.62l-.13-.17a3.1,3.1,0,0,0-.53-.55,2.62,2.62,0,0,0-2.81-.27C83.19,79,83,80.42,81,81.39a4.28,4.28,0,0,1-1.76.49,0,0,0,0,0,0,0l0,0a.82.82,0,0,1,.41.09s0,0,0,0h-.22a.83.83,0,0,1,.36.31s0,0,0,0a1.34,1.34,0,0,0-.43-.26s0,0,0,0,.41.41.41.64h0a1.17,1.17,0,0,0-.35-.49.79.79,0,0,1,.05.31.75.75,0,0,0-.42-.37,1.45,1.45,0,0,1,.54.83s0,0,0,0a1.57,1.57,0,0,0-.65-.79l-.14-.08.06.16a1.66,1.66,0,0,1,.13.52,1.84,1.84,0,0,1,0,.57s0,0,0,0c0-.22-.07-.43-.12-.64a.56.56,0,0,1,0,.13,3.36,3.36,0,0,1,0,.84s0,0,0,0a2.14,2.14,0,0,0,0-.62,1.47,1.47,0,0,0-.1-.22s0,.06,0,.1a.17.17,0,0,0,0,0s0,0,0,0a2,2,0,0,1,0,.42,0,0,0,1,1,0,0,3.77,3.77,0,0,0-.17-.81l-.12-.13a1.07,1.07,0,0,0,.07.15,1.46,1.46,0,0,1,.06.26l-.26-.23a2,2,0,0,1,.17.27s0,0,0,0a3.14,3.14,0,0,0-.41-.47A1.16,1.16,0,0,1,78,83s0,0,0,0,0-.2,0-.3L78,83a1.91,1.91,0,0,1-.25.74s0,0,0,0a1.84,1.84,0,0,0,.17-.68l0,0,0-.19,0,0a4.27,4.27,0,0,1-.14.59s0,0,0,0,0-.23,0-.34a1.51,1.51,0,0,1-.11.22,2.64,2.64,0,0,1-.19.72,0,0,0,0,1,0,0c0-.16,0-.33.08-.49l0,0a2.83,2.83,0,0,0,0-.29c0,.14,0,.26,0,.38a0,0,0,0,1,0,0,3.32,3.32,0,0,0,0-.63l-.06-.18a1.15,1.15,0,0,1,0,.31,2.79,2.79,0,0,0-.13-.34L77,82.5c0,.11.09.21.13.32s0,0,0,0-.06-.14-.09-.21a2,2,0,0,1,.07.72s0,0,0,0a1.36,1.36,0,0,0-.11-.65,1.91,1.91,0,0,1,.06.33s0,0,0,0a3.29,3.29,0,0,0-.42-1.13,4.09,4.09,0,0,1,.28.88s0,0,0,0a4.12,4.12,0,0,0-.4-.91,1.28,1.28,0,0,1,0,.39s0,0,0,0v-.18a5.94,5.94,0,0,1-.26.78s0,0,0,0a2.91,2.91,0,0,0,.12-.39s0,0,0,0a2.25,2.25,0,0,0,.06-.36,3.51,3.51,0,0,1-.15.49,1.8,1.8,0,0,1-.2.47s0,0,0,0a2.2,2.2,0,0,0,.19-.6,2.6,2.6,0,0,1-.1.25,0,0,0,0,1,0,0s0-.06,0-.09h0l0-.36a2.46,2.46,0,0,0-.16-.48,1.81,1.81,0,0,1,0,.32l-.18-.26-.12-.16a4.22,4.22,0,0,1,.18.45s0,0,0,0a5,5,0,0,0-.27-.57,2.31,2.31,0,0,1,.22.72s0,0,0,0l-.24-.55s0,0,0-.05a1.21,1.21,0,0,1,.09.81s0,0,0,0a2,2,0,0,0-.28-1,2.25,2.25,0,0,1,.11.61,0,0,0,0,1,0,0c-.09-.28-.15-.56-.25-.83l0-.11-.13-.2a2.52,2.52,0,0,1-.18.85s0,0,0,0a2,2,0,0,0,.1-.72v-.1c0,.07,0,.13,0,.19a1.84,1.84,0,0,1-.19.73s0,0,0,0,.07-.3.1-.45h0a1.87,1.87,0,0,0,0-.34l0,0a2.61,2.61,0,0,1,0,.56s0,0,0,0a2.38,2.38,0,0,0,0-.71.55.55,0,0,0-.09-.14.5.5,0,0,1,0,.12.77.77,0,0,1,0,.22l-.13-.16a.85.85,0,0,1,0,.23h0a1.85,1.85,0,0,0-.21-.45.1.1,0,0,0,0,0,.92.92,0,0,1,.11.33s0,0,0,0a2.32,2.32,0,0,0-.18-.46c.05.37-.06.71-.37.73l.15,0,.06,0,.06,0a.84.84,0,0,1,.43.46,1.54,1.54,0,0,1-.19-.17.52.52,0,0,1,.13.35c-.05-.08-.08-.17-.13-.24a.81.81,0,0,1,0,.55c0-.32-.2-.47-.46-.57a.72.72,0,0,1,.34.41.78.78,0,0,0-.38-.36l-.11,0a.74.74,0,0,1,.2.16c-.34-.21-.76-.21-1-.53a1,1,0,0,1-.2-.77l0-.17s0,0,0,0a.57.57,0,0,0,0,.14,1,1,0,0,0,.22.84,1,1,0,0,1-.3-.81l0,.06a.76.76,0,0,0,0,.16.38.38,0,0,1,0-.1l-.1.14a1.55,1.55,0,0,0-.47,1.22,5.24,5.24,0,0,1-.47,2.18l-.15.26h0a.06.06,0,0,1,0,.07.37.37,0,0,0-.06.3.15.15,0,0,1-.24.16h0a1.14,1.14,0,0,0,.15.65h0a1.09,1.09,0,0,0,1.62-.25h0a1.17,1.17,0,0,1,.19-.3c.06-.35.32-.46.58-.57a1.8,1.8,0,0,0,.93-1c.07-.29,0-.88.33-1a.45.45,0,0,1,.25,0,1.8,1.8,0,0,1,.42.28,3.66,3.66,0,0,1,.59.77A5.84,5.84,0,0,1,76.25,85,3.47,3.47,0,0,0,77,86.06a1.43,1.43,0,0,0,1,.43,1.11,1.11,0,0,1,1,.23A1.64,1.64,0,0,1,79.06,88h0a1.27,1.27,0,0,0-.06.28,2.78,2.78,0,0,0,0,.51h0c0,.94.4,2,.42,2.92,0,.46-.13.43-.11.89,0,.26.12.34.16.59s.06.41.08.59c0,.35,0,.63,0,.91s.23.21.39.09a6.88,6.88,0,0,1-.13-.77,3.11,3.11,0,0,1,.3-1.37,2,2,0,0,0,.08-1.23,16,16,0,0,1,.06-2.29,3.25,3.25,0,0,0,0-.44c0-.38-.1-.75-.12-1.13v-.31c.05-1,.77-1.44,1.66-1.79a15.6,15.6,0,0,0,2.39-1.18,3.07,3.07,0,0,0,1.49-1.44,1,1,0,0,0,.07-.15c.15-.41-.25-1.44.29-1.54.3-.05.54.86.85,1.66C87.11,83.42,87.39,84,87.78,83.91Z" style="fill: #f8db98"/>
            <path d="M80,96.8l0,0h0l0-.07s0,0,0,0l0-.13a.79.79,0,0,1-.88.35h0l0,0,0,0,0,0h0l0,0h0l0,0h0l.07,0h.19l.06,0h0l.07,0h0s.05,0,.06-.06,0,0,0,0A.21.21,0,0,0,80,96.8Z" style="fill: #ea601b"/>
            <path d="M80.25,95.66c0-.27-.17-.41-.17-.54v-.46s0,0-.06,0,0,0-.08.06a2.74,2.74,0,0,1,.07.9,1.7,1.7,0,0,1-.37.9h0a.78.78,0,0,0,.42-.18h0a.7.7,0,0,1,0-.43C80.17,95.85,80.25,95.82,80.25,95.66Z" style="fill: #f8db98"/>
            <path d="M79.18,96.89a.79.79,0,0,0,.88-.35c0-.05,0-.1,0-.16a.78.78,0,0,1-.42.18h0a.44.44,0,0,1-.33-.18.15.15,0,0,1,0-.13,1.1,1.1,0,0,0-.16.51A.21.21,0,0,0,79.18,96.89Z" style="fill: #ea601b"/>
            <path d="M80.68,87.49a3.94,3.94,0,0,1-.19,1.07v0l0,0,.57-.2.15-.06.55-.25.11,0,.48-.26.09,0,.51-.33.11-.07.5-.37h0l.32-.26-.11-.12C81.9,88.17,80.68,87.06,80.68,87.49Z" style="fill: #f8db98"/>
            <path d="M80.49,88.56a3.94,3.94,0,0,0,.19-1.07c0-.43,1.22.68,3.13-1a9.1,9.1,0,0,0,1.54-1.78A8.32,8.32,0,0,0,86,82.82h-.36a3.07,3.07,0,0,1-1.49,1.44,15.6,15.6,0,0,1-2.39,1.18c-.89.35-1.61.79-1.66,1.79v.31c0,.38.09.75.12,1.13a3.25,3.25,0,0,1,0,.44,16,16,0,0,0-.06,2.29,2,2,0,0,1-.08,1.23,3.11,3.11,0,0,0-.3,1.37,6.88,6.88,0,0,0,.13.77s0,0,.08-.06,0,0,.06,0,0-.14,0-.21c0-.5,0-.85.06-1.14s0-.27,0-.39c0-.37.17-.41.19-.77s-.07-.38-.06-.6c0-.53.07-1.08.1-1.59s.06-1,.08-1.38Z" style="fill: #f8db98"/>
            <path d="M85.79,89.62c0,.35-.2.48-.21.61a.19.19,0,0,0,0,.08.39.39,0,0,0,.37.2.59.59,0,0,0,.4-.16c0-.26.15-.33.18-.53s-.12-.38-.09-.55.05-.29.08-.42a1.31,1.31,0,0,0-.25,0,.49.49,0,0,1-.39-.17c0,.1,0,.21,0,.33S85.82,89.38,85.79,89.62Z" style="fill: #f4b425"/>
            <path d="M86.85,82.78c-.31-.8-.55-1.71-.85-1.66-.54.1-.14,1.13-.29,1.54a1,1,0,0,1-.07.15H86a.32.32,0,0,1,.6,0Z" style="fill: #f8db98"/>
            <path d="M85.68,90.89a.69.69,0,0,1-.2,0s0,0,0,0l0,0,0,0,0,0,0,0h.42l0,0,.06,0a0,0,0,0,0,0,0,.1.1,0,0,0,0,0l0,0,0,0,0,0a.14.14,0,0,0,0-.06l0-.05,0-.11A.78.78,0,0,1,85.68,90.89Z" style="fill: #ea601b"/>
            <path d="M86,90.51a.39.39,0,0,1-.37-.2.19.19,0,0,1,0-.08,1.1,1.1,0,0,0-.15.51.18.18,0,0,0,0,.12.69.69,0,0,0,.2,0,.78.78,0,0,0,.68-.37s0-.11,0-.17A.59.59,0,0,1,86,90.51Z" style="fill: #ea601b"/>
            <path d="M85.89,84.53c-.24.31-.49.61-.74.89h0a3.29,3.29,0,0,0,.84,1c.11.08.15.26.11.65-.06.57-.11,1-.19,1.6a.49.49,0,0,0,.39.17,1.31,1.31,0,0,1,.25,0,2,2,0,0,1,0-.26c.27-1.34.54-2,.61-2.43-.09-.21-.17-.44-.24-.66s-.47-.26-.41-1.41l0,0h0a.34.34,0,0,0-.33.12h0l0,0,0,0,0,0h0l-.2.25Z" style="fill: #f4b425"/>
            <path d="M86,82.82a8.32,8.32,0,0,1-.65,1.93,9.1,9.1,0,0,1-1.54,1.78l.11.12.16-.15.09-.07c.15-.15.31-.29.46-.45a.17.17,0,0,0,.06-.06c.14-.15.29-.3.43-.46l0,0h0c.25-.28.5-.58.74-.89h0l.2-.25h0l0,0,0,0,0,0h0a.34.34,0,0,1,.33-.12h0l0,0h0l0,0a.48.48,0,0,1,.08.16s0,0,0,0a2.67,2.67,0,0,0-.09-1.45.32.32,0,0,0-.6,0Z" style="fill: #f8db98"/>
            <path d="M88.28,88.1c0-.11,0-.22,0-.33v-.13l-.16-.14c0,.09,0,.19.07.28s0,0,0,0a2,2,0,0,1,.09.3S88.28,88.12,88.28,88.1Z" style="fill: #f4b425"/>
            <path d="M88.24,79.29l.19.31Z" style="fill: #f8db98"/>
            <path d="M88.44,88.39c0-.39,0-.57-.11-.66l0,0v0a6.42,6.42,0,0,0,.12.88A1.79,1.79,0,0,0,88.44,88.39Z" style="fill: #f4b425"/>
            <path d="M88.43,79.6l.1.18Z" style="fill: #f8db98"/>
            <path d="M88.71,91.85a.81.81,0,0,0,0-.16.57.57,0,0,1-.4.15.39.39,0,0,1-.37-.19.22.22,0,0,1,0-.08,1,1,0,0,0-.15.5.21.21,0,0,0,0,.13A.77.77,0,0,0,88.71,91.85Z" style="fill: #ea601b"/>
            <path d="M88.53,79.78c.08.15.15.31.21.45C88.68,80.09,88.61,79.93,88.53,79.78Z" style="fill: #f8db98"/>
            <path d="M88.71,91.85a.77.77,0,0,1-.87.35h0l0,0s0,0,0,0l0,0h0l0,0h0l0,0h.29l.06,0h0l.07,0h0l.06-.06,0,0a.21.21,0,0,1,0-.06s0,0,0,0l0-.08v0a.5.5,0,0,0,0-.13Z" style="fill: #ea601b"/>
            <path d="M89,89.68c-.1,0-.11.16-.21.18s-.2.14-.28.16-.14-.14-.2-.17c0,.3-.07.65-.12,1.11s-.21.48-.21.61a.22.22,0,0,0,0,.08.39.39,0,0,0,.37.19.57.57,0,0,0,.4-.15c0-.27.15-.33.18-.53s-.11-.38-.08-.55,0-.18,0-.26C88.9,90.1,88.94,89.88,89,89.68Z" style="fill: #f8db98"/>
            <path d="M88.79,80.41h0v0a.14.14,0,0,0,0-.06.29.29,0,0,0,0-.09c-.06-.14-.13-.3-.21-.45h0l-.1-.18-.19-.31c.76,1.82.41,4.45-.46,4.62-.39.07-.67-.49-.93-1.13l-.25.08a2.67,2.67,0,0,1,.09,1.45A10.45,10.45,0,0,0,87,85.5c.07.22.15.45.24.66a3.14,3.14,0,0,0,.29.58l.08.15.06.09a3.13,3.13,0,0,0,.43.52l.16.14.08.07,0,0c.12.09.16.27.11.66a1.79,1.79,0,0,1,0,.23c0,.41-.09.76-.15,1.23.06,0,.13.19.2.17s.19-.14.28-.16.11-.14.21-.18c0,.2-.06.42-.1.67,0-.25.09-.48.14-.68s.11-.52.17-.74,0-.18.07-.27l.16-.57c0-.17.09-.32.12-.44a1.14,1.14,0,0,0,0-.43.65.65,0,0,0,0-.13h0c-.22-.5-.72-.09-.61-1.78.06-.89.15-1.79.15-2.66A8.28,8.28,0,0,0,88.79,80.41Z" style="fill: #f8db98"/>
            <path d="M89.17,88.93c0,.19,0,.37,0,.56a0,0,0,0,0,0,0c0-.28,0-.55,0-.83C89.22,88.75,89.19,88.84,89.17,88.93Z" style="fill: #f4b425"/>
            <path d="M89.4,88.09c0,.21,0,.42,0,.63,0,0,.06,0,.06,0,0-.3,0-.68,0-1.07C89.49,87.77,89.45,87.92,89.4,88.09Z" style="fill: #f4b425"/>
            <path d="M88.79,80.4h0a8.28,8.28,0,0,1,.27,2.24c0,.87-.09,1.77-.15,2.66-.11,1.69.39,1.28.61,1.78,0-.54,0-1,0-1.09.07.51.11.8.13,1.19q0,.19,0,.45c0-.15,0-.3,0-.45,0-.79-.1-1.57-.18-2.35s.06-1.88,0-2.81a8.11,8.11,0,0,0-.37-2.34c-.29-.93-1.29-1.36-1.56-1.12a3.1,3.1,0,0,1,.53.55l.13.17.19.31.1.18h0c.08.15.15.31.21.45a.29.29,0,0,1,0,.09.14.14,0,0,1,0,.06Z" style="fill: #f4b425"/>
          </g>
          <circle cx="86.9" cy="83.68" r="0.56" style="fill: none"/>
          <circle cx="73.46" cy="83.68" r="0.56" style="fill: #ea601b"/>
        </g>
        <g>
          <path d="M115.22,71.78c-.4.25-.71.17-.86,0,0,0,.22,0,.26-.08-.29,0-.53-.52-.64-.73a.43.43,0,0,1,.27-.08.68.68,0,0,0-.76-.25.23.23,0,0,1,.09-.21.72.72,0,0,0-.6.36.52.52,0,0,1-.06-.2,2.29,2.29,0,0,1-.57.77l-.09.07a2.08,2.08,0,0,1,.47.63.82.82,0,0,1,.46,0,.5.5,0,0,1,.26.13,1,1,0,0,0,1.58,0,.73.73,0,0,1-.22,0A1.2,1.2,0,0,0,115.22,71.78Z" style="fill: #f4b425"/>
          <path d="M113.12,80.82s0,0,0,0h0A.43.43,0,0,0,113.12,80.82Z" style="fill: #d8cfbf"/>
          <path d="M113.05,80.81l-.08,0a.66.66,0,0,1-.46,0,.54.54,0,0,1-.2-.16,2.06,2.06,0,0,1-.32.65h.09l.07,0a.68.68,0,0,0,.21-.12s0,0,0,0h0l-.19.34c.26,0,1,.11.92-.65v0a.43.43,0,0,1,0,0Z" style="fill: #ea601b"/>
          <path d="M112.46,75.06a1,1,0,0,0-.41.17l0,0,0,0a.49.49,0,0,1-.5,0,1.57,1.57,0,0,1-.42-.37c-.27-.29-.54-.56-.91,0-.11.16-.22.34-.35.52-.74,1.09-1.67,2.45-3,2.52-.31,0-.62-.08-.9-.08-.61,0-.66.66-.56,1.35.06.39.16.8.23,1.12a2.58,2.58,0,0,1,.07.46c0,.38.37,3,0,3.94a.53.53,0,0,1-.17.25.54.54,0,0,0,.36,0l.08,0,.08,0a.07.07,0,0,0,0,0h0c0-.28.11-.38.11-.61s-.23-.19-.15-1c0-.41.21-.78,0-1.09a1.93,1.93,0,0,1-.06-.64c0-.42,0-1,.06-1.43l.1,0c.29-.14.58-.27.86-.38l.37-.14.09,0,.09,0,.27-.11.14,0,.28-.11.08,0,.11,0,.08,0,.09,0c.16-.08.32-.15.47-.24h0l.08,0,.08-.05.14-.09h0a1.5,1.5,0,0,0,.23-.15h0l.07-.06.08-.06.07-.06a3.88,3.88,0,0,0,.31-.26l.07-.07a.89.89,0,0,0,.09.16c.23.36,0,1.57,0,1.57s.24.38.8.09c0-.27.11-.38.11-.61s-.22-.2-.14-1c0-.4.2-.77,0-1.09a.24.24,0,0,1,0-.12l0,0,.07-.11.14-.24a4.16,4.16,0,0,0,.84,1.45,2.12,2.12,0,0,1,0,.37c0,.41-.09.52.14.88s0,1.57,0,1.57a.54.54,0,0,0,.2.16.66.66,0,0,0,.46,0l.08,0,.06,0h0c0-.27.11-.38.11-.61s-.22-.19-.14-1c0-.4.21-.77,0-1.09a10.13,10.13,0,0,1,0-2.3c0-.25,0-.46,0-.55v-.06A1.6,1.6,0,0,0,112.46,75.06Z" style="fill: #f4b425"/>
          <path d="M111.91,71.15a1.64,1.64,0,0,0-.77-.17c-2.54.08-3,1.89-5,3a9.22,9.22,0,0,1-3.48,1.36c-.33,0-.67,0-1,0a1.38,1.38,0,0,0-.39-.25.5.5,0,0,0-.08.12,3.79,3.79,0,0,0-.2.34c-.22.4-.56.32-.64.07a.48.48,0,0,1,0-.32v0a3.47,3.47,0,0,1,.25-.36,2.19,2.19,0,0,0-.51,0l0,.11a.35.35,0,0,1-.18.2.36.36,0,0,1-.4,0h0a.15.15,0,0,1-.06-.09l-.06,0-.08.07-.06.07h0a6.66,6.66,0,0,0-1.05,2.18c-.27.74-.44,1.16.1,1.58a.71.71,0,0,0,.74.11,2,2,0,0,0,.75-.6s.36-.06.74-.19h0a.9.9,0,0,0,.78-.28c.11-.12.33-.67.55-.48s0,.67-.09.82a.92.92,0,0,1-.57.54h0a2.2,2.2,0,0,0,.25.17c0-.15.12-.25.22-.25s.19.18.18.38a.43.43,0,0,1,0,.11,6.69,6.69,0,0,0,1,.45,6.1,6.1,0,0,0,1.1.28c.23,0,.47.07.71.09,0,.16.09.37.15.57a12.87,12.87,0,0,1,.28,1.5c0,.41-.09.52.14.88s0,1.56,0,1.56a.54.54,0,0,0,.2.16h0a.53.53,0,0,0,.17-.25c.34-.91,0-3.56,0-3.94a2.58,2.58,0,0,0-.07-.46c-.07-.32-.17-.73-.23-1.12-.1-.69,0-1.34.56-1.35.28,0,.59.1.9.08,1.36-.07,2.29-1.43,3-2.52.13-.18.24-.36.35-.52.37-.52.64-.25.91,0a1.57,1.57,0,0,0,.42.37.49.49,0,0,0,.5,0l0,0,0,0a1,1,0,0,1,.41-.17,1.6,1.6,0,0,1,.67.06,6.18,6.18,0,0,0-.4-3.09,2.08,2.08,0,0,0-.47-.63A1.33,1.33,0,0,0,111.91,71.15ZM98.79,78.42a.73.73,0,0,1-.36.13,1,1,0,0,0,.17.54s0,.06-.06,0a.61.61,0,0,1-.21-.61.47.47,0,0,1-.21-.34s0-.08.07,0c.15.27.27.28.53.21S98.85,78.38,98.79,78.42Zm3-1.25c-.2-.23-.31-.58-.68-.63s-.19-.38.14-.48a.87.87,0,0,1,.64,0c.43.18.67.7,1.1.87.17.06.08.14-.08.23C102.29,77.53,102,77.41,101.83,77.17Z" style="fill: #f6c759"/>
          <path d="M110.32,79.6a2,2,0,0,1-.33.66h0a.47.47,0,0,0,.17,0,.05.05,0,0,0,0,0l.08,0,0,0h0l0,0s0,0,0,0l-.19.34c.26,0,1,.11.92-.64a.28.28,0,0,0,0-.09h0C110.56,80,110.32,79.6,110.32,79.6Z" style="fill: #ea601b"/>
          <path d="M110.17,80.23a.47.47,0,0,1-.17,0A.47.47,0,0,0,110.17,80.23Z" style="fill: #999084"/>
          <path d="M106.08,84.88v0h0S106.07,84.87,106.08,84.88Z" style="fill: #d8cfbf"/>
          <path d="M106,84.87l-.08,0-.08,0a.54.54,0,0,1-.36,0h0a.54.54,0,0,1-.2-.16,1.82,1.82,0,0,1-.21.47,1.45,1.45,0,0,1-.12.19h.12l.06,0h0l.08-.05a.05.05,0,0,0,0,0l.07-.05-.19.34c.26,0,1,.1.92-.65v-.05s0,0,0,0A.07.07,0,0,1,106,84.87Z" style="fill: #ea601b"/>
          <path d="M103.14,81.22c0,.41-.09.52.14.88s0,1.57,0,1.57.24.38.8.09h0c0-.28.11-.39.11-.62s-.22-.19-.15-1c0-.4.21-.78,0-1.09a2.82,2.82,0,0,1-.05-.86,6.1,6.1,0,0,1-1.1-.28A9.67,9.67,0,0,1,103.14,81.22Z" style="fill: #f4b425"/>
          <path d="M103.28,83.67a2.35,2.35,0,0,1-.33.65H103l.09,0,.07,0,0,0,0,0s0,0,0,0l0,0,0,0h0l-.19.34c.26,0,1,.11.92-.65a.25.25,0,0,0,0-.08h0C103.52,84.05,103.28,83.67,103.28,83.67Z" style="fill: #ea601b"/>
          <path d="M103,77c0-.06-.56.11-1-.22l-.09-.07c-.39-.3-.63-.24-.63-.24.31.13.42.4.56.59a.55.55,0,0,0,.29.23A.89.89,0,0,0,103,77Z" style="fill: #ea601b"/>
          <path d="M103,76.93c-.43-.17-.67-.69-1.1-.87a.87.87,0,0,0-.64,0c-.33.1-.5.43-.14.48s.48.4.68.63.46.36,1.12,0C103.11,77.07,103.2,77,103,76.93Zm-.88.37a.55.55,0,0,1-.29-.23c-.14-.19-.25-.46-.56-.59,0,0,.24-.06.63.24l.09.07c.39.33.94.16,1,.22A.89.89,0,0,1,102.15,77.3Z" style="fill: #f4b425"/>
          <path d="M101.72,78.93c-.1,0-.19.1-.22.25a.36.36,0,0,0,0,.1c0,.2.07.37.18.38s.18-.1.22-.24a.43.43,0,0,0,0-.11C101.91,79.11,101.83,78.94,101.72,78.93Z" style="fill: #f4b425"/>
          <polygon points="101.25 79.01 101.25 79.01 101.25 79 101.25 79.01" style="fill: #f1e7d4"/>
          <path d="M101.25,79a.92.92,0,0,0,.57-.54c.08-.15.26-.68.09-.82s-.44.36-.55.48a.9.9,0,0,1-.78.28h0c.11.12.23.23.35.34a.37.37,0,0,0,0,.11c-.08.18-.05.37,0,.42s.25,0,.32-.24v0h0Z" style="fill: #f4b425"/>
          <path d="M100.57,78.4Z" style="fill: #d8cfbf"/>
          <path d="M100.42,75.32a.48.48,0,0,0,0,.32c.08.25.42.33.64-.07a3.79,3.79,0,0,1,.2-.34.5.5,0,0,1,.08-.12,6.74,6.74,0,0,1,1.33-1.53,3.63,3.63,0,0,0-1.94,1.36,3.47,3.47,0,0,0-.25.36Z" style="fill: #ea601b"/>
          <path d="M99.5,75.13a.15.15,0,0,0,.06.09h0a.36.36,0,0,0,.4,0,.35.35,0,0,0,.18-.2l0-.11a7.49,7.49,0,0,1,1-2.25,3.66,3.66,0,0,0-1.53,2,2.43,2.43,0,0,0-.09.3A.42.42,0,0,0,99.5,75.13Z" style="fill: #ea601b"/>
          <path d="M98.72,78.35c-.26.07-.38.06-.53-.21,0,0-.08,0-.07,0a.47.47,0,0,0,.21.34.61.61,0,0,0,.21.61s.08,0,.06,0a1,1,0,0,1-.17-.54.73.73,0,0,0,.36-.13C98.85,78.38,98.88,78.29,98.72,78.35Z" style="fill: #ea601b"/>
          <path d="M98.09,74.39a.88.88,0,0,0,.32.81c.26.18.58,0,1,0l.08-.07a1.29,1.29,0,0,0-.57-.2C98.38,74.89,98.14,74.36,98.09,74.39Z" style="fill: #ea601b"/>
          <path d="M99.36,75.24c-.37-.06-.69.14-1,0a.88.88,0,0,1-.32-.81s.29.5.78.58a1.29,1.29,0,0,1,.57.2l.06,0a.42.42,0,0,1,0-.19,2.43,2.43,0,0,1,.09-.3c-.42-.33-1-.11-1.49-.35-.16-.09-.16,0-.12.21.24,1.2.81.78,1.3.82h0Z" style="fill: #f4b425"/>
        </g>
        <g>
          <path d="M108.32,56.51a6,6,0,0,0-4.12,7,5.17,5.17,0,0,0,6.61,3.76,5.87,5.87,0,0,0,1.82-.91l-5.54-4.24.93-1.4,5.84,4.42a5.85,5.85,0,0,0,1.1-2.45,11.17,11.17,0,0,1-6.21-6.24A3,3,0,0,0,108.32,56.51Z" style="fill: #60bda0"/>
          <path d="M108,60.68l-.93,1.4,5.54,4.24a5.93,5.93,0,0,0,1.23-1.22Z" style="fill: #60bda0"/>
          <path d="M108,52.24a11.21,11.21,0,0,0,.79,4.17,5.13,5.13,0,0,1,6.18,3.87,5.58,5.58,0,0,1,0,2.37,11.94,11.94,0,0,0,3.35.84c0-2.62,0-4.56,0-4.56l2.32-.13s0,2,0,4.7a13,13,0,0,0,1.77-.26,7.59,7.59,0,0,1,2.22-8.13,6.58,6.58,0,0,1,7.13-1,12.51,12.51,0,0,0,.3-2.77,12.08,12.08,0,0,0-12.66-11.88C112.58,39.8,108,45.61,108,52.24Z" style="fill: #60bda0"/>
          <path d="M114.93,60.28a5.13,5.13,0,0,0-6.18-3.87A11.17,11.17,0,0,0,115,62.65,5.58,5.58,0,0,0,114.93,60.28Z" style="fill: #60bda0"/>
          <path d="M112.63,66.32c2.27,1.73,4.62,3.51,5.67,4.29,0-.7,0-1.42,0-2.14l-4.44-3.37A5.93,5.93,0,0,1,112.63,66.32Z" style="fill: #ea9e7a"/>
          <path d="M118.3,70.61c0,3.52,0,6.55,0,6.87.16.59,1.67.87,2.32-.13,0-.4,0-5.31,0-10l-.71.43a1.08,1.08,0,0,1-1.1-1h-.55v1.7l1.48,1.14c.36.86-.49,1.6-.94,1.4C118.78,71,118.59,70.84,118.3,70.61Z" style="fill: #ea9e7a"/>
          <path d="M118.3,68.47c0,.72,0,1.44,0,2.14.29.23.48.36.54.4.45.2,1.3-.54.94-1.4Z" style="fill: #ea9e7a"/>
          <path d="M118.3,66.77h.55a.51.51,0,0,1,.12-.35c.11-.08.75-.49,1.69-1.08V63.5l-.33,0a13.52,13.52,0,0,1-2,0C118.3,64.5,118.3,65.62,118.3,66.77Z" style="fill: #ea9e7a"/>
          <path d="M118.33,58.93s0,1.94,0,4.56a13.52,13.52,0,0,0,2,0l.33,0c0-2.69,0-4.7,0-4.7Z" style="fill: #60bda0"/>
          <path d="M119,66.42a.51.51,0,0,0-.12.35,1.08,1.08,0,0,0,1.1,1l.71-.43v-2C119.72,65.93,119.08,66.34,119,66.42Z" style="fill: #ea9e7a"/>
          <path d="M120.66,65.34v2l3-1.88a2.43,2.43,0,0,1-.2-.25,6.81,6.81,0,0,1-.74-1.2C122,64.53,121.26,65,120.66,65.34Z" style="fill: #ea9e7a"/>
          <path d="M124.65,55.11a7.59,7.59,0,0,0-2.22,8.13,12,12,0,0,0,9.35-9.18A6.58,6.58,0,0,0,124.65,55.11Z" style="fill: #60bda0"/>
          <path d="M122.43,63.24a7.85,7.85,0,0,0,.32.8l8.76-5.42,1,1.38-8.8,5.49a6.51,6.51,0,0,0,9.35.67A7.53,7.53,0,0,0,134.21,56a6.55,6.55,0,0,0-2.43-2A12,12,0,0,1,122.43,63.24Z" style="fill: #60bda0"/>
          <path d="M122.75,64a6.81,6.81,0,0,0,.74,1.2,2.43,2.43,0,0,0,.2.25l8.8-5.49-1-1.38Z" style="fill: #60bda0"/>
        </g>
      </g>
    </g>
  </g>
</svg>
