<svg xmlns="http://www.w3.org/2000/svg" width="135.65" height="113.32" viewBox="0 0 135.65 113.32">
  <g id="Layer_2" data-name="Layer 2">
    <g id="Iron">
      <g>
        <g>
          <path d="M87.75,11l-7,0,0-2.2h6.94V1.33H90l0,18.5,2.87-.73v2.31L81.62,24.16l-1.43-2.05,7.56-1.6Zm16.15,6.55c-.73,4.39-1.44,6.13-3.77,6.13H96.47a2.51,2.51,0,0,1-2.7-2.78V1.33l2.17,0V10a13.87,13.87,0,0,0,6-3.4L103.67,8a16.62,16.62,0,0,1-7.73,4.25l0,8.44c0,.53.11.9.7.9h3.43c1.07,0,1.46-2.45,1.63-4.64Z" style="fill: #fff"/>
          <path d="M104.54,54.65H84.63c-1.49,0-2.16-1.23-2.16-2.61V34.21l-1.77,0V32.1l23.7,0v2.08H84.61l0,17.27c0,.78.28,1.09,1.16,1.09h18.75Zm-10.8-3.91H85.79V43l7.95,0ZM87.9,45v3.68l3.71,0,0-3.74Zm12.85-3.55-12.66,0,0-6.27h12.63ZM90.23,39.55h8.38V37.11H90.23Zm13,3.41v7.7h-8V43Zm-2.11,2-3.79,0v3.6l3.76,0Z" style="fill: #fff"/>
        </g>
        <g>
          <path d="M89.05,9.73l-7,0,0-2.2h6.94V0h2.2l0,18.5,2.87-.73v2.31L82.92,22.86l-1.43-2.05,7.56-1.6Zm16.15,6.55c-.73,4.39-1.44,6.13-3.77,6.13H97.77a2.51,2.51,0,0,1-2.7-2.78V0l2.17,0V8.72a13.87,13.87,0,0,0,6-3.4L105,6.66a16.62,16.62,0,0,1-7.73,4.25l0,8.44c0,.53.11.9.7.9h3.43c1.07,0,1.46-2.45,1.63-4.64Z" style="fill: #003869"/>
          <path d="M105.84,53.35H85.93c-1.49,0-2.16-1.23-2.16-2.61V32.91l-1.77,0V30.8l23.7,0v2.08H85.91l0,17.27c0,.78.28,1.09,1.16,1.09h18.75ZM95,49.44h-8V41.66l8,0ZM89.2,43.71v3.68l3.71,0,0-3.74Zm12.85-3.55-12.66,0,0-6.27h12.63ZM91.53,38.25h8.38V35.81H91.53Zm13,3.41v7.7h-8v-7.7Zm-2.11,2-3.79,0v3.6l3.76,0Z" style="fill: #003869"/>
        </g>
        <g style="isolation: isolate">
          <polygon points="72.22 110.94 3.8 86.04 62.41 60.34 130.83 85.24 72.22 110.94" style="fill: #6baadb"/>
          <polygon points="72.25 113.32 72.22 110.94 130.83 85.24 130.86 87.62 72.25 113.32" style="fill: #3d77a6"/>
          <polygon points="3.83 88.42 3.8 86.04 72.22 110.94 72.25 113.32 3.83 88.42" style="fill: #254966"/>
        </g>
        <g>
          <polygon points="82.91 65.61 79.1 67.81 79.09 66.73 79.13 66.73 86.73 62.46 86.72 63.4 86.72 63.4 82.91 65.61" style="fill: #ea601b"/>
          <polygon points="78.96 59.09 78.13 58.61 78.14 58.6 79.1 58.03 79.1 58.03 79.12 58.05 79.92 58.51 82.93 60.25 86.73 62.46 79.13 66.73 79.09 66.73 79.09 65.72 83.93 62.93 84.75 62.45 78.96 59.09" style="fill: #fffaf2"/>
          <polygon points="84.75 62.45 83.93 62.93 78.13 59.58 78.13 59.58 78.13 59.57 78.13 59.57 78.13 58.61 78.96 59.09 84.75 62.45" style="fill: #f1935a"/>
          <polygon points="82.93 56.76 82.93 60.25 79.92 58.51 82.92 56.76 82.93 56.76" style="fill: #f6c759"/>
          <polygon points="82.91 65.61 82.93 67.82 82.93 67.82 75.28 72.23 75.28 70.02 75.28 70.02 79.1 67.81 82.91 65.61" style="fill: #f6c759"/>
          <polygon points="82.92 56.76 79.92 58.51 79.12 58.05 79.12 58.04 79.11 54.56 82.92 56.76" style="fill: #fffaf2"/>
          <polygon points="79.1 58.03 78.14 58.6 78.13 58.61 78.13 59.57 78.13 59.58 74.27 61.79 73.31 62.34 71.48 63.39 71.51 59 71.51 59 79.1 54.55 79.11 54.56 79.12 58.04 79.12 58.05 79.1 58.03 79.1 58.03" style="fill: #f6c759"/>
          <polygon points="71.48 50.15 79.1 54.55 71.51 59 71.51 59 63.8 54.55 71.48 50.15" style="fill: #f8db98"/>
          <polygon points="79.08 63.4 56.17 76.65 55.21 76.09 78.16 62.85 79.08 63.4" style="fill: #fffaf2"/>
          <polygon points="78.13 59.58 78.13 59.57 78.13 59.58 78.13 59.58 83.93 62.93 79.09 65.72 79.08 63.4 78.16 62.85 55.21 76.09 55.21 76.09 55.21 76.09 55.21 79.5 48.53 83.36 48.52 83.37 42.72 80.02 48.53 76.67 48.51 72.22 48.51 72.22 48.51 72.22 44.69 70.02 44.69 70.02 48.51 67.83 48.51 67.81 56.16 72.22 56.16 72.22 59.98 70.07 59.98 61.19 63.8 58.98 63.8 59 63.8 59 71.48 63.4 71.48 63.4 73.31 62.34 74.27 61.79 78.13 59.58" style="fill: #f4b425"/>
          <polygon points="75.28 72.23 75.3 81.16 73.38 82.16 73.38 71.12 75.28 70.02 75.28 72.23" style="fill: #f6c759"/>
          <polygon points="73.38 71.12 73.38 82.16 71.45 81.05 71.45 74.45 71.45 72.23 75.28 70.02 75.28 70.02 73.38 71.12" style="fill: #f4ad17"/>
          <polygon points="63.8 54.55 71.51 59 71.48 63.39 71.48 63.4 71.48 63.4 63.8 59 63.8 59 63.8 58.98 63.8 54.55" style="fill: #f4ad17"/>
          <polygon points="71.45 72.23 71.45 74.45 69.54 75.55 69.54 73.33 71.45 72.23" style="fill: #f6c759"/>
          <polygon points="69.54 75.55 69.54 77.74 67.64 78.83 67.61 74.45 69.54 73.33 69.54 75.55" style="fill: #f6c759"/>
          <polygon points="67.61 74.45 67.64 78.83 65.73 77.75 65.73 75.54 65.72 75.54 67.61 74.45" style="fill: #f4ad17"/>
          <polygon points="65.73 75.54 65.73 77.75 61.9 79.96 61.89 77.75 65.72 75.54 65.73 75.54" style="fill: #ea601b"/>
          <polygon points="63.8 54.55 63.8 58.98 59.98 61.19 59.98 56.77 56.16 54.57 63.8 50.15 63.8 54.55" style="fill: #f6c759"/>
          <polygon points="63.8 50.15 56.16 54.57 56.15 54.57 55.26 54.05 52.34 52.36 59.97 47.95 63.8 50.15" style="fill: #f8db98"/>
          <polygon points="61.9 79.96 61.9 88.89 59.99 89.94 59.99 78.85 61.89 77.75 61.9 79.96" style="fill: #f6c759"/>
          <polygon points="65.72 75.54 61.89 77.75 61.89 77.75 59.99 78.85 59.99 78.85 58.04 79.98 56.17 81.06 56.17 80.09 56.17 80.06 56.17 76.65 79.08 63.4 79.09 65.72 79.09 66.73 79.1 67.81 75.28 70.02 71.45 72.23 69.54 73.33 67.61 74.45 65.72 75.54" style="fill: #f6c759"/>
          <polygon points="59.99 78.85 59.99 89.94 58.06 88.83 58.06 82.17 58.06 80 58.04 79.98 59.99 78.85" style="fill: #f4ad17"/>
          <polygon points="59.98 61.19 59.98 70.07 56.16 72.22 56.16 72.22 56.16 58.98 59.98 56.77 59.98 61.19" style="fill: #f6c759"/>
          <polygon points="59.98 56.77 56.16 58.98 44.7 52.36 48.52 50.16 55.26 54.05 56.15 54.57 56.16 54.57 59.98 56.77" style="fill: #f8db98"/>
          <polygon points="56.17 81.06 58.04 79.98 58.06 80 58.06 82.17 56.15 83.28 56.15 81.07 56.17 81.06" style="fill: #ea601b"/>
          <polygon points="56.17 76.65 56.17 80.06 56.16 80.06 55.21 79.52 55.21 79.5 55.21 76.09 55.21 76.09 56.17 76.65" style="fill: #fffaf2"/>
          <polygon points="56.16 58.98 56.16 72.22 48.51 67.81 48.51 58.98 44.69 56.78 44.69 52.37 44.7 52.36 56.16 58.98" style="fill: #f4ad17"/>
          <polygon points="56.15 81.06 54.23 82.18 54.23 82.18 52.34 83.27 48.53 85.47 48.51 85.47 48.51 84.5 55.33 80.57 55.33 80.57 56.16 80.09 56.17 80.09 56.17 81.06 56.15 81.07 56.15 81.06" style="fill: #ea601b"/>
          <polygon points="56.15 83.28 56.15 85.47 54.25 86.57 54.23 82.18 56.15 81.07 56.15 83.28" style="fill: #f6c759"/>
          <polygon points="52.34 52.36 55.26 54.05 48.52 50.16 60 43.52 71.48 50.15 63.8 54.55 63.8 50.15 59.97 47.95 52.34 52.36" style="fill: #fffaf2"/>
          <polygon points="55.21 76.09 55.21 76.09 55.21 76.09 55.21 76.09" style="fill: #fffaf2"/>
          <polygon points="56.16 80.09 55.33 80.57 55.33 80.57 48.51 84.5 40.89 80.09 40.89 80.09 40.89 80.09 41.85 79.52 42.72 80.02 48.52 83.37 48.53 83.36 55.21 79.5 55.21 79.52 56.16 80.06 56.17 80.06 56.17 80.09 56.16 80.09" style="fill: #fffaf2"/>
          <polygon points="54.23 82.18 54.25 86.57 52.34 85.48 52.34 85.47 52.34 83.28 52.34 83.27 54.23 82.18" style="fill: #f4ad17"/>
          <polygon points="52.34 83.28 52.34 85.47 52.34 85.47 37.05 94.3 37.04 94.3 37.04 83.26 40.88 81.07 48.51 85.47 48.53 85.47 52.34 83.27 52.34 83.28" style="fill: #f6c759"/>
          <polygon points="48.51 72.22 48.53 76.67 42.72 80.02 41.85 79.52 40.89 80.09 40.91 76.67 48.51 72.22 48.51 72.22" style="fill: #f6c759"/>
          <polygon points="48.51 72.22 48.51 72.22 48.51 72.22 48.51 72.22" style="fill: #f6c759"/>
          <polygon points="48.51 84.5 48.51 85.47 40.88 81.07 40.89 80.09 48.51 84.5" style="fill: #ea601b"/>
          <polygon points="44.69 70.02 48.51 72.22 40.91 76.67 40.91 76.67 33.2 72.22 37.04 70.03 40.87 67.84 40.88 67.83 44.69 70.02" style="fill: #f8db98"/>
          <polygon points="44.69 52.37 44.69 56.78 44.68 56.78 37.04 61.19 37.04 70.03 33.2 72.22 33.2 76.67 33.2 76.67 40.88 81.07 37.04 83.26 14.13 70.03 44.69 52.37" style="fill: #fffaf2"/>
          <polygon points="44.69 56.78 48.51 58.98 40.86 63.4 37.04 61.19 44.68 56.78 44.69 56.78" style="fill: #f8db98"/>
          <polygon points="40.91 76.67 40.91 76.67 40.89 80.09 40.88 80.09 40.89 80.09 40.88 81.07 33.2 76.67 33.2 76.67 33.2 72.22 40.91 76.67" style="fill: #f4ad17"/>
          <polygon points="40.86 67.83 40.86 63.4 48.51 58.98 48.51 67.81 48.51 67.83 44.69 70.02 44.69 70.02 40.88 67.83 40.87 67.84 40.86 67.83" style="fill: #f6c759"/>
          <polygon points="40.86 67.83 40.87 67.84 37.04 70.03 37.04 61.19 40.86 63.4 40.86 67.83" style="fill: #f4ad17"/>
          <path d="M17.94,80l3.81,2.19V77.73L18.9,76.09l-1-.56V80Zm15.27,7.72V84.36l-6.69-3.87L25.61,80l0,4.39h0l7.63,4.42ZM37,94.3h0L14.13,81.07V70L37,83.26Z" style="fill: #f4ad17"/>
          <polygon points="33.22 84.36 33.21 87.68 26.54 83.81 26.53 83.81 26.53 80.5 26.53 80.49 33.22 84.36" style="fill: #fffaf2"/>
          <polygon points="33.21 87.68 33.2 88.78 25.58 84.36 26.53 83.81 26.54 83.81 33.21 87.68" style="fill: #ea601b"/>
          <polygon points="26.53 80.49 26.53 80.5 26.53 83.81 25.58 84.36 25.58 84.35 25.61 79.96 26.53 80.49" style="fill: #f1935a"/>
          <polygon points="21.75 81.07 21.75 82.15 17.94 79.96 18.89 79.41 18.91 79.41 21.75 81.07" style="fill: #ea601b"/>
          <polygon points="21.75 77.73 21.75 81.07 18.91 79.41 18.89 79.41 18.89 76.1 18.9 76.09 21.75 77.73" style="fill: #fffaf2"/>
          <polygon points="17.94 75.53 18.9 76.09 18.89 76.1 18.89 79.41 17.94 79.96 17.94 79.96 17.94 75.53" style="fill: #f1935a"/>
        </g>
        <g>
          <path d="M85.4,72.48a3.92,3.92,0,0,0-2.71,4.57A3.41,3.41,0,0,0,87,79.53a4.22,4.22,0,0,0,1.2-.6l-3.65-2.79.62-.92L89,78.12a3.71,3.71,0,0,0,.73-1.6,7.4,7.4,0,0,1-4.09-4.11Z" style="fill: #60bda0"/>
          <path d="M85.21,75.22l-.62.92,3.65,2.79a3.62,3.62,0,0,0,.8-.81Z" style="fill: #60bda0"/>
          <path d="M85.17,69.67a7.5,7.5,0,0,0,.51,2.74A3.38,3.38,0,0,1,89.75,75a3.73,3.73,0,0,1,0,1.56,8,8,0,0,0,2.2.55c0-1.73,0-3,0-3L93.51,74s0,1.32,0,3.09a7.55,7.55,0,0,0,1.16-.17,5,5,0,0,1,1.46-5.34,4.31,4.31,0,0,1,4.69-.69A8.48,8.48,0,0,0,101,69a7.94,7.94,0,0,0-8.33-7.81A8.15,8.15,0,0,0,85.17,69.67Z" style="fill: #60bda0"/>
          <path d="M89.75,75a3.38,3.38,0,0,0-4.07-2.55,7.4,7.4,0,0,0,4.09,4.11A3.73,3.73,0,0,0,89.75,75Z" style="fill: #60bda0"/>
          <path d="M88.24,78.93c1.49,1.14,3,2.31,3.72,2.82V80.34L89,78.12A3.62,3.62,0,0,1,88.24,78.93Z" style="fill: #ea9e7a"/>
          <path d="M92,81.75c0,2.32,0,4.31,0,4.52.11.39,1.11.57,1.53-.09,0-.26,0-3.49,0-6.56l-.47.28a.71.71,0,0,1-.72-.68H92c0,.37,0,.75,0,1.12.55.41.92.7,1,.75.23.57-.32,1-.62.93Z" style="fill: #ea9e7a"/>
          <path d="M92,80.34v1.41l.36.27c.3.12.85-.36.62-.93C92.88,81,92.51,80.75,92,80.34Z" style="fill: #ea9e7a"/>
          <path d="M92,79.22h.36a.36.36,0,0,1,.08-.23c.07,0,.49-.32,1.11-.7V77.07l-.22,0a8.4,8.4,0,0,1-1.33,0Z" style="fill: #ea9e7a"/>
          <path d="M92,74.06s0,1.28,0,3a8.4,8.4,0,0,0,1.33,0l.22,0c0-1.77,0-3.09,0-3.09Z" style="fill: #60bda0"/>
          <path d="M92.41,79a.36.36,0,0,0-.08.23.71.71,0,0,0,.72.68l.47-.28V78.29C92.9,78.67,92.48,78.94,92.41,79Z" style="fill: #ea9e7a"/>
          <path d="M93.52,78.29v1.33l2-1.24a1.83,1.83,0,0,1-.13-.16,5,5,0,0,1-.49-.79Z" style="fill: #ea9e7a"/>
          <path d="M96.14,71.56a5,5,0,0,0-1.46,5.34,7.9,7.9,0,0,0,6.15-6A4.31,4.31,0,0,0,96.14,71.56Z" style="fill: #60bda0"/>
          <path d="M94.68,76.9a4.87,4.87,0,0,0,.21.53l5.76-3.57.65.91-5.79,3.61a4.28,4.28,0,0,0,6.15.44,4.94,4.94,0,0,0,.77-6.65,4.23,4.23,0,0,0-1.6-1.3A7.9,7.9,0,0,1,94.68,76.9Z" style="fill: #60bda0"/>
          <path d="M94.89,77.43a5,5,0,0,0,.49.79,1.83,1.83,0,0,0,.13.16l5.79-3.61-.65-.91Z" style="fill: #60bda0"/>
        </g>
        <g>
          <path d="M2.8,73.21A3.93,3.93,0,0,0,.09,77.79a3.4,3.4,0,0,0,4.36,2.47,3.71,3.71,0,0,0,1.19-.6L2,76.87,2.61,76l3.84,2.91a3.9,3.9,0,0,0,.72-1.61,7.35,7.35,0,0,1-4.08-4.11Z" style="fill: #60bda0"/>
          <path d="M2.61,76,2,76.87l3.64,2.79a3.84,3.84,0,0,0,.81-.8Z" style="fill: #60bda0"/>
          <path d="M2.57,70.4a7.26,7.26,0,0,0,.52,2.74,3.37,3.37,0,0,1,4.06,2.55,3.58,3.58,0,0,1,0,1.56,8.05,8.05,0,0,0,2.21.55c0-1.72,0-3,0-3l1.52-.08s0,1.32,0,3.09a8.52,8.52,0,0,0,1.16-.17,5,5,0,0,1,1.46-5.35,4.33,4.33,0,0,1,4.69-.69,7.75,7.75,0,0,0,.2-1.82A8,8,0,0,0,10.11,62,8.15,8.15,0,0,0,2.57,70.4Z" style="fill: #60bda0"/>
          <path d="M7.15,75.69a3.37,3.37,0,0,0-4.06-2.55,7.35,7.35,0,0,0,4.08,4.11A3.58,3.58,0,0,0,7.15,75.69Z" style="fill: #60bda0"/>
          <path d="M5.64,79.66l3.73,2.83c0-.47,0-.94,0-1.42L6.45,78.86A3.84,3.84,0,0,1,5.64,79.66Z" style="fill: #ea9e7a"/>
          <path d="M9.37,82.49c0,2.31,0,4.3,0,4.51.1.39,1.1.58,1.52-.08,0-.27,0-3.5,0-6.57l-.46.29A.71.71,0,0,1,9.73,80H9.37v1.11c.54.42.91.7,1,.76.24.56-.32,1-.61.92Z" style="fill: #ea9e7a"/>
          <path d="M9.37,81.07c0,.48,0,1,0,1.42l.36.26c.29.13.85-.36.61-.92C10.28,81.77,9.91,81.49,9.37,81.07Z" style="fill: #ea9e7a"/>
          <path d="M9.37,80h.36a.34.34,0,0,1,.08-.23L10.92,79V77.81l-.22,0a9.59,9.59,0,0,1-1.32,0C9.37,78.47,9.37,79.2,9.37,80Z" style="fill: #ea9e7a"/>
          <path d="M9.39,74.8s0,1.28,0,3a9.59,9.59,0,0,0,1.32,0l.22,0c0-1.77,0-3.09,0-3.09Z" style="fill: #60bda0"/>
          <path d="M9.81,79.73a.34.34,0,0,0-.08.23.71.71,0,0,0,.73.68l.46-.29V79Z" style="fill: #ea9e7a"/>
          <path d="M10.92,79v1.33l2-1.23c-.05-.05-.09-.11-.14-.17a4.55,4.55,0,0,1-.48-.78Z" style="fill: #ea9e7a"/>
          <path d="M13.54,72.29a5,5,0,0,0-1.46,5.35,7.87,7.87,0,0,0,6.15-6A4.33,4.33,0,0,0,13.54,72.29Z" style="fill: #60bda0"/>
          <path d="M12.08,77.64c.06.18.14.35.22.53l5.76-3.57.64.91-5.78,3.61a4.29,4.29,0,0,0,6.15.44,5,5,0,0,0,.76-6.66,4.23,4.23,0,0,0-1.6-1.3A7.87,7.87,0,0,1,12.08,77.64Z" style="fill: #60bda0"/>
          <path d="M12.3,78.17a4.55,4.55,0,0,0,.48.78c.05.06.09.12.14.17l5.78-3.61-.64-.91Z" style="fill: #60bda0"/>
        </g>
        <g>
          <g>
            <path d="M70,94.54a1.07,1.07,0,0,1-.14.65h0A1.09,1.09,0,0,1,68.22,95h0a1.1,1.1,0,0,0-.2-.31c-.06-.35-.31-.46-.58-.57a1.79,1.79,0,0,1-.92-1c-.08-.29,0-.87-.33-.95a.45.45,0,0,0-.25,0,1.69,1.69,0,0,0-.43.29,3.68,3.68,0,0,0-.59.76,5.84,5.84,0,0,0-.54,1.26,3.3,3.3,0,0,1-.74,1.08,1.38,1.38,0,0,1-1,.43c-.34,0-.74-.07-1,.23a1.64,1.64,0,0,0-.1,1.25h0a2.29,2.29,0,0,1,.07.28,2.8,2.8,0,0,1,0,.51h0c0,.94-.4,2-.41,2.92,0,.46.12.43.11.89,0,.26-.13.34-.17.59s-.06.41-.08.59c0,.35,0,.63,0,.91s-.22.21-.39.09a4,4,0,0,0,.13-.77,2.85,2.85,0,0,0-.3-1.37,2.16,2.16,0,0,1-.08-1.23,16,16,0,0,0,0-2.29c0-.15,0-.29,0-.44,0-.38.1-.75.12-1.13a1.61,1.61,0,0,0,0-.31c-.05-1-.77-1.44-1.66-1.79a15.06,15.06,0,0,1-2.38-1.18A3,3,0,0,1,55,92.29l-.06-.15c-.15-.41.25-1.44-.29-1.53-.32-.06-.58,1-.91,1.78-.24.58-.52,1.06-.88,1-.87-.17-1.21-2.79-.45-4.61h0l.13-.17a3.06,3.06,0,0,1,.52-.55,2.62,2.62,0,0,1,2.81-.27c1.58.69,1.78,2.12,3.77,3.09a4.2,4.2,0,0,0,1.76.49,0,0,0,0,1,0,0s0,0,0,0a.86.86,0,0,0-.42.09s0,0,0,0h.22a.81.81,0,0,0-.35.31s0,0,0,0a1.19,1.19,0,0,1,.42-.26l0,0c-.14.16-.42.41-.41.64,0,0,0,0,0,0a1.24,1.24,0,0,1,.35-.49.79.79,0,0,0-.05.31.75.75,0,0,1,.42-.37,1.5,1.5,0,0,0-.54.83,0,0,0,0,0,0,0,1.61,1.61,0,0,1,.64-.79l.15-.08a.87.87,0,0,0-.07.17,1.53,1.53,0,0,0-.13.52,1.76,1.76,0,0,0,0,.56s0,0,0,0c0-.22.07-.43.12-.63v.12a3.47,3.47,0,0,0,0,.85,0,0,0,0,0,0,0,2.56,2.56,0,0,1,0-.62,1.51,1.51,0,0,1,.11-.22.3.3,0,0,0,0,.1.08.08,0,0,0,0,0h0a2,2,0,0,0,0,.42,0,0,0,1,0,0,0,3.75,3.75,0,0,1,.16-.81.8.8,0,0,1,.13-.13l-.07.16a.75.75,0,0,0-.06.25l.25-.23c-.06.09-.12.18-.17.27s0,0,0,0a2.61,2.61,0,0,1,.4-.47,1.43,1.43,0,0,0,.09.41s0,0,0,0a1.53,1.53,0,0,1,0-.3l0,.28a1.77,1.77,0,0,0,.26.74,0,0,0,1,0,0,0,1.65,1.65,0,0,1-.16-.68l0,0,0-.19v0a3.18,3.18,0,0,0,.15.59s0,0,0,0,0-.23,0-.34c0,.08.07.15.1.22a3.64,3.64,0,0,0,.19.72s0,0,0,0L63.22,93l0,0a1.36,1.36,0,0,1,0-.29c0,.13,0,.26,0,.38a0,0,0,0,0,0,0,3.32,3.32,0,0,1,0-.63l.06-.18a2.08,2.08,0,0,0,0,.31s.05-.14.14-.34.08-.16.13-.26c0,.11-.09.21-.13.32s0,0,0,0l.09-.21a2,2,0,0,0-.07.72s0,0,0,0a1.36,1.36,0,0,1,.11-.65,3.43,3.43,0,0,0-.06.34s0,0,0,0a3.5,3.5,0,0,1,.42-1.13,4.09,4.09,0,0,0-.28.88s0,0,0,0a4.65,4.65,0,0,1,.4-.91,1.7,1.7,0,0,0,0,.39s0,0,0,0l0-.18a4.76,4.76,0,0,0,.26.78s0,0,0,0-.09-.26-.13-.39v0c0-.12,0-.24,0-.36a3.51,3.51,0,0,0,.15.49,1.52,1.52,0,0,0,.2.47s0,0,0,0a2.23,2.23,0,0,1-.2-.6,2.6,2.6,0,0,0,.1.25s0,0,0,0a.29.29,0,0,0,0-.09h0c0-.12,0-.24,0-.36a1.92,1.92,0,0,1,.15-.48c0,.2,0,.32,0,.32l.19-.26.11-.16a4.22,4.22,0,0,0-.18.45s0,0,0,0a3.72,3.72,0,0,1,.27-.57,2.33,2.33,0,0,0-.23.72s0,0,0,0c.09-.18.16-.37.24-.55l0,0a1.16,1.16,0,0,0-.1.81s0,0,0,0a2.06,2.06,0,0,1,.28-1,2.71,2.71,0,0,0-.11.61h0a7.93,7.93,0,0,1,.25-.83.37.37,0,0,1,0-.11l.13-.2a2.3,2.3,0,0,0,.17.85s0,0,0,0a2,2,0,0,1-.1-.72.28.28,0,0,1,0-.09c0,.06,0,.12,0,.18a2,2,0,0,0,.19.73s0,0,0,0a3.48,3.48,0,0,1-.1-.44h0c0-.12,0-.23,0-.34v0a2.6,2.6,0,0,0,0,.56s0,0,0,0a2.38,2.38,0,0,1,.05-.71l.09-.14a.49.49,0,0,0,0,.12.63.63,0,0,0,0,.22,1.31,1.31,0,0,0,.13-.16.85.85,0,0,0,0,.23h0a3.1,3.1,0,0,1,.21-.45l0,0a.75.75,0,0,0-.1.33,0,0,0,0,0,0,0,2.32,2.32,0,0,1,.18-.46c0,.37.07.71.38.73l-.15,0-.07,0-.06,0a.88.88,0,0,0-.43.46,1.54,1.54,0,0,0,.19-.17.57.57,0,0,0-.13.35c0-.08.09-.17.14-.24a.81.81,0,0,0,0,.55c0-.32.19-.47.46-.57a.74.74,0,0,0-.35.41.8.8,0,0,1,.39-.36l.1,0a.7.7,0,0,0-.19.16c.33-.21.75-.2,1-.53a1,1,0,0,0,.19-.77.88.88,0,0,0,0-.17l0,0a.58.58,0,0,1,0,.14,1,1,0,0,1-.23.84,1,1,0,0,0,.31-.81.21.21,0,0,0,0,.06l0,.16s0-.07,0-.1l.1.14A1.58,1.58,0,0,1,69,91.56a5.2,5.2,0,0,0,.48,2.18,2.43,2.43,0,0,0,.15.26h0s0,0,0,.07a.37.37,0,0,1,.07.3c0,.15.1.24.24.16Zm-.62-.67a.94.94,0,0,0-.16-.46l0,0a4.5,4.5,0,0,1-.16-.48c0-.16-.07-.33-.1-.5,0-.36.06-1-.21-1.26a.38.38,0,0,0-.68.14.93.93,0,0,0,.16.74,2.89,2.89,0,0,1,.38.69,1.4,1.4,0,0,1,.09.29h0a2.34,2.34,0,0,1,.09.46c0,.2,0,.45.25.55S69.34,94.05,69.36,93.87ZM69,95c.25,0,.35-.14.22-.27a.35.35,0,0,1-.13-.28.07.07,0,0,0,0-.06.08.08,0,0,0-.08,0C68.87,94.57,68.79,94.92,69,95Zm-1.25-2.59a.71.71,0,0,1,0-.17.45.45,0,0,0-.16-.32.21.21,0,0,0-.3,0l0,0s0,.34.21.37S67.69,92.29,67.79,92.38Z" style="fill: #f4b425"/>
            <path d="M70,94.53h0c-.14.08-.27,0-.24-.16a.37.37,0,0,0-.07-.3s0,0,0-.07v0a2.14,2.14,0,0,1,.13.19A.91.91,0,0,1,70,94.53Z" style="fill: #f8db98"/>
            <path d="M69.84,95.19v0l-.1.12,0,0-.12.1,0,0-.15.08h0l-.15,0H69.1s0,0,0,0h-.24l-.14,0h0l-.09,0-.08,0-.09-.06-.06-.07a.46.46,0,0,1-.07-.16l0-.09a.75.75,0,0,0,0-.16A1.09,1.09,0,0,0,69.84,95.19Z" style="fill: #f4b425"/>
            <path d="M69.2,93.41a.94.94,0,0,1,.16.46c0,.18-.22.19-.36.13s-.23-.35-.25-.55a2.34,2.34,0,0,0-.09-.46l.36-.1a4.5,4.5,0,0,0,.16.48Z" style="fill: #f8db98"/>
            <path d="M69.26,94.7c.13.13,0,.32-.22.27s-.17-.4,0-.59a.08.08,0,0,1,.08,0,.07.07,0,0,1,0,.06A.35.35,0,0,0,69.26,94.7Z" style="fill: #f8db98"/>
            <path d="M69.15,95.61h0Z" style="fill: #845d50"/>
            <path d="M69.1,95.61h0S69.1,95.62,69.1,95.61Z" style="fill: #f4b425"/>
            <path d="M69,92.89l-.36.1h0a1.4,1.4,0,0,0-.09-.29,2.89,2.89,0,0,0-.38-.69.93.93,0,0,1-.16-.74.38.38,0,0,1,.68-.14c.27.3.16.9.21,1.26C69,92.56,69,92.73,69,92.89Z" style="fill: #f8db98"/>
            <path d="M68.59,95.53a.2.2,0,0,1-.08,0,.18.18,0,0,1-.09-.06l.09.06Z" style="fill: #845d50"/>
            <path d="M68.47,88.89a.94.94,0,0,1,0,1.12.9.9,0,0,0-.08-.28A1.72,1.72,0,0,0,68.47,88.89Z" style="fill: #f8db98"/>
            <path d="M68.37,89.35a.75.75,0,0,0-.24-.15,1.59,1.59,0,0,0,.09-.5.05.05,0,0,1,.1,0,1.07,1.07,0,0,1,.15.22,1.72,1.72,0,0,1-.08.84,1.32,1.32,0,0,0-.16-.25.93.93,0,0,0-.15-.13l0-.1A.77.77,0,0,1,68.37,89.35Z" style="fill: #f4b425"/>
            <path d="M68.38,89.93s0,.08,0,.12v0a1,1,0,0,1-.31.81,1,1,0,0,0,.23-.84.58.58,0,0,0,0-.14.42.42,0,0,0,0-.1.13.13,0,0,0,0,.06.88.88,0,0,1,0,.17,1,1,0,0,1-.19.77c-.26.33-.68.32-1,.53a.7.7,0,0,1,.19-.16l-.1,0a.8.8,0,0,0-.39.36.74.74,0,0,1,.35-.41c-.27.1-.47.25-.46.57a.81.81,0,0,1,0-.55c-.05.07-.09.16-.14.24a.57.57,0,0,1,.13-.35,1.54,1.54,0,0,1-.19.17.88.88,0,0,1,.43-.46,1.17,1.17,0,0,0,.64,0l-.32.2a1,1,0,0,0,.55-.32l0-.05a1.2,1.2,0,0,1-.13.21.78.78,0,0,0,.21-.31.7.7,0,0,0,.06-.53,1.32,1.32,0,0,1,0,.71,1,1,0,0,0-.1-1.1,1,1,0,0,1,.29.3.93.93,0,0,0-.39-.46.83.83,0,0,0-.26-.1h-.21a.62.62,0,0,1,.14-.14.52.52,0,0,1,.51-.09.7.7,0,0,0-.48.18l.07,0a.76.76,0,0,1,.86.12.77.77,0,0,0-.25-.1.62.62,0,0,0-.33,0,.65.65,0,0,1,.29.11.93.93,0,0,1,.15.13,1.32,1.32,0,0,1,.16.25.9.9,0,0,1,.08.28,1.21,1.21,0,0,1,0,.19s0,.06,0,.1l0-.16,0-.09Z" style="fill: #f8db98"/>
            <path d="M68.38,89.93l0,.12h0S68.39,90,68.38,89.93Z" style="fill: #f8db98"/>
            <path d="M68.26,95.11l0,.09Z" style="fill: #cfc3c1"/>
            <path d="M68.27,89.91l0,0a.13.13,0,0,1,0-.06A.42.42,0,0,1,68.27,89.91Z" style="fill: #f8db98"/>
            <path d="M68.12,89.25l0,.1a.65.65,0,0,0-.29-.11A.62.62,0,0,1,68.12,89.25Z" style="fill: #f8db98"/>
            <path d="M67.84,89.55a1,1,0,0,1,.1,1.1,1.32,1.32,0,0,0,0-.71.7.7,0,0,1-.06.53.78.78,0,0,1-.21.31,1.2,1.2,0,0,0,.13-.21l0,.05a1,1,0,0,1-.55.32l.32-.2a1.17,1.17,0,0,1-.64,0l.06,0,.07,0,.16,0h0c.23,0,.26-.17.26-.32a1.81,1.81,0,0,0-.1-.47,5,5,0,0,1-.14-.52l.06-.1h.21a.83.83,0,0,1,.26.1.93.93,0,0,1,.39.46A1,1,0,0,0,67.84,89.55Z" style="fill: #f8db98"/>
            <path d="M68,94.63l0,0c-.48-.46-1.39-.5-1.74-1.43a2.07,2.07,0,0,0-.89,1.41,3.66,3.66,0,0,1-.76,1.86h0s-1.73,1.54-3,1.3a2.29,2.29,0,0,0-.07-.28h0a1.64,1.64,0,0,1,.1-1.25c.25-.3.65-.25,1-.23a1.38,1.38,0,0,0,1-.43,3.3,3.3,0,0,0,.74-1.08,5.84,5.84,0,0,1,.54-1.26,3.68,3.68,0,0,1,.59-.76,1.69,1.69,0,0,1,.43-.29.45.45,0,0,1,.25,0c.31.08.25.66.33.95a1.79,1.79,0,0,0,.92,1C67.71,94.17,68,94.28,68,94.63Z" style="fill: #f4b425"/>
            <path d="M67.75,92.21a.71.71,0,0,0,0,.17c-.1-.09-.15,0-.32,0s-.21-.37-.21-.37l0,0a.34.34,0,0,0,.22.35A.28.28,0,0,0,67.75,92.21Z" style="fill: #f4b425"/>
            <path d="M67.59,91.89a.45.45,0,0,1,.16.32.28.28,0,0,1-.24.07.34.34,0,0,1-.22-.35A.21.21,0,0,1,67.59,91.89Zm-.07.11s0-.07,0-.07a.06.06,0,0,0-.08,0s0,.06,0,.07A.07.07,0,0,0,67.52,92Z" style="fill: #f4b425"/>
            <path d="M67.47,91.93s0,0,0,.07a.07.07,0,0,1-.08,0s-.06,0,0-.07A.06.06,0,0,1,67.47,91.93Z" style="fill: #f4b425"/>
            <path d="M67.45,90.39c0,.15,0,.32-.26.32h0c-.31,0-.42-.36-.38-.73a2,2,0,0,1,.09-.35,1.18,1.18,0,0,1,.16-.29.27.27,0,0,1,.07-.08.06.06,0,0,1,.1,0s0,.08,0,.12a5,5,0,0,0,.14.52A1.81,1.81,0,0,1,67.45,90.39Zm-.33.08c.25,0-.06-.5,0-1.1C66.86,89.67,66.71,90.48,67.12,90.47Z" style="fill: #f4b425"/>
            <path d="M67.16,90.7h0l-.16,0Z" style="fill: #5a342c"/>
            <path d="M67.12,89.37c-.06.6.25,1.1,0,1.1C66.71,90.48,66.86,89.67,67.12,89.37Z" style="fill: #f8db98"/>
            <path d="M66.74,89.32H67a1.18,1.18,0,0,0-.16.29,1.06,1.06,0,0,1-.31,0c-.1,0-.21,0-.31.08a2,2,0,0,0-.61.37,1.53,1.53,0,0,1,.62-.46h-.15l-.21.11a1.7,1.7,0,0,0-.57.53.78.78,0,0,1,.18-.3,1.45,1.45,0,0,0-.18.17,3.07,3.07,0,0,0-.56.79s0,0,0,0a3.09,3.09,0,0,1,.14-.32c-.33.16-.71.19-1,.5a1.28,1.28,0,0,1,.59-.44.73.73,0,0,0-.41.18.64.64,0,0,1,.37-.29l.16-.06a1.64,1.64,0,0,0-.75.36l-.06,0a2.39,2.39,0,0,0-.54.69.14.14,0,0,1,0-.11A2.35,2.35,0,0,0,63,92a1,1,0,0,1,.21-.64h-.08a.76.76,0,0,0-.34.56.64.64,0,0,1,.2-.56l-.06,0a1.7,1.7,0,0,0-.5.34,1,1,0,0,1,.3-.3l-.07,0-.09,0a1.62,1.62,0,0,0-.52.38.7.7,0,0,1,.24-.29,1.44,1.44,0,0,0-.41.44s0,0,0,0a1.6,1.6,0,0,1,.45-.52l-.1,0a2.37,2.37,0,0,0-.65.22.62.62,0,0,1,.22-.17l-.43.17a1.81,1.81,0,0,1,.27-.18.39.39,0,0,1-.19,0,.13.13,0,0,1-.06-.07,0,0,0,0,0,0,0,.92.92,0,0,1,.56-.27,1.07,1.07,0,0,1,.81-.27l.24-.13a3,3,0,0,0-.42,0c.09-.12.23-.1.36-.1h.12a1,1,0,0,0,.27-.13.8.8,0,0,1,.21-.2,1.73,1.73,0,0,1,.36-.18.8.8,0,0,0-.63.26.83.83,0,0,1,.52-.32h.39l.48-.22a1.49,1.49,0,0,1-.72.1,1.75,1.75,0,0,0,.68-.16h0l.1,0h.2l.29-.1a1.46,1.46,0,0,0-.87.21s0,0,0,0a1.6,1.6,0,0,1,1.08-.23h.06a1.2,1.2,0,0,1,.21-.17.7.7,0,0,0-.32,0,.6.6,0,0,1,.21-.08h.18l0,0A1.13,1.13,0,0,1,66.74,89.32Zm-.15,0-.26-.08a.69.69,0,0,0-.47.07l.23.06A2.92,2.92,0,0,1,66.59,89.33Zm-.65.07-.15,0a.58.58,0,0,0-.15.11Zm-2.26.89.27-.16a1.48,1.48,0,0,0-.29.12.87.87,0,0,0-.21.17h0Zm-1,.59a1.13,1.13,0,0,0-.49.2A3.62,3.62,0,0,0,62.63,90.88Z" style="fill: #f8db98"/>
            <path d="M63.28,92.7a1.36,1.36,0,0,0,0,.29l0,0,.09.49s0,0,0,0a3.64,3.64,0,0,1-.19-.72c0-.07-.07-.14-.1-.22,0,.11,0,.23,0,.34s0,0,0,0a3.18,3.18,0,0,1-.15-.59v0l0,.19,0,0a1.65,1.65,0,0,0,.16.68,0,0,0,1,1,0,0,1.77,1.77,0,0,1-.26-.74l0-.28a1.53,1.53,0,0,0,0,.3s0,0,0,0a1.43,1.43,0,0,1-.09-.41,2.61,2.61,0,0,0-.4.47s0,0,0,0,.11-.18.17-.27l-.25.23a.75.75,0,0,1,.06-.25l.07-.16a.8.8,0,0,0-.13.13,3.75,3.75,0,0,0-.16.81,0,0,0,1,1,0,0,2,2,0,0,1,0-.42h0a.08.08,0,0,1,0,0,.3.3,0,0,1,0-.1,1.51,1.51,0,0,0-.11.22,2.56,2.56,0,0,0,0,.62,0,0,0,0,1,0,0,3.47,3.47,0,0,1,0-.85v-.12c0,.2-.08.41-.12.63,0,0,0,0,0,0a1.76,1.76,0,0,1,0-.56,1.53,1.53,0,0,1,.13-.52.87.87,0,0,1,.07-.17l-.15.08a1.61,1.61,0,0,0-.64.79,0,0,0,0,1,0,0,1.5,1.5,0,0,1,.54-.83.75.75,0,0,0-.42.37.79.79,0,0,1,.05-.31,1.24,1.24,0,0,0-.35.49s0,0,0,0c0-.23.27-.48.41-.64l0,0a1.19,1.19,0,0,0-.42.26s0,0,0,0a.81.81,0,0,1,.35-.31h-.22s0,0,0,0a.86.86,0,0,1,.42-.09s0,0,0,0a.13.13,0,0,0,.06.07.39.39,0,0,0,.19,0,1.81,1.81,0,0,0-.27.18l.43-.17a.62.62,0,0,0-.22.17,2.37,2.37,0,0,1,.65-.22l.1,0a1.6,1.6,0,0,0-.45.52s0,.05,0,0a1.44,1.44,0,0,1,.41-.44.7.7,0,0,0-.24.29,1.62,1.62,0,0,1,.52-.38l.09,0,.07,0a1,1,0,0,0-.3.3,1.7,1.7,0,0,1,.5-.34l.06,0a.64.64,0,0,0-.2.56.76.76,0,0,1,.34-.56h.08A1,1,0,0,0,63,92a2.35,2.35,0,0,1,.22-.45.14.14,0,0,0,0,.11,2.39,2.39,0,0,1,.54-.69l.06,0a1.64,1.64,0,0,1,.75-.36l-.16.06a.64.64,0,0,0-.37.29.73.73,0,0,1,.41-.18,1.28,1.28,0,0,0-.59.44c.26-.31.64-.34,1-.5a3.09,3.09,0,0,0-.14.32s0,0,0,0a3.07,3.07,0,0,1,.56-.79,1.45,1.45,0,0,1,.18-.17.78.78,0,0,0-.18.3,1.7,1.7,0,0,1,.57-.53l.21-.11h.15a1.53,1.53,0,0,0-.62.46,2,2,0,0,1,.61-.37c.1,0,.21,0,.31-.08a1.06,1.06,0,0,0,.31,0,2,2,0,0,0-.09.35,2.32,2.32,0,0,0-.18.46,0,0,0,0,1,0,0,.75.75,0,0,1,.1-.33l0,0a3.1,3.1,0,0,0-.21.45h0a.85.85,0,0,1,0-.23,1.31,1.31,0,0,1-.13.16.63.63,0,0,1,0-.22.49.49,0,0,1,0-.12l-.09.14a2.38,2.38,0,0,0-.05.71s0,0,0,0a2.6,2.6,0,0,1,0-.56v0c0,.11,0,.22,0,.34h0a3.48,3.48,0,0,0,.1.44s0,0,0,0a2,2,0,0,1-.19-.73c0-.06,0-.12,0-.18a.28.28,0,0,0,0,.09,2,2,0,0,0,.1.72s0,0,0,0a2.3,2.3,0,0,1-.17-.85l-.13.2a.37.37,0,0,0,0,.11,7.93,7.93,0,0,0-.25.83h0a2.71,2.71,0,0,1,.11-.61,2.06,2.06,0,0,0-.28,1s0,0,0,0a1.16,1.16,0,0,1,.1-.81l0,0c-.08.18-.15.37-.24.55,0,0,0,0,0,0a2.33,2.33,0,0,1,.23-.72,3.72,3.72,0,0,0-.27.57s0,0,0,0a4.22,4.22,0,0,1,.18-.45l-.11.16-.19.26s0-.12,0-.32a1.92,1.92,0,0,0-.15.48c0,.12,0,.24,0,.36h0a.29.29,0,0,1,0,.09s0,0,0,0a2.6,2.6,0,0,1-.1-.25,2.23,2.23,0,0,0,.2.6s0,0,0,0a1.52,1.52,0,0,1-.2-.47,3.51,3.51,0,0,1-.15-.49c0,.12,0,.24,0,.36v0c0,.13.08.26.13.39s0,0,0,0a4.76,4.76,0,0,1-.26-.78l0,.18s0,0,0,0a1.7,1.7,0,0,1,0-.39,4.65,4.65,0,0,0-.4.91s0,0,0,0a4.09,4.09,0,0,1,.28-.88,3.5,3.5,0,0,0-.42,1.13s0,0,0,0a3.43,3.43,0,0,1,.06-.34,1.36,1.36,0,0,0-.11.65s0,0,0,0a2,2,0,0,1,.07-.72l-.09.21s0,0,0,0,.09-.21.13-.32c0,.1-.1.18-.13.26s-.14.34-.14.34a2.08,2.08,0,0,1,0-.31l-.06.18a3.32,3.32,0,0,0,0,.63,0,0,0,1,1,0,0C63.3,93,63.29,92.83,63.28,92.7Z" style="fill: #f8db98"/>
            <path d="M65.57,89.29a.6.6,0,0,0-.21.08s0,0,0,0Z" style="fill: #f8db98"/>
            <path d="M64.74,89.7h0Z" style="fill: #5a342c"/>
            <path d="M64.63,89.73l.1,0Z" style="fill: #5a342c"/>
            <path d="M64.6,96.44l-.27.37-.11.14s0,0,0,0l0,0-.11.13-.08.08,0,0-.05,0-.21.19,0,0-.18.13-.07.06-.15.09-.09,0-.09,0-.21.09a1.17,1.17,0,0,1-.24.09l-.1,0a1.66,1.66,0,0,1-.21.06h0a2.8,2.8,0,0,1-.28.06h0l-.3,0a2.8,2.8,0,0,0,0-.51C62.87,98,64.56,96.48,64.6,96.44Z" style="fill: #f4b425"/>
            <path d="M64,89.87a1.52,1.52,0,0,0,.67-.14,1.75,1.75,0,0,1-.68.16S63.93,89.87,64,89.87Z" style="fill: #f8db98"/>
            <path d="M64,97.22l.08-.08,0,0Z" style="fill: #6d4c41"/>
            <path d="M64,97.22l0,0c-.07.87-.38,1.79-.4,2.64,0,.47.13.44.11.89,0,.26-.12.35-.16.59a9,9,0,0,0-.13,1.64.16.16,0,0,0-.06,0l-.07,0a.14.14,0,0,1-.09,0h-.09s-.1,0-.13,0l-.05,0h0v0c0-1-.07-1.48-.1-1.9s-.17-.42-.19-.77.07-.38.06-.6c0-.55-.07-1.1-.11-1.62h0a1.17,1.17,0,0,0,.24-.09l.07,0,.14-.07.09,0,.09,0,.15-.09.07-.06.18-.13,0,0,.21-.19.05,0Z" style="fill: #f8db98"/>
            <path d="M63.89,90h0Z" style="fill: #5a342c"/>
            <path d="M63.86,104.92a.37.37,0,0,1,0,.11.8.8,0,0,1-.88-.34.91.91,0,0,1,0-.17s.44.41.76,0a.15.15,0,0,0,0-.13A1.14,1.14,0,0,1,63.86,104.92Z" style="fill: #ea601b"/>
            <path d="M63.81,105l0,0h0l-.05,0h0l0,0h0l0,0h-.25l-.07,0h0l0,0,0,0,0,0,0,0,0,0s0,0,0,0l0,0v0l0-.06v0l0-.11a.8.8,0,0,0,.88.34Z" style="fill: #ea601b"/>
            <path d="M63.7,104.39a.15.15,0,0,1,0,.13c-.32.41-.76,0-.76,0a.71.71,0,0,0,0-.14c0-.4-.19-.33-.19-.58s.17-.41.17-.54V103h0l.05,0s.09,0,.13,0h.09a.14.14,0,0,0,.09,0l.07,0a.16.16,0,0,1,.06,0,1.21,1.21,0,0,1,0,.19v.11c0,.14,0,.28,0,.42A2,2,0,0,0,63.7,104.39Z" style="fill: #f8db98"/>
            <path d="M63.25,90.32a.93.93,0,0,1,.54-.29.83.83,0,0,0-.52.32S63.24,90.34,63.25,90.32Z" style="fill: #f8db98"/>
            <path d="M63.06,97.89l-.14.07-.07,0Z" style="fill: #cfc3c1"/>
            <path d="M62.94,90.61c-.13,0-.27,0-.36.1s0,0,0,0S62.81,90.61,62.94,90.61Z" style="fill: #f8db98"/>
            <path d="M62.61,98.07h0l-.06,0Z" style="fill: #6d4c41"/>
            <path d="M61.67,98.25l.3,0-.3,0Z" style="fill: #6d4c41"/>
            <path d="M61.5,106.24a.21.21,0,0,1,0,.13.77.77,0,0,1-.87-.35.81.81,0,0,1,0-.16A.69.69,0,0,0,61,106h0a.43.43,0,0,0,.32-.18.15.15,0,0,0,0-.13A1,1,0,0,1,61.5,106.24Z" style="fill: #ea601b"/>
            <path d="M61.45,106.37l0,0,0,0,0,0h0l0,0,0,0H61s0,0,0,0l-.06,0s0,0,0,0l-.08,0h0a.34.34,0,0,1-.06-.06s0,0,0,0l0-.06s0,0,0,0h0a.19.19,0,0,1,0-.07,0,0,0,0,1,0,0,.28.28,0,0,1,0-.13.77.77,0,0,0,.87.35Z" style="fill: #ea601b"/>
            <path d="M61.34,105.73a.15.15,0,0,1,0,.13A.43.43,0,0,1,61,106a1.56,1.56,0,0,1-.37-.89,2.53,2.53,0,0,1,.06-.91c.17.12.31.11.39-.09v0c0,.27,0,.53,0,.84A1.86,1.86,0,0,0,61.34,105.73Z" style="fill: #f4b425"/>
            <path d="M61,106h0a.69.69,0,0,1-.41-.18h0a.76.76,0,0,0,0-.43c-.06-.1-.14-.13-.14-.29s.17-.41.17-.54v-.46l.06,0,.08.06a2.53,2.53,0,0,0-.06.91A1.56,1.56,0,0,0,61,106Z" style="fill: #f4b425"/>
            <path d="M60.52,102.1a2.85,2.85,0,0,1,.3,1.37,4,4,0,0,1-.13.77l-.08-.06-.06,0v-.21c0-.5,0-.85-.06-1.14s0-.27,0-.38c0-.38-.17-.42-.2-.77s.08-.39.06-.6c0-.54-.07-1.09-.1-1.6s0-1-.08-1.38v0A4.29,4.29,0,0,1,60,97c0-.42-1.22.68-3.13-1a9.1,9.1,0,0,1-1.53-1.78,8.44,8.44,0,0,1-.66-1.93H55a3,3,0,0,0,1.5,1.44,15.06,15.06,0,0,0,2.38,1.18c.89.35,1.61.8,1.66,1.79a1.61,1.61,0,0,1,0,.31c0,.38-.09.75-.12,1.13,0,.15,0,.29,0,.44a16,16,0,0,1,0,2.29A2.16,2.16,0,0,0,60.52,102.1Z" style="fill: #f4b425"/>
            <path d="M60.14,98v0l0,0-.56-.2-.15-.06-.56-.25-.1,0a5.42,5.42,0,0,1-.48-.26l-.1,0-.5-.33-.11-.07L57,96.4h0l-.31-.26.1-.12c1.91,1.64,3.13.54,3.13,1A4.29,4.29,0,0,0,60.14,98Z" style="fill: #f4b425"/>
            <path d="M56.82,96l-.1.12L56.55,96l-.08-.07L56,95.47,56,95.41c-.15-.16-.3-.31-.44-.47l0,0h0c-.25-.28-.49-.58-.73-.89a2.56,2.56,0,0,1-.2-.26l-.06-.06,0,0h0a.34.34,0,0,0-.33-.12h0l0,0h0l0,0a.35.35,0,0,0-.09.16v0a2.64,2.64,0,0,1,0-1.3c.08-.27.23-.44.5-.35a.28.28,0,0,1,.16.16,8.44,8.44,0,0,0,.66,1.93A9.1,9.1,0,0,0,56.82,96Z" style="fill: #f4b425"/>
            <path d="M55.48,94.9h0a3.12,3.12,0,0,1-.83,1c-.12.08-.16.26-.12.65.07.57.12,1,.19,1.6a.46.46,0,0,1-.38.17,1.31,1.31,0,0,0-.25,0c0-.09,0-.18-.05-.26-.27-1.34-.54-2-.61-2.43a5.16,5.16,0,0,0,.23-.66c.22-.17.48-.26.41-1.41l0,0h0a.34.34,0,0,1,.33.12h0l0,0,.06.06a2.56,2.56,0,0,0,.2.26C55,94.32,55.23,94.62,55.48,94.9Z" style="fill: #f8db98"/>
            <path d="M55.2,100.22a.24.24,0,0,1-.05.13.79.79,0,0,1-.87-.35.91.91,0,0,1,0-.17.58.58,0,0,0,.4.16.37.37,0,0,0,.36-.2.11.11,0,0,0,0-.08A1,1,0,0,1,55.2,100.22Z" style="fill: #ea601b"/>
            <path d="M55.15,100.35s0,0,0,0l0,0s0,0,0,0,0,0,0,0l0,0h-.33l0,0h0l0,0-.07,0,0,0,0,0,0,0,0,0,0,0a.14.14,0,0,0,0-.06l0,0a.5.5,0,0,1,0-.12A.79.79,0,0,0,55.15,100.35Z" style="fill: #ea601b"/>
            <path d="M55.05,99.71a.11.11,0,0,1,0,.08.37.37,0,0,1-.36.2.58.58,0,0,1-.4-.16c0-.26-.16-.33-.19-.53s.12-.38.09-.55-.05-.29-.07-.42a1.31,1.31,0,0,1,.25,0,.46.46,0,0,0,.38-.17,3,3,0,0,1,0,.33c0,.19,0,.4.07.64S55.05,99.58,55.05,99.71Z" style="fill: #f8db98"/>
            <path d="M54.93,92.14l.06.15h-.36a.28.28,0,0,0-.16-.16c-.27-.09-.42.08-.5.35l-.24-.1c.33-.82.59-1.84.91-1.78C55.18,90.7,54.78,91.73,54.93,92.14Z" style="fill: #f4b425"/>
            <path d="M53.73,92.39l.24.1a2.64,2.64,0,0,0,0,1.3A8.45,8.45,0,0,1,53.67,95a5.16,5.16,0,0,1-.23.66,5.39,5.39,0,0,1-.29.59l-.09.14-.06.09a2.71,2.71,0,0,1-.43.52l-.15.14-.08.07,0,0c-.11.08-.16.26-.11.65l0,.23c0,.42.09.76.14,1.23-.06,0-.12.19-.2.17s-.19-.14-.27-.16-.12-.14-.22-.18c0,.2.06.43.1.67,0-.24-.09-.47-.13-.68s-.12-.52-.18-.74a2.68,2.68,0,0,0-.07-.27l-.16-.57c0-.17-.09-.32-.12-.44a1.11,1.11,0,0,1,0-.43.35.35,0,0,1,0-.13h0c.22-.5.73-.09.61-1.78-.06-.89-.14-1.79-.14-2.66a8.33,8.33,0,0,1,.26-2.24h0a.31.31,0,0,1,0-.08l0-.09a3.46,3.46,0,0,1,.2-.45h0a1.62,1.62,0,0,1,.1-.18c.06-.11.13-.21.19-.3-.76,1.82-.42,4.44.45,4.61C53.21,93.45,53.49,93,53.73,92.39Z" style="fill: #f4b425"/>
            <path d="M51.49,89.17c.29-.92,1.3-1.36,1.56-1.12a3.06,3.06,0,0,0-.52.55l-.13.17h0c-.06.09-.13.19-.19.3a1.62,1.62,0,0,0-.1.18h0a3.46,3.46,0,0,0-.2.45l0,.09a.31.31,0,0,0,0,.08h0a8.33,8.33,0,0,0-.26,2.24c0,.87.08,1.77.14,2.66.12,1.69-.39,1.28-.61,1.78,0-.54,0-1,0-1.09-.07.52-.1.8-.13,1.19,0,.13,0,.28,0,.45,0-.15,0-.3,0-.45,0-.79.1-1.57.18-2.35s0-1.88,0-2.81A8.1,8.1,0,0,1,51.49,89.17Z" style="fill: #f8db98"/>
            <path d="M52.85,101.55a.21.21,0,0,1-.05.13.8.8,0,0,1-.88-.34c0-.06,0-.11,0-.17a.59.59,0,0,0,.4.15.39.39,0,0,0,.37-.19.11.11,0,0,0,0-.08A1.09,1.09,0,0,1,52.85,101.55Z" style="fill: #ea601b"/>
            <path d="M52.8,101.68l0,0s0,0,0,0l0,0h0a.05.05,0,0,1,0,0h0l0,0h-.29l-.06,0h0l-.07,0h0l-.07-.06v0l0-.06,0,0,0-.07s0,0,0,0l0-.12h0a.8.8,0,0,0,.88.34Z" style="fill: #ea601b"/>
            <path d="M52.7,101.05a.11.11,0,0,1,0,.08.39.39,0,0,1-.37.19.59.59,0,0,1-.4-.15c0-.27-.15-.33-.18-.53s.12-.38.09-.55,0-.18,0-.26c0-.24-.08-.47-.1-.67.1,0,.12.16.22.18s.19.14.27.16.14-.14.2-.17c0,.3.08.65.13,1.11S52.7,100.92,52.7,101.05Z" style="fill: #f4b425"/>
            <path d="M52.57,97a2.29,2.29,0,0,1-.07.28,0,0,0,0,1,0,0c0,.11-.06.2-.09.3s0,0,0,0,0-.22,0-.33l0-.13Z" style="fill: #f8db98"/>
            <path d="M52.34,97.19v0c0,.3-.07.59-.12.88l0-.23c0-.39,0-.57.11-.65Z" style="fill: #f8db98"/>
            <path d="M52.4,88.78c-.06.09-.13.19-.19.3C52.27,89,52.34,88.87,52.4,88.78Z" style="fill: #f4b425"/>
            <path d="M51.46,98.41c0,.19,0,.37,0,.56a0,0,0,1,1,0,0c0-.28,0-.55,0-.83A2.68,2.68,0,0,1,51.46,98.41Z" style="fill: #f8db98"/>
            <path d="M51.23,97.57c0,.21,0,.42,0,.63a0,0,0,1,1-.06,0c0-.3,0-.68,0-1.07C51.14,97.25,51.18,97.4,51.23,97.57Z" style="fill: #f8db98"/>
          </g>
          <circle cx="67.21" cy="93.16" r="0.56" style="fill: #ea601b"/>
          <g>
            <path d="M71,94.4a.08.08,0,0,0,0-.08l0,0,0,0-.11.17a1.26,1.26,0,0,0-.17.32h0a.15.15,0,0,0,.24-.16A.35.35,0,0,1,71,94.4Z" style="fill: #f4b425"/>
            <path d="M71.48,95.93h0Z" style="fill: #f8db98"/>
            <path d="M71.53,95.94h0Z" style="fill: #f8db98"/>
            <path d="M71.59,95.3c.25-.06.17-.41,0-.59a.06.06,0,0,0-.07,0,.05.05,0,0,0,0,.06.4.4,0,0,1-.13.28C71.24,95.16,71.34,95.34,71.59,95.3Z" style="fill: #f4b425"/>
            <path d="M71.89,93.78a2.57,2.57,0,0,1,.08-.47l-.36-.09a3,3,0,0,1-.16.48l0,0c-.06.13-.18.3-.16.45s.22.2.36.13S71.86,94,71.89,93.78Z" style="fill: #f4b425"/>
            <path d="M72,95.86l.09,0,.08-.06-.08.06Z" style="fill: #f8db98"/>
            <path d="M72.16,90.33a1.43,1.43,0,0,1,.09-.27,2,2,0,0,1-.09-.84C71.93,89.65,71.92,90.14,72.16,90.33Z" style="fill: #f4b425"/>
            <path d="M72.6,91.6a.38.38,0,0,0-.68-.15c-.27.31-.16.9-.21,1.27a3,3,0,0,1-.1.5l.36.09h0a1.9,1.9,0,0,1,.09-.29,3.56,3.56,0,0,1,.38-.69A.91.91,0,0,0,72.6,91.6Z" style="fill: #f4b425"/>
            <path d="M72.21,95.76a.19.19,0,0,0,.06-.07Z" style="fill: #f8db98"/>
            <path d="M72.24,90.38a.59.59,0,0,1,0-.13.56.56,0,0,0,0,.12Z" style="fill: #f8db98"/>
            <path d="M72.37,95.43s0,.06,0,.09S72.36,95.46,72.37,95.43Z" style="fill: #f8db98"/>
            <path d="M72.41,90.14a.31.31,0,0,0,0,.1l0,0A.09.09,0,0,1,72.41,90.14Z" style="fill: #f8db98"/>
            <path d="M72.42,95.27a1.1,1.1,0,0,1-1.62.25h0a1.25,1.25,0,0,0,.09.12s0,0,0,0l.13.1h0l.15.08h0l.16,0h.41l.14,0h0l.08,0,.09,0,.08-.06h0l.06-.07a.53.53,0,0,0,.08-.17s0-.06,0-.09S72.4,95.32,72.42,95.27Z" style="fill: #f8db98"/>
            <path d="M72.4,89.81a.87.87,0,0,1,.15-.13l0-.11a1.45,1.45,0,0,0-.25.1.59.59,0,0,1,.23-.14,2,2,0,0,1-.08-.5.06.06,0,0,0-.11,0l-.15.23a2,2,0,0,0,.09.84A1,1,0,0,1,72.4,89.81Z" style="fill: #f8db98"/>
            <path d="M72.55,89.68a.79.79,0,0,1,.3-.12.91.91,0,0,0-.33,0Z" style="fill: #f8db98"/>
            <path d="M73.19,92.38a.06.06,0,0,0,0-.08s0-.06-.07,0a.06.06,0,0,0,0,.08A.08.08,0,0,0,73.19,92.38Z" style="fill: #f8db98"/>
            <path d="M73.17,92.25s.06,0,.07,0a.06.06,0,0,1,0,.08.08.08,0,0,1-.07,0A.06.06,0,0,1,73.17,92.25Zm0,.36a.35.35,0,0,0,.23-.35.23.23,0,0,0-.31-.05.46.46,0,0,0-.15.33A.29.29,0,0,0,73.12,92.61Z" style="fill: #f8db98"/>
            <path d="M73.17,92.66c.17,0,.2-.37.2-.37l0,0a.35.35,0,0,1-.23.35.29.29,0,0,1-.23-.07.48.48,0,0,1,0,.17C73,92.61,73,92.7,73.17,92.66Z" style="fill: #f8db98"/>
            <path d="M73.46,91l.17,0-.15,0Z" style="fill: #f8db98"/>
            <path d="M73.69,91.08l-.06,0-.17,0h0c-.22,0-.25-.16-.25-.32a1.76,1.76,0,0,1,.09-.47,4.42,4.42,0,0,0,.14-.52.47.47,0,0,0-.06-.09.2.2,0,0,0-.11,0h-.09a.76.76,0,0,0-.27.1.93.93,0,0,0-.39.46,1.11,1.11,0,0,1,.3-.31A1,1,0,0,0,72.69,91a1.46,1.46,0,0,1,0-.72.8.8,0,0,0,.06.53.87.87,0,0,0,.22.32,1,1,0,0,1-.13-.21l0,0a1,1,0,0,0,.55.32,3.37,3.37,0,0,1-.32-.19,1.28,1.28,0,0,0,.64,0Z" style="fill: #f4b425"/>
            <path d="M73.52,90.8c.4,0,.25-.8,0-1.11C73.57,90.3,73.26,90.79,73.52,90.8Z" style="fill: #f4b425"/>
            <path d="M73.52,89.69c.25.31.4,1.12,0,1.11S73.57,90.3,73.52,89.69Zm.33.6a1.07,1.07,0,0,0-.09-.34,1.4,1.4,0,0,0-.15-.3l-.07-.08a.06.06,0,0,0-.1,0s0,.07,0,.11a4.42,4.42,0,0,1-.14.52,1.76,1.76,0,0,0-.09.47c0,.16,0,.32.25.32h0C73.79,91,73.9,90.66,73.85,90.29Z" style="fill: #f8db98"/>
            <path d="M74,91.4l.19.17a.81.81,0,0,0-.43-.46,1.28,1.28,0,0,1-.64,0,3.37,3.37,0,0,0,.32.19,1,1,0,0,1-.55-.32l0,0a1,1,0,0,0,.13.21.87.87,0,0,1-.22-.32.8.8,0,0,1-.06-.53,1.46,1.46,0,0,0,0,.72,1,1,0,0,1,.11-1.11,1.11,1.11,0,0,0-.3.31.93.93,0,0,1,.39-.46.76.76,0,0,1,.27-.1h.09a.2.2,0,0,1,.11,0,.6.6,0,0,0-.13-.14.51.51,0,0,0-.51-.1.69.69,0,0,1,.47.18h-.07a.71.71,0,0,0-.62,0,.59.59,0,0,0-.23.14,1.45,1.45,0,0,1,.25-.1.91.91,0,0,1,.33,0,.79.79,0,0,0-.3.12.87.87,0,0,0-.15.13,1,1,0,0,0-.15.25,1.43,1.43,0,0,0-.09.27,1.34,1.34,0,0,0,0,.2.28.28,0,0,0,0,.09,1.1,1.1,0,0,1,0-.16l0-.09a.56.56,0,0,1,0-.12.59.59,0,0,0,0,.13v0a1,1,0,0,0,.3.81,1,1,0,0,1-.22-.84.5.5,0,0,1,0-.13.31.31,0,0,1,0-.1.09.09,0,0,0,0,0l0,.17a1,1,0,0,0,.2.77c.25.33.67.32,1,.54a.79.79,0,0,0-.2-.17l.11,0a.74.74,0,0,1,.38.36.72.72,0,0,0-.34-.41c.26.1.47.24.46.57a.84.84,0,0,0,0-.56c.05.08.08.16.13.25A.52.52,0,0,0,74,91.4Z" style="fill: #f4b425"/>
            <path d="M75.06,89.62a.58.58,0,0,1,.21.07s0,0,0,0A.59.59,0,0,0,75.06,89.62Z" style="fill: #f8db98"/>
            <path d="M75.89,90h0Z" style="fill: #f8db98"/>
            <path d="M76,90.05l-.11,0Z" style="fill: #f8db98"/>
            <path d="M76,90.06a1.9,1.9,0,0,0,.68.16s0,0,0,0A1.64,1.64,0,0,1,76,90.06Z" style="fill: #f8db98"/>
            <path d="M76.73,90.34h0Z" style="fill: #f4b425"/>
            <path d="M76.75,90.34l.1,0Z" style="fill: #f8db98"/>
            <path d="M77.38,90.65a.88.88,0,0,0-.53-.29.77.77,0,0,1,.51.31S77.4,90.66,77.38,90.65Z" style="fill: #f8db98"/>
            <path d="M77.78,98.31l-.07,0-.14-.07-.08,0-.09,0L77.25,98l-.08,0L77,97.85s0,0,0,0a1.92,1.92,0,0,1-.22-.18l0-.06,0,0,0,0c.07.87.39,1.79.4,2.64,0,.47-.12.44-.11.89,0,.27.13.35.17.6a8.74,8.74,0,0,1,.12,1.63l.07,0a.18.18,0,0,0,.07.05.14.14,0,0,0,.09,0s.06,0,.09,0a.29.29,0,0,0,.13,0l0,0h0v0c0-1,.06-1.49.09-1.91s.17-.42.2-.76-.08-.39-.06-.61c0-.54.07-1.1.1-1.61h0Z" style="fill: #f4b425"/>
            <path d="M77.7,105a.81.81,0,0,0,0-.16s-.44.4-.75,0a.13.13,0,0,1,0-.12,1,1,0,0,0-.16.52.18.18,0,0,0,0,.12A.77.77,0,0,0,77.7,105Z" style="fill: #ea601b"/>
            <path d="M77.67,105.16v0a.5.5,0,0,0,0-.12.77.77,0,0,1-.87.35h0l0,0h0a.1.1,0,0,0,0,0h0l0,0h.31l.08,0h0l0,0a0,0,0,0,0,0,0s0,0,.05,0l0,0s0,0,0,0,0,0,0,0l0,0,0,0Z" style="fill: #f8db98"/>
            <path d="M77.9,104.13c0-.28-.18-.41-.18-.54a2.26,2.26,0,0,1,0-.27h0l0,0a.29.29,0,0,1-.13,0s-.06,0-.09,0a.14.14,0,0,1-.09,0,.18.18,0,0,1-.07-.05l-.07,0a1.34,1.34,0,0,0,0,.2s0,.07,0,.11,0,.27,0,.41a1.92,1.92,0,0,1-.24.73.13.13,0,0,0,0,.12c.31.41.75,0,.75,0v-.15C77.7,104.31,77.9,104.37,77.9,104.13Z" style="fill: #f4b425"/>
            <path d="M77.71,98.28l.07,0-.21-.1Z" style="fill: #f8db98"/>
            <path d="M78.05,91s0,0,0,0-.25-.08-.38-.08C77.82,90.93,78,90.92,78.05,91Z" style="fill: #f8db98"/>
            <path d="M79,98.06a1.31,1.31,0,0,1,.06-.27h0A1.64,1.64,0,0,0,79,96.53a1.11,1.11,0,0,0-1-.23,1.43,1.43,0,0,1-1-.43,3.51,3.51,0,0,1-.74-1.09,5.84,5.84,0,0,0-.54-1.26,3.61,3.61,0,0,0-.59-.76,1.8,1.8,0,0,0-.42-.28.39.39,0,0,0-.25,0c-.32.08-.26.67-.33,1a1.79,1.79,0,0,1-.93,1c-.26.11-.52.21-.58.57a.05.05,0,0,1,0,0c.47-.46,1.39-.5,1.74-1.44a2,2,0,0,1,.88,1.41A3.67,3.67,0,0,0,76,96.76h0S77.76,98.3,79,98.06Z" style="fill: #f8db98"/>
            <path d="M78.31,91.87l0,0Z" style="fill: #f4b425"/>
            <path d="M78.67,98.54h0Z" style="fill: #f8db98"/>
            <path d="M78.7,98.55l.26,0h0Z" style="fill: #f8db98"/>
            <path d="M78.7,98.55l.26,0a2.92,2.92,0,0,1,0-.51c-1.24.24-2.92-1.26-3-1.29h0l.27.36.11.14a0,0,0,0,0,0,0l0,0,.12.13.07.08,0,0,0,.06a1.92,1.92,0,0,0,.22.18s0,0,0,0l.18.13.08,0,.15.09.09,0,.08,0,.21.1.24.09.11,0,.2,0h0l.29.05h0Z" style="fill: #f8db98"/>
            <path d="M74.3,89.58a.63.63,0,0,1,.47.07l-.22,0-.51,0Zm.55.11.15.1-.3-.06Zm2.12.89a.58.58,0,0,1,.21.16h0l-.2-.12a2.26,2.26,0,0,0-.26-.16A1.69,1.69,0,0,1,77,90.58Zm1,.63a1,1,0,0,1,.5.2C78.37,91.36,78.22,91.31,78,91.21Zm1.28.75L79,91.78a.28.28,0,0,0,.18,0s0,0,.07-.06h0a1,1,0,0,0-.57-.27,1.08,1.08,0,0,0-.81-.28L77.63,91a2,2,0,0,1,.42,0c-.08-.11-.23-.1-.36-.1h-.12a.79.79,0,0,1-.26-.13,1,1,0,0,0-.22-.2,1.19,1.19,0,0,0-.36-.17.81.81,0,0,1,.63.25.77.77,0,0,0-.51-.31l-.1,0h-.07a.81.81,0,0,0-.22,0L76,90.11a1.55,1.55,0,0,0,.73.11,1.9,1.9,0,0,1-.68-.16h0l-.11,0h-.2l-.29-.1a1.53,1.53,0,0,1,.87.2s0,0,0,0a1.57,1.57,0,0,0-1.09-.23h0L75,89.67a.65.65,0,0,1,.31,0,.58.58,0,0,0-.21-.07h-.17a.05.05,0,0,1,0,0c-.34-.19-.63,0-1,.05a2.62,2.62,0,0,0-.28,0,1.4,1.4,0,0,1,.15.3,1.1,1.1,0,0,0,.31,0l.31.07a2,2,0,0,1,.61.37,1.44,1.44,0,0,0-.62-.45h.16l.2.1a2,2,0,0,1,.58.53,1.25,1.25,0,0,0-.19-.3l.19.18a3,3,0,0,1,.56.79s0,0,0,0a1.48,1.48,0,0,0-.14-.32c.34.16.72.2,1,.5a1.3,1.3,0,0,0-.59-.44.71.71,0,0,1,.42.19.6.6,0,0,0-.37-.29L76,90.84a1.7,1.7,0,0,1,.74.35l.06.06a2.42,2.42,0,0,1,.55.68.12.12,0,0,0,0-.1,2.64,2.64,0,0,1,.23.44,1.18,1.18,0,0,0-.21-.64h.08a.81.81,0,0,1,.34.56.65.65,0,0,0-.21-.55l.06,0a1.94,1.94,0,0,1,.51.33,1.42,1.42,0,0,0-.3-.3l.07,0,.08,0a1.56,1.56,0,0,1,.52.38.79.79,0,0,0-.21-.27l0,0,0,0a1.56,1.56,0,0,1,.39.42s0,0,0,0a1.61,1.61,0,0,0-.45-.52l.09,0a2,2,0,0,1,.66.22.68.68,0,0,0-.23-.18Z" style="fill: #f4b425"/>
            <path d="M80,105.47a2.74,2.74,0,0,0-.07-.9c-.16.11-.31.11-.39-.1v0c0,.27,0,.53,0,.84a2.16,2.16,0,0,1-.25.73.13.13,0,0,0,0,.12.41.41,0,0,0,.33.18A1.67,1.67,0,0,0,80,105.47Z" style="fill: #f8db98"/>
            <path d="M79.82,92.15s0,0,0,0a.9.9,0,0,0-.36-.31l.22,0s0,0,0,0a.82.82,0,0,0-.41-.09l0,0s0,0-.07.06a.28.28,0,0,1-.18,0l.27.18-.44-.18a.68.68,0,0,1,.23.18,2,2,0,0,0-.66-.22l-.09,0a1.61,1.61,0,0,1,.45.52s0,0,0,0a1.56,1.56,0,0,0-.39-.42.79.79,0,0,1,.21.27,1.56,1.56,0,0,0-.52-.38l-.08,0-.07,0a1.42,1.42,0,0,1,.3.3,1.94,1.94,0,0,0-.51-.33l-.06,0a.65.65,0,0,1,.21.55.81.81,0,0,0-.34-.56H77.4a1.18,1.18,0,0,1,.21.64,2.64,2.64,0,0,0-.23-.44.12.12,0,0,1,0,.1,2.42,2.42,0,0,0-.55-.68l-.06-.06a1.7,1.7,0,0,0-.74-.35l.16.06a.6.6,0,0,1,.37.29.71.71,0,0,0-.42-.19,1.3,1.3,0,0,1,.59.44c-.25-.3-.63-.34-1-.5a1.48,1.48,0,0,1,.14.32s0,0,0,0a3,3,0,0,0-.56-.79l-.19-.18a1.25,1.25,0,0,1,.19.3,2,2,0,0,0-.58-.53l-.2-.1h-.16a1.44,1.44,0,0,1,.62.45,2,2,0,0,0-.61-.37L74.07,90a1.1,1.1,0,0,1-.31,0,1.07,1.07,0,0,1,.09.34,2.58,2.58,0,0,1,.18.46s0,0,0,0a1,1,0,0,0-.11-.34l0,0a1.85,1.85,0,0,1,.21.45s0,0,0,0a.78.78,0,0,0,0-.22l.13.16a.88.88,0,0,0,0-.23.52.52,0,0,0,0-.11.42.42,0,0,1,.09.14,2.29,2.29,0,0,1,0,.7s0,0,0,0a2.7,2.7,0,0,0,0-.57l0,0a1.76,1.76,0,0,1,0,.33h0c0,.15-.07.3-.1.45s0,0,0,0a1.88,1.88,0,0,0,.19-.73c0-.06,0-.12,0-.19v.09a1.91,1.91,0,0,1-.1.72s0,0,0,0a2.51,2.51,0,0,0,.18-.84l.13.19A.54.54,0,0,0,75,91c.1.27.16.55.25.83h0a2.18,2.18,0,0,0-.11-.61,1.94,1.94,0,0,1,.28,1s0,0,0,0a1.22,1.22,0,0,0-.09-.81.08.08,0,0,0,0,0l.24.55s0,0,0,0a2.31,2.31,0,0,0-.22-.72,5.77,5.77,0,0,1,.27.56s0,0,0,0-.11-.29-.18-.44a1.67,1.67,0,0,1,.12.16l.18.25a1.67,1.67,0,0,0,0-.31,2.6,2.6,0,0,1,.16.47l0,.36s0,0,0,0,0,.07,0,.1,0,0,0,0a1.86,1.86,0,0,0,.1-.25,2.27,2.27,0,0,1-.19.61s0,0,0,0a2.14,2.14,0,0,0,.2-.47,3.65,3.65,0,0,0,.15-.5,2.2,2.2,0,0,1-.06.37h0a2.64,2.64,0,0,1-.12.4s0,0,0,0a6.64,6.64,0,0,0,.26-.79v.19s0,0,0,0a1.2,1.2,0,0,0,0-.38,3.75,3.75,0,0,1,.4.91s0,0,0,0a4.27,4.27,0,0,0-.28-.88,3.36,3.36,0,0,1,.42,1.13s0,0,0,0a1.86,1.86,0,0,0-.06-.34,1.42,1.42,0,0,1,.11.66s0,0,0,0a1.91,1.91,0,0,0-.07-.71l.09.2s0,0,0,0-.08-.21-.13-.31l.14.26a3.16,3.16,0,0,1,.13.33,1,1,0,0,0,0-.3l.06.17a3.43,3.43,0,0,1,0,.64s0,0,0,0,0-.25,0-.38a2.64,2.64,0,0,1,0,.29l0,0c0,.17,0,.33-.08.5,0,0,0,0,0,0a2.55,2.55,0,0,0,.19-.72,1.13,1.13,0,0,0,.11-.22c0,.12,0,.23,0,.35s0,0,0,0a4.81,4.81,0,0,0,.14-.6l0,0,0,.19,0,0a1.84,1.84,0,0,1-.17.68,0,0,0,0,0,0,0,2,2,0,0,0,.25-.74l0-.28c0,.09,0,.19,0,.29s0,0,0,0a1.16,1.16,0,0,0,.09-.41,3.63,3.63,0,0,1,.41.46s0,0,0,0a2,2,0,0,0-.17-.27l.26.23a1.46,1.46,0,0,0-.06-.26l-.07-.15.12.12a4,4,0,0,1,.17.82,0,0,0,1,0,0,0,2,2,0,0,0,0-.43s0,0,0,0a.14.14,0,0,1,0-.06s0-.06,0-.09a1.47,1.47,0,0,1,.1.22,2.06,2.06,0,0,1,0,.61s0,0,0,0a3.41,3.41,0,0,0,0-.85.48.48,0,0,0,0-.12c.05.21.08.42.12.63,0,0,0,0,0,0a1.82,1.82,0,0,0,0-.57,1.66,1.66,0,0,0-.13-.52L78.81,92l.14.08a1.6,1.6,0,0,1,.65.8s0,0,0,0a1.39,1.39,0,0,0-.54-.83.73.73,0,0,1,.42.36.73.73,0,0,0-.05-.3,1.15,1.15,0,0,1,.35.48h0c0-.22-.27-.48-.41-.64l0,0A1.54,1.54,0,0,1,79.82,92.15Z" style="fill: #f4b425"/>
            <path d="M71.59,95.3c-.25,0-.35-.14-.21-.27a.4.4,0,0,0,.13-.28.05.05,0,0,1,0-.06.06.06,0,0,1,.07,0C71.76,94.89,71.84,95.24,71.59,95.3Zm.33-3.85a.38.38,0,0,1,.68.15.91.91,0,0,1-.16.73,3.56,3.56,0,0,0-.38.69,1.9,1.9,0,0,0-.09.29h0a2.57,2.57,0,0,0-.08.47c0,.2,0,.44-.26.54s-.33.05-.36-.13.1-.32.16-.45l0,0a3,3,0,0,0,.16-.48,3,3,0,0,0,.1-.5C71.76,92.35,71.65,91.76,71.92,91.45Zm1.45.84s0,.33-.2.37-.22,0-.33,0a.48.48,0,0,0,0-.17.46.46,0,0,1,.15-.33.23.23,0,0,1,.31.05Zm14.41,1.42c.87-.16,1.22-2.79.46-4.61l-.13-.17a3.17,3.17,0,0,0-.53-.56,2.62,2.62,0,0,0-2.81-.27c-1.58.7-1.78,2.13-3.76,3.09a4.3,4.3,0,0,1-1.76.5h0l0,0a.82.82,0,0,1,.41.09s0,0,0,0l-.22,0a.9.9,0,0,1,.36.31s0,0,0,0a1.54,1.54,0,0,0-.43-.26l0,0c.14.16.41.42.41.64h0a1.15,1.15,0,0,0-.35-.48.73.73,0,0,1,.05.3.73.73,0,0,0-.42-.36,1.39,1.39,0,0,1,.54.83s0,0,0,0a1.6,1.6,0,0,0-.65-.8L78.81,92l.06.17a1.66,1.66,0,0,1,.13.52,1.82,1.82,0,0,1,0,.57s0,0,0,0c0-.21-.07-.42-.12-.63a.48.48,0,0,1,0,.12,3.41,3.41,0,0,1,0,.85s0,0,0,0a2.06,2.06,0,0,0,0-.61,1.47,1.47,0,0,0-.1-.22s0,.06,0,.09a.14.14,0,0,0,0,.06s0,0,0,0a2,2,0,0,1,0,.43,0,0,0,1,1,0,0,4,4,0,0,0-.17-.82l-.12-.12.07.15a1.46,1.46,0,0,1,.06.26l-.26-.23a2,2,0,0,1,.17.27s0,0,0,0a3.63,3.63,0,0,0-.41-.46,1.16,1.16,0,0,1-.09.41s0,0,0,0,0-.2,0-.29l0,.28a2,2,0,0,1-.25.74,0,0,0,0,1,0,0,1.84,1.84,0,0,0,.17-.68l0,0,0-.19,0,0a4.81,4.81,0,0,1-.14.6s0,0,0,0,0-.23,0-.35a1.13,1.13,0,0,1-.11.22,2.55,2.55,0,0,1-.19.72s0,0,0,0c0-.17,0-.33.08-.5l0,0a2.64,2.64,0,0,0,0-.29c0,.13,0,.26,0,.38s0,0,0,0a3.43,3.43,0,0,0,0-.64l-.06-.17a1,1,0,0,1,0,.3,3.16,3.16,0,0,0-.13-.33L77,92.31c0,.1.09.21.13.31s0,0,0,0l-.09-.2a1.91,1.91,0,0,1,.07.71s0,0,0,0a1.42,1.42,0,0,0-.11-.66,1.86,1.86,0,0,1,.06.34s0,0,0,0a3.36,3.36,0,0,0-.42-1.13,4.27,4.27,0,0,1,.28.88s0,0,0,0a3.75,3.75,0,0,0-.4-.91,1.2,1.2,0,0,1,0,.38s0,0,0,0v-.19a6.64,6.64,0,0,1-.26.79s0,0,0,0a2.64,2.64,0,0,0,.12-.4h0a2.2,2.2,0,0,0,.06-.37,3.65,3.65,0,0,1-.15.5,2.14,2.14,0,0,1-.2.47s0,0,0,0a2.27,2.27,0,0,0,.19-.61,1.86,1.86,0,0,1-.1.25s0,0,0,0,0-.07,0-.1,0,0,0,0l0-.36a2.6,2.6,0,0,0-.16-.47,1.67,1.67,0,0,1,0,.31l-.18-.25a1.67,1.67,0,0,0-.12-.16c.07.15.13.3.18.44s0,0,0,0a5.77,5.77,0,0,0-.27-.56,2.31,2.31,0,0,1,.22.72s0,0,0,0l-.24-.55a.08.08,0,0,1,0,0,1.22,1.22,0,0,1,.09.81s0,0,0,0a1.94,1.94,0,0,0-.28-1,2.18,2.18,0,0,1,.11.61h0c-.09-.28-.15-.56-.25-.83a.54.54,0,0,1,0-.11l-.13-.19a2.51,2.51,0,0,1-.18.84s0,0,0,0a1.91,1.91,0,0,0,.1-.72V90.7c0,.07,0,.13,0,.19a1.88,1.88,0,0,1-.19.73s0,0,0,0,.07-.3.1-.45h0a1.76,1.76,0,0,0,0-.33l0,0a2.7,2.7,0,0,1,0,.57s0,0,0,0a2.29,2.29,0,0,0,0-.7.42.42,0,0,0-.09-.14.52.52,0,0,1,0,.11.88.88,0,0,1,0,.23l-.13-.16a.78.78,0,0,1,0,.22s0,0,0,0a1.85,1.85,0,0,0-.21-.45l0,0a1,1,0,0,1,.11.34s0,0,0,0a2.58,2.58,0,0,0-.18-.46c.05.37-.06.71-.37.74l.15,0,.06,0,.06,0a.81.81,0,0,1,.43.46L74,91.4a.52.52,0,0,1,.13.35c-.05-.09-.08-.17-.13-.25a.84.84,0,0,1,0,.56c0-.33-.2-.47-.46-.57a.72.72,0,0,1,.34.41.74.74,0,0,0-.38-.36l-.11,0a.79.79,0,0,1,.2.17c-.34-.22-.76-.21-1-.54a1,1,0,0,1-.2-.77l0-.17,0,0a.5.5,0,0,0,0,.13,1,1,0,0,0,.22.84,1,1,0,0,1-.3-.81l0,.06a1.1,1.1,0,0,0,0,.16.28.28,0,0,1,0-.09l-.1.14a1.53,1.53,0,0,0-.47,1.22,5.15,5.15,0,0,1-.47,2.17l-.15.26h0a.08.08,0,0,1,0,.08.35.35,0,0,0-.06.3.15.15,0,0,1-.24.16h0a1.11,1.11,0,0,0,.15.64h0a1.1,1.1,0,0,0,1.62-.25h0a.91.91,0,0,1,.19-.3c.06-.36.32-.46.58-.57a1.79,1.79,0,0,0,.93-1c.07-.28,0-.87.33-1a.39.39,0,0,1,.25,0,1.8,1.8,0,0,1,.42.28,3.61,3.61,0,0,1,.59.76,5.84,5.84,0,0,1,.54,1.26A3.51,3.51,0,0,0,77,95.87a1.43,1.43,0,0,0,1,.43,1.11,1.11,0,0,1,1,.23,1.64,1.64,0,0,1,.09,1.25h0a1.31,1.31,0,0,0-.06.27,2.92,2.92,0,0,0,0,.51h0c0,1,.4,2,.42,2.92,0,.47-.13.44-.11.89,0,.26.12.35.16.59s.06.42.08.59c0,.35,0,.64,0,.91s.23.21.39.1a7,7,0,0,1-.13-.78,3.07,3.07,0,0,1,.3-1.36,2,2,0,0,0,.08-1.23,15.89,15.89,0,0,1,.06-2.29,3.4,3.4,0,0,0,0-.45c0-.37-.1-.75-.12-1.13V97c.05-1,.77-1.44,1.66-1.79a16.52,16.52,0,0,0,2.39-1.17,3.11,3.11,0,0,0,1.49-1.44.77.77,0,0,0,.07-.16c.15-.4-.25-1.44.29-1.53.3-.05.54.86.85,1.65S87.39,93.79,87.78,93.71Z" style="fill: #f8db98"/>
            <path d="M80,106.5s0,0,0,0l0-.12a.79.79,0,0,1-.88.35h0l0,0,0,0,0,0h0l0,0h.36l.06,0s0,0,0,0l.07,0h0a.17.17,0,0,0,.06-.06l0,0a.21.21,0,0,0,0-.06l0,0h0Z" style="fill: #ea601b"/>
            <path d="M80.11,105.76c.06-.11.14-.14.14-.3s-.17-.4-.17-.53v-.47l-.06.05-.08.06a2.74,2.74,0,0,1,.07.9,1.67,1.67,0,0,1-.37.89h0a.8.8,0,0,0,.42-.17h0A.67.67,0,0,1,80.11,105.76Z" style="fill: #f8db98"/>
            <path d="M80.07,106.19a.8.8,0,0,1-.42.17h0a.41.41,0,0,1-.33-.18.13.13,0,0,1,0-.12,1.06,1.06,0,0,0-.16.51.24.24,0,0,0,.05.13.79.79,0,0,0,.88-.35S80.07,106.24,80.07,106.19Z" style="fill: #ea601b"/>
            <path d="M83.6,96.72l.32-.27-.11-.11c-1.91,1.64-3.13.53-3.13,1a3.84,3.84,0,0,1-.19,1.06v0h0q.28-.09.57-.21a.94.94,0,0,0,.15-.06l.55-.24.11-.06.48-.26.09-.05.51-.32.11-.08.5-.37Z" style="fill: #f8db98"/>
            <path d="M85.35,94.55A8.13,8.13,0,0,0,86,92.63h-.36a3.11,3.11,0,0,1-1.49,1.44,16.52,16.52,0,0,1-2.39,1.17c-.89.35-1.61.8-1.66,1.79v.31c0,.38.09.76.12,1.13a3.4,3.4,0,0,1,0,.45,15.89,15.89,0,0,0-.06,2.29,2,2,0,0,1-.08,1.23,3.07,3.07,0,0,0-.3,1.36,7,7,0,0,0,.13.78l.08-.06.06-.05c0-.07,0-.14,0-.2,0-.5,0-.86.06-1.14s0-.27,0-.39c0-.38.17-.42.19-.77s-.07-.38-.06-.6c0-.54.07-1.08.1-1.59s.06-1,.08-1.39v0a3.84,3.84,0,0,0,.19-1.06c0-.43,1.22.68,3.13-1A9.2,9.2,0,0,0,85.35,94.55Z" style="fill: #f8db98"/>
            <path d="M86,100.31a.55.55,0,0,0,.4-.16c0-.26.15-.32.18-.52s-.12-.38-.09-.56.05-.28.08-.41a.81.81,0,0,0-.25,0,.5.5,0,0,1-.39-.18c0,.1,0,.22,0,.34s0,.4-.07.64-.2.47-.21.61a.24.24,0,0,0,0,.08A.39.39,0,0,0,86,100.31Z" style="fill: #f4b425"/>
            <path d="M86.85,92.58c-.31-.79-.55-1.7-.85-1.65-.54.09-.14,1.13-.29,1.53a.77.77,0,0,1-.07.16H86a.35.35,0,0,1,.17-.17.33.33,0,0,1,.43.2Z" style="fill: #f8db98"/>
            <path d="M86.31,100.48l0,0,0-.12a.77.77,0,0,1-.68.38.69.69,0,0,1-.2,0l0,0,0,0,0,0h0l0,0H86l0,0h0l.06,0s0,0,0,0a.12.12,0,0,0,0,0l0,0,0,0,0,0A.25.25,0,0,0,86.31,100.48Z" style="fill: #ea601b"/>
            <path d="M86.36,100.32s0-.1,0-.17a.55.55,0,0,1-.4.16.39.39,0,0,1-.37-.19.24.24,0,0,1,0-.08,1.09,1.09,0,0,0-.15.5.21.21,0,0,0,0,.13.69.69,0,0,0,.2,0A.77.77,0,0,0,86.36,100.32Z" style="fill: #ea601b"/>
            <path d="M86.54,98.66a2.56,2.56,0,0,1,0-.27c.27-1.33.54-2,.61-2.42-.09-.22-.17-.44-.24-.67s-.47-.26-.41-1.41h0a.33.33,0,0,0-.33.11h0l0,0s0,0,0,0l0,0h0l-.2.25h0c-.24.31-.49.61-.74.89h0a3.25,3.25,0,0,0,.84,1c.11.09.15.27.11.66-.06.57-.11,1-.19,1.59a.5.5,0,0,0,.39.18A.81.81,0,0,1,86.54,98.66Z" style="fill: #f4b425"/>
            <path d="M86.69,94.11a2.67,2.67,0,0,0-.09-1.45.33.33,0,0,0-.43-.2.35.35,0,0,0-.17.17,8.13,8.13,0,0,1-.65,1.92,9.2,9.2,0,0,1-1.54,1.79l.11.11.16-.14.09-.08.46-.44.06-.06.43-.47s0,0,0,0h0c.25-.28.5-.58.74-.89h0l.2-.25h0l0,0s0,0,0,0l0,0h0a.33.33,0,0,1,.33-.11h.07s0,0,0,0a.35.35,0,0,1,.08.15Z" style="fill: #f8db98"/>
            <path d="M88.28,97.9c0-.11,0-.22,0-.32v-.13l-.16-.14c0,.09,0,.18.07.27s0,0,0,0a1.71,1.71,0,0,1,.09.3S88.28,97.93,88.28,97.9Z" style="fill: #f4b425"/>
            <path d="M88.24,89.1c.06.09.12.2.19.3C88.36,89.3,88.3,89.19,88.24,89.1Z" style="fill: #f8db98"/>
            <path d="M88.3,97.54a6.57,6.57,0,0,0,.12.89,1.94,1.94,0,0,0,0-.24c0-.39,0-.57-.11-.65l0,0Z" style="fill: #f4b425"/>
            <path d="M88.43,89.4l.1.18Z" style="fill: #f8db98"/>
            <path d="M88.72,101.49a.58.58,0,0,1-.4.16.39.39,0,0,1-.37-.19.25.25,0,0,1,0-.08,1,1,0,0,0-.15.5.21.21,0,0,0,0,.13.77.77,0,0,0,.87-.35A.91.91,0,0,0,88.72,101.49Z" style="fill: #ea601b"/>
            <path d="M88.53,89.59a4.54,4.54,0,0,1,.21.45A4.54,4.54,0,0,0,88.53,89.59Z" style="fill: #f8db98"/>
            <path d="M88.64,101.89l0-.08a0,0,0,0,0,0,0,.53.53,0,0,0,0-.12h0a.77.77,0,0,1-.87.35h0l0,0s0,0,0,0l0,0h0l0,0h.36l.06,0h0a.18.18,0,0,0,.07,0h0l.06-.06a0,0,0,0,1,0,0,.21.21,0,0,1,0-.06S88.64,101.9,88.64,101.89Z" style="fill: #ea601b"/>
            <path d="M88.86,100.16c0-.25.08-.48.1-.68-.1,0-.11.16-.21.19s-.2.14-.28.16-.14-.14-.2-.18c0,.3-.07.66-.12,1.12s-.21.47-.21.61a.25.25,0,0,0,0,.08.39.39,0,0,0,.37.19.58.58,0,0,0,.4-.16c0-.26.15-.32.18-.52s-.11-.38-.08-.56S88.85,100.24,88.86,100.16Z" style="fill: #f8db98"/>
            <path d="M89.06,92.46a8.36,8.36,0,0,0-.27-2.25h0v0a.14.14,0,0,0,0-.06.29.29,0,0,0,0-.09,4.54,4.54,0,0,0-.21-.45h0l-.1-.18c-.07-.1-.13-.21-.19-.3.76,1.82.41,4.45-.46,4.61-.39.08-.67-.49-.93-1.13l-.25.08a2.67,2.67,0,0,1,.09,1.45A10,10,0,0,0,87,95.3c.07.23.15.45.24.67a3.14,3.14,0,0,0,.29.58l.08.15.06.09a3.6,3.6,0,0,0,.43.52l.16.14.08.06,0,0c.12.08.16.26.11.65a1.94,1.94,0,0,1,0,.24c0,.41-.09.75-.15,1.22.06,0,.13.2.2.18s.19-.14.28-.16.11-.15.21-.19c0,.2-.06.43-.1.68,0-.25.09-.48.14-.69s.11-.51.17-.73,0-.19.07-.27.11-.41.16-.57.09-.32.12-.45a1.13,1.13,0,0,0,0-.43.56.56,0,0,0,0-.12h0c-.22-.51-.72-.1-.61-1.78C89,94.22,89.06,93.33,89.06,92.46Z" style="fill: #f8db98"/>
            <path d="M89.24,99.3c0-.28,0-.56,0-.83,0,.08,0,.17-.07.27s0,.37,0,.56C89.19,99.32,89.24,99.32,89.24,99.3Z" style="fill: #f4b425"/>
            <path d="M89.5,98.52c0-.29,0-.68,0-1.07,0,.13-.07.27-.12.45s0,.42,0,.62C89.45,98.56,89.5,98.56,89.5,98.52Z" style="fill: #f4b425"/>
            <path d="M89.47,94.65c-.09-.92.06-1.89,0-2.81a8.11,8.11,0,0,0-.37-2.34c-.29-.93-1.29-1.37-1.56-1.13a3.17,3.17,0,0,1,.53.56l.13.17c.06.09.12.2.19.3l.1.18h0a4.54,4.54,0,0,1,.21.45.29.29,0,0,1,0,.09.14.14,0,0,1,0,.06v0h0a8.36,8.36,0,0,1,.27,2.25c0,.87-.09,1.76-.15,2.66-.11,1.68.39,1.27.61,1.78,0-.55,0-1,0-1.09.07.51.11.79.13,1.19,0,.13,0,.27,0,.44,0-.15,0-.3,0-.45C89.63,96.21,89.55,95.43,89.47,94.65Z" style="fill: #f4b425"/>
          </g>
          <circle cx="86.9" cy="93.48" r="0.56" style="fill: none"/>
          <circle cx="73.46" cy="93.48" r="0.56" style="fill: #ea601b"/>
        </g>
        <g>
          <path d="M115.22,81.58c-.4.25-.71.18-.86,0,0,0,.22,0,.26-.09-.29,0-.53-.51-.64-.72a.38.38,0,0,1,.27-.08.68.68,0,0,0-.76-.26.26.26,0,0,1,.09-.21.74.74,0,0,0-.6.37.59.59,0,0,1-.06-.2,2.14,2.14,0,0,1-.57.76l-.09.07a2.13,2.13,0,0,1,.47.64.92.92,0,0,1,.46,0,.58.58,0,0,1,.26.13c.8.67,1.31.29,1.58,0a.4.4,0,0,1-.22,0A1.11,1.11,0,0,0,115.22,81.58Z" style="fill: #f4b425"/>
          <path d="M113.12,90.63s0,0,0-.06h0S113.12,90.61,113.12,90.63Z" style="fill: #d8cfbf"/>
          <path d="M113.05,90.61l-.08,0a.6.6,0,0,1-.46,0,.45.45,0,0,1-.2-.16,2.21,2.21,0,0,1-.32.66h.09l.07,0a.52.52,0,0,0,.21-.11l0,0h0l-.19.34c.26,0,1,.1.92-.65v0s0,0,0,0A.09.09,0,0,1,113.05,90.61Z" style="fill: #ea601b"/>
          <path d="M112.46,84.87a1,1,0,0,0-.41.16l0,0,0,0a.47.47,0,0,1-.5,0,1.57,1.57,0,0,1-.42-.37c-.27-.3-.54-.56-.91,0l-.35.51c-.74,1.1-1.67,2.46-3,2.53-.31,0-.62-.09-.9-.08-.61,0-.66.65-.56,1.35.06.39.16.79.23,1.11a2.8,2.8,0,0,1,.07.47c0,.38.37,3,0,3.94a.53.53,0,0,1-.17.25.55.55,0,0,0,.36,0h.08s.06,0,.08,0,0,0,0,0h0c0-.27.11-.38.11-.61s-.23-.19-.15-1c0-.4.21-.77,0-1.08a2,2,0,0,1-.06-.64c0-.43,0-1,.06-1.43l.1,0c.29-.14.58-.27.86-.38l.37-.15.09,0,.09,0,.27-.1L108,89l.28-.11.08,0,.11,0,.08,0,.09,0a4.16,4.16,0,0,0,.47-.24h0l.08,0,.08,0,.14-.09h0l.23-.15h0l.07-.05.08-.06.07-.06a2.61,2.61,0,0,0,.31-.27l.07-.07a1,1,0,0,0,.09.17c.23.35,0,1.56,0,1.56s.24.39.8.1c0-.28.11-.39.11-.62s-.22-.19-.14-1c0-.41.2-.78,0-1.09a.28.28,0,0,1,0-.12l0,0,.07-.11.14-.24a4.07,4.07,0,0,0,.84,1.44,2.32,2.32,0,0,1,0,.37c0,.42-.09.53.14.88s0,1.57,0,1.57a.45.45,0,0,0,.2.16.6.6,0,0,0,.46,0l.08,0a.09.09,0,0,0,.06,0h0c0-.27.11-.37.11-.6s-.22-.19-.14-1c0-.4.21-.77,0-1.08a10.13,10.13,0,0,1,0-2.3c0-.26,0-.46,0-.56v-.06A1.58,1.58,0,0,0,112.46,84.87Z" style="fill: #f4b425"/>
          <path d="M111.91,81a1.64,1.64,0,0,0-.77-.16c-2.54.07-3,1.88-5,3a9.33,9.33,0,0,1-3.48,1.35c-.33,0-.67,0-1,0a1.64,1.64,0,0,0-.39-.25l-.08.12a4,4,0,0,0-.2.35c-.22.4-.56.32-.64.07a.51.51,0,0,1,0-.33h0a2.66,2.66,0,0,1,.25-.36,2.2,2.2,0,0,0-.51,0l0,.12A.31.31,0,0,1,100,85a.36.36,0,0,1-.4,0h0a.18.18,0,0,1-.06-.09l-.06,0-.08.06-.06.07h0a6.8,6.8,0,0,0-1.05,2.19c-.27.73-.44,1.16.1,1.57a.71.71,0,0,0,.74.11,1.94,1.94,0,0,0,.75-.59,7.25,7.25,0,0,1,.74-.19h0a.89.89,0,0,0,.78-.27c.11-.12.33-.68.55-.49s0,.68-.09.83a.92.92,0,0,1-.57.54h0l.25.18c0-.15.12-.26.22-.25s.19.18.18.38a.36.36,0,0,1,0,.1,5.84,5.84,0,0,0,1,.46A6.1,6.1,0,0,0,104,90a5.51,5.51,0,0,0,.71.08c0,.17.09.37.15.58a12.8,12.8,0,0,1,.28,1.49c0,.42-.09.53.14.88s0,1.57,0,1.57a.54.54,0,0,0,.2.16h0a.53.53,0,0,0,.17-.25c.34-.91,0-3.56,0-3.94a2.8,2.8,0,0,0-.07-.47c-.07-.32-.17-.72-.23-1.11-.1-.7,0-1.34.56-1.35.28,0,.59.09.9.08,1.36-.07,2.29-1.43,3-2.53l.35-.51c.37-.52.64-.26.91,0a1.57,1.57,0,0,0,.42.37.47.47,0,0,0,.5,0l0,0,0,0a1,1,0,0,1,.41-.16,1.58,1.58,0,0,1,.67,0,6.14,6.14,0,0,0-.4-3.08,2.13,2.13,0,0,0-.47-.64A2,2,0,0,0,111.91,81ZM98.79,88.23a.73.73,0,0,1-.36.13.94.94,0,0,0,.17.53s0,.07-.06,0a.6.6,0,0,1-.21-.61.43.43,0,0,1-.21-.33s0-.08.07,0c.15.26.27.28.53.2S98.85,88.18,98.79,88.23Zm3-1.25c-.2-.24-.31-.59-.68-.64s-.19-.38.14-.48a.92.92,0,0,1,.64,0c.43.18.67.7,1.1.86.17.07.08.14-.08.24C102.29,87.34,102,87.21,101.83,87Z" style="fill: #f6c759"/>
          <path d="M110.32,89.4a1.94,1.94,0,0,1-.33.66h0a.47.47,0,0,0,.17,0h0l.08,0h0a.05.05,0,0,0,0,0s0,0,0,0l-.19.34c.26,0,1,.1.92-.65a.25.25,0,0,0,0-.08h0C110.56,89.79,110.32,89.4,110.32,89.4Z" style="fill: #ea601b"/>
          <path d="M110.17,90a.47.47,0,0,1-.17,0A.32.32,0,0,0,110.17,90Z" style="fill: #999084"/>
          <path d="M106.08,94.68v0h0Z" style="fill: #d8cfbf"/>
          <path d="M106,94.68s-.06,0-.08,0h-.08a.55.55,0,0,1-.36,0h0a.54.54,0,0,1-.2-.16,2,2,0,0,1-.21.47l-.12.19h.12l.06,0,0,0,.08,0,0,0a.23.23,0,0,0,.07-.06l-.19.34c.26,0,1,.11.92-.64v-.06l0,0S106,94.67,106,94.68Z" style="fill: #ea601b"/>
          <path d="M103.14,91c0,.42-.09.53.14.88s0,1.57,0,1.57.24.38.8.1h0c0-.28.11-.39.11-.62s-.22-.19-.15-1c0-.4.21-.77,0-1.08A2.82,2.82,0,0,1,104,90a6.1,6.1,0,0,1-1.1-.28A9.61,9.61,0,0,1,103.14,91Z" style="fill: #f4b425"/>
          <path d="M103.28,93.47a2.54,2.54,0,0,1-.33.66H103l.09,0,.07,0,0,0,0,0h0l0,0a0,0,0,0,0,0,0,0,0,0,0,0,0,0h0l-.19.34c.26,0,1,.1.92-.65a.19.19,0,0,0,0-.08h0C103.52,93.85,103.28,93.47,103.28,93.47Z" style="fill: #ea601b"/>
          <path d="M103,86.82c0-.07-.56.1-1-.22l-.09-.08a.88.88,0,0,0-.63-.24,1.38,1.38,0,0,1,.56.6.53.53,0,0,0,.29.22A.92.92,0,0,0,103,86.82Z" style="fill: #ea601b"/>
          <path d="M103,86.73c-.43-.16-.67-.68-1.1-.86a.92.92,0,0,0-.64,0c-.33.1-.5.43-.14.48s.48.4.68.64.46.36,1.12,0C103.11,86.87,103.2,86.8,103,86.73Zm-.88.37a.53.53,0,0,1-.29-.22,1.38,1.38,0,0,0-.56-.6.88.88,0,0,1,.63.24l.09.08c.39.32.94.15,1,.22A.92.92,0,0,1,102.15,87.1Z" style="fill: #f4b425"/>
          <path d="M101.72,88.74c-.1,0-.19.1-.22.25a.3.3,0,0,0,0,.1c0,.2.07.37.18.38s.18-.1.22-.25a.36.36,0,0,0,0-.1C101.91,88.92,101.83,88.75,101.72,88.74Z" style="fill: #f4b425"/>
          <polygon points="101.25 88.81 101.25 88.81 101.25 88.81 101.25 88.81" style="fill: #f1e7d4"/>
          <path d="M101.25,88.81a.92.92,0,0,0,.57-.54c.08-.15.26-.68.09-.83s-.44.37-.55.49a.89.89,0,0,1-.78.27h0l.35.34a.31.31,0,0,0,0,.1c-.08.19-.05.38,0,.43s.25-.06.32-.24a0,0,0,0,0,0,0Z" style="fill: #f4b425"/>
          <path d="M100.57,88.2h0Z" style="fill: #d8cfbf"/>
          <path d="M100.42,85.12a.51.51,0,0,0,0,.33c.08.25.42.33.64-.07a4,4,0,0,1,.2-.35l.08-.12a7,7,0,0,1,1.33-1.53,3.59,3.59,0,0,0-1.94,1.37,2.66,2.66,0,0,0-.25.36Z" style="fill: #ea601b"/>
          <path d="M99.5,84.94a.18.18,0,0,0,.06.09h0a.36.36,0,0,0,.4,0,.31.31,0,0,0,.18-.19l0-.12a7.22,7.22,0,0,1,1-2.24,3.64,3.64,0,0,0-1.53,2,3.19,3.19,0,0,0-.09.31A.41.41,0,0,0,99.5,84.94Z" style="fill: #ea601b"/>
          <path d="M98.72,88.15c-.26.08-.38.06-.53-.2,0,0-.08,0-.07,0a.43.43,0,0,0,.21.33.6.6,0,0,0,.21.61s.08,0,.06,0a.94.94,0,0,1-.17-.53.73.73,0,0,0,.36-.13C98.85,88.18,98.88,88.1,98.72,88.15Z" style="fill: #ea601b"/>
          <path d="M98.09,84.19a.87.87,0,0,0,.32.81c.26.18.58,0,1,0l.08-.06a1.27,1.27,0,0,0-.57-.21C98.38,84.69,98.14,84.16,98.09,84.19Z" style="fill: #ea601b"/>
          <path d="M99.36,85c-.37-.06-.69.14-1,0a.87.87,0,0,1-.32-.81s.29.5.78.58a1.27,1.27,0,0,1,.57.21l.06,0a.41.41,0,0,1,0-.19,3.19,3.19,0,0,1,.09-.31c-.42-.32-1-.1-1.49-.35-.16-.08-.16,0-.12.22.24,1.2.81.77,1.3.81h0Z" style="fill: #f4b425"/>
        </g>
        <g>
          <path d="M108.32,66.32a6,6,0,0,0-4.12,7A5.15,5.15,0,0,0,110.81,77a5.87,5.87,0,0,0,1.82-.91l-5.54-4.23.93-1.41,5.84,4.42a5.81,5.81,0,0,0,1.1-2.44,11.18,11.18,0,0,1-6.21-6.25A3,3,0,0,0,108.32,66.32Z" style="fill: #60bda0"/>
          <path d="M108,70.48l-.93,1.41,5.54,4.23a5.48,5.48,0,0,0,1.23-1.22Z" style="fill: #60bda0"/>
          <path d="M108,62.05a11.2,11.2,0,0,0,.79,4.16,5.14,5.14,0,0,1,6.18,3.88,5.58,5.58,0,0,1,0,2.37,11.93,11.93,0,0,0,3.35.83c0-2.62,0-4.56,0-4.56l2.32-.13s0,2,0,4.71a14.8,14.8,0,0,0,1.77-.26,7.58,7.58,0,0,1,2.22-8.13,6.56,6.56,0,0,1,7.13-1.05,12.64,12.64,0,0,0,.3-2.77,12.07,12.07,0,0,0-12.66-11.88C112.58,49.61,108,55.42,108,62.05Z" style="fill: #60bda0"/>
          <path d="M114.93,70.09a5.14,5.14,0,0,0-6.18-3.88A11.18,11.18,0,0,0,115,72.46,5.58,5.58,0,0,0,114.93,70.09Z" style="fill: #60bda0"/>
          <path d="M112.63,76.12c2.27,1.74,4.62,3.52,5.67,4.3,0-.71,0-1.43,0-2.15l-4.44-3.37A5.48,5.48,0,0,1,112.63,76.12Z" style="fill: #ea9e7a"/>
          <path d="M118.3,80.42c0,3.52,0,6.54,0,6.86.16.59,1.67.88,2.32-.13,0-.4,0-5.31,0-10l-.71.43a1.08,1.08,0,0,1-1.1-1h-.55v1.69l1.48,1.15c.36.86-.49,1.59-.94,1.4Z" style="fill: #ea9e7a"/>
          <path d="M118.3,78.27c0,.72,0,1.44,0,2.15l.54.4c.45.19,1.3-.54.94-1.4Z" style="fill: #ea9e7a"/>
          <path d="M118.3,76.58h.55a.48.48,0,0,1,.12-.35c.11-.08.75-.49,1.69-1.08V73.31l-.33,0a12.3,12.3,0,0,1-2,0C118.3,74.31,118.3,75.42,118.3,76.58Z" style="fill: #ea9e7a"/>
          <path d="M118.33,68.73s0,1.94,0,4.56a12.3,12.3,0,0,0,2,0l.33,0c0-2.7,0-4.71,0-4.71Z" style="fill: #60bda0"/>
          <path d="M119,76.23a.48.48,0,0,0-.12.35,1.08,1.08,0,0,0,1.1,1l.71-.43v-2C119.72,75.74,119.08,76.15,119,76.23Z" style="fill: #ea9e7a"/>
          <path d="M120.66,75.15v2l3-1.88-.2-.25a6.81,6.81,0,0,1-.74-1.2Z" style="fill: #ea9e7a"/>
          <path d="M124.65,64.92a7.58,7.58,0,0,0-2.22,8.13,12,12,0,0,0,9.35-9.18A6.56,6.56,0,0,0,124.65,64.92Z" style="fill: #60bda0"/>
          <path d="M122.43,73.05a7.85,7.85,0,0,0,.32.8c3.7-2.3,8.76-5.42,8.76-5.42l1,1.38-8.8,5.49A6.52,6.52,0,0,0,133,76a7.54,7.54,0,0,0,1.17-10.13,6.53,6.53,0,0,0-2.43-2A12,12,0,0,1,122.43,73.05Z" style="fill: #60bda0"/>
          <path d="M122.75,73.85a6.81,6.81,0,0,0,.74,1.2l.2.25,8.8-5.49-1-1.38S126.45,71.55,122.75,73.85Z" style="fill: #60bda0"/>
        </g>
      </g>
    </g>
  </g>
</svg>
