<svg xmlns="http://www.w3.org/2000/svg" width="137.92" height="74.58" viewBox="0 0 137.92 74.58">
  <g id="Layer_2" data-name="Layer 2">
    <g id="Iron">
      <g>
        <g>
          <path d="M116,24V40.17l-2.11,0,0-18.28h9.39l0-2.5H112.05V17.37h11.24l0-2.53h2.13v2.53h11.22v2.05H125.4v2.5h9.37l0,15.67a2,2,0,0,1-2.14,2l-3.32,0-.53-2.16a24.32,24.32,0,0,0,3.12,0c.56-.06.76-.45.76-1V24h-4.36l1.44.9a10.37,10.37,0,0,1-2.06,3.6H131v2.05h-5.57l0,1.74h6.1v2l-6.1,0v4.79h-2.11V34.3l-6.1,0v-2h6.1V30.53H117.7v-2l3.49,0A7.19,7.19,0,0,0,118.26,25l2-1a8.07,8.07,0,0,1,3,3.8l-1.43.56,3.15.06a12.18,12.18,0,0,0,2.76-4.5Z" style="fill: #fff"/>
          <path d="M136.43,69.51H116.52c-1.49,0-2.17-1.24-2.17-2.61V49.07l-1.77,0V47l23.71,0v2.08h-19.8l0,17.26c0,.79.28,1.1,1.15,1.1h18.76Zm-10.8-3.91h-8V57.81l8,0Zm-5.85-5.73v3.68l3.71,0,0-3.74Zm12.85-3.55-12.65,0,0-6.27h12.63Zm-10.52-1.91h8.38V52h-8.38Zm13,3.4v7.71h-8.05V57.81Zm-2.11,2-3.8,0v3.6l3.77,0Z" style="fill: #fff"/>
        </g>
        <g>
          <path d="M117.34,22.68V38.87l-2.11,0,0-18.28h9.39l0-2.5H113.35V16.07h11.24l0-2.53h2.13v2.53h11.22v2.05H126.7v2.5h9.37l0,15.67a2,2,0,0,1-2.14,2l-3.32,0-.53-2.16a24.32,24.32,0,0,0,3.12,0c.56-.06.76-.45.76-1V22.68h-4.36l1.44.9a10.37,10.37,0,0,1-2.06,3.6h3.38v2.05h-5.57l0,1.74h6.1v2l-6.1,0v4.79h-2.11V33l-6.1,0V31h6.1V29.23H119v-2l3.48,0a7.12,7.12,0,0,0-2.92-3.44l2-1a8,8,0,0,1,3,3.8l-1.43.56,3.15.06a12.18,12.18,0,0,0,2.76-4.5Z" style="fill: #214534"/>
          <path d="M137.73,68.21H117.82c-1.49,0-2.17-1.24-2.17-2.61V47.77l-1.77,0V45.66l23.71,0v2.08h-19.8l0,17.26c0,.79.28,1.1,1.15,1.1h18.76Zm-10.8-3.91h-8V56.51l8,0Zm-5.85-5.73v3.68l3.71,0,0-3.74ZM133.93,55l-12.65,0,0-6.27h12.63Zm-10.52-1.91h8.38V50.66h-8.38Zm13,3.4v7.71h-8V56.51Zm-2.11,2-3.8,0v3.6l3.77,0Z" style="fill: #214534"/>
        </g>
        <g style="isolation: isolate">
          <polygon points="60.93 72.75 8.31 53.59 53.39 33.83 106.02 52.98 60.93 72.75" style="fill: #c4dc77"/>
          <polygon points="60.95 74.58 60.93 72.75 106.02 52.98 106.04 54.81 60.95 74.58" style="fill: #718044"/>
          <polygon points="8.33 55.43 8.31 53.59 60.93 72.75 60.95 74.58 8.33 55.43" style="fill: #444d28"/>
        </g>
        <g>
          <polygon points="50.53 48.99 50.54 48.99 50.54 48.19 50.54 46.14 50.53 46.14 50.53 48.19 50.53 48.99" style="fill: none"/>
          <polygon points="50.53 44.98 50.54 44.98 50.54 44.17 50.54 42.12 50.53 42.12 50.53 44.17 50.53 44.98" style="fill: none"/>
          <polygon points="8.7 29.35 8.71 29.35 8.71 28.55 8.71 26.5 8.7 26.5 8.7 28.55 8.7 29.35" style="fill: none"/>
          <polygon points="34.75 46.57 34.76 45.25 34.75 45.25 34.75 46.57 34.75 46.57" style="fill: none"/>
          <polygon points="58.42 49 58.43 49 58.43 48.19 58.43 46.15 58.42 46.15 58.42 48.19 58.42 49" style="fill: none"/>
          <rect x="34.75" y="29.53" width="0.01" height="1.32" style="fill: none"/>
          <polygon points="42.63 44.98 42.65 44.98 42.65 44.17 42.65 42.12 42.63 42.12 42.63 44.17 42.63 44.98" style="fill: none"/>
          <polygon points="42.63 48.99 42.65 48.99 42.65 48.19 42.65 46.14 42.63 46.14 42.63 48.19 42.63 48.99" style="fill: none"/>
          <polygon points="58.42 44.98 58.43 44.98 58.43 44.18 58.43 42.13 58.42 42.13 58.42 44.18 58.42 44.98" style="fill: none"/>
          <polygon points="34.75 34.81 34.76 33.49 34.75 33.49 34.75 34.81 34.75 34.81" style="fill: none"/>
          <rect x="34.75" y="37.37" width="0.01" height="1.32" style="fill: none"/>
          <polygon points="1.99 42.12 1.97 42.12 1.97 44.17 1.97 44.98 1.99 44.98 1.99 44.17 1.99 42.12" style="fill: none"/>
          <polygon points="34.75 42.65 34.76 41.33 34.75 41.33 34.75 42.65 34.75 42.65" style="fill: none"/>
          <polygon points="9.86 42.12 9.84 42.12 9.84 44.17 9.84 44.98 9.86 44.98 9.86 44.17 9.86 42.12" style="fill: none"/>
          <polygon points="1.99 46.14 1.97 46.14 1.97 48.19 1.97 48.99 1.99 48.99 1.99 48.19 1.99 46.14" style="fill: none"/>
          <polygon points="8.7 33.37 8.71 33.37 8.71 32.56 8.71 30.51 8.7 30.51 8.7 32.56 8.7 33.37" style="fill: none"/>
          <rect x="58.42" y="50.49" width="1.16" height="0.01" style="fill: none"/>
          <polygon points="9.86 46.14 9.84 46.14 9.84 48.19 9.84 48.99 9.86 48.99 9.86 48.19 9.86 46.14" style="fill: none"/>
          <polygon points="8.71 36.28 8.71 34.23 8.7 34.23 8.7 36.28 8.7 37.09 8.71 37.09 8.71 36.28" style="fill: none"/>
          <polygon points="17.75 46.14 17.74 46.14 17.74 48.19 17.74 48.99 17.75 48.99 17.75 48.19 17.75 46.14" style="fill: none"/>
          <polygon points="17.75 42.12 17.74 42.12 17.74 44.17 17.74 44.98 17.75 44.98 17.75 44.17 17.75 42.12" style="fill: none"/>
          <polygon points="8.7 41.1 8.71 41.1 8.71 40.3 8.71 38.25 8.7 38.25 8.7 40.3 8.7 41.1" style="fill: none"/>
          <polygon points="34.75 49.17 34.75 50.49 34.75 50.49 34.76 49.17 34.75 49.17" style="fill: none"/>
          <polygon points="58.42 24.63 58.42 26.5 58.42 28.55 58.42 29.36 58.42 30.52 58.42 32.57 58.42 33.37 58.42 34.24 58.42 36.29 51.69 36.29 51.69 37.09 58.42 37.09 58.42 38.25 58.42 40.3 58.42 41.11 58.42 42.13 58.43 42.13 58.43 44.18 58.43 44.98 58.42 44.98 58.42 46.15 58.43 46.15 58.43 48.19 58.43 49 58.42 49 58.42 50.49 59.58 50.49 59.58 24.63 58.42 24.63" style="fill: #57bec5"/>
          <rect x="51.71" y="48.19" width="6.71" height="0.81" style="fill: #57bec5"/>
          <rect x="51.71" y="46.15" width="6.71" height="2.05" style="fill: #edee97"/>
          <rect x="51.71" y="44.18" width="6.71" height="0.8" style="fill: #29b5b2"/>
          <rect x="51.71" y="42.13" width="6.71" height="2.05" style="fill: #edee97"/>
          <rect x="51.69" y="40.3" width="6.72" height="0.81" style="fill: #00a299"/>
          <rect x="51.69" y="38.25" width="6.72" height="2.05" style="fill: #edee97"/>
          <rect x="51.69" y="34.24" width="6.72" height="2.05" style="fill: #edee97"/>
          <rect x="51.69" y="32.57" width="6.72" height="0.81" style="fill: #29b5b2"/>
          <rect x="51.69" y="30.52" width="6.72" height="2.05" style="fill: #edee97"/>
          <rect x="51.69" y="28.55" width="6.72" height="0.81" style="fill: #00a299"/>
          <rect x="51.69" y="26.5" width="6.72" height="2.05" style="fill: #edee97"/>
          <polygon points="51.69 29.36 51.69 33.37 51.69 37.09 51.69 41.11 51.69 44.98 51.69 49 51.69 50.49 58.42 50.49 58.42 49 51.71 49 51.71 48.19 51.71 46.15 58.42 46.15 58.42 44.98 51.71 44.98 51.71 44.18 51.71 42.13 58.42 42.13 58.42 41.11 51.69 41.11 51.69 40.3 51.69 38.25 58.42 38.25 58.42 37.09 51.69 37.09 51.69 36.29 51.69 34.24 58.42 34.24 58.42 33.37 51.69 33.37 51.69 32.57 51.69 30.52 58.42 30.52 58.42 29.36 51.69 29.36 51.69 28.55 51.69 26.5 58.42 26.5 58.42 24.63 59.58 24.63 59.58 24.63 51.69 24.63 51.69 29.36" style="fill: #fff"/>
          <rect x="43.82" y="48.19" width="6.71" height="0.81" style="fill: #57bec5"/>
          <rect x="43.82" y="46.14" width="6.71" height="2.05" style="fill: #edee97"/>
          <rect x="43.82" y="44.17" width="6.71" height="0.8" style="fill: #29b5b2"/>
          <rect x="43.82" y="42.12" width="6.71" height="2.05" style="fill: #edee97"/>
          <rect x="43.8" y="40.3" width="6.72" height="0.8" style="fill: #00a299"/>
          <rect x="43.8" y="38.25" width="6.72" height="2.05" style="fill: #edee97"/>
          <rect x="43.8" y="34.23" width="6.72" height="2.05" style="fill: #edee97"/>
          <rect x="43.8" y="32.56" width="6.72" height="0.8" style="fill: #29b5b2"/>
          <rect x="43.8" y="30.51" width="6.72" height="2.05" style="fill: #edee97"/>
          <rect x="43.8" y="28.55" width="6.72" height="0.81" style="fill: #00a299"/>
          <rect x="43.8" y="26.5" width="6.72" height="2.05" style="fill: #edee97"/>
          <polygon points="43.82 48.99 43.82 48.19 43.82 46.14 50.53 46.14 50.53 44.98 43.82 44.98 43.82 44.17 43.82 42.12 50.53 42.12 50.53 41.1 43.8 41.1 43.8 40.3 43.8 38.25 50.53 38.25 50.53 37.09 43.8 37.09 43.8 36.28 43.8 34.23 50.53 34.23 50.53 33.37 43.8 33.37 43.8 32.56 43.8 30.51 50.53 30.51 50.53 29.35 43.8 29.35 43.8 28.55 43.8 26.5 50.53 26.5 50.53 24.63 43.79 24.63 43.79 29.35 43.79 33.37 43.79 37.09 43.79 41.1 43.79 44.98 43.79 48.99 43.79 50.49 50.53 50.49 50.53 48.99 43.82 48.99" style="fill: #fff"/>
          <rect x="35.92" y="48.19" width="6.71" height="0.81" style="fill: #57bec5"/>
          <rect x="35.92" y="46.14" width="6.71" height="2.05" style="fill: #edee97"/>
          <rect x="35.92" y="44.17" width="6.71" height="0.8" style="fill: #29b5b2"/>
          <rect x="35.92" y="42.12" width="6.71" height="2.05" style="fill: #edee97"/>
          <rect x="35.91" y="40.3" width="6.72" height="0.8" style="fill: #00a299"/>
          <rect x="35.91" y="38.25" width="6.72" height="2.05" style="fill: #edee97"/>
          <rect x="35.91" y="37.09" width="6.72" height="1.16" style="fill: #fff"/>
          <rect x="35.91" y="34.23" width="6.72" height="2.05" style="fill: #edee97"/>
          <rect x="35.91" y="33.37" width="6.72" height="0.87" style="fill: #fff"/>
          <rect x="35.91" y="32.56" width="6.72" height="0.8" style="fill: #29b5b2"/>
          <rect x="35.91" y="30.51" width="6.72" height="2.05" style="fill: #edee97"/>
          <rect x="35.91" y="29.35" width="6.72" height="1.16" style="fill: #fff"/>
          <rect x="35.91" y="28.55" width="6.72" height="0.81" style="fill: #00a299"/>
          <rect x="35.91" y="26.5" width="6.72" height="2.05" style="fill: #edee97"/>
          <rect x="35.91" y="24.63" width="6.72" height="1.87" style="fill: #fff"/>
          <polygon points="35.92 48.99 35.92 48.19 35.92 46.14 42.63 46.14 42.63 44.98 35.92 44.98 35.92 44.17 35.92 42.12 42.63 42.12 42.63 41.1 35.91 41.1 35.91 44.98 35.91 48.99 35.91 50.49 42.63 50.49 42.63 48.99 35.92 48.99" style="fill: #fff"/>
          <polygon points="31.75 49.14 29.11 47.62 29.07 47.67 29.07 47.62 25.66 47.59 25.65 48.92 28.73 48.94 31.34 50.43 31.34 50.46 34.75 50.49 34.75 49.17 31.75 49.14" style="fill: #f7b62d"/>
          <polygon points="31.34 50.43 28.73 48.94 25.65 48.92 25.66 47.59 29.07 47.62 29.07 47.67 29.11 47.62 31.75 49.14 34.75 49.17 34.75 46.57 31.34 46.54 31.34 46.51 28.74 45.02 25.65 45 25.66 43.68 29.07 43.7 29.07 43.75 29.11 43.7 31.75 45.22 34.75 45.25 34.75 42.65 31.34 42.62 31.34 42.59 28.73 41.1 25.65 41.08 25.66 39.76 29.07 39.78 29.07 39.83 29.11 39.78 31.75 41.3 34.75 41.33 34.75 38.7 31.34 38.7 31.34 38.67 28.74 37.19 25.65 37.19 25.65 35.87 29.07 35.87 29.07 35.92 29.1 35.87 31.76 37.37 34.75 37.37 34.75 34.81 31.34 34.78 31.34 34.75 28.74 33.26 25.65 33.24 25.66 31.91 29.07 31.94 29.07 31.99 29.11 31.94 31.76 33.46 34.75 33.49 34.75 30.85 31.34 30.85 31.34 30.82 28.74 29.35 25.65 29.35 25.65 28.03 29.07 28.03 29.07 28.08 29.1 28.03 31.76 29.53 34.75 29.53 34.75 23.97 25.64 23.97 25.64 29.35 25.64 33.24 25.64 37.19 25.64 41.08 25.64 45 25.64 48.92 25.64 50.49 34.75 50.49 31.34 50.46 31.34 50.43" style="fill: #fff"/>
          <polygon points="29.1 28.03 29.07 28.08 29.07 28.03 25.65 28.03 25.65 29.35 28.74 29.35 31.34 30.82 31.34 30.85 34.75 30.85 34.75 29.53 31.76 29.53 29.1 28.03" style="fill: #fac94c"/>
          <polygon points="29.11 31.94 29.07 31.99 29.07 31.94 25.66 31.91 25.65 33.24 28.74 33.26 31.34 34.75 31.34 34.78 34.75 34.81 34.75 33.49 31.76 33.46 29.11 31.94" style="fill: #f7b62d"/>
          <polygon points="29.1 35.87 29.07 35.92 29.07 35.87 25.65 35.87 25.65 37.19 28.74 37.19 31.34 38.67 31.34 38.7 34.75 38.7 34.75 37.37 31.76 37.37 29.1 35.87" style="fill: #fac94c"/>
          <polygon points="29.11 39.78 29.07 39.83 29.07 39.78 25.66 39.76 25.65 41.08 28.73 41.1 31.34 42.59 31.34 42.62 34.75 42.65 34.75 41.33 31.75 41.3 29.11 39.78" style="fill: #f7b62d"/>
          <polygon points="29.11 43.7 29.07 43.75 29.07 43.7 25.66 43.68 25.65 45 28.74 45.02 31.34 46.51 31.34 46.54 34.75 46.57 34.75 45.25 31.75 45.22 29.11 43.7" style="fill: #fac94c"/>
          <rect x="17.75" y="40.3" width="6.72" height="0.8" style="fill: #00a299"/>
          <rect x="17.75" y="38.25" width="6.72" height="2.05" style="fill: #edee97"/>
          <rect x="17.75" y="37.09" width="6.72" height="1.16" style="fill: #fff"/>
          <rect x="17.75" y="34.23" width="6.72" height="2.05" style="fill: #edee97"/>
          <rect x="17.75" y="33.37" width="6.72" height="0.87" style="fill: #fff"/>
          <rect x="17.75" y="32.56" width="6.72" height="0.8" style="fill: #29b5b2"/>
          <rect x="17.75" y="30.51" width="6.72" height="2.05" style="fill: #edee97"/>
          <rect x="17.75" y="29.35" width="6.72" height="1.16" style="fill: #fff"/>
          <rect x="17.75" y="28.55" width="6.72" height="0.81" style="fill: #00a299"/>
          <rect x="17.75" y="26.5" width="6.72" height="2.05" style="fill: #edee97"/>
          <rect x="17.75" y="24.63" width="6.72" height="1.87" style="fill: #fff"/>
          <polygon points="24.48 44.17 24.48 41.1 17.75 41.1 17.75 42.12 24.47 42.12 24.47 44.17 24.47 44.98 17.75 44.98 17.75 46.14 24.47 46.14 24.47 48.19 24.47 48.99 17.75 48.99 17.75 50.49 24.48 50.49 24.48 48.19 24.48 44.17" style="fill: #fff"/>
          <rect x="17.75" y="48.19" width="6.71" height="0.81" style="fill: #57bec5"/>
          <rect x="17.75" y="46.14" width="6.71" height="2.05" style="fill: #edee97"/>
          <rect x="17.75" y="44.17" width="6.71" height="0.8" style="fill: #29b5b2"/>
          <rect x="17.75" y="42.12" width="6.71" height="2.05" style="fill: #edee97"/>
          <polygon points="16.59 44.17 16.59 40.3 16.59 36.28 16.59 32.56 16.59 28.55 16.59 24.63 9.86 24.63 9.86 26.5 16.58 26.5 16.58 28.55 16.58 29.35 9.86 29.35 9.86 30.51 16.58 30.51 16.58 32.56 16.58 33.37 9.86 33.37 9.86 34.23 16.58 34.23 16.58 36.28 16.58 37.09 9.86 37.09 9.86 38.25 16.58 38.25 16.58 40.3 16.58 41.1 9.86 41.1 9.86 42.12 16.57 42.12 16.57 44.17 16.57 44.98 9.86 44.98 9.86 46.14 16.57 46.14 16.57 48.19 16.57 48.99 9.86 48.99 9.86 50.49 16.59 50.49 16.59 48.19 16.59 44.17" style="fill: #fff"/>
          <rect x="9.86" y="40.3" width="6.73" height="0.8" style="fill: #00a299"/>
          <rect x="9.86" y="38.25" width="6.73" height="2.05" style="fill: #edee97"/>
          <rect x="9.86" y="34.23" width="6.73" height="2.05" style="fill: #edee97"/>
          <rect x="9.86" y="32.56" width="6.73" height="0.8" style="fill: #29b5b2"/>
          <rect x="9.86" y="30.51" width="6.73" height="2.05" style="fill: #edee97"/>
          <rect x="9.86" y="28.55" width="6.73" height="0.81" style="fill: #00a299"/>
          <rect x="9.86" y="26.5" width="6.73" height="2.05" style="fill: #edee97"/>
          <rect x="9.86" y="48.19" width="6.71" height="0.81" style="fill: #57bec5"/>
          <rect x="9.86" y="46.14" width="6.71" height="2.05" style="fill: #edee97"/>
          <rect x="9.86" y="44.17" width="6.71" height="0.8" style="fill: #29b5b2"/>
          <rect x="9.86" y="42.12" width="6.71" height="2.05" style="fill: #edee97"/>
          <rect x="1.98" y="48.99" width="6.71" height="1.5" style="fill: #fff"/>
          <rect x="1.98" y="46.14" width="6.71" height="2.05" style="fill: #edee97"/>
          <rect x="1.98" y="44.98" width="6.71" height="1.16" style="fill: #fff"/>
          <rect x="1.98" y="44.17" width="6.71" height="0.8" style="fill: #29b5b2"/>
          <rect x="1.98" y="42.12" width="6.71" height="2.05" style="fill: #edee97"/>
          <rect x="1.98" y="41.1" width="6.71" height="1.02" style="fill: #fff"/>
          <rect x="1.98" y="40.3" width="6.71" height="0.8" style="fill: #00a299"/>
          <rect x="1.98" y="38.25" width="6.71" height="2.05" style="fill: #edee97"/>
          <rect x="1.98" y="37.09" width="6.71" height="1.16" style="fill: #fff"/>
          <rect x="1.98" y="34.23" width="6.71" height="2.05" style="fill: #edee97"/>
          <rect x="1.98" y="33.37" width="6.71" height="0.87" style="fill: #fff"/>
          <rect x="1.98" y="32.56" width="6.71" height="0.8" style="fill: #29b5b2"/>
          <rect x="1.98" y="30.51" width="6.71" height="2.05" style="fill: #edee97"/>
          <rect x="1.98" y="29.35" width="6.71" height="1.16" style="fill: #fff"/>
          <rect x="1.98" y="28.55" width="6.71" height="0.81" style="fill: #00a299"/>
          <rect x="1.98" y="26.5" width="6.71" height="2.05" style="fill: #edee97"/>
          <rect x="1.98" y="24.63" width="6.71" height="1.87" style="fill: #fff"/>
          <path d="M58.42,50.49H51.69V24.63h8.7V24H35.91V21.24H34.75v2.07H25.64V21.24H24.48V24H0v.66H.83V50.49H0v.66H60.39v-.66h-2ZM35.91,34.23v-9.6h6.72V36.28H35.91Zm-11.43-9.6V36.28H17.75V24.63ZM2,50.49V49H2V46.14H2V45H2V42.12H2v-5H8.7v-.81H2V24.63H8.7V26.5h0v2.85h0v1.16h0v2.86h0v.86h0v2.86h0v1.16h0V41.1h0v7.09H2V49H8.7v1.5Zm7.88,0V49h0V46.14h0V45h0V42.12h0v-5h6.72v-.81H9.86V24.63h6.73V50.49Zm7.89,0V49h0V46.14h0V45h0V42.12h0v-5h6.73v13.4Zm17,0H25.64V24h9.11v5.56h0v1.32h0v2.64h0v1.32h0v2.56h0v1.32h0v2.64h0v1.32h0v2.6h0v1.32h0v2.6h0v1.32Zm1.16,0V37.09h6.72v5h0V45h0v1.16h0V49h0v1.5Zm7.88,0V24.63h6.74V36.28H43.8v.81h6.73v5h0V45h0v1.16h0V49h0v1.5Z" style="fill: #57bec5"/>
        </g>
        <g>
          <path d="M86.77,33.62V59.09h-6V46.62a4.71,4.71,0,0,0-9.42,0V59.09h-6V33.62Z" style="fill: #29b5b2"/>
          <rect x="65.26" y="31.47" width="21.51" height="2.15" style="fill: #f7b62d"/>
          <path d="M85,8.93V30.26H80V19.82a3.95,3.95,0,0,0-7.89,0V30.26H67V8.93Z" style="fill: #29b5b2"/>
          <rect x="67.01" y="7.14" width="18" height="1.79" style="fill: #f7b62d"/>
          <polygon points="84.29 6.13 67.74 6.13 76.02 0 84.29 6.13" style="fill: #edee97"/>
          <path d="M80.73,46.62V59.09H71.31V46.62a4.71,4.71,0,0,1,9.42,0Z" style="fill: #edee97"/>
          <path d="M80,19.82V30.26H72.07V19.82a3.95,3.95,0,0,1,7.89,0Z" style="fill: #edee97"/>
          <polygon points="65.19 6.13 67.74 6.13 84.29 6.13 86.84 6.13 86.84 7.14 85.02 7.14 67.01 7.14 65.19 7.14 65.19 6.13" style="fill: #fac94c"/>
          <polygon points="65.26 31.47 63.08 31.47 63.08 30.26 67.01 30.26 72.07 30.26 79.96 30.26 85.02 30.26 88.95 30.26 88.95 31.47 86.77 31.47 65.26 31.47" style="fill: #fac94c"/>
        </g>
        <g>
          <path d="M100.07,43.88c0,1.22,0,2.44,0,3.66v6.09c0,.43-.24.69-.61.68a.65.65,0,0,1-.61-.59v-.13q0-4.79,0-9.57v-.13A2.86,2.86,0,0,0,100.07,43.88Z" style="fill: #57bec5"/>
          <path d="M100.07,43.88a2.86,2.86,0,0,1-1.2,0A2.54,2.54,0,0,1,97,42.17a1.72,1.72,0,0,1-.1-.78h4.8c.1,0,.24-.06.26.13A2.52,2.52,0,0,1,100.07,43.88Z" style="fill: #00a299"/>
          <path d="M96,31.31c.28.41.59.8.89,1.19a6,6,0,0,1-2.1-.93,6.1,6.1,0,0,1-1.52-1.48,3.23,3.23,0,0,0-.07,1.23,5,5,0,0,0,.33,1.28c0,.13,0,.17-.12.15a2.24,2.24,0,0,1-1.69-1.15.73.73,0,0,0,.43,0,3.74,3.74,0,0,1-1-3c.54.71,1,1.51,2,1.72a2.7,2.7,0,0,1,0-2.43c.14.27.27.53.4.77a6.75,6.75,0,0,0,2.32,2.54Z" style="fill: #edee97"/>
          <path d="M92.37,34.42c-1,.2-2.73-1.28-2.72-1.38A10.36,10.36,0,0,0,91,33.4a5.57,5.57,0,0,1-.89-3.34c.09,0,.11.06.14.11a4.71,4.71,0,0,0,.93.91C91.28,31.15,91.65,33.9,92.37,34.42Z" style="fill: #edee97"/>
          <path d="M91.8,36.75s-.07.15-.12.11a4.83,4.83,0,0,1-2.55-2.77,12.76,12.76,0,0,1-.56-1.61,1.09,1.09,0,0,1,0-.15,3.39,3.39,0,0,0,1.1.71C89.71,33.06,91.77,36.72,91.8,36.75Z" style="fill: #edee97"/>
          <path d="M103.16,41.59H97a18.09,18.09,0,0,1-4.8-.64,4.86,4.86,0,0,1-2.63-1.69A4,4,0,0,1,89,38.06a2.63,2.63,0,0,0,1.2.67,2.47,2.47,0,0,0,1.35-.21c-1.54-.6-2.37-3.35-2.35-3.38.17.19.33.38.5.56a4,4,0,0,0,1,.82,2.76,2.76,0,0,0,1.06.25c0-.05-.15-.17-.18-.2A5.18,5.18,0,0,1,89.65,33a9.08,9.08,0,0,1,1.06.82,2.39,2.39,0,0,0,1.66.56,2.75,2.75,0,0,1-1.19-2.09.62.62,0,0,1,0-.18s0-1.06,0-1.07,1.47,1.59,2.23,1.67c.16,0,.16,0,.11-.14a5.22,5.22,0,0,1-.32-1.28,3.27,3.27,0,0,1,.07-1.24,6.25,6.25,0,0,0,3.62,2.41,3.53,3.53,0,0,0,1.06.23,4.92,4.92,0,0,0,1.26.14,3.85,3.85,0,0,0,.27.3,1.8,1.8,0,0,0,2.68-.23c.14-.12.17-.31.28-.45.81-.23,3.22-1.05,3.65-1.1.16,0,1.24,1.33,1.36,1.47-.16.12-.19.94-.41,1.1a1.08,1.08,0,0,1-.86.07,1.45,1.45,0,0,1-.7-.57,2.17,2.17,0,0,1-1.39,1,1.52,1.52,0,0,1-.92,0,.87.87,0,0,1-.65-.68,1.6,1.6,0,0,1-.91.88,4.92,4.92,0,0,1-1.9.27,4.29,4.29,0,0,1-2.61-1,6.72,6.72,0,0,1-.85-.84,3.32,3.32,0,0,0,.23,1.38,4.78,4.78,0,0,0,.77,1.2,9.89,9.89,0,0,1-1.51-.58,6.5,6.5,0,0,1-1.31-.92,2.8,2.8,0,0,0,.4,1.25A5.5,5.5,0,0,0,96.32,37a2.92,2.92,0,0,1,.5.4,5.53,5.53,0,0,1-1.73-.11,14.87,14.87,0,0,1-1.63-.61c.75,1.56,2.12,2.07,3.63,2.39a8.48,8.48,0,0,1-3.23.34,7.4,7.4,0,0,0,6.61.23c-.21.63-.73.87-1.2,1.22a5.43,5.43,0,0,0,3.16-.86,2.81,2.81,0,0,1-1.09,1.29,4.52,4.52,0,0,0,2.64-1,1,1,0,0,1-.21.63C103.6,41.16,103.35,41.35,103.16,41.59Z" style="fill: #f7b62d"/>
          <path d="M98,32.76a4.35,4.35,0,0,1-1.07-.23c-.3-.39-.61-.78-.88-1.19a26.08,26.08,0,0,1-1.51-2.67,15.05,15.05,0,0,1-.75-1.86.77.77,0,0,1,.06-.63.64.64,0,0,1,.61-.35.61.61,0,0,1,.55.44c.09.27.16.54.23.82,0,.08,0,.18.13.18s.1-.1.11-.19c0-.47.08-.95.13-1.43a.54.54,0,0,1,.57-.47.56.56,0,0,1,.52.47c0,.25,0,.5,0,.74a8.58,8.58,0,0,0,1,4.9c.07.13.16.26.24.38a2.29,2.29,0,0,0-.1.23A.84.84,0,0,0,98,32.76Z" style="fill: #00a299"/>
          <path d="M98,32.74a.83.83,0,0,1-.21-.86l.1-.22,0,0c.15-.11.22-.17.06-.38A.77.77,0,0,1,98.49,30c.15,0,.24-.05.2-.25a.75.75,0,0,1,.4-.76.82.82,0,0,1,.91.12,1.62,1.62,0,0,1,.17.19A.82.82,0,0,1,101,29a.73.73,0,0,1,.62.55,2.27,2.27,0,0,1,.07.73,2.85,2.85,0,0,0-.7-.22,1.81,1.81,0,0,0-1.86,1,1.84,1.84,0,0,0,.12,1.8A4.8,4.8,0,0,1,98,32.74Z" style="fill: #57bec5"/>
          <circle cx="100.74" cy="31.81" r="1.87" style="fill: #fff"/>
          <path d="M108.12,30.87l-2.35.59a.62.62,0,0,0-.32,1.08l1.75,1.56h0a1.15,1.15,0,0,1,.44-.09l.08,0c.2-.06.4-.13.61-.18h0l.57-2A.74.74,0,0,0,108.12,30.87Z" style="fill: #f7b62d"/>
          <path d="M103.17,41.59c.19-.24.44-.43.61-.69a1,1,0,0,0,.21-.63,4.46,4.46,0,0,1-2.64,1A2.71,2.71,0,0,0,102.44,40a5.42,5.42,0,0,1-3.15.86c.47-.34,1-.58,1.19-1.22a7.4,7.4,0,0,1-6.61-.23,8.56,8.56,0,0,0,3.24-.34c-1.51-.32-2.89-.82-3.63-2.39a13,13,0,0,0,1.62.61,5.6,5.6,0,0,0,1.74.11,3,3,0,0,0-.51-.4,5.79,5.79,0,0,1-1.49-1.55,2.88,2.88,0,0,1-.4-1.25,6.56,6.56,0,0,0,1.32.92,9.76,9.76,0,0,0,1.5.58,5,5,0,0,1-.76-1.2,3.46,3.46,0,0,1-.24-1.38,6.82,6.82,0,0,0,.85.85,4.34,4.34,0,0,0,2.61,1,5,5,0,0,0,1.91-.27,1.6,1.6,0,0,0,.91-.88.85.85,0,0,0,.64.68,1.56,1.56,0,0,0,.93,0,2.22,2.22,0,0,0,1.39-1,1.33,1.33,0,0,0,.69.57,1.06,1.06,0,0,0,.87-.07,6.4,6.4,0,0,0,1.53-1.08c0,.36,0,.61,0,.92-.55.11-1.08.25-1.62.39l-4.49,1.07a1.09,1.09,0,0,0-.85,1.06c0,.35,0,.7,0,1.06a1.11,1.11,0,0,0,.76,1.1c1.09.42,2.17.85,3.26,1.26.65.24,1.27.53,1.94.71a1.41,1.41,0,0,1-.54,1,3.28,3.28,0,0,1-1,.6l.23-.48a.79.79,0,0,0,0-.77,1.84,1.84,0,0,1-.7.76c-.26.12-.54.2-.86.31l.23-.31a1.07,1.07,0,0,0,.18-1l-.44.37a3.6,3.6,0,0,1-1.4.62Z" style="fill: #edee97"/>
          <path d="M107.59,40.44a19.78,19.78,0,0,1-2-.71l-3.25-1.25a1.11,1.11,0,0,1-.77-1.11c0-.35,0-.7,0-1.06a1.11,1.11,0,0,1,.85-1.06c1.5-.35,3-.7,4.49-1.07.54-.13,1.08-.27,1.62-.38a.37.37,0,0,1,.32.42c0,.23-.17.31-.36.35a3.79,3.79,0,0,0-.68.19l-.18,0-2.62.62-2,.49-.71.09c-.12,0-.16.1-.14.22a2.9,2.9,0,0,1,.07.93c0,.2,0,.39-.08.62l.21-.14a.48.48,0,0,0,.22.15c.94.36,1.88.74,2.83,1.09.45.17.9.38,1.37.51a2.92,2.92,0,0,0,.71.28c.16.08.31.16.33.36A.39.39,0,0,1,107.59,40.44Z" style="fill: #00a299"/>
          <path d="M108,36.13a1.66,1.66,0,0,1,.69,1.4,1.55,1.55,0,0,1-1,1.4,3.24,3.24,0,0,0-.15-.86,8.69,8.69,0,0,1-.46.86.43.43,0,0,0-.21-.25l-.58-.23c-.14-.06-.31,0-.39,0s-.14-.23-.28-.28a1.59,1.59,0,0,1,.87-2.17,1.69,1.69,0,0,1,1.45.14Zm-1.39.78a.37.37,0,0,0,.35-.37.36.36,0,1,0-.35.37Zm-.26.12c0-.08-.08-.19-.22-.19a.2.2,0,0,0-.22.23.19.19,0,0,0,.22.2C106.3,37.27,106.36,37.19,106.38,37Z" style="fill: #57bec5"/>
          <path d="M107.15,38.93a8.69,8.69,0,0,0,.46-.86,3.24,3.24,0,0,1,.15.86,1.82,1.82,0,0,1-.18.72,2.92,2.92,0,0,1-.71-.28A2.52,2.52,0,0,0,107.15,38.93Z" style="fill: #f5f3f4"/>
          <path d="M107.86,34.76a3.11,3.11,0,0,1,.11.68,1.52,1.52,0,0,1-1.12.24s-.06-.06-.12,0a1.23,1.23,0,0,1-1.15.25c-.07,0-.09,0-.12,0a.4.4,0,0,1-.34.19c-.2,0-.45.16-.61.09s-.34.15-.52.17h0l-.77.13a1.38,1.38,0,0,0-.11-.66l2-.49,2.62-.62Z" style="fill: #fac94c"/>
          <path d="M107.15,38.93a2.52,2.52,0,0,1-.28.44c-.47-.13-.92-.34-1.37-.51-1-.35-1.89-.73-2.83-1.09a.48.48,0,0,1-.22-.15A2.9,2.9,0,0,0,103,37c.2.1.49.08.55.39,0,0,.07,0,.09,0a.25.25,0,0,1,.22,0l.69.28c.13,0,.14.17.2.28a.38.38,0,0,1,.36,0l.55.2c.14.05.18.21.28.28s.25,0,.39,0l.58.23A.43.43,0,0,1,107.15,38.93Z" style="fill: #fac94c"/>
          <path d="M103,37a2.9,2.9,0,0,1-.58.58l-.21.14c0-.23.05-.42.08-.62a2.9,2.9,0,0,0-.07-.93c0-.12,0-.2.14-.22l.71-.09a1.5,1.5,0,0,1,.1.66Z" style="fill: #fff"/>
          <path d="M106.64,36.91a.35.35,0,1,1,.35-.37A.37.37,0,0,1,106.64,36.91Z" style="fill: #f5f3f4"/>
          <path d="M106.38,37c0,.16-.08.24-.22.24a.19.19,0,0,1-.22-.2.2.2,0,0,1,.22-.23C106.3,36.84,106.34,37,106.38,37Z" style="fill: #57bec5"/>
          <path d="M108,36.14l0,0a5.27,5.27,0,0,0,0-.68,3.11,3.11,0,0,0-.11-.68,3.77,3.77,0,0,1,.68-.18.54.54,0,0,1,0,.43A2.53,2.53,0,0,1,108,36.14Z" style="fill: #f5f3f4"/>
          <circle cx="101.16" cy="31.28" r="1.18" style="fill: #fac94c"/>
        </g>
        <g>
          <path d="M51.32,49c.08-.41.28-.71.52-.71s.55.47.55,1.05-.25,1-.55,1-.55-.47-.55-1A1.87,1.87,0,0,1,51.32,49Z" style="fill: #edee97"/>
          <path d="M47.94,55.26c1.54-.08,2.21-.39,3.12-.37v-.5a.76.76,0,0,1,.76.76v1a.65.65,0,0,1-.58.72l-.18,0v-.49a23,23,0,0,1-3.11.36A1.06,1.06,0,0,0,47.94,55.26Z" style="fill: #29b5b2"/>
          <path d="M51.39,62.11a.45.45,0,0,1,.45.45v1.17h0a1.91,1.91,0,0,1-.88.5V62.56A.45.45,0,0,1,51.39,62.11Z" style="fill: #29b5b2"/>
          <path d="M47.29,54.79c2,0,2.74-.42,3.77-.4v.5c-.91,0-1.58.29-3.12.37-.2,0-.42,0-.65,0s-.46,0-.66,0c-1.54-.08-2.21-.39-3.12-.37v-.5C44.54,54.37,45.26,54.77,47.29,54.79Z" style="fill: #edee97"/>
          <path d="M50.51,62.11a.45.45,0,0,1,.44.45v1.67a1.87,1.87,0,0,1-.88,0V62.56A.44.44,0,0,1,50.51,62.11Z" style="fill: #57bec5"/>
          <circle cx="49.69" cy="51.17" r="1.36" style="fill: #edee97"/>
          <path d="M49.62,62.11a.45.45,0,0,1,.45.45v1.67a1.94,1.94,0,0,1-.89-.5V62.49A.46.46,0,0,1,49.62,62.11Z" style="fill: #29b5b2"/>
          <path d="M48.35,53.75a.42.42,0,0,1-.37.64H46.59a.42.42,0,0,1-.37-.64l.7-1.21a.42.42,0,0,1,.37-.21.44.44,0,0,1,.37.21Z" style="fill: #29b5b2"/>
          <path d="M51.32,49a2.23,2.23,0,0,0-3.26,0h0a.77.77,0,1,0-1.53,0,2.22,2.22,0,0,0-3.25,0h0c-.07-.41-.28-.71-.52-.71,0-1.38,2-2.5,4.55-2.5h0c2.51,0,4.54,1.12,4.54,2.5-.24,0-.44.3-.52.71Z" style="fill: #fac94c"/>
          <path d="M47.94,55.26a1.06,1.06,0,0,1,0,1.49H46.62a1.07,1.07,0,0,1,0-1.49c.2,0,.42,0,.66,0S47.74,55.28,47.94,55.26Z" style="fill: #57bec5"/>
          <path d="M47.29,48.24a.77.77,0,0,1,.76.77.77.77,0,0,1-1.53,0A.77.77,0,0,1,47.29,48.24Z" style="fill: #fac94c"/>
          <path d="M43.51,56.39a23.14,23.14,0,0,0,3.11.36H48a23,23,0,0,0,3.11-.36v.49a21,21,0,0,1-3.77.41,21.08,21.08,0,0,1-3.78-.41Z" style="fill: #edee97"/>
          <path d="M44.89,49.81a1.36,1.36,0,1,1-1.36,1.36A1.36,1.36,0,0,1,44.89,49.81Z" style="fill: #edee97"/>
          <path d="M45,62.11a.46.46,0,0,1,.44.38v1.24a1.91,1.91,0,0,1-.88.5V62.56A.45.45,0,0,1,45,62.11Z" style="fill: #29b5b2"/>
          <path d="M43.63,62.56a.45.45,0,1,1,.89,0v1.67a1.91,1.91,0,0,1-.89,0Z" style="fill: #57bec5"/>
          <path d="M43.51,54.89c.91,0,1.58.29,3.12.37a1.07,1.07,0,0,0,0,1.49,23.14,23.14,0,0,1-3.11-.36v.49l-.18,0a.67.67,0,0,1-.58-.72v-1a.76.76,0,0,1,.76-.76Z" style="fill: #29b5b2"/>
          <path d="M43.29,49.35c0,.58-.24,1-.55,1s-.55-.47-.55-1,.25-1.05.55-1.05.45.3.52.71A1.87,1.87,0,0,1,43.29,49.35Z" style="fill: #edee97"/>
          <path d="M42.74,62.56a.45.45,0,1,1,.89,0v1.67a1.91,1.91,0,0,1-.88-.5h0Z" style="fill: #29b5b2"/>
          <path d="M43.63,62.56a.45.45,0,1,0-.89,0h0V56.12h0a.67.67,0,0,0,.58.72l.18,0a21.08,21.08,0,0,0,3.78.41,21,21,0,0,0,3.77-.41l.18,0a.65.65,0,0,0,.58-.72h0v6.44h0a.45.45,0,1,0-.89,0,.45.45,0,0,0-.44-.45.44.44,0,0,0-.44.45.45.45,0,0,0-.45-.45.46.46,0,0,0-.44.38V61.18a1.89,1.89,0,0,0-1.88-1.9h0a1.89,1.89,0,0,0-1.89,1.9v1.31a.46.46,0,0,0-.44-.38.45.45,0,0,0-.44.45.45.45,0,1,0-.89,0Z" style="fill: #f7b62d"/>
          <path d="M46.59,54.39H48a.42.42,0,0,0,.37-.64l-.69-1.21a.44.44,0,0,0-.37-.21.42.42,0,0,0-.37.21l-.7,1.21A.42.42,0,0,0,46.59,54.39Zm-1.7-1.86a1.36,1.36,0,1,0-1.36-1.36A1.36,1.36,0,0,0,44.89,52.53ZM48.06,49a2.23,2.23,0,0,1,3.26,0h0a1.87,1.87,0,0,0,0,.34c0,.58.25,1,.55,1v5.72h0v-1a.76.76,0,0,0-.76-.76c-1,0-1.75.38-3.77.4s-2.75-.42-3.78-.4a.76.76,0,0,0-.76.76v1h0V50.4c.31,0,.55-.47.55-1a1.87,1.87,0,0,0,0-.34h0a2.22,2.22,0,0,1,3.25,0,.77.77,0,0,0,1.53,0Zm1.63,3.52a1.36,1.36,0,1,0-1.36-1.36A1.36,1.36,0,0,0,49.69,52.53Z" style="fill: #f7b62d"/>
        </g>
        <g>
          <path d="M64.56,67.57l.32,2a1.11,1.11,0,0,1-.41.35l-.27-1.82A.43.43,0,0,1,64.56,67.57Z" style="fill: #57bec5"/>
          <path d="M61.8,57.43a1.36,1.36,0,1,0-1.37-1.36A1.36,1.36,0,0,0,61.8,57.43Zm-4.08-3.16a1.36,1.36,0,0,0,2,.17h0a3,3,0,0,1,4.23.42v2.66L63,59.13c-1.91-.08-2.47-.41-3.5-.39a.76.76,0,0,0-.76.76v1a.65.65,0,0,0,.58.72l.18,0a20.14,20.14,0,0,0,3.77.42c.5,0,.9,0,.92,0h0c.33.15.49.67-.46.67l.85,5.29a.43.43,0,0,0-.36.5.45.45,0,0,0-.88.14l.29,1.92a1.58,1.58,0,0,1-1.16-.25l-.34-2.14h0c-.23-1.28-1.38-1.19-2.25-.41h0l-3.32,2.75a3.09,3.09,0,0,1-2.81-3.32L55,65.69l1.31-1.08,1.4-1.16Z" style="fill: #f7b62d"/>
          <path d="M63.69,67.7a.45.45,0,0,1,.51.37l.27,1.82a2.54,2.54,0,0,1-.86.24l-.29-1.92A.45.45,0,0,1,63.69,67.7Z" style="fill: #29b5b2"/>
          <path d="M64.17,59.11a6.76,6.76,0,0,1-1.19,0l.93-1.61.49.78c.5.8.17.77-.06.8Z" style="fill: #29b5b2"/>
          <path d="M63,59.13a6.76,6.76,0,0,0,1.19,0h0v.48s-.47,0-1,0h-.28c-.53,0-1-.06-1.32-.11a12.19,12.19,0,0,0-2.05-.27v-.5C60.51,58.72,61.07,59.05,63,59.13Z" style="fill: #edee97"/>
          <path d="M62.84,61.11h1.33v.49h0s-.42,0-.92,0a20.14,20.14,0,0,1-3.77-.42v-.48c.64.12,1.36.22,2.07.28C62,61.07,62.43,61.09,62.84,61.11Z" style="fill: #edee97"/>
          <circle cx="61.8" cy="56.07" r="1.36" style="fill: #edee97"/>
          <path d="M62.85,59.62a1,1,0,0,1,0,1.49c-.41,0-.85,0-1.29-.09h0a1.06,1.06,0,0,1,0-1.5h0C61.9,59.56,62.32,59.6,62.85,59.62Z" style="fill: #57bec5"/>
          <path d="M59.68,54.44a1.33,1.33,0,0,0,.47-1,1.37,1.37,0,0,0-1-1.3c2.93-.23,4.16.18,4.72,1.21a.77.77,0,1,1,0,1.53A3,3,0,0,0,59.68,54.44Z" style="fill: #fac94c"/>
          <path d="M59.19,52.12a1.37,1.37,0,0,1,1,1.3,1.33,1.33,0,0,1-.47,1h0a1.36,1.36,0,0,1-2-.17,1.33,1.33,0,0,1-.3-.85,1.36,1.36,0,0,1,1.36-1.36A1.4,1.4,0,0,1,59.19,52.12Z" style="fill: #edee97"/>
          <path d="M56.32,64.61,55,65.69h0c-1.13,0-2-1.5-2-3.34,0,.42.68.75,1.53.75A1.76,1.76,0,0,1,56.32,64.61Z" style="fill: #fac94c"/>
        </g>
      </g>
    </g>
  </g>
</svg>
