<svg xmlns="http://www.w3.org/2000/svg" width="117.34" height="97.96" viewBox="0 0 117.34 97.96">
  <g id="Layer_2" data-name="Layer 2">
    <g id="Icon">
      <g>
        <g>
          <path d="M55.76,7V19.44l-1.62,0,0-14h7.21l0-1.92H52.7V1.94h8.63l0-1.94H63V1.94h8.6V3.52H63V5.44h7.18l0,12A1.52,1.52,0,0,1,68.47,19l-2.55,0-.41-1.66a18.73,18.73,0,0,0,2.4,0c.43-.05.58-.35.58-.74V7H65.15l1.1.69a7.78,7.78,0,0,1-1.58,2.76h2.59V12H63l0,1.34h4.68v1.55L63,15v3.67H61.35V14.93l-4.68,0V13.38h4.68V12H57V10.49l2.68,0a5.52,5.52,0,0,0-2.24-2.63L59,7.08A6.1,6.1,0,0,1,61.33,10l-1.1.43,2.41,0A9.2,9.2,0,0,0,64.76,7Z" style="fill: #214534"/>
          <path d="M71.4,41.94H56.13c-1.15,0-1.66-.95-1.66-2V26.25l-1.36,0v-1.6l18.19,0v1.6H56.11l0,13.25c0,.6.21.84.88.84H71.4Zm-8.28-3H57V33l6.11,0Zm-4.49-4.4v2.82l2.85,0,0-2.87Zm9.86-2.72-9.71,0,0-4.81h9.69Zm-8.07-1.47h6.43V28.47H60.42Zm10,2.61v5.91H64.22V33Zm-1.62,1.55-2.91,0V37.3l2.89,0Z" style="fill: #214534"/>
        </g>
        <g>
          <path d="M.34,27.53a4.09,4.09,0,0,0,2,.51c.94,0,1.46-.44,1.46-1.1s-.4-1-1.42-1.34C1,25.13.13,24.41.13,23.26c0-1.33,1.11-2.33,2.87-2.33a4.32,4.32,0,0,1,1.93.4l-.35,1.2A3.45,3.45,0,0,0,3,22.14c-.93,0-1.33.5-1.33,1s.47.91,1.55,1.31c1.4.54,2.07,1.25,2.07,2.4,0,1.31-1,2.43-3.06,2.43A4.71,4.71,0,0,1,0,28.75Z" style="fill: #214534"/>
          <path d="M9.15,29.27a2.82,2.82,0,0,1-2.92-3,2.89,2.89,0,0,1,3-3.1,2.8,2.8,0,0,1,2.9,3,2.89,2.89,0,0,1-3,3.11Zm0-1.07c.84,0,1.43-.82,1.43-2,0-.91-.41-2-1.42-2s-1.46,1-1.46,2c0,1.13.56,2,1.44,2Z" style="fill: #214534"/>
          <path d="M18.6,27.38c0,.7,0,1.28,0,1.76H17.36l-.07-.88h0a2.12,2.12,0,0,1-1.88,1c-1,0-2-.64-2-2.54V23.29h1.48v3.18c0,1,.31,1.6,1.09,1.6A1.21,1.21,0,0,0,17,27.28a1.08,1.08,0,0,0,.08-.46V23.29H18.6Z" style="fill: #214534"/>
          <path d="M21.89,21.8v1.49h1.4V24.4h-1.4V27c0,.72.19,1.08.75,1.08a1.87,1.87,0,0,0,.58-.06l0,1.12a3.29,3.29,0,0,1-1.07.16,1.69,1.69,0,0,1-1.27-.48,2.34,2.34,0,0,1-.46-1.65V24.4h-.83V23.29h.83V22.2Z" style="fill: #214534"/>
          <path d="M24.41,20.61h1.47v3.48h0a1.86,1.86,0,0,1,.73-.66,2.07,2.07,0,0,1,1-.27c1,0,2,.66,2,2.53v3.45H28.22V25.85c0-.84-.31-1.49-1.13-1.49a1.24,1.24,0,0,0-1.15.83,1.27,1.27,0,0,0-.06.44v3.51H24.41Z" style="fill: #214534"/>
          <path d="M32.31,26.63a1.59,1.59,0,0,0,1.8,1.51,4.81,4.81,0,0,0,1.62-.26l.22,1a5.19,5.19,0,0,1-2,.38,2.76,2.76,0,0,1-3-3,2.9,2.9,0,0,1,2.85-3.15c1.9,0,2.52,1.56,2.52,2.85a3.06,3.06,0,0,1-.05.62Zm2.57-1a1.26,1.26,0,0,0-1.21-1.43,1.45,1.45,0,0,0-1.36,1.43Z" style="fill: #214534"/>
          <path d="M37.46,25.18c0-.79,0-1.37,0-1.89h1.27l.06,1.11h0a1.75,1.75,0,0,1,1.61-1.24,1.29,1.29,0,0,1,.35,0v1.38a2,2,0,0,0-.45,0A1.32,1.32,0,0,0,39,25.66a3,3,0,0,0,0,.44v3H37.46Z" style="fill: #214534"/>
          <path d="M41.73,25c0-.67,0-1.23,0-1.74H43l.07.88h0a2.13,2.13,0,0,1,1.87-1c1,0,2.07.66,2.07,2.51v3.47H45.55v-3.3c0-.84-.31-1.48-1.12-1.48a1.25,1.25,0,0,0-1.15.87,1.31,1.31,0,0,0-.07.46v3.45H41.73Z" style="fill: #214534"/>
          <path d="M11.05,33.17A14.69,14.69,0,0,1,13.4,33a4.88,4.88,0,0,1,3.29.94,3.59,3.59,0,0,1,1.27,3,4.18,4.18,0,0,1-1.26,3.22A5.41,5.41,0,0,1,13,41.22a16.31,16.31,0,0,1-2-.11ZM12.53,40a4.85,4.85,0,0,0,.81,0A2.78,2.78,0,0,0,16.4,37a2.57,2.57,0,0,0-2.87-2.81,4.51,4.51,0,0,0-1,.09Z" style="fill: #214534"/>
          <path d="M19.92,34.46a.8.8,0,1,1,.84-.8.79.79,0,0,1-.84.8Zm-.73,6.68V35.29h1.47v5.85Z" style="fill: #214534"/>
          <path d="M22.2,39.77a3.23,3.23,0,0,0,1.49.43c.64,0,.93-.28.93-.66s-.24-.59-1-.85c-1.14-.38-1.6-1-1.6-1.7,0-1,.85-1.83,2.2-1.83a3.39,3.39,0,0,1,1.56.35l-.3,1a2.63,2.63,0,0,0-1.23-.33c-.53,0-.82.26-.82.62s.28.54,1,.82c1.07.37,1.55.91,1.56,1.77,0,1.07-.83,1.84-2.38,1.84a3.76,3.76,0,0,1-1.77-.41Z" style="fill: #214534"/>
          <path d="M29,33.8v1.49h1.41V36.4H29V39c0,.72.2,1.08.76,1.08a1.91,1.91,0,0,0,.58-.06l0,1.12a3.34,3.34,0,0,1-1.07.16A1.69,1.69,0,0,1,28,40.78a2.34,2.34,0,0,1-.47-1.65V36.4h-.82V35.29h.82V34.2Z" style="fill: #214534"/>
          <path d="M31.48,37.18c0-.79,0-1.37-.05-1.89H32.7l.06,1.11h0a1.76,1.76,0,0,1,1.61-1.24,1.25,1.25,0,0,1,.35,0v1.38a1.89,1.89,0,0,0-.44,0A1.3,1.3,0,0,0,33,37.66a2.06,2.06,0,0,0,0,.44v3H31.48Z" style="fill: #214534"/>
          <path d="M36.48,34.46a.8.8,0,1,1,.84-.8.79.79,0,0,1-.84.8Zm-.73,6.68V35.29h1.47v5.85Z" style="fill: #214534"/>
          <path d="M43.11,41a4.31,4.31,0,0,1-1.65.3,2.81,2.81,0,0,1-3-3,3,3,0,0,1,3.25-3.11,3.74,3.74,0,0,1,1.42.27l-.26,1.11a2.42,2.42,0,0,0-1.11-.23,1.89,1.89,0,0,0,0,3.78,2.93,2.93,0,0,0,1.16-.23Z" style="fill: #214534"/>
          <path d="M46.08,33.8v1.49h1.4V36.4h-1.4V39c0,.72.19,1.08.75,1.08a1.87,1.87,0,0,0,.58-.06l0,1.12a3.27,3.27,0,0,1-1.06.16,1.7,1.7,0,0,1-1.28-.48,2.34,2.34,0,0,1-.46-1.65V36.4H43.8V35.29h.83V34.2Z" style="fill: #214534"/>
        </g>
        <g style="isolation: isolate">
          <polygon points="69.35 96.13 16.72 76.97 61.8 57.21 114.43 76.36 69.35 96.13" style="fill: #c4dc77"/>
          <polygon points="69.37 97.96 69.35 96.13 114.43 76.36 114.45 78.19 69.37 97.96" style="fill: #718044"/>
          <polygon points="16.74 78.81 16.72 76.97 69.35 96.13 69.37 97.96 16.74 78.81" style="fill: #444d28"/>
        </g>
        <g>
          <polygon points="58.94 72.37 58.95 72.37 58.95 71.57 58.95 69.52 58.94 69.52 58.94 71.57 58.94 72.37" style="fill: none"/>
          <polygon points="58.94 68.36 58.95 68.36 58.95 67.55 58.95 65.5 58.94 65.5 58.94 67.55 58.94 68.36" style="fill: none"/>
          <polygon points="17.11 52.73 17.13 52.73 17.13 51.92 17.13 49.88 17.11 49.88 17.11 51.92 17.11 52.73" style="fill: none"/>
          <polygon points="43.17 69.95 43.18 68.63 43.16 68.63 43.16 69.95 43.17 69.95" style="fill: none"/>
          <polygon points="66.83 72.38 66.84 72.38 66.84 71.57 66.84 69.52 66.83 69.52 66.83 71.57 66.83 72.38" style="fill: none"/>
          <rect x="43.16" y="52.91" width="0.01" height="1.32" style="fill: none"/>
          <polygon points="51.05 68.36 51.06 68.36 51.06 67.55 51.06 65.5 51.05 65.5 51.05 67.55 51.05 68.36" style="fill: none"/>
          <polygon points="51.05 72.37 51.06 72.37 51.06 71.57 51.06 69.52 51.05 69.52 51.05 71.57 51.05 72.37" style="fill: none"/>
          <polygon points="66.83 68.36 66.84 68.36 66.84 67.56 66.84 65.51 66.83 65.51 66.83 67.56 66.83 68.36" style="fill: none"/>
          <polygon points="43.17 58.19 43.18 56.87 43.16 56.87 43.16 58.19 43.17 58.19" style="fill: none"/>
          <rect x="43.16" y="60.75" width="0.01" height="1.32" style="fill: none"/>
          <polygon points="10.4 65.5 10.39 65.5 10.39 67.55 10.39 68.36 10.4 68.36 10.4 67.55 10.4 65.5" style="fill: none"/>
          <polygon points="43.17 66.03 43.18 64.71 43.16 64.71 43.16 66.03 43.17 66.03" style="fill: none"/>
          <polygon points="18.27 65.5 18.26 65.5 18.26 67.55 18.26 68.36 18.27 68.36 18.27 67.55 18.27 65.5" style="fill: none"/>
          <polygon points="10.4 69.52 10.39 69.52 10.39 71.57 10.39 72.37 10.4 72.37 10.4 71.57 10.4 69.52" style="fill: none"/>
          <polygon points="17.11 56.75 17.13 56.75 17.13 55.94 17.13 53.89 17.11 53.89 17.11 55.94 17.11 56.75" style="fill: none"/>
          <rect x="66.83" y="73.87" width="1.16" height="0.01" style="fill: none"/>
          <polygon points="18.27 69.52 18.26 69.52 18.26 71.57 18.26 72.37 18.27 72.37 18.27 71.57 18.27 69.52" style="fill: none"/>
          <polygon points="17.13 59.66 17.13 57.61 17.11 57.61 17.11 59.66 17.11 60.47 17.13 60.47 17.13 59.66" style="fill: none"/>
          <polygon points="26.17 69.52 26.16 69.52 26.16 71.57 26.16 72.37 26.17 72.37 26.17 71.57 26.17 69.52" style="fill: none"/>
          <polygon points="26.17 65.5 26.16 65.5 26.16 67.55 26.16 68.36 26.17 68.36 26.17 67.55 26.17 65.5" style="fill: none"/>
          <polygon points="17.11 64.48 17.13 64.48 17.13 63.68 17.13 61.63 17.11 61.63 17.11 63.68 17.11 64.48" style="fill: none"/>
          <polygon points="43.16 72.55 43.16 73.87 43.17 73.87 43.18 72.55 43.16 72.55" style="fill: none"/>
          <polygon points="66.83 48.01 66.83 49.88 66.83 51.93 66.83 52.74 66.83 53.9 66.83 55.95 66.83 56.75 66.83 57.62 66.83 59.67 60.11 59.67 60.11 60.47 66.83 60.47 66.83 61.63 66.83 63.68 66.83 64.49 66.83 65.51 66.84 65.51 66.84 67.56 66.84 68.36 66.83 68.36 66.83 69.52 66.84 69.52 66.84 71.57 66.84 72.38 66.83 72.38 66.83 73.87 67.99 73.87 67.99 48.01 66.83 48.01" style="fill: #57bec5"/>
          <rect x="60.12" y="71.57" width="6.71" height="0.81" style="fill: #57bec5"/>
          <rect x="60.12" y="69.52" width="6.71" height="2.05" style="fill: #edee97"/>
          <rect x="60.12" y="67.56" width="6.71" height="0.8" style="fill: #29b5b2"/>
          <rect x="60.12" y="65.51" width="6.71" height="2.05" style="fill: #edee97"/>
          <rect x="60.11" y="63.68" width="6.72" height="0.81" style="fill: #00a299"/>
          <rect x="60.11" y="61.63" width="6.72" height="2.05" style="fill: #edee97"/>
          <rect x="60.11" y="57.62" width="6.72" height="2.05" style="fill: #edee97"/>
          <rect x="60.11" y="55.95" width="6.72" height="0.81" style="fill: #29b5b2"/>
          <rect x="60.11" y="53.9" width="6.72" height="2.05" style="fill: #edee97"/>
          <rect x="60.11" y="51.93" width="6.72" height="0.81" style="fill: #00a299"/>
          <rect x="60.11" y="49.88" width="6.72" height="2.05" style="fill: #edee97"/>
          <polygon points="60.1 52.74 60.1 56.75 60.1 60.47 60.1 64.49 60.1 68.36 60.1 72.38 60.1 73.87 66.83 73.87 66.83 72.38 60.12 72.38 60.12 71.57 60.12 69.52 66.83 69.52 66.83 68.36 60.12 68.36 60.12 67.56 60.12 65.51 66.83 65.51 66.83 64.49 60.11 64.49 60.11 63.68 60.11 61.63 66.83 61.63 66.83 60.47 60.11 60.47 60.11 59.67 60.11 57.62 66.83 57.62 66.83 56.75 60.11 56.75 60.11 55.95 60.11 53.9 66.83 53.9 66.83 52.74 60.11 52.74 60.11 51.93 60.11 49.88 66.83 49.88 66.83 48.01 67.99 48.01 67.99 48.01 60.1 48.01 60.1 52.74" style="fill: #fff"/>
          <rect x="52.23" y="71.57" width="6.71" height="0.81" style="fill: #57bec5"/>
          <rect x="52.23" y="69.52" width="6.71" height="2.05" style="fill: #edee97"/>
          <rect x="52.23" y="67.55" width="6.71" height="0.8" style="fill: #29b5b2"/>
          <rect x="52.23" y="65.5" width="6.71" height="2.05" style="fill: #edee97"/>
          <rect x="52.22" y="63.68" width="6.72" height="0.8" style="fill: #00a299"/>
          <rect x="52.22" y="61.63" width="6.72" height="2.05" style="fill: #edee97"/>
          <rect x="52.22" y="57.61" width="6.72" height="2.05" style="fill: #edee97"/>
          <rect x="52.22" y="55.94" width="6.72" height="0.8" style="fill: #29b5b2"/>
          <rect x="52.22" y="53.89" width="6.72" height="2.05" style="fill: #edee97"/>
          <rect x="52.22" y="51.93" width="6.72" height="0.81" style="fill: #00a299"/>
          <rect x="52.22" y="49.88" width="6.72" height="2.05" style="fill: #edee97"/>
          <polygon points="52.23 72.37 52.23 71.57 52.23 69.52 58.94 69.52 58.94 68.36 52.23 68.36 52.23 67.55 52.23 65.5 58.94 65.5 58.94 64.48 52.22 64.48 52.22 63.68 52.22 61.63 58.94 61.63 58.94 60.47 52.22 60.47 52.22 59.66 52.22 57.61 58.94 57.61 58.94 56.75 52.22 56.75 52.22 55.94 52.22 53.89 58.94 53.89 58.94 52.73 52.22 52.73 52.22 51.92 52.22 49.88 58.94 49.88 58.94 48.01 52.21 48.01 52.21 52.73 52.21 56.75 52.21 60.47 52.21 64.48 52.21 68.36 52.21 72.37 52.21 73.87 58.94 73.87 58.94 72.37 52.23 72.37" style="fill: #fff"/>
          <rect x="44.34" y="71.57" width="6.71" height="0.81" style="fill: #57bec5"/>
          <rect x="44.34" y="69.52" width="6.71" height="2.05" style="fill: #edee97"/>
          <rect x="44.34" y="67.55" width="6.71" height="0.8" style="fill: #29b5b2"/>
          <rect x="44.34" y="65.5" width="6.71" height="2.05" style="fill: #edee97"/>
          <rect x="44.32" y="63.68" width="6.72" height="0.8" style="fill: #00a299"/>
          <rect x="44.32" y="61.63" width="6.72" height="2.05" style="fill: #edee97"/>
          <rect x="44.32" y="60.47" width="6.72" height="1.16" style="fill: #fff"/>
          <rect x="44.32" y="57.61" width="6.72" height="2.05" style="fill: #edee97"/>
          <rect x="44.32" y="56.75" width="6.72" height="0.87" style="fill: #fff"/>
          <rect x="44.32" y="55.94" width="6.72" height="0.8" style="fill: #29b5b2"/>
          <rect x="44.32" y="53.89" width="6.72" height="2.05" style="fill: #edee97"/>
          <rect x="44.32" y="52.73" width="6.72" height="1.16" style="fill: #fff"/>
          <rect x="44.32" y="51.93" width="6.72" height="0.81" style="fill: #00a299"/>
          <rect x="44.32" y="49.88" width="6.72" height="2.05" style="fill: #edee97"/>
          <rect x="44.32" y="48.01" width="6.72" height="1.87" style="fill: #fff"/>
          <polygon points="44.34 72.37 44.34 71.57 44.34 69.52 51.05 69.52 51.05 68.36 44.34 68.36 44.34 67.55 44.34 65.5 51.05 65.5 51.05 64.48 44.32 64.48 44.32 68.36 44.32 72.37 44.32 73.87 51.05 73.87 51.05 72.37 44.34 72.37" style="fill: #fff"/>
          <polygon points="40.17 72.52 37.52 71 37.49 71.05 37.49 71 34.07 70.97 34.06 72.3 37.15 72.32 39.75 73.81 39.75 73.84 43.16 73.87 43.16 72.55 40.17 72.52" style="fill: #f7b62d"/>
          <polygon points="39.75 73.81 37.15 72.32 34.06 72.3 34.07 70.97 37.49 71 37.49 71.05 37.52 71 40.17 72.52 43.16 72.55 43.16 69.95 39.75 69.92 39.75 69.89 37.15 68.4 34.06 68.38 34.07 67.06 37.49 67.08 37.49 67.13 37.52 67.08 40.17 68.6 43.16 68.63 43.16 66.03 39.75 66 39.75 65.97 37.15 64.48 34.06 64.46 34.07 63.13 37.49 63.16 37.49 63.21 37.52 63.16 40.17 64.68 43.16 64.71 43.16 62.07 39.76 62.07 39.76 62.05 37.15 60.57 34.06 60.57 34.06 59.25 37.48 59.25 37.48 59.3 37.51 59.25 40.17 60.75 43.16 60.75 43.16 58.19 39.75 58.16 39.75 58.13 37.15 56.64 34.06 56.62 34.07 55.29 37.49 55.32 37.49 55.37 37.52 55.32 40.17 56.84 43.16 56.87 43.16 54.23 39.76 54.23 39.76 54.2 37.15 52.73 34.06 52.73 34.06 51.41 37.48 51.41 37.48 51.46 37.51 51.41 40.17 52.91 43.16 52.91 43.16 47.35 34.05 47.35 34.05 52.73 34.05 56.62 34.05 60.57 34.05 64.46 34.05 68.38 34.05 72.3 34.05 73.87 43.16 73.87 39.75 73.84 39.75 73.81" style="fill: #fff"/>
          <polygon points="37.51 51.41 37.48 51.46 37.48 51.41 34.06 51.41 34.06 52.73 37.15 52.73 39.76 54.2 39.76 54.23 43.16 54.23 43.16 52.91 40.17 52.91 37.51 51.41" style="fill: #fac94c"/>
          <polygon points="37.52 55.32 37.49 55.37 37.49 55.32 34.07 55.29 34.06 56.62 37.15 56.64 39.75 58.13 39.75 58.16 43.16 58.19 43.16 56.87 40.17 56.84 37.52 55.32" style="fill: #f7b62d"/>
          <polygon points="37.51 59.25 37.48 59.3 37.48 59.25 34.06 59.25 34.06 60.57 37.15 60.57 39.76 62.05 39.76 62.07 43.16 62.07 43.16 60.75 40.17 60.75 37.51 59.25" style="fill: #fac94c"/>
          <polygon points="37.52 63.16 37.49 63.21 37.49 63.16 34.07 63.13 34.06 64.46 37.15 64.48 39.75 65.97 39.75 66 43.16 66.03 43.16 64.71 40.17 64.68 37.52 63.16" style="fill: #f7b62d"/>
          <polygon points="37.52 67.08 37.49 67.13 37.49 67.08 34.07 67.06 34.06 68.38 37.15 68.4 39.75 69.89 39.75 69.92 43.16 69.95 43.16 68.63 40.17 68.6 37.52 67.08" style="fill: #fac94c"/>
          <rect x="26.17" y="63.68" width="6.72" height="0.8" style="fill: #00a299"/>
          <rect x="26.17" y="61.63" width="6.72" height="2.05" style="fill: #edee97"/>
          <rect x="26.17" y="60.47" width="6.72" height="1.16" style="fill: #fff"/>
          <rect x="26.17" y="57.61" width="6.72" height="2.05" style="fill: #edee97"/>
          <rect x="26.17" y="56.75" width="6.72" height="0.87" style="fill: #fff"/>
          <rect x="26.17" y="55.94" width="6.72" height="0.8" style="fill: #29b5b2"/>
          <rect x="26.17" y="53.89" width="6.72" height="2.05" style="fill: #edee97"/>
          <rect x="26.17" y="52.73" width="6.72" height="1.16" style="fill: #fff"/>
          <rect x="26.17" y="51.93" width="6.72" height="0.81" style="fill: #00a299"/>
          <rect x="26.17" y="49.88" width="6.72" height="2.05" style="fill: #edee97"/>
          <rect x="26.17" y="48.01" width="6.72" height="1.87" style="fill: #fff"/>
          <polygon points="32.89 67.55 32.89 64.48 26.17 64.48 26.17 65.5 32.88 65.5 32.88 67.55 32.88 68.36 26.17 68.36 26.17 69.52 32.88 69.52 32.88 71.57 32.88 72.37 26.17 72.37 26.17 73.87 32.89 73.87 32.89 71.57 32.89 67.55" style="fill: #fff"/>
          <rect x="26.17" y="71.57" width="6.71" height="0.81" style="fill: #57bec5"/>
          <rect x="26.17" y="69.52" width="6.71" height="2.05" style="fill: #edee97"/>
          <rect x="26.17" y="67.55" width="6.71" height="0.8" style="fill: #29b5b2"/>
          <rect x="26.17" y="65.5" width="6.71" height="2.05" style="fill: #edee97"/>
          <polygon points="25.01 67.55 25.01 63.68 25.01 59.66 25.01 55.94 25.01 51.92 25.01 48.01 18.27 48.01 18.27 49.88 25 49.88 25 51.92 25 52.73 18.27 52.73 18.27 53.89 25 53.89 25 55.94 25 56.75 18.27 56.75 18.27 57.61 25 57.61 25 59.66 25 60.47 18.27 60.47 18.27 61.63 25 61.63 25 63.68 25 64.48 18.27 64.48 18.27 65.5 24.98 65.5 24.98 67.55 24.98 68.36 18.27 68.36 18.27 69.52 24.98 69.52 24.98 71.57 24.98 72.37 18.27 72.37 18.27 73.87 25.01 73.87 25.01 71.57 25.01 67.55" style="fill: #fff"/>
          <rect x="18.27" y="63.68" width="6.73" height="0.8" style="fill: #00a299"/>
          <rect x="18.27" y="61.63" width="6.73" height="2.05" style="fill: #edee97"/>
          <rect x="18.27" y="57.61" width="6.73" height="2.05" style="fill: #edee97"/>
          <rect x="18.27" y="55.94" width="6.73" height="0.8" style="fill: #29b5b2"/>
          <rect x="18.27" y="53.89" width="6.73" height="2.05" style="fill: #edee97"/>
          <rect x="18.27" y="51.93" width="6.73" height="0.81" style="fill: #00a299"/>
          <rect x="18.27" y="49.88" width="6.73" height="2.05" style="fill: #edee97"/>
          <rect x="18.27" y="71.57" width="6.71" height="0.81" style="fill: #57bec5"/>
          <rect x="18.27" y="69.52" width="6.71" height="2.05" style="fill: #edee97"/>
          <rect x="18.27" y="67.55" width="6.71" height="0.8" style="fill: #29b5b2"/>
          <rect x="18.27" y="65.5" width="6.71" height="2.05" style="fill: #edee97"/>
          <rect x="10.4" y="72.37" width="6.71" height="1.5" style="fill: #fff"/>
          <rect x="10.4" y="69.52" width="6.71" height="2.05" style="fill: #edee97"/>
          <rect x="10.4" y="68.35" width="6.71" height="1.16" style="fill: #fff"/>
          <rect x="10.4" y="67.55" width="6.71" height="0.8" style="fill: #29b5b2"/>
          <rect x="10.4" y="65.5" width="6.71" height="2.05" style="fill: #edee97"/>
          <rect x="10.4" y="64.48" width="6.71" height="1.02" style="fill: #fff"/>
          <rect x="10.4" y="63.68" width="6.71" height="0.8" style="fill: #00a299"/>
          <rect x="10.4" y="61.63" width="6.71" height="2.05" style="fill: #edee97"/>
          <rect x="10.4" y="60.47" width="6.71" height="1.16" style="fill: #fff"/>
          <rect x="10.4" y="57.61" width="6.71" height="2.05" style="fill: #edee97"/>
          <rect x="10.4" y="56.75" width="6.71" height="0.87" style="fill: #fff"/>
          <rect x="10.4" y="55.94" width="6.71" height="0.8" style="fill: #29b5b2"/>
          <rect x="10.4" y="53.89" width="6.71" height="2.05" style="fill: #edee97"/>
          <rect x="10.4" y="52.73" width="6.71" height="1.16" style="fill: #fff"/>
          <rect x="10.4" y="51.93" width="6.71" height="0.81" style="fill: #00a299"/>
          <rect x="10.4" y="49.88" width="6.71" height="2.05" style="fill: #edee97"/>
          <rect x="10.4" y="48.01" width="6.71" height="1.87" style="fill: #fff"/>
          <path d="M66.83,73.87H60.1V48h8.7v-.66H44.32V44.62H43.16v2.07H34.05V44.62H32.89v2.73H8.41V48h.83V73.87H8.43v.66H68.8v-.66h-2ZM44.32,57.61V48h6.73V59.66H44.32ZM32.89,48V59.66H26.17V48ZM10.4,73.87v-1.5h0V69.52h0V68.35h0V65.5h0v-5h6.71v-.81H10.4V48h6.71v1.87h0v2.85h0v1.16h0v2.86h0v.86h0v2.86h0v1.16h0v2.85h0v7.09H10.4v.8h6.71v1.5Zm7.87,0v-1.5h0V69.52h0V68.35h0V65.5h0v-5H25v-.81H18.27V48H25V73.87Zm7.9,0v-1.5h0V69.52h0V68.35h0V65.5h0v-5h6.72v13.4Zm17,0H34.05V47.35h9.11v5.56h0v1.32h0v2.64h0v1.32h0v2.56h0v1.32h0v2.64h0V66h0v2.6h0V70h0v2.6h0v1.32Zm1.16,0V60.47h6.73v5h0v2.85h0v1.17h0v2.85h0v1.5Zm7.89,0V48h6.73V59.66H52.22v.81h6.72v5h0v2.85h0v1.17h0v2.85h0v1.5Z" style="fill: #57bec5"/>
        </g>
        <g>
          <path d="M95.18,57V82.47h-6V70a4.71,4.71,0,0,0-9.42,0V82.47h-6V57Z" style="fill: #29b5b2"/>
          <rect x="73.67" y="54.85" width="21.51" height="2.15" style="fill: #f7b62d"/>
          <path d="M93.43,32.31V53.64H88.37V43.2a3.94,3.94,0,1,0-7.88,0V53.64H75.43V32.31Z" style="fill: #29b5b2"/>
          <rect x="75.43" y="30.52" width="18" height="1.79" style="fill: #f7b62d"/>
          <polygon points="92.7 29.51 76.15 29.51 84.43 23.38 92.7 29.51" style="fill: #edee97"/>
          <path d="M89.14,70V82.47H79.72V70a4.71,4.71,0,0,1,9.42,0Z" style="fill: #edee97"/>
          <path d="M88.37,43.2V53.64H80.49V43.2a3.94,3.94,0,1,1,7.88,0Z" style="fill: #edee97"/>
          <polygon points="73.6 29.51 76.15 29.51 92.7 29.51 95.25 29.51 95.25 30.52 93.43 30.52 75.43 30.52 73.6 30.52 73.6 29.51" style="fill: #fac94c"/>
          <polygon points="73.67 54.85 71.5 54.85 71.5 53.64 75.43 53.64 80.49 53.64 88.37 53.64 93.43 53.64 97.36 53.64 97.36 54.85 95.18 54.85 73.67 54.85" style="fill: #fac94c"/>
        </g>
        <g>
          <path d="M108.49,67.26V77c0,.43-.23.69-.61.68a.63.63,0,0,1-.6-.59.57.57,0,0,1,0-.13v-9.7A2.9,2.9,0,0,0,108.49,67.26Z" style="fill: #57bec5"/>
          <path d="M108.49,67.26a2.9,2.9,0,0,1-1.21,0,2.56,2.56,0,0,1-1.83-1.72,1.87,1.87,0,0,1-.1-.78h4.8c.1,0,.25-.06.26.13A2.52,2.52,0,0,1,108.49,67.26Z" style="fill: #00a299"/>
          <path d="M104.42,54.69c.27.41.58.8.88,1.19a6.28,6.28,0,0,1-2.1-.93,6.06,6.06,0,0,1-1.51-1.48,3.45,3.45,0,0,0-.08,1.23,5.6,5.6,0,0,0,.33,1.28c0,.13,0,.17-.12.15A2.28,2.28,0,0,1,100.13,55a.73.73,0,0,0,.43,0,3.73,3.73,0,0,1-1-3c.53.71,1,1.51,2,1.72a2.7,2.7,0,0,1,0-2.43c.14.27.27.53.4.77a6.75,6.75,0,0,0,2.32,2.54Z" style="fill: #edee97"/>
          <path d="M100.78,57.8c-1,.2-2.72-1.29-2.72-1.38a9.67,9.67,0,0,0,1.36.35,5.53,5.53,0,0,1-.89-3.33c.09,0,.11.06.15.11a4.41,4.41,0,0,0,.92.91C99.69,54.53,100.06,57.28,100.78,57.8Z" style="fill: #edee97"/>
          <path d="M100.21,60.13s-.07.15-.11.11a4.82,4.82,0,0,1-2.55-2.77A11.4,11.4,0,0,1,97,55.86a1.09,1.09,0,0,1,0-.15,3.56,3.56,0,0,0,1.1.71C98.12,56.44,100.18,60.1,100.21,60.13Z" style="fill: #edee97"/>
          <path d="M111.57,65c-.31,0-.61,0-.92,0h-5.26a18.09,18.09,0,0,1-4.8-.64A4.84,4.84,0,0,1,98,62.63a3.8,3.8,0,0,1-.6-1.19,2.78,2.78,0,0,0,1.2.67,2.56,2.56,0,0,0,1.35-.21c-1.54-.6-2.37-3.35-2.35-3.38.17.19.33.38.51.56a4.14,4.14,0,0,0,1,.82,2.76,2.76,0,0,0,1.06.25S100,60,100,60a5.2,5.2,0,0,1-1.94-3.53,8.31,8.31,0,0,1,1.06.82,2.4,2.4,0,0,0,1.66.56,2.78,2.78,0,0,1-1.19-2.09.68.68,0,0,1,0-.18s0-1.06,0-1.07,1.46,1.59,2.22,1.67c.16,0,.16,0,.12-.14a5.69,5.69,0,0,1-.33-1.29,3.24,3.24,0,0,1,.08-1.23A5.89,5.89,0,0,0,103.2,55a6.09,6.09,0,0,0,2.1.93,3.59,3.59,0,0,0,1.07.23,5.27,5.27,0,0,0,1.25.14c.09.1.18.21.27.3a1.82,1.82,0,0,0,2.69-.23c.13-.13.16-.31.27-.45.81-.23,3.22-1,3.65-1.1.16,0,1.24,1.33,1.36,1.47-.15.12-.18.94-.4,1.1a1.1,1.1,0,0,1-.87.07,1.38,1.38,0,0,1-.69-.57,2.26,2.26,0,0,1-1.39,1,1.56,1.56,0,0,1-.93,0,.86.86,0,0,1-.64-.68,1.6,1.6,0,0,1-.91.88,5,5,0,0,1-1.91.27,4.29,4.29,0,0,1-2.61-1,6.72,6.72,0,0,1-.85-.84,3.49,3.49,0,0,0,.24,1.38,5.23,5.23,0,0,0,.76,1.2,10.9,10.9,0,0,1-1.5-.58,6.56,6.56,0,0,1-1.32-.92,2.93,2.93,0,0,0,.4,1.25,5.79,5.79,0,0,0,1.49,1.55,3,3,0,0,1,.51.4,5.6,5.6,0,0,1-1.74-.11,13,13,0,0,1-1.62-.62c.74,1.57,2.12,2.08,3.63,2.4a8.76,8.76,0,0,1-3.24.34,7.4,7.4,0,0,0,6.61.23c-.21.63-.72.87-1.19,1.22a5.42,5.42,0,0,0,3.15-.86,2.76,2.76,0,0,1-1.09,1.29,4.52,4.52,0,0,0,2.64-1,1.06,1.06,0,0,1-.21.63C112,64.54,111.76,64.73,111.57,65Z" style="fill: #f7b62d"/>
          <path d="M106.39,56.13a3.85,3.85,0,0,1-1.06-.22c-.31-.39-.61-.78-.89-1.19a24.24,24.24,0,0,1-1.5-2.67,12.47,12.47,0,0,1-.75-1.86.77.77,0,0,1,0-.63.64.64,0,0,1,.61-.35.61.61,0,0,1,.55.43c.09.27.16.55.24.83,0,.08,0,.18.12.18s.11-.1.11-.19c0-.47.08-1,.13-1.43a.55.55,0,0,1,1.09,0,6.1,6.1,0,0,1,0,.74,8.58,8.58,0,0,0,1,4.9l.24.38c0,.08-.07.15-.1.22A.85.85,0,0,0,106.39,56.13Z" style="fill: #00a299"/>
          <path d="M106.39,56.12a.85.85,0,0,1-.21-.86l.1-.22,0,0c.15-.11.22-.18.06-.38a.77.77,0,0,1,.52-1.21c.15,0,.24,0,.19-.25a.74.74,0,0,1,.41-.76.82.82,0,0,1,.9.11c.06.06.11.13.17.2a.82.82,0,0,1,.82-.34.73.73,0,0,1,.61.55,2,2,0,0,1,.08.73,2.48,2.48,0,0,0-.7-.22,1.83,1.83,0,0,0-1.87,1,1.81,1.81,0,0,0,.13,1.8A4.82,4.82,0,0,1,106.39,56.12Z" style="fill: #57bec5"/>
          <circle cx="109.16" cy="55.19" r="1.87" style="fill: #fff"/>
          <path d="M116.53,54.25l-2.34.59a.62.62,0,0,0-.33,1.08l1.75,1.56h0a1.15,1.15,0,0,1,.44-.09l.08,0a6.32,6.32,0,0,1,.62-.18h0l.56-2A.73.73,0,0,0,116.53,54.25Z" style="fill: #f7b62d"/>
          <path d="M111.58,65c.19-.24.44-.43.61-.69a1,1,0,0,0,.22-.63,4.52,4.52,0,0,1-2.64,1,2.76,2.76,0,0,0,1.09-1.29,5.43,5.43,0,0,1-3.16.86c.47-.34,1-.58,1.2-1.22a7.42,7.42,0,0,1-6.62-.23,8.56,8.56,0,0,0,3.24-.34c-1.51-.32-2.88-.82-3.63-2.39a14.15,14.15,0,0,0,1.63.61,5.51,5.51,0,0,0,1.73.11,2.92,2.92,0,0,0-.5-.4,5.5,5.5,0,0,1-1.49-1.55,2.93,2.93,0,0,1-.41-1.25,6.56,6.56,0,0,0,1.32.92,10.17,10.17,0,0,0,1.5.58,5,5,0,0,1-.76-1.2,3.29,3.29,0,0,1-.23-1.38,7.51,7.51,0,0,0,.84.85,4.37,4.37,0,0,0,2.62,1,4.92,4.92,0,0,0,1.9-.27,1.6,1.6,0,0,0,.91-.88.85.85,0,0,0,.64.68,1.55,1.55,0,0,0,.93,0,2.19,2.19,0,0,0,1.39-1,1.43,1.43,0,0,0,.69.57,1.1,1.1,0,0,0,.87-.07A6.2,6.2,0,0,0,117,56.26c0,.36,0,.61,0,.92-.54.11-1.08.25-1.62.39l-4.49,1.07A1.1,1.1,0,0,0,110,59.7v1.06a1.1,1.1,0,0,0,.77,1.1c1.08.42,2.16.85,3.25,1.26.65.24,1.28.53,2,.71a1.42,1.42,0,0,1-.55,1,3.35,3.35,0,0,1-1,.6l.22-.48a.79.79,0,0,0,0-.77,1.75,1.75,0,0,1-.7.75,5.6,5.6,0,0,1-.85.31l.22-.3a1.06,1.06,0,0,0,.19-1c-.16.13-.3.26-.45.37a3.6,3.6,0,0,1-1.4.62Z" style="fill: #edee97"/>
          <path d="M116,63.82a18.72,18.72,0,0,1-1.94-.71c-1.09-.41-2.18-.83-3.26-1.26a1.1,1.1,0,0,1-.77-1.1c0-.35,0-.71,0-1.06a1.1,1.1,0,0,1,.85-1.06c1.49-.35,3-.7,4.49-1.07.53-.13,1.07-.28,1.61-.38a.37.37,0,0,1,.32.42c0,.23-.17.31-.36.35a4,4,0,0,0-.68.19,1.13,1.13,0,0,0-.18,0l-2.62.62-2,.49-.71.09a.17.17,0,0,0-.14.22,2.65,2.65,0,0,1,.07.93c0,.2,0,.39-.08.62l.21-.14a.48.48,0,0,0,.22.15l2.83,1.09c.46.17.9.38,1.37.51A3,3,0,0,0,116,63c.15.08.3.16.32.36S116.21,63.75,116,63.82Z" style="fill: #00a299"/>
          <path d="M116.44,59.51a1.64,1.64,0,0,1,.69,1.4,1.53,1.53,0,0,1-1,1.4,2.88,2.88,0,0,0-.15-.86,8.69,8.69,0,0,1-.46.86.43.43,0,0,0-.21-.25l-.58-.23c-.13-.06-.31,0-.38,0s-.14-.23-.29-.28a1.58,1.58,0,0,1,.88-2.17,1.66,1.66,0,0,1,1.44.14Zm-1.38.78a.35.35,0,1,0,0-.7.37.37,0,0,0-.34.35A.37.37,0,0,0,115.06,60.29Zm-.27.12c0-.08-.07-.19-.22-.19a.21.21,0,0,0-.22.23.19.19,0,0,0,.22.2C114.71,60.65,114.77,60.57,114.79,60.41Z" style="fill: #57bec5"/>
          <path d="M115.56,62.31a8.69,8.69,0,0,0,.46-.86,2.88,2.88,0,0,1,.15.86A2,2,0,0,1,116,63a3,3,0,0,1-.72-.28A2,2,0,0,0,115.56,62.31Z" style="fill: #f5f3f4"/>
          <path d="M116.27,58.14a3.12,3.12,0,0,1,.11.67,1.46,1.46,0,0,1-1.11.25s-.07-.06-.13,0a1.23,1.23,0,0,1-1.15.25c-.06,0-.09,0-.12,0a.37.37,0,0,1-.33.19c-.21,0-.46.16-.61.09s-.34.15-.52.17h0l-.77.13a1.5,1.5,0,0,0-.1-.66l2-.49,2.62-.62A1.13,1.13,0,0,1,116.27,58.14Z" style="fill: #fac94c"/>
          <path d="M115.56,62.31a2,2,0,0,1-.28.44c-.47-.13-.91-.34-1.37-.51l-2.83-1.09a.48.48,0,0,1-.22-.15,2.7,2.7,0,0,0,.58-.59c.2.11.49.09.56.4,0,0,.06,0,.09,0a.22.22,0,0,1,.21,0l.69.28c.14.05.15.17.2.27a.44.44,0,0,1,.37,0l.54.2c.15,0,.19.21.29.28s.25,0,.38,0l.58.23A.43.43,0,0,1,115.56,62.31Z" style="fill: #fac94c"/>
          <path d="M111.44,60.41a2.7,2.7,0,0,1-.58.59l-.21.14c0-.23,0-.42.08-.62a2.65,2.65,0,0,0-.07-.93.17.17,0,0,1,.14-.22l.71-.09a1.5,1.5,0,0,1,.1.66Z" style="fill: #fff"/>
          <path d="M115.06,60.29a.37.37,0,0,1-.37-.35.37.37,0,0,1,.34-.35.35.35,0,1,1,0,.7Z" style="fill: #f5f3f4"/>
          <path d="M114.79,60.41c0,.16-.08.24-.22.24a.19.19,0,0,1-.22-.2.21.21,0,0,1,.22-.23C114.72,60.22,114.75,60.33,114.79,60.41Z" style="fill: #57bec5"/>
          <path d="M116.43,59.52l0,0a3.94,3.94,0,0,0,0-.68,3.11,3.11,0,0,0-.11-.68,4,4,0,0,1,.68-.18.5.5,0,0,1,0,.43A2.47,2.47,0,0,1,116.43,59.52Z" style="fill: #f5f3f4"/>
          <circle cx="109.57" cy="54.66" r="1.18" style="fill: #fac94c"/>
        </g>
        <g>
          <path d="M59.73,72.39c.08-.41.28-.71.52-.71s.55.47.55,1-.24,1-.55,1-.55-.47-.55-1A1.87,1.87,0,0,1,59.73,72.39Z" style="fill: #edee97"/>
          <path d="M56.36,78.64c1.54-.08,2.21-.39,3.12-.37v-.5a.76.76,0,0,1,.76.76v1a.67.67,0,0,1-.59.72l-.17,0v-.48a25,25,0,0,1-3.12.36A1.06,1.06,0,0,0,56.36,78.64Z" style="fill: #29b5b2"/>
          <path d="M59.81,85.49a.45.45,0,0,1,.44.45v1.17h0a2,2,0,0,1-.88.5V85.94A.44.44,0,0,1,59.81,85.49Z" style="fill: #29b5b2"/>
          <path d="M55.7,78.17c2,0,2.75-.42,3.78-.4v.5c-.91,0-1.58.29-3.12.37-.21,0-.42,0-.66,0s-.45,0-.66,0c-1.54-.08-2.21-.39-3.12-.37v-.5C53,77.75,53.67,78.15,55.7,78.17Z" style="fill: #edee97"/>
          <path d="M58.92,85.49a.45.45,0,0,1,.45.45v1.67a1.91,1.91,0,0,1-.89,0V85.94A.45.45,0,0,1,58.92,85.49Z" style="fill: #57bec5"/>
          <circle cx="58.1" cy="74.55" r="1.36" style="fill: #edee97"/>
          <path d="M58,85.49a.45.45,0,0,1,.44.45v1.67a1.91,1.91,0,0,1-.88-.5V85.87A.44.44,0,0,1,58,85.49Z" style="fill: #29b5b2"/>
          <path d="M56.77,77.13a.43.43,0,0,1-.37.64H55a.43.43,0,0,1-.37-.64l.7-1.21a.43.43,0,0,1,.74,0Z" style="fill: #29b5b2"/>
          <path d="M59.73,72.39a2.23,2.23,0,0,0-3.26,0h0a.77.77,0,0,0-1.54,0,2.22,2.22,0,0,0-3.25,0h0c-.08-.41-.28-.71-.52-.71,0-1.38,2-2.5,4.54-2.5h0c2.51,0,4.54,1.12,4.54,2.5-.24,0-.44.3-.52.71Z" style="fill: #fac94c"/>
          <path d="M56.36,78.64a1.06,1.06,0,0,1,0,1.49H55a1.06,1.06,0,0,1,0-1.49c.21,0,.42,0,.66,0S56.15,78.66,56.36,78.64Z" style="fill: #57bec5"/>
          <path d="M55.7,71.62a.78.78,0,0,1,.77.77.77.77,0,0,1-1.54,0A.78.78,0,0,1,55.7,71.62Z" style="fill: #fac94c"/>
          <path d="M51.92,79.77a25,25,0,0,0,3.12.36h1.32a25,25,0,0,0,3.12-.36v.48a20.34,20.34,0,0,1-3.78.42,20.34,20.34,0,0,1-3.78-.42Z" style="fill: #edee97"/>
          <path d="M53.31,73.19a1.36,1.36,0,1,1-1.37,1.36A1.36,1.36,0,0,1,53.31,73.19Z" style="fill: #edee97"/>
          <path d="M53.37,85.49a.44.44,0,0,1,.44.38v1.24a1.91,1.91,0,0,1-.88.5V85.94A.45.45,0,0,1,53.37,85.49Z" style="fill: #29b5b2"/>
          <path d="M52,85.94a.45.45,0,1,1,.89,0v1.67a1.91,1.91,0,0,1-.89,0Z" style="fill: #57bec5"/>
          <path d="M51.92,78.27c.91,0,1.58.29,3.12.37a1.06,1.06,0,0,0,0,1.49,25,25,0,0,1-3.12-.36v.48l-.17,0a.67.67,0,0,1-.59-.72v-1a.76.76,0,0,1,.76-.76Z" style="fill: #29b5b2"/>
          <path d="M51.71,72.73c0,.58-.25,1-.55,1s-.55-.47-.55-1,.24-1,.55-1,.44.3.52.71A1.87,1.87,0,0,1,51.71,72.73Z" style="fill: #edee97"/>
          <path d="M51.16,85.94a.45.45,0,0,1,.44-.45.44.44,0,0,1,.44.45v1.67a2,2,0,0,1-.88-.5h0Z" style="fill: #29b5b2"/>
          <path d="M52,85.94a.44.44,0,0,0-.44-.45.45.45,0,0,0-.44.45h0V79.5h0a.67.67,0,0,0,.59.72l.17,0a20.34,20.34,0,0,0,3.78.42,20.34,20.34,0,0,0,3.78-.42l.17,0a.67.67,0,0,0,.59-.72h0v6.44h0a.45.45,0,0,0-.44-.45.44.44,0,0,0-.44.45.45.45,0,1,0-.89,0,.44.44,0,0,0-.88-.07V84.55a1.89,1.89,0,0,0-1.89-1.89h0a1.89,1.89,0,0,0-1.89,1.89v1.32a.44.44,0,0,0-.88.07.45.45,0,1,0-.89,0Z" style="fill: #f7b62d"/>
          <path d="M55,77.77h1.4a.43.43,0,0,0,.37-.64l-.7-1.21a.43.43,0,0,0-.74,0l-.7,1.21A.43.43,0,0,0,55,77.77Zm-1.69-1.86a1.36,1.36,0,1,0-1.37-1.36A1.36,1.36,0,0,0,53.31,75.91Zm3.16-3.52a2.23,2.23,0,0,1,3.26,0h0a1.87,1.87,0,0,0,0,.34c0,.58.25,1,.55,1V79.5h0v-1a.76.76,0,0,0-.76-.76c-1,0-1.75.38-3.78.4s-2.75-.42-3.78-.4a.76.76,0,0,0-.76.76v1h0V73.78c.3,0,.55-.47.55-1a1.87,1.87,0,0,0,0-.34h0a2.22,2.22,0,0,1,3.25,0,.77.77,0,0,0,1.54,0Zm1.63,3.52a1.36,1.36,0,1,0-1.36-1.36A1.36,1.36,0,0,0,58.1,75.91Z" style="fill: #f7b62d"/>
        </g>
        <g>
          <path d="M73,91l.31,2a1,1,0,0,1-.4.36l-.28-1.82A.45.45,0,0,1,73,91Z" style="fill: #57bec5"/>
          <path d="M70.21,80.81a1.36,1.36,0,1,0-1.36-1.36A1.36,1.36,0,0,0,70.21,80.81Zm-4.08-3.16a1.37,1.37,0,0,0,2,.17h0a3,3,0,0,1,4.23.42V80.9l-.93,1.61c-1.92-.09-2.48-.41-3.51-.39a.76.76,0,0,0-.76.76v1a.67.67,0,0,0,.58.72l.18,0a20.25,20.25,0,0,0,3.78.42c.49,0,.89,0,.91,0h0c.34.15.49.67-.45.67L73,91a.45.45,0,0,0-.37.5.44.44,0,1,0-.87.14L72,93.51a1.57,1.57,0,0,1-1.16-.25l-.35-2.14h0c-.23-1.28-1.38-1.19-2.25-.41h0L65,93.46a3.1,3.1,0,0,1-2.82-3.32l1.29-1.07L64.73,88l1.4-1.16Z" style="fill: #f7b62d"/>
          <path d="M72.11,91.08a.44.44,0,0,1,.5.37l.28,1.82a2.6,2.6,0,0,1-.86.24l-.29-1.92A.44.44,0,0,1,72.11,91.08Z" style="fill: #29b5b2"/>
          <path d="M72.58,82.49a6.67,6.67,0,0,1-1.18,0l.93-1.61.49.78c.49.8.16.77-.06.8Z" style="fill: #29b5b2"/>
          <path d="M71.4,82.51a6.67,6.67,0,0,0,1.18,0h0V83s-.46,0-1,0h-.27a10.82,10.82,0,0,1-1.32-.1,13.73,13.73,0,0,0-2.06-.28v-.49C68.92,82.1,69.48,82.42,71.4,82.51Z" style="fill: #edee97"/>
          <path d="M71.26,84.49h1.32V85h0s-.42,0-.91,0a20.25,20.25,0,0,1-3.78-.42v-.48c.65.12,1.37.22,2.07.28C70.41,84.45,70.85,84.47,71.26,84.49Z" style="fill: #edee97"/>
          <circle cx="70.21" cy="79.45" r="1.36" style="fill: #edee97"/>
          <path d="M71.27,83a1.08,1.08,0,0,1,0,1.5c-.41,0-.85,0-1.3-.09h0a1.06,1.06,0,0,1,0-1.5h0A10.82,10.82,0,0,0,71.27,83Z" style="fill: #57bec5"/>
          <path d="M68.1,77.82a1.36,1.36,0,0,0-.5-2.32c2.94-.23,4.17.18,4.73,1.21a.77.77,0,0,1,0,1.53A3,3,0,0,0,68.1,77.82Z" style="fill: #fac94c"/>
          <path d="M67.6,75.5a1.36,1.36,0,0,1,.5,2.32h0a1.36,1.36,0,1,1-.9-2.38A1.29,1.29,0,0,1,67.6,75.5Z" style="fill: #edee97"/>
          <path d="M64.73,88l-1.3,1.08,0,0c-1.13,0-2-1.49-2-3.33,0,.42.69.75,1.53.75A1.76,1.76,0,0,1,64.73,88Z" style="fill: #fac94c"/>
        </g>
      </g>
    </g>
  </g>
</svg>
