<svg xmlns="http://www.w3.org/2000/svg" width="108.92" height="97.96" viewBox="0 0 108.92 97.96">
  <g id="Layer_2" data-name="Layer 2">
    <g id="Icon">
      <g>
        <g>
          <path d="M46.05,8.31V20.74l-1.62,0,0-14h7.2l0-1.92H43V3.24h8.63l0-1.94h1.64V3.24h8.61V4.82H53.23V6.74h7.19l0,12a1.53,1.53,0,0,1-1.64,1.54l-2.55,0-.41-1.66a18.71,18.71,0,0,0,2.4,0c.43,0,.58-.35.58-.74V8.31H55.43l1.1.69A7.77,7.77,0,0,1,55,11.76h2.59v1.58H53.28l0,1.34h4.69v1.55l-4.69,0v3.67H51.64V16.23l-4.69,0V14.68h4.69V13.34H47.32V11.79l2.68,0a5.49,5.49,0,0,0-2.25-2.63l1.56-.75a6.14,6.14,0,0,1,2.3,2.91l-1.1.43,2.42,0a9.2,9.2,0,0,0,2.12-3.45Z" style="fill: #fff"/>
          <path d="M61.69,43.24H46.41c-1.14,0-1.66-1-1.66-2V27.55l-1.36,0v-1.6l18.19,0v1.6H46.39l0,13.25c0,.6.22.84.89.84H61.69Zm-8.28-3H47.3v-6l6.11,0Zm-4.49-4.4v2.82l2.85,0,0-2.87Zm9.86-2.72-9.71,0,0-4.81h9.69Zm-8.07-1.47h6.43V29.77H50.71Zm10,2.61v5.91H54.51V34.26Zm-1.62,1.55-2.91,0V38.6l2.89,0Z" style="fill: #fff"/>
        </g>
        <g>
          <path d="M47.35,7V19.44l-1.62,0,0-14h7.2l0-1.92H44.28V1.94h8.63l0-1.94h1.64V1.94h8.61V3.52H54.53V5.44h7.19l0,12A1.53,1.53,0,0,1,60.06,19l-2.55,0-.41-1.66a18.71,18.71,0,0,0,2.4,0c.43-.05.58-.35.58-.74V7H56.73l1.1.69a7.77,7.77,0,0,1-1.57,2.76h2.59V12H54.58l0,1.34h4.69v1.55l-4.69,0v3.67H52.94V14.93l-4.69,0V13.38h4.69V12H48.62V10.49l2.68,0a5.49,5.49,0,0,0-2.25-2.63l1.56-.75A6.14,6.14,0,0,1,52.91,10l-1.1.43,2.42,0A9.2,9.2,0,0,0,56.35,7Z" style="fill: #214534"/>
          <path d="M63,41.94H47.71c-1.14,0-1.66-.95-1.66-2V26.25l-1.36,0v-1.6l18.19,0v1.6H47.69l0,13.25c0,.6.22.84.89.84H63Zm-8.28-3H48.6V33l6.11,0Zm-4.49-4.4v2.82l2.85,0,0-2.87Zm9.86-2.72-9.71,0,0-4.81h9.69ZM52,30.35h6.43V28.47H52ZM62,33v5.91H55.81V33Zm-1.62,1.55-2.91,0V37.3l2.89,0Z" style="fill: #214534"/>
        </g>
        <g style="isolation: isolate">
          <polygon points="60.93 96.13 8.31 76.97 53.39 57.21 106.02 76.36 60.93 96.13" style="fill: #c4dc77"/>
          <polygon points="60.95 97.96 60.93 96.13 106.02 76.36 106.04 78.19 60.95 97.96" style="fill: #718044"/>
          <polygon points="8.33 78.81 8.31 76.97 60.93 96.13 60.95 97.96 8.33 78.81" style="fill: #444d28"/>
        </g>
        <g>
          <polygon points="50.53 72.37 50.54 72.37 50.54 71.57 50.54 69.52 50.53 69.52 50.53 71.57 50.53 72.37" style="fill: none"/>
          <polygon points="50.53 68.36 50.54 68.36 50.54 67.55 50.54 65.5 50.53 65.5 50.53 67.55 50.53 68.36" style="fill: none"/>
          <polygon points="8.7 52.73 8.71 52.73 8.71 51.92 8.71 49.88 8.7 49.88 8.7 51.92 8.7 52.73" style="fill: none"/>
          <polygon points="34.75 69.95 34.76 68.63 34.75 68.63 34.75 69.95 34.75 69.95" style="fill: none"/>
          <polygon points="58.42 72.38 58.43 72.38 58.43 71.57 58.43 69.52 58.42 69.52 58.42 71.57 58.42 72.38" style="fill: none"/>
          <rect x="34.75" y="52.91" width="0.01" height="1.32" style="fill: none"/>
          <polygon points="42.63 68.36 42.65 68.36 42.65 67.55 42.65 65.5 42.63 65.5 42.63 67.55 42.63 68.36" style="fill: none"/>
          <polygon points="42.63 72.37 42.65 72.37 42.65 71.57 42.65 69.52 42.63 69.52 42.63 71.57 42.63 72.37" style="fill: none"/>
          <polygon points="58.42 68.36 58.43 68.36 58.43 67.56 58.43 65.51 58.42 65.51 58.42 67.56 58.42 68.36" style="fill: none"/>
          <polygon points="34.75 58.19 34.76 56.87 34.75 56.87 34.75 58.19 34.75 58.19" style="fill: none"/>
          <rect x="34.75" y="60.75" width="0.01" height="1.32" style="fill: none"/>
          <polygon points="1.99 65.5 1.97 65.5 1.97 67.55 1.97 68.36 1.99 68.36 1.99 67.55 1.99 65.5" style="fill: none"/>
          <polygon points="34.75 66.03 34.76 64.71 34.75 64.71 34.75 66.03 34.75 66.03" style="fill: none"/>
          <polygon points="9.86 65.5 9.84 65.5 9.84 67.55 9.84 68.36 9.86 68.36 9.86 67.55 9.86 65.5" style="fill: none"/>
          <polygon points="1.99 69.52 1.97 69.52 1.97 71.57 1.97 72.37 1.99 72.37 1.99 71.57 1.99 69.52" style="fill: none"/>
          <polygon points="8.7 56.75 8.71 56.75 8.71 55.94 8.71 53.89 8.7 53.89 8.7 55.94 8.7 56.75" style="fill: none"/>
          <rect x="58.42" y="73.87" width="1.16" height="0.01" style="fill: none"/>
          <polygon points="9.86 69.52 9.84 69.52 9.84 71.57 9.84 72.37 9.86 72.37 9.86 71.57 9.86 69.52" style="fill: none"/>
          <polygon points="8.71 59.66 8.71 57.61 8.7 57.61 8.7 59.66 8.7 60.47 8.71 60.47 8.71 59.66" style="fill: none"/>
          <polygon points="17.75 69.52 17.74 69.52 17.74 71.57 17.74 72.37 17.75 72.37 17.75 71.57 17.75 69.52" style="fill: none"/>
          <polygon points="17.75 65.5 17.74 65.5 17.74 67.55 17.74 68.36 17.75 68.36 17.75 67.55 17.75 65.5" style="fill: none"/>
          <polygon points="8.7 64.48 8.71 64.48 8.71 63.68 8.71 61.63 8.7 61.63 8.7 63.68 8.7 64.48" style="fill: none"/>
          <polygon points="34.75 72.55 34.75 73.87 34.75 73.87 34.76 72.55 34.75 72.55" style="fill: none"/>
          <polygon points="58.42 48.01 58.42 49.88 58.42 51.93 58.42 52.74 58.42 53.9 58.42 55.95 58.42 56.75 58.42 57.62 58.42 59.67 51.69 59.67 51.69 60.47 58.42 60.47 58.42 61.63 58.42 63.68 58.42 64.49 58.42 65.51 58.43 65.51 58.43 67.56 58.43 68.36 58.42 68.36 58.42 69.52 58.43 69.52 58.43 71.57 58.43 72.38 58.42 72.38 58.42 73.87 59.58 73.87 59.58 48.01 58.42 48.01" style="fill: #57bec5"/>
          <rect x="51.71" y="71.57" width="6.71" height="0.81" style="fill: #57bec5"/>
          <rect x="51.71" y="69.52" width="6.71" height="2.05" style="fill: #edee97"/>
          <rect x="51.71" y="67.56" width="6.71" height="0.8" style="fill: #29b5b2"/>
          <rect x="51.71" y="65.51" width="6.71" height="2.05" style="fill: #edee97"/>
          <rect x="51.69" y="63.68" width="6.72" height="0.81" style="fill: #00a299"/>
          <rect x="51.69" y="61.63" width="6.72" height="2.05" style="fill: #edee97"/>
          <rect x="51.69" y="57.62" width="6.72" height="2.05" style="fill: #edee97"/>
          <rect x="51.69" y="55.95" width="6.72" height="0.81" style="fill: #29b5b2"/>
          <rect x="51.69" y="53.9" width="6.72" height="2.05" style="fill: #edee97"/>
          <rect x="51.69" y="51.93" width="6.72" height="0.81" style="fill: #00a299"/>
          <rect x="51.69" y="49.88" width="6.72" height="2.05" style="fill: #edee97"/>
          <polygon points="51.69 52.74 51.69 56.75 51.69 60.47 51.69 64.49 51.69 68.36 51.69 72.38 51.69 73.87 58.42 73.87 58.42 72.38 51.71 72.38 51.71 71.57 51.71 69.52 58.42 69.52 58.42 68.36 51.71 68.36 51.71 67.56 51.71 65.51 58.42 65.51 58.42 64.49 51.69 64.49 51.69 63.68 51.69 61.63 58.42 61.63 58.42 60.47 51.69 60.47 51.69 59.67 51.69 57.62 58.42 57.62 58.42 56.75 51.69 56.75 51.69 55.95 51.69 53.9 58.42 53.9 58.42 52.74 51.69 52.74 51.69 51.93 51.69 49.88 58.42 49.88 58.42 48.01 59.58 48.01 59.58 48.01 51.69 48.01 51.69 52.74" style="fill: #fff"/>
          <rect x="43.82" y="71.57" width="6.71" height="0.81" style="fill: #57bec5"/>
          <rect x="43.82" y="69.52" width="6.71" height="2.05" style="fill: #edee97"/>
          <rect x="43.82" y="67.55" width="6.71" height="0.8" style="fill: #29b5b2"/>
          <rect x="43.82" y="65.5" width="6.71" height="2.05" style="fill: #edee97"/>
          <rect x="43.8" y="63.68" width="6.72" height="0.8" style="fill: #00a299"/>
          <rect x="43.8" y="61.63" width="6.72" height="2.05" style="fill: #edee97"/>
          <rect x="43.8" y="57.61" width="6.72" height="2.05" style="fill: #edee97"/>
          <rect x="43.8" y="55.94" width="6.72" height="0.8" style="fill: #29b5b2"/>
          <rect x="43.8" y="53.89" width="6.72" height="2.05" style="fill: #edee97"/>
          <rect x="43.8" y="51.93" width="6.72" height="0.81" style="fill: #00a299"/>
          <rect x="43.8" y="49.88" width="6.72" height="2.05" style="fill: #edee97"/>
          <polygon points="43.82 72.37 43.82 71.57 43.82 69.52 50.53 69.52 50.53 68.36 43.82 68.36 43.82 67.55 43.82 65.5 50.53 65.5 50.53 64.48 43.8 64.48 43.8 63.68 43.8 61.63 50.53 61.63 50.53 60.47 43.8 60.47 43.8 59.66 43.8 57.61 50.53 57.61 50.53 56.75 43.8 56.75 43.8 55.94 43.8 53.89 50.53 53.89 50.53 52.73 43.8 52.73 43.8 51.92 43.8 49.88 50.53 49.88 50.53 48.01 43.79 48.01 43.79 52.73 43.79 56.75 43.79 60.47 43.79 64.48 43.79 68.36 43.79 72.37 43.79 73.87 50.53 73.87 50.53 72.37 43.82 72.37" style="fill: #fff"/>
          <rect x="35.92" y="71.57" width="6.71" height="0.81" style="fill: #57bec5"/>
          <rect x="35.92" y="69.52" width="6.71" height="2.05" style="fill: #edee97"/>
          <rect x="35.92" y="67.55" width="6.71" height="0.8" style="fill: #29b5b2"/>
          <rect x="35.92" y="65.5" width="6.71" height="2.05" style="fill: #edee97"/>
          <rect x="35.91" y="63.68" width="6.72" height="0.8" style="fill: #00a299"/>
          <rect x="35.91" y="61.63" width="6.72" height="2.05" style="fill: #edee97"/>
          <rect x="35.91" y="60.47" width="6.72" height="1.16" style="fill: #fff"/>
          <rect x="35.91" y="57.61" width="6.72" height="2.05" style="fill: #edee97"/>
          <rect x="35.91" y="56.75" width="6.72" height="0.87" style="fill: #fff"/>
          <rect x="35.91" y="55.94" width="6.72" height="0.8" style="fill: #29b5b2"/>
          <rect x="35.91" y="53.89" width="6.72" height="2.05" style="fill: #edee97"/>
          <rect x="35.91" y="52.73" width="6.72" height="1.16" style="fill: #fff"/>
          <rect x="35.91" y="51.93" width="6.72" height="0.81" style="fill: #00a299"/>
          <rect x="35.91" y="49.88" width="6.72" height="2.05" style="fill: #edee97"/>
          <rect x="35.91" y="48.01" width="6.72" height="1.87" style="fill: #fff"/>
          <polygon points="35.92 72.37 35.92 71.57 35.92 69.52 42.63 69.52 42.63 68.36 35.92 68.36 35.92 67.55 35.92 65.5 42.63 65.5 42.63 64.48 35.91 64.48 35.91 68.36 35.91 72.37 35.91 73.87 42.63 73.87 42.63 72.37 35.92 72.37" style="fill: #fff"/>
          <polygon points="31.75 72.52 29.11 71 29.07 71.05 29.07 71 25.66 70.97 25.65 72.3 28.73 72.32 31.34 73.81 31.34 73.84 34.75 73.87 34.75 72.55 31.75 72.52" style="fill: #f7b62d"/>
          <polygon points="31.34 73.81 28.73 72.32 25.65 72.3 25.66 70.97 29.07 71 29.07 71.05 29.11 71 31.75 72.52 34.75 72.55 34.75 69.95 31.34 69.92 31.34 69.89 28.74 68.4 25.65 68.38 25.66 67.06 29.07 67.08 29.07 67.13 29.11 67.08 31.75 68.6 34.75 68.63 34.75 66.03 31.34 66 31.34 65.97 28.73 64.48 25.65 64.46 25.66 63.13 29.07 63.16 29.07 63.21 29.11 63.16 31.75 64.68 34.75 64.71 34.75 62.07 31.34 62.07 31.34 62.05 28.74 60.57 25.65 60.57 25.65 59.25 29.07 59.25 29.07 59.3 29.1 59.25 31.76 60.75 34.75 60.75 34.75 58.19 31.34 58.16 31.34 58.13 28.74 56.64 25.65 56.62 25.66 55.29 29.07 55.32 29.07 55.37 29.11 55.32 31.76 56.84 34.75 56.87 34.75 54.23 31.34 54.23 31.34 54.2 28.74 52.73 25.65 52.73 25.65 51.41 29.07 51.41 29.07 51.46 29.1 51.41 31.76 52.91 34.75 52.91 34.75 47.35 25.64 47.35 25.64 52.73 25.64 56.62 25.64 60.57 25.64 64.46 25.64 68.38 25.64 72.3 25.64 73.87 34.75 73.87 31.34 73.84 31.34 73.81" style="fill: #fff"/>
          <polygon points="29.1 51.41 29.07 51.46 29.07 51.41 25.65 51.41 25.65 52.73 28.74 52.73 31.34 54.2 31.34 54.23 34.75 54.23 34.75 52.91 31.76 52.91 29.1 51.41" style="fill: #fac94c"/>
          <polygon points="29.11 55.32 29.07 55.37 29.07 55.32 25.66 55.29 25.65 56.62 28.74 56.64 31.34 58.13 31.34 58.16 34.75 58.19 34.75 56.87 31.76 56.84 29.11 55.32" style="fill: #f7b62d"/>
          <polygon points="29.1 59.25 29.07 59.3 29.07 59.25 25.65 59.25 25.65 60.57 28.74 60.57 31.34 62.05 31.34 62.07 34.75 62.07 34.75 60.75 31.76 60.75 29.1 59.25" style="fill: #fac94c"/>
          <polygon points="29.11 63.16 29.07 63.21 29.07 63.16 25.66 63.13 25.65 64.46 28.73 64.48 31.34 65.97 31.34 66 34.75 66.03 34.75 64.71 31.75 64.68 29.11 63.16" style="fill: #f7b62d"/>
          <polygon points="29.11 67.08 29.07 67.13 29.07 67.08 25.66 67.06 25.65 68.38 28.74 68.4 31.34 69.89 31.34 69.92 34.75 69.95 34.75 68.63 31.75 68.6 29.11 67.08" style="fill: #fac94c"/>
          <rect x="17.75" y="63.68" width="6.72" height="0.8" style="fill: #00a299"/>
          <rect x="17.75" y="61.63" width="6.72" height="2.05" style="fill: #edee97"/>
          <rect x="17.75" y="60.47" width="6.72" height="1.16" style="fill: #fff"/>
          <rect x="17.75" y="57.61" width="6.72" height="2.05" style="fill: #edee97"/>
          <rect x="17.75" y="56.75" width="6.72" height="0.87" style="fill: #fff"/>
          <rect x="17.75" y="55.94" width="6.72" height="0.8" style="fill: #29b5b2"/>
          <rect x="17.75" y="53.89" width="6.72" height="2.05" style="fill: #edee97"/>
          <rect x="17.75" y="52.73" width="6.72" height="1.16" style="fill: #fff"/>
          <rect x="17.75" y="51.93" width="6.72" height="0.81" style="fill: #00a299"/>
          <rect x="17.75" y="49.88" width="6.72" height="2.05" style="fill: #edee97"/>
          <rect x="17.75" y="48.01" width="6.72" height="1.87" style="fill: #fff"/>
          <polygon points="24.48 67.55 24.48 64.48 17.75 64.48 17.75 65.5 24.47 65.5 24.47 67.55 24.47 68.36 17.75 68.36 17.75 69.52 24.47 69.52 24.47 71.57 24.47 72.37 17.75 72.37 17.75 73.87 24.48 73.87 24.48 71.57 24.48 67.55" style="fill: #fff"/>
          <rect x="17.75" y="71.57" width="6.71" height="0.81" style="fill: #57bec5"/>
          <rect x="17.75" y="69.52" width="6.71" height="2.05" style="fill: #edee97"/>
          <rect x="17.75" y="67.55" width="6.71" height="0.8" style="fill: #29b5b2"/>
          <rect x="17.75" y="65.5" width="6.71" height="2.05" style="fill: #edee97"/>
          <polygon points="16.59 67.55 16.59 63.68 16.59 59.66 16.59 55.94 16.59 51.92 16.59 48.01 9.86 48.01 9.86 49.88 16.58 49.88 16.58 51.92 16.58 52.73 9.86 52.73 9.86 53.89 16.58 53.89 16.58 55.94 16.58 56.75 9.86 56.75 9.86 57.61 16.58 57.61 16.58 59.66 16.58 60.47 9.86 60.47 9.86 61.63 16.58 61.63 16.58 63.68 16.58 64.48 9.86 64.48 9.86 65.5 16.57 65.5 16.57 67.55 16.57 68.36 9.86 68.36 9.86 69.52 16.57 69.52 16.57 71.57 16.57 72.37 9.86 72.37 9.86 73.87 16.59 73.87 16.59 71.57 16.59 67.55" style="fill: #fff"/>
          <rect x="9.86" y="63.68" width="6.73" height="0.8" style="fill: #00a299"/>
          <rect x="9.86" y="61.63" width="6.73" height="2.05" style="fill: #edee97"/>
          <rect x="9.86" y="57.61" width="6.73" height="2.05" style="fill: #edee97"/>
          <rect x="9.86" y="55.94" width="6.73" height="0.8" style="fill: #29b5b2"/>
          <rect x="9.86" y="53.89" width="6.73" height="2.05" style="fill: #edee97"/>
          <rect x="9.86" y="51.93" width="6.73" height="0.81" style="fill: #00a299"/>
          <rect x="9.86" y="49.88" width="6.73" height="2.05" style="fill: #edee97"/>
          <rect x="9.86" y="71.57" width="6.71" height="0.81" style="fill: #57bec5"/>
          <rect x="9.86" y="69.52" width="6.71" height="2.05" style="fill: #edee97"/>
          <rect x="9.86" y="67.55" width="6.71" height="0.8" style="fill: #29b5b2"/>
          <rect x="9.86" y="65.5" width="6.71" height="2.05" style="fill: #edee97"/>
          <rect x="1.98" y="72.37" width="6.71" height="1.5" style="fill: #fff"/>
          <rect x="1.98" y="69.52" width="6.71" height="2.05" style="fill: #edee97"/>
          <rect x="1.98" y="68.35" width="6.71" height="1.16" style="fill: #fff"/>
          <rect x="1.98" y="67.55" width="6.71" height="0.8" style="fill: #29b5b2"/>
          <rect x="1.98" y="65.5" width="6.71" height="2.05" style="fill: #edee97"/>
          <rect x="1.98" y="64.48" width="6.71" height="1.02" style="fill: #fff"/>
          <rect x="1.98" y="63.68" width="6.71" height="0.8" style="fill: #00a299"/>
          <rect x="1.98" y="61.63" width="6.71" height="2.05" style="fill: #edee97"/>
          <rect x="1.98" y="60.47" width="6.71" height="1.16" style="fill: #fff"/>
          <rect x="1.98" y="57.61" width="6.71" height="2.05" style="fill: #edee97"/>
          <rect x="1.98" y="56.75" width="6.71" height="0.87" style="fill: #fff"/>
          <rect x="1.98" y="55.94" width="6.71" height="0.8" style="fill: #29b5b2"/>
          <rect x="1.98" y="53.89" width="6.71" height="2.05" style="fill: #edee97"/>
          <rect x="1.98" y="52.73" width="6.71" height="1.16" style="fill: #fff"/>
          <rect x="1.98" y="51.93" width="6.71" height="0.81" style="fill: #00a299"/>
          <rect x="1.98" y="49.88" width="6.71" height="2.05" style="fill: #edee97"/>
          <rect x="1.98" y="48.01" width="6.71" height="1.87" style="fill: #fff"/>
          <path d="M58.42,73.87H51.69V48h8.7v-.66H35.91V44.62H34.75v2.07H25.64V44.62H24.48v2.73H0V48H.83V73.87H0v.66H60.39v-.66h-2ZM35.91,57.61V48h6.72V59.66H35.91ZM24.48,48V59.66H17.75V48ZM2,73.87v-1.5H2V69.52H2V68.35H2V65.5H2v-5H8.7v-.81H2V48H8.7v1.87h0v2.85h0v1.16h0v2.86h0v.86h0v2.86h0v1.16h0v2.85h0v7.09H2v.8H8.7v1.5Zm7.88,0v-1.5h0V69.52h0V68.35h0V65.5h0v-5h6.72v-.81H9.86V48h6.73V73.87Zm7.89,0v-1.5h0V69.52h0V68.35h0V65.5h0v-5h6.73v13.4Zm17,0H25.64V47.35h9.11v5.56h0v1.32h0v2.64h0v1.32h0v2.56h0v1.32h0v2.64h0V66h0v2.6h0V70h0v2.6h0v1.32Zm1.16,0V60.47h6.72v5h0v2.85h0v1.17h0v2.85h0v1.5Zm7.88,0V48h6.74V59.66H43.8v.81h6.73v5h0v2.85h0v1.17h0v2.85h0v1.5Z" style="fill: #57bec5"/>
        </g>
        <g>
          <path d="M86.77,57V82.47h-6V70a4.71,4.71,0,0,0-9.42,0V82.47h-6V57Z" style="fill: #29b5b2"/>
          <rect x="65.26" y="54.85" width="21.51" height="2.15" style="fill: #f7b62d"/>
          <path d="M85,32.31V53.64H80V43.2a3.95,3.95,0,0,0-7.89,0V53.64H67V32.31Z" style="fill: #29b5b2"/>
          <rect x="67.01" y="30.52" width="18" height="1.79" style="fill: #f7b62d"/>
          <polygon points="84.29 29.51 67.74 29.51 76.02 23.38 84.29 29.51" style="fill: #edee97"/>
          <path d="M80.73,70V82.47H71.31V70a4.71,4.71,0,0,1,9.42,0Z" style="fill: #edee97"/>
          <path d="M80,43.2V53.64H72.07V43.2a3.95,3.95,0,0,1,7.89,0Z" style="fill: #edee97"/>
          <polygon points="65.19 29.51 67.74 29.51 84.29 29.51 86.84 29.51 86.84 30.52 85.02 30.52 67.01 30.52 65.19 30.52 65.19 29.51" style="fill: #fac94c"/>
          <polygon points="65.26 54.85 63.08 54.85 63.08 53.64 67.01 53.64 72.07 53.64 79.96 53.64 85.02 53.64 88.95 53.64 88.95 54.85 86.77 54.85 65.26 54.85" style="fill: #fac94c"/>
        </g>
        <g>
          <path d="M100.07,67.26c0,1.22,0,2.44,0,3.66V77c0,.43-.24.69-.61.68a.65.65,0,0,1-.61-.59V77q0-4.78,0-9.57v-.13A2.86,2.86,0,0,0,100.07,67.26Z" style="fill: #57bec5"/>
          <path d="M100.07,67.26a2.86,2.86,0,0,1-1.2,0A2.56,2.56,0,0,1,97,65.55a1.72,1.72,0,0,1-.1-.78h4.8c.1,0,.24-.06.26.13A2.52,2.52,0,0,1,100.07,67.26Z" style="fill: #00a299"/>
          <path d="M96,54.69c.28.41.59.8.89,1.19a6.19,6.19,0,0,1-2.1-.93,6.1,6.1,0,0,1-1.52-1.48,3.23,3.23,0,0,0-.07,1.23A5.13,5.13,0,0,0,93.53,56c0,.13,0,.17-.12.15A2.24,2.24,0,0,1,91.72,55a.73.73,0,0,0,.43,0,3.74,3.74,0,0,1-1-3c.54.71,1,1.51,2,1.72a2.7,2.7,0,0,1,0-2.43c.14.27.27.53.4.77a6.75,6.75,0,0,0,2.32,2.54Z" style="fill: #edee97"/>
          <path d="M92.37,57.8c-1,.2-2.73-1.29-2.72-1.38a9,9,0,0,0,1.36.35,5.53,5.53,0,0,1-.89-3.33c.09,0,.11.06.14.11a4.71,4.71,0,0,0,.93.91C91.28,54.53,91.65,57.28,92.37,57.8Z" style="fill: #edee97"/>
          <path d="M91.8,60.13s-.07.15-.12.11a4.86,4.86,0,0,1-2.55-2.77,12.76,12.76,0,0,1-.56-1.61,1.09,1.09,0,0,1,0-.15,3.56,3.56,0,0,0,1.1.71C89.71,56.44,91.77,60.1,91.8,60.13Z" style="fill: #edee97"/>
          <path d="M103.16,65c-.31,0-.62,0-.92,0H97a18.09,18.09,0,0,1-4.8-.64,4.86,4.86,0,0,1-2.63-1.69A4,4,0,0,1,89,61.44a2.72,2.72,0,0,0,1.2.67,2.56,2.56,0,0,0,1.35-.21c-1.54-.6-2.37-3.35-2.35-3.38.17.19.33.38.5.56a4.19,4.19,0,0,0,1,.82,2.76,2.76,0,0,0,1.06.25s-.15-.17-.18-.2a5.2,5.2,0,0,1-1.94-3.53,9.08,9.08,0,0,1,1.06.82,2.39,2.39,0,0,0,1.66.56,2.75,2.75,0,0,1-1.19-2.09.68.68,0,0,1,0-.18s0-1.06,0-1.07,1.47,1.59,2.23,1.67c.16,0,.16,0,.11-.14a5.19,5.19,0,0,1-.32-1.29,3.23,3.23,0,0,1,.07-1.23,6.25,6.25,0,0,0,3.62,2.41,3.53,3.53,0,0,0,1.06.23,5.41,5.41,0,0,0,1.26.14,3.85,3.85,0,0,0,.27.3,1.8,1.8,0,0,0,2.68-.23c.14-.13.17-.31.28-.45.81-.23,3.22-1,3.65-1.1.16,0,1.24,1.33,1.36,1.47-.16.12-.19.94-.41,1.1a1.08,1.08,0,0,1-.86.07,1.45,1.45,0,0,1-.7-.57,2.21,2.21,0,0,1-1.39,1,1.52,1.52,0,0,1-.92,0,.89.89,0,0,1-.65-.68,1.6,1.6,0,0,1-.91.88,4.92,4.92,0,0,1-1.9.27,4.29,4.29,0,0,1-2.61-1,6.72,6.72,0,0,1-.85-.84,3.32,3.32,0,0,0,.23,1.38,5,5,0,0,0,.77,1.2,11.05,11.05,0,0,1-1.51-.58,6.5,6.5,0,0,1-1.31-.92,2.8,2.8,0,0,0,.4,1.25,5.5,5.5,0,0,0,1.49,1.55,2.92,2.92,0,0,1,.5.4,5.53,5.53,0,0,1-1.73-.11,13.17,13.17,0,0,1-1.63-.62c.75,1.57,2.12,2.08,3.63,2.4a8.69,8.69,0,0,1-3.23.34,7.4,7.4,0,0,0,6.61.23c-.21.63-.73.87-1.2,1.22a5.43,5.43,0,0,0,3.16-.86,2.81,2.81,0,0,1-1.09,1.29,4.52,4.52,0,0,0,2.64-1,1.06,1.06,0,0,1-.21.63C103.6,64.54,103.35,64.73,103.16,65Z" style="fill: #f7b62d"/>
          <path d="M98,56.13a3.92,3.92,0,0,1-1.07-.22c-.3-.39-.61-.78-.88-1.19a26.08,26.08,0,0,1-1.51-2.67,15.05,15.05,0,0,1-.75-1.86.77.77,0,0,1,.06-.63.64.64,0,0,1,.61-.35.61.61,0,0,1,.55.43c.09.27.16.55.23.83,0,.08,0,.18.13.18s.1-.1.11-.19c0-.47.08-1,.13-1.43a.54.54,0,0,1,.57-.47.56.56,0,0,1,.52.47c0,.25,0,.49,0,.74a8.58,8.58,0,0,0,1,4.9c.07.13.16.26.24.38l-.1.22A.83.83,0,0,0,98,56.13Z" style="fill: #00a299"/>
          <path d="M98,56.12a.83.83,0,0,1-.21-.86,2.14,2.14,0,0,1,.1-.22l0,0c.15-.11.22-.18.06-.38a.77.77,0,0,1,.51-1.21c.15,0,.24,0,.2-.25a.75.75,0,0,1,.4-.76.83.83,0,0,1,.91.11c.06.06.11.13.17.2a.8.8,0,0,1,.81-.34.73.73,0,0,1,.62.55,2.24,2.24,0,0,1,.07.73,2.48,2.48,0,0,0-.7-.22,1.81,1.81,0,0,0-1.86,1,1.84,1.84,0,0,0,.12,1.8A4.8,4.8,0,0,1,98,56.12Z" style="fill: #57bec5"/>
          <circle cx="100.74" cy="55.19" r="1.87" style="fill: #fff"/>
          <path d="M108.12,54.25l-2.35.59a.62.62,0,0,0-.32,1.08l1.75,1.56h0a1.15,1.15,0,0,1,.44-.09l.08,0a6.13,6.13,0,0,1,.61-.18h0l.57-2A.73.73,0,0,0,108.12,54.25Z" style="fill: #f7b62d"/>
          <path d="M103.17,65c.19-.24.44-.43.61-.69a1,1,0,0,0,.21-.63,4.52,4.52,0,0,1-2.64,1,2.71,2.71,0,0,0,1.09-1.29,5.42,5.42,0,0,1-3.15.86c.47-.34,1-.58,1.19-1.22a7.4,7.4,0,0,1-6.61-.23,8.56,8.56,0,0,0,3.24-.34c-1.51-.32-2.89-.82-3.63-2.39a14.73,14.73,0,0,0,1.62.61,5.6,5.6,0,0,0,1.74.11,3,3,0,0,0-.51-.4,5.79,5.79,0,0,1-1.49-1.55,2.93,2.93,0,0,1-.4-1.25,6.56,6.56,0,0,0,1.32.92,9.76,9.76,0,0,0,1.5.58,5,5,0,0,1-.76-1.2,3.46,3.46,0,0,1-.24-1.38,7.58,7.58,0,0,0,.85.85,4.34,4.34,0,0,0,2.61,1,5,5,0,0,0,1.91-.27,1.6,1.6,0,0,0,.91-.88.85.85,0,0,0,.64.68,1.56,1.56,0,0,0,.93,0,2.22,2.22,0,0,0,1.39-1,1.38,1.38,0,0,0,.69.57,1.1,1.1,0,0,0,.87-.07,6.4,6.4,0,0,0,1.53-1.08c0,.36,0,.61,0,.92-.55.11-1.08.25-1.62.39l-4.49,1.07a1.09,1.09,0,0,0-.85,1.06c0,.35,0,.7,0,1.06a1.11,1.11,0,0,0,.76,1.1c1.09.42,2.17.85,3.26,1.26.65.24,1.27.53,1.94.71a1.41,1.41,0,0,1-.54,1,3.28,3.28,0,0,1-1,.6l.23-.48a.79.79,0,0,0,0-.77,1.75,1.75,0,0,1-.7.75,5.74,5.74,0,0,1-.86.31L105,65a1.08,1.08,0,0,0,.18-1l-.44.37a3.6,3.6,0,0,1-1.4.62Z" style="fill: #edee97"/>
          <path d="M107.59,63.82a19.78,19.78,0,0,1-2-.71c-1.09-.41-2.17-.83-3.25-1.26a1.09,1.09,0,0,1-.77-1.1c0-.35,0-.71,0-1.06a1.11,1.11,0,0,1,.85-1.06c1.5-.35,3-.7,4.49-1.07.54-.13,1.08-.28,1.62-.38a.37.37,0,0,1,.32.42c0,.23-.17.31-.36.35a3.79,3.79,0,0,0-.68.19,1.13,1.13,0,0,0-.18,0l-2.62.62-2,.49-.71.09c-.12,0-.16.1-.14.22a2.9,2.9,0,0,1,.07.93c0,.2,0,.39-.08.62l.21-.14a.48.48,0,0,0,.22.15l2.83,1.09c.45.17.9.38,1.37.51a2.92,2.92,0,0,0,.71.28c.16.08.31.16.33.36A.39.39,0,0,1,107.59,63.82Z" style="fill: #00a299"/>
          <path d="M108,59.51a1.66,1.66,0,0,1,.69,1.4,1.55,1.55,0,0,1-1,1.4,3.24,3.24,0,0,0-.15-.86,8.69,8.69,0,0,1-.46.86.43.43,0,0,0-.21-.25l-.58-.23c-.14-.06-.31,0-.39,0s-.14-.23-.28-.28a1.59,1.59,0,0,1,.87-2.17,1.69,1.69,0,0,1,1.45.14Zm-1.39.78a.37.37,0,0,0,.35-.37.36.36,0,0,0-.71,0A.36.36,0,0,0,106.64,60.29Zm-.26.12c0-.08-.08-.19-.22-.19a.2.2,0,0,0-.22.23.19.19,0,0,0,.22.2C106.3,60.65,106.36,60.57,106.38,60.41Z" style="fill: #57bec5"/>
          <path d="M107.15,62.31a8.69,8.69,0,0,0,.46-.86,3.24,3.24,0,0,1,.15.86,1.82,1.82,0,0,1-.18.72,2.92,2.92,0,0,1-.71-.28A2.52,2.52,0,0,0,107.15,62.31Z" style="fill: #f5f3f4"/>
          <path d="M107.86,58.14a3.12,3.12,0,0,1,.11.67,1.48,1.48,0,0,1-1.12.25s-.06-.06-.12,0a1.23,1.23,0,0,1-1.15.25c-.07,0-.09,0-.12,0a.4.4,0,0,1-.34.19c-.2,0-.45.16-.61.09s-.34.15-.52.17h0l-.77.13a1.38,1.38,0,0,0-.11-.66l2-.49,2.62-.62A1.13,1.13,0,0,1,107.86,58.14Z" style="fill: #fac94c"/>
          <path d="M107.15,62.31a2.52,2.52,0,0,1-.28.44c-.47-.13-.92-.34-1.37-.51l-2.83-1.09a.48.48,0,0,1-.22-.15,2.7,2.7,0,0,0,.58-.59c.2.11.49.09.55.4,0,0,.07,0,.09,0a.25.25,0,0,1,.22,0l.69.28c.13.05.14.17.2.27a.41.41,0,0,1,.36,0l.55.2c.14,0,.18.21.28.28s.25,0,.39,0l.58.23A.43.43,0,0,1,107.15,62.31Z" style="fill: #fac94c"/>
          <path d="M103,60.41a2.7,2.7,0,0,1-.58.59l-.21.14c0-.23.05-.42.08-.62a2.9,2.9,0,0,0-.07-.93c0-.12,0-.2.14-.22l.71-.09a1.5,1.5,0,0,1,.1.66Z" style="fill: #fff"/>
          <path d="M106.64,60.29a.36.36,0,0,1-.36-.35.36.36,0,0,1,.71,0A.37.37,0,0,1,106.64,60.29Z" style="fill: #f5f3f4"/>
          <path d="M106.38,60.41c0,.16-.08.24-.22.24a.19.19,0,0,1-.22-.2.2.2,0,0,1,.22-.23C106.3,60.22,106.34,60.33,106.38,60.41Z" style="fill: #57bec5"/>
          <path d="M108,59.52l0,0a5.27,5.27,0,0,0,0-.68,3.11,3.11,0,0,0-.11-.68,3.77,3.77,0,0,1,.68-.18c.1.13,0,.29,0,.43A2.58,2.58,0,0,1,108,59.52Z" style="fill: #f5f3f4"/>
          <circle cx="101.16" cy="54.66" r="1.18" style="fill: #fac94c"/>
        </g>
        <g>
          <path d="M51.32,72.39c.08-.41.28-.71.52-.71s.55.47.55,1-.25,1-.55,1-.55-.47-.55-1A1.87,1.87,0,0,1,51.32,72.39Z" style="fill: #edee97"/>
          <path d="M47.94,78.64c1.54-.08,2.21-.39,3.12-.37v-.5a.76.76,0,0,1,.76.76v1a.65.65,0,0,1-.58.72l-.18,0v-.48a24.67,24.67,0,0,1-3.11.36A1.06,1.06,0,0,0,47.94,78.64Z" style="fill: #29b5b2"/>
          <path d="M51.39,85.49a.45.45,0,0,1,.45.45v1.17h0a1.91,1.91,0,0,1-.88.5V85.94A.45.45,0,0,1,51.39,85.49Z" style="fill: #29b5b2"/>
          <path d="M47.29,78.17c2,0,2.74-.42,3.77-.4v.5c-.91,0-1.58.29-3.12.37-.2,0-.42,0-.65,0s-.46,0-.66,0c-1.54-.08-2.21-.39-3.12-.37v-.5C44.54,77.75,45.26,78.15,47.29,78.17Z" style="fill: #edee97"/>
          <path d="M50.51,85.49a.45.45,0,0,1,.44.45v1.67a1.87,1.87,0,0,1-.88,0V85.94A.44.44,0,0,1,50.51,85.49Z" style="fill: #57bec5"/>
          <circle cx="49.69" cy="74.55" r="1.36" style="fill: #edee97"/>
          <path d="M49.62,85.49a.45.45,0,0,1,.45.45v1.67a1.94,1.94,0,0,1-.89-.5V85.87A.46.46,0,0,1,49.62,85.49Z" style="fill: #29b5b2"/>
          <path d="M48.35,77.13a.42.42,0,0,1-.37.64H46.59a.42.42,0,0,1-.37-.64l.7-1.21a.42.42,0,0,1,.37-.21.44.44,0,0,1,.37.21Z" style="fill: #29b5b2"/>
          <path d="M51.32,72.39a2.23,2.23,0,0,0-3.26,0h0a.77.77,0,1,0-1.53,0,2.22,2.22,0,0,0-3.25,0h0c-.07-.41-.28-.71-.52-.71,0-1.38,2-2.5,4.55-2.5h0c2.51,0,4.54,1.12,4.54,2.5-.24,0-.44.3-.52.71Z" style="fill: #fac94c"/>
          <path d="M47.94,78.64a1.06,1.06,0,0,1,0,1.49H46.62a1.07,1.07,0,0,1,0-1.49c.2,0,.42,0,.66,0S47.74,78.66,47.94,78.64Z" style="fill: #57bec5"/>
          <path d="M47.29,71.62a.77.77,0,0,1,.76.77.77.77,0,0,1-1.53,0A.77.77,0,0,1,47.29,71.62Z" style="fill: #fac94c"/>
          <path d="M43.51,79.77a24.88,24.88,0,0,0,3.11.36H48a24.67,24.67,0,0,0,3.11-.36v.48a20.14,20.14,0,0,1-3.77.42,20.25,20.25,0,0,1-3.78-.42Z" style="fill: #edee97"/>
          <path d="M44.89,73.19a1.36,1.36,0,1,1-1.36,1.36A1.36,1.36,0,0,1,44.89,73.19Z" style="fill: #edee97"/>
          <path d="M45,85.49a.46.46,0,0,1,.44.38v1.24a1.91,1.91,0,0,1-.88.5V85.94A.45.45,0,0,1,45,85.49Z" style="fill: #29b5b2"/>
          <path d="M43.63,85.94a.45.45,0,1,1,.89,0v1.67a1.91,1.91,0,0,1-.89,0Z" style="fill: #57bec5"/>
          <path d="M43.51,78.27c.91,0,1.58.29,3.12.37a1.07,1.07,0,0,0,0,1.49,24.88,24.88,0,0,1-3.11-.36v.48l-.18,0a.67.67,0,0,1-.58-.72v-1a.76.76,0,0,1,.76-.76Z" style="fill: #29b5b2"/>
          <path d="M43.29,72.73c0,.58-.24,1-.55,1s-.55-.47-.55-1,.25-1,.55-1,.45.3.52.71A1.87,1.87,0,0,1,43.29,72.73Z" style="fill: #edee97"/>
          <path d="M42.74,85.94a.45.45,0,1,1,.89,0v1.67a1.91,1.91,0,0,1-.88-.5h0Z" style="fill: #29b5b2"/>
          <path d="M43.63,85.94a.45.45,0,1,0-.89,0h0V79.5h0a.67.67,0,0,0,.58.72l.18,0a20.25,20.25,0,0,0,3.78.42,20.14,20.14,0,0,0,3.77-.42l.18,0a.65.65,0,0,0,.58-.72h0v6.44h0a.45.45,0,1,0-.89,0,.45.45,0,0,0-.44-.45.44.44,0,0,0-.44.45.45.45,0,0,0-.45-.45.46.46,0,0,0-.44.38V84.55a1.89,1.89,0,0,0-1.88-1.89h0a1.89,1.89,0,0,0-1.89,1.89v1.32a.46.46,0,0,0-.44-.38.45.45,0,0,0-.44.45.45.45,0,1,0-.89,0Z" style="fill: #f7b62d"/>
          <path d="M46.59,77.77H48a.42.42,0,0,0,.37-.64l-.69-1.21a.44.44,0,0,0-.37-.21.42.42,0,0,0-.37.21l-.7,1.21A.42.42,0,0,0,46.59,77.77Zm-1.7-1.86a1.36,1.36,0,1,0-1.36-1.36A1.36,1.36,0,0,0,44.89,75.91Zm3.17-3.52a2.23,2.23,0,0,1,3.26,0h0a1.87,1.87,0,0,0,0,.34c0,.58.25,1,.55,1V79.5h0v-1a.76.76,0,0,0-.76-.76c-1,0-1.75.38-3.77.4s-2.75-.42-3.78-.4a.76.76,0,0,0-.76.76v1h0V73.78c.31,0,.55-.47.55-1a1.87,1.87,0,0,0,0-.34h0a2.22,2.22,0,0,1,3.25,0,.77.77,0,0,0,1.53,0Zm1.63,3.52a1.36,1.36,0,1,0-1.36-1.36A1.36,1.36,0,0,0,49.69,75.91Z" style="fill: #f7b62d"/>
        </g>
        <g>
          <path d="M64.56,91l.32,2a1,1,0,0,1-.41.36l-.27-1.82A.43.43,0,0,1,64.56,91Z" style="fill: #57bec5"/>
          <path d="M61.8,80.81a1.36,1.36,0,1,0-1.37-1.36A1.36,1.36,0,0,0,61.8,80.81Zm-4.08-3.16a1.36,1.36,0,0,0,2,.17h0a3,3,0,0,1,4.23.42V80.9L63,82.51c-1.91-.09-2.47-.41-3.5-.39a.76.76,0,0,0-.76.76v1a.65.65,0,0,0,.58.72l.18,0a20.14,20.14,0,0,0,3.77.42c.5,0,.9,0,.92,0h0c.33.15.49.67-.46.67L64.56,91a.43.43,0,0,0-.36.5.45.45,0,1,0-.88.14l.29,1.92a1.58,1.58,0,0,1-1.16-.25l-.34-2.14h0c-.23-1.28-1.38-1.19-2.25-.41h0l-3.32,2.75a3.09,3.09,0,0,1-2.81-3.32L55,89.07,56.32,88l1.4-1.16Z" style="fill: #f7b62d"/>
          <path d="M63.69,91.08a.45.45,0,0,1,.51.37l.27,1.82a2.54,2.54,0,0,1-.86.24l-.29-1.92A.45.45,0,0,1,63.69,91.08Z" style="fill: #29b5b2"/>
          <path d="M64.17,82.49a6.76,6.76,0,0,1-1.19,0l.93-1.61.49.78c.5.8.17.77-.06.8Z" style="fill: #29b5b2"/>
          <path d="M63,82.51a6.76,6.76,0,0,0,1.19,0h0V83s-.47,0-1,0h-.28a11.16,11.16,0,0,1-1.32-.1,13.45,13.45,0,0,0-2.05-.28v-.49C60.51,82.1,61.07,82.42,63,82.51Z" style="fill: #edee97"/>
          <path d="M62.84,84.49h1.33V85h0s-.42,0-.92,0a20.14,20.14,0,0,1-3.77-.42v-.48c.64.12,1.36.22,2.07.28C62,84.45,62.43,84.47,62.84,84.49Z" style="fill: #edee97"/>
          <circle cx="61.8" cy="79.45" r="1.36" style="fill: #edee97"/>
          <path d="M62.85,83a1.06,1.06,0,0,1,0,1.5c-.41,0-.85,0-1.29-.09h0a1.06,1.06,0,0,1,0-1.5h0A11.16,11.16,0,0,0,62.85,83Z" style="fill: #57bec5"/>
          <path d="M59.68,77.82a1.33,1.33,0,0,0,.47-1,1.37,1.37,0,0,0-1-1.3c2.93-.23,4.16.18,4.72,1.21a.77.77,0,1,1,0,1.53A3,3,0,0,0,59.68,77.82Z" style="fill: #fac94c"/>
          <path d="M59.19,75.5a1.37,1.37,0,0,1,1,1.3,1.33,1.33,0,0,1-.47,1h0a1.36,1.36,0,0,1-2-.17,1.33,1.33,0,0,1-.3-.85,1.36,1.36,0,0,1,1.36-1.36A1.4,1.4,0,0,1,59.19,75.5Z" style="fill: #edee97"/>
          <path d="M56.32,88,55,89.07v0c-1.13,0-2-1.49-2-3.33,0,.42.68.75,1.53.75A1.76,1.76,0,0,1,56.32,88Z" style="fill: #fac94c"/>
        </g>
      </g>
    </g>
  </g>
</svg>
