<svg xmlns="http://www.w3.org/2000/svg" width="97.73" height="123.39" viewBox="0 0 97.73 123.39">
  <g id="Layer_2" data-name="Layer 2">
    <g id="Icon">
      <g>
        <g>
          <path d="M71,9.93A8,8,0,0,0,67.42,7L68.5,5.9a8.58,8.58,0,0,1,3.69,2.8Zm1.25,2.14a19.79,19.79,0,0,1-3.06,7.46l-1.58-.69a17.21,17.21,0,0,0,3.2-7.25Zm-.64-6.8a7.68,7.68,0,0,0-3.65-2.76L69,1.3a9.23,9.23,0,0,1,3.89,2.85ZM78.71,19.9l0-7.51a12.42,12.42,0,0,1-5.85,6.11l-1-1.3a11.17,11.17,0,0,0,5.2-5.13H72.92l0-1.58,5.74,0V8.85h1.6v1.62H86v1.6H81.81a10.38,10.38,0,0,0,5.33,5.15l-1,1.25a12.06,12.06,0,0,1-5.74-5.82l-.05,7.27ZM72.58,8.64c2.85-.52,4.42-1.86,4.64-5l1.51.24c-.33,3.09-1.06,4.62-5.2,6.21Zm13-7.08V6.09L84,6.07V3.13l-9.06,0,0,3.11-1.62,0V1.54Zm.52,7.49H82.2a1.69,1.69,0,0,1-1.79-1.84l0-3.56c.54,0,.95,0,1.55,0V7c0,.41.28.54.63.54l3.52,0Z" style="fill: #fff"/>
          <path d="M75.49,29.08c-.88,7-4.38,9.71-7,11.59l-1.23-1.21c2.35-1.42,5.87-4.57,6.26-8.78H68.61v-1.6ZM85.61,40.43C81.75,38.77,78.86,34.5,78,32l0,9.49a1.67,1.67,0,0,1-1.73,1.81H73.72a16.54,16.54,0,0,0-.56-1.74,18,18,0,0,0,2.57.08.54.54,0,0,0,.56-.6l0-16.94h1.66v4A29.27,29.27,0,0,0,79.68,32a12.76,12.76,0,0,0,4-3.91l1.51.82a17.05,17.05,0,0,1-4.69,4.45,13.49,13.49,0,0,0,6.35,5.54Z" style="fill: #fff"/>
          <path d="M68.18,62.62l-.85-1.53c1.21-.39,2.23-.62,3.07-1V53.78H67.83V52.2H70.4V47.78H72V52.2h2.22v1.58H72v5.65l2.5-1,0,1.66ZM80.6,64.74a17.84,17.84,0,0,1-7.48,1.92L71.93,65c3.58.07,6.75-.56,9.23-2.52A12.82,12.82,0,0,0,84.75,57l1.33.78A11.74,11.74,0,0,1,80.6,64.74ZM74.35,63.4c-.5-.32-.91-.56-1.47-1a10.73,10.73,0,0,0,3.8-5.93l1.46.75A14.49,14.49,0,0,1,74.35,63.4Zm6.88-7.46,0,5.17a1.26,1.26,0,0,1-1.36,1.36H77.67l-.32-1.66,1.51.28c.43,0,.75,0,.75-.77V55.94H73.76v-1.6h2.29V49.66h1.66v4.68h1.9v-7l1.62,0V50h4.44v1.58H81.25v2.76h5.39v1.6Z" style="fill: #fff"/>
          <path d="M86.43,89.5H71.15c-1.14,0-1.66-1-1.66-2V73.81l-1.36,0V72.2l18.19,0v1.59H71.13l0,13.25c0,.61.22.84.89.84H86.43Zm-8.29-3H72v-6l6.1,0Zm-4.48-4.4v2.83l2.84,0,0-2.87Zm9.86-2.72-9.71,0,0-4.81h9.69Zm-8.07-1.47h6.43V76H75.45Zm10,2.61v5.92H79.24V80.52ZM83.8,82.08l-2.92,0v2.76l2.9,0Z" style="fill: #fff"/>
        </g>
        <g>
          <path d="M72.28,8.63a8,8,0,0,0-3.56-2.89L69.8,4.6a8.58,8.58,0,0,1,3.69,2.8Zm1.25,2.14a19.79,19.79,0,0,1-3.06,7.46l-1.58-.69a17.21,17.21,0,0,0,3.2-7.25ZM72.89,4a7.68,7.68,0,0,0-3.65-2.76l1-1.21a9.23,9.23,0,0,1,3.89,2.85ZM80,18.6l0-7.51a12.42,12.42,0,0,1-5.85,6.11l-1-1.3a11.17,11.17,0,0,0,5.2-5.13H74.22l0-1.58,5.74,0V7.55h1.6V9.17h5.7v1.6H83.11a10.38,10.38,0,0,0,5.33,5.15l-1,1.25a12.06,12.06,0,0,1-5.74-5.82l0,7.27ZM73.88,7.34c2.85-.52,4.42-1.86,4.64-5L80,2.61C79.7,5.7,79,7.23,74.83,8.82Zm13-7.08V4.79l-1.64,0V1.83l-9.06,0,0,3.11-1.62,0V.24Zm.52,7.49H83.5a1.69,1.69,0,0,1-1.79-1.84l0-3.56c.54,0,1,0,1.55,0V5.67c0,.41.28.54.63.54l3.52,0Z" style="fill: #65181a"/>
          <path d="M76.79,27.78c-.88,7-4.38,9.71-7,11.59l-1.23-1.21c2.35-1.42,5.87-4.58,6.26-8.78H69.91v-1.6ZM86.91,39.13c-3.86-1.66-6.75-5.93-7.64-8.39l0,9.49A1.67,1.67,0,0,1,77.5,42H75a16.54,16.54,0,0,0-.56-1.74,19.61,19.61,0,0,0,2.57.08.54.54,0,0,0,.56-.6l0-16.94h1.66v4A29.27,29.27,0,0,0,81,30.74a12.76,12.76,0,0,0,4-3.91l1.51.82a17.05,17.05,0,0,1-4.69,4.45,13.49,13.49,0,0,0,6.35,5.54Z" style="fill: #65181a"/>
          <path d="M69.48,61.32l-.85-1.53c1.21-.39,2.23-.62,3.07-1V52.48H69.13V50.9H71.7V46.48h1.62V50.9h2.22v1.58H73.32v5.65l2.5-1,0,1.66ZM81.9,63.44a17.84,17.84,0,0,1-7.48,1.92l-1.19-1.62c3.58.07,6.75-.56,9.23-2.52a12.82,12.82,0,0,0,3.59-5.55l1.33.78A11.74,11.74,0,0,1,81.9,63.44ZM75.65,62.1c-.5-.32-.91-.56-1.47-1A10.73,10.73,0,0,0,78,55.2l1.46.75A14.49,14.49,0,0,1,75.65,62.1Zm6.88-7.46,0,5.17a1.26,1.26,0,0,1-1.36,1.36H79l-.32-1.66,1.51.28c.43,0,.75.05.75-.77V54.64H75.06V53h2.29V48.36H79V53h1.9V46l1.62,0v2.7H87v1.58H82.55V53h5.39v1.6Z" style="fill: #65181a"/>
          <path d="M87.73,88.2H72.45c-1.14,0-1.66-1-1.66-2V72.51l-1.36,0V70.9l18.19,0v1.59H72.43l0,13.25c0,.61.22.84.89.84H87.73Zm-8.29-3h-6.1v-6l6.1,0ZM75,80.8v2.83l2.84,0,0-2.87Zm9.86-2.72-9.71,0,0-4.81h9.69Zm-8.07-1.47h6.43V74.74H76.75Zm10,2.61v5.92H80.54V79.22ZM85.1,80.78l-2.92,0v2.76l2.9,0Z" style="fill: #65181a"/>
        </g>
        <g style="isolation: isolate">
          <polygon points="52.63 121.56 0 102.4 45.09 82.64 97.71 101.79 52.63 121.56" style="fill: #a780d6"/>
          <polygon points="52.65 123.39 52.63 121.56 97.71 101.79 97.73 103.62 52.65 123.39" style="fill: #775b99"/>
          <polygon points="0.02 104.23 0 102.4 52.63 121.56 52.65 123.39 0.02 104.23" style="fill: #5b3c80"/>
        </g>
        <g>
          <rect x="4.9" y="81.62" width="8.09" height="19.5" style="fill: #f69463"/>
          <rect x="42.69" y="81.62" width="8.09" height="19.5" transform="translate(93.47 182.75) rotate(-180)" style="fill: #f69463"/>
          <g>
            <polygon points="28.17 94.6 35.15 94.6 35.15 95.9 28.17 95.9 21.87 101.13 21.87 99.01 22.78 99.01 28.17 94.6" style="fill: #706672"/>
            <polygon points="42.57 72.66 32 72.66 28 75.92 38.57 75.92 42.57 72.66" style="fill: #fff"/>
            <polygon points="36.99 68.51 20.04 68.51 5.7 80.39 22.65 80.39 36.99 68.51" style="fill: #fff"/>
            <polygon points="28.17 75.75 22.65 80.32 22.65 81.63 28.17 77.06 28.17 75.75" style="fill: #f69463"/>
            <polygon points="28.17 94.11 22.65 98.68 22.65 81.63 28.17 77.06 28.17 94.11" style="fill: #b4cab7"/>
            <polygon points="28.17 80.76 22.65 85.33 22.65 84.24 28.17 79.68 28.17 80.76" style="fill: #fff"/>
            <polygon points="28.17 84.1 22.65 88.66 22.65 87.58 28.17 83.01 28.17 84.1" style="fill: #fff"/>
            <polygon points="28.17 87.6 22.65 92.17 22.65 91.09 28.17 86.52 28.17 87.6" style="fill: #fff"/>
            <polygon points="28.17 91.11 22.65 95.68 22.65 94.59 28.17 90.03 28.17 91.11" style="fill: #fff"/>
            <polygon points="28.17 94.45 22.65 99.01 22.65 97.93 28.17 93.36 28.17 94.45" style="fill: #fff"/>
            <g>
              <line x1="24.05" y1="76.85" x2="24.05" y2="79.24" style="fill: none;stroke: #706672;stroke-miterlimit: 10;stroke-width: 0.164276043952647px"/>
              <line x1="25.36" y1="75.7" x2="25.36" y2="78.13" style="fill: none;stroke: #706672;stroke-miterlimit: 10;stroke-width: 0.164276043952647px"/>
              <line x1="26.68" y1="74.55" x2="26.68" y2="77.01" style="fill: none;stroke: #706672;stroke-miterlimit: 10;stroke-width: 0.164276043952647px"/>
              <line x1="28" y1="73.4" x2="28" y2="75.89" style="fill: none;stroke: #706672;stroke-miterlimit: 10;stroke-width: 0.164276043952647px"/>
            </g>
            <polyline points="28.17 73.17 22.65 77.92 22.65 80.32" style="fill: none;stroke: #706672;stroke-miterlimit: 10;stroke-width: 0.164276043952647px"/>
            <g>
              <g>
                <line x1="32.39" y1="69.76" x2="32.39" y2="72.25" style="fill: none;stroke: #706672;stroke-miterlimit: 10;stroke-width: 0.167262574893844px"/>
                <line x1="33.75" y1="68.64" x2="33.75" y2="71.16" style="fill: none;stroke: #706672;stroke-miterlimit: 10;stroke-width: 0.167262574893844px"/>
                <line x1="35.12" y1="67.52" x2="35.12" y2="70.07" style="fill: none;stroke: #706672;stroke-miterlimit: 10;stroke-width: 0.167262574893844px"/>
                <line x1="36.48" y1="66.39" x2="36.48" y2="68.97" style="fill: none;stroke: #706672;stroke-miterlimit: 10;stroke-width: 0.167262574893844px"/>
              </g>
              <polyline points="37.01 68.55 37.01 66.06 31.86 70.19 31.86 72.67" style="fill: none;stroke: #706672;stroke-miterlimit: 10;stroke-width: 0.167262574893844px"/>
            </g>
            <g>
              <g>
                <line x1="43.18" y1="69.58" x2="43.18" y2="72.25" style="fill: none;stroke: #706672;stroke-miterlimit: 10;stroke-width: 0.160927385792522px"/>
                <line x1="44.61" y1="68.4" x2="44.6" y2="71.04" style="fill: none;stroke: #706672;stroke-miterlimit: 10;stroke-width: 0.160927385792522px"/>
                <line x1="46.03" y1="67.22" x2="46.03" y2="69.83" style="fill: none;stroke: #706672;stroke-miterlimit: 10;stroke-width: 0.160927385792522px"/>
                <line x1="47.46" y1="66.04" x2="47.46" y2="68.62" style="fill: none;stroke: #706672;stroke-miterlimit: 10;stroke-width: 0.160927385792522px"/>
              </g>
              <polyline points="47.46 66.06 42.69 70 42.69 72.67" style="fill: none;stroke: #706672;stroke-miterlimit: 10;stroke-width: 0.160927385792522px"/>
            </g>
            <g>
              <g>
                <polygon points="24.18 82.63 23.91 82.85 23.91 80.97 24.18 80.75 24.18 82.63" style="fill: #706672"/>
                <polygon points="24.72 82.18 24.45 82.4 24.45 80.52 24.72 80.3 24.72 82.18" style="fill: #706672"/>
                <polygon points="25.26 81.73 25 81.95 25 80.08 25.26 79.85 25.26 81.73" style="fill: #706672"/>
                <polygon points="25.81 81.28 25.54 81.5 25.54 79.63 25.81 79.41 25.81 81.28" style="fill: #706672"/>
                <polygon points="26.35 80.83 26.08 81.06 26.08 79.18 26.35 78.96 26.35 80.83" style="fill: #706672"/>
                <polygon points="26.89 80.39 26.62 80.61 26.62 78.73 26.89 78.51 26.89 80.39" style="fill: #706672"/>
                <polygon points="27.43 79.94 27.17 80.16 27.17 78.28 27.43 78.06 27.43 79.94" style="fill: #706672"/>
                <polygon points="27.98 79.49 27.71 79.71 27.71 77.83 27.98 77.61 27.98 79.49" style="fill: #706672"/>
              </g>
              <polygon points="23.79 82.95 22.82 83.76 22.82 81.88 23.79 81.07 23.79 82.95" style="fill: #f69463"/>
            </g>
            <g>
              <g>
                <polygon points="24.18 86.13 23.91 86.35 23.91 84.47 24.18 84.25 24.18 86.13" style="fill: #706672"/>
                <polygon points="24.72 85.68 24.45 85.9 24.45 84.02 24.72 83.8 24.72 85.68" style="fill: #706672"/>
                <polygon points="25.26 85.23 25 85.45 25 83.57 25.26 83.35 25.26 85.23" style="fill: #706672"/>
                <polygon points="25.81 84.78 25.54 85 25.54 83.13 25.81 82.9 25.81 84.78" style="fill: #706672"/>
                <polygon points="26.35 84.33 26.08 84.56 26.08 82.68 26.35 82.45 26.35 84.33" style="fill: #706672"/>
                <polygon points="26.89 83.89 26.62 84.11 26.62 82.23 26.89 82.01 26.89 83.89" style="fill: #706672"/>
                <polygon points="27.43 83.44 27.17 83.66 27.17 81.78 27.43 81.56 27.43 83.44" style="fill: #706672"/>
                <polygon points="27.98 82.99 27.71 83.21 27.71 81.33 27.98 81.11 27.98 82.99" style="fill: #706672"/>
              </g>
              <polygon points="23.79 86.45 22.82 87.25 22.82 85.38 23.79 84.57 23.79 86.45" style="fill: #f69463"/>
            </g>
            <g>
              <g>
                <polygon points="24.18 89.55 23.91 89.77 23.91 87.89 24.18 87.67 24.18 89.55" style="fill: #706672"/>
                <polygon points="24.72 89.1 24.45 89.32 24.45 87.44 24.72 87.22 24.72 89.1" style="fill: #706672"/>
                <polygon points="25.26 88.65 25 88.87 25 86.99 25.26 86.77 25.26 88.65" style="fill: #706672"/>
                <polygon points="25.81 88.2 25.54 88.42 25.54 86.55 25.81 86.33 25.81 88.2" style="fill: #706672"/>
                <polygon points="26.35 87.75 26.08 87.98 26.08 86.1 26.35 85.88 26.35 87.75" style="fill: #706672"/>
                <polygon points="26.89 87.31 26.62 87.53 26.62 85.65 26.89 85.43 26.89 87.31" style="fill: #706672"/>
                <polygon points="27.43 86.86 27.17 87.08 27.17 85.2 27.43 84.98 27.43 86.86" style="fill: #706672"/>
                <polygon points="27.98 86.41 27.71 86.63 27.71 84.75 27.98 84.53 27.98 86.41" style="fill: #706672"/>
              </g>
              <polygon points="23.79 89.87 22.82 90.68 22.82 88.8 23.79 87.99 23.79 89.87" style="fill: #f69463"/>
            </g>
            <g>
              <g>
                <polygon points="24.18 93.06 23.91 93.28 23.91 91.4 24.18 91.18 24.18 93.06" style="fill: #706672"/>
                <polygon points="24.72 92.61 24.45 92.83 24.45 90.95 24.72 90.73 24.72 92.61" style="fill: #706672"/>
                <polygon points="25.26 92.16 25 92.38 25 90.5 25.26 90.28 25.26 92.16" style="fill: #706672"/>
                <polygon points="25.81 91.71 25.54 91.93 25.54 90.05 25.81 89.83 25.81 91.71" style="fill: #706672"/>
                <polygon points="26.35 91.26 26.08 91.48 26.08 89.61 26.35 89.38 26.35 91.26" style="fill: #706672"/>
                <polygon points="26.89 90.81 26.62 91.03 26.62 89.16 26.89 88.94 26.89 90.81" style="fill: #706672"/>
                <polygon points="27.43 90.37 27.17 90.59 27.17 88.71 27.43 88.49 27.43 90.37" style="fill: #706672"/>
                <polygon points="27.98 89.92 27.71 90.14 27.71 88.26 27.98 88.04 27.98 89.92" style="fill: #706672"/>
              </g>
              <polygon points="23.79 93.38 22.82 94.18 22.82 92.31 23.79 91.5 23.79 93.38" style="fill: #f69463"/>
            </g>
            <g>
              <g>
                <polygon points="24.18 96.48 23.91 96.7 23.91 94.82 24.18 94.6 24.18 96.48" style="fill: #706672"/>
                <polygon points="24.72 96.03 24.45 96.25 24.45 94.37 24.72 94.15 24.72 96.03" style="fill: #706672"/>
                <polygon points="25.26 95.58 25 95.8 25 93.92 25.26 93.7 25.26 95.58" style="fill: #706672"/>
                <polygon points="25.81 95.13 25.54 95.35 25.54 93.47 25.81 93.25 25.81 95.13" style="fill: #706672"/>
                <polygon points="26.35 94.69 26.08 94.91 26.08 93.03 26.35 92.81 26.35 94.69" style="fill: #706672"/>
                <polygon points="26.89 94.24 26.62 94.46 26.62 92.58 26.89 92.36 26.89 94.24" style="fill: #706672"/>
                <polygon points="27.43 93.79 27.17 94.01 27.17 92.13 27.43 91.91 27.43 93.79" style="fill: #706672"/>
                <polygon points="27.98 93.34 27.71 93.56 27.71 91.68 27.98 91.46 27.98 93.34" style="fill: #706672"/>
              </g>
              <polygon points="23.79 96.8 22.82 97.61 22.82 95.73 23.79 94.92 23.79 96.8" style="fill: #f69463"/>
            </g>
            <rect x="28.17" y="75.83" width="10.54" height="1.4" style="fill: #f69463"/>
            <rect x="28.17" y="77.23" width="10.54" height="17.05" style="fill: #b4cab7"/>
            <rect x="28.17" y="79.85" width="10.54" height="1.08" style="fill: #e5d0a1"/>
            <rect x="28.17" y="83.18" width="10.54" height="1.08" style="fill: #e5d0a1"/>
            <rect x="28.17" y="86.69" width="10.54" height="1.08" style="fill: #e5d0a1"/>
            <rect x="28.17" y="90.2" width="10.54" height="1.08" style="fill: #e5d0a1"/>
            <rect x="28.17" y="93.53" width="10.54" height="1.08" style="fill: #e5d0a1"/>
            <g>
              <g>
                <line x1="29.63" y1="73.22" x2="29.63" y2="75.92" style="fill: none;stroke: #706672;stroke-miterlimit: 10;stroke-width: 0.164276043952647px"/>
                <line x1="32.17" y1="73.22" x2="32.17" y2="75.92" style="fill: none;stroke: #706672;stroke-miterlimit: 10;stroke-width: 0.164276043952647px"/>
                <line x1="34.71" y1="73.22" x2="34.71" y2="75.92" style="fill: none;stroke: #706672;stroke-miterlimit: 10;stroke-width: 0.164276043952647px"/>
                <line x1="37.24" y1="73.22" x2="37.24" y2="75.92" style="fill: none;stroke: #706672;stroke-miterlimit: 10;stroke-width: 0.164276043952647px"/>
              </g>
              <polyline points="38.89 75.92 38.89 73.22 28.17 73.22" style="fill: none;stroke: #706672;stroke-miterlimit: 10;stroke-width: 0.164276043952647px"/>
            </g>
            <g>
              <rect x="28.76" y="77.62" width="1.02" height="1.88" style="fill: #706672"/>
              <rect x="30.85" y="77.62" width="1.02" height="1.88" style="fill: #706672"/>
              <rect x="32.93" y="77.62" width="1.02" height="1.88" style="fill: #706672"/>
              <rect x="35.01" y="77.62" width="1.02" height="1.88" style="fill: #706672"/>
              <rect x="37.1" y="77.62" width="1.02" height="1.88" style="fill: #706672"/>
            </g>
            <g>
              <rect x="28.76" y="81.12" width="1.02" height="1.88" style="fill: #706672"/>
              <rect x="30.85" y="81.12" width="1.02" height="1.88" style="fill: #706672"/>
              <rect x="32.93" y="81.12" width="1.02" height="1.88" style="fill: #706672"/>
              <rect x="35.01" y="81.12" width="1.02" height="1.88" style="fill: #706672"/>
              <rect x="37.1" y="81.12" width="1.02" height="1.88" style="fill: #706672"/>
            </g>
            <g>
              <rect x="28.76" y="84.54" width="1.02" height="1.88" style="fill: #706672"/>
              <rect x="30.85" y="84.54" width="1.02" height="1.88" style="fill: #706672"/>
              <rect x="32.93" y="84.54" width="1.02" height="1.88" style="fill: #706672"/>
              <rect x="35.01" y="84.54" width="1.02" height="1.88" style="fill: #706672"/>
              <rect x="37.1" y="84.54" width="1.02" height="1.88" style="fill: #706672"/>
            </g>
            <g>
              <rect x="28.76" y="88.04" width="1.02" height="1.88" style="fill: #706672"/>
              <rect x="30.85" y="88.04" width="1.02" height="1.88" style="fill: #706672"/>
              <rect x="32.93" y="88.04" width="1.02" height="1.88" style="fill: #706672"/>
              <rect x="35.01" y="88.04" width="1.02" height="1.88" style="fill: #706672"/>
              <rect x="37.1" y="88.04" width="1.02" height="1.88" style="fill: #706672"/>
            </g>
            <g>
              <rect x="28.76" y="91.55" width="1.02" height="1.88" style="fill: #706672"/>
              <rect x="30.85" y="91.55" width="1.02" height="1.88" style="fill: #706672"/>
              <rect x="32.93" y="91.55" width="1.02" height="1.88" style="fill: #706672"/>
              <rect x="35.01" y="91.55" width="1.02" height="1.88" style="fill: #706672"/>
              <rect x="37.1" y="91.55" width="1.02" height="1.88" style="fill: #706672"/>
            </g>
            <g>
              <rect x="30.55" y="77.23" width="0.55" height="17.39" style="fill: #f69463"/>
              <rect x="33.17" y="77.23" width="0.55" height="17.39" style="fill: #f69463"/>
              <rect x="35.78" y="77.23" width="0.55" height="17.39" style="fill: #f69463"/>
            </g>
            <g>
              <polygon points="64.5 90.17 50.77 101.13 50.77 82.54 64.5 71.58 64.5 90.17" style="fill: #e5d0a1"/>
              <g>
                <polygon points="52.6 83.55 50.97 84.86 50.97 82.81 52.6 81.5 52.6 83.55" style="fill: #706672"/>
                <polygon points="54.54 82.01 52.9 83.32 52.9 81.27 54.54 79.96 54.54 82.01" style="fill: #706672"/>
                <polygon points="56.47 80.46 54.83 81.77 54.83 79.73 56.47 78.42 56.47 80.46" style="fill: #706672"/>
                <polygon points="58.4 78.92 56.76 80.23 56.76 78.18 58.4 76.87 58.4 78.92" style="fill: #706672"/>
                <polygon points="60.34 77.38 58.7 78.69 58.7 76.64 60.34 75.33 60.34 77.38" style="fill: #706672"/>
                <polygon points="62.27 75.83 60.63 77.14 60.63 75.1 62.27 73.79 62.27 75.83" style="fill: #706672"/>
                <polygon points="64.2 74.29 62.56 75.6 62.56 73.55 64.2 72.25 64.2 74.29" style="fill: #706672"/>
              </g>
              <g>
                <polygon points="52.6 86.28 50.97 87.59 50.97 85.54 52.6 84.23 52.6 86.28" style="fill: #706672"/>
                <polygon points="54.54 84.74 52.9 86.05 52.9 84 54.54 82.69 54.54 84.74" style="fill: #706672"/>
                <polygon points="56.47 83.19 54.83 84.5 54.83 82.46 56.47 81.15 56.47 83.19" style="fill: #706672"/>
                <polygon points="58.4 81.65 56.76 82.96 56.76 80.92 58.4 79.61 58.4 81.65" style="fill: #706672"/>
                <polygon points="60.34 80.11 58.7 81.42 58.7 79.37 60.34 78.06 60.34 80.11" style="fill: #706672"/>
                <polygon points="62.27 78.57 60.63 79.88 60.63 77.83 62.27 76.52 62.27 78.57" style="fill: #706672"/>
                <polygon points="64.2 77.02 62.56 78.33 62.56 76.29 64.2 74.98 64.2 77.02" style="fill: #706672"/>
              </g>
              <g>
                <polygon points="52.66 88.97 51.02 90.28 51.02 88.23 52.66 86.92 52.66 88.97" style="fill: #706672"/>
                <polygon points="54.59 87.43 52.95 88.74 52.95 86.69 54.59 85.38 54.59 87.43" style="fill: #706672"/>
                <polygon points="56.52 85.89 54.88 87.2 54.88 85.15 56.52 83.84 56.52 85.89" style="fill: #706672"/>
                <polygon points="58.45 84.34 56.81 85.65 56.81 83.61 58.45 82.3 58.45 84.34" style="fill: #706672"/>
                <polygon points="60.39 82.8 58.75 84.11 58.75 82.06 60.39 80.75 60.39 82.8" style="fill: #706672"/>
                <polygon points="62.32 81.26 60.68 82.57 60.68 80.52 62.32 79.21 62.32 81.26" style="fill: #706672"/>
                <polygon points="64.25 79.71 62.61 81.02 62.61 78.98 64.25 77.67 64.25 79.71" style="fill: #706672"/>
              </g>
              <g>
                <polygon points="52.66 91.7 51.02 93.01 51.02 90.97 52.66 89.66 52.66 91.7" style="fill: #706672"/>
                <polygon points="54.59 90.16 52.95 91.47 52.95 89.42 54.59 88.11 54.59 90.16" style="fill: #706672"/>
                <polygon points="56.52 88.62 54.88 89.93 54.88 87.88 56.52 86.57 56.52 88.62" style="fill: #706672"/>
                <polygon points="58.45 87.08 56.81 88.38 56.81 86.34 58.45 85.03 58.45 87.08" style="fill: #706672"/>
                <polygon points="60.39 85.53 58.75 86.84 58.75 84.79 60.39 83.48 60.39 85.53" style="fill: #706672"/>
                <polygon points="62.32 83.99 60.68 85.3 60.68 83.25 62.32 81.94 62.32 83.99" style="fill: #706672"/>
                <polygon points="64.25 82.45 62.61 83.75 62.61 81.71 64.25 80.4 64.25 82.45" style="fill: #706672"/>
              </g>
              <g>
                <polygon points="52.66 94.44 51.02 95.74 51.02 93.7 52.66 92.39 52.66 94.44" style="fill: #706672"/>
                <polygon points="54.59 92.89 52.95 94.2 52.95 92.15 54.59 90.84 54.59 92.89" style="fill: #706672"/>
                <polygon points="56.52 91.35 54.88 92.66 54.88 90.61 56.52 89.3 56.52 91.35" style="fill: #706672"/>
                <polygon points="58.45 89.81 56.81 91.12 56.81 89.07 58.45 87.76 58.45 89.81" style="fill: #706672"/>
                <polygon points="60.39 88.26 58.75 89.57 58.75 87.53 60.39 86.22 60.39 88.26" style="fill: #706672"/>
                <polygon points="62.32 86.72 60.68 88.03 60.68 85.98 62.32 84.67 62.32 86.72" style="fill: #706672"/>
                <polygon points="64.25 85.18 62.61 86.49 62.61 84.44 64.25 83.13 64.25 85.18" style="fill: #706672"/>
              </g>
              <polygon points="57.41 95.83 51.02 100.93 51.02 96.94 57.41 91.83 57.41 95.83" style="fill: #706672"/>
              <polygon points="59.92 93.83 57.81 95.51 57.81 91.51 59.92 89.83 59.92 93.83" style="fill: #d14d65"/>
              <polygon points="62.24 91.97 60.13 93.65 60.13 89.66 62.24 87.98 62.24 91.97" style="fill: #d14d65"/>
            </g>
            <g>
              <line x1="7.49" y1="77.92" x2="7.49" y2="80.32" style="fill: none;stroke: #706672;stroke-miterlimit: 10;stroke-width: 0.164276043952647px"/>
              <line x1="9.92" y1="77.92" x2="9.92" y2="80.32" style="fill: none;stroke: #706672;stroke-miterlimit: 10;stroke-width: 0.164276043952647px"/>
              <line x1="12.34" y1="77.92" x2="12.34" y2="80.32" style="fill: none;stroke: #706672;stroke-miterlimit: 10;stroke-width: 0.164276043952647px"/>
              <line x1="14.77" y1="77.92" x2="14.77" y2="80.32" style="fill: none;stroke: #706672;stroke-miterlimit: 10;stroke-width: 0.164276043952647px"/>
              <line x1="17.2" y1="77.92" x2="17.2" y2="80.32" style="fill: none;stroke: #706672;stroke-miterlimit: 10;stroke-width: 0.164276043952647px"/>
              <line x1="19.63" y1="77.92" x2="19.63" y2="80.32" style="fill: none;stroke: #706672;stroke-miterlimit: 10;stroke-width: 0.164276043952647px"/>
            </g>
            <rect x="5.7" y="80.32" width="16.95" height="1.31" style="fill: #e5d0a1"/>
            <polyline points="22.65 80.32 22.65 77.92 5.6 77.92 5.6 80.32" style="fill: none;stroke: #706672;stroke-miterlimit: 10;stroke-width: 0.164276043952647px"/>
            <g>
              <g>
                <line x1="21.84" y1="66.14" x2="21.84" y2="68.54" style="fill: none;stroke: #706672;stroke-miterlimit: 10;stroke-width: 0.164276043952647px"/>
                <line x1="24.27" y1="66.14" x2="24.27" y2="68.54" style="fill: none;stroke: #706672;stroke-miterlimit: 10;stroke-width: 0.164276043952647px"/>
                <line x1="26.7" y1="66.14" x2="26.7" y2="68.54" style="fill: none;stroke: #706672;stroke-miterlimit: 10;stroke-width: 0.164276043952647px"/>
                <line x1="29.13" y1="66.14" x2="29.13" y2="68.54" style="fill: none;stroke: #706672;stroke-miterlimit: 10;stroke-width: 0.164276043952647px"/>
                <line x1="31.56" y1="66.14" x2="31.56" y2="68.54" style="fill: none;stroke: #706672;stroke-miterlimit: 10;stroke-width: 0.164276043952647px"/>
                <line x1="33.98" y1="66.14" x2="33.98" y2="68.54" style="fill: none;stroke: #706672;stroke-miterlimit: 10;stroke-width: 0.164276043952647px"/>
              </g>
              <polyline points="37.01 68.54 37.01 66.14 19.96 66.14" style="fill: none;stroke: #706672;stroke-miterlimit: 10;stroke-width: 0.164276043952647px"/>
            </g>
            <g>
              <g>
                <line x1="49.34" y1="66.14" x2="49.34" y2="68.54" style="fill: none;stroke: #706672;stroke-miterlimit: 10;stroke-width: 0.164276043952647px"/>
                <line x1="51.77" y1="66.14" x2="51.77" y2="68.54" style="fill: none;stroke: #706672;stroke-miterlimit: 10;stroke-width: 0.164276043952647px"/>
                <line x1="54.2" y1="66.14" x2="54.2" y2="68.54" style="fill: none;stroke: #706672;stroke-miterlimit: 10;stroke-width: 0.164276043952647px"/>
                <line x1="56.63" y1="66.14" x2="56.63" y2="68.54" style="fill: none;stroke: #706672;stroke-miterlimit: 10;stroke-width: 0.164276043952647px"/>
                <line x1="59.05" y1="66.14" x2="59.05" y2="68.54" style="fill: none;stroke: #706672;stroke-miterlimit: 10;stroke-width: 0.164276043952647px"/>
                <line x1="61.48" y1="66.14" x2="61.48" y2="68.54" style="fill: none;stroke: #706672;stroke-miterlimit: 10;stroke-width: 0.164276043952647px"/>
              </g>
              <polyline points="64.51 68.54 64.51 66.14 47.45 66.14" style="fill: none;stroke: #706672;stroke-miterlimit: 10;stroke-width: 0.164276043952647px"/>
            </g>
            <rect x="4.34" y="81.62" width="8.65" height="0.93" style="fill: #e5d0a1"/>
            <path d="M16.78,101.13l-.9.78a1.53,1.53,0,0,1-2,0l-.9-.78V78.71l.9.78a1.53,1.53,0,0,0,2,0l.9-.78Z" style="fill: #f69463"/>
            <line x1="14.89" y1="79.86" x2="14.89" y2="102.28" style="fill: none;stroke: #b4cab7;stroke-miterlimit: 10;stroke-width: 0.103569974519003px"/>
            <path d="M13,78.71h3.79s-1,1.15-1.89,1.15S13,78.71,13,78.71Z" style="fill: #e5d0a1"/>
            <g>
              <polygon points="14.32 83.78 13.56 83.23 13.56 81.21 14.32 81.77 14.32 83.78" style="fill: #706672"/>
              <polygon points="14.32 87.37 13.56 86.82 13.56 84.8 14.32 85.36 14.32 87.37" style="fill: #706672"/>
              <polygon points="14.32 90.96 13.56 90.41 13.56 88.39 14.32 88.95 14.32 90.96" style="fill: #706672"/>
              <polygon points="14.32 94.55 13.56 94 13.56 91.98 14.32 92.53 14.32 94.55" style="fill: #706672"/>
              <polygon points="14.32 98.14 13.56 97.58 13.56 95.57 14.32 96.12 14.32 98.14" style="fill: #706672"/>
            </g>
            <g>
              <polygon points="15.41 83.78 16.18 83.23 16.18 81.21 15.41 81.77 15.41 83.78" style="fill: #706672"/>
              <polygon points="15.41 87.37 16.18 86.82 16.18 84.8 15.41 85.36 15.41 87.37" style="fill: #706672"/>
              <polygon points="15.41 90.96 16.18 90.41 16.18 88.39 15.41 88.95 15.41 90.96" style="fill: #706672"/>
              <polygon points="15.41 94.55 16.18 94 16.18 91.98 15.41 92.53 15.41 94.55" style="fill: #706672"/>
              <polygon points="15.41 98.14 16.18 97.58 16.18 95.57 15.41 96.12 15.41 98.14" style="fill: #706672"/>
            </g>
            <rect x="16.78" y="81.62" width="6.03" height="17.05" style="fill: #b4cab7"/>
            <g>
              <rect x="17.33" y="82.18" width="1.02" height="1.88" style="fill: #706672"/>
              <rect x="18.67" y="82.18" width="1.02" height="1.88" style="fill: #706672"/>
              <rect x="20.02" y="82.18" width="1.02" height="1.88" style="fill: #706672"/>
              <rect x="21.36" y="82.18" width="1.02" height="1.88" style="fill: #706672"/>
            </g>
            <rect x="16.71" y="84.24" width="6.04" height="1.08" style="fill: #fff"/>
            <g>
              <rect x="17.33" y="85.51" width="1.02" height="1.88" style="fill: #706672"/>
              <rect x="18.67" y="85.51" width="1.02" height="1.88" style="fill: #706672"/>
              <rect x="20.02" y="85.51" width="1.02" height="1.88" style="fill: #706672"/>
              <rect x="21.36" y="85.51" width="1.02" height="1.88" style="fill: #706672"/>
            </g>
            <rect x="16.71" y="87.58" width="6.11" height="1.08" style="fill: #fff"/>
            <g>
              <rect x="17.33" y="89.02" width="1.02" height="1.88" style="fill: #706672"/>
              <rect x="18.67" y="89.02" width="1.02" height="1.88" style="fill: #706672"/>
              <rect x="20.02" y="89.02" width="1.02" height="1.88" style="fill: #706672"/>
              <rect x="21.36" y="89.02" width="1.02" height="1.88" style="fill: #706672"/>
            </g>
            <rect x="16.71" y="91.09" width="6.04" height="1.08" style="fill: #fff"/>
            <g>
              <rect x="17.33" y="92.53" width="1.02" height="1.88" style="fill: #706672"/>
              <rect x="18.67" y="92.53" width="1.02" height="1.88" style="fill: #706672"/>
              <rect x="20.02" y="92.53" width="1.02" height="1.88" style="fill: #706672"/>
              <rect x="21.36" y="92.53" width="1.02" height="1.88" style="fill: #706672"/>
            </g>
            <rect x="16.71" y="94.59" width="6.11" height="1.08" style="fill: #fff"/>
            <g>
              <rect x="17.33" y="95.86" width="1.02" height="1.88" style="fill: #706672"/>
              <rect x="18.67" y="95.86" width="1.02" height="1.88" style="fill: #706672"/>
              <rect x="20.02" y="95.86" width="1.02" height="1.88" style="fill: #706672"/>
              <rect x="21.36" y="95.86" width="1.02" height="1.88" style="fill: #706672"/>
            </g>
            <rect x="16.71" y="97.93" width="6.08" height="1.08" style="fill: #fff"/>
            <rect x="16.71" y="98.47" width="5.16" height="2.66" style="fill: #e5d0a1"/>
            <rect x="20.02" y="99.23" width="1.02" height="1.9" style="fill: #706672"/>
            <rect x="10.99" y="97.93" width="1.46" height="3.2" style="fill: #706672"/>
            <rect x="18.67" y="99.23" width="0.65" height="0.57" style="fill: #706672"/>
            <g>
              <g>
                <path d="M9.47,89.55c-.15,0-.5-.49-.6-.62a.74.74,0,0,1-.81.54s0,0,0,0a.89.89,0,0,0,.69-.56c-.19,0-.36.07-.54.09a.39.39,0,0,1-.3-.1l.85-.11a.55.55,0,0,0,0-.18c-.18,0-.33.12-.47,0l.53-.06V88.3c-.12,0-.22,0-.31-.06l.31,0s0-.11,0-.14A.59.59,0,0,1,8.33,88,3.79,3.79,0,0,0,9,87.87l.21-.05h.09c.08,0,.23.09,0,.13a2.57,2.57,0,0,1-.4.07.38.38,0,0,1,0,.15c.08,0,.3-.09.36,0s-.31.11-.36.12v.17c.13,0,.41-.11.52,0s0,.08,0,.08a3.64,3.64,0,0,0-.57,0,.16.16,0,0,1,.08.06s0,.08,0,.11l.52-.06.23,0c.15,0,.34.22.14.2a3.7,3.7,0,0,0-.88,0,1.86,1.86,0,0,0,1.08.58s0,0,0,0A2.34,2.34,0,0,1,9.47,89.55Zm-.82-1.72c-.08,0-.15-.21-.19-.28v0a.37.37,0,0,1,.28.14.13.13,0,0,1,0,.12A.11.11,0,0,1,8.65,87.83Zm.42-.06a.48.48,0,0,1-.19.09c.1-.11.26-.29.25-.45h0a.85.85,0,0,1,.24.09s0,0,0,.06Z"/>
                <path d="M8.41,91.51s0,.1,0,.15a2.44,2.44,0,0,1,0,.76s0,.08-.06,0a.28.28,0,0,1-.08-.26,2.05,2.05,0,0,0,.07-.6,1.72,1.72,0,0,1-.55.33s0,0,0,0c.17-.13.65-.48.67-.68,0,0,0-.13.05-.11s.22.11.16.18Zm.34-.62c0,.07,0,.14,0,.21s0,0-.06,0a.69.69,0,0,1,0-.18c-.17,0-.48.17-.58,0a5.17,5.17,0,0,0,.55-.07.38.38,0,0,0-.13-.25c-.08-.11.26,0,.27,0a1.69,1.69,0,0,0,0,.23h.12s0,0,0,.06A.4.4,0,0,1,8.75,90.89Zm.37,1c.06,0,.05.09,0,.11a3.16,3.16,0,0,0-.32,0,.2.2,0,0,1,0,.13s-.07,0-.08-.08,0-.27-.1-.4,0-.05,0-.06a.68.68,0,0,0,.42,0c.08,0,.14.06.21.09a0,0,0,0,1,0,0C9.22,91.76,9.17,91.8,9.12,91.86Zm.83-.51H9.77a1.71,1.71,0,0,0-.32,0,.13.13,0,0,1,.08.08s0,.12,0,.17a5.89,5.89,0,0,1,0,.83.48.48,0,0,1-.15.2c-.07,0-.08,0-.1-.07a1.1,1.1,0,0,0-.27-.3,1.56,1.56,0,0,0,.34.09s0,0,0-.06a.81.81,0,0,0,0-.16,2.37,2.37,0,0,0-.09-.75v0a3.28,3.28,0,0,1-.54.08c-.08,0-.15,0-.17-.1a6.82,6.82,0,0,0,1.1-.18.34.34,0,0,1,.29.09A.06.06,0,0,1,10,91.35Zm-1,.32-.19,0a1.2,1.2,0,0,1,0,.2l.14,0A.19.19,0,0,0,9,91.69S9,91.67,9,91.67Zm.8-.84c-.11,0-.23,0-.34,0l-.18,0a1.2,1.2,0,0,1-.16.27s0,0,0,0l.06-.25c-.08,0-.14,0-.17-.07l.19,0a.61.61,0,0,0,0-.3s0-.06,0-.08.21,0,.24.06,0,.06,0,.09a.84.84,0,0,0-.08.2c.15,0,.39-.11.52,0S9.81,90.83,9.77,90.83Z"/>
                <path d="M8.49,94.68l0-.05v.66a1,1,0,0,1-.07.42c-.05,0-.11-.15-.12-.18a.59.59,0,0,1,0-.26,3.07,3.07,0,0,0,0-.68,1.36,1.36,0,0,1-.58.65s0,0,0,0a3.8,3.8,0,0,0,.55-.78c-.15,0-.33.09-.43-.06l.47-.09v-.19a.7.7,0,0,0-.06-.32.61.61,0,0,0,0-.12c0-.12.24,0,.27,0s0,.07,0,.09a1.89,1.89,0,0,0-.06.47.33.33,0,0,1,.17,0s0,.06,0,.08a.6.6,0,0,1-.19.06v.15c.12,0,.18,0,.2.1S8.61,94.83,8.49,94.68Zm1.59.36H9.55a1.65,1.65,0,0,1-.15.25c.14.06.41.15.41.34s-.05.08-.1,0a.6.6,0,0,1-.13-.09l-.28-.19a1,1,0,0,1-.72.19,1.83,1.83,0,0,0,.59-.26l-.23-.1s0,0,0,0l0-.07c-.21,0-.32.13-.48-.06A5.54,5.54,0,0,0,9,95l.09-.19-.19,0s0,.13-.08,0,0,0,0-.06a1.45,1.45,0,0,0-.1-.25s0,0,0,0,.12,0,.17,0l.24,0v-.07l-.14,0c0,.07-.06,0-.08,0a.56.56,0,0,1-.07-.17c-.1,0-.16,0-.22-.06l.19,0A.64.64,0,0,0,8.75,94s0,0,0,0a1,1,0,0,0,.17,0l.2,0a.51.51,0,0,0-.07-.34s0,0,0,0,.28,0,.25.1a2.38,2.38,0,0,0-.05.26,1,1,0,0,0,.3-.07s.15.06.17.09S9.7,94,9.69,94s.22,0,.29,0,0,.06-.07.06l-.27,0c-.05.07-.07.2-.16.24s0,0-.09,0H9.28v.08a.88.88,0,0,0,.27-.06s.16,0,.18.08-.09.1-.12.14.08.08,0,.09l-.34,0c0,.06-.06.14-.1.19l.22,0,0-.08a.26.26,0,0,1,.15.07c.19,0,.39-.13.56,0S10.17,95,10.08,95Zm-.93-.44-.24,0,0,.11.21,0Zm0-.57-.21,0,0,.09.19,0Zm0,.2-.17,0s0,.08,0,.12a.4.4,0,0,1,.15,0Zm-.05.86,0,.08a1.17,1.17,0,0,1,.2.06.86.86,0,0,0,.1-.16ZM9.28,94v.09l.22,0s0-.09,0-.1A.58.58,0,0,0,9.28,94Zm0,.2v.11c.16,0,.14,0,.18-.14Zm0,.36v.12c.06,0,.14,0,.19,0s0,0,0-.1A2,2,0,0,0,9.28,94.57Z"/>
              </g>
              <g>
                <path d="M8.63,84.43v.94H8.7l.23,0,0,.15H8.62v.24c0,.17,0,.19.25.19h.05V86H8.09v-.06h.17c.14,0,.17,0,.17-.18v-.25H7.8l0-.11.53-.7.2-.27Zm-.39.45L8.15,85l-.28.37h.57v-.75Z"/>
                <path d="M9.26,84.53a1.49,1.49,0,0,0,.4-.09h.15v1.23c0,.23,0,.25.16.25h.14V86H9.27v-.06h.15c.12,0,.15,0,.17-.06a.92.92,0,0,0,0-.31v-.93s0,0-.12,0H9.26Z"/>
              </g>
            </g>
            <g>
              <polygon points="38.9 75.75 33.39 80.32 33.39 81.63 38.9 77.06 38.9 75.75" style="fill: #fff;stroke: #706672;stroke-miterlimit: 10;stroke-width: 0.094515973863596px"/>
              <polygon points="38.9 94.11 33.39 98.68 33.39 81.63 38.9 77.06 38.9 94.11" style="fill: #fff;stroke: #706672;stroke-miterlimit: 10;stroke-width: 0.153829563689824px"/>
              <polygon points="38.9 80.76 33.39 85.33 33.39 84.24 38.9 79.68 38.9 80.76" style="fill: #fff;stroke: #706672;stroke-miterlimit: 10;stroke-width: 0.147901897859975px"/>
              <polygon points="38.9 84.1 33.39 88.66 33.39 87.58 38.9 83.01 38.9 84.1" style="fill: #fff;stroke: #706672;stroke-miterlimit: 10;stroke-width: 0.147901897859975px"/>
              <polygon points="38.9 87.6 33.39 92.17 33.39 91.09 38.9 86.52 38.9 87.6" style="fill: #fff;stroke: #706672;stroke-miterlimit: 10;stroke-width: 0.147901897859975px"/>
              <polygon points="38.9 91.11 33.39 95.68 33.39 94.59 38.9 90.03 38.9 91.11" style="fill: #fff;stroke: #706672;stroke-miterlimit: 10;stroke-width: 0.147901897859975px"/>
              <polygon points="38.9 94.45 33.39 99.01 33.39 97.93 38.9 93.36 38.9 94.45" style="fill: #fff;stroke: #706672;stroke-miterlimit: 10;stroke-width: 0.147901897859975px"/>
              <g>
                <line x1="33.95" y1="77.45" x2="33.95" y2="79.85" style="fill: #fff;stroke: #706672;stroke-miterlimit: 10;stroke-width: 0.164276043952647px"/>
                <line x1="35.25" y1="76.35" x2="35.25" y2="78.75" style="fill: #fff;stroke: #706672;stroke-miterlimit: 10;stroke-width: 0.164276043952647px"/>
                <line x1="36.54" y1="75.25" x2="36.54" y2="77.65" style="fill: #fff;stroke: #706672;stroke-miterlimit: 10;stroke-width: 0.164276043952647px"/>
                <line x1="37.84" y1="74.15" x2="37.84" y2="76.55" style="fill: #fff;stroke: #706672;stroke-miterlimit: 10;stroke-width: 0.164276043952647px"/>
              </g>
              <polyline points="38.9 73.35 33.39 77.92 33.39 80.32" style="fill: none;stroke: #706672;stroke-miterlimit: 10;stroke-width: 0.164276043952647px"/>
              <g>
                <g>
                  <polygon points="34.91 82.63 34.65 82.85 34.65 80.97 34.91 80.75 34.91 82.63" style="fill: #fff;stroke: #706672;stroke-miterlimit: 10;stroke-width: 0.082138021976324px"/>
                  <polygon points="35.45 82.18 35.19 82.4 35.19 80.52 35.45 80.3 35.45 82.18" style="fill: #fff;stroke: #706672;stroke-miterlimit: 10;stroke-width: 0.082138021976324px"/>
                  <polygon points="36 81.73 35.73 81.95 35.73 80.08 36 79.85 36 81.73" style="fill: #fff;stroke: #706672;stroke-miterlimit: 10;stroke-width: 0.082138021976324px"/>
                  <polygon points="36.54 81.28 36.27 81.5 36.27 79.63 36.54 79.41 36.54 81.28" style="fill: #fff;stroke: #706672;stroke-miterlimit: 10;stroke-width: 0.082138021976324px"/>
                  <polygon points="37.08 80.83 36.81 81.06 36.81 79.18 37.08 78.96 37.08 80.83" style="fill: #fff;stroke: #706672;stroke-miterlimit: 10;stroke-width: 0.082138021976324px"/>
                  <polygon points="37.62 80.39 37.36 80.61 37.36 78.73 37.62 78.51 37.62 80.39" style="fill: #fff;stroke: #706672;stroke-miterlimit: 10;stroke-width: 0.082138021976324px"/>
                  <polygon points="38.16 79.94 37.9 80.16 37.9 78.28 38.16 78.06 38.16 79.94" style="fill: #fff;stroke: #706672;stroke-miterlimit: 10;stroke-width: 0.082138021976324px"/>
                  <polygon points="38.71 79.49 38.44 79.71 38.44 77.83 38.71 77.61 38.71 79.49" style="fill: #fff;stroke: #706672;stroke-miterlimit: 10;stroke-width: 0.082138021976324px"/>
                </g>
                <polygon points="34.52 82.95 33.55 83.76 33.55 81.88 34.52 81.07 34.52 82.95" style="fill: #fff;stroke: #706672;stroke-miterlimit: 10;stroke-width: 0.091485139619885px"/>
              </g>
              <g>
                <g>
                  <polygon points="34.91 86.13 34.65 86.35 34.65 84.47 34.91 84.25 34.91 86.13" style="fill: #fff;stroke: #706672;stroke-miterlimit: 10;stroke-width: 0.082138021976324px"/>
                  <polygon points="35.45 85.68 35.19 85.9 35.19 84.02 35.45 83.8 35.45 85.68" style="fill: #fff;stroke: #706672;stroke-miterlimit: 10;stroke-width: 0.082138021976324px"/>
                  <polygon points="36 85.23 35.73 85.45 35.73 83.57 36 83.35 36 85.23" style="fill: #fff;stroke: #706672;stroke-miterlimit: 10;stroke-width: 0.082138021976324px"/>
                  <polygon points="36.54 84.78 36.27 85 36.27 83.13 36.54 82.9 36.54 84.78" style="fill: #fff;stroke: #706672;stroke-miterlimit: 10;stroke-width: 0.082138021976324px"/>
                  <polygon points="37.08 84.33 36.81 84.56 36.81 82.68 37.08 82.45 37.08 84.33" style="fill: #fff;stroke: #706672;stroke-miterlimit: 10;stroke-width: 0.082138021976324px"/>
                  <polygon points="37.62 83.89 37.36 84.11 37.36 82.23 37.62 82.01 37.62 83.89" style="fill: #fff;stroke: #706672;stroke-miterlimit: 10;stroke-width: 0.082138021976324px"/>
                  <polygon points="38.16 83.44 37.9 83.66 37.9 81.78 38.16 81.56 38.16 83.44" style="fill: #fff;stroke: #706672;stroke-miterlimit: 10;stroke-width: 0.082138021976324px"/>
                  <polygon points="38.71 82.99 38.44 83.21 38.44 81.33 38.71 81.11 38.71 82.99" style="fill: #fff;stroke: #706672;stroke-miterlimit: 10;stroke-width: 0.082138021976324px"/>
                </g>
                <polygon points="34.52 86.45 33.55 87.25 33.55 85.38 34.52 84.57 34.52 86.45" style="fill: #fff;stroke: #706672;stroke-miterlimit: 10;stroke-width: 0.091485139619885px"/>
              </g>
              <g>
                <g>
                  <polygon points="34.91 89.55 34.65 89.77 34.65 87.89 34.91 87.67 34.91 89.55" style="fill: #fff;stroke: #706672;stroke-miterlimit: 10;stroke-width: 0.082138021976324px"/>
                  <polygon points="35.45 89.1 35.19 89.32 35.19 87.44 35.45 87.22 35.45 89.1" style="fill: #fff;stroke: #706672;stroke-miterlimit: 10;stroke-width: 0.082138021976324px"/>
                  <polygon points="36 88.65 35.73 88.87 35.73 86.99 36 86.77 36 88.65" style="fill: #fff;stroke: #706672;stroke-miterlimit: 10;stroke-width: 0.082138021976324px"/>
                  <polygon points="36.54 88.2 36.27 88.42 36.27 86.55 36.54 86.33 36.54 88.2" style="fill: #fff;stroke: #706672;stroke-miterlimit: 10;stroke-width: 0.082138021976324px"/>
                  <polygon points="37.08 87.75 36.81 87.98 36.81 86.1 37.08 85.88 37.08 87.75" style="fill: #fff;stroke: #706672;stroke-miterlimit: 10;stroke-width: 0.082138021976324px"/>
                  <polygon points="37.62 87.31 37.36 87.53 37.36 85.65 37.62 85.43 37.62 87.31" style="fill: #fff;stroke: #706672;stroke-miterlimit: 10;stroke-width: 0.082138021976324px"/>
                  <polygon points="38.16 86.86 37.9 87.08 37.9 85.2 38.16 84.98 38.16 86.86" style="fill: #fff;stroke: #706672;stroke-miterlimit: 10;stroke-width: 0.082138021976324px"/>
                  <polygon points="38.71 86.41 38.44 86.63 38.44 84.75 38.71 84.53 38.71 86.41" style="fill: #fff;stroke: #706672;stroke-miterlimit: 10;stroke-width: 0.082138021976324px"/>
                </g>
                <polygon points="34.52 89.87 33.55 90.68 33.55 88.8 34.52 87.99 34.52 89.87" style="fill: #fff;stroke: #706672;stroke-miterlimit: 10;stroke-width: 0.091485139619885px"/>
              </g>
              <g>
                <g>
                  <polygon points="34.91 93.06 34.65 93.28 34.65 91.4 34.91 91.18 34.91 93.06" style="fill: #fff;stroke: #706672;stroke-miterlimit: 10;stroke-width: 0.082138021976324px"/>
                  <polygon points="35.45 92.61 35.19 92.83 35.19 90.95 35.45 90.73 35.45 92.61" style="fill: #fff;stroke: #706672;stroke-miterlimit: 10;stroke-width: 0.082138021976324px"/>
                  <polygon points="36 92.16 35.73 92.38 35.73 90.5 36 90.28 36 92.16" style="fill: #fff;stroke: #706672;stroke-miterlimit: 10;stroke-width: 0.082138021976324px"/>
                  <polygon points="36.54 91.71 36.27 91.93 36.27 90.05 36.54 89.83 36.54 91.71" style="fill: #fff;stroke: #706672;stroke-miterlimit: 10;stroke-width: 0.082138021976324px"/>
                  <polygon points="37.08 91.26 36.81 91.48 36.81 89.61 37.08 89.38 37.08 91.26" style="fill: #fff;stroke: #706672;stroke-miterlimit: 10;stroke-width: 0.082138021976324px"/>
                  <polygon points="37.62 90.81 37.36 91.03 37.36 89.16 37.62 88.94 37.62 90.81" style="fill: #fff;stroke: #706672;stroke-miterlimit: 10;stroke-width: 0.082138021976324px"/>
                  <polygon points="38.16 90.37 37.9 90.59 37.9 88.71 38.16 88.49 38.16 90.37" style="fill: #fff;stroke: #706672;stroke-miterlimit: 10;stroke-width: 0.082138021976324px"/>
                  <polygon points="38.71 89.92 38.44 90.14 38.44 88.26 38.71 88.04 38.71 89.92" style="fill: #fff;stroke: #706672;stroke-miterlimit: 10;stroke-width: 0.082138021976324px"/>
                </g>
                <polygon points="34.52 93.38 33.55 94.18 33.55 92.31 34.52 91.5 34.52 93.38" style="fill: #fff;stroke: #706672;stroke-miterlimit: 10;stroke-width: 0.091485139619885px"/>
              </g>
              <g>
                <g>
                  <polygon points="34.91 96.48 34.65 96.7 34.65 94.82 34.91 94.6 34.91 96.48" style="fill: #fff;stroke: #706672;stroke-miterlimit: 10;stroke-width: 0.082138021976324px"/>
                  <polygon points="35.45 96.03 35.19 96.25 35.19 94.37 35.45 94.15 35.45 96.03" style="fill: #fff;stroke: #706672;stroke-miterlimit: 10;stroke-width: 0.082138021976324px"/>
                  <polygon points="36 95.58 35.73 95.8 35.73 93.92 36 93.7 36 95.58" style="fill: #fff;stroke: #706672;stroke-miterlimit: 10;stroke-width: 0.082138021976324px"/>
                  <polygon points="36.54 95.13 36.27 95.35 36.27 93.47 36.54 93.25 36.54 95.13" style="fill: #fff;stroke: #706672;stroke-miterlimit: 10;stroke-width: 0.082138021976324px"/>
                  <polygon points="37.08 94.69 36.81 94.91 36.81 93.03 37.08 92.81 37.08 94.69" style="fill: #fff;stroke: #706672;stroke-miterlimit: 10;stroke-width: 0.082138021976324px"/>
                  <polygon points="37.62 94.24 37.36 94.46 37.36 92.58 37.62 92.36 37.62 94.24" style="fill: #fff;stroke: #706672;stroke-miterlimit: 10;stroke-width: 0.082138021976324px"/>
                  <polygon points="38.16 93.79 37.9 94.01 37.9 92.13 38.16 91.91 38.16 93.79" style="fill: #fff;stroke: #706672;stroke-miterlimit: 10;stroke-width: 0.082138021976324px"/>
                  <polygon points="38.71 93.34 38.44 93.56 38.44 91.68 38.71 91.46 38.71 93.34" style="fill: #fff;stroke: #706672;stroke-miterlimit: 10;stroke-width: 0.082138021976324px"/>
                </g>
                <polygon points="34.52 96.8 33.55 97.61 33.55 95.73 34.52 94.92 34.52 96.8" style="fill: #fff;stroke: #706672;stroke-miterlimit: 10;stroke-width: 0.091485139619885px"/>
              </g>
            </g>
            <polygon points="64.46 68.51 47.5 68.51 33.17 80.39 50.12 80.39 64.46 68.51" style="fill: #fff"/>
            <g>
              <line x1="48.19" y1="77.92" x2="48.19" y2="80.32" style="fill: none;stroke: #706672;stroke-miterlimit: 10;stroke-width: 0.164276043952647px"/>
              <line x1="45.76" y1="77.92" x2="45.76" y2="80.32" style="fill: none;stroke: #706672;stroke-miterlimit: 10;stroke-width: 0.164276043952647px"/>
              <line x1="43.34" y1="77.92" x2="43.34" y2="80.32" style="fill: none;stroke: #706672;stroke-miterlimit: 10;stroke-width: 0.164276043952647px"/>
              <line x1="40.91" y1="77.92" x2="40.91" y2="80.32" style="fill: none;stroke: #706672;stroke-miterlimit: 10;stroke-width: 0.164276043952647px"/>
              <line x1="38.48" y1="77.92" x2="38.48" y2="80.32" style="fill: none;stroke: #706672;stroke-miterlimit: 10;stroke-width: 0.164276043952647px"/>
              <line x1="36.05" y1="77.92" x2="36.05" y2="80.32" style="fill: none;stroke: #706672;stroke-miterlimit: 10;stroke-width: 0.164276043952647px"/>
            </g>
            <rect x="33.39" y="80.32" width="16.6" height="1.31" transform="translate(83.37 161.94) rotate(-180)" style="fill: #e5d0a1"/>
            <polyline points="33.55 80.32 33.55 77.92 50.08 77.92 50.08 80.32" style="fill: none;stroke: #706672;stroke-miterlimit: 10;stroke-width: 0.164276043952647px"/>
            <rect x="42.69" y="81.62" width="8.65" height="0.93" style="fill: #e5d0a1"/>
            <path d="M38.89,101.13l.91.78a1.53,1.53,0,0,0,2,0l.9-.78V78.71l-.9.78a1.53,1.53,0,0,1-2,0l-.91-.78Z" style="fill: #f69463"/>
            <line x1="40.79" y1="79.86" x2="40.79" y2="102.28" style="fill: none;stroke: #b4cab7;stroke-miterlimit: 10;stroke-width: 0.103569974519003px"/>
            <path d="M42.69,78.71h-3.8s1,1.15,1.9,1.15S42.69,78.71,42.69,78.71Z" style="fill: #e5d0a1"/>
            <g>
              <polygon points="41.36 83.78 42.12 83.23 42.12 81.21 41.36 81.77 41.36 83.78" style="fill: #706672"/>
              <polygon points="41.36 87.37 42.12 86.82 42.12 84.8 41.36 85.36 41.36 87.37" style="fill: #706672"/>
              <polygon points="41.36 90.96 42.12 90.41 42.12 88.39 41.36 88.95 41.36 90.96" style="fill: #706672"/>
              <polygon points="41.36 94.55 42.12 94 42.12 91.98 41.36 92.53 41.36 94.55" style="fill: #706672"/>
              <polygon points="41.36 98.14 42.12 97.58 42.12 95.57 41.36 96.12 41.36 98.14" style="fill: #706672"/>
            </g>
            <g>
              <polygon points="40.26 83.78 39.5 83.23 39.5 81.21 40.26 81.77 40.26 83.78" style="fill: #706672"/>
              <polygon points="40.26 87.37 39.5 86.82 39.5 84.8 40.26 85.36 40.26 87.37" style="fill: #706672"/>
              <polygon points="40.26 90.96 39.5 90.41 39.5 88.39 40.26 88.95 40.26 90.96" style="fill: #706672"/>
              <polygon points="40.26 94.55 39.5 94 39.5 91.98 40.26 92.53 40.26 94.55" style="fill: #706672"/>
              <polygon points="40.26 98.14 39.5 97.58 39.5 95.57 40.26 96.12 40.26 98.14" style="fill: #706672"/>
            </g>
            <rect x="32.87" y="81.62" width="6.03" height="17.05" transform="translate(71.76 180.3) rotate(-180)" style="fill: #b4cab7"/>
            <g>
              <rect x="37.33" y="82.18" width="1.02" height="1.88" transform="translate(75.68 166.24) rotate(-180)" style="fill: #706672"/>
              <rect x="35.99" y="82.18" width="1.02" height="1.88" transform="translate(72.99 166.24) rotate(-180)" style="fill: #706672"/>
              <rect x="34.64" y="82.18" width="1.02" height="1.88" transform="translate(70.31 166.24) rotate(-180)" style="fill: #706672"/>
              <rect x="33.3" y="82.18" width="1.02" height="1.88" transform="translate(67.62 166.24) rotate(-180)" style="fill: #706672"/>
            </g>
            <rect x="32.47" y="84.24" width="6.5" height="1.08" transform="translate(71.45 169.57) rotate(-180)" style="fill: #fff"/>
            <g>
              <rect x="37.33" y="85.51" width="1.02" height="1.88" transform="translate(75.68 172.91) rotate(-180)" style="fill: #706672"/>
              <rect x="35.99" y="85.51" width="1.02" height="1.88" transform="translate(72.99 172.91) rotate(-180)" style="fill: #706672"/>
              <rect x="34.64" y="85.51" width="1.02" height="1.88" transform="translate(70.31 172.91) rotate(-180)" style="fill: #706672"/>
              <rect x="33.3" y="85.51" width="1.02" height="1.88" transform="translate(67.62 172.91) rotate(-180)" style="fill: #706672"/>
            </g>
            <rect x="32.47" y="87.58" width="6.5" height="1.08" transform="translate(71.45 176.24) rotate(-180)" style="fill: #fff"/>
            <g>
              <rect x="37.33" y="89.02" width="1.02" height="1.88" transform="translate(75.68 179.92) rotate(-180)" style="fill: #706672"/>
              <rect x="35.99" y="89.02" width="1.02" height="1.88" transform="translate(72.99 179.92) rotate(-180)" style="fill: #706672"/>
              <rect x="34.64" y="89.02" width="1.02" height="1.88" transform="translate(70.31 179.92) rotate(-180)" style="fill: #706672"/>
              <rect x="33.3" y="89.02" width="1.02" height="1.88" transform="translate(67.62 179.92) rotate(-180)" style="fill: #706672"/>
            </g>
            <rect x="32.47" y="91.09" width="6.5" height="1.08" transform="translate(71.45 183.26) rotate(-180)" style="fill: #fff"/>
            <g>
              <rect x="37.33" y="92.53" width="1.02" height="1.88" transform="translate(75.68 186.94) rotate(-180)" style="fill: #706672"/>
              <rect x="35.99" y="92.53" width="1.02" height="1.88" transform="translate(72.99 186.94) rotate(-180)" style="fill: #706672"/>
              <rect x="34.64" y="92.53" width="1.02" height="1.88" transform="translate(70.31 186.94) rotate(-180)" style="fill: #706672"/>
              <rect x="33.3" y="92.53" width="1.02" height="1.88" transform="translate(67.62 186.94) rotate(-180)" style="fill: #706672"/>
            </g>
            <rect x="32.47" y="94.59" width="6.5" height="1.08" transform="translate(71.45 190.27) rotate(-180)" style="fill: #fff"/>
            <g>
              <rect x="37.33" y="95.86" width="1.02" height="1.88" transform="translate(75.68 193.61) rotate(-180)" style="fill: #706672"/>
              <rect x="35.99" y="95.86" width="1.02" height="1.88" transform="translate(72.99 193.61) rotate(-180)" style="fill: #706672"/>
              <rect x="34.64" y="95.86" width="1.02" height="1.88" transform="translate(70.31 193.61) rotate(-180)" style="fill: #706672"/>
              <rect x="33.3" y="95.86" width="1.02" height="1.88" transform="translate(67.62 193.61) rotate(-180)" style="fill: #706672"/>
            </g>
            <rect x="32.47" y="97.93" width="6.5" height="1.08" transform="translate(71.45 196.94) rotate(-180)" style="fill: #fff"/>
            <rect x="33.81" y="98.47" width="5.16" height="2.66" transform="translate(72.78 199.6) rotate(-180)" style="fill: #e5d0a1"/>
            <rect x="34.64" y="99.23" width="1.02" height="1.9" transform="translate(70.31 200.36) rotate(-180)" style="fill: #706672"/>
            <rect x="43.23" y="97.93" width="1.46" height="3.2" transform="translate(87.92 199.06) rotate(-180)" style="fill: #706672"/>
            <rect x="36.35" y="99.23" width="0.65" height="0.57" transform="translate(73.36 199.03) rotate(-180)" style="fill: #706672"/>
            <polygon points="36.99 68.51 36.99 72.66 32 72.66 36.99 68.51" style="fill: #d14d65"/>
            <polygon points="64.46 68.51 64.46 70.18 49.98 81.63 49.98 80.32 64.46 68.51" style="fill: #f69463"/>
            <polygon points="51.34 81.63 65.76 70.18 64.46 70.18 49.98 81.63 51.34 81.63" style="fill: #fff"/>
            <polygon points="51.34 81.63 51.34 82.56 65.76 71.03 65.76 70.18 51.34 81.63" style="fill: #f69463"/>
            <g>
              <g>
                <line x1="51.56" y1="76.7" x2="51.56" y2="79.1" style="fill: none;stroke: #706672;stroke-miterlimit: 10;stroke-width: 0.164276043952647px"/>
                <line x1="53.19" y1="75.37" x2="53.19" y2="77.76" style="fill: none;stroke: #706672;stroke-miterlimit: 10;stroke-width: 0.164276043952647px"/>
                <line x1="54.82" y1="74.03" x2="54.82" y2="76.43" style="fill: none;stroke: #706672;stroke-miterlimit: 10;stroke-width: 0.164276043952647px"/>
                <line x1="56.44" y1="72.69" x2="56.44" y2="75.09" style="fill: none;stroke: #706672;stroke-miterlimit: 10;stroke-width: 0.164276043952647px"/>
                <line x1="58.07" y1="71.35" x2="58.07" y2="73.75" style="fill: none;stroke: #706672;stroke-miterlimit: 10;stroke-width: 0.164276043952647px"/>
                <line x1="59.7" y1="70.01" x2="59.7" y2="72.41" style="fill: none;stroke: #706672;stroke-miterlimit: 10;stroke-width: 0.164276043952647px"/>
                <line x1="61.33" y1="68.68" x2="61.33" y2="71.07" style="fill: none;stroke: #706672;stroke-miterlimit: 10;stroke-width: 0.164276043952647px"/>
                <line x1="62.96" y1="67.34" x2="62.96" y2="69.74" style="fill: none;stroke: #706672;stroke-miterlimit: 10;stroke-width: 0.164276043952647px"/>
              </g>
              <polyline points="64.44 66.12 50.08 77.92 50.08 80.32" style="fill: none;stroke: #706672;stroke-miterlimit: 10;stroke-width: 0.164276043952647px"/>
            </g>
            <g>
              <g>
                <line x1="6.94" y1="76.7" x2="6.94" y2="79.38" style="fill: none;stroke: #706672;stroke-miterlimit: 10;stroke-width: 0.165178595879462px"/>
                <line x1="8.8" y1="75.19" x2="8.8" y2="77.84" style="fill: none;stroke: #706672;stroke-miterlimit: 10;stroke-width: 0.165178595879462px"/>
                <line x1="10.67" y1="73.68" x2="10.67" y2="76.3" style="fill: none;stroke: #706672;stroke-miterlimit: 10;stroke-width: 0.165178595879462px"/>
                <line x1="12.54" y1="72.17" x2="12.54" y2="74.76" style="fill: none;stroke: #706672;stroke-miterlimit: 10;stroke-width: 0.165178595879462px"/>
                <line x1="14.41" y1="70.66" x2="14.41" y2="73.23" style="fill: none;stroke: #706672;stroke-miterlimit: 10;stroke-width: 0.165178595879462px"/>
                <line x1="16.28" y1="69.15" x2="16.28" y2="71.69" style="fill: none;stroke: #706672;stroke-miterlimit: 10;stroke-width: 0.165178595879462px"/>
                <line x1="18.15" y1="67.64" x2="18.15" y2="70.15" style="fill: none;stroke: #706672;stroke-miterlimit: 10;stroke-width: 0.165178595879462px"/>
                <line x1="20.02" y1="66.12" x2="20.02" y2="68.61" style="fill: none;stroke: #706672;stroke-miterlimit: 10;stroke-width: 0.165178595879462px"/>
              </g>
              <polyline points="19.96 66.12 5.44 77.92 5.44 80.32" style="fill: none;stroke: #706672;stroke-miterlimit: 10;stroke-width: 0.165178595879462px"/>
            </g>
            <g>
              <g>
                <line x1="33.34" y1="69.99" x2="33.34" y2="72.69" style="fill: none;stroke: #706672;stroke-miterlimit: 10;stroke-width: 0.164276043952647px"/>
                <line x1="35.88" y1="69.99" x2="35.88" y2="72.69" style="fill: none;stroke: #706672;stroke-miterlimit: 10;stroke-width: 0.164276043952647px"/>
                <line x1="38.42" y1="69.99" x2="38.42" y2="72.69" style="fill: none;stroke: #706672;stroke-miterlimit: 10;stroke-width: 0.164276043952647px"/>
                <line x1="40.96" y1="69.99" x2="40.96" y2="72.69" style="fill: none;stroke: #706672;stroke-miterlimit: 10;stroke-width: 0.164276043952647px"/>
              </g>
              <line x1="42.6" y1="70.08" x2="31.88" y2="70.08" style="fill: none;stroke: #706672;stroke-miterlimit: 10;stroke-width: 0.164276043952647px"/>
            </g>
            <g>
              <g>
                <path d="M47.33,89.55c-.15,0-.5-.49-.6-.62a.74.74,0,0,1-.81.54s0,0,0,0a.86.86,0,0,0,.68-.56c-.18,0-.36.07-.54.09s-.19,0-.29-.1l.85-.11a.55.55,0,0,0,0-.18c-.18,0-.33.12-.47,0l.53-.06V88.3c-.12,0-.22,0-.31-.06l.31,0s0-.11,0-.14a.58.58,0,0,1-.45-.07,3.79,3.79,0,0,0,.66-.11l.21-.05h.09c.08,0,.23.09,0,.13a2.57,2.57,0,0,1-.4.07.38.38,0,0,1,0,.15c.08,0,.3-.09.36,0s-.31.11-.36.12v.17c.13,0,.4-.11.51,0s0,.08,0,.08a3.52,3.52,0,0,0-.56,0,.16.16,0,0,1,.08.06.35.35,0,0,1,0,.11l.51-.06.24,0c.14,0,.34.22.14.2a3.7,3.7,0,0,0-.88,0,1.86,1.86,0,0,0,1.08.58s0,0,0,0A2.43,2.43,0,0,1,47.33,89.55Zm-.82-1.72c-.08,0-.15-.21-.2-.28v0a.34.34,0,0,1,.28.14.13.13,0,0,1,0,.12A.12.12,0,0,1,46.51,87.83Zm.42-.06a.48.48,0,0,1-.19.09c.09-.11.26-.29.25-.45h0a.85.85,0,0,1,.24.09s0,0,0,.06Z"/>
                <path d="M46.27,91.51a.25.25,0,0,1,0,.15,2.44,2.44,0,0,1,0,.76s0,.08-.07,0a.3.3,0,0,1-.07-.26,1.75,1.75,0,0,0,.06-.6,1.57,1.57,0,0,1-.54.33s0,0,0,0c.17-.13.65-.48.67-.68,0,0,0-.13,0-.11s.22.11.16.18Zm.34-.62c0,.07,0,.14,0,.21s0,0-.06,0a.69.69,0,0,1,0-.18c-.17,0-.48.17-.58,0a5.17,5.17,0,0,0,.55-.07c0-.08,0-.19-.13-.25s.26,0,.26,0a1.85,1.85,0,0,1,0,.23h.12s0,0,0,.06A.4.4,0,0,1,46.61,90.89Zm.37,1c.06,0,.05.09,0,.11l-.33,0a.16.16,0,0,1,0,.13s-.06,0-.07-.08,0-.27-.1-.4a0,0,0,0,1,0-.06.7.7,0,0,0,.43,0c.08,0,.13.06.21.09a0,0,0,0,1,0,0C47.08,91.76,47,91.8,47,91.86Zm.83-.51h-.18a1.69,1.69,0,0,0-.32,0,.13.13,0,0,1,.08.08,1,1,0,0,1,0,.17,5.89,5.89,0,0,1,0,.83.59.59,0,0,1-.15.2c-.07,0-.08,0-.1-.07a1.29,1.29,0,0,0-.27-.3,1.56,1.56,0,0,0,.34.09s0,0,0-.06a.81.81,0,0,0,0-.16,2.37,2.37,0,0,0-.09-.75v0a3.46,3.46,0,0,1-.54.08c-.09,0-.15,0-.17-.1a7,7,0,0,0,1.1-.18.34.34,0,0,1,.29.09A.06.06,0,0,1,47.81,91.35Zm-1,.32-.19,0a.65.65,0,0,1,0,.2l.15,0a.19.19,0,0,0,.06-.18S46.86,91.67,46.83,91.67Zm.8-.84c-.12,0-.23,0-.34,0l-.18,0a1.2,1.2,0,0,1-.16.27s0,0,0,0l.06-.25a.16.16,0,0,1-.18-.07l.2,0a.61.61,0,0,0,0-.3s0-.06,0-.08.21,0,.24.06,0,.06,0,.09a.84.84,0,0,0-.08.2c.15,0,.39-.11.52,0S47.67,90.83,47.63,90.83Z"/>
                <path d="M46.35,94.68a.1.1,0,0,0,0-.05v.66a1,1,0,0,1-.07.42s-.11-.15-.12-.18a.59.59,0,0,1,0-.26,3.07,3.07,0,0,0,0-.68,1.36,1.36,0,0,1-.58.65s0,0,0,0a3.85,3.85,0,0,0,.56-.78c-.15,0-.33.09-.43-.06.15,0,.31-.05.46-.09v-.19a.86.86,0,0,0-.05-.32s0-.08,0-.12.23,0,.26,0,0,.07,0,.09a1.89,1.89,0,0,0-.06.47.33.33,0,0,1,.17,0s0,.06,0,.08a.66.66,0,0,1-.2.06v.15c.13,0,.19,0,.21.1S46.47,94.83,46.35,94.68Zm1.59.36H47.4a1,1,0,0,1-.14.25c.14.06.4.15.4.34s0,.08-.1,0a.94.94,0,0,1-.12-.09l-.28-.19a1,1,0,0,1-.72.19,1.69,1.69,0,0,0,.58-.26l-.22-.1s0,0,0,0a.43.43,0,0,1,0-.07c-.21,0-.32.13-.49-.06A5.48,5.48,0,0,0,46.9,95L47,94.8l-.19,0s0,.13-.08,0a.09.09,0,0,1,0-.06,1.45,1.45,0,0,0-.1-.25s0,0,0,0,.12,0,.17,0l.24,0v-.07l-.14,0c0,.07-.06,0-.08,0a.56.56,0,0,1-.07-.17c-.1,0-.16,0-.22-.06l.19,0a.64.64,0,0,0-.08-.19s0,0,0,0a1,1,0,0,0,.17,0l.2,0a.51.51,0,0,0-.07-.34s0,0,0,0,.27,0,.25.1a2.38,2.38,0,0,0,0,.26,1,1,0,0,0,.3-.07s.15.06.17.09,0,.07-.07.12.23,0,.3,0,0,.06-.07.06l-.27,0c0,.07-.08.2-.16.24s0,0-.09,0h-.11v.08a.88.88,0,0,0,.27-.06s.15,0,.18.08-.09.1-.12.14.08.08,0,.09l-.34,0c0,.06-.06.14-.1.19l.22,0,0-.08a.21.21,0,0,1,.15.07c.2,0,.4-.13.57,0S48,95,47.94,95ZM47,94.6l-.24,0a.52.52,0,0,1,0,.11l.22,0ZM47,94l-.21,0,0,.09.19,0Zm0,.2-.17,0s0,.08,0,.12a.4.4,0,0,1,.15,0Zm0,.86-.05.08a1.29,1.29,0,0,1,.21.06.51.51,0,0,0,.09-.16ZM47.14,94v.09l.22,0s0-.09,0-.1A.58.58,0,0,0,47.14,94Zm0,.2v.11c.16,0,.14,0,.18-.14Zm0,.36v.12c.06,0,.14,0,.18,0s0,0,0-.1A2,2,0,0,0,47.14,94.57Z"/>
              </g>
              <g>
                <path d="M46.49,84.43v.94h.08l.23,0,0,.15h-.27v.24c0,.17,0,.19.25.19h0V86H46v-.06h.16c.14,0,.18,0,.18-.18v-.25h-.64v-.11l.53-.7.19-.27Zm-.39.45L46,85l-.28.37h.56v-.75Z"/>
                <path d="M47.12,84.53a1.59,1.59,0,0,0,.4-.09h.15v1.23c0,.23,0,.25.17.25H48V86h-.84v-.06h.15c.12,0,.15,0,.17-.06a.92.92,0,0,0,0-.31v-.93s0,0-.12,0h-.23Z"/>
              </g>
            </g>
            <polygon points="4.33 81.63 5.7 80.39 5.7 81.63 4.33 81.63" style="fill: #d14d65"/>
          </g>
        </g>
        <g>
          <polygon points="90.47 94.74 61.55 94.74 58.63 97.1 87.55 97.1 90.47 94.74" style="fill: #e5d0a1"/>
          <polygon points="90.47 94.79 90.47 100.25 87.59 102.32 87.59 96.98 90.47 94.79" style="fill: #f69463"/>
          <polygon points="83.91 98.66 83.91 104.12 81.03 106.19 81.03 100.86 83.91 98.66" style="fill: #b4cab7"/>
          <rect x="58.88" y="97.1" width="28.7" height="4.91" style="fill: #fff;stroke: #706672;stroke-miterlimit: 10;stroke-width: 0.504882546255917px"/>
          <g>
            <path d="M61.28,100.05l-.16.56h-.47l.64-2.11h.6l.67,2.11h-.5l-.17-.56Zm.54-.37-.14-.45c0-.12-.07-.27-.11-.38h0c0,.11-.06.26-.1.38l-.12.45Z" style="fill: #706672"/>
            <path d="M63.39,98.53a3.26,3.26,0,0,1,.65,0,.9.9,0,0,1,.6.17.62.62,0,0,1,.22.5.7.7,0,0,1-.18.5.91.91,0,0,1-.67.23h-.17v.74h-.45Zm.45,1,.17,0c.24,0,.4-.12.4-.34s-.14-.31-.37-.31a.75.75,0,0,0-.2,0Z" style="fill: #706672"/>
            <path d="M65.72,98.5h.45v1.69H67v.42h-1.3Z" style="fill: #706672"/>
            <path d="M68.3,98.5v2.11h-.45V98.5Z" style="fill: #706672"/>
            <path d="M69.71,98.5v1.16c0,.38.14.6.4.6s.4-.21.4-.6V98.5H71v1.15c0,.68-.33,1-.87,1s-.83-.29-.83-1V98.5Z" style="fill: #706672"/>
            <path d="M73.13,100.09a1,1,0,0,0,.53.15c.21,0,.32-.08.32-.22s-.1-.2-.35-.28-.58-.29-.58-.64a.67.67,0,0,1,.76-.64,1.12,1.12,0,0,1,.55.12l-.11.39a1,1,0,0,0-.45-.11c-.19,0-.29.09-.29.2s.12.19.39.28.54.32.54.65-.24.66-.81.66a1.2,1.2,0,0,1-.6-.15Z" style="fill: #706672"/>
            <path d="M75.75,98.91h-.58V98.5h1.61v.41H76.2v1.7h-.45Z" style="fill: #706672"/>
            <path d="M77.58,98.53a3.4,3.4,0,0,1,.63,0,1,1,0,0,1,.65.17.58.58,0,0,1-.16,1h0A.55.55,0,0,1,79,100c.07.24.13.52.17.6h-.46a2.21,2.21,0,0,1-.15-.49c-.06-.26-.14-.33-.34-.33H78v.82h-.45Zm.45.9h.2c.23,0,.37-.11.37-.3s-.14-.28-.34-.28H78Z" style="fill: #706672"/>
            <path d="M81.18,99.73h-.79v.48h.88v.4H79.94V98.5h1.29v.4h-.84v.43h.79Z" style="fill: #706672"/>
            <path d="M83.39,99.73h-.8v.48h.89v.4H82.14V98.5h1.29v.4h-.84v.43h.8Z" style="fill: #706672"/>
            <path d="M84.79,98.91h-.58V98.5h1.61v.41h-.58v1.7h-.45Z" style="fill: #706672"/>
          </g>
          <rect x="65.51" y="102" width="15.45" height="4.19" style="fill: #fff;stroke: #706672;stroke-miterlimit: 10;stroke-width: 0.49810400103755px"/>
          <g>
            <path d="M70.47,104l-.18,0a.14.14,0,0,1,0,.15.43.43,0,0,0,0,.19,2.24,2.24,0,0,1,0,.73.39.39,0,0,1-.17.19.16.16,0,0,1-.19,0,.34.34,0,0,1-.15-.22c0-.07-.09-.1-.15-.15s0-.1,0-.1.15,0,.22,0a0,0,0,0,0,0,0,5.65,5.65,0,0,0,0-.72.3.3,0,0,1-.17,0,.17.17,0,0,1-.09-.13l-.18.05a.13.13,0,0,1,0,.12.19.19,0,0,1,.17,0,.44.44,0,0,1,.1.15.08.08,0,0,1,0,.12,1.1,1.1,0,0,1-.26.06v.1l.33-.11a.07.07,0,0,1,.09,0,.07.07,0,0,1,0,.09.38.38,0,0,0-.12.09.52.52,0,0,1-.15.14l-.28.16a.78.78,0,0,0-.22.12.12.12,0,0,1-.19,0,.63.63,0,0,1-.12-.23.24.24,0,0,1,0-.13s0,0,.11,0l.2,0v-.12a.29.29,0,0,1-.16,0,.31.31,0,0,1-.12-.15.1.1,0,0,1,.06-.14l.23,0s0-.07,0-.1a.28.28,0,0,1-.22,0,.29.29,0,0,1-.09-.12,1.15,1.15,0,0,1-.08.1.13.13,0,0,1,0,.15.32.32,0,0,0,0,.16c0,.18,0,.41,0,.58a.44.44,0,0,1,0,.23.13.13,0,0,1-.08.07.19.19,0,0,1-.14-.05.48.48,0,0,1-.11-.15.37.37,0,0,1,0-.21,1.75,1.75,0,0,0,0-.47l-.12,0a.59.59,0,0,0-.2,0s-.11-.09,0-.14a2.39,2.39,0,0,0,.5-.62,1,1,0,0,1-.18.1.83.83,0,0,1-.22,0,.07.07,0,0,1,0-.12,1.27,1.27,0,0,0,.39-.54c0-.09,0-.21.11-.2a.47.47,0,0,1,.22.07.29.29,0,0,1,.14.15.14.14,0,0,1-.06.14c-.06.06-.1.12-.15.18a.37.37,0,0,1,.14.07.34.34,0,0,1,.09.12.17.17,0,0,1,0,.07l.18,0v-.11c-.06,0-.1,0-.13,0a.27.27,0,0,1-.09-.12.21.21,0,0,1,0-.11.1.1,0,0,1,.06-.05l.15,0a.66.66,0,0,1,0-.14.2.2,0,0,0-.06-.13c-.07-.06,0-.13,0-.15a.73.73,0,0,1,.36.07.1.1,0,0,1,.07.15s0,.06,0,.11a.17.17,0,0,1,.17,0,.27.27,0,0,1,.06.16s0,.09,0,.1l-.2.07v.08a.33.33,0,0,1,.2,0,.16.16,0,0,1,.13.11l.48-.12a.29.29,0,0,1,.16,0,.24.24,0,0,1,.13.17C70.57,103.93,70.55,104,70.47,104Zm-.08-.63-.35.08a.21.21,0,0,1-.21-.06.48.48,0,0,1-.09-.16c0-.07,0-.12.05-.13l.37-.08a.22.22,0,0,1,.18,0,.28.28,0,0,1,.13.19A.11.11,0,0,1,70.39,103.39Z" style="fill: #706672"/>
            <path d="M74.5,104.42l-.19,0a.19.19,0,0,1-.13,0,.22.22,0,0,0-.14,0,.17.17,0,0,1-.21-.08c0,.09-.08.2-.13.27a.66.66,0,0,1,.36.06.39.39,0,0,1,.18.22.24.24,0,0,1-.07.24.2.2,0,0,1-.26,0,.16.16,0,0,0-.12,0l-.09,0c-.07,0-.13-.06-.08-.11l.08-.1a.09.09,0,0,0,0-.07.57.57,0,0,1-.11-.11,0,0,0,0,1,0,0l-.16,0s.07.07.06.11a.65.65,0,0,0,0,.2.41.41,0,0,1-.12.3.23.23,0,0,1-.17.07.25.25,0,0,1-.16-.11.74.74,0,0,0-.08-.13s-.09-.07-.15-.12a.07.07,0,0,1,0-.07.06.06,0,0,1,.07,0l.17,0s.07,0,.08-.05a.77.77,0,0,0,0-.15H73a.12.12,0,0,1-.13.05.12.12,0,0,1-.1-.09.69.69,0,0,1,0-.24l-.17.11a.37.37,0,0,1-.17.05.66.66,0,0,0-.2,0l-.14,0s-.06,0-.08,0,0-.1,0-.12a2.1,2.1,0,0,0,.62-.34.46.46,0,0,1-.16-.15.51.51,0,0,1-.09-.18.2.2,0,0,1-.13,0,.35.35,0,0,1-.12-.17.17.17,0,0,1,0-.18.82.82,0,0,0,.2-.34c0-.06.08-.07.13,0a.24.24,0,0,1,.1.12l.41-.06a.34.34,0,0,1-.09-.12.12.12,0,0,1,0-.14.24.24,0,0,1,.19-.06.55.55,0,0,1,.35.14.21.21,0,0,1,0,.1l.31-.06.15,0a.14.14,0,0,1,.11,0,1.07,1.07,0,0,1,.29.27.14.14,0,0,1,0,.11.13.13,0,0,1-.09.07,1.43,1.43,0,0,0-.43.07l0,0a.31.31,0,0,1,.13,0,.53.53,0,0,1,.16.13.08.08,0,0,1,0,.12l-.11,0-.14.09a2,2,0,0,0,.34.14.64.64,0,0,1,.3.19A.08.08,0,0,1,74.5,104.42Zm-1.93.82a.15.15,0,0,1-.19,0,.43.43,0,0,1-.11-.12.17.17,0,0,1,0-.2,1.37,1.37,0,0,0,.31-.27,0,0,0,0,1,.09,0,.37.37,0,0,1,0,.27A.57.57,0,0,1,72.57,105.24Zm.41-1.81-.19,0a.58.58,0,0,1-.19,0,.83.83,0,0,1-.13.32h.18a.21.21,0,0,1-.07-.13s0-.09.08-.09l.33,0A.25.25,0,0,0,73,103.43Zm-.26.37a.32.32,0,0,1,.09.15.37.37,0,0,0,.09-.16Zm.7.36a2,2,0,0,1-.39,0v.07l.24,0a.3.3,0,0,1,.19,0,.15.15,0,0,1,0-.06A0,0,0,0,0,73.42,104.16Zm-.37.28v.06l.2,0a.19.19,0,0,1,.15,0,.38.38,0,0,1,0-.1A1.69,1.69,0,0,1,73.05,104.44Zm.25-.65-.09.16.21,0Zm.47-.48-.32,0a.17.17,0,0,1,0,.07l.17,0a.2.2,0,0,1,.11,0l.05-.05S73.79,103.3,73.77,103.31Zm-.24.39.16.1a.84.84,0,0,0,.06-.14Z" style="fill: #706672"/>
            <path d="M78.45,104.49a1.12,1.12,0,0,0-.08.39.6.6,0,0,1-.08.29.5.5,0,0,1-.19.19.15.15,0,0,1-.13,0,.46.46,0,0,1-.14-.17s-.08-.1-.19-.17a.05.05,0,0,1,0-.08s0,0,.06,0a1.41,1.41,0,0,0,.28,0s.05,0,.06-.05a1.87,1.87,0,0,0,0-.34s0-.05,0-.05a1.4,1.4,0,0,0-.33,0,.15.15,0,0,1,.08.08.59.59,0,0,1,0,.14.14.14,0,0,1-.06.1.11.11,0,0,1-.13,0,.37.37,0,0,1-.07-.14.14.14,0,0,1,0-.11l-.09,0a.28.28,0,0,1,.08.11.32.32,0,0,1,0,.17.13.13,0,0,1-.1.1.12.12,0,0,1-.11-.08.44.44,0,0,1,0-.3.38.38,0,0,1-.13-.18.24.24,0,0,1,0-.12.35.35,0,0,0,0-.13v-.44a2.29,2.29,0,0,1,0-.25.59.59,0,0,0,0,.19,2.71,2.71,0,0,1-.06.55.17.17,0,0,1-.11.11.11.11,0,0,1-.11,0,.4.4,0,0,0-.11,0c0,.16,0,.3,0,.47a.89.89,0,0,1,0,.36.17.17,0,0,1-.09.12.11.11,0,0,1-.13,0,.37.37,0,0,1-.11-.2.49.49,0,0,1,0-.12,1.49,1.49,0,0,1,0-.21c0-.12,0-.25,0-.37a.23.23,0,0,0-.12.08.07.07,0,0,1-.11,0,.13.13,0,0,1-.09-.11,4.63,4.63,0,0,1-.06-.55,1.29,1.29,0,0,0-.09-.45.16.16,0,0,1,0-.13.11.11,0,0,1,.09,0,.82.82,0,0,1,.21,0,2.78,2.78,0,0,0,.42-.06.33.33,0,0,0,.16-.07.17.17,0,0,1,.17,0,.46.46,0,0,1,.17.15l.21,0c0-.09,0-.17.07-.25a.12.12,0,0,1,0-.11.11.11,0,0,1,.1,0,.49.49,0,0,1,.35.11s0,.07,0,.09a1.24,1.24,0,0,0-.21.2,1,1,0,0,0,.23-.09.11.11,0,0,1,.11,0,.79.79,0,0,1,.25.19.08.08,0,0,1,0,.12.47.47,0,0,0-.1.16.79.79,0,0,1-.11.28.21.21,0,0,1,0,.06.2.2,0,0,1,.11,0,.18.18,0,0,1,.08.09s0,.08,0,.09l-.44.07h-.18v.07l.41-.06.12,0a.13.13,0,0,1,.11,0,.67.67,0,0,1,.28.17.08.08,0,0,1,0,0A.12.12,0,0,1,78.45,104.49Zm-2-1h-.09s0,.15,0,.18l.08,0S76.44,103.51,76.44,103.48Zm0,.45h-.07a.92.92,0,0,1,0,.16l.07,0A.76.76,0,0,0,76.45,103.93Zm.29-.05a.86.86,0,0,0,0,.16h.07a1,1,0,0,1,0-.17Zm.09-.47-.08,0a.81.81,0,0,1,0,.15.41.41,0,0,1,.11,0s0-.12,0-.14A0,0,0,0,0,76.83,103.41Zm.32,1.57a.2.2,0,0,1-.15.09.17.17,0,0,1-.14-.07.2.2,0,0,1,0-.21.57.57,0,0,0,.11-.25s.06,0,.09,0a.3.3,0,0,1,.09.46Zm.67-1.53a.92.92,0,0,1-.29,0v.07l.18,0a.15.15,0,0,1,.12,0s0,0,0-.07A0,0,0,0,0,77.82,103.45Zm-.17.25h-.11v.07a1.81,1.81,0,0,1,.25,0,.43.43,0,0,0,0,0Zm.15.26-.25,0V104l.27-.05S77.8,104,77.8,104Zm.13.86s-.06,0-.09,0a.3.3,0,0,1,0-.1.22.22,0,0,1,0-.14,0,0,0,0,1,.06,0,.22.22,0,0,1,.11.1.14.14,0,0,1,0,.11A.08.08,0,0,1,77.93,104.82Z" style="fill: #706672"/>
          </g>
        </g>
        <g>
          <rect x="52.58" y="108.74" width="4.79" height="7.11" transform="translate(109.96 224.58) rotate(-180)" style="fill: #b4cab7"/>
          <rect x="37.6" y="109.28" width="4.22" height="5.81" style="fill: #b4cab7"/>
          <g>
            <rect x="32.67" y="104.15" width="5.8" height="0.75" style="fill: #706672;stroke: #fff;stroke-miterlimit: 10;stroke-width: 0.043440558245372px"/>
            <g>
              <line x1="33.12" y1="104.15" x2="33.12" y2="104.9" style="fill: none;stroke: #fff;stroke-miterlimit: 10;stroke-width: 0.043440558245372px"/>
              <line x1="34.14" y1="104.15" x2="34.14" y2="104.9" style="fill: none;stroke: #fff;stroke-miterlimit: 10;stroke-width: 0.043440558245372px"/>
              <line x1="35.17" y1="104.15" x2="35.17" y2="104.9" style="fill: none;stroke: #fff;stroke-miterlimit: 10;stroke-width: 0.043440558245372px"/>
              <line x1="36.2" y1="104.15" x2="36.2" y2="104.9" style="fill: none;stroke: #fff;stroke-miterlimit: 10;stroke-width: 0.043440558245372px"/>
              <line x1="37.22" y1="104.15" x2="37.22" y2="104.9" style="fill: none;stroke: #fff;stroke-miterlimit: 10;stroke-width: 0.043440558245372px"/>
            </g>
            <rect x="32.67" y="104.46" width="5.8" height="0.13" style="fill: #fff"/>
          </g>
          <g>
            <rect x="54.1" y="104.15" width="5.8" height="0.75" style="fill: #706672;stroke: #fff;stroke-miterlimit: 10;stroke-width: 0.043440558245372px"/>
            <g>
              <line x1="54.55" y1="104.15" x2="54.55" y2="104.9" style="fill: none;stroke: #fff;stroke-miterlimit: 10;stroke-width: 0.043440558245372px"/>
              <line x1="55.58" y1="104.15" x2="55.58" y2="104.9" style="fill: none;stroke: #fff;stroke-miterlimit: 10;stroke-width: 0.043440558245372px"/>
              <line x1="56.6" y1="104.15" x2="56.6" y2="104.9" style="fill: none;stroke: #fff;stroke-miterlimit: 10;stroke-width: 0.043440558245372px"/>
              <line x1="57.63" y1="104.15" x2="57.63" y2="104.9" style="fill: none;stroke: #fff;stroke-miterlimit: 10;stroke-width: 0.043440558245372px"/>
              <line x1="58.65" y1="104.15" x2="58.65" y2="104.9" style="fill: none;stroke: #fff;stroke-miterlimit: 10;stroke-width: 0.043440558245372px"/>
            </g>
            <rect x="54.1" y="104.46" width="5.8" height="0.13" style="fill: #fff"/>
          </g>
          <rect x="42.14" y="104.15" width="8.44" height="0.75" style="fill: #706672;stroke: #fff;stroke-miterlimit: 10;stroke-width: 0.043440558245372px"/>
          <polygon points="41.45 103.78 41.45 104.3 40.71 104.3 40.71 103.78 40.04 103.78 40.04 104.3 39.29 104.3 39.29 103.78 38.6 103.78 38.6 104.9 42.14 104.9 42.14 103.78 41.45 103.78" style="fill: #d14d65"/>
          <polygon points="53.43 103.78 53.43 104.3 52.68 104.3 52.68 103.78 52.01 103.78 52.01 104.3 51.26 104.3 51.26 103.78 50.58 103.78 50.58 104.9 54.11 104.9 54.11 103.78 53.43 103.78" style="fill: #d14d65"/>
          <rect x="46.62" y="109.28" width="4.79" height="5.81" transform="translate(98.03 224.38) rotate(-180)" style="fill: #b4cab7"/>
          <rect x="31.07" y="108.74" width="4.79" height="7.11" transform="translate(66.93 224.58) rotate(-180)" style="fill: #b4cab7"/>
          <rect x="41.82" y="109.28" width="4.8" height="5.81" style="fill: #b4cab7"/>
          <rect x="42.7" y="109.91" width="3.05" height="5.21" style="fill: #d14d65"/>
          <rect x="43.52" y="111.41" width="1.4" height="3.65" style="fill: #706672"/>
          <rect x="43.7" y="111.66" width="1.05" height="3.46" style="fill: #b4cab7"/>
          <rect x="35.89" y="108.74" width="0.86" height="7.1" style="fill: #e5d0a1"/>
          <polygon points="37.6 115.09 36.75 115.84 36.75 108.74 37.6 108.74 37.6 115.09" style="fill: #f69463"/>
          <rect x="36.09" y="108.94" width="0.47" height="1.51" style="fill: #706672"/>
          <rect x="30.18" y="108.74" width="0.86" height="7.1" style="fill: #e5d0a1"/>
          <rect x="31.04" y="108.74" width="0.82" height="6.76" style="fill: #f69463"/>
          <rect x="30.38" y="108.94" width="0.47" height="1.51" style="fill: #706672"/>
          <rect x="57.4" y="108.74" width="0.86" height="7.1" style="fill: #e5d0a1"/>
          <rect x="57.59" y="108.94" width="0.47" height="1.51" style="fill: #706672"/>
          <rect x="51.72" y="108.74" width="0.86" height="7.1" transform="translate(104.29 224.58) rotate(-180)" style="fill: #e5d0a1"/>
          <rect x="51.91" y="108.94" width="0.47" height="1.51" transform="translate(104.29 219.39) rotate(-180)" style="fill: #706672"/>
          <rect x="36.75" y="108.74" width="14.97" height="0.55" style="fill: #fff"/>
          <polygon points="30.18 108.74 58.23 108.74 60.19 104.9 32.34 104.9 30.18 108.74" style="fill: #706672"/>
          <polygon points="51.72 115.47 36.73 115.47 37.6 115.1 51.72 115.1 51.72 115.47" style="fill: #fff"/>
          <polygon points="35.89 115.47 31.04 115.47 31.92 115.1 35.89 115.1 35.89 115.47" style="fill: #fff"/>
          <g>
            <line x1="32.87" y1="105.35" x2="31.38" y2="108.14" style="fill: none;stroke: #fff;stroke-miterlimit: 10;stroke-width: 0.043440558245372px"/>
            <line x1="33.85" y1="105.35" x2="32.35" y2="108.13" style="fill: none;stroke: #fff;stroke-miterlimit: 10;stroke-width: 0.043440558245372px"/>
            <line x1="34.83" y1="105.35" x2="33.33" y2="108.12" style="fill: none;stroke: #fff;stroke-miterlimit: 10;stroke-width: 0.043440558245372px"/>
            <line x1="35.8" y1="105.35" x2="34.31" y2="108.12" style="fill: none;stroke: #fff;stroke-miterlimit: 10;stroke-width: 0.043440558245372px"/>
            <line x1="36.78" y1="105.35" x2="35.29" y2="108.11" style="fill: none;stroke: #fff;stroke-miterlimit: 10;stroke-width: 0.043440558245372px"/>
            <line x1="37.75" y1="105.35" x2="36.27" y2="108.1" style="fill: none;stroke: #fff;stroke-miterlimit: 10;stroke-width: 0.043440558245372px"/>
            <line x1="38.73" y1="105.35" x2="37.25" y2="108.09" style="fill: none;stroke: #fff;stroke-miterlimit: 10;stroke-width: 0.043440558245372px"/>
            <line x1="39.7" y1="105.35" x2="38.22" y2="108.09" style="fill: none;stroke: #fff;stroke-miterlimit: 10;stroke-width: 0.043440558245372px"/>
            <line x1="40.68" y1="105.35" x2="39.2" y2="108.08" style="fill: none;stroke: #fff;stroke-miterlimit: 10;stroke-width: 0.043440558245372px"/>
            <line x1="41.65" y1="105.35" x2="40.18" y2="108.07" style="fill: none;stroke: #fff;stroke-miterlimit: 10;stroke-width: 0.043440558245372px"/>
            <line x1="42.63" y1="105.35" x2="41.16" y2="108.06" style="fill: none;stroke: #fff;stroke-miterlimit: 10;stroke-width: 0.043440558245372px"/>
            <line x1="43.61" y1="105.35" x2="42.14" y2="108.05" style="fill: none;stroke: #fff;stroke-miterlimit: 10;stroke-width: 0.043440558245372px"/>
            <line x1="44.58" y1="105.35" x2="43.12" y2="108.05" style="fill: none;stroke: #fff;stroke-miterlimit: 10;stroke-width: 0.043440558245372px"/>
            <line x1="45.56" y1="105.35" x2="44.09" y2="108.04" style="fill: none;stroke: #fff;stroke-miterlimit: 10;stroke-width: 0.043440558245372px"/>
            <line x1="46.53" y1="105.35" x2="45.07" y2="108.03" style="fill: none;stroke: #fff;stroke-miterlimit: 10;stroke-width: 0.043440558245372px"/>
            <line x1="47.51" y1="105.35" x2="46.05" y2="108.02" style="fill: none;stroke: #fff;stroke-miterlimit: 10;stroke-width: 0.043440558245372px"/>
            <line x1="48.48" y1="105.35" x2="47.03" y2="108.01" style="fill: none;stroke: #fff;stroke-miterlimit: 10;stroke-width: 0.043440558245372px"/>
            <line x1="49.46" y1="105.35" x2="48.01" y2="108.01" style="fill: none;stroke: #fff;stroke-miterlimit: 10;stroke-width: 0.043440558245372px"/>
            <line x1="50.44" y1="105.35" x2="48.99" y2="108" style="fill: none;stroke: #fff;stroke-miterlimit: 10;stroke-width: 0.043440558245372px"/>
            <line x1="51.41" y1="105.35" x2="49.96" y2="107.99" style="fill: none;stroke: #fff;stroke-miterlimit: 10;stroke-width: 0.043440558245372px"/>
            <line x1="52.39" y1="105.35" x2="50.94" y2="107.98" style="fill: none;stroke: #fff;stroke-miterlimit: 10;stroke-width: 0.043440558245372px"/>
            <line x1="53.36" y1="105.35" x2="51.92" y2="107.98" style="fill: none;stroke: #fff;stroke-miterlimit: 10;stroke-width: 0.043440558245372px"/>
            <line x1="54.34" y1="105.35" x2="52.9" y2="107.97" style="fill: none;stroke: #fff;stroke-miterlimit: 10;stroke-width: 0.043440558245372px"/>
            <line x1="55.31" y1="105.35" x2="53.88" y2="107.96" style="fill: none;stroke: #fff;stroke-miterlimit: 10;stroke-width: 0.043440558245372px"/>
            <line x1="56.29" y1="105.35" x2="54.86" y2="107.95" style="fill: none;stroke: #fff;stroke-miterlimit: 10;stroke-width: 0.043440558245372px"/>
            <line x1="57.26" y1="105.35" x2="55.83" y2="107.94" style="fill: none;stroke: #fff;stroke-miterlimit: 10;stroke-width: 0.043440558245372px"/>
            <line x1="58.24" y1="105.35" x2="56.81" y2="107.94" style="fill: none;stroke: #fff;stroke-miterlimit: 10;stroke-width: 0.043440558245372px"/>
            <line x1="59.22" y1="105.35" x2="57.79" y2="107.93" style="fill: none;stroke: #fff;stroke-miterlimit: 10;stroke-width: 0.043440558245372px"/>
          </g>
          <g>
            <circle cx="31.27" cy="108.37" r="0.16" style="fill: #e5d0a1"/>
            <circle cx="32.33" cy="108.37" r="0.16" style="fill: #e5d0a1"/>
            <circle cx="33.39" cy="108.37" r="0.16" style="fill: #e5d0a1"/>
            <circle cx="34.45" cy="108.37" r="0.16" style="fill: #e5d0a1"/>
            <circle cx="35.51" cy="108.37" r="0.16" style="fill: #e5d0a1"/>
            <circle cx="36.58" cy="108.37" r="0.16" style="fill: #e5d0a1"/>
            <circle cx="37.64" cy="108.37" r="0.16" style="fill: #e5d0a1"/>
            <circle cx="38.7" cy="108.37" r="0.16" style="fill: #e5d0a1"/>
            <circle cx="39.76" cy="108.37" r="0.16" style="fill: #e5d0a1"/>
            <circle cx="40.82" cy="108.37" r="0.16" style="fill: #e5d0a1"/>
            <circle cx="41.88" cy="108.37" r="0.16" style="fill: #e5d0a1"/>
            <circle cx="42.94" cy="108.37" r="0.16" style="fill: #e5d0a1"/>
            <circle cx="44" cy="108.37" r="0.16" style="fill: #e5d0a1"/>
            <circle cx="45.06" cy="108.37" r="0.16" style="fill: #e5d0a1"/>
            <circle cx="46.12" cy="108.37" r="0.16" style="fill: #e5d0a1"/>
            <circle cx="47.18" cy="108.37" r="0.16" style="fill: #e5d0a1"/>
            <circle cx="48.24" cy="108.37" r="0.16" style="fill: #e5d0a1"/>
            <circle cx="49.3" cy="108.37" r="0.16" style="fill: #e5d0a1"/>
            <circle cx="50.37" cy="108.37" r="0.16" style="fill: #e5d0a1"/>
            <circle cx="51.43" cy="108.37" r="0.16" style="fill: #e5d0a1"/>
            <circle cx="52.49" cy="108.37" r="0.16" style="fill: #e5d0a1"/>
            <circle cx="53.55" cy="108.37" r="0.16" style="fill: #e5d0a1"/>
            <circle cx="54.61" cy="108.37" r="0.16" style="fill: #e5d0a1"/>
            <circle cx="55.67" cy="108.37" r="0.16" style="fill: #e5d0a1"/>
            <circle cx="56.73" cy="108.37" r="0.16" style="fill: #e5d0a1"/>
            <circle cx="57.79" cy="108.37" r="0.16" style="fill: #e5d0a1"/>
          </g>
          <rect x="36.75" y="109.28" width="0.3" height="6.18" style="fill: #706672"/>
          <rect x="51.41" y="109.28" width="0.3" height="5.81" style="fill: #706672"/>
          <g>
            <polygon points="42.31 115.5 41.34 115.5 41.58 115.26 41.51 115.11 41.51 109.28 42.14 109.28 42.14 115.11 42.07 115.24 42.31 115.5" style="fill: #706672"/>
            <rect x="41.73" y="109.28" width="0.19" height="1.26" style="fill: #f69463"/>
            <rect x="41.73" y="109.91" width="0.19" height="0.63" style="fill: #e5d0a1"/>
          </g>
          <rect x="41.39" y="113.77" width="0.86" height="0.24" style="fill: #706672;stroke: #e5d0a1;stroke-miterlimit: 10;stroke-width: 0.043440558245372px"/>
          <rect x="41.39" y="114.17" width="0.86" height="0.24" style="fill: #706672;stroke: #e5d0a1;stroke-miterlimit: 10;stroke-width: 0.043440558245372px"/>
          <g>
            <g>
              <polygon points="47.11 115.5 46.13 115.5 46.38 115.26 46.31 115.11 46.31 109.28 46.94 109.28 46.94 115.11 46.87 115.24 47.11 115.5" style="fill: #706672"/>
              <rect x="46.53" y="109.28" width="0.19" height="1.26" style="fill: #f69463"/>
              <rect x="46.53" y="109.91" width="0.19" height="0.63" style="fill: #e5d0a1"/>
            </g>
            <rect x="46.19" y="113.77" width="0.86" height="0.24" style="fill: #706672;stroke: #e5d0a1;stroke-miterlimit: 10;stroke-width: 0.043440558245372px"/>
            <rect x="46.19" y="114.17" width="0.86" height="0.24" style="fill: #706672;stroke: #e5d0a1;stroke-miterlimit: 10;stroke-width: 0.043440558245372px"/>
          </g>
          <path d="M40.65,110.06h0a.24.24,0,0,0-.21-.26H38.11a.24.24,0,0,0-.2.26h0a.24.24,0,0,1-.21.26h-.65v.52h1a.24.24,0,0,0,.2-.26h0a.24.24,0,0,1,.21-.26h1.68a.24.24,0,0,1,.21.26h0a.24.24,0,0,0,.2.26h1v-.52h-.66A.24.24,0,0,1,40.65,110.06Z" style="fill: #706672"/>
          <path d="M37.15,111.79h-.1v-1h.66V111a.38.38,0,0,1-.12.29l-.13.13h0A.34.34,0,0,1,37.15,111.79Z" style="fill: #f69463;stroke: #fff;stroke-miterlimit: 10;stroke-width: 0.043440558245372px"/>
          <path d="M41.41,111.79h.1v-1h-.66V111a.38.38,0,0,0,.12.29l.13.13h0A.35.35,0,0,0,41.41,111.79Z" style="fill: #f69463;stroke: #fff;stroke-miterlimit: 10;stroke-width: 0.043440558245372px"/>
          <path d="M50.54,110.06h0a.25.25,0,0,0-.21-.26H48a.24.24,0,0,0-.2.26h0a.24.24,0,0,1-.21.26h-.65v.52h1a.24.24,0,0,0,.21-.26h0a.24.24,0,0,1,.2-.26H50a.25.25,0,0,1,.21.26h0a.24.24,0,0,0,.2.26h1v-.52h-.65A.24.24,0,0,1,50.54,110.06Z" style="fill: #706672"/>
          <path d="M47,111.79h-.1v-1h.66V111a.38.38,0,0,1-.12.29l-.13.13h0A.35.35,0,0,1,47,111.79Z" style="fill: #f69463;stroke: #fff;stroke-miterlimit: 10;stroke-width: 0.043440558245372px"/>
          <path d="M51.3,111.79h.1v-1h-.66V111a.38.38,0,0,0,.12.29l.13.13h0A.34.34,0,0,0,51.3,111.79Z" style="fill: #f69463;stroke: #fff;stroke-miterlimit: 10;stroke-width: 0.043440558245372px"/>
          <path d="M44,104.1a1.17,1.17,0,0,1-.78.1,1,1,0,0,1-.37-.16.41.41,0,0,1-.17-.27.35.35,0,0,1,.12-.3.87.87,0,0,1,.41-.19,1.18,1.18,0,0,1,.53,0,1,1,0,0,1,.42.19c.18.15.27.29.4.35a.72.72,0,0,0,.22.08.58.58,0,0,0,.23,0,.32.32,0,0,0,.16-.1.2.2,0,0,0,0-.18.5.5,0,0,0-.18-.17l-.28-.16a2.37,2.37,0,0,1,.36.09,1.09,1.09,0,0,1,.32.17.32.32,0,0,1,.12.28.42.42,0,0,1-.27.27l-.23.07h-.27a1.12,1.12,0,0,1-.46-.12,2.4,2.4,0,0,1-.5-.39.34.34,0,0,0-.18-.09.41.41,0,0,0-.22,0,.52.52,0,0,0-.2.07.24.24,0,0,0-.09.14.22.22,0,0,0,0,.17.45.45,0,0,0,.2.14A1.19,1.19,0,0,0,44,104.1Z" style="fill: #f69463"/>
          <path d="M48.54,104.1a1.19,1.19,0,0,0,.79.1,1,1,0,0,0,.37-.16.5.5,0,0,0,.17-.27.36.36,0,0,0-.13-.3.79.79,0,0,0-.4-.19,1.18,1.18,0,0,0-.53,0,1,1,0,0,0-.42.19c-.18.15-.27.29-.4.35a.72.72,0,0,1-.22.08.58.58,0,0,1-.23,0,.28.28,0,0,1-.16-.1.19.19,0,0,1,0-.18.64.64,0,0,1,.19-.17,1.87,1.87,0,0,1,.28-.16,2.22,2.22,0,0,0-.37.09,1,1,0,0,0-.31.17.32.32,0,0,0-.12.28c0,.11.12.21.26.27l.24.07h.26a1.12,1.12,0,0,0,.47-.12,2.29,2.29,0,0,0,.49-.39.43.43,0,0,1,.18-.09.45.45,0,0,1,.23,0,.52.52,0,0,1,.2.07.24.24,0,0,1,.09.14.22.22,0,0,1,0,.17.51.51,0,0,1-.2.14A1.22,1.22,0,0,1,48.54,104.1Z" style="fill: #f69463"/>
          <rect x="36.73" y="115.47" width="14.99" height="0.38" style="fill: #f69463"/>
          <rect x="31.04" y="115.47" width="4.85" height="0.38" style="fill: #f69463"/>
          <g>
            <ellipse cx="42.75" cy="111.05" rx="0.05" ry="0.07" style="fill: #f69463"/>
            <g>
              <rect x="42.28" y="109.68" width="0.95" height="1.22" rx="0.42" style="fill: #fff"/>
              <path d="M42.8,109.71a.4.4,0,0,1,.41.4v.37a.4.4,0,0,1-.41.4h-.1a.4.4,0,0,1-.4-.4v-.37a.4.4,0,0,1,.4-.4h.1m0,0h-.1a.44.44,0,0,0-.44.45v.37a.44.44,0,0,0,.44.45h.1a.45.45,0,0,0,.45-.45v-.37a.45.45,0,0,0-.45-.45Z" style="fill: #f69463"/>
            </g>
            <path d="M42.94,110.93a.12.12,0,0,1-.13.11H42.7a.13.13,0,0,1-.14-.11" style="fill: #d14d65"/>
          </g>
          <g>
            <ellipse cx="39.28" cy="111.7" rx="0.05" ry="0.07" style="fill: #f69463"/>
            <g>
              <rect x="38.81" y="110.33" width="0.95" height="1.22" rx="0.42" style="fill: #fff"/>
              <path d="M39.33,110.35a.4.4,0,0,1,.4.41v.37a.4.4,0,0,1-.4.4h-.1a.4.4,0,0,1-.4-.4v-.37a.4.4,0,0,1,.4-.41h.1m0,0h-.1a.45.45,0,0,0-.45.45v.37a.45.45,0,0,0,.45.44h.1a.45.45,0,0,0,.45-.44v-.37a.45.45,0,0,0-.45-.45Z" style="fill: #f69463"/>
            </g>
            <path d="M39.47,111.57a.12.12,0,0,1-.13.11h-.11a.13.13,0,0,1-.14-.11" style="fill: #d14d65"/>
          </g>
          <g>
            <ellipse cx="49.18" cy="111.7" rx="0.05" ry="0.07" style="fill: #f69463"/>
            <g>
              <rect x="48.7" y="110.33" width="0.95" height="1.22" rx="0.42" style="fill: #fff"/>
              <path d="M49.23,110.35a.4.4,0,0,1,.4.41v.37a.4.4,0,0,1-.4.4h-.1a.4.4,0,0,1-.4-.4v-.37a.4.4,0,0,1,.4-.41h.1m0,0h-.1a.45.45,0,0,0-.45.45v.37a.45.45,0,0,0,.45.44h.1a.45.45,0,0,0,.45-.44v-.37a.45.45,0,0,0-.45-.45Z" style="fill: #f69463"/>
            </g>
            <path d="M49.37,111.57a.13.13,0,0,1-.14.11h-.1a.13.13,0,0,1-.14-.11" style="fill: #d14d65"/>
          </g>
          <g>
            <ellipse cx="45.75" cy="111.05" rx="0.05" ry="0.07" style="fill: #f69463"/>
            <g>
              <rect x="45.27" y="109.68" width="0.95" height="1.22" rx="0.42" style="fill: #fff"/>
              <path d="M45.8,109.71a.4.4,0,0,1,.4.4v.37a.4.4,0,0,1-.4.4h-.1a.41.41,0,0,1-.41-.4v-.37a.41.41,0,0,1,.41-.4h.1m0,0h-.1a.45.45,0,0,0-.45.45v.37a.45.45,0,0,0,.45.45h.1a.45.45,0,0,0,.45-.45v-.37a.45.45,0,0,0-.45-.45Z" style="fill: #f69463"/>
            </g>
            <path d="M45.94,110.93a.13.13,0,0,1-.14.11h-.11a.12.12,0,0,1-.13-.11" style="fill: #d14d65"/>
          </g>
          <g>
            <rect x="43.77" y="111.66" width="0.18" height="0.43" style="fill: #d14d65"/>
            <rect x="44.01" y="111.66" width="0.18" height="0.43" style="fill: #d14d65"/>
            <rect x="44.26" y="111.66" width="0.18" height="0.43" style="fill: #d14d65"/>
            <rect x="44.5" y="111.66" width="0.18" height="0.43" style="fill: #d14d65"/>
          </g>
          <rect x="52.57" y="108.74" width="0.82" height="6.76" style="fill: #f69463"/>
          <polygon points="57.42 115.47 52.57 115.47 53.45 115.1 57.42 115.1 57.42 115.47" style="fill: #fff"/>
          <rect x="52.57" y="115.47" width="4.85" height="0.38" style="fill: #f69463"/>
          <rect x="54.63" y="110.96" width="1.97" height="4.14" style="fill: #e5d0a1"/>
          <rect x="54.78" y="111.13" width="1.65" height="3.8" style="fill: #706672"/>
          <rect x="52.78" y="108.74" width="4.58" height="0.55" style="fill: #fff"/>
          <g>
            <line x1="54.78" y1="111.36" x2="56.44" y2="111.36" style="fill: none;stroke: #f69463;stroke-miterlimit: 10;stroke-width: 0.043440558245372px"/>
            <line x1="54.78" y1="111.62" x2="56.44" y2="111.62" style="fill: none;stroke: #f69463;stroke-miterlimit: 10;stroke-width: 0.043440558245372px"/>
            <line x1="54.78" y1="111.88" x2="56.44" y2="111.88" style="fill: none;stroke: #f69463;stroke-miterlimit: 10;stroke-width: 0.043440558245372px"/>
          </g>
          <line x1="55.61" y1="114.93" x2="55.61" y2="111.13" style="fill: none;stroke: #f69463;stroke-miterlimit: 10;stroke-width: 0.043440558245372px"/>
          <g>
            <circle cx="55.3" cy="113.03" r="0.13" style="fill: #e5d0a1"/>
            <circle cx="55.91" cy="113.03" r="0.13" style="fill: #e5d0a1"/>
          </g>
          <g>
            <rect x="33.12" y="110.96" width="1.97" height="4.14" style="fill: #e5d0a1"/>
            <rect x="33.28" y="111.13" width="1.65" height="3.8" style="fill: #706672"/>
            <rect x="31.27" y="108.74" width="4.58" height="0.55" style="fill: #fff"/>
            <g>
              <line x1="33.28" y1="111.36" x2="34.93" y2="111.36" style="fill: none;stroke: #f69463;stroke-miterlimit: 10;stroke-width: 0.043440558245372px"/>
              <line x1="33.28" y1="111.62" x2="34.93" y2="111.62" style="fill: none;stroke: #f69463;stroke-miterlimit: 10;stroke-width: 0.043440558245372px"/>
              <line x1="33.28" y1="111.88" x2="34.93" y2="111.88" style="fill: none;stroke: #f69463;stroke-miterlimit: 10;stroke-width: 0.043440558245372px"/>
            </g>
            <line x1="34.1" y1="114.93" x2="34.1" y2="111.13" style="fill: none;stroke: #f69463;stroke-miterlimit: 10;stroke-width: 0.043440558245372px"/>
            <g>
              <circle cx="33.8" cy="113.03" r="0.13" style="fill: #e5d0a1"/>
              <circle cx="34.41" cy="113.03" r="0.13" style="fill: #e5d0a1"/>
            </g>
          </g>
          <g>
            <polygon points="32.67 104.9 32.67 103.79 30.5 107.62 30.5 108.74 32.67 104.9" style="fill: #fff"/>
            <rect x="30.18" y="107.62" width="0.32" height="1.12" style="fill: #f69463"/>
            <polygon points="30.18 107.62 32.34 103.79 32.67 103.79 30.5 107.62 30.18 107.62" style="fill: #e5d0a1"/>
          </g>
          <g>
            <polygon points="38.63 104.9 38.63 103.79 36.46 107.62 36.46 108.74 38.63 104.9" style="fill: #fff"/>
            <rect x="36.14" y="107.62" width="0.32" height="1.12" style="fill: #f69463"/>
            <polygon points="36.14 107.62 38.3 103.79 38.63 103.79 36.46 107.62 36.14 107.62" style="fill: #e5d0a1"/>
          </g>
          <g>
            <polygon points="54.1 104.9 54.1 103.79 51.94 107.62 51.94 108.74 54.1 104.9" style="fill: #fff"/>
            <rect x="51.61" y="107.62" width="0.32" height="1.12" style="fill: #f69463"/>
            <polygon points="51.61 107.62 53.77 103.79 54.1 103.79 51.94 107.62 51.61 107.62" style="fill: #e5d0a1"/>
          </g>
          <g>
            <circle cx="46.36" cy="102.77" r="0.56" style="fill: #d14d65"/>
            <rect x="45.85" y="103.33" width="1.02" height="0.31" rx="0.15" style="fill: #f69463"/>
            <rect x="46.1" y="103.63" width="0.51" height="0.51" style="fill: #e5d0a1"/>
          </g>
          <polygon points="58.27 108.74 60.43 104.9 62.1 106.34 62.1 113.45 58.25 115.84 58.27 108.74" style="fill: #fff"/>
          <polygon points="58.27 110.37 60.62 106.26 62.1 107.62 62.1 106.34 60.43 104.9 58.27 108.74 58.27 110.37" style="fill: #706672"/>
          <polygon points="60.43 103.79 62.1 105.49 62.1 106.64 60.43 104.92 60.43 103.79" style="fill: #fff"/>
          <g>
            <path d="M37,115.53h4.57v-3.3H37Zm.12-.58h.59v.25H38v.21h-.84Zm3.63-2.11h-.13v-.14h.13ZM37.82,115H38v.13h-.13Zm0-1H38v.14h-.13Zm.5-.74V113H39v.25h.25v.13H38.07v-.13Zm-.25-.12V113h.14v.13Zm1.41-.25h-.14v-.14h.14Zm.87.12h.14v.13h-.14Zm.14.25v.13H39.34v-.13h.26V113h.64v.25Zm.25.63h-.13v-.14h.13Zm-.5.74v.25H39.6v-.25h-.26v-.13h1.15v.13Zm.25.12v.13h-.14v-.13Zm-1.4.25h.13v.13h-.13Zm0-.12v-.13h.13v.13Zm.25.12h.14v.13h-.14Zm0-.12v-.13h.14v.13Zm0-.5v-.12h.26V114h.64v.26h.25v.12Zm-.25-.38h.13v.14h-.13Zm.39-.11h-.14v-.14h.14Zm-.26,0h-.13v-.14h.13Zm.12.11h.14v.14h-.14Zm1,.14V114h.14v.14Zm.26-.14h.13v.14h-.13Zm-.12-.11h-.14v-.14h.14Zm-.25-.26v.26H39.6v-.26h-.26v-.12h1.15v.12Zm-.76-.49h-.14V113h.14Zm-.26-.25h-.13v-.14h.13Zm0,.12v.13h-.13V113Zm0,.5v.12H39v.26h-.65v-.26h-.25v-.12Zm-1,.24v.14h-.14v-.14Zm-.26.14h-.13v-.14H38Zm.12.11h.14v.14h-.14Zm.25.26V114H39v.26h.25v.12H38.07v-.12Zm.9.24v.13H39v.25h-.65v-.25h-.25v-.13Zm-1,.25v.13h-.14v-.13Zm-.26.13h-.13v-.13H38Zm.12.12h.14v.13h-.14Zm.25.25V115H39v.25h.25v.21H38.07v-.21Zm1,0h.26V115h.64v.25h.25v.21H39.34Zm1-.12V115h.14v.13Zm.26-.13h.13v.13h-.13Zm0-.12v-.13h.13v.13Zm0-.25v-.13h.84v.38h-.59v-.25Zm0-.25v-.12h.25V114h.59v.38Zm.25-.49v-.26h-.25v-.12h.84v.38Zm-.25-.5v-.13h.25V113h.59v.38Zm.13-.25h-.13V113h.13Zm-.25-.25h-.14v-.14h.14Zm-.25-.25v.25H39.6v-.25h-.26v-.24h1.15v.24Zm-1,0H39v.25h-.65v-.25h-.25v-.24h1.15Zm-1,.11v.14h-.14v-.14Zm-.26.14h-.13v-.14H38Zm0,.12v.13h-.13V113Zm0,.25v.13h-.84V113h.59v.25Zm0,.25v.12H37.7v.26h-.59v-.38Zm-.25.49v.26H38v.12h-.84V114Zm.25.5v.13H37.7v.25h-.59v-.38Zm2.66,1v-.21h.25V115h.59v.46Zm.84-2.57h-.59v-.25h-.25v-.24h.84Zm-3.5-.49v.24H37.7v.25h-.59v-.49Z" style="fill: #706672;stroke: #e5d0a1;stroke-miterlimit: 10;stroke-width: 0.021720279122685px"/>
            <path d="M46.88,112.23v3.3h4.57v-3.3Zm4.46.61h-.59v-.25H50.5v-.24h.84ZM47.71,115h.13v.13h-.13Zm2.92-2.11H50.5v-.14h.13Zm0,1H50.5v-.14h.13Zm-.5.74v.25h-.64v-.25h-.26v-.13h1.15v.13Zm.25.12v.13h-.14v-.13ZM49,115h.13v.13H49Zm-.88-.12H48v-.13h.14Zm-.14-.25v-.13h1.15v.13h-.25v.25h-.65v-.25Zm-.25-.63h.13v.14h-.13Zm.5-.74V113h.65v.25h.25v.13H48v-.13Zm-.25-.12V113h.14v.13Zm1.41-.25h-.14v-.14h.14Zm0,.12v.13h-.14V113Zm-.26-.12H49v-.14h.13Zm0,.12v.13H49V113Zm0,.5v.12h-.25v.26h-.65v-.26H48v-.12Zm.26.38h-.14v-.14h.14ZM49,114h.13v.14H49Zm.25,0h.14v.14h-.14Zm-.12-.11H49v-.14h.13Zm-1-.14v.14H48v-.14Zm-.26.14h-.13v-.14h.13ZM48,114h.14v.14H48Zm.25.26V114h.65v.26h.25v.12H48v-.12Zm.77.49h.13v.13H49Zm.25.25h.14v.13h-.14Zm0-.12v-.13h.14v.13Zm0-.5v-.12h.26V114h.64v.26h.25v.12Zm1-.24V114h.14v.14Zm.26-.14h.13v.14H50.5Zm-.12-.11h-.14v-.14h.14Zm-.25-.26v.26h-.64v-.26h-.26v-.12h1.15v.12Zm-.9-.24v-.13h.26V113h.64v.25h.25v.13Zm1-.25V113h.14v.13Zm.26-.13h.13v.13H50.5Zm-.12-.12h-.14v-.14h.14Zm-.25-.25v.25h-.64v-.25h-.26v-.24h1.15v.24Zm-1,0h-.25v.25h-.65v-.25H48v-.24h1.15Zm-1,.11v.14H48v-.14Zm-.26.14h-.13v-.14h.13Zm0,.12v.13h-.13V113Zm0,.25v.13H47V113h.59v.25Zm0,.25v.12h-.25v.26H47v-.38Zm-.25.49v.26h.25v.12H47V114Zm.25.5v.13h-.25v.25H47v-.38Zm-.13.25h.13v.13h-.13ZM48,115h.14v.13H48Zm.25.25V115h.65v.25h.25v.21H48v-.21Zm1,0h.26V115h.64v.25h.25v.21H49.23Zm1-.12V115h.14v.13Zm.26-.13h.13v.13H50.5Zm0-.12v-.13h.13v.13Zm0-.25v-.13h.84v.38h-.59v-.25Zm0-.25v-.12h.25V114h.59v.38Zm.25-.49v-.26H50.5v-.12h.84v.38Zm-.25-.5v-.13h.25V113h.59v.38Zm-2.66-1v.24h-.25v.25H47v-.49ZM47,115h.59v.25h.25v.21H47Zm3.5.46v-.21h.25V115h.59v.46Z" style="fill: #706672;stroke: #e5d0a1;stroke-miterlimit: 10;stroke-width: 0.021720279122685px"/>
            <polygon points="42.17 112.35 43.19 112.35 43.19 112.84 42.17 112.84 42.17 112.96 43.19 112.96 43.19 113.34 42.17 113.34 42.17 113.46 43.19 113.46 43.19 113.84 42.29 113.84 42.29 113.95 43.19 113.95 43.19 114.33 42.29 114.33 42.29 114.45 43.19 114.45 43.19 114.83 42.17 114.83 42.17 114.95 43.19 114.95 43.19 115.47 43.31 115.47 43.31 112.23 42.17 112.23 42.17 112.35" style="fill: #706672;stroke: #e5d0a1;stroke-miterlimit: 10;stroke-width: 0.021720279122685px"/>
            <polygon points="45.27 112.35 46.28 112.35 46.28 112.23 45.15 112.23 45.15 115.47 45.27 115.47 45.27 114.95 46.28 114.95 46.28 114.83 45.27 114.83 45.27 114.45 46.17 114.45 46.17 114.33 45.27 114.33 45.27 113.95 46.17 113.95 46.17 113.84 45.27 113.84 45.27 113.46 46.29 113.46 46.29 113.34 45.27 113.34 45.27 112.96 46.29 112.96 46.29 112.84 45.27 112.84 45.27 112.35" style="fill: #706672;stroke: #e5d0a1;stroke-miterlimit: 10;stroke-width: 0.021720279122685px"/>
          </g>
          <g>
            <polygon points="60.47 104.9 60.47 103.79 58.31 107.62 58.31 108.74 60.47 104.9" style="fill: #fff"/>
            <rect x="57.99" y="107.62" width="0.32" height="1.12" style="fill: #f69463"/>
            <polygon points="57.99 107.62 60.15 103.79 60.47 103.79 58.31 107.62 57.99 107.62" style="fill: #e5d0a1"/>
          </g>
          <g>
            <path d="M43.86,111l0,0v0s0,0,0,0,0,0,0,0,0,0,0,0h-.07s0,0,0,0h.08l.05,0v0s0,0,0,0l0,.07h-.15a0,0,0,0,1,0,0l0,0a.17.17,0,0,0,0,0,.43.43,0,0,0,0,0,0,0,0,0,1,0,0,0,0,0,0,1,0,0h.07v0h0s0,0,0,0h0a.42.42,0,0,1,0-.1h0l0,0a0,0,0,0,1,0,0,.12.12,0,0,0,0,0s0,0,0,0h.07v-.05h0a.07.07,0,0,1,.06,0v0h.07s0,0,0,0a.12.12,0,0,1,.05,0s0,0,0,0S43.87,111,43.86,111Zm-.07,0-.16,0h0v0h.2Zm0,.23h-.12a0,0,0,0,0,0,0h.08s0,0,0,0v0Zm0-.15h-.08v0h.07s0,0,0,0Z" style="fill: #e5d0a1"/>
            <path d="M44.37,111l-.19,0h0v0h.16a.05.05,0,0,1,0,0s0,0,0,0,0,0,0,.05v0a0,0,0,0,1,0,0h-.13l0,0h0a.06.06,0,0,1,0,0s0-.06,0-.08a.2.2,0,0,1,0,.08h0a.05.05,0,0,0,0,0h0a.54.54,0,0,0,.07-.13.53.53,0,0,0,0-.13s0,0,0,0a0,0,0,0,1,0,0h.06l.08,0a0,0,0,0,0,0,0h0l0,0,0,0h0s0,0,0,0h0l-.09,0h0v0l.16,0h0s0,0,0,0A0,0,0,0,1,44.37,111Zm-.1.1h-.08v0h.08v0Z" style="fill: #e5d0a1"/>
            <path d="M44.92,111.25s0,0,0,0h-.07s0,0,0,0a.75.75,0,0,1-.06-.13.23.23,0,0,1-.09.12h-.08s0,0,0,0a0,0,0,0,1,0,0l.08,0a.31.31,0,0,0,0-.1h0s0,0,0,0l0,0s0,0,0,0h.09s0,0,0-.06h-.06l0,0a0,0,0,0,1,0,0l.15,0s0,0,0,0,0,0,0,0,0,0,0,0h-.07a0,0,0,0,1,0,0s0,0,0,0h.11l0,0s0,0,0,0h-.11a.37.37,0,0,0,.09.09.28.28,0,0,1,.09.06A0,0,0,0,1,44.92,111.25Z" style="fill: #e5d0a1"/>
          </g>
        </g>
      </g>
    </g>
  </g>
</svg>
