<svg xmlns="http://www.w3.org/2000/svg" width="97.73" height="99.07" viewBox="0 0 97.73 99.07">
  <g id="Layer_2" data-name="Layer 2">
    <g id="Icon">
      <g>
        <g>
          <path d="M72.8,5.92a8.33,8.33,0,0,1,3.87,3.21c-.48.46-.59.91-1.17,1.28a8.58,8.58,0,0,0-3.8-3.35ZM77.51,12a19.6,19.6,0,0,1-4.14,8,18.24,18.24,0,0,0-1.54-1A18.25,18.25,0,0,0,76,11.44Zm-.63-6.21a7.78,7.78,0,0,0-3.82-3.3l1.17-1.17a8.58,8.58,0,0,1,4,3.26ZM75.2,18.56C78.93,18,85.19,18,88,10.64c.56.22,1,.41,1.49.61a12.35,12.35,0,0,1-4,5.91,17.19,17.19,0,0,1-9.32,3Zm1.77-8C78.72,8.87,80.29,7,80.74,4.49l1.49.67a13,13,0,0,1-3.67,6.24ZM83.4,1.3h1.66l0,11.61a1.64,1.64,0,0,1-.73,1.31c-.8.59-1.3.33-3,.31-.13-.61-.33-1.06-.46-1.73l2,.17a.51.51,0,0,0,.52-.41Zm3.92,3.32A12.58,12.58,0,0,1,91.49,10c-.45.41-.84.64-1.4,1.08A13.35,13.35,0,0,0,86,5.59Z" style="fill: #fff"/>
          <path d="M87.65,44V42.33l-12.52,0V44l-1.66,0V26.08H89.31V44ZM75.13,27.66v5.59h5.38l0-5.57Zm5.42,7.2-5.42,0v5.89h5.42Zm1.64-1.59h5.46V27.68l-5.46,0Zm5.46,7.46V34.86H82.21v5.87Z" style="fill: #fff"/>
          <path d="M90.65,66.55H75.37c-1.14,0-1.66-1-1.66-2V50.87l-1.36,0V49.25l18.19,0v1.6H75.35l0,13.24c0,.61.22.84.89.84H90.65Zm-8.29-3h-6.1v-6l6.1,0Zm-4.49-4.4V62l2.85,0,0-2.87Zm9.86-2.72-9.7,0,0-4.81h9.68ZM79.67,55h6.42V53.09H79.67Zm10,2.61v5.91H83.46V57.58ZM88,59.13l-2.92,0v2.76l2.89,0Z" style="fill: #fff"/>
        </g>
        <g>
          <path d="M74.1,4.62A8.27,8.27,0,0,1,78,7.83c-.48.46-.59.91-1.17,1.27A8.62,8.62,0,0,0,73,5.76Zm4.71,6.08a19.6,19.6,0,0,1-4.14,8,18.24,18.24,0,0,0-1.54-1,18.25,18.25,0,0,0,4.19-7.53Zm-.63-6.21a7.78,7.78,0,0,0-3.82-3.3L75.53,0a8.58,8.58,0,0,1,4,3.26ZM76.5,17.26c3.73-.52,10-.58,12.77-7.92.56.22,1,.41,1.49.61a12.35,12.35,0,0,1-4,5.91,17.19,17.19,0,0,1-9.33,3Zm1.77-8C80,7.57,81.59,5.7,82,3.19l1.49.67a13,13,0,0,1-3.67,6.24ZM84.7,0h1.66l0,11.61a1.64,1.64,0,0,1-.73,1.31c-.8.59-1.3.33-3,.31-.13-.61-.33-1.06-.46-1.73l2,.17a.51.51,0,0,0,.52-.41Zm3.92,3.32a12.58,12.58,0,0,1,4.17,5.4c-.45.41-.84.64-1.4,1.08a13.35,13.35,0,0,0-4.12-5.51Z" style="fill: #003869"/>
          <path d="M89,42.69V41L76.43,41v1.7l-1.66,0V24.78H90.61V42.69ZM76.43,26.36V32h5.38l0-5.57Zm5.42,7.2-5.42,0v5.89h5.42ZM83.49,32H89V26.38l-5.46,0ZM89,39.43V33.56H83.51v5.87Z" style="fill: #003869"/>
          <path d="M92,65.25H76.67c-1.14,0-1.66-1-1.66-2V49.57l-1.36,0V48l18.19,0v1.6H76.65l0,13.24c0,.61.22.84.89.84H92Zm-8.29-3h-6.1v-6l6.1,0Zm-4.49-4.4v2.83l2.85,0,0-2.87ZM89,55.13l-9.7,0,0-4.81H89ZM81,53.66h6.43V51.79H81Zm10,2.62v5.91H84.76V56.28Zm-1.61,1.55-2.92,0v2.76l2.89,0Z" style="fill: #003869"/>
        </g>
        <g style="isolation: isolate">
          <polygon points="52.63 96.13 0 76.98 45.09 57.21 97.71 76.37 52.63 96.13" style="fill: #6baadb"/>
          <polygon points="52.65 97.97 52.63 96.13 97.71 76.37 97.73 78.2 52.65 97.97" style="fill: #3d77a6"/>
          <polygon points="0.02 78.81 0 76.98 52.63 96.13 52.65 97.97 0.02 78.81" style="fill: #254966"/>
        </g>
        <g>
          <g>
            <ellipse cx="14.98" cy="80.13" rx="1.77" ry="1.06" style="fill: #5dc2a5"/>
            <path d="M15,79.25c.93,0,1.59.47,1.59.88S15.91,81,15,81s-1.58-.46-1.58-.87.65-.88,1.58-.88m0-.36c-1.07,0-1.94.56-1.94,1.24s.87,1.24,1.94,1.24,1.95-.56,1.95-1.24-.87-1.24-1.95-1.24Z" style="fill: #b0afa9"/>
          </g>
          <path d="M20.39,80.6h0c-2.26-2.07-6.26-3.66-11.45,0h0V76.89H20.39Z" style="fill: #5dc2a5"/>
          <path d="M16.76,79.32S21.32,78.45,22,76v-.25h2.05v2.48h0c-.18,1.54-3.26,2.8-7.3,3.1a0,0,0,0,1,0-.06h0v-1.9" style="fill: #d7d5cc"/>
          <path d="M13.21,79.37v1.94s0,0,0,0h0c-4-.3-7.12-1.56-7.3-3.1h0V75.79H7.94V76s3.24,3.28,5.26,3.28" style="fill: #d7d5cc"/>
          <path d="M15,72.48c-5,0-9.09,1.55-9.09,3.45C5.89,77.61,9,79,13.2,79.32a0,0,0,0,0,0-.06c-.81-.22-1.35-.59-1.35-1,0-.68,1.4-1.23,3.12-1.23s3.12.55,3.12,1.23c0,.42-.53.79-1.35,1a0,0,0,0,0,0,.06c4.17-.32,7.31-1.71,7.31-3.39C24.07,74,20,72.48,15,72.48Z" style="fill: #59c8e6"/>
          <path d="M15,72.81c5.24,0,8.76,1.62,8.76,3.12,0,1.26-2.29,2.42-5.53,2.9a.9.9,0,0,0,.22-.58c0-.78-1.18-1.56-3.45-1.56s-3.45.78-3.45,1.56a1,1,0,0,0,.22.58c-3.24-.48-5.52-1.64-5.52-2.9,0-1.5,3.51-3.12,8.75-3.12m0-.33c-5,0-9.09,1.55-9.09,3.45C5.89,77.61,9,79,13.2,79.32h0a0,0,0,0,0,0-.06c-.81-.22-1.35-.59-1.35-1,0-.68,1.4-1.23,3.12-1.23s3.12.55,3.12,1.23c0,.42-.53.79-1.35,1a0,0,0,0,0,0,.06h0c4.17-.32,7.31-1.71,7.31-3.39,0-1.9-4.07-3.45-9.09-3.45Z" style="fill: #b0afa9"/>
          <circle cx="14.98" cy="69.77" r="4.36" style="fill: #30baa4"/>
          <circle cx="15.89" cy="70.2" r="1.92" style="fill: #30baa4"/>
          <circle cx="17.4" cy="72.48" r="2.28" style="fill: #30baa4"/>
          <path d="M14.32,80.08l.42-9.4a.25.25,0,0,1,.25-.23.26.26,0,0,1,.23.23l.43,9.4a.66.66,0,0,1-.64.69.65.65,0,0,1-.69-.63Z" style="fill: #f2652d"/>
          <path d="M15.16,73.86a.08.08,0,0,1-.07-.07.07.07,0,0,1,.07-.07,2.71,2.71,0,0,0,2.58-3,.07.07,0,0,1,.14,0,2.89,2.89,0,0,1-2.71,3.18Z" style="fill: #f2652d"/>
          <path d="M17.48,71.66a1.68,1.68,0,0,1-1.77-1.89.07.07,0,0,1,.14,0,1.56,1.56,0,0,0,1.74,1.74.08.08,0,1,1,0,.15Z" style="fill: #f2652d"/>
          <path d="M11.09,78C8.84,78,7,77.11,7,76s1.82-2,4.07-2v.18C8.94,74.13,7.2,75,7.2,76s1.74,1.85,3.89,1.85Z" style="fill: #ede9df"/>
          <path d="M9.87,77.37c-1.26,0-2.28-.62-2.28-1.38s1-1.39,2.28-1.39v.17c-1.17,0-2.12.55-2.12,1.22S8.7,77.2,9.87,77.2Z" style="fill: #ede9df"/>
          <path d="M20.78,77.37V77.2c1.17,0,2.11-.54,2.11-1.21s-.94-1.22-2.11-1.22V74.6c1.26,0,2.28.62,2.28,1.39S22,77.37,20.78,77.37Z" style="fill: #ede9df"/>
          <circle cx="11.99" cy="72.61" r="2.02" style="fill: #30baa4"/>
          <path d="M14.85,72.68c-2.28,0-2.65-2.62-2.66-2.65a.08.08,0,0,1,.07-.08.06.06,0,0,1,.07.06c0,.1.36,2.53,2.52,2.53a.07.07,0,1,1,0,.14Z" style="fill: #f2652d"/>
          <path d="M12.94,71.73a.09.09,0,0,1-.06,0,.08.08,0,0,1,0-.1,3.55,3.55,0,0,0,1.23-2.87.08.08,0,0,1,.08-.07.07.07,0,0,1,.07.07,3.6,3.6,0,0,1-1.3,3Z" style="fill: #f2652d"/>
        </g>
        <g>
          <line x1="51.83" y1="63.63" x2="51.83" y2="64.4" style="fill: #ffc868"/>
          <g>
            <polygon points="34.38 41.47 33.21 41.47 32.62 42.27 33.21 43.07 34.38 43.07 34.96 42.27 34.38 41.47" style="fill: #81c3cd"/>
            <rect x="33.19" y="43.07" width="1.19" height="16.22" style="fill: #fff"/>
            <polygon points="34.96 58.42 34.38 59.22 34.38 43.07 34.96 42.27 34.96 58.42" style="fill: #ced7f4"/>
            <polygon points="32.61 58.42 33.2 59.22 33.2 43.07 32.61 42.27 32.61 58.42" style="fill: #1bb6f0"/>
            <g>
              <polygon points="31.64 48 31.64 46.39 34.19 46.75 34.19 49.65 31.64 48" style="fill: #fff"/>
              <rect x="30.91" y="46.39" width="0.73" height="1.6" style="fill: #1bb6f0"/>
              <polyline points="34.19 49.65 33.31 49.65 30.91 48 31.65 48" style="fill: #ced7f4"/>
            </g>
            <ellipse cx="34.78" cy="44.56" rx="0.26" ry="0.88" style="fill: #fff"/>
            <polygon points="34.96 49.52 36.25 46.54 36.25 45.37 34.96 46.49 34.96 49.52" style="fill: #fff"/>
            <polygon points="36.25 45.37 35.26 45.48 34.96 45.77 34.96 46.49 36.25 45.37" style="fill: #1bb6f0"/>
          </g>
          <polygon points="54.33 67.74 21.97 67.74 29.3 56.59 61.65 56.59 54.33 67.74" style="fill: #d5f2cc"/>
          <circle cx="57.14" cy="56.59" r="2.3" style="fill: #6bdfbd"/>
          <circle cx="35.65" cy="56.66" r="2.15" style="fill: #6bdfbd"/>
          <circle cx="34.7" cy="63.52" r="2.15" style="fill: #6bdfbd"/>
          <rect x="21.97" y="67.74" width="32.36" height="1" style="fill: #ced7f4"/>
          <g>
            <path d="M53.13,59.54a3.65,3.65,0,1,1,3.64-3.65A3.65,3.65,0,0,1,53.13,59.54Z" style="fill: #6bdfbd"/>
            <path d="M53.13,52.37a3.52,3.52,0,1,1-3.52,3.52,3.53,3.53,0,0,1,3.52-3.52m0-.25a3.77,3.77,0,1,0,3.77,3.77,3.77,3.77,0,0,0-3.77-3.77Z" style="fill: #1bb6f0"/>
          </g>
          <g>
            <polygon points="42.7 41.71 41.52 41.71 40.94 42.51 41.52 43.31 42.7 43.31 43.28 42.51 42.7 41.71" style="fill: #81c3cd"/>
            <rect x="41.51" y="43.32" width="1.19" height="16.22" style="fill: #fff"/>
            <polygon points="43.28 58.66 42.7 59.46 42.7 43.31 43.28 42.51 43.28 58.66" style="fill: #ced7f4"/>
            <polygon points="40.93 58.66 41.51 59.46 41.51 43.31 40.93 42.51 40.93 58.66" style="fill: #1bb6f0"/>
            <g>
              <polygon points="39.96 48.24 39.96 46.63 42.51 46.99 42.51 49.89 39.96 48.24" style="fill: #fff"/>
              <rect x="39.23" y="46.63" width="0.73" height="1.6" style="fill: #1bb6f0"/>
              <polyline points="42.51 49.89 41.62 49.89 39.23 48.24 39.96 48.24" style="fill: #ced7f4"/>
            </g>
            <ellipse cx="43.1" cy="44.81" rx="0.26" ry="0.88" style="fill: #fff"/>
            <polygon points="43.28 49.77 44.57 46.78 44.57 45.61 43.28 46.74 43.28 49.77" style="fill: #fff"/>
            <polygon points="44.57 45.61 43.58 45.72 43.28 46.01 43.28 46.74 44.57 45.61" style="fill: #1bb6f0"/>
          </g>
          <g>
            <polygon points="48.22 41.82 47.05 41.82 46.46 42.62 47.05 43.42 48.22 43.42 48.8 42.62 48.22 41.82" style="fill: #81c3cd"/>
            <rect x="47.03" y="43.42" width="1.19" height="16.22" style="fill: #fff"/>
            <polygon points="48.8 58.77 48.22 59.56 48.22 43.42 48.8 42.62 48.8 58.77" style="fill: #ced7f4"/>
            <polygon points="46.45 58.77 47.04 59.56 47.04 43.42 46.45 42.62 46.45 58.77" style="fill: #1bb6f0"/>
            <g>
              <polygon points="45.48 48.35 45.48 46.74 48.03 47.1 48.03 50 45.48 48.35" style="fill: #fff"/>
              <rect x="44.75" y="46.74" width="0.73" height="1.6" style="fill: #1bb6f0"/>
              <polyline points="48.03 50 47.15 50 44.75 48.34 45.49 48.34" style="fill: #ced7f4"/>
            </g>
            <ellipse cx="48.62" cy="44.91" rx="0.26" ry="0.88" style="fill: #fff"/>
            <polygon points="48.8 49.87 50.09 46.89 50.09 45.71 48.8 46.84 48.8 49.87" style="fill: #fff"/>
            <polygon points="50.09 45.71 49.1 45.83 48.8 46.12 48.8 46.84 50.09 45.71" style="fill: #1bb6f0"/>
          </g>
          <g>
            <polygon points="29.5 45.44 28.32 45.44 27.74 46.24 28.32 47.04 29.5 47.04 30.08 46.24 29.5 45.44" style="fill: #81c3cd"/>
            <rect x="28.31" y="47.04" width="1.19" height="16.22" style="fill: #fff"/>
            <polygon points="30.08 62.38 29.5 63.18 29.5 47.04 30.08 46.24 30.08 62.38" style="fill: #ced7f4"/>
            <polygon points="27.73 62.38 28.32 63.18 28.32 47.04 27.73 46.24 27.73 62.38" style="fill: #1bb6f0"/>
            <g>
              <polygon points="26.76 51.96 26.76 50.36 29.31 50.72 29.31 53.62 26.76 51.96" style="fill: #fff"/>
              <rect x="26.03" y="50.36" width="0.73" height="1.6" style="fill: #1bb6f0"/>
              <polyline points="29.31 53.62 28.43 53.62 26.03 51.96 26.77 51.96" style="fill: #ced7f4"/>
            </g>
            <ellipse cx="29.9" cy="48.53" rx="0.26" ry="0.88" style="fill: #fff"/>
            <polygon points="30.08 53.49 31.37 50.51 31.37 49.33 30.08 50.46 30.08 53.49" style="fill: #fff"/>
            <polygon points="31.37 49.33 30.38 49.44 30.08 49.74 30.08 50.46 31.37 49.33" style="fill: #1bb6f0"/>
          </g>
          <g>
            <rect x="37.54" y="63.67" width="14.26" height="0.32" style="fill: #1bb6f0"/>
            <path d="M51.77,63.7V64H37.57V63.7h14.2m.06-.07H37.51V64H51.83v-.39Z" style="fill: #6bdfbd"/>
          </g>
          <g>
            <polygon points="39.47 65.51 37.99 65.65 37.77 65.51 37.77 61.76 39.47 61.76 39.47 65.51" style="fill: #fff"/>
            <polygon points="51.64 65.51 50.15 65.65 49.94 65.51 49.94 61.76 51.64 61.76 51.64 65.51" style="fill: #fff"/>
          </g>
          <rect x="36.8" y="57.57" width="15.75" height="6.06" style="fill: #fff"/>
          <path d="M51.88,63.11H37.46v-5H51.88ZM37.55,63H51.79V58.18H37.55Z" style="fill: #1bb6f0"/>
          <g>
            <path d="M40.94,60a.19.19,0,0,0-.1,0,.11.11,0,0,1-.08,0l0,0v0a.11.11,0,0,0,0,.06,1.62,1.62,0,0,1,0,.22.19.19,0,0,1,0,.12.07.07,0,0,1-.08,0,.05.05,0,0,1,0,0,.06.06,0,0,0-.05,0l-.16,0h-.06a.07.07,0,0,1-.06,0,.11.11,0,0,1-.07,0l0-.07a.19.19,0,0,1,0-.08.67.67,0,0,0,0-.2.24.24,0,0,0,0-.08l-.09,0h-.17s0-.05,0-.06a1.06,1.06,0,0,0,.29-.21.17.17,0,0,1-.12,0,.12.12,0,0,1-.05-.08s0,0,0,0l.32,0s0,0,0-.05a.18.18,0,0,1-.1,0H40s0,0,0-.06l.28-.07.12-.07s0,0,.05,0a.19.19,0,0,1,.16.08s0,0,0,.06l-.09,0-.1,0a0,0,0,0,1,0,.06l.22,0h.07a.14.14,0,0,1,.08.07s0,0,0,0a.06.06,0,0,1,0,0l-.2,0,.19.07A.41.41,0,0,1,41,60,0,0,0,0,1,40.94,60ZM40.29,60V59.9l-.1.09.06,0h.06A.08.08,0,0,1,40.29,60Zm.22.19h0l-.22,0v0l.19,0,0,0Zm0,.16h-.24v.05h.16l.08,0S40.5,60.32,40.51,60.3Zm0-.43a.45.45,0,0,1,0,.12l.06,0h.06Z" style="fill: #f4662d"/>
            <path d="M41.89,60H41.8l0,0h0a0,0,0,0,1,0,0l0,0s0,0,0,0l0-.05a0,0,0,0,1,0-.06.07.07,0,0,1,.06,0,.18.18,0,0,1,.12,0,.1.1,0,0,1,0,.05.17.17,0,0,1,0,.07A.1.1,0,0,1,41.89,60Zm.88.19-.05,0s0,0,0,0h-.06a.07.07,0,0,1-.06,0l-.06-.06a.15.15,0,0,1,0,.07l0,0s0,.06,0,.06l-.22,0a0,0,0,0,0,0,0,.05.05,0,0,0,.05,0l.17,0s0,0,0,0a.19.19,0,0,0,0-.08,0,0,0,0,1,0,0h0a.2.2,0,0,0,0,.08l0,0a.09.09,0,0,1,0,.16l-.1,0a1.07,1.07,0,0,1-.32,0,.18.18,0,0,1-.1-.07.18.18,0,0,1,0-.11v-.1s0,0,0,0a0,0,0,0,1,0,0h-.05s0,0,0,.05a.31.31,0,0,0,0,.1s0,0,0,0h0a.23.23,0,0,1-.12-.12.05.05,0,0,1,0-.08,1.2,1.2,0,0,0,.16-.25h0s0,0,0,0v.07s0,.06,0,.09l.09-.13s0,0,0-.05h0s0,0-.06,0a.12.12,0,0,1,0-.08s0,0,0,0l.16,0s0,0,0-.05H42s0,0-.06-.08,0,0,0,0h.08a.21.21,0,0,0,0-.07s0,0,0,0a.05.05,0,0,1,0,0,.23.23,0,0,1,.13,0l0,0v.05h.08v0s0,0,0-.06,0,0,0,0l.05,0a.22.22,0,0,1,.15.06,0,0,0,0,1,0,0s0,0,0,0,0,0,.07,0a.16.16,0,0,1,.06.08s0,0,0,0l-.1,0v.06l.09,0a.08.08,0,0,1,.07,0,.13.13,0,0,1,.06.1s0,0,0,0h-.15a.78.78,0,0,0,.15.1.23.23,0,0,1,.14.09S42.79,60.19,42.77,60.19ZM42,59.75a.07.07,0,0,1-.06,0l-.06,0s0,0,0,0h0s0,0,0,0a0,0,0,0,1,0,0l0,0a0,0,0,0,0,0,0,.09.09,0,0,1,0-.06.06.06,0,0,1,.05-.06.17.17,0,0,1,.14,0,.13.13,0,0,1,0,.09A.1.1,0,0,1,42,59.75Zm.28.42v0h.09v0Zm.12-.21-.08,0s0,0,0,0l0,0,0,0,.11,0h0Zm-.08-.19v.06h0v-.06Z" style="fill: #f4662d"/>
            <path d="M44.53,59.81a.56.56,0,0,0-.11.17.13.13,0,0,1,0,.06.07.07,0,0,1-.06.07,2.83,2.83,0,0,1-.29,0v.25a.42.42,0,0,1,0,.13s0,0-.06.05a.07.07,0,0,1-.06,0,.28.28,0,0,1,0-.12c0-.06,0-.1,0-.14v-.14a.25.25,0,0,1-.12,0,.19.19,0,0,1,0,.09.08.08,0,0,1-.1,0s0-.13-.06-.24a.54.54,0,0,0,0-.22.06.06,0,0,1,0-.07.11.11,0,0,1,.1,0l.1,0h.17v-.09a.16.16,0,0,0,0-.09s0,0,0-.05,0,0,.06,0a.28.28,0,0,1,.17,0s0,0,0,.08a.3.3,0,0,0,0,.1h.11l.1,0a.08.08,0,0,1,.08,0,.28.28,0,0,1,.13.11S44.55,59.79,44.53,59.81Zm-.59,0h-.15a.88.88,0,0,1,0,.17H44S43.94,59.88,43.94,59.83Zm.17,0s0,.12,0,.15h.13a.88.88,0,0,0,0-.17Z" style="fill: #f4662d"/>
            <path d="M46.31,60.46a.11.11,0,0,1-.09,0s-.07,0-.09,0a.09.09,0,0,1-.09,0l-.06,0-.1-.15a1.13,1.13,0,0,1-.22.14.3.3,0,0,1-.17,0,.42.42,0,0,0-.16,0s0-.07,0-.07l.25-.07a.83.83,0,0,0,.21-.15.86.86,0,0,0-.14-.13l-.08,0s0,0,0,0l0,0h-.07a.07.07,0,0,1-.06,0,.1.1,0,0,1,0,0s0-.08,0-.08a3.82,3.82,0,0,0,.69-.11.13.13,0,0,1,.09,0,.27.27,0,0,1,.07.08s0,.07,0,.07l-.16,0,.06,0a0,0,0,0,1,0,.07l0,0a.86.86,0,0,1-.1.16.56.56,0,0,0,.17.09,1.09,1.09,0,0,1,.23.09s0,.07,0,.08S46.34,60.42,46.31,60.46Zm-.64-.55a.08.08,0,0,1,.07,0l.13.12a.28.28,0,0,0,.07-.19Zm.26-.23a.11.11,0,0,1-.08,0l-.06,0h-.08s0,0,0,0l0,0v0a.13.13,0,0,1,0,0,0,0,0,0,1,0-.06h.11a.13.13,0,0,1,.13.15A.08.08,0,0,1,45.93,59.68Z" style="fill: #f4662d"/>
            <path d="M48.24,60.47s-.07,0-.09,0a.07.07,0,0,1-.07,0,.15.15,0,0,0-.1,0,.15.15,0,0,1-.12-.05,1.79,1.79,0,0,1-.2-.28.78.78,0,0,1-.23.25.27.27,0,0,1-.16,0h-.13s0-.06,0-.07a.73.73,0,0,0,.29-.16.49.49,0,0,0,.11-.24l-.1,0a.16.16,0,0,1-.1,0,.2.2,0,0,1-.08-.08s0-.06,0-.06l.26,0a1.15,1.15,0,0,0,0-.18.18.18,0,0,0,0-.12s0-.06,0-.06a.25.25,0,0,1,.22,0,.06.06,0,0,1,0,.07s0,0,0,.09v.13l.17,0a.17.17,0,0,1,.13,0,.13.13,0,0,1,.05.09s0,.05,0,.06l-.33,0s0,0,0,0a1,1,0,0,0,.37.27.44.44,0,0,1,.17.08S48.26,60.47,48.24,60.47Z" style="fill: #f4662d"/>
            <path d="M50,60a.33.33,0,0,0-.1,0l-.09,0,0,0,0-.06s0,0,0,0h-.15a.44.44,0,0,1,.11.09,0,0,0,0,1,0,0l0,0-.1.07.25,0a.18.18,0,0,1,.13,0,.09.09,0,0,1,0,.07s0,0,0,0h-.36a.41.41,0,0,1,0,.11.2.2,0,0,1-.06.15.09.09,0,0,1-.11,0,.18.18,0,0,1-.07-.08s-.06-.07-.1-.09,0,0,0,0,0,0,0,0l.13,0a0,0,0,0,0,0,0v0l-.29,0a.11.11,0,0,1-.08,0s0,0-.05-.07,0,0,0,0h.37a0,0,0,0,1,0,0s0,0,0,0h.06l0,0-.19,0a.06.06,0,0,1-.06,0,.15.15,0,0,1,0-.06s0,0,0,0l.19,0a.4.4,0,0,0,.12,0l-.31,0H49.2a.51.51,0,0,1,0,.13.12.12,0,0,1-.11.06A.09.09,0,0,1,49,60.1.08.08,0,0,1,49,60a.47.47,0,0,0,.07-.17s0,0,0,0a.12.12,0,0,1,0,0h0c0-.07,0-.15-.06-.2a.12.12,0,0,0-.05-.07,0,0,0,0,1,0-.06h.07l0-.05a0,0,0,0,1,0,0h.07a.23.23,0,0,1,.1.07s0,0,0,0l0,0-.07.05v0l0,0h0l.07-.09a.12.12,0,0,1,0,0,0,0,0,0,1,0,0l.08,0a0,0,0,0,0,0,0,0,0,0,0,1,0,0,.13.13,0,0,1,.09,0,0,0,0,0,1,0,0l0,0,0,0s0,0,0,0,0,0,0,0,0,0,0,.05l0,0,0,0s0,0,0,.06h.08v0h0s0,0,0,0,0,0,0,0h.08v0s-.07,0-.08,0,0,0,0,0l.09,0h0s-.06,0-.07,0a.09.09,0,0,1,0-.06l0,0,.13,0h0a.44.44,0,0,1,.11.09,0,0,0,0,1,0,0,.13.13,0,0,0-.05.07l0,.15h.07a.09.09,0,0,1,.05,0,.2.2,0,0,1,.07.11A0,0,0,0,1,50,60Zm-.48-.18-.07,0-.06,0s0,0,0,0l.07-.08,0,0a0,0,0,0,1,0,0h.07s0,0,0,0,0,0,0,0v0l0,0a.13.13,0,0,1-.09,0s0,0,0,0,0,0-.08,0v0h.08l0,0a.08.08,0,0,1,0,0l-.07,0a0,0,0,0,1,0,0l.23,0Z" style="fill: #f4662d"/>
          </g>
          <g>
            <path d="M38.54,61.27h0c0-.09,0-.13-.09-.13h0a0,0,0,0,0,0,0v.31s0,0,0,0h0v0h-.17v0h0s0,0,0,0v-.31a0,0,0,0,0,0,0h0c-.06,0-.09,0-.1.13h0v-.15h.35Z" style="fill: #f4662d"/>
            <path d="M39,61.53h-.17v0h0a0,0,0,0,0,0,0v-.15h-.22v.15a0,0,0,0,0,0,0h0v0h-.17v0h0a0,0,0,0,0,0,0v-.31a0,0,0,0,0,0,0h0v0h.17v0h0a0,0,0,0,0,0,0v.13h.22v-.13a0,0,0,0,0,0,0h0v0H39v0h0a0,0,0,0,0,0,0v.31a0,0,0,0,0,0,0h0Z" style="fill: #f4662d"/>
            <path d="M39.43,61.38l0,.15h-.36v0h.05s0,0,0,0v-.3s0,0,0,0h0v0h.36v.14h0a.19.19,0,0,0,0-.1s-.05,0-.1,0h-.08a0,0,0,0,0,0,0v.13h.07s0,0,.05,0,0,0,0-.06h0v.19h0c0-.06,0-.08-.06-.08h-.07v.14s0,0,0,0h.1a.13.13,0,0,0,.1,0,.41.41,0,0,0,0-.1Z" style="fill: #f4662d"/>
            <path d="M40,61.39a.2.2,0,0,1-.06.11.15.15,0,0,1-.11,0,.17.17,0,0,1-.14-.06.2.2,0,0,1-.06-.15.25.25,0,0,1,0-.15.18.18,0,0,1,.15-.07.12.12,0,0,1,.1,0l0,0h0v.17h0a.23.23,0,0,0,0-.1.11.11,0,0,0-.09,0,.14.14,0,0,0-.11.07.3.3,0,0,0,0,.26.17.17,0,0,0,.12,0,.11.11,0,0,0,.08,0,.13.13,0,0,0,0-.09Z" style="fill: #f4662d"/>
            <path d="M40.47,61.53H40.3v0h0s0,0,0,0v-.15h-.22v.15a0,0,0,0,0,0,0h0v0H40v0h0a0,0,0,0,0,0,0v-.31a0,0,0,0,0,0,0h0v0h.17v0h0a0,0,0,0,0,0,0v.13h.22v-.13s0,0,0,0h0v0h.17v0h0a0,0,0,0,0,0,0v.31a0,0,0,0,0,0,0h0Z" style="fill: #f4662d"/>
            <path d="M40.67,61.53h-.16v0h0a0,0,0,0,0,0,0v-.31a0,0,0,0,0,0,0h0v0h.16v0h0a0,0,0,0,0,0,0v.31a0,0,0,0,0,0,0h0Z" style="fill: #f4662d"/>
            <path d="M41.15,61.14h0a0,0,0,0,0,0,0v.37h0l-.27-.35v.29a0,0,0,0,0,0,0h0v0h-.15v0h0a0,0,0,0,0,0,0v-.31a0,0,0,0,0,0,0h0v0h.09l.26.33v-.28s0,0,0,0h0v0h.15Z" style="fill: #f4662d"/>
            <path d="M41.57,61.38v.15H41.2v0h0s0,0,0,0v-.3a0,0,0,0,0,0,0h0v0h.35v.14h0a.34.34,0,0,0,0-.1.15.15,0,0,0-.1,0h-.09s0,0,0,0v.13h.07s0,0,.05,0,0,0,0-.06h0v.19h0c0-.06,0-.08-.06-.08H41.3v.14a0,0,0,0,0,0,0h.11a.12.12,0,0,0,.09,0l0-.1Z" style="fill: #f4662d"/>
            <path d="M41.91,61.42a.11.11,0,0,1,0,.09.15.15,0,0,1-.1,0,.13.13,0,0,1-.12,0l0,0h0v-.16h0c0,.09.07.14.15.14a.09.09,0,0,0,.07,0,.07.07,0,0,0,0-.06.07.07,0,0,0,0,0l-.08,0-.1,0s0-.05,0-.09a.1.1,0,0,1,0-.08.17.17,0,0,1,.1,0,.15.15,0,0,1,.11,0l0,0h0v.15h0c0-.09-.06-.13-.13-.13l-.06,0a.06.06,0,0,0,0,.06.05.05,0,0,0,0,0l.08,0,.07,0a.1.1,0,0,1,.05,0A.08.08,0,0,1,41.91,61.42Z" style="fill: #f4662d"/>
            <path d="M42.31,61.38v.15h-.36v0H42v-.33a0,0,0,0,0,0,0h0v0h.35v.14h0a.19.19,0,0,0,0-.1s-.05,0-.1,0h-.09v.16h.07s0,0,0,0a.08.08,0,0,0,0-.06h0v.19h0c0-.06,0-.08-.06-.08h-.07v.17h.11a.12.12,0,0,0,.09,0,.34.34,0,0,0,0-.1Z" style="fill: #f4662d"/>
            <path d="M43,61.14h0a0,0,0,0,0,0,0v.21a.12.12,0,0,1,0,.11.13.13,0,0,1-.12,0,.21.21,0,0,1-.12,0,.17.17,0,0,1-.05-.12v-.22a0,0,0,0,0,0,0h0v0h.17v0h0a0,0,0,0,0,0,0v.21a.12.12,0,0,0,.13.14.13.13,0,0,0,.09,0,.15.15,0,0,0,0-.1v-.21s0,0,0,0h0v0H43Z" style="fill: #f4662d"/>
            <path d="M43.45,61.14h0a0,0,0,0,0,0,0v.37h0l-.26-.35v.29a0,0,0,0,0,0,0h0v0H43v0h0a0,0,0,0,0,0,0v-.31a0,0,0,0,0,0,0h0v0h.09l.26.33v-.28a0,0,0,0,0,0,0h0v0h.15Z" style="fill: #f4662d"/>
            <path d="M43.65,61.53h-.16v0h0a0,0,0,0,0,0,0v-.31a0,0,0,0,0,0,0h0v0h.16v0h0a0,0,0,0,0,0,0v.31a0,0,0,0,0,0,0h0Z" style="fill: #f4662d"/>
            <path d="M44.12,61.14a.07.07,0,0,0-.08,0l-.13.34h0l-.15-.35s0,0,0,0h0v0h.17v0h-.06v0l.12.29.09-.25s0,0,0-.05l0,0h0v0h.15Z" style="fill: #f4662d"/>
            <path d="M44.52,61.38v.15h-.36v0h0s0,0,0,0v-.3a0,0,0,0,0,0,0h0v0h.35v.14h0a.34.34,0,0,0,0-.1s-.05,0-.1,0h-.09s0,0,0,0v.13h.08s0,0,0,0a.08.08,0,0,0,0-.06h0v.19h0c0-.06,0-.08-.06-.08h-.08v.14a0,0,0,0,0,0,0h.11a.12.12,0,0,0,.09,0,.34.34,0,0,0,0-.1Z" style="fill: #f4662d"/>
            <path d="M45,61.44c0,.07,0,.1-.07.1s-.06,0-.07-.07a.64.64,0,0,1,0-.07.08.08,0,0,0,0,0,.09.09,0,0,0-.07,0h-.05v.15a0,0,0,0,0,0,0h0v0h-.17v0h.05s0,0,0,0v-.3s0,0,0,0h0v0h.22a.15.15,0,0,1,.1,0,.09.09,0,0,1,0,.08c0,.06,0,.09-.11.1a.13.13,0,0,1,.07.11s0,.06,0,.06,0,0,0-.05Zm-.1-.22c0-.06,0-.08-.1-.08H44.7s0,0,0,0v.12h.16A.1.1,0,0,0,44.86,61.22Z" style="fill: #f4662d"/>
            <path d="M45.29,61.42a.1.1,0,0,1,0,.09.17.17,0,0,1-.1,0,.17.17,0,0,1-.13,0l0,0h0v-.16h0c0,.09.07.14.15.14a.11.11,0,0,0,.07,0,.06.06,0,0,0,0-.06.05.05,0,0,0,0,0l-.08,0-.1,0s-.06-.05-.06-.09a.1.1,0,0,1,0-.08.12.12,0,0,1,.09,0,.16.16,0,0,1,.12,0l0,0h0v.15h0c0-.09-.07-.13-.14-.13l-.06,0a.06.06,0,0,0,0,.06s0,0,0,0,0,0,.07,0l.08,0a.1.1,0,0,1,.05,0A.12.12,0,0,1,45.29,61.42Z" style="fill: #f4662d"/>
            <path d="M45.49,61.53h-.17v0h0a0,0,0,0,0,0,0v-.31a0,0,0,0,0,0,0h0v0h.17v0h0a0,0,0,0,0,0,0v.31a0,0,0,0,0,0,0h0Z" style="fill: #f4662d"/>
            <path d="M45.89,61.27h0c0-.09,0-.13-.1-.13h0a0,0,0,0,0,0,0v.31s0,0,0,0h0v0h-.17v0h.05s0,0,0,0v-.31a0,0,0,0,0,0,0h0c-.05,0-.08,0-.09.13h0v-.15h.35Z" style="fill: #f4662d"/>
            <path d="M46.32,61.14h0a.09.09,0,0,1,0,.05l-.09.16v.12a0,0,0,0,0,0,0h0v0H46v0h0a0,0,0,0,0,0,0v-.11l-.13-.2a.06.06,0,0,0-.06,0v0h.15v0h0l0,0,.1.16.08-.16s0,0,0,0,0,0,0,0h0v0h.15Z" style="fill: #f4662d"/>
            <path d="M46.92,61.32a.3.3,0,0,1-.05.16.22.22,0,0,1-.3,0,.3.3,0,0,1,0-.16.25.25,0,0,1,0-.15.22.22,0,0,1,.3,0A.25.25,0,0,1,46.92,61.32Zm-.06,0a.21.21,0,0,0,0-.12.12.12,0,0,0-.22,0,.21.21,0,0,0,0,.12.23.23,0,0,0,0,.13.13.13,0,0,0,.22,0A.23.23,0,0,0,46.86,61.32Z" style="fill: #f4662d"/>
            <path d="M47.31,61.26h0a.19.19,0,0,0,0-.1l-.1,0h-.08a0,0,0,0,0,0,0v.13h.07s0,0,0,0a.08.08,0,0,0,0-.06h0v.19h0c0-.06,0-.08-.06-.08h-.07v.15a0,0,0,0,0,0,0h0v0H47v0h0s0,0,0,0v-.31a0,0,0,0,0,0,0h0v0h.35Z" style="fill: #f4662d"/>
            <path d="M48,61.53H47.8v0h0a0,0,0,0,0,0,0v-.15h-.21v.15a0,0,0,0,0,0,0h0v0h-.17v0h0s0,0,0,0v-.31s0,0,0,0h0v0h.17v0h0a0,0,0,0,0,0,0v.13h.21v-.13a0,0,0,0,0,0,0h0v0H48v0h0a0,0,0,0,0,0,0v.31a0,0,0,0,0,0,0h0Z" style="fill: #f4662d"/>
            <path d="M48.4,61.32a.3.3,0,0,1,0,.16.22.22,0,0,1-.3,0,.3.3,0,0,1,0-.16.25.25,0,0,1,0-.15.22.22,0,0,1,.3,0A.25.25,0,0,1,48.4,61.32Zm-.06,0a.21.21,0,0,0,0-.12.12.12,0,0,0-.22,0,.21.21,0,0,0,0,.12.23.23,0,0,0,0,.13.13.13,0,0,0,.22,0A.23.23,0,0,0,48.34,61.32Z" style="fill: #f4662d"/>
            <path d="M48.87,61.14h0a0,0,0,0,0,0,0v.37h0l-.27-.35v.29a0,0,0,0,0,0,0h0v0h-.15v0h0a0,0,0,0,0,0,0v-.31a0,0,0,0,0,0,0h0v0h.09l.26.33v-.28a0,0,0,0,0,0,0h0v0h.15Z" style="fill: #f4662d"/>
            <path d="M49.33,61.36h0s0,0,0,0v.14h0l0,0a.13.13,0,0,1-.12,0,.2.2,0,0,1-.14-.06.25.25,0,0,1-.05-.15.2.2,0,0,1,.05-.15.15.15,0,0,1,.14-.07.16.16,0,0,1,.12,0l0,0h0v.17h0a.38.38,0,0,0,0-.11.15.15,0,0,0-.1,0,.12.12,0,0,0-.1.07.31.31,0,0,0,0,.13.28.28,0,0,0,0,.13.13.13,0,0,0,.11,0,.12.12,0,0,0,.09,0,.14.14,0,0,0,0-.06v0s0,0,0,0h0v0h.17Z" style="fill: #f4662d"/>
            <path d="M50,61.53h-.18v0h0a0,0,0,0,0,0,0l-.11-.16-.08.08v.09a0,0,0,0,0,0,0h0v0h-.17v0h0a0,0,0,0,0,0,0v-.31a0,0,0,0,0,0,0h0v0h.17v0h0a0,0,0,0,0,0,0v.19l.16-.17a0,0,0,0,0,0,0h-.05v0H50v0h-.06l0,0-.09.08.14.21,0,0h0Z" style="fill: #f4662d"/>
            <path d="M50.41,61.32a.25.25,0,0,1-.06.16.17.17,0,0,1-.14.06.2.2,0,0,1-.15-.06.3.3,0,0,1-.05-.16.25.25,0,0,1,.05-.15.2.2,0,0,1,.15-.06.17.17,0,0,1,.14.06A.2.2,0,0,1,50.41,61.32Zm-.06,0a.21.21,0,0,0,0-.12.12.12,0,0,0-.11-.07.11.11,0,0,0-.11.07.21.21,0,0,0,0,.12.23.23,0,0,0,0,.13.11.11,0,0,0,.11.06.13.13,0,0,0,.11-.06A.23.23,0,0,0,50.35,61.32Z" style="fill: #f4662d"/>
            <path d="M50.88,61.14h0a0,0,0,0,0,0,0v.37h0l-.27-.35v.29a0,0,0,0,0,0,0h0v0h-.15v0h0s0,0,0,0v-.31s0,0,0,0h0v0h.09l.26.33v-.28a0,0,0,0,0,0,0h0v0h.15Z" style="fill: #f4662d"/>
            <path d="M51.34,61.36h0s0,0,0,0v.14h0l0,0a.13.13,0,0,1-.12,0,.18.18,0,0,1-.14-.06.25.25,0,0,1,0-.3.15.15,0,0,1,.14-.07.16.16,0,0,1,.12,0l0,0h0v.17h0a.38.38,0,0,0,0-.11.18.18,0,0,0-.1,0,.15.15,0,0,0-.11.07.31.31,0,0,0,0,.13.2.2,0,0,0,0,.13.13.13,0,0,0,.11,0,.12.12,0,0,0,.09,0,.14.14,0,0,0,0-.06v0s0,0,0,0h0v0h.17Z" style="fill: #f4662d"/>
          </g>
          <polygon points="36.8 57.57 37.51 56.62 53.36 56.62 52.54 57.57 36.8 57.57" style="fill: #ced7f4"/>
          <g>
            <path d="M26.06,66.52a3.65,3.65,0,1,1,3.64-3.64A3.65,3.65,0,0,1,26.06,66.52Z" style="fill: #6bdfbd"/>
            <path d="M26.06,59.36a3.52,3.52,0,1,1-3.52,3.52,3.52,3.52,0,0,1,3.52-3.52m0-.25a3.77,3.77,0,1,0,3.77,3.77,3.76,3.76,0,0,0-3.77-3.77Z" style="fill: #1bb6f0"/>
          </g>
          <circle cx="29.4" cy="64.65" r="2.17" style="fill: #1bb6f0"/>
          <circle cx="34.19" cy="65.29" r="1.31" style="fill: #1bb6f0"/>
          <polygon points="53.36 56.62 53.36 62.17 52.54 63.63 52.54 57.57 53.36 56.62" style="fill: #fff"/>
          <polygon points="51.84 63.63 51.84 64.02 52.06 63.63 51.84 63.63" style="fill: #81c3cd"/>
          <rect x="37.99" y="64.02" width="0.96" height="1.63" style="fill: #ced7f4"/>
          <polygon points="37.8 63.63 37.99 64.02 38.95 64.02 39.47 63.63 37.8 63.63" style="fill: #81c3cd"/>
          <polygon points="38.95 65.68 39.47 65.51 39.47 63.63 38.95 64.04 38.95 65.68" style="fill: #fff"/>
          <rect x="50.15" y="64.02" width="0.96" height="1.63" style="fill: #ced7f4"/>
          <polygon points="49.97 63.63 50.15 64.02 51.11 64.02 51.64 63.63 49.97 63.63" style="fill: #81c3cd"/>
          <polygon points="51.11 65.65 51.64 65.51 51.64 63.63 51.11 64.04 51.11 65.65" style="fill: #fff"/>
          <polygon points="40.31 64.65 39.47 64.65 39.47 64.02 40.94 64.02 40.31 64.65" style="fill: #1bb6f0"/>
          <polygon points="39.47 65.51 40.02 64.66 39.47 64.65 39.47 65.51" style="fill: #6bdfbd"/>
          <polygon points="49.1 64.65 49.94 64.65 49.94 64.02 48.48 64.02 49.1 64.65" style="fill: #1bb6f0"/>
          <polygon points="51.64 65.51 52.54 63.63 52.06 63.63 51.84 64.02 51.64 64.02 51.64 65.51" style="fill: #6bdfbd"/>
          <polygon points="54.33 67.74 54.33 68.74 61.65 57.42 61.65 56.59 54.33 67.74" style="fill: #81c3cd"/>
          <g>
            <path d="M32.62,59.55a2,2,0,1,1,2-2A2,2,0,0,1,32.62,59.55Z" style="fill: #6bdfbd"/>
            <path d="M32.62,55.73a1.85,1.85,0,1,1-1.85,1.84,1.84,1.84,0,0,1,1.85-1.84m0-.26a2.1,2.1,0,1,0,2.1,2.1,2.1,2.1,0,0,0-2.1-2.1Z" style="fill: #1bb6f0"/>
          </g>
          <circle cx="56.2" cy="58.81" r="2.15" style="fill: #1bb6f0"/>
        </g>
        <g>
          <polygon points="95.21 81.36 95.21 80.27 94.5 80.27 94.5 77.73 95.21 77.73 95.21 75.11 94.43 75.11 94.43 74.52 94.43 72.21 82.42 72.21 63.59 69.95 44.75 72.21 32.75 72.21 32.75 74.52 32.75 75.11 31.97 75.11 31.97 77.73 32.68 77.73 32.68 80.27 31.97 80.27 31.97 81.36 31.02 81.36 31.02 85.86 43.02 85.86 43.86 85.86 44.75 85.86 48.65 85.86 56.28 85.86 57.93 85.86 63.59 85.86 69.25 85.86 70.89 85.86 78.53 85.86 82.42 85.86 83.31 85.86 84.16 85.86 96.15 85.86 96.15 81.36 95.21 81.36" style="fill: #babcbe"/>
          <polygon points="56.56 77.38 41.62 78.53 41.62 80.41 71.5 80.41 71.5 78.53 56.56 77.38" style="fill: #e6c6de"/>
          <g>
            <polyline points="35.42 80.01 39.33 80.01 41.62 77.91" style="fill: none;stroke: #ede9df;stroke-miterlimit: 10;stroke-width: 0.087457535370512px"/>
            <polyline points="35.42 80.55 39.33 80.55 41.62 78.48" style="fill: none;stroke: #ede9df;stroke-miterlimit: 10;stroke-width: 0.087457535370512px"/>
            <polyline points="35.42 81.08 39.33 81.08 41.62 79.06" style="fill: none;stroke: #ede9df;stroke-miterlimit: 10;stroke-width: 0.087457535370512px"/>
            <polyline points="35.42 81.62 39.33 81.62 41.62 79.64" style="fill: none;stroke: #ede9df;stroke-miterlimit: 10;stroke-width: 0.087457535370512px"/>
            <polyline points="35.42 82.16 39.33 82.16 41.62 80.22" style="fill: none;stroke: #ede9df;stroke-miterlimit: 10;stroke-width: 0.087457535370512px"/>
            <polyline points="35.42 82.69 39.33 82.69 41.62 80.79" style="fill: none;stroke: #ede9df;stroke-miterlimit: 10;stroke-width: 0.087457535370512px"/>
            <polyline points="35.42 83.23 39.33 83.23 41.62 81.37" style="fill: none;stroke: #ede9df;stroke-miterlimit: 10;stroke-width: 0.087457535370512px"/>
            <polyline points="35.42 83.76 39.33 83.76 41.62 81.95" style="fill: none;stroke: #ede9df;stroke-miterlimit: 10;stroke-width: 0.087457535370512px"/>
            <polyline points="35.42 84.3 39.33 84.3 41.62 82.52" style="fill: none;stroke: #ede9df;stroke-miterlimit: 10;stroke-width: 0.087457535370512px"/>
            <polyline points="35.42 84.83 39.33 84.83 41.62 83.1" style="fill: none;stroke: #ede9df;stroke-miterlimit: 10;stroke-width: 0.087457535370512px"/>
            <polyline points="35.42 85.37 39.33 85.37 41.62 83.68" style="fill: none;stroke: #ede9df;stroke-miterlimit: 10;stroke-width: 0.087457535370512px"/>
            <polyline points="35.42 85.91 39.33 85.91 41.62 84.25" style="fill: none;stroke: #ede9df;stroke-miterlimit: 10;stroke-width: 0.087457535370512px"/>
            <polyline points="35.42 86.44 39.33 86.44 41.62 84.83" style="fill: none;stroke: #ede9df;stroke-miterlimit: 10;stroke-width: 0.087457535370512px"/>
            <polyline points="35.42 86.98 39.33 86.98 41.62 85.41" style="fill: none;stroke: #ede9df;stroke-miterlimit: 10;stroke-width: 0.087457535370512px"/>
            <polyline points="35.42 87.51 39.33 87.51 41.62 85.98" style="fill: none;stroke: #ede9df;stroke-miterlimit: 10;stroke-width: 0.087457535370512px"/>
            <polyline points="35.42 88.05 39.33 88.05 41.62 86.56" style="fill: none;stroke: #ede9df;stroke-miterlimit: 10;stroke-width: 0.087457535370512px"/>
            <polyline points="35.42 88.58 39.33 88.58 41.62 87.14" style="fill: none;stroke: #ede9df;stroke-miterlimit: 10;stroke-width: 0.087457535370512px"/>
          </g>
          <g>
            <polyline points="69.19 80.01 73.08 80.01 75.38 77.91" style="fill: none;stroke: #ede9df;stroke-miterlimit: 10;stroke-width: 0.087457535370512px"/>
            <polyline points="69.19 80.55 73.08 80.55 75.38 78.45" style="fill: none;stroke: #ede9df;stroke-miterlimit: 10;stroke-width: 0.087457535370512px"/>
            <polyline points="69.19 81.08 73.08 81.08 75.38 78.99" style="fill: none;stroke: #ede9df;stroke-miterlimit: 10;stroke-width: 0.087457535370512px"/>
            <polyline points="69.19 81.62 73.08 81.62 75.38 79.53" style="fill: none;stroke: #ede9df;stroke-miterlimit: 10;stroke-width: 0.087457535370512px"/>
            <polyline points="69.19 82.16 73.08 82.16 75.38 80.07" style="fill: none;stroke: #ede9df;stroke-miterlimit: 10;stroke-width: 0.087457535370512px"/>
            <polyline points="69.19 82.69 73.08 82.69 75.38 80.61" style="fill: none;stroke: #ede9df;stroke-miterlimit: 10;stroke-width: 0.087457535370512px"/>
            <polyline points="69.19 83.23 73.08 83.23 75.38 81.15" style="fill: none;stroke: #ede9df;stroke-miterlimit: 10;stroke-width: 0.087457535370512px"/>
            <polyline points="69.19 83.76 73.08 83.76 75.38 81.69" style="fill: none;stroke: #ede9df;stroke-miterlimit: 10;stroke-width: 0.087457535370512px"/>
            <polyline points="69.19 84.3 73.08 84.3 75.38 82.23" style="fill: none;stroke: #ede9df;stroke-miterlimit: 10;stroke-width: 0.087457535370512px"/>
            <polyline points="69.19 84.83 73.08 84.83 75.38 82.78" style="fill: none;stroke: #ede9df;stroke-miterlimit: 10;stroke-width: 0.087457535370512px"/>
            <polyline points="69.19 85.37 73.08 85.37 75.38 83.32" style="fill: none;stroke: #ede9df;stroke-miterlimit: 10;stroke-width: 0.087457535370512px"/>
            <polyline points="69.19 85.91 73.08 85.91 75.38 83.86" style="fill: none;stroke: #ede9df;stroke-miterlimit: 10;stroke-width: 0.087457535370512px"/>
            <polyline points="69.19 86.44 73.08 86.44 75.38 84.4" style="fill: none;stroke: #ede9df;stroke-miterlimit: 10;stroke-width: 0.087457535370512px"/>
            <polyline points="69.19 86.98 73.08 86.98 75.38 84.94" style="fill: none;stroke: #ede9df;stroke-miterlimit: 10;stroke-width: 0.087457535370512px"/>
            <polyline points="69.19 87.51 73.08 87.51 75.38 85.48" style="fill: none;stroke: #ede9df;stroke-miterlimit: 10;stroke-width: 0.087457535370512px"/>
            <polyline points="69.19 88.05 73.08 88.05 75.38 86.02" style="fill: none;stroke: #ede9df;stroke-miterlimit: 10;stroke-width: 0.087457535370512px"/>
            <polyline points="69.19 88.58 73.08 88.58 75.38 86.56" style="fill: none;stroke: #ede9df;stroke-miterlimit: 10;stroke-width: 0.087457535370512px"/>
          </g>
          <polygon points="55.87 78.18 41.26 78.98 41.26 80.85 56.2 80.85 69.19 80.85 69.19 79.65 70.03 78.89 55.87 78.18" style="fill: #ede9df"/>
          <polygon points="88.18 82.54 95.21 75.11 95.21 77.73 88.18 85.16 88.18 82.54" style="fill: #ede9df"/>
          <g>
            <path d="M74.3,93.08c0,3.31-8.48,6-18.93,6s-18.92-2.68-18.92-6" style="fill: #92d3ca"/>
            <path d="M74.3,92.35c0,3.31-8.48,6-18.93,6s-18.92-2.68-18.92-6" style="fill: #ede9df"/>
          </g>
          <g>
            <path d="M74.37,91.67c0,3.31-8.48,6-18.93,6s-18.92-2.68-18.92-6" style="fill: #92d3ca"/>
            <path d="M74.37,90.94c0,3.31-8.48,6-18.93,6s-18.92-2.68-18.92-6" style="fill: #ede9df"/>
          </g>
          <g>
            <path d="M74.6,90.47c0,3.31-8.47,6-18.92,6s-18.93-2.68-18.93-6" style="fill: #92d3ca"/>
            <path d="M74.6,89.74c0,3.31-8.47,6-18.92,6s-18.93-2.68-18.93-6" style="fill: #ede9df"/>
          </g>
          <path d="M56.56,80.41H41.62V93.3l12.89.7c.7,0,1.41,0,2.11,0L71.5,93.3V80.41Z" style="fill: #7f3f97"/>
          <path d="M41.62,92.65v.65l12.89.7c.7,0,1.41,0,2.11,0L71.5,93.3v-.65Z" style="fill: #e6c6de"/>
          <polygon points="87.47 85.16 87.47 87.7 94.5 80.27 94.5 77.73 87.47 85.16" style="fill: #dda8cc"/>
          <rect x="25.72" y="79.64" width="12.35" height="3.2" style="fill: #7f3f97"/>
          <rect x="25.72" y="81.95" width="12.02" height="1.06" style="fill: #5dc2a5"/>
          <rect x="25.65" y="83.85" width="12.09" height="9.15" style="fill: #dda8cc"/>
          <rect x="24.94" y="82.54" width="13.02" height="2.62" style="fill: #7f3f97"/>
          <rect x="24.94" y="87.7" width="12.84" height="2.03" style="fill: #7f3f97"/>
          <rect x="23.99" y="88.79" width="12.84" height="4.5" style="fill: #e6c6de"/>
          <g>
            <rect x="25.04" y="89.67" width="10.81" height="0.85" style="fill: #5dc2a5"/>
            <path d="M35.77,89.76v.68H25.12v-.68H35.77m.16-.17H25v1h11v-1Z" style="fill: #dda8cc"/>
          </g>
          <g>
            <rect x="28.97" y="85.19" width="2.15" height="2.48" style="fill: #92d3ca"/>
            <path d="M31.07,85.24v2.37H29V85.24h2m.11-.11H28.92v2.59h2.26V85.13Z" style="fill: #dda8cc"/>
          </g>
          <g>
            <rect x="26.57" y="85.19" width="1.96" height="2.48" style="fill: #92d3ca"/>
            <path d="M28.48,85.24v2.37H26.63V85.24h1.85m.11-.11H26.52v2.59h2.07V85.13Z" style="fill: #dda8cc"/>
          </g>
          <g>
            <rect x="31.56" y="85.19" width="1.96" height="2.48" style="fill: #92d3ca"/>
            <path d="M33.46,85.24v2.37H31.61V85.24h1.85m.11-.11H31.5v2.59h2.07V85.13Z" style="fill: #dda8cc"/>
          </g>
          <g>
            <rect x="33.96" y="85.19" width="2.2" height="2.48" style="fill: #92d3ca"/>
            <path d="M36.1,85.24v2.37H34V85.24H36.1m.12-.11H33.9v2.59h2.32V85.13Z" style="fill: #dda8cc"/>
          </g>
          <g>
            <rect x="47.83" y="80.91" width="2.15" height="11.68" style="fill: #92d3ca"/>
            <path d="M49.93,81V92.54h-2V81h2m.11-.11H47.78v11.8H50V80.85Z" style="fill: #dda8cc"/>
          </g>
          <g>
            <rect x="42.61" y="80.91" width="2.15" height="11.68" style="fill: #92d3ca"/>
            <path d="M44.71,81V92.54h-2V81h2m.11-.11H42.56v11.8h2.26V80.85Z" style="fill: #dda8cc"/>
          </g>
          <g>
            <rect x="52.11" y="80.91" width="2.15" height="11.69" style="fill: #92d3ca"/>
            <path d="M54.21,81V92.54H52.16V81h2.05m.11-.11H52.05v11.8h2.27V80.85Z" style="fill: #dda8cc"/>
          </g>
          <g>
            <rect x="44.67" y="80.6" width="1.3" height="13.46" style="fill: #ede9df"/>
            <path d="M46,94.13H44.59V80.52H46ZM44.74,94h1.15V80.67H44.74Z" style="fill: #e6c6de"/>
          </g>
          <polygon points="37.72 77.61 37.72 86.85 35.99 86.85 35.99 93.3 37.72 93.3 41.62 93.3 41.62 86.85 41.62 84.08 41.62 78.78 41.62 77.61 37.72 77.61" style="fill: #a6a7aa"/>
          <rect x="35.43" y="79.65" width="3.9" height="15.69" style="fill: #dda8cc"/>
          <rect x="33.69" y="88.89" width="5.63" height="6.44" style="fill: #7f3f97"/>
          <rect x="75.05" y="79.64" width="12.35" height="3.2" style="fill: #7f3f97"/>
          <rect x="75.38" y="81.95" width="12.02" height="1.06" style="fill: #5dc2a5"/>
          <rect x="75.38" y="83.85" width="12.09" height="9.15" style="fill: #dda8cc"/>
          <rect x="75.16" y="82.54" width="13.02" height="2.62" style="fill: #7f3f97"/>
          <rect x="75.34" y="87.7" width="12.84" height="2.03" style="fill: #7f3f97"/>
          <rect x="76.28" y="88.79" width="12.84" height="4.5" style="fill: #e6c6de"/>
          <g>
            <rect x="77.27" y="89.67" width="10.81" height="0.85" style="fill: #5dc2a5"/>
            <path d="M88,89.76v.68H77.35v-.68H88m.17-.17h-11v1h11v-1Z" style="fill: #dda8cc"/>
          </g>
          <g>
            <rect x="82" y="85.19" width="2.15" height="2.48" style="fill: #92d3ca"/>
            <path d="M84.09,85.24v2.37h-2V85.24h2m.11-.11H81.94v2.59H84.2V85.13Z" style="fill: #dda8cc"/>
          </g>
          <g>
            <rect x="84.58" y="85.19" width="1.96" height="2.48" style="fill: #92d3ca"/>
            <path d="M86.49,85.24v2.37H84.64V85.24h1.85m.11-.11H84.53v2.59H86.6V85.13Z" style="fill: #dda8cc"/>
          </g>
          <polygon points="63.59 69.95 56.56 77.38 39.87 78.89 44.75 72.21 63.59 69.95" style="fill: #dda8cc"/>
          <g>
            <rect x="79.6" y="85.19" width="1.96" height="2.48" style="fill: #92d3ca"/>
            <path d="M81.5,85.24v2.37H79.65V85.24H81.5m.11-.11H79.54v2.59h2.07V85.13Z" style="fill: #dda8cc"/>
          </g>
          <g>
            <rect x="76.96" y="85.19" width="2.2" height="2.48" style="fill: #92d3ca"/>
            <path d="M79.1,85.24v2.37H77V85.24H79.1m.12-.11H76.9v2.59h2.32V85.13Z" style="fill: #dda8cc"/>
          </g>
          <g>
            <rect x="62.78" y="80.91" width="2.15" height="11.68" style="fill: #92d3ca"/>
            <path d="M64.88,81V92.54h-2V81h2m.11-.11H62.73v11.8H65V80.85Z" style="fill: #dda8cc"/>
          </g>
          <g>
            <rect x="68.35" y="80.91" width="2.15" height="11.8" style="fill: #5dc2a5"/>
            <path d="M70.45,81V92.65h-2V81h2m.11-.11H68.3V92.76h2.26V80.85Z" style="fill: #dda8cc"/>
          </g>
          <g>
            <rect x="58.86" y="80.91" width="2.15" height="11.69" style="fill: #92d3ca"/>
            <path d="M61,81V92.54H58.91V81H61m.11-.11H58.8v11.8h2.27V80.85Z" style="fill: #dda8cc"/>
          </g>
          <polygon points="63.59 69.95 82.42 72.21 75.46 79.23 56.56 77.38 63.59 69.95" style="fill: #7f3f97"/>
          <polygon points="82.42 72.21 94.43 72.21 87.4 79.64 75.05 79.64 82.42 72.21" style="fill: #7f3f97"/>
          <polygon points="75.39 86.85 75.39 77.61 71.5 77.61 71.5 78.78 71.5 84.08 71.5 86.85 71.5 93.3 75.39 93.3 77.13 93.3 77.13 86.85 75.39 86.85" style="fill: #a6a7aa"/>
          <rect x="69.17" y="79.65" width="3.9" height="15.69" transform="translate(142.24 174.98) rotate(-180)" style="fill: #e6c6de"/>
          <rect x="69.17" y="88.89" width="5.14" height="6.44" transform="translate(143.48 184.22) rotate(-180)" style="fill: #dda8cc"/>
          <polygon points="73.07 79.65 75.39 77.61 71.5 77.61 69.17 79.65 73.07 79.65" style="fill: #ede9df"/>
          <polygon points="73.07 79.65 73.07 88.89 75.39 86.85 75.39 77.61 73.07 79.65" style="fill: #dda8cc"/>
          <polygon points="25.72 79.64 30.98 72.21 44.75 72.21 39.33 79.65 25.72 79.64" style="fill: #7f3f97"/>
          <polygon points="75.33 88.36 77.13 86.85 75.39 86.85 73.07 88.89 74.31 88.89 75.33 88.36" style="fill: #ede9df"/>
          <polygon points="75.33 88.36 75.33 94.8 77.13 93.3 77.13 86.85 75.33 88.36" style="fill: #7f3f97"/>
          <polygon points="39.33 79.65 41.62 77.61 37.72 77.61 35.42 79.65 39.33 79.65" style="fill: #ede9df"/>
          <polygon points="39.33 79.65 39.33 88.89 41.62 87.49 41.62 77.61 39.33 79.65" style="fill: #e6c6de"/>
          <polygon points="39.33 95.33 41.62 93.3 41.62 87.49 39.33 88.89 39.33 95.33" style="fill: #dda8cc"/>
          <polygon points="33.69 88.89 35.42 87.87 35.42 88.89 33.69 88.89" style="fill: #92d3ca"/>
          <polygon points="45.97 94.06 46.31 93.48 46.31 80.6 45.97 80.6 45.97 94.06" style="fill: #e6c6de"/>
          <g>
            <rect x="54.92" y="80.85" width="1.3" height="14.79" style="fill: #ede9df"/>
            <path d="M56.29,95.72H54.84V80.78h1.45ZM55,95.57h1.15V80.93H55Z" style="fill: #e6c6de"/>
          </g>
          <polygon points="56.22 95.64 56.56 95.01 56.56 80.85 56.22 80.85 56.22 95.64" style="fill: #e6c6de"/>
          <g>
            <rect x="66.66" y="80.41" width="1.3" height="13.46" style="fill: #ede9df"/>
            <path d="M68,93.94H66.58V80.33H68Zm-1.3-.15h1.15V80.48H66.73Z" style="fill: #e6c6de"/>
          </g>
          <polygon points="67.96 93.87 68.3 93.3 68.3 80.41 67.96 80.41 67.96 93.87" style="fill: #e6c6de"/>
          <polygon points="56.56 83.19 41.62 83.19 41.62 85.87 56.56 85.87 69.17 85.87 69.17 83.19 56.56 83.19" style="fill: #e6c6de"/>
          <polygon points="56.56 87.49 41.62 87.49 41.62 89.22 56.56 89.22 69.17 89.22 69.17 87.49 56.56 87.49" style="fill: #e6c6de"/>
          <polygon points="55.65 88.08 41.33 87.72 41.33 89.45 55.65 90.43 68.88 89.45 69.17 89.22 69.17 87.49 68.88 87.72 55.65 88.08" style="fill: #fff"/>
          <polygon points="41.33 87.72 41.62 87.49 69.17 87.49 68.88 87.72 55.65 88.08 41.33 87.72" style="fill: #dda8cc"/>
          <g>
            <polygon points="39.62 80.84 39.62 84.62 41.33 83.34 41.33 79.34 39.62 80.84" style="fill: #5dc2a5"/>
            <path d="M39.54,84.77v-4l1.86-1.63v4.2Zm.15-3.9v3.6l1.57-1.17V79.5Z" style="fill: #dda8cc"/>
          </g>
          <g>
            <polygon points="39.7 89.15 41.25 88.12 41.25 91.92 39.7 92.75 39.7 89.15" style="fill: #5dc2a5"/>
            <path d="M41.16,88.28v3.59l-1.38.74V89.2l1.38-.92m.17-.31-1.71,1.14v3.78L41.33,92V88Z" style="fill: #dda8cc"/>
          </g>
          <polygon points="41.26 78.98 41.62 78.53 56.56 77.38 56.2 77.82 41.26 78.98" style="fill: #e6c6de"/>
          <polygon points="56.56 77.38 56.2 77.82 70.03 78.89 70.53 78.46 56.56 77.38" style="fill: #e6c6de"/>
          <path d="M56.65,76.24a.91.91,0,0,0-1.46,0l-.46.67-1.21,1.75,2.08-.45,2.63.53-1.14-1.79Z" style="fill: #ede9df"/>
          <polygon points="55.6 83.74 41.29 83.31 41.29 85.75 55.53 86.45 68.84 85.75 68.84 83.31 55.6 83.74" style="fill: #fff"/>
          <polygon points="41.33 83.42 41.62 83.19 69.17 83.19 68.88 83.42 55.65 83.85 41.33 83.42" style="fill: #dda8cc"/>
          <polygon points="24.94 82.54 25.72 82.23 35.42 82.23 35.42 82.54 24.94 82.54" style="fill: #dda8cc"/>
          <polygon points="24.94 87.72 25.72 87.4 35.42 87.4 35.42 87.72 24.94 87.72" style="fill: #e6c6de"/>
          <g>
            <rect x="69.55" y="80.07" width="1.31" height="3.73" style="fill: #5dc2a5"/>
            <path d="M70.81,80.12v3.62H69.6V80.12h1.21m.1-.11H69.49v3.84h1.42V80Z" style="fill: #dda8cc"/>
          </g>
          <g>
            <rect x="71.25" y="80.07" width="1.31" height="3.73" style="fill: #5dc2a5"/>
            <path d="M72.51,80.12v3.62H71.3V80.12h1.21m.11-.11H71.19v3.84h1.43V80Z" style="fill: #dda8cc"/>
          </g>
          <g>
            <rect x="69.25" y="89.74" width="3.75" height="2.59" style="fill: #5dc2a5"/>
            <path d="M72.92,89.82v2.44h-3.6V89.82h3.6m.15-.16h-3.9v2.75h3.9V89.66Z" style="fill: #dda8cc"/>
          </g>
          <g>
            <path d="M51.54,85.86h-.2l-.21-.56c-.05-.14-.11-.3-.15-.45h0c0,.17,0,.36,0,.6v.41h-.17V84.51H51l.21.55c.05.13.11.3.15.44h0c0-.17,0-.36,0-.58v-.41h.18Z" style="fill: #7f3f97"/>
            <path d="M52.27,85.83a.57.57,0,0,1-.24,0c-.22,0-.35-.19-.35-.49s.12-.53.33-.53.29.17.29.49v.1h-.43c0,.17.09.24.19.24a.48.48,0,0,0,.18,0Zm-.15-.56c0-.1,0-.23-.12-.23s-.13.13-.13.23Z" style="fill: #7f3f97"/>
            <path d="M53.37,84.88l-.21,1H53l-.07-.37a2.51,2.51,0,0,1-.05-.31h0c0,.12,0,.22,0,.31l-.08.37h-.18l-.2-1h.2l.06.43c0,.11,0,.21,0,.32h0a2.51,2.51,0,0,1,0-.31l.08-.44H53l.08.42c0,.12,0,.22,0,.33h0c0-.11,0-.21,0-.33l.06-.42Z" style="fill: #7f3f97"/>
            <path d="M54.37,84.73h-.25v1.13h-.19V84.73h-.24v-.22h.68Z" style="fill: #7f3f97"/>
            <path d="M55.08,85.36c0,.38-.18.52-.34.52s-.34-.18-.34-.5.15-.52.35-.52S55.08,85.07,55.08,85.36Zm-.34-.31c-.1,0-.14.17-.14.32s0,.32.14.32.14-.15.14-.32S54.84,85.05,54.74,85.05Z" style="fill: #7f3f97"/>
            <path d="M56.15,84.88l-.21,1h-.17l-.08-.37c0-.1,0-.19,0-.31h0c0,.12,0,.22,0,.31l-.08.37h-.18l-.2-1h.2l.06.43c0,.11,0,.21,0,.32h0a2.51,2.51,0,0,1,0-.31l.08-.44h.15l.07.42c0,.12,0,.22.06.33h0c0-.11,0-.21,0-.33l.06-.42Z" style="fill: #7f3f97"/>
            <path d="M56.87,85.86h-.19v-.57c0-.12,0-.21-.11-.21s-.12,0-.12.2v.58h-.19v-.68c0-.12,0-.21,0-.3h.17V85h0a.23.23,0,0,1,.21-.16c.13,0,.23.13.23.4Z" style="fill: #7f3f97"/>
            <path d="M57.33,84.53a.93.93,0,0,1,.26,0,.38.38,0,0,1,.29.1.48.48,0,0,1,.09.31c0,.37-.23.45-.38.45h-.07v.5h-.19Zm.19.62h.07c.12,0,.19-.09.19-.24s-.07-.22-.17-.22h-.09Z" style="fill: #7f3f97"/>
            <path d="M58.29,85.86H58.1V84.45h.19Z" style="fill: #7f3f97"/>
            <path d="M59,85.63a1.55,1.55,0,0,0,0,.23h-.18v-.1h0a.21.21,0,0,1-.19.12c-.14,0-.22-.13-.22-.29a.35.35,0,0,1,.39-.37c0-.1,0-.17-.13-.17a.32.32,0,0,0-.17.06l0-.16a.41.41,0,0,1,.25-.09c.22,0,.29.2.29.41Zm-.19-.24c-.11,0-.21,0-.21.17s0,.14.09.14.12,0,.12-.17Z" style="fill: #7f3f97"/>
            <path d="M59.67,84.88v.17l-.22.43-.1.17h.33v.21h-.56v-.15l.23-.45a.86.86,0,0,1,.1-.16h-.31v-.21Z" style="fill: #7f3f97"/>
            <path d="M60.34,85.63a1.55,1.55,0,0,0,0,.23h-.18v-.1h0a.21.21,0,0,1-.19.12c-.14,0-.22-.13-.22-.29a.35.35,0,0,1,.39-.37c0-.1,0-.17-.13-.17a.32.32,0,0,0-.17.06l0-.16a.41.41,0,0,1,.25-.09c.22,0,.29.2.29.41Zm-.19-.24c-.11,0-.21,0-.21.17s0,.14.09.14.12,0,.12-.17Z" style="fill: #7f3f97"/>
          </g>
          <g>
            <path d="M52.41,89.34h0l.15.11-.07.09-.08-.08v.22h-.12v-.2a.53.53,0,0,1-.13.13.65.65,0,0,0-.08-.09.69.69,0,0,0,.19-.19h-.16v-.11h.18v-.07h-.2v-.11h.11a.84.84,0,0,0,0-.12l.07,0h-.11v-.1h.17v-.1h.15s0,0,0,0v.08h.17v.1h-.11l.09,0h0a.47.47,0,0,1-.05.1h.12v.11h-.19v.06h.17v.11Zm0-.29s0-.09,0-.14h-.16a.43.43,0,0,1,0,.14h.08Zm.69,0v.12H53v.52h-.12v-.52h-.1a.77.77,0,0,1-.17.52s-.06-.07-.08-.09a.6.6,0,0,0,.13-.44V88.8l.06,0a1.07,1.07,0,0,0,.26-.11l.11.09h0l-.29.11v.14Z" style="fill: #7f3f97"/>
            <path d="M54.35,89c0,.1,0,.2,0,.28l.06-.19.13,0s0,0,0,0a1,1,0,0,1-.13.33c0,.08,0,.13.06.13s0,0,0-.16a.25.25,0,0,0,.08.07c0,.17,0,.21-.13.21s-.09,0-.12-.13a.88.88,0,0,1-.15.12.3.3,0,0,0-.08-.08.52.52,0,0,0,.19-.17,2.94,2.94,0,0,1,0-.45H54v.12h.2v0c0,.22,0,.31,0,.33s0,0-.15,0a.36.36,0,0,0,0-.1h0s0,0,0,0a.63.63,0,0,0,0-.2H54a.72.72,0,0,1-.14.49l-.09-.08a.35.35,0,0,0,.1-.21l-.24.11,0,0-.06-.14.12,0v-.3H53.6v-.12h.09v-.22h.14s0,0,0,0v.2h.09v.12H53.8v.25l.08,0,0,.08a1.21,1.21,0,0,0,0-.18v-.31h.33a.92.92,0,0,1,0-.16h.15s0,0,0,0v.14h.11a.94.94,0,0,0-.09-.12l.09,0a.38.38,0,0,1,.1.12l-.06,0h.06V89Z" style="fill: #7f3f97"/>
            <path d="M56.05,88.84V89h-.39s0,0,0,0v.09H56v.35c0,.12-.05.14-.24.14a.43.43,0,0,0,0-.12h.14a0,0,0,0,0,0,0v-.23h-.2v.5H55.5v-.5h-.19v.37h-.12v-.49h.31V89h-.41v-.12h.41V88.7h.16s0,0,0,0v.11Z" style="fill: #7f3f97"/>
            <path d="M56.77,88.89v.2a1.23,1.23,0,0,1-.12.59l-.09-.07a1.17,1.17,0,0,0,.09-.52v-.3H57v-.08h.16s0,0,0,0v.06h.38v.1h-.14s0,0,0,0v0h.17V89h-.17v.11h-.43V89H56.8v-.07h.13v0Zm.69.64h-.18l.27.09-.12.07a1.54,1.54,0,0,0-.24-.09l.08-.07H57l.09.07h0a1.42,1.42,0,0,1-.27.09l-.07-.08a1.35,1.35,0,0,0,.24-.08h-.16v-.26h.25v0h-.29v-.07h.75v.07H57.2v0h.26Zm-.51-.2v0h.13v0Zm0,.1v0h.13v0Zm.29-.49v0h-.16s0,0,0,0v0Zm0,.12v0h-.19v0Zm.1.27H57.2v0h.14Zm0,.14v0H57.2v0Z" style="fill: #7f3f97"/>
            <path d="M59,89.23h-.43a.08.08,0,0,1,0,0H59v0c0,.21,0,.3-.06.33s-.06,0-.13,0h0a.19.19,0,0,0,0-.09.44.44,0,0,1-.08.11l-.09-.08a.55.55,0,0,0,.17-.24h-.06a.9.9,0,0,1-.24.27l-.08-.07a.66.66,0,0,0,.21-.2h-.07a.45.45,0,0,1-.13.11l-.08-.07h0l-.21.09s0,0,0,0l-.05-.14.13,0V89h-.11v-.12h.11v-.21h.14a0,0,0,0,1,0,0v.19h.09V89H58.3v.26l.08,0,0,.09a.47.47,0,0,0,.09-.12h-.12v-.1H59Zm-.07-.5v.35h-.5v-.35Zm-.12.14v-.05h-.27v.05Zm0,.13v0h-.27v0Zm0,.38a1,1,0,0,1-.1.21h.11a1,1,0,0,0,0-.2Z" style="fill: #7f3f97"/>
          </g>
          <path d="M35.06,80.13H25.72a.32.32,0,0,1-.27-.16.31.31,0,0,1,0-.31L30.73,72a.29.29,0,0,1,.41-.08.3.3,0,0,1,.08.42l-4.93,7.15h8.77a.31.31,0,0,1,.3.3A.3.3,0,0,1,35.06,80.13Z" style="fill: #dda8cc"/>
          <polygon points="74.31 95.33 75.33 94.8 75.33 88.36 74.31 88.89 74.31 95.33" style="fill: #92d3ca"/>
          <g>
            <line x1="41.81" y1="82.32" x2="41.81" y2="83.27" style="fill: none;stroke: #ede9df;stroke-linecap: round;stroke-linejoin: round;stroke-width: 0.174915070741023px"/>
            <line x1="42.87" y1="82.36" x2="42.87" y2="83.31" style="fill: none;stroke: #ede9df;stroke-linecap: round;stroke-linejoin: round;stroke-width: 0.174915070741023px"/>
            <line x1="43.93" y1="82.39" x2="43.93" y2="83.34" style="fill: none;stroke: #ede9df;stroke-linecap: round;stroke-linejoin: round;stroke-width: 0.174915070741023px"/>
            <line x1="44.99" y1="82.43" x2="44.99" y2="83.38" style="fill: none;stroke: #ede9df;stroke-linecap: round;stroke-linejoin: round;stroke-width: 0.174915070741023px"/>
            <line x1="46.06" y1="82.46" x2="46.06" y2="83.41" style="fill: none;stroke: #ede9df;stroke-linecap: round;stroke-linejoin: round;stroke-width: 0.174915070741023px"/>
            <line x1="47.12" y1="82.5" x2="47.12" y2="83.45" style="fill: none;stroke: #ede9df;stroke-linecap: round;stroke-linejoin: round;stroke-width: 0.174915070741023px"/>
            <line x1="48.18" y1="82.53" x2="48.18" y2="83.49" style="fill: none;stroke: #ede9df;stroke-linecap: round;stroke-linejoin: round;stroke-width: 0.174915070741023px"/>
            <line x1="49.24" y1="82.57" x2="49.24" y2="83.52" style="fill: none;stroke: #ede9df;stroke-linecap: round;stroke-linejoin: round;stroke-width: 0.174915070741023px"/>
            <line x1="50.3" y1="82.61" x2="50.3" y2="83.56" style="fill: none;stroke: #ede9df;stroke-linecap: round;stroke-linejoin: round;stroke-width: 0.174915070741023px"/>
            <line x1="51.36" y1="82.64" x2="51.36" y2="83.59" style="fill: none;stroke: #ede9df;stroke-linecap: round;stroke-linejoin: round;stroke-width: 0.174915070741023px"/>
            <line x1="52.42" y1="82.68" x2="52.42" y2="83.63" style="fill: none;stroke: #ede9df;stroke-linecap: round;stroke-linejoin: round;stroke-width: 0.174915070741023px"/>
            <line x1="53.48" y1="82.71" x2="53.48" y2="83.66" style="fill: none;stroke: #ede9df;stroke-linecap: round;stroke-linejoin: round;stroke-width: 0.174915070741023px"/>
            <line x1="54.54" y1="82.75" x2="54.54" y2="83.7" style="fill: none;stroke: #ede9df;stroke-linecap: round;stroke-linejoin: round;stroke-width: 0.174915070741023px"/>
            <line x1="55.6" y1="82.78" x2="55.6" y2="83.73" style="fill: none;stroke: #ede9df;stroke-linecap: round;stroke-linejoin: round;stroke-width: 0.174915070741023px"/>
          </g>
          <g>
            <line x1="69.36" y1="82.32" x2="69.36" y2="83.27" style="fill: none;stroke: #ede9df;stroke-linecap: round;stroke-linejoin: round;stroke-width: 0.174915070741023px"/>
            <line x1="68.3" y1="82.36" x2="68.3" y2="83.31" style="fill: none;stroke: #ede9df;stroke-linecap: round;stroke-linejoin: round;stroke-width: 0.174915070741023px"/>
            <line x1="67.24" y1="82.39" x2="67.24" y2="83.34" style="fill: none;stroke: #ede9df;stroke-linecap: round;stroke-linejoin: round;stroke-width: 0.174915070741023px"/>
            <line x1="66.18" y1="82.43" x2="66.18" y2="83.38" style="fill: none;stroke: #ede9df;stroke-linecap: round;stroke-linejoin: round;stroke-width: 0.174915070741023px"/>
            <line x1="65.11" y1="82.46" x2="65.11" y2="83.41" style="fill: none;stroke: #ede9df;stroke-linecap: round;stroke-linejoin: round;stroke-width: 0.174915070741023px"/>
            <line x1="64.05" y1="82.5" x2="64.05" y2="83.45" style="fill: none;stroke: #ede9df;stroke-linecap: round;stroke-linejoin: round;stroke-width: 0.174915070741023px"/>
            <line x1="62.99" y1="82.53" x2="62.99" y2="83.49" style="fill: none;stroke: #ede9df;stroke-linecap: round;stroke-linejoin: round;stroke-width: 0.174915070741023px"/>
            <line x1="61.93" y1="82.57" x2="61.93" y2="83.52" style="fill: none;stroke: #ede9df;stroke-linecap: round;stroke-linejoin: round;stroke-width: 0.174915070741023px"/>
            <line x1="60.87" y1="82.61" x2="60.87" y2="83.56" style="fill: none;stroke: #ede9df;stroke-linecap: round;stroke-linejoin: round;stroke-width: 0.174915070741023px"/>
            <line x1="59.81" y1="82.64" x2="59.81" y2="83.59" style="fill: none;stroke: #ede9df;stroke-linecap: round;stroke-linejoin: round;stroke-width: 0.174915070741023px"/>
            <line x1="58.75" y1="82.68" x2="58.75" y2="83.63" style="fill: none;stroke: #ede9df;stroke-linecap: round;stroke-linejoin: round;stroke-width: 0.174915070741023px"/>
            <line x1="57.69" y1="82.71" x2="57.69" y2="83.66" style="fill: none;stroke: #ede9df;stroke-linecap: round;stroke-linejoin: round;stroke-width: 0.174915070741023px"/>
            <line x1="56.63" y1="82.75" x2="56.63" y2="83.7" style="fill: none;stroke: #ede9df;stroke-linecap: round;stroke-linejoin: round;stroke-width: 0.174915070741023px"/>
            <line x1="55.57" y1="82.78" x2="55.57" y2="83.73" style="fill: none;stroke: #ede9df;stroke-linecap: round;stroke-linejoin: round;stroke-width: 0.174915070741023px"/>
          </g>
          <path d="M55.61,82.8l-14.33-.43a.15.15,0,0,1-.14-.15.14.14,0,0,1,.15-.14l14.32.42,13.22-.42a.14.14,0,0,1,.16.14.15.15,0,0,1-.15.15Z" style="fill: #dda8cc"/>
          <polygon points="89.12 88.79 96.15 81.36 96.15 85.86 89.12 93.3 89.12 88.79" style="fill: #dda8cc"/>
          <polygon points="88.18 87.7 95.21 80.27 95.21 81.36 88.16 88.79 88.18 87.7" style="fill: #7f3f97"/>
          <polygon points="88.16 88.79 89.12 88.79 96.15 81.36 95.21 81.36 88.16 88.79" style="fill: #ede9df"/>
          <polygon points="87.47 87.7 88.18 87.7 95.21 80.27 94.5 80.27 87.47 87.7" style="fill: #e6c6de"/>
          <polygon points="87.4 82.48 94.43 75.11 94.43 72.45 87.4 79.64 87.4 82.48" style="fill: #7f3f97"/>
          <path d="M87.4,80.13H75.52a.29.29,0,0,1-.29-.3.3.3,0,0,1,.29-.3H87.27L94.21,72a.3.3,0,0,1,.44.41l-7,7.62A.32.32,0,0,1,87.4,80.13Z" style="fill: #dda8cc"/>
          <polygon points="88.18 82.54 87.33 82.54 94.43 75.11 95.21 75.11 88.18 82.54" style="fill: #dda8cc"/>
        </g>
      </g>
    </g>
  </g>
</svg>
