<svg xmlns="http://www.w3.org/2000/svg" width="125.06" height="88.08" viewBox="0 0 125.06 88.08">
  <g id="Layer_2" data-name="Layer 2">
    <g id="Iron">
      <g>
        <g>
          <path d="M98.92,7.44a11,11,0,0,1,5.14,4.27c-.63.61-.78,1.21-1.55,1.7A11.51,11.51,0,0,0,97.46,9Zm6.26,8.09a26,26,0,0,1-5.51,10.58c-.78-.54-1.24-.86-2-1.32a24.27,24.27,0,0,0,5.57-10Zm-.84-8.26a10.37,10.37,0,0,0-5.07-4.39l1.55-1.55a11.26,11.26,0,0,1,5.27,4.33Zm-2.23,17c5-.69,13.28-.78,17-10.53.74.29,1.26.55,2,.8a16.34,16.34,0,0,1-5.37,7.86,22.69,22.69,0,0,1-12.39,4Zm2.35-10.61c2.32-2.27,4.42-4.77,5-8.09l2,.88c-.6,3.25-2.7,6-4.88,8.3ZM113,1.3h2.21l0,15.43a2.2,2.2,0,0,1-1,1.75c-1.06.78-1.72.43-4,.41-.17-.81-.43-1.41-.6-2.3l2.67.23a.69.69,0,0,0,.69-.55Zm5.22,4.42c2.75,1.92,4.16,4.3,5.53,7.17-.6.54-1.11.86-1.86,1.43A17.73,17.73,0,0,0,116.42,7Z" style="fill: #fff"/>
          <path d="M118.66,58.07v-2.2l-16.64,0V58.1l-2.21,0V34.26h21.06V58.07ZM102,36.36v7.43h7.14l0-7.4Zm7.2,9.58-7.2,0v7.83h7.2Zm2.18-2.12h7.26V36.39l-7.26,0Zm7.26,9.92v-7.8h-7.23v7.8Z" style="fill: #fff"/>
          <path d="M122.65,88.08H102.34c-1.52,0-2.21-1.26-2.21-2.66V67.23l-1.81,0V65.08l24.18,0v2.12H102.31l0,17.61c0,.81.28,1.12,1.17,1.12h19.14Zm-11-4h-8.12V76.15l8.12,0Zm-6-5.85V82l3.79,0,0-3.81Zm13.11-3.62-12.91,0,0-6.4h12.88ZM108,72.68h8.55v-2.5H108Zm13.26,3.47V84h-8.21V76.15Zm-2.15,2.07-3.88,0v3.67l3.85,0Z" style="fill: #fff"/>
        </g>
        <g>
          <path d="M100.22,6.14a11,11,0,0,1,5.14,4.27c-.63.61-.78,1.21-1.55,1.7a11.51,11.51,0,0,0-5-4.45Zm6.26,8.09A26,26,0,0,1,101,24.81c-.78-.54-1.24-.86-2-1.32a24.27,24.27,0,0,0,5.57-10ZM105.64,6a10.37,10.37,0,0,0-5.07-4.39L102.12,0a11.26,11.26,0,0,1,5.27,4.33Zm-2.23,17c5-.69,13.28-.78,17-10.53.74.29,1.26.55,2,.8A16.34,16.34,0,0,1,117,21.08a22.69,22.69,0,0,1-12.39,4Zm2.35-10.61c2.32-2.27,4.42-4.77,5-8.09l2,.89c-.6,3.24-2.7,6-4.88,8.29ZM114.31,0h2.21l0,15.43a2.2,2.2,0,0,1-1,1.75c-1.06.78-1.72.43-4,.4-.17-.8-.43-1.4-.6-2.29l2.67.23a.69.69,0,0,0,.69-.55Zm5.22,4.42c2.75,1.92,4.16,4.3,5.53,7.17-.6.54-1.11.86-1.86,1.43a17.73,17.73,0,0,0-5.48-7.31Z" style="fill: #003869"/>
          <path d="M120,56.77v-2.2l-16.64,0V56.8l-2.21,0V33h21.06V56.77ZM103.32,35.06v7.43h7.14l0-7.4Zm7.2,9.58-7.2,0v7.83h7.2Zm2.18-2.12H120V35.09l-7.26,0ZM120,52.44v-7.8h-7.23v7.8Z" style="fill: #003869"/>
          <path d="M124,86.78H103.64c-1.52,0-2.21-1.26-2.21-2.66V65.93l-1.81,0V63.78l24.18,0v2.12H103.61l0,17.61c0,.81.28,1.12,1.17,1.12H124Zm-11-4h-8.12v-8l8.12,0ZM107,77V80.7l3.79,0,0-3.81Zm13.11-3.62-12.91,0,0-6.4h12.88Zm-10.73-2h8.55v-2.5h-8.55Zm13.26,3.47v7.86h-8.21V74.85Zm-2.15,2.07-3.88,0v3.67l3.85,0Z" style="fill: #003869"/>
        </g>
        <g style="isolation: isolate">
          <polygon points="52.63 79.1 0 59.95 45.09 40.18 97.71 59.34 52.63 79.1" style="fill: #6baadb"/>
          <polygon points="52.65 80.94 52.63 79.1 97.71 59.34 97.73 61.17 52.65 80.94" style="fill: #3d77a6"/>
          <polygon points="0.02 61.78 0 59.95 52.63 79.1 52.65 80.94 0.02 61.78" style="fill: #254966"/>
        </g>
        <g>
          <g>
            <ellipse cx="16.72" cy="62.86" rx="2.1" ry="1.26" style="fill: #5dc2a5"/>
            <path d="M16.72,61.82c1.12,0,1.89.55,1.89,1s-.77,1-1.89,1-1.88-.55-1.88-1,.77-1,1.88-1m0-.43c-1.28,0-2.32.66-2.32,1.47s1,1.48,2.32,1.48S19,63.68,19,62.86s-1-1.47-2.32-1.47Z" style="fill: #b0afa9"/>
          </g>
          <path d="M23.17,63.42h0c-2.69-2.47-7.46-4.36-13.64,0h0V59H23.17Z" style="fill: #5dc2a5"/>
          <path d="M18.85,61.9s5.43-1,6.27-3.91v-.3h2.43v3h0c-.21,1.84-3.88,3.35-8.69,3.7a0,0,0,0,1,0-.07h0V62" style="fill: #d7d5cc"/>
          <path d="M14.61,62v2.31a0,0,0,0,1,0,.06h0c-4.82-.35-8.48-1.86-8.7-3.7h0v-3H8.33V58s3.86,3.91,6.27,3.91" style="fill: #d7d5cc"/>
          <path d="M16.72,53.75c-6,0-10.83,1.84-10.83,4.11,0,2,3.75,3.66,8.71,4a0,0,0,0,0,0-.07c-1-.26-1.6-.71-1.6-1.21,0-.81,1.66-1.47,3.71-1.47s3.72.66,3.72,1.47c0,.5-.64,1-1.6,1.21a0,0,0,0,0,0,.07c5-.38,8.7-2,8.7-4C27.55,55.59,22.7,53.75,16.72,53.75Z" style="fill: #59c8e6"/>
          <path d="M16.72,54.14c6.25,0,10.44,1.93,10.44,3.72,0,1.5-2.73,2.88-6.58,3.45a1.07,1.07,0,0,0,.25-.69c0-.92-1.41-1.86-4.11-1.86s-4.11.94-4.11,1.86a1.08,1.08,0,0,0,.26.69c-3.85-.57-6.58-2-6.58-3.45,0-1.79,4.19-3.72,10.43-3.72m0-.39c-6,0-10.83,1.84-10.83,4.11,0,2,3.75,3.66,8.71,4h0a0,0,0,0,0,0-.07c-1-.26-1.6-.71-1.6-1.21,0-.81,1.66-1.47,3.71-1.47s3.72.66,3.72,1.47c0,.5-.64,1-1.6,1.21,0,0,0,.07,0,.07h0c5-.38,8.7-2,8.7-4,0-2.27-4.85-4.11-10.83-4.11Z" style="fill: #b0afa9"/>
          <circle cx="16.72" cy="50.51" r="5.2" style="fill: #30baa4"/>
          <circle cx="17.81" cy="51.02" r="2.29" style="fill: #30baa4"/>
          <circle cx="19.6" cy="53.75" r="2.72" style="fill: #30baa4"/>
          <path d="M15.93,62.8l.51-11.2a.28.28,0,0,1,.3-.27.3.3,0,0,1,.27.27l.51,11.2a.8.8,0,0,1-1.59.07Z" style="fill: #f2652d"/>
          <path d="M16.94,55.39a.09.09,0,0,1-.08-.08.08.08,0,0,1,.08-.09c.13,0,3.07-.1,3.07-3.62a.09.09,0,0,1,.09-.09.09.09,0,0,1,.08.09,3.43,3.43,0,0,1-3.24,3.79Z" style="fill: #f2652d"/>
          <path d="M19.7,52.77a2,2,0,0,1-2.11-2.26.09.09,0,0,1,.09-.08.09.09,0,0,1,.08.08,2.1,2.1,0,0,0,.59,1.62,2.19,2.19,0,0,0,1.48.47.08.08,0,1,1,0,.16Z" style="fill: #f2652d"/>
          <path d="M12.09,60.35c-2.68,0-4.86-1.09-4.86-2.42s2.18-2.43,4.86-2.43v.21c-2.56,0-4.64,1-4.64,2.22s2.08,2.21,4.64,2.21Z" style="fill: #ede9df"/>
          <path d="M10.63,59.57c-1.5,0-2.72-.74-2.72-1.64s1.22-1.65,2.72-1.65v.19c-1.39,0-2.52.65-2.52,1.46s1.13,1.45,2.52,1.45Z" style="fill: #ede9df"/>
          <path d="M23.63,59.57v-.19c1.39,0,2.52-.65,2.52-1.45S25,56.47,23.63,56.47v-.19c1.5,0,2.72.74,2.72,1.65S25.13,59.57,23.63,59.57Z" style="fill: #ede9df"/>
          <circle cx="13.16" cy="53.9" r="2.41" style="fill: #30baa4"/>
          <path d="M16.57,54c-2.72,0-3.16-3.12-3.17-3.16a.09.09,0,0,1,.08-.09s.08,0,.09.07.43,3,3,3a.08.08,0,1,1,0,.16Z" style="fill: #f2652d"/>
          <path d="M14.29,52.85a.11.11,0,0,1-.07,0,.1.1,0,0,1,0-.12,4.23,4.23,0,0,0,1.47-3.42.08.08,0,1,1,.16,0,4.28,4.28,0,0,1-1.54,3.56Z" style="fill: #f2652d"/>
        </g>
        <g>
          <line x1="54.64" y1="48.69" x2="54.64" y2="49.36" style="fill: #ffc868"/>
          <g>
            <polygon points="39.22 29.12 38.19 29.12 37.67 29.82 38.19 30.53 39.22 30.53 39.74 29.82 39.22 29.12" style="fill: #81c3cd"/>
            <rect x="38.17" y="30.53" width="1.05" height="14.32" style="fill: #fff"/>
            <polygon points="39.74 44.08 39.22 44.79 39.22 30.53 39.74 29.82 39.74 44.08" style="fill: #ced7f4"/>
            <polygon points="37.66 44.08 38.18 44.79 38.18 30.53 37.66 29.82 37.66 44.08" style="fill: #1bb6f0"/>
            <g>
              <polygon points="36.81 34.88 36.81 33.46 39.06 33.78 39.06 36.34 36.81 34.88" style="fill: #fff"/>
              <rect x="36.16" y="33.46" width="0.65" height="1.42" style="fill: #1bb6f0"/>
              <polyline points="39.06 36.34 38.28 36.34 36.16 34.88 36.81 34.88" style="fill: #ced7f4"/>
            </g>
            <ellipse cx="39.58" cy="31.85" rx="0.23" ry="0.78" style="fill: #fff"/>
            <polygon points="39.74 36.23 40.88 33.6 40.88 32.56 39.74 33.55 39.74 36.23" style="fill: #fff"/>
            <polygon points="40.88 32.56 40 32.66 39.74 32.91 39.74 33.55 40.88 32.56" style="fill: #1bb6f0"/>
          </g>
          <polygon points="56.84 52.32 28.27 52.32 34.73 42.47 63.31 42.47 56.84 52.32" style="fill: #d5f2cc"/>
          <circle cx="59.32" cy="42.47" r="2.03" style="fill: #6bdfbd"/>
          <circle cx="40.35" cy="42.53" r="1.9" style="fill: #6bdfbd"/>
          <circle cx="39.51" cy="48.59" r="1.9" style="fill: #6bdfbd"/>
          <rect x="28.27" y="52.32" width="28.58" height="0.88" style="fill: #ced7f4"/>
          <g>
            <path d="M55.78,45.07A3.22,3.22,0,1,1,59,41.85,3.22,3.22,0,0,1,55.78,45.07Z" style="fill: #6bdfbd"/>
            <path d="M55.78,38.74a3.11,3.11,0,1,1-3.1,3.11,3.11,3.11,0,0,1,3.1-3.11m0-.22a3.33,3.33,0,1,0,3.33,3.33,3.33,3.33,0,0,0-3.33-3.33Z" style="fill: #1bb6f0"/>
          </g>
          <g>
            <polygon points="46.57 29.33 45.53 29.33 45.02 30.04 45.53 30.74 46.57 30.74 47.09 30.04 46.57 29.33" style="fill: #81c3cd"/>
            <rect x="45.52" y="30.75" width="1.05" height="14.32" style="fill: #fff"/>
            <polygon points="47.09 44.3 46.57 45 46.57 30.74 47.09 30.04 47.09 44.3" style="fill: #ced7f4"/>
            <polygon points="45.01 44.3 45.53 45 45.53 30.74 45.01 30.04 45.01 44.3" style="fill: #1bb6f0"/>
            <g>
              <polygon points="44.16 35.09 44.16 33.67 46.41 34 46.41 36.55 44.16 35.09" style="fill: #fff"/>
              <rect x="43.51" y="33.68" width="0.65" height="1.42" style="fill: #1bb6f0"/>
              <polyline points="46.41 36.55 45.62 36.55 43.51 35.09 44.16 35.09" style="fill: #ced7f4"/>
            </g>
            <ellipse cx="46.92" cy="32.06" rx="0.23" ry="0.78" style="fill: #fff"/>
            <polygon points="47.09 36.44 48.22 33.81 48.22 32.77 47.09 33.77 47.09 36.44" style="fill: #fff"/>
            <polygon points="48.22 32.77 47.35 32.87 47.09 33.13 47.09 33.77 48.22 32.77" style="fill: #1bb6f0"/>
          </g>
          <g>
            <polygon points="51.45 29.42 50.41 29.42 49.89 30.13 50.41 30.84 51.45 30.84 51.96 30.13 51.45 29.42" style="fill: #81c3cd"/>
            <rect x="50.4" y="30.84" width="1.05" height="14.32" style="fill: #fff"/>
            <polygon points="51.96 44.39 51.45 45.1 51.45 30.84 51.96 30.13 51.96 44.39" style="fill: #ced7f4"/>
            <polygon points="49.88 44.39 50.4 45.1 50.4 30.84 49.88 30.13 49.88 44.39" style="fill: #1bb6f0"/>
            <g>
              <polygon points="49.03 35.19 49.03 33.77 51.28 34.09 51.28 36.65 49.03 35.19" style="fill: #fff"/>
              <rect x="48.38" y="33.77" width="0.65" height="1.42" style="fill: #1bb6f0"/>
              <polyline points="51.28 36.65 50.5 36.65 48.39 35.19 49.03 35.19" style="fill: #ced7f4"/>
            </g>
            <ellipse cx="51.8" cy="32.16" rx="0.23" ry="0.78" style="fill: #fff"/>
            <polygon points="51.96 36.54 53.1 33.91 53.1 32.87 51.96 33.86 51.96 36.54" style="fill: #fff"/>
            <polygon points="53.1 32.87 52.22 32.96 51.96 33.22 51.96 33.86 53.1 32.87" style="fill: #1bb6f0"/>
          </g>
          <g>
            <polygon points="34.91 32.62 33.88 32.62 33.36 33.33 33.88 34.03 34.91 34.03 35.43 33.33 34.91 32.62" style="fill: #81c3cd"/>
            <rect x="33.86" y="34.04" width="1.05" height="14.32" style="fill: #fff"/>
            <polygon points="35.43 47.58 34.91 48.29 34.91 34.03 35.43 33.33 35.43 47.58" style="fill: #ced7f4"/>
            <polygon points="33.35 47.58 33.87 48.29 33.87 34.03 33.35 33.33 33.35 47.58" style="fill: #1bb6f0"/>
            <g>
              <polygon points="32.5 38.38 32.5 36.97 34.75 37.28 34.75 39.84 32.5 38.38" style="fill: #fff"/>
              <rect x="31.85" y="36.96" width="0.65" height="1.42" style="fill: #1bb6f0"/>
              <polyline points="34.75 39.84 33.97 39.84 31.86 38.38 32.5 38.38" style="fill: #ced7f4"/>
            </g>
            <ellipse cx="35.27" cy="35.35" rx="0.23" ry="0.78" style="fill: #fff"/>
            <polygon points="35.43 39.73 36.57 37.1 36.57 36.06 35.43 37.06 35.43 39.73" style="fill: #fff"/>
            <polygon points="36.57 36.06 35.69 36.16 35.43 36.42 35.43 37.06 36.57 36.06" style="fill: #1bb6f0"/>
          </g>
          <g>
            <rect x="42.02" y="48.72" width="12.6" height="0.28" style="fill: #1bb6f0"/>
            <path d="M54.58,48.75V49H42v-.22H54.58m.06-.06H42V49H54.64v-.34Z" style="fill: #6bdfbd"/>
          </g>
          <g>
            <polygon points="43.72 50.35 42.41 50.47 42.22 50.35 42.22 47.03 43.72 47.03 43.72 50.35" style="fill: #fff"/>
            <polygon points="54.47 50.35 53.16 50.47 52.97 50.35 52.97 47.03 54.47 47.03 54.47 50.35" style="fill: #fff"/>
          </g>
          <rect x="41.36" y="43.34" width="13.9" height="5.35" style="fill: #fff"/>
          <path d="M54.68,48.23H42V43.8H54.68ZM42,48.15H54.6V43.88H42Z" style="fill: #1bb6f0"/>
          <g>
            <path d="M45,45.51l-.09,0a.09.09,0,0,1-.07,0h0a0,0,0,0,1,0,0,.11.11,0,0,0,0,.05c0,.06,0,.14,0,.19a.17.17,0,0,1,0,.11.09.09,0,0,1-.07,0s0,0,0,0a.06.06,0,0,0,0,0h-.19a.05.05,0,0,1,0,0,0,0,0,0,1-.06,0s0,0,0-.07a.17.17,0,0,1,0-.07.91.91,0,0,0,0-.17s0,0,0-.07l-.08,0-.07,0H44s0,0,0-.05a.83.83,0,0,0,.25-.18.17.17,0,0,1-.1,0,.13.13,0,0,1,0-.07s0,0,0,0l.28,0s0,0,0,0h-.2s0-.05,0-.05.19,0,.26-.07a.21.21,0,0,0,.1-.06h0a.22.22,0,0,1,.15.08,0,0,0,0,1,0,0l-.08,0-.09,0s0,0,0,.05l.19,0h.07s0,0,.06,0a0,0,0,0,1,0,.05l0,0-.18,0,.17.07a.4.4,0,0,1,.16.07A0,0,0,0,1,45,45.51Zm-.57-.07a.08.08,0,0,1,0,0l-.09.07.06,0h.05A.06.06,0,0,1,44.45,45.44Zm.19.17a0,0,0,0,0,0,0l-.19,0v0l.16,0,0,0Zm0,.13h-.21v0h.21S44.63,45.76,44.64,45.74Zm0-.38s0,.08,0,.11l.06,0s0,0,0,0Z" style="fill: #f4662d"/>
            <path d="M45.85,45.48h-.07l0,0a0,0,0,0,1,0,0s0,0,0,0v0a0,0,0,0,0,0,0l0,0s0,0,0,0a.05.05,0,0,1,.05,0,.15.15,0,0,1,.11,0l0,0v.07S45.87,45.47,45.85,45.48Zm.78.17,0,0H46.5a.07.07,0,0,1-.06,0l0-.06s0,.06,0,.06l0,0a.05.05,0,0,1,0,0l-.19,0a0,0,0,0,0,0,0l0,0a.38.38,0,0,0,.15,0s0,0,0,0,0-.05,0-.08a0,0,0,0,1,0,0h0s0,.05,0,.07l0,0a.07.07,0,0,1,0,.14h-.37a.2.2,0,0,1-.09-.06.3.3,0,0,1,0-.1s0,0,0-.09l0,0H45.9l0,0s0,.06,0,.09l0,0h0a.27.27,0,0,1-.1-.11s0-.06,0-.07a1.7,1.7,0,0,0,.15-.22h0s0,0,0,0v.06s0,0,0,.08l.08-.12v0h0a.06.06,0,0,1-.05,0,.13.13,0,0,1,0-.07s0,0,0,0h.14V45.3a.11.11,0,0,1-.08,0,.09.09,0,0,1-.05-.07s0,0,0,0H46a.11.11,0,0,0,0-.06s0,0,0,0,0,0,0,0a.26.26,0,0,1,.11,0,.05.05,0,0,1,0,0,.06.06,0,0,1,0,0h.07v0a.43.43,0,0,0,0-.05,0,0,0,0,1,0,0,.05.05,0,0,1,.05,0,.25.25,0,0,1,.13.06v.06h.06a.08.08,0,0,1,0,.07.05.05,0,0,1,0,.05h-.09v0l.08,0a.08.08,0,0,1,.07,0,.15.15,0,0,1,0,.08,0,0,0,0,1,0,0h-.13l.13.09a.27.27,0,0,1,.13.07S46.65,45.65,46.63,45.65Zm-.72-.39,0,0,0,0h-.06s0,0,0,0a0,0,0,0,1,0,0v0s0,0,0,0a0,0,0,0,1,0,0,.06.06,0,0,1,.05-.06.2.2,0,0,1,.11,0,.14.14,0,0,1,0,.08A.11.11,0,0,1,45.91,45.26Zm.25.37v0h.07a.08.08,0,0,0,0,0Zm.11-.19-.08,0v0s0,0,0,0l0,0,.11,0h0Zm-.08-.16v0h0v0Z" style="fill: #f4662d"/>
            <path d="M48.19,45.31a.56.56,0,0,0-.1.15.13.13,0,0,1,0,.06.07.07,0,0,1,0,.06h-.27v.23a.2.2,0,0,1,0,.11.09.09,0,0,1,0,0,0,0,0,0,1,0,0,.21.21,0,0,1,0-.1c0-.05,0-.09,0-.12v-.12h-.11a.24.24,0,0,1,0,.07.08.08,0,0,1-.09,0,.49.49,0,0,1,0-.21.59.59,0,0,0,0-.2s0-.05,0-.06,0,0,.08,0l.09,0h.15v-.07a.13.13,0,0,0,0-.08s0,0,0-.05l0,0a.43.43,0,0,1,.16,0,.06.06,0,0,1,0,.07.46.46,0,0,0,0,.09h.1l.1,0h.06a.29.29,0,0,1,.12.1S48.21,45.3,48.19,45.31Zm-.52,0h-.13s0,.11,0,.15h.12Zm.15,0v.14h.12a.59.59,0,0,0,0-.14Z" style="fill: #f4662d"/>
            <path d="M49.76,45.88s0,0-.08,0-.06,0-.08,0h-.07s-.05,0-.06-.05l-.09-.13a.92.92,0,0,1-.19.13.34.34,0,0,1-.15,0,.42.42,0,0,0-.15,0s0,0,0-.06a1.41,1.41,0,0,0,.22-.06.8.8,0,0,0,.18-.12.34.34,0,0,0-.12-.12l-.07,0s0,0,0,0a.08.08,0,0,1,0,0H49l0,0s0-.07,0-.07a3,3,0,0,0,.61-.1.1.1,0,0,1,.08,0,.19.19,0,0,1,.06.07s0,.06,0,.06l-.14,0,.05,0s0,0,0,.06l0,0a.42.42,0,0,1-.09.14l.15.08a1.31,1.31,0,0,1,.21.08s0,.07,0,.07S49.79,45.85,49.76,45.88Zm-.57-.48s.06,0,.07,0l.11.11a.25.25,0,0,0,.06-.17Zm.23-.2h-.06l-.06,0h-.07s0,0,0,0l0,0v0s0,0,0,0a0,0,0,0,1,0-.06h.1l.09.06a.14.14,0,0,1,0,.07A.08.08,0,0,1,49.42,45.2Z" style="fill: #f4662d"/>
            <path d="M51.47,45.9s-.07,0-.08,0a.09.09,0,0,1-.07,0,.1.1,0,0,0-.08,0s-.08,0-.11,0a2.4,2.4,0,0,1-.18-.26.56.56,0,0,1-.2.23.32.32,0,0,1-.14,0h-.12s0,0,0-.06a.71.71,0,0,0,.26-.14.41.41,0,0,0,.1-.21h-.09a.12.12,0,0,1-.16-.08s0,0,0,0l.22,0a.85.85,0,0,0,0-.16.21.21,0,0,0,0-.11,0,0,0,0,1,0,0,.21.21,0,0,1,.19,0,.06.06,0,0,1,0,.07.13.13,0,0,0,0,.08v.11l.15,0a.13.13,0,0,1,.17.1s0,0-.05,0l-.28,0s0,0,0,.05a.86.86,0,0,0,.33.23.55.55,0,0,1,.15.08S51.48,45.89,51.47,45.9Z" style="fill: #f4662d"/>
            <path d="M53,45.47h-.09l-.08,0s0,0,0,0l0,0s0,0,0,0h-.13a.31.31,0,0,1,.09.07,0,0,0,0,1,0,0h0l-.08.06.22,0a.14.14,0,0,1,.11,0s0,0,0,.06,0,0,0,0h-.31a.34.34,0,0,1,0,.1.21.21,0,0,1,0,.13.07.07,0,0,1-.09,0,.11.11,0,0,1-.07-.06.12.12,0,0,0-.09-.08v0l0,0,.12,0,0,0v-.05l-.26,0h-.06a.15.15,0,0,1,0-.06s0,0,0,0h.32v0s0,0,0,0h.06a.17.17,0,0,1,0-.05l-.16,0s-.05,0-.06,0,0,0,0-.05,0,0,0,0l.17,0,.11,0-.28,0h-.06s0,.09,0,.11a.08.08,0,0,1-.15,0,.06.06,0,0,1,0-.07.28.28,0,0,0,.06-.14s0,0,0,0l0,0h0a.69.69,0,0,0,0-.17.1.1,0,0,0,0-.07s0,0,0,0h.05l0-.05s0,0,0,0a.06.06,0,0,1,.07,0,.18.18,0,0,1,.08,0s0,0,0,0l0,0s0,0-.06,0v0l0,0h0l.07-.07L52.47,45a0,0,0,0,1,0,0l.07,0a0,0,0,0,0,0,0s0,0,0,0a.11.11,0,0,1,.08,0,0,0,0,0,1,0,0l0,0,0,0a.08.08,0,0,1,0,0s0,0,0,0,0,0,0,0l0,0,0,0v0h.06v0a0,0,0,0,1,0,0s0,0,0,0,0,0,0,0h.07a.08.08,0,0,1-.07,0,0,0,0,0,1,0,0h.07v0h-.06a.05.05,0,0,1,0,0,0,0,0,0,1,0,0,.23.23,0,0,0,.11,0h0a.23.23,0,0,1,.1.07,0,0,0,0,1,0,0,.1.1,0,0,0-.05.06.59.59,0,0,0,0,.14h.06l.05,0a.27.27,0,0,1,.06.1S53,45.47,53,45.47Zm-.43-.16-.06,0h-.05s0,0,0,0l.07-.06-.05,0s0,0,0,0h.06l0,0s0,0,0,0h0l0,0h-.08s0,0,0,0l-.06,0v0h.07l0,0a.05.05,0,0,1,0,0l-.06,0v0l.2,0Z" style="fill: #f4662d"/>
          </g>
          <g>
            <path d="M42.9,46.6h0q0-.12-.09-.12h0s0,0,0,0v.27s0,0,0,0h-.06s0,0,0,0v-.29h0s-.08,0-.09.12h0v-.14h.31Z" style="fill: #f4662d"/>
            <path d="M43.31,46.83h-.12a0,0,0,0,0,0,0v-.14H43v.14a0,0,0,0,0,0,0H43a0,0,0,0,0,0,0v-.28a0,0,0,0,0,0,0h0v0h.15v0h0a0,0,0,0,0,0,0v.12h.2v-.12a0,0,0,0,0,0,0h0v0h.15v0h0a0,0,0,0,0,0,0v.28a0,0,0,0,0,0,0h0Z" style="fill: #f4662d"/>
            <path d="M43.68,46.7v.13h-.28a0,0,0,0,0,0,0v-.26s0,0,0,0h0v0h.32v.14h0a.13.13,0,0,0,0-.09.12.12,0,0,0-.09,0h-.08v.14h.06a.05.05,0,0,0,0,0,.07.07,0,0,0,0,0h0v.16h0s0-.07-.05-.07h-.06v.16h.1a.1.1,0,0,0,.08,0,.46.46,0,0,0,0-.09Z" style="fill: #f4662d"/>
            <path d="M44.19,46.71a.19.19,0,0,1,0,.09.13.13,0,0,1-.1,0,.19.19,0,0,1-.13-.05.21.21,0,0,1,0-.13.22.22,0,0,1,0-.14.15.15,0,0,1,.13-.06.12.12,0,0,1,.09,0l0,0h0v.15h0a.46.46,0,0,0,0-.09.09.09,0,0,0-.08,0,.12.12,0,0,0-.1.06.24.24,0,0,0,0,.12.2.2,0,0,0,0,.11.14.14,0,0,0,.11,0,.11.11,0,0,0,.07,0,.13.13,0,0,0,0-.09Z" style="fill: #f4662d"/>
            <path d="M44.6,46.83h-.13a0,0,0,0,0,0,0v-.14h-.19v.14a0,0,0,0,0,0,0h-.1a0,0,0,0,0,0,0v-.28a0,0,0,0,0,0,0h0v0h.15v0h0a0,0,0,0,0,0,0v.12h.19v-.12a0,0,0,0,0,0,0h0v0h.15v0h0s0,0,0,0v.28s0,0,0,0h0Z" style="fill: #f4662d"/>
            <path d="M44.78,46.83h-.12a0,0,0,0,0,0,0v-.28a0,0,0,0,0,0,0h0v0h.14v0h0a0,0,0,0,0,0,0v.28a0,0,0,0,0,0,0h0Z" style="fill: #f4662d"/>
            <path d="M45.21,46.48h0s0,0,0,0v.32h0l-.24-.31v.25s0,0,0,0h-.08s0,0,0,0v-.27a0,0,0,0,0,0,0h0v0h.08l.23.3v-.24s0,0,0,0h0v0h.13Z" style="fill: #f4662d"/>
            <path d="M45.57,46.7v.13h-.27v-.29s0,0,0,0h0v0h.31v.14h0c0-.05,0-.08,0-.09a.12.12,0,0,0-.09,0h-.07s0,0,0,0v.11h.06s0,0,0,0a.08.08,0,0,0,0,0h0v.16h0s0-.07-.06-.07h-.06v.13a0,0,0,0,0,0,0h.09s.07,0,.08,0l0-.09Z" style="fill: #f4662d"/>
            <path d="M45.87,46.73a.08.08,0,0,1,0,.08.11.11,0,0,1-.08,0,.16.16,0,0,1-.12,0l0,0h0V46.7h0a.13.13,0,0,0,.14.12l.06,0a.05.05,0,0,0,0,0s0,0,0-.06l-.07,0-.08,0s0,0,0-.07a.11.11,0,0,1,0-.08l.08,0a.13.13,0,0,1,.1,0l0,0h0v.13h0c0-.07,0-.11-.11-.11l-.06,0s0,0,0,0,0,0,0,0l.07,0,.07,0s0,0,0,0S45.87,46.71,45.87,46.73Z" style="fill: #f4662d"/>
            <path d="M46.23,46.7v.13h-.28a0,0,0,0,0,0,0v-.26s0,0,0,0h0v0h.31v.14h0a.22.22,0,0,0,0-.09.12.12,0,0,0-.09,0H46v.14h.06l0,0a.07.07,0,0,0,0,0h0v.16h0s0-.07,0-.07H46v.16h.09a.12.12,0,0,0,.09,0,.46.46,0,0,0,0-.09Z" style="fill: #f4662d"/>
            <path d="M46.81,46.48h0s0,0,0,0v.18a.14.14,0,0,1-.14.14.18.18,0,0,1-.11,0,.11.11,0,0,1,0-.1v-.2a0,0,0,0,0,0,0h0v0h.15v0h0a0,0,0,0,0,0,0v.19a.11.11,0,0,0,.12.12.11.11,0,0,0,.08,0,.12.12,0,0,0,0-.09v-.18s0,0,0,0h0v0h.13Z" style="fill: #f4662d"/>
            <path d="M47.23,46.48h0s0,0,0,0v.32h0l-.24-.31v.25s0,0,0,0h-.07s0,0,0,0v-.27s0,0,0,0h0v0h.08l.23.3v-.24s0,0,0,0h0v0h.13Z" style="fill: #f4662d"/>
            <path d="M47.42,46.83h-.13a0,0,0,0,0,0,0v-.28a0,0,0,0,0,0,0h0v0h.15v0h0s0,0,0,0v.28s0,0,0,0h0Z" style="fill: #f4662d"/>
            <path d="M47.82,46.48a.06.06,0,0,0-.06.05l-.12.3h0l-.12-.31,0,0h0v0h.15v0h0s0,0,0,0h0l.11.26.08-.22a.1.1,0,0,0,0,0s0,0,0,0h0v0h.13Z" style="fill: #f4662d"/>
            <path d="M48.18,46.7v.13h-.28a0,0,0,0,0,0,0v-.26s0,0,0,0h0v0h.31v.14h0a.22.22,0,0,0,0-.09.12.12,0,0,0-.09,0H48v.14H48a.05.05,0,0,0,0,0,.07.07,0,0,0,0,0h0v.16h0s0-.07-.05-.07H48v.16H48a.12.12,0,0,0,.09,0,.46.46,0,0,0,0-.09Z" style="fill: #f4662d"/>
            <path d="M48.56,46.75c0,.06,0,.09-.05.09a.07.07,0,0,1-.07-.06.13.13,0,0,0,0-.06s0,0,0,0l-.06,0H48.3v.13a0,0,0,0,0,0,0h-.06s0,0,0,0v-.26s0,0,0,0h0v0h.19a.12.12,0,0,1,.09,0,.08.08,0,0,1,0,.07s0,.08-.1.09,0,0,.06.09,0,.06,0,.06,0,0,0,0Zm-.08-.19c0-.05,0-.08-.09-.08h0a0,0,0,0,0,0,0v.11h.14A.05.05,0,0,0,48.48,46.56Z" style="fill: #f4662d"/>
            <path d="M48.86,46.73a.08.08,0,0,1,0,.08.11.11,0,0,1-.08,0,.16.16,0,0,1-.12,0l0,0h0V46.7h0a.13.13,0,0,0,.14.12l.06,0a.05.05,0,0,0,0,0s0,0,0-.06l-.07,0-.08,0s0,0,0-.07a.11.11,0,0,1,0-.08l.08,0a.13.13,0,0,1,.1,0l0,0h0v.13h0c0-.07,0-.11-.11-.11l-.06,0a0,0,0,0,0,0,0s0,0,0,0l.07,0,.07,0s0,0,0,0S48.86,46.71,48.86,46.73Z" style="fill: #f4662d"/>
            <path d="M49,46.83h-.13a0,0,0,0,0,0,0v-.28a0,0,0,0,0,0,0h0v0H49v0h0s0,0,0,0v.28s0,0,0,0h0Z" style="fill: #f4662d"/>
            <path d="M49.39,46.6h0c0-.08,0-.12-.08-.12h0s0,0,0,0v.27s0,0,0,0H49.2v-.32h0s-.07,0-.08.12h0v-.14h.31Z" style="fill: #f4662d"/>
            <path d="M49.77,46.48l0,0,0,0-.08.14v.11a0,0,0,0,0,0,0h-.1a0,0,0,0,0,0,0v-.1l-.12-.18a.06.06,0,0,0-.06,0v0h.14v0h0l0,0v0l.09.14.08-.13v0s0,0,0,0h0v0h.13Z" style="fill: #f4662d"/>
            <path d="M50.3,46.65a.19.19,0,0,1,0,.13.15.15,0,0,1-.13.06.18.18,0,0,1-.13-.06.23.23,0,0,1,0-.26.18.18,0,0,1,.13-.06.15.15,0,0,1,.13.06A.19.19,0,0,1,50.3,46.65Zm0,0a.18.18,0,0,0,0-.11.1.1,0,0,0-.1-.06.1.1,0,0,0-.09.06.22.22,0,0,0,0,.22.1.1,0,0,0,.09.06.1.1,0,0,0,.1-.06A.18.18,0,0,0,50.25,46.65Z" style="fill: #f4662d"/>
            <path d="M50.65,46.6h0c0-.05,0-.08,0-.09s0,0-.09,0h-.07v.14h0l0,0a.08.08,0,0,0,0,0h0v.16h0s0-.07-.06-.07h0v.16h-.06s0,0,0,0v-.26s0,0,0,0h0v0h.31Z" style="fill: #f4662d"/>
            <path d="M51.22,46.83H51.1s0,0,0,0v-.14h-.19v.14a0,0,0,0,0,0,0h-.1a0,0,0,0,0,0,0v-.28a0,0,0,0,0,0,0h0v0H51v0h0a0,0,0,0,0,0,0v.12h.19v-.12s0,0,0,0h0v0h.15v0h0a0,0,0,0,0,0,0v.28a0,0,0,0,0,0,0h0Z" style="fill: #f4662d"/>
            <path d="M51.6,46.65a.18.18,0,0,1,0,.13.16.16,0,0,1-.13.06.15.15,0,0,1-.13-.06.23.23,0,0,1,0-.26.15.15,0,0,1,.13-.06.16.16,0,0,1,.13.06A.18.18,0,0,1,51.6,46.65Zm-.05,0a.31.31,0,0,0,0-.11.11.11,0,0,0-.2,0,.31.31,0,0,0,0,.22.11.11,0,0,0,.2,0A.31.31,0,0,0,51.55,46.65Z" style="fill: #f4662d"/>
            <path d="M52,46.48h0s0,0,0,0v.32h0l-.24-.31v.25s0,0,0,0h-.08s0,0,0,0v-.27a0,0,0,0,0,0,0h0v0h.08l.23.3v-.24s0,0,0,0h0v0H52Z" style="fill: #f4662d"/>
            <path d="M52.43,46.68h0s0,0,0,0v.13h0l0,0a.12.12,0,0,1-.1,0,.17.17,0,0,1-.18-.18.22.22,0,0,1,.05-.14.18.18,0,0,1,.23,0l0,0h0v.15h0a.46.46,0,0,0,0-.1.11.11,0,0,0-.08,0,.12.12,0,0,0-.1.06.25.25,0,0,0,0,.12.25.25,0,0,0,0,.1.13.13,0,0,0,.11.06.09.09,0,0,0,.07,0l0,0v0a0,0,0,0,0,0,0h0v0h.15Z" style="fill: #f4662d"/>
            <path d="M53,46.83h-.16s0,0,0,0l0,0-.09-.14-.07.07v.08a0,0,0,0,0,0,0h-.1a0,0,0,0,0,0,0v-.28a0,0,0,0,0,0,0h0v0h.15v0h0a0,0,0,0,0,0,0v.17l.14-.15,0,0,0,0h0v0H53v0h-.05l0,0-.07.08.12.17,0,0h0Z" style="fill: #f4662d"/>
            <path d="M53.38,46.65a.19.19,0,0,1-.05.13.15.15,0,0,1-.13.06.16.16,0,0,1-.13-.06.23.23,0,0,1,0-.26.16.16,0,0,1,.13-.06.15.15,0,0,1,.13.06A.19.19,0,0,1,53.38,46.65Zm-.05,0a.18.18,0,0,0,0-.11.1.1,0,0,0-.1-.06.1.1,0,0,0-.09.06.22.22,0,0,0,0,.22.1.1,0,0,0,.09.06.1.1,0,0,0,.1-.06A.18.18,0,0,0,53.33,46.65Z" style="fill: #f4662d"/>
            <path d="M53.79,46.48h0s0,0,0,0v.32h0l-.23-.31v.25s0,0,0,0h-.07s0,0,0,0v-.27a0,0,0,0,0,0,0h0v0h.08l.23.3v-.24s0,0,0,0h0v0h.13Z" style="fill: #f4662d"/>
            <path d="M54.21,46.68h0a0,0,0,0,0,0,0v.13h0v0a.15.15,0,0,1-.11,0,.17.17,0,0,1-.17-.18.21.21,0,0,1,0-.14.18.18,0,0,1,.13-.06.18.18,0,0,1,.11,0l0,0h0v.15h0a.51.51,0,0,0,0-.1.12.12,0,0,0-.09,0,.1.1,0,0,0-.09.06.27.27,0,0,0,0,.12.15.15,0,0,0,0,.1.1.1,0,0,0,.1.06.08.08,0,0,0,.07,0,.06.06,0,0,0,0,0v0a0,0,0,0,0,0,0h0v0h.16Z" style="fill: #f4662d"/>
          </g>
          <polygon points="41.36 43.34 41.99 42.5 55.99 42.5 55.27 43.34 41.36 43.34" style="fill: #ced7f4"/>
          <g>
            <path d="M31.88,51.24A3.22,3.22,0,1,1,35.09,48,3.22,3.22,0,0,1,31.88,51.24Z" style="fill: #6bdfbd"/>
            <path d="M31.88,44.91A3.11,3.11,0,1,1,28.77,48a3.11,3.11,0,0,1,3.11-3.11m0-.22A3.33,3.33,0,1,0,35.21,48a3.33,3.33,0,0,0-3.33-3.33Z" style="fill: #1bb6f0"/>
          </g>
          <circle cx="34.83" cy="49.59" r="1.92" style="fill: #1bb6f0"/>
          <circle cx="39.06" cy="50.15" r="1.15" style="fill: #1bb6f0"/>
          <polygon points="55.99 42.5 55.99 47.4 55.27 48.69 55.27 43.34 55.99 42.5" style="fill: #fff"/>
          <polygon points="54.64 48.69 54.64 49.03 54.84 48.69 54.64 48.69" style="fill: #81c3cd"/>
          <rect x="42.41" y="49.03" width="0.85" height="1.44" style="fill: #ced7f4"/>
          <polygon points="42.25 48.69 42.41 49.03 43.26 49.03 43.72 48.69 42.25 48.69" style="fill: #81c3cd"/>
          <polygon points="43.26 50.49 43.72 50.35 43.72 48.69 43.26 49.05 43.26 50.49" style="fill: #fff"/>
          <rect x="53.16" y="49.03" width="0.85" height="1.44" style="fill: #ced7f4"/>
          <polygon points="52.99 48.69 53.16 49.03 54 49.03 54.47 48.69 52.99 48.69" style="fill: #81c3cd"/>
          <polygon points="54 50.47 54.47 50.35 54.47 48.69 54 49.05 54 50.47" style="fill: #fff"/>
          <polygon points="44.46 49.59 43.72 49.59 43.72 49.03 45.02 49.03 44.46 49.59" style="fill: #1bb6f0"/>
          <polygon points="43.72 50.35 44.21 49.59 43.72 49.59 43.72 50.35" style="fill: #6bdfbd"/>
          <polygon points="52.23 49.59 52.97 49.59 52.97 49.03 51.67 49.03 52.23 49.59" style="fill: #1bb6f0"/>
          <polygon points="54.47 50.35 55.27 48.69 54.84 48.69 54.64 49.03 54.47 49.03 54.47 50.35" style="fill: #6bdfbd"/>
          <polygon points="56.84 52.32 56.84 53.2 63.31 43.2 63.31 42.47 56.84 52.32" style="fill: #81c3cd"/>
          <g>
            <path d="M37.67,45.08a1.75,1.75,0,1,1,1.75-1.74A1.74,1.74,0,0,1,37.67,45.08Z" style="fill: #6bdfbd"/>
            <path d="M37.67,41.71A1.63,1.63,0,1,1,36,43.34a1.63,1.63,0,0,1,1.63-1.63m0-.23a1.86,1.86,0,1,0,1.86,1.86,1.85,1.85,0,0,0-1.86-1.86Z" style="fill: #1bb6f0"/>
          </g>
          <circle cx="58.5" cy="44.43" r="1.9" style="fill: #1bb6f0"/>
        </g>
        <g>
          <polygon points="95.88 64.29 95.88 63.28 95.22 63.28 95.22 60.92 95.88 60.92 95.88 58.5 95.15 58.5 95.15 57.95 95.15 55.8 84.02 55.8 66.56 53.71 49.09 55.8 37.96 55.8 37.96 57.95 37.96 58.5 37.24 58.5 37.24 60.92 37.9 60.92 37.9 63.28 37.24 63.28 37.24 64.29 36.36 64.29 36.36 68.47 47.49 68.47 48.27 68.47 49.09 68.47 52.71 68.47 59.79 68.47 61.31 68.47 66.56 68.47 71.8 68.47 73.33 68.47 80.41 68.47 84.02 68.47 84.85 68.47 85.63 68.47 96.75 68.47 96.75 64.29 95.88 64.29" style="fill: #babcbe"/>
          <polygon points="60.04 60.6 46.19 61.67 46.19 63.41 73.89 63.41 73.89 61.67 60.04 60.6" style="fill: #e6c6de"/>
          <g>
            <polyline points="40.45 63.04 44.06 63.04 46.19 61.09" style="fill: none;stroke: #ede9df;stroke-miterlimit: 10;stroke-width: 0.081089090874724px"/>
            <polyline points="40.45 63.54 44.06 63.54 46.19 61.63" style="fill: none;stroke: #ede9df;stroke-miterlimit: 10;stroke-width: 0.081089090874724px"/>
            <polyline points="40.45 64.04 44.06 64.04 46.19 62.16" style="fill: none;stroke: #ede9df;stroke-miterlimit: 10;stroke-width: 0.081089090874724px"/>
            <polyline points="40.45 64.53 44.06 64.53 46.19 62.69" style="fill: none;stroke: #ede9df;stroke-miterlimit: 10;stroke-width: 0.081089090874724px"/>
            <polyline points="40.45 65.03 44.06 65.03 46.19 63.23" style="fill: none;stroke: #ede9df;stroke-miterlimit: 10;stroke-width: 0.081089090874724px"/>
            <polyline points="40.45 65.53 44.06 65.53 46.19 63.76" style="fill: none;stroke: #ede9df;stroke-miterlimit: 10;stroke-width: 0.081089090874724px"/>
            <polyline points="40.45 66.02 44.06 66.02 46.19 64.3" style="fill: none;stroke: #ede9df;stroke-miterlimit: 10;stroke-width: 0.081089090874724px"/>
            <polyline points="40.45 66.52 44.06 66.52 46.19 64.83" style="fill: none;stroke: #ede9df;stroke-miterlimit: 10;stroke-width: 0.081089090874724px"/>
            <polyline points="40.45 67.02 44.06 67.02 46.19 65.37" style="fill: none;stroke: #ede9df;stroke-miterlimit: 10;stroke-width: 0.081089090874724px"/>
            <polyline points="40.45 67.51 44.06 67.51 46.19 65.9" style="fill: none;stroke: #ede9df;stroke-miterlimit: 10;stroke-width: 0.081089090874724px"/>
            <polyline points="40.45 68.01 44.06 68.01 46.19 66.44" style="fill: none;stroke: #ede9df;stroke-miterlimit: 10;stroke-width: 0.081089090874724px"/>
            <polyline points="40.45 68.51 44.06 68.51 46.19 66.97" style="fill: none;stroke: #ede9df;stroke-miterlimit: 10;stroke-width: 0.081089090874724px"/>
            <polyline points="40.45 69 44.06 69 46.19 67.51" style="fill: none;stroke: #ede9df;stroke-miterlimit: 10;stroke-width: 0.081089090874724px"/>
            <polyline points="40.45 69.5 44.06 69.5 46.19 68.04" style="fill: none;stroke: #ede9df;stroke-miterlimit: 10;stroke-width: 0.081089090874724px"/>
            <polyline points="40.45 70 44.06 70 46.19 68.58" style="fill: none;stroke: #ede9df;stroke-miterlimit: 10;stroke-width: 0.081089090874724px"/>
            <polyline points="40.45 70.49 44.06 70.49 46.19 69.11" style="fill: none;stroke: #ede9df;stroke-miterlimit: 10;stroke-width: 0.081089090874724px"/>
            <polyline points="40.45 70.99 44.06 70.99 46.19 69.65" style="fill: none;stroke: #ede9df;stroke-miterlimit: 10;stroke-width: 0.081089090874724px"/>
          </g>
          <g>
            <polyline points="71.75 63.04 75.36 63.04 77.49 61.09" style="fill: none;stroke: #ede9df;stroke-miterlimit: 10;stroke-width: 0.081089090874724px"/>
            <polyline points="71.75 63.54 75.36 63.54 77.49 61.59" style="fill: none;stroke: #ede9df;stroke-miterlimit: 10;stroke-width: 0.081089090874724px"/>
            <polyline points="71.75 64.04 75.36 64.04 77.49 62.09" style="fill: none;stroke: #ede9df;stroke-miterlimit: 10;stroke-width: 0.081089090874724px"/>
            <polyline points="71.75 64.53 75.36 64.53 77.49 62.59" style="fill: none;stroke: #ede9df;stroke-miterlimit: 10;stroke-width: 0.081089090874724px"/>
            <polyline points="71.75 65.03 75.36 65.03 77.49 63.1" style="fill: none;stroke: #ede9df;stroke-miterlimit: 10;stroke-width: 0.081089090874724px"/>
            <polyline points="71.75 65.53 75.36 65.53 77.49 63.6" style="fill: none;stroke: #ede9df;stroke-miterlimit: 10;stroke-width: 0.081089090874724px"/>
            <polyline points="71.75 66.02 75.36 66.02 77.49 64.1" style="fill: none;stroke: #ede9df;stroke-miterlimit: 10;stroke-width: 0.081089090874724px"/>
            <polyline points="71.75 66.52 75.36 66.52 77.49 64.6" style="fill: none;stroke: #ede9df;stroke-miterlimit: 10;stroke-width: 0.081089090874724px"/>
            <polyline points="71.75 67.02 75.36 67.02 77.49 65.1" style="fill: none;stroke: #ede9df;stroke-miterlimit: 10;stroke-width: 0.081089090874724px"/>
            <polyline points="71.75 67.51 75.36 67.51 77.49 65.6" style="fill: none;stroke: #ede9df;stroke-miterlimit: 10;stroke-width: 0.081089090874724px"/>
            <polyline points="71.75 68.01 75.36 68.01 77.49 66.11" style="fill: none;stroke: #ede9df;stroke-miterlimit: 10;stroke-width: 0.081089090874724px"/>
            <polyline points="71.75 68.51 75.36 68.51 77.49 66.61" style="fill: none;stroke: #ede9df;stroke-miterlimit: 10;stroke-width: 0.081089090874724px"/>
            <polyline points="71.75 69 75.36 69 77.49 67.11" style="fill: none;stroke: #ede9df;stroke-miterlimit: 10;stroke-width: 0.081089090874724px"/>
            <polyline points="71.75 69.5 75.36 69.5 77.49 67.61" style="fill: none;stroke: #ede9df;stroke-miterlimit: 10;stroke-width: 0.081089090874724px"/>
            <polyline points="71.75 70 75.36 70 77.49 68.11" style="fill: none;stroke: #ede9df;stroke-miterlimit: 10;stroke-width: 0.081089090874724px"/>
            <polyline points="71.75 70.49 75.36 70.49 77.49 68.61" style="fill: none;stroke: #ede9df;stroke-miterlimit: 10;stroke-width: 0.081089090874724px"/>
            <polyline points="71.75 70.99 75.36 70.99 77.49 69.11" style="fill: none;stroke: #ede9df;stroke-miterlimit: 10;stroke-width: 0.081089090874724px"/>
          </g>
          <polygon points="59.4 61.34 45.86 62.08 45.86 63.82 59.7 63.82 71.75 63.82 71.75 62.7 72.53 62.01 59.4 61.34" style="fill: #ede9df"/>
          <polygon points="89.36 65.39 95.88 58.5 95.88 60.92 89.36 67.81 89.36 65.39" style="fill: #ede9df"/>
          <g>
            <path d="M76.49,75.16c0,3.07-7.86,5.55-17.55,5.55s-17.55-2.48-17.55-5.55" style="fill: #92d3ca"/>
            <path d="M76.49,74.48c0,3.07-7.86,5.56-17.55,5.56s-17.55-2.49-17.55-5.56" style="fill: #ede9df"/>
          </g>
          <g>
            <path d="M76.55,73.85c0,3.07-7.85,5.56-17.55,5.56s-17.54-2.49-17.54-5.56" style="fill: #92d3ca"/>
            <path d="M76.55,73.17c0,3.07-7.85,5.56-17.55,5.56s-17.54-2.49-17.54-5.56" style="fill: #ede9df"/>
          </g>
          <g>
            <path d="M76.77,72.73c0,3.07-7.86,5.56-17.55,5.56S41.68,75.8,41.68,72.73" style="fill: #92d3ca"/>
            <path d="M76.77,72.06c0,3.07-7.86,5.55-17.55,5.55s-17.54-2.48-17.54-5.55" style="fill: #ede9df"/>
          </g>
          <path d="M60,63.41H46.19v12l12,.65a18.29,18.29,0,0,0,2,0l13.79-.66v-12Z" style="fill: #7f3f97"/>
          <path d="M46.19,74.76v.6l12,.65a18.29,18.29,0,0,0,2,0l13.79-.66v-.6Z" style="fill: #e6c6de"/>
          <polygon points="88.7 67.81 88.7 70.17 95.22 63.28 95.22 60.92 88.7 67.81" style="fill: #dda8cc"/>
          <rect x="31.44" y="62.69" width="11.45" height="2.96" style="fill: #7f3f97"/>
          <rect x="31.44" y="64.84" width="11.15" height="0.98" style="fill: #5dc2a5"/>
          <rect x="31.38" y="66.6" width="11.21" height="8.49" style="fill: #dda8cc"/>
          <rect x="30.72" y="65.39" width="12.07" height="2.43" style="fill: #7f3f97"/>
          <rect x="30.72" y="70.17" width="11.9" height="1.89" style="fill: #7f3f97"/>
          <rect x="29.85" y="71.18" width="11.9" height="4.18" style="fill: #e6c6de"/>
          <g>
            <rect x="30.82" y="72" width="10.02" height="0.79" style="fill: #5dc2a5"/>
            <path d="M40.76,72.08v.63H30.89v-.63h9.87m.16-.16H30.74v1H40.92v-1Z" style="fill: #dda8cc"/>
          </g>
          <g>
            <rect x="34.46" y="67.84" width="1.99" height="2.3" style="fill: #92d3ca"/>
            <path d="M36.4,67.89v2.2H34.51v-2.2H36.4m.11-.1h-2.1v2.4h2.1v-2.4Z" style="fill: #dda8cc"/>
          </g>
          <g>
            <rect x="32.24" y="67.84" width="1.82" height="2.3" style="fill: #92d3ca"/>
            <path d="M34,67.89v2.2H32.29v-2.2H34m.11-.1H32.19v2.4h1.92v-2.4Z" style="fill: #dda8cc"/>
          </g>
          <g>
            <rect x="36.86" y="67.84" width="1.82" height="2.3" style="fill: #92d3ca"/>
            <path d="M38.63,67.89v2.2H36.91v-2.2h1.72m.1-.1H36.81v2.4h1.92v-2.4Z" style="fill: #dda8cc"/>
          </g>
          <g>
            <rect x="39.08" y="67.84" width="2.04" height="2.3" style="fill: #92d3ca"/>
            <path d="M41.07,67.89v2.2H39.13v-2.2h1.94m.11-.1H39v2.4h2.15v-2.4Z" style="fill: #dda8cc"/>
          </g>
          <g>
            <rect x="51.95" y="63.87" width="2" height="10.83" style="fill: #92d3ca"/>
            <path d="M53.89,63.92V74.65H52V63.92h1.89m.11-.1H51.9V74.76H54V63.82Z" style="fill: #dda8cc"/>
          </g>
          <g>
            <rect x="47.11" y="63.87" width="2" height="10.83" style="fill: #92d3ca"/>
            <path d="M49.05,63.92V74.65H47.16V63.92h1.89m.11-.1h-2.1V74.76h2.1V63.82Z" style="fill: #dda8cc"/>
          </g>
          <g>
            <rect x="55.91" y="63.87" width="2" height="10.83" style="fill: #92d3ca"/>
            <path d="M57.86,63.92V74.66H56V63.92h1.9m.1-.1h-2.1V74.76H58V63.82Z" style="fill: #dda8cc"/>
          </g>
          <g>
            <rect x="49.01" y="63.58" width="1.21" height="12.48" style="fill: #ede9df"/>
            <path d="M50.29,76.13H49V63.51h1.34ZM49.08,76h1.07V63.65H49.08Z" style="fill: #e6c6de"/>
          </g>
          <polygon points="42.57 60.81 42.57 69.38 40.97 69.38 40.97 75.36 42.57 75.36 46.19 75.36 46.19 69.38 46.19 66.82 46.19 61.9 46.19 60.81 42.57 60.81" style="fill: #a6a7aa"/>
          <rect x="40.44" y="62.7" width="3.62" height="14.54" style="fill: #dda8cc"/>
          <rect x="38.84" y="71.27" width="5.22" height="5.97" style="fill: #7f3f97"/>
          <rect x="77.18" y="62.69" width="11.45" height="2.96" style="fill: #7f3f97"/>
          <rect x="77.49" y="64.84" width="11.15" height="0.98" style="fill: #5dc2a5"/>
          <rect x="77.49" y="66.6" width="11.21" height="8.49" style="fill: #dda8cc"/>
          <rect x="77.28" y="65.39" width="12.07" height="2.43" style="fill: #7f3f97"/>
          <rect x="77.45" y="70.17" width="11.9" height="1.89" style="fill: #7f3f97"/>
          <rect x="78.33" y="71.18" width="11.9" height="4.18" style="fill: #e6c6de"/>
          <g>
            <rect x="79.24" y="72" width="10.02" height="0.79" style="fill: #5dc2a5"/>
            <path d="M89.18,72.08v.63H79.32v-.63h9.86m.16-.16H79.16v1H89.34v-1Z" style="fill: #dda8cc"/>
          </g>
          <g>
            <rect x="83.62" y="67.84" width="1.99" height="2.3" style="fill: #92d3ca"/>
            <path d="M85.57,67.89v2.2H83.68v-2.2h1.89m.1-.1h-2.1v2.4h2.1v-2.4Z" style="fill: #dda8cc"/>
          </g>
          <g>
            <rect x="86.02" y="67.84" width="1.82" height="2.3" style="fill: #92d3ca"/>
            <path d="M87.79,67.89v2.2H86.08v-2.2h1.71m.1-.1H86v2.4h1.92v-2.4Z" style="fill: #dda8cc"/>
          </g>
          <polygon points="66.56 53.71 60.04 60.6 44.57 62.01 49.09 55.8 66.56 53.71" style="fill: #dda8cc"/>
          <g>
            <rect x="81.4" y="67.84" width="1.82" height="2.3" style="fill: #92d3ca"/>
            <path d="M83.17,67.89v2.2H81.45v-2.2h1.72m.1-.1H81.35v2.4h1.92v-2.4Z" style="fill: #dda8cc"/>
          </g>
          <g>
            <rect x="78.95" y="67.84" width="2.04" height="2.3" style="fill: #92d3ca"/>
            <path d="M80.94,67.89v2.2H79v-2.2h1.94m.11-.1H78.9v2.4h2.15v-2.4Z" style="fill: #dda8cc"/>
          </g>
          <g>
            <rect x="65.81" y="63.87" width="2" height="10.83" style="fill: #92d3ca"/>
            <path d="M67.76,63.92V74.65h-1.9V63.92h1.9m.1-.1h-2.1V74.76h2.1V63.82Z" style="fill: #dda8cc"/>
          </g>
          <g>
            <rect x="70.97" y="63.87" width="1.99" height="10.94" style="fill: #5dc2a5"/>
            <path d="M72.92,63.92V74.76H71V63.92h1.89m.1-.1h-2.1v11H73v-11Z" style="fill: #dda8cc"/>
          </g>
          <g>
            <rect x="62.17" y="63.87" width="2" height="10.83" style="fill: #92d3ca"/>
            <path d="M64.12,63.92V74.66h-1.9V63.92h1.9m.1-.1h-2.1V74.76h2.1V63.82Z" style="fill: #dda8cc"/>
          </g>
          <polygon points="66.56 53.71 84.02 55.8 77.56 62.31 60.04 60.6 66.56 53.71" style="fill: #7f3f97"/>
          <polygon points="84.02 55.8 95.15 55.8 88.63 62.7 77.18 62.7 84.02 55.8" style="fill: #7f3f97"/>
          <polygon points="77.5 69.38 77.5 60.81 73.89 60.81 73.89 61.9 73.89 66.82 73.89 69.38 73.89 75.36 77.5 75.36 79.11 75.36 79.11 69.38 77.5 69.38" style="fill: #a6a7aa"/>
          <rect x="71.73" y="62.7" width="3.62" height="14.54" transform="translate(147.08 139.95) rotate(-180)" style="fill: #e6c6de"/>
          <rect x="71.73" y="71.27" width="4.76" height="5.97" transform="translate(148.23 148.52) rotate(-180)" style="fill: #dda8cc"/>
          <polygon points="75.35 62.7 77.5 60.81 73.89 60.81 71.73 62.7 75.35 62.7" style="fill: #ede9df"/>
          <polygon points="75.35 62.7 75.35 71.27 77.5 69.38 77.5 60.81 75.35 62.7" style="fill: #dda8cc"/>
          <polygon points="31.45 62.7 36.32 55.8 49.09 55.8 44.06 62.7 31.45 62.7" style="fill: #7f3f97"/>
          <polygon points="77.45 70.78 79.11 69.38 77.5 69.38 75.35 71.27 76.5 71.27 77.45 70.78" style="fill: #ede9df"/>
          <polygon points="77.45 70.78 77.45 76.75 79.11 75.36 79.11 69.38 77.45 70.78" style="fill: #7f3f97"/>
          <polygon points="44.06 62.7 46.19 60.81 42.57 60.81 40.45 62.7 44.06 62.7" style="fill: #ede9df"/>
          <polygon points="44.06 62.7 44.06 71.27 46.19 69.97 46.19 60.81 44.06 62.7" style="fill: #e6c6de"/>
          <polygon points="44.06 77.25 46.19 75.36 46.19 69.97 44.06 71.27 44.06 77.25" style="fill: #dda8cc"/>
          <polygon points="38.84 71.27 40.45 70.33 40.45 71.27 38.84 71.27" style="fill: #92d3ca"/>
          <polygon points="50.22 76.06 50.54 75.53 50.54 63.58 50.22 63.58 50.22 76.06" style="fill: #e6c6de"/>
          <g>
            <rect x="58.52" y="63.82" width="1.21" height="13.71" style="fill: #ede9df"/>
            <path d="M59.79,77.6H58.45V63.75h1.34Zm-1.21-.13h1.07V63.89H58.58Z" style="fill: #e6c6de"/>
          </g>
          <polygon points="59.72 77.53 60.04 76.95 60.04 63.82 59.72 63.82 59.72 77.53" style="fill: #e6c6de"/>
          <g>
            <rect x="69.4" y="63.41" width="1.21" height="12.48" style="fill: #ede9df"/>
            <path d="M70.68,76H69.33V63.34h1.35Zm-1.21-.14h1.07V63.48H69.47Z" style="fill: #e6c6de"/>
          </g>
          <polygon points="70.61 75.89 70.92 75.36 70.92 63.41 70.61 63.41 70.61 75.89" style="fill: #e6c6de"/>
          <polygon points="60.04 65.99 46.19 65.99 46.19 68.47 60.04 68.47 71.73 68.47 71.73 65.99 60.04 65.99" style="fill: #e6c6de"/>
          <polygon points="60.04 69.97 46.19 69.97 46.19 71.58 60.04 71.58 71.73 71.58 71.73 69.97 60.04 69.97" style="fill: #e6c6de"/>
          <polygon points="59.19 70.52 45.92 70.19 45.92 71.79 59.19 72.7 71.46 71.79 71.73 71.58 71.73 69.97 71.46 70.19 59.19 70.52" style="fill: #fff"/>
          <polygon points="45.92 70.19 46.19 69.97 71.73 69.97 71.46 70.19 59.19 70.52 45.92 70.19" style="fill: #dda8cc"/>
          <g>
            <polygon points="44.33 63.8 44.33 67.31 45.92 66.12 45.92 62.42 44.33 63.8" style="fill: #5dc2a5"/>
            <path d="M44.26,67.45V63.77L46,62.27v3.89Zm.14-3.61v3.34l1.45-1.09V62.57Z" style="fill: #dda8cc"/>
          </g>
          <g>
            <polygon points="44.41 71.52 45.84 70.56 45.84 74.08 44.41 74.85 44.41 71.52" style="fill: #5dc2a5"/>
            <path d="M45.76,70.71V74l-1.27.69V71.56l1.27-.85m.16-.29-1.59,1V75l1.59-.86v-3.7Z" style="fill: #dda8cc"/>
          </g>
          <polygon points="45.86 62.08 46.19 61.67 60.04 60.6 59.7 61.01 45.86 62.08" style="fill: #e6c6de"/>
          <polygon points="60.04 60.6 59.7 61.01 72.53 62.01 72.99 61.6 60.04 60.6" style="fill: #e6c6de"/>
          <path d="M60.13,59.54a.85.85,0,0,0-1.36,0l-.43.62-1.12,1.62,1.93-.42,2.44.49-1.06-1.66Z" style="fill: #ede9df"/>
          <polygon points="59.15 66.5 45.88 66.1 45.88 68.36 59.09 69.01 71.42 68.36 71.42 66.1 59.15 66.5" style="fill: #fff"/>
          <polygon points="45.92 66.2 46.19 65.99 71.73 65.99 71.46 66.2 59.19 66.6 45.92 66.2" style="fill: #dda8cc"/>
          <polygon points="30.72 65.39 31.45 65.09 40.45 65.09 40.45 65.39 30.72 65.39" style="fill: #dda8cc"/>
          <polygon points="30.72 70.19 31.45 69.89 40.45 69.89 40.45 70.19 30.72 70.19" style="fill: #e6c6de"/>
          <g>
            <rect x="72.08" y="63.09" width="1.22" height="3.46" style="fill: #5dc2a5"/>
            <path d="M73.25,63.14V66.5H72.13V63.14h1.12m.1-.1H72V66.6h1.32V63Z" style="fill: #dda8cc"/>
          </g>
          <g>
            <rect x="73.66" y="63.09" width="1.22" height="3.46" style="fill: #5dc2a5"/>
            <path d="M74.83,63.14V66.5H73.71V63.14h1.12m.1-.1H73.61V66.6h1.32V63Z" style="fill: #dda8cc"/>
          </g>
          <g>
            <rect x="71.81" y="72.06" width="3.47" height="2.4" style="fill: #5dc2a5"/>
            <path d="M75.21,72.13v2.26H71.88V72.13h3.33m.14-.14H71.73v2.55h3.62V72Z" style="fill: #dda8cc"/>
          </g>
          <g>
            <path d="M55.38,68.47H55.2L55,68c0-.13-.11-.29-.15-.42h0c0,.15,0,.33,0,.55v.39h-.16V67.21h.19l.2.51a3.24,3.24,0,0,1,.13.41h0c0-.16,0-.34,0-.54v-.38h.16Z" style="fill: #7f3f97"/>
            <path d="M56.06,68.43a.48.48,0,0,1-.22,0c-.2,0-.32-.17-.32-.46s.11-.48.3-.48.27.15.27.45v.09h-.4c0,.16.08.22.18.22a.25.25,0,0,0,.16,0Zm-.13-.51c0-.1,0-.21-.12-.21s-.12.12-.12.21Z" style="fill: #7f3f97"/>
            <path d="M57.09,67.56l-.2.91h-.16l-.07-.35a2.26,2.26,0,0,1,0-.29h0c0,.11,0,.2,0,.29l-.07.35h-.16l-.19-.91h.18l.06.4c0,.09,0,.19,0,.29h0a2.5,2.5,0,0,1,0-.29l.07-.4h.14l.07.39c0,.1,0,.2.05.3h0c0-.1,0-.2,0-.3l.06-.39Z" style="fill: #7f3f97"/>
            <path d="M58,67.42h-.23v1H57.6v-1h-.22v-.21H58Z" style="fill: #7f3f97"/>
            <path d="M58.66,68c0,.35-.16.49-.31.49S58,68.31,58,68s.14-.48.32-.48S58.66,67.73,58.66,68Zm-.3-.28c-.1,0-.14.15-.14.29s.05.3.13.3.13-.14.13-.3S58.45,67.72,58.36,67.72Z" style="fill: #7f3f97"/>
            <path d="M59.66,67.56l-.19.91h-.16l-.07-.35c0-.09,0-.18-.05-.29h0a2.26,2.26,0,0,1,0,.29l-.08.35h-.16l-.18-.91h.18L59,68l0,.29h0c0-.1,0-.2,0-.29l.08-.4h.14l.07.39c0,.1,0,.2,0,.3h0c0-.1,0-.2,0-.3l.06-.39Z" style="fill: #7f3f97"/>
            <path d="M60.33,68.47h-.18v-.53c0-.12,0-.2-.1-.2s-.11.05-.11.19v.54h-.18v-.64a2.26,2.26,0,0,0,0-.27h.16v.12h0a.22.22,0,0,1,.19-.14c.13,0,.22.11.22.37Z" style="fill: #7f3f97"/>
            <path d="M60.76,67.23a.78.78,0,0,1,.24,0,.33.33,0,0,1,.26.1.41.41,0,0,1,.09.28c0,.35-.21.42-.35.42h-.06v.47h-.18Zm.18.58H61c.11,0,.17-.08.17-.22s-.06-.2-.16-.2h-.07Z" style="fill: #7f3f97"/>
            <path d="M61.65,68.47h-.18V67.15h.18Z" style="fill: #7f3f97"/>
            <path d="M62.31,68.25a1.48,1.48,0,0,0,0,.22h-.16v-.1h0a.21.21,0,0,1-.17.12c-.13,0-.21-.13-.21-.28a.33.33,0,0,1,.37-.34c0-.09,0-.16-.12-.16a.35.35,0,0,0-.17.06l0-.15a.37.37,0,0,1,.23-.08c.21,0,.27.18.27.38ZM62.13,68a.17.17,0,0,0-.19.17c0,.08,0,.12.08.12s.11,0,.11-.15Z" style="fill: #7f3f97"/>
            <path d="M62.93,67.56v.15l-.21.4-.09.16h.3v.2h-.52v-.15l.22-.41a1,1,0,0,1,.09-.15h-.28v-.19Z" style="fill: #7f3f97"/>
            <path d="M63.54,68.25a1.48,1.48,0,0,0,0,.22h-.16v-.1h0a.22.22,0,0,1-.18.12c-.13,0-.2-.13-.2-.28a.32.32,0,0,1,.36-.34c0-.09,0-.16-.12-.16a.28.28,0,0,0-.16.06l0-.15a.38.38,0,0,1,.24-.08c.2,0,.26.18.26.38ZM63.37,68c-.1,0-.2,0-.2.17s0,.12.09.12.11,0,.11-.15Z" style="fill: #7f3f97"/>
          </g>
          <g>
            <path d="M56.19,71.69h0l.14.1-.06.09-.08-.08V72h-.11v-.18A.68.68,0,0,1,56,72l-.07-.08a.59.59,0,0,0,.17-.18h-.15v-.1h.17v-.07H55.9v-.1H56a.76.76,0,0,0,0-.11h0v-.1h.16v-.1h.14s0,0,0,0v.07h.16v.1h-.1l.08,0h0a.41.41,0,0,1-.05.09h.11v.1h-.18v.06h.16v.1Zm0-.27s0-.08.05-.12h-.15a.7.7,0,0,1,0,.12h.07Zm.65,0v.11h-.1V72H56.6v-.48h-.09a.7.7,0,0,1-.16.48.3.3,0,0,0-.08-.08.58.58,0,0,0,.13-.41v-.33l.06,0a1,1,0,0,0,.23-.11l.11.09h0a1.28,1.28,0,0,1-.26.1v.13Z" style="fill: #7f3f97"/>
            <path d="M58,71.36l0,.26a1.21,1.21,0,0,0,0-.18l.12,0h0a1.07,1.07,0,0,1-.13.31c0,.07,0,.11.06.11s0,0,0-.15a.18.18,0,0,0,.08.07c0,.15-.05.19-.12.19S58,72,58,71.89a.49.49,0,0,1-.13.12l-.08-.08a.44.44,0,0,0,.17-.16,4.07,4.07,0,0,1,0-.41h-.2v.11h.18v0a.79.79,0,0,1,0,.32s0,0-.13,0l0-.09h.08a.58.58,0,0,0,0-.19h-.08a.65.65,0,0,1-.13.45l-.09-.07a.44.44,0,0,0,.1-.19l-.23.1a0,0,0,0,1,0,0l0-.13.11,0v-.27h-.09v-.11h.09v-.21h.13l0,0v.18h.08v.11h-.08v.24l.08,0v.07a1,1,0,0,0,0-.17v-.29h.31a.76.76,0,0,1,0-.15H58s0,0,0,0v.12h.1l-.08-.1.08-.05a.53.53,0,0,1,.1.12l-.06,0h0v.11Z" style="fill: #7f3f97"/>
            <path d="M59.56,71.22v.12H59.2l0,0v.08h.3v.33c0,.11,0,.12-.22.12a.49.49,0,0,0,0-.11h.12s0,0,0,0v-.22h-.18V72h-.13v-.46h-.17v.34h-.11v-.45h.28v-.1h-.37v-.12h.37V71.1h.15s0,0,0,0v.1Z" style="fill: #7f3f97"/>
            <path d="M60.23,71.27v.19a1.17,1.17,0,0,1-.1.55L60,71.94a1,1,0,0,0,.08-.48v-.28h.35V71.1h.15s0,0,0,0v.05h.35v.09h-.13s0,0,0,0v0h.16v.07h-.16v.1h-.39v-.1h-.13v-.07h.13v0Zm.64.6h-.16L61,72l-.11.06-.23-.08.08-.06h-.23l.08.06h0a.92.92,0,0,1-.25.08.23.23,0,0,0-.07-.07.69.69,0,0,0,.23-.07H60.3v-.24h.23v0h-.28v-.07H61v.07h-.32v0h.24Zm-.47-.19v0h.13v0Zm0,.09v0h.13v0Zm.27-.45v0h-.15s0,0,0,0v0Zm0,.11v0H60.5v0Zm.09.25h-.13v0h.13Zm0,.13v0h-.13v0Z" style="fill: #7f3f97"/>
            <path d="M62.34,71.59H62l0,0h.4v0c0,.2,0,.28-.06.3a.15.15,0,0,1-.12,0h0a.16.16,0,0,0,0-.09A.39.39,0,0,1,62,72L61.91,72a.47.47,0,0,0,.16-.22H62a.67.67,0,0,1-.22.25.46.46,0,0,0-.07-.07.54.54,0,0,0,.19-.18h-.06a.53.53,0,0,1-.12.1l-.07-.06h0l-.19.08s0,0,0,0l0-.12.12,0v-.28h-.1V71.3h.1v-.2h.13s0,0,0,0v.17h.09v.11h-.09v.24l.08,0,0,.08a.44.44,0,0,0,.08-.11h-.11v-.1h.62Zm-.07-.47v.33h-.46v-.33Zm-.11.13v0h-.25v0Zm0,.12v0h-.25v0Zm0,.36a1.54,1.54,0,0,1-.08.19h.09a.39.39,0,0,0,0-.18Z" style="fill: #7f3f97"/>
          </g>
          <path d="M40.1,63.15H31.44A.28.28,0,0,1,31.2,63a.26.26,0,0,1,0-.28l4.87-7.07a.28.28,0,0,1,.39-.07.28.28,0,0,1,.07.38L32,62.6H40.1a.28.28,0,1,1,0,.55Z" style="fill: #dda8cc"/>
          <polygon points="76.5 77.25 77.45 76.75 77.45 70.78 76.5 71.27 76.5 77.25" style="fill: #92d3ca"/>
          <g>
            <line x1="46.37" y1="65.18" x2="46.37" y2="66.07" style="fill: none;stroke: #ede9df;stroke-linecap: round;stroke-linejoin: round;stroke-width: 0.162178181749448px"/>
            <line x1="47.35" y1="65.22" x2="47.35" y2="66.1" style="fill: none;stroke: #ede9df;stroke-linecap: round;stroke-linejoin: round;stroke-width: 0.162178181749448px"/>
            <line x1="48.33" y1="65.25" x2="48.33" y2="66.13" style="fill: none;stroke: #ede9df;stroke-linecap: round;stroke-linejoin: round;stroke-width: 0.162178181749448px"/>
            <line x1="49.32" y1="65.28" x2="49.32" y2="66.16" style="fill: none;stroke: #ede9df;stroke-linecap: round;stroke-linejoin: round;stroke-width: 0.162178181749448px"/>
            <line x1="50.3" y1="65.32" x2="50.3" y2="66.2" style="fill: none;stroke: #ede9df;stroke-linecap: round;stroke-linejoin: round;stroke-width: 0.162178181749448px"/>
            <line x1="51.28" y1="65.35" x2="51.28" y2="66.23" style="fill: none;stroke: #ede9df;stroke-linecap: round;stroke-linejoin: round;stroke-width: 0.162178181749448px"/>
            <line x1="52.27" y1="65.38" x2="52.27" y2="66.26" style="fill: none;stroke: #ede9df;stroke-linecap: round;stroke-linejoin: round;stroke-width: 0.162178181749448px"/>
            <line x1="53.25" y1="65.41" x2="53.25" y2="66.29" style="fill: none;stroke: #ede9df;stroke-linecap: round;stroke-linejoin: round;stroke-width: 0.162178181749448px"/>
            <line x1="54.24" y1="65.45" x2="54.24" y2="66.33" style="fill: none;stroke: #ede9df;stroke-linecap: round;stroke-linejoin: round;stroke-width: 0.162178181749448px"/>
            <line x1="55.22" y1="65.48" x2="55.22" y2="66.36" style="fill: none;stroke: #ede9df;stroke-linecap: round;stroke-linejoin: round;stroke-width: 0.162178181749448px"/>
            <line x1="56.2" y1="65.51" x2="56.2" y2="66.39" style="fill: none;stroke: #ede9df;stroke-linecap: round;stroke-linejoin: round;stroke-width: 0.162178181749448px"/>
            <line x1="57.19" y1="65.54" x2="57.19" y2="66.43" style="fill: none;stroke: #ede9df;stroke-linecap: round;stroke-linejoin: round;stroke-width: 0.162178181749448px"/>
            <line x1="58.17" y1="65.58" x2="58.17" y2="66.46" style="fill: none;stroke: #ede9df;stroke-linecap: round;stroke-linejoin: round;stroke-width: 0.162178181749448px"/>
            <line x1="59.15" y1="65.61" x2="59.15" y2="66.49" style="fill: none;stroke: #ede9df;stroke-linecap: round;stroke-linejoin: round;stroke-width: 0.162178181749448px"/>
          </g>
          <g>
            <line x1="71.91" y1="65.18" x2="71.91" y2="66.07" style="fill: none;stroke: #ede9df;stroke-linecap: round;stroke-linejoin: round;stroke-width: 0.162178181749448px"/>
            <line x1="70.92" y1="65.22" x2="70.92" y2="66.1" style="fill: none;stroke: #ede9df;stroke-linecap: round;stroke-linejoin: round;stroke-width: 0.162178181749448px"/>
            <line x1="69.94" y1="65.25" x2="69.94" y2="66.13" style="fill: none;stroke: #ede9df;stroke-linecap: round;stroke-linejoin: round;stroke-width: 0.162178181749448px"/>
            <line x1="68.96" y1="65.28" x2="68.96" y2="66.16" style="fill: none;stroke: #ede9df;stroke-linecap: round;stroke-linejoin: round;stroke-width: 0.162178181749448px"/>
            <line x1="67.97" y1="65.32" x2="67.97" y2="66.2" style="fill: none;stroke: #ede9df;stroke-linecap: round;stroke-linejoin: round;stroke-width: 0.162178181749448px"/>
            <line x1="66.99" y1="65.35" x2="66.99" y2="66.23" style="fill: none;stroke: #ede9df;stroke-linecap: round;stroke-linejoin: round;stroke-width: 0.162178181749448px"/>
            <line x1="66" y1="65.38" x2="66" y2="66.26" style="fill: none;stroke: #ede9df;stroke-linecap: round;stroke-linejoin: round;stroke-width: 0.162178181749448px"/>
            <line x1="65.02" y1="65.41" x2="65.02" y2="66.29" style="fill: none;stroke: #ede9df;stroke-linecap: round;stroke-linejoin: round;stroke-width: 0.162178181749448px"/>
            <line x1="64.04" y1="65.45" x2="64.04" y2="66.33" style="fill: none;stroke: #ede9df;stroke-linecap: round;stroke-linejoin: round;stroke-width: 0.162178181749448px"/>
            <line x1="63.05" y1="65.48" x2="63.05" y2="66.36" style="fill: none;stroke: #ede9df;stroke-linecap: round;stroke-linejoin: round;stroke-width: 0.162178181749448px"/>
            <line x1="62.07" y1="65.51" x2="62.07" y2="66.39" style="fill: none;stroke: #ede9df;stroke-linecap: round;stroke-linejoin: round;stroke-width: 0.162178181749448px"/>
            <line x1="61.09" y1="65.54" x2="61.09" y2="66.43" style="fill: none;stroke: #ede9df;stroke-linecap: round;stroke-linejoin: round;stroke-width: 0.162178181749448px"/>
            <line x1="60.1" y1="65.58" x2="60.1" y2="66.46" style="fill: none;stroke: #ede9df;stroke-linecap: round;stroke-linejoin: round;stroke-width: 0.162178181749448px"/>
            <line x1="59.12" y1="65.61" x2="59.12" y2="66.49" style="fill: none;stroke: #ede9df;stroke-linecap: round;stroke-linejoin: round;stroke-width: 0.162178181749448px"/>
          </g>
          <path d="M59.16,65.63l-13.28-.4a.14.14,0,0,1-.14-.14.12.12,0,0,1,.14-.13l13.28.39L71.42,65a.12.12,0,0,1,.14.13.12.12,0,0,1-.13.14Z" style="fill: #dda8cc"/>
          <polygon points="90.23 71.18 96.75 64.29 96.75 68.47 90.23 75.36 90.23 71.18" style="fill: #dda8cc"/>
          <polygon points="89.36 70.17 95.88 63.28 95.88 64.29 89.34 71.18 89.36 70.17" style="fill: #7f3f97"/>
          <polygon points="89.34 71.18 90.23 71.18 96.75 64.29 95.88 64.29 89.34 71.18" style="fill: #ede9df"/>
          <polygon points="88.7 70.17 89.36 70.17 95.88 63.28 95.22 63.28 88.7 70.17" style="fill: #e6c6de"/>
          <polygon points="88.63 65.33 95.15 58.5 95.15 56.03 88.63 62.7 88.63 65.33" style="fill: #7f3f97"/>
          <path d="M88.63,63.15h-11a.28.28,0,0,1,0-.55H88.51l6.44-7a.27.27,0,1,1,.4.37l-6.51,7.07A.29.29,0,0,1,88.63,63.15Z" style="fill: #dda8cc"/>
          <polygon points="89.36 65.39 88.57 65.39 95.15 58.5 95.88 58.5 89.36 65.39" style="fill: #dda8cc"/>
        </g>
      </g>
    </g>
  </g>
</svg>
