<svg xmlns="http://www.w3.org/2000/svg" width="131.02" height="102.44" viewBox="0 0 131.02 102.44">
  <g id="Layer_2" data-name="Layer 2">
    <g id="Icon">
      <g>
        <g>
          <path d="M131,14.84c-.6,2.1-1,3.84-2.72,3.84h-5.8c-1.27,0-1.84-.86-1.84-2.07l0-3.82H116v1.43h-1.64v-8H116l0,4.94,4.68,0,0-6.69h-7.92V3h7.94V0h1.64V3h7.88V4.53H122.3l0,6.69,4.84,0V6.26h1.64V14.2h-1.64l0-1.43h-4.86V16.4c0,.49.26.73.63.73h5c.52,0,1.34-.37,1.45-2.83Z" style="fill: #003869"/>
          <path d="M113.22,43.08V24.67l7.42,0,0,8h-5.78V43.08Zm1.64-13.64v1.73H119V29.44Zm0-3.19v1.62H119V26.25Zm12.3,14.84a.73.73,0,0,0,.76-.77v-7.6h-5.79v-8l7.45,0,0,16.34a1.67,1.67,0,0,1-1,1.44,10.21,10.21,0,0,1-2.93.24L125.07,41Zm-3.39-14.84V27.8H128l0-1.57Zm0,3.13v1.79H128V29.38Z" style="fill: #003869"/>
          <path d="M131,65.57H115.7c-1.14,0-1.66-.94-1.66-2V49.89l-1.36,0v-1.6l18.19,0v1.6H115.68l0,13.25c0,.6.22.84.89.84H131Zm-8.29-3h-6.1v-6l6.1,0Zm-4.49-4.41V61l2.85,0,0-2.87Zm9.87-2.71-9.71,0,0-4.81h9.69ZM120,54h6.43V52.11H120Zm10,2.61v5.91h-6.17V56.6Zm-1.61,1.55-2.92,0v2.77l2.89,0Z" style="fill: #003869"/>
        </g>
        <g>
          <path d="M58.22,10.66h-2.3V9.43H62v1.23H59.7v6.85H58.22Z" style="fill: #003869"/>
          <path d="M67.55,15.76c0,.7,0,1.27,0,1.75H66.31l-.07-.87h0a2.14,2.14,0,0,1-1.88,1c-1.06,0-2-.63-2-2.54V11.67h1.48v3.18c0,1,.31,1.59,1.09,1.59A1.2,1.2,0,0,0,66,15.65a1.06,1.06,0,0,0,.08-.45V11.67h1.48Z" style="fill: #003869"/>
          <path d="M70.19,15A1.59,1.59,0,0,0,72,16.52a4.64,4.64,0,0,0,1.62-.27l.21,1a5.16,5.16,0,0,1-2,.37,2.76,2.76,0,0,1-3-2.95,2.89,2.89,0,0,1,2.86-3.14,2.54,2.54,0,0,1,2.52,2.84,3.91,3.91,0,0,1-.05.62Zm2.56-1a1.24,1.24,0,0,0-1.21-1.42A1.43,1.43,0,0,0,70.19,14Z" style="fill: #003869"/>
          <path d="M75.34,13.41c0-.67,0-1.24,0-1.74h1.28l.07.88h0a2.13,2.13,0,0,1,1.87-1c1,0,2.08.66,2.08,2.5v3.47H79.15v-3.3c0-.84-.31-1.47-1.11-1.47a1.25,1.25,0,0,0-1.16.86,1.61,1.61,0,0,0-.07.47v3.44H75.34Z" style="fill: #003869"/>
          <path d="M91.57,14.21c0-1-.11-2.29-.1-3.39h0c-.27,1-.6,2.07-1,3.09l-1.19,3.51H88.16L87.08,14c-.31-1-.6-2.13-.81-3.14h0c0,1-.08,2.34-.14,3.44l-.18,3.25H84.54l.54-8.08H87l1.06,3.25c.29,1,.54,1.9.74,2.8h0c.21-.87.49-1.87.8-2.81l1.12-3.24H92.7l.46,8.08H91.72Z" style="fill: #003869"/>
          <path d="M99.84,15.76c0,.7,0,1.27,0,1.75H98.6l-.07-.87h0a2.14,2.14,0,0,1-1.88,1c-1,0-2-.63-2-2.54V11.67h1.48v3.18c0,1,.31,1.59,1.09,1.59a1.2,1.2,0,0,0,1.13-.79,1.06,1.06,0,0,0,.08-.45V11.67h1.48Z" style="fill: #003869"/>
          <path d="M101.44,13.41c0-.67,0-1.24,0-1.74h1.28l.07.88h0a2.13,2.13,0,0,1,1.87-1c1,0,2.07.66,2.07,2.5v3.47h-1.47v-3.3c0-.84-.31-1.47-1.12-1.47a1.25,1.25,0,0,0-1.15.86,1.33,1.33,0,0,0-.07.47v3.44h-1.47Z" style="fill: #003869"/>
          <path d="M70.75,21.55a14.69,14.69,0,0,1,2.35-.18,4.91,4.91,0,0,1,3.29.93,3.62,3.62,0,0,1,1.27,3,4.14,4.14,0,0,1-1.26,3.21,5.41,5.41,0,0,1-3.66,1.11,16.31,16.31,0,0,1-2-.11Zm1.48,6.85a6.45,6.45,0,0,0,.81,0,2.77,2.77,0,0,0,3.06-3.1,2.57,2.57,0,0,0-2.86-2.81,5.47,5.47,0,0,0-1,.08Z" style="fill: #003869"/>
          <path d="M79.62,22.83a.8.8,0,1,1,.84-.79.79.79,0,0,1-.84.79Zm-.73,6.68V23.67h1.47v5.84Z" style="fill: #003869"/>
          <path d="M81.9,28.14a3.12,3.12,0,0,0,1.49.44c.64,0,.93-.28.93-.66s-.24-.59-1-.86c-1.14-.38-1.6-1-1.6-1.7,0-1,.85-1.82,2.2-1.82a3.27,3.27,0,0,1,1.56.35l-.3,1A2.51,2.51,0,0,0,84,24.58c-.53,0-.82.27-.82.63s.28.54,1,.81c1.07.37,1.55.91,1.56,1.78,0,1.06-.83,1.83-2.37,1.83a3.77,3.77,0,0,1-1.78-.41Z" style="fill: #003869"/>
          <path d="M88.66,22.17v1.5h1.4v1.1h-1.4v2.57c0,.72.19,1.08.75,1.08a1.91,1.91,0,0,0,.58-.06l0,1.12a3.39,3.39,0,0,1-1.07.15,1.69,1.69,0,0,1-1.27-.48,2.3,2.3,0,0,1-.47-1.64V24.77h-.82v-1.1h.82V22.58Z" style="fill: #003869"/>
          <path d="M91.18,25.55c0-.79,0-1.36-.05-1.88H92.4l.06,1.1h0a1.74,1.74,0,0,1,1.6-1.23,1.83,1.83,0,0,1,.35,0V25a2.76,2.76,0,0,0-.44,0A1.29,1.29,0,0,0,92.69,26a2.15,2.15,0,0,0,0,.45v3H91.18Z" style="fill: #003869"/>
          <path d="M96.18,22.83A.8.8,0,1,1,97,22a.79.79,0,0,1-.84.79Zm-.73,6.68V23.67h1.47v5.84Z" style="fill: #003869"/>
          <path d="M102.81,29.33a4.13,4.13,0,0,1-1.65.3,2.81,2.81,0,0,1-3-3,3,3,0,0,1,3.25-3.11,4.06,4.06,0,0,1,1.43.26l-.27,1.12a2.42,2.42,0,0,0-1.11-.23,1.74,1.74,0,0,0-1.79,1.89,1.74,1.74,0,0,0,1.79,1.89,2.93,2.93,0,0,0,1.16-.23Z" style="fill: #003869"/>
          <path d="M105.78,22.17v1.5h1.4v1.1h-1.4v2.57c0,.72.19,1.08.75,1.08a1.87,1.87,0,0,0,.58-.06l0,1.12a3.32,3.32,0,0,1-1.06.15,1.66,1.66,0,0,1-1.27-.48,2.25,2.25,0,0,1-.47-1.64V24.77h-.83v-1.1h.83V22.58Z" style="fill: #003869"/>
        </g>
        <g style="isolation: isolate">
          <polygon points="68.41 100.06 0 75.16 58.61 49.46 127.03 74.36 68.41 100.06" style="fill: #6baadb"/>
          <polygon points="68.44 102.44 68.41 100.06 127.03 74.36 127.06 76.75 68.44 102.44" style="fill: #3d77a6"/>
          <polygon points="0.03 77.54 0 75.16 68.41 100.06 68.44 102.44 0.03 77.54" style="fill: #254966"/>
        </g>
        <g>
          <path d="M43.62,61.93v-1c0-.06.05-.42,0-.47H23.69v8.28s0,0,.1,0v3.46h2.59V76h2.18v-3.9H38.5v3.93h2.18V72.13h2.83V63.59l.12,0C43.6,63.07,43.62,62.5,43.62,61.93Z" style="fill: #d0d2d3"/>
          <polygon points="41.78 73.91 43.51 72.13 43.51 63.76 41.9 65.42 41.78 65.37 41.78 73.91" style="fill: #5dc2a5"/>
          <rect x="24.65" y="73.86" width="2.18" height="3.95" style="fill: #f5c064"/>
          <rect x="36.78" y="73.89" width="2.18" height="3.95" style="fill: #f5c064"/>
          <rect x="22.07" y="62.34" width="19.71" height="11.57" style="fill: #5dc2a5"/>
          <polyline points="22.6 71.63 41.6 71.63 43.63 69.82" style="fill: none;stroke: #f2652d;stroke-linecap: round;stroke-linejoin: round;stroke-width: 0.27285787739123px"/>
          <polyline points="22.64 69.23 41.64 69.23 43.51 67.52" style="fill: none;stroke: #f2652d;stroke-linecap: round;stroke-linejoin: round;stroke-width: 0.27285787739123px"/>
          <line x1="22.67" y1="66.95" x2="41.68" y2="66.95" style="fill: none;stroke: #f2652d;stroke-linecap: round;stroke-linejoin: round;stroke-width: 0.27285787739123px"/>
          <line x1="41.21" y1="73.64" x2="41.21" y2="64.93" style="fill: none;stroke: #f2652d;stroke-linecap: round;stroke-linejoin: round;stroke-width: 0.27285787739123px"/>
          <line x1="38.59" y1="73.66" x2="38.59" y2="64.95" style="fill: none;stroke: #f2652d;stroke-linecap: round;stroke-linejoin: round;stroke-width: 0.27285787739123px"/>
          <line x1="35.96" y1="73.7" x2="35.96" y2="64.98" style="fill: none;stroke: #f2652d;stroke-linecap: round;stroke-linejoin: round;stroke-width: 0.27285787739123px"/>
          <line x1="33.34" y1="73.72" x2="33.34" y2="65" style="fill: none;stroke: #f2652d;stroke-linecap: round;stroke-linejoin: round;stroke-width: 0.27285787739123px"/>
          <line x1="30.55" y1="73.75" x2="30.55" y2="65.04" style="fill: none;stroke: #f2652d;stroke-linecap: round;stroke-linejoin: round;stroke-width: 0.27285787739123px"/>
          <line x1="27.93" y1="73.77" x2="27.93" y2="65.05" style="fill: none;stroke: #f2652d;stroke-linecap: round;stroke-linejoin: round;stroke-width: 0.27285787739123px"/>
          <line x1="25.25" y1="73.8" x2="25.25" y2="65.09" style="fill: none;stroke: #f2652d;stroke-linecap: round;stroke-linejoin: round;stroke-width: 0.27285787739123px"/>
          <path d="M24.16,70.34c.33,0,.37-.34.74-.46s.91.3,1.33.19c.14,0,.17-.14.25-.27a5,5,0,0,1,.89-1.06c.58-.5,1-1,1.76-.64.61.28,1.1-.51,1.55-.85.29-.21.09-.07.32,0s.48.08.73.13c.61.13.91.63,1.56.25.3-.18.59-.44,1-.36a6,6,0,0,1,.93.44c.33.14,1,.56,1.36.39s.57-.88.9-1.19a1.12,1.12,0,0,1,.88-.3c.18,0,.67.12.83,0s.09-.51.22-.7a2,2,0,0,1,.73-.52,2.3,2.3,0,0,1,1.8,0c0-.57,0-1.14,0-1.71v-1c0-.07.05-.43,0-.47H22V70.5a5.21,5.21,0,0,1,1-.23,2.78,2.78,0,0,1,1.11.06Z" style="fill: #f5c064"/>
          <g>
            <path d="M26.08,71.7a2.37,2.37,0,0,0-.6-.54,5.73,5.73,0,0,0-1.24-.61,6.9,6.9,0,0,0-1.13-.31v-7H40.83c0,.39.07,1.55.07,2h0c-.11,0-.22,0-.33,0l-.18,0-.09.17v.16a1.06,1.06,0,0,1-.06.55c-.06.09-.18.11-.36.13a1,1,0,0,0-.42.12.56.56,0,0,0-.2.21l-.09.11a.5.5,0,0,1-.16,0,.69.69,0,0,0-.32.16.83.83,0,0,0-.18.51,1,1,0,0,0-.35,0,.71.71,0,0,0-.41.11.86.86,0,0,0-.26.55.72.72,0,0,1-.13.38.64.64,0,0,1-.14.06.93.93,0,0,0-.2.1c-.15.11-.21.15-.25.15a.51.51,0,0,1-.21-.08.5.5,0,0,1-.11-.1l-.16-.13a.7.7,0,0,0-.31-.1.33.33,0,0,1-.15,0s-.07-.07-.09-.13a.44.44,0,0,0-.26-.26.57.57,0,0,0-.22,0,1.29,1.29,0,0,0-.66.24,1.24,1.24,0,0,1-.54.2.54.54,0,0,1-.22,0,.21.21,0,0,1-.08-.06.39.39,0,0,0-.3-.14.58.58,0,0,0-.36.16.44.44,0,0,1-.13.09.88.88,0,0,1-.13-.07L32.68,68a.89.89,0,0,0-.36-.07L32,68l-.14,0h-.2a4.23,4.23,0,0,1-.5-.05l-.45-.08a.69.69,0,0,0-.21.05.88.88,0,0,0-.23.14.53.53,0,0,1-.14.1.61.61,0,0,0-.22-.07h0l-.08,0c-.21.1-.25.32-.29.52s-.07.3-.16.33h0a.45.45,0,0,1-.11,0,.54.54,0,0,0-.2,0,1.17,1.17,0,0,0-.48.25l-.11.09a4,4,0,0,0-.92.92l-.2.26A4.33,4.33,0,0,1,26.08,71.7Z" style="fill: #f6a733"/>
            <path d="M40.68,63.39c0,.41,0,1.2.06,1.63l-.19,0h-.09l-.36,0v.53a1.31,1.31,0,0,1,0,.45s-.1,0-.25.06a1.26,1.26,0,0,0-.5.14.85.85,0,0,0-.25.26.21.21,0,0,1-.05.07l-.1,0a.7.7,0,0,0-.39.19.82.82,0,0,0-.2.43h-.22a.79.79,0,0,0-.51.15.93.93,0,0,0-.31.65,1.09,1.09,0,0,1-.07.27l-.1,0a1.42,1.42,0,0,0-.25.12l0,0a.55.55,0,0,0-.1.08l-.13-.06-.08-.07a1.06,1.06,0,0,0-.19-.16.9.9,0,0,0-.36-.11h-.09a.29.29,0,0,1,0-.08.69.69,0,0,0-.35-.35,1.26,1.26,0,0,0-.27,0,1.49,1.49,0,0,0-.74.26A1.17,1.17,0,0,1,34,68a.32.32,0,0,1-.19-.07.59.59,0,0,0-.42-.18A.68.68,0,0,0,33,68l0,0,0,0a.7.7,0,0,0-.16-.1,1.16,1.16,0,0,0-.42-.08l-.32,0-.14,0h-.18a2.59,2.59,0,0,1-.47,0l-.27,0h-.06a.49.49,0,0,0-.15,0,.77.77,0,0,0-.27.07.76.76,0,0,0-.26.16l-.06,0a.59.59,0,0,0-.21,0h-.12l-.07,0a.81.81,0,0,0-.38.64,1.33,1.33,0,0,1-.05.19h0a.73.73,0,0,0-.25,0l-.12,0a1.16,1.16,0,0,0-.45.27l-.11.08a4.12,4.12,0,0,0-1,.95l-.2.27a4.44,4.44,0,0,1-1.09,1.15,3,3,0,0,0-.54-.46,5.65,5.65,0,0,0-1.28-.63,6.8,6.8,0,0,0-1-.29V63.39H40.68m.29-.32H23v7.31a5.26,5.26,0,0,1,1.23.32,5.46,5.46,0,0,1,1.21.6,1.84,1.84,0,0,1,.63.61,4.92,4.92,0,0,0,1.63-1.64,4,4,0,0,1,.89-.89c.11-.07.33-.28.45-.3H29c.1,0,.2.07.3.07h.06c.35-.1.19-.72.48-.86h.05c.07,0,.15.07.22.07h0c.12,0,.26-.19.39-.24l.16,0,.17,0a5.2,5.2,0,0,0,.78.1h.22a3.65,3.65,0,0,1,.42,0,.67.67,0,0,1,.3.06c.09,0,.21.16.32.16h0c.18,0,.27-.25.46-.25h0c.16,0,.17.12.32.18a.58.58,0,0,0,.28.07c.43,0,.79-.44,1.2-.44l.17,0c.16,0,.16.3.32.38s.3,0,.45.13.17.17.28.23a.55.55,0,0,0,.29.11c.11,0,.2-.08.34-.18s.29-.11.36-.18c.24-.25.12-.71.38-.91a.48.48,0,0,1,.31-.09,1,1,0,0,1,.51.14,1,1,0,0,1,.13-.64c.13-.13.32-.1.46-.2s.14-.23.28-.31.64,0,.83-.29.08-.58.08-.8c.14,0,.29,0,.44,0l.2,0c0-.23-.06-2.26-.09-2.26Z" style="fill: #f8d497"/>
          </g>
          <g>
            <path d="M24.59,65.51a.11.11,0,0,1,.07,0l.06,0a.11.11,0,0,1,0,.05s0,0,0,0l.1,0h0l.06,0a0,0,0,0,1,0,0s0,0,0,0l-.07,0h0s0,0,0,0a0,0,0,0,1,0,0l0,.06-.06.11h.07l.06,0s0,0,0,0l0,0-.15,0h0s0,0,0,0a.2.2,0,0,0,0,.07h.08l.1,0,.06,0s0,0,0,0,0,0,0,0l-.23,0a3.22,3.22,0,0,1,0,.33.22.22,0,0,1,0,.09s0,0,0,0,0,0,0,0a.12.12,0,0,1,0-.07v0a.59.59,0,0,0,0-.13s0-.11,0-.17l-.2,0-.08,0-.07,0s0,0,0,0h0l.35,0a.64.64,0,0,0,0-.09v0h-.19s0,0,0,0h0l.12,0h0a1,1,0,0,1-.07-.18v0h.05a.13.13,0,0,1,.06.07.27.27,0,0,1,0,.11,0,0,0,0,1,0,0h.11a.35.35,0,0,0,0-.13.23.23,0,0,0,0-.07v0h0l-.24,0-.07,0,0,0s0,0,0,0l.23,0h0s0,0-.05-.07a.22.22,0,0,1,0-.1Zm-.1.78.05,0s0,0,0,0,0,0,0,0v0a.1.1,0,0,1,0,.05.17.17,0,0,1-.06.06l-.06,0h0a0,0,0,0,1,0,0l.05,0,.06-.09a.16.16,0,0,1,0-.06v0Zm.28,0h0l.06,0s.05,0,.05,0a.05.05,0,0,1,0,0s0,0,0,0a0,0,0,0,1,0,0h0l0-.06,0-.07s0,0,0,0Zm.56-.74.07,0s0,0,0,0,0,0,0,0l-.19.09-.08,0v0a.22.22,0,0,0,0,.1V66l.29-.08h.13s0,0,0,0a0,0,0,0,1,0,0l-.2,0s.05,0,.05,0l0,0s0,.06,0,.09v.37a.84.84,0,0,1,0,.18s0,.08,0,.08,0,0,0,0v-.6a.34.34,0,0,0,0-.11h0l-.1,0h-.05s0,.09,0,.13a.65.65,0,0,1-.06.21.34.34,0,0,1-.09.14l-.06,0h0a.76.76,0,0,0,.09-.18,1.42,1.42,0,0,0,.05-.22,1.77,1.77,0,0,0,0-.23.35.35,0,0,0,0-.12s0,0,0,0,0,0,0,0a.11.11,0,0,1,.07,0h0l.11-.08.09-.11Z" style="fill: #f2652d"/>
            <path d="M24.69,67.65l.06,0,0,0s0,0,0,0l-.14,0h0V68l.13-.06.06,0s0,0,0,0l0,0-.2.13-.18.12h0s0,0-.08,0,0,0,0,0h0l.07,0,.18-.07v-.3h-.18s0,0,0,0,0,0,0,0l.16,0v-.11a.6.6,0,0,0,0-.12.07.07,0,0,0,0,0l0,0a0,0,0,0,1,0,0,.2.2,0,0,1,.1,0,.07.07,0,0,1,0,0l0,0s0,0,0,.14v.07l.07,0Zm.64-.22.08,0s0,0,0,0,0,0,0,0l-.17,0h0a.05.05,0,0,1,0,0v0a.22.22,0,0,0,0,.09v.07l.17,0,.11,0,.05,0s.06,0,.06,0,0,0-.06,0l-.33,0a1.34,1.34,0,0,0,0,.21v.27a.51.51,0,0,1,0,.16s-.05,0-.07,0l0,0a.75.75,0,0,0-.12-.14l0,0a0,0,0,0,1,0,0h0l.12,0s0,0,0,0v-.48l-.23,0h0a.1.1,0,0,1-.07,0s0,0,0,0h0l.35,0a.9.9,0,0,0,0-.18.13.13,0,0,1,0,0H25l-.09,0s0,0,0,0h0l.25,0,.16,0Z" style="fill: #f2652d"/>
            <path d="M24.74,69.5l.06,0a0,0,0,0,1,0,0s0,0,0,0l-.15,0v.12h0a.13.13,0,0,1,.08,0,.14.14,0,0,1,.07,0s0,0,0,0a.11.11,0,0,1,0,0s0,0,0,0h0l-.05-.06-.06-.08v.52a.11.11,0,0,1,0,.07s0,0,0,0,0,0,0,0a.51.51,0,0,1,0-.09.23.23,0,0,1,0-.07s0-.1,0-.19,0-.13,0-.2l-.13.19a.53.53,0,0,1-.14.11l-.05,0s0,0,0,0a.85.85,0,0,0,.17-.2,1.12,1.12,0,0,0,.14-.29l-.18,0H24.3l0,0h0l.24,0h0v-.06a1.29,1.29,0,0,0,0-.23.19.19,0,0,0,0-.08v0a0,0,0,0,1,0,0l.07,0s0,0,0,0v0a1.39,1.39,0,0,0,0,.15.76.76,0,0,1,0,.15l.07,0Zm.71,0h.05s.06,0,.06,0,0,0,0,0h-.23a2.91,2.91,0,0,0,0,.31v.17c0,.06,0,.11,0,.16a.2.2,0,0,1,0,.11s0,0,0,0,0,0-.05,0a.92.92,0,0,0-.14-.14l0,0s0,0,0,0l.14,0,0,0a.37.37,0,0,0,0-.14c0-.14,0-.29,0-.46l-.23,0h0l-.07,0s0,0,0,0h0l.35,0a1.63,1.63,0,0,0,0-.24s0-.07,0-.09a.06.06,0,0,1,0,0,0,0,0,0,1,0,0l.08,0s0,0,0,0,0,0,0,0a.23.23,0,0,0,0,.13.53.53,0,0,0,0,.13l.08,0Zm-.55.27h0l.08,0a.14.14,0,0,1,.07.06.06.06,0,0,1,0,0,.07.07,0,0,1,0,0s0,0,0,0h0a.25.25,0,0,1-.05-.07.45.45,0,0,0-.07-.09l0,0Z" style="fill: #f2652d"/>
          </g>
          <g>
            <path d="M27.62,64.72l0,0a.12.12,0,0,1,.05.06,0,0,0,0,1,0,0s0,0,0,0a1.71,1.71,0,0,1-.11.14h0s0,0,0,.07a0,0,0,0,0,0,0,1,1,0,0,0,0,.21v.19a.28.28,0,0,1,0,.08s0,0,0,0,0,0,0,0a.23.23,0,0,1,0-.09v0a.9.9,0,0,0,0-.31s0-.06,0-.09l0,0a.61.61,0,0,1-.16.12l-.08,0h0a0,0,0,0,1,0,0,1.29,1.29,0,0,0,.17-.16.86.86,0,0,0,.14-.18.38.38,0,0,0,0-.13S27.6,64.72,27.62,64.72Zm0-.3h0s.06,0,.06.07a0,0,0,0,1,0,0l0,0-.14.16-.13.09-.06,0h0l.12-.12.11-.15a.2.2,0,0,0,0-.1A0,0,0,0,1,27.59,64.42Zm.45-.07.05,0s0,0,0,.05l0,0-.18.2s0,0,0,0h.21a.38.38,0,0,0,.09-.13s0,0,0,0,0,0,.05,0a.17.17,0,0,1,0,0s0,0,0,0l-.17.12-.2.16h0l.31-.06h0l0-.07s0,0,0,0h0l.09,0a.23.23,0,0,1,.07.07.15.15,0,0,1,0,.07.06.06,0,0,1,0,0l0,0,0,0a.17.17,0,0,1-.06-.09h0L28,65h0s0,0,0,.06,0,0,0,0l0,0,0,0a.88.88,0,0,0,.2,0h0l.06,0s0,0,0,0,0,0,0,0a1.15,1.15,0,0,0-.07.11l-.1.11.11.06a1.88,1.88,0,0,0,.34.13s0,0,0,0h0l-.23,0-.09,0-.19-.17h0a.56.56,0,0,1-.2.11.36.36,0,0,1-.14,0h-.05l.22-.08.13-.1,0,0-.11-.11-.13.1-.06,0h0s0,0,0,0a.68.68,0,0,0,.12-.12l0,0-.07,0s0,0,0,0,0,0,0,0l.1,0,.06-.1a.19.19,0,0,0,0-.1h0a.23.23,0,0,0-.1,0h0l0,0a.09.09,0,0,1,0-.06s0,0,0,0a.36.36,0,0,0,.12-.09l.13-.12-.08,0-.09,0-.05,0s0,0,0,0a.11.11,0,0,1,0,0s0,0,0,0a.35.35,0,0,0,.13-.14.59.59,0,0,0,.08-.16S28,64.35,28,64.35Zm-.13.89h0l.14.1a.41.41,0,0,0,.1-.13l0-.06s0,0,0,0l-.15,0H28Z" style="fill: #f2652d"/>
            <path d="M27.56,66.26h.07l.31,0,.19,0h.05l.08,0s0,0,0,0a0,0,0,0,1,0,0,.08.08,0,0,0,0,.06,2.82,2.82,0,0,1-.09.3.06.06,0,0,1-.05,0s0,0,0,0a0,0,0,0,1,0,0h-.16v.12H28a1.3,1.3,0,0,0,.26,0h0l.07,0s.06,0,.06,0,0,0-.08,0h-.44l.07,0a1.28,1.28,0,0,0,.28.22,1.38,1.38,0,0,0,.29.13h0s0,0,0,0l-.21,0-.07,0a1.56,1.56,0,0,1-.23-.25L28,66.91l0,0V67a.86.86,0,0,0,0,.16v.11a.5.5,0,0,1,0,.12l0,0s0,0,0,0a.31.31,0,0,1,0-.08.26.26,0,0,1,0-.07s0,0,0-.07,0-.14,0-.24l-.1.11-.18.14-.17.07-.09,0h0l.18-.11L27.7,67a.54.54,0,0,0,.11-.12v0l-.26,0h0l-.07,0s-.05,0-.05,0,0,0,0,0h.26l.18,0v-.13H27.7v0h0s0,0,0,0a.08.08,0,0,1,0-.05V66.5a.63.63,0,0,0,0-.13s0-.05,0-.08a0,0,0,0,1,0,0A0,0,0,0,1,27.56,66.26Zm.13.19.17,0a.09.09,0,0,0,0,0,.13.13,0,0,0,0-.06s0,0,0,0l-.13,0h0s0,0,0,.06A.22.22,0,0,0,27.69,66.45Zm0,.16.16,0v-.11h-.17A.57.57,0,0,1,27.7,66.61Zm.2-.33h0s0,0,0,.06,0,0,0,0,0,0,0,0h.19a.66.66,0,0,0,0-.13s0,0,0,0H27.9Zm0,.19h0v.11h.17a.61.61,0,0,0,0-.14H28Z" style="fill: #f2652d"/>
            <path d="M27.84,68a.11.11,0,0,1,.07,0s.05,0,.05,0,0,0,0,0l-.07.08a1.14,1.14,0,0,1-.15.17h0l.27-.06.12,0a.13.13,0,0,1,.08,0s.05,0,.05.06l0,.05a2.13,2.13,0,0,0,0,.33s0,.16,0,.33a.27.27,0,0,1,0,.12s-.05,0-.06,0,0,0,0,0a.54.54,0,0,0-.06-.11H28l-.21,0h-.12v0s0,0,0,0a.05.05,0,0,1,0,0,.16.16,0,0,1,0-.09s0,0,0,0a1.57,1.57,0,0,0,0-.16c0-.07,0-.19,0-.35a.28.28,0,0,0,0-.15,0,0,0,0,1,0,0,0,0,0,0,1,0,0l.07,0h0a1.85,1.85,0,0,0,.1-.2.33.33,0,0,0,0-.14ZM27.64,69l.29,0H28l.07,0h0v0a1,1,0,0,0,0-.22.06.06,0,0,1-.05,0H28l-.17,0h-.18A1.22,1.22,0,0,1,27.64,69Zm0-.25h0l.3,0h.15v-.2h-.05l-.08,0-.18,0h-.16C27.66,68.67,27.65,68.74,27.65,68.79Zm0-.23h0l.31,0h.15v-.15s0-.05,0-.05H28a1.06,1.06,0,0,0-.29.06h-.09Z" style="fill: #f2652d"/>
          </g>
          <g>
            <path d="M29.84,64.88h.05a.46.46,0,0,1,.1.05A.08.08,0,0,1,30,65s0,0,0,0,0,0,0,0a.58.58,0,0,1-.1-.13,0,0,0,0,1,0,0S29.83,64.88,29.84,64.88Zm.33.18h0a.45.45,0,0,1,0,.08l-.12.24s0,.08-.05.13,0,.06-.05.06,0,0,0,0a.33.33,0,0,1,0-.1.05.05,0,0,1,0,0,.39.39,0,0,0,.1-.08l.16-.23ZM30,64.58h0l.1,0a.1.1,0,0,1,0,.08s0,.05,0,.05l0,0a.58.58,0,0,1-.1-.13v0A0,0,0,0,1,30,64.58Zm.53-.1.07,0s0,0,0,0a0,0,0,0,1,0,0,.32.32,0,0,0-.06.08,1.49,1.49,0,0,1-.15.2h0l.24-.05.1,0,.06,0c.05,0,.07,0,.07.06s0,0,0,0a1.17,1.17,0,0,0,0,.25s0,.13,0,.27a.27.27,0,0,1,0,.12.12.12,0,0,1-.06,0s0,0,0,0a.36.36,0,0,0-.05-.09h-.07l-.18,0h-.1v0s0,0,0,0,0,0,0,0a.11.11,0,0,1,0-.08s0,0,0,0,0-.07,0-.13,0-.15,0-.28a.23.23,0,0,0,0-.13s0,0,0,0,0,0,0,0l.06,0h0a2.35,2.35,0,0,0,.11-.24.49.49,0,0,0,0-.15Zm-.17,1,.23,0,.08,0,.07,0h0a0,0,0,0,0,0,0,1,1,0,0,0,0-.22v0l-.05,0h-.06l-.14,0h-.15Zm0-.29h0l.23,0h.1l0,0v-.21s0,0,0,0h-.06a.84.84,0,0,0-.23,0h-.07A1.69,1.69,0,0,1,30.37,65.16Z" style="fill: #f2652d"/>
            <path d="M30.06,66.31a.16.16,0,0,1,.09,0,.05.05,0,0,1,0,0,.13.13,0,0,1,0,0s0,0,0,.06a3.09,3.09,0,0,1-.08.3l.19,0v0a.19.19,0,0,0,0-.08s0,0,0,0l0,0,.07,0s0,0,0,0a0,0,0,0,1,0,0,0,0,0,0,1,0,0h0s0,0,0,0,0,0-.05,0h0a1.86,1.86,0,0,1-.08.25l-.05.09.12.1a.12.12,0,0,1,.06.1s0,.06,0,.06,0,0-.07-.06a.86.86,0,0,0-.13-.14.12.12,0,0,1-.05,0,.61.61,0,0,1-.22.13h-.08l0,0a.67.67,0,0,0,.19-.13l.08-.07a.47.47,0,0,0-.12-.09S30,67,30,67s0,0,0,0,0,0,0-.08l-.11,0-.06,0-.06,0s0,0,0-.06,0,0,0,0h.18l.1,0v0a1.18,1.18,0,0,0,0-.3.28.28,0,0,0,0-.1v0Zm.2.51-.21.05s0,0,0,.06L30,67s0,0,0,0l.1.06h0a.75.75,0,0,0,.07-.18Zm.21-.1h.05l0,0,.12,0,.15,0h0a.11.11,0,0,1,.07,0s.06,0,.06.06l0,0,0,.07c0,.06,0,.13-.05.24h0s0,0,0,0h-.11l-.14,0h-.08a0,0,0,0,1,0,0,0,0,0,0,1,0,0l0,0,0,0V67a1.39,1.39,0,0,0,0-.15.14.14,0,0,0,0-.09v0S30.45,66.72,30.47,66.72Zm.12.39.16,0h0s0-.1,0-.16a1,1,0,0,0,0-.15s0,0-.05,0h-.1l-.1,0v0C30.58,67,30.59,67.05,30.59,67.11Z" style="fill: #f2652d"/>
          </g>
          <g>
            <path d="M33.26,64.52a.07.07,0,0,1,.06,0s0,0,0,0,0,0,0,0l-.21,0h0v.12l.12,0,.1,0,.1,0s0,0,0,.06v0a.39.39,0,0,0,0,.09l-.07.24a.06.06,0,0,1-.06,0s0,0,0,0h-.16v.11h.08l.25,0,.16,0,.08,0s.05,0,.05.06,0,0-.05,0h-.2l-.37,0v0a1.63,1.63,0,0,1,0,.24.29.29,0,0,1,0,.12s0,0,0,0a0,0,0,0,1,0,0,.45.45,0,0,1,0-.13v-.25a2.37,2.37,0,0,0-.37.05l-.09,0-.07,0s0,0,0,0,0,0,0,0l.26,0,.28,0v-.12h-.18v0h0s0,0,0,0a.14.14,0,0,1,0-.06l0-.12a.39.39,0,0,0,0-.13.11.11,0,0,0,0-.07,0,0,0,0,1,0,0s0,0,0,0h.06l.25,0v-.13H32.7s0,0,0,0h.06l.23,0a.33.33,0,0,0,0-.15,0,0,0,0,0,0,0s0,0,0,0H33s0,0,0,0v0a.38.38,0,0,0,0,.12l.17,0Zm-.48.43h0l.18,0v-.12a.75.75,0,0,1-.21,0,549907824108.26,549907824108.26,0,0,1,0,.12Zm0,.18.18,0V65h-.19A.62.62,0,0,1,32.79,65.13Zm.27-.33v.12l.06,0h.15a.34.34,0,0,0,0-.1,0,0,0,0,0,0,0Zm0,.18v.12h.17a.61.61,0,0,0,0-.14v0h0l-.09,0Z" style="fill: #f2652d"/>
            <path d="M32.83,66.46l.05,0s0,0,0,0,0,0,0,0l-.12,0h0a.28.28,0,0,1,0,.09l.1,0h0l.06,0s0,0,0,0,0,0,0,0,0,0,0,0a2.08,2.08,0,0,1-.06.24l0,0a0,0,0,0,1,0,0h-.09a.45.45,0,0,0,0,.13l.05,0h.12s0,0,0,0,0,0,0,0h-.18v.25a.13.13,0,0,1,0,.08s0,0,0,0,0,0,0,0a.18.18,0,0,1,0-.09v-.06a.51.51,0,0,0,0-.16l-.19,0h-.09s0,0,0,0h0l.3,0a.62.62,0,0,1,0-.13h-.1s0,0,0,0,0,0,0,0a0,0,0,0,1,0,0,.17.17,0,0,1,0,0v-.1a.84.84,0,0,1,0-.1l0-.06h0s0,0,0,0h0a.57.57,0,0,0,.18,0,0,0,0,0,1,0,0v-.06l-.1,0h-.07a0,0,0,0,1,0,0h0l.15,0a.31.31,0,0,0,0-.11s0-.06,0-.08a0,0,0,0,1,0,0s0,0,0,0l.07,0a.05.05,0,0,1,0,0v0a.75.75,0,0,0,0,.11l.07,0Zm-.28.36h0l.1,0a.31.31,0,0,1,0-.1l-.12,0h0v0S32.55,66.81,32.55,66.82Zm0,.13.1,0v-.09h-.11Zm.17-.12v.08h0l.05,0,0,0s0-.06,0-.11h-.1Zm0-.14v.09h.08l0,0s0-.08,0-.1,0,0,0,0Zm.76-.22h0l.05,0s0,0,0,0l-.25,0h0s0,0,0,0v0a.61.61,0,0,0,0,.15h0l.2,0h.07l.07,0a.05.05,0,0,1,0,0v0a.39.39,0,0,0,0,.13v.18a.48.48,0,0,1,0,.2s0,0-.06,0l0,0-.08-.11s0,0,0,0h0l.09,0,0-.05a2.73,2.73,0,0,0,0-.32.22.22,0,0,0,0-.09h-.25V67c0,.07,0,.13,0,.18v.06a.11.11,0,0,1,0,.06s0,0,0,0l0,0a.18.18,0,0,1,0-.06v0a.63.63,0,0,0,0-.17v-.19l-.12,0H33v.27a.15.15,0,0,0,0-.08s0,0,0,0l-.05,0h0l.09.07,0,0a0,0,0,0,0,0,0s0,.06,0,.06h0v0l0,0h0l0,0a.05.05,0,0,1,0,0h0a1.09,1.09,0,0,1,0,.17.06.06,0,0,1,0,0s0,0,0,0a.14.14,0,0,1,0-.07v0s0-.06,0-.11v-.21c0-.05,0-.09,0-.11s0,0,0,0H33l0,0h0l.17,0v0a.77.77,0,0,0,0-.18h0l-.11,0H33s0,0,0,0h0l.43-.08Zm-.11.53-.06-.07h0a.62.62,0,0,1,.12.08.1.1,0,0,1,0,0l0,0s0,.06,0,.06h0l0,0a.21.21,0,0,0,0-.06v0l0,.05,0,0h0l.07-.1A.06.06,0,0,1,33.38,67Z" style="fill: #f2652d"/>
          </g>
          <g>
            <path d="M35.51,64.53a.16.16,0,0,1,.09,0,.05.05,0,0,1,0,0,.08.08,0,0,1,0,0s0,.07,0,.11V65a1.36,1.36,0,0,1,0,.29.52.52,0,0,1-.08.2.4.4,0,0,1-.12.15.29.29,0,0,1-.1.06h0a1,1,0,0,0,.15-.19,1,1,0,0,0,.07-.21l-.12.06-.15.09h0a.1.1,0,0,1-.08,0s0,0,0-.05h.07l.35-.1s0-.1,0-.16l-.19,0h0a.11.11,0,0,1-.07,0s0,0,0,0h0l.25,0h.07v-.16h0l-.2,0,0,0-.07,0s0,0,0,0h0l.27,0h.06s0-.07,0-.1a.19.19,0,0,0,0-.07v0A0,0,0,0,1,35.51,64.53Zm.3-.11.07,0s0,0,0,0a.1.1,0,0,0,0,0,.77.77,0,0,0,0,.15v.07l.2,0,0,0,.05,0,0,0s0,0-.06,0l-.16,0H35.9V65l.19,0h.09s0,0,0,0,0,0,0,0L36,65H35.9v.22l.11,0,.17,0h0l.06,0s.05,0,.05,0,0,0,0,0h-.22l-.13,0h0v0a1.58,1.58,0,0,1,0,.32s0,.08,0,.08,0,0,0-.06,0-.17,0-.29v-.81a.37.37,0,0,0,0-.11v0A0,0,0,0,1,35.81,64.42Z" style="fill: #f2652d"/>
            <path d="M36,66.55H36s.06,0,.06,0,0,0,0,0l-.33,0h0A1.76,1.76,0,0,0,36,67a1.91,1.91,0,0,0,.36.19s0,0,0,0h0a.85.85,0,0,1-.23,0,.12.12,0,0,1-.11,0,3.53,3.53,0,0,1-.33-.43v.39h.16s.06,0,.06,0,0,0-.07,0H35.7v0s0,.09,0,.12a.28.28,0,0,1,0,.13s0,0,0,0,0,0,0-.06a.16.16,0,0,1,0-.09.26.26,0,0,1,0-.07.54.54,0,0,0,0-.08h-.18s0,0,0,0,0,0,.06,0l.17,0a3,3,0,0,0,0-.33h0a1.49,1.49,0,0,1-.15.2,1,1,0,0,1-.19.16l-.22.09h0l0,0a2.15,2.15,0,0,0,.29-.24,1.8,1.8,0,0,0,.2-.24.36.36,0,0,0,0-.09l-.21,0h0l-.07,0s0,0,0,0h0l.35-.05v-.26s0,0,0-.06a.08.08,0,0,1,0,0s0,0,0,0l.06,0s.06,0,.06.05a.08.08,0,0,1,0,0,.71.71,0,0,0,0,.12v.14l.16,0Z" style="fill: #f2652d"/>
          </g>
          <path d="M37.74,66.28h0a.19.19,0,0,1,.09,0s0,0,0,.09a.06.06,0,0,1,0,.06H38s0,0,0,0h0a2.52,2.52,0,0,0-.37.08l-.06,0-.07,0s0,0,0,0,0,0,0,0l.35-.06h0l0,0a.76.76,0,0,1-.08-.16v0A0,0,0,0,1,37.74,66.28Zm-.11.74h0l.1,0,.09,0h0L38,67l0,0s0,0,0,0l0,.07,0,.08h0s0,0,0,0h-.21a0,0,0,0,1,0,0l0,0s0,0,0,0v-.07a.45.45,0,0,0,0-.08s0,0,0,0h0S37.61,67,37.63,67Zm.24-.36h.06l0,0s0,0,0,0h-.05l-.08,0h-.1l0,0s0,0,.05,0l.14,0Zm0,.16h.06s0,0,0,0,0,0,0,0h-.05l-.08,0h-.1l0,0s0,0,.05,0l.14,0Zm-.12.4.09,0h0s0-.06,0-.08V67a0,0,0,0,0,0,0h-.06l-.09,0h0v0C37.74,67.15,37.74,67.19,37.75,67.22Zm.78-.88h.06s0,0,0,0,0,0,0,0l-.1,0H38.4v.1l.08,0h.1s0,0,0,0,0,0,0,0l-.08,0H38.4v.1h.08l.2,0h0l.07,0s0,0,0,0,0,0-.07,0H38.6l-.23,0a.93.93,0,0,0-.22,0h0a.12.12,0,0,1-.07,0s0,0,0,0,0,0,0,0h.2l.1,0v-.1l-.09,0h0l0,0s0,0,0,0l.12,0v-.09h0l-.12,0h0l0,0s0,0,0,0l.17,0v-.11a.11.11,0,0,0,0,0,0,0,0,0,1,0,0s0,0,0,0l.07,0s0,0,0,0,0,0,0,0,0,0,0,0v.06l.08,0Zm-.38.51.06,0,.16,0,.11,0h0l.07,0s.05,0,.05,0,0,0,0,0a.59.59,0,0,0,0,.17.45.45,0,0,0,0,.13v.08a.33.33,0,0,1,0,.15s0,.06-.06.06l0,0a1.47,1.47,0,0,0-.1-.13s0,0,0,0h0l.09,0h0a.53.53,0,0,0,0-.18h-.28a.3.3,0,0,1,0,.15.18.18,0,0,1-.07.08l0,0h0a.76.76,0,0,0,.09-.18,1.56,1.56,0,0,0,0-.27.18.18,0,0,0,0-.11l0,0S38.13,66.85,38.15,66.85Zm.08.3h0l.18,0h.09V67h-.07l-.11,0h-.09A.22.22,0,0,1,38.23,67.15Zm0-.13.18,0h.09a.13.13,0,0,0,0-.06v0h-.11l-.13,0h0V67Z" style="fill: #f2652d"/>
          <polygon points="21.96 62.23 23.68 60.44 43.63 60.44 41.9 62.23 21.96 62.23" style="fill: #f5c064"/>
          <polygon points="41.9 62.23 41.9 65.42 43.63 63.63 43.63 60.44 41.9 62.23" style="fill: #f5c064"/>
          <line x1="41.68" y1="66.95" x2="43.51" y2="65.32" style="fill: none;stroke: #f2652d;stroke-linecap: round;stroke-linejoin: round;stroke-width: 0.27285787739123px"/>
          <line x1="42.76" y1="72.9" x2="42.76" y2="64.62" style="fill: none;stroke: #f2652d;stroke-linecap: round;stroke-linejoin: round;stroke-width: 0.27285787739123px"/>
          <polygon points="38.95 77.84 40.68 76.06 40.68 73.91 38.95 73.89 38.95 77.84" style="fill: #f2652d"/>
          <polygon points="26.83 77.81 28.56 76.03 28.56 73.91 26.83 73.91 26.83 77.81" style="fill: #f2652d"/>
        </g>
        <g>
          <polygon points="103.97 49.36 104.14 66.63 107.32 61.27 107.32 43.83 103.97 49.36" style="fill: #f5c064"/>
          <path d="M104.17,46.49v.42a.29.29,0,0,0,.14,0l3.15-5.48a.2.2,0,0,0,.1-.19.21.21,0,0,0-.21-.19Z" style="fill: #f6a733"/>
          <path d="M103.74,46.91v1l3.18-5.49v-.13l-2.58,4.49A1.41,1.41,0,0,1,103.74,46.91Z" style="fill: #f5c064"/>
          <polygon points="103.97 47.95 107.14 42.45 106.92 42.45 103.74 47.95 103.97 47.95" style="fill: #f5c064"/>
          <g>
            <path d="M104.58,48.15a1,1,0,0,0-.31-.32l3-5.15a.44.44,0,0,1,.22.31Z" style="fill: #f5c064"/>
            <path d="M105,47l-.44.79h0L105,47m2.15-4.53L104,48s.51,0,.54.74L107.68,43s-.07-.55-.54-.56Z" style="fill: #f2652d"/>
          </g>
          <path d="M107.56,43.62l-3.18,5.5a1.35,1.35,0,0,0,.13-.43L107.68,43A.62.62,0,0,1,107.56,43.62Z" style="fill: #f6a733"/>
          <polygon points="104.14 66.63 104.42 66.63 107.6 61.27 107.32 61.27 104.14 66.63" style="fill: #f2652d"/>
          <polyline points="104.42 66.63 104.42 66.94 107.6 61.54 107.6 61.27" style="fill: #f2652d"/>
          <polygon points="104.42 66.94 104.42 67.69 107.6 62.19 107.6 61.54 104.42 66.94" style="fill: #f6a733"/>
          <g>
            <polygon points="104.84 54.17 106.08 52.2 106.29 47.45 105.05 49.43 104.84 54.17" style="fill: #92d3ca;stroke: #fff;stroke-miterlimit: 10;stroke-width: 0.165808254278313px"/>
            <line x1="106.21" y1="48.79" x2="104.98" y2="50.75" style="fill: none;stroke: #fff;stroke-miterlimit: 10;stroke-width: 0.165808254278313px"/>
            <line x1="105.62" y1="49.68" x2="105.47" y2="53.1" style="fill: none;stroke: #fff;stroke-miterlimit: 10;stroke-width: 0.165808254278313px"/>
            <line x1="106.15" y1="50.04" x2="104.94" y2="51.96" style="fill: none;stroke: #fff;stroke-miterlimit: 10;stroke-width: 0.165808254278313px"/>
            <line x1="106.09" y1="51.11" x2="104.91" y2="53" style="fill: none;stroke: #fff;stroke-miterlimit: 10;stroke-width: 0.165808254278313px"/>
          </g>
          <g>
            <polygon points="104.84 62.14 106.08 60.17 106.29 55.43 105.05 57.4 104.84 62.14" style="fill: #92d3ca;stroke: #fff;stroke-miterlimit: 10;stroke-width: 0.165808254278313px"/>
            <line x1="106.21" y1="56.77" x2="104.98" y2="58.72" style="fill: none;stroke: #fff;stroke-miterlimit: 10;stroke-width: 0.165808254278313px"/>
            <line x1="105.62" y1="57.65" x2="105.47" y2="61.08" style="fill: none;stroke: #fff;stroke-miterlimit: 10;stroke-width: 0.165808254278313px"/>
            <line x1="106.15" y1="58.01" x2="104.94" y2="59.94" style="fill: none;stroke: #fff;stroke-miterlimit: 10;stroke-width: 0.165808254278313px"/>
            <line x1="106.09" y1="59.09" x2="104.91" y2="60.97" style="fill: none;stroke: #fff;stroke-miterlimit: 10;stroke-width: 0.165808254278313px"/>
          </g>
          <g>
            <path d="M107.68,43.19v-.06a.61.61,0,0,0-.54-.67h-.22v-1h.43a.22.22,0,0,0,.21-.21h0a.21.21,0,0,0-.21-.21H96.08a.21.21,0,0,0-.21.21h0a.21.21,0,0,0,.21.21h.43v1h-.06a.61.61,0,0,0-.54.67V41.58h-.5v-.73H97a2.55,2.55,0,0,0,1.12-.29,7,7,0,0,0,.62-.8l-.25.08a5.8,5.8,0,0,1-.8.19L92.93,37H93V34.86s-.11,1.52-1.32,1.57H78.45c-1.2,0-1.31-1.57-1.31-1.57V37H77L72.25,40a3.06,3.06,0,0,1-.41-.1l-.57-.18a6,6,0,0,0,.62.8,2.56,2.56,0,0,0,1,.29h1.64v.2h-.76v2.08a.61.61,0,0,0-.53-.67h-.07v-1h.35a.21.21,0,0,0,.21-.21h0a.21.21,0,0,0-.21-.21H62.3a.21.21,0,0,0-.21.21h0a.22.22,0,0,0,.21.21h.51v1h-.22a.61.61,0,0,0-.54.67v.06a.67.67,0,0,0,.37.64V61.27h-.29v.92h3.32l3.59.73,3.59-.73,1.19.13H95.91l1.2-.13,3.59.73,3.59-.73h3.31v-.92h-.28V43.83A.68.68,0,0,0,107.68,43.19ZM96,43.58h-.1v-.39A.81.81,0,0,0,96,43.58Zm-22.19,0h-.09a.8.8,0,0,0,.09-.39Z" style="fill: #d0d2d3"/>
            <path d="M58.92,46.7h.15l.06-.21L62.3,41a.19.19,0,0,0-.18.11l-3.19,5.51" style="fill: #f2652d"/>
            <rect x="92.7" y="46.49" width="11.69" height="0.42" rx="0.2" style="fill: #f6a733"/>
            <rect x="58.92" y="46.49" width="11.69" height="0.42" rx="0.2" style="fill: #f6a733"/>
            <rect x="70.65" y="48.6" width="22.09" height="18.55" style="fill: #f8d497"/>
            <rect x="70.65" y="66.76" width="22.09" height="1.05" style="fill: #f5c064"/>
            <rect x="79.36" y="59.31" width="4.49" height="6.86" style="fill: #5dc2a5;stroke: #fff;stroke-miterlimit: 10;stroke-width: 0.811109099667711px"/>
            <line x1="81.64" y1="59.31" x2="81.64" y2="66.17" style="fill: none;stroke: #fff;stroke-miterlimit: 10;stroke-width: 0.243222013508208px"/>
            <line x1="79.42" y1="60.77" x2="83.76" y2="60.77" style="fill: none;stroke: #fff;stroke-miterlimit: 10;stroke-width: 0.811109099667711px"/>
            <rect x="72.99" y="59.34" width="2.7" height="4.75" style="fill: #92d3ca;stroke: #fff;stroke-miterlimit: 10;stroke-width: 0.243222013508208px"/>
            <line x1="73.02" y1="60.65" x2="75.69" y2="60.65" style="fill: none;stroke: #fff;stroke-miterlimit: 10;stroke-width: 0.243222013508208px"/>
            <line x1="74.3" y1="60.6" x2="74.3" y2="64.03" style="fill: none;stroke: #fff;stroke-miterlimit: 10;stroke-width: 0.243222013508208px"/>
            <line x1="73.04" y1="61.89" x2="75.66" y2="61.89" style="fill: none;stroke: #fff;stroke-miterlimit: 10;stroke-width: 0.243222013508208px"/>
            <line x1="73.07" y1="62.94" x2="75.64" y2="62.94" style="fill: none;stroke: #fff;stroke-miterlimit: 10;stroke-width: 0.243222013508208px"/>
            <rect x="87.6" y="59.33" width="2.7" height="4.75" style="fill: #92d3ca;stroke: #fff;stroke-miterlimit: 10;stroke-width: 0.243222013508208px"/>
            <line x1="87.63" y1="60.65" x2="90.3" y2="60.65" style="fill: none;stroke: #fff;stroke-miterlimit: 10;stroke-width: 0.243222013508208px"/>
            <line x1="88.92" y1="60.6" x2="88.92" y2="64.03" style="fill: none;stroke: #fff;stroke-miterlimit: 10;stroke-width: 0.243222013508208px"/>
            <line x1="87.65" y1="61.89" x2="90.28" y2="61.89" style="fill: none;stroke: #fff;stroke-miterlimit: 10;stroke-width: 0.243222013508208px"/>
            <line x1="87.68" y1="62.94" x2="90.25" y2="62.94" style="fill: none;stroke: #fff;stroke-miterlimit: 10;stroke-width: 0.243222013508208px"/>
            <g>
              <rect x="73.27" y="51.24" width="2.7" height="4.75" style="fill: #92d3ca;stroke: #fff;stroke-miterlimit: 10;stroke-width: 0.243222013508208px"/>
              <line x1="73.3" y1="52.56" x2="75.97" y2="52.56" style="fill: none;stroke: #fff;stroke-miterlimit: 10;stroke-width: 0.243222013508208px"/>
              <line x1="74.58" y1="52.5" x2="74.58" y2="55.93" style="fill: none;stroke: #fff;stroke-miterlimit: 10;stroke-width: 0.243222013508208px"/>
              <line x1="73.32" y1="53.79" x2="75.94" y2="53.79" style="fill: none;stroke: #fff;stroke-miterlimit: 10;stroke-width: 0.243222013508208px"/>
              <line x1="73.34" y1="54.84" x2="75.92" y2="54.84" style="fill: none;stroke: #fff;stroke-miterlimit: 10;stroke-width: 0.243222013508208px"/>
            </g>
            <g>
              <rect x="87.6" y="51.24" width="2.7" height="4.75" style="fill: #92d3ca;stroke: #fff;stroke-miterlimit: 10;stroke-width: 0.243222013508208px"/>
              <line x1="87.63" y1="52.56" x2="90.3" y2="52.56" style="fill: none;stroke: #fff;stroke-miterlimit: 10;stroke-width: 0.243222013508208px"/>
              <line x1="88.92" y1="52.5" x2="88.92" y2="55.93" style="fill: none;stroke: #fff;stroke-miterlimit: 10;stroke-width: 0.243222013508208px"/>
              <line x1="87.65" y1="53.79" x2="90.28" y2="53.79" style="fill: none;stroke: #fff;stroke-miterlimit: 10;stroke-width: 0.243222013508208px"/>
              <line x1="87.68" y1="54.84" x2="90.25" y2="54.84" style="fill: none;stroke: #fff;stroke-miterlimit: 10;stroke-width: 0.243222013508208px"/>
            </g>
            <rect x="80.1" y="51.18" width="3.2" height="4.75" style="fill: #92d3ca;stroke: #fff;stroke-miterlimit: 10;stroke-width: 0.243222013508208px"/>
            <line x1="80.14" y1="52.5" x2="83.31" y2="52.5" style="fill: none;stroke: #fff;stroke-miterlimit: 10;stroke-width: 0.264958520715653px"/>
            <line x1="81.67" y1="51.24" x2="81.67" y2="55.87" style="fill: none;stroke: #fff;stroke-miterlimit: 10;stroke-width: 0.811109099667711px"/>
            <line x1="80.17" y1="53.73" x2="83.28" y2="53.73" style="fill: none;stroke: #fff;stroke-miterlimit: 10;stroke-width: 0.264958520715653px"/>
            <line x1="80.2" y1="54.78" x2="83.25" y2="54.78" style="fill: none;stroke: #fff;stroke-miterlimit: 10;stroke-width: 0.264958520715653px"/>
            <rect x="71.4" y="46.02" width="20.83" height="1.06" style="fill: #d75a28"/>
            <g>
              <path d="M73.87,42.44h8v3.87S69,46.08,69,45.58" style="fill: #5dc2a5"/>
              <path d="M89.71,42.44h-8v3.87H93.8s.77-.23.77-.73" style="fill: #5dc2a5"/>
            </g>
            <path d="M95.55,45.25l-.26.08a5.26,5.26,0,0,1-1.67.27H69.71a3.64,3.64,0,0,1-1-.16l-.58-.19a7,7,0,0,0,.63.81,2.67,2.67,0,0,0,1,.28h24a2.64,2.64,0,0,0,1.11-.28A7,7,0,0,0,95.55,45.25Z" style="fill: #f2652d"/>
            <rect x="71.75" y="46.72" width="20.1" height="2.07" style="fill: #f5c064"/>
            <path d="M75.28,41.93H74V40.35S74.08,41.87,75.28,41.93Z" style="fill: #f2652d"/>
            <path d="M88.5,41.93h1.31V40.35S89.7,41.87,88.5,41.93Z" style="fill: #f2652d"/>
            <g>
              <path d="M79.75,51.05V48.69a1.88,1.88,0,0,1,1.88-1.87h.13a1.87,1.87,0,0,1,1.87,1.87v2.36Z" style="fill: #f6a733"/>
              <path d="M81.76,46.92a1.77,1.77,0,0,1,1.77,1.77V51H79.85V48.69a1.78,1.78,0,0,1,1.78-1.77h.13m0-.2h-.13a2,2,0,0,0-2,2v2.46h4.08V48.69a2,2,0,0,0-2-2Z" style="fill: #efebe1"/>
            </g>
            <g>
              <rect x="80.31" y="47.69" width="0.37" height="3.18" style="fill: #f2652d"/>
              <rect x="81.5" y="47.69" width="0.37" height="3.18" style="fill: #f2652d"/>
              <rect x="82.7" y="47.69" width="0.37" height="3.18" style="fill: #f2652d"/>
            </g>
            <rect x="78.52" y="51.15" width="1.65" height="15.61" style="fill: #fff"/>
            <rect x="79.16" y="51.98" width="0.37" height="14.78" style="fill: #f8d497"/>
            <rect x="79.16" y="51.98" width="0.37" height="14.78" style="fill: #f8d497"/>
            <rect x="83.31" y="51.15" width="1.56" height="15.61" style="fill: #fff"/>
            <g>
              <rect x="70.65" y="46.55" width="1.1" height="20.21" style="fill: #f8d497"/>
              <polygon points="72.3 66.76 71.75 66.76 71.75 46.55 72.3 47.7 72.3 66.76" style="fill: #f6a733"/>
            </g>
            <g>
              <rect x="76.94" y="47.69" width="1.1" height="19.07" style="fill: #f8d497"/>
              <polygon points="78.59 66.76 78.04 66.76 78.04 47.69 78.59 48.31 78.59 66.76" style="fill: #f6a733"/>
            </g>
            <g>
              <rect x="91.64" y="47.07" width="1.1" height="19.69" transform="translate(184.37 113.83) rotate(-180)" style="fill: #f8d497"/>
              <polygon points="91.09 66.76 91.64 66.76 91.64 47.07 91.09 48.2 91.09 66.76" style="fill: #f6a733"/>
            </g>
            <g>
              <rect x="85.48" y="47.69" width="1.17" height="19.07" transform="translate(172.13 114.45) rotate(-180)" style="fill: #f8d497"/>
              <polygon points="84.9 66.76 85.48 66.76 85.48 47.69 84.9 48.31 84.9 66.76" style="fill: #f6a733"/>
            </g>
            <g>
              <rect x="72.3" y="48.79" width="4.64" height="0.59" style="fill: #f2652d"/>
              <rect x="73.25" y="49.78" width="2.74" height="0.59" style="fill: #f2652d"/>
            </g>
            <rect x="72.3" y="47.69" width="4.64" height="1.68" style="fill: #f2652d"/>
            <rect x="73.25" y="49.78" width="2.74" height="0.59" style="fill: #f2652d"/>
            <rect x="80.17" y="65.8" width="3.14" height="0.96" style="fill: #f2652d"/>
            <rect x="86.65" y="47.75" width="4.64" height="1.62" style="fill: #f2652d"/>
            <rect x="87.6" y="49.78" width="2.74" height="0.59" style="fill: #f2652d"/>
            <rect x="83.9" y="51.98" width="0.37" height="14.78" style="fill: #f8d497"/>
            <rect x="73.96" y="51.98" width="1.32" height="1" style="fill: #f2652d;stroke: #fff;stroke-miterlimit: 10;stroke-width: 0.243222013508208px"/>
            <rect x="88.31" y="55.37" width="1.32" height="1" style="fill: #f2652d;stroke: #fff;stroke-miterlimit: 10;stroke-width: 0.243222013508208px"/>
            <line x1="70.98" y1="45.59" x2="74.92" y2="42.36" style="fill: none;stroke: #f5c064;stroke-linecap: round;stroke-linejoin: round;stroke-width: 0.442155344742168px"/>
            <line x1="73.37" y1="45.64" x2="76.23" y2="42.47" style="fill: none;stroke: #f5c064;stroke-linecap: round;stroke-linejoin: round;stroke-width: 0.663233017113252px"/>
            <line x1="75.65" y1="45.56" x2="77.83" y2="42.47" style="fill: none;stroke: #f5c064;stroke-linecap: round;stroke-linejoin: round;stroke-width: 0.663233017113252px"/>
            <line x1="77.76" y1="45.62" x2="79.36" y2="42.39" style="fill: none;stroke: #f5c064;stroke-linecap: round;stroke-linejoin: round;stroke-width: 0.663233017113252px"/>
            <line x1="79.94" y1="45.62" x2="80.63" y2="42.44" style="fill: none;stroke: #f5c064;stroke-linecap: round;stroke-linejoin: round;stroke-width: 0.663233017113252px"/>
            <line x1="81.82" y1="45.73" x2="81.82" y2="42.39" style="fill: none;stroke: #f5c064;stroke-linecap: round;stroke-linejoin: round;stroke-width: 0.663233017113252px"/>
            <line x1="92.73" y1="45.59" x2="88.79" y2="42.36" style="fill: none;stroke: #f5c064;stroke-linecap: round;stroke-linejoin: round;stroke-width: 0.663233017113252px"/>
            <line x1="90.34" y1="45.64" x2="87.49" y2="42.47" style="fill: none;stroke: #f5c064;stroke-linecap: round;stroke-linejoin: round;stroke-width: 0.663233017113252px"/>
            <line x1="88.07" y1="45.56" x2="85.89" y2="42.47" style="fill: none;stroke: #f5c064;stroke-linecap: round;stroke-linejoin: round;stroke-width: 0.663233017113252px"/>
            <line x1="85.95" y1="45.62" x2="84.35" y2="42.39" style="fill: none;stroke: #f5c064;stroke-linecap: round;stroke-linejoin: round;stroke-width: 0.663233017113252px"/>
            <line x1="83.77" y1="45.62" x2="83.09" y2="42.44" style="fill: none;stroke: #f5c064;stroke-linecap: round;stroke-linejoin: round;stroke-width: 0.663233017113252px"/>
            <path d="M89.81,41.93H74v.54H89.81Z" style="fill: #f2652d"/>
            <rect x="81.14" y="62.94" width="0.19" height="0.81" style="fill: #f2652d"/>
            <rect x="82.01" y="62.94" width="0.19" height="0.81" style="fill: #f2652d"/>
            <rect x="70.65" y="66.76" width="22.09" height="0.39" style="fill: #f2652d"/>
            <g>
              <rect x="93.33" y="46.91" width="10.41" height="1.8" style="fill: #f8d497"/>
              <rect x="93.33" y="46.91" width="10.41" height="0.48" style="fill: #f2652d"/>
              <rect x="92.74" y="49.07" width="1.2" height="18.25" style="fill: #f6a733"/>
              <rect x="101.11" y="49.07" width="3.03" height="18.25" style="fill: #efebe1"/>
              <polygon points="97.52 67.69 93.93 67.32 93.93 49.07 97.52 49.44 97.52 67.69" style="fill: #f5c064"/>
              <g>
                <polygon points="96.78 56.17 94.38 55.8 94.38 51.05 96.78 51.42 96.78 56.17" style="fill: #92d3ca;stroke: #fff;stroke-miterlimit: 10;stroke-width: 0.229545985528292px"/>
                <line x1="94.4" y1="52.38" x2="96.78" y2="52.74" style="fill: none;stroke: #fff;stroke-miterlimit: 10;stroke-width: 0.229545985528292px"/>
                <line x1="95.55" y1="52.49" x2="95.55" y2="55.92" style="fill: none;stroke: #fff;stroke-miterlimit: 10;stroke-width: 0.229545985528292px"/>
                <line x1="94.42" y1="53.61" x2="96.76" y2="53.97" style="fill: none;stroke: #fff;stroke-miterlimit: 10;stroke-width: 0.229545985528292px"/>
                <line x1="94.45" y1="54.67" x2="96.74" y2="55.02" style="fill: none;stroke: #fff;stroke-miterlimit: 10;stroke-width: 0.229545985528292px"/>
              </g>
              <g>
                <polygon points="96.78 64.27 94.38 63.9 94.38 59.15 96.78 59.52 96.78 64.27" style="fill: #92d3ca;stroke: #fff;stroke-miterlimit: 10;stroke-width: 0.229545985528292px"/>
                <line x1="94.4" y1="60.48" x2="96.78" y2="60.84" style="fill: none;stroke: #fff;stroke-miterlimit: 10;stroke-width: 0.229545985528292px"/>
                <line x1="95.55" y1="60.59" x2="95.55" y2="64.02" style="fill: none;stroke: #fff;stroke-miterlimit: 10;stroke-width: 0.229545985528292px"/>
                <line x1="94.42" y1="61.71" x2="96.76" y2="62.07" style="fill: none;stroke: #fff;stroke-miterlimit: 10;stroke-width: 0.229545985528292px"/>
                <line x1="94.45" y1="62.77" x2="96.74" y2="63.12" style="fill: none;stroke: #fff;stroke-miterlimit: 10;stroke-width: 0.229545985528292px"/>
              </g>
              <polygon points="97.52 67.69 101.11 67.32 101.11 49.07 97.52 49.44 97.52 67.69" style="fill: #f8d497"/>
              <g>
                <polygon points="98.3 56.17 100.67 55.8 100.67 51.05 98.3 51.42 98.3 56.17" style="fill: #92d3ca;stroke: #fff;stroke-miterlimit: 10;stroke-width: 0.228053502729557px"/>
                <line x1="100.64" y1="52.38" x2="98.29" y2="52.74" style="fill: none;stroke: #fff;stroke-miterlimit: 10;stroke-width: 0.228053502729557px"/>
                <line x1="99.51" y1="52.49" x2="99.51" y2="55.92" style="fill: none;stroke: #fff;stroke-miterlimit: 10;stroke-width: 0.228053502729557px"/>
                <line x1="100.62" y1="53.61" x2="98.31" y2="53.97" style="fill: none;stroke: #fff;stroke-miterlimit: 10;stroke-width: 0.228053502729557px"/>
                <line x1="100.6" y1="54.67" x2="98.34" y2="55.02" style="fill: none;stroke: #fff;stroke-miterlimit: 10;stroke-width: 0.228053502729557px"/>
              </g>
              <g>
                <polygon points="98.3 64.27 100.67 63.9 100.67 59.15 98.3 59.52 98.3 64.27" style="fill: #92d3ca;stroke: #fff;stroke-miterlimit: 10;stroke-width: 0.228053502729557px"/>
                <line x1="100.64" y1="60.48" x2="98.29" y2="60.84" style="fill: none;stroke: #fff;stroke-miterlimit: 10;stroke-width: 0.228053502729557px"/>
                <line x1="99.51" y1="60.59" x2="99.51" y2="64.02" style="fill: none;stroke: #fff;stroke-miterlimit: 10;stroke-width: 0.228053502729557px"/>
                <line x1="100.62" y1="61.71" x2="98.31" y2="62.07" style="fill: none;stroke: #fff;stroke-miterlimit: 10;stroke-width: 0.228053502729557px"/>
                <line x1="100.6" y1="62.77" x2="98.34" y2="63.12" style="fill: none;stroke: #fff;stroke-miterlimit: 10;stroke-width: 0.228053502729557px"/>
              </g>
              <g>
                <path d="M94,49.16h-.69c-.18,0-.33-.22-.33-.47s.15-.54.33-.54h.66l3.57.45,3.64-.45H104c.18,0,.33.22.33.47s-.15.54-.33.54h-2.86l-3.59.46Z" style="fill: #f5c064"/>
                <path d="M104,48.36s.13.1.13.27v.06c0,.16-.09.27-.13.27h-2.91l-3.54.45L94,49h-.71s-.13-.11-.13-.27v-.06c0-.17.09-.27.13-.27h.64l3.56.44h.1l3.57-.44H104m0-.41h-2.86l-3.59.45L93.93,48h-.66a.62.62,0,0,0-.53.68v.06a.61.61,0,0,0,.53.67h.66l3.59.46,3.59-.46H104a.61.61,0,0,0,.54-.67v-.06A.62.62,0,0,0,104,48Z" style="fill: #f2652d"/>
              </g>
              <line x1="94.25" y1="48.22" x2="94.25" y2="49.07" style="fill: #f5c064;stroke: #f2652d;stroke-linecap: round;stroke-linejoin: round;stroke-width: 0.454660948470828px"/>
              <line x1="95.89" y1="48.36" x2="95.89" y2="49.29" style="fill: #f5c064;stroke: #f2652d;stroke-linecap: round;stroke-linejoin: round;stroke-width: 0.454660948470828px"/>
              <line x1="97.52" y1="48.65" x2="97.52" y2="49.66" style="fill: #f5c064;stroke: #f2652d;stroke-linecap: round;stroke-linejoin: round;stroke-width: 0.454660948470828px"/>
              <line x1="99.32" y1="48.44" x2="99.32" y2="49.4" style="fill: #f5c064;stroke: #f2652d;stroke-linecap: round;stroke-linejoin: round;stroke-width: 0.454660948470828px"/>
              <line x1="101.11" y1="48.2" x2="101.11" y2="49.07" style="fill: #f5c064;stroke: #f2652d;stroke-linecap: round;stroke-linejoin: round;stroke-width: 0.454660948470828px"/>
              <line x1="102.88" y1="48.2" x2="102.88" y2="49.07" style="fill: #f5c064;stroke: #f2652d;stroke-linecap: round;stroke-linejoin: round;stroke-width: 0.454660948470828px"/>
              <polygon points="92.73 66.76 93.93 66.56 97.52 67.32 101.11 66.76 104.42 66.76 104.42 67.69 101.11 67.69 97.52 68.41 93.93 67.69 92.73 67.81 92.73 66.76" style="fill: #f6a733"/>
              <polyline points="92.73 66.76 93.93 66.56 97.52 67.32 101.11 66.76 104.42 66.76" style="fill: none;stroke: #f2652d;stroke-miterlimit: 10;stroke-width: 0.405554549833854px"/>
            </g>
            <g>
              <rect x="59.64" y="46.91" width="10.41" height="1.8" transform="translate(129.69 95.62) rotate(-180)" style="fill: #f8d497"/>
              <rect x="59.64" y="46.91" width="10.41" height="0.48" transform="translate(129.69 94.3) rotate(-180)" style="fill: #f2652d"/>
              <rect x="69.45" y="49.07" width="1.2" height="18.25" transform="translate(140.1 116.39) rotate(-180)" style="fill: #f6a733"/>
              <rect x="59.24" y="49.07" width="3.03" height="18.25" transform="translate(121.51 116.39) rotate(-180)" style="fill: #efebe1"/>
              <polygon points="65.86 67.69 69.45 67.32 69.45 49.07 65.86 49.44 65.86 67.69" style="fill: #f5c064"/>
              <g>
                <polygon points="66.61 56.17 69.01 55.8 69.01 51.05 66.61 51.42 66.61 56.17" style="fill: #92d3ca;stroke: #fff;stroke-miterlimit: 10;stroke-width: 0.229545985528292px"/>
                <line x1="68.98" y1="52.38" x2="66.6" y2="52.74" style="fill: none;stroke: #fff;stroke-miterlimit: 10;stroke-width: 0.229545985528292px"/>
                <line x1="67.83" y1="52.49" x2="67.83" y2="55.92" style="fill: none;stroke: #fff;stroke-miterlimit: 10;stroke-width: 0.229545985528292px"/>
                <line x1="68.96" y1="53.61" x2="66.62" y2="53.97" style="fill: none;stroke: #fff;stroke-miterlimit: 10;stroke-width: 0.229545985528292px"/>
                <line x1="68.94" y1="54.67" x2="66.64" y2="55.02" style="fill: none;stroke: #fff;stroke-miterlimit: 10;stroke-width: 0.229545985528292px"/>
              </g>
              <g>
                <polygon points="66.61 64.27 69.01 63.9 69.01 59.15 66.61 59.52 66.61 64.27" style="fill: #92d3ca;stroke: #fff;stroke-miterlimit: 10;stroke-width: 0.229545985528292px"/>
                <line x1="68.98" y1="60.48" x2="66.6" y2="60.84" style="fill: none;stroke: #fff;stroke-miterlimit: 10;stroke-width: 0.229545985528292px"/>
                <line x1="67.83" y1="60.59" x2="67.83" y2="64.02" style="fill: none;stroke: #fff;stroke-miterlimit: 10;stroke-width: 0.229545985528292px"/>
                <line x1="68.96" y1="61.71" x2="66.62" y2="62.07" style="fill: none;stroke: #fff;stroke-miterlimit: 10;stroke-width: 0.229545985528292px"/>
                <line x1="68.94" y1="62.77" x2="66.64" y2="63.12" style="fill: none;stroke: #fff;stroke-miterlimit: 10;stroke-width: 0.229545985528292px"/>
              </g>
              <polygon points="65.86 67.69 62.27 67.32 62.27 49.07 65.86 49.44 65.86 67.69" style="fill: #f8d497"/>
              <g>
                <polygon points="65.08 56.17 62.71 55.8 62.71 51.05 65.08 51.42 65.08 56.17" style="fill: #92d3ca;stroke: #fff;stroke-miterlimit: 10;stroke-width: 0.228053502729557px"/>
                <line x1="62.74" y1="52.38" x2="65.09" y2="52.74" style="fill: none;stroke: #fff;stroke-miterlimit: 10;stroke-width: 0.228053502729557px"/>
                <line x1="63.87" y1="52.49" x2="63.87" y2="55.92" style="fill: none;stroke: #fff;stroke-miterlimit: 10;stroke-width: 0.228053502729557px"/>
                <line x1="62.76" y1="53.61" x2="65.07" y2="53.97" style="fill: none;stroke: #fff;stroke-miterlimit: 10;stroke-width: 0.228053502729557px"/>
                <line x1="62.78" y1="54.67" x2="65.05" y2="55.02" style="fill: none;stroke: #fff;stroke-miterlimit: 10;stroke-width: 0.228053502729557px"/>
              </g>
              <g>
                <polygon points="65.08 64.27 62.71 63.9 62.71 59.15 65.08 59.52 65.08 64.27" style="fill: #92d3ca;stroke: #fff;stroke-miterlimit: 10;stroke-width: 0.228053502729557px"/>
                <line x1="62.74" y1="60.48" x2="65.09" y2="60.84" style="fill: none;stroke: #fff;stroke-miterlimit: 10;stroke-width: 0.228053502729557px"/>
                <line x1="63.87" y1="60.59" x2="63.87" y2="64.02" style="fill: none;stroke: #fff;stroke-miterlimit: 10;stroke-width: 0.228053502729557px"/>
                <line x1="62.76" y1="61.71" x2="65.07" y2="62.07" style="fill: none;stroke: #fff;stroke-miterlimit: 10;stroke-width: 0.228053502729557px"/>
                <line x1="62.78" y1="62.77" x2="65.05" y2="63.12" style="fill: none;stroke: #fff;stroke-miterlimit: 10;stroke-width: 0.228053502729557px"/>
              </g>
              <g>
                <path d="M62.3,49.16H59.41c-.18,0-.33-.22-.33-.47s.15-.54.33-.54h2.86l3.57.45,3.64-.45h.63c.18,0,.34.22.34.47s-.16.54-.34.54h-.66l-3.59.46Z" style="fill: #f5c064"/>
                <path d="M70.11,48.36s.13.1.13.27v.06c0,.16-.09.27-.13.27H69.4l-3.54.45L62.32,49H59.41s-.13-.11-.13-.27v-.06c0-.17.09-.27.13-.27h2.84l3.56.44h.1l3.57-.44h.63m0-.41h-.66l-3.59.45L62.27,48H59.41a.62.62,0,0,0-.53.68v.06a.61.61,0,0,0,.53.67h2.86l3.59.46,3.59-.46h.66a.61.61,0,0,0,.54-.67v-.06a.62.62,0,0,0-.54-.68Z" style="fill: #f2652d"/>
              </g>
              <line x1="69.13" y1="48.22" x2="69.13" y2="49.07" style="fill: #f5c064;stroke: #f2652d;stroke-linecap: round;stroke-linejoin: round;stroke-width: 0.454660948470828px"/>
              <line x1="67.5" y1="48.36" x2="67.5" y2="49.29" style="fill: #f5c064;stroke: #f2652d;stroke-linecap: round;stroke-linejoin: round;stroke-width: 0.454660948470828px"/>
              <line x1="65.86" y1="48.65" x2="65.86" y2="49.66" style="fill: #f5c064;stroke: #f2652d;stroke-linecap: round;stroke-linejoin: round;stroke-width: 0.454660948470828px"/>
              <line x1="64.07" y1="48.44" x2="64.07" y2="49.4" style="fill: #f5c064;stroke: #f2652d;stroke-linecap: round;stroke-linejoin: round;stroke-width: 0.454660948470828px"/>
              <line x1="62.27" y1="48.2" x2="62.27" y2="49.07" style="fill: #f5c064;stroke: #f2652d;stroke-linecap: round;stroke-linejoin: round;stroke-width: 0.454660948470828px"/>
              <line x1="60.5" y1="48.2" x2="60.5" y2="49.07" style="fill: #f5c064;stroke: #f2652d;stroke-linecap: round;stroke-linejoin: round;stroke-width: 0.454660948470828px"/>
              <polygon points="70.65 66.76 69.45 66.56 65.86 67.32 62.27 66.76 58.96 66.76 58.96 67.69 62.27 67.69 65.86 68.41 69.45 67.69 70.65 67.81 70.65 66.76" style="fill: #f6a733"/>
              <polyline points="70.65 66.76 69.45 66.56 65.86 67.32 62.27 66.76 58.96 66.76" style="fill: none;stroke: #f2652d;stroke-miterlimit: 10;stroke-width: 0.405554549833854px"/>
            </g>
            <polygon points="74.92 41.93 78.45 36.43 91.67 36.43 88.5 41.93 74.92 41.93" style="fill: #f2652d"/>
            <path d="M89.81,40.35,93,34.86s-.23,1.57-1.32,1.57l-3.17,5.5S89.64,42,89.81,40.35Z" style="fill: #f5c064"/>
            <polygon points="92.99 34.86 92.99 36.98 89.81 42.47 89.81 40.35 92.99 34.86" style="fill: #f5c064"/>
            <polygon points="92.99 36.98 97.67 40.03 94.57 45.58 89.81 42.47 92.99 36.98" style="fill: #5dc2a5"/>
            <path d="M94.57,45.58,97.67,40l1-.27-3.17,5.49A3.77,3.77,0,0,1,94.57,45.58Z" style="fill: #f2652d"/>
            <path d="M78.45,36.43s-1,.14-1.31-1.57L74,40.35s.23,1.38,1,1.58Z" style="fill: #f8d497"/>
            <polygon points="72.25 40.04 69.01 45.58 73.96 42.47 73.96 40.35 75.27 38.1 72.25 40.04" style="fill: #5dc2a5"/>
            <polygon points="68.09 45.25 71.27 39.76 72.25 40.04 69.01 45.58 68.09 45.25" style="fill: #f2652d"/>
            <path d="M92.9,46.49v-.14h1a2.74,2.74,0,0,0,1-.29l.63-.81L98,41h9.35l-3.18,5.49Z" style="fill: #f2652d"/>
            <path d="M59.13,46.49,62.3,41h8.25l-2.46,4.25.63.81a2.62,2.62,0,0,0,1,.28h.4v.15Z" style="fill: #f2652d"/>
            <g>
              <line x1="90.3" y1="41.63" x2="95.07" y2="44.68" style="fill: none;stroke: #f5c064;stroke-linecap: round;stroke-linejoin: round;stroke-width: 0.663233017113252px"/>
              <line x1="91.1" y1="40.26" x2="95.86" y2="43.31" style="fill: none;stroke: #f5c064;stroke-linecap: round;stroke-linejoin: round;stroke-width: 0.663233017113252px"/>
              <line x1="91.89" y1="38.89" x2="96.66" y2="41.95" style="fill: none;stroke: #f5c064;stroke-linecap: round;stroke-linejoin: round;stroke-width: 0.663233017113252px"/>
              <line x1="92.69" y1="37.52" x2="97.45" y2="40.58" style="fill: none;stroke: #f5c064;stroke-linecap: round;stroke-linejoin: round;stroke-width: 0.663233017113252px"/>
            </g>
            <line x1="69.45" y1="44.38" x2="73.96" y2="41.93" style="fill: none;stroke: #f5c064;stroke-linecap: round;stroke-linejoin: round;stroke-width: 0.663233017113252px"/>
            <line x1="71.53" y1="41.28" x2="74.3" y2="39.76" style="fill: none;stroke: #f5c064;stroke-linecap: round;stroke-linejoin: round;stroke-width: 0.663233017113252px"/>
            <g>
              <polygon points="73.86 72.55 66.55 72.55 69.55 68.84 76.86 68.84 73.86 72.55" style="fill: #f8d497"/>
              <polygon points="73.86 72.55 68.53 72.55 69.55 71.29 74.89 71.29 73.86 72.55" style="fill: #f6a733"/>
              <rect x="66.56" y="72.55" width="7.32" height="2.45" style="fill: #f5c064"/>
              <polygon points="73.88 72.55 73.88 75 76.86 71.3 76.86 68.84 73.88 72.55" style="fill: #efebe1"/>
              <ellipse cx="71.31" cy="60.09" rx="3.1" ry="8.39" style="fill: #5dc2a5"/>
              <line x1="71.31" y1="59.05" x2="71.31" y2="71.72" style="fill: none;stroke: #f2652d;stroke-linecap: round;stroke-linejoin: round;stroke-width: 0.884310689484339px"/>
              <path d="M69.34,62.09a5.35,5.35,0,0,0,.54,1.28,1.81,1.81,0,0,0,1.08.82" style="fill: none;stroke: #f2652d;stroke-linecap: round;stroke-linejoin: round;stroke-width: 0.331616508556626px"/>
              <path d="M71.37,66.64a3.13,3.13,0,0,0,.94-1.45" style="fill: none;stroke: #f2652d;stroke-linecap: round;stroke-linejoin: round;stroke-width: 0.331616508556626px"/>
            </g>
            <g>
              <ellipse cx="88.79" cy="60.49" rx="3.1" ry="8.39" style="fill: #5dc2a5"/>
              <polygon points="91.41 72.95 84.09 72.95 87.09 69.24 94.4 69.24 91.41 72.95" style="fill: #f8d497"/>
              <polygon points="91.41 72.95 86.07 72.95 87.09 71.69 92.43 71.69 91.41 72.95" style="fill: #f6a733"/>
              <rect x="84.1" y="72.95" width="7.32" height="2.45" style="fill: #f5c064"/>
              <polygon points="91.42 72.95 91.42 75.4 94.4 71.7 94.4 69.24 91.42 72.95" style="fill: #efebe1"/>
              <line x1="88.85" y1="59.45" x2="88.85" y2="72.12" style="fill: none;stroke: #f2652d;stroke-linecap: round;stroke-linejoin: round;stroke-width: 0.884310689484339px"/>
              <path d="M86.88,62.49a5.35,5.35,0,0,0,.54,1.28,1.81,1.81,0,0,0,1.08.82" style="fill: none;stroke: #f2652d;stroke-linecap: round;stroke-linejoin: round;stroke-width: 0.331616508556626px"/>
              <path d="M88.91,67a3.13,3.13,0,0,0,.94-1.45" style="fill: none;stroke: #f2652d;stroke-linecap: round;stroke-linejoin: round;stroke-width: 0.331616508556626px"/>
            </g>
            <g>
              <rect x="79.73" y="67.26" width="3.12" height="0.55" style="fill: #f2652d"/>
              <polygon points="82.85 67.26 79.73 67.26 80.17 66.76 83.31 66.76 82.85 67.26" style="fill: #f6a733"/>
            </g>
            <g>
              <rect x="78.79" y="68.56" width="4.28" height="0.74" style="fill: #f2652d"/>
              <polygon points="83.07 68.56 78.79 68.56 79.39 67.82 83.67 67.82 83.07 68.56" style="fill: #f6a733"/>
            </g>
            <polygon points="83.31 66.76 83.31 67.81 82.85 67.81 82.85 67.26 83.31 66.76" style="fill: #efebe1"/>
            <polyline points="83.07 69.29 83.67 68.45 83.67 67.82 83.07 68.56 83.07 69.21" style="fill: #efebe1"/>
            <circle cx="68.94" cy="70.07" r="1.45" style="fill: #5dc2a5"/>
            <circle cx="69.66" cy="71.43" r="0.89" style="fill: #92d3ca"/>
            <circle cx="87.69" cy="71.92" r="0.89" style="fill: #92d3ca"/>
            <circle cx="90.76" cy="71.71" r="0.89" style="fill: #5dc2a5"/>
            <circle cx="73.25" cy="71.29" r="0.89" style="fill: #5dc2a5"/>
            <circle cx="71.4" cy="70.76" r="1.45" style="fill: #5dc2a5"/>
            <circle cx="73.96" cy="69.86" r="1.45" style="fill: #92d3ca"/>
            <circle cx="86.65" cy="70.68" r="1.45" style="fill: #5dc2a5"/>
            <circle cx="89.11" cy="71.37" r="1.45" style="fill: #5dc2a5"/>
            <circle cx="91.67" cy="70.47" r="1.45" style="fill: #92d3ca"/>
            <line x1="71.27" y1="72.39" x2="71.27" y2="70.96" style="fill: none;stroke: #f2652d;stroke-linecap: round;stroke-linejoin: round;stroke-width: 0.331616508556626px"/>
            <path d="M88.94,72.92V71.49" style="fill: none;stroke: #f2652d;stroke-linecap: round;stroke-linejoin: round;stroke-width: 0.331616508556626px"/>
          </g>
        </g>
        <g>
          <path d="M62.33,36.2v1.7H59.45v1.7h-3v1.7H53.27V63.73h.64a.42.42,0,0,1,.42.42v2.06h-.27a.4.4,0,0,1-.15,0h-.76a1.17,1.17,0,0,1,1.18,1.17V72.7h-.67c.87,0,1.57.17,1.57.38V74.8H48.05V73.08c0-.21.71-.38,1.57-.38H49V67.41a1.17,1.17,0,0,1,1.18-1.17h-.76a.4.4,0,0,1-.15,0H49V64.15a.42.42,0,0,1,.42-.42H50V46.78H47.83V45.51h-2V44.25h-2V43H50v0H19.42v0h6.17v1.27h-2v1.26h-2v1.27H19.42V63.73h.64a.42.42,0,0,1,.42.42v2.06h-.27a.4.4,0,0,1-.15,0H19.3a1.17,1.17,0,0,1,1.18,1.17V72.7h-.67c.86,0,1.57.17,1.57.38V74.8H14.2V73.08c0-.21.7-.38,1.57-.38H15.1V67.41a1.17,1.17,0,0,1,1.17-1.17h-.75a.4.4,0,0,1-.15,0H15.1V64.15a.42.42,0,0,1,.42-.42h.64V41.3H13V39.6H10V37.9H7.1V36.2h9.06V34.36h-2V33H12.26V31.66H10.44V30.3h5.72v-3l-.36-1V19.15h4v7.17l-.36,1v1.34H50V27.34l-.36-1V19.15h4v7.17l-.36,1v3H59v1.36H57.17V33H55.3v1.35h-2V36.2Z" style="fill: #e6e7e8"/>
          <polyline points="19.78 19.15 17.32 21.66 13.34 21.66 15.8 19.15 19.63 19.16" style="fill: #efebe1"/>
          <g>
            <rect x="13.7" y="29.83" width="3.26" height="36.41" style="fill: #f8d497"/>
            <g>
              <rect x="13.34" y="21.66" width="3.98" height="7.16" style="fill: #f8d497"/>
              <polygon points="16.95 29.85 13.7 29.85 13.34 28.82 17.32 28.82 16.95 29.85" style="fill: #f6a733"/>
            </g>
            <rect x="12.64" y="66.24" width="5.38" height="2.51" rx="0.42" style="fill: #f5c064"/>
            <path d="M18,75.2H12.64V69.92a1.17,1.17,0,0,1,1.17-1.18h3A1.17,1.17,0,0,1,18,69.92Z" style="fill: #f5c064"/>
            <path d="M18.91,77.31H11.74V75.59c0-.21.7-.39,1.57-.39h4c.86,0,1.56.18,1.56.39Z" style="fill: #f6a733"/>
            <circle cx="16.69" cy="18.92" r="1.37" style="fill: #f5c064"/>
            <g>
              <rect x="7.98" y="32.81" width="5.72" height="1.35" style="fill: #f5c064"/>
              <rect x="9.8" y="34.16" width="3.9" height="1.35" style="fill: #f5c064"/>
              <rect x="11.67" y="35.51" width="2.03" height="1.35" style="fill: #f5c064"/>
            </g>
            <g>
              <rect x="4.64" y="38.7" width="9.06" height="1.7" style="fill: #f5c064"/>
              <rect x="7.52" y="40.4" width="6.18" height="1.7" style="fill: #f5c064"/>
              <rect x="10.49" y="42.1" width="3.21" height="1.7" style="fill: #f5c064"/>
            </g>
            <g>
              <rect x="16.96" y="45.48" width="6.18" height="1.27" style="fill: #f6a733"/>
              <rect x="16.96" y="46.75" width="4.21" height="1.27" style="fill: #f6a733"/>
              <rect x="16.96" y="48.02" width="2.19" height="1.27" style="fill: #f6a733"/>
            </g>
            <rect x="12.64" y="68.32" width="5.38" height="0.39" style="fill: #f6a733"/>
          </g>
          <rect x="47.55" y="29.83" width="3.26" height="36.41" style="fill: #f8d497"/>
          <g>
            <rect x="47.19" y="21.66" width="3.98" height="7.16" style="fill: #f8d497"/>
            <polygon points="47.55 29.85 50.81 29.85 51.17 28.82 47.19 28.82 47.55 29.85" style="fill: #f6a733"/>
          </g>
          <rect x="46.49" y="66.24" width="5.38" height="2.51" rx="0.42" style="fill: #f5c064"/>
          <path d="M46.49,75.2h5.38V69.92a1.18,1.18,0,0,0-1.18-1.18h-3a1.18,1.18,0,0,0-1.18,1.18Z" style="fill: #f5c064"/>
          <path d="M45.59,77.31h7.18V75.59c0-.21-.7-.39-1.57-.39h-4c-.87,0-1.57.18-1.57.39Z" style="fill: #f6a733"/>
          <g>
            <rect x="50.81" y="32.81" width="5.72" height="1.35" style="fill: #f5c064"/>
            <rect x="50.81" y="34.16" width="3.9" height="1.35" style="fill: #f5c064"/>
            <rect x="50.81" y="35.51" width="2.03" height="1.35" style="fill: #f5c064"/>
          </g>
          <g>
            <rect x="50.81" y="38.7" width="9.06" height="1.7" style="fill: #f5c064"/>
            <rect x="50.81" y="40.4" width="6.18" height="1.7" style="fill: #f5c064"/>
            <rect x="50.81" y="42.1" width="3.21" height="1.7" style="fill: #f5c064"/>
          </g>
          <g>
            <rect x="41.37" y="45.48" width="6.18" height="1.27" style="fill: #f6a733"/>
            <rect x="43.34" y="46.75" width="4.21" height="1.27" style="fill: #f6a733"/>
            <rect x="45.36" y="48.02" width="2.19" height="1.27" style="fill: #f6a733"/>
          </g>
          <rect x="46.49" y="68.32" width="5.38" height="0.39" style="fill: #f6a733"/>
          <polygon points="47.19 21.66 49.65 19.15 53.63 19.15 51.17 21.66 47.19 21.66" style="fill: #efebe1"/>
          <rect x="16.96" y="38.74" width="30.64" height="6.73" style="fill: #f6a733"/>
          <rect x="16.96" y="37.6" width="30.64" height="1.1" style="fill: #f2652d"/>
          <rect x="16.96" y="31.18" width="30.8" height="1.63" style="fill: #f6a733"/>
          <path d="M49,37.6H15.86a.38.38,0,0,1-.36-.51L17,32H47.75l1.59,5.08A.39.39,0,0,1,49,37.6Z" style="fill: #5dc2a5"/>
          <line x1="16.88" y1="45.61" x2="23.27" y2="45.61" style="fill: none;stroke: #f5c064;stroke-linecap: round;stroke-linejoin: round;stroke-width: 0.514565723191158px"/>
          <line x1="41.27" y1="45.61" x2="47.66" y2="45.61" style="fill: none;stroke: #f5c064;stroke-linecap: round;stroke-linejoin: round;stroke-width: 0.514565723191158px"/>
          <g>
            <line x1="19.01" y1="32.51" x2="17.67" y2="37.84" style="fill: none;stroke: #92d3ca;stroke-linecap: round;stroke-linejoin: round;stroke-width: 1.02913144638232px"/>
            <line x1="22.02" y1="32.51" x2="20.98" y2="37.84" style="fill: none;stroke: #92d3ca;stroke-linecap: round;stroke-linejoin: round;stroke-width: 1.02913144638232px"/>
            <line x1="25.02" y1="32.51" x2="24.28" y2="37.84" style="fill: none;stroke: #92d3ca;stroke-linecap: round;stroke-linejoin: round;stroke-width: 1.02913144638232px"/>
            <line x1="28.03" y1="32.51" x2="27.59" y2="37.84" style="fill: none;stroke: #92d3ca;stroke-linecap: round;stroke-linejoin: round;stroke-width: 1.02913144638232px"/>
            <line x1="31.04" y1="32.51" x2="30.89" y2="37.84" style="fill: none;stroke: #92d3ca;stroke-linecap: round;stroke-linejoin: round;stroke-width: 1.02913144638232px"/>
            <line x1="34.05" y1="32.51" x2="34.2" y2="37.84" style="fill: none;stroke: #92d3ca;stroke-linecap: round;stroke-linejoin: round;stroke-width: 1.02913144638232px"/>
            <line x1="37.06" y1="32.51" x2="37.5" y2="37.84" style="fill: none;stroke: #92d3ca;stroke-linecap: round;stroke-linejoin: round;stroke-width: 1.02913144638232px"/>
            <line x1="40.07" y1="32.51" x2="40.81" y2="37.84" style="fill: none;stroke: #92d3ca;stroke-linecap: round;stroke-linejoin: round;stroke-width: 1.02913144638232px"/>
            <line x1="43.08" y1="32.51" x2="44.11" y2="37.84" style="fill: none;stroke: #92d3ca;stroke-linecap: round;stroke-linejoin: round;stroke-width: 1.02913144638232px"/>
            <line x1="46.09" y1="32.51" x2="47.42" y2="37.84" style="fill: none;stroke: #92d3ca;stroke-linecap: round;stroke-linejoin: round;stroke-width: 1.02913144638232px"/>
          </g>
          <polygon points="51.17 21.66 53.63 19.15 53.63 26.32 51.17 28.82 51.17 21.66" style="fill: #f5c064"/>
          <polygon points="53.63 26.32 53.27 27.34 50.81 29.85 51.17 28.82 53.63 26.32" style="fill: #f5c064"/>
          <polygon points="50.81 29.85 53.27 27.34 53.27 30.3 50.81 32.81 50.81 29.85" style="fill: #f6a733"/>
          <polygon points="53.27 30.3 58.99 30.3 56.53 32.81 50.81 32.81 53.27 30.3" style="fill: #efebe1"/>
          <polygon points="52.84 36.86 53.9 35.51 52.84 35.51 52.84 36.86" style="fill: #f2652d"/>
          <polygon points="54.71 34.16 54.71 35.51 55.82 34.16 54.71 34.16" style="fill: #f2652d"/>
          <polygon points="50.81 36.86 50.81 38.7 59.87 38.7 62.33 36.2 53.27 36.2 52.84 36.86 50.81 36.86" style="fill: #f2652d"/>
          <polygon points="50.81 43.8 53.27 43.8 53.27 63.73 50.81 66.24 50.81 43.8" style="fill: #f6a733"/>
          <polygon points="16.95 31.18 19.42 28.68 47.19 28.68 47.19 28.82 47.55 29.85 47.55 31.18 16.95 31.18" style="fill: #5dc2a5"/>
          <polygon points="16.95 29.85 19.42 27.34 19.42 28.68 16.95 31.18 16.95 29.85" style="fill: #f5c064"/>
          <polygon points="17.32 28.82 19.78 26.32 19.42 27.34 16.95 29.85 17.32 28.82" style="fill: #f5c064"/>
          <polygon points="17.32 21.66 19.78 19.15 19.78 26.32 17.32 28.82 17.32 21.66" style="fill: #f5c064"/>
          <polygon points="10.44 30.3 7.97 32.81 13.7 32.81 13.7 30.3 10.44 30.3" style="fill: #f2652d"/>
          <polygon points="7.1 36.2 4.64 38.7 13.7 38.7 13.7 36.86 11.67 36.86 11.67 36.19 7.1 36.2" style="fill: #f2652d"/>
          <polygon points="16.95 49.29 19.14 49.29 19.14 48.02 19.42 48.02 19.42 63.73 16.95 66.24 16.95 49.29" style="fill: #f5c064"/>
          <g>
            <path d="M18,66.66l2.47-2.51a.43.43,0,0,0-.42-.42h-.64L17,66.24h.63S18,66.29,18,66.66Z" style="fill: #96cfce"/>
            <polygon points="18.01 66.66 18.01 68.32 20.48 65.7 20.48 64.15 18.01 66.66" style="fill: #f5c064"/>
            <polygon points="18.01 68.32 18.01 68.71 20.48 66.21 20.48 65.7 18.01 68.32" style="fill: #f6a733"/>
            <path d="M16.84,68.74A1.22,1.22,0,0,1,18,69.92l2.47-2.51a1.12,1.12,0,0,0-.36-.84L18,68.71Z" style="fill: #92d3ca"/>
            <polygon points="18.01 69.92 18.01 75.2 20.48 72.7 20.48 67.41 18.01 69.92" style="fill: #f5c064"/>
            <path d="M18,75.2s.9.13.9.39l2.47-2.51c.08-.08-.26-.21-.3-.22a1.78,1.78,0,0,0-.6-.16Z" style="fill: #92d3ca"/>
            <polygon points="18.91 75.59 18.91 77.31 21.38 74.81 21.38 73.08 18.91 75.59" style="fill: #f6a733"/>
          </g>
          <g>
            <path d="M51.84,66.66l2.5-2.51a.43.43,0,0,0-.42-.42h-.65l-2.51,2.51h.65S51.84,66.29,51.84,66.66Z" style="fill: #96cfce"/>
            <polygon points="51.84 66.66 51.84 68.32 54.34 65.7 54.34 64.15 51.84 66.66" style="fill: #f5c064"/>
            <polygon points="51.84 68.32 51.84 68.71 54.34 66.21 54.34 65.7 51.84 68.32" style="fill: #f6a733"/>
            <path d="M50.65,68.74a1.24,1.24,0,0,1,1.19,1.18l2.5-2.51a1.08,1.08,0,0,0-.36-.84l-2.14,2.14Z" style="fill: #92d3ca"/>
            <polygon points="51.84 69.92 51.84 75.2 54.34 72.7 54.34 67.41 51.84 69.92" style="fill: #f5c064"/>
            <path d="M51.84,75.2s.92.13.92.39l2.5-2.51c.08-.08-.26-.21-.3-.22a1.89,1.89,0,0,0-.62-.16Z" style="fill: #92d3ca"/>
            <polygon points="52.76 75.59 52.76 77.31 55.26 74.81 55.26 73.08 52.76 75.59" style="fill: #f6a733"/>
          </g>
          <circle cx="50.55" cy="19.65" r="1.37" style="fill: #f5c064"/>
          <polygon points="56.53 32.81 56.53 34.16 58.99 31.66 58.99 30.3 56.53 32.81" style="fill: #f5c064"/>
          <polygon points="59.87 38.7 59.87 40.4 62.33 37.9 62.33 36.2 59.87 38.7" style="fill: #f5c064"/>
          <g>
            <polygon points="45.17 40.86 44.22 39.63 44.22 39.63 20.33 39.63 20.33 39.63 19.38 40.86 18.43 42.1 19.38 43.34 20.33 44.57 20.33 44.57 44.22 44.57 44.22 44.57 45.17 43.34 46.12 42.1 45.17 40.86" style="fill: #efebe1;stroke: #f5c064;stroke-miterlimit: 10;stroke-width: 0.246747098071178px"/>
            <g>
              <polygon points="28.39 43.41 27.79 42.05 28.1 41.43 28.39 40.79 36.16 40.79 36.76 42.15 36.45 42.77 36.16 43.41 28.39 43.41" style="fill: #f2652d"/>
              <path d="M36.09,40.91l.25.57.27.62-.27.62-.25.57H28.47l-.25-.57-.28-.62.28-.62.25-.57h7.62m.16-.25H28.3l-.31.72-.32.72.32.72.31.72h8l.31-.72.32-.72-.32-.72-.31-.72Z" style="fill: #f6a733"/>
            </g>
            <g>
              <path d="M22.79,41.82l-.24.13s.1-.16.08-.18h0a1.86,1.86,0,0,0-.33,0c.07,0,0,.08,0,.13a.33.33,0,0,1,.21,0s0,0,0,0l-.22.09s0,.08,0,.09a.55.55,0,0,0,.22,0,.2.2,0,0,1,.13,0,.09.09,0,0,1,.07,0s0,0,0,.06a.82.82,0,0,1-.41,0,.14.14,0,0,1-.08-.14.23.23,0,0,1-.24,0,1.11,1.11,0,0,1-.51,1s0,0,0,0a1.07,1.07,0,0,0,.38-.73,2.42,2.42,0,0,0-.51.38s-.15-.12-.17-.16a1.3,1.3,0,0,0,.36-.13v-.29c-.11,0-.24,0-.33-.05A1.86,1.86,0,0,0,21.5,42a.72.72,0,0,0-.1-.44c-.11-.13.16,0,.22,0s0,.08,0,.12a1,1,0,0,0,0,.29s.18-.07.22,0-.19.11-.22.12v.27l.2-.08s0,0,0,0a2,2,0,0,0,0-.48c0-.08.11,0,.14,0l.23,0c0-.09,0-.35-.09-.42s.24-.05.24,0a.74.74,0,0,0,0,.14c.08,0,.23-.1.33-.06s.05,0,0,.08a.72.72,0,0,1-.35.08v.14a1.18,1.18,0,0,0,.31-.08c.06,0,.06,0,.12,0l.06,0s.1.06.09.09S22.82,41.8,22.79,41.82Zm.11,1.06a2.59,2.59,0,0,0-.92,0c-.05,0-.11,0-.16,0a.41.41,0,0,1-.07-.11l.42,0v-.13a.75.75,0,0,1-.18.08s0-.05-.06-.08.05,0,.06-.07l0-.16s0,0,0,0a.2.2,0,0,1,.08.08s-.05,0-.05.13.07,0,.09,0a.58.58,0,0,0-.06-.29c0-.06.17,0,.16.05v.43h.1a1.7,1.7,0,0,0,0-.46s0-.07,0-.07.17,0,.16.07a1.17,1.17,0,0,0,0,.26l.1,0a1.34,1.34,0,0,0,0-.2s0,0,0,0,.12,0,.11.08,0,.1-.05.15.07,0,.05.06l-.22,0v.12l.18,0c.09,0,.26,0,.32.06S23,42.89,22.9,42.88Zm-.72-1.07-.2,0A1.09,1.09,0,0,1,22,42l.24-.07A.25.25,0,0,0,22.18,41.81Z" style="fill: #f2652d"/>
              <path d="M25.21,42.35s0,.1-.05.12-.09-.1-.08-.15a1,1,0,0,0,0-.35,1.05,1.05,0,0,1-.39.27s0,0,0,0a1.41,1.41,0,0,0,.44-.53s0-.08,0-.08a.26.26,0,0,1,.14.09s0,.07,0,.09l.34,0a.76.76,0,0,1-.11-.14s.24,0,.21.12a1.36,1.36,0,0,1,.4,0,.13.13,0,0,1,.07,0s0,0-.05,0l-.42,0v.09a.7.7,0,0,1,.32,0s.08.07,0,.08a3.27,3.27,0,0,1-.35,0V42a1.3,1.3,0,0,1,.34,0s.05.07,0,.08l-.34,0v.07a1,1,0,0,1,.46,0s.09.1,0,.1C25.87,42.29,25.54,42.32,25.21,42.35Zm.23-.7c-.06,0-.08-.1-.1-.14a2,2,0,0,0-.35.06.34.34,0,0,1-.25-.11,3.77,3.77,0,0,0,.58,0,1.1,1.1,0,0,0-.09-.14c-.06-.08.23-.07.22,0S25.47,41.62,25.44,41.65Zm.71.91c-.07.14,0,.31-.13.45s-.1-.11-.15-.11H25.7l-.43,0s0,.1,0,.1a.26.26,0,0,1-.09-.14,1.72,1.72,0,0,0-.1-.39s0,0,0,0,.15,0,.24-.06.05-.06.08-.06l.13.06s-.05.06-.08.07a1.42,1.42,0,0,0-.22.07v.09c.06,0,.26-.07.3,0s0,.07-.06.07l-.23,0,0,.11a4.17,4.17,0,0,1,.61,0l.08,0a.84.84,0,0,0,0-.17c-.18,0-.25.1-.37-.06l.37,0s0-.08,0-.11-.07,0-.09,0-.21.06-.31-.07a.91.91,0,0,0,.43,0s.16.09.18.12S26.17,42.54,26.15,42.56Zm-.55-.42a.72.72,0,0,1-.3,0c-.06,0-.06,0,0,0l.31,0V42c-.13,0-.26.07-.36,0l.35,0a.22.22,0,0,0,0-.08,1.46,1.46,0,0,1-.36,0l0,0a.7.7,0,0,1,0,.38l.39,0Zm.68-.71-.4,0a.55.55,0,0,1-.13.18s-.05,0,0,0,.13-.33.07-.42.21,0,.21,0,0,.09-.07.13c.17,0,.29-.12.44,0S26.32,41.42,26.28,41.43Z" style="fill: #f2652d"/>
              <path d="M39.5,41.5s0,0,0,0a.28.28,0,0,0,0,.09,5.15,5.15,0,0,0,0,.88,1.22,1.22,0,0,1-.06.54s0,0-.06,0,0-.22-.08-.25a3.7,3.7,0,0,0-1,.05v0c0,.12-.05.12-.09.06a.63.63,0,0,1,0-.33,8.52,8.52,0,0,0,0-1,.54.54,0,0,0,0-.21s0-.05,0,0h.05a.32.32,0,0,0,.14,0l.8-.09a.58.58,0,0,0,.14-.05s.23.13.25.16A.06.06,0,0,1,39.5,41.5Zm-.19.17a.39.39,0,0,0-.06-.24s-.18,0-.22,0l-.32,0s.12,0,.1.07a.25.25,0,0,0,0,.07.38.38,0,0,0,.15,0,0,0,0,0,1,0,0s.11.07.09.1a.39.39,0,0,0-.08.1,1,1,0,0,1,.23,0c.08,0,.13.1,0,.1a4.26,4.26,0,0,0-.8.09.27.27,0,0,1-.18,0c0,.32,0,.62,0,.94l.48-.05v-.2a.39.39,0,0,0-.28.09s-.06,0-.08,0,0-.09.07-.15,0-.07,0-.09.1,0,.12,0,0,0,0,.08l.15,0v-.11c-.1,0-.18,0-.26,0l.26,0a.45.45,0,0,0,0-.12h-.08c0,.07,0,.07,0,0a.24.24,0,0,1-.06-.11.75.75,0,0,1-.06-.13c0-.06.06,0,.08,0a.78.78,0,0,0,.37-.06.17.17,0,0,1,.16.07s0,0,0,0l-.09.09s.05.06,0,.07-.12,0-.17,0,0,.07,0,.12.17-.06.24,0,0,0,0,0l-.2,0v.11l.2,0c.06,0,.15,0,.17.05s0,.06,0,.06h-.33v.2a1.19,1.19,0,0,1,.5,0A5.46,5.46,0,0,0,39.31,41.67Zm-.67-.23-.37,0c0,.1,0,.22,0,.33l.34,0,0-.09a.23.23,0,0,1-.18-.06l.2,0s0-.07,0-.1S38.64,41.45,38.64,41.44Zm.12.54a.65.65,0,0,0-.16,0s0,.05,0,.07l.21,0a.12.12,0,0,0,.05-.09Zm0-.32,0,.09.14,0s0-.07,0-.09S38.76,41.65,38.74,41.66Z" style="fill: #f2652d"/>
              <path d="M41.39,41.71a1,1,0,0,0,.09-.21,3.14,3.14,0,0,0-.75.09s-.18,0-.22,0-.08.28-.19.27,0,0-.06-.06.06-.13.09-.19a.72.72,0,0,0,.09-.2.15.15,0,0,1,.07.11,2.52,2.52,0,0,0,.37-.05l.51-.08c.12,0,.12-.08.19,0s.29.22.16.24A1.12,1.12,0,0,0,41.39,41.71Zm.11.95c-.06,0-.14-.09-.18-.13s-.21-.19-.33-.28a.73.73,0,0,1,0,.7s-.09.13-.14.09L40.82,43a.65.65,0,0,0-.18-.15.61.61,0,0,0,.27,0c.08-.08.05-.31,0-.41a1.09,1.09,0,0,1-.62.38s-.08,0-.06,0l.07,0a1.4,1.4,0,0,0,.57-.45l-.06-.1a.79.79,0,0,1-.32.28.73.73,0,0,1-.2,0,1.43,1.43,0,0,0,.46-.39l0,0a1,1,0,0,1-.38.13s0,0,0,0a1.64,1.64,0,0,0,.49-.31.89.89,0,0,1-.22,0s0,0,0-.06l.38-.07.18,0a.18.18,0,0,1,.1,0c0,.08-.29.12-.34.13s.07.07,0,.1L40.8,42a.61.61,0,0,1,.15.13l.09,0c.08-.09.21-.18.22-.32s.24.09.17.13l-.09,0-.24.18a1.08,1.08,0,0,1,.18.11,1.76,1.76,0,0,0,.6.19s0,0,0,0S41.55,42.66,41.5,42.66ZM41,41.43a1.08,1.08,0,0,1-.22-.21.28.28,0,0,1,.28,0,.18.18,0,0,1,0,.09S41,41.45,41,41.43Z" style="fill: #f2652d"/>
              <path d="M44,41.9a7.16,7.16,0,0,0-.8.05s0,.08,0,.12l.3,0s.05,0,.08,0l.1.08s0,0,0,.05l-.05.06a1.36,1.36,0,0,0-.1.21s-.06.25-.12.19,0-.05,0-.05a2.63,2.63,0,0,0-.48.06v0h0a.24.24,0,0,1,.16.07s0,0,0,0a1.53,1.53,0,0,1-.52.28s0,0,0,0a1.69,1.69,0,0,0,.35-.29v0c-.07.07-.13-.27-.14-.3a.52.52,0,0,0-.06-.15s0-.05,0-.07,0,0,0,0h.08l.31-.06a.2.2,0,0,0,0-.11l-.45.08-.21,0s-.21-.07-.15-.11c.52-.06,1-.16,1.54-.25a.27.27,0,0,1,.24.09S44.08,41.9,44,41.9Zm-.31-.4-.3,0,0,.22c0,.08-.08,0-.1,0s-.19,0-.21,0,0,.07-.07,0a1.05,1.05,0,0,1-.06-.21c-.12,0-.2.07-.28-.06a2.3,2.3,0,0,0,.26,0c0-.06-.07-.12-.08-.17s.08-.05.11,0,.1.08.1.18l.25-.05a.34.34,0,0,0,0-.2s0-.05,0-.06.2,0,.2.09l0,.13c.08,0,.22-.07.29,0S43.77,41.48,43.73,41.5Zm-.59.89c-.07,0-.17,0-.2-.06l.2,0v-.11l-.26,0a1.86,1.86,0,0,1,.07.34l.19,0Zm-.09-.77a.41.41,0,0,1,0,.11l.22,0s0-.08,0-.11Zm.44.52a1.1,1.1,0,0,0-.25,0v.12c.07,0,.16-.06.21,0h0s-.19.06-.21.06,0,.1,0,.14a.5.5,0,0,1,.21,0c0-.06.08-.25.1-.31A.06.06,0,0,0,43.49,42.14Zm.18.85a3.22,3.22,0,0,1-.32-.32s0,0,0,0a.62.62,0,0,1,.34.15l0,.05s.05.12,0,.15A.07.07,0,0,1,43.67,43Z" style="fill: #f2652d"/>
            </g>
          </g>
        </g>
        <g>
          <rect x="60.81" y="91.31" width="2.35" height="4.27" style="fill: #f6a733"/>
          <rect x="73.91" y="91.35" width="2.35" height="4.27" style="fill: #f6a733"/>
          <rect x="61.99" y="92.98" width="10.78" height="1.42" style="fill: #f8d497"/>
          <polygon points="72.77 92.98 61.99 92.98 63.05 92.36 73.89 92.36 72.77 92.98" style="fill: #f6a733"/>
          <rect x="57.9" y="78.74" width="21.55" height="13.25" style="fill: #f5c064"/>
          <g>
            <rect x="59.68" y="80.21" width="17.75" height="10.38" style="fill: #f6a733"/>
            <path d="M77.26,80.37v10H59.84v-10H77.26m.33-.33H59.51V90.75H77.59V80Z" style="fill: #f8d497"/>
          </g>
          <g>
            <path d="M65.83,82h0a.36.36,0,0,1,0,.1c0,.09-.07.15-.2.16a1.39,1.39,0,0,0-.35.09,1,1,0,0,1-.55-.07l-.21.11.06.08a.36.36,0,0,1,.19-.05.35.35,0,0,1,.21.07.44.44,0,0,1,0,.15c0,.12-.09.21-.29.25a.27.27,0,0,0,0,.11c.13,0,.21,0,.25.07s-.06.25-.26.31a.47.47,0,0,0,0,.17.34.34,0,0,1,.16,0,.23.23,0,0,1,.18.08.33.33,0,0,1,.06.19.24.24,0,0,1-.11.19,1.59,1.59,0,0,0-.35.12.06.06,0,0,0,0,.06L65,84a.22.22,0,0,1,.22.18.42.42,0,0,1,0,.16.16.16,0,0,1-.08.1,1.53,1.53,0,0,1-.28.08l-.54.12a2.48,2.48,0,0,1-.4,0,.36.36,0,0,1-.32-.15c-.06-.15,0-.25.32-.32.09,0,.15,0,.17-.06l-.16,0a.36.36,0,0,1-.2-.06.18.18,0,0,1-.09-.16.51.51,0,0,1,.24-.22.67.67,0,0,0,.24,0,.41.41,0,0,0,0-.16.89.89,0,0,1-.36,0,.15.15,0,0,1-.08-.14.52.52,0,0,1,0-.11.73.73,0,0,1,.45-.18v-.08l-.22,0-.15,0a.52.52,0,0,1-.13-.13l-.14.14a.49.49,0,0,0-.15.19,2.93,2.93,0,0,0-.06.61,4.63,4.63,0,0,0,0,.51.5.5,0,0,1,0,.16.28.28,0,0,1-.08.2.33.33,0,0,0-.13.13l-.06,0a.17.17,0,0,1-.13-.09,2.33,2.33,0,0,1-.1-.71,3.49,3.49,0,0,1,0-.44,4.67,4.67,0,0,0-.87.9.29.29,0,0,1-.17.14h-.15a.22.22,0,0,1-.12.06s-.06,0-.05-.09a1.34,1.34,0,0,1,.13-.34q.22-.23.36-.39a5.89,5.89,0,0,1,.87-1l.18-.16c.23-.21.39-.31.5-.31a3.86,3.86,0,0,0,.92-.68.32.32,0,0,1,.35-.17.27.27,0,0,1,.15.25.66.66,0,0,0,.27-.12.24.24,0,0,1,.13,0,.53.53,0,0,1,.22.07A.51.51,0,0,1,65.83,82Zm-2.38,0q.24,0,.24.12c0,.06-.09.14-.27.21,0,.17-.05.28-.17.32a.16.16,0,0,1-.12,0q-.1,0-.15-.18a1.9,1.9,0,0,1-.4,0,.29.29,0,0,1-.33-.28.3.3,0,0,1,.33-.3l.17,0h.19c0-.19.09-.28.2-.28a.45.45,0,0,1,.18,0C63.41,81.76,63.46,81.83,63.45,82Zm1.88,3.38h0a1.26,1.26,0,0,1-.55,1l-.1,0a.14.14,0,0,1-.12-.06,2.6,2.6,0,0,0-.4,0,3.86,3.86,0,0,0-.71.08.58.58,0,0,1-.18,0,.49.49,0,0,1-.22-.06,2.15,2.15,0,0,1-.27-1.14c.08-.17.17-.26.26-.26l.08,0a.53.53,0,0,0,.24-.1.34.34,0,0,1,.16,0,.23.23,0,0,1,.19.1.15.15,0,0,1,0,.09c0,.08-.06.14-.2.19a1.24,1.24,0,0,1-.32.07.62.62,0,0,0,0,.18.82.82,0,0,1,.35-.09.12.12,0,0,1,.09,0,.19.19,0,0,1,.15.1.14.14,0,0,1-.13.19,1.94,1.94,0,0,0-.38.2.26.26,0,0,0,0,.15,3.65,3.65,0,0,1,1.31-.12.44.44,0,0,0,.07-.22.66.66,0,0,1-.23,0,.54.54,0,0,1-.25-.06.16.16,0,0,1-.06-.12.22.22,0,0,1,.08-.16,1.67,1.67,0,0,1,.29,0,.36.36,0,0,1,.24.07,1.27,1.27,0,0,0,0-.34.68.68,0,0,1-.33.11c-.13,0-.19,0-.19-.15s.08-.17.22-.18a1.43,1.43,0,0,0,.39-.06.14.14,0,0,1,.12-.08.37.37,0,0,1,.22.09.43.43,0,0,1,.12.36C65.35,85.14,65.34,85.24,65.33,85.34Zm-1.18-2.79h0s-.06-.07-.06-.1l-.44.12v.07s0,.06,0,.07a.45.45,0,0,1,.24-.1A.7.7,0,0,0,64.15,82.55Z" style="fill: #f2652d;stroke: #f8d497;stroke-miterlimit: 10;stroke-width: 0.14368422463288px"/>
            <path d="M72.43,83.27a.56.56,0,0,1,0,.3,5.16,5.16,0,0,1-.37.57q0,.09,0,.27a.34.34,0,0,1,.25-.09.26.26,0,0,1,0,.21c0,.07,0,.15-.05.27a4.46,4.46,0,0,1-.73.76c-.06.06-.11.1-.16.1s-.09,0-.14-.14a.34.34,0,0,1,0-.21.16.16,0,0,1,.06-.18l.31-.33a2.18,2.18,0,0,0,0-.52l-.14,0-.14,0a.43.43,0,0,1-.14-.17,1.87,1.87,0,0,1-.12-.25c0-.12,0-.2.07-.23s.29-.16.51-.3l0-.39a3.8,3.8,0,0,1,.06-.78.26.26,0,0,1,.21-.14L72,82a.5.5,0,0,1,.21.3c0,.08,0,.18,0,.32s0,.35,0,.5A.39.39,0,0,1,72.43,83.27Zm2.94,2.47a1,1,0,0,1,0,.15c0,.15-.1.23-.29.23l-.22,0-.51,0a6.31,6.31,0,0,0-1.25.12l-.15,0a.37.37,0,0,1-.36-.24c0-.21.21-.33.68-.36,0-.09,0-.15,0-.2l-.16.18a.1.1,0,0,1-.08,0c-.06,0-.12,0-.19-.15a2.22,2.22,0,0,1-.08-.52.35.35,0,0,1,0-.13.27.27,0,0,1,.12-.23l.07,0a.15.15,0,0,1,.13.1.52.52,0,0,1,0,.23.54.54,0,0,1,0,.21c.16,0,.23-.13.23-.33a.84.84,0,0,1,.08-.31.34.34,0,0,1,.12-.18.3.3,0,0,1,.16,0,.7.7,0,0,1-.1-.43l-.19.07a.27.27,0,0,1-.17-.12.29.29,0,0,1-.06-.16c0-.12.13-.24.4-.34,0-.09,0-.14-.1-.15a.41.41,0,0,0-.24.2.38.38,0,0,1-.08.17c-.07.24-.17.52-.29.86-.23.64-.37,1-.42,1.12a1.85,1.85,0,0,1-.21.34,2.16,2.16,0,0,1-.27.33l0,0c-.05,0-.08,0-.08-.15a1.27,1.27,0,0,1,.27-.71c.32-.82.56-1.52.73-2.08,0-.16.08-.28.1-.34a.62.62,0,0,1,.44-.18.89.89,0,0,1,0-.32,1.08,1.08,0,0,1,.23-.59.1.1,0,0,1,.08,0,.6.6,0,0,1,.29.16.83.83,0,0,0,.27-.07l.12,0a.37.37,0,0,1,.21.08.36.36,0,0,1,0,.1.32.32,0,0,1-.13.24.79.79,0,0,1-.4.1c-.09,0-.15.11-.16.31a2.7,2.7,0,0,1,.68,0,.21.21,0,0,1,.16-.11.22.22,0,0,1,.16.11.82.82,0,0,1,.09.33.28.28,0,0,1-.11.24.46.46,0,0,1-.32-.12.09.09,0,0,0-.06,0,.11.11,0,0,0-.09,0s-.06,0-.08,0,0,0,0,0,0-.07,0-.15a.47.47,0,0,0,.11-.1s.06,0,.05,0a.48.48,0,0,0-.29.09.35.35,0,0,0-.13.29l.11,0a.26.26,0,0,1,.26.19.26.26,0,0,1-.18.28l-.28.11a.09.09,0,0,0,.08.1.26.26,0,0,0,.16-.1h0s.08,0,.14.09a.45.45,0,0,1,0,.11.26.26,0,0,1-.13.23l.17.17a.34.34,0,0,1,0,.16.77.77,0,0,1,0,.15.65.65,0,0,0,0,.11l.12,0a.12.12,0,0,0,.09-.12.22.22,0,0,0,0-.1.2.2,0,0,1,0-.07.29.29,0,0,1,.08-.18.22.22,0,0,1,.17-.07.35.35,0,0,1,.2.07.18.18,0,0,1,.11.18.52.52,0,0,1,0,.11.84.84,0,0,0-.08.29c0,.17-.14.25-.4.26s-.24.16-.25.4C74.89,85.51,75.23,85.57,75.37,85.74ZM74.08,84.3l-.32.08a.9.9,0,0,1,0,.39,5.27,5.27,0,0,0,0,.82,1.53,1.53,0,0,1,.3,0c0-.28,0-.56,0-.84a.45.45,0,0,1,0-.27A.14.14,0,0,0,74.08,84.3Z" style="fill: #f2652d;stroke: #f8d497;stroke-miterlimit: 10;stroke-width: 0.14368422463288px"/>
          </g>
          <g>
            <path d="M62,89.57l0,.09a.22.22,0,0,1-.09.1,1,1,0,0,1-.32,0,.63.63,0,0,1-.26,0,.28.28,0,0,1-.15-.17,1.27,1.27,0,0,1,0-.22l-.11,0h0s0,0,0,0l-.07,0s0,0,0-.06l0,0a1,1,0,0,1,0-.23.09.09,0,0,1,0-.06H61v0a.63.63,0,0,0,0,.19l.14,0c0-.09,0-.19,0-.31l0,0-.09,0s0,0,0,0,0-.1.17-.13a.59.59,0,0,1,.09-.24l.05,0s0,0,0,0l0,.07v0a.2.2,0,0,1,0,.07l.07,0h0l0,0,0,0v0a.09.09,0,0,1,0,0,.23.23,0,0,1-.12,0l-.1,0a2.31,2.31,0,0,0,0,.28l.19-.08.06-.14a.06.06,0,0,1,.07,0l.06,0s0,0,0,.1a.47.47,0,0,1-.18.23.11.11,0,0,1-.08,0s0,0,0,0l-.13.06a.38.38,0,0,0,0,.1c0,.06,0,.11,0,.15a.21.21,0,0,0,.14.07,1.49,1.49,0,0,0,.41-.08.8.8,0,0,0,0-.15s0,0,0,0h0s0,0,0,0v0a.08.08,0,0,0,0,.06.07.07,0,0,1,0,.06S62,89.56,62,89.57Z" style="fill: #f2652d"/>
            <path d="M62.67,89s0,0,0,0a0,0,0,0,1,0,0,.13.13,0,0,1-.05.11l-.14.12-.06,0-.05,0s0,0,0,0a.09.09,0,0,1,0-.06l.09-.07,0-.11-.08,0-.05,0a.43.43,0,0,0,0-.05s0,0,0,0l.12,0v-.12a.32.32,0,0,0-.13,0,2.6,2.6,0,0,0,0,.4,3.22,3.22,0,0,0,0,.43.11.11,0,0,1,0,.05.06.06,0,0,1,0,0l-.07,0h0a.41.41,0,0,1,0-.09l0-.17a1.28,1.28,0,0,1,0-.21,2.68,2.68,0,0,1,.06-.61.07.07,0,0,1,.06,0h0s0,0,0,0l.16,0h0c.06,0,.09.06.09.19A1.52,1.52,0,0,1,62.67,89Zm.63-.12h0c0,.13,0,.24,0,.36a2.77,2.77,0,0,1,0,.42c0,.09-.09.13-.14.14h-.1a.1.1,0,0,0,0-.07v0s0,0,.08-.06.05-.15.05-.4,0-.38,0-.53l-.1,0-.07,0s0,0,0,.08h.15a0,0,0,0,1,0,0,.06.06,0,0,1,0,0,.24.24,0,0,1-.18.07.14.14,0,0,0,0,.09L63,89h.09a0,0,0,0,1,0,0,.06.06,0,0,1,0,.06.6.6,0,0,1-.18,0h0s-.05,0-.07,0a2,2,0,0,1,0-.25q0-.3.09-.3s0,0,0,0a.42.42,0,0,1,.19,0h.07a.05.05,0,0,1,.05,0A.65.65,0,0,1,63.3,88.83Z" style="fill: #f2652d"/>
            <path d="M64.48,89.7h-.66a.52.52,0,0,1,.24-.35l0,0a.84.84,0,0,0,.19-.19.24.24,0,0,0,.06-.15.13.13,0,0,0,0-.12.17.17,0,0,0-.13,0,.2.2,0,0,0-.14,0A.19.19,0,0,0,64,89l-.12,0a.28.28,0,0,1,.32-.28.31.31,0,0,1,.22.07.27.27,0,0,1,.09.2.34.34,0,0,1,0,.17.86.86,0,0,1-.19.2l-.1.09a.51.51,0,0,0-.15.15h.49Z" style="fill: #f2652d"/>
            <path d="M65.25,88.94h-.12A.16.16,0,0,0,65,88.8a.18.18,0,0,0-.18.11.66.66,0,0,0,0,.25v0h0a.22.22,0,0,1,.1-.09.25.25,0,0,1,.14,0,.29.29,0,0,1,.21.09.31.31,0,0,1,.08.23.36.36,0,0,1-.08.25.32.32,0,0,1-.23.09.33.33,0,0,1-.24-.1.54.54,0,0,1-.1-.38.72.72,0,0,1,.09-.4A.29.29,0,0,1,65,88.7a.32.32,0,0,1,.2.06A.26.26,0,0,1,65.25,88.94Zm-.3.22a.17.17,0,0,0-.14.06.2.2,0,0,0-.06.15.24.24,0,0,0,.06.17.16.16,0,0,0,.14.07.2.2,0,0,0,.14-.06.31.31,0,0,0,0-.17.25.25,0,0,0,0-.16A.2.2,0,0,0,65,89.16Z" style="fill: #f2652d"/>
            <path d="M66.87,89.67h0s0,.07-.12.07l-.74,0-.06,0a.07.07,0,0,1-.06-.06,3.43,3.43,0,0,1,0-.56,2.06,2.06,0,0,1,0-.39c0-.05,0-.09,0-.15s0,0,.08,0a.1.1,0,0,1,.07,0,.24.24,0,0,1,0,.08.19.19,0,0,1,0,.08.7.7,0,0,0-.05.34.76.76,0,0,0,0,.15l.15,0,0,0s0,0,0,0a.35.35,0,0,1-.09-.25l0-.07a.16.16,0,0,0,0-.06,0,0,0,0,1,0,0h0s0,0,0,0l.17,0a.1.1,0,0,1,.1,0s0,0,0,.08,0,.06,0,.09l0,.08a.15.15,0,0,0,0,.06l0,0-.09,0h-.06s0,0,0,0h0s0,0,0,0a.11.11,0,0,1,0,.1c0,.1,0,.15,0,.16a.24.24,0,0,1-.13.07s0,0,0,0l0,0-.06-.1a1,1,0,0,0,0,.16s0,0,0,0h0l.66-.05C66.82,89.58,66.86,89.61,66.87,89.67Zm-.68-.34,0,0-.06,0,0,.06A.29.29,0,0,0,66.19,89.33Zm.5-.7s0,.06-.08.06h-.06s0,0,0,0h0a1.07,1.07,0,0,1-.32.08s-.08,0-.08-.07v0l0,0,.15,0,.11,0h0s0,0,.06,0,0,0,0,0l0,0a.06.06,0,0,0,.05,0S66.69,88.59,66.69,88.63Zm-.25.32-.11,0,0,.07A.22.22,0,0,0,66.44,89Zm.39.33a.19.19,0,0,1-.07.11l-.06,0s0,.06,0,.06h-.07l-.06.05h0s0,0,0-.09a.28.28,0,0,1,0-.15c0-.09,0-.13.09-.13a.07.07,0,0,1,.06,0h.06a.29.29,0,0,1,.11,0C66.81,89.15,66.84,89.2,66.83,89.28Zm-.21,0h0l0,0a.06.06,0,0,0,0,0l0,0A.39.39,0,0,1,66.62,89.27Z" style="fill: #f2652d"/>
            <path d="M68.12,89.7v-1h.13l.43.65a.93.93,0,0,1,.12.19h0a1.94,1.94,0,0,1,0-.24v-.6h.12v1h-.13l-.5-.75a.16.16,0,0,1,0-.07h0v.82Z" style="fill: #f2652d"/>
            <path d="M69.55,89.71a.42.42,0,0,1-.34-.14.52.52,0,0,1-.13-.37.51.51,0,0,1,.13-.37.43.43,0,0,1,.34-.15.44.44,0,0,1,.35.15.51.51,0,0,1,.13.37.52.52,0,0,1-.13.37A.45.45,0,0,1,69.55,89.71Zm0-.91a.3.3,0,0,0-.25.1.49.49,0,0,0-.09.3.44.44,0,0,0,.09.29.3.3,0,0,0,.24.11.31.31,0,0,0,.25-.11.51.51,0,0,0,0-.58A.28.28,0,0,0,69.56,88.8Z" style="fill: #f2652d"/>
            <path d="M70.22,89.7v-.14h.14v.14Z" style="fill: #f2652d"/>
            <path d="M70.88,89.7v-.78a.82.82,0,0,1-.25.14V89a.61.61,0,0,0,.29-.25H71v1Z" style="fill: #f2652d"/>
            <path d="M71.64,89.71q-.33,0-.33-.51c0-.34.11-.5.33-.5s.32.17.32.51S71.85,89.71,71.64,89.71Zm0-.91a.15.15,0,0,0-.15.1.71.71,0,0,0,0,.3.75.75,0,0,0,0,.32.18.18,0,0,0,.15.09.15.15,0,0,0,.14-.09.86.86,0,0,0,0-.63A.15.15,0,0,0,71.64,88.8Z" style="fill: #f2652d"/>
            <path d="M72.48,89.7v-.24h-.43v-.11l.45-.65h.1v.65h.13v.11H72.6v.24Zm0-.35V88.9h0l-.31.45Z" style="fill: #f2652d"/>
            <path d="M73.23,89.4v-.13h.37v.13Z" style="fill: #f2652d"/>
            <path d="M74.43,89.7v-.78a.89.89,0,0,1-.24.14V89a.66.66,0,0,0,.29-.25h.07v1Z" style="fill: #f2652d"/>
            <path d="M75.51,89.7h-.66a.5.5,0,0,1,.23-.35l0,0a1.12,1.12,0,0,0,.19-.19.24.24,0,0,0,.06-.15.17.17,0,0,0,0-.12.17.17,0,0,0-.14,0,.22.22,0,0,0-.14,0A.23.23,0,0,0,75,89l-.13,0a.29.29,0,0,1,.33-.28.32.32,0,0,1,.22.07.27.27,0,0,1,.09.2.27.27,0,0,1-.06.17.69.69,0,0,1-.19.2l-.1.09a.6.6,0,0,0-.14.15h.49Z" style="fill: #f2652d"/>
            <path d="M75.83,89.16h0a.19.19,0,0,1-.15-.2.22.22,0,0,1,.08-.18.27.27,0,0,1,.2-.07.28.28,0,0,1,.21.07.22.22,0,0,1,.08.19.19.19,0,0,1-.14.19h0a.23.23,0,0,1,.18.25.29.29,0,0,1-.09.22.36.36,0,0,1-.23.08.36.36,0,0,1-.24-.08.29.29,0,0,1-.09-.22.28.28,0,0,1,0-.16A.19.19,0,0,1,75.83,89.16Zm.13,0a.2.2,0,0,0-.14.06.19.19,0,0,0,0,.28.2.2,0,0,0,.15.06.22.22,0,0,0,.14,0,.2.2,0,0,0,.06-.15.18.18,0,0,0-.06-.14A.2.2,0,0,0,76,89.21Zm0-.41a.15.15,0,0,0-.17.15.13.13,0,0,0,0,.11.17.17,0,0,0,.12,0,.21.21,0,0,0,.11,0,.16.16,0,0,0,0-.11.17.17,0,0,0,0-.12A.15.15,0,0,0,76,88.8Z" style="fill: #f2652d"/>
          </g>
          <polygon points="79.45 78.74 80.43 77.5 58.88 77.5 57.9 78.74 79.45 78.74" style="fill: #f9dba5"/>
          <polygon points="79.45 78.74 79.45 91.99 80.4 90.64 80.4 77.38 79.45 78.74" style="fill: #f6a733"/>
          <polygon points="76.27 95.62 78.6 93.09 78.6 91.99 76.25 91.99 76.27 95.62" style="fill: #f2652d"/>
          <polygon points="72.77 94.41 73.92 93.7 73.89 92.36 72.77 92.98 72.77 94.41" style="fill: #f2652d"/>
          <polygon points="63.17 95.58 64.61 94.41 63.17 94.41 63.17 95.58" style="fill: #f2652d"/>
        </g>
      </g>
    </g>
  </g>
</svg>
