<svg xmlns="http://www.w3.org/2000/svg" width="154.25" height="88.49" viewBox="0 0 154.25 88.49">
  <g id="Layer_2" data-name="Layer 2">
    <g id="Iron">
      <g>
        <g>
          <path d="M153,22.33c-.78,2.73-1.23,5-3.54,5h-7.56c-1.66,0-2.39-1.13-2.39-2.7l0-5h-6.11v1.85h-2.13V11.14h2.13l0,6.44,6.11,0,0-8.72H129.11V6.83h10.35V3h2.13V6.83h10.27V8.89H141.59l0,8.72,6.3,0V11.14H150V21.49h-2.14l0-1.86h-6.33v4.72c0,.65.34,1,.82,1h6.52c.68,0,1.75-.48,1.89-3.68Z" style="fill: #fff"/>
          <path d="M129.75,59.15v-24l9.68,0,0,10.49h-7.54V59.15Zm2.14-17.78v2.25h5.43V41.37Zm0-4.16v2.11h5.4V37.21Zm16,19.35a1,1,0,0,0,1-1v-9.9H141.4V35.16l9.7,0,0,21.29a2.15,2.15,0,0,1-1.24,1.88,13,13,0,0,1-3.83.31l-.87-2.13Zm-4.42-19.35v2H149l0-2.06Zm0,4.08v2.33H149V41.29Z" style="fill: #fff"/>
          <path d="M152.9,88.49H133c-1.49,0-2.17-1.24-2.17-2.62V68l-1.77,0V65.93l23.71,0V68H133l0,17.27c0,.78.28,1.09,1.15,1.09H152.9Zm-10.8-3.91h-8V76.79l8,0Zm-5.85-5.74v3.68l3.71,0,0-3.74ZM149.1,75.3l-12.65,0,0-6.27H149.1Zm-10.52-1.92H147V70.94h-8.38Zm13,3.41v7.7h-8.05v-7.7Zm-2.11,2-3.8,0v3.6l3.77,0Z" style="fill: #fff"/>
        </g>
        <g>
          <path d="M154.25,21c-.78,2.73-1.23,5-3.54,5h-7.56c-1.66,0-2.39-1.13-2.39-2.7l0-5h-6.11v1.85h-2.13V9.84h2.13l0,6.44,6.11,0,0-8.72H130.41v-2h10.35V1.68h2.13V5.54h10.27V7.59H142.89l0,8.72,6.3,0V9.84h2.14V20.19h-2.14l0-1.86h-6.33v4.72c0,.65.34,1,.82,1h6.52c.68,0,1.75-.48,1.89-3.68Z" style="fill: #003869"/>
          <path d="M131.05,57.85v-24l9.68,0,0,10.49h-7.54V57.85Zm2.14-17.78v2.25h5.43V40.07Zm0-4.16V38h5.4V35.91Zm16,19.35a1,1,0,0,0,1-1v-9.9H142.7V33.86l9.7,0,0,21.29A2.15,2.15,0,0,1,151.19,57a13,13,0,0,1-3.83.31l-.87-2.13Zm-4.42-19.35v2h5.43l0-2.06Zm0,4.08v2.33h5.43V40Z" style="fill: #003869"/>
          <path d="M154.2,87.19H134.29c-1.49,0-2.17-1.24-2.17-2.62V66.74l-1.77,0V64.63l23.71,0v2.08h-19.8l0,17.27c0,.78.28,1.09,1.15,1.09H154.2Zm-10.8-3.91h-8V75.49l8,0Zm-5.85-5.74v3.68l3.71,0,0-3.74ZM150.4,74l-12.65,0,0-6.27H150.4Zm-10.52-1.92h8.38V69.64h-8.38Zm13,3.41v7.7h-8v-7.7Zm-2.11,2-3.8,0v3.6l3.77,0Z" style="fill: #003869"/>
        </g>
        <g style="isolation: isolate">
          <polygon points="68.41 84.1 0 59.2 58.61 33.5 127.03 58.41 68.41 84.1" style="fill: #6baadb"/>
          <polygon points="68.44 86.48 68.41 84.1 127.03 58.41 127.06 60.79 68.44 86.48" style="fill: #3d77a6"/>
          <polygon points="0.03 61.58 0 59.2 68.41 84.1 68.44 86.48 0.03 61.58" style="fill: #254966"/>
        </g>
        <g>
          <path d="M99.78,44.38v-1c0-.06,0-.42,0-.47H79.84v8.28s0,0,.11-.05v3.46h2.58v3.9h2.18v-3.9h10v3.93h2.17V54.58h2.83V46l.12,0C99.76,45.52,99.78,45,99.78,44.38Z" style="fill: #d0d2d3"/>
          <polygon points="97.94 56.36 99.66 54.58 99.66 46.21 98.06 47.87 97.94 47.82 97.94 56.36" style="fill: #5dc2a5"/>
          <rect x="80.81" y="56.31" width="2.18" height="3.95" style="fill: #f5c064"/>
          <rect x="92.93" y="56.34" width="2.18" height="3.95" style="fill: #f5c064"/>
          <rect x="78.22" y="44.79" width="19.71" height="11.57" style="fill: #5dc2a5"/>
          <polyline points="78.76 54.08 97.76 54.08 99.78 52.27" style="fill: none;stroke: #f2652d;stroke-linecap: round;stroke-linejoin: round;stroke-width: 0.27285787739123px"/>
          <polyline points="78.8 51.68 97.8 51.68 99.66 49.97" style="fill: none;stroke: #f2652d;stroke-linecap: round;stroke-linejoin: round;stroke-width: 0.27285787739123px"/>
          <line x1="78.83" y1="49.4" x2="97.83" y2="49.4" style="fill: none;stroke: #f2652d;stroke-linecap: round;stroke-linejoin: round;stroke-width: 0.27285787739123px"/>
          <line x1="97.37" y1="56.09" x2="97.37" y2="47.38" style="fill: none;stroke: #f2652d;stroke-linecap: round;stroke-linejoin: round;stroke-width: 0.27285787739123px"/>
          <line x1="94.74" y1="56.11" x2="94.74" y2="47.4" style="fill: none;stroke: #f2652d;stroke-linecap: round;stroke-linejoin: round;stroke-width: 0.27285787739123px"/>
          <line x1="92.12" y1="56.15" x2="92.12" y2="47.43" style="fill: none;stroke: #f2652d;stroke-linecap: round;stroke-linejoin: round;stroke-width: 0.27285787739123px"/>
          <line x1="89.49" y1="56.17" x2="89.49" y2="47.45" style="fill: none;stroke: #f2652d;stroke-linecap: round;stroke-linejoin: round;stroke-width: 0.27285787739123px"/>
          <line x1="86.71" y1="56.2" x2="86.71" y2="47.49" style="fill: none;stroke: #f2652d;stroke-linecap: round;stroke-linejoin: round;stroke-width: 0.27285787739123px"/>
          <line x1="84.08" y1="56.22" x2="84.08" y2="47.5" style="fill: none;stroke: #f2652d;stroke-linecap: round;stroke-linejoin: round;stroke-width: 0.27285787739123px"/>
          <line x1="81.4" y1="56.25" x2="81.4" y2="47.54" style="fill: none;stroke: #f2652d;stroke-linecap: round;stroke-linejoin: round;stroke-width: 0.27285787739123px"/>
          <path d="M80.32,52.79c.33,0,.37-.34.73-.46s.92.3,1.33.19c.14,0,.17-.14.26-.27a5,5,0,0,1,.89-1.06c.57-.5,1-1,1.75-.64s1.11-.51,1.56-.85c.28-.21.09-.07.32,0s.48.08.73.13c.61.13.9.63,1.55.25.31-.18.59-.44,1-.36a5.94,5.94,0,0,1,.92.44c.34.14,1,.56,1.36.39s.58-.88.9-1.19a1.15,1.15,0,0,1,.88-.3c.19,0,.67.12.83,0s.1-.51.23-.7a1.88,1.88,0,0,1,.72-.52,2.32,2.32,0,0,1,1.81,0c0-.57,0-1.14,0-1.71v-1a1.84,1.84,0,0,0,0-.47H78.12V53a6,6,0,0,1,.95-.24,3,3,0,0,1,1.11.07Z" style="fill: #f5c064"/>
          <g>
            <path d="M82.23,54.15a2.17,2.17,0,0,0-.59-.54A6,6,0,0,0,80.4,53a6.77,6.77,0,0,0-1.14-.31v-7H97c0,.39.07,1.54.08,2h0l-.33,0-.18,0-.09.17v.16a1.18,1.18,0,0,1-.06.55c-.07.09-.18.11-.36.13a.88.88,0,0,0-.43.12.66.66,0,0,0-.2.21.48.48,0,0,1-.09.11.44.44,0,0,1-.15.05.77.77,0,0,0-.33.16.82.82,0,0,0-.17.51,1,1,0,0,0-.35,0,.72.72,0,0,0-.42.11.8.8,0,0,0-.25.55.72.72,0,0,1-.14.38s-.09,0-.13.06a1.36,1.36,0,0,0-.21.1c-.15.11-.2.15-.25.15a.53.53,0,0,1-.2-.08l-.12-.1a.75.75,0,0,0-.16-.13.66.66,0,0,0-.3-.1.42.42,0,0,1-.16,0s-.06-.07-.09-.13a.43.43,0,0,0-.25-.26.62.62,0,0,0-.23,0,1.45,1.45,0,0,0-.66.23,1.11,1.11,0,0,1-.54.21.54.54,0,0,1-.21,0,.16.16,0,0,1-.08-.06.39.39,0,0,0-.31-.14.57.57,0,0,0-.35.16.61.61,0,0,1-.13.09.42.42,0,0,1-.13-.07l-.13-.08a.92.92,0,0,0-.36-.07,1.53,1.53,0,0,0-.3,0l-.15,0h-.19a3.85,3.85,0,0,1-.5-.05l-.46-.08a.69.69,0,0,0-.21.05,1,1,0,0,0-.22.14l-.15.1a.55.55,0,0,0-.22-.07h0l-.08,0a.65.65,0,0,0-.3.52c0,.19-.07.3-.16.33h0a.29.29,0,0,1-.1,0,.59.59,0,0,0-.2,0,1.11,1.11,0,0,0-.48.25l-.11.09a4.27,4.27,0,0,0-.93.92l-.19.26A4.36,4.36,0,0,1,82.23,54.15Z" style="fill: #f6a733"/>
            <path d="M96.83,45.84c0,.41.06,1.2.07,1.63l-.19,0h-.1l-.35,0v.36a1,1,0,0,0,0,.17,1.3,1.3,0,0,1,0,.45s-.1,0-.25.06a1.22,1.22,0,0,0-.49.14.85.85,0,0,0-.25.26l0,.07-.1,0a.73.73,0,0,0-.4.19,1,1,0,0,0-.2.43h-.21a.79.79,0,0,0-.51.15,1,1,0,0,0-.32.65.77.77,0,0,1-.07.27.23.23,0,0,1-.1,0,1.08,1.08,0,0,0-.24.12l0,0-.1.08-.14-.06a.45.45,0,0,1-.07-.07,1.06,1.06,0,0,0-.19-.16.89.89,0,0,0-.37-.11h-.08l0-.08a.63.63,0,0,0-.34-.35,1.26,1.26,0,0,0-.28,0,1.57,1.57,0,0,0-.74.26,1.07,1.07,0,0,1-.46.18.27.27,0,0,1-.18-.07.59.59,0,0,0-.42-.18.71.71,0,0,0-.46.2l0,0,0,0a1,1,0,0,0-.16-.1,1.25,1.25,0,0,0-.42-.08l-.33,0-.14,0h-.17a2.7,2.7,0,0,1-.48,0l-.27,0H87a.43.43,0,0,0-.15,0,.78.78,0,0,0-.27.06,1.17,1.17,0,0,0-.26.17l0,0a.65.65,0,0,0-.22,0H86l-.06,0a.79.79,0,0,0-.38.64s0,.14,0,.19h0a.79.79,0,0,0-.25,0l-.13,0a1.24,1.24,0,0,0-.45.27l-.1.08a4.12,4.12,0,0,0-1,1l-.2.26a4.33,4.33,0,0,1-1.09,1.16,2.69,2.69,0,0,0-.55-.46,6,6,0,0,0-1.27-.63,6.63,6.63,0,0,0-1-.29V45.84H96.83m.29-.32h-18v7.31a5.39,5.39,0,0,1,1.23.32,5.46,5.46,0,0,1,1.21.6,1.93,1.93,0,0,1,.63.61,5,5,0,0,0,1.63-1.64,3.76,3.76,0,0,1,.89-.89,1.86,1.86,0,0,1,.45-.3h0c.1,0,.19.07.3.07h.06c.35-.1.18-.72.48-.86h0c.08,0,.15.07.23.07h0c.13,0,.27-.19.4-.24l.15,0,.17,0a5.51,5.51,0,0,0,.79.1h.21a2.47,2.47,0,0,1,.43,0,.63.63,0,0,1,.29.06c.1,0,.21.16.33.16h0c.17,0,.27-.25.46-.25h0c.17,0,.18.12.32.18a.61.61,0,0,0,.28.07c.44,0,.79-.44,1.2-.44l.18,0c.15.05.16.3.32.38s.3,0,.45.13a3.11,3.11,0,0,0,.28.23.53.53,0,0,0,.28.11c.12,0,.2-.08.35-.18s.29-.11.36-.18c.24-.25.11-.71.37-.91a.51.51,0,0,1,.32-.09.9.9,0,0,1,.5.14c0-.18,0-.52.14-.64s.32-.1.46-.2.14-.23.28-.31.63,0,.83-.29.08-.59.08-.8c.13,0,.29,0,.44,0l.19,0c0-.23-.06-2.26-.09-2.26Z" style="fill: #f8d497"/>
          </g>
          <g>
            <path d="M80.75,48a.11.11,0,0,1,.07,0l.06,0a.43.43,0,0,0,0,0s0,0,0,0l.1,0h0l.06,0s0,0,0,0,0,0,0,0l-.08,0h0s0,0,0,0l0,0a.14.14,0,0,0,0,.06.72.72,0,0,1-.07.11H81l.06,0a0,0,0,0,1,0,0s0,0,0,0l-.15,0h0a.05.05,0,0,1,0,0v.07H81l.1,0,0,0s0,0,0,0,0,0,0,0l-.22,0c0,.12,0,.24,0,.33s0,.07,0,.09,0,0,0,0l0,0a.41.41,0,0,1,0-.07.08.08,0,0,1,0,0,.59.59,0,0,0,0-.13v-.17l-.2,0h-.14s0,0,0,0h0l.35,0s0-.07,0-.09v0h-.2l0,0h0l.13,0h0a1.2,1.2,0,0,1-.06-.18v0h0l.07.07a.27.27,0,0,1,0,.11s0,0,0,0h.11l0-.13s0-.06,0-.08v0h0l-.25,0-.07,0,0,0h0l.23,0h0s0,0,0-.07a.22.22,0,0,1,0-.1Zm-.11.78,0,0,0,0v0l0,.05a.13.13,0,0,1-.07.06l-.06,0h0s0,0,0,0l.05,0,.06-.09,0-.06v0Zm.29,0h0l.07,0,0,0s0,0,0,0a0,0,0,0,1,0,0,0,0,0,0,1,0,0h0l0-.06,0-.07s0,0,0,0Zm.56-.73.07,0s0,0,0,0,0,0,0,0a.73.73,0,0,0-.18.09l-.08,0a0,0,0,0,1,0,0,.25.25,0,0,0,0,.1v.1l.29-.08h.13s0,0,0,0,0,0,0,0l-.19,0s0,0,0,0v0a.28.28,0,0,0,0,.09V49a.9.9,0,0,1,0,.18c0,.05,0,.08,0,.08s0,0,0,0,0-.1,0-.16v-.44a.34.34,0,0,0,0-.11h0l-.09,0h-.06c0,.05,0,.09,0,.13l-.06.21a.85.85,0,0,1-.09.14l-.06,0h0a.76.76,0,0,0,.09-.18.78.78,0,0,0,0-.22,1.79,1.79,0,0,0,0-.23.29.29,0,0,0,0-.12.09.09,0,0,1,0,0h0l.07,0h0l.1-.08.1-.11Z" style="fill: #f2652d"/>
            <path d="M80.85,50.1l.06,0,0,0,0,0-.13,0h0v.29l.13-.06.06,0s0,0,0,0v0l-.21.13-.18.12s0,0,0,0a.12.12,0,0,1-.08,0l0,0h0l.06,0,.18-.07v-.3h-.18l0,0s0,0,0,0l.16,0V50a.53.53,0,0,0,0-.12.08.08,0,0,0,0-.05v0s0,0,0,0a.16.16,0,0,1,.09,0,.05.05,0,0,1,0,0v0a.49.49,0,0,0,0,.14v.07l.07,0Zm.64-.22.07,0,0,0s0,0,0,0l-.18,0h0s0,0,0,0v.19l.17,0,.1,0,.06,0s0,0,0,0,0,0,0,0l-.33,0v.21a2.44,2.44,0,0,1,0,.27.51.51,0,0,1,0,.16s0,0-.07,0l0,0a.55.55,0,0,0-.13-.14l0,0h0l.12,0s0,0,0,0a3.92,3.92,0,0,0,0-.43V50.3l-.23,0h0a.11.11,0,0,1-.07,0l0,0h0l.36,0c0-.07,0-.13,0-.18a.15.15,0,0,1,0-.06H81l0,0h.06l.25,0,.16,0Z" style="fill: #f2652d"/>
            <path d="M80.89,52,81,52s0,0,0,0,0,0,0,0l-.15,0v.13h0l.08,0,.07,0s0,0,0,0a.11.11,0,0,1,0,.05h0l-.06-.06a.28.28,0,0,0-.06-.08v.52a.25.25,0,0,1,0,.07s0,0,0,0l0,0a.23.23,0,0,1,0-.09.56.56,0,0,0,0-.07.71.71,0,0,0,0-.19,1.34,1.34,0,0,0,0-.2,2.2,2.2,0,0,1-.12.19l-.14.11,0,0s0,0,0,0a.85.85,0,0,0,.17-.2,1.58,1.58,0,0,0,.14-.29l-.18,0h-.07s0,0,0,0h0l.24,0h0v-.06a1.29,1.29,0,0,0,0-.23.19.19,0,0,0,0-.08v0s0,0,0,0l.07,0s0,0,0,0a0,0,0,0,1,0,0s0,.08,0,.15a.76.76,0,0,0,0,.15l.07,0Zm.71,0h.06s0,0,0,0,0,0,0,0h-.23v.64a.2.2,0,0,1,0,.11s0,.05,0,.05,0,0,0,0l-.13-.13,0,0h0l.14,0s0,0,0,0a.88.88,0,0,0,0-.14c0-.14,0-.29,0-.46l-.24,0h0l-.07,0s0,0,0,0h0l.36-.05c0-.1,0-.18,0-.24a.64.64,0,0,0,0-.09v0a0,0,0,0,1,0,0,.16.16,0,0,1,.09,0s0,0,0,.05,0,0,0,0a.86.86,0,0,0,0,.13V52l.08,0Zm-.55.27h0l.09,0a.22.22,0,0,1,.07.06.06.06,0,0,1,0,0,.07.07,0,0,1,0,0s0,0,0,0h0s0,0-.06-.07a.25.25,0,0,0-.07-.09v0Z" style="fill: #f2652d"/>
          </g>
          <g>
            <path d="M83.77,47.17l0,0a.11.11,0,0,1,.06.06l0,0,0,0-.11.14h0s0,.05,0,.07V48a.45.45,0,0,1,0,.08s0,0,0,0,0,0,0,0a.23.23,0,0,1,0-.09l0-.05a1,1,0,0,0,0-.31.28.28,0,0,0,0-.09l0,0a.61.61,0,0,1-.16.12l-.08,0h0a0,0,0,0,1,0,0l.17-.16a1.41,1.41,0,0,0,.14-.18.35.35,0,0,0,0-.13Zm0-.3h0s.06,0,.06.07l0,0,0,0a.73.73,0,0,1-.14.16l-.12.09-.07,0h0l.12-.12a1.3,1.3,0,0,0,.1-.15.22.22,0,0,0,0-.1A0,0,0,0,1,83.75,46.87Zm.44-.07,0,0s0,0,0,.05l0,0-.19.2,0,0h.22a.38.38,0,0,0,.09-.13,0,0,0,0,1,0,0l0,0a.09.09,0,0,1,0,.05s0,0,0,0l-.17.12-.2.16h0l.31-.06h0a.25.25,0,0,0-.05-.07l0,0h0l.08.05a.15.15,0,0,1,.07.07.14.14,0,0,1,0,.07.08.08,0,0,1,0,0l0,0,0,0-.06-.09h0l-.25.06h0s.06,0,.06.06l0,0,0,0,0,0,.2,0h0l.07,0s0,0,0,0l0,0-.08.11-.09.11.11.06a1.88,1.88,0,0,0,.34.13s0,0,0,0h0l-.23,0-.08,0-.19-.17h0A.53.53,0,0,1,84,48a.32.32,0,0,1-.14,0h0a.85.85,0,0,0,.22-.09l.13-.09,0,0L84,47.72a.58.58,0,0,1-.12.1l-.07,0h0v0a.68.68,0,0,0,.12-.12l0,0-.08,0,0,0s0,0,0,0l.1,0a.36.36,0,0,0,.07-.1.19.19,0,0,0,0-.1h0a.19.19,0,0,0-.1,0h0a.05.05,0,0,1,0,0,.09.09,0,0,1,0-.06s0,0,0,0a.5.5,0,0,0,.13-.09l.13-.12-.09,0-.08,0,0,0s0,0,0,0l0,0s0,0,0,0,.08-.06.14-.14a.51.51,0,0,0,.08-.17S84.18,46.8,84.19,46.8Zm-.12.89h0l.14.1a.64.64,0,0,0,.1-.13.28.28,0,0,0,0-.06v0l-.15,0h-.08Z" style="fill: #f2652d"/>
            <path d="M83.72,48.71h.06l.32,0,.19,0h0l.09,0,0,0,0,0a.35.35,0,0,0,0,.06l-.1.3a0,0,0,0,1,0,0h0s0,0,0,0h-.16v.12h.08a1.3,1.3,0,0,0,.27,0h0l.07,0s0,0,0,0,0,0-.07,0H84.1l.06,0a2.05,2.05,0,0,0,.28.22,1.69,1.69,0,0,0,.29.13h0s0,0,0,0l-.2,0-.07,0a2,2,0,0,1-.24-.25,1.14,1.14,0,0,0-.11-.11l0,0v.3a.49.49,0,0,1,0,.11.27.27,0,0,1,0,.12s0,0,0,0a.07.07,0,0,1,0,0,.13.13,0,0,1,0-.08.26.26,0,0,1,0-.07.56.56,0,0,0,0-.07,1.63,1.63,0,0,0,0-.24l-.1.11-.18.14-.16.07-.1,0h0l.18-.11.22-.19.11-.12s0,0,0,0l-.26,0h0l-.08,0,0,0,0,0h.25l.19,0V49.1h-.16v0h0s0,0,0,0a.08.08,0,0,1,0-.05l0-.13c0-.06,0-.11,0-.13a.3.3,0,0,0,0-.08h0S83.7,48.71,83.72,48.71Zm.12.19.18,0a.09.09,0,0,1,0,0,.14.14,0,0,0,0-.06v0l-.13,0h0v.06A.22.22,0,0,1,83.84,48.9Zm0,.16L84,49v-.11h-.17C83.85,49,83.86,49,83.86,49.06Zm.2-.33h0s.05,0,.05.05a.06.06,0,0,1,0,0v0h.19a.57.57,0,0,0,0-.12s0,0,0,0h-.21Zm0,.19h0s0,.06,0,.11h.18s0-.07,0-.14h-.12Z" style="fill: #f2652d"/>
            <path d="M84,50.43a.12.12,0,0,1,.07,0l.05,0,0,0-.06.07-.15.18h0l.28-.06.12,0,.08,0s0,0,0,.06a.18.18,0,0,1,0,0,3.27,3.27,0,0,0,0,.33q0,.08,0,.33a.19.19,0,0,1,0,.12s0,0-.06,0l0,0,0-.11h-.09l-.22,0h-.12v0s0,0,0,0,0,0,0,0a.16.16,0,0,1,0-.09s0,0,0,0,0-.09,0-.16a3.13,3.13,0,0,0,0-.35.49.49,0,0,0,0-.15,0,0,0,0,1,0,0s0,0,0,0a.08.08,0,0,1,.06,0h0a2.19,2.19,0,0,0,.11-.2.63.63,0,0,0,0-.14Zm-.2,1a1.36,1.36,0,0,0,.29,0h.11l.07,0h0s0,0,0,0,0-.1,0-.22l-.05,0h-.09l-.17,0h-.17C83.81,51.37,83.8,51.44,83.8,51.48Zm0-.24h0l.3,0h.11l0,0V51h-.05l-.09,0-.17,0h-.17Zm0-.23h0l.31,0h.15a1,1,0,0,1,0-.15s0,0,0,0H84.2a1.35,1.35,0,0,0-.29,0l-.08,0h0Z" style="fill: #f2652d"/>
          </g>
          <g>
            <path d="M86,47.32h0l.1.05a.08.08,0,0,1,0,.07,0,0,0,0,1,0,0l0,0a.54.54,0,0,1-.11-.13h0A0,0,0,0,1,86,47.32Zm.32.19a0,0,0,0,1,0,0,.2.2,0,0,1,0,.08,2.35,2.35,0,0,1-.11.24l-.06.13s0,.06,0,.06,0,0,0-.05a.33.33,0,0,1,0-.1.05.05,0,0,1,0,0,.34.34,0,0,0,.09-.08,2.12,2.12,0,0,0,.16-.23ZM86.16,47h.06l.1,0a.1.1,0,0,1,0,.08,0,0,0,0,1,0,.05l0,0a.54.54,0,0,1-.11-.13s0,0,0,0Zm.53-.1a.11.11,0,0,1,.07,0s0,0,0,0v0a.3.3,0,0,0-.07.08,1.43,1.43,0,0,1-.14.2h0l.25,0,.1,0,.06,0s.06,0,.06.06a.08.08,0,0,1,0,0,1.17,1.17,0,0,0,0,.25,1.8,1.8,0,0,0,0,.27A.19.19,0,0,1,87,48s0,.05-.06.05l0,0a1,1,0,0,0,0-.1H86.8l-.18,0h-.1v0s0,0,0,0l0,0a.19.19,0,0,1,0-.08v0a1.23,1.23,0,0,0,0-.13v-.28a.39.39,0,0,0,0-.13s0,0,0,0a0,0,0,0,1,0,0l.06,0h0a2.08,2.08,0,0,0,.1-.24.34.34,0,0,0,0-.15Zm-.17,1a.85.85,0,0,0,.23,0h.09l.07,0h0v0s0-.1,0-.22v0l-.05,0h-.07l-.13,0h-.15C86.53,47.76,86.52,47.84,86.52,47.9Zm0-.29h0l.24,0h.1l0,0c0-.1,0-.17,0-.21s0,0,0,0h0a.79.79,0,0,0-.23,0h-.08Z" style="fill: #f2652d"/>
            <path d="M86.22,48.76l.09,0a.05.05,0,0,1,0,0s0,0,0,0a.14.14,0,0,0,0,.07l-.08.3.19,0v0s0-.06,0-.08v0s0,0,0,0l.06,0s.05,0,.05,0a0,0,0,0,1,0,0v0h0s0,0,0,0l0,0h0a1.72,1.72,0,0,1-.09.25.41.41,0,0,1,0,.09l.13.1a.14.14,0,0,1,0,.1s0,.06,0,.06,0,0-.07-.06l-.13-.14s0,0,0,0a.53.53,0,0,1-.22.12l-.07,0h0l0,0a.76.76,0,0,0,.2-.13.46.46,0,0,0,.07-.07.47.47,0,0,0-.12-.09.07.07,0,0,1,0-.06.08.08,0,0,1,0,0s0,0,0-.08l-.12,0,0,0a.09.09,0,0,1-.06,0s0,0,0-.06a0,0,0,0,1,0,0h.17l.11,0v0a2.08,2.08,0,0,0,0-.3s0-.08,0-.1a.08.08,0,0,1,0,0S86.21,48.76,86.22,48.76Zm.19.51-.2,0a.14.14,0,0,0,0,.06l0,.06s0,0,0,0l.1.06h0a1.71,1.71,0,0,0,.07-.18A.29.29,0,0,0,86.41,49.27Zm.21-.1h0l0,0,.12,0,.14,0,0,0,.07,0,0,.06v0l0,.07a1.92,1.92,0,0,0,0,.24h0a.05.05,0,0,1,0,0H87l-.14,0h-.09v0s0,0,0,0,0,0,0,0,0,0,0,0v-.15c0-.07,0-.12,0-.15a.19.19,0,0,0,0-.09s0,0,0,0Zm.12.39.17,0h0s0-.1,0-.17a.82.82,0,0,0,0-.14s0,0,0,0h-.11l-.1,0a.11.11,0,0,0,0,0C86.74,49.41,86.74,49.5,86.74,49.56Z" style="fill: #f2652d"/>
          </g>
          <g>
            <path d="M89.42,47a.1.1,0,0,1,.06,0s0,0,0,0,0,0,0,0l-.21,0h-.05v.12l.12,0,.11,0,.09,0s.06,0,.06.06v0a.19.19,0,0,0,0,.09l-.07.24a.06.06,0,0,1-.06,0s0,0,0,0h-.17v.11h.07l.26,0,.16,0,.07,0s0,0,0,.06,0,0,0,0h-.2l-.37,0v0a1.63,1.63,0,0,1,0,.24c0,.06,0,.1,0,.12l0,0s0,0,0,0,0-.07,0-.13V47.8a2.56,2.56,0,0,0-.37.05l-.08,0-.08,0s0,0,0,0,0,0,0,0l.26,0,.27,0v-.12H89v0h0l0-.06v-.12a1.05,1.05,0,0,1,0-.13.25.25,0,0,0,0-.07h0l0,0h.06l.24,0v-.13h-.26s0,0,0,0,0,0,.06,0l.22,0a.61.61,0,0,0,0-.15v0s0,0,0,0l.08,0s0,0,0,0v0s0,.06,0,.12l.17,0Zm-.49.43h0l.17,0v-.12a.65.65,0,0,1-.2,0v.06A.13.13,0,0,1,88.93,47.4Zm0,.18.17,0v-.12h-.18S89,47.54,89,47.58Zm.26-.33v.12l.07,0h.15v-.1s0,0,0,0Zm0,.18v.12h.17a.29.29,0,0,0,0-.14v0h-.13Z" style="fill: #f2652d"/>
            <path d="M89,48.91a.07.07,0,0,1,.06,0,0,0,0,0,1,0,0l0,0-.13,0h0v.09l.1,0h0l.06,0,0,0a0,0,0,0,1,0,0,.06.06,0,0,0,0,0l-.07.24,0,0,0,0h-.09v.12h.17l0,0s0,0,0,0h-.17v.25a.31.31,0,0,1,0,.08s0,0,0,0,0,0,0,0a.23.23,0,0,1,0-.09.18.18,0,0,1,0-.06,1.32,1.32,0,0,0,0-.16l-.19,0h-.09s0,0,0,0h0l.29,0a.53.53,0,0,0,0-.13h-.1v0h0s0,0,0,0v-.1a.22.22,0,0,0,0-.1.09.09,0,0,0,0-.06h.06l.17,0V49l-.1,0h-.07l0,0h0l.15,0c0-.05,0-.09,0-.11a.13.13,0,0,0,0-.08,0,0,0,0,0,0,0s0,0,0,0l.07,0a.05.05,0,0,1,0,0,.08.08,0,0,1,0,0s0,.06,0,.11l.06,0Zm-.28.36h0l.11,0v-.1l-.11,0h0v.09Zm0,.13.1,0s0-.06,0-.09h-.11Zm.17-.12v.08H89s0,0,0-.1h-.11Zm0-.14a.28.28,0,0,1,0,.09H89a.31.31,0,0,0,0-.09s0,0,0,0Zm.76-.22h0l0,0a.06.06,0,0,1,0,0l-.24,0h0l0,0a.08.08,0,0,1,0,0,.66.66,0,0,0,0,.15h0l.19,0h.07l.08,0a.05.05,0,0,1,0,0,0,0,0,0,1,0,0,1.23,1.23,0,0,0,0,.13v.18a.5.5,0,0,1,0,.2s0,0-.06,0l0,0-.07-.11,0,0h0l.09,0s0,0,0-.05a2.38,2.38,0,0,0,0-.33s0-.06,0-.08h-.25v.34a.18.18,0,0,1,0,.06.11.11,0,0,1,0,.06l0,0s0,0,0,0a.39.39,0,0,1,0-.06v0a.63.63,0,0,0,0-.17v-.19l-.12,0h-.06c0,.11,0,.2,0,.27l.06-.08s0,0,0,0l0,0h0l.1.07,0,0a0,0,0,0,1,0,0s0,.06,0,.06h0l0,0s0,0,0,0h0l0,0,0,0h0c0,.09,0,.15,0,.17s0,0,0,0,0,0,0,0a.15.15,0,0,1,0-.07v0a.34.34,0,0,0,0-.11,1.1,1.1,0,0,0,0-.21.16.16,0,0,0,0-.11s0,0,0,0h.08s0,0,0,0h0l.18,0v0a.77.77,0,0,0,0-.18h0l-.1,0h-.09l0,0h0l.43-.08Zm-.12.53,0-.07a0,0,0,0,1,0,0h0a.49.49,0,0,1,.13.08l0,0a0,0,0,0,1,0,0s0,.06,0,.06h0v0l0-.06,0,0,0,0,0,0h0l.07-.1A.06.06,0,0,0,89.53,49.45Z" style="fill: #f2652d"/>
          </g>
          <g>
            <path d="M91.67,47l.09,0,0,0s0,0,0,0a.36.36,0,0,0,0,.11v.21a2.54,2.54,0,0,1,0,.29.52.52,0,0,1-.07.2.79.79,0,0,1-.12.15.22.22,0,0,1-.11.05h0a1.05,1.05,0,0,0,.14-.2.4.4,0,0,0,.07-.2l-.11.06-.16.09h0a.12.12,0,0,1-.08,0l0,0h.08l.34-.1a.78.78,0,0,0,0-.16l-.19,0h0l-.07,0s0,0,0,0,0,0,0,0l.25,0h.06v-.16h0l-.19,0h0l-.08,0,0,0s0,0,0,0l.27,0h0a.31.31,0,0,0,0-.1.17.17,0,0,0,0-.07l0,0S91.64,47,91.67,47Zm.3-.11.07,0a.05.05,0,0,1,0,0,.1.1,0,0,1,0,0,.76.76,0,0,0,0,.15v.07l.19,0,.06,0,0,0s0,0,0,0,0,0,0,0l-.16,0h-.12v.2l.18,0h.09l0,0s0,0,0,0l-.15,0h-.12v.22l.12,0,.16,0h0l.07,0s0,0,0,0,0,0,0,0h-.21l-.14,0h0v0a2.69,2.69,0,0,1,0,.31q0,.09,0,.09s0,0,0-.06a2.36,2.36,0,0,1,0-.29V47a.37.37,0,0,0,0-.11s0,0,0,0S92,46.87,92,46.87Z" style="fill: #f2652d"/>
            <path d="M92.13,49h.05s.06,0,.06.05,0,0-.06,0l-.32,0h0a1.45,1.45,0,0,0,.29.28,1.91,1.91,0,0,0,.36.19l0,0h0a.78.78,0,0,1-.22,0c-.06,0-.09,0-.11,0a2.72,2.72,0,0,1-.33-.43v.39H92l0,0s0,0-.06,0h-.15v.14a.28.28,0,0,1,0,.13s0,0,0,0,0,0,0-.06a.51.51,0,0,1,0-.09l0-.07a.32.32,0,0,1,0-.08h-.19l0,0s0,0,.07,0l.17,0c0-.08,0-.19,0-.33h0l-.15.2a1.56,1.56,0,0,1-.2.16l-.22.09h0l0,0a1.51,1.51,0,0,0,.28-.24,1.27,1.27,0,0,0,.2-.24.36.36,0,0,0,0-.09l-.2,0h0l-.07,0,0,0h0l.36-.05V49a.77.77,0,0,0,0-.18.08.08,0,0,0,0-.06.06.06,0,0,1,0,0s0,0,0,0l.07,0s.06,0,.06.05,0,0,0,0a.29.29,0,0,0,0,.12s0,.08,0,.14L92,49Z" style="fill: #f2652d"/>
          </g>
          <path d="M93.9,48.73h0a.14.14,0,0,1,.11.14.06.06,0,0,1,0,.06h.17s0,0,0,0h0a2.52,2.52,0,0,0-.37.08l-.06,0-.08,0s0,0,0,0h0l.34-.06h0l0,0-.08-.16v0S93.89,48.73,93.9,48.73Zm-.12.74h.06l.1,0,.09,0h0l.07,0s0,0,0,0l0,0,0,.07,0,.08h0l0,0H93.9s0,0,0,0l0,0s0,0,0,0l0-.07a.15.15,0,0,0,0-.08.05.05,0,0,0,0,0h0Zm.25-.36h0l0,0-.05,0h0l-.09,0h-.09l0,0s0,0,0,0l.14,0Zm0,.16h0s0,0,0,0,0,0-.05,0h0l-.09,0h-.09l0,0h0l.14,0Zm-.13.4.09,0h0s0-.06,0-.08a.2.2,0,0,0,0-.07H94l-.08,0h0v0A.74.74,0,0,1,93.9,49.67Zm.78-.88h.06l.05,0s0,0-.05,0l-.1,0-.08,0V49l.09,0h.1l0,0s0,0,0,0l-.09,0h-.09v.1h.08l.2,0h0l.08,0s0,0,0,0,0,0-.07,0h-.17l-.23,0a1,1,0,0,0-.21,0h0a.11.11,0,0,1-.07,0s0,0,0,0,0,0,0,0h.19l.1,0V49l-.1,0h0l0,0s0,0,0,0l.13,0V48.9h0l-.11,0h-.06l0,0s0,0,0,0l.16,0v-.11l0,0s0,0,0,0,0,0,0,0a.11.11,0,0,1,.07,0,0,0,0,0,1,0,0v0a.11.11,0,0,0,0,0v.06l.07,0Zm-.37.51,0,0,.17,0,.1,0h0l.08,0,0,0a.06.06,0,0,1,0,0,.37.37,0,0,0,0,.17v.13a.19.19,0,0,1,0,.08.33.33,0,0,1,0,.15s0,.06-.07.06l0,0-.11-.13,0,0h0l.08,0h0a.67.67,0,0,0,0-.18h-.27a.44.44,0,0,1,0,.15.2.2,0,0,1-.08.08l0,0h0a.38.38,0,0,0,.09-.18.87.87,0,0,0,0-.27.3.3,0,0,0,0-.11l0,0S94.29,49.3,94.31,49.3Zm.08.3h0l.17,0h.09v-.11h-.27Zm0-.13.17,0h.09v-.06s0,0,0,0h-.1l-.14,0h0v.1Z" style="fill: #f2652d"/>
          <polygon points="78.12 44.68 79.84 42.89 99.78 42.89 98.06 44.68 78.12 44.68" style="fill: #f5c064"/>
          <polygon points="98.06 44.68 98.06 47.87 99.78 46.08 99.78 42.89 98.06 44.68" style="fill: #f5c064"/>
          <line x1="97.83" y1="49.4" x2="99.66" y2="47.77" style="fill: none;stroke: #f2652d;stroke-linecap: round;stroke-linejoin: round;stroke-width: 0.27285787739123px"/>
          <line x1="98.92" y1="55.35" x2="98.92" y2="47.07" style="fill: none;stroke: #f2652d;stroke-linecap: round;stroke-linejoin: round;stroke-width: 0.27285787739123px"/>
          <polygon points="95.11 60.29 96.83 58.51 96.83 56.36 95.11 56.34 95.11 60.29" style="fill: #f2652d"/>
          <polygon points="82.99 60.26 84.71 58.48 84.71 56.36 82.99 56.36 82.99 60.26" style="fill: #f2652d"/>
        </g>
        <g>
          <polygon points="57.02 40.28 57.2 57.55 60.37 52.18 60.37 34.75 57.02 40.28" style="fill: #f5c064"/>
          <path d="M57.23,37.41v.42a.36.36,0,0,0,.13,0l3.15-5.48a.21.21,0,0,0,.1-.2.2.2,0,0,0-.21-.18Z" style="fill: #f6a733"/>
          <path d="M56.8,37.83v1L60,33.37v-.13l-2.58,4.5A1.38,1.38,0,0,1,56.8,37.83Z" style="fill: #f5c064"/>
          <polygon points="57.02 38.87 60.2 33.37 59.97 33.37 56.8 38.87 57.02 38.87" style="fill: #f5c064"/>
          <g>
            <path d="M57.63,39.07a.87.87,0,0,0-.31-.32l3-5.15a.44.44,0,0,1,.22.31Z" style="fill: #f5c064"/>
            <path d="M58,37.91l-.44.79h0l.45-.79m2.16-4.54L57,38.87s.51,0,.54.73l3.17-5.66s-.06-.55-.53-.57Z" style="fill: #f2652d"/>
          </g>
          <path d="M60.61,34.54,57.44,40a1.35,1.35,0,0,0,.12-.43l3.17-5.66A.62.62,0,0,1,60.61,34.54Z" style="fill: #f6a733"/>
          <polygon points="57.2 57.55 57.48 57.55 60.65 52.18 60.37 52.18 57.2 57.55" style="fill: #f2652d"/>
          <polyline points="57.48 57.55 57.48 57.86 60.65 52.46 60.65 52.18" style="fill: #f2652d"/>
          <polygon points="57.48 57.86 57.48 58.61 60.65 53.11 60.65 52.46 57.48 57.86" style="fill: #f6a733"/>
          <g>
            <polygon points="57.89 45.09 59.13 43.12 59.34 38.37 58.1 40.34 57.89 45.09" style="fill: #92d3ca;stroke: #fff;stroke-miterlimit: 10;stroke-width: 0.165808254278313px"/>
            <line x1="59.27" y1="39.71" x2="58.04" y2="41.67" style="fill: none;stroke: #fff;stroke-miterlimit: 10;stroke-width: 0.165808254278313px"/>
            <line x1="58.68" y1="40.6" x2="58.53" y2="44.02" style="fill: none;stroke: #fff;stroke-miterlimit: 10;stroke-width: 0.165808254278313px"/>
            <line x1="59.2" y1="40.96" x2="58" y2="42.88" style="fill: none;stroke: #fff;stroke-miterlimit: 10;stroke-width: 0.165808254278313px"/>
            <line x1="59.14" y1="42.03" x2="57.96" y2="43.92" style="fill: none;stroke: #fff;stroke-miterlimit: 10;stroke-width: 0.165808254278313px"/>
          </g>
          <g>
            <polygon points="57.89 53.06 59.13 51.09 59.34 46.34 58.1 48.32 57.89 53.06" style="fill: #92d3ca;stroke: #fff;stroke-miterlimit: 10;stroke-width: 0.165808254278313px"/>
            <line x1="59.27" y1="47.69" x2="58.04" y2="49.64" style="fill: none;stroke: #fff;stroke-miterlimit: 10;stroke-width: 0.165808254278313px"/>
            <line x1="58.68" y1="48.57" x2="58.53" y2="51.99" style="fill: none;stroke: #fff;stroke-miterlimit: 10;stroke-width: 0.165808254278313px"/>
            <line x1="59.2" y1="48.93" x2="58" y2="50.85" style="fill: none;stroke: #fff;stroke-miterlimit: 10;stroke-width: 0.165808254278313px"/>
            <line x1="59.14" y1="50" x2="57.96" y2="51.89" style="fill: none;stroke: #fff;stroke-miterlimit: 10;stroke-width: 0.165808254278313px"/>
          </g>
          <g>
            <path d="M60.73,34.11v-.06a.62.62,0,0,0-.53-.68H60v-1h.43a.21.21,0,0,0,.21-.21h0a.21.21,0,0,0-.21-.21H49.13a.21.21,0,0,0-.21.21h0a.22.22,0,0,0,.21.21h.43v1H49.5a.62.62,0,0,0-.54.68V32.5h-.5v-.73H50a2.64,2.64,0,0,0,1.11-.29,7,7,0,0,0,.63-.81l-.26.09a5.47,5.47,0,0,1-.8.19L46,27.9H46V25.78s-.11,1.51-1.31,1.57H31.51c-1.21-.06-1.32-1.57-1.32-1.57v2.09H30.1L25.3,31a2.92,2.92,0,0,1-.4-.1l-.58-.19a7,7,0,0,0,.63.81,2.47,2.47,0,0,0,1,.28h1.64V32h-.75v2.08a.62.62,0,0,0-.54-.68h-.06v-1h.34a.21.21,0,0,0,.21-.21h0a.21.21,0,0,0-.21-.21H15.36a.21.21,0,0,0-.21.21h0a.21.21,0,0,0,.21.21h.51v1h-.23a.62.62,0,0,0-.53.68v.06a.68.68,0,0,0,.36.64V52.18h-.28v.93H18.5l3.59.72,3.59-.72,1.2.13H49l1.2-.13,3.59.72,3.59-.72h3.31v-.93h-.28V34.75A.68.68,0,0,0,60.73,34.11Zm-11.67.39H49v-.39A.84.84,0,0,0,49.06,34.5Zm-22.18,0h-.1a.84.84,0,0,0,.1-.39Z" style="fill: #d0d2d3"/>
            <path d="M12,37.62h.15l.06-.21,3.18-5.49a.21.21,0,0,0-.19.11L12,37.54" style="fill: #f2652d"/>
            <rect x="45.75" y="37.41" width="11.69" height="0.42" rx="0.2" style="fill: #f6a733"/>
            <rect x="11.97" y="37.41" width="11.69" height="0.42" rx="0.2" style="fill: #f6a733"/>
            <rect x="23.7" y="39.52" width="22.09" height="18.55" style="fill: #f8d497"/>
            <rect x="23.7" y="57.68" width="22.09" height="1.05" style="fill: #f5c064"/>
            <rect x="32.41" y="50.22" width="4.49" height="6.86" style="fill: #5dc2a5;stroke: #fff;stroke-miterlimit: 10;stroke-width: 0.811109099667711px"/>
            <line x1="34.7" y1="50.22" x2="34.7" y2="57.09" style="fill: none;stroke: #fff;stroke-miterlimit: 10;stroke-width: 0.243222013508208px"/>
            <line x1="32.47" y1="51.69" x2="36.81" y2="51.69" style="fill: none;stroke: #fff;stroke-miterlimit: 10;stroke-width: 0.811109099667711px"/>
            <rect x="26.04" y="50.25" width="2.7" height="4.75" style="fill: #92d3ca;stroke: #fff;stroke-miterlimit: 10;stroke-width: 0.243222013508208px"/>
            <line x1="26.07" y1="51.57" x2="28.74" y2="51.57" style="fill: none;stroke: #fff;stroke-miterlimit: 10;stroke-width: 0.243222013508208px"/>
            <line x1="27.36" y1="51.51" x2="27.36" y2="54.95" style="fill: none;stroke: #fff;stroke-miterlimit: 10;stroke-width: 0.243222013508208px"/>
            <line x1="26.09" y1="52.8" x2="28.72" y2="52.8" style="fill: none;stroke: #fff;stroke-miterlimit: 10;stroke-width: 0.243222013508208px"/>
            <line x1="26.12" y1="53.86" x2="28.69" y2="53.86" style="fill: none;stroke: #fff;stroke-miterlimit: 10;stroke-width: 0.243222013508208px"/>
            <rect x="40.65" y="50.25" width="2.7" height="4.75" style="fill: #92d3ca;stroke: #fff;stroke-miterlimit: 10;stroke-width: 0.243222013508208px"/>
            <line x1="40.68" y1="51.57" x2="43.36" y2="51.57" style="fill: none;stroke: #fff;stroke-miterlimit: 10;stroke-width: 0.243222013508208px"/>
            <line x1="41.97" y1="51.51" x2="41.97" y2="54.95" style="fill: none;stroke: #fff;stroke-miterlimit: 10;stroke-width: 0.243222013508208px"/>
            <line x1="40.71" y1="52.8" x2="43.33" y2="52.8" style="fill: none;stroke: #fff;stroke-miterlimit: 10;stroke-width: 0.243222013508208px"/>
            <line x1="40.73" y1="53.86" x2="43.31" y2="53.86" style="fill: none;stroke: #fff;stroke-miterlimit: 10;stroke-width: 0.243222013508208px"/>
            <g>
              <rect x="26.32" y="42.16" width="2.7" height="4.75" style="fill: #92d3ca;stroke: #fff;stroke-miterlimit: 10;stroke-width: 0.243222013508208px"/>
              <line x1="26.35" y1="43.48" x2="29.02" y2="43.48" style="fill: none;stroke: #fff;stroke-miterlimit: 10;stroke-width: 0.243222013508208px"/>
              <line x1="27.64" y1="43.42" x2="27.64" y2="46.85" style="fill: none;stroke: #fff;stroke-miterlimit: 10;stroke-width: 0.243222013508208px"/>
              <line x1="26.37" y1="44.71" x2="29" y2="44.71" style="fill: none;stroke: #fff;stroke-miterlimit: 10;stroke-width: 0.243222013508208px"/>
              <line x1="26.4" y1="45.76" x2="28.97" y2="45.76" style="fill: none;stroke: #fff;stroke-miterlimit: 10;stroke-width: 0.243222013508208px"/>
            </g>
            <g>
              <rect x="40.65" y="42.16" width="2.7" height="4.75" style="fill: #92d3ca;stroke: #fff;stroke-miterlimit: 10;stroke-width: 0.243222013508208px"/>
              <line x1="40.68" y1="43.48" x2="43.36" y2="43.48" style="fill: none;stroke: #fff;stroke-miterlimit: 10;stroke-width: 0.243222013508208px"/>
              <line x1="41.97" y1="43.42" x2="41.97" y2="46.85" style="fill: none;stroke: #fff;stroke-miterlimit: 10;stroke-width: 0.243222013508208px"/>
              <line x1="40.71" y1="44.71" x2="43.33" y2="44.71" style="fill: none;stroke: #fff;stroke-miterlimit: 10;stroke-width: 0.243222013508208px"/>
              <line x1="40.73" y1="45.76" x2="43.31" y2="45.76" style="fill: none;stroke: #fff;stroke-miterlimit: 10;stroke-width: 0.243222013508208px"/>
            </g>
            <rect x="33.16" y="42.1" width="3.2" height="4.75" style="fill: #92d3ca;stroke: #fff;stroke-miterlimit: 10;stroke-width: 0.243222013508208px"/>
            <line x1="33.19" y1="43.42" x2="36.36" y2="43.42" style="fill: none;stroke: #fff;stroke-miterlimit: 10;stroke-width: 0.264958520715653px"/>
            <line x1="34.72" y1="42.16" x2="34.72" y2="46.79" style="fill: none;stroke: #fff;stroke-miterlimit: 10;stroke-width: 0.811109099667711px"/>
            <line x1="33.22" y1="44.65" x2="36.34" y2="44.65" style="fill: none;stroke: #fff;stroke-miterlimit: 10;stroke-width: 0.264958520715653px"/>
            <line x1="33.25" y1="45.7" x2="36.31" y2="45.7" style="fill: none;stroke: #fff;stroke-miterlimit: 10;stroke-width: 0.264958520715653px"/>
            <rect x="24.46" y="36.94" width="20.83" height="1.06" style="fill: #d75a28"/>
            <g>
              <path d="M26.92,33.36h8v3.87S22.07,37,22.07,36.5" style="fill: #5dc2a5"/>
              <path d="M42.77,33.36h-8v3.87H46.85s.77-.23.77-.73" style="fill: #5dc2a5"/>
            </g>
            <path d="M48.6,36.17l-.25.08a5.3,5.3,0,0,1-1.67.26H22.76a3.37,3.37,0,0,1-1-.16l-.57-.18a6.78,6.78,0,0,0,.62.81,2.72,2.72,0,0,0,1.05.28h24A2.68,2.68,0,0,0,48,37,8,8,0,0,0,48.6,36.17Z" style="fill: #f2652d"/>
            <rect x="24.8" y="37.64" width="20.1" height="2.07" style="fill: #f5c064"/>
            <path d="M28.33,32.85H27V31.27S27.13,32.79,28.33,32.85Z" style="fill: #f2652d"/>
            <path d="M41.55,32.85h1.32V31.27S42.75,32.79,41.55,32.85Z" style="fill: #f2652d"/>
            <g>
              <path d="M32.81,42V39.61a1.87,1.87,0,0,1,1.87-1.87h.13a1.88,1.88,0,0,1,1.88,1.87V42Z" style="fill: #f6a733"/>
              <path d="M34.81,37.84a1.77,1.77,0,0,1,1.77,1.77v2.26H32.91V39.61a1.77,1.77,0,0,1,1.77-1.77h.13m0-.2h-.13a2,2,0,0,0-2,2v2.46h4.09V39.61a2,2,0,0,0-2-2Z" style="fill: #efebe1"/>
            </g>
            <g>
              <rect x="33.36" y="38.61" width="0.37" height="3.18" style="fill: #f2652d"/>
              <rect x="34.56" y="38.61" width="0.37" height="3.18" style="fill: #f2652d"/>
              <rect x="35.76" y="38.61" width="0.37" height="3.18" style="fill: #f2652d"/>
            </g>
            <rect x="31.57" y="42.07" width="1.65" height="15.61" style="fill: #fff"/>
            <rect x="32.21" y="42.89" width="0.37" height="14.78" style="fill: #f8d497"/>
            <rect x="32.21" y="42.89" width="0.37" height="14.78" style="fill: #f8d497"/>
            <rect x="36.36" y="42.07" width="1.56" height="15.61" style="fill: #fff"/>
            <g>
              <rect x="23.7" y="37.46" width="1.1" height="20.21" style="fill: #f8d497"/>
              <polygon points="25.35 57.68 24.8 57.68 24.8 37.46 25.35 38.62 25.35 57.68" style="fill: #f6a733"/>
            </g>
            <g>
              <rect x="29.99" y="38.61" width="1.1" height="19.07" style="fill: #f8d497"/>
              <polygon points="31.64 57.68 31.09 57.68 31.09 38.61 31.64 39.23 31.64 57.68" style="fill: #f6a733"/>
            </g>
            <g>
              <rect x="44.69" y="37.99" width="1.1" height="19.69" transform="translate(90.48 95.67) rotate(-180)" style="fill: #f8d497"/>
              <polygon points="44.14 57.68 44.69 57.68 44.69 37.99 44.14 39.12 44.14 57.68" style="fill: #f6a733"/>
            </g>
            <g>
              <rect x="38.53" y="38.61" width="1.17" height="19.07" transform="translate(78.23 96.29) rotate(-180)" style="fill: #f8d497"/>
              <polygon points="37.95 57.68 38.53 57.68 38.53 38.61 37.95 39.23 37.95 57.68" style="fill: #f6a733"/>
            </g>
            <g>
              <rect x="25.35" y="39.71" width="4.64" height="0.59" style="fill: #f2652d"/>
              <rect x="26.3" y="40.69" width="2.74" height="0.59" style="fill: #f2652d"/>
            </g>
            <rect x="25.35" y="38.61" width="4.64" height="1.68" style="fill: #f2652d"/>
            <rect x="26.3" y="40.69" width="2.74" height="0.59" style="fill: #f2652d"/>
            <rect x="33.22" y="56.72" width="3.14" height="0.96" style="fill: #f2652d"/>
            <rect x="39.7" y="38.67" width="4.64" height="1.62" style="fill: #f2652d"/>
            <rect x="40.65" y="40.69" width="2.74" height="0.59" style="fill: #f2652d"/>
            <rect x="36.96" y="42.89" width="0.37" height="14.78" style="fill: #f8d497"/>
            <rect x="27.02" y="42.89" width="1.32" height="1" style="fill: #f2652d;stroke: #fff;stroke-miterlimit: 10;stroke-width: 0.243222013508208px"/>
            <rect x="41.36" y="46.29" width="1.32" height="1" style="fill: #f2652d;stroke: #fff;stroke-miterlimit: 10;stroke-width: 0.243222013508208px"/>
            <line x1="24.04" y1="36.51" x2="27.98" y2="33.27" style="fill: none;stroke: #f5c064;stroke-linecap: round;stroke-linejoin: round;stroke-width: 0.442155344742168px"/>
            <line x1="26.43" y1="36.56" x2="29.28" y2="33.39" style="fill: none;stroke: #f5c064;stroke-linecap: round;stroke-linejoin: round;stroke-width: 0.663233017113252px"/>
            <line x1="28.7" y1="36.48" x2="30.88" y2="33.39" style="fill: none;stroke: #f5c064;stroke-linecap: round;stroke-linejoin: round;stroke-width: 0.663233017113252px"/>
            <line x1="30.82" y1="36.53" x2="32.42" y2="33.3" style="fill: none;stroke: #f5c064;stroke-linecap: round;stroke-linejoin: round;stroke-width: 0.663233017113252px"/>
            <line x1="33" y1="36.53" x2="33.68" y2="33.36" style="fill: none;stroke: #f5c064;stroke-linecap: round;stroke-linejoin: round;stroke-width: 0.663233017113252px"/>
            <line x1="34.87" y1="36.65" x2="34.87" y2="33.3" style="fill: none;stroke: #f5c064;stroke-linecap: round;stroke-linejoin: round;stroke-width: 0.663233017113252px"/>
            <line x1="45.79" y1="36.51" x2="41.85" y2="33.27" style="fill: none;stroke: #f5c064;stroke-linecap: round;stroke-linejoin: round;stroke-width: 0.663233017113252px"/>
            <line x1="43.39" y1="36.56" x2="40.54" y2="33.39" style="fill: none;stroke: #f5c064;stroke-linecap: round;stroke-linejoin: round;stroke-width: 0.663233017113252px"/>
            <line x1="41.12" y1="36.48" x2="38.94" y2="33.39" style="fill: none;stroke: #f5c064;stroke-linecap: round;stroke-linejoin: round;stroke-width: 0.663233017113252px"/>
            <line x1="39.01" y1="36.53" x2="37.4" y2="33.3" style="fill: none;stroke: #f5c064;stroke-linecap: round;stroke-linejoin: round;stroke-width: 0.663233017113252px"/>
            <line x1="36.82" y1="36.53" x2="36.14" y2="33.36" style="fill: none;stroke: #f5c064;stroke-linecap: round;stroke-linejoin: round;stroke-width: 0.663233017113252px"/>
            <path d="M42.87,32.85H27v.54H42.87Z" style="fill: #f2652d"/>
            <rect x="34.19" y="53.86" width="0.19" height="0.81" style="fill: #f2652d"/>
            <rect x="35.07" y="53.86" width="0.19" height="0.81" style="fill: #f2652d"/>
            <rect x="23.7" y="57.68" width="22.09" height="0.39" style="fill: #f2652d"/>
            <g>
              <rect x="46.39" y="37.83" width="10.41" height="1.8" style="fill: #f8d497"/>
              <rect x="46.39" y="37.83" width="10.41" height="0.48" style="fill: #f2652d"/>
              <rect x="45.79" y="39.99" width="1.2" height="18.25" style="fill: #f6a733"/>
              <rect x="54.17" y="39.99" width="3.03" height="18.25" style="fill: #efebe1"/>
              <polygon points="50.58 58.61 46.99 58.24 46.99 39.99 50.58 40.36 50.58 58.61" style="fill: #f5c064"/>
              <g>
                <polygon points="49.83 47.09 47.43 46.72 47.43 41.97 49.83 42.34 49.83 47.09" style="fill: #92d3ca;stroke: #fff;stroke-miterlimit: 10;stroke-width: 0.229545985528292px"/>
                <line x1="47.46" y1="43.3" x2="49.84" y2="43.66" style="fill: none;stroke: #fff;stroke-miterlimit: 10;stroke-width: 0.229545985528292px"/>
                <line x1="48.6" y1="43.41" x2="48.6" y2="46.84" style="fill: none;stroke: #fff;stroke-miterlimit: 10;stroke-width: 0.229545985528292px"/>
                <line x1="47.48" y1="44.53" x2="49.82" y2="44.89" style="fill: none;stroke: #fff;stroke-miterlimit: 10;stroke-width: 0.229545985528292px"/>
                <line x1="47.5" y1="45.59" x2="49.79" y2="45.94" style="fill: none;stroke: #fff;stroke-miterlimit: 10;stroke-width: 0.229545985528292px"/>
              </g>
              <g>
                <polygon points="49.83 55.19 47.43 54.82 47.43 50.07 49.83 50.44 49.83 55.19" style="fill: #92d3ca;stroke: #fff;stroke-miterlimit: 10;stroke-width: 0.229545985528292px"/>
                <line x1="47.46" y1="51.39" x2="49.84" y2="51.76" style="fill: none;stroke: #fff;stroke-miterlimit: 10;stroke-width: 0.229545985528292px"/>
                <line x1="48.6" y1="51.51" x2="48.6" y2="54.94" style="fill: none;stroke: #fff;stroke-miterlimit: 10;stroke-width: 0.229545985528292px"/>
                <line x1="47.48" y1="52.63" x2="49.82" y2="52.98" style="fill: none;stroke: #fff;stroke-miterlimit: 10;stroke-width: 0.229545985528292px"/>
                <line x1="47.5" y1="53.69" x2="49.79" y2="54.04" style="fill: none;stroke: #fff;stroke-miterlimit: 10;stroke-width: 0.229545985528292px"/>
              </g>
              <polygon points="50.58 58.61 54.17 58.24 54.17 39.99 50.58 40.36 50.58 58.61" style="fill: #f8d497"/>
              <g>
                <polygon points="51.35 47.09 53.72 46.72 53.72 41.97 51.35 42.34 51.35 47.09" style="fill: #92d3ca;stroke: #fff;stroke-miterlimit: 10;stroke-width: 0.228053502729557px"/>
                <line x1="53.7" y1="43.3" x2="51.35" y2="43.66" style="fill: none;stroke: #fff;stroke-miterlimit: 10;stroke-width: 0.228053502729557px"/>
                <line x1="52.56" y1="43.41" x2="52.56" y2="46.84" style="fill: none;stroke: #fff;stroke-miterlimit: 10;stroke-width: 0.228053502729557px"/>
                <line x1="53.68" y1="44.53" x2="51.37" y2="44.89" style="fill: none;stroke: #fff;stroke-miterlimit: 10;stroke-width: 0.228053502729557px"/>
                <line x1="53.65" y1="45.59" x2="51.39" y2="45.94" style="fill: none;stroke: #fff;stroke-miterlimit: 10;stroke-width: 0.228053502729557px"/>
              </g>
              <g>
                <polygon points="51.35 55.19 53.72 54.82 53.72 50.07 51.35 50.44 51.35 55.19" style="fill: #92d3ca;stroke: #fff;stroke-miterlimit: 10;stroke-width: 0.228053502729557px"/>
                <line x1="53.7" y1="51.39" x2="51.35" y2="51.76" style="fill: none;stroke: #fff;stroke-miterlimit: 10;stroke-width: 0.228053502729557px"/>
                <line x1="52.56" y1="51.51" x2="52.56" y2="54.94" style="fill: none;stroke: #fff;stroke-miterlimit: 10;stroke-width: 0.228053502729557px"/>
                <line x1="53.68" y1="52.63" x2="51.37" y2="52.98" style="fill: none;stroke: #fff;stroke-miterlimit: 10;stroke-width: 0.228053502729557px"/>
                <line x1="53.65" y1="53.69" x2="51.39" y2="54.04" style="fill: none;stroke: #fff;stroke-miterlimit: 10;stroke-width: 0.228053502729557px"/>
              </g>
              <g>
                <path d="M47,40.08h-.68c-.18,0-.34-.22-.34-.48s.16-.53.34-.53H47l3.56.45,3.64-.45H57c.18,0,.34.22.34.47s-.16.54-.34.54H54.17l-3.59.46Z" style="fill: #f5c064"/>
                <path d="M57,39.27s.13.11.13.27v.06c0,.17-.09.27-.13.27H54.11l-3.53.45L47,39.88h-.71s-.14-.1-.14-.27v-.06c0-.16.1-.27.14-.27H47l3.57.45h.1l3.56-.45H57m0-.4H54.17l-3.59.45L47,38.87h-.66a.61.61,0,0,0-.54.67v.06a.62.62,0,0,0,.54.68H47l3.59.46,3.59-.46H57a.62.62,0,0,0,.54-.68v-.06a.61.61,0,0,0-.54-.67Z" style="fill: #f2652d"/>
              </g>
              <line x1="47.31" y1="39.14" x2="47.31" y2="39.99" style="fill: #f5c064;stroke: #f2652d;stroke-linecap: round;stroke-linejoin: round;stroke-width: 0.454660948470828px"/>
              <line x1="48.94" y1="39.28" x2="48.94" y2="40.21" style="fill: #f5c064;stroke: #f2652d;stroke-linecap: round;stroke-linejoin: round;stroke-width: 0.454660948470828px"/>
              <line x1="50.58" y1="39.57" x2="50.58" y2="40.58" style="fill: #f5c064;stroke: #f2652d;stroke-linecap: round;stroke-linejoin: round;stroke-width: 0.454660948470828px"/>
              <line x1="52.37" y1="39.36" x2="52.37" y2="40.32" style="fill: #f5c064;stroke: #f2652d;stroke-linecap: round;stroke-linejoin: round;stroke-width: 0.454660948470828px"/>
              <line x1="54.17" y1="39.12" x2="54.17" y2="39.99" style="fill: #f5c064;stroke: #f2652d;stroke-linecap: round;stroke-linejoin: round;stroke-width: 0.454660948470828px"/>
              <line x1="55.94" y1="39.12" x2="55.94" y2="39.99" style="fill: #f5c064;stroke: #f2652d;stroke-linecap: round;stroke-linejoin: round;stroke-width: 0.454660948470828px"/>
              <polygon points="45.79 57.68 46.99 57.48 50.58 58.24 54.17 57.68 57.48 57.68 57.48 58.61 54.17 58.61 50.58 59.33 46.99 58.61 45.79 58.73 45.79 57.68" style="fill: #f6a733"/>
              <polyline points="45.79 57.68 46.99 57.48 50.58 58.24 54.17 57.68 57.48 57.68" style="fill: none;stroke: #f2652d;stroke-miterlimit: 10;stroke-width: 0.405554549833854px"/>
            </g>
            <g>
              <rect x="12.69" y="37.83" width="10.41" height="1.8" transform="translate(35.8 77.46) rotate(-180)" style="fill: #f8d497"/>
              <rect x="12.69" y="37.83" width="10.41" height="0.48" transform="translate(35.8 76.14) rotate(-180)" style="fill: #f2652d"/>
              <rect x="22.5" y="39.99" width="1.2" height="18.25" transform="translate(46.21 98.23) rotate(-180)" style="fill: #f6a733"/>
              <rect x="12.3" y="39.99" width="3.03" height="18.25" transform="translate(27.62 98.23) rotate(-180)" style="fill: #efebe1"/>
              <polygon points="18.91 58.61 22.5 58.24 22.5 39.99 18.91 40.36 18.91 58.61" style="fill: #f5c064"/>
              <g>
                <polygon points="19.66 47.09 22.06 46.72 22.06 41.97 19.66 42.34 19.66 47.09" style="fill: #92d3ca;stroke: #fff;stroke-miterlimit: 10;stroke-width: 0.229545985528292px"/>
                <line x1="22.03" y1="43.3" x2="19.65" y2="43.66" style="fill: none;stroke: #fff;stroke-miterlimit: 10;stroke-width: 0.229545985528292px"/>
                <line x1="20.89" y1="43.41" x2="20.89" y2="46.84" style="fill: none;stroke: #fff;stroke-miterlimit: 10;stroke-width: 0.229545985528292px"/>
                <line x1="22.01" y1="44.53" x2="19.67" y2="44.89" style="fill: none;stroke: #fff;stroke-miterlimit: 10;stroke-width: 0.229545985528292px"/>
                <line x1="21.99" y1="45.59" x2="19.7" y2="45.94" style="fill: none;stroke: #fff;stroke-miterlimit: 10;stroke-width: 0.229545985528292px"/>
              </g>
              <g>
                <polygon points="19.66 55.19 22.06 54.82 22.06 50.07 19.66 50.44 19.66 55.19" style="fill: #92d3ca;stroke: #fff;stroke-miterlimit: 10;stroke-width: 0.229545985528292px"/>
                <line x1="22.03" y1="51.39" x2="19.65" y2="51.76" style="fill: none;stroke: #fff;stroke-miterlimit: 10;stroke-width: 0.229545985528292px"/>
                <line x1="20.89" y1="51.51" x2="20.89" y2="54.94" style="fill: none;stroke: #fff;stroke-miterlimit: 10;stroke-width: 0.229545985528292px"/>
                <line x1="22.01" y1="52.63" x2="19.67" y2="52.98" style="fill: none;stroke: #fff;stroke-miterlimit: 10;stroke-width: 0.229545985528292px"/>
                <line x1="21.99" y1="53.69" x2="19.7" y2="54.04" style="fill: none;stroke: #fff;stroke-miterlimit: 10;stroke-width: 0.229545985528292px"/>
              </g>
              <polygon points="18.91 58.61 15.32 58.24 15.32 39.99 18.91 40.36 18.91 58.61" style="fill: #f8d497"/>
              <g>
                <polygon points="18.14 47.09 15.77 46.72 15.77 41.97 18.14 42.34 18.14 47.09" style="fill: #92d3ca;stroke: #fff;stroke-miterlimit: 10;stroke-width: 0.228053502729557px"/>
                <line x1="15.79" y1="43.3" x2="18.14" y2="43.66" style="fill: none;stroke: #fff;stroke-miterlimit: 10;stroke-width: 0.228053502729557px"/>
                <line x1="16.93" y1="43.41" x2="16.93" y2="46.84" style="fill: none;stroke: #fff;stroke-miterlimit: 10;stroke-width: 0.228053502729557px"/>
                <line x1="15.82" y1="44.53" x2="18.12" y2="44.89" style="fill: none;stroke: #fff;stroke-miterlimit: 10;stroke-width: 0.228053502729557px"/>
                <line x1="15.84" y1="45.59" x2="18.1" y2="45.94" style="fill: none;stroke: #fff;stroke-miterlimit: 10;stroke-width: 0.228053502729557px"/>
              </g>
              <g>
                <polygon points="18.14 55.19 15.77 54.82 15.77 50.07 18.14 50.44 18.14 55.19" style="fill: #92d3ca;stroke: #fff;stroke-miterlimit: 10;stroke-width: 0.228053502729557px"/>
                <line x1="15.79" y1="51.39" x2="18.14" y2="51.76" style="fill: none;stroke: #fff;stroke-miterlimit: 10;stroke-width: 0.228053502729557px"/>
                <line x1="16.93" y1="51.51" x2="16.93" y2="54.94" style="fill: none;stroke: #fff;stroke-miterlimit: 10;stroke-width: 0.228053502729557px"/>
                <line x1="15.82" y1="52.63" x2="18.12" y2="52.98" style="fill: none;stroke: #fff;stroke-miterlimit: 10;stroke-width: 0.228053502729557px"/>
                <line x1="15.84" y1="53.69" x2="18.1" y2="54.04" style="fill: none;stroke: #fff;stroke-miterlimit: 10;stroke-width: 0.228053502729557px"/>
              </g>
              <g>
                <path d="M15.35,40.08H12.47c-.18,0-.34-.22-.34-.48s.16-.53.34-.53h2.85l3.57.45,3.64-.45h.63c.19,0,.34.22.34.47s-.15.54-.34.54H22.5l-3.59.46Z" style="fill: #f5c064"/>
                <path d="M23.16,39.27s.14.11.14.27v.06c0,.17-.1.27-.14.27h-.71l-3.54.45-3.53-.45H12.47s-.13-.1-.13-.27v-.06c0-.16.09-.27.13-.27H15.3l3.56.45H19l3.56-.45h.63m0-.4H22.5l-3.59.45-3.59-.45H12.47a.61.61,0,0,0-.54.67v.06a.62.62,0,0,0,.54.68h2.85l3.59.46,3.59-.46h.66a.62.62,0,0,0,.54-.68v-.06a.61.61,0,0,0-.54-.67Z" style="fill: #f2652d"/>
              </g>
              <line x1="22.18" y1="39.14" x2="22.18" y2="39.99" style="fill: #f5c064;stroke: #f2652d;stroke-linecap: round;stroke-linejoin: round;stroke-width: 0.454660948470828px"/>
              <line x1="20.55" y1="39.28" x2="20.55" y2="40.21" style="fill: #f5c064;stroke: #f2652d;stroke-linecap: round;stroke-linejoin: round;stroke-width: 0.454660948470828px"/>
              <line x1="18.91" y1="39.57" x2="18.91" y2="40.58" style="fill: #f5c064;stroke: #f2652d;stroke-linecap: round;stroke-linejoin: round;stroke-width: 0.454660948470828px"/>
              <line x1="17.12" y1="39.36" x2="17.12" y2="40.32" style="fill: #f5c064;stroke: #f2652d;stroke-linecap: round;stroke-linejoin: round;stroke-width: 0.454660948470828px"/>
              <line x1="15.32" y1="39.12" x2="15.32" y2="39.99" style="fill: #f5c064;stroke: #f2652d;stroke-linecap: round;stroke-linejoin: round;stroke-width: 0.454660948470828px"/>
              <line x1="13.55" y1="39.12" x2="13.55" y2="39.99" style="fill: #f5c064;stroke: #f2652d;stroke-linecap: round;stroke-linejoin: round;stroke-width: 0.454660948470828px"/>
              <polygon points="23.7 57.68 22.5 57.48 18.91 58.24 15.32 57.68 12.01 57.68 12.01 58.61 15.32 58.61 18.91 59.33 22.5 58.61 23.7 58.73 23.7 57.68" style="fill: #f6a733"/>
              <polyline points="23.7 57.68 22.5 57.48 18.91 58.24 15.32 57.68 12.01 57.68" style="fill: none;stroke: #f2652d;stroke-miterlimit: 10;stroke-width: 0.405554549833854px"/>
            </g>
            <polygon points="27.98 32.85 31.5 27.35 44.73 27.35 41.55 32.85 27.98 32.85" style="fill: #f2652d"/>
            <path d="M42.87,31.27,46,25.78s-.22,1.57-1.31,1.57l-3.18,5.5S42.7,32.92,42.87,31.27Z" style="fill: #f5c064"/>
            <polygon points="46.04 25.77 46.04 27.9 42.87 33.39 42.87 31.27 46.04 25.77" style="fill: #f5c064"/>
            <polygon points="46.04 27.9 50.72 30.95 47.62 36.5 42.87 33.39 46.04 27.9" style="fill: #5dc2a5"/>
            <path d="M47.62,36.5,50.72,31l1.06-.28-3.18,5.5A3.77,3.77,0,0,1,47.62,36.5Z" style="fill: #f2652d"/>
            <path d="M31.51,27.35s-1,.14-1.32-1.57L27,31.27s.22,1.37,1,1.58Z" style="fill: #f8d497"/>
            <polygon points="25.3 30.96 22.07 36.5 27.02 33.39 27.02 31.27 28.32 29.01 25.3 30.96" style="fill: #5dc2a5"/>
            <polygon points="21.15 36.17 24.32 30.67 25.3 30.96 22.07 36.5 21.15 36.17" style="fill: #f2652d"/>
            <path d="M46,37.41v-.14h1A2.74,2.74,0,0,0,48,37l.62-.81,2.46-4.25H60.4l-3.17,5.49Z" style="fill: #f2652d"/>
            <path d="M12.18,37.41l3.18-5.49H23.6l-2.45,4.25.62.81a2.68,2.68,0,0,0,1.05.28h.41v.15Z" style="fill: #f2652d"/>
            <g>
              <line x1="43.36" y1="32.54" x2="48.12" y2="35.6" style="fill: none;stroke: #f5c064;stroke-linecap: round;stroke-linejoin: round;stroke-width: 0.663233017113252px"/>
              <line x1="44.15" y1="31.18" x2="48.92" y2="34.23" style="fill: none;stroke: #f5c064;stroke-linecap: round;stroke-linejoin: round;stroke-width: 0.663233017113252px"/>
              <line x1="44.95" y1="29.81" x2="49.71" y2="32.86" style="fill: none;stroke: #f5c064;stroke-linecap: round;stroke-linejoin: round;stroke-width: 0.663233017113252px"/>
              <line x1="45.74" y1="28.44" x2="50.51" y2="31.5" style="fill: none;stroke: #f5c064;stroke-linecap: round;stroke-linejoin: round;stroke-width: 0.663233017113252px"/>
            </g>
            <line x1="22.5" y1="35.29" x2="27.02" y2="32.85" style="fill: none;stroke: #f5c064;stroke-linecap: round;stroke-linejoin: round;stroke-width: 0.663233017113252px"/>
            <line x1="24.58" y1="32.2" x2="27.36" y2="30.68" style="fill: none;stroke: #f5c064;stroke-linecap: round;stroke-linejoin: round;stroke-width: 0.663233017113252px"/>
            <g>
              <polygon points="26.92 63.47 19.6 63.47 22.6 59.76 29.92 59.76 26.92 63.47" style="fill: #f8d497"/>
              <polygon points="26.92 63.47 21.59 63.47 22.6 62.21 27.95 62.21 26.92 63.47" style="fill: #f6a733"/>
              <rect x="19.62" y="63.47" width="7.32" height="2.45" style="fill: #f5c064"/>
              <polygon points="26.94 63.47 26.94 65.92 29.92 62.22 29.92 59.76 26.94 63.47" style="fill: #efebe1"/>
              <ellipse cx="24.36" cy="51.01" rx="3.1" ry="8.39" style="fill: #5dc2a5"/>
              <line x1="24.36" y1="49.97" x2="24.36" y2="62.64" style="fill: none;stroke: #f2652d;stroke-linecap: round;stroke-linejoin: round;stroke-width: 0.884310689484339px"/>
              <path d="M22.39,53a5.79,5.79,0,0,0,.54,1.28,1.83,1.83,0,0,0,1.09.82" style="fill: none;stroke: #f2652d;stroke-linecap: round;stroke-linejoin: round;stroke-width: 0.331616508556626px"/>
              <path d="M24.42,57.55a3.07,3.07,0,0,0,.95-1.44" style="fill: none;stroke: #f2652d;stroke-linecap: round;stroke-linejoin: round;stroke-width: 0.331616508556626px"/>
            </g>
            <g>
              <ellipse cx="41.85" cy="51.41" rx="3.1" ry="8.39" style="fill: #5dc2a5"/>
              <polygon points="44.46 63.87 37.14 63.87 40.14 60.16 47.46 60.16 44.46 63.87" style="fill: #f8d497"/>
              <polygon points="44.46 63.87 39.13 63.87 40.14 62.61 45.49 62.61 44.46 63.87" style="fill: #f6a733"/>
              <rect x="37.16" y="63.87" width="7.32" height="2.45" style="fill: #f5c064"/>
              <polygon points="44.48 63.87 44.48 66.32 47.46 62.62 47.46 60.16 44.48 63.87" style="fill: #efebe1"/>
              <line x1="41.9" y1="50.37" x2="41.9" y2="63.04" style="fill: none;stroke: #f2652d;stroke-linecap: round;stroke-linejoin: round;stroke-width: 0.884310689484339px"/>
              <path d="M39.93,53.41a5.79,5.79,0,0,0,.54,1.28,1.77,1.77,0,0,0,1.09.81" style="fill: none;stroke: #f2652d;stroke-linecap: round;stroke-linejoin: round;stroke-width: 0.331616508556626px"/>
              <path d="M42,58a3,3,0,0,0,.95-1.44" style="fill: none;stroke: #f2652d;stroke-linecap: round;stroke-linejoin: round;stroke-width: 0.331616508556626px"/>
            </g>
            <g>
              <rect x="32.78" y="58.18" width="3.12" height="0.55" style="fill: #f2652d"/>
              <polygon points="35.9 58.18 32.78 58.18 33.22 57.68 36.36 57.68 35.9 58.18" style="fill: #f6a733"/>
            </g>
            <g>
              <rect x="31.84" y="59.47" width="4.28" height="0.74" style="fill: #f2652d"/>
              <polygon points="36.12 59.47 31.84 59.47 32.44 58.74 36.72 58.74 36.12 59.47" style="fill: #f6a733"/>
            </g>
            <polygon points="36.36 57.68 36.36 58.73 35.9 58.73 35.9 58.18 36.36 57.68" style="fill: #efebe1"/>
            <polyline points="36.12 60.21 36.72 59.37 36.72 58.74 36.12 59.47 36.12 60.13" style="fill: #efebe1"/>
            <circle cx="21.99" cy="60.99" r="1.45" style="fill: #5dc2a5"/>
            <circle cx="22.71" cy="62.35" r="0.89" style="fill: #92d3ca"/>
            <circle cx="40.75" cy="62.84" r="0.89" style="fill: #92d3ca"/>
            <circle cx="43.82" cy="62.63" r="0.89" style="fill: #5dc2a5"/>
            <circle cx="26.3" cy="62.21" r="0.89" style="fill: #5dc2a5"/>
            <circle cx="24.46" cy="61.68" r="1.45" style="fill: #5dc2a5"/>
            <circle cx="27.02" cy="60.78" r="1.45" style="fill: #92d3ca"/>
            <circle cx="39.7" cy="61.6" r="1.45" style="fill: #5dc2a5"/>
            <circle cx="42.17" cy="62.29" r="1.45" style="fill: #5dc2a5"/>
            <circle cx="44.72" cy="61.38" r="1.45" style="fill: #92d3ca"/>
            <line x1="24.33" y1="63.31" x2="24.33" y2="61.88" style="fill: none;stroke: #f2652d;stroke-linecap: round;stroke-linejoin: round;stroke-width: 0.331616508556626px"/>
            <path d="M42,63.84V62.41" style="fill: none;stroke: #f2652d;stroke-linecap: round;stroke-linejoin: round;stroke-width: 0.331616508556626px"/>
          </g>
        </g>
        <g>
          <path d="M118.49,18.64v1.7H115.6v1.71h-3v1.7h-3.21V46.18h.64a.42.42,0,0,1,.42.42v2.06h-.27a.4.4,0,0,1-.15,0h-.76a1.17,1.17,0,0,1,1.18,1.17v5.29h-.67c.86,0,1.57.17,1.57.38v1.72h-7.18V55.53c0-.21.7-.38,1.57-.38h-.67V49.86a1.17,1.17,0,0,1,1.18-1.17h-.76l-.15,0h-.27V46.6a.42.42,0,0,1,.42-.42h.64V29.23H104V28h-2V26.7h-2V25.43h6.18v0H75.57v0h6.18V26.7h-2V28h-2v1.27H75.57v17h.64a.42.42,0,0,1,.42.42v2.06h-.27a.4.4,0,0,1-.15,0h-.75a1.17,1.17,0,0,1,1.17,1.17v5.29H76c.87,0,1.57.17,1.57.38v1.72H70.35V55.53c0-.21.71-.38,1.57-.38h-.66V49.86a1.17,1.17,0,0,1,1.17-1.17h-.75a.33.33,0,0,1-.15,0h-.27V46.6a.42.42,0,0,1,.42-.42h.63V23.75h-3.2v-1.7h-3V20.34H63.25v-1.7h9.06V16.81h-2V15.46H68.41V14.1H66.59V12.75h5.72v-3l-.36-1V1.6h4V8.77l-.36,1v1.34h30.6V9.79l-.36-1V1.6h4V8.77l-.36,1v3h5.72V14.1h-1.82v1.36h-1.88v1.35h-2v1.83Z" style="fill: #e6e7e8"/>
          <polyline points="75.93 1.6 73.47 4.11 69.49 4.11 71.95 1.6 75.78 1.61" style="fill: #efebe1"/>
          <g>
            <rect x="69.85" y="12.28" width="3.26" height="36.41" style="fill: #f8d497"/>
            <g>
              <rect x="69.49" y="4.11" width="3.98" height="7.16" style="fill: #f8d497"/>
              <polygon points="73.11 12.3 69.85 12.3 69.49 11.27 73.47 11.27 73.11 12.3" style="fill: #f6a733"/>
            </g>
            <rect x="68.79" y="48.69" width="5.38" height="2.51" rx="0.42" style="fill: #f5c064"/>
            <path d="M74.17,57.65H68.79V52.37A1.18,1.18,0,0,1,70,51.19h3a1.18,1.18,0,0,1,1.18,1.18Z" style="fill: #f5c064"/>
            <path d="M75.07,59.76H67.89V58c0-.22.7-.39,1.57-.39h4c.87,0,1.57.17,1.57.39Z" style="fill: #f6a733"/>
            <circle cx="72.85" cy="1.37" r="1.37" style="fill: #f5c064"/>
            <g>
              <rect x="64.13" y="15.26" width="5.72" height="1.35" style="fill: #f5c064"/>
              <rect x="65.95" y="16.61" width="3.9" height="1.35" style="fill: #f5c064"/>
              <rect x="67.83" y="17.96" width="2.03" height="1.35" style="fill: #f5c064"/>
            </g>
            <g>
              <rect x="60.79" y="21.15" width="9.06" height="1.7" style="fill: #f5c064"/>
              <rect x="63.68" y="22.85" width="6.18" height="1.7" style="fill: #f5c064"/>
              <rect x="66.64" y="24.55" width="3.21" height="1.7" style="fill: #f5c064"/>
            </g>
            <g>
              <rect x="73.11" y="27.93" width="6.18" height="1.27" style="fill: #f6a733"/>
              <rect x="73.11" y="29.2" width="4.21" height="1.27" style="fill: #f6a733"/>
              <rect x="73.11" y="30.47" width="2.19" height="1.27" style="fill: #f6a733"/>
            </g>
            <rect x="68.79" y="50.77" width="5.38" height="0.39" style="fill: #f6a733"/>
          </g>
          <rect x="103.71" y="12.28" width="3.26" height="36.41" style="fill: #f8d497"/>
          <g>
            <rect x="103.35" y="4.11" width="3.98" height="7.16" style="fill: #f8d497"/>
            <polygon points="103.71 12.3 106.97 12.3 107.33 11.27 103.34 11.27 103.71 12.3" style="fill: #f6a733"/>
          </g>
          <rect x="102.65" y="48.69" width="5.38" height="2.51" rx="0.42" style="fill: #f5c064"/>
          <path d="M102.65,57.65H108V52.37a1.17,1.17,0,0,0-1.17-1.18h-3a1.17,1.17,0,0,0-1.17,1.18Z" style="fill: #f5c064"/>
          <path d="M101.75,59.76h7.17V58c0-.22-.7-.39-1.56-.39h-4c-.87,0-1.57.17-1.57.39Z" style="fill: #f6a733"/>
          <g>
            <rect x="106.97" y="15.26" width="5.72" height="1.35" style="fill: #f5c064"/>
            <rect x="106.97" y="16.61" width="3.9" height="1.35" style="fill: #f5c064"/>
            <rect x="106.97" y="17.96" width="2.03" height="1.35" style="fill: #f5c064"/>
          </g>
          <g>
            <rect x="106.97" y="21.15" width="9.06" height="1.7" style="fill: #f5c064"/>
            <rect x="106.97" y="22.85" width="6.18" height="1.7" style="fill: #f5c064"/>
            <rect x="106.97" y="24.55" width="3.21" height="1.7" style="fill: #f5c064"/>
          </g>
          <g>
            <rect x="97.53" y="27.93" width="6.18" height="1.27" style="fill: #f6a733"/>
            <rect x="99.5" y="29.2" width="4.21" height="1.27" style="fill: #f6a733"/>
            <rect x="101.52" y="30.47" width="2.19" height="1.27" style="fill: #f6a733"/>
          </g>
          <rect x="102.65" y="50.77" width="5.38" height="0.39" style="fill: #f6a733"/>
          <polygon points="103.34 4.11 105.81 1.6 109.79 1.6 107.33 4.11 103.34 4.11" style="fill: #efebe1"/>
          <rect x="73.11" y="21.18" width="30.64" height="6.73" style="fill: #f6a733"/>
          <rect x="73.11" y="20.05" width="30.64" height="1.1" style="fill: #f2652d"/>
          <rect x="73.11" y="13.63" width="30.8" height="1.63" style="fill: #f6a733"/>
          <path d="M105.13,20.05H72a.39.39,0,0,1-.37-.51l1.46-5.09h30.8l1.58,5.08A.38.38,0,0,1,105.13,20.05Z" style="fill: #5dc2a5"/>
          <line x1="73.04" y1="28.06" x2="79.42" y2="28.06" style="fill: none;stroke: #f5c064;stroke-linecap: round;stroke-linejoin: round;stroke-width: 0.514565723191158px"/>
          <line x1="97.42" y1="28.06" x2="103.81" y2="28.06" style="fill: none;stroke: #f5c064;stroke-linecap: round;stroke-linejoin: round;stroke-width: 0.514565723191158px"/>
          <g>
            <line x1="75.16" y1="14.96" x2="73.83" y2="20.29" style="fill: none;stroke: #92d3ca;stroke-linecap: round;stroke-linejoin: round;stroke-width: 1.02913144638232px"/>
            <line x1="78.17" y1="14.96" x2="77.13" y2="20.29" style="fill: none;stroke: #92d3ca;stroke-linecap: round;stroke-linejoin: round;stroke-width: 1.02913144638232px"/>
            <line x1="81.18" y1="14.96" x2="80.44" y2="20.29" style="fill: none;stroke: #92d3ca;stroke-linecap: round;stroke-linejoin: round;stroke-width: 1.02913144638232px"/>
            <line x1="84.19" y1="14.96" x2="83.74" y2="20.29" style="fill: none;stroke: #92d3ca;stroke-linecap: round;stroke-linejoin: round;stroke-width: 1.02913144638232px"/>
            <line x1="87.2" y1="14.96" x2="87.05" y2="20.29" style="fill: none;stroke: #92d3ca;stroke-linecap: round;stroke-linejoin: round;stroke-width: 1.02913144638232px"/>
            <line x1="90.21" y1="14.96" x2="90.35" y2="20.29" style="fill: none;stroke: #92d3ca;stroke-linecap: round;stroke-linejoin: round;stroke-width: 1.02913144638232px"/>
            <line x1="93.21" y1="14.96" x2="93.66" y2="20.29" style="fill: none;stroke: #92d3ca;stroke-linecap: round;stroke-linejoin: round;stroke-width: 1.02913144638232px"/>
            <line x1="96.22" y1="14.96" x2="96.97" y2="20.29" style="fill: none;stroke: #92d3ca;stroke-linecap: round;stroke-linejoin: round;stroke-width: 1.02913144638232px"/>
            <line x1="99.23" y1="14.96" x2="100.27" y2="20.29" style="fill: none;stroke: #92d3ca;stroke-linecap: round;stroke-linejoin: round;stroke-width: 1.02913144638232px"/>
            <line x1="102.24" y1="14.96" x2="103.58" y2="20.29" style="fill: none;stroke: #92d3ca;stroke-linecap: round;stroke-linejoin: round;stroke-width: 1.02913144638232px"/>
          </g>
          <polygon points="107.33 4.11 109.79 1.6 109.79 8.77 107.33 11.27 107.33 4.11" style="fill: #f5c064"/>
          <polygon points="109.79 8.77 109.43 9.79 106.97 12.3 107.33 11.27 109.79 8.77" style="fill: #f5c064"/>
          <polygon points="106.97 12.3 109.43 9.79 109.43 12.75 106.97 15.26 106.97 12.3" style="fill: #f6a733"/>
          <polygon points="109.43 12.75 115.15 12.75 112.69 15.26 106.97 15.26 109.43 12.75" style="fill: #efebe1"/>
          <polygon points="108.99 19.31 110.05 17.96 108.99 17.96 108.99 19.31" style="fill: #f2652d"/>
          <polygon points="110.86 16.61 110.86 17.96 111.98 16.61 110.86 16.61" style="fill: #f2652d"/>
          <polygon points="106.97 19.31 106.97 21.15 116.03 21.15 118.49 18.64 109.43 18.64 108.99 19.31 106.97 19.31" style="fill: #f2652d"/>
          <polygon points="106.97 26.25 109.43 26.25 109.43 46.18 106.97 48.69 106.97 26.25" style="fill: #f6a733"/>
          <polygon points="73.11 13.63 75.57 11.13 103.34 11.13 103.34 11.27 103.71 12.3 103.71 13.63 73.11 13.63" style="fill: #5dc2a5"/>
          <polygon points="73.11 12.3 75.57 9.79 75.57 11.13 73.11 13.63 73.11 12.3" style="fill: #f5c064"/>
          <polygon points="73.47 11.27 75.93 8.77 75.57 9.79 73.11 12.3 73.47 11.27" style="fill: #f5c064"/>
          <polygon points="73.47 4.11 75.93 1.6 75.93 8.77 73.47 11.27 73.47 4.11" style="fill: #f5c064"/>
          <polygon points="66.59 12.75 64.13 15.26 69.85 15.26 69.85 12.75 66.59 12.75" style="fill: #f2652d"/>
          <polygon points="63.25 18.64 60.79 21.15 69.85 21.15 69.85 19.31 67.83 19.31 67.83 18.64 63.25 18.64" style="fill: #f2652d"/>
          <polygon points="73.11 31.74 75.3 31.74 75.3 30.47 75.57 30.47 75.57 46.18 73.11 48.69 73.11 31.74" style="fill: #f5c064"/>
          <g>
            <path d="M74.17,49.11l2.46-2.51a.43.43,0,0,0-.42-.42h-.64l-2.46,2.51h.64S74.17,48.74,74.17,49.11Z" style="fill: #96cfce"/>
            <polygon points="74.17 49.11 74.17 50.77 76.63 48.15 76.63 46.6 74.17 49.11" style="fill: #f5c064"/>
            <polygon points="74.17 50.77 74.17 51.16 76.63 48.66 76.63 48.15 74.17 50.77" style="fill: #f6a733"/>
            <path d="M73,51.19a1.23,1.23,0,0,1,1.18,1.18l2.46-2.51a1.09,1.09,0,0,0-.35-.84l-2.11,2.14Z" style="fill: #92d3ca"/>
            <polygon points="74.17 52.37 74.17 57.65 76.63 55.15 76.63 49.86 74.17 52.37" style="fill: #f5c064"/>
            <path d="M74.17,57.65s.9.13.9.39l2.46-2.51c.09-.08-.25-.21-.29-.22a1.9,1.9,0,0,0-.61-.16Z" style="fill: #92d3ca"/>
            <polygon points="75.07 58.04 75.07 59.76 77.53 57.25 77.53 55.53 75.07 58.04" style="fill: #f6a733"/>
          </g>
          <g>
            <path d="M108,49.11l2.5-2.51a.43.43,0,0,0-.43-.42h-.65l-2.5,2.51h.65S108,48.74,108,49.11Z" style="fill: #96cfce"/>
            <polygon points="108 49.11 108 50.77 110.5 48.15 110.5 46.6 108 49.11" style="fill: #f5c064"/>
            <polygon points="108 50.77 108 51.16 110.5 48.66 110.5 48.15 108 50.77" style="fill: #f6a733"/>
            <path d="M106.8,51.19a1.25,1.25,0,0,1,1.2,1.18l2.5-2.51a1.12,1.12,0,0,0-.36-.84L108,51.16Z" style="fill: #92d3ca"/>
            <polygon points="108 52.37 108 57.65 110.5 55.15 110.5 49.86 108 52.37" style="fill: #f5c064"/>
            <path d="M108,57.65s.91.13.91.39l2.51-2.51c.08-.08-.26-.21-.31-.22a1.84,1.84,0,0,0-.61-.16Z" style="fill: #92d3ca"/>
            <polygon points="108.91 58.04 108.91 59.76 111.42 57.25 111.42 55.53 108.91 58.04" style="fill: #f6a733"/>
          </g>
          <circle cx="106.7" cy="2.1" r="1.37" style="fill: #f5c064"/>
          <polygon points="112.69 15.26 112.69 16.61 115.15 14.11 115.15 12.75 112.69 15.26" style="fill: #f5c064"/>
          <polygon points="116.03 21.15 116.03 22.85 118.49 20.34 118.49 18.64 116.03 21.15" style="fill: #f5c064"/>
          <g>
            <polygon points="101.33 23.31 100.38 22.08 100.38 22.08 76.49 22.08 76.49 22.08 75.54 23.31 74.59 24.55 75.54 25.79 76.49 27.02 76.49 27.02 100.38 27.02 100.38 27.02 101.33 25.79 102.27 24.55 101.33 23.31" style="fill: #efebe1;stroke: #f5c064;stroke-miterlimit: 10;stroke-width: 0.246747098071178px"/>
            <g>
              <polygon points="84.54 25.86 83.94 24.5 84.26 23.88 84.54 23.23 92.32 23.23 92.92 24.6 92.6 25.22 92.32 25.86 84.54 25.86" style="fill: #f2652d"/>
              <path d="M92.24,23.36l.25.57.27.62-.27.62-.25.57H84.62l-.25-.57-.27-.62.27-.62.25-.57h7.62m.16-.25H84.46l-.31.72-.32.72.32.72.31.72H92.4l.32-.72.31-.72-.31-.72-.32-.72Z" style="fill: #f6a733"/>
            </g>
            <g>
              <path d="M78.94,24.27l-.24.13a.51.51,0,0,0,.09-.18h0a1.75,1.75,0,0,0-.32,0c.06,0,0,.08,0,.13a.31.31,0,0,1,.21-.05s0,0,0,.05l-.23.09s0,.08,0,.09a.55.55,0,0,0,.22,0s.07-.05.12,0a.07.07,0,0,1,.07,0s0,.05,0,.06a.8.8,0,0,1-.41,0,.14.14,0,0,1-.08-.14c-.09,0-.15,0-.23,0a1.1,1.1,0,0,1-.52,1s0,0,0,0a1,1,0,0,0,.39-.73,2.48,2.48,0,0,0-.52.38s-.14-.12-.17-.16a1.11,1.11,0,0,0,.36-.13v-.29c-.11,0-.24,0-.33-.05a1.91,1.91,0,0,0,.33-.06.61.61,0,0,0-.1-.44c-.1-.13.17-.05.23,0s0,.09,0,.13a1,1,0,0,0,0,.29s.18-.07.21,0-.18.11-.22.12v.27l.19-.08s0,0,0,0a1.93,1.93,0,0,0,0-.48c0-.08.11,0,.14,0l.22,0c0-.09,0-.36-.08-.43s.24,0,.23,0a.74.74,0,0,1,0,.14c.09,0,.24-.1.33-.06s0,0,0,.08a.69.69,0,0,1-.35.08v.14a1.09,1.09,0,0,0,.31-.08c.06,0,.07,0,.13,0l0,0s.1.06.09.09S79,24.25,78.94,24.27Zm.12,1.06a2.59,2.59,0,0,0-.92,0c-.06,0-.11,0-.16,0a.44.44,0,0,1-.08-.11c.15,0,.29,0,.43,0v-.13l-.18.08s-.06-.05-.06-.08,0,0,0-.07l0-.16s0,0,0,0a.19.19,0,0,1,.08.07c0,.06,0,.05,0,.14s.08,0,.09,0a.58.58,0,0,0-.06-.29c0-.06.17,0,.17.05s0,.28,0,.43h.09a1.72,1.72,0,0,0,0-.46s0-.07,0-.07.18,0,.17.07a1.17,1.17,0,0,0,0,.26l.09,0a.44.44,0,0,0,0-.2s0,0,0,0,.13,0,.12.08a.38.38,0,0,0,0,.15s.07,0,0,.06l-.21,0v.12l.18,0c.09,0,.26,0,.32.06S79.12,25.34,79.06,25.33Zm-.73-1.07-.19,0c0,.07,0,.12,0,.19l.23-.07A.25.25,0,0,0,78.33,24.26Z" style="fill: #f2652d"/>
              <path d="M81.37,24.8a.12.12,0,0,1-.06.12s-.08-.1-.07-.15a1,1,0,0,0,0-.35,1.26,1.26,0,0,1-.38.27s-.05,0,0,0a1.6,1.6,0,0,0,.44-.53s0-.08,0-.08a.34.34,0,0,1,.15.09s0,.07,0,.09l.34,0a.71.71,0,0,1-.1-.14s.24,0,.2.12a1.46,1.46,0,0,1,.41,0l.06,0s0,.06,0,.06l-.43,0a.28.28,0,0,1,0,.09.66.66,0,0,1,.31,0s.09.07,0,.08-.28,0-.35,0v.07a1.25,1.25,0,0,1,.33,0s.06.07,0,.08l-.33,0v.07a1,1,0,0,1,.45,0s.1.1,0,.1C82,24.74,81.7,24.77,81.37,24.8Zm.23-.7c-.07,0-.08-.1-.1-.14a2.25,2.25,0,0,0-.36.06.36.36,0,0,1-.25-.11,3.69,3.69,0,0,0,.58,0,1,1,0,0,0-.08-.14c-.06-.08.22-.07.22,0A3.23,3.23,0,0,1,81.6,24.1Zm.71.91c-.08.14,0,.31-.13.45s-.11-.11-.15-.11h-.18l-.43,0s0,.1,0,.1a.22.22,0,0,1-.09-.14,1.74,1.74,0,0,0-.11-.39s0,0,0,0,.15,0,.23-.06.06-.06.08-.06a.52.52,0,0,1,.13.06c0,.05,0,.06-.07.06l-.23.08,0,.09c.06,0,.26-.07.29,0a.05.05,0,0,1,0,.07l-.23,0,0,.12a4.17,4.17,0,0,1,.61,0l.08,0a.47.47,0,0,0,0-.17c-.17,0-.25.1-.37-.06l.38,0a.41.41,0,0,0,0-.11s-.08,0-.09,0-.21.06-.32-.07a1.24,1.24,0,0,0,.43-.05s.17.09.19.12S82.32,25,82.31,25Zm-.56-.42a.68.68,0,0,1-.29,0c-.06,0-.06,0,0-.05l.31,0v-.07c-.13,0-.25.07-.35,0l.35-.05s0-.05,0-.08a2.22,2.22,0,0,1-.37,0l0,0c.07.11,0,.26,0,.38l.38-.05Zm.69-.71-.4,0a1.18,1.18,0,0,1-.13.18s0,0,0,0,.12-.33.06-.42.21,0,.21.05,0,.09-.07.13c.17,0,.3-.12.45,0S82.48,23.87,82.44,23.88Z" style="fill: #f2652d"/>
              <path d="M95.65,24a.09.09,0,0,0,0,.05.28.28,0,0,0,0,.09,6.43,6.43,0,0,0,0,.88,1.09,1.09,0,0,1-.06.54s0,0-.06,0,0-.22-.08-.25a3.63,3.63,0,0,0-1,0v0c0,.12-.06.12-.09.06a.54.54,0,0,1,0-.33,8.53,8.53,0,0,0,0-1,.8.8,0,0,0,0-.21s0-.05,0-.05l0,0a.32.32,0,0,0,.14,0c.26,0,.53-.05.79-.09a.35.35,0,0,0,.14-.06s.23.14.26.17A.05.05,0,0,1,95.65,24Zm-.18.17a.61.61,0,0,0-.06-.24c0-.05-.18,0-.23,0l-.31,0s.11,0,.09.07,0,0,0,.07a.44.44,0,0,0,.15-.05h0s.11.08.08.11a.86.86,0,0,0-.07.1,1,1,0,0,1,.23,0c.07,0,.13.1,0,.1a4.46,4.46,0,0,0-.81.09.3.3,0,0,1-.18,0c0,.32,0,.62,0,.94l.47-.05V25c-.09,0-.21,0-.27.09s-.06,0-.09,0,.06-.09.08-.15,0-.07,0-.09.11,0,.12,0,0,.05,0,.08l.16,0a.37.37,0,0,0,0-.11c-.1,0-.18,0-.26,0l.26,0a.45.45,0,0,0,0-.12h-.07c0,.07,0,.07-.06,0l-.06-.11-.06-.13c0-.06.06,0,.09,0a.74.74,0,0,0,.36-.06.19.19,0,0,1,.17.07,0,0,0,0,1,0,0l-.09.09s0,.06,0,.07-.12,0-.18,0,0,.07,0,.12.16-.06.24,0,0,.05,0,.05l-.2,0v.11l.21,0c.06,0,.14,0,.17,0s0,.06,0,.06H95v.2a1.24,1.24,0,0,1,.51,0A6.37,6.37,0,0,0,95.47,24.12Zm-.68-.23-.37,0c0,.1,0,.22,0,.33l.35,0,0-.09a.27.27,0,0,1-.19-.06l.2,0a.34.34,0,0,0,0-.1S94.79,23.9,94.79,23.89Zm.12.54-.16,0a.19.19,0,0,1,0,.07l.22,0a.09.09,0,0,0,0-.09Zm0-.32,0,.09.15,0s0-.07,0-.09S94.91,24.1,94.9,24.11Z" style="fill: #f2652d"/>
              <path d="M97.55,24.16a1.11,1.11,0,0,0,.08-.21,3.2,3.2,0,0,0-.75.09s-.17,0-.22,0-.08.28-.18.27,0,0-.06-.06,0-.13.09-.19a1.21,1.21,0,0,0,.09-.2.19.19,0,0,1,.07.11l.36,0,.52-.08c.12,0,.12-.08.19,0s.28.22.16.24A1.12,1.12,0,0,0,97.55,24.16Zm.11.95c-.06,0-.14-.09-.19-.13s-.2-.19-.32-.28a.76.76,0,0,1,0,.7s-.1.13-.15.09,0-.06,0-.08a1.19,1.19,0,0,0-.18-.15.57.57,0,0,0,.26,0c.08-.08,0-.31,0-.41a1.07,1.07,0,0,1-.61.38s-.09,0-.06,0l.07,0a1.37,1.37,0,0,0,.56-.45l0-.1a.86.86,0,0,1-.32.28.72.72,0,0,1-.21.05,1.33,1.33,0,0,0,.46-.39l0,0a1.06,1.06,0,0,1-.39.13s0,0,0,0a1.69,1.69,0,0,0,.5-.31.88.88,0,0,1-.22,0s0,0,0-.06l.38-.07.18,0a.15.15,0,0,1,.09,0c0,.08-.29.12-.33.13s.06.07,0,.1l-.16.09a.57.57,0,0,1,.14.13l.09,0c.09-.09.22-.18.22-.32s.25.09.17.13a.25.25,0,0,1-.09,0l-.23.18.17.11A1.88,1.88,0,0,0,98,25s0,0,0,.05S97.71,25.11,97.66,25.11Zm-.51-1.23a1.08,1.08,0,0,1-.22-.21.26.26,0,0,1,.28,0,.18.18,0,0,1,0,.09C97.24,23.85,97.2,23.9,97.15,23.88Z" style="fill: #f2652d"/>
              <path d="M100.19,24.35a7,7,0,0,0-.79,0c0,.05,0,.08,0,.12l.3-.05s.05,0,.08,0l.09.08s0,0,0,.05l-.05.06a.51.51,0,0,0-.1.21s-.06.25-.12.19,0,0,0,0a2,2,0,0,0-.48.06v0h0a.24.24,0,0,1,.16.07s0,0,0,0a1.4,1.4,0,0,1-.51.28s0,0,0,0a1.62,1.62,0,0,0,.34-.29,0,0,0,0,0,0,0c-.08.07-.13-.27-.15-.3a.34.34,0,0,0-.06-.15.21.21,0,0,1,0-.07s0,0,0,0H99l.31-.06s0-.08,0-.11l-.45.08-.22,0s-.2-.07-.14-.11c.52-.06,1-.16,1.53-.25a.29.29,0,0,1,.25.09C100.28,24.34,100.24,24.35,100.19,24.35Zm-.31-.4-.3.05,0,.22c0,.08-.07,0-.09,0a.54.54,0,0,0-.22.05s0,.07-.06,0a1.05,1.05,0,0,1-.06-.21c-.13,0-.2.07-.29-.06a2.06,2.06,0,0,0,.26,0,.89.89,0,0,0-.08-.17s.09,0,.11,0,.11.08.11.18l.25,0a.44.44,0,0,0,0-.2s0,0,0-.06.2,0,.19.09a.5.5,0,0,1,0,.13c.08,0,.22-.07.3,0S99.92,23.93,99.88,24Zm-.58.89c-.07,0-.17,0-.21-.06l.21,0v-.11l-.26.05a3.4,3.4,0,0,1,.07.34l.19,0Zm-.09-.77a.41.41,0,0,0,0,.11l.21-.05s0-.08,0-.11Zm.44.52a1.06,1.06,0,0,0-.25,0v.12c.08,0,.16-.06.22,0h0s-.19.06-.22.06V25a.5.5,0,0,1,.21,0c0-.06.08-.25.09-.31S99.68,24.6,99.65,24.59Zm.18.85a2.42,2.42,0,0,1-.32-.32s0,0,0,0a.65.65,0,0,1,.35.15l0,.05s0,.12,0,.15A.07.07,0,0,1,99.83,25.44Z" style="fill: #f2652d"/>
            </g>
          </g>
        </g>
        <g>
          <rect x="60.81" y="75.35" width="2.35" height="4.27" style="fill: #f6a733"/>
          <rect x="73.91" y="75.39" width="2.35" height="4.27" style="fill: #f6a733"/>
          <rect x="61.99" y="77.03" width="10.78" height="1.42" style="fill: #f8d497"/>
          <polygon points="72.77 77.03 61.99 77.03 63.05 76.4 73.89 76.4 72.77 77.03" style="fill: #f6a733"/>
          <rect x="57.9" y="62.78" width="21.55" height="13.25" style="fill: #f5c064"/>
          <g>
            <rect x="59.68" y="64.25" width="17.75" height="10.38" style="fill: #f6a733"/>
            <path d="M77.26,64.41V74.47H59.84V64.41H77.26m.33-.33H59.51V74.8H77.59V64.08Z" style="fill: #f8d497"/>
          </g>
          <g>
            <path d="M65.83,66h0a.36.36,0,0,1,0,.1c0,.1-.07.15-.2.16a1.39,1.39,0,0,0-.35.09.93.93,0,0,1-.55-.07l-.21.11.06.08a.49.49,0,0,1,.19,0,.31.31,0,0,1,.21.08.39.39,0,0,1,0,.14c0,.12-.09.21-.29.25a.27.27,0,0,0,0,.11c.13,0,.21,0,.25.07s-.06.25-.26.32a.38.38,0,0,0,0,.16.34.34,0,0,1,.16,0,.23.23,0,0,1,.18.08.33.33,0,0,1,.06.19A.24.24,0,0,1,65,68a1.59,1.59,0,0,0-.35.12.06.06,0,0,0,0,.06l.38-.08a.21.21,0,0,1,.22.17.48.48,0,0,1,0,.17.18.18,0,0,1-.08.09,1,1,0,0,1-.28.08l-.54.12-.4.06a.36.36,0,0,1-.32-.16c-.06-.15,0-.25.32-.32.09,0,.15,0,.17-.06l-.16,0a.36.36,0,0,1-.2-.06.18.18,0,0,1-.09-.16.56.56,0,0,1,.24-.22.51.51,0,0,0,.24,0,.41.41,0,0,0,0-.16.89.89,0,0,1-.36,0,.15.15,0,0,1-.08-.14.52.52,0,0,1,0-.11.68.68,0,0,1,.45-.17V67.1a1,1,0,0,1-.22,0,.37.37,0,0,1-.15,0,.52.52,0,0,1-.13-.13l-.14.14a.49.49,0,0,0-.15.19,3,3,0,0,0-.06.61,4.63,4.63,0,0,0,0,.51.5.5,0,0,1,0,.16.28.28,0,0,1-.08.2.4.4,0,0,0-.13.13.07.07,0,0,1-.06,0,.17.17,0,0,1-.13-.09,2.28,2.28,0,0,1-.1-.71,3.49,3.49,0,0,1,0-.44,4.67,4.67,0,0,0-.87.9.29.29,0,0,1-.17.14.44.44,0,0,0-.15,0,.28.28,0,0,1-.12,0s-.06,0-.05-.09a1.34,1.34,0,0,1,.13-.34q.22-.22.36-.39a5.89,5.89,0,0,1,.87-1l.18-.16c.23-.21.39-.31.5-.31a3.86,3.86,0,0,0,.92-.68.34.34,0,0,1,.35-.17.27.27,0,0,1,.15.25.66.66,0,0,0,.27-.12.24.24,0,0,1,.13,0,.53.53,0,0,1,.22.07A.51.51,0,0,1,65.83,66Zm-2.38,0q.24,0,.24.12c0,.07-.09.14-.27.22,0,.17-.05.27-.17.31a.17.17,0,0,1-.12.06c-.07,0-.12-.07-.15-.19a1.9,1.9,0,0,1-.4,0,.29.29,0,0,1-.33-.27.3.3,0,0,1,.33-.31l.17,0h.19c0-.18.09-.28.2-.28a.45.45,0,0,1,.18,0C63.41,65.8,63.46,65.88,63.45,66Zm1.88,3.38h0a1.26,1.26,0,0,1-.55,1l-.1,0a.14.14,0,0,1-.12-.06,2.6,2.6,0,0,0-.4,0,3.86,3.86,0,0,0-.71.08.58.58,0,0,1-.18,0,.49.49,0,0,1-.22-.06,2.15,2.15,0,0,1-.27-1.14c.08-.17.17-.26.26-.26l.08,0a.53.53,0,0,0,.24-.1.34.34,0,0,1,.16,0,.23.23,0,0,1,.19.1.15.15,0,0,1,0,.09c0,.08-.06.14-.2.19a1.24,1.24,0,0,1-.32.07.57.57,0,0,0,0,.18,1,1,0,0,1,.35-.09.12.12,0,0,1,.09,0,.22.22,0,0,1,.15.1.14.14,0,0,1-.13.19,1.94,1.94,0,0,0-.38.2.26.26,0,0,0,0,.15,4.16,4.16,0,0,1,1.31-.12.44.44,0,0,0,.07-.22.66.66,0,0,1-.23,0,.54.54,0,0,1-.25-.06.14.14,0,0,1-.06-.12.19.19,0,0,1,.08-.15,1.1,1.1,0,0,1,.29,0,.36.36,0,0,1,.24.07,1.27,1.27,0,0,0,0-.34.81.81,0,0,1-.33.12c-.13,0-.19,0-.19-.16s.08-.17.22-.18a1.89,1.89,0,0,0,.39,0,.14.14,0,0,1,.12-.09.37.37,0,0,1,.22.09.43.43,0,0,1,.12.36C65.35,69.19,65.34,69.28,65.33,69.38Zm-1.18-2.79h0s-.06-.07-.06-.1l-.44.12v.07s0,.06,0,.08.11-.08.24-.11A.7.7,0,0,0,64.15,66.59Z" style="fill: #f2652d;stroke: #f8d497;stroke-miterlimit: 10;stroke-width: 0.14368422463288px"/>
            <path d="M72.43,67.31a.56.56,0,0,1,0,.3,4.36,4.36,0,0,1-.37.57q0,.09,0,.27a.34.34,0,0,1,.25-.09.26.26,0,0,1,0,.21.32.32,0,0,1-.05.27,4.46,4.46,0,0,1-.73.76.22.22,0,0,1-.16.1s-.09,0-.14-.14a.34.34,0,0,1,0-.21.16.16,0,0,1,.06-.18l.31-.33a2.14,2.14,0,0,0,0-.52l-.14,0-.14,0a.47.47,0,0,1-.14-.16A2.78,2.78,0,0,1,71,67.9c0-.12,0-.2.07-.23s.29-.16.51-.3l0-.39a4,4,0,0,1,.06-.78.26.26,0,0,1,.21-.14l.11,0a.54.54,0,0,1,.21.3c0,.08,0,.18,0,.32s0,.35,0,.5A.39.39,0,0,1,72.43,67.31Zm2.94,2.47a1,1,0,0,1,0,.15c0,.16-.1.23-.29.23l-.22,0-.51,0a6.31,6.31,0,0,0-1.25.12l-.15,0a.37.37,0,0,1-.36-.23c0-.22.21-.34.68-.36,0-.09,0-.16,0-.21l-.16.18a.1.1,0,0,1-.08,0c-.06,0-.12-.05-.19-.15a2.22,2.22,0,0,1-.08-.52.31.31,0,0,1,0-.13.27.27,0,0,1,.12-.23h.07a.14.14,0,0,1,.13.09.52.52,0,0,1,0,.23.63.63,0,0,1,0,.22c.16,0,.23-.14.23-.34a.84.84,0,0,1,.08-.31c0-.1.08-.16.12-.17a.22.22,0,0,1,.16,0,.7.7,0,0,1-.1-.43l-.19.07a.24.24,0,0,1-.17-.12.29.29,0,0,1-.06-.16c0-.12.13-.24.4-.34,0-.09,0-.14-.1-.15a.41.41,0,0,0-.24.2.51.51,0,0,1-.08.18c-.07.23-.17.51-.29.85-.23.64-.37,1-.42,1.12a1.85,1.85,0,0,1-.21.34,2.16,2.16,0,0,1-.27.33l0,0c-.05,0-.08,0-.08-.15a1.29,1.29,0,0,1,.27-.71c.32-.82.56-1.52.73-2.08,0-.16.08-.28.1-.34a.66.66,0,0,1,.44-.18.85.85,0,0,1,0-.32,1.12,1.12,0,0,1,.23-.59.09.09,0,0,1,.08,0,.56.56,0,0,1,.29.15.83.83,0,0,0,.27-.07l.12,0a.37.37,0,0,1,.21.08.44.44,0,0,1,0,.1.32.32,0,0,1-.13.24.79.79,0,0,1-.4.1c-.09,0-.15.11-.16.31a2.7,2.7,0,0,1,.68,0,.19.19,0,0,1,.16-.1.21.21,0,0,1,.16.1.82.82,0,0,1,.09.33.28.28,0,0,1-.11.24.46.46,0,0,1-.32-.12.09.09,0,0,0-.06,0,.11.11,0,0,0-.09,0s-.06,0-.08,0,0,0,0,0,0-.07,0-.15a.32.32,0,0,0,.11-.1s.06,0,.05,0a.48.48,0,0,0-.29.09.35.35,0,0,0-.13.29l.11,0a.28.28,0,0,1,.26.19.26.26,0,0,1-.18.28,2.1,2.1,0,0,0-.28.12A.09.09,0,0,0,74,68a.29.29,0,0,0,.16-.09,0,0,0,0,1,0,0s.08,0,.14.09a.45.45,0,0,1,0,.11.27.27,0,0,1-.13.24l.17.16a.34.34,0,0,1,0,.16.68.68,0,0,1,0,.15.89.89,0,0,0,0,.11l.12,0a.1.1,0,0,0,.09-.12.22.22,0,0,0,0-.1.17.17,0,0,1,0-.07.31.31,0,0,1,.08-.18.22.22,0,0,1,.17-.07.35.35,0,0,1,.2.07.2.2,0,0,1,.11.18.43.43,0,0,1,0,.11.84.84,0,0,0-.08.29c0,.17-.14.26-.4.26s-.24.16-.25.4C74.89,69.55,75.23,69.61,75.37,69.78Zm-1.29-1.43-.32.07a.9.9,0,0,1,0,.39,5.27,5.27,0,0,0,0,.82,1.51,1.51,0,0,1,.3,0c0-.29,0-.57,0-.84a.45.45,0,0,1,0-.27A.14.14,0,0,0,74.08,68.35Z" style="fill: #f2652d;stroke: #f8d497;stroke-miterlimit: 10;stroke-width: 0.14368422463288px"/>
          </g>
          <g>
            <path d="M62,73.62a.3.3,0,0,0,0,.08.22.22,0,0,1-.09.1,1,1,0,0,1-.32,0,.63.63,0,0,1-.26,0,.26.26,0,0,1-.15-.17,1.18,1.18,0,0,1,0-.22l-.11,0h0s0,0,0,0l-.07,0s0,0,0-.06l0,0a1,1,0,0,1,0-.22s0-.06,0-.07,0,0,0,0h0v0a.58.58,0,0,0,0,.19l.14,0c0-.09,0-.19,0-.31l0,0-.09,0s0,0,0,0,0-.1.17-.12a.58.58,0,0,1,.09-.25h.05l0,0,0,.07v0a.17.17,0,0,1,0,.07l.07,0a0,0,0,0,1,0,0l0,0s0,0,0,0h0a.09.09,0,0,1,0,.05l-.12,0-.1,0a2.31,2.31,0,0,0,0,.29l.19-.09.06-.14a.06.06,0,0,1,.07,0l.06,0s0,0,0,.1a.47.47,0,0,1-.18.23.08.08,0,0,1-.08,0s0,0,0,0l-.13,0a.41.41,0,0,0,0,.11s0,.1,0,.14a.17.17,0,0,0,.14.07,1.49,1.49,0,0,0,.41-.08.8.8,0,0,0,0-.15s0,0,0,0h0s0,0,0,0v0s0,.06,0,.06a.07.07,0,0,1,0,.07S62,73.6,62,73.62Z" style="fill: #f2652d"/>
            <path d="M62.67,73s0,0,0,0a0,0,0,0,1,0,0,.12.12,0,0,1-.05.11l-.14.12a.07.07,0,0,1-.06,0,.06.06,0,0,1-.05,0s0,0,0-.05a.09.09,0,0,1,0-.06l.09-.07,0-.11-.08,0-.05,0a.43.43,0,0,0,0,0s0,0,0,0a.27.27,0,0,1,.12,0v-.12a.23.23,0,0,0-.13.06,2.38,2.38,0,0,0,0,.39,3.22,3.22,0,0,0,0,.43.13.13,0,0,1,0,.06.05.05,0,0,1,0,0l-.07,0h0a.41.41,0,0,1,0-.09l0-.17a1.28,1.28,0,0,1,0-.21,2.68,2.68,0,0,1,.06-.61.07.07,0,0,1,.06,0h0l0,0,.16,0h0c.06,0,.09.07.09.19A1.52,1.52,0,0,1,62.67,73Zm.63-.12h0c0,.13,0,.24,0,.36a2.77,2.77,0,0,1,0,.42c0,.09-.09.13-.14.14a.06.06,0,0,0,0,0h0s0,0,0,0a.13.13,0,0,0,0-.07v0s0,0,.08-.06.05-.15.05-.4,0-.38,0-.53l-.1,0-.07,0s0,0,0,.07h.15a0,0,0,0,1,0,0,0,0,0,0,1,0,0,.24.24,0,0,1-.18.07.14.14,0,0,0,0,.09l.07,0h.09a0,0,0,0,1,0,0,.06.06,0,0,1,0,.06.6.6,0,0,1-.18,0h0s-.05,0-.07,0a2,2,0,0,1,0-.25q0-.3.09-.3s0,0,0,0a.42.42,0,0,1,.19,0h.07a.05.05,0,0,1,.05,0A.65.65,0,0,1,63.3,72.87Z" style="fill: #f2652d"/>
            <path d="M64.48,73.74h-.66a.52.52,0,0,1,.24-.35l0,0a.84.84,0,0,0,.19-.19.24.24,0,0,0,.06-.15.13.13,0,0,0,0-.12.21.21,0,0,0-.13,0,.2.2,0,0,0-.14,0A.2.2,0,0,0,64,73h-.12a.28.28,0,0,1,.32-.29.31.31,0,0,1,.22.07.27.27,0,0,1,.09.2.41.41,0,0,1,0,.18,1.59,1.59,0,0,1-.19.2l-.1.08a.51.51,0,0,0-.15.15h.49Z" style="fill: #f2652d"/>
            <path d="M65.25,73h-.12c0-.11-.07-.16-.17-.16a.2.2,0,0,0-.18.11.67.67,0,0,0,0,.26h0a.22.22,0,0,1,.1-.09.25.25,0,0,1,.14,0,.29.29,0,0,1,.21.09.31.31,0,0,1,.08.23.36.36,0,0,1-.08.25.32.32,0,0,1-.23.09.33.33,0,0,1-.24-.1.54.54,0,0,1-.1-.38.74.74,0,0,1,.09-.4.29.29,0,0,1,.26-.13.32.32,0,0,1,.2.06A.29.29,0,0,1,65.25,73Zm-.3.21a.17.17,0,0,0-.14.06.2.2,0,0,0-.06.15.24.24,0,0,0,.06.17.16.16,0,0,0,.14.07.2.2,0,0,0,.14-.06.31.31,0,0,0,0-.17.28.28,0,0,0,0-.16A.2.2,0,0,0,65,73.2Z" style="fill: #f2652d"/>
            <path d="M66.87,73.71h0c0,.05,0,.07-.12.07l-.74,0-.06,0a.07.07,0,0,1-.06-.06,3.33,3.33,0,0,1,0-.56,2.06,2.06,0,0,1,0-.39s0-.09,0-.15,0-.05.08-.05a.1.1,0,0,1,.07,0,.24.24,0,0,1,0,.08.19.19,0,0,1,0,.08.7.7,0,0,0-.05.34.76.76,0,0,0,0,.15l.15,0h0a.05.05,0,0,0,0,0,.35.35,0,0,1-.09-.25l0-.06,0-.07a0,0,0,0,1,0,0h0s0,0,0,0l.17,0a.12.12,0,0,1,.1,0s0,0,0,.08,0,.06,0,.09l0,.08a.15.15,0,0,0,0,.06l0,0-.09,0h-.06s0,0,0,0h0s0,0,0,0a.11.11,0,0,1,0,.1c0,.1,0,.16,0,.16a.24.24,0,0,1-.13.07s0,0,0,0l0,0L66,73.47a1,1,0,0,0,0,.15,0,0,0,0,0,0,0h0l.66,0C66.82,73.62,66.86,73.65,66.87,73.71Zm-.68-.33h0l-.06,0,0,.07Zm.5-.71s0,.06-.08.06h-.06s0,0,0,0h0a1.07,1.07,0,0,1-.32.08.07.07,0,0,1-.08-.07v0l0,0,.15,0,.11,0h0s0,0,.06,0h0l0,0,.05,0S66.69,72.63,66.69,72.67Zm-.25.32-.11,0,0,.07A.18.18,0,0,0,66.44,73Zm.39.33a.19.19,0,0,1-.07.11l-.06,0s0,.05,0,.05h-.07l-.06.06h0s0,0,0-.08a.34.34,0,0,1,0-.15c0-.1,0-.14.09-.14a.07.07,0,0,1,.06,0s0,0,.06,0l.11,0C66.81,73.19,66.84,73.24,66.83,73.32Zm-.21,0h0l0,0a.06.06,0,0,0,0,0h0A.25.25,0,0,1,66.62,73.31Z" style="fill: #f2652d"/>
            <path d="M68.12,73.74v-1h.13l.43.65a.93.93,0,0,1,.12.19h0a1.66,1.66,0,0,1,0-.24v-.6h.12v1h-.13l-.5-.75a.16.16,0,0,1,0-.07h0v.82Z" style="fill: #f2652d"/>
            <path d="M69.55,73.75a.42.42,0,0,1-.34-.14.59.59,0,0,1,0-.74.42.42,0,0,1,.34-.14.43.43,0,0,1,.35.14.59.59,0,0,1,0,.74A.45.45,0,0,1,69.55,73.75Zm0-.91a.28.28,0,0,0-.25.11.51.51,0,0,0,0,.58.28.28,0,0,0,.24.11.31.31,0,0,0,.25-.11.51.51,0,0,0,0-.58A.28.28,0,0,0,69.56,72.84Z" style="fill: #f2652d"/>
            <path d="M70.22,73.74V73.6h.14v.14Z" style="fill: #f2652d"/>
            <path d="M70.88,73.74V73a.66.66,0,0,1-.25.15V73a.61.61,0,0,0,.29-.25H71v1Z" style="fill: #f2652d"/>
            <path d="M71.64,73.75q-.33,0-.33-.51c0-.33.11-.5.33-.5s.32.17.32.51S71.85,73.75,71.64,73.75Zm0-.91a.15.15,0,0,0-.15.1.74.74,0,0,0,0,.3.75.75,0,0,0,0,.32.18.18,0,0,0,.15.09.15.15,0,0,0,.14-.09.86.86,0,0,0,0-.63A.15.15,0,0,0,71.64,72.84Z" style="fill: #f2652d"/>
            <path d="M72.48,73.74V73.5h-.43v-.11l.45-.65h.1v.65h.13v.11H72.6v.24Zm0-.35v-.45h0l-.31.45Z" style="fill: #f2652d"/>
            <path d="M73.23,73.44v-.12h.37v.12Z" style="fill: #f2652d"/>
            <path d="M74.43,73.74V73a.7.7,0,0,1-.24.15V73a.66.66,0,0,0,.29-.25h.07v1Z" style="fill: #f2652d"/>
            <path d="M75.51,73.74h-.66a.5.5,0,0,1,.23-.35l0,0a1.12,1.12,0,0,0,.19-.19.24.24,0,0,0,.06-.15.17.17,0,0,0,0-.12.22.22,0,0,0-.28,0A.25.25,0,0,0,75,73h-.13a.29.29,0,0,1,.33-.29.32.32,0,0,1,.22.07.27.27,0,0,1,.09.2.32.32,0,0,1-.06.18,1.08,1.08,0,0,1-.19.2l-.1.08a.6.6,0,0,0-.14.15h.49Z" style="fill: #f2652d"/>
            <path d="M75.83,73.2h0a.21.21,0,0,1-.15-.21.22.22,0,0,1,.08-.18.27.27,0,0,1,.2-.07.28.28,0,0,1,.21.07.22.22,0,0,1,.08.19.21.21,0,0,1-.14.2h0a.24.24,0,0,1,.18.25.29.29,0,0,1-.09.22.31.31,0,0,1-.23.08.32.32,0,0,1-.24-.08.29.29,0,0,1-.09-.22.28.28,0,0,1,0-.16A.19.19,0,0,1,75.83,73.2Zm.13,0a.2.2,0,0,0-.14.06.18.18,0,0,0-.06.14.2.2,0,0,0,.06.15.25.25,0,0,0,.15.05.22.22,0,0,0,.14-.05.2.2,0,0,0,.06-.15.2.2,0,0,0-.06-.14A.2.2,0,0,0,76,73.25Zm0-.41a.15.15,0,0,0-.17.15.17.17,0,0,0,0,.12.16.16,0,0,0,.12,0,.15.15,0,0,0,.11,0,.16.16,0,0,0,0-.11.18.18,0,0,0,0-.12A.15.15,0,0,0,76,72.84Z" style="fill: #f2652d"/>
          </g>
          <polygon points="79.45 62.78 80.43 61.54 58.88 61.54 57.9 62.78 79.45 62.78" style="fill: #f9dba5"/>
          <polygon points="79.45 62.78 79.45 76.03 80.4 74.68 80.4 61.42 79.45 62.78" style="fill: #f6a733"/>
          <polygon points="76.27 79.66 78.6 77.13 78.6 76.03 76.25 76.03 76.27 79.66" style="fill: #f2652d"/>
          <polygon points="72.77 78.45 73.92 77.74 73.89 76.4 72.77 77.03 72.77 78.45" style="fill: #f2652d"/>
          <polygon points="63.17 79.63 64.61 78.45 63.17 78.45 63.17 79.63" style="fill: #f2652d"/>
        </g>
      </g>
    </g>
  </g>
</svg>
