<svg xmlns="http://www.w3.org/2000/svg" width="127.05" height="124.55" viewBox="0 0 127.05 124.55">
  <g id="Layer_2" data-name="Layer 2">
    <g id="Icon">
      <g>
        <g>
          <path d="M79.38,7.1V5.44h6.73A42.26,42.26,0,0,0,86.26,0c.67.15,1.1.15,1.75.26a50.21,50.21,0,0,1-.11,5.18h7.73l0,1.66H89.3c.87,4.57,2.53,7.79,7.32,10.59L95.45,19c-4.7-2.85-6.86-6-7.72-11.89-1.17,5.93-3.41,9.13-8.18,11.78l-1.23-1.49A13.5,13.5,0,0,0,86,7.1Z" style="fill: #003869"/>
          <path d="M77.35,37.69a18.74,18.74,0,0,0,3-1.15V30.67H77.83V29.08h2.48V24.14H82v4.94h2.2v1.59H82v5.2l2.36-1.08v1.73L78.3,39.11Zm16.4-11.14A5.39,5.39,0,0,0,91,25.11l1.21-1.19a7.64,7.64,0,0,1,3.25,2.18l-.45.45h1.94v1.62H90.88v1.62l4.72,0v11a1.65,1.65,0,0,1-1.68,1.88H92.2L91.66,41a9.28,9.28,0,0,0,1.79.19c.36,0,.54-.19.54-.63V38H90.88v4.19H89.24V38.05l-2.93,0v5H84.69l0-13.27,4.57,0,0-1.64H83.44v-1.6l5.8,0v-3h1.64v2.95Zm-7.44,4.79v1.75h3V31.34Zm0,5.18h3v-1.9h-3ZM94,31.36H90.88v1.73H94ZM90.88,34.6v1.92H94l0-1.92Z" style="fill: #003869"/>
          <path d="M96.66,65.6H81.39c-1.15,0-1.66-.95-1.66-2V49.91l-1.36,0v-1.6l18.18,0v1.6H81.36l0,13.25c0,.6.21.84.88.84H96.66Zm-8.28-3H82.27v-6l6.11,0Zm-4.49-4.4V61l2.85,0,0-2.87Zm9.86-2.72L84,55.5l0-4.81h9.69ZM85.68,54h6.43V52.13H85.68Zm10,2.61v5.91H89.48V56.62ZM94,58.17l-2.91,0V61L94,61Z" style="fill: #003869"/>
        </g>
        <g>
          <path d="M43.26,24.57H41V23.33h6.1v1.24H44.73v6.84H43.26Z" style="fill: #003869"/>
          <path d="M51.71,30a8.08,8.08,0,0,0,.09,1.4H50.47l-.11-.64h0a2.16,2.16,0,0,1-1.73.78,1.74,1.74,0,0,1-1.84-1.74c0-1.47,1.31-2.22,3.47-2.21v-.1c0-.38-.16-1-1.19-1a3,3,0,0,0-1.57.44l-.29-1a4.17,4.17,0,0,1,2.11-.52,2.19,2.19,0,0,1,2.42,2.47Zm-1.44-1.45c-1.05,0-2,.2-2,1.09a.77.77,0,0,0,.84.84,1.2,1.2,0,0,0,1.16-.8.93.93,0,0,0,0-.33Z" style="fill: #003869"/>
          <path d="M54,24.73a.8.8,0,1,1,.84-.79.79.79,0,0,1-.84.79Zm-.73,6.68V25.57h1.47v5.84Z" style="fill: #003869"/>
          <path d="M58.88,23.44a12.66,12.66,0,0,1,2.26-.17,3.61,3.61,0,0,1,2.37.66,2.29,2.29,0,0,1,.79,1.79,2.48,2.48,0,0,1-.68,1.82,3.58,3.58,0,0,1-2.55.88,3.73,3.73,0,0,1-.72-.06v3.05H58.88Zm1.47,3.75a2.46,2.46,0,0,0,.72.07c1.1,0,1.77-.55,1.77-1.48s-.62-1.37-1.64-1.37a4.5,4.5,0,0,0-.85.07Z" style="fill: #003869"/>
          <path d="M67.79,31.55a2.82,2.82,0,0,1-2.93-3,2.89,2.89,0,0,1,3-3.1,2.81,2.81,0,0,1,2.91,3,2.9,2.9,0,0,1-3,3.11Zm0-1.07c.84,0,1.43-.82,1.43-2,0-.92-.41-2-1.41-2s-1.47,1-1.47,2c0,1.13.57,2,1.44,2Z" style="fill: #003869"/>
          <path d="M34.45,35.45a14.69,14.69,0,0,1,2.35-.18,4.86,4.86,0,0,1,3.29.94,3.59,3.59,0,0,1,1.27,3,4.14,4.14,0,0,1-1.26,3.21,5.36,5.36,0,0,1-3.66,1.11,16.31,16.31,0,0,1-2-.11Zm1.48,6.85a6.45,6.45,0,0,0,.81,0,2.77,2.77,0,0,0,3.06-3.1,2.57,2.57,0,0,0-2.87-2.81,4.51,4.51,0,0,0-1,.09Z" style="fill: #003869"/>
          <path d="M43.32,36.73a.8.8,0,1,1,.84-.79.79.79,0,0,1-.84.79Zm-.73,6.68V37.57h1.47v5.84Z" style="fill: #003869"/>
          <path d="M45.6,42.05a3.23,3.23,0,0,0,1.49.43c.64,0,.93-.28.93-.66s-.24-.59-1-.85c-1.14-.39-1.6-1-1.6-1.71,0-1,.85-1.82,2.2-1.82a3.39,3.39,0,0,1,1.56.35l-.3,1a2.62,2.62,0,0,0-1.23-.34c-.53,0-.82.27-.82.63s.28.54,1,.81c1.07.38,1.55.91,1.56,1.78,0,1.07-.83,1.83-2.38,1.83a3.77,3.77,0,0,1-1.77-.4Z" style="fill: #003869"/>
          <path d="M52.35,36.07v1.5h1.41v1.11H52.35v2.56c0,.72.2,1.08.76,1.08a1.91,1.91,0,0,0,.58-.06l0,1.12a3.39,3.39,0,0,1-1.07.15,1.69,1.69,0,0,1-1.27-.48,2.3,2.3,0,0,1-.47-1.64V38.68h-.82V37.57h.82V36.48Z" style="fill: #003869"/>
          <path d="M54.88,39.46c0-.8,0-1.37-.05-1.89H56.1l.06,1.11h0a1.76,1.76,0,0,1,1.61-1.24,1.25,1.25,0,0,1,.35,0v1.38a1.89,1.89,0,0,0-.44,0,1.29,1.29,0,0,0-1.32,1.12,2,2,0,0,0,0,.44v3H54.88Z" style="fill: #003869"/>
          <path d="M59.88,36.73a.8.8,0,1,1,.84-.79.79.79,0,0,1-.84.79Zm-.73,6.68V37.57h1.47v5.84Z" style="fill: #003869"/>
          <path d="M66.51,43.23a4.13,4.13,0,0,1-1.65.3,2.81,2.81,0,0,1-3-3,3,3,0,0,1,3.25-3.11,4,4,0,0,1,1.42.26l-.26,1.12a2.42,2.42,0,0,0-1.11-.23,1.89,1.89,0,0,0,0,3.78,2.93,2.93,0,0,0,1.16-.23Z" style="fill: #003869"/>
          <path d="M69.48,36.07v1.5h1.4v1.11h-1.4v2.56c0,.72.19,1.08.75,1.08a1.87,1.87,0,0,0,.58-.06l0,1.12a3.32,3.32,0,0,1-1.06.15,1.7,1.7,0,0,1-1.28-.48A2.3,2.3,0,0,1,68,41.41V38.68H67.2V37.57H68V36.48Z" style="fill: #003869"/>
        </g>
        <g style="isolation: isolate">
          <polygon points="68.41 122.17 0 97.27 58.61 71.57 127.03 96.47 68.41 122.17" style="fill: #6baadb"/>
          <polygon points="68.44 124.55 68.41 122.17 127.03 96.47 127.06 98.85 68.44 124.55" style="fill: #3d77a6"/>
          <polygon points="0.03 99.65 0 97.27 68.41 122.17 68.44 124.55 0.03 99.65" style="fill: #254966"/>
        </g>
        <g>
          <g>
            <g>
              <path d="M120.66,81.27v-1H120V81l-2.85-2.8v-1h-.64v.68H105.8v.36h0v-2h1V75.5h.38V71.71h-.68a1.59,1.59,0,0,1-1.6,1.6v.14h-3.5a1.23,1.23,0,0,0,.3-.44l0-.1-.06,0a.79.79,0,0,0-.48-.13.2.2,0,0,1,.25-.1,1.2,1.2,0,0,0,.54,0l.7-.22-.76-.16a2.21,2.21,0,0,1-.54-.16.58.58,0,0,1-.19-.11s0-.12.1-.2l0,0a.41.41,0,0,0-.18,0A.29.29,0,0,0,101,72a.54.54,0,0,0,.24.38l.09.06a.57.57,0,0,0-.13.08.62.62,0,0,0-.14.25l0,.09h.1a.57.57,0,0,1,.32.09,2.27,2.27,0,0,1-.4.29.31.31,0,0,0-.22-.34.7.7,0,0,0-.43,0,.52.52,0,0,0-.37.38.29.29,0,0,0,0,.16h-9.5a.29.29,0,0,0,0-.16.52.52,0,0,0-.37-.38.7.7,0,0,0-.43,0,.31.31,0,0,0-.21.34,2,2,0,0,1-.4-.29.54.54,0,0,1,.31-.09h.1l0-.09a.45.45,0,0,0-.14-.25.57.57,0,0,0-.13-.08l.1-.06a.5.5,0,0,0,.23-.38.26.26,0,0,0-.13-.21.41.41,0,0,0-.18,0l0,0c.09.08.14.19.1.2a.63.63,0,0,1-.18.11,2.35,2.35,0,0,1-.54.16l-.76.16.7.22a1.15,1.15,0,0,0,.53,0,.3.3,0,0,1,.19,0,.27.27,0,0,1,.07.08.82.82,0,0,0-.49.13l-.06,0,0,.1a1.21,1.21,0,0,0,.29.44H86.28v-.14a1.6,1.6,0,0,1-1.61-1.6H84V75.5h.38v.75h1v1.59H74.67v-.68H74v1L71.18,81v-.73h-.64v1h-.12v.44H71v.8h.23V92.4H71V94h14.2v1h1.89v-.08h.14V95H88.9v-.08H89v0h.08v0h2.22v0h2.18v0h4.36v0h2.12v0h2.22v0h.14v0h0V95h1.63v-.08h.15V95H106V94h14.21V92.4H120V82.51h.23v-.8h.53v-.44Zm-20.15-8a.48.48,0,0,1,.24-.11.19.19,0,0,1,.21.13h0a.7.7,0,0,1-.46.08l-.08,0S100.48,73.24,100.51,73.23Zm-.09.09v0S100.41,73.34,100.42,73.32Zm-10.32,0h0S90.11,73.35,90.1,73.34Zm-.33-.22a.48.48,0,0,1,.24.11s0,0,.07.06l-.08,0a.67.67,0,0,1-.45-.08h0A.19.19,0,0,1,89.77,73.12Z" style="fill: #5dc2a5"/>
              <rect x="94.91" y="72.88" width="0.99" height="0.56" style="fill: #5dc2a5"/>
              <path d="M95,72.65h0v.13h.83v-.13h0a.47.47,0,0,0,.27-.39.57.57,0,0,0-.57-.49v-.39h-.15v.39a.57.57,0,0,0-.57.49A.48.48,0,0,0,95,72.65Z" style="fill: #5dc2a5"/>
            </g>
            <polygon points="104.9 73.45 86.28 73.45 80.75 82.43 99.37 82.53 104.9 73.45" style="fill: #92d3ca"/>
            <rect x="100.24" y="91.09" width="14.25" height="11.68" style="fill: #fff"/>
            <rect x="100.28" y="91" width="14.21" height="1.48" style="fill: #92d3ca"/>
            <rect x="100.24" y="101.39" width="14.4" height="1.58" style="fill: #f5c064"/>
            <polyline points="114.02 91.44 114.02 102.97 113.77 102.97 113.77 91.44" style="fill: #5dc2a5"/>
            <polygon points="114.3 90.4 99.5 90.4 99.5 87.19 111.03 87.19 114.3 90.4" style="fill: #7ab0a9"/>
            <rect x="100.25" y="86.83" width="11.05" height="0.52" transform="translate(211.55 174.17) rotate(-180)" style="fill: #f8d497"/>
            <rect x="112.83" y="86.53" width="0.45" height="4.68" transform="translate(-29.58 107.14) rotate(-45.47)" style="fill: #92d3ca"/>
            <rect x="114.49" y="89.24" width="0.64" height="1.36" transform="translate(229.63 179.84) rotate(-180)" style="fill: #92d3ca"/>
            <rect x="100.28" y="90.25" width="14.98" height="0.45" style="fill: #92d3ca"/>
            <rect x="65.65" y="91.09" width="14.25" height="11.68" style="fill: #fff"/>
            <rect x="65.65" y="91" width="14.21" height="1.48" style="fill: #92d3ca"/>
            <rect x="65.51" y="101.39" width="14.4" height="1.58" style="fill: #f5c064"/>
            <polyline points="65.42 91.49 79.91 91.49 79.91 90.7 65.42 90.7" style="fill: #5dc2a5"/>
            <polyline points="66.12 91.44 66.12 102.97 66.37 102.97 66.37 91.44" style="fill: #5dc2a5"/>
            <polygon points="65.85 90.4 80.65 90.4 80.65 87.19 69.12 87.19 65.85 90.4" style="fill: #7ab0a9"/>
            <rect x="68.82" y="86.83" width="11.05" height="0.52" style="fill: #f8d497"/>
            <rect x="68.82" y="87.35" width="11.05" height="0.15" style="fill: #e6e7e8"/>
            <rect x="100.25" y="87.35" width="11.05" height="0.15" style="fill: #e6e7e8"/>
            <rect x="68.5" y="86.15" width="0.64" height="1.36" style="fill: #92d3ca"/>
            <rect x="64.76" y="88.65" width="4.68" height="0.45" transform="translate(-43.06 72.57) rotate(-44.53)" style="fill: #92d3ca"/>
            <rect x="65.01" y="89.24" width="0.64" height="1.36" style="fill: #92d3ca"/>
            <rect x="64.89" y="90.25" width="14.98" height="0.45" style="fill: #92d3ca"/>
            <rect x="101.88" y="94.86" width="4.06" height="7.92" style="fill: #5dc2a5"/>
            <rect x="108.81" y="94.95" width="1.61" height="1.01" style="fill: #f2652d"/>
            <rect x="108.81" y="96.12" width="1.61" height="1.09" style="fill: #f2652d"/>
            <rect x="108.81" y="98.59" width="1.61" height="1.01" style="fill: #f2652d"/>
            <rect x="108.81" y="97.36" width="1.61" height="1.09" style="fill: #f2652d"/>
            <rect x="110.57" y="94.95" width="1.68" height="1.01" style="fill: #f2652d"/>
            <rect x="110.57" y="96.12" width="1.68" height="1.09" style="fill: #f2652d"/>
            <rect x="110.57" y="97.36" width="1.68" height="1.09" style="fill: #f2652d"/>
            <rect x="110.57" y="98.59" width="1.68" height="1.01" style="fill: #f2652d"/>
            <rect x="102.77" y="96.29" width="2.42" height="2.03" style="fill: #f8d497;stroke: #92d3ca;stroke-miterlimit: 10;stroke-width: 0.231985010729698px"/>
            <rect x="101.73" y="94.66" width="4.35" height="0.59" style="fill: #f6a733"/>
            <rect x="101.93" y="102.53" width="4.01" height="0.49" style="fill: #f6a733"/>
            <rect x="74.61" y="94.95" width="3.71" height="4.4" style="fill: #92d3ca"/>
            <rect x="75.4" y="95.89" width="2.13" height="3.12" style="fill: #5dc2a5"/>
            <rect x="75.11" y="99.01" width="2.67" height="0.64" style="fill: #f6a733"/>
            <g>
              <rect x="68.08" y="94.95" width="3.71" height="4.4" style="fill: #92d3ca"/>
              <rect x="68.87" y="95.89" width="2.13" height="3.12" style="fill: #5dc2a5"/>
              <rect x="68.57" y="99.01" width="2.67" height="0.64" style="fill: #f6a733"/>
            </g>
            <rect x="67.73" y="94.76" width="4.35" height="0.59" style="fill: #f8d497"/>
            <polyline points="79.87 85.18 100.25 85.18 100.25 103.88 79.87 103.88" style="fill: #fff"/>
            <rect x="81.63" y="86.22" width="16.61" height="2.57" style="fill: #fff;stroke: #5dc2a5;stroke-miterlimit: 10;stroke-width: 0.589240112393888px"/>
            <rect x="81.63" y="89.99" width="16.69" height="13.88" style="fill: #92d3ca"/>
            <rect x="83.44" y="91.78" width="13.32" height="12.12" style="fill: #4c9f87"/>
            <rect x="85.59" y="93.9" width="8.91" height="10.03" style="fill: #92d3ca"/>
            <rect x="79.87" y="102.03" width="5.83" height="1.85" style="fill: #f8d497"/>
            <rect x="94.42" y="102.03" width="5.83" height="1.85" style="fill: #f8d497"/>
            <rect x="87.93" y="97.73" width="4.35" height="6.24" style="fill: #5dc2a5"/>
            <rect x="79.12" y="82.43" width="21.78" height="0.74" style="fill: #5dc2a5"/>
            <g>
              <rect x="89.38" y="81.86" width="0.99" height="0.56" style="fill: #5dc2a5"/>
              <path d="M90.51,81.24a.58.58,0,0,1-.64.49.51.51,0,1,1,0-1A.58.58,0,0,1,90.51,81.24Z" style="fill: #5dc2a5"/>
              <rect x="89.8" y="80.36" width="0.14" height="0.49" style="fill: #5dc2a5"/>
            </g>
            <path d="M83.73,80.73a.48.48,0,0,1,.18.06A.26.26,0,0,1,84,81a.5.5,0,0,1-.23.37,1.14,1.14,0,0,1-.32.18.92.92,0,0,1-.38.08l.06-.37a2.37,2.37,0,0,0,.42.13.64.64,0,0,1,.26.13.66.66,0,0,1,.14.24l0,.09h-.1a.47.47,0,0,0-.41.17l0-.14a1.85,1.85,0,0,0,.48.35.73.73,0,0,0,.47.08c.12,0,.09-.07.1,0s0-.07-.09-.11a.56.56,0,0,0-.24-.1c-.08,0-.16,0-.21.13H84a.31.31,0,0,1,.21-.35.66.66,0,0,1,.44,0,.48.48,0,0,1,.36.37.38.38,0,0,1-.13.35.75.75,0,0,1-.21.13.93.93,0,0,1-.86-.15,1.26,1.26,0,0,1-.5-.61l0-.1.06,0a.91.91,0,0,1,.58-.14l-.06.09a.27.27,0,0,0-.11-.16.29.29,0,0,0-.19,0,1.15,1.15,0,0,1-.53,0l-.7-.21.76-.16a3,3,0,0,0,.54-.16A.72.72,0,0,0,83.8,81s0-.13-.09-.21Z" style="fill: #5dc2a5"/>
            <path d="M95.76,80.77c-.08.08-.13.19-.09.21a.72.72,0,0,0,.18.11,3,3,0,0,0,.54.16l.76.16-.7.21a1.15,1.15,0,0,1-.53,0,.3.3,0,0,0-.19,0,.23.23,0,0,0-.1.16l-.07-.09a1,1,0,0,1,.59.14l.06,0,0,.1a1.31,1.31,0,0,1-.5.61.92.92,0,0,1-.86.15.61.61,0,0,1-.2-.13.36.36,0,0,1-.14-.35.49.49,0,0,1,.36-.37.66.66,0,0,1,.44,0,.31.31,0,0,1,.21.35h0c-.05-.12-.13-.15-.2-.13a.51.51,0,0,0-.24.1.23.23,0,0,0-.1.11c0-.08,0,0,.1,0a.72.72,0,0,0,.47-.08,1.9,1.9,0,0,0,.49-.35L96,82a.47.47,0,0,0-.41-.17h-.09l0-.09a.66.66,0,0,1,.14-.24.64.64,0,0,1,.26-.13,2.13,2.13,0,0,0,.42-.13l.06.37a.84.84,0,0,1-.37-.08,1.06,1.06,0,0,1-.33-.18.5.5,0,0,1-.23-.37.26.26,0,0,1,.12-.21.48.48,0,0,1,.18-.06Z" style="fill: #5dc2a5"/>
            <polygon points="96.59 91.63 96.59 93.67 93.32 93.67 93.32 93.05 86.86 93.05 86.86 93.67 83.59 93.67 83.59 91.63 86.06 91.63 86.06 91.49 94.01 91.49 94.01 91.63 96.59 91.63" style="fill: #f1f1f2;stroke: #5dc2a5;stroke-miterlimit: 10;stroke-width: 0.507401854414169px"/>
            <polygon points="95.65 109.94 74.14 109.73 79.91 103.87 100.24 103.87 95.65 109.94" style="fill: #fff"/>
            <rect x="78.47" y="82.97" width="23.18" height="1.51" style="fill: #92d3ca"/>
            <rect x="78.85" y="84.48" width="22.42" height="0.76" style="fill: #f5c064"/>
            <g>
              <path d="M78.47,82.93l0-2a2.19,2.19,0,0,0,1.6,2Z" style="fill: #5dc2a5"/>
              <path d="M78.56,81.59a2.37,2.37,0,0,0,1.29,1.29H78.56V81.59m-.09-.89V83h2.28a2.28,2.28,0,0,1-2.28-2.27Z" style="fill: #fff"/>
            </g>
            <g>
              <path d="M99.67,82.93a2.22,2.22,0,0,0,2-2.05l-.08,2.05Z" style="fill: #5dc2a5"/>
              <path d="M101.56,81.59v1.29h-1.29a2.37,2.37,0,0,0,1.29-1.29m.09-.89A2.28,2.28,0,0,1,99.37,83h2.28V80.7Z" style="fill: #fff"/>
            </g>
            <rect x="88.47" y="90.25" width="3.13" height="1.24" style="fill: #f1f1f2;stroke: #5dc2a5;stroke-miterlimit: 10;stroke-width: 0.463969432219284px"/>
            <polygon points="101.65 80.69 107.18 71.71 107.18 75.5 101.65 84.48 101.65 80.69" style="fill: #92d3ca"/>
            <polygon points="106.5 71.71 107.18 71.71 101.65 80.69 100.98 80.69 106.5 71.71" style="fill: #fff"/>
            <path d="M104.9,73.45v-.14a1.82,1.82,0,0,0,.72-.17L101,80.7a1.63,1.63,0,0,1-1.61,1.6Z" style="fill: #f8d497"/>
            <polygon points="86.28 73.45 86.28 73.31 80.75 82.3 80.75 82.43 86.28 73.45" style="fill: #5dc2a5"/>
            <path d="M79.15,80.7l5.52-9a1.7,1.7,0,0,0,1.61,1.6l-5.53,9A1.58,1.58,0,0,1,79.15,80.7Z" style="fill: #5dc2a5"/>
            <polygon points="84 71.71 78.47 80.69 79.14 80.69 84.67 71.71 84 71.71" style="fill: #fff"/>
            <polygon points="111.65 86.15 117.17 77.16 117.17 78.19 111.65 87.5 111.65 86.15" style="fill: #5dc2a5"/>
            <polygon points="116.53 77.16 117.17 77.16 111.65 86.15 111 86.15 116.53 77.16" style="fill: #fff"/>
            <polygon points="105.77 77.78 116.11 77.84 111 86.15 111 86.83 100.25 86.83 100.25 85.24 101.27 85.24 101.65 84.48 105.77 77.78" style="fill: #5dc2a5"/>
            <polygon points="69.14 86.83 74.67 77.84 80.23 77.84 78.47 80.69 78.47 84.48 78.85 84.48 78.85 85.24 79.87 85.24 79.87 86.83 69.14 86.83" style="fill: #5dc2a5"/>
            <polygon points="69.14 86.15 74.67 77.16 74.67 77.84 69.14 86.83 69.14 86.15" style="fill: #f8d497"/>
            <polygon points="74.03 77.16 74.67 77.16 69.14 86.15 68.5 86.15 74.03 77.16" style="fill: #fff"/>
            <polygon points="65.64 89.99 71.18 80.99 72.38 79.84 68.5 86.15 68.5 87.17 65.64 89.99" style="fill: #f6a733"/>
            <polygon points="65.65 89.24 71.18 80.26 71.18 80.99 65.64 89.99 65.65 89.24" style="fill: #f5c064"/>
            <polygon points="70.54 80.26 71.18 80.26 65.65 89.24 65.01 89.24 70.54 80.26" style="fill: #fff"/>
            <rect x="111" y="86.15" width="0.64" height="1.36" transform="translate(222.65 173.65) rotate(-180)" style="fill: #92d3ca"/>
            <polygon points="117.17 78.19 111.77 87.3 114.49 89.97 114.49 89.24 114.81 89.24 120.02 80.99 117.17 78.19" style="fill: #f8d497"/>
            <polygon points="114.49 89.24 120.02 80.26 120.66 80.26 115.14 89.24 114.49 89.24" style="fill: #5dc2a5"/>
            <polygon points="115.14 89.24 115.14 90.25 115.25 90.25 120.78 81.27 120.66 81.27 120.66 80.26 115.14 89.24" style="fill: #fff"/>
            <polygon points="120.78 81.27 120.78 81.71 115.25 90.7 115.25 90.25 120.78 81.27" style="fill: #f8d497"/>
            <polygon points="114.64 101.39 120.17 92.4 120.17 93.99 114.64 102.97 114.64 101.39" style="fill: #fff"/>
            <polygon points="120.02 92.4 120.17 92.4 114.64 101.39 114.49 101.39 120.02 92.4" style="fill: #5dc2a5"/>
            <polyline points="114.73 90.7 114.73 90.94 114.73 91.49 100.24 91.49 100.24 90.7 114.73 90.7" style="fill: #5dc2a5"/>
            <polygon points="114.73 91.49 115.25 90.7 114.73 90.7 114.73 91.49" style="fill: #f6a733"/>
            <polygon points="114.49 91.49 114.49 101.39 114.49 91.49 114.73 91.49 120.03 82.93 120.03 92.4 114.49 101.39 114.49 91.49" style="fill: #f8d497"/>
            <line x1="77.37" y1="106.45" x2="98.25" y2="106.45" style="fill: none;stroke: #5dc2a5;stroke-miterlimit: 10;stroke-width: 0.294620056196944px"/>
          </g>
          <g>
            <circle cx="66.2" cy="90.13" r="0.35" style="fill: #fff"/>
            <circle cx="67.41" cy="90.13" r="0.35" style="fill: #fff"/>
            <circle cx="68.61" cy="90.13" r="0.35" style="fill: #fff"/>
            <circle cx="69.82" cy="90.13" r="0.35" style="fill: #fff"/>
            <circle cx="71.02" cy="90.13" r="0.35" style="fill: #fff"/>
            <circle cx="72.23" cy="90.13" r="0.35" style="fill: #fff"/>
            <circle cx="73.44" cy="90.13" r="0.35" style="fill: #fff"/>
            <circle cx="74.64" cy="90.13" r="0.35" style="fill: #fff"/>
            <circle cx="75.85" cy="90.13" r="0.35" style="fill: #fff"/>
            <circle cx="77.05" cy="90.13" r="0.35" style="fill: #fff"/>
            <circle cx="78.26" cy="90.13" r="0.35" style="fill: #fff"/>
            <circle cx="79.46" cy="90.13" r="0.35" style="fill: #fff"/>
          </g>
          <g>
            <circle cx="100.54" cy="90.13" r="0.35" style="fill: #fff"/>
            <circle cx="101.75" cy="90.13" r="0.35" style="fill: #fff"/>
            <circle cx="102.96" cy="90.13" r="0.35" style="fill: #fff"/>
            <circle cx="104.16" cy="90.13" r="0.35" style="fill: #fff"/>
            <circle cx="105.37" cy="90.13" r="0.35" style="fill: #fff"/>
            <circle cx="106.57" cy="90.13" r="0.35" style="fill: #fff"/>
            <circle cx="107.78" cy="90.13" r="0.35" style="fill: #fff"/>
            <circle cx="108.98" cy="90.13" r="0.35" style="fill: #fff"/>
            <circle cx="110.19" cy="90.13" r="0.35" style="fill: #fff"/>
            <circle cx="111.4" cy="90.13" r="0.35" style="fill: #fff"/>
            <circle cx="112.6" cy="90.13" r="0.35" style="fill: #fff"/>
            <circle cx="113.81" cy="90.13" r="0.35" style="fill: #fff"/>
          </g>
          <g>
            <circle cx="78.77" cy="84.13" r="0.35" style="fill: #5dc2a5"/>
            <circle cx="80.2" cy="84.13" r="0.35" style="fill: #5dc2a5"/>
            <circle cx="81.63" cy="84.13" r="0.35" style="fill: #5dc2a5"/>
            <circle cx="83.05" cy="84.13" r="0.35" style="fill: #5dc2a5"/>
            <circle cx="84.48" cy="84.13" r="0.35" style="fill: #5dc2a5"/>
            <circle cx="85.91" cy="84.13" r="0.35" style="fill: #5dc2a5"/>
            <circle cx="87.34" cy="84.13" r="0.35" style="fill: #5dc2a5"/>
            <circle cx="88.76" cy="84.13" r="0.35" style="fill: #5dc2a5"/>
            <circle cx="90.19" cy="84.13" r="0.35" style="fill: #5dc2a5"/>
            <circle cx="91.62" cy="84.13" r="0.35" style="fill: #5dc2a5"/>
            <circle cx="93.04" cy="84.13" r="0.35" style="fill: #5dc2a5"/>
            <circle cx="94.47" cy="84.13" r="0.35" style="fill: #5dc2a5"/>
            <circle cx="95.9" cy="84.13" r="0.35" style="fill: #5dc2a5"/>
            <circle cx="97.32" cy="84.13" r="0.35" style="fill: #5dc2a5"/>
            <circle cx="98.75" cy="84.13" r="0.35" style="fill: #5dc2a5"/>
            <circle cx="100.18" cy="84.13" r="0.35" style="fill: #5dc2a5"/>
            <circle cx="101.6" cy="84.13" r="0.35" style="fill: #5dc2a5"/>
          </g>
        </g>
        <g>
          <g>
            <polygon points="26.98 47.86 27.44 47.86 27.44 48.19 27.74 48.19 27.74 48.64 27.56 48.64 27.56 55.26 52.19 54.78 52.45 48.64 52.1 48.64 52.1 48.19 52.41 48.19 52.41 47.86 52.86 47.86 52.86 47.76 52.94 47.76 52.94 47.15 52.59 47.15 52.59 47.48 51.95 47.48 51.95 47.81 51.53 47.81 51.53 48.14 50.85 48.14 50.85 48.64 28.99 48.64 28.99 48.14 28.31 48.14 28.31 47.81 27.89 47.81 27.89 47.48 27.25 47.48 27.25 47.15 26.91 47.15 26.91 47.76 26.98 47.76 26.98 47.86" style="fill: #cf5627"/>
            <path d="M67.5,62V60.33H64.91V56.47h-.26v-.13a.35.35,0,0,0-.7,0v.13h-.18v3.86h-9V57h1.18l.34-1.46H54.73V53.39H54.5v-.26a.39.39,0,1,0-.77,0v.26h-.14v2.15H26.44V53.39h-.22v-.16a.39.39,0,1,0-.77,0v.16H25.3v2.15H23.76l.4,1.46H25.3v3.33h-9V56.47h-.18v-.24a.35.35,0,0,0-.7,0v.24h-.26v3.86H12.36V62h2.79v.57H13.39v2h1.76V84.82h1.14V83.2h9v1.62h1.14v-.11H53.59v.11h1.14V83.31h9v1.51h1.14V64.54h1.76v-2H64.91V62ZM53.59,60.33H49.52V57h4.07Zm-22.08,0V57h16.9v3.33ZM26.44,57h4v3.33h-4ZM16.29,62h9v.57h-9Zm23,21.88H26.64V76.55h9.87a3.37,3.37,0,0,0,2.73,2.62Zm0-11.35a3.35,3.35,0,0,0-2.79,3.19H26.64V68.78h12.6Zm14.1,11.35H40.74v-4.7a3.37,3.37,0,0,0,2.73-2.62h9.87Zm0-8.16H43.53a3.36,3.36,0,0,0-2.79-3.19V68.78h12.6ZM40.08,67.55H26.44v-3h1.79v-2H26.44V62H53.59v.57H51.83v2h1.76v3Zm14.65,7.14v-.32h9v.32Zm9-8.53h-9V64.54h9Zm0-3.6h-9V62h9Z" style="fill: #cf5627"/>
          </g>
          <polygon points="10.72 69.87 16.3 60.12 24.44 60.12 21.88 65.42 20.49 66 20.49 68.28 19.73 69.86 10.72 69.87" style="fill: #7ab0a9"/>
          <polygon points="18.22 65.08 50.68 65.08 56.25 55.54 23.76 55.54 18.22 65.08" style="fill: #7ab0a9"/>
          <polygon points="20.87 62.93 26.44 53.39 26.44 55.54 20.87 65.1 20.87 62.93" style="fill: #d38f2c"/>
          <polygon points="52.45 48.64 52.24 55 46.88 64.02 46.88 58.18 52.45 48.64" style="fill: #d2a556"/>
          <polygon points="49.15 62.93 54.73 53.39 54.73 55.54 49.15 65.08 49.15 62.93" style="fill: #4c9f87"/>
          <polygon points="56.25 55.54 55.91 57 50.33 66.54 50.68 65.08 56.25 55.54" style="fill: #d2a556"/>
          <polygon points="49.15 69.87 54.73 60.33 54.73 59.02 50.33 66.54 49.15 66.54 49.15 69.87" style="fill: #7ab0a9"/>
          <polygon points="54.73 60.33 63.77 60.33 58.2 69.87 49.15 69.87 54.73 60.33" style="fill: #7ab0a9"/>
          <polygon points="59.34 66 64.91 56.47 64.91 60.33 59.25 70.08 59.34 66" style="fill: #d2a556"/>
          <polygon points="59.34 94.35 64.91 84.82 64.91 66.03 59.34 71.54 59.34 94.35" style="fill: #fff"/>
          <polygon points="61.09 72.1 66.67 62.56 66.67 64.54 61.09 74.08 61.09 72.1" style="fill: #d5b682"/>
          <polygon points="64.91 60.33 67.5 60.33 61.93 69.87 59.25 69.87 64.91 60.33" style="fill: #7ab0a9"/>
          <rect x="49.15" y="71.53" width="9.04" height="4.18" style="fill: #d38f2c"/>
          <rect x="10.72" y="71.53" width="9.1" height="4.18" style="fill: #d38f2c"/>
          <polygon points="21.07 77.03 26.64 77.03 26.64 83.92 20.87 93.46 21.07 77.03" style="fill: #7ab0a9"/>
          <polygon points="67.5 60.33 67.5 61.99 61.93 71.53 61.93 69.87 67.5 60.33" style="fill: #4c9f87"/>
          <line x1="10.51" y1="71.78" x2="20.3" y2="71.78" style="fill: none;stroke: #fff;stroke-miterlimit: 10;stroke-width: 0.367807802106799px"/>
          <line x1="48.69" y1="71.78" x2="58.23" y2="71.78" style="fill: none;stroke: #fff;stroke-miterlimit: 10;stroke-width: 0.367807802106799px"/>
          <polygon points="6.79 69.87 12.36 60.33 15.15 60.33 9.58 69.87 6.79 69.87" style="fill: #7ab0a9"/>
          <polygon points="48.01 62.93 49.15 62.93 54.73 53.39 53.59 53.39 48.01 62.93" style="fill: #fff"/>
          <g>
            <g>
              <g>
                <line x1="21.07" y1="93.41" x2="47.76" y2="77.93" style="fill: none;stroke: #fff;stroke-miterlimit: 10;stroke-width: 0.04597597526335px"/>
                <line x1="21.06" y1="91.13" x2="43.83" y2="77.92" style="fill: none;stroke: #fff;stroke-miterlimit: 10;stroke-width: 0.04597597526335px"/>
                <line x1="21.04" y1="88.85" x2="39.89" y2="77.92" style="fill: none;stroke: #fff;stroke-miterlimit: 10;stroke-width: 0.04597597526335px"/>
                <line x1="21.03" y1="86.58" x2="35.96" y2="77.92" style="fill: none;stroke: #fff;stroke-miterlimit: 10;stroke-width: 0.04597597526335px"/>
                <line x1="21.02" y1="84.3" x2="32.02" y2="77.92" style="fill: none;stroke: #fff;stroke-miterlimit: 10;stroke-width: 0.04597597526335px"/>
                <line x1="21.01" y1="82.03" x2="28.09" y2="77.92" style="fill: none;stroke: #fff;stroke-miterlimit: 10;stroke-width: 0.04597597526335px"/>
                <line x1="21" y1="79.75" x2="24.15" y2="77.92" style="fill: none;stroke: #fff;stroke-miterlimit: 10;stroke-width: 0.04597597526335px"/>
              </g>
              <g>
                <line x1="47.69" y1="77.93" x2="21" y2="93.4" style="fill: none;stroke: #fff;stroke-miterlimit: 10;stroke-width: 0.04597597526335px"/>
                <line x1="47.7" y1="80.2" x2="24.93" y2="93.4" style="fill: none;stroke: #fff;stroke-miterlimit: 10;stroke-width: 0.04597597526335px"/>
                <line x1="47.71" y1="82.48" x2="28.86" y2="93.4" style="fill: none;stroke: #fff;stroke-miterlimit: 10;stroke-width: 0.04597597526335px"/>
                <line x1="47.73" y1="84.75" x2="32.8" y2="93.4" style="fill: none;stroke: #fff;stroke-miterlimit: 10;stroke-width: 0.04597597526335px"/>
                <line x1="47.74" y1="87.02" x2="36.73" y2="93.4" style="fill: none;stroke: #fff;stroke-miterlimit: 10;stroke-width: 0.04597597526335px"/>
                <line x1="47.75" y1="89.3" x2="40.67" y2="93.4" style="fill: none;stroke: #fff;stroke-miterlimit: 10;stroke-width: 0.04597597526335px"/>
                <line x1="47.76" y1="91.57" x2="44.6" y2="93.41" style="fill: none;stroke: #fff;stroke-miterlimit: 10;stroke-width: 0.04597597526335px"/>
              </g>
            </g>
            <g>
              <g>
                <line x1="47.69" y1="93.41" x2="21" y2="77.93" style="fill: none;stroke: #fff;stroke-miterlimit: 10;stroke-width: 0.04597597526335px"/>
                <line x1="47.7" y1="91.13" x2="24.93" y2="77.92" style="fill: none;stroke: #fff;stroke-miterlimit: 10;stroke-width: 0.04597597526335px"/>
                <line x1="47.71" y1="88.85" x2="28.86" y2="77.92" style="fill: none;stroke: #fff;stroke-miterlimit: 10;stroke-width: 0.04597597526335px"/>
                <line x1="47.73" y1="86.58" x2="32.8" y2="77.92" style="fill: none;stroke: #fff;stroke-miterlimit: 10;stroke-width: 0.04597597526335px"/>
                <line x1="47.74" y1="84.3" x2="36.73" y2="77.92" style="fill: none;stroke: #fff;stroke-miterlimit: 10;stroke-width: 0.04597597526335px"/>
                <line x1="47.75" y1="82.03" x2="40.67" y2="77.92" style="fill: none;stroke: #fff;stroke-miterlimit: 10;stroke-width: 0.04597597526335px"/>
                <line x1="47.76" y1="79.75" x2="44.6" y2="77.92" style="fill: none;stroke: #fff;stroke-miterlimit: 10;stroke-width: 0.04597597526335px"/>
              </g>
              <g>
                <line x1="21.07" y1="77.93" x2="47.76" y2="93.4" style="fill: none;stroke: #fff;stroke-miterlimit: 10;stroke-width: 0.04597597526335px"/>
                <line x1="21.06" y1="80.2" x2="43.83" y2="93.4" style="fill: none;stroke: #fff;stroke-miterlimit: 10;stroke-width: 0.04597597526335px"/>
                <line x1="21.04" y1="82.48" x2="39.89" y2="93.4" style="fill: none;stroke: #fff;stroke-miterlimit: 10;stroke-width: 0.04597597526335px"/>
                <line x1="21.03" y1="84.75" x2="35.96" y2="93.4" style="fill: none;stroke: #fff;stroke-miterlimit: 10;stroke-width: 0.04597597526335px"/>
                <line x1="21.02" y1="87.02" x2="32.02" y2="93.4" style="fill: none;stroke: #fff;stroke-miterlimit: 10;stroke-width: 0.04597597526335px"/>
                <line x1="21.01" y1="89.3" x2="28.09" y2="93.4" style="fill: none;stroke: #fff;stroke-miterlimit: 10;stroke-width: 0.04597597526335px"/>
                <line x1="21" y1="91.57" x2="24.15" y2="93.41" style="fill: none;stroke: #fff;stroke-miterlimit: 10;stroke-width: 0.04597597526335px"/>
              </g>
            </g>
          </g>
          <polygon points="19.73 62.93 25.3 53.39 26.44 53.39 20.87 62.93 19.73 62.93" style="fill: #fff"/>
          <polygon points="9.58 66 10.72 66 16.3 56.47 15.15 56.47 9.58 66" style="fill: #fff"/>
          <polygon points="58.2 66 63.77 56.47 64.91 56.47 59.34 66 58.2 66" style="fill: #fff"/>
          <polygon points="23.42 58.2 28.99 48.64 52.45 48.64 46.88 58.18 23.42 58.2" style="fill: #fff"/>
          <g>
            <path d="M59.08,66.19a.35.35,0,0,1-.35.35h0a.35.35,0,0,1-.35-.35v-.32a.35.35,0,0,1,.35-.35h0a.35.35,0,0,1,.35.35Z" style="fill: #cf5627"/>
            <rect x="48.72" y="83.91" width="9.92" height="8.93" style="fill: #4c9f87"/>
            <rect x="51.99" y="87.04" width="3.45" height="3.45" transform="translate(-47.03 63.98) rotate(-45)" style="fill: none;stroke: #fff;stroke-miterlimit: 10;stroke-width: 0.080917716463495px"/>
            <path d="M9.84,66.08a.35.35,0,0,0,.35.35h0a.35.35,0,0,0,.35-.35v-.31a.35.35,0,0,0-.35-.35h0a.35.35,0,0,0-.35.35Z" style="fill: #cf5627"/>
            <rect x="10.28" y="83.87" width="9.91" height="8.87" style="fill: #4c9f87"/>
            <rect x="10.28" y="75.69" width="9.91" height="8.21" style="fill: #4c9f87"/>
            <rect x="48.72" y="75.69" width="9.91" height="8.21" style="fill: #4c9f87"/>
            <rect x="13.48" y="86.93" width="3.45" height="3.45" transform="translate(-58.25 36.73) rotate(-45.01)" style="fill: none;stroke: #fff;stroke-miterlimit: 10;stroke-width: 0.080917716463495px"/>
            <rect x="22.17" y="57.68" width="1.25" height="0.52" style="fill: #cf5627"/>
            <rect x="21.86" y="57.35" width="0.87" height="0.38" style="fill: #cf5627"/>
            <rect x="21.41" y="57.01" width="0.91" height="0.38" style="fill: #cf5627"/>
            <rect x="21.33" y="56.68" width="0.34" height="0.62" style="fill: #cf5627"/>
            <rect x="45.28" y="57.68" width="1.25" height="0.52" style="fill: #cf5627"/>
            <rect x="45.96" y="57.35" width="0.87" height="0.38" style="fill: #cf5627"/>
            <rect x="46.38" y="57.01" width="0.91" height="0.38" style="fill: #cf5627"/>
            <rect x="47.02" y="56.68" width="0.34" height="0.62" style="fill: #cf5627"/>
            <path d="M20.65,63.12a.4.4,0,0,1-.39.39h0a.4.4,0,0,1-.39-.39v-.35a.39.39,0,0,1,.39-.39h0a.39.39,0,0,1,.39.39Z" style="fill: #cf5627"/>
            <path d="M48.93,63a.39.39,0,0,1-.39.39h0a.39.39,0,0,1-.39-.39v-.35a.4.4,0,0,1,.39-.39h0a.4.4,0,0,1,.39.39Z" style="fill: #cf5627"/>
            <polygon points="50.33 66.54 50.68 65.08 18.19 65.08 18.58 66.54 50.33 66.54" style="fill: #4c9f87"/>
            <rect x="6.79" y="69.87" width="55.14" height="1.66" style="fill: #4c9f87"/>
            <line x1="20.74" y1="69.05" x2="48.47" y2="69.05" style="fill: none;stroke: #4c9f87;stroke-miterlimit: 10;stroke-width: 0.367807802106799px"/>
            <rect x="24.83" y="66.29" width="1.11" height="3.98" style="fill: #4c9f87"/>
            <rect x="42.84" y="66.52" width="1.1" height="3.98" style="fill: #4c9f87"/>
            <rect x="7.82" y="72.1" width="14.83" height="1.98" style="fill: #4c9f87"/>
            <rect x="46.26" y="72.1" width="14.83" height="1.98" style="fill: #4c9f87"/>
            <rect x="9.58" y="66" width="1.14" height="28.35" style="fill: #4c9f87"/>
            <rect x="58.19" y="66" width="1.14" height="28.35" style="fill: #4c9f87"/>
            <rect x="48.01" y="62.93" width="1.14" height="31.43" style="fill: #4c9f87"/>
            <rect x="19.73" y="62.93" width="1.14" height="31.43" style="fill: #4c9f87"/>
            <path d="M34.51,77.08H20.23V94.25H48.6V77.08Zm-.85.85v4.13a3.37,3.37,0,0,0-2.79,3.18h-9.8V77.93ZM21.07,93.41V86.09h9.87a3.36,3.36,0,0,0,2.72,2.62v4.7ZM47.76,77.93v7.31H38a3.37,3.37,0,0,0-2.79-3.18V77.93ZM35.17,93.41v-4.7a3.36,3.36,0,0,0,2.72-2.62h9.87v7.32Z" style="fill: #cf5627"/>
            <rect x="21.99" y="58.18" width="24.89" height="5.85" style="fill: #4c9f87"/>
          </g>
          <g>
            <line x1="23.48" y1="58.17" x2="23.48" y2="64.02" style="fill: none;stroke: #fff;stroke-miterlimit: 10;stroke-width: 0.0919519505267px"/>
            <line x1="25.46" y1="58.17" x2="25.46" y2="64.02" style="fill: none;stroke: #fff;stroke-miterlimit: 10;stroke-width: 0.0919519505267px"/>
            <line x1="27.45" y1="58.17" x2="27.45" y2="64.02" style="fill: none;stroke: #fff;stroke-miterlimit: 10;stroke-width: 0.0919519505267px"/>
            <line x1="29.43" y1="58.17" x2="29.43" y2="64.02" style="fill: none;stroke: #fff;stroke-miterlimit: 10;stroke-width: 0.0919519505267px"/>
            <line x1="31.41" y1="58.17" x2="31.41" y2="64.02" style="fill: none;stroke: #fff;stroke-miterlimit: 10;stroke-width: 0.0919519505267px"/>
            <line x1="33.39" y1="58.17" x2="33.39" y2="64.02" style="fill: none;stroke: #fff;stroke-miterlimit: 10;stroke-width: 0.0919519505267px"/>
            <line x1="35.37" y1="58.17" x2="35.37" y2="64.02" style="fill: none;stroke: #fff;stroke-miterlimit: 10;stroke-width: 0.0919519505267px"/>
            <line x1="37.35" y1="58.17" x2="37.35" y2="64.02" style="fill: none;stroke: #fff;stroke-miterlimit: 10;stroke-width: 0.0919519505267px"/>
            <line x1="39.33" y1="58.17" x2="39.33" y2="64.02" style="fill: none;stroke: #fff;stroke-miterlimit: 10;stroke-width: 0.0919519505267px"/>
            <line x1="41.31" y1="58.17" x2="41.31" y2="64.02" style="fill: none;stroke: #fff;stroke-miterlimit: 10;stroke-width: 0.0919519505267px"/>
            <line x1="43.29" y1="58.17" x2="43.29" y2="64.02" style="fill: none;stroke: #fff;stroke-miterlimit: 10;stroke-width: 0.0919519505267px"/>
            <line x1="45.28" y1="58.17" x2="45.28" y2="64.02" style="fill: none;stroke: #fff;stroke-miterlimit: 10;stroke-width: 0.0919519505267px"/>
          </g>
          <line x1="20.65" y1="69.66" x2="48.15" y2="69.66" style="fill: none;stroke: #fff;stroke-miterlimit: 10;stroke-width: 0.1839039010534px"/>
          <polygon points="20.8 77.08 22.68 74.08 20.88 74.08 20.8 77.08" style="fill: #cf5627"/>
          <polygon points="24.16 71.53 20.8 77.08 48.01 77.08 48.01 74.08 46.29 74.08 46.29 72.1 48.01 72.1 48.01 71.53 24.16 71.53" style="fill: #417666"/>
          <polygon points="22.68 74.08 24.16 71.53 22.68 71.53 22.68 74.08" style="fill: #cf5627"/>
          <polygon points="10.72 66 16.3 56.47 16.3 60.12 10.72 69.87 10.72 66" style="fill: #d2a556"/>
          <rect x="28.42" y="66.29" width="12.32" height="4.41" style="fill: #fff;stroke: #d38f2c;stroke-miterlimit: 10;stroke-width: 0.158246805655724px"/>
          <rect x="43.94" y="66.51" width="4.07" height="2.27" style="fill: #cf5627"/>
          <g>
            <line x1="13.51" y1="75.93" x2="13.51" y2="83.57" style="fill: none;stroke: #fff;stroke-miterlimit: 10;stroke-width: 0.04597597526335px"/>
            <line x1="17.15" y1="75.93" x2="17.15" y2="83.57" style="fill: none;stroke: #fff;stroke-miterlimit: 10;stroke-width: 0.04597597526335px"/>
            <line x1="19.73" y1="78.41" x2="10.51" y2="78.41" style="fill: none;stroke: #fff;stroke-miterlimit: 10;stroke-width: 0.04597597526335px"/>
            <line x1="19.73" y1="81.09" x2="10.51" y2="81.09" style="fill: none;stroke: #fff;stroke-miterlimit: 10;stroke-width: 0.04597597526335px"/>
          </g>
          <g>
            <line x1="52.1" y1="75.93" x2="52.1" y2="83.57" style="fill: none;stroke: #fff;stroke-miterlimit: 10;stroke-width: 0.04597597526335px"/>
            <line x1="55.75" y1="75.93" x2="55.75" y2="83.57" style="fill: none;stroke: #fff;stroke-miterlimit: 10;stroke-width: 0.04597597526335px"/>
            <line x1="58.32" y1="78.41" x2="49.1" y2="78.41" style="fill: none;stroke: #fff;stroke-miterlimit: 10;stroke-width: 0.04597597526335px"/>
            <line x1="58.32" y1="81.09" x2="49.1" y2="81.09" style="fill: none;stroke: #fff;stroke-miterlimit: 10;stroke-width: 0.04597597526335px"/>
          </g>
          <line x1="10.72" y1="84.01" x2="19.71" y2="84.01" style="fill: none;stroke: #fff;stroke-miterlimit: 10;stroke-width: 0.0919519505267px"/>
          <line x1="49.18" y1="84.01" x2="58.17" y2="84.01" style="fill: none;stroke: #fff;stroke-miterlimit: 10;stroke-width: 0.0919519505267px"/>
        </g>
        <g>
          <polygon points="57.68 110.29 60.55 107.01 72.47 107.01 69.6 110.29 57.68 110.29" style="fill: #5dc2a5"/>
          <g>
            <polygon points="57.1 109.13 59.94 105.9 73.05 105.9 70.22 109.13 57.1 109.13" style="fill: #5dc2a5"/>
            <path d="M72.4,106.19l-2.32,2.65H57.76l2.31-2.65H72.4m1.3-.59H59.8l-3.35,3.83h13.9l3.35-3.83Z" style="fill: #92d3ca"/>
          </g>
          <polygon points="56.45 109.43 57.68 110.29 69.6 110.29 70.35 109.43 56.45 109.43" style="fill: #3f8a77"/>
          <g>
            <path d="M64.59,105.72c-.15.68-.7,1.27-2.14,1.27s-2-.6-2.15-1.27c-.28-1.13,1-1.27,2.15-1.27S64.83,104.64,64.59,105.72Z" style="fill: #f2652d"/>
            <path d="M61,106.38a.13.13,0,0,1-.09.14h0a.11.11,0,0,1-.13-.08l-.13-.48a.11.11,0,0,1,.08-.14h0a.11.11,0,0,1,.14.08Z" style="fill: #c35123"/>
            <path d="M61.55,106.61a.11.11,0,0,1-.1.13h0a.11.11,0,0,1-.13-.1l-.06-.49a.11.11,0,0,1,.09-.13h0a.12.12,0,0,1,.13.1Z" style="fill: #c35123"/>
            <path d="M62.11,106.73a.11.11,0,0,1-.11.12h0a.13.13,0,0,1-.12-.11v-.49a.11.11,0,0,1,.11-.12h0a.12.12,0,0,1,.12.11Z" style="fill: #c35123"/>
            <path d="M62.73,106.75a.11.11,0,0,1-.11.11h0a.11.11,0,0,1-.12-.11v-.49a.11.11,0,0,1,.11-.12h0a.12.12,0,0,1,.12.12Z" style="fill: #c35123"/>
            <path d="M63.38,106.68a.11.11,0,0,1-.13.1h0a.11.11,0,0,1-.1-.12l.05-.49a.12.12,0,0,1,.12-.11h0a.13.13,0,0,1,.11.13Z" style="fill: #c35123"/>
            <path d="M64,106.49a.11.11,0,0,1-.14.08h0a.11.11,0,0,1-.08-.13l.12-.49a.12.12,0,0,1,.14-.08h0a.11.11,0,0,1,.08.14Z" style="fill: #c35123"/>
            <path d="M64.89,105.3a1,1,0,0,1-.33.51c-.2.21-.37.14-.6.23s-.17.15-.27.21a.37.37,0,0,1-.34,0,.78.78,0,0,0-.37,0c-.11,0-.18.14-.29.18-.33.11-.57-.23-.88-.2-.15,0-.28.1-.43.07s-.22-.16-.34-.22-.3,0-.46-.07-.19-.12-.29-.23-.46-.28-.34-.65.18-.24.36-.35.16-.19.26-.25c.26-.19.59-.06.87-.2a2.17,2.17,0,0,1,.94-.13,6.87,6.87,0,0,1,.79,0,2,2,0,0,1,.35.07c.11,0,.17.13.3.15s.25,0,.37,0,.3.24.46.33A.44.44,0,0,1,64.89,105.3Z" style="fill: #f5c064"/>
            <path d="M64.27,105.12c0,.42-.82.77-1.82.77s-1.83-.35-1.83-.77.82-.77,1.83-.77S64.27,104.7,64.27,105.12Z" style="fill: #f6a733"/>
            <path d="M63.36,104.56a3,3,0,0,1,.85.36,2.26,2.26,0,0,0-1.76-.57c-1,0-1.83.35-1.83.77v0C61,104.56,62.56,104.36,63.36,104.56Z" style="fill: #f8d497"/>
          </g>
          <g>
            <path d="M70.71,106.09c-.15.68-.7,1.28-2.15,1.28s-2-.6-2.15-1.28c-.28-1.12,1-1.27,2.15-1.27S71,105,70.71,106.09Z" style="fill: #f2652d"/>
            <path d="M67.14,106.75a.11.11,0,0,1-.08.14h0a.11.11,0,0,1-.14-.08l-.12-.48a.11.11,0,0,1,.08-.14h0a.12.12,0,0,1,.14.09Z" style="fill: #c35123"/>
            <path d="M67.66,107a.11.11,0,0,1-.1.13h0a.12.12,0,0,1-.12-.1l-.07-.49a.11.11,0,0,1,.1-.13h0a.11.11,0,0,1,.13.1Z" style="fill: #c35123"/>
            <path d="M68.23,107.11a.13.13,0,0,1-.11.12h0a.11.11,0,0,1-.12-.11l0-.5a.13.13,0,0,1,.12-.12h0a.11.11,0,0,1,.11.11Z" style="fill: #c35123"/>
            <path d="M68.85,107.13a.11.11,0,0,1-.12.11h0a.11.11,0,0,1-.11-.11v-.5a.11.11,0,0,1,.12-.11h0a.11.11,0,0,1,.11.11Z" style="fill: #c35123"/>
            <path d="M69.49,107.06a.11.11,0,0,1-.12.1h0a.11.11,0,0,1-.1-.13l0-.49a.12.12,0,0,1,.13-.1h0a.11.11,0,0,1,.1.12Z" style="fill: #c35123"/>
            <path d="M70.1,106.86A.12.12,0,0,1,70,107h0a.11.11,0,0,1-.08-.14l.12-.48a.1.1,0,0,1,.13-.08h0a.11.11,0,0,1,.09.13Z" style="fill: #c35123"/>
            <path d="M71,105.68a1,1,0,0,1-.32.51c-.21.21-.38.13-.6.22s-.17.16-.27.22-.22,0-.35,0a.77.77,0,0,0-.37,0c-.11,0-.18.15-.29.18-.33.11-.57-.22-.88-.2-.15,0-.27.11-.43.08s-.21-.16-.33-.23-.3,0-.47-.07-.19-.11-.29-.22-.45-.28-.34-.65.19-.24.37-.36.16-.18.25-.24c.27-.19.6-.06.88-.2a2,2,0,0,1,.94-.13,7,7,0,0,1,.79,0,1,1,0,0,1,.34.07c.11,0,.18.13.3.15a1,1,0,0,1,.38,0c.16.08.29.24.45.33A.43.43,0,0,1,71,105.68Z" style="fill: #f5c064"/>
            <path d="M70.39,105.5c0,.42-.82.76-1.83.76s-1.83-.34-1.83-.76.82-.77,1.83-.77S70.39,105.07,70.39,105.5Z" style="fill: #f6a733"/>
            <path d="M69.48,104.94a2.51,2.51,0,0,1,.84.35,2.3,2.3,0,0,0-1.76-.56c-1,0-1.83.34-1.83.77v0C67.12,104.94,68.67,104.74,69.48,104.94Z" style="fill: #f8d497"/>
          </g>
          <g>
            <path d="M67.24,107.63c-.15.68-.7,1.28-2.14,1.28s-2-.6-2.15-1.28c-.28-1.12,1-1.27,2.15-1.27S67.49,106.55,67.24,107.63Z" style="fill: #f2652d"/>
            <path d="M63.68,108.29a.12.12,0,0,1-.08.14h0a.11.11,0,0,1-.14-.08l-.13-.48a.12.12,0,0,1,.08-.14h0a.12.12,0,0,1,.14.08Z" style="fill: #c35123"/>
            <path d="M64.2,108.53a.11.11,0,0,1-.1.12h0a.11.11,0,0,1-.13-.09l-.06-.49a.11.11,0,0,1,.1-.13h0a.1.1,0,0,1,.12.1Z" style="fill: #c35123"/>
            <path d="M64.76,108.65a.11.11,0,0,1-.11.11h0c-.06,0-.11,0-.12-.11v-.49a.12.12,0,0,1,.11-.12h0a.12.12,0,0,1,.12.11Z" style="fill: #c35123"/>
            <path d="M65.38,108.67a.11.11,0,0,1-.11.11h0a.12.12,0,0,1-.12-.12v-.49a.11.11,0,0,1,.11-.11h0a.11.11,0,0,1,.12.11Z" style="fill: #c35123"/>
            <path d="M66,108.59a.12.12,0,0,1-.13.11h0a.12.12,0,0,1-.1-.13l0-.49A.11.11,0,0,1,66,108h0a.11.11,0,0,1,.1.12Z" style="fill: #c35123"/>
            <path d="M66.63,108.4a.11.11,0,0,1-.13.09h0a.13.13,0,0,1-.09-.14l.12-.48a.11.11,0,0,1,.14-.08h0a.1.1,0,0,1,.08.13Z" style="fill: #c35123"/>
            <path d="M67.54,107.22a1,1,0,0,1-.33.51c-.2.21-.37.13-.6.22s-.16.16-.27.22a.45.45,0,0,1-.34,0,.78.78,0,0,0-.37,0c-.11,0-.18.15-.29.18-.33.11-.57-.22-.88-.2-.15,0-.28.11-.43.08s-.22-.16-.34-.23-.3,0-.46-.07-.19-.12-.29-.22-.46-.29-.34-.65.18-.24.36-.36.16-.18.26-.25c.27-.18.59,0,.87-.19a2,2,0,0,1,.94-.13,6.87,6.87,0,0,1,.79,0,1,1,0,0,1,.35.07c.11,0,.17.13.3.14s.25,0,.37,0,.3.23.46.33A.43.43,0,0,1,67.54,107.22Z" style="fill: #f5c064"/>
            <path d="M66.92,107c0,.43-.81.77-1.82.77s-1.83-.34-1.83-.77.82-.76,1.83-.76S66.92,106.61,66.92,107Z" style="fill: #f6a733"/>
            <path d="M66,106.48a2.54,2.54,0,0,1,.85.35,2.3,2.3,0,0,0-1.76-.56c-1,0-1.83.34-1.83.76v0C63.66,106.48,65.21,106.28,66,106.48Z" style="fill: #f8d497"/>
          </g>
          <g>
            <ellipse cx="61.55" cy="105.14" rx="0.61" ry="0.24" style="fill: #f8d497"/>
            <ellipse cx="61.99" cy="105.52" rx="0.25" ry="0.1" style="fill: #f8d497"/>
          </g>
          <g>
            <ellipse cx="64.15" cy="107.13" rx="0.61" ry="0.24" style="fill: #f8d497"/>
            <ellipse cx="64.6" cy="107.51" rx="0.25" ry="0.1" style="fill: #f8d497"/>
          </g>
          <g>
            <ellipse cx="67.62" cy="105.59" rx="0.61" ry="0.24" style="fill: #f8d497"/>
            <ellipse cx="68.06" cy="105.97" rx="0.25" ry="0.1" style="fill: #f8d497"/>
          </g>
        </g>
        <g>
          <polygon points="62.15 117.69 65.02 114.41 76.94 114.41 74.06 117.69 62.15 117.69" style="fill: #5dc2a5"/>
          <g>
            <polygon points="61.57 116.54 64.4 113.31 77.52 113.31 74.68 116.54 61.57 116.54" style="fill: #5dc2a5"/>
            <path d="M76.86,113.6l-2.31,2.65H62.22l2.32-2.65H76.86m1.31-.59H64.27l-3.35,3.83h13.9L78.17,113Z" style="fill: #92d3ca"/>
          </g>
          <polygon points="60.92 116.84 62.15 117.69 74.06 117.69 74.82 116.84 60.92 116.84" style="fill: #3f8a77"/>
          <g>
            <path d="M66.15,116.22h-1a.68.68,0,0,1-.49-1.15l3.13-3.23a.71.71,0,0,1,.49-.21h1a.68.68,0,0,1,.49,1.15L66.64,116A.65.65,0,0,1,66.15,116.22Z" style="fill: #f8d497"/>
            <rect x="64.62" y="115.31" width="1.79" height="0.75" rx="0.37" style="fill: #f6a733"/>
            <rect x="65.04" y="115.48" width="0.97" height="0.4" rx="0.2" style="fill: #f2652d"/>
            <path d="M69.87,112l-3.16,3.34a.62.62,0,0,1,.12.35.78.78,0,0,1,0,.16l3-3.06A.66.66,0,0,0,69.87,112Z" style="fill: #f6a733"/>
          </g>
          <path d="M64.85,115.2l-.06,0s.13-.3.26-.44l1-1c0-.05.07-.07.08-.06l.06,0s-.13.3-.26.44l-1,1.05S64.86,115.21,64.85,115.2Z" style="fill: #fff"/>
          <g>
            <path d="M69,116.22h-1a.68.68,0,0,1-.48-1.15l3.13-3.23a.69.69,0,0,1,.49-.21h1a.68.68,0,0,1,.48,1.15L69.43,116A.63.63,0,0,1,69,116.22Z" style="fill: #f8d497"/>
            <rect x="67.42" y="115.31" width="1.79" height="0.75" rx="0.37" style="fill: #f6a733"/>
            <rect x="67.83" y="115.48" width="0.97" height="0.4" rx="0.2" style="fill: #f2652d"/>
            <path d="M72.67,112l-3.17,3.34a.56.56,0,0,1,.13.35.41.41,0,0,1,0,.16l3-3.06A.66.66,0,0,0,72.67,112Z" style="fill: #f6a733"/>
          </g>
          <g>
            <path d="M71.73,116.22h-1a.68.68,0,0,1-.49-1.15l3.13-3.23a.71.71,0,0,1,.49-.21h1a.68.68,0,0,1,.49,1.15L72.22,116A.65.65,0,0,1,71.73,116.22Z" style="fill: #f8d497"/>
            <rect x="70.2" y="115.31" width="1.79" height="0.75" rx="0.37" style="fill: #f6a733"/>
            <rect x="70.62" y="115.48" width="0.97" height="0.4" rx="0.2" style="fill: #f2652d"/>
            <path d="M75.45,112l-3.17,3.34a.56.56,0,0,1,.13.35.41.41,0,0,1,0,.16l3-3.06A.66.66,0,0,0,75.45,112Z" style="fill: #f6a733"/>
          </g>
          <path d="M67.67,115.2l-.06,0s.13-.3.27-.44l1-1c0-.05.07-.07.09-.06l.06,0s-.13.3-.27.44l-1,1.05S67.68,115.21,67.67,115.2Z" style="fill: #fff"/>
          <path d="M70.42,115.31l-.06,0s.13-.29.27-.43l1-1s.07-.07.08-.06l.06,0s-.13.3-.27.44l-1,1A.21.21,0,0,1,70.42,115.31Z" style="fill: #fff"/>
        </g>
        <g>
          <g>
            <path d="M36,100.87a.37.37,0,0,0-.37-.36.34.34,0,0,0-.27.12l0-1-.59,0,0,1a.37.37,0,0,0-.33.36.31.31,0,0,0,.06.19h-.19a.36.36,0,0,0,.11-.25.37.37,0,0,0-.37-.37.36.36,0,0,0-.32.2.28.28,0,0,0-.17.13.4.4,0,0,0-.27-.12.38.38,0,0,0-.37.37s0,0,0,0h-.11v3.22H36v-3.22h-.09A.35.35,0,0,0,36,100.87Z" style="fill: #5dc2a5"/>
            <rect x="36.1" y="103.22" width="3.13" height="1.57" style="fill: #5dc2a5"/>
            <path d="M38.54,101.58c.07-.12.09-.23,0-.3a.2.2,0,0,0-.15-.07l0-.88-.58,0-.05,1.12c-.07-.19-.19-.31-.31-.29s-.22.22-.2.45h0v0c0-.25-.19-.44-.34-.42a.19.19,0,0,0-.11.07.27.27,0,0,0-.29,0,.21.21,0,0,0-.18-.08c-.14,0-.22.22-.2.45H36.1v1.56h3.14v-1.56Z" style="fill: #5dc2a5"/>
          </g>
          <polygon points="34.42 103.03 35.95 101.15 35.95 103.8 34.42 105.88 34.42 103.03" style="fill: #489a83"/>
          <rect x="28.47" y="103.46" width="0.59" height="1.66" transform="translate(-28.58 12.56) rotate(-16.59)" style="fill: #fff"/>
          <rect x="35.77" y="102.73" width="1.66" height="0.58" transform="translate(-68.01 134.79) rotate(-87.34)" style="fill: #fff"/>
          <rect x="32.71" y="102" width="1.66" height="0.59" transform="translate(-70.18 131.09) rotate(-87.36)" style="fill: #fff"/>
          <path d="M29.5,104.62a.31.31,0,0,1-.61,0,.31.31,0,1,1,.61,0Z" style="fill: #f6a733"/>
          <path d="M30.19,104.62a.29.29,0,0,1-.3.3.3.3,0,0,1-.31-.3.31.31,0,0,1,.31-.31A.3.3,0,0,1,30.19,104.62Z" style="fill: #f6a733"/>
          <path d="M30.93,104.64a.31.31,0,1,1-.3-.3A.3.3,0,0,1,30.93,104.64Z" style="fill: #f6a733"/>
          <path d="M29.22,104.83a.31.31,0,1,1-.61,0,.31.31,0,0,1,.61,0Z" style="fill: #f8d497"/>
          <path d="M30,104.81a.3.3,0,1,1-.3-.3A.3.3,0,0,1,30,104.81Z" style="fill: #f8d497"/>
          <path d="M30.71,104.75a.3.3,0,1,1-.6,0,.3.3,0,1,1,.6,0Z" style="fill: #f8d497"/>
          <path d="M32.12,103a.36.36,0,0,1-.37.37.37.37,0,0,1-.37-.37.38.38,0,0,1,.37-.37A.37.37,0,0,1,32.12,103Z" style="fill: #5dc2a5"/>
          <path d="M32.88,102.78a.37.37,0,1,1-.37-.37A.37.37,0,0,1,32.88,102.78Z" style="fill: #5dc2a5"/>
          <circle cx="33.27" cy="102.84" r="0.37" style="fill: #5dc2a5"/>
          <path d="M34.46,102.75a.36.36,0,0,1-.37.37.37.37,0,1,1,0-.73A.36.36,0,0,1,34.46,102.75Z" style="fill: #5dc2a5"/>
          <path d="M32.68,103a.37.37,0,1,1-.36-.37A.37.37,0,0,1,32.68,103Z" style="fill: #92d3ca"/>
          <path d="M33.88,103a.37.37,0,0,1-.37.37.37.37,0,1,1,0-.73A.37.37,0,0,1,33.88,103Z" style="fill: #92d3ca"/>
          <rect x="28.06" y="104.85" width="3.13" height="1.57" style="fill: #fff"/>
          <rect x="31.28" y="104.68" width="3.13" height="1.57" style="fill: #fff"/>
          <rect x="31.28" y="103.03" width="3.13" height="1.57" style="fill: #f8d497"/>
          <rect x="31.28" y="104.6" width="3.13" height="0.08" style="fill: #676352"/>
          <path d="M35.16,103.43c0,.26,0,.49-.19.51s-.3-.16-.34-.42,0-.49.19-.51S35.12,103.18,35.16,103.43Z" style="fill: #f2652d"/>
          <path d="M35.75,103.43c0,.26,0,.49-.19.51s-.3-.16-.34-.42,0-.49.19-.51S35.71,103.18,35.75,103.43Z" style="fill: #f2652d"/>
          <path d="M36.32,103.43c0,.26,0,.49-.19.51s-.29-.16-.34-.42.05-.49.19-.51S36.28,103.18,36.32,103.43Z" style="fill: #f2652d"/>
          <path d="M36.92,103.42c0,.25-.05.48-.19.5s-.3-.16-.34-.42,0-.48.19-.51S36.88,103.16,36.92,103.42Z" style="fill: #f2652d"/>
          <path d="M35.52,103.24c.18.19.24.42.14.52s-.34,0-.52-.15-.25-.42-.14-.52S35.34,103.05,35.52,103.24Z" style="fill: #f8d497"/>
          <path d="M36.82,103.66c-.2.15-.44.19-.53.07s0-.34.21-.5.44-.19.53-.07S37,103.5,36.82,103.66Z" style="fill: #f8d497"/>
          <rect x="34.57" y="105.1" width="3.13" height="1.57" style="fill: #f5c064"/>
          <rect x="34.57" y="103.46" width="3.13" height="1.57" style="fill: #fff"/>
          <rect x="34.57" y="105.02" width="3.18" height="0.09" style="fill: #676352"/>
          <rect x="35.56" y="104.17" width="0.59" height="1.66" transform="translate(-22.86 10.85) rotate(-13.1)" style="fill: #92d3ca"/>
          <path d="M34.78,106c-.13.12-.38,0-.55-.15s-.21-.45-.08-.57.38-.05.55.15S34.92,105.9,34.78,106Z" style="fill: #f6a733"/>
          <path d="M35.67,105.94c-.13.11-.38,0-.56-.15s-.21-.45-.08-.57.38,0,.56.15S35.8,105.82,35.67,105.94Z" style="fill: #f6a733"/>
          <path d="M36.43,106c-.13.12-.38,0-.55-.15s-.21-.45-.08-.57.38,0,.55.15S36.57,105.85,36.43,106Z" style="fill: #f6a733"/>
          <path d="M34.43,106.12c-.13.11-.37,0-.55-.15s-.21-.45-.08-.57.38-.05.55.15S34.57,106,34.43,106.12Z" style="fill: #f8d497"/>
          <path d="M35.2,106.1c-.13.12-.38.05-.56-.15s-.21-.45-.08-.57.38,0,.56.15S35.33,106,35.2,106.1Z" style="fill: #f8d497"/>
          <path d="M36,106.12c-.13.11-.38,0-.56-.15s-.21-.45-.08-.57.38-.05.56.15S36.11,106,36,106.12Z" style="fill: #f8d497"/>
          <path d="M36.74,106.1c-.13.12-.38.05-.55-.15s-.21-.45-.08-.57.38,0,.55.15S36.87,106,36.74,106.1Z" style="fill: #f8d497"/>
          <rect x="33.73" y="105.81" width="3.13" height="1.57" style="fill: #fff"/>
          <polygon points="40.57 96.51 40.57 94.99 29.93 94.99 29.93 96.51 29.78 96.51 29.78 96.69 29.93 96.69 29.93 97.25 30.19 97.25 30.19 104.26 30.59 104.26 30.59 97.25 39.88 97.25 39.88 104.26 40.28 104.26 40.28 97.25 40.57 97.25 40.57 96.69 40.72 96.69 40.72 96.51 40.57 96.51" style="fill: #5dc2a5"/>
          <polygon points="38.01 97.93 38.01 99.44 40.57 96.51 40.57 94.99 38.01 97.93" style="fill: #f2652d"/>
          <polygon points="38.16 99.44 40.72 96.51 40.72 96.69 38.16 99.63 38.16 99.44" style="fill: #f6a733"/>
          <g>
            <path d="M33.72,102.22V102a.37.37,0,0,0-.37-.37H31.91a.37.37,0,0,0-.37.37v.18Z" style="fill: #f2652d"/>
            <path d="M33.07,101.59a.11.11,0,0,1-.11.11h-.62a.12.12,0,0,1-.12-.11h0a.12.12,0,0,1,.12-.12H33a.11.11,0,0,1,.11.12Z" style="fill: #f6a733"/>
            <rect x="32.52" y="101.18" width="0.26" height="0.32" style="fill: #5dc2a5"/>
            <line x1="32.65" y1="101.22" x2="32.65" y2="99.94" style="fill: none;stroke: #5dc2a5;stroke-miterlimit: 10;stroke-width: 0.074108046871993px"/>
          </g>
          <g>
            <path d="M37.19,101.51v-.19a.37.37,0,0,0-.37-.37H35.38a.37.37,0,0,0-.36.37v.19Z" style="fill: #f2652d"/>
            <path d="M36.54,100.87a.12.12,0,0,1-.11.12h-.62a.12.12,0,0,1-.11-.12h0a.11.11,0,0,1,.11-.11h.62a.11.11,0,0,1,.11.11Z" style="fill: #f6a733"/>
            <rect x="35.99" y="100.46" width="0.26" height="0.32" style="fill: #5dc2a5"/>
            <line x1="36.12" y1="100.51" x2="36.12" y2="99.23" style="fill: none;stroke: #5dc2a5;stroke-miterlimit: 10;stroke-width: 0.074108046871993px"/>
          </g>
          <polygon points="38.16 99.44 38.01 99.44 40.57 96.51 40.72 96.51 38.16 99.44" style="fill: #fff"/>
          <polygon points="38.01 100.18 40.57 97.25 40.57 96.86 38.16 99.63 38.01 99.63 38.01 100.18" style="fill: #f2652d"/>
          <polygon points="27.36 97.93 29.93 94.99 40.57 94.99 38.01 97.93 27.36 97.93" style="fill: #f6a733"/>
          <g>
            <path d="M30.79,102.22V102a.37.37,0,0,0-.37-.37H29a.36.36,0,0,0-.37.37v.18Z" style="fill: #f2652d"/>
            <path d="M30.14,101.59a.11.11,0,0,1-.12.11h-.61a.11.11,0,0,1-.12-.11h0a.12.12,0,0,1,.12-.12H30a.12.12,0,0,1,.12.12Z" style="fill: #f6a733"/>
            <rect x="29.58" y="101.18" width="0.26" height="0.32" style="fill: #5dc2a5"/>
            <line x1="29.72" y1="101.22" x2="29.72" y2="99.94" style="fill: none;stroke: #5dc2a5;stroke-miterlimit: 10;stroke-width: 0.074108046871993px"/>
          </g>
          <polygon points="37.52 103.46 39.23 101.58 39.23 104.79 37.52 106.59 37.52 103.46" style="fill: #f6a733"/>
          <g>
            <rect x="27.62" y="99.88" width="0.4" height="7.3" style="fill: #f8d497"/>
            <rect x="37.32" y="99.88" width="0.4" height="7.3" style="fill: #f8d497"/>
            <rect x="27.36" y="97.93" width="10.65" height="1.65" style="fill: #f2652d"/>
            <rect x="27.36" y="99.62" width="10.65" height="0.56" style="fill: #f6a733"/>
            <rect x="27.21" y="99.44" width="10.94" height="0.18" style="fill: #fff"/>
          </g>
        </g>
        <g>
          <path d="M53.4,106.28a.43.43,0,0,0,0-.25.22.22,0,0,0-.09-.1v0a.37.37,0,0,0,0-.31v-.35h0v-3.09h-.05c.11-.14.16-.29-.07-.39a.54.54,0,0,0-.34,0c0-.13,0-.25-.21-.26a.57.57,0,0,0-.37.19s0,0,0,0a.92.92,0,0,0-.84.44h-.14l-.51,1.4a1.11,1.11,0,0,0-1.09,1.38l.86,1.34v.49a.21.21,0,0,0-.11,0,.57.57,0,0,0-.44.24l-.23,0a1.7,1.7,0,0,0-.41,0c-.49,0-.88.16-.88.36s.31.32.71.36a1.58,1.58,0,0,0,.88.21,2.44,2.44,0,0,0,.48-.05V108l.59,1.71L53.42,108v-1.68Z" style="fill: #5dc2a5"/>
          <polygon points="54.74 99.66 54.74 98.06 43.53 98.06 43.53 99.66 43.38 99.66 43.38 99.85 43.53 99.85 43.53 100.44 43.81 100.44 43.81 107.81 44.23 107.81 44.23 100.44 54.02 100.44 54.02 107.81 54.44 107.81 54.44 100.44 54.74 100.44 54.74 99.85 54.9 99.85 54.9 99.66 54.74 99.66" style="fill: #f6a733"/>
          <path d="M48.89,105.19c-.11-.25.6-.62.83-.53s0,.47-.16.6-.86.31-.63-.16" style="fill: #5dc2a5"/>
          <path d="M49.84,105.24c-.1-.26.6-.63.84-.53s0,.47-.16.6-.86.31-.63-.16" style="fill: #5dc2a5"/>
          <path d="M49.5,105.24c-.18-.21.37-.78.63-.76s.16.44,0,.62-.72.56-.65,0" style="fill: #92d3ca"/>
          <path d="M47.69,110.24c0,.2-.4.36-.88.36s-.87-.16-.87-.36.39-.36.87-.36S47.69,110,47.69,110.24Z" style="fill: #92d3ca"/>
          <path d="M48.56,110.36c0,.25-.47.45-1,.45s-1-.2-1-.45.47-.46,1-.46S48.56,110.11,48.56,110.36Z" style="fill: #5dc2a5"/>
          <path d="M48,110.31c-.15.26-.42.48-.65.4s-.11-.24-.07-.41.36-.65.66-.63S48.12,110,48,110.31Z" style="fill: #92d3ca"/>
          <rect x="48.75" y="105.1" width="2.05" height="0.99" style="fill: #f8d497"/>
          <rect x="48.75" y="106.09" width="2.05" height="1.07" style="fill: #f6a733"/>
          <rect x="48.75" y="107.16" width="2.05" height="1.03" style="fill: #f8d497"/>
          <rect x="48.75" y="108.19" width="2.05" height="2.13" style="fill: #f6a733"/>
          <path d="M49.47,109.15a.59.59,0,0,0,.23-.65c-.17-.3-.25.09-.47,0s0-.08-.09-.12c-.3-.22-.47.09-.45.42A.5.5,0,0,0,49.47,109.15Z" style="fill: #5dc2a5"/>
          <path d="M50.57,109.17c.17-.12.34-.44.22-.64s-.25.08-.46,0,0-.07-.09-.12c-.3-.22-.48.09-.45.42A.5.5,0,0,0,50.57,109.17Z" style="fill: #5dc2a5"/>
          <path d="M48.84,109.59c.17-.12.34-.44.23-.64s-.25.08-.47,0,0-.07-.09-.12c-.3-.22-.47.09-.44.42A.49.49,0,0,0,48.84,109.59Z" style="fill: #f5c064"/>
          <path d="M49.73,109.61c.17-.12.34-.43.22-.64s-.25.08-.46,0,0-.07-.09-.11c-.3-.23-.47.08-.45.41A.49.49,0,0,0,49.73,109.61Z" style="fill: #92d3ca"/>
          <path d="M50.66,109.61a.58.58,0,0,0,.23-.64c-.17-.3-.26.08-.47,0s0-.07-.09-.11c-.3-.23-.47.08-.45.41A.49.49,0,0,0,50.66,109.61Z" style="fill: #f5c064"/>
          <rect x="48" y="109.21" width="2.94" height="1.68" style="fill: #e6e7e8"/>
          <path d="M45.05,105.37c.12-.16.29-.53-.08-.5-.21,0-.23.34-.46.18,0,0,0-.17-.09-.21s-.12,0-.21.07,0,.13-.14.13-.19-.13-.25-.17-.44-.21-.32.09c-.1,0-.33-.09-.43,0a.28.28,0,0,0,0,.43c.23.1.27-.15.42-.17s.08.29.28.32.06-.25.25-.23.1.19.17.22.06,0,.16-.13.17-.07.35,0,.25.09.3-.11" style="fill: #5dc2a5"/>
          <path d="M44.83,105.13c.1-.14.23-.44-.07-.41s-.18.28-.36.14,0-.13-.08-.17-.09,0-.17.06,0,.1-.11.11-.16-.11-.21-.14-.36-.18-.25.07c-.09,0-.27-.07-.35,0a.22.22,0,0,0,0,.34c.18.09.22-.12.33-.14s.07.24.23.27.05-.2.21-.19.08.15.13.18,0,0,.14-.1.13-.06.28,0,.2.08.24-.09" style="fill: #f5c064"/>
          <path d="M45.12,107c.12-.16.29-.53-.09-.51-.2,0-.22.35-.45.19,0,0,0-.17-.09-.21s-.12,0-.21.07,0,.12-.14.13-.19-.13-.25-.18-.44-.21-.32.1c-.1,0-.33-.09-.43,0a.28.28,0,0,0,0,.43c.22.1.27-.15.42-.18s.08.29.28.33.06-.25.25-.23.1.19.17.22.06,0,.16-.13.17-.07.35,0,.25.09.3-.11" style="fill: #5dc2a5"/>
          <path d="M44.9,106.74c.1-.14.23-.44-.07-.42s-.18.29-.36.15,0-.13-.08-.17-.09,0-.17.06,0,.1-.11.11-.16-.11-.21-.15-.35-.17-.25.08c-.09,0-.27-.07-.35,0a.22.22,0,0,0,0,.34c.18.09.22-.12.33-.14s.07.24.23.27.05-.2.21-.19.08.15.13.18,0,0,.14-.11.13,0,.28,0,.2.07.24-.09" style="fill: #92d3ca"/>
          <path d="M45.21,108.4c.12-.16.29-.53-.08-.5-.2,0-.23.34-.45.18-.06,0,0-.17-.09-.21s-.12,0-.21.07,0,.13-.15.13-.19-.13-.25-.17-.44-.21-.31.09c-.11,0-.34-.09-.43,0a.28.28,0,0,0,0,.43c.23.1.28-.15.42-.18s.08.3.28.33.06-.25.25-.23.1.19.17.22.06,0,.17-.13.16-.07.35,0,.24.09.29-.11" style="fill: #5dc2a5"/>
          <path d="M45,108.16c.09-.14.23-.44-.07-.41s-.19.28-.37.14,0-.13-.07-.17-.1,0-.18.06,0,.1-.11.11-.15-.11-.21-.14-.35-.18-.25.07c-.09,0-.27-.07-.35,0a.22.22,0,0,0,0,.34c.18.09.22-.12.34-.14s.06.24.22.27.06-.2.21-.19.08.15.14.18,0,0,.13-.1.14-.06.28,0,.2.08.25-.09" style="fill: #f5c064"/>
          <rect x="42.98" y="105.26" width="2.4" height="0.44" style="fill: #fff"/>
          <rect x="42.93" y="106.89" width="2.47" height="0.42" style="fill: #fff"/>
          <rect x="42.95" y="108.31" width="2.47" height="0.56" style="fill: #fff"/>
          <g>
            <rect x="42.6" y="104.3" width="0.19" height="6.2" style="fill: #f6a733"/>
            <rect x="42.53" y="104.26" width="3.33" height="0.23" style="fill: #f6a733"/>
            <rect x="45.56" y="104.39" width="0.16" height="6.48" style="fill: #f6a733"/>
            <rect x="42.51" y="105.61" width="3.38" height="0.16" style="fill: #f6a733"/>
            <rect x="42.51" y="107.24" width="3.38" height="0.16" style="fill: #f6a733"/>
            <rect x="42.46" y="108.82" width="3.4" height="0.16" style="fill: #f6a733"/>
          </g>
          <path d="M44,109.27c.26-.27,0-.67-.24-.84a.78.78,0,0,0-.32-.12c-.32,0-.14.11-.26.3s-.17,0-.3-.06-.28,0-.28.21.53.2.72.07c-.17.11-.22.45,0,.52s.22-.15.36-.27c0,.06,0,.3.07.33s.24-.13.26-.24" style="fill: #5dc2a5"/>
          <path d="M44.82,109.24c.26-.27,0-.67-.24-.83a.63.63,0,0,0-.32-.12c-.32,0-.13.11-.26.29s-.16,0-.3-.06-.27,0-.28.21.54.21.72.07c-.17.11-.21.46,0,.53s.22-.15.36-.27c0,.06,0,.29.07.33s.24-.13.26-.24" style="fill: #f8d497"/>
          <rect x="42.65" y="108.96" width="2.45" height="0.35" style="fill: #f6a733"/>
          <rect x="42.56" y="109.17" width="2.7" height="1.93" style="fill: #fff"/>
          <path d="M42.67,110.44a.5.5,0,0,1-.49-.83.49.49,0,0,1,.49.83Z" style="fill: #5dc2a5"/>
          <path d="M43.56,110.38a.43.43,0,0,1-.57-.21.44.44,0,0,1,.08-.61.45.45,0,0,1,.58.21A.44.44,0,0,1,43.56,110.38Z" style="fill: #5dc2a5"/>
          <path d="M44.45,110.33a.43.43,0,0,1-.57-.22.44.44,0,0,1,.08-.61.45.45,0,0,1,.58.22A.44.44,0,0,1,44.45,110.33Z" style="fill: #5dc2a5"/>
          <path d="M43.32,110.33a.5.5,0,1,1-.25-.56A.45.45,0,0,1,43.32,110.33Z" style="fill: #92d3ca"/>
          <path d="M44.33,110.19a.44.44,0,0,1-.6.12.39.39,0,1,1,.6-.12Z" style="fill: #92d3ca"/>
          <rect x="41.86" y="109.95" width="2.94" height="1.68" style="fill: #fff"/>
          <path d="M44.62,110.71c.1,0,.18,0,.22.05s-1.1,1-.91-.07c0-.1.07-.39.21-.39s.11.19.07.29c.08-.16.67-.48.54-.11,0,.13-.38.32-.49.36A1.05,1.05,0,0,1,44.62,110.71Z" style="fill: #92d3ca"/>
          <path d="M45.13,110.66c.1,0,.19,0,.22,0s-1.1,1.05-.91-.07c0-.09.07-.39.21-.39s.12.2.07.29c.08-.16.67-.48.54-.11,0,.13-.38.32-.49.36A1.05,1.05,0,0,1,45.13,110.66Z" style="fill: #5dc2a5"/>
          <path d="M45.64,110.66c.1,0,.19,0,.22,0s-1.1,1.05-.91-.07c0-.09.08-.39.22-.39s.11.2.07.29c.07-.16.66-.48.54-.11-.05.13-.39.32-.5.36A1.14,1.14,0,0,1,45.64,110.66Z" style="fill: #92d3ca"/>
          <path d="M46.18,110.68c.1,0,.18,0,.22,0s-1.1,1-.91-.07c0-.09.07-.38.21-.39s.12.2.07.29c.08-.16.67-.47.54-.11,0,.13-.38.32-.49.36A1.76,1.76,0,0,1,46.18,110.68Z" style="fill: #5dc2a5"/>
          <rect x="43.61" y="110.96" width="2.94" height="1.68" style="fill: #fff"/>
          <g>
            <polygon points="47.89 106.78 46.89 106.78 46.7 105.57 48.05 105.57 47.89 106.78" style="fill: #5dc2a5"/>
            <line x1="47.35" y1="104.96" x2="47.35" y2="102.47" style="fill: none;stroke: #f8d497;stroke-miterlimit: 10;stroke-width: 0.079703973522535px"/>
            <line x1="47.35" y1="104.96" x2="46.89" y2="105.71" style="fill: none;stroke: #f8d497;stroke-miterlimit: 10;stroke-width: 0.079703973522535px"/>
            <line x1="47.35" y1="104.96" x2="47.84" y2="105.64" style="fill: none;stroke: #f8d497;stroke-miterlimit: 10;stroke-width: 0.079703973522535px"/>
          </g>
          <polygon points="40.83 101.15 43.53 98.06 54.74 98.06 52.04 101.15 40.83 101.15" style="fill: #92d3ca"/>
          <polygon points="52.04 101.15 52.04 102.75 54.74 99.66 54.74 98.06 52.04 101.15" style="fill: #5dc2a5"/>
          <polygon points="52.2 102.75 54.9 99.66 54.9 99.85 52.2 102.94 52.2 102.75" style="fill: #92d3ca"/>
          <polygon points="52.2 102.75 52.04 102.75 54.74 99.66 54.9 99.66 52.2 102.75" style="fill: #fff"/>
          <polygon points="52.04 103.53 54.74 100.44 54.74 100.03 52.2 102.94 52.04 102.94 52.04 103.53" style="fill: #fff"/>
          <polygon points="50.94 110.89 53.42 107.96 53.42 106.28 50.94 109.21 50.94 110.89" style="fill: #92d3ca"/>
          <g>
            <rect x="41.1" y="103.21" width="0.42" height="7.69" style="fill: #f8d497"/>
            <rect x="51.32" y="103.21" width="0.42" height="7.69" style="fill: #f8d497"/>
            <rect x="40.83" y="101.15" width="11.21" height="1.74" style="fill: #5dc2a5"/>
            <rect x="40.83" y="102.94" width="11.21" height="0.59" style="fill: #92d3ca"/>
            <rect x="40.67" y="102.74" width="11.52" height="0.19" style="fill: #fff"/>
          </g>
        </g>
      </g>
    </g>
  </g>
</svg>
