<svg xmlns="http://www.w3.org/2000/svg" width="127.05" height="142.17" viewBox="0 0 127.05 142.17">
  <g id="Layer_2" data-name="Layer 2">
    <g id="Iron">
      <g>
        <g>
          <path d="M79.68,10.55V8.39h8.77a54.45,54.45,0,0,0,.2-7.09c.87.2,1.43.2,2.28.34a63.26,63.26,0,0,1-.14,6.75h10.07l0,2.16H92.62c1.12,6,3.29,10.15,9.53,13.81l-1.52,1.69c-6.13-3.71-8.94-7.79-10.07-15.5C89,18.29,86.12,22.45,79.91,25.91L78.3,24a17.63,17.63,0,0,0,10-13.42Z" style="fill: #fff"/>
          <path d="M77,50.44a23.86,23.86,0,0,0,3.85-1.5V41.3H77.66V39.21h3.23V32.77h2.22v6.44H86V41.3H83.14v6.77l3.06-1.4v2.25l-7.93,3.37ZM98.41,35.92A7.12,7.12,0,0,0,94.81,34l1.57-1.55a10.07,10.07,0,0,1,4.25,2.84l-.59.59h2.53V38h-7.9v2.11l6.16,0v14.4A2.16,2.16,0,0,1,98.63,57H96.38l-.7-2.22A12.36,12.36,0,0,0,98,55c.47,0,.7-.25.7-.81V50.89h-4v5.45H92.53V50.91l-3.82,0v6.52H86.6l0-17.3,6,0,0-2.13H85V35.92l7.56,0V32.07h2.14v3.85Zm-9.7,6.25v2.28h3.85V42.17Zm0,6.75h3.85V46.44H88.71Zm10-6.72h-4v2.25h4Zm-4,4.21v2.51h4l0-2.51Z" style="fill: #fff"/>
          <path d="M102.21,86.83H82.3c-1.5,0-2.17-1.24-2.17-2.61V66.39l-1.77,0V64.28l23.71,0v2.08H82.27l0,17.26c0,.79.28,1.1,1.15,1.1h18.76Zm-10.8-3.91h-8V75.13l8,0Zm-5.85-5.73v3.68l3.71,0,0-3.74Zm12.85-3.55-12.66,0,0-6.27H98.41ZM87.89,71.73h8.38V69.28H87.89Zm13,3.4v7.71h-8V75.13Zm-2.11,2-3.79,0v3.6l3.77,0Z" style="fill: #fff"/>
        </g>
        <g>
          <path d="M81,9.25V7.09h8.77A54.45,54.45,0,0,0,90,0c.87.2,1.43.2,2.28.34a63.26,63.26,0,0,1-.14,6.75h10.07l0,2.16H93.92c1.12,6,3.29,10.15,9.53,13.81l-1.52,1.69C95.8,21,93,17,91.86,9.25,90.34,17,87.42,21.15,81.21,24.61L79.6,22.67a17.63,17.63,0,0,0,10-13.42Z" style="fill: #003869"/>
          <path d="M78.34,49.14a23.86,23.86,0,0,0,3.85-1.5V40H79V37.91h3.23V31.47h2.22v6.44h2.87V40H84.44v6.77l3.06-1.4v2.25L79.57,51ZM99.71,34.62a7,7,0,0,0-3.6-1.88l1.57-1.55A10.07,10.07,0,0,1,101.93,34l-.59.59h2.53v2.11H96v2.11l6.16,0v14.4a2.16,2.16,0,0,1-2.2,2.45H97.68L97,53.44a12.36,12.36,0,0,0,2.34.25c.47,0,.7-.25.7-.81V49.59H96V55H93.83V49.61l-3.82,0v6.52H87.9l0-17.3,6,0,0-2.13H86.27V34.62l7.56,0V30.77H96v3.85ZM90,40.87v2.28h3.85V40.87Zm0,6.75h3.85V45.14H90Zm10-6.72H96v2.25h4Zm-4,4.21v2.51h4l0-2.51Z" style="fill: #003869"/>
          <path d="M103.51,85.53H83.6c-1.5,0-2.17-1.24-2.17-2.61V65.09l-1.77,0V63l23.71,0v2.08H83.57l0,17.26c0,.79.28,1.1,1.15,1.1h18.76Zm-10.8-3.91h-8V73.83l8,0Zm-5.85-5.73v3.68l3.71,0,0-3.74Zm12.85-3.55-12.66,0,0-6.27H99.71ZM89.19,70.43h8.38V68H89.19Zm13,3.4v7.71h-8V73.83Zm-2.11,2-3.79,0v3.59l3.77,0Z" style="fill: #003869"/>
        </g>
        <g style="isolation: isolate">
          <polygon points="68.41 139.79 0 114.89 58.61 89.19 127.03 114.09 68.41 139.79" style="fill: #6baadb"/>
          <polygon points="68.44 142.17 68.41 139.79 127.03 114.09 127.06 116.48 68.44 142.17" style="fill: #3d77a6"/>
          <polygon points="0.03 117.27 0 114.89 68.41 139.79 68.44 142.17 0.03 117.27" style="fill: #254966"/>
        </g>
        <g>
          <g>
            <g>
              <path d="M115.83,101.38v-.93h-.59v.67l-2.6-2.55v-.94h-.58v.62h-9.8v.33h0V96.8h.92v-.69h.35V92.65h-.61a1.46,1.46,0,0,1-1.47,1.46v.13H98.24a1.17,1.17,0,0,0,.27-.41l0-.09-.06,0a.72.72,0,0,0-.44-.12.22.22,0,0,1,.06-.07.34.34,0,0,1,.18,0,.85.85,0,0,0,.48,0l.64-.19-.69-.15a3.43,3.43,0,0,1-.5-.14.76.76,0,0,1-.16-.1s0-.12.09-.19l0,0a.55.55,0,0,0-.17,0,.24.24,0,0,0-.11.2.49.49,0,0,0,.21.34l.09,0a.36.36,0,0,0-.12.08.46.46,0,0,0-.13.22l0,.09H98a.52.52,0,0,1,.29.08,1.58,1.58,0,0,1-.36.26.29.29,0,0,0-.2-.31.58.58,0,0,0-.39,0,.46.46,0,0,0-.34.34.26.26,0,0,0,0,.15H88.29a.26.26,0,0,0,0-.15.46.46,0,0,0-.34-.34.58.58,0,0,0-.39,0,.28.28,0,0,0-.2.31,1.58,1.58,0,0,1-.36-.26.52.52,0,0,1,.29-.08h.09l0-.09a.46.46,0,0,0-.13-.22.36.36,0,0,0-.12-.08l.09,0a.49.49,0,0,0,.21-.34.24.24,0,0,0-.11-.2.64.64,0,0,0-.17,0l0,0c.08.07.13.17.09.19a1.19,1.19,0,0,1-.16.1,3.43,3.43,0,0,1-.5.14l-.69.15.64.19a.85.85,0,0,0,.48,0,.34.34,0,0,1,.18,0,.22.22,0,0,1,.06.07.72.72,0,0,0-.44.12l-.06,0,0,.09a1.17,1.17,0,0,0,.27.41h-2.6v-.13A1.46,1.46,0,0,1,83,92.65h-.62v3.46h.35v.69h.93v1.45h-9.8v-.62h-.59v.94l-2.59,2.55v-.67h-.59v.93h-.11v.4h.48v.73h.22v9H70.5V113h13v.9h1.72v-.07h.14v.07h1.49v-.07h.06v0H87v0h2v0h2v0h4v0h2v0h2v0h.13v0h0v.07h1.49v-.07h.14v.07h1.71V113h13v-1.44h-.14v-9h.22v-.73h.48v-.4ZM97.42,94a.51.51,0,0,1,.22-.09c.08,0,.15,0,.19.12h0a.68.68,0,0,1-.42.06l-.07,0Zm-.08.09h0S97.33,94.14,97.34,94.12Zm-9.42,0h0S87.93,94.14,87.92,94.13Zm-.3-.19a.43.43,0,0,1,.21.09l.07.06-.07,0a.68.68,0,0,1-.42-.06h0C87.47,94,87.54,93.92,87.62,93.94Z" style="fill: #5dc2a5"/>
              <rect x="92.31" y="93.71" width="0.91" height="0.51" style="fill: #5dc2a5"/>
              <path d="M92.4,93.51h0v.12h.76v-.12h0a.43.43,0,0,0,.24-.36.51.51,0,0,0-.52-.44v-.37h-.14v.37a.51.51,0,0,0-.52.44A.43.43,0,0,0,92.4,93.51Z" style="fill: #5dc2a5"/>
            </g>
            <polygon points="101.43 94.24 84.42 94.24 79.37 102.44 96.39 102.53 101.43 94.24" style="fill: #92d3ca"/>
            <rect x="97.18" y="110.35" width="13.02" height="10.67" style="fill: #fff"/>
            <rect x="97.21" y="110.26" width="12.98" height="1.36" style="fill: #92d3ca"/>
            <rect x="97.18" y="119.75" width="13.15" height="1.45" style="fill: #f5c064"/>
            <polyline points="109.77 110.67 109.77 121.2 109.54 121.2 109.54 110.67" style="fill: #5dc2a5"/>
            <polygon points="110.01 109.72 96.5 109.72 96.5 106.78 107.03 106.78 110.01 109.72" style="fill: #7ab0a9"/>
            <rect x="97.19" y="106.45" width="10.09" height="0.48" transform="translate(204.47 213.38) rotate(-180)" style="fill: #f8d497"/>
            <rect x="108.67" y="106.18" width="0.41" height="4.27" transform="translate(-44.69 109.97) rotate(-45.47)" style="fill: #92d3ca"/>
            <rect x="110.19" y="108.66" width="0.59" height="1.24" transform="translate(220.97 218.56) rotate(-180)" style="fill: #92d3ca"/>
            <rect x="97.21" y="109.58" width="13.68" height="0.41" style="fill: #92d3ca"/>
            <rect x="65.59" y="110.35" width="13.02" height="10.67" style="fill: #fff"/>
            <rect x="65.59" y="110.26" width="12.98" height="1.36" style="fill: #92d3ca"/>
            <rect x="65.45" y="119.75" width="13.15" height="1.45" style="fill: #f5c064"/>
            <polyline points="65.37 110.71 78.61 110.71 78.61 109.99 65.37 109.99" style="fill: #5dc2a5"/>
            <polyline points="66.02 110.67 66.02 121.2 66.24 121.2 66.24 110.67" style="fill: #5dc2a5"/>
            <polygon points="65.77 109.72 79.28 109.72 79.28 106.78 68.75 106.78 65.77 109.72" style="fill: #7ab0a9"/>
            <rect x="68.48" y="106.45" width="10.09" height="0.48" style="fill: #f8d497"/>
            <rect x="68.48" y="106.93" width="10.09" height="0.14" style="fill: #e6e7e8"/>
            <rect x="97.19" y="106.93" width="10.09" height="0.14" style="fill: #e6e7e8"/>
            <rect x="68.19" y="105.83" width="0.59" height="1.24" style="fill: #92d3ca"/>
            <rect x="64.77" y="108.11" width="4.27" height="0.41" transform="translate(-56.75 78.02) rotate(-44.53)" style="fill: #92d3ca"/>
            <rect x="65" y="108.66" width="0.59" height="1.24" style="fill: #92d3ca"/>
            <rect x="64.89" y="109.58" width="13.68" height="0.41" style="fill: #92d3ca"/>
            <rect x="98.68" y="113.79" width="3.71" height="7.23" style="fill: #5dc2a5"/>
            <rect x="105" y="113.88" width="1.47" height="0.93" style="fill: #f2652d"/>
            <rect x="105" y="114.94" width="1.47" height="0.99" style="fill: #f2652d"/>
            <rect x="105" y="117.2" width="1.47" height="0.93" style="fill: #f2652d"/>
            <rect x="105" y="116.07" width="1.47" height="0.99" style="fill: #f2652d"/>
            <rect x="106.61" y="113.88" width="1.53" height="0.93" style="fill: #f2652d"/>
            <rect x="106.61" y="114.94" width="1.53" height="0.99" style="fill: #f2652d"/>
            <rect x="106.61" y="116.07" width="1.53" height="0.99" style="fill: #f2652d"/>
            <rect x="106.61" y="117.2" width="1.53" height="0.93" style="fill: #f2652d"/>
            <rect x="99.49" y="115.1" width="2.21" height="1.85" style="fill: #f8d497;stroke: #92d3ca;stroke-miterlimit: 10;stroke-width: 0.211877712259153px"/>
            <rect x="98.54" y="113.61" width="3.98" height="0.54" style="fill: #f6a733"/>
            <rect x="98.72" y="120.79" width="3.66" height="0.45" style="fill: #f6a733"/>
            <rect x="73.77" y="113.88" width="3.39" height="4.02" style="fill: #92d3ca"/>
            <rect x="74.49" y="114.74" width="1.94" height="2.85" style="fill: #5dc2a5"/>
            <rect x="74.22" y="117.58" width="2.44" height="0.59" style="fill: #f6a733"/>
            <g>
              <rect x="67.8" y="113.88" width="3.39" height="4.02" style="fill: #92d3ca"/>
              <rect x="68.52" y="114.74" width="1.94" height="2.85" style="fill: #5dc2a5"/>
              <rect x="68.25" y="117.58" width="2.44" height="0.59" style="fill: #f6a733"/>
            </g>
            <rect x="67.49" y="113.7" width="3.98" height="0.54" style="fill: #f8d497"/>
            <polyline points="78.57 104.95 97.19 104.95 97.19 122.03 78.57 122.03" style="fill: #fff"/>
            <rect x="80.18" y="105.9" width="15.17" height="2.35" style="fill: #fff;stroke: #5dc2a5;stroke-miterlimit: 10;stroke-width: 0.538167731581636px"/>
            <rect x="80.18" y="109.34" width="15.25" height="12.68" style="fill: #92d3ca"/>
            <rect x="81.84" y="110.98" width="12.17" height="11.07" style="fill: #4c9f87"/>
            <rect x="83.79" y="112.91" width="8.14" height="9.16" style="fill: #92d3ca"/>
            <rect x="78.57" y="120.34" width="5.33" height="1.69" style="fill: #f8d497"/>
            <rect x="91.86" y="120.34" width="5.33" height="1.69" style="fill: #f8d497"/>
            <rect x="85.93" y="116.41" width="3.98" height="5.69" style="fill: #5dc2a5"/>
            <rect x="77.88" y="102.44" width="19.89" height="0.68" style="fill: #5dc2a5"/>
            <g>
              <rect x="87.26" y="101.92" width="0.91" height="0.51" style="fill: #5dc2a5"/>
              <path d="M88.29,101.36c0,.24-.26.44-.59.44a.46.46,0,1,1,0-.89C88,100.91,88.29,101.11,88.29,101.36Z" style="fill: #5dc2a5"/>
              <rect x="87.64" y="100.55" width="0.13" height="0.45" style="fill: #5dc2a5"/>
            </g>
            <path d="M82.1,100.89a.37.37,0,0,1,.16,0,.23.23,0,0,1,.11.19.45.45,0,0,1-.21.34,1.11,1.11,0,0,1-.3.17.84.84,0,0,1-.33.07l0-.34a1.91,1.91,0,0,0,.38.12.5.5,0,0,1,.24.12.48.48,0,0,1,.12.22l0,.08h-.09a.4.4,0,0,0-.37.16l0-.13a1.55,1.55,0,0,0,.44.32.66.66,0,0,0,.43.07c.11,0,.09-.07.09,0s0-.06-.08-.1a.54.54,0,0,0-.22-.1.17.17,0,0,0-.19.12h0a.27.27,0,0,1,.19-.32.61.61,0,0,1,.4,0,.47.47,0,0,1,.33.35.37.37,0,0,1-.12.31.94.94,0,0,1-.2.12.83.83,0,0,1-.78-.14,1.07,1.07,0,0,1-.45-.55l0-.09.06,0a.84.84,0,0,1,.54-.13l-.07.08a.18.18,0,0,0-.09-.14.25.25,0,0,0-.17,0,1.12,1.12,0,0,1-.49,0l-.64-.2.69-.14a2.38,2.38,0,0,0,.5-.15.57.57,0,0,0,.17-.1s0-.11-.09-.19Z" style="fill: #5dc2a5"/>
            <path d="M93.09,100.92c-.08.08-.13.18-.09.19a.57.57,0,0,0,.17.1,2.48,2.48,0,0,0,.49.15l.69.14-.63.2a1.12,1.12,0,0,1-.49,0,.23.23,0,0,0-.17,0,.22.22,0,0,0-.1.14l-.06-.08a.85.85,0,0,1,.54.13l0,0,0,.09a1.12,1.12,0,0,1-.45.55.85.85,0,0,1-.79.14.72.72,0,0,1-.19-.12.35.35,0,0,1-.13-.31.47.47,0,0,1,.34-.35.58.58,0,0,1,.39,0,.28.28,0,0,1,.2.32h0a.18.18,0,0,0-.19-.12.44.44,0,0,0-.22.1c-.07,0-.11.13-.09.1s0,0,.1,0a.63.63,0,0,0,.42-.07,1.43,1.43,0,0,0,.44-.32l0,.13a.38.38,0,0,0-.37-.16h-.08l0-.08a.46.46,0,0,1,.37-.34,2.48,2.48,0,0,0,.38-.12l0,.34a.89.89,0,0,1-.34-.07,1.52,1.52,0,0,1-.3-.17.45.45,0,0,1-.21-.34.24.24,0,0,1,.12-.19.33.33,0,0,1,.16,0Z" style="fill: #5dc2a5"/>
            <polygon points="93.84 110.84 93.84 112.7 90.86 112.7 90.86 112.14 84.96 112.14 84.96 112.7 81.97 112.7 81.97 110.84 84.23 110.84 84.23 110.71 91.48 110.71 91.48 110.84 93.84 110.84" style="fill: #f1f1f2;stroke: #5dc2a5;stroke-miterlimit: 10;stroke-width: 0.463422803788776px"/>
            <polygon points="92.98 127.57 73.33 127.37 78.61 122.02 97.18 122.02 92.98 127.57" style="fill: #fff"/>
            <rect x="77.3" y="102.93" width="21.17" height="1.38" style="fill: #92d3ca"/>
            <rect x="77.64" y="104.31" width="20.48" height="0.69" style="fill: #f5c064"/>
            <g>
              <path d="M77.3,102.89l0-1.84a2,2,0,0,0,1.46,1.84Z" style="fill: #5dc2a5"/>
              <path d="M77.38,101.67a2.15,2.15,0,0,0,1.17,1.18H77.38v-1.18m-.08-.82v2.08h2.07a2.08,2.08,0,0,1-2.07-2.08Z" style="fill: #fff"/>
            </g>
            <g>
              <path d="M96.66,102.89A2,2,0,0,0,98.5,101l-.08,1.87Z" style="fill: #5dc2a5"/>
              <path d="M98.38,101.67v1.18H97.2a2.14,2.14,0,0,0,1.18-1.18m.08-.82a2.08,2.08,0,0,1-2.08,2.08h2.08v-2.08Z" style="fill: #fff"/>
            </g>
            <rect x="86.43" y="109.58" width="2.86" height="1.13" style="fill: #f1f1f2;stroke: #5dc2a5;stroke-miterlimit: 10;stroke-width: 0.423754886350574px"/>
            <polygon points="98.46 100.85 103.51 92.65 103.51 96.11 98.46 104.31 98.46 100.85" style="fill: #92d3ca"/>
            <polygon points="102.9 92.65 103.51 92.65 98.46 100.85 97.85 100.85 102.9 92.65" style="fill: #fff"/>
            <path d="M101.43,94.24v-.13a1.65,1.65,0,0,0,.66-.16l-4.24,6.9a1.5,1.5,0,0,1-1.47,1.47Z" style="fill: #f8d497"/>
            <polygon points="84.42 94.24 84.42 94.11 79.37 102.32 79.37 102.44 84.42 94.24" style="fill: #5dc2a5"/>
            <path d="M77.91,100.85l5-8.2a1.54,1.54,0,0,0,1.46,1.46l-5,8.21A1.44,1.44,0,0,1,77.91,100.85Z" style="fill: #5dc2a5"/>
            <polygon points="82.34 92.65 77.3 100.85 77.91 100.85 82.96 92.65 82.34 92.65" style="fill: #fff"/>
            <polygon points="107.59 105.83 112.64 97.63 112.64 98.57 107.59 107.07 107.59 105.83" style="fill: #5dc2a5"/>
            <polygon points="112.06 97.63 112.64 97.63 107.59 105.83 107.01 105.83 112.06 97.63" style="fill: #fff"/>
            <polygon points="102.23 98.19 111.67 98.25 107.01 105.83 107.01 106.45 97.19 106.45 97.19 105 98.12 105 98.46 104.31 102.23 98.19" style="fill: #5dc2a5"/>
            <polygon points="68.77 106.45 73.82 98.25 78.9 98.25 77.3 100.85 77.3 104.31 77.64 104.31 77.64 105 78.57 105 78.57 106.45 68.77 106.45" style="fill: #5dc2a5"/>
            <polygon points="68.77 105.83 73.82 97.63 73.82 98.25 68.77 106.45 68.77 105.83" style="fill: #f8d497"/>
            <polygon points="73.23 97.63 73.82 97.63 68.77 105.83 68.19 105.83 73.23 97.63" style="fill: #fff"/>
            <polygon points="65.57 109.34 70.64 101.12 71.73 100.07 68.19 105.83 68.19 106.77 65.57 109.34" style="fill: #f6a733"/>
            <polygon points="65.59 108.66 70.64 100.45 70.64 101.12 65.57 109.34 65.59 108.66" style="fill: #f5c064"/>
            <polygon points="70.05 100.45 70.64 100.45 65.59 108.66 65 108.66 70.05 100.45" style="fill: #fff"/>
            <rect x="107.01" y="105.83" width="0.59" height="1.24" transform="translate(214.6 212.91) rotate(-180)" style="fill: #92d3ca"/>
            <polygon points="112.64 98.57 107.71 106.88 110.19 109.33 110.19 108.66 110.49 108.66 115.24 101.12 112.64 98.57" style="fill: #f8d497"/>
            <polygon points="110.19 108.66 115.24 100.45 115.83 100.45 110.78 108.66 110.19 108.66" style="fill: #5dc2a5"/>
            <polygon points="110.78 108.66 110.78 109.58 110.89 109.58 115.94 101.38 115.83 101.38 115.83 100.45 110.78 108.66" style="fill: #fff"/>
            <polygon points="115.94 101.38 115.94 101.78 110.89 109.99 110.89 109.58 115.94 101.38" style="fill: #f8d497"/>
            <polygon points="110.33 119.75 115.38 111.55 115.38 112.99 110.33 121.2 110.33 119.75" style="fill: #fff"/>
            <polygon points="115.24 111.55 115.38 111.55 110.33 119.75 110.19 119.75 115.24 111.55" style="fill: #5dc2a5"/>
            <polyline points="110.41 109.99 110.41 110.21 110.41 110.71 97.18 110.71 97.18 109.99 110.41 109.99" style="fill: #5dc2a5"/>
            <polygon points="110.41 110.71 110.89 109.99 110.41 109.99 110.41 110.71" style="fill: #f6a733"/>
            <polygon points="110.19 110.71 110.19 119.75 110.19 110.71 110.41 110.71 115.25 102.9 115.25 111.55 110.19 119.75 110.19 110.71" style="fill: #f8d497"/>
            <line x1="76.29" y1="124.37" x2="95.36" y2="124.37" style="fill: none;stroke: #5dc2a5;stroke-miterlimit: 10;stroke-width: 0.269083865790818px"/>
          </g>
          <g>
            <circle cx="66.09" cy="109.47" r="0.32" style="fill: #fff"/>
            <circle cx="67.19" cy="109.47" r="0.32" style="fill: #fff"/>
            <circle cx="68.29" cy="109.47" r="0.32" style="fill: #fff"/>
            <circle cx="69.39" cy="109.47" r="0.32" style="fill: #fff"/>
            <circle cx="70.49" cy="109.47" r="0.32" style="fill: #fff"/>
            <circle cx="71.59" cy="109.47" r="0.32" style="fill: #fff"/>
            <circle cx="72.69" cy="109.47" r="0.32" style="fill: #fff"/>
            <circle cx="73.8" cy="109.47" r="0.32" style="fill: #fff"/>
            <circle cx="74.9" cy="109.47" r="0.32" style="fill: #fff"/>
            <circle cx="76" cy="109.47" r="0.32" style="fill: #fff"/>
            <circle cx="77.1" cy="109.47" r="0.32" style="fill: #fff"/>
            <circle cx="78.2" cy="109.47" r="0.32" style="fill: #fff"/>
          </g>
          <g>
            <circle cx="97.45" cy="109.47" r="0.32" style="fill: #fff"/>
            <circle cx="98.56" cy="109.47" r="0.32" style="fill: #fff"/>
            <circle cx="99.66" cy="109.47" r="0.32" style="fill: #fff"/>
            <circle cx="100.76" cy="109.47" r="0.32" style="fill: #fff"/>
            <circle cx="101.86" cy="109.47" r="0.32" style="fill: #fff"/>
            <circle cx="102.96" cy="109.47" r="0.32" style="fill: #fff"/>
            <circle cx="104.06" cy="109.47" r="0.32" style="fill: #fff"/>
            <circle cx="105.16" cy="109.47" r="0.32" style="fill: #fff"/>
            <circle cx="106.26" cy="109.47" r="0.32" style="fill: #fff"/>
            <circle cx="107.37" cy="109.47" r="0.32" style="fill: #fff"/>
            <circle cx="108.47" cy="109.47" r="0.32" style="fill: #fff"/>
            <circle cx="109.57" cy="109.47" r="0.32" style="fill: #fff"/>
          </g>
          <g>
            <circle cx="77.57" cy="103.99" r="0.32" style="fill: #5dc2a5"/>
            <circle cx="78.87" cy="103.99" r="0.32" style="fill: #5dc2a5"/>
            <circle cx="80.18" cy="103.99" r="0.32" style="fill: #5dc2a5"/>
            <circle cx="81.48" cy="103.99" r="0.32" style="fill: #5dc2a5"/>
            <circle cx="82.78" cy="103.99" r="0.32" style="fill: #5dc2a5"/>
            <circle cx="84.09" cy="103.99" r="0.32" style="fill: #5dc2a5"/>
            <circle cx="85.39" cy="103.99" r="0.32" style="fill: #5dc2a5"/>
            <circle cx="86.69" cy="103.99" r="0.32" style="fill: #5dc2a5"/>
            <circle cx="88" cy="103.99" r="0.32" style="fill: #5dc2a5"/>
            <circle cx="89.3" cy="103.99" r="0.32" style="fill: #5dc2a5"/>
            <circle cx="90.6" cy="103.99" r="0.32" style="fill: #5dc2a5"/>
            <circle cx="91.91" cy="103.99" r="0.32" style="fill: #5dc2a5"/>
            <circle cx="93.21" cy="103.99" r="0.32" style="fill: #5dc2a5"/>
            <circle cx="94.51" cy="103.99" r="0.32" style="fill: #5dc2a5"/>
            <circle cx="95.81" cy="103.99" r="0.32" style="fill: #5dc2a5"/>
            <circle cx="97.12" cy="103.99" r="0.32" style="fill: #5dc2a5"/>
            <circle cx="98.42" cy="103.99" r="0.32" style="fill: #5dc2a5"/>
          </g>
        </g>
        <g>
          <g>
            <polygon points="33.84 69.98 34.23 69.98 34.23 70.27 34.48 70.27 34.48 70.65 34.33 70.65 34.33 76.23 55.1 75.83 55.32 70.65 55.03 70.65 55.03 70.27 55.28 70.27 55.28 69.98 55.67 69.98 55.67 69.91 55.73 69.91 55.73 69.39 55.44 69.39 55.44 69.67 54.9 69.67 54.9 69.94 54.55 69.94 54.55 70.22 53.97 70.22 53.97 70.65 35.54 70.65 35.54 70.22 34.97 70.22 34.97 69.94 34.61 69.94 34.61 69.67 34.07 69.67 34.07 69.39 33.78 69.39 33.78 69.91 33.84 69.91 33.84 69.98" style="fill: #cf5627"/>
            <path d="M68,81.9V80.5H65.83V77.25h-.22v-.12a.3.3,0,0,0-.59,0v.12h-.16V80.5H57.24V77.69h1l.29-1.23H57.24V74.65h-.19v-.22a.33.33,0,0,0-.33-.33.32.32,0,0,0-.32.33v.22h-.12v1.81H33.39V74.65H33.2v-.13a.32.32,0,0,0-.32-.33.33.33,0,0,0-.33.33v.13h-.12v1.81h-1.3l.33,1.23h1V80.5h-7.6V77.25h-.15v-.2a.3.3,0,1,0-.59,0v.2h-.22V80.5H21.52v1.4h2.35v.48H22.39v1.68h1.48v17.09h1V99.79h7.6v1.36h1v-.09H56.28v.09h1V99.88h7.62v1.27h1V84.06h1.48V82.38H65.83V81.9ZM56.28,80.5H52.85V77.69h3.43Zm-18.62,0V77.69H51.92V80.5Zm-4.27-2.81h3.34V80.5H33.39ZM24.83,81.9h7.6v.48h-7.6Zm19.35,18.45H33.56V94.18h8.32a2.82,2.82,0,0,0,2.3,2.21Zm0-9.57a2.85,2.85,0,0,0-2.36,2.69H33.56V87.63H44.18Zm11.89,9.57H45.45v-4a2.83,2.83,0,0,0,2.29-2.21h8.33Zm0-6.88H47.8a2.84,2.84,0,0,0-2.35-2.69V87.63H56.07ZM44.89,86.59H33.39V84.06h1.5V82.38h-1.5V81.9H56.28v.48H54.8v1.68h1.48v2.53Zm12.35,6v-.27h7.62v.27Zm7.62-7.19H57.24V84.06h7.62Zm0-3H57.24V81.9h7.62Z" style="fill: #cf5627"/>
          </g>
          <polygon points="20.13 88.55 24.83 80.32 31.7 80.32 29.54 84.79 28.37 85.29 28.37 87.21 27.73 88.54 20.13 88.55" style="fill: #7ab0a9"/>
          <polygon points="26.45 84.51 53.82 84.51 58.52 76.46 31.13 76.46 26.45 84.51" style="fill: #7ab0a9"/>
          <polygon points="28.69 82.69 33.39 74.65 33.39 76.46 28.69 84.53 28.69 82.69" style="fill: #d38f2c"/>
          <polygon points="55.32 70.65 55.14 76.01 50.62 83.62 50.62 78.69 55.32 70.65" style="fill: #d2a556"/>
          <polygon points="52.54 82.69 57.24 74.65 57.24 76.46 52.54 84.5 52.54 82.69" style="fill: #4c9f87"/>
          <polygon points="58.52 76.46 58.23 77.69 53.53 85.74 53.82 84.5 58.52 76.46" style="fill: #d2a556"/>
          <polygon points="52.54 88.55 57.24 80.5 57.24 79.39 53.53 85.74 52.54 85.74 52.54 88.55" style="fill: #7ab0a9"/>
          <polygon points="57.24 80.5 64.86 80.5 60.16 88.55 52.54 88.55 57.24 80.5" style="fill: #7ab0a9"/>
          <polygon points="61.13 85.29 65.83 77.25 65.83 80.5 61.05 88.73 61.13 85.29" style="fill: #d2a556"/>
          <polygon points="61.13 109.19 65.83 101.15 65.83 85.31 61.13 89.95 61.13 109.19" style="fill: #fff"/>
          <polygon points="62.61 90.42 67.31 82.38 67.31 84.06 62.61 92.1 62.61 90.42" style="fill: #d5b682"/>
          <polygon points="65.83 80.5 68.01 80.5 63.31 88.55 61.05 88.55 65.83 80.5" style="fill: #7ab0a9"/>
          <rect x="52.54" y="89.94" width="7.62" height="3.53" style="fill: #d38f2c"/>
          <rect x="20.13" y="89.94" width="7.67" height="3.53" style="fill: #d38f2c"/>
          <polygon points="28.86 94.59 33.56 94.59 33.56 100.4 28.69 108.44 28.86 94.59" style="fill: #7ab0a9"/>
          <polygon points="68.01 80.5 68.01 81.9 63.31 89.94 63.31 88.55 68.01 80.5" style="fill: #4c9f87"/>
          <line x1="19.95" y1="90.16" x2="28.21" y2="90.16" style="fill: none;stroke: #fff;stroke-miterlimit: 10;stroke-width: 0.310149834793288px"/>
          <line x1="52.15" y1="90.16" x2="60.2" y2="90.16" style="fill: none;stroke: #fff;stroke-miterlimit: 10;stroke-width: 0.310149834793288px"/>
          <polygon points="16.82 88.55 21.52 80.5 23.87 80.5 19.17 88.55 16.82 88.55" style="fill: #7ab0a9"/>
          <polygon points="51.58 82.69 52.54 82.69 57.24 74.65 56.28 74.65 51.58 82.69" style="fill: #fff"/>
          <g>
            <g>
              <g>
                <line x1="28.86" y1="108.39" x2="51.37" y2="95.34" style="fill: none;stroke: #fff;stroke-miterlimit: 10;stroke-width: 0.038768729349161px"/>
                <line x1="28.85" y1="106.47" x2="48.05" y2="95.34" style="fill: none;stroke: #fff;stroke-miterlimit: 10;stroke-width: 0.038768729349161px"/>
                <line x1="28.84" y1="104.55" x2="44.73" y2="95.34" style="fill: none;stroke: #fff;stroke-miterlimit: 10;stroke-width: 0.038768729349161px"/>
                <line x1="28.83" y1="102.64" x2="41.41" y2="95.34" style="fill: none;stroke: #fff;stroke-miterlimit: 10;stroke-width: 0.038768729349161px"/>
                <line x1="28.82" y1="100.72" x2="38.1" y2="95.34" style="fill: none;stroke: #fff;stroke-miterlimit: 10;stroke-width: 0.038768729349161px"/>
                <line x1="28.81" y1="98.8" x2="34.78" y2="95.33" style="fill: none;stroke: #fff;stroke-miterlimit: 10;stroke-width: 0.038768729349161px"/>
                <line x1="28.8" y1="96.88" x2="31.46" y2="95.33" style="fill: none;stroke: #fff;stroke-miterlimit: 10;stroke-width: 0.038768729349161px"/>
              </g>
              <g>
                <line x1="51.31" y1="95.34" x2="28.8" y2="108.39" style="fill: none;stroke: #fff;stroke-miterlimit: 10;stroke-width: 0.038768729349161px"/>
                <line x1="51.32" y1="97.26" x2="32.11" y2="108.39" style="fill: none;stroke: #fff;stroke-miterlimit: 10;stroke-width: 0.038768729349161px"/>
                <line x1="51.33" y1="99.18" x2="35.43" y2="108.39" style="fill: none;stroke: #fff;stroke-miterlimit: 10;stroke-width: 0.038768729349161px"/>
                <line x1="51.34" y1="101.09" x2="38.75" y2="108.39" style="fill: none;stroke: #fff;stroke-miterlimit: 10;stroke-width: 0.038768729349161px"/>
                <line x1="51.35" y1="103.01" x2="42.07" y2="108.39" style="fill: none;stroke: #fff;stroke-miterlimit: 10;stroke-width: 0.038768729349161px"/>
                <line x1="51.36" y1="104.93" x2="45.38" y2="108.39" style="fill: none;stroke: #fff;stroke-miterlimit: 10;stroke-width: 0.038768729349161px"/>
                <line x1="51.37" y1="106.85" x2="48.7" y2="108.39" style="fill: none;stroke: #fff;stroke-miterlimit: 10;stroke-width: 0.038768729349161px"/>
              </g>
            </g>
            <g>
              <g>
                <line x1="51.31" y1="108.39" x2="28.8" y2="95.34" style="fill: none;stroke: #fff;stroke-miterlimit: 10;stroke-width: 0.038768729349161px"/>
                <line x1="51.32" y1="106.47" x2="32.11" y2="95.34" style="fill: none;stroke: #fff;stroke-miterlimit: 10;stroke-width: 0.038768729349161px"/>
                <line x1="51.33" y1="104.55" x2="35.43" y2="95.34" style="fill: none;stroke: #fff;stroke-miterlimit: 10;stroke-width: 0.038768729349161px"/>
                <line x1="51.34" y1="102.64" x2="38.75" y2="95.34" style="fill: none;stroke: #fff;stroke-miterlimit: 10;stroke-width: 0.038768729349161px"/>
                <line x1="51.35" y1="100.72" x2="42.07" y2="95.34" style="fill: none;stroke: #fff;stroke-miterlimit: 10;stroke-width: 0.038768729349161px"/>
                <line x1="51.36" y1="98.8" x2="45.38" y2="95.33" style="fill: none;stroke: #fff;stroke-miterlimit: 10;stroke-width: 0.038768729349161px"/>
                <line x1="51.37" y1="96.88" x2="48.7" y2="95.33" style="fill: none;stroke: #fff;stroke-miterlimit: 10;stroke-width: 0.038768729349161px"/>
              </g>
              <g>
                <line x1="28.86" y1="95.34" x2="51.37" y2="108.39" style="fill: none;stroke: #fff;stroke-miterlimit: 10;stroke-width: 0.038768729349161px"/>
                <line x1="28.85" y1="97.26" x2="48.05" y2="108.39" style="fill: none;stroke: #fff;stroke-miterlimit: 10;stroke-width: 0.038768729349161px"/>
                <line x1="28.84" y1="99.18" x2="44.73" y2="108.39" style="fill: none;stroke: #fff;stroke-miterlimit: 10;stroke-width: 0.038768729349161px"/>
                <line x1="28.83" y1="101.09" x2="41.41" y2="108.39" style="fill: none;stroke: #fff;stroke-miterlimit: 10;stroke-width: 0.038768729349161px"/>
                <line x1="28.82" y1="103.01" x2="38.1" y2="108.39" style="fill: none;stroke: #fff;stroke-miterlimit: 10;stroke-width: 0.038768729349161px"/>
                <line x1="28.81" y1="104.93" x2="34.78" y2="108.39" style="fill: none;stroke: #fff;stroke-miterlimit: 10;stroke-width: 0.038768729349161px"/>
                <line x1="28.8" y1="106.85" x2="31.46" y2="108.39" style="fill: none;stroke: #fff;stroke-miterlimit: 10;stroke-width: 0.038768729349161px"/>
              </g>
            </g>
          </g>
          <polygon points="27.73 82.69 32.43 74.65 33.39 74.65 28.69 82.69 27.73 82.69" style="fill: #fff"/>
          <polygon points="19.17 85.29 20.13 85.29 24.83 77.25 23.87 77.25 19.17 85.29" style="fill: #fff"/>
          <polygon points="60.16 85.29 64.86 77.25 65.83 77.25 61.13 85.29 60.16 85.29" style="fill: #fff"/>
          <polygon points="30.84 78.71 35.54 70.65 55.32 70.65 50.62 78.69 30.84 78.71" style="fill: #fff"/>
          <g>
            <path d="M60.91,85.44a.3.3,0,0,1-.3.3h0a.3.3,0,0,1-.29-.3v-.26a.29.29,0,0,1,.29-.3h0a.29.29,0,0,1,.3.3Z" style="fill: #cf5627"/>
            <rect x="52.17" y="100.38" width="8.36" height="7.53" style="fill: #4c9f87"/>
            <rect x="54.93" y="103.03" width="2.91" height="2.91" transform="translate(-57.36 70.47) rotate(-45)" style="fill: none;stroke: #fff;stroke-miterlimit: 10;stroke-width: 0.068232963654523px"/>
            <path d="M19.39,85.35a.29.29,0,0,0,.29.3h0a.3.3,0,0,0,.3-.3v-.26a.3.3,0,0,0-.3-.3h0a.29.29,0,0,0-.29.3Z" style="fill: #cf5627"/>
            <rect x="19.76" y="100.35" width="8.36" height="7.48" style="fill: #4c9f87"/>
            <rect x="19.76" y="93.46" width="8.36" height="6.93" style="fill: #4c9f87"/>
            <rect x="52.17" y="93.46" width="8.36" height="6.93" style="fill: #4c9f87"/>
            <rect x="22.46" y="102.94" width="2.91" height="2.91" transform="translate(-66.82 47.5) rotate(-45.01)" style="fill: none;stroke: #fff;stroke-miterlimit: 10;stroke-width: 0.068232963654523px"/>
            <rect x="29.78" y="78.27" width="1.06" height="0.44" style="fill: #cf5627"/>
            <rect x="29.53" y="77.99" width="0.74" height="0.32" style="fill: #cf5627"/>
            <rect x="29.14" y="77.71" width="0.77" height="0.32" style="fill: #cf5627"/>
            <rect x="29.08" y="77.43" width="0.29" height="0.52" style="fill: #cf5627"/>
            <rect x="49.27" y="78.27" width="1.06" height="0.44" style="fill: #cf5627"/>
            <rect x="49.85" y="77.99" width="0.74" height="0.32" style="fill: #cf5627"/>
            <rect x="50.2" y="77.71" width="0.77" height="0.32" style="fill: #cf5627"/>
            <rect x="50.74" y="77.43" width="0.29" height="0.52" style="fill: #cf5627"/>
            <path d="M28.5,82.85a.32.32,0,0,1-.32.33h0a.33.33,0,0,1-.33-.33v-.29a.33.33,0,0,1,.33-.33h0a.32.32,0,0,1,.32.33Z" style="fill: #cf5627"/>
            <path d="M52.35,82.77a.32.32,0,0,1-.33.32h0a.32.32,0,0,1-.32-.32v-.3a.32.32,0,0,1,.32-.33h0a.33.33,0,0,1,.33.33Z" style="fill: #cf5627"/>
            <polygon points="53.53 85.74 53.82 84.5 26.43 84.5 26.76 85.74 53.53 85.74" style="fill: #4c9f87"/>
            <rect x="16.82" y="88.55" width="46.49" height="1.4" style="fill: #4c9f87"/>
            <line x1="28.58" y1="87.85" x2="51.96" y2="87.85" style="fill: none;stroke: #4c9f87;stroke-miterlimit: 10;stroke-width: 0.310149834793288px"/>
            <rect x="32.03" y="85.53" width="0.93" height="3.35" style="fill: #4c9f87"/>
            <rect x="47.22" y="85.72" width="0.93" height="3.35" style="fill: #4c9f87"/>
            <rect x="17.69" y="90.43" width="12.51" height="1.67" style="fill: #4c9f87"/>
            <rect x="50.1" y="90.43" width="12.51" height="1.67" style="fill: #4c9f87"/>
            <rect x="19.17" y="85.29" width="0.96" height="23.9" style="fill: #4c9f87"/>
            <rect x="60.16" y="85.29" width="0.96" height="23.9" style="fill: #4c9f87"/>
            <rect x="51.58" y="82.69" width="0.96" height="26.5" style="fill: #4c9f87"/>
            <rect x="27.73" y="82.69" width="0.96" height="26.5" style="fill: #4c9f87"/>
            <path d="M40.19,94.63h-12V109.1H52.08V94.63Zm-.71.71v3.48a2.86,2.86,0,0,0-2.36,2.69H28.86V95.34Zm-10.62,13v-6.17h8.32a2.82,2.82,0,0,0,2.3,2.21v4Zm22.51-13v6.17H43.1a2.85,2.85,0,0,0-2.35-2.69V95.34Zm-10.62,13v-4A2.83,2.83,0,0,0,43,102.22h8.33v6.17Z" style="fill: #cf5627"/>
            <rect x="29.63" y="78.69" width="20.99" height="4.93" style="fill: #4c9f87"/>
          </g>
          <g>
            <line x1="30.89" y1="78.68" x2="30.89" y2="83.62" style="fill: none;stroke: #fff;stroke-miterlimit: 10;stroke-width: 0.077537458698322px"/>
            <line x1="32.56" y1="78.68" x2="32.56" y2="83.62" style="fill: none;stroke: #fff;stroke-miterlimit: 10;stroke-width: 0.077537458698322px"/>
            <line x1="34.23" y1="78.68" x2="34.23" y2="83.62" style="fill: none;stroke: #fff;stroke-miterlimit: 10;stroke-width: 0.077537458698322px"/>
            <line x1="35.91" y1="78.68" x2="35.91" y2="83.62" style="fill: none;stroke: #fff;stroke-miterlimit: 10;stroke-width: 0.077537458698322px"/>
            <line x1="37.58" y1="78.68" x2="37.58" y2="83.62" style="fill: none;stroke: #fff;stroke-miterlimit: 10;stroke-width: 0.077537458698322px"/>
            <line x1="39.25" y1="78.68" x2="39.25" y2="83.62" style="fill: none;stroke: #fff;stroke-miterlimit: 10;stroke-width: 0.077537458698322px"/>
            <line x1="40.92" y1="78.68" x2="40.92" y2="83.62" style="fill: none;stroke: #fff;stroke-miterlimit: 10;stroke-width: 0.077537458698322px"/>
            <line x1="42.59" y1="78.68" x2="42.59" y2="83.62" style="fill: none;stroke: #fff;stroke-miterlimit: 10;stroke-width: 0.077537458698322px"/>
            <line x1="44.26" y1="78.68" x2="44.26" y2="83.62" style="fill: none;stroke: #fff;stroke-miterlimit: 10;stroke-width: 0.077537458698322px"/>
            <line x1="45.93" y1="78.68" x2="45.93" y2="83.62" style="fill: none;stroke: #fff;stroke-miterlimit: 10;stroke-width: 0.077537458698322px"/>
            <line x1="47.6" y1="78.68" x2="47.6" y2="83.62" style="fill: none;stroke: #fff;stroke-miterlimit: 10;stroke-width: 0.077537458698322px"/>
            <line x1="49.27" y1="78.68" x2="49.27" y2="83.62" style="fill: none;stroke: #fff;stroke-miterlimit: 10;stroke-width: 0.077537458698322px"/>
          </g>
          <line x1="28.5" y1="88.37" x2="51.7" y2="88.37" style="fill: none;stroke: #fff;stroke-miterlimit: 10;stroke-width: 0.155074917396644px"/>
          <polygon points="28.63 94.63 30.22 92.1 28.7 92.1 28.63 94.63" style="fill: #cf5627"/>
          <polygon points="31.46 89.94 28.63 94.63 51.58 94.63 51.58 92.1 50.13 92.1 50.13 90.42 51.58 90.42 51.58 89.94 31.46 89.94" style="fill: #417666"/>
          <polygon points="30.22 92.1 31.46 89.94 30.22 89.94 30.22 92.1" style="fill: #cf5627"/>
          <polygon points="20.13 85.29 24.83 77.25 24.83 80.32 20.13 88.55 20.13 85.29" style="fill: #d2a556"/>
          <rect x="35.06" y="85.53" width="10.39" height="3.72" style="fill: #fff;stroke: #d38f2c;stroke-miterlimit: 10;stroke-width: 0.133439857310142px"/>
          <rect x="48.15" y="85.71" width="3.43" height="1.92" style="fill: #cf5627"/>
          <g>
            <line x1="22.48" y1="93.66" x2="22.48" y2="100.1" style="fill: none;stroke: #fff;stroke-miterlimit: 10;stroke-width: 0.038768729349161px"/>
            <line x1="25.56" y1="93.66" x2="25.56" y2="100.1" style="fill: none;stroke: #fff;stroke-miterlimit: 10;stroke-width: 0.038768729349161px"/>
            <line x1="27.73" y1="95.75" x2="19.95" y2="95.75" style="fill: none;stroke: #fff;stroke-miterlimit: 10;stroke-width: 0.038768729349161px"/>
            <line x1="27.73" y1="98.01" x2="19.95" y2="98.01" style="fill: none;stroke: #fff;stroke-miterlimit: 10;stroke-width: 0.038768729349161px"/>
          </g>
          <g>
            <line x1="55.03" y1="93.66" x2="55.03" y2="100.1" style="fill: none;stroke: #fff;stroke-miterlimit: 10;stroke-width: 0.038768729349161px"/>
            <line x1="58.1" y1="93.66" x2="58.1" y2="100.1" style="fill: none;stroke: #fff;stroke-miterlimit: 10;stroke-width: 0.038768729349161px"/>
            <line x1="60.27" y1="95.75" x2="52.5" y2="95.75" style="fill: none;stroke: #fff;stroke-miterlimit: 10;stroke-width: 0.038768729349161px"/>
            <line x1="60.27" y1="98.01" x2="52.5" y2="98.01" style="fill: none;stroke: #fff;stroke-miterlimit: 10;stroke-width: 0.038768729349161px"/>
          </g>
          <line x1="20.13" y1="100.47" x2="27.72" y2="100.47" style="fill: none;stroke: #fff;stroke-miterlimit: 10;stroke-width: 0.077537458698322px"/>
          <line x1="52.56" y1="100.47" x2="60.14" y2="100.47" style="fill: none;stroke: #fff;stroke-miterlimit: 10;stroke-width: 0.077537458698322px"/>
        </g>
        <g>
          <polygon points="57.68 127.91 60.55 124.63 72.47 124.63 69.6 127.91 57.68 127.91" style="fill: #5dc2a5"/>
          <g>
            <polygon points="57.1 126.76 59.94 123.52 73.05 123.52 70.22 126.76 57.1 126.76" style="fill: #5dc2a5"/>
            <path d="M72.4,123.82l-2.32,2.64H57.76l2.31-2.64H72.4m1.3-.59H59.8l-3.35,3.82h13.9l3.35-3.82Z" style="fill: #92d3ca"/>
          </g>
          <polygon points="56.45 127.05 57.68 127.91 69.6 127.91 70.35 127.05 56.45 127.05" style="fill: #3f8a77"/>
          <g>
            <path d="M64.59,123.34c-.15.68-.7,1.27-2.14,1.27s-2-.59-2.15-1.27c-.28-1.13,1-1.27,2.15-1.27S64.83,122.26,64.59,123.34Z" style="fill: #f2652d"/>
            <path d="M61,124a.12.12,0,0,1-.09.14h0a.1.1,0,0,1-.13-.08l-.13-.48a.11.11,0,0,1,.08-.14h0a.12.12,0,0,1,.14.08Z" style="fill: #c35123"/>
            <path d="M61.55,124.24a.11.11,0,0,1-.1.12h0a.11.11,0,0,1-.13-.09l-.06-.49a.11.11,0,0,1,.09-.13h0a.11.11,0,0,1,.13.1Z" style="fill: #c35123"/>
            <path d="M62.11,124.36a.11.11,0,0,1-.11.11h0c-.06,0-.11,0-.12-.11v-.49a.12.12,0,0,1,.11-.12h0a.12.12,0,0,1,.12.11Z" style="fill: #c35123"/>
            <path d="M62.73,124.37a.11.11,0,0,1-.11.12h0a.12.12,0,0,1-.12-.12v-.49a.1.1,0,0,1,.11-.11h0a.12.12,0,0,1,.12.11Z" style="fill: #c35123"/>
            <path d="M63.38,124.3a.12.12,0,0,1-.13.11h0a.13.13,0,0,1-.1-.13l.05-.49a.11.11,0,0,1,.12-.1h0a.11.11,0,0,1,.11.12Z" style="fill: #c35123"/>
            <path d="M64,124.11a.12.12,0,0,1-.14.09h0a.12.12,0,0,1-.08-.14l.12-.48a.11.11,0,0,1,.14-.08h0a.1.1,0,0,1,.08.13Z" style="fill: #c35123"/>
            <path d="M64.89,122.93a1.05,1.05,0,0,1-.33.51c-.2.21-.37.13-.6.22s-.17.16-.27.22a.45.45,0,0,1-.34,0,.78.78,0,0,0-.37,0c-.11,0-.18.14-.29.18-.33.11-.57-.22-.88-.2-.15,0-.28.11-.43.08s-.22-.16-.34-.23-.3,0-.46-.07-.19-.12-.29-.22-.46-.29-.34-.65.18-.24.36-.36.16-.18.26-.25c.26-.18.59,0,.87-.19a2,2,0,0,1,.94-.13,6.87,6.87,0,0,1,.79,0,1,1,0,0,1,.35.07c.11,0,.17.13.3.14s.25,0,.37,0,.3.23.46.33A.43.43,0,0,1,64.89,122.93Z" style="fill: #f5c064"/>
            <path d="M64.27,122.74c0,.43-.82.77-1.82.77s-1.83-.34-1.83-.77.82-.76,1.83-.76S64.27,122.32,64.27,122.74Z" style="fill: #f6a733"/>
            <path d="M63.36,122.19a2.63,2.63,0,0,1,.85.35,2.3,2.3,0,0,0-1.76-.56c-1,0-1.83.34-1.83.76v0C61,122.19,62.56,122,63.36,122.19Z" style="fill: #f8d497"/>
          </g>
          <g>
            <path d="M70.71,123.72c-.15.68-.7,1.27-2.15,1.27s-2-.6-2.15-1.27c-.28-1.13,1-1.27,2.15-1.27S71,122.64,70.71,123.72Z" style="fill: #f2652d"/>
            <path d="M67.14,124.38a.11.11,0,0,1-.08.14h0a.12.12,0,0,1-.14-.09L66.8,124a.11.11,0,0,1,.08-.14h0a.11.11,0,0,1,.14.08Z" style="fill: #c35123"/>
            <path d="M67.66,124.61a.11.11,0,0,1-.1.13h0a.11.11,0,0,1-.12-.1l-.07-.49a.12.12,0,0,1,.1-.13h0a.12.12,0,0,1,.13.1Z" style="fill: #c35123"/>
            <path d="M68.23,124.73a.12.12,0,0,1-.11.12h0a.11.11,0,0,1-.12-.11l0-.5a.11.11,0,0,1,.12-.11h0a.1.1,0,0,1,.11.11Z" style="fill: #c35123"/>
            <path d="M68.85,124.75a.11.11,0,0,1-.12.11h0a.11.11,0,0,1-.11-.11v-.5a.11.11,0,0,1,.12-.11h0a.11.11,0,0,1,.11.11Z" style="fill: #c35123"/>
            <path d="M69.49,124.68a.11.11,0,0,1-.12.1h0a.11.11,0,0,1-.1-.12l0-.5a.13.13,0,0,1,.13-.1h0a.11.11,0,0,1,.1.13Z" style="fill: #c35123"/>
            <path d="M70.1,124.49a.11.11,0,0,1-.14.08h0a.11.11,0,0,1-.08-.14L70,124a.1.1,0,0,1,.13-.08h0a.12.12,0,0,1,.09.14Z" style="fill: #c35123"/>
            <path d="M71,123.3a1,1,0,0,1-.32.51c-.21.21-.38.14-.6.22s-.17.16-.27.22a.4.4,0,0,1-.35,0,.77.77,0,0,0-.37,0c-.11,0-.18.15-.29.19-.33.11-.57-.23-.88-.2-.15,0-.27.1-.43.07s-.21-.16-.33-.22-.3,0-.47-.07-.19-.12-.29-.23-.45-.28-.34-.65.19-.24.37-.36.16-.18.25-.24c.27-.19.6-.06.88-.2a2.13,2.13,0,0,1,.94-.13,7,7,0,0,1,.79,0,1.37,1.37,0,0,1,.34.07c.11,0,.18.13.3.15a1.23,1.23,0,0,1,.38,0c.16.09.29.24.45.33A.43.43,0,0,1,71,123.3Z" style="fill: #f5c064"/>
            <path d="M70.39,123.12c0,.42-.82.77-1.83.77s-1.83-.35-1.83-.77.82-.77,1.83-.77S70.39,122.69,70.39,123.12Z" style="fill: #f6a733"/>
            <path d="M69.48,122.56a2.56,2.56,0,0,1,.84.36,2.26,2.26,0,0,0-1.76-.57c-1,0-1.83.34-1.83.77v0C67.12,122.56,68.67,122.36,69.48,122.56Z" style="fill: #f8d497"/>
          </g>
          <g>
            <path d="M67.24,125.26c-.15.68-.7,1.27-2.14,1.27s-2-.6-2.15-1.27c-.28-1.13,1-1.28,2.15-1.28S67.49,124.18,67.24,125.26Z" style="fill: #f2652d"/>
            <path d="M63.68,125.92a.12.12,0,0,1-.08.14h0a.12.12,0,0,1-.14-.09l-.13-.48a.11.11,0,0,1,.08-.13h0a.11.11,0,0,1,.14.08Z" style="fill: #c35123"/>
            <path d="M64.2,126.15a.12.12,0,0,1-.1.13h0a.12.12,0,0,1-.13-.1l-.06-.49a.11.11,0,0,1,.1-.13h0a.11.11,0,0,1,.12.1Z" style="fill: #c35123"/>
            <path d="M64.76,126.27a.12.12,0,0,1-.11.12h0a.13.13,0,0,1-.12-.11v-.5a.11.11,0,0,1,.11-.11h0a.11.11,0,0,1,.12.11Z" style="fill: #c35123"/>
            <path d="M65.38,126.29a.11.11,0,0,1-.11.11h0a.12.12,0,0,1-.12-.11v-.5a.11.11,0,0,1,.11-.11h0a.11.11,0,0,1,.12.11Z" style="fill: #c35123"/>
            <path d="M66,126.22a.11.11,0,0,1-.13.1h0a.12.12,0,0,1-.1-.12l0-.5a.11.11,0,0,1,.13-.1h0a.12.12,0,0,1,.1.13Z" style="fill: #c35123"/>
            <path d="M66.63,126a.1.1,0,0,1-.13.08h0a.12.12,0,0,1-.09-.14l.12-.48a.11.11,0,0,1,.14-.08h0a.11.11,0,0,1,.08.14Z" style="fill: #c35123"/>
            <path d="M67.54,124.84a1,1,0,0,1-.33.51c-.2.21-.37.13-.6.22s-.16.16-.27.22a.37.37,0,0,1-.34,0,.78.78,0,0,0-.37,0c-.11,0-.18.15-.29.18-.33.11-.57-.22-.88-.19-.15,0-.28.1-.43.07s-.22-.16-.34-.23a1.22,1.22,0,0,0-.46-.06c-.13,0-.19-.12-.29-.23s-.46-.28-.34-.65.18-.24.36-.36.16-.18.26-.24c.27-.19.59-.06.87-.2a2.17,2.17,0,0,1,.94-.13,6.87,6.87,0,0,1,.79,0,1,1,0,0,1,.35.07c.11.05.17.13.3.15s.25,0,.37,0,.3.24.46.33A.43.43,0,0,1,67.54,124.84Z" style="fill: #f5c064"/>
            <path d="M66.92,124.66c0,.42-.81.76-1.82.76s-1.83-.34-1.83-.76.82-.77,1.83-.77S66.92,124.23,66.92,124.66Z" style="fill: #f6a733"/>
            <path d="M66,124.1a2.6,2.6,0,0,1,.85.36,2.26,2.26,0,0,0-1.76-.57c-1,0-1.83.34-1.83.77v0C63.66,124.1,65.21,123.9,66,124.1Z" style="fill: #f8d497"/>
          </g>
          <g>
            <ellipse cx="61.55" cy="122.76" rx="0.61" ry="0.24" style="fill: #f8d497"/>
            <ellipse cx="61.99" cy="123.15" rx="0.25" ry="0.1" style="fill: #f8d497"/>
          </g>
          <g>
            <ellipse cx="64.15" cy="124.75" rx="0.61" ry="0.24" style="fill: #f8d497"/>
            <ellipse cx="64.6" cy="125.13" rx="0.25" ry="0.1" style="fill: #f8d497"/>
          </g>
          <g>
            <ellipse cx="67.62" cy="123.21" rx="0.61" ry="0.24" style="fill: #f8d497"/>
            <ellipse cx="68.06" cy="123.59" rx="0.25" ry="0.1" style="fill: #f8d497"/>
          </g>
        </g>
        <g>
          <polygon points="61.99 135.12 64.87 131.83 76.78 131.83 73.91 135.12 61.99 135.12" style="fill: #5dc2a5"/>
          <g>
            <polygon points="61.42 133.96 64.25 130.73 77.36 130.73 74.53 133.96 61.42 133.96" style="fill: #5dc2a5"/>
            <path d="M76.71,131l-2.31,2.65H62.07L64.38,131H76.71m1.3-.59H64.11l-3.34,3.83H74.66L78,130.43Z" style="fill: #92d3ca"/>
          </g>
          <polygon points="60.77 134.26 61.99 135.12 73.91 135.12 74.67 134.26 60.77 134.26" style="fill: #3f8a77"/>
          <g>
            <path d="M66,133.64H65a.68.68,0,0,1-.49-1.15l3.13-3.23a.69.69,0,0,1,.49-.21h1a.68.68,0,0,1,.49,1.15l-3.13,3.24A.7.7,0,0,1,66,133.64Z" style="fill: #f8d497"/>
            <rect x="64.47" y="132.73" width="1.79" height="0.75" rx="0.37" style="fill: #f6a733"/>
            <rect x="64.88" y="132.9" width="0.97" height="0.4" rx="0.2" style="fill: #f2652d"/>
            <path d="M69.72,129.41l-3.17,3.35a.51.51,0,0,1,.13.34.41.41,0,0,1,0,.16l3-3.06A.67.67,0,0,0,69.72,129.41Z" style="fill: #f6a733"/>
          </g>
          <path d="M64.69,132.63l-.06,0s.13-.29.27-.43l1-1.05L66,131l.06,0s-.13.3-.27.44l-1,1A.21.21,0,0,1,64.69,132.63Z" style="fill: #fff"/>
          <g>
            <path d="M68.79,133.64h-1a.68.68,0,0,1-.49-1.15l3.14-3.23a.67.67,0,0,1,.48-.21h1a.68.68,0,0,1,.49,1.15l-3.13,3.24A.68.68,0,0,1,68.79,133.64Z" style="fill: #f8d497"/>
            <rect x="67.26" y="132.73" width="1.79" height="0.75" rx="0.37" style="fill: #f6a733"/>
            <rect x="67.68" y="132.9" width="0.97" height="0.4" rx="0.2" style="fill: #f2652d"/>
            <path d="M72.52,129.41l-3.17,3.35a.51.51,0,0,1,.13.34.76.76,0,0,1,0,.16l3-3.06A.66.66,0,0,0,72.52,129.41Z" style="fill: #f6a733"/>
          </g>
          <g>
            <path d="M71.58,133.64h-1a.68.68,0,0,1-.49-1.15l3.13-3.23a.69.69,0,0,1,.49-.21h1a.68.68,0,0,1,.49,1.15l-3.13,3.24A.7.7,0,0,1,71.58,133.64Z" style="fill: #f8d497"/>
            <rect x="70.05" y="132.73" width="1.79" height="0.75" rx="0.37" style="fill: #f6a733"/>
            <rect x="70.46" y="132.9" width="0.97" height="0.4" rx="0.2" style="fill: #f2652d"/>
            <path d="M75.3,129.41l-3.17,3.35a.51.51,0,0,1,.13.34.41.41,0,0,1,0,.16l3-3.06A.67.67,0,0,0,75.3,129.41Z" style="fill: #f6a733"/>
          </g>
          <path d="M67.52,132.63l-.06,0s.13-.29.26-.43l1-1.05.08-.06.06,0s-.13.3-.26.44l-1,1A.21.21,0,0,1,67.52,132.63Z" style="fill: #fff"/>
          <path d="M70.27,132.73l-.06,0s.13-.29.26-.43l1-1.05.08-.06.06.05s-.13.29-.26.43l-1,1A.21.21,0,0,1,70.27,132.73Z" style="fill: #fff"/>
        </g>
        <g>
          <g>
            <path d="M29,115.76a.37.37,0,0,0-.37-.36.34.34,0,0,0-.27.12l.05-1-.59,0,0,1a.37.37,0,0,0-.34.36.31.31,0,0,0,.06.19h-.19a.33.33,0,0,0,.11-.25.37.37,0,0,0-.37-.37.36.36,0,0,0-.32.2.31.31,0,0,0-.17.13.37.37,0,0,0-.64.25s0,0,0,0h-.11v3.22h3.13V116h-.09A.35.35,0,0,0,29,115.76Z" style="fill: #5dc2a5"/>
            <rect x="29.08" y="118.11" width="3.13" height="1.57" style="fill: #5dc2a5"/>
            <path d="M31.51,116.47c.07-.12.09-.23,0-.3a.2.2,0,0,0-.15-.07l0-.89-.58,0-.05,1.12c-.07-.19-.19-.31-.31-.29s-.21.22-.19.45h0v0c0-.25-.19-.44-.34-.42a.19.19,0,0,0-.11.07.27.27,0,0,0-.29,0,.21.21,0,0,0-.18-.08c-.14,0-.22.22-.2.45h-.05V118h3.13v-1.56Z" style="fill: #5dc2a5"/>
          </g>
          <polygon points="27.39 117.92 28.92 116.04 28.92 118.69 27.39 120.77 27.39 117.92" style="fill: #489a83"/>
          <rect x="21.44" y="118.35" width="0.59" height="1.66" transform="translate(-33.13 11.17) rotate(-16.59)" style="fill: #fff"/>
          <rect x="28.74" y="117.62" width="1.66" height="0.58" transform="translate(-89.59 141.97) rotate(-87.34)" style="fill: #fff"/>
          <rect x="25.68" y="116.89" width="1.66" height="0.59" transform="translate(-91.76 138.27) rotate(-87.36)" style="fill: #fff"/>
          <path d="M22.47,119.51a.31.31,0,0,1-.61,0,.31.31,0,1,1,.61,0Z" style="fill: #f6a733"/>
          <path d="M23.16,119.51a.3.3,0,1,1-.3-.31A.3.3,0,0,1,23.16,119.51Z" style="fill: #f6a733"/>
          <path d="M23.9,119.53a.31.31,0,1,1-.3-.3A.3.3,0,0,1,23.9,119.53Z" style="fill: #f6a733"/>
          <path d="M22.19,119.72a.31.31,0,1,1-.61,0,.31.31,0,0,1,.61,0Z" style="fill: #f8d497"/>
          <path d="M22.92,119.7a.3.3,0,1,1-.6,0,.3.3,0,0,1,.6,0Z" style="fill: #f8d497"/>
          <path d="M23.68,119.64a.3.3,0,1,1-.6,0,.3.3,0,1,1,.6,0Z" style="fill: #f8d497"/>
          <path d="M25.09,117.88a.36.36,0,0,1-.37.37.37.37,0,0,1-.37-.37.38.38,0,0,1,.37-.37A.37.37,0,0,1,25.09,117.88Z" style="fill: #5dc2a5"/>
          <path d="M25.85,117.67a.37.37,0,1,1-.37-.37A.37.37,0,0,1,25.85,117.67Z" style="fill: #5dc2a5"/>
          <circle cx="26.24" cy="117.73" r="0.37" style="fill: #5dc2a5"/>
          <path d="M27.43,117.64a.36.36,0,0,1-.37.37.37.37,0,1,1,0-.73A.36.36,0,0,1,27.43,117.64Z" style="fill: #5dc2a5"/>
          <path d="M25.65,117.84a.37.37,0,1,1-.36-.37A.37.37,0,0,1,25.65,117.84Z" style="fill: #92d3ca"/>
          <path d="M26.85,117.9a.37.37,0,0,1-.37.37.37.37,0,1,1,0-.73A.37.37,0,0,1,26.85,117.9Z" style="fill: #92d3ca"/>
          <rect x="21.03" y="119.74" width="3.13" height="1.57" style="fill: #fff"/>
          <rect x="24.26" y="119.57" width="3.13" height="1.57" style="fill: #fff"/>
          <rect x="24.26" y="117.92" width="3.13" height="1.57" style="fill: #f8d497"/>
          <rect x="24.26" y="119.49" width="3.13" height="0.08" style="fill: #676352"/>
          <path d="M28.13,118.32c0,.26,0,.49-.19.51s-.3-.17-.34-.42,0-.49.19-.51S28.09,118.06,28.13,118.32Z" style="fill: #f2652d"/>
          <path d="M28.72,118.32c0,.26,0,.49-.19.51s-.3-.17-.34-.42,0-.49.19-.51S28.68,118.06,28.72,118.32Z" style="fill: #f2652d"/>
          <path d="M29.29,118.32c.05.26,0,.49-.19.51s-.29-.17-.34-.42,0-.49.19-.51S29.25,118.06,29.29,118.32Z" style="fill: #f2652d"/>
          <path d="M29.89,118.31c0,.25-.05.48-.19.5s-.3-.16-.34-.42,0-.48.19-.51S29.85,118.05,29.89,118.31Z" style="fill: #f2652d"/>
          <path d="M28.49,118.13c.18.19.24.42.14.52s-.34,0-.52-.15-.25-.42-.14-.52S28.31,117.94,28.49,118.13Z" style="fill: #f8d497"/>
          <path d="M29.79,118.54c-.2.16-.44.2-.53.08s0-.34.21-.5.45-.19.53-.07S30,118.39,29.79,118.54Z" style="fill: #f8d497"/>
          <rect x="27.54" y="119.99" width="3.13" height="1.57" style="fill: #f5c064"/>
          <rect x="27.54" y="118.35" width="3.13" height="1.57" style="fill: #fff"/>
          <rect x="27.54" y="119.91" width="3.18" height="0.09" style="fill: #676352"/>
          <rect x="28.53" y="119.06" width="0.59" height="1.66" transform="translate(-26.42 9.65) rotate(-13.1)" style="fill: #92d3ca"/>
          <path d="M27.75,120.9c-.13.12-.37,0-.55-.15s-.21-.45-.08-.57.38-.05.55.15S27.89,120.79,27.75,120.9Z" style="fill: #f6a733"/>
          <path d="M28.64,120.83c-.13.11-.38,0-.55-.15s-.22-.45-.09-.57.38,0,.56.15S28.77,120.71,28.64,120.83Z" style="fill: #f6a733"/>
          <path d="M29.4,120.86c-.13.12-.37,0-.55-.15s-.21-.45-.08-.57.38,0,.55.15S29.54,120.74,29.4,120.86Z" style="fill: #f6a733"/>
          <path d="M27.41,121c-.14.11-.38,0-.56-.15s-.21-.45-.08-.57.38-.05.55.15S27.54,120.89,27.41,121Z" style="fill: #f8d497"/>
          <path d="M28.17,121c-.13.12-.38.05-.56-.15s-.21-.45-.08-.57.38,0,.56.15S28.3,120.87,28.17,121Z" style="fill: #f8d497"/>
          <path d="M29,121c-.13.11-.38,0-.56-.15s-.21-.45-.08-.57.38-.05.56.15S29.08,120.89,29,121Z" style="fill: #f8d497"/>
          <path d="M29.71,121c-.13.12-.38.05-.55-.15s-.21-.45-.08-.57.38,0,.55.15S29.84,120.87,29.71,121Z" style="fill: #f8d497"/>
          <rect x="26.7" y="120.7" width="3.13" height="1.57" style="fill: #fff"/>
          <polygon points="33.54 111.4 33.54 109.88 22.9 109.88 22.9 111.4 22.75 111.4 22.75 111.58 22.9 111.58 22.9 112.14 23.16 112.14 23.16 119.14 23.55 119.14 23.55 112.14 32.85 112.14 32.85 119.14 33.25 119.14 33.25 112.14 33.54 112.14 33.54 111.58 33.69 111.58 33.69 111.4 33.54 111.4" style="fill: #5dc2a5"/>
          <polygon points="30.98 112.82 30.98 114.33 33.54 111.4 33.54 109.88 30.98 112.82" style="fill: #f2652d"/>
          <polygon points="31.13 114.33 33.69 111.4 33.69 111.58 31.13 114.51 31.13 114.33" style="fill: #f6a733"/>
          <g>
            <path d="M26.69,117.11v-.18a.36.36,0,0,0-.37-.37H24.88a.37.37,0,0,0-.37.37v.18Z" style="fill: #f2652d"/>
            <path d="M26,116.48a.11.11,0,0,1-.11.11h-.62a.11.11,0,0,1-.11-.11h0a.11.11,0,0,1,.11-.12h.62a.11.11,0,0,1,.11.12Z" style="fill: #f6a733"/>
            <rect x="25.49" y="116.07" width="0.26" height="0.32" style="fill: #5dc2a5"/>
            <line x1="25.62" y1="116.11" x2="25.62" y2="114.83" style="fill: none;stroke: #5dc2a5;stroke-miterlimit: 10;stroke-width: 0.074108046871993px"/>
          </g>
          <g>
            <path d="M30.16,116.39v-.18a.37.37,0,0,0-.36-.37H28.35a.37.37,0,0,0-.36.37v.18Z" style="fill: #f2652d"/>
            <path d="M29.51,115.76a.12.12,0,0,1-.11.12h-.62a.12.12,0,0,1-.11-.12h0a.11.11,0,0,1,.11-.11h.62a.11.11,0,0,1,.11.11Z" style="fill: #f6a733"/>
            <rect x="28.96" y="115.35" width="0.26" height="0.32" style="fill: #5dc2a5"/>
            <line x1="29.09" y1="115.4" x2="29.09" y2="114.12" style="fill: none;stroke: #5dc2a5;stroke-miterlimit: 10;stroke-width: 0.074108046871993px"/>
          </g>
          <polygon points="31.13 114.33 30.98 114.33 33.54 111.4 33.69 111.4 31.13 114.33" style="fill: #fff"/>
          <polygon points="30.98 115.07 33.54 112.14 33.54 111.75 31.13 114.51 30.98 114.51 30.98 115.07" style="fill: #f2652d"/>
          <polygon points="20.33 112.82 22.9 109.88 33.54 109.88 30.98 112.82 20.33 112.82" style="fill: #f6a733"/>
          <g>
            <path d="M23.76,117.11v-.18a.37.37,0,0,0-.37-.37H22a.37.37,0,0,0-.37.37v.18Z" style="fill: #f2652d"/>
            <path d="M23.11,116.48a.11.11,0,0,1-.12.11h-.61a.11.11,0,0,1-.12-.11h0a.12.12,0,0,1,.12-.12H23a.12.12,0,0,1,.12.12Z" style="fill: #f6a733"/>
            <rect x="22.56" y="116.07" width="0.26" height="0.32" style="fill: #5dc2a5"/>
            <line x1="22.69" y1="116.11" x2="22.69" y2="114.83" style="fill: none;stroke: #5dc2a5;stroke-miterlimit: 10;stroke-width: 0.074108046871993px"/>
          </g>
          <polygon points="30.49 118.35 32.21 116.47 32.21 119.68 30.49 121.48 30.49 118.35" style="fill: #f6a733"/>
          <g>
            <rect x="20.59" y="114.77" width="0.4" height="7.3" style="fill: #f8d497"/>
            <rect x="30.29" y="114.77" width="0.4" height="7.3" style="fill: #f8d497"/>
            <rect x="20.33" y="112.82" width="10.65" height="1.65" style="fill: #f2652d"/>
            <rect x="20.33" y="114.51" width="10.65" height="0.56" style="fill: #f6a733"/>
            <rect x="20.18" y="114.33" width="10.94" height="0.18" style="fill: #fff"/>
          </g>
        </g>
        <g>
          <path d="M54.3,125.25l-.24,1.69a.06.06,0,0,0,.07.07l1.1-.21a.06.06,0,0,0,0-.09l-.86-1.48A.06.06,0,0,0,54.3,125.25Z" style="fill: #f5a822"/>
          <path d="M54.43,129.48a1.85,1.85,0,0,1,.64-1.34,1.29,1.29,0,0,1,1.49,0,7.18,7.18,0,0,1,.87,1.09c.37.39.89.61,1.29,1a2.66,2.66,0,0,1,.71,1.25,3.87,3.87,0,0,1,.13,1.27,1,1,0,0,1-.22.58c-.2.19-.52.16-.77.2-.42.07-.85.12-1.27.15a12.23,12.23,0,0,1-1.48,0,4.43,4.43,0,0,1-1.31-.14c-.36-.23.24-.46.24-.46a28.32,28.32,0,0,1-.36-2.88A6.39,6.39,0,0,1,54.43,129.48Z" style="fill: #fbeacb"/>
          <path d="M59.46,131.48a.4.4,0,0,0-.09-.2A1.84,1.84,0,0,1,58,132.85a10.27,10.27,0,0,1-1.91.12.31.31,0,0,0-.29.2h0a.36.36,0,0,0,.29.52c.35,0,.71,0,1.06,0a12.31,12.31,0,0,0,1.91-.24.42.42,0,0,0,.42-.33v0A4,4,0,0,0,59.46,131.48Z" style="fill: #f5a822"/>
          <ellipse cx="55.33" cy="127.49" rx="1.39" ry="1.33" style="fill: #f8d497"/>
          <path d="M56.22,125.32l-.88,1.47a.06.06,0,0,0,0,.09l1.1.23a.06.06,0,0,0,.07-.07l-.22-1.7S56.25,125.27,56.22,125.32Z" style="fill: #f8d497"/>
          <path d="M55.36,127.67l-.27.17-.26-.17a.3.3,0,0,1,.53,0Z" style="fill: #f2652d"/>
          <path d="M54.65,130.8a.83.83,0,0,0,.71.52l0,2.25" style="fill: none;stroke: #f6a733;stroke-linecap: round;stroke-linejoin: round;stroke-width: 0.039817161174341px"/>
          <path d="M56,126.47s.26.08.3.22l-.1-1S56.1,126.28,56,126.47Z" style="fill: #f2652d"/>
          <g>
            <line x1="53.47" y1="127.55" x2="54.47" y2="127.55" style="fill: none;stroke: #f2652d;stroke-linecap: round;stroke-linejoin: round;stroke-width: 0.017497768786829px"/>
            <line x1="53.55" y1="127.9" x2="54.55" y2="127.78" style="fill: none;stroke: #f2652d;stroke-linecap: round;stroke-linejoin: round;stroke-width: 0.017497768786829px"/>
            <line x1="53.57" y1="128.27" x2="54.54" y2="127.92" style="fill: none;stroke: #f2652d;stroke-linecap: round;stroke-linejoin: round;stroke-width: 0.017497768786829px"/>
          </g>
          <g>
            <line x1="57.03" y1="127.55" x2="56.02" y2="127.55" style="fill: none;stroke: #f2652d;stroke-linecap: round;stroke-linejoin: round;stroke-width: 0.017497768786829px"/>
            <line x1="56.94" y1="127.9" x2="55.94" y2="127.78" style="fill: none;stroke: #f2652d;stroke-linecap: round;stroke-linejoin: round;stroke-width: 0.017497768786829px"/>
            <line x1="56.93" y1="128.27" x2="55.96" y2="127.92" style="fill: none;stroke: #f2652d;stroke-linecap: round;stroke-linejoin: round;stroke-width: 0.017497768786829px"/>
          </g>
          <path d="M57,129.62a.36.36,0,0,0-.2.08.37.37,0,0,0-.07.39,2,2,0,0,1,.12.4c0,.07,0,.13,0,.19a.5.5,0,0,0,.29.37.6.6,0,0,0,.6-.11.64.64,0,0,0,.2-.59A1,1,0,0,0,57,129.62Z" style="fill: #f6a733"/>
          <path d="M58.26,130.92a.27.27,0,0,1,.2-.12.36.36,0,0,1,.27.12l0,0a.31.31,0,0,1,.1.25c0,.25-.41.24-.56.12a.42.42,0,0,1-.09-.14s0-.08,0-.11a.56.56,0,0,1,0-.12S58.26,130.93,58.26,130.92Z" style="fill: #f5c064"/>
        </g>
        <g>
          <path d="M48,123l-.24,1.69a.06.06,0,0,0,.07.07l1.1-.21a.06.06,0,0,0,0-.09l-.86-1.48A.06.06,0,0,0,48,123Z" style="fill: #f5a822"/>
          <path d="M48.08,127.19a1.8,1.8,0,0,1,.65-1.34,1.28,1.28,0,0,1,1.48,0c.38.28.56.74.88,1.08s.89.62,1.28,1a2.66,2.66,0,0,1,.71,1.25,3.87,3.87,0,0,1,.13,1.27A1,1,0,0,1,53,131c-.2.19-.52.16-.77.2-.42.07-.85.12-1.27.15a14.62,14.62,0,0,1-1.48,0,4.43,4.43,0,0,1-1.31-.14c-.36-.23.24-.47.24-.47a27.93,27.93,0,0,1-.36-2.88A6.34,6.34,0,0,1,48.08,127.19Z" style="fill: #fbeacb"/>
          <path d="M53.11,129.19A.48.48,0,0,0,53,129a1.83,1.83,0,0,1-1.33,1.58,10.22,10.22,0,0,1-1.91.12.31.31,0,0,0-.29.2h0a.37.37,0,0,0,.29.52c.36,0,.71,0,1.06,0a12.31,12.31,0,0,0,1.91-.24.42.42,0,0,0,.42-.33v0A4.16,4.16,0,0,0,53.11,129.19Z" style="fill: #f5a822"/>
          <ellipse cx="48.98" cy="125.2" rx="1.39" ry="1.33" style="fill: #f8d497"/>
          <path d="M49.87,123,49,124.5a.06.06,0,0,0,0,.09l1.09.22a.06.06,0,0,0,.08-.06l-.22-1.7A.07.07,0,0,0,49.87,123Z" style="fill: #f8d497"/>
          <path d="M49,125.38l-.26.17-.26-.17a.37.37,0,0,1,.26-.16A.4.4,0,0,1,49,125.38Z" style="fill: #f2652d"/>
          <path d="M48.31,128.51a.83.83,0,0,0,.7.52l0,2.25" style="fill: none;stroke: #f6a733;stroke-linecap: round;stroke-linejoin: round;stroke-width: 0.039817161174341px"/>
          <path d="M49.68,124.18s.27.08.3.22l-.1-1S49.75,124,49.68,124.18Z" style="fill: #f2652d"/>
          <g>
            <line x1="47.12" y1="125.26" x2="48.12" y2="125.26" style="fill: none;stroke: #f2652d;stroke-linecap: round;stroke-linejoin: round;stroke-width: 0.017497768786829px"/>
            <line x1="47.2" y1="125.61" x2="48.2" y2="125.49" style="fill: none;stroke: #f2652d;stroke-linecap: round;stroke-linejoin: round;stroke-width: 0.017497768786829px"/>
            <line x1="47.22" y1="125.98" x2="48.19" y2="125.63" style="fill: none;stroke: #f2652d;stroke-linecap: round;stroke-linejoin: round;stroke-width: 0.017497768786829px"/>
          </g>
          <g>
            <line x1="50.68" y1="125.26" x2="49.68" y2="125.26" style="fill: none;stroke: #f2652d;stroke-linecap: round;stroke-linejoin: round;stroke-width: 0.017497768786829px"/>
            <line x1="50.6" y1="125.61" x2="49.59" y2="125.49" style="fill: none;stroke: #f2652d;stroke-linecap: round;stroke-linejoin: round;stroke-width: 0.017497768786829px"/>
            <line x1="50.58" y1="125.98" x2="49.61" y2="125.63" style="fill: none;stroke: #f2652d;stroke-linecap: round;stroke-linejoin: round;stroke-width: 0.017497768786829px"/>
          </g>
          <path d="M50.69,127.33a.36.36,0,0,0-.2.08.36.36,0,0,0-.07.39,1.85,1.85,0,0,1,.12.4c0,.06,0,.13,0,.19a.47.47,0,0,0,.29.36.57.57,0,0,0,.6-.1.65.65,0,0,0,.2-.59A1,1,0,0,0,50.69,127.33Z" style="fill: #f6a733"/>
          <path d="M51.91,128.63a.25.25,0,0,1,.2-.12.39.39,0,0,1,.27.11l0,0a.34.34,0,0,1,.09.25c0,.25-.41.24-.56.12a.28.28,0,0,1-.08-.15.34.34,0,0,1,0-.1.56.56,0,0,1,0-.12Z" style="fill: #f5c064"/>
        </g>
        <g>
          <path d="M46.37,121.17a.35.35,0,0,0,0-.25.18.18,0,0,0-.09-.1v0a.37.37,0,0,0,0-.31v-.35h0v-3.09h0c.11-.14.16-.29-.07-.39a.55.55,0,0,0-.34,0c0-.13,0-.25-.21-.27a.65.65,0,0,0-.37.2s0,0,0,0a.92.92,0,0,0-.84.44H44.2l-.51,1.4a1.11,1.11,0,0,0-1.09,1.38l.86,1.34v.49a.21.21,0,0,0-.11,0,.58.58,0,0,0-.44.24l-.23,0a1.7,1.7,0,0,0-.41,0c-.48,0-.88.16-.88.36s.31.32.71.36a1.61,1.61,0,0,0,.88.21,2.44,2.44,0,0,0,.48-.05v.14l.59,1.71,2.34-1.71v-1.68Z" style="fill: #5dc2a5"/>
          <polygon points="47.71 114.55 47.71 112.95 36.5 112.95 36.5 114.55 36.35 114.55 36.35 114.74 36.5 114.74 36.5 115.33 36.78 115.33 36.78 122.7 37.2 122.7 37.2 115.33 46.99 115.33 46.99 122.7 47.41 122.7 47.41 115.33 47.71 115.33 47.71 114.74 47.87 114.74 47.87 114.55 47.71 114.55" style="fill: #f6a733"/>
          <path d="M41.86,120.08c-.11-.25.6-.62.83-.53s0,.47-.16.6-.86.31-.63-.16" style="fill: #5dc2a5"/>
          <path d="M42.81,120.13c-.1-.26.6-.63.84-.53s0,.47-.16.6-.86.31-.63-.16" style="fill: #5dc2a5"/>
          <path d="M42.47,120.13c-.18-.21.38-.78.63-.76s.16.44,0,.62-.72.56-.65,0" style="fill: #92d3ca"/>
          <path d="M40.66,125.13c0,.2-.4.36-.88.36s-.87-.16-.87-.36.39-.36.87-.36S40.66,124.93,40.66,125.13Z" style="fill: #92d3ca"/>
          <path d="M41.53,125.25c0,.25-.46.45-1,.45s-1-.2-1-.45.46-.46,1-.46S41.53,125,41.53,125.25Z" style="fill: #5dc2a5"/>
          <path d="M40.92,125.2c-.15.26-.42.48-.65.4s-.11-.24-.06-.41.35-.65.65-.63S41.09,124.91,40.92,125.2Z" style="fill: #92d3ca"/>
          <rect x="41.72" y="119.99" width="2.05" height="0.99" style="fill: #f8d497"/>
          <rect x="41.72" y="120.98" width="2.05" height="1.07" style="fill: #f6a733"/>
          <rect x="41.72" y="122.05" width="2.05" height="1.03" style="fill: #f8d497"/>
          <rect x="41.72" y="123.08" width="2.05" height="2.13" style="fill: #f6a733"/>
          <path d="M42.44,124a.57.57,0,0,0,.23-.64c-.17-.3-.25.09-.47,0s0-.08-.09-.12c-.3-.22-.47.09-.44.42A.48.48,0,0,0,42.44,124Z" style="fill: #5dc2a5"/>
          <path d="M43.54,124.06c.17-.12.34-.44.22-.64s-.25.08-.46,0,0-.07-.09-.12c-.3-.22-.47.09-.45.42A.5.5,0,0,0,43.54,124.06Z" style="fill: #5dc2a5"/>
          <path d="M41.81,124.48a.59.59,0,0,0,.23-.65c-.17-.3-.25.09-.46,0s0-.08-.1-.12c-.3-.22-.47.09-.44.42A.49.49,0,0,0,41.81,124.48Z" style="fill: #f5c064"/>
          <path d="M42.7,124.5c.17-.12.34-.43.22-.64s-.25.08-.46,0,0-.07-.09-.11c-.3-.23-.47.08-.45.41A.5.5,0,0,0,42.7,124.5Z" style="fill: #92d3ca"/>
          <path d="M43.63,124.5a.58.58,0,0,0,.23-.64c-.17-.3-.26.08-.47,0s0-.07-.09-.11c-.3-.23-.47.08-.45.41A.5.5,0,0,0,43.63,124.5Z" style="fill: #f5c064"/>
          <rect x="40.97" y="124.1" width="2.94" height="1.68" style="fill: #e6e7e8"/>
          <path d="M38,120.26c.12-.16.29-.53-.08-.5-.21,0-.23.34-.46.18,0,0,0-.17-.09-.21s-.12,0-.21.07,0,.13-.14.13-.19-.13-.25-.17-.44-.21-.32.09c-.1,0-.33-.09-.43,0a.29.29,0,0,0,.05.43c.23.1.27-.15.42-.18s.08.29.28.33.06-.25.25-.23.1.19.17.22.06,0,.16-.13.17-.07.35,0,.25.09.3-.11" style="fill: #5dc2a5"/>
          <path d="M37.8,120c.1-.14.24-.44-.07-.41-.16,0-.18.28-.36.14s0-.13-.08-.17-.09,0-.17.06,0,.1-.11.11-.16-.11-.21-.14-.35-.18-.25.07c-.09,0-.27-.07-.35,0a.22.22,0,0,0,0,.34c.18.09.22-.12.33-.14s.07.24.23.27.05-.2.21-.19.08.15.14.18,0,0,.13-.1.13-.06.28,0,.2.08.24-.09" style="fill: #f5c064"/>
          <path d="M38.09,121.87c.12-.16.29-.53-.08-.51-.21,0-.23.35-.46.19,0,0,0-.17-.09-.22s-.12,0-.21.08,0,.12-.14.13-.19-.13-.25-.18-.44-.21-.32.1c-.1,0-.33-.09-.43,0a.28.28,0,0,0,0,.42c.23.11.27-.14.42-.17s.08.29.28.33.06-.25.25-.23.1.19.17.22.06,0,.16-.13.17-.07.35,0,.25.09.3-.12" style="fill: #5dc2a5"/>
          <path d="M37.87,121.62c.1-.13.24-.43-.07-.41-.16,0-.18.29-.36.15s0-.13-.08-.17-.09,0-.17.06,0,.1-.11.11-.16-.11-.21-.15-.35-.17-.25.08c-.09,0-.27-.07-.35,0a.22.22,0,0,0,0,.34c.18.09.22-.12.33-.14s.07.24.23.27.05-.21.21-.19.08.15.14.18,0,0,.13-.11.13-.05.28,0,.2.07.24-.09" style="fill: #92d3ca"/>
          <path d="M38.18,123.29c.12-.16.29-.53-.08-.5-.2,0-.23.34-.45.18-.06,0,0-.17-.09-.21s-.12,0-.21.07,0,.13-.14.13-.2-.13-.26-.17-.44-.22-.31.09c-.11,0-.34-.09-.43,0a.28.28,0,0,0,0,.43c.22.1.27-.15.41-.18s.08.29.28.33.06-.25.26-.23.09.19.16.22.06,0,.17-.13.16-.07.35,0,.24.09.29-.11" style="fill: #5dc2a5"/>
          <path d="M38,123.05c.09-.14.23-.44-.07-.41s-.19.28-.37.14,0-.13-.07-.17-.1,0-.17.06,0,.1-.12.11-.15-.11-.21-.14-.35-.18-.25.07c-.09,0-.27-.07-.35,0a.22.22,0,0,0,0,.34c.18.09.22-.12.34-.14s.06.24.22.27.06-.2.21-.19.08.15.14.18,0,0,.13-.1.14-.06.28,0,.2.08.25-.09" style="fill: #f5c064"/>
          <rect x="35.95" y="120.15" width="2.4" height="0.44" style="fill: #fff"/>
          <rect x="35.9" y="121.78" width="2.47" height="0.42" style="fill: #fff"/>
          <rect x="35.92" y="123.2" width="2.47" height="0.56" style="fill: #fff"/>
          <g>
            <rect x="35.58" y="119.19" width="0.19" height="6.2" style="fill: #f6a733"/>
            <rect x="35.5" y="119.14" width="3.33" height="0.23" style="fill: #f6a733"/>
            <rect x="38.53" y="119.28" width="0.16" height="6.48" style="fill: #f6a733"/>
            <rect x="35.48" y="120.5" width="3.38" height="0.16" style="fill: #f6a733"/>
            <rect x="35.48" y="122.13" width="3.38" height="0.16" style="fill: #f6a733"/>
            <rect x="35.43" y="123.71" width="3.4" height="0.16" style="fill: #f6a733"/>
          </g>
          <path d="M36.93,124.16c.26-.27,0-.67-.24-.84a.73.73,0,0,0-.32-.12c-.32,0-.14.11-.26.3s-.17,0-.3-.06-.27,0-.28.21.54.2.72.07c-.17.11-.22.45,0,.52s.22-.15.36-.27c0,.06,0,.3.07.33s.24-.13.26-.24" style="fill: #5dc2a5"/>
          <path d="M37.79,124.13c.26-.27,0-.67-.24-.83a.63.63,0,0,0-.32-.12c-.32,0-.13.11-.26.29s-.16,0-.29-.06-.28,0-.29.21.54.21.72.07c-.17.11-.21.46,0,.53s.22-.15.36-.27c0,.06,0,.29.07.33s.25-.13.27-.24" style="fill: #f8d497"/>
          <rect x="35.62" y="123.85" width="2.45" height="0.35" style="fill: #f6a733"/>
          <rect x="35.53" y="124.06" width="2.7" height="1.93" style="fill: #fff"/>
          <path d="M35.64,125.33a.5.5,0,0,1-.49-.83.45.45,0,0,1,.58.22A.45.45,0,0,1,35.64,125.33Z" style="fill: #5dc2a5"/>
          <path d="M36.53,125.27a.43.43,0,0,1-.57-.21.44.44,0,0,1,.08-.61.45.45,0,0,1,.58.21A.44.44,0,0,1,36.53,125.27Z" style="fill: #5dc2a5"/>
          <path d="M37.42,125.22a.43.43,0,0,1-.57-.22.44.44,0,0,1,.08-.61.45.45,0,0,1,.58.22A.43.43,0,0,1,37.42,125.22Z" style="fill: #5dc2a5"/>
          <path d="M36.29,125.22a.5.5,0,1,1-.25-.56A.45.45,0,0,1,36.29,125.22Z" style="fill: #92d3ca"/>
          <path d="M37.3,125.08a.44.44,0,0,1-.6.12.39.39,0,1,1,.6-.12Z" style="fill: #92d3ca"/>
          <rect x="34.83" y="124.84" width="2.94" height="1.68" style="fill: #fff"/>
          <path d="M37.59,125.59c.1,0,.18,0,.22.06s-1.1,1-.91-.07c0-.1.07-.39.21-.39s.11.19.07.29c.08-.16.67-.48.54-.11,0,.12-.38.32-.49.35A1.76,1.76,0,0,1,37.59,125.59Z" style="fill: #92d3ca"/>
          <path d="M38.1,125.55c.1,0,.19,0,.22,0s-1.1,1.05-.91-.07c0-.09.07-.39.21-.39s.12.2.07.29c.08-.16.67-.48.54-.11,0,.13-.38.32-.49.36A1.05,1.05,0,0,1,38.1,125.55Z" style="fill: #5dc2a5"/>
          <path d="M38.61,125.55c.1,0,.19,0,.22,0s-1.1,1.05-.91-.07c0-.09.08-.39.22-.39s.11.2.07.29c.07-.16.66-.48.54-.11,0,.13-.39.32-.5.36A1.14,1.14,0,0,1,38.61,125.55Z" style="fill: #92d3ca"/>
          <path d="M39.15,125.57c.1,0,.19,0,.22.05s-1.1,1-.91-.07c0-.09.07-.38.21-.39s.12.2.07.29c.08-.16.67-.47.54-.11,0,.13-.38.32-.49.36A1.76,1.76,0,0,1,39.15,125.57Z" style="fill: #5dc2a5"/>
          <rect x="36.58" y="125.84" width="2.94" height="1.68" style="fill: #fff"/>
          <g>
            <polygon points="40.86 121.67 39.86 121.67 39.67 120.46 41.02 120.46 40.86 121.67" style="fill: #5dc2a5"/>
            <line x1="40.33" y1="119.85" x2="40.33" y2="117.36" style="fill: none;stroke: #f8d497;stroke-miterlimit: 10;stroke-width: 0.079703973522535px"/>
            <line x1="40.33" y1="119.85" x2="39.86" y2="120.6" style="fill: none;stroke: #f8d497;stroke-miterlimit: 10;stroke-width: 0.079703973522535px"/>
            <line x1="40.33" y1="119.85" x2="40.81" y2="120.53" style="fill: none;stroke: #f8d497;stroke-miterlimit: 10;stroke-width: 0.079703973522535px"/>
          </g>
          <polygon points="33.8 116.04 36.5 112.95 47.71 112.95 45.01 116.04 33.8 116.04" style="fill: #92d3ca"/>
          <polygon points="45.01 116.04 45.01 117.63 47.71 114.55 47.71 112.95 45.01 116.04" style="fill: #5dc2a5"/>
          <polygon points="45.17 117.63 47.87 114.55 47.87 114.74 45.17 117.83 45.17 117.63" style="fill: #92d3ca"/>
          <polygon points="45.17 117.63 45.01 117.63 47.71 114.55 47.87 114.55 45.17 117.63" style="fill: #fff"/>
          <polygon points="45.01 118.42 47.71 115.33 47.71 114.92 45.17 117.83 45.01 117.83 45.01 118.42" style="fill: #fff"/>
          <polygon points="43.91 125.78 46.39 122.85 46.39 121.17 43.91 124.1 43.91 125.78" style="fill: #92d3ca"/>
          <g>
            <rect x="34.08" y="118.1" width="0.42" height="7.69" style="fill: #f8d497"/>
            <rect x="44.29" y="118.1" width="0.42" height="7.69" style="fill: #f8d497"/>
            <rect x="33.8" y="116.04" width="11.21" height="1.74" style="fill: #5dc2a5"/>
            <rect x="33.8" y="117.83" width="11.21" height="0.59" style="fill: #92d3ca"/>
            <rect x="33.64" y="117.63" width="11.52" height="0.19" style="fill: #fff"/>
          </g>
        </g>
      </g>
    </g>
  </g>
</svg>
