<svg xmlns="http://www.w3.org/2000/svg" width="122.54" height="80.21" viewBox="0 0 122.54 80.21">
  <g id="Layer_2" data-name="Layer 2">
    <g id="Icon">
      <g>
        <g>
          <path d="M120.22,19.81H102.59V18.22l8,0V16.12h-5.91V14.55h5.91V12.8h-3.91v-.86a20.16,20.16,0,0,1-3.9,1.42l-1-1.42a15,15,0,0,0,7.68-3.84h-1.85V6.56l4.74,0a15.6,15.6,0,0,0,8.94,5.35l-1.06,1.43a15,15,0,0,1-4-1.51v1h-4v1.77h5.91v1.55h-5.91v2.1h7.94ZM108.42,5V6.44l-1.68,0V5H102.1V3.41h4.64l0-2.09,1.72,0,0,2.11h2.85V5Zm6.73,6.17a19.19,19.19,0,0,1-3.62-3.1A11.94,11.94,0,0,1,108,11.16Zm-.69-4V5H111.7l0-1.62h2.78V1.3h1.73V3.44l4.7,0V5h-4.68l0,2.12Z" style="fill: #fff"/>
          <path d="M104.6,33.74a6.28,6.28,0,0,0-2.89-2.5l1-1.08a6.7,6.7,0,0,1,3.11,2.5ZM101.8,43a14.87,14.87,0,0,0,2.74-7.06l1.44.47a15.6,15.6,0,0,1-2.63,7.19Zm3.4-14.27a6.18,6.18,0,0,0-2.93-2.15l1.1-1.08a6.35,6.35,0,0,1,3,2.22Zm10,6.54H111V32.08l-1.13.39-.1-.5c-.95.11-1.9.26-3,.43l.74.22a6.24,6.24,0,0,1-1,3l-1.32-.43a5.13,5.13,0,0,0,1.06-2.92l.17.09-.73-1.21a13.34,13.34,0,0,0,1.83-1.7l-1.08.15-.64-1.23a12.63,12.63,0,0,0,2.65-3.56l1.25.67A11.28,11.28,0,0,1,108,28.05l.65-.05.73-1.08,1.08.61V26.17h1.75a10.44,10.44,0,0,0-.89-.91l1.32-.69a15,15,0,0,1,1.14,1.62h1.83v1.42h-5A17.46,17.46,0,0,1,108.89,30l1-.34A5.16,5.16,0,0,1,111,31.76h4.23V35a5.66,5.66,0,0,0,.67-2.61l1.21.2a5.42,5.42,0,0,1-.82,3.1l-1.25-.3Zm-1.49,8.7L113,42.37a41.12,41.12,0,0,0,4.44.39c.54,0,.78-.73.89-1.29H106.18l1.25-3.56h10.38v-.67H106.63V35.83h12.79v3.46l-10.74,0-.28.69,11.76,0a19.33,19.33,0,0,1-.84,3.43,1.8,1.8,0,0,1-1.8.82Zm-4.79-11.4a5.58,5.58,0,0,1-.15,2.87l-1.42.05a5.35,5.35,0,0,0,.39-2.89Zm-.08-2.37a4.31,4.31,0,0,1-.65.56l1-.06Zm1.42,2.24a5.45,5.45,0,0,1,.58,2.57l-1.31.28a4.6,4.6,0,0,0-.48-2.5ZM115.26,28v1.32H111V27.94ZM111,31.13V29.77l4.29,0v1.4ZM113.88,34V32.9l-1.49,0,0,1.1Zm4.57-3.95,1-.54a6,6,0,0,1,1.49,2.4l-1.08.45a6.82,6.82,0,0,1,.9,2.74l-1.33.28a5.38,5.38,0,0,0-.83-2.8l1.08-.26-.15-.43c-1,.08-2.18.21-3.41.43l-.84-1.21a12.17,12.17,0,0,0,1.88-1.9c-.26,0-.78.07-1.23.13l-.6-1.23a14,14,0,0,0,2.37-3.26l1.25.61a8.89,8.89,0,0,1-1.62,2.37l.93,0,.63-1.08,1.25.6a15.45,15.45,0,0,1-2.51,3.39l1.26-.11Zm-1,5.4a5.78,5.78,0,0,0-.16-2.85l1.17-.2a6.4,6.4,0,0,1,.39,2.87Z" style="fill: #fff"/>
          <path d="M120.8,66.79H105.53c-1.14,0-1.66-1-1.66-2V51.1l-1.36,0v-1.6l18.19,0V51.1H105.51l0,13.25c0,.6.21.84.88.84H120.8Zm-8.28-3h-6.11v-6l6.11,0ZM108,59.39v2.82l2.85,0,0-2.87Zm9.86-2.72-9.71,0,0-4.81h9.69Zm-8.07-1.47h6.43V53.33h-6.43Zm10,2.61v5.91h-6.17V57.81Zm-1.62,1.56-2.91,0v2.76l2.89,0Z" style="fill: #fff"/>
        </g>
        <g>
          <path d="M121.52,18.51H103.89V16.92l8,0V14.82H106V13.25h5.91V11.5H108v-.86a20.16,20.16,0,0,1-3.9,1.42l-1-1.42a15,15,0,0,0,7.68-3.84h-1.85V5.26l4.74,0a15.6,15.6,0,0,0,8.94,5.35L121.48,12a15,15,0,0,1-4-1.51v1h-4v1.77h5.91v1.55h-5.91v2.1h7.94ZM109.72,3.73V5.14l-1.68,0V3.73H103.4V2.11H108L108,0l1.72,0,0,2.11h2.85v1.6Zm6.73,6.17a19.19,19.19,0,0,1-3.62-3.1,11.8,11.8,0,0,1-3.52,3.06Zm-.69-4.05V3.73H113l0-1.62h2.78V0h1.73V2.14l4.7,0V3.73h-4.68l0,2.12Z" style="fill: #003869"/>
          <path d="M105.9,32.44a6.28,6.28,0,0,0-2.89-2.5l1-1.08a6.7,6.7,0,0,1,3.11,2.5Zm-2.8,9.22a14.87,14.87,0,0,0,2.74-7.06l1.44.47a15.56,15.56,0,0,1-2.63,7.19Zm3.4-14.27a6.18,6.18,0,0,0-2.93-2.15l1.1-1.08a6.35,6.35,0,0,1,3,2.22Zm10,6.54h-4.18V30.78l-1.13.39-.1-.5c-1,.11-1.9.26-3.05.43l.74.22a6.24,6.24,0,0,1-1,3l-1.32-.43A5.13,5.13,0,0,0,107.52,31l.17.08L107,29.85a13.34,13.34,0,0,0,1.83-1.7l-1.08.15-.64-1.23a12.63,12.63,0,0,0,2.65-3.56l1.25.67a11.28,11.28,0,0,1-1.68,2.57l.65-.05.73-1.08,1.08.61V24.87h1.75a10.44,10.44,0,0,0-.89-.91l1.32-.69a15,15,0,0,1,1.14,1.62h1.83v1.42h-5a17.46,17.46,0,0,1-1.71,2.42l1-.34a5.08,5.08,0,0,1,1.17,2.07h4.23v3.23a5.62,5.62,0,0,0,.67-2.61l1.21.2a5.42,5.42,0,0,1-.82,3.1l-1.25-.3ZM115,42.63l-.62-1.56a41.12,41.12,0,0,0,4.44.39c.54,0,.78-.73.89-1.29H107.48l1.25-3.56h10.38v-.67H107.93v-1.4h12.79V38L110,38l-.28.69,11.76,0a19.33,19.33,0,0,1-.84,3.43,1.8,1.8,0,0,1-1.8.82Zm-4.79-11.4A5.58,5.58,0,0,1,110,34.1l-1.42,0a5.35,5.35,0,0,0,.39-2.89Zm-.08-2.37a4.31,4.31,0,0,1-.65.56l1-.06Zm1.42,2.24a5.45,5.45,0,0,1,.58,2.57l-1.31.28a4.6,4.6,0,0,0-.48-2.5Zm5-4.44V28h-4.29V26.64Zm-4.29,3.17V28.47l4.29,0v1.4Zm2.91,2.87V31.6l-1.49,0,0,1.1Zm4.57-4,1-.54a6,6,0,0,1,1.49,2.4l-1.08.45a6.82,6.82,0,0,1,.9,2.74l-1.33.28a5.41,5.41,0,0,0-.83-2.8L121,31l-.15-.43c-1,.08-2.18.21-3.41.43l-.84-1.21a12.17,12.17,0,0,0,1.88-1.9c-.26,0-.78.07-1.23.13l-.6-1.23A14,14,0,0,0,119,23.55l1.25.61a8.89,8.89,0,0,1-1.62,2.37l.93,0,.63-1.08,1.25.6A15.45,15.45,0,0,1,119,29.4l1.26-.11Zm-1,5.4a5.78,5.78,0,0,0-.16-2.85l1.17-.2A6.4,6.4,0,0,1,120.1,34Z" style="fill: #003869"/>
          <path d="M122.1,65.49H106.83c-1.15,0-1.66-.95-1.66-2V49.8l-1.36,0v-1.6l18.19,0V49.8H106.81l0,13.25c0,.6.21.84.88.84H122.1Zm-8.28-3h-6.11v-6l6.11,0Zm-4.49-4.4v2.82l2.85,0,0-2.87Zm9.86-2.72-9.71,0,0-4.81h9.69Zm-8.07-1.47h6.43V52h-6.43Zm10,2.61v5.91h-6.17V56.51Zm-1.62,1.56-2.91,0v2.76l2.89,0Z" style="fill: #003869"/>
        </g>
        <g style="isolation: isolate">
          <polygon points="52.63 78.38 0 59.22 45.09 39.45 97.71 58.61 52.63 78.38" style="fill: #6baadb"/>
          <polygon points="52.65 80.21 52.63 78.38 97.71 58.61 97.73 60.44 52.65 80.21" style="fill: #3d77a6"/>
          <polygon points="0.02 61.06 0 59.22 52.63 78.38 52.65 80.21 0.02 61.06" style="fill: #254966"/>
        </g>
        <g>
          <g>
            <polygon points="3.19 57.81 18.73 42.28 55.66 42.69 40.14 57.81 3.19 57.81" style="fill: #b1d4ec"/>
            <path d="M18.74,42.36l36.78.38-15.4,15H3.32l2.22-2.21,13.2-13.18m0-.12L5.46,55.46l-2.41,2.4H40.16L55.8,42.64l-37.11-.4Z" style="fill: #fdf9f1"/>
          </g>
          <g>
            <polygon points="9.01 56.35 7.69 54.95 7.69 38.39 39.94 38.39 39.94 56.35 9.01 56.35" style="fill: #e2d8ea"/>
            <path d="M39.79,38.54V56.2H9.08L7.84,54.89V38.54h32m.31-.31H7.53V55l1.41,1.5H40.1V38.23Z" style="fill: #8760a4"/>
          </g>
          <rect x="38.74" y="38.23" width="1.35" height="18.28" style="fill: #a29ece"/>
          <polygon points="52.44 44.1 40.1 56.51 40.1 38.23 52.44 25.82 52.44 44.1" style="fill: #f2a4bf"/>
          <g>
            <rect x="20.72" y="48.98" width="5.47" height="7.37" style="fill: #a29ece"/>
            <path d="M26,49.14V56.2H20.88V49.14H26m.31-.31H20.57v7.68h5.78V48.83Z" style="fill: #8760a4"/>
          </g>
          <polygon points="37.27 34.59 8.94 34.59 7.53 32.03 17.14 23.01 24.01 20.45 51.76 20.45 53.17 23.01 43.57 32.03 37.27 34.59" style="fill: #fdf9f1"/>
          <rect x="8.94" y="34.59" width="28.32" height="7.29" style="fill: #fdf9f1"/>
          <polygon points="37.27 34.59 37.27 41.87 43.98 39.55 43.57 32.03 37.27 34.59" style="fill: #e2d8ea"/>
          <polygon points="43.57 32.03 43.98 39.55 53.17 30.73 53.17 23.01 43.57 32.03" style="fill: #fdf9f1"/>
          <polygon points="7.53 32.03 7.53 38.23 8.94 41.87 8.94 34.59 7.53 32.03" style="fill: #a29ece"/>
          <polygon points="35.18 44.06 7 44.07 8.94 41.87 37.27 41.87 35.18 44.06" style="fill: #e2d8ea"/>
          <polygon points="7.53 38.23 5.46 38.23 7 44.07 8.94 41.87 7.53 38.23" style="fill: #a29ece"/>
          <polygon points="5.46 38.23 7.53 35.97 7.53 38.23 5.46 38.23" style="fill: #8760a4"/>
          <polygon points="35.2 44.07 44.99 40.56 43.98 39.55 37.27 41.87 35.2 44.07" style="fill: #f2a4bf"/>
          <polygon points="44.99 40.56 43.98 39.55 53.17 30.73 54.8 30.73 44.99 40.56" style="fill: #e2d8ea"/>
          <g>
            <rect x="7.15" y="44.22" width="27.89" height="2.76" style="fill: #fdf9f1"/>
            <path d="M34.89,44.38v2.45H7.31V44.38H34.89m.31-.31H7v3.07H35.2V44.07Z" style="fill: #f2a4bf"/>
          </g>
          <g>
            <polygon points="35.32 44.15 44.88 40.73 44.88 43.98 35.32 46.98 35.32 44.15" style="fill: #e2d8ea"/>
            <path d="M44.76,40.89v3l-9.33,2.92V44.23l9.33-3.34m.23-.33L35.2,44.07v3.07L45,44.07V40.56Z" style="fill: #fff"/>
          </g>
          <polygon points="44.99 40.56 44.99 44.07 54.8 33.96 54.8 30.73 44.99 40.56" style="fill: #fdf9f1"/>
          <polygon points="5.46 38.23 5.46 41.87 7 47.14 7 44.07 5.46 38.23" style="fill: #ac4c96"/>
          <polygon points="8.94 34.59 37.27 34.59 35.2 32.28 11.32 32.28 8.94 34.59" style="fill: #e2d8ea"/>
          <polygon points="35.2 32.28 40.62 29.83 43.57 32.03 37.27 34.59 35.2 32.28" style="fill: #b1d4ec"/>
          <polygon points="51.76 20.45 40.62 29.83 43.57 32.03 53.17 23.01 51.76 20.45" style="fill: #e2d8ea"/>
          <polygon points="38.74 43.85 38.74 45.04 42.66 43.85 42.66 42.68 38.74 43.85" style="fill: #ac4c96"/>
          <g>
            <rect x="28.59" y="50.69" width="8.52" height="4.03" style="fill: #f2a4bf"/>
            <path d="M37,50.84v3.73H28.74V50.84H37m.31-.31H28.43v4.35h8.83V50.53Z" style="fill: #f2a4bf"/>
          </g>
          <g>
            <rect x="9.84" y="50.69" width="8.52" height="4.03" style="fill: #f2a4bf"/>
            <path d="M18.2,50.84v3.73H10V50.84H18.2m.31-.31H9.68v4.35h8.83V50.53Z" style="fill: #f2a4bf"/>
          </g>
          <g>
            <polygon points="41.14 47.87 43.69 45.36 43.69 52.91 41.14 55.42 41.14 47.87" style="fill: #a29ece"/>
            <path d="M43.63,45.49v7.37L41.2,55.29V47.92l2.43-2.43m.12-.27-2.66,2.65v7.68l2.66-2.64V45.22Z" style="fill: #fdf9f1"/>
          </g>
          <g>
            <line x1="41.09" y1="48.86" x2="43.75" y2="46.22" style="fill: none;stroke: #fdf9f1;stroke-miterlimit: 10;stroke-width: 0.155124531167986px"/>
            <line x1="41.09" y1="49.39" x2="43.75" y2="46.74" style="fill: none;stroke: #fdf9f1;stroke-miterlimit: 10;stroke-width: 0.155124531167986px"/>
            <line x1="41.09" y1="49.92" x2="43.75" y2="47.27" style="fill: none;stroke: #fdf9f1;stroke-miterlimit: 10;stroke-width: 0.155124531167986px"/>
            <line x1="41.09" y1="50.45" x2="43.75" y2="47.8" style="fill: none;stroke: #fdf9f1;stroke-miterlimit: 10;stroke-width: 0.155124531167986px"/>
            <line x1="41.09" y1="50.97" x2="43.75" y2="48.33" style="fill: none;stroke: #fdf9f1;stroke-miterlimit: 10;stroke-width: 0.155124531167986px"/>
            <line x1="41.09" y1="51.5" x2="43.75" y2="48.85" style="fill: none;stroke: #fdf9f1;stroke-miterlimit: 10;stroke-width: 0.155124531167986px"/>
            <line x1="41.09" y1="52.03" x2="43.75" y2="49.38" style="fill: none;stroke: #fdf9f1;stroke-miterlimit: 10;stroke-width: 0.155124531167986px"/>
            <line x1="41.09" y1="52.56" x2="43.75" y2="49.91" style="fill: none;stroke: #fdf9f1;stroke-miterlimit: 10;stroke-width: 0.155124531167986px"/>
            <line x1="41.09" y1="53.08" x2="43.75" y2="50.44" style="fill: none;stroke: #fdf9f1;stroke-miterlimit: 10;stroke-width: 0.155124531167986px"/>
            <line x1="41.09" y1="53.61" x2="43.75" y2="50.96" style="fill: none;stroke: #fdf9f1;stroke-miterlimit: 10;stroke-width: 0.155124531167986px"/>
            <line x1="41.09" y1="54.14" x2="43.75" y2="51.49" style="fill: none;stroke: #fdf9f1;stroke-miterlimit: 10;stroke-width: 0.155124531167986px"/>
            <line x1="41.09" y1="54.67" x2="43.75" y2="52.02" style="fill: none;stroke: #fdf9f1;stroke-miterlimit: 10;stroke-width: 0.155124531167986px"/>
          </g>
          <g>
            <polygon points="45 44.1 47.54 41.58 47.54 49.13 45 51.65 45 44.1" style="fill: #a29ece"/>
            <path d="M47.49,41.72v7.37l-2.44,2.42V44.14l2.44-2.42m.11-.27L44.94,44.1v7.68l2.66-2.65V41.45Z" style="fill: #fdf9f1"/>
          </g>
          <polyline points="40.1 47.94 41.09 47.94 41.09 45.29 40.1 45.6" style="fill: #b1d4ec"/>
          <polyline points="41.09 47.94 44.98 44.05 41.09 45.29" style="fill: #fff"/>
          <rect x="28.43" y="34.59" width="1.92" height="1.92" style="fill: #ac4c96"/>
          <rect x="24.43" y="34.59" width="1.92" height="1.92" style="fill: #ac4c96"/>
          <polygon points="47.6 49.13 44.94 49.13 44.94 51.78 47.6 49.13" style="fill: #8760a4"/>
          <g>
            <g>
              <polygon points="44.96 44.04 47.48 41.47 50.83 42.67 48.18 45.2 44.96 44.04" style="fill: #b1d4ec"/>
              <path d="M47.47,41.56l3.17,1.1-2.48,2.47-3-1.08,2.33-2.49m0-.13L44.94,44.1l3.25,1.16,2.66-2.65-3.42-1.18Z" style="fill: #fff"/>
            </g>
            <g>
              <polygon points="48.25 45.26 50.79 42.75 50.79 43.59 48.25 46.08 48.25 45.26" style="fill: #b1d4ec"/>
              <path d="M50.74,42.88v.66L48.3,46v-.64l2.44-2.43m.11-.27-2.66,2.65v1l2.66-2.63v-1Z" style="fill: #fff"/>
            </g>
          </g>
          <g>
            <g>
              <polygon points="47.45 41.38 50.13 38.83 53.49 40 50.84 42.55 47.45 41.38" style="fill: #b1d4ec"/>
              <path d="M50.12,38.91,53.31,40l-2.49,2.49-3.18-1.1,2.48-2.48m0-.12-2.66,2.64,3.42,1.18L53.51,40l-3.42-1.16Z" style="fill: #fff"/>
            </g>
            <g>
              <polygon points="50.91 42.6 53.46 40.08 53.46 40.93 50.91 43.42 50.91 42.6" style="fill: #b1d4ec"/>
              <path d="M53.4,40.22v.66L51,43.29v-.65l2.43-2.42m.11-.27L50.85,42.6v.95l2.66-2.62V40Z" style="fill: #fff"/>
            </g>
          </g>
          <g>
            <polygon points="48.75 45.72 51.45 43.04 51.45 45.04 48.75 47.73 48.75 45.72" style="fill: #a29ece"/>
            <path d="M51.4,43.17V45L48.81,47.6V45.76l2.59-2.59m.11-.27L48.7,45.72v2.15L51.51,45V42.9Z" style="fill: #fdf9f1"/>
          </g>
          <polygon points="51.51 45.04 49.37 45.04 48.7 45.72 48.7 47.87 51.51 45.04" style="fill: #8760a4"/>
          <polygon points="8.94 56.35 8.94 47.21 7.53 47.21 7.53 55.01 8.94 56.35" style="fill: #a29ece"/>
          <g>
            <polygon points="18.06 52.19 20.61 48.86 26.35 48.88 23.81 52.19 18.06 52.19" style="fill: #f2a4bf"/>
            <path d="M26.13,48.94l-2.35,3.19h-5.5l2.35-3.19h5.5m.22-.11H20.57l-2.51,3.41h5.78l2.51-3.41Z" style="fill: #fff"/>
          </g>
          <rect x="18.06" y="52.24" width="5.75" height="1.15" style="fill: #fdf9f1"/>
          <rect x="3.05" y="57.86" width="37.04" height="0.83" style="fill: #8760a4"/>
          <polygon points="40.1 57.86 40.1 58.68 55.8 43.57 55.8 42.63 40.1 57.86" style="fill: #f2a4bf"/>
          <polygon points="7.53 32.03 9.87 29.83 11.32 32.28 8.94 34.59 7.53 32.03" style="fill: #b1d4ec"/>
          <g>
            <line x1="21.16" y1="48.91" x2="18.66" y2="52.24" style="fill: none;stroke: #fdf9f1;stroke-miterlimit: 10;stroke-width: 0.232686796751979px"/>
            <line x1="21.9" y1="48.89" x2="19.41" y2="52.24" style="fill: none;stroke: #fdf9f1;stroke-miterlimit: 10;stroke-width: 0.232686796751979px"/>
            <line x1="22.64" y1="48.88" x2="20.17" y2="52.24" style="fill: none;stroke: #fdf9f1;stroke-miterlimit: 10;stroke-width: 0.232686796751979px"/>
            <line x1="23.39" y1="48.87" x2="20.92" y2="52.24" style="fill: none;stroke: #fdf9f1;stroke-miterlimit: 10;stroke-width: 0.232686796751979px"/>
            <line x1="24.13" y1="48.85" x2="21.68" y2="52.24" style="fill: none;stroke: #fdf9f1;stroke-miterlimit: 10;stroke-width: 0.232686796751979px"/>
            <line x1="24.88" y1="48.84" x2="22.44" y2="52.24" style="fill: none;stroke: #fdf9f1;stroke-miterlimit: 10;stroke-width: 0.232686796751979px"/>
            <line x1="25.62" y1="48.83" x2="23.19" y2="52.24" style="fill: none;stroke: #fdf9f1;stroke-miterlimit: 10;stroke-width: 0.232686796751979px"/>
          </g>
          <g>
            <line x1="45.29" y1="43.75" x2="48.45" y2="44.95" style="fill: none;stroke: #fdf9f1;stroke-miterlimit: 10;stroke-width: 0.232686796751979px"/>
            <line x1="45.7" y1="43.32" x2="48.89" y2="44.52" style="fill: none;stroke: #fdf9f1;stroke-miterlimit: 10;stroke-width: 0.232686796751979px"/>
            <line x1="46.11" y1="42.89" x2="49.33" y2="44.09" style="fill: none;stroke: #fdf9f1;stroke-miterlimit: 10;stroke-width: 0.232686796751979px"/>
            <line x1="46.53" y1="42.46" x2="49.76" y2="43.66" style="fill: none;stroke: #fdf9f1;stroke-miterlimit: 10;stroke-width: 0.232686796751979px"/>
            <line x1="46.94" y1="42.04" x2="50.2" y2="43.23" style="fill: none;stroke: #fdf9f1;stroke-miterlimit: 10;stroke-width: 0.232686796751979px"/>
            <line x1="47.35" y1="41.61" x2="50.63" y2="42.8" style="fill: none;stroke: #fdf9f1;stroke-miterlimit: 10;stroke-width: 0.232686796751979px"/>
            <line x1="47.77" y1="41.18" x2="51.07" y2="42.37" style="fill: none;stroke: #fdf9f1;stroke-miterlimit: 10;stroke-width: 0.232686796751979px"/>
            <line x1="48.18" y1="40.75" x2="51.5" y2="41.94" style="fill: none;stroke: #fdf9f1;stroke-miterlimit: 10;stroke-width: 0.232686796751979px"/>
            <line x1="48.6" y1="40.33" x2="51.94" y2="41.51" style="fill: none;stroke: #fdf9f1;stroke-miterlimit: 10;stroke-width: 0.232686796751979px"/>
            <line x1="49.01" y1="39.9" x2="52.37" y2="41.08" style="fill: none;stroke: #fdf9f1;stroke-miterlimit: 10;stroke-width: 0.232686796751979px"/>
            <line x1="49.42" y1="39.47" x2="52.81" y2="40.65" style="fill: none;stroke: #fdf9f1;stroke-miterlimit: 10;stroke-width: 0.232686796751979px"/>
            <line x1="49.84" y1="39.04" x2="53.24" y2="40.22" style="fill: none;stroke: #fdf9f1;stroke-miterlimit: 10;stroke-width: 0.232686796751979px"/>
          </g>
        </g>
        <g>
          <g>
            <g>
              <g>
                <rect x="80.26" y="49.57" width="3.67" height="9.08" style="fill: #e2d8ea"/>
                <path d="M83.8,49.7v8.81H80.4V49.7h3.4m.27-.27H80.13v9.35h3.94V49.43Z" style="fill: #fff"/>
              </g>
              <polygon points="75.71 49.43 87.97 49.43 89.18 48.76 89.18 46.37 75.02 46.37 75.02 48.8 75.71 49.43" style="fill: #a29ece"/>
              <polygon points="89.18 48.78 92.14 45.66 92.44 44.64 92.44 42.85 89.18 46.33 89.18 48.78" style="fill: #fff"/>
              <polygon points="91.36 45.08 90.28 46.28 90.28 45.21 91.36 44 91.36 45.08" style="fill: #ac4c96"/>
              <rect x="76.86" y="49.43" width="9.17" height="0.72" style="fill: #eb6084;stroke: #f6c2cc;stroke-miterlimit: 10;stroke-width: 0.090997427199503px"/>
              <polygon points="86.03 50.16 87.08 49.44 86.03 49.43 86.03 50.16" style="fill: #eb6084;stroke: #f6c2cc;stroke-miterlimit: 10;stroke-width: 0.090997427199503px"/>
            </g>
            <polygon points="84.07 58.73 87.65 55.48 87.65 49.43 86.29 49.43 84.07 49.43 84.07 58.73" style="fill: #fff"/>
          </g>
          <g>
            <g>
              <g>
                <rect x="68.65" y="61.96" width="3.67" height="9.08" style="fill: #e2d8ea"/>
                <path d="M72.18,62.09V70.9h-3.4V62.09h3.4m.27-.27H68.51v9.35h3.94V61.82Z" style="fill: #fff"/>
              </g>
              <polygon points="64.1 61.82 76.36 61.82 77.56 61.15 77.56 58.76 63.4 58.76 63.4 61.19 64.1 61.82" style="fill: #a29ece"/>
              <polygon points="77.56 61.17 80.53 58.05 80.83 57.03 80.83 55.24 77.56 58.72 77.56 61.17" style="fill: #fff"/>
              <polygon points="79.74 57.47 78.67 58.67 78.67 57.6 79.74 56.39 79.74 57.47" style="fill: #ac4c96"/>
              <rect x="65.25" y="61.82" width="9.17" height="0.72" style="fill: #b1d4ec"/>
              <polygon points="74.42 62.55 75.46 61.83 74.42 61.82 74.42 62.55" style="fill: #eb6084;stroke: #f6c2cc;stroke-miterlimit: 10;stroke-width: 0.090997427199503px"/>
            </g>
            <polygon points="72.45 71.12 76.04 67.87 76.04 61.82 74.68 61.82 72.45 61.82 72.45 71.12" style="fill: #fff"/>
          </g>
          <g>
            <g>
              <polygon points="75.76 49.6 92.91 30.47 92.83 32.07 75.76 50.99 75.76 49.6" style="fill: #eb6084"/>
              <path d="M92.79,30.68V32l-17,18.84V49.63l17-19m.09-.24L75.71,49.6v1.51l17.17-19V30.44Z" style="fill: #f6c2cc"/>
            </g>
            <polygon points="92.88 42.41 75.72 60.75 75.72 51.11 92.88 32.07 92.88 42.41" style="fill: #ac4c96"/>
            <polygon points="92.88 42.41 75.72 60.75 75.72 55.93 92.88 37.24 92.88 42.41" style="fill: #a29ece"/>
            <polygon points="92.88 37.24 75.72 55.93 75.72 55.48 92.44 37.19 92.88 37.24" style="fill: #8760a4"/>
            <polygon points="92.88 42.41 75.72 60.75 75.72 59.54 92.88 41.11 92.88 42.41" style="fill: #b1d4ec"/>
            <g>
              <polygon points="77.99 57.1 77.99 48.59 78.5 48.02 78.5 56.56 77.99 57.1" style="fill: #fff"/>
              <polygon points="80.83 54.06 80.83 45.44 81.35 44.86 81.35 53.5 80.83 54.06" style="fill: #fff"/>
              <polygon points="83.73 50.94 83.73 42.22 84.26 41.63 84.26 50.37 83.73 50.94" style="fill: #fff"/>
              <polygon points="86.7 47.74 86.7 38.92 87.25 38.31 87.25 47.16 86.7 47.74" style="fill: #fff"/>
              <polygon points="89.75 44.47 89.75 35.53 90.31 34.91 90.31 43.87 89.75 44.47" style="fill: #fff"/>
            </g>
            <g>
              <polygon points="77.5 55.67 76.24 57.03 76.24 55.36 77.5 53.99 77.5 55.67" style="fill: #fdf9f1;stroke: #f2a4bf;stroke-miterlimit: 10;stroke-width: 0.090997427199503px"/>
              <path d="M76.66,55a2.13,2.13,0,0,1-.3,1.19c-.18.19-.31-.05-.31-.52a2,2,0,0,1,.31-1.18C76.53,54.32,76.66,54.55,76.66,55Z" style="fill: #eb6084;stroke: #f6c2cc;stroke-miterlimit: 10;stroke-width: 0.090997427199503px"/>
              <path d="M77.28,54.22a2.16,2.16,0,0,1-.31,1.2c-.18.18-.31-.05-.31-.52A2,2,0,0,1,77,53.71C77.14,53.52,77.28,53.75,77.28,54.22Z" style="fill: #eb6084;stroke: #f6c2cc;stroke-miterlimit: 10;stroke-width: 0.090997427199503px"/>
              <path d="M77.64,54a1.62,1.62,0,0,1-.22.87c-.13.13-.23,0-.23-.38a1.53,1.53,0,0,1,.23-.87C77.54,53.45,77.64,53.61,77.64,54Z" style="fill: #eb6084;stroke: #f6c2cc;stroke-miterlimit: 10;stroke-width: 0.090997427199503px"/>
              <path d="M76.83,54.22a1.3,1.3,0,0,1-.17.68c-.1.11-.18,0-.18-.3a1.17,1.17,0,0,1,.18-.67C76.75,53.82,76.83,54,76.83,54.22Z" style="fill: #eb6084;stroke: #f6c2cc;stroke-miterlimit: 10;stroke-width: 0.090997427199503px"/>
            </g>
            <g>
              <polygon points="80.33 52.61 79.04 54 79.04 52.31 80.33 50.91 80.33 52.61" style="fill: #fdf9f1;stroke: #f2a4bf;stroke-miterlimit: 10;stroke-width: 0.090997427199503px"/>
              <path d="M79.47,52a2.19,2.19,0,0,1-.31,1.2c-.18.19-.32,0-.32-.52a2.1,2.1,0,0,1,.32-1.2C79.33,51.26,79.47,51.49,79.47,52Z" style="fill: #eb6084;stroke: #f6c2cc;stroke-miterlimit: 10;stroke-width: 0.090997427199503px"/>
              <path d="M80.1,51.15a2.11,2.11,0,0,1-.32,1.21c-.17.19-.32,0-.32-.52a2.19,2.19,0,0,1,.32-1.21C80,50.44,80.1,50.67,80.1,51.15Z" style="fill: #eb6084;stroke: #f6c2cc;stroke-miterlimit: 10;stroke-width: 0.090997427199503px"/>
              <path d="M80.47,50.88a1.57,1.57,0,0,1-.23.88c-.12.13-.23,0-.23-.38a1.63,1.63,0,0,1,.23-.88C80.37,50.36,80.47,50.53,80.47,50.88Z" style="fill: #eb6084;stroke: #f6c2cc;stroke-miterlimit: 10;stroke-width: 0.090997427199503px"/>
              <path d="M79.65,51.15a1.23,1.23,0,0,1-.19.69c-.09.11-.18,0-.18-.3a1.33,1.33,0,0,1,.18-.69C79.56,50.75,79.65,50.88,79.65,51.15Z" style="fill: #eb6084;stroke: #f6c2cc;stroke-miterlimit: 10;stroke-width: 0.090997427199503px"/>
            </g>
            <g>
              <polygon points="83.22 49.48 81.9 50.91 81.9 49.19 83.22 47.76 83.22 49.48" style="fill: #fdf9f1;stroke: #f2a4bf;stroke-miterlimit: 10;stroke-width: 0.090997427199503px"/>
              <path d="M82.35,48.84A2.14,2.14,0,0,1,82,50.06c-.18.2-.32,0-.32-.52A2.15,2.15,0,0,1,82,48.32C82.2,48.12,82.35,48.36,82.35,48.84Z" style="fill: #eb6084;stroke: #f6c2cc;stroke-miterlimit: 10;stroke-width: 0.090997427199503px"/>
              <path d="M83,48a2.15,2.15,0,0,1-.33,1.23c-.18.2-.32,0-.32-.52a2.21,2.21,0,0,1,.32-1.23C82.84,47.29,83,47.52,83,48Z" style="fill: #eb6084;stroke: #f6c2cc;stroke-miterlimit: 10;stroke-width: 0.090997427199503px"/>
              <path d="M83.37,47.72a1.64,1.64,0,0,1-.24.9c-.13.14-.23,0-.23-.38a1.65,1.65,0,0,1,.23-.9C83.26,47.2,83.37,47.37,83.37,47.72Z" style="fill: #eb6084;stroke: #f6c2cc;stroke-miterlimit: 10;stroke-width: 0.090997427199503px"/>
              <path d="M82.52,48a1.25,1.25,0,0,1-.18.7c-.11.11-.19,0-.19-.29a1.23,1.23,0,0,1,.19-.71C82.44,47.6,82.52,47.74,82.52,48Z" style="fill: #eb6084;stroke: #f6c2cc;stroke-miterlimit: 10;stroke-width: 0.090997427199503px"/>
            </g>
            <g>
              <polygon points="86.18 46.28 84.83 47.74 84.83 46 86.18 44.53 86.18 46.28" style="fill: #fdf9f1;stroke: #f2a4bf;stroke-miterlimit: 10;stroke-width: 0.090997427199503px"/>
              <path d="M85.29,45.64A2.24,2.24,0,0,1,85,46.88c-.19.2-.34,0-.34-.52A2.17,2.17,0,0,1,85,45.11C85.14,44.91,85.29,45.15,85.29,45.64Z" style="fill: #eb6084;stroke: #f6c2cc;stroke-miterlimit: 10;stroke-width: 0.090997427199503px"/>
              <path d="M85.94,44.78A2.17,2.17,0,0,1,85.61,46c-.18.2-.33,0-.33-.52a2.25,2.25,0,0,1,.33-1.25C85.8,44.06,85.94,44.29,85.94,44.78Z" style="fill: #eb6084;stroke: #f6c2cc;stroke-miterlimit: 10;stroke-width: 0.090997427199503px"/>
              <path d="M86.34,44.49a1.63,1.63,0,0,1-.24.91c-.14.15-.25,0-.25-.38a1.59,1.59,0,0,1,.25-.91C86.23,44,86.34,44.14,86.34,44.49Z" style="fill: #eb6084;stroke: #f6c2cc;stroke-miterlimit: 10;stroke-width: 0.090997427199503px"/>
              <path d="M85.47,44.8a1.31,1.31,0,0,1-.19.71c-.11.11-.19,0-.19-.3a1.21,1.21,0,0,1,.19-.71C85.38,44.38,85.47,44.52,85.47,44.8Z" style="fill: #eb6084;stroke: #f6c2cc;stroke-miterlimit: 10;stroke-width: 0.090997427199503px"/>
            </g>
            <g>
              <polygon points="89.22 42.99 87.84 44.49 87.84 42.73 89.22 41.22 89.22 42.99" style="fill: #fdf9f1;stroke: #f2a4bf;stroke-miterlimit: 10;stroke-width: 0.090997427199503px"/>
              <path d="M88.3,42.36A2.2,2.2,0,0,1,88,43.62c-.19.2-.34,0-.34-.53A2.23,2.23,0,0,1,88,41.83C88.15,41.63,88.3,41.86,88.3,42.36Z" style="fill: #eb6084;stroke: #f6c2cc;stroke-miterlimit: 10;stroke-width: 0.090997427199503px"/>
              <path d="M89,41.48a2.22,2.22,0,0,1-.34,1.27c-.19.21-.34,0-.34-.52A2.22,2.22,0,0,1,88.63,41C88.82,40.75,89,41,89,41.48Z" style="fill: #eb6084;stroke: #f6c2cc;stroke-miterlimit: 10;stroke-width: 0.090997427199503px"/>
              <path d="M89.38,41.18a1.64,1.64,0,0,1-.25.93c-.14.15-.25,0-.25-.39a1.6,1.6,0,0,1,.25-.92C89.27,40.65,89.38,40.82,89.38,41.18Z" style="fill: #eb6084;stroke: #f6c2cc;stroke-miterlimit: 10;stroke-width: 0.090997427199503px"/>
              <path d="M88.49,41.5a1.27,1.27,0,0,1-.2.73c-.1.11-.19,0-.19-.3a1.36,1.36,0,0,1,.19-.73C88.4,41.09,88.49,41.22,88.49,41.5Z" style="fill: #eb6084;stroke: #f6c2cc;stroke-miterlimit: 10;stroke-width: 0.090997427199503px"/>
            </g>
            <g>
              <polygon points="92.33 39.63 90.91 41.16 90.91 39.38 92.33 37.84 92.33 39.63" style="fill: #fdf9f1;stroke: #f2a4bf;stroke-miterlimit: 10;stroke-width: 0.090997427199503px"/>
              <path d="M91.39,39A2.31,2.31,0,0,1,91,40.28c-.19.21-.35,0-.35-.53A2.27,2.27,0,0,1,91,38.47C91.23,38.26,91.39,38.49,91.39,39Z" style="fill: #b1d4ec;stroke: #f2a4bf;stroke-miterlimit: 10;stroke-width: 0.090997427199503px"/>
              <path d="M92.08,38.1a2.31,2.31,0,0,1-.35,1.29c-.19.21-.35,0-.35-.53a2.33,2.33,0,0,1,.35-1.29C91.92,37.36,92.08,37.6,92.08,38.1Z" style="fill: #eb6084;stroke: #f6c2cc;stroke-miterlimit: 10;stroke-width: 0.090997427199503px"/>
              <path d="M92.49,37.79a1.65,1.65,0,0,1-.25.94c-.14.15-.26,0-.26-.38a1.65,1.65,0,0,1,.26-.94C92.38,37.26,92.49,37.43,92.49,37.79Z" style="fill: #eb6084;stroke: #f6c2cc;stroke-miterlimit: 10;stroke-width: 0.090997427199503px"/>
              <path d="M91.58,38.13a1.3,1.3,0,0,1-.2.73c-.11.12-.2,0-.2-.3a1.3,1.3,0,0,1,.2-.73C91.49,37.71,91.58,37.84,91.58,38.13Z" style="fill: #eb6084;stroke: #f6c2cc;stroke-miterlimit: 10;stroke-width: 0.090997427199503px"/>
            </g>
          </g>
          <g>
            <rect x="60.29" y="49.56" width="16.37" height="1.51" style="fill: #f2a4bf"/>
            <rect x="61.16" y="51.07" width="14.64" height="7.23" style="fill: #ac4c96"/>
            <rect x="61.16" y="58.3" width="14.64" height="2.41" style="fill: #b1d4ec"/>
            <rect x="57.1" y="55.13" width="9.64" height="1.51" transform="translate(117.81 -6.03) rotate(90)" style="fill: #fff"/>
            <rect x="70.29" y="55.2" width="9.64" height="1.38" transform="translate(131 -19.21) rotate(90)" style="fill: #fff"/>
          </g>
          <g>
            <polygon points="60.62 49.42 79.4 30.69 93.39 30.69 76.61 49.42 60.62 49.42" style="fill: #e2d8ea"/>
            <path d="M93.09,30.83,76.55,49.29H60.94L79.46,30.83H93.09m.61-.27H79.35l-19.06,19H76.67l17-19Z" style="fill: #fff"/>
          </g>
          <path d="M76.67,49.56h0A1,1,0,0,1,76.73,51l-.06.07,17-19,0,0a1,1,0,0,0,0-1.49h0Z" style="fill: #b1d4ec"/>
          <polygon points="67.22 51.07 67.22 54.69 66.58 55.26 66.58 51.07 67.22 51.07" style="fill: #fff"/>
          <polygon points="62.67 54.32 66.58 51.07 66.58 55.26 62.67 58.3 62.67 54.32" style="fill: #a29ece"/>
          <path d="M76.67,49.56v1.51A1,1,0,0,0,76.67,49.56Z" style="fill: #f2a4bf"/>
          <g>
            <path d="M79.25,48.19a1,1,0,0,0,0-1.51" style="fill: none;stroke: #fff;stroke-miterlimit: 10;stroke-width: 0.090997427199503px"/>
            <path d="M81.32,45.88a1,1,0,0,0,0-1.51" style="fill: none;stroke: #fff;stroke-miterlimit: 10;stroke-width: 0.090997427199503px"/>
            <path d="M83.38,43.58a1,1,0,0,0,0-1.51" style="fill: none;stroke: #fff;stroke-miterlimit: 10;stroke-width: 0.090997427199503px"/>
            <path d="M85.44,41.27a1,1,0,0,0,0-1.51" style="fill: none;stroke: #fff;stroke-miterlimit: 10;stroke-width: 0.090997427199503px"/>
            <path d="M87.5,39a1,1,0,0,0,0-1.51" style="fill: none;stroke: #fff;stroke-miterlimit: 10;stroke-width: 0.090997427199503px"/>
            <path d="M89.56,36.66a1,1,0,0,0,0-1.51" style="fill: none;stroke: #fff;stroke-miterlimit: 10;stroke-width: 0.090997427199503px"/>
            <path d="M91.62,34.36a1,1,0,0,0,0-1.52" style="fill: none;stroke: #fff;stroke-miterlimit: 10;stroke-width: 0.090997427199503px"/>
          </g>
          <polygon points="67.22 51.07 67.22 54.69 71.84 51.02 67.22 51.07" style="fill: #a29ece"/>
        </g>
        <g>
          <polygon points="51.32 75.24 31.74 75.24 38.67 65.78 59.06 65.78 51.32 75.24" style="fill: #fdf9f1"/>
          <rect x="41.24" y="57.06" width="13" height="9.9" style="fill: #e2d8ea"/>
          <g>
            <rect x="38.29" y="56.09" width="1.79" height="12.35" style="fill: #7a80ac"/>
            <polygon points="40.08 68.44 41.24 66.96 41.24 58.33 40.45 58.33 40.45 56.05 40.08 56.09 40.08 68.44" style="fill: #a29ece"/>
          </g>
          <polygon points="31.99 61.79 51.37 61.79 58.15 55.23 38.77 55.23 31.99 61.79" style="fill: #7a80ac;stroke: #fdf9f1;stroke-miterlimit: 10;stroke-width: 0.074868638292815px"/>
          <polygon points="51.04 62.3 51.04 73.05 49.68 74.65 49.68 62.3 51.04 62.3" style="fill: #a29ece"/>
          <g>
            <polygon points="57.17 56.31 57.17 66.51 56.03 68.02 56.03 56.09 57.17 56.31" style="fill: #a29ece"/>
            <rect x="54.24" y="56.09" width="1.79" height="12.01" style="fill: #7a80ac"/>
          </g>
          <rect x="35.88" y="61.79" width="12.01" height="1.46" style="fill: #b1d4ec"/>
          <g>
            <g>
              <polygon points="32.36 60.47 38.83 54.22 57.77 54.22 51.31 60.47 32.36 60.47" style="fill: #e2d8ea"/>
              <path d="M57.39,54.37l-6.14,6H32.74l6.15-6h18.5m.76-.31H38.76L32,60.63H51.37l6.78-6.57Z" style="fill: #fff"/>
            </g>
            <rect x="31.99" y="60.63" width="19.38" height="1.16" style="fill: #cbaff2"/>
            <polygon points="58.15 54.06 58.15 55.23 51.37 61.79 51.37 60.63 58.15 54.06" style="fill: #b1d4ec"/>
          </g>
          <g>
            <rect x="33.72" y="61.83" width="1.79" height="12.82" style="fill: #7a80ac"/>
            <polygon points="35.51 74.65 36.67 72.89 36.67 63.25 35.88 63.25 35.88 61.79 35.51 61.83 35.51 74.65" style="fill: #a29ece"/>
          </g>
          <polygon points="51.04 61.82 51.04 63.04 55.34 59.07 55.39 57.86 51.37 61.79 51.04 61.82" style="fill: #b1d4ec;stroke: #fdf9f1;stroke-miterlimit: 10;stroke-width: 0.102955841675122px"/>
          <rect x="43.18" y="63.25" width="4.71" height="1.58" style="fill: #7a80ac;stroke: #fdf9f1;stroke-miterlimit: 10;stroke-width: 0.087561347464633px"/>
          <rect x="43.53" y="63.55" width="4" height="0.96" style="fill: #8760a4;stroke: #fdf9f1;stroke-miterlimit: 10;stroke-width: 0.063066078612589px"/>
          <g>
            <path d="M44.53,63.83l0,0h0a.34.34,0,0,1-.06.12q.09,0,.09.09s0,0,0,0,0,0,0,0,0,0,0,0a.2.2,0,0,0,0-.08v.35l0,0h0v-.31l-.11.06h0a.63.63,0,0,0,.12-.11.66.66,0,0,0,.07-.15h-.17v0h.17l.05,0Zm-.13-.12s.05,0,.05.07,0,0,0,0h0s0,0,0,0l0-.06,0,0h0Zm.52,0s0,0,0,0h-.43s0,0,0,0h.33l0,0h0Zm-.06.35,0,0s0,0,0,0,0,0,0,0a0,0,0,0,1,0,0l0,0v.14a.46.46,0,0,1,0,.1s0,0,0,0,0,0,0,0v0h-.25v0s0,0,0,0h0V64l.06,0Zm-.2-.06a0,0,0,0,1,0,0h0v-.16s0,0,0,0l.07,0h.16s0,0,0,0l0,0,0,0v0h0V64a.1.1,0,0,0,0,0s0,0,0,0h0v0h-.16Zm0,.08v.11h.08v-.11Zm0,.23h.08v-.1h-.08Zm.2-.45h-.16V64h.16Zm0,.22h-.1v.11h.1Zm-.1.23h.1v-.1h-.1Z" style="fill: #fff"/>
            <path d="M45.82,63.76s.06,0,.06.05h-.31V64a.55.55,0,0,0,.13.14.67.67,0,0,0,.18.08v0l0,0v0h0s-.09,0-.18-.14L45.57,64v.14a.77.77,0,0,0,0,.18s0,0-.06,0h0v-.25a.72.72,0,0,1-.3.2h0A.77.77,0,0,0,45.5,64v-.18h-.28l0,0h.3v0a.22.22,0,0,0,0-.08l.09,0h0v.07h.17l.06-.06h0Zm-.39.14,0,0,0,0h0a.07.07,0,0,1,0,.06s0,0,0,0h0s0,0,0,0a.43.43,0,0,0,0-.05h0a.48.48,0,0,1-.13.17h0a.6.6,0,0,0,.12-.28Zm.37,0h0s0,0,0,.05.1.05.1.08,0,0,0,0,0,0,0,0,0,0,0,0a.2.2,0,0,0-.06-.07l-.08.09h0a.77.77,0,0,0,.07-.2Z" style="fill: #fff"/>
            <path d="M46.47,63.77l.05,0h-.17v.27h.07v-.18s0,0,0,0l.1,0a0,0,0,0,1,0,0h0v.22s0,0,0,0,0,0,0,0v0h-.07v.12l.16,0h0a.73.73,0,0,1-.28.15,0,0,0,0,1,0,0l0,0a.34.34,0,0,1,0-.08h.11v-.14h-.07v0l0,0s0,0,0,0a1.69,1.69,0,0,0,0-.23.09.09,0,0,1,0,0l.1,0s0,0,0,0l0,0v.16h.07v-.27h-.15l0,0h.17v-.13c.07,0,.1,0,.1,0h0l0,0v.07h0l.05-.06h0Zm.3-.05,0,0s0,0,0,0h0a.81.81,0,0,1-.1.18.28.28,0,0,1,.13.2.1.1,0,0,1-.09.12h0a.08.08,0,0,0,0,0h0s0,0,0,0a.22.22,0,0,0-.08-.18.64.64,0,0,0,.06-.22h-.09v.61s0,0,0,0h0c0-.1,0-.2,0-.31v-.2a1.42,1.42,0,0,0,0-.15l.07,0h.08l.05,0Z" style="fill: #fff"/>
          </g>
          <rect x="31.74" y="75.24" width="19.58" height="0.71" style="fill: #cbaff2"/>
          <polygon points="51.37 75.21 51.37 75.92 59.06 66.68 59.06 65.78 51.37 75.21" style="fill: #b1d4ec"/>
          <rect x="35.51" y="75.24" width="0.37" height="0.71" style="fill: #7a80ac;stroke: #fdf9f1;stroke-miterlimit: 10;stroke-width: 0.120061027670515px"/>
          <rect x="47.53" y="75.24" width="0.36" height="0.71" style="fill: #7a80ac;stroke: #fdf9f1;stroke-miterlimit: 10;stroke-width: 0.120061027670515px"/>
          <rect x="33.66" y="75.95" width="16.19" height="1.32" style="fill: #7a80ac"/>
          <polygon points="49.85 77.27 51.15 75.95 49.85 75.95 49.85 77.27" style="fill: #a29ece;stroke: #8760a4;stroke-linecap: round;stroke-linejoin: round;stroke-width: 0.205911683350244px"/>
          <rect x="42.7" y="65.19" width="5.19" height="1.77" style="fill: #a29ece;stroke: #a29ece;stroke-miterlimit: 10;stroke-width: 0.120061027670515px"/>
          <line x1="41.24" y1="65.19" x2="42.7" y2="65.19" style="fill: none;stroke: #a29ece;stroke-miterlimit: 10;stroke-width: 0.120061027670515px"/>
          <line x1="51.04" y1="65.19" x2="54.24" y2="65.19" style="fill: none;stroke: #a29ece;stroke-miterlimit: 10;stroke-width: 0.120061027670515px"/>
          <circle cx="46.65" cy="65.41" r="0.41" style="fill: #cbaff2;stroke: #8760a4;stroke-miterlimit: 10;stroke-width: 0.102478497238357px"/>
          <circle cx="47.34" cy="65.6" r="0.54" style="fill: #cbaff2;stroke: #a29ece;stroke-miterlimit: 10;stroke-width: 0.134270881365248px"/>
          <circle cx="45.06" cy="65.58" r="0.47" style="fill: #cbaff2;stroke: #a29ece;stroke-miterlimit: 10;stroke-width: 0.118194684657845px"/>
          <circle cx="43.53" cy="65.43" r="0.48" style="fill: #cbaff2;stroke: #a29ece;stroke-miterlimit: 10;stroke-width: 0.120061027670515px"/>
          <circle cx="44.38" cy="65.27" r="0.32" style="fill: #cbaff2;stroke: #8760a4;stroke-miterlimit: 10;stroke-width: 0.079566338666682px"/>
          <circle cx="46.11" cy="65.3" r="0.15" style="fill: #cbaff2;stroke: #a29ece;stroke-miterlimit: 10;stroke-width: 0.120061027670515px"/>
          <rect x="47.89" y="62.3" width="1.79" height="12.35" style="fill: #7a80ac"/>
        </g>
      </g>
    </g>
  </g>
</svg>
