<svg xmlns="http://www.w3.org/2000/svg" width="122.54" height="85.12" viewBox="0 0 122.54 85.12">
  <g id="Layer_2" data-name="Layer 2">
    <g id="Icon">
      <g>
        <g>
          <path d="M121.52,18.51H103.89V16.92l8,0V14.82H106V13.25h5.91V11.5H108v-.86a20.16,20.16,0,0,1-3.9,1.42l-1-1.42a15,15,0,0,0,7.68-3.84h-1.85V5.26l4.74,0a15.6,15.6,0,0,0,8.94,5.35L121.48,12a15,15,0,0,1-4-1.51v1h-4v1.77h5.91v1.55h-5.91v2.1h7.94ZM109.72,3.73V5.14l-1.68,0V3.73H103.4V2.11H108L108,0l1.72,0,0,2.11h2.85v1.6Zm6.73,6.17a19.19,19.19,0,0,1-3.62-3.1,11.8,11.8,0,0,1-3.52,3.06Zm-.69-4.05V3.73H113l0-1.62h2.78V0h1.73V2.14l4.7,0V3.73h-4.68l0,2.12Z" style="fill: #003869"/>
          <path d="M105.9,32.44a6.28,6.28,0,0,0-2.89-2.5l1-1.08a6.7,6.7,0,0,1,3.11,2.5Zm-2.8,9.21a14.83,14.83,0,0,0,2.74-7l1.44.47a15.56,15.56,0,0,1-2.63,7.19Zm3.4-14.26a6.18,6.18,0,0,0-2.93-2.15l1.1-1.08a6.35,6.35,0,0,1,3,2.22Zm10,6.54h-4.18V30.78l-1.13.39-.1-.5c-1,.11-1.9.26-3.05.43l.74.22a6.24,6.24,0,0,1-1,3l-1.32-.43A5.13,5.13,0,0,0,107.52,31l.17.08L107,29.85a13.34,13.34,0,0,0,1.83-1.7l-1.08.15-.64-1.23a12.63,12.63,0,0,0,2.65-3.56l1.25.67a11.28,11.28,0,0,1-1.68,2.57l.65-.05.73-1.08,1.08.61V24.87h1.75a12.08,12.08,0,0,0-.89-.91l1.32-.69a15,15,0,0,1,1.14,1.62h1.83v1.42h-5a17.46,17.46,0,0,1-1.71,2.42l1-.34a5.16,5.16,0,0,1,1.16,2.07h4.23v3.23a5.66,5.66,0,0,0,.67-2.61l1.21.2a5.42,5.42,0,0,1-.82,3.1l-1.25-.3ZM115,42.63l-.62-1.56a41.12,41.12,0,0,0,4.44.39c.54,0,.78-.73.89-1.29H107.48l1.25-3.56h10.38v-.67H107.93v-1.4h12.79V38L110,38l-.28.69,11.76,0a19.33,19.33,0,0,1-.84,3.43,1.8,1.8,0,0,1-1.8.82Zm-4.79-11.4A5.58,5.58,0,0,1,110,34.1l-1.42,0a5.35,5.35,0,0,0,.39-2.89Zm-.08-2.37a4.31,4.31,0,0,1-.65.56l1-.06Zm1.42,2.24a5.45,5.45,0,0,1,.58,2.57l-1.31.28a4.6,4.6,0,0,0-.48-2.5Zm5-4.44V28h-4.29V26.64Zm-4.29,3.17V28.47l4.29,0v1.4Zm2.91,2.87V31.6l-1.49,0,0,1.1Zm4.57-4,1-.54a6,6,0,0,1,1.49,2.4l-1.08.45a6.82,6.82,0,0,1,.9,2.74l-1.33.28a5.47,5.47,0,0,0-.82-2.8L121,31l-.15-.43c-1,.08-2.18.21-3.41.43l-.84-1.21a12.17,12.17,0,0,0,1.88-1.9c-.26,0-.78.07-1.23.13l-.6-1.23A14,14,0,0,0,119,23.55l1.25.61a8.89,8.89,0,0,1-1.62,2.37l.93,0,.63-1.08,1.25.6A15.14,15.14,0,0,1,119,29.4l1.26-.11Zm-1,5.4a5.78,5.78,0,0,0-.16-2.85l1.17-.2A6.4,6.4,0,0,1,120.1,34Z" style="fill: #003869"/>
          <path d="M122.1,65.49H106.83c-1.14,0-1.66-.95-1.66-2V49.8l-1.36,0V48.19l18.19,0V49.8H106.81l0,13.25c0,.6.21.84.88.84H122.1Zm-8.28-3h-6.11v-6l6.11,0Zm-4.49-4.4v2.82l2.85,0,0-2.87Zm9.86-2.72-9.71,0,0-4.81h9.69Zm-8.07-1.47h6.43V52h-6.43Zm10,2.61v5.91h-6.17V56.51Zm-1.62,1.56-2.91,0v2.76l2.89,0Z" style="fill: #003869"/>
        </g>
        <g>
          <path d="M42.9,9.4H40.59V8.16H46.7V9.4H44.37v6.84H42.9Z" style="fill: #003869"/>
          <path d="M46.77,14.88a3.27,3.27,0,0,0,1.49.43c.65,0,.94-.28.94-.66s-.24-.59-1-.85c-1.14-.39-1.61-1-1.61-1.71,0-1,.85-1.82,2.21-1.82a3.43,3.43,0,0,1,1.56.35l-.3,1a2.63,2.63,0,0,0-1.24-.34c-.53,0-.82.27-.82.63s.28.54,1,.81c1.07.38,1.55.92,1.56,1.78,0,1.07-.82,1.83-2.37,1.83a3.81,3.81,0,0,1-1.78-.4Z" style="fill: #003869"/>
          <path d="M57.07,14.49c0,.7,0,1.28,0,1.75H55.83l-.07-.87h0a2.12,2.12,0,0,1-1.88,1c-1.06,0-2-.64-2-2.55V10.4h1.48v3.18c0,1,.31,1.6,1.09,1.6a1.21,1.21,0,0,0,1.13-.79,1.08,1.08,0,0,0,.08-.46V10.4h1.48Z" style="fill: #003869"/>
          <path d="M59.71,13.74a1.58,1.58,0,0,0,1.8,1.51A4.64,4.64,0,0,0,63.13,15l.21,1a5.16,5.16,0,0,1-2,.37,2.76,2.76,0,0,1-3-2.95,2.89,2.89,0,0,1,2.86-3.14,2.54,2.54,0,0,1,2.52,2.84,4.06,4.06,0,0,1-.05.63Zm2.56-1a1.25,1.25,0,0,0-1.21-1.43,1.44,1.44,0,0,0-1.35,1.43Z" style="fill: #003869"/>
          <path d="M64.86,12.14c0-.67,0-1.23,0-1.74h1.28l.07.88h0a2.13,2.13,0,0,1,1.87-1c1,0,2.08.66,2.08,2.51v3.46H68.67V13c0-.84-.31-1.48-1.11-1.48a1.25,1.25,0,0,0-1.16.86,1.61,1.61,0,0,0-.07.47v3.44H64.86Z" style="fill: #003869"/>
          <path d="M75.14,16.24l-2-8.08h1.57l.77,3.67c.2,1,.4,2,.53,2.82h0c.13-.85.36-1.81.59-2.84l.87-3.65h1.55l.8,3.72c.2,1,.38,1.86.5,2.73h0c.14-.9.34-1.81.55-2.8l.84-3.65h1.5l-2.18,8.08H79.52l-.84-3.81a24.52,24.52,0,0,1-.46-2.55h0a23.85,23.85,0,0,1-.53,2.56l-.94,3.8Z" style="fill: #003869"/>
          <path d="M88.28,14.84a8.08,8.08,0,0,0,.09,1.4H87l-.11-.64h0a2.16,2.16,0,0,1-1.73.78,1.74,1.74,0,0,1-1.83-1.74c0-1.47,1.3-2.22,3.46-2.21v-.1c0-.38-.15-1-1.18-1a3.05,3.05,0,0,0-1.58.44l-.28-1a4.11,4.11,0,0,1,2.11-.52,2.19,2.19,0,0,1,2.41,2.47Zm-1.44-1.45c-1,0-2,.2-2,1.09a.77.77,0,0,0,.84.84,1.2,1.2,0,0,0,1.16-.8.93.93,0,0,0,0-.33Z" style="fill: #003869"/>
          <path d="M89.84,12.14c0-.67,0-1.23,0-1.74h1.29l.07.88h0a2.15,2.15,0,0,1,1.87-1c1,0,2.08.66,2.08,2.51v3.46H93.65V13c0-.84-.31-1.48-1.11-1.48a1.23,1.23,0,0,0-1.15.86,1.33,1.33,0,0,0-.07.47v3.44H89.84Z" style="fill: #003869"/>
          <path d="M59.16,20.28a14.6,14.6,0,0,1,2.35-.18,4.83,4.83,0,0,1,3.28.94,3.56,3.56,0,0,1,1.28,3,4.22,4.22,0,0,1-1.26,3.22,5.43,5.43,0,0,1-3.66,1.1,16.31,16.31,0,0,1-2-.11Zm1.47,6.85a6.71,6.71,0,0,0,.82,0,2.77,2.77,0,0,0,3.06-3.1,2.57,2.57,0,0,0-2.87-2.81,4.62,4.62,0,0,0-1,.09Z" style="fill: #003869"/>
          <path d="M68,21.56a.8.8,0,1,1,.84-.79.78.78,0,0,1-.84.79Zm-.73,6.68V22.4h1.48v5.84Z" style="fill: #003869"/>
          <path d="M70.3,26.88a3.27,3.27,0,0,0,1.49.43c.65,0,.94-.28.94-.66s-.24-.59-1-.85c-1.14-.39-1.61-1-1.61-1.71,0-1,.85-1.82,2.21-1.82a3.43,3.43,0,0,1,1.56.35l-.3,1a2.63,2.63,0,0,0-1.24-.34c-.53,0-.81.27-.81.63s.27.54,1,.81c1.06.38,1.54.92,1.55,1.78,0,1.07-.82,1.83-2.37,1.83A3.81,3.81,0,0,1,70,28Z" style="fill: #003869"/>
          <path d="M77.06,20.9v1.5h1.4v1.11h-1.4v2.56c0,.72.19,1.08.76,1.08a1.84,1.84,0,0,0,.57-.06l0,1.12a3.32,3.32,0,0,1-1.06.15,1.68,1.68,0,0,1-1.27-.48,2.25,2.25,0,0,1-.47-1.64V23.51h-.83V22.4h.83V21.31Z" style="fill: #003869"/>
          <path d="M79.58,24.29c0-.8,0-1.37,0-1.89H80.8l.06,1.11h0a1.75,1.75,0,0,1,1.61-1.24,1.22,1.22,0,0,1,.34,0v1.38a1.89,1.89,0,0,0-.44,0,1.29,1.29,0,0,0-1.32,1.12,2.94,2.94,0,0,0,0,.44v3H79.58Z" style="fill: #003869"/>
          <path d="M84.58,21.56a.8.8,0,1,1,.84-.79.78.78,0,0,1-.84.79Zm-.73,6.68V22.4h1.48v5.84Z" style="fill: #003869"/>
          <path d="M91.22,28.06a4.18,4.18,0,0,1-1.66.3,2.81,2.81,0,0,1-3-3,3,3,0,0,1,3.25-3.11,3.83,3.83,0,0,1,1.43.27L91,23.65a2.44,2.44,0,0,0-1.12-.23,1.75,1.75,0,0,0-1.79,1.9,1.73,1.73,0,0,0,1.79,1.88A2.89,2.89,0,0,0,91,27Z" style="fill: #003869"/>
          <path d="M94.18,20.9v1.5h1.41v1.11H94.18v2.56c0,.72.19,1.08.76,1.08a1.8,1.8,0,0,0,.57-.06l0,1.12a3.39,3.39,0,0,1-1.07.15,1.69,1.69,0,0,1-1.27-.48,2.3,2.3,0,0,1-.47-1.64V23.51H91.9V22.4h.83V21.31Z" style="fill: #003869"/>
        </g>
        <g style="isolation: isolate">
          <polygon points="52.63 83.28 0 64.13 45.09 44.36 97.71 63.52 52.63 83.28" style="fill: #6baadb"/>
          <polygon points="52.65 85.12 52.63 83.28 97.71 63.52 97.73 65.35 52.65 85.12" style="fill: #3d77a6"/>
          <polygon points="0.02 65.96 0 64.13 52.63 83.28 52.65 85.12 0.02 65.96" style="fill: #254966"/>
        </g>
        <g>
          <g>
            <polygon points="3.19 62.72 18.73 47.19 55.66 47.6 40.14 62.72 3.19 62.72" style="fill: #b1d4ec"/>
            <path d="M18.73,47.26l36.79.39-15.4,15H3.32l2.22-2.21L18.73,47.26m0-.11L5.46,60.37l-2.41,2.4H40.16L55.8,47.54l-37.11-.39Z" style="fill: #fdf9f1"/>
          </g>
          <g>
            <polygon points="9.01 61.26 7.69 59.86 7.69 43.29 39.94 43.29 39.94 61.26 9.01 61.26" style="fill: #e2d8ea"/>
            <path d="M39.79,43.45V61.11H9.08L7.84,59.8V43.45h32m.31-.31H7.53V59.92l1.41,1.5H40.1V43.14Z" style="fill: #8760a4"/>
          </g>
          <rect x="38.74" y="43.14" width="1.35" height="18.28" style="fill: #a29ece"/>
          <polygon points="52.44 49.01 40.1 61.42 40.1 43.14 52.44 30.73 52.44 49.01" style="fill: #f2a4bf"/>
          <g>
            <rect x="20.72" y="53.89" width="5.47" height="7.37" style="fill: #a29ece"/>
            <path d="M26,54v7.07H20.88V54H26m.31-.31H20.57v7.69h5.78V53.73Z" style="fill: #8760a4"/>
          </g>
          <polygon points="37.27 39.49 8.94 39.49 7.53 36.93 17.14 27.92 24.01 25.36 51.76 25.36 53.17 27.92 43.57 36.93 37.27 39.49" style="fill: #fdf9f1"/>
          <rect x="8.94" y="39.49" width="28.32" height="7.29" style="fill: #fdf9f1"/>
          <polygon points="37.27 39.49 37.27 46.78 43.98 44.46 43.57 36.93 37.27 39.49" style="fill: #e2d8ea"/>
          <polygon points="43.57 36.93 43.98 44.46 53.17 35.63 53.17 27.92 43.57 36.93" style="fill: #fdf9f1"/>
          <polygon points="7.53 36.93 7.53 43.14 8.94 46.78 8.94 39.49 7.53 36.93" style="fill: #a29ece"/>
          <polygon points="35.18 48.97 7 48.98 8.94 46.78 37.27 46.78 35.18 48.97" style="fill: #e2d8ea"/>
          <polygon points="7.53 43.14 5.46 43.14 7 48.98 8.94 46.78 7.53 43.14" style="fill: #a29ece"/>
          <polygon points="5.46 43.14 7.53 40.88 7.53 43.14 5.46 43.14" style="fill: #8760a4"/>
          <polygon points="35.2 48.98 44.99 45.47 43.98 44.46 37.27 46.78 35.2 48.98" style="fill: #f2a4bf"/>
          <polygon points="44.99 45.47 43.98 44.46 53.17 35.63 54.8 35.63 44.99 45.47" style="fill: #e2d8ea"/>
          <g>
            <rect x="7.15" y="49.13" width="27.89" height="2.76" style="fill: #fdf9f1"/>
            <path d="M34.89,49.29v2.45H7.31V49.29H34.89M35.2,49H7v3.08H35.2V49Z" style="fill: #f2a4bf"/>
          </g>
          <g>
            <polygon points="35.32 49.06 44.88 45.63 44.88 48.89 35.32 51.89 35.32 49.06" style="fill: #e2d8ea"/>
            <path d="M44.76,45.8v3l-9.33,2.93V49.14l9.33-3.34m.23-.33L35.2,49v3.08L45,49v-3.5Z" style="fill: #fff"/>
          </g>
          <polygon points="44.99 45.47 44.99 48.98 54.8 38.87 54.8 35.63 44.99 45.47" style="fill: #fdf9f1"/>
          <polygon points="5.46 43.14 5.46 46.78 7 52.05 7 48.98 5.46 43.14" style="fill: #ac4c96"/>
          <polygon points="8.94 39.49 37.27 39.49 35.2 37.19 11.32 37.19 8.94 39.49" style="fill: #e2d8ea"/>
          <polygon points="35.2 37.19 40.62 34.74 43.57 36.93 37.27 39.49 35.2 37.19" style="fill: #b1d4ec"/>
          <polygon points="51.76 25.36 40.62 34.74 43.57 36.93 53.17 27.92 51.76 25.36" style="fill: #e2d8ea"/>
          <polygon points="38.74 48.76 38.74 49.95 42.66 48.76 42.66 47.59 38.74 48.76" style="fill: #ac4c96"/>
          <g>
            <rect x="28.59" y="55.6" width="8.52" height="4.03" style="fill: #f2a4bf"/>
            <path d="M37,55.75v3.73H28.74V55.75H37m.31-.31H28.43v4.35h8.83V55.44Z" style="fill: #f2a4bf"/>
          </g>
          <g>
            <rect x="9.84" y="55.6" width="8.52" height="4.03" style="fill: #f2a4bf"/>
            <path d="M18.2,55.75v3.73H10V55.75H18.2m.31-.31H9.68v4.35h8.83V55.44Z" style="fill: #f2a4bf"/>
          </g>
          <g>
            <polygon points="41.14 52.78 43.69 50.27 43.69 57.81 41.14 60.33 41.14 52.78" style="fill: #a29ece"/>
            <path d="M43.63,50.4v7.37L41.2,60.19V52.82l2.43-2.42m.12-.27-2.66,2.65v7.68l2.66-2.64V50.13Z" style="fill: #fdf9f1"/>
          </g>
          <g>
            <line x1="41.09" y1="53.77" x2="43.75" y2="51.12" style="fill: none;stroke: #fdf9f1;stroke-miterlimit: 10;stroke-width: 0.155124531167986px"/>
            <line x1="41.09" y1="54.3" x2="43.75" y2="51.65" style="fill: none;stroke: #fdf9f1;stroke-miterlimit: 10;stroke-width: 0.155124531167986px"/>
            <line x1="41.09" y1="54.83" x2="43.75" y2="52.18" style="fill: none;stroke: #fdf9f1;stroke-miterlimit: 10;stroke-width: 0.155124531167986px"/>
            <line x1="41.09" y1="55.35" x2="43.75" y2="52.71" style="fill: none;stroke: #fdf9f1;stroke-miterlimit: 10;stroke-width: 0.155124531167986px"/>
            <line x1="41.09" y1="55.88" x2="43.75" y2="53.23" style="fill: none;stroke: #fdf9f1;stroke-miterlimit: 10;stroke-width: 0.155124531167986px"/>
            <line x1="41.09" y1="56.41" x2="43.75" y2="53.76" style="fill: none;stroke: #fdf9f1;stroke-miterlimit: 10;stroke-width: 0.155124531167986px"/>
            <line x1="41.09" y1="56.94" x2="43.75" y2="54.29" style="fill: none;stroke: #fdf9f1;stroke-miterlimit: 10;stroke-width: 0.155124531167986px"/>
            <line x1="41.09" y1="57.46" x2="43.75" y2="54.82" style="fill: none;stroke: #fdf9f1;stroke-miterlimit: 10;stroke-width: 0.155124531167986px"/>
            <line x1="41.09" y1="57.99" x2="43.75" y2="55.34" style="fill: none;stroke: #fdf9f1;stroke-miterlimit: 10;stroke-width: 0.155124531167986px"/>
            <line x1="41.09" y1="58.52" x2="43.75" y2="55.87" style="fill: none;stroke: #fdf9f1;stroke-miterlimit: 10;stroke-width: 0.155124531167986px"/>
            <line x1="41.09" y1="59.05" x2="43.75" y2="56.4" style="fill: none;stroke: #fdf9f1;stroke-miterlimit: 10;stroke-width: 0.155124531167986px"/>
            <line x1="41.09" y1="59.57" x2="43.75" y2="56.93" style="fill: none;stroke: #fdf9f1;stroke-miterlimit: 10;stroke-width: 0.155124531167986px"/>
          </g>
          <g>
            <polygon points="45 49 47.54 46.49 47.54 54.04 45 56.55 45 49" style="fill: #a29ece"/>
            <path d="M47.49,46.63V54l-2.44,2.42V49.05l2.44-2.42m.11-.27L44.94,49v7.69L47.6,54V46.36Z" style="fill: #fdf9f1"/>
          </g>
          <polyline points="40.1 52.85 41.09 52.85 41.09 50.2 40.1 50.51" style="fill: #b1d4ec"/>
          <polyline points="41.09 52.85 44.98 48.96 41.09 50.2" style="fill: #fff"/>
          <rect x="28.43" y="39.49" width="1.92" height="1.92" style="fill: #ac4c96"/>
          <rect x="24.43" y="39.49" width="1.92" height="1.92" style="fill: #ac4c96"/>
          <polygon points="47.6 54.04 44.94 54.04 44.94 56.69 47.6 54.04" style="fill: #8760a4"/>
          <g>
            <g>
              <polygon points="44.96 48.95 47.48 46.38 50.83 47.58 48.18 50.1 44.96 48.95" style="fill: #b1d4ec"/>
              <path d="M47.47,46.47l3.17,1.1L48.16,50l-3-1.08,2.33-2.49m0-.13L44.94,49l3.25,1.17,2.66-2.65-3.42-1.18Z" style="fill: #fff"/>
            </g>
            <g>
              <polygon points="48.24 50.17 50.79 47.66 50.79 48.5 48.24 50.99 48.24 50.17" style="fill: #b1d4ec"/>
              <path d="M50.74,47.79v.66L48.3,50.86v-.64l2.44-2.43m.11-.27-2.66,2.65v.95l2.66-2.62v-1Z" style="fill: #fff"/>
            </g>
          </g>
          <g>
            <g>
              <polygon points="47.45 46.29 50.13 43.73 53.49 44.91 50.84 47.46 47.45 46.29" style="fill: #b1d4ec"/>
              <path d="M50.12,43.82l3.19,1.09-2.49,2.48-3.18-1.1,2.48-2.47m0-.13-2.66,2.65,3.42,1.18,2.66-2.66-3.42-1.17Z" style="fill: #fff"/>
            </g>
            <g>
              <polygon points="50.91 47.51 53.46 44.99 53.46 45.83 50.91 48.33 50.91 47.51" style="fill: #b1d4ec"/>
              <path d="M53.4,45.13v.66L51,48.19v-.64l2.44-2.42m.11-.27-2.66,2.65v1l2.66-2.63v-1Z" style="fill: #fff"/>
            </g>
          </g>
          <g>
            <polygon points="48.75 50.63 51.46 47.95 51.46 49.95 48.75 52.64 48.75 50.63" style="fill: #a29ece"/>
            <path d="M51.4,48.08V49.9l-2.59,2.6V50.67l2.59-2.59m.11-.27L48.7,50.62v2.16L51.51,50V47.81Z" style="fill: #fdf9f1"/>
          </g>
          <polygon points="51.51 49.95 49.37 49.95 48.7 50.62 48.7 52.78 51.51 49.95" style="fill: #8760a4"/>
          <polygon points="8.94 61.26 8.94 52.12 7.53 52.12 7.53 59.92 8.94 61.26" style="fill: #a29ece"/>
          <g>
            <polygon points="18.06 57.09 20.61 53.77 26.35 53.79 23.81 57.09 18.06 57.09" style="fill: #f2a4bf"/>
            <path d="M26.13,53.84,23.78,57h-5.5l2.34-3.2h5.51m.22-.11H20.57l-2.51,3.42h5.78l2.51-3.42Z" style="fill: #fff"/>
          </g>
          <rect x="18.06" y="57.15" width="5.75" height="1.15" style="fill: #fdf9f1"/>
          <rect x="3.05" y="62.77" width="37.04" height="0.83" style="fill: #8760a4"/>
          <polygon points="40.1 62.77 40.1 63.59 55.8 48.48 55.8 47.54 40.1 62.77" style="fill: #f2a4bf"/>
          <polygon points="7.53 36.93 9.87 34.74 11.32 37.19 8.94 39.49 7.53 36.93" style="fill: #b1d4ec"/>
          <g>
            <line x1="21.16" y1="53.81" x2="18.66" y2="57.15" style="fill: none;stroke: #fdf9f1;stroke-miterlimit: 10;stroke-width: 0.232686796751979px"/>
            <line x1="21.9" y1="53.8" x2="19.41" y2="57.15" style="fill: none;stroke: #fdf9f1;stroke-miterlimit: 10;stroke-width: 0.232686796751979px"/>
            <line x1="22.64" y1="53.79" x2="20.17" y2="57.15" style="fill: none;stroke: #fdf9f1;stroke-miterlimit: 10;stroke-width: 0.232686796751979px"/>
            <line x1="23.39" y1="53.77" x2="20.92" y2="57.15" style="fill: none;stroke: #fdf9f1;stroke-miterlimit: 10;stroke-width: 0.232686796751979px"/>
            <line x1="24.13" y1="53.76" x2="21.68" y2="57.15" style="fill: none;stroke: #fdf9f1;stroke-miterlimit: 10;stroke-width: 0.232686796751979px"/>
            <line x1="24.88" y1="53.75" x2="22.44" y2="57.15" style="fill: none;stroke: #fdf9f1;stroke-miterlimit: 10;stroke-width: 0.232686796751979px"/>
            <line x1="25.62" y1="53.73" x2="23.19" y2="57.15" style="fill: none;stroke: #fdf9f1;stroke-miterlimit: 10;stroke-width: 0.232686796751979px"/>
          </g>
          <g>
            <line x1="45.29" y1="48.65" x2="48.45" y2="49.86" style="fill: none;stroke: #fdf9f1;stroke-miterlimit: 10;stroke-width: 0.232686796751979px"/>
            <line x1="45.7" y1="48.23" x2="48.89" y2="49.43" style="fill: none;stroke: #fdf9f1;stroke-miterlimit: 10;stroke-width: 0.232686796751979px"/>
            <line x1="46.11" y1="47.8" x2="49.33" y2="49" style="fill: none;stroke: #fdf9f1;stroke-miterlimit: 10;stroke-width: 0.232686796751979px"/>
            <line x1="46.53" y1="47.37" x2="49.76" y2="48.57" style="fill: none;stroke: #fdf9f1;stroke-miterlimit: 10;stroke-width: 0.232686796751979px"/>
            <line x1="46.94" y1="46.94" x2="50.2" y2="48.14" style="fill: none;stroke: #fdf9f1;stroke-miterlimit: 10;stroke-width: 0.232686796751979px"/>
            <line x1="47.35" y1="46.52" x2="50.63" y2="47.71" style="fill: none;stroke: #fdf9f1;stroke-miterlimit: 10;stroke-width: 0.232686796751979px"/>
            <line x1="47.77" y1="46.09" x2="51.07" y2="47.28" style="fill: none;stroke: #fdf9f1;stroke-miterlimit: 10;stroke-width: 0.232686796751979px"/>
            <line x1="48.18" y1="45.66" x2="51.5" y2="46.85" style="fill: none;stroke: #fdf9f1;stroke-miterlimit: 10;stroke-width: 0.232686796751979px"/>
            <line x1="48.6" y1="45.23" x2="51.94" y2="46.42" style="fill: none;stroke: #fdf9f1;stroke-miterlimit: 10;stroke-width: 0.232686796751979px"/>
            <line x1="49.01" y1="44.81" x2="52.37" y2="45.99" style="fill: none;stroke: #fdf9f1;stroke-miterlimit: 10;stroke-width: 0.232686796751979px"/>
            <line x1="49.42" y1="44.38" x2="52.81" y2="45.56" style="fill: none;stroke: #fdf9f1;stroke-miterlimit: 10;stroke-width: 0.232686796751979px"/>
            <line x1="49.84" y1="43.95" x2="53.24" y2="45.13" style="fill: none;stroke: #fdf9f1;stroke-miterlimit: 10;stroke-width: 0.232686796751979px"/>
          </g>
        </g>
        <g>
          <g>
            <g>
              <g>
                <rect x="80.26" y="54.47" width="3.67" height="9.08" style="fill: #e2d8ea"/>
                <path d="M83.8,54.61v8.81H80.4V54.61h3.4m.27-.27H80.13v9.35h3.94V54.34Z" style="fill: #fff"/>
              </g>
              <polygon points="75.71 54.34 87.97 54.34 89.18 53.67 89.18 51.27 75.02 51.27 75.02 53.71 75.71 54.34" style="fill: #a29ece"/>
              <polygon points="89.18 53.68 92.14 50.56 92.44 49.55 92.44 47.76 89.18 51.23 89.18 53.68" style="fill: #fff"/>
              <polygon points="91.36 49.99 90.28 51.19 90.28 50.12 91.36 48.91 91.36 49.99" style="fill: #ac4c96"/>
              <rect x="76.86" y="54.34" width="9.17" height="0.72" style="fill: #eb6084;stroke: #f6c2cc;stroke-miterlimit: 10;stroke-width: 0.090997427199503px"/>
              <polygon points="86.03 55.06 87.08 54.35 86.03 54.34 86.03 55.06" style="fill: #eb6084;stroke: #f6c2cc;stroke-miterlimit: 10;stroke-width: 0.090997427199503px"/>
            </g>
            <polygon points="84.07 63.64 87.65 60.38 87.65 54.34 86.29 54.34 84.07 54.34 84.07 63.64" style="fill: #fff"/>
          </g>
          <g>
            <g>
              <g>
                <rect x="68.65" y="66.86" width="3.67" height="9.08" style="fill: #e2d8ea"/>
                <path d="M72.18,67v8.81h-3.4V67h3.4m.27-.27H68.51v9.35h3.94V66.73Z" style="fill: #fff"/>
              </g>
              <polygon points="64.1 66.73 76.36 66.73 77.56 66.06 77.56 63.66 63.4 63.66 63.4 66.1 64.1 66.73" style="fill: #a29ece"/>
              <polygon points="77.56 66.07 80.53 62.95 80.83 61.94 80.83 60.15 77.56 63.62 77.56 66.07" style="fill: #fff"/>
              <polygon points="79.74 62.38 78.67 63.58 78.67 62.5 79.74 61.3 79.74 62.38" style="fill: #ac4c96"/>
              <rect x="65.25" y="66.73" width="9.17" height="0.72" style="fill: #b1d4ec"/>
              <polygon points="74.42 67.45 75.46 66.74 74.42 66.73 74.42 67.45" style="fill: #eb6084;stroke: #f6c2cc;stroke-miterlimit: 10;stroke-width: 0.090997427199503px"/>
            </g>
            <polygon points="72.45 76.03 76.04 72.78 76.04 66.73 74.68 66.73 72.45 66.73 72.45 76.03" style="fill: #fff"/>
          </g>
          <g>
            <g>
              <polygon points="75.76 54.51 92.91 35.38 92.83 36.98 75.76 55.9 75.76 54.51" style="fill: #eb6084"/>
              <path d="M92.79,35.59v1.35l-17,18.84V54.54l17-18.95m.09-.24L75.71,54.51V56L92.88,37V35.35Z" style="fill: #f6c2cc"/>
            </g>
            <polygon points="92.88 47.31 75.72 65.66 75.72 56.02 92.88 36.98 92.88 47.31" style="fill: #ac4c96"/>
            <polygon points="92.88 47.31 75.72 65.66 75.72 60.84 92.88 42.14 92.88 47.31" style="fill: #a29ece"/>
            <polygon points="92.88 42.14 75.72 60.84 75.72 60.39 92.44 42.1 92.88 42.14" style="fill: #8760a4"/>
            <polygon points="92.88 47.31 75.72 65.66 75.72 64.45 92.88 46.02 92.88 47.31" style="fill: #b1d4ec"/>
            <g>
              <polygon points="77.99 62.01 77.99 53.5 78.5 52.93 78.5 61.46 77.99 62.01" style="fill: #fff"/>
              <polygon points="80.83 58.97 80.83 50.35 81.35 49.77 81.35 58.41 80.83 58.97" style="fill: #fff"/>
              <polygon points="83.73 55.85 83.73 47.13 84.26 46.53 84.26 55.27 83.73 55.85" style="fill: #fff"/>
              <polygon points="86.7 52.65 86.7 43.83 87.25 43.22 87.25 52.06 86.7 52.65" style="fill: #fff"/>
              <polygon points="89.75 49.38 89.75 40.44 90.31 39.82 90.31 48.77 89.75 49.38" style="fill: #fff"/>
            </g>
            <g>
              <polygon points="77.5 60.58 76.24 61.94 76.24 60.26 77.5 58.9 77.5 60.58" style="fill: #fdf9f1;stroke: #f2a4bf;stroke-miterlimit: 10;stroke-width: 0.090997427199503px"/>
              <path d="M76.66,59.93a2.15,2.15,0,0,1-.3,1.19c-.18.18-.31,0-.31-.52a2.07,2.07,0,0,1,.31-1.19C76.53,59.23,76.66,59.46,76.66,59.93Z" style="fill: #eb6084;stroke: #f6c2cc;stroke-miterlimit: 10;stroke-width: 0.090997427199503px"/>
              <path d="M77.28,59.13A2.12,2.12,0,0,1,77,60.32c-.18.19-.31,0-.31-.51A2,2,0,0,1,77,58.62C77.14,58.43,77.28,58.66,77.28,59.13Z" style="fill: #eb6084;stroke: #f6c2cc;stroke-miterlimit: 10;stroke-width: 0.090997427199503px"/>
              <path d="M77.64,58.87a1.56,1.56,0,0,1-.22.86c-.13.14-.23,0-.23-.37a1.51,1.51,0,0,1,.23-.87C77.54,58.35,77.64,58.52,77.64,58.87Z" style="fill: #eb6084;stroke: #f6c2cc;stroke-miterlimit: 10;stroke-width: 0.090997427199503px"/>
              <path d="M76.83,59.13a1.3,1.3,0,0,1-.17.68c-.1.1-.18,0-.18-.3a1.2,1.2,0,0,1,.18-.68C76.75,58.73,76.83,58.86,76.83,59.13Z" style="fill: #eb6084;stroke: #f6c2cc;stroke-miterlimit: 10;stroke-width: 0.090997427199503px"/>
            </g>
            <g>
              <polygon points="80.33 57.52 79.04 58.91 79.04 57.22 80.33 55.82 80.33 57.52" style="fill: #fdf9f1;stroke: #f2a4bf;stroke-miterlimit: 10;stroke-width: 0.090997427199503px"/>
              <path d="M79.47,56.87a2.2,2.2,0,0,1-.31,1.21c-.18.19-.32,0-.32-.52a2.11,2.11,0,0,1,.32-1.21C79.33,56.16,79.47,56.4,79.47,56.87Z" style="fill: #eb6084;stroke: #f6c2cc;stroke-miterlimit: 10;stroke-width: 0.090997427199503px"/>
              <path d="M80.1,56.06a2.11,2.11,0,0,1-.32,1.21c-.17.19-.32,0-.32-.52a2.19,2.19,0,0,1,.32-1.21C80,55.35,80.1,55.58,80.1,56.06Z" style="fill: #eb6084;stroke: #f6c2cc;stroke-miterlimit: 10;stroke-width: 0.090997427199503px"/>
              <path d="M80.47,55.78a1.55,1.55,0,0,1-.23.88c-.12.14-.23,0-.23-.37a1.63,1.63,0,0,1,.23-.88C80.37,55.27,80.47,55.44,80.47,55.78Z" style="fill: #eb6084;stroke: #f6c2cc;stroke-miterlimit: 10;stroke-width: 0.090997427199503px"/>
              <path d="M79.65,56.06a1.23,1.23,0,0,1-.19.69c-.09.11-.18,0-.18-.3a1.33,1.33,0,0,1,.18-.69C79.56,55.65,79.65,55.79,79.65,56.06Z" style="fill: #eb6084;stroke: #f6c2cc;stroke-miterlimit: 10;stroke-width: 0.090997427199503px"/>
            </g>
            <g>
              <polygon points="83.22 54.39 81.9 55.81 81.9 54.1 83.22 52.67 83.22 54.39" style="fill: #fdf9f1;stroke: #f2a4bf;stroke-miterlimit: 10;stroke-width: 0.090997427199503px"/>
              <path d="M82.35,53.75A2.14,2.14,0,0,1,82,55c-.18.2-.32,0-.32-.52A2.15,2.15,0,0,1,82,53.23C82.2,53,82.35,53.26,82.35,53.75Z" style="fill: #eb6084;stroke: #f6c2cc;stroke-miterlimit: 10;stroke-width: 0.090997427199503px"/>
              <path d="M83,52.91a2.15,2.15,0,0,1-.33,1.23c-.18.2-.32,0-.32-.52a2.21,2.21,0,0,1,.32-1.23C82.84,52.2,83,52.43,83,52.91Z" style="fill: #eb6084;stroke: #f6c2cc;stroke-miterlimit: 10;stroke-width: 0.090997427199503px"/>
              <path d="M83.37,52.63a1.58,1.58,0,0,1-.24.89c-.13.15-.23,0-.23-.37a1.6,1.6,0,0,1,.23-.9C83.26,52.11,83.37,52.28,83.37,52.63Z" style="fill: #eb6084;stroke: #f6c2cc;stroke-miterlimit: 10;stroke-width: 0.090997427199503px"/>
              <path d="M82.52,52.92a1.25,1.25,0,0,1-.18.7c-.11.11-.19,0-.19-.3a1.19,1.19,0,0,1,.19-.7C82.44,52.51,82.52,52.64,82.52,52.92Z" style="fill: #eb6084;stroke: #f6c2cc;stroke-miterlimit: 10;stroke-width: 0.090997427199503px"/>
            </g>
            <g>
              <polygon points="86.18 51.19 84.83 52.64 84.83 50.91 86.18 49.44 86.18 51.19" style="fill: #fdf9f1;stroke: #f2a4bf;stroke-miterlimit: 10;stroke-width: 0.090997427199503px"/>
              <path d="M85.29,50.54A2.25,2.25,0,0,1,85,51.79c-.19.2-.34,0-.34-.52A2.17,2.17,0,0,1,85,50C85.14,49.82,85.29,50.06,85.29,50.54Z" style="fill: #eb6084;stroke: #f6c2cc;stroke-miterlimit: 10;stroke-width: 0.090997427199503px"/>
              <path d="M85.94,49.69a2.17,2.17,0,0,1-.33,1.25c-.18.2-.33,0-.33-.52a2.25,2.25,0,0,1,.33-1.25C85.8,49,85.94,49.2,85.94,49.69Z" style="fill: #eb6084;stroke: #f6c2cc;stroke-miterlimit: 10;stroke-width: 0.090997427199503px"/>
              <path d="M86.34,49.4a1.65,1.65,0,0,1-.24.91c-.14.14-.25,0-.25-.38A1.57,1.57,0,0,1,86.1,49C86.23,48.87,86.34,49,86.34,49.4Z" style="fill: #eb6084;stroke: #f6c2cc;stroke-miterlimit: 10;stroke-width: 0.090997427199503px"/>
              <path d="M85.47,49.7a1.35,1.35,0,0,1-.19.72c-.11.11-.19,0-.19-.3a1.21,1.21,0,0,1,.19-.71C85.38,49.29,85.47,49.43,85.47,49.7Z" style="fill: #eb6084;stroke: #f6c2cc;stroke-miterlimit: 10;stroke-width: 0.090997427199503px"/>
            </g>
            <g>
              <polygon points="89.22 47.9 87.84 49.39 87.84 47.64 89.22 46.13 89.22 47.9" style="fill: #fdf9f1;stroke: #f2a4bf;stroke-miterlimit: 10;stroke-width: 0.090997427199503px"/>
              <path d="M88.3,47.26A2.24,2.24,0,0,1,88,48.53c-.19.2-.34,0-.34-.53A2.2,2.2,0,0,1,88,46.74C88.15,46.53,88.3,46.77,88.3,47.26Z" style="fill: #eb6084;stroke: #f6c2cc;stroke-miterlimit: 10;stroke-width: 0.090997427199503px"/>
              <path d="M89,46.39a2.24,2.24,0,0,1-.34,1.27c-.19.2-.34,0-.34-.53a2.2,2.2,0,0,1,.34-1.26C88.82,45.66,89,45.9,89,46.39Z" style="fill: #eb6084;stroke: #f6c2cc;stroke-miterlimit: 10;stroke-width: 0.090997427199503px"/>
              <path d="M89.38,46.09a1.6,1.6,0,0,1-.25.92c-.14.15-.25,0-.25-.38a1.6,1.6,0,0,1,.25-.92C89.27,45.56,89.38,45.73,89.38,46.09Z" style="fill: #eb6084;stroke: #f6c2cc;stroke-miterlimit: 10;stroke-width: 0.090997427199503px"/>
              <path d="M88.49,46.41a1.24,1.24,0,0,1-.2.72c-.1.12-.19,0-.19-.3a1.35,1.35,0,0,1,.19-.72C88.4,46,88.49,46.13,88.49,46.41Z" style="fill: #eb6084;stroke: #f6c2cc;stroke-miterlimit: 10;stroke-width: 0.090997427199503px"/>
            </g>
            <g>
              <polygon points="92.33 44.53 90.91 46.06 90.91 44.28 92.33 42.74 92.33 44.53" style="fill: #fdf9f1;stroke: #f2a4bf;stroke-miterlimit: 10;stroke-width: 0.090997427199503px"/>
              <path d="M91.39,43.9A2.31,2.31,0,0,1,91,45.19c-.19.2-.35,0-.35-.53A2.31,2.31,0,0,1,91,43.37C91.23,43.16,91.39,43.4,91.39,43.9Z" style="fill: #b1d4ec;stroke: #f2a4bf;stroke-miterlimit: 10;stroke-width: 0.090997427199503px"/>
              <path d="M92.08,43a2.31,2.31,0,0,1-.35,1.29c-.19.21-.35,0-.35-.53a2.31,2.31,0,0,1,.35-1.29C91.92,42.27,92.08,42.51,92.08,43Z" style="fill: #eb6084;stroke: #f6c2cc;stroke-miterlimit: 10;stroke-width: 0.090997427199503px"/>
              <path d="M92.49,42.7a1.7,1.7,0,0,1-.25.94c-.14.15-.26,0-.26-.39a1.63,1.63,0,0,1,.26-.93C92.38,42.16,92.49,42.33,92.49,42.7Z" style="fill: #eb6084;stroke: #f6c2cc;stroke-miterlimit: 10;stroke-width: 0.090997427199503px"/>
              <path d="M91.58,43a1.3,1.3,0,0,1-.2.73c-.11.12-.2,0-.2-.3a1.27,1.27,0,0,1,.2-.73C91.49,42.61,91.58,42.75,91.58,43Z" style="fill: #eb6084;stroke: #f6c2cc;stroke-miterlimit: 10;stroke-width: 0.090997427199503px"/>
            </g>
          </g>
          <g>
            <rect x="60.29" y="54.47" width="16.37" height="1.51" style="fill: #f2a4bf"/>
            <rect x="61.16" y="55.98" width="14.64" height="7.23" style="fill: #ac4c96"/>
            <rect x="61.16" y="63.21" width="14.64" height="2.41" style="fill: #b1d4ec"/>
            <rect x="57.1" y="60.04" width="9.64" height="1.51" transform="translate(122.72 -1.12) rotate(90)" style="fill: #fff"/>
            <rect x="70.29" y="60.11" width="9.64" height="1.38" transform="translate(135.9 -14.31) rotate(90)" style="fill: #fff"/>
          </g>
          <g>
            <polygon points="60.62 54.33 79.4 35.6 93.39 35.6 76.61 54.33 60.62 54.33" style="fill: #e2d8ea"/>
            <path d="M93.09,35.74,76.55,54.2H60.94L79.46,35.74H93.09m.61-.27H79.35l-19.06,19H76.67l17-19Z" style="fill: #fff"/>
          </g>
          <path d="M76.67,54.47h0a1,1,0,0,1,.06,1.44l-.06.07,17-19,0,0a1,1,0,0,0,0-1.49h0Z" style="fill: #b1d4ec"/>
          <polygon points="67.22 55.98 67.22 59.59 66.58 60.16 66.58 55.98 67.22 55.98" style="fill: #fff"/>
          <polygon points="62.67 59.23 66.58 55.98 66.58 60.16 62.67 63.21 62.67 59.23" style="fill: #a29ece"/>
          <path d="M76.67,54.47V56A1,1,0,0,0,76.67,54.47Z" style="fill: #f2a4bf"/>
          <g>
            <path d="M79.25,53.1a1,1,0,0,0,0-1.52" style="fill: none;stroke: #fff;stroke-miterlimit: 10;stroke-width: 0.090997427199503px"/>
            <path d="M81.32,50.79a1,1,0,0,0,0-1.51" style="fill: none;stroke: #fff;stroke-miterlimit: 10;stroke-width: 0.090997427199503px"/>
            <path d="M83.38,48.49a1,1,0,0,0,0-1.52" style="fill: none;stroke: #fff;stroke-miterlimit: 10;stroke-width: 0.090997427199503px"/>
            <path d="M85.44,46.18a1,1,0,0,0,0-1.51" style="fill: none;stroke: #fff;stroke-miterlimit: 10;stroke-width: 0.090997427199503px"/>
            <path d="M87.5,43.88a1,1,0,0,0,0-1.52" style="fill: none;stroke: #fff;stroke-miterlimit: 10;stroke-width: 0.090997427199503px"/>
            <path d="M89.56,41.57a1,1,0,0,0,0-1.51" style="fill: none;stroke: #fff;stroke-miterlimit: 10;stroke-width: 0.090997427199503px"/>
            <path d="M91.62,39.27a1,1,0,0,0,0-1.52" style="fill: none;stroke: #fff;stroke-miterlimit: 10;stroke-width: 0.090997427199503px"/>
          </g>
          <polygon points="67.22 55.98 67.22 59.59 71.84 55.93 67.22 55.98" style="fill: #a29ece"/>
        </g>
        <g>
          <polygon points="51.32 80.15 31.74 80.15 38.67 70.69 59.06 70.69 51.32 80.15" style="fill: #fdf9f1"/>
          <rect x="41.24" y="61.97" width="13" height="9.9" style="fill: #e2d8ea"/>
          <g>
            <rect x="38.29" y="61" width="1.79" height="12.35" style="fill: #7a80ac"/>
            <polygon points="40.08 73.35 41.24 71.87 41.24 63.24 40.45 63.24 40.45 60.96 40.08 61 40.08 73.35" style="fill: #a29ece"/>
          </g>
          <polygon points="31.99 66.7 51.37 66.7 58.15 60.14 38.77 60.14 31.99 66.7" style="fill: #7a80ac;stroke: #fdf9f1;stroke-miterlimit: 10;stroke-width: 0.074868638292815px"/>
          <polygon points="51.04 67.2 51.04 77.95 49.68 79.56 49.68 67.21 51.04 67.2" style="fill: #a29ece"/>
          <g>
            <polygon points="57.17 61.22 57.17 71.42 56.03 72.92 56.03 61 57.17 61.22" style="fill: #a29ece"/>
            <rect x="54.24" y="61" width="1.79" height="12.01" style="fill: #7a80ac"/>
          </g>
          <rect x="35.88" y="66.7" width="12.01" height="1.46" style="fill: #b1d4ec"/>
          <g>
            <g>
              <polygon points="32.36 65.38 38.83 59.13 57.77 59.13 51.31 65.38 32.36 65.38" style="fill: #e2d8ea"/>
              <path d="M57.39,59.28l-6.15,6H32.74l6.15-6h18.5m.76-.31H38.76L32,65.53H51.37L58.15,59Z" style="fill: #fff"/>
            </g>
            <rect x="31.99" y="65.53" width="19.38" height="1.16" style="fill: #cbaff2"/>
            <polygon points="58.15 58.97 58.15 60.14 51.37 66.7 51.37 65.53 58.15 58.97" style="fill: #b1d4ec"/>
          </g>
          <g>
            <rect x="33.72" y="66.74" width="1.79" height="12.82" style="fill: #7a80ac"/>
            <polygon points="35.51 79.56 36.67 77.8 36.67 68.15 35.88 68.15 35.88 66.7 35.51 66.74 35.51 79.56" style="fill: #a29ece"/>
          </g>
          <polygon points="51.04 66.73 51.04 67.95 55.34 63.98 55.39 62.76 51.37 66.7 51.04 66.73" style="fill: #b1d4ec;stroke: #fdf9f1;stroke-miterlimit: 10;stroke-width: 0.102955841675122px"/>
          <rect x="43.18" y="68.15" width="4.71" height="1.58" style="fill: #7a80ac;stroke: #fdf9f1;stroke-miterlimit: 10;stroke-width: 0.087561347464633px"/>
          <rect x="43.53" y="68.46" width="4" height="0.96" style="fill: #8760a4;stroke: #fdf9f1;stroke-miterlimit: 10;stroke-width: 0.063066078612589px"/>
          <g>
            <path d="M44.53,68.74l0,0v0h0a.67.67,0,0,1-.06.12q.09,0,.09.09a.05.05,0,0,1,0,0h0s0,0,0,0a.2.2,0,0,0,0-.08v.35s0,0,0,0h0V69l-.11.07h0a.63.63,0,0,0,.12-.11.71.71,0,0,0,.07-.16h-.17v0h.17l.05,0Zm-.13-.12s.05,0,.05.07,0,0,0,0,0,0,0,0,0,0,0,0,0,0,0-.06l0,0h0Zm.52,0,0,0a0,0,0,0,1,0,0h-.42s0,0,0,0h.33l0-.05h0Zm-.06.35,0,0,0,0,0,0a0,0,0,0,1,0,0l0,0v.13a.59.59,0,0,1,0,.11s0,0,0,0,0,0,0,0v0h-.25v0s0,0,0,0,0,0,0,0V69l.06,0Zm-.2-.06s0,0,0,0h0v-.16s0,0,0,0l.07,0h.16s0,0,0,0a.06.06,0,0,1,0,0s0,0,0,0h0l0,0v.06a.2.2,0,0,0,0,.05s0,0,0,0,0,0,0,0v0h-.16Zm0,.08v.1h.08V69Zm0,.23h.08v-.11h-.08Zm.2-.45h-.16v.1h.16Zm0,.22h-.1v.1h.1Zm-.1.23h.1v-.11h-.1Z" style="fill: #fff"/>
            <path d="M45.82,68.66s.06,0,.06.06a0,0,0,0,1,0,0h-.3v.17a.35.35,0,0,0,.13.14.5.5,0,0,0,.18.09v0l0,0v0h0s-.09,0-.18-.14a.57.57,0,0,1-.08-.13v.15a.77.77,0,0,0,0,.18s0,0-.06,0,0,0,0,0V69a.75.75,0,0,1-.3.21h0a.8.8,0,0,0,.31-.32v-.17h-.28a.08.08,0,0,0,0,0h.3v0a.2.2,0,0,0,0-.07h.09s0,0,0,0h0v.07h.17l.06-.06h0Zm-.39.15h0a.05.05,0,0,1,0,0l0,0a.05.05,0,0,1,0,.05s0,0,0,0h0s0,0,0,0a.43.43,0,0,0,0,0h0a.59.59,0,0,1-.13.17h0a.65.65,0,0,0,.12-.28C45.4,68.79,45.43,68.8,45.43,68.81Zm.37,0s0,0,0,0,0,0,0,0,.1.06.1.09,0,0,0,0,0,0,0,0,0,0,0,0l-.06-.08a.24.24,0,0,1-.08.09h0a.86.86,0,0,0,.07-.21Z" style="fill: #fff"/>
            <path d="M46.47,68.67s.05,0,.05.06h-.17V69h.07v-.18s0,0,0,0l.1,0a0,0,0,0,1,0,0h0v.22s0,0,0,0,0,0,0,0v0h-.07v.12l.16-.05h0a.73.73,0,0,1-.28.14,0,0,0,0,1,0,0l0,0,0-.08.11,0V69h-.07v0l0,0s0,0,0,0a1.77,1.77,0,0,0,0-.24.06.06,0,0,1,0,0l.1,0a0,0,0,0,1,0,0h0V69h.07v-.27h-.15l0,0h.17v-.12c.07,0,.1,0,.1,0h0s0,0,0,0v.06h0l.05,0h0Zm.3,0s0,0,0,0a0,0,0,0,1,0,0h0a1.8,1.8,0,0,1-.1.18.29.29,0,0,1,.13.19c0,.08,0,.12-.09.13s0,0,0,0a.08.08,0,0,0,0,0h0v0h0s0,0,0-.06a.25.25,0,0,0-.08-.18.53.53,0,0,0,.06-.21h-.09v.61s0,0,0,0h0c0-.1,0-.21,0-.31v-.2a1.19,1.19,0,0,0,0-.15l.07,0h.08l.05,0Z" style="fill: #fff"/>
          </g>
          <rect x="31.74" y="80.15" width="19.58" height="0.71" style="fill: #cbaff2"/>
          <polygon points="51.37 80.12 51.37 80.83 59.06 71.58 59.06 70.69 51.37 80.12" style="fill: #b1d4ec"/>
          <rect x="35.51" y="80.15" width="0.37" height="0.71" style="fill: #7a80ac;stroke: #fdf9f1;stroke-miterlimit: 10;stroke-width: 0.120061027670515px"/>
          <rect x="47.53" y="80.15" width="0.36" height="0.71" style="fill: #7a80ac;stroke: #fdf9f1;stroke-miterlimit: 10;stroke-width: 0.120061027670515px"/>
          <rect x="33.66" y="80.86" width="16.19" height="1.32" style="fill: #7a80ac"/>
          <polygon points="49.85 82.18 51.15 80.86 49.85 80.86 49.85 82.18" style="fill: #a29ece;stroke: #8760a4;stroke-linecap: round;stroke-linejoin: round;stroke-width: 0.205911683350244px"/>
          <rect x="42.7" y="70.1" width="5.19" height="1.77" style="fill: #a29ece;stroke: #a29ece;stroke-miterlimit: 10;stroke-width: 0.120061027670515px"/>
          <line x1="41.24" y1="70.1" x2="42.7" y2="70.1" style="fill: none;stroke: #a29ece;stroke-miterlimit: 10;stroke-width: 0.120061027670515px"/>
          <line x1="51.04" y1="70.1" x2="54.24" y2="70.1" style="fill: none;stroke: #a29ece;stroke-miterlimit: 10;stroke-width: 0.120061027670515px"/>
          <circle cx="46.65" cy="70.32" r="0.41" style="fill: #cbaff2;stroke: #8760a4;stroke-miterlimit: 10;stroke-width: 0.102478497238357px"/>
          <circle cx="47.34" cy="70.51" r="0.54" style="fill: #cbaff2;stroke: #a29ece;stroke-miterlimit: 10;stroke-width: 0.134270881365248px"/>
          <circle cx="45.06" cy="70.49" r="0.47" style="fill: #cbaff2;stroke: #a29ece;stroke-miterlimit: 10;stroke-width: 0.118194684657845px"/>
          <circle cx="43.53" cy="70.34" r="0.48" style="fill: #cbaff2;stroke: #a29ece;stroke-miterlimit: 10;stroke-width: 0.120061027670515px"/>
          <circle cx="44.38" cy="70.18" r="0.32" style="fill: #cbaff2;stroke: #8760a4;stroke-miterlimit: 10;stroke-width: 0.079566338666682px"/>
          <circle cx="46.11" cy="70.21" r="0.15" style="fill: #cbaff2;stroke: #a29ece;stroke-miterlimit: 10;stroke-width: 0.120061027670515px"/>
          <rect x="47.89" y="67.21" width="1.79" height="12.35" style="fill: #7a80ac"/>
        </g>
      </g>
    </g>
  </g>
</svg>
