<svg xmlns="http://www.w3.org/2000/svg" width="97.73" height="100.8" viewBox="0 0 97.73 100.8">
  <g id="Layer_2" data-name="Layer 2">
    <g id="Icon">
      <g>
        <g>
          <path d="M75.41,10.47A6.22,6.22,0,0,0,72.52,8l1-1.08a6.67,6.67,0,0,1,3.1,2.5Zm-2.8,9.21a14.73,14.73,0,0,0,2.74-7l1.45.47a15.61,15.61,0,0,1-2.64,7.19ZM76,5.42a6.35,6.35,0,0,0-2.94-2.16l1.1-1.07a6.26,6.26,0,0,1,3,2.22ZM86,12H81.78V8.81l-1.12.39-.11-.5c-1,.11-1.9.26-3,.43l.73.22a6.14,6.14,0,0,1-.95,3L76,11.92A5.19,5.19,0,0,0,77,9l.18.09-.74-1.21a13.53,13.53,0,0,0,1.84-1.7c-.35,0-.82.1-1.08.15L76.58,5.1a12.63,12.63,0,0,0,2.65-3.56l1.26.67A10.85,10.85,0,0,1,78.8,4.77l.65,0,.73-1.08,1.08.61V2.9H83A9.16,9.16,0,0,0,82.12,2l1.32-.69a14.06,14.06,0,0,1,1.14,1.62h1.84V4.34h-5a17.46,17.46,0,0,1-1.7,2.42l1-.35a5,5,0,0,1,1.16,2.07h4.23v3.24a5.57,5.57,0,0,0,.67-2.61l1.21.2a5.44,5.44,0,0,1-.82,3.1l-1.25-.3Zm-1.49,8.69-.63-1.55a44,44,0,0,0,4.45.39c.53,0,.77-.73.88-1.3H77l1.25-3.56H88.62V14H77.44V12.56h12.8V16L79.49,16l-.28.69,11.76,0a19.54,19.54,0,0,1-.84,3.43,1.8,1.8,0,0,1-1.79.82ZM79.69,9.26a5.69,5.69,0,0,1-.15,2.87l-1.43,0a5.33,5.33,0,0,0,.39-2.89ZM79.6,6.89a4.31,4.31,0,0,1-.65.56l1-.07ZM81,9.13a5.43,5.43,0,0,1,.59,2.57L80.29,12a4.51,4.51,0,0,0-.47-2.5Zm5-4.44V6H81.78V4.67ZM81.78,7.86V6.5l4.29,0v1.4Zm2.91,2.87V9.63l-1.49,0,0,1.1Zm4.58-3.95,1-.54a5.84,5.84,0,0,1,1.49,2.4l-1.08.45a6.84,6.84,0,0,1,.91,2.74l-1.34.28a5.37,5.37,0,0,0-.82-2.8l1.08-.26-.15-.44c-1,.09-2.18.22-3.41.44l-.84-1.21A11.6,11.6,0,0,0,88,5.94c-.26,0-.77.06-1.23.13l-.6-1.23a14.23,14.23,0,0,0,2.37-3.26l1.25.61a8.89,8.89,0,0,1-1.61,2.37l.92,0,.63-1.08L91,4a15.89,15.89,0,0,1-2.5,3.39l1.25-.11Zm-1.06,5.39a5.75,5.75,0,0,0-.15-2.84l1.16-.2A6.4,6.4,0,0,1,89.61,12Z" style="fill: #fff"/>
          <path d="M76,44.4v-11c-.38.49-1.12,1.36-1.92,2.22l-1.51-.88A19.08,19.08,0,0,0,78.07,25l1.53.65a29.19,29.19,0,0,1-2,5.25l0,13.5ZM86,42.57c0,.86-.3,1.81-1.64,1.81l-3.19,0-.67-1.68a29.14,29.14,0,0,0,3.28.1c.51,0,.58-.36.58-.73V35.92H78.56V34.35h5.81V32a14.08,14.08,0,0,0,3.8-4.08l-8.25,0V26.36l10.08,0,0,1.49a19.35,19.35,0,0,1-4,4.9l0,1.62h6v1.57H86Z" style="fill: #fff"/>
          <path d="M91.62,67H76.34c-1.14,0-1.66-1-1.66-2V51.34l-1.36,0v-1.6l18.19,0v1.6H76.32l0,13.25c0,.6.22.84.89.84H91.62Zm-8.29-3h-6.1v-6l6.1,0Zm-4.48-4.4v2.82l2.84,0,0-2.87Zm9.86-2.72-9.71,0,0-4.81h9.69Zm-8.07-1.47h6.43V53.56H80.64Zm10,2.61V64H84.43V58.05ZM89,59.6l-2.92,0v2.76l2.89,0Z" style="fill: #fff"/>
        </g>
        <g>
          <path d="M76.71,9.17a6.22,6.22,0,0,0-2.89-2.5l1-1.08a6.67,6.67,0,0,1,3.1,2.5Zm-2.8,9.21a14.73,14.73,0,0,0,2.74-7l1.45.47A15.61,15.61,0,0,1,75.46,19ZM77.32,4.12A6.35,6.35,0,0,0,74.38,2L75.48.88a6.34,6.34,0,0,1,3,2.23Zm9.94,6.54H83.08V7.51L82,7.9l-.11-.5c-.95.11-1.9.26-3,.43l.73.22a6.14,6.14,0,0,1-1,3l-1.31-.43a5.19,5.19,0,0,0,1-2.92l.18.09-.74-1.21a13.53,13.53,0,0,0,1.84-1.7c-.35,0-.82.1-1.08.15L77.88,3.8A12.63,12.63,0,0,0,80.53.24l1.25.67A10.56,10.56,0,0,1,80.1,3.47l.65,0,.73-1.08L82.56,3V1.6h1.75a9.16,9.16,0,0,0-.89-.91L84.74,0a14.06,14.06,0,0,1,1.14,1.62h1.84V3h-5A17.46,17.46,0,0,1,81,5.46l1-.35a5.13,5.13,0,0,1,1.16,2.08h4.23v3.23A5.57,5.57,0,0,0,88,7.81L89.25,8a5.45,5.45,0,0,1-.82,3.11l-1.25-.3Zm-1.48,8.69-.63-1.55a44,44,0,0,0,4.45.39c.53,0,.77-.73.88-1.3H78.29l1.25-3.56H89.92v-.66H78.74V11.26h12.8v3.45l-10.75,0-.28.69,11.76,0a19.54,19.54,0,0,1-.84,3.43,1.8,1.8,0,0,1-1.79.82ZM81,8a5.69,5.69,0,0,1-.15,2.87l-1.43,0A5.33,5.33,0,0,0,79.8,8ZM80.9,5.59a4.31,4.31,0,0,1-.65.56l1-.07Zm1.42,2.24a5.43,5.43,0,0,1,.59,2.57l-1.32.28a4.51,4.51,0,0,0-.47-2.5Zm5.05-4.44V4.7H83.08V3.37ZM83.08,6.56V5.2l4.29,0v1.4ZM86,9.43V8.33l-1.49,0,0,1.1Zm4.58-3.95,1-.54a5.84,5.84,0,0,1,1.49,2.4L92,7.79a6.84,6.84,0,0,1,.91,2.74l-1.34.28A5.43,5.43,0,0,0,90.74,8l1.08-.25-.15-.44c-1,.09-2.18.22-3.41.44l-.84-1.21a11.6,11.6,0,0,0,1.87-1.9c-.26,0-.77.06-1.23.13l-.6-1.23A14.23,14.23,0,0,0,89.83.28l1.25.6a8.81,8.81,0,0,1-1.61,2.38l.92,0L91,2.14l1.25.6a15.89,15.89,0,0,1-2.5,3.39L91,6Zm-1.06,5.39A5.75,5.75,0,0,0,89.36,8l1.16-.2a6.4,6.4,0,0,1,.39,2.87Z" style="fill: #214534"/>
          <path d="M77.25,43.1v-11c-.38.49-1.12,1.36-1.92,2.22l-1.51-.88a19.08,19.08,0,0,0,5.55-9.74l1.53.65a28.8,28.8,0,0,1-2,5.24l0,13.51Zm10.06-1.83c0,.86-.3,1.81-1.64,1.81l-3.19,0-.67-1.68a29.14,29.14,0,0,0,3.28.1c.51,0,.58-.36.58-.73V34.62H79.86V33.05h5.81V30.72a14.08,14.08,0,0,0,3.8-4.08l-8.25,0V25.06L91.3,25l0,1.49a19.35,19.35,0,0,1-4,4.9l0,1.62h6v1.57h-6Z" style="fill: #214534"/>
          <path d="M92.92,65.73H77.64c-1.14,0-1.66-1-1.66-2V50l-1.36,0v-1.6l18.19,0V50H77.62l0,13.25c0,.6.22.84.89.84H92.92Zm-8.29-3h-6.1v-6l6.1,0Zm-4.49-4.4v2.82l2.85,0,0-2.87ZM90,55.61l-9.71,0,0-4.81H90Zm-8.07-1.47h6.43V52.26H81.94Zm10,2.61v5.91H85.73V56.75ZM90.29,58.3l-2.92,0v2.76l2.89,0Z" style="fill: #214534"/>
        </g>
        <g style="isolation: isolate">
          <polygon points="52.63 98.97 0 79.81 45.09 60.04 97.71 79.2 52.63 98.97" style="fill: #c4dc77"/>
          <polygon points="52.65 100.8 52.63 98.97 97.71 79.2 97.73 81.03 52.65 100.8" style="fill: #718044"/>
          <polygon points="0.02 81.64 0 79.81 52.63 98.97 52.65 100.8 0.02 81.64" style="fill: #444d28"/>
        </g>
        <g>
          <g>
            <path d="M47.84,38.05c-5.4,0-9.78,1.62-9.78,3.62h2c0-1.58,3.47-2.87,7.75-2.87s7.76,1.29,7.76,2.87h2C57.63,39.67,53.25,38.05,47.84,38.05Z" style="fill: #4fafa5"/>
            <path d="M47.84,32.51a13,13,0,0,1,2,13.21" style="fill: none;stroke: #613667;stroke-miterlimit: 10;stroke-width: 0.993270323130265px"/>
            <path d="M47.7,32.51a13,13,0,0,0-1.91,13.43" style="fill: none;stroke: #613667;stroke-miterlimit: 10;stroke-width: 0.993270323130265px"/>
            <path d="M47.84,44.54c4.29,0,7.76-1.28,7.76-2.87H40.09C40.09,43.26,43.56,44.54,47.84,44.54Z" style="fill: none"/>
            <polygon points="56.62 60.93 43.14 60.93 34.6 65.32 39.53 69.72 53.01 69.72 61.55 65.32 56.62 60.93" style="fill: #fff;stroke: #231f20;stroke-miterlimit: 10;stroke-width: 0.040871079574468px"/>
            <polygon points="56.62 48.34 43.14 48.34 34.6 52.74 39.53 57.13 53.01 57.13 61.55 52.74 56.62 48.34" style="fill: #fff;stroke: #231f20;stroke-miterlimit: 10;stroke-width: 0.040871079574468px"/>
            <rect x="39.53" y="57.13" width="13.48" height="17.08" style="fill: #f7bad5"/>
            <polygon points="34.6 52.74 34.6 69.7 39.53 74.1 39.53 57.13 34.6 52.74" style="fill: #b189bd"/>
            <polygon points="53.01 57.13 61.55 52.74 61.55 69.91 53.01 74.3 53.01 57.13" style="fill: #fff"/>
            <rect x="43.84" y="60.69" width="4.85" height="5.81" style="fill: #f072a0"/>
            <rect x="44.46" y="61.39" width="3.62" height="4.42" style="fill: #613667"/>
            <g>
              <polygon points="62.57 52.64 58.23 48.78 42.21 48.78 34.7 52.64 32.05 52.64 32.05 54 37.91 59.23 53.94 59.23 64.1 54 64.1 52.64 62.57 52.64" style="fill: #4fafa5"/>
              <polygon points="58.23 47.42 42.21 47.42 32.05 52.64 37.91 57.87 53.94 57.87 64.1 52.64 58.23 47.42" style="fill: #fff"/>
            </g>
            <rect x="44.63" y="46.33" width="1.41" height="9.37" rx="0.64" style="fill: #f7bad5"/>
            <rect x="49.57" y="46.33" width="1.41" height="9.37" rx="0.64" style="fill: #f7bad5"/>
            <g>
              <rect x="38.01" y="43.12" width="1.41" height="9.37" rx="0.64" style="fill: #f072a0"/>
              <rect x="39.07" y="45.15" width="1.41" height="9.37" rx="0.64" style="fill: #f7bad5"/>
            </g>
            <g>
              <rect x="56.24" y="43.12" width="1.41" height="9.37" rx="0.64" transform="translate(113.88 95.61) rotate(180)" style="fill: #f072a0"/>
              <rect x="55.17" y="45.15" width="1.41" height="9.37" rx="0.64" transform="translate(111.76 99.66) rotate(180)" style="fill: #f7bad5"/>
            </g>
            <path d="M55.6,41.67c0,1.59-3.47,2.87-7.76,2.87s-7.75-1.28-7.75-2.87h-2v2.51c0,2,4.38,3.62,9.78,3.62s9.79-1.62,9.79-3.62V41.67Z" style="fill: #f7bad5"/>
            <path d="M40.82,38.08a14.67,14.67,0,0,0,14.07,0" style="fill: none;stroke: #613667;stroke-miterlimit: 10;stroke-width: 0.546298677721648px"/>
            <path d="M40.8,43.38c0-4.5.71-10.87,7-10.87,6.66,0,7,6.37,7,10.87" style="fill: none;stroke: #613667;stroke-miterlimit: 10;stroke-width: 1.16805440790865px"/>
            <path d="M40.82,41.51a14.67,14.67,0,0,0,14.07,0" style="fill: none;stroke: #613667;stroke-miterlimit: 10;stroke-width: 0.546298677721648px"/>
            <path d="M42.49,35a13.64,13.64,0,0,0,10.89,0" style="fill: none;stroke: #613667;stroke-miterlimit: 10;stroke-width: 0.546298677721648px"/>
            <ellipse cx="47.84" cy="32.97" rx="1.86" ry="1.04" style="fill: #fff"/>
            <ellipse cx="47.86" cy="31.93" rx="0.9" ry="1.04" style="fill: #613667"/>
            <path d="M47.84,44.54c-4.28,0-7.75-1.28-7.75-2.87h-2c0,2,4.38,3.62,9.78,3.62s9.79-1.62,9.79-3.62h-2C55.6,43.26,52.13,44.54,47.84,44.54Z" style="fill: #b189bd"/>
            <path d="M56.41,43.59a8.8,8.8,0,0,1,.86-4.34c.48-.72.87,0,.87,1.73" style="fill: #b189bd"/>
            <ellipse cx="57.38" cy="42.29" rx="2.73" ry="0.65" transform="translate(9.1 94.72) rotate(-83.75)" style="fill: #fff"/>
            <g>
              <line x1="57.38" y1="39.79" x2="57.38" y2="40.4" style="fill: none;stroke: #613667;stroke-miterlimit: 10;stroke-width: 0.102510286844676px"/>
              <line x1="57.38" y1="44.17" x2="57.38" y2="44.78" style="fill: none;stroke: #613667;stroke-miterlimit: 10;stroke-width: 0.102510286844676px"/>
            </g>
            <g>
              <line x1="58.09" y1="41.21" x2="57.92" y2="41.48" style="fill: none;stroke: #613667;stroke-miterlimit: 10;stroke-width: 0.102510286844676px"/>
              <line x1="56.84" y1="43.1" x2="56.67" y2="43.36" style="fill: none;stroke: #613667;stroke-miterlimit: 10;stroke-width: 0.102510286844676px"/>
            </g>
            <g>
              <line x1="57.88" y1="43.29" x2="57.76" y2="43.05" style="fill: none;stroke: #613667;stroke-miterlimit: 10;stroke-width: 0.102510286844676px"/>
              <line x1="57" y1="41.53" x2="56.88" y2="41.28" style="fill: none;stroke: #613667;stroke-miterlimit: 10;stroke-width: 0.102510286844676px"/>
            </g>
            <g>
              <line x1="56.88" y1="44.81" x2="57" y2="44.2" style="fill: none;stroke: #613667;stroke-miterlimit: 10;stroke-width: 0.102510286844676px"/>
              <line x1="57.76" y1="40.38" x2="57.88" y2="39.76" style="fill: none;stroke: #613667;stroke-miterlimit: 10;stroke-width: 0.102510286844676px"/>
            </g>
            <polygon points="57.38 40.64 57.48 42.29 57.28 42.29 57.38 40.64" style="fill: #f072a0"/>
            <polygon points="57.74 41.74 57.47 42.34 57.3 42.23 57.74 41.74" style="fill: #f072a0"/>
            <path d="M57.56,39H56.41c-.48.07-1.12,1.53-1.12,4.08l1.13.1S56.58,39.71,57.56,39Z" style="fill: #f7bad5"/>
            <path d="M39.69,43.64a8.71,8.71,0,0,0-.39-4.41c-.39-.77-.86,0-1,1.63" style="fill: #b189bd"/>
            <ellipse cx="38.87" cy="42.24" rx="0.65" ry="2.73" style="fill: #fff"/>
            <g>
              <line x1="38.28" y1="41.09" x2="38.42" y2="41.37" style="fill: none;stroke: #613667;stroke-miterlimit: 10;stroke-width: 0.102510286844676px"/>
              <line x1="39.31" y1="43.1" x2="39.46" y2="43.38" style="fill: none;stroke: #613667;stroke-miterlimit: 10;stroke-width: 0.102510286844676px"/>
            </g>
            <g>
              <line x1="38.26" y1="43.18" x2="38.41" y2="42.95" style="fill: none;stroke: #613667;stroke-miterlimit: 10;stroke-width: 0.102510286844676px"/>
              <line x1="39.33" y1="41.52" x2="39.47" y2="41.29" style="fill: none;stroke: #613667;stroke-miterlimit: 10;stroke-width: 0.102510286844676px"/>
            </g>
            <path d="M39.05,38.93l1.14.13c.47.12,1,1.64.67,4.17l-1.13,0S40,39.76,39.05,38.93Z" style="fill: #f7bad5"/>
            <g>
              <g>
                <path d="M44.8,45.19a3,3,0,1,1,6.07,0" style="fill: #b189bd"/>
                <circle cx="47.83" cy="45.19" r="2.49" style="fill: #fff"/>
              </g>
              <g>
                <line x1="47.83" y1="42.69" x2="47.83" y2="43.3" style="fill: none;stroke: #613667;stroke-miterlimit: 10;stroke-width: 0.160504744168093px"/>
                <line x1="47.83" y1="47.08" x2="47.83" y2="47.68" style="fill: none;stroke: #613667;stroke-miterlimit: 10;stroke-width: 0.160504744168093px"/>
              </g>
              <g>
                <line x1="50.33" y1="45.19" x2="49.72" y2="45.19" style="fill: none;stroke: #613667;stroke-miterlimit: 10;stroke-width: 0.160504744168093px"/>
                <line x1="45.94" y1="45.19" x2="45.34" y2="45.19" style="fill: none;stroke: #613667;stroke-miterlimit: 10;stroke-width: 0.160504744168093px"/>
              </g>
              <g>
                <line x1="49.59" y1="46.95" x2="49.17" y2="46.52" style="fill: none;stroke: #613667;stroke-miterlimit: 10;stroke-width: 0.160504744168093px"/>
                <line x1="46.5" y1="43.85" x2="46.07" y2="43.43" style="fill: none;stroke: #613667;stroke-miterlimit: 10;stroke-width: 0.160504744168093px"/>
              </g>
              <g>
                <line x1="46.07" y1="46.95" x2="46.5" y2="46.52" style="fill: none;stroke: #613667;stroke-miterlimit: 10;stroke-width: 0.160504744168093px"/>
                <line x1="49.17" y1="43.85" x2="49.59" y2="43.43" style="fill: none;stroke: #613667;stroke-miterlimit: 10;stroke-width: 0.160504744168093px"/>
              </g>
              <polygon points="47.83 43.54 47.99 45.19 47.67 45.19 47.83 43.54" style="fill: #f072a0"/>
              <polygon points="49.09 45.19 47.83 45.35 47.83 45.03 49.09 45.19" style="fill: #f072a0"/>
            </g>
            <g>
              <path d="M46.27,64.08H45.15s0,0,0,0V61.8s0,0,0,0h2.23s0,0,0,0V64s0,0,0,0Zm-.39-1.15v.34s0,0,0,0h.7s0,0,0,0v-.69s0,0,0,0h-.7s0,0,0,0Zm1.44-.18v-.16s0,0,0,0l-.08,0h0s0,0,0,0l0,0a.16.16,0,0,0,.08-.19v0a.08.08,0,0,0-.12,0,.3.3,0,0,0,0,.08.81.81,0,0,1-.1.21.2.2,0,0,1-.26.08s0,0,0,0a1.08,1.08,0,0,1,0,.18s0,0,0,0h.1s0,0,0,0,0,0,0,0h0a.32.32,0,0,0-.09,0s0,.06,0,.08a1.21,1.21,0,0,0,.2.09s0,0,0,0a.11.11,0,0,0-.08-.1s0,0,0,0,0,0,0,0l.26,0,0,0s0,0,0,0a.22.22,0,0,0-.11,0s0,.07,0,.08l.21.09s0,0,0,0V63.1a.08.08,0,0,0,0-.09.29.29,0,0,0-.13,0s0,0,0,0h.17s0,0,0,0Zm-2.11,0a.34.34,0,0,1,0,.1s0,0,0,0h.19s0,0,0,0l-.05,0a.2.2,0,0,0-.16.21c0,.06,0,.09.1.08a.14.14,0,0,0,.1-.08,2,2,0,0,1,.12-.19.15.15,0,0,1,.21-.06s0,0,0,0v-.16a.14.14,0,0,0-.06-.12l-.14-.09-.32-.2s0,0,0,0a.24.24,0,0,1,0,.12.11.11,0,0,0,.07.11l.13.06s0,0,0,0h0l-.16,0a0,0,0,0,0,0,0A.2.2,0,0,1,45.21,62.79Zm1.59-.67a.32.32,0,0,0,.17,0l.08-.07s0,0,0,0,0,0,0,0-.11.14-.17.2l0,.06a0,0,0,0,1,0,0s0,0,0,0l0-.07s0,0,0,0a.1.1,0,0,0-.1.06c0,.05-.06.1-.09.16s0,0,0,0a.34.34,0,0,0,.2,0l.05,0s0,0,0,0,0,0,0,0l-.06,0a.47.47,0,0,0-.1.1.12.12,0,0,0,0,.13.09.09,0,0,0,.12,0l.07-.09.09-.21a.17.17,0,0,1,.22-.09s0,0,0,0v-.3s0,0,0,0l-.14.15s0,0,0,0,0,0,0,0l.09-.12s0-.05,0-.05H47s0,0,0,0Zm-1.48-.25h0c-.07,0-.06,0-.07.06s0,.06,0,.07l.06,0s0,0,0,0h-.06s0,0,0,0,0,0,0,.07a0,0,0,0,0,0,0l.25.16.21.12s.07,0,.07,0,0,0,0,0,0,0,0,0l0,0L45.52,62C45.47,61.9,45.42,61.84,45.32,61.87Zm0,1.87a0,0,0,0,1,.06,0,.24.24,0,0,1,.13.07s0,0,0,0a.85.85,0,0,0,.16-.17.44.44,0,0,0,.09-.18c0-.08,0-.11-.1-.08h0a1,1,0,0,0-.37.35.24.24,0,0,0,0,.16s0,0,0,0a.24.24,0,0,0,.14,0s0,0,0,0A.18.18,0,0,0,45.29,63.74ZM46,62.13h0v-.22s0,0,0,0h-.35s0,0,0,0l.07.1c.08.12.17.23.26.35s0,0,0,0,0,0,0,0Zm.47,0h0v.22a.05.05,0,0,0,0,0s.05,0,.06,0a.56.56,0,0,1,.05-.08l.2-.36s0,0,0,0a0,0,0,0,0,0,0H46.5s0,0,0,0Zm-.32,1.29c-.1,0-.1,0-.13.09l-.06.21a.27.27,0,0,0,0,.12c0,.07,0,.11.09.09a.14.14,0,0,0,.11-.1.65.65,0,0,0,0-.13,1.87,1.87,0,0,0,.07-.22s0-.06,0-.06Zm1.19.12h0v0c0-.08,0-.1-.09-.13l-.14-.06-.24-.1q-.09,0-.09.06h0s0,0,0,0a.17.17,0,0,1,.24.1.25.25,0,0,1,0,.17s0,0,0,0a.79.79,0,0,1,.22.06s.06,0,.06,0Zm-2.1.06,0,0a.86.86,0,0,1,.2-.18.42.42,0,0,1,.25-.09s0,0,.07,0,0-.05,0-.07h0s0,0,0,0l-.1,0s0,0,0,0,0,0,0,0h0a.2.2,0,0,0,.09-.09.08.08,0,0,0,0-.1.08.08,0,0,0-.09,0l0,.07c0,.06-.07.12-.11.17a.19.19,0,0,1-.25.08h0s0,0,0,0Zm2,.37h0c.09,0,.09,0,.09-.09s0-.07,0-.1a.6.6,0,0,0-.23-.1.09.09,0,0,0-.1,0s0,0,0,.08l0,0s0,.08.08.1A.25.25,0,0,0,47.23,64Zm-.74-.55s0,0-.05,0,0,0,0,0l.27.43c0,.05.06.08.12.07s.07,0,0-.07a.08.08,0,0,0,0,0l-.13-.18a1.77,1.77,0,0,0-.16-.22S46.53,63.41,46.49,63.42Zm-.44.55h.16s.06,0,.07-.06,0-.13,0-.2l.06-.26s0,0,0,0a.08.08,0,0,0-.09.06c0,.05,0,.1,0,.15A.56.56,0,0,1,46.05,64Zm-.22,0a.18.18,0,0,1,0-.17c0-.11.07-.22.1-.33s0,0,0,0h-.05s0,0,0,0a.33.33,0,0,1-.06.19.93.93,0,0,1-.21.23s0,0,0,0a.08.08,0,0,0,.08,0s0,0,0,0,0,0,0,0Zm.39-1.72h0c.05-.12.09-.24.13-.36s0,0,0,0h-.22s0,0,0,0l.06.17A1.34,1.34,0,0,0,46.22,62.25ZM47,63.52a.21.21,0,0,0-.11-.14.06.06,0,0,0-.09,0l0,0s0,0,0,.06l.11.16s0,0,0,0l.07,0A.08.08,0,0,0,47,63.52Zm-.49.45h.11s0,0,0,0l-.06-.1,0,0h-.11c-.07,0-.07,0-.08.07a0,0,0,0,1,0,0c0,.05,0,.06.06.06ZM46,62h0v.28c0,.12,0,.13.13.12s0,0,0,0S46.07,62.15,46,62Zm.35,0h0c-.05.13-.1.25-.14.38s0,0,0,0h.06s.06,0,.06-.05Zm0,1.54c0,.06,0,.1,0,.15s0,0,0,0h.1s0,0,0,0Z" style="fill: #f7bad5"/>
              <path d="M46.17,62.91l-.1-.07s0,0,0-.06,0,0,0,0l.12.07s0,0,.05,0l.2-.12s0,0,.07,0,0,0,0,.07l-.16.09s0,0,0,0,0,0,0,0l0,0s0,0,0,0-.06,0-.09,0,0,0,0,0S46.12,62.93,46.17,62.91Z" style="fill: #f7bad5"/>
            </g>
            <g>
              <path d="M46.48,64.67a.84.84,0,0,1-.07.35,5,5,0,0,0,0-.67.18.18,0,0,0,.16,0l0-.07c.06,0,.08,0,.08.07s.09,0,.1-.06h0l0,.09H46.7s0,0,0,.06h0l0-.06,0,.09H46.7v.07l0,0h0a.06.06,0,0,0-.06,0h0s0,0,0,0v-.06s0,0-.06,0,0,.08.05.08h.16l0,0,0,0,.06.09h-.07a.7.7,0,0,1,0,.25.69.69,0,0,1,0,.1v0h0l-.09-.08a0,0,0,0,1,0,0h-.06l0,0a.27.27,0,0,1-.18.07l.09-.08s0,0,0-.06v-.22Zm0-.25c0,.06,0,.06,0,.06v-.06Zm.11,0v.07h0v-.07Zm0,.4v.05h0C46.69,64.82,46.69,64.82,46.64,64.82Zm0-.26c0-.06,0,0-.06,0S46.62,64.56,46.65,64.56Zm0,.18s0,0,0,0h0s0,0,0,0Zm-.12-.08v0l0,0,0,0,0,0Zm.18,0v0h0l0,0Zm-.14.18s0,0,0,0S46.55,64.84,46.56,64.86Zm0-.12h0s0,0,0,0l0,0h0Z" style="fill: #f7bad5"/>
              <path d="M47.26,65l-.09.08,0,0a.41.41,0,0,0,.07-.11.31.31,0,0,0,.05-.12.28.28,0,0,1-.15.17h0l.1-.17h0l0,0,0,0h0l.06-.11h0l-.12.13,0-.11s0,0,0-.09v-.12h0v0h0v-.2l.06,0s0,0,0,0a.36.36,0,0,1,0,.1l.06,0v-.17c.12.05.12.05.16,0s0,0,0,.09v.18l.06.08h-.13s-.06,0-.06.06.1,0,.13,0,0,0,0,.1,0,.08,0,.13a.32.32,0,0,1,0,.09s0,0-.05,0S47.27,65,47.26,65Zm.08-.32,0,0a.07.07,0,0,0-.09,0l0,0s0,0,0,0v0h-.05v.08C47.19,64.66,47.33,64.66,47.34,64.63Zm0-.14h-.07v.07h.07Zm-.07,0h.07v-.06h-.07Zm.1.35h0l-.06.13s0,0,0,0A.38.38,0,0,0,47.33,64.8Zm-.14-.11h0l0,0v.06Z" style="fill: #f7bad5"/>
              <path d="M45.49,64.6h-.06l.07.13h-.07v.17a.15.15,0,0,1,0,.07.1.1,0,0,1,0,0l-.06-.1h.06v-.19h-.13v.12s0,0,0,0l0,0,0,0,0,0s0,0,0,0v0l0,0s0,0,0,0v-.56s0,0,.06,0l0,0s0,.1.1.07V64.3l.05,0s0,0,0,0,0,.05,0,.07h0l0-.06,0,.09h-.09v.1h0l0-.07Zm-.24,0c0,.1,0,.1.08.1h0v-.1Zm0-.15v0c0,.06,0,.07.07.06v-.1Zm0,.27v-.07s0,0,0,0,0,0,0,0v.15s0,0,0,0,0,0,0,0Zm0-.21v-.06s0,0,0,0,0,0,0,0v.12s0,0,0,0,0,0,0,0Z" style="fill: #f7bad5"/>
              <path d="M46,64.6a.6.6,0,0,0,.07.3l0-.12h0a0,0,0,0,1,0,0,1,1,0,0,1,0,.17s0,0,0,0h0l0,0a.89.89,0,0,1-.08-.31v0l-.09,0V65s0,0,0,0,0,0,0,0,0,0,0,0v-.37l-.05.07h0s0-.08,0-.13l0-.13a.7.7,0,0,0,0-.14l.06,0v0a.23.23,0,0,0,0,.16s0,0,0,0,.09,0,.09,0v-.21s.06,0,.07,0h0a.08.08,0,0,1,.06.12l0,0s0,0,0,.07Zm0-.23h0v.19s.07,0,.06-.06Z" style="fill: #f7bad5"/>
              <path d="M45.28,64.75a.1.1,0,0,1,.07.14s0,0,0,0l0,0Z" style="fill: #f7bad5"/>
            </g>
            <g>
              <path d="M44.93,65.25H45s0,.06,0,.09,0,.06,0,.09h-.06v-.08h-.07v.08h-.07a.19.19,0,0,0,0-.18h.07v.08h.06S45,65.28,44.93,65.25Z" style="fill: #f7bad5"/>
              <path d="M45.5,65.25h.07v.08h0l.07,0v0h0l-.08.07.09.11h-.08s0-.06,0-.08h0v.08H45.5A.23.23,0,0,0,45.5,65.25Z" style="fill: #f7bad5"/>
              <path d="M46.62,65.43h0a.27.27,0,0,0,0-.09,0,0,0,0,0,0,0l0,0v.09h0a.27.27,0,0,0,0-.09,0,0,0,0,0,0,0s0,0,0,0v.09h0V65.3h0s0,0,.06,0h0s0,0,0,0v0A.08.08,0,0,0,46.62,65.43Z" style="fill: #f7bad5"/>
              <path d="M46,65.39s0,0,0-.06a.06.06,0,0,1,.06,0h.05s0,0,0,0,0,0,0,0h0l0,0a.1.1,0,0,1,0,0,.14.14,0,0,1-.09,0,0,0,0,0,1,0,0S46,65.4,46,65.39Zm0,0,0,0s0,0,0,0,0,0,0,0h0Zm0,.1h0l0,0h.07Z" style="fill: #f7bad5"/>
              <path d="M45.32,65.38s0,0,0,0a.07.07,0,0,1,.06,0h0v0s0,0,0,0h0l0,0s0,0,0,0h-.09a0,0,0,0,1,0,0S45.31,65.41,45.32,65.38Zm0,0h0l0,0s0,0,0,0v0s0,0,0,0,0,0,0,0Zm0,.09h0l0,0h.07Z" style="fill: #f7bad5"/>
              <path d="M47.19,65.48h0v-.06s-.07,0-.08,0,0-.08,0-.08,0,0,0,0h0v.17Zm0-.12h0v0l0,0,0,0v0s0,0,0,0,0,0,0,0Z" style="fill: #f7bad5"/>
              <path d="M47,65.26v0l0,0,0,0h0s0,0,0,0l.05,0s0,0,0,.07a.06.06,0,0,1-.07,0h0v-.06s0,0,0,0l.05,0,0,0,0,0,0,0a.05.05,0,0,1,0-.09H47Z" style="fill: #f7bad5"/>
              <path d="M46.29,65.43h-.07s0,0,0,0v-.13s0,0,0,0v0h.15v0s0,0,0,0A.26.26,0,0,0,46.29,65.43Z" style="fill: #f7bad5"/>
              <path d="M47.33,65.43h0a0,0,0,0,0,0,0s-.05,0-.05,0v-.06s0,0,0,0h0v.1s0,0,0,0,0,0,0-.08h0Z" style="fill: #f7bad5"/>
              <path d="M45.16,65.3h.06s.05,0,.05,0v0s0,0,0,0h-.05v-.09s0,0,0,0,0,0,0,0a.25.25,0,0,0,0,.08h0Z" style="fill: #f7bad5"/>
              <path d="M45.84,65.43V65.3h.06s.05,0,.05,0v.09h0v-.09a0,0,0,0,1,0,0l0,0v.09Z" style="fill: #f7bad5"/>
              <path d="M47.47,65.42s0,0,0,0a0,0,0,0,1,0,0h0s0,0,0,0l0,0v0h0s0,0,0,0h0s0,0,0,0a.05.05,0,0,1,.05,0s0,0,0,0v.06S47.47,65.41,47.47,65.42Zm0,0h0s0,0,0,0h0Z" style="fill: #f7bad5"/>
              <path d="M45.81,65.37a.06.06,0,0,1-.05.06.05.05,0,0,1-.06-.06s0-.07.06-.07S45.81,65.33,45.81,65.37Zm0,0a0,0,0,0,0,0,0s0,0,0,0a0,0,0,0,0,0,0v.07l0,0s0,0,0,0S45.77,65.38,45.78,65.36Z" style="fill: #f7bad5"/>
              <path d="M45.14,65.37a.06.06,0,0,1-.06.06s-.06,0-.06-.07a.06.06,0,0,1,.06-.06A.07.07,0,0,1,45.14,65.37Zm0,0v0l0,0s0,0,0,0a.17.17,0,0,0,0,.07l0,0s0,0,0,0Z" style="fill: #f7bad5"/>
              <path d="M47.71,65.4s0,0-.07,0a.08.08,0,0,1,0-.08s0,0,0,0,.05,0,.05.06h-.07s0,0,0,0Zm0-.05,0,0,0,0Z" style="fill: #f7bad5"/>
              <path d="M46.74,65.36h-.07s0,0,0,0h0a.06.06,0,0,1-.06,0s0,0,0-.07,0-.06.06-.06S46.74,65.32,46.74,65.36Zm-.07,0h0v0Z" style="fill: #f7bad5"/>
              <path d="M46.83,65.35s0,0,0,0h0s0,0,0,0l0,0a0,0,0,0,1,0,0s0,0-.05,0h0v0l0,0s0,0,0,0v0l0,0a0,0,0,0,1,0-.05l0,0h0Z" style="fill: #f7bad5"/>
              <path d="M47.55,65.43h0V65.3h.09v0h0A.14.14,0,0,0,47.55,65.43Z" style="fill: #f7bad5"/>
              <path d="M46.39,65.31v.12h0v-.12Z" style="fill: #f7bad5"/>
              <path d="M46.41,65.27l0,0s0,0,0,0a0,0,0,0,1,0,0Z" style="fill: #f7bad5"/>
            </g>
          </g>
          <g>
            <line x1="39.14" y1="39.76" x2="39.07" y2="40.36" style="fill: none;stroke: #613667;stroke-miterlimit: 10;stroke-width: 0.102510286844676px"/>
            <line x1="38.66" y1="44.11" x2="38.6" y2="44.72" style="fill: none;stroke: #613667;stroke-miterlimit: 10;stroke-width: 0.102510286844676px"/>
          </g>
          <g>
            <line x1="39.09" y1="44.8" x2="39.04" y2="44.17" style="fill: none;stroke: #613667;stroke-miterlimit: 10;stroke-width: 0.102510286844676px"/>
            <line x1="38.7" y1="40.3" x2="38.64" y2="39.67" style="fill: none;stroke: #613667;stroke-miterlimit: 10;stroke-width: 0.102510286844676px"/>
          </g>
          <polygon points="39.05 40.6 38.97 42.25 38.77 42.23 39.05 40.6" style="fill: #f072a0"/>
          <polygon points="38.57 41.66 38.96 42.19 38.78 42.28 38.57 41.66" style="fill: #f072a0"/>
        </g>
        <g>
          <g>
            <polygon points="30.38 71.29 25.38 76.05 25.38 66.06 30.38 61.3 30.38 71.29" style="fill: #4fafa5"/>
            <polygon points="29.75 68.1 26.01 71.67 26.01 66.71 29.75 63.15 29.75 68.1" style="fill: #f7bad5"/>
            <polygon points="29.54 68.02 26.22 71.19 26.22 66.79 29.54 63.63 29.54 68.02" style="fill: #f072a0"/>
            <polygon points="25.38 76.05 18.64 82.49 18.64 72.49 25.38 66.06 25.38 76.05" style="fill: #613667"/>
            <polygon points="25.05 73.3 18.64 79.41 18.64 72.49 25.05 66.38 25.05 73.3" style="fill: #f7bad5"/>
            <line x1="18.66" y1="75.91" x2="25.04" y2="69.82" style="fill: none;stroke: #613667;stroke-miterlimit: 10;stroke-width: 0.158905808692424px"/>
            <line x1="21.84" y1="69.42" x2="21.84" y2="76.34" style="fill: #fff;stroke: #231f20;stroke-miterlimit: 10;stroke-width: 0.111276619748982px"/>
            <line x1="23.7" y1="67.64" x2="23.7" y2="74.56" style="fill: none;stroke: #613667;stroke-miterlimit: 10;stroke-width: 0.158905808692424px"/>
            <polygon points="25.05 76.38 18.84 82.29 18.84 79.79 25.05 73.87 25.05 76.38" style="fill: #f072a0"/>
            <polygon points="30.11 71.54 25.65 75.8 25.65 73.29 30.11 69.03 30.11 71.54" style="fill: #613667"/>
            <polygon points="25.27 74.05 18.64 80.37 18.64 79.39 25.27 73.07 25.27 74.05" style="fill: #b189bd;stroke: #613667;stroke-miterlimit: 10;stroke-width: 0.191786733212814px"/>
            <polygon points="26.01 72.36 25.41 72.93 25.41 66.03 26.01 65.46 26.01 72.36" style="fill: #f7bad5;stroke: #613667;stroke-miterlimit: 10;stroke-width: 0.115072039927688px"/>
            <polygon points="30.35 68.22 29.75 68.79 29.75 61.89 30.35 61.32 30.35 68.22" style="fill: #f7bad5;stroke: #613667;stroke-miterlimit: 10;stroke-width: 0.115072039927688px"/>
            <polygon points="21.97 79.31 21.74 79.53 21.74 77.41 21.97 77.19 21.97 79.31" style="fill: #231f20"/>
            <polygon points="23.81 77.55 23.59 77.77 23.59 75.65 23.81 75.43 23.81 77.55" style="fill: #613667"/>
            <g>
              <polygon points="26.32 75.16 25.82 75.64 25.82 73.52 26.32 73.04 26.32 75.16" style="fill: #f072a0"/>
              <polygon points="27.04 74.47 26.54 74.94 26.54 72.83 27.04 72.35 27.04 74.47" style="fill: #f072a0"/>
              <polygon points="27.77 73.78 27.27 74.25 27.27 72.14 27.77 71.66 27.77 73.78" style="fill: #f072a0"/>
              <polygon points="28.49 73.09 27.99 73.56 27.99 71.44 28.49 70.97 28.49 73.09" style="fill: #f072a0"/>
              <polygon points="29.21 72.4 28.72 72.87 28.72 70.75 29.21 70.28 29.21 72.4" style="fill: #f072a0"/>
              <polygon points="29.94 71.71 29.44 72.18 29.44 70.06 29.94 69.59 29.94 71.71" style="fill: #f072a0"/>
            </g>
            <polygon points="20.12 81.07 19.89 81.29 19.89 79.17 20.12 78.95 20.12 81.07" style="fill: #231f20"/>
          </g>
          <line x1="20.01" y1="71.22" x2="20.01" y2="78.14" style="fill: #fff;stroke: #231f20;stroke-miterlimit: 10;stroke-width: 0.111276619748982px"/>
          <rect x="8.38" y="58.36" width="10" height="10" style="fill: #fff"/>
          <rect x="8.68" y="72.49" width="10" height="10" style="fill: #613667"/>
          <rect x="9.53" y="72.47" width="8.3" height="6.92" style="fill: #f7bad5"/>
          <rect x="9.53" y="79.98" width="8.3" height="2.51" style="fill: #f072a0"/>
          <rect x="9.11" y="79.39" width="8.72" height="0.97" style="fill: #b189bd;stroke: #613667;stroke-miterlimit: 10;stroke-width: 0.191786733212814px"/>
          <g id="T5vVCF">
            <g>
              <path d="M15.46,67.35c-.45-.19-.63-.43-.6-.85a.69.69,0,0,1,.68-.67.68.68,0,0,1,.68.66c0,.46-.15.7-.64.86Zm.41-.75a.8.8,0,0,0-.1-.43.24.24,0,0,0-.45,0,.8.8,0,0,0,0,.82.25.25,0,0,0,.47,0A.76.76,0,0,0,15.87,66.6Z" style="fill: #4fafa5"/>
              <path d="M13.39,59.36a3.11,3.11,0,1,1-3.11,3A3.07,3.07,0,0,1,13.39,59.36ZM11,62.47a2.47,2.47,0,0,0,.62,1.62c.08.1.12.09.19,0,.36-.51.72-1,1.09-1.51a.17.17,0,0,0,0-.23l-1.07-1.47c-.1-.14-.12-.14-.24,0A2.4,2.4,0,0,0,11,62.47Zm4.84.17a2.55,2.55,0,0,0-.6-1.77c-.07-.09-.13-.14-.22,0L13.9,62.36a.16.16,0,0,0,0,.22L15,64.05c.08.11.13.13.22,0A2.41,2.41,0,0,0,15.8,62.64ZM15,60.71a2.33,2.33,0,0,0-3.26,0Zm-3.24,3.52a2.26,2.26,0,0,0,2.08.61A1.86,1.86,0,0,0,15,64.23Zm1.62-2.81c-.09,0-.22,0-.26,0s.07.15.12.23.14.18.27,0,.16-.14.12-.22S13.48,61.44,13.39,61.42Zm.29,2.08-.07-.12c-.28-.36-.17-.37-.47,0,0,.05-.05.1,0,.1Z" style="fill: #4fafa5"/>
              <path d="M10.51,67c0-.07,0-.13,0-.19s0-.1.09-.11.09,0,.11.09a.45.45,0,0,0,.35.29.23.23,0,0,0,.29-.14c0-.15-.06-.21-.17-.25s-.27-.08-.39-.13a.39.39,0,0,1-.27-.44.39.39,0,0,1,.41-.32.74.74,0,0,1,.33,0,.26.26,0,0,0,.29,0c.07,0,.13,0,.13.09a2.44,2.44,0,0,1,0,.27c0,.06,0,.12-.09.13s-.09,0-.12-.08a.42.42,0,0,0-.44-.24c-.09,0-.17,0-.19.13s.05.15.13.18.27.08.39.13a.45.45,0,0,1,.32.52.45.45,0,0,1-.49.33.57.57,0,0,1-.26,0c-.1,0-.19-.08-.29,0a.08.08,0,0,1-.13-.06A1.48,1.48,0,0,1,10.51,67Z" style="fill: #4fafa5"/>
              <path d="M12.56,67.32a.75.75,0,1,1,.7-.73A.7.7,0,0,1,12.56,67.32Zm-.31-.76a.74.74,0,0,0,.07.39.29.29,0,0,0,.25.18.27.27,0,0,0,.25-.19.86.86,0,0,0,0-.78.24.24,0,0,0-.44,0A.63.63,0,0,0,12.25,66.56Z" style="fill: #4fafa5"/>
              <path d="M14.58,66.16v.21a.09.09,0,0,1-.08.1c-.05,0-.08,0-.11-.07a1.45,1.45,0,0,0-.09-.22.25.25,0,0,0-.46,0,.92.92,0,0,0,0,.81.26.26,0,0,0,.39.09.21.21,0,0,0,0-.33s-.06-.06-.05-.11a.1.1,0,0,1,.11-.07,2.16,2.16,0,0,1,.36,0c.09,0,.14.1.06.15s-.14.22-.14.36a.71.71,0,0,1,0,.14c0,.06-.07.11-.12.07s-.19,0-.28,0a.55.55,0,0,1-.62-.21.92.92,0,0,1,0-1.07.56.56,0,0,1,.66-.15c.06,0,.11.06.18,0s.15,0,.16.09v.19Z" style="fill: #4fafa5"/>
            </g>
          </g>
          <rect x="19.8" y="70.43" width="3.02" height="14.62" rx="1.51" style="fill: #fff;stroke: #4fafa5;stroke-miterlimit: 10;stroke-width: 0.038357346642563px"/>
          <polygon points="22.27 67.26 18.37 68.35 18.37 58.36 22.27 57.26 22.27 67.26" style="fill: #f7bad5"/>
          <g>
            <path d="M19.71,59.17v.39l.48-.13a3.81,3.81,0,0,1-.86,1l.1.38.5-.36s0,.8.85.45l.08-.39s-.41.19-.5-.11.92-1,.92-1l-.07-.31-.75.41.4-.6-.17-.26A2,2,0,0,1,19.71,59.17Z" style="fill: #4fafa5"/>
            <path d="M19.85,61.76l-.21.42,1.14.14.35-.58S19.92,61.8,19.85,61.76Z" style="fill: #4fafa5"/>
            <polygon points="20.72 62.47 20.84 62.71 21.02 62.56 20.9 62.33 20.72 62.47" style="fill: #4fafa5"/>
            <polygon points="21.01 62.24 21.13 62.48 21.31 62.33 21.19 62.09 21.01 62.24" style="fill: #4fafa5"/>
            <path d="M19.45,63h.38s-.18.55.08.54a3.75,3.75,0,0,0,1.25-.62l.12.38a3.31,3.31,0,0,1-1.52.66C19,64,19.45,63,19.45,63Z" style="fill: #4fafa5"/>
            <path d="M19.9,64.53l-.14.42h.3a1.85,1.85,0,0,1,.62.07h.12l.29-.6A8.12,8.12,0,0,1,19.9,64.53Z" style="fill: #4fafa5"/>
            <path d="M19.59,65.57V66a9.37,9.37,0,0,1,.87-.41c.15,0,.29-.14.28.25s-.29.5-.8.61v.42s1-.15,1.15-.85,0-1.12-.34-.89C20.64,65.22,19.59,65.57,19.59,65.57Z" style="fill: #4fafa5"/>
          </g>
          <g>
            <polygon points="25.33 54.44 30.1 49.98 30.1 59.84 25.33 64.31 25.33 54.44" style="fill: #f072a0"/>
            <path d="M30.05,50.11v9.68l-4.66,4.38V54.49l4.66-4.38m.11-.26-4.89,4.59v10l4.89-4.6v-10Z" style="fill: #4fafa5"/>
          </g>
          <g>
            <path d="M29,57.5c-.29-.11-.4-.52-.38-1.41a3.26,3.26,0,0,1,.43-1.82c.23-.23.41.19.43,1a4.48,4.48,0,0,1-.4,2.17Zm.25-1.81a4.26,4.26,0,0,0-.05-.84c-.08-.35-.22-.24-.29.24a5.05,5.05,0,0,0,0,1.74c.07.37.23.18.29-.33A4.46,4.46,0,0,0,29.29,55.69Z" style="fill: #fff"/>
            <path d="M25.92,59.78c0-.16,0-.28,0-.4a.62.62,0,0,1,.05-.3s.07,0,.08.12c0,.31.11.42.21.4s.17-.21.19-.46,0-.41-.11-.43a1.07,1.07,0,0,1-.25,0c-.13-.06-.19-.36-.17-.78a1.67,1.67,0,0,1,.26-.91c.07-.08.14-.15.21-.13s.12.06.18-.17.08,0,.09.12,0,.37,0,.56a.72.72,0,0,1-.05.32c-.05.07-.06,0-.08-.11-.06-.3-.15-.39-.28-.24a.7.7,0,0,0-.12.39c0,.24,0,.29.09.31a2,2,0,0,1,.24,0c.16.07.23.4.2.89a1.65,1.65,0,0,1-.3,1c-.06.06-.12.12-.17.08s-.12-.06-.18.17-.08.08-.09-.05S25.92,59.89,25.92,59.78Z" style="fill: #fff"/>
            <path d="M27.21,59.17c-.24.23-.43-.29-.43-1.16a3.6,3.6,0,0,1,.43-2c.25-.23.44.29.44,1.19A3.36,3.36,0,0,1,27.21,59.17Zm-.2-1.4a5.82,5.82,0,0,0,0,.76c0,.19.09.3.16.23a1,1,0,0,0,.16-.54,5.46,5.46,0,0,0,0-1.63c-.07-.33-.21-.19-.28.27A5.64,5.64,0,0,0,27,57.77Z" style="fill: #fff"/>
            <path d="M28.48,55.54V56a.62.62,0,0,1,0,.26c0,.05-.06,0-.07-.09s0-.28-.06-.4c-.07-.36-.22-.24-.29.26a5.61,5.61,0,0,0,0,1.69c0,.29.16.24.24,0a1.19,1.19,0,0,0,0-.7.33.33,0,0,1,0-.19.3.3,0,0,1,.06-.22,2.09,2.09,0,0,1,.23-.21c.06,0,.09.12,0,.28a2.58,2.58,0,0,0-.09.83v.3c0,.15-.05.28-.08.24s-.12.08-.18.19c-.15.3-.28.27-.39-.07a5.93,5.93,0,0,1,0-2.26c.11-.5.26-.78.42-.72s.07.08.11-.08.1-.12.1.1,0,.26,0,.4Z" style="fill: #fff"/>
          </g>
          <polygon points="25.27 64.44 22.27 67.26 22.27 57.26 25.27 54.44 25.27 64.44" style="fill: #f072a0"/>
          <path d="M23.78,56.86c.5-.51.93.5.93,2.26s-.42,3.49-.95,4-.92-.41-.92-2.33C22.85,59,23.29,57.27,23.78,56.86Zm-.73,3.79a4.43,4.43,0,0,0,.19,1.45c0,.07,0,0,.05-.07l.33-1.81a.44.44,0,0,0,0-.23c-.11-.39-.21-.78-.32-1.16,0-.12,0-.11-.07.06A8.33,8.33,0,0,0,23.05,60.65Zm1.45-1.19a5.3,5.3,0,0,0-.18-1.61c0-.07,0-.1-.06.06l-.33,1.79a.4.4,0,0,0,0,.22c.11.39.22.78.32,1.18,0,.09,0,.09.07,0A8.71,8.71,0,0,0,24.5,59.46Zm-.23-1.72c-.26-.68-.76-.12-1,.92Zm-1,4.44c.18.4.39.38.63,0a3,3,0,0,0,.33-.93Zm.49-3.27c0,.05-.07,0-.08.1a.37.37,0,0,0,0,.2c0,.14,0,.14.08-.08a1.3,1.3,0,0,0,0-.26C23.84,58.81,23.81,58.9,23.78,58.91Zm.09,2s0-.08,0-.1c-.08-.28-.05-.33-.14.15,0,.07,0,.11,0,.09Z" style="fill: #fff"/>
          <g>
            <path d="M23.42,64.88a3.4,3.4,0,0,1-.1.33.35.35,0,0,0-.05-.08,1.57,1.57,0,0,0,.1-.26Zm.09-.22v.42l-.06,0v-.42l-.17.17v-.16l.41-.38v.15Zm-.17-.13-.06,0v-.29l.17-.16s0,0,0-.08l0-.07-.18.18v-.31l.06-.06v.15l.09-.09v-.2l.06,0v.2l.1-.1v-.15l.06,0v.3L23.5,64s0,.07,0,.1l.18-.16v.29l-.06,0v-.14l-.29.27Zm0,0v-.14l.25-.24v.14Zm.23.06a.58.58,0,0,1,.1.12l-.05.16-.09-.14Z" style="fill: #fff"/>
            <path d="M24.21,64.22a.59.59,0,0,0,0-.17,0,0,0,0,0,.05,0c0,.21,0,.28-.07.32l-.06.06s-.06,0-.06-.18v-.46l-.07.06a2.2,2.2,0,0,1-.15.88.5.5,0,0,0,0-.13,1.42,1.42,0,0,0,.13-.69l-.11.11v-.19l.18-.17v-.57l.06-.06v.58l.18-.17v.18l-.13.12v.45c0,.06,0,.06,0,.05Zm-.27-.52a2.61,2.61,0,0,0-.06-.27l0-.13a1.11,1.11,0,0,1,.07.26Zm.31-.62c0,.14-.06.3-.08.41l-.05,0,.07-.41Z" style="fill: #fff"/>
          </g>
          <polygon points="21.39 72.51 5.37 72.51 7.13 69.74 19.62 69.74 21.39 72.51" style="fill: #fff"/>
          <line x1="5.78" y1="71.87" x2="21.02" y2="71.87" style="fill: #fff;stroke: #613667;stroke-miterlimit: 10;stroke-width: 0.191786733212814px"/>
          <polygon points="8.38 58.36 18.37 49.85 30.16 49.85 25.27 54.44 22.27 57.26 18.37 58.36 8.38 58.36" style="fill: #4fafa5"/>
          <polygon points="7.13 69.74 8.38 68.35 18.37 68.35 18.37 69.74 7.13 69.74" style="fill: #f7bad5"/>
          <polygon points="18.37 68.35 22.27 67.26 23.99 68.35 19.62 69.74 18.37 69.74 18.37 68.35" style="fill: #f072a0"/>
          <polygon points="23.99 68.35 32.73 59.87 30.16 59.84 22.27 67.26 23.99 68.35" style="fill: #b189bd"/>
          <polygon points="19.62 69.74 23.99 68.35 25.41 70.85 21.39 72.51 19.62 69.74" style="fill: #f7bad5"/>
          <polygon points="23.99 68.35 32.73 59.87 34.2 61.44 25.41 70.85 23.99 68.35" style="fill: #fff"/>
          <polyline points="20.98 71.87 25.04 70.16 33.72 60.92" style="fill: none;stroke: #613667;stroke-miterlimit: 10;stroke-width: 0.191786733212814px"/>
          <line x1="9.53" y1="75.93" x2="17.83" y2="75.93" style="fill: none;stroke: #613667;stroke-miterlimit: 10;stroke-width: 0.158905808692424px"/>
          <g>
            <line x1="12.11" y1="72.47" x2="12.11" y2="79.39" style="fill: none;stroke: #613667;stroke-miterlimit: 10;stroke-width: 0.158905808692424px"/>
            <line x1="15.25" y1="72.47" x2="15.25" y2="79.39" style="fill: none;stroke: #613667;stroke-miterlimit: 10;stroke-width: 0.158905808692424px"/>
          </g>
          <rect x="11.88" y="80.37" width="0.46" height="2.12" style="fill: #613667"/>
          <rect x="15.02" y="80.37" width="0.46" height="2.12" style="fill: #613667"/>
        </g>
        <g>
          <polygon points="71.43 96.08 33.48 96.08 47.84 79.57 85.8 79.57 71.43 96.08" style="fill: #4fafa5"/>
          <rect x="54.14" y="69.93" width="9.76" height="12.92" style="fill: #f7bad5"/>
          <rect x="54.83" y="71.51" width="8.4" height="10.44" style="fill: #613667"/>
          <ellipse cx="59" cy="83.56" rx="1.54" ry="0.45" style="fill: #fff;stroke: #231f20;stroke-miterlimit: 10;stroke-width: 0.075102611762551px"/>
          <polygon points="63.23 81.95 54.83 81.95 57.69 80.13 63.23 80.13 63.23 81.95" style="fill: #f072a0"/>
          <g>
            <rect x="58.4" y="74.2" width="2.76" height="4.75" style="fill: #fff"/>
            <g>
              <path d="M59.78,81.5c-1.51,0-3-.38-3-1.11A2.66,2.66,0,0,1,58,78.16c.08,0,.12-.24.19-.63.16-.86.42-2.31,1.55-2.31s1.39,1.45,1.55,2.31c.07.39.1.58.18.63a2.67,2.67,0,0,1,1.3,2.23C62.81,81.12,61.28,81.5,59.78,81.5Z" style="fill: #fff"/>
              <path d="M59.78,75.25c1.09,0,1.35,1.43,1.51,2.29.07.41.11.59.2.65a2.64,2.64,0,0,1,1.28,2.2c0,.71-1.51,1.08-3,1.08s-3-.37-3-1.08a2.64,2.64,0,0,1,1.28-2.2c.09-.06.13-.24.21-.65.15-.86.41-2.29,1.51-2.29m0-.07c-1.6,0-1.51,2.79-1.76,2.95a2.7,2.7,0,0,0-1.31,2.26c0,.77,1.53,1.15,3.07,1.15s3.06-.38,3.06-1.15a2.7,2.7,0,0,0-1.31-2.26c-.25-.16-.16-2.95-1.75-2.95Z" style="fill: #f072a0"/>
            </g>
            <g>
              <path d="M59.78,76.06a2.19,2.19,0,0,0-.68-.68l1.39.07A1.11,1.11,0,0,0,59.78,76.06Z" style="fill: #fff"/>
              <path d="M60.2,75.48a1.26,1.26,0,0,0-.42.49,1.66,1.66,0,0,0-.47-.48h.89m.29-.07H59.08s.7.44.7.81a1.12,1.12,0,0,1,.71-.81Z" style="fill: #f072a0"/>
            </g>
            <g>
              <path d="M58.4,74.2c0-.77,0-2.69,1.38-2.69s1.38,1.92,1.38,2.69" style="fill: #fff;stroke: #f072a0;stroke-miterlimit: 10;stroke-width: 0.075102611762551px"/>
              <circle cx="59.78" cy="74.2" r="1.38" style="fill: #f7bad5"/>
              <circle cx="59.78" cy="73.26" r="0.16" style="fill: #613667"/>
            </g>
            <path d="M60.83,75.9A4.76,4.76,0,0,0,60.49,78c0,1.46-.88.55-.88.55l.17,3S62.61,80.82,60.83,75.9Z" style="fill: #fff;stroke: #f072a0;stroke-miterlimit: 10;stroke-width: 0.075102611762551px"/>
            <path d="M59.31,76.09v2.65S59,81.2,58.4,80.48C58.4,80.48,56.5,78.66,59.31,76.09Z" style="fill: #fff;stroke: #f072a0;stroke-miterlimit: 10;stroke-width: 0.075102611762551px"/>
            <path d="M59.31,77.2V76.08a.18.18,0,0,1,.19-.19h.09a.18.18,0,0,1,.19.19Z" style="fill: #f7bad5"/>
          </g>
          <polygon points="66.55 67.74 66.55 80.16 63.91 82.85 63.91 69.93 66.55 67.74" style="fill: #b189bd"/>
          <g>
            <g>
              <path d="M62.16,83.63c0,.56-1.56,1-3.49,1s-3.49-.46-3.49-1v-.39a7.83,7.83,0,0,1,3.49-.62,7.86,7.86,0,0,1,3.49.62Z" style="fill: #b189bd"/>
              <ellipse cx="58.67" cy="83.3" rx="3.49" ry="1.01" style="fill: #613667"/>
            </g>
            <g>
              <ellipse cx="57.58" cy="82.76" rx="1.35" ry="1.01" style="fill: #f072a0;stroke: #fff;stroke-miterlimit: 10;stroke-width: 0.075102611762551px"/>
              <ellipse cx="59.8" cy="82.76" rx="1.35" ry="1.01" style="fill: #f7bad5;stroke: #f072a0;stroke-miterlimit: 10;stroke-width: 0.075102611762551px"/>
              <ellipse cx="58.62" cy="81.14" rx="1.35" ry="1.01" style="fill: #f7bad5"/>
            </g>
          </g>
          <g>
            <polygon points="74.75 77.95 74.75 80.41 72.11 83.1 72.11 80.14 74.75 77.95" style="fill: #b189bd"/>
            <rect x="64.65" y="80.14" width="7.45" height="2.79" style="fill: #f072a0"/>
            <polygon points="64.65 80.14 66.83 77.95 74.75 77.95 72.11 80.14 64.65 80.14" style="fill: #fff"/>
            <rect x="66.83" y="70.51" width="7.92" height="7.44" style="fill: #fff;stroke: #231f20;stroke-miterlimit: 10;stroke-width: 0.075102611762551px"/>
            <polygon points="66.83 70.51 66.48 70.93 74.35 70.93 74.75 70.51 66.83 70.51" style="fill: #fff"/>
            <rect x="66.48" y="70.93" width="7.84" height="7.38" style="fill: #fff"/>
            <polygon points="74.32 70.93 74.32 78.3 74.75 77.95 74.75 70.51 74.32 70.93" style="fill: #b189bd"/>
          </g>
          <rect x="67.16" y="71.51" width="6.61" height="6.85" style="fill: #f072a0"/>
          <g>
            <path d="M68.94,79.54a1.37,1.37,0,0,1-1.35-1.36V76.67c0-2.81,1-5.09,2.16-5.09s2.16,2.28,2.16,5.09V78.2a1.36,1.36,0,0,1-1.39,1.37Z" style="fill: #4fafa5"/>
            <g>
              <path d="M69.75,71.74A1.28,1.28,0,0,1,68.6,71a1.26,1.26,0,0,1-.07-1,1.23,1.23,0,0,1,.64-.74,1.18,1.18,0,0,1,.58-.14,1.29,1.29,0,0,1,1.16.71,1.31,1.31,0,0,1,.07,1,1.25,1.25,0,0,1-.65.74A1.18,1.18,0,0,1,69.75,71.74Z" style="fill: #f7bad5"/>
              <path d="M69.75,69.2a1.25,1.25,0,0,1,.56,2.37,1.18,1.18,0,0,1-.56.13A1.23,1.23,0,0,1,68.63,71a1.25,1.25,0,0,1,.56-1.68,1.21,1.21,0,0,1,.56-.13m0-.08a1.38,1.38,0,0,0-.59.14,1.33,1.33,0,0,0-.6,1.79,1.35,1.35,0,0,0,1.19.73,1.42,1.42,0,0,0,.6-.14,1.33,1.33,0,0,0-.6-2.52Z" style="fill: #fff"/>
            </g>
            <path d="M69.75,70.45a4.12,4.12,0,0,0-.86,1.94,1.75,1.75,0,0,1,0-.56,2.7,2.7,0,0,1,.14-.56A1.53,1.53,0,0,1,69.75,70.45Z" style="fill: #613667"/>
            <path d="M69.81,70.45a1.53,1.53,0,0,1,.76.82,2.17,2.17,0,0,1,.13.56,1.75,1.75,0,0,1,0,.56A4.12,4.12,0,0,0,69.81,70.45Z" style="fill: #613667"/>
            <path d="M69.32,71.6a7.11,7.11,0,0,0,.49,3.16,7.62,7.62,0,0,0,.54-3.12S69.75,70.81,69.32,71.6Z" style="fill: #613667"/>
            <rect x="68.46" y="68.09" width="2.57" height="1.56" style="fill: #4fafa5"/>
            <path d="M67.69,75.18a4.81,4.81,0,0,0,4.13,0" style="fill: #613667"/>
            <g>
              <path d="M68.48,72.56S66.63,73.81,67,77h1.46Z" style="fill: #4fafa5;stroke: #613667;stroke-miterlimit: 10;stroke-width: 0.075102611762551px"/>
              <polygon points="68.47 77.9 67.03 79.12 67.03 76.98 68.47 75.41 68.47 77.9" style="fill: #613667"/>
            </g>
            <g>
              <path d="M71.06,72.56s1.85,1.25,1.46,4.42H71.06Z" style="fill: #4fafa5;stroke: #613667;stroke-miterlimit: 10;stroke-width: 0.075102611762551px"/>
              <polygon points="71.06 77.95 72.52 79.17 72.52 76.98 71.06 75.45 71.06 77.95" style="fill: #613667"/>
            </g>
          </g>
          <g>
            <g>
              <path d="M67.07,81.05v3.76c0,.44,1.18.8,2.63.8s2.62-.36,2.62-.8V81.05Z" style="fill: #f7bad5"/>
              <ellipse cx="69.7" cy="81.05" rx="2.63" ry="0.8" style="fill: #fff"/>
              <ellipse cx="69.7" cy="80.95" rx="2.17" ry="0.59" style="fill: #613667"/>
            </g>
            <g>
              <rect x="69.56" y="76" width="0.27" height="4.12" rx="0.12" style="fill: #b189bd;stroke: #613667;stroke-miterlimit: 10;stroke-width: 0.075102611762551px"/>
              <line x1="69.7" y1="80.12" x2="69.7" y2="81.25" style="fill: none;stroke: #f7bad5;stroke-miterlimit: 10;stroke-width: 0.075102611762551px"/>
            </g>
            <g>
              <rect x="68.95" y="76" width="0.27" height="4.12" rx="0.12" style="fill: #b189bd;stroke: #613667;stroke-miterlimit: 10;stroke-width: 0.075102611762551px"/>
              <line x1="69.08" y1="80.12" x2="69.08" y2="81.25" style="fill: none;stroke: #f7bad5;stroke-miterlimit: 10;stroke-width: 0.075102611762551px"/>
            </g>
            <g>
              <rect x="68.19" y="73.84" width="0.39" height="5.82" rx="0.16" style="fill: #f072a0;stroke: #f7bad5;stroke-miterlimit: 10;stroke-width: 0.075102611762551px"/>
              <line x1="68.38" y1="79.66" x2="68.38" y2="81.25" style="fill: none;stroke: #f7bad5;stroke-miterlimit: 10;stroke-width: 0.075102611762551px"/>
            </g>
            <g>
              <rect x="70.98" y="73.84" width="0.39" height="5.82" rx="0.16" style="fill: #f072a0;stroke: #f7bad5;stroke-miterlimit: 10;stroke-width: 0.075102611762551px"/>
              <line x1="71.17" y1="79.66" x2="71.17" y2="81.25" style="fill: none;stroke: #f7bad5;stroke-miterlimit: 10;stroke-width: 0.075102611762551px"/>
            </g>
            <g>
              <rect x="70.27" y="76" width="0.27" height="4.12" rx="0.12" style="fill: #b189bd;stroke: #613667;stroke-miterlimit: 10;stroke-width: 0.075102611762551px"/>
              <line x1="70.41" y1="80.12" x2="70.41" y2="81.25" style="fill: none;stroke: #f7bad5;stroke-miterlimit: 10;stroke-width: 0.075102611762551px"/>
            </g>
          </g>
          <g>
            <g>
              <path d="M53.32,78.35l-.26.09-.26.08a10.34,10.34,0,0,1-1,.24,13.34,13.34,0,0,1-2.08.16,14.46,14.46,0,0,1-2.08-.16c-.35-.06-.7-.13-1.05-.22L46,78.39c-.17-.06-.34-.12-.52-.2l0,.07a2.88,2.88,0,0,0,0,3.88h0a4.24,4.24,0,0,1,.52-.2l.52-.16a9.75,9.75,0,0,1,1.05-.21,13.16,13.16,0,0,1,2.08-.16,12.22,12.22,0,0,1,2.08.16,10.34,10.34,0,0,1,1,.24l.26.07a2,2,0,0,0,.26.09c.17.07.34.14.52.23V78.13A4.48,4.48,0,0,1,53.32,78.35Z" style="fill: #fff"/>
              <ellipse cx="53.84" cy="80.21" rx="0.64" ry="2.08" style="fill: #f072a0"/>
              <path d="M54.46,79.77s-.25-1-.62-.86c-.19.09-.33.7-.36,1.34s.07,1.3.36,1.49c0,0,.42.07.25-1.52l-.61,0" style="fill: none;stroke: #fff;stroke-miterlimit: 10;stroke-width: 0.075102611762551px"/>
            </g>
            <path d="M50,81.3A2.57,2.57,0,0,1,50,79a.21.21,0,0,0-.37-.19,3,3,0,0,0,0,2.7.21.21,0,0,0,.18.09.19.19,0,0,0,.1,0A.2.2,0,0,0,50,81.3Z" style="fill: #f072a0"/>
          </g>
          <g>
            <g>
              <path d="M50.31,84.39a15.17,15.17,0,0,1-9.3-.52,16.63,16.63,0,0,0,4.77-1.39,14.47,14.47,0,0,0,7.18-1A9.81,9.81,0,0,1,50.31,84.39Z" style="fill: #f7bad5;stroke: #f072a0;stroke-miterlimit: 10;stroke-width: 0.075102611762551px"/>
              <path d="M50.31,84.39a15.17,15.17,0,0,1-9.3-.52,16.63,16.63,0,0,0,4.77-1.39,14.47,14.47,0,0,0,7.18-1A9.81,9.81,0,0,1,50.31,84.39Z" style="fill: #f7bad5;stroke: #f072a0;stroke-miterlimit: 10;stroke-width: 0.075102611762551px"/>
            </g>
            <g>
              <path d="M50.24,84.08a14.75,14.75,0,0,1-9.36-.71,14,14,0,0,0,4.9-1.3,13.63,13.63,0,0,0,6.8-.92A7,7,0,0,1,50.24,84.08Z" style="fill: #f7bad5;stroke: #f072a0;stroke-miterlimit: 10;stroke-width: 0.075102611762551px"/>
              <path d="M50.24,84.08a14.75,14.75,0,0,1-9.36-.71,14,14,0,0,0,4.9-1.3,13.63,13.63,0,0,0,6.8-.92A7,7,0,0,1,50.24,84.08Z" style="fill: #f7bad5;stroke: #f072a0;stroke-miterlimit: 10;stroke-width: 0.075102611762551px"/>
            </g>
            <g>
              <path d="M50.18,83.78c-3.22.66-6.79.51-9.43-.92a12.54,12.54,0,0,0,5-1.19,12.69,12.69,0,0,0,6.44-.83A5.28,5.28,0,0,1,50.18,83.78Z" style="fill: #f7bad5;stroke: #f072a0;stroke-miterlimit: 10;stroke-width: 0.075102611762551px"/>
              <path d="M50.18,83.78c-3.22.66-6.79.51-9.43-.92a12.54,12.54,0,0,0,5-1.19,12.69,12.69,0,0,0,6.44-.83A5.28,5.28,0,0,1,50.18,83.78Z" style="fill: #f7bad5;stroke: #f072a0;stroke-miterlimit: 10;stroke-width: 0.075102611762551px"/>
            </g>
            <g>
              <path d="M50.12,83.48c-3.26.62-6.87.4-9.48-1.14a11.44,11.44,0,0,0,5.14-1.08,12,12,0,0,0,6.09-.73A4.22,4.22,0,0,1,50.12,83.48Z" style="fill: #f7bad5;stroke: #f072a0;stroke-miterlimit: 10;stroke-width: 0.075102611762551px"/>
              <path d="M50.12,83.48c-3.26.62-6.87.4-9.48-1.14a11.44,11.44,0,0,0,5.14-1.08,12,12,0,0,0,6.09-.73A4.22,4.22,0,0,1,50.12,83.48Z" style="fill: #f7bad5;stroke: #f072a0;stroke-miterlimit: 10;stroke-width: 0.075102611762551px"/>
            </g>
            <g>
              <path d="M50.05,83.17c-3.29.59-6.94.3-9.51-1.36a10.42,10.42,0,0,0,5.25-1,10.87,10.87,0,0,0,5.73-.63A3.4,3.4,0,0,1,50.05,83.17Z" style="fill: #f7bad5;stroke: #f072a0;stroke-miterlimit: 10;stroke-width: 0.075102611762551px"/>
              <path d="M50.05,83.17c-3.29.59-6.94.3-9.51-1.36a10.42,10.42,0,0,0,5.25-1,10.87,10.87,0,0,0,5.73-.63A3.4,3.4,0,0,1,50.05,83.17Z" style="fill: #f7bad5;stroke: #f072a0;stroke-miterlimit: 10;stroke-width: 0.075102611762551px"/>
            </g>
          </g>
          <g>
            <g>
              <path d="M44,88.52l-.16.84a.08.08,0,0,0,.14.06l.73-.9Z" style="fill: #613667"/>
              <path d="M46,88.52l-1.19.31a.86.86,0,0,1-.9-.31h0l2.24-2.72.63-.31a1.18,1.18,0,0,1,1.47.31h0Z" style="fill: #fff"/>
              <path d="M46.62,89.11l-.55-.6.84-1,.65.84a.62.62,0,0,1,0,.73h0A.62.62,0,0,1,46.62,89.11Z" style="fill: #f7bad5"/>
              <path d="M47.9,87.27l-.44-.43.83-1,.52.62a.62.62,0,0,1,0,.77h0A.63.63,0,0,1,47.9,87.27Z" style="fill: #f7bad5"/>
              <g>
                <path d="M44.54,88.14a1.69,1.69,0,0,1,1.53,0" style="fill: none;stroke: #f072a0;stroke-miterlimit: 10;stroke-width: 0.075102611762551px"/>
                <path d="M44.93,87.64a1.68,1.68,0,0,1,1.54,0" style="fill: none;stroke: #f072a0;stroke-miterlimit: 10;stroke-width: 0.075102611762551px"/>
                <path d="M45.32,87.13a1.71,1.71,0,0,1,1.54,0" style="fill: none;stroke: #f072a0;stroke-miterlimit: 10;stroke-width: 0.075102611762551px"/>
                <path d="M45.72,86.62a1.71,1.71,0,0,1,1.54,0" style="fill: none;stroke: #f072a0;stroke-miterlimit: 10;stroke-width: 0.075102611762551px"/>
                <path d="M46.11,86.12a1.68,1.68,0,0,1,1.54,0" style="fill: none;stroke: #f072a0;stroke-miterlimit: 10;stroke-width: 0.075102611762551px"/>
              </g>
              <line x1="45.13" y1="88.05" x2="46.88" y2="85.93" style="fill: none;stroke: #f072a0;stroke-miterlimit: 10;stroke-width: 0.075102611762551px"/>
              <path d="M46.31,88.24a1.31,1.31,0,0,0,.82.71.2.2,0,0,0,.15,0c.11,0,.1-.2,0-.31a2.07,2.07,0,0,0-.63-.86" style="fill: none;stroke: #f072a0;stroke-miterlimit: 10;stroke-width: 0.075102611762551px"/>
              <path d="M47.7,86.5a1.32,1.32,0,0,0,.44.44.34.34,0,0,0,.22.07c.14,0,.25-.16.25-.31a.6.6,0,0,0-.19-.39c-.11-.1-.23-.19-.33-.3" style="fill: none;stroke: #f072a0;stroke-miterlimit: 10;stroke-width: 0.075102611762551px"/>
            </g>
            <g>
              <path d="M48.87,88.52l-.15.84a.08.08,0,0,0,.14.06l.73-.9Z" style="fill: #613667"/>
              <path d="M51,88.52l-1.2.31a.87.87,0,0,1-.9-.31h0l2.25-2.72.63-.31a1.19,1.19,0,0,1,1.47.31h0Z" style="fill: #fff"/>
              <path d="M51.55,89.11l-.55-.6.83-1,.65.84a.6.6,0,0,1,0,.73h0A.62.62,0,0,1,51.55,89.11Z" style="fill: #f7bad5"/>
              <path d="M52.82,87.27l-.44-.43.84-1,.52.62a.64.64,0,0,1,0,.77h0A.64.64,0,0,1,52.82,87.27Z" style="fill: #f7bad5"/>
              <g>
                <path d="M49.46,88.14a1.71,1.71,0,0,1,1.54,0" style="fill: none;stroke: #f072a0;stroke-miterlimit: 10;stroke-width: 0.075102611762551px"/>
                <path d="M49.86,87.64a1.66,1.66,0,0,1,1.53,0" style="fill: none;stroke: #f072a0;stroke-miterlimit: 10;stroke-width: 0.075102611762551px"/>
                <path d="M50.25,87.13a1.71,1.71,0,0,1,1.54,0" style="fill: none;stroke: #f072a0;stroke-miterlimit: 10;stroke-width: 0.075102611762551px"/>
                <path d="M50.64,86.62a1.71,1.71,0,0,1,1.54,0" style="fill: none;stroke: #f072a0;stroke-miterlimit: 10;stroke-width: 0.075102611762551px"/>
                <path d="M51,86.12a1.68,1.68,0,0,1,1.54,0" style="fill: none;stroke: #f072a0;stroke-miterlimit: 10;stroke-width: 0.075102611762551px"/>
              </g>
              <line x1="50.06" y1="88.05" x2="51.81" y2="85.93" style="fill: none;stroke: #f072a0;stroke-miterlimit: 10;stroke-width: 0.075102611762551px"/>
              <path d="M51.24,88.24a1.29,1.29,0,0,0,.82.71.2.2,0,0,0,.15,0c.11,0,.09-.2,0-.31a2.07,2.07,0,0,0-.63-.86" style="fill: none;stroke: #f072a0;stroke-miterlimit: 10;stroke-width: 0.075102611762551px"/>
              <path d="M52.63,86.5a1.39,1.39,0,0,0,.43.44.36.36,0,0,0,.22.07.3.3,0,0,0,.26-.31.62.62,0,0,0-.2-.39c-.1-.1-.22-.19-.32-.3" style="fill: none;stroke: #f072a0;stroke-miterlimit: 10;stroke-width: 0.075102611762551px"/>
            </g>
            <g>
              <path d="M53.8,88.52l-.15.84c0,.08.08.12.14.06l.72-.9Z" style="fill: #613667"/>
              <path d="M55.9,88.52l-1.2.31a.86.86,0,0,1-.9-.31h0l2.25-2.72.63-.31a1.17,1.17,0,0,1,1.46.31h0Z" style="fill: #fff"/>
              <path d="M56.47,89.11l-.54-.6.83-1,.65.84a.6.6,0,0,1,0,.73h0A.62.62,0,0,1,56.47,89.11Z" style="fill: #f7bad5"/>
              <path d="M57.75,87.27l-.44-.43.83-1,.52.62a.62.62,0,0,1,0,.77h0A.63.63,0,0,1,57.75,87.27Z" style="fill: #f7bad5"/>
              <g>
                <path d="M54.39,88.14a1.71,1.71,0,0,1,1.54,0" style="fill: none;stroke: #f072a0;stroke-miterlimit: 10;stroke-width: 0.075102611762551px"/>
                <path d="M54.78,87.64a1.68,1.68,0,0,1,1.54,0" style="fill: none;stroke: #f072a0;stroke-miterlimit: 10;stroke-width: 0.075102611762551px"/>
                <path d="M55.18,87.13a1.69,1.69,0,0,1,1.53,0" style="fill: none;stroke: #f072a0;stroke-miterlimit: 10;stroke-width: 0.075102611762551px"/>
                <path d="M55.57,86.62a1.71,1.71,0,0,1,1.54,0" style="fill: none;stroke: #f072a0;stroke-miterlimit: 10;stroke-width: 0.075102611762551px"/>
                <path d="M56,86.12a1.68,1.68,0,0,1,1.54,0" style="fill: none;stroke: #f072a0;stroke-miterlimit: 10;stroke-width: 0.075102611762551px"/>
              </g>
              <line x1="54.99" y1="88.05" x2="56.73" y2="85.93" style="fill: none;stroke: #f072a0;stroke-miterlimit: 10;stroke-width: 0.075102611762551px"/>
              <path d="M56.16,88.24A1.33,1.33,0,0,0,57,89a.17.17,0,0,0,.14,0c.11,0,.1-.2.06-.31a2.07,2.07,0,0,0-.63-.86" style="fill: none;stroke: #f072a0;stroke-miterlimit: 10;stroke-width: 0.075102611762551px"/>
              <path d="M57.55,86.5a1.32,1.32,0,0,0,.44.44.36.36,0,0,0,.22.07.28.28,0,0,0,.25-.31.6.6,0,0,0-.19-.39c-.1-.1-.23-.19-.32-.3" style="fill: none;stroke: #f072a0;stroke-miterlimit: 10;stroke-width: 0.075102611762551px"/>
            </g>
            <g>
              <path d="M58.73,88.52l-.16.84a.08.08,0,0,0,.14.06l.73-.9Z" style="fill: #613667"/>
              <path d="M60.82,88.52l-1.19.31a.86.86,0,0,1-.9-.31h0L61,85.8l.63-.31a1.18,1.18,0,0,1,1.47.31h0Z" style="fill: #fff"/>
              <path d="M61.4,89.11l-.55-.6.84-1,.65.84a.62.62,0,0,1,0,.73h0A.62.62,0,0,1,61.4,89.11Z" style="fill: #f7bad5"/>
              <path d="M62.68,87.27l-.44-.43.83-1,.52.62a.63.63,0,0,1,0,.77h0A.63.63,0,0,1,62.68,87.27Z" style="fill: #f7bad5"/>
              <g>
                <path d="M59.32,88.14a1.69,1.69,0,0,1,1.53,0" style="fill: none;stroke: #f072a0;stroke-miterlimit: 10;stroke-width: 0.075102611762551px"/>
                <path d="M59.71,87.64a1.68,1.68,0,0,1,1.54,0" style="fill: none;stroke: #f072a0;stroke-miterlimit: 10;stroke-width: 0.075102611762551px"/>
                <path d="M60.1,87.13a1.71,1.71,0,0,1,1.54,0" style="fill: none;stroke: #f072a0;stroke-miterlimit: 10;stroke-width: 0.075102611762551px"/>
                <path d="M60.5,86.62a1.69,1.69,0,0,1,1.53,0" style="fill: none;stroke: #f072a0;stroke-miterlimit: 10;stroke-width: 0.075102611762551px"/>
                <path d="M60.89,86.12a1.68,1.68,0,0,1,1.54,0" style="fill: none;stroke: #f072a0;stroke-miterlimit: 10;stroke-width: 0.075102611762551px"/>
              </g>
              <line x1="59.91" y1="88.05" x2="61.66" y2="85.93" style="fill: none;stroke: #f072a0;stroke-miterlimit: 10;stroke-width: 0.075102611762551px"/>
              <path d="M61.09,88.24a1.31,1.31,0,0,0,.82.71.2.2,0,0,0,.15,0c.11,0,.1-.2,0-.31a2.07,2.07,0,0,0-.63-.86" style="fill: none;stroke: #f072a0;stroke-miterlimit: 10;stroke-width: 0.075102611762551px"/>
              <path d="M62.48,86.5a1.32,1.32,0,0,0,.44.44.34.34,0,0,0,.22.07c.14,0,.25-.16.25-.31a.6.6,0,0,0-.19-.39c-.11-.1-.23-.19-.33-.3" style="fill: none;stroke: #f072a0;stroke-miterlimit: 10;stroke-width: 0.075102611762551px"/>
            </g>
            <g>
              <path d="M63.65,88.52l-.15.84a.08.08,0,0,0,.14.06l.73-.9Z" style="fill: #613667"/>
              <path d="M65.75,88.52l-1.2.31a.87.87,0,0,1-.9-.31h0L65.9,85.8l.63-.31A1.19,1.19,0,0,1,68,85.8h0Z" style="fill: #fff"/>
              <path d="M66.32,89.11l-.54-.6.83-1,.65.84a.6.6,0,0,1,0,.73h0A.61.61,0,0,1,66.32,89.11Z" style="fill: #f7bad5"/>
              <path d="M67.6,87.27l-.44-.43.84-1,.51.62a.62.62,0,0,1,0,.77h0A.63.63,0,0,1,67.6,87.27Z" style="fill: #f7bad5"/>
              <g>
                <path d="M64.24,88.14a1.71,1.71,0,0,1,1.54,0" style="fill: none;stroke: #f072a0;stroke-miterlimit: 10;stroke-width: 0.075102611762551px"/>
                <path d="M64.64,87.64a1.66,1.66,0,0,1,1.53,0" style="fill: none;stroke: #f072a0;stroke-miterlimit: 10;stroke-width: 0.075102611762551px"/>
                <path d="M65,87.13a1.71,1.71,0,0,1,1.54,0" style="fill: none;stroke: #f072a0;stroke-miterlimit: 10;stroke-width: 0.075102611762551px"/>
                <path d="M65.42,86.62a1.71,1.71,0,0,1,1.54,0" style="fill: none;stroke: #f072a0;stroke-miterlimit: 10;stroke-width: 0.075102611762551px"/>
                <path d="M65.82,86.12a1.66,1.66,0,0,1,1.53,0" style="fill: none;stroke: #f072a0;stroke-miterlimit: 10;stroke-width: 0.075102611762551px"/>
              </g>
              <line x1="64.84" y1="88.05" x2="66.59" y2="85.93" style="fill: none;stroke: #f072a0;stroke-miterlimit: 10;stroke-width: 0.075102611762551px"/>
              <path d="M66,88.24a1.29,1.29,0,0,0,.82.71A.2.2,0,0,0,67,89c.11,0,.09-.2.05-.31a2.07,2.07,0,0,0-.63-.86" style="fill: none;stroke: #f072a0;stroke-miterlimit: 10;stroke-width: 0.075102611762551px"/>
              <path d="M67.41,86.5a1.39,1.39,0,0,0,.43.44.36.36,0,0,0,.22.07.3.3,0,0,0,.26-.31.62.62,0,0,0-.2-.39c-.1-.1-.22-.19-.32-.3" style="fill: none;stroke: #f072a0;stroke-miterlimit: 10;stroke-width: 0.075102611762551px"/>
            </g>
          </g>
          <g>
            <g>
              <path d="M40.3,93.1l-.15.84a.08.08,0,0,0,.14.06l.72-.9Z" style="fill: #613667"/>
              <path d="M42.4,93.1l-1.2.31a.84.84,0,0,1-.9-.31h0l2.25-2.71.63-.32a1.19,1.19,0,0,1,1.47.32h0Z" style="fill: #fff"/>
              <path d="M43,93.69l-.54-.59.83-1,.65.84a.62.62,0,0,1,0,.74h0A.61.61,0,0,1,43,93.69Z" style="fill: #f7bad5"/>
              <path d="M44.25,91.85l-.44-.43.83-1,.52.61a.62.62,0,0,1,0,.77h0A.62.62,0,0,1,44.25,91.85Z" style="fill: #f7bad5"/>
              <g>
                <path d="M40.89,92.73a1.68,1.68,0,0,1,1.54,0" style="fill: none;stroke: #f072a0;stroke-miterlimit: 10;stroke-width: 0.075102611762551px"/>
                <path d="M41.28,92.22a1.71,1.71,0,0,1,1.54,0" style="fill: none;stroke: #f072a0;stroke-miterlimit: 10;stroke-width: 0.075102611762551px"/>
                <path d="M41.68,91.71a1.7,1.7,0,0,1,1.53,0" style="fill: none;stroke: #f072a0;stroke-miterlimit: 10;stroke-width: 0.075102611762551px"/>
                <path d="M42.07,91.21a1.68,1.68,0,0,1,1.54,0" style="fill: none;stroke: #f072a0;stroke-miterlimit: 10;stroke-width: 0.075102611762551px"/>
                <path d="M42.46,90.7a1.71,1.71,0,0,1,1.54,0" style="fill: none;stroke: #f072a0;stroke-miterlimit: 10;stroke-width: 0.075102611762551px"/>
              </g>
              <line x1="41.49" y1="92.63" x2="43.23" y2="90.51" style="fill: none;stroke: #f072a0;stroke-miterlimit: 10;stroke-width: 0.075102611762551px"/>
              <path d="M42.66,92.82a1.38,1.38,0,0,0,.83.72.33.33,0,0,0,.14,0c.11,0,.1-.21.06-.32a2,2,0,0,0-.63-.85" style="fill: none;stroke: #f072a0;stroke-miterlimit: 10;stroke-width: 0.075102611762551px"/>
              <path d="M44.05,91.08a1.32,1.32,0,0,0,.44.44.45.45,0,0,0,.22.08.3.3,0,0,0,.25-.31.58.58,0,0,0-.19-.39c-.1-.11-.23-.2-.32-.31" style="fill: none;stroke: #f072a0;stroke-miterlimit: 10;stroke-width: 0.075102611762551px"/>
            </g>
            <g>
              <path d="M45.23,93.1l-.16.84a.08.08,0,0,0,.14.06l.73-.9Z" style="fill: #613667"/>
              <path d="M47.32,93.1l-1.19.31a.84.84,0,0,1-.9-.31h0l2.24-2.71.63-.32a1.19,1.19,0,0,1,1.47.32h0Z" style="fill: #fff"/>
              <path d="M47.9,93.69l-.55-.59.84-1,.65.84a.63.63,0,0,1,0,.74h0A.61.61,0,0,1,47.9,93.69Z" style="fill: #f7bad5"/>
              <path d="M49.18,91.85l-.44-.43.83-1,.52.61a.62.62,0,0,1,0,.77h0A.62.62,0,0,1,49.18,91.85Z" style="fill: #f7bad5"/>
              <g>
                <path d="M45.82,92.73a1.66,1.66,0,0,1,1.53,0" style="fill: none;stroke: #f072a0;stroke-miterlimit: 10;stroke-width: 0.075102611762551px"/>
                <path d="M46.21,92.22a1.71,1.71,0,0,1,1.54,0" style="fill: none;stroke: #f072a0;stroke-miterlimit: 10;stroke-width: 0.075102611762551px"/>
                <path d="M46.6,91.71a1.71,1.71,0,0,1,1.54,0" style="fill: none;stroke: #f072a0;stroke-miterlimit: 10;stroke-width: 0.075102611762551px"/>
                <path d="M47,91.21a1.68,1.68,0,0,1,1.54,0" style="fill: none;stroke: #f072a0;stroke-miterlimit: 10;stroke-width: 0.075102611762551px"/>
                <path d="M47.39,90.7a1.71,1.71,0,0,1,1.54,0" style="fill: none;stroke: #f072a0;stroke-miterlimit: 10;stroke-width: 0.075102611762551px"/>
              </g>
              <line x1="46.41" y1="92.63" x2="48.16" y2="90.51" style="fill: none;stroke: #f072a0;stroke-miterlimit: 10;stroke-width: 0.075102611762551px"/>
              <path d="M47.59,92.82a1.36,1.36,0,0,0,.82.72.38.38,0,0,0,.15,0c.11,0,.1-.21,0-.32a2,2,0,0,0-.63-.85" style="fill: none;stroke: #f072a0;stroke-miterlimit: 10;stroke-width: 0.075102611762551px"/>
              <path d="M49,91.08a1.32,1.32,0,0,0,.44.44.42.42,0,0,0,.22.08.31.31,0,0,0,.25-.31.58.58,0,0,0-.19-.39c-.11-.11-.23-.2-.33-.31" style="fill: none;stroke: #f072a0;stroke-miterlimit: 10;stroke-width: 0.075102611762551px"/>
            </g>
            <g>
              <path d="M50.15,93.1l-.15.84a.08.08,0,0,0,.14.06l.73-.9Z" style="fill: #613667"/>
              <path d="M52.25,93.1l-1.2.31a.85.85,0,0,1-.9-.31h0l2.25-2.71.63-.32a1.19,1.19,0,0,1,1.47.32h0Z" style="fill: #fff"/>
              <path d="M52.83,93.69l-.55-.59.83-1,.65.84a.62.62,0,0,1,0,.74h0A.61.61,0,0,1,52.83,93.69Z" style="fill: #f7bad5"/>
              <path d="M54.1,91.85l-.44-.43.84-1L55,91a.65.65,0,0,1,0,.77h0A.63.63,0,0,1,54.1,91.85Z" style="fill: #f7bad5"/>
              <g>
                <path d="M50.74,92.73a1.68,1.68,0,0,1,1.54,0" style="fill: none;stroke: #f072a0;stroke-miterlimit: 10;stroke-width: 0.075102611762551px"/>
                <path d="M51.14,92.22a1.69,1.69,0,0,1,1.53,0" style="fill: none;stroke: #f072a0;stroke-miterlimit: 10;stroke-width: 0.075102611762551px"/>
                <path d="M51.53,91.71a1.71,1.71,0,0,1,1.54,0" style="fill: none;stroke: #f072a0;stroke-miterlimit: 10;stroke-width: 0.075102611762551px"/>
                <path d="M51.92,91.21a1.68,1.68,0,0,1,1.54,0" style="fill: none;stroke: #f072a0;stroke-miterlimit: 10;stroke-width: 0.075102611762551px"/>
                <path d="M52.32,90.7a1.71,1.71,0,0,1,1.54,0" style="fill: none;stroke: #f072a0;stroke-miterlimit: 10;stroke-width: 0.075102611762551px"/>
              </g>
              <line x1="51.34" y1="92.63" x2="53.09" y2="90.51" style="fill: none;stroke: #f072a0;stroke-miterlimit: 10;stroke-width: 0.075102611762551px"/>
              <path d="M52.52,92.82a1.33,1.33,0,0,0,.82.72.38.38,0,0,0,.15,0c.11,0,.09-.21,0-.32a2,2,0,0,0-.63-.85" style="fill: none;stroke: #f072a0;stroke-miterlimit: 10;stroke-width: 0.075102611762551px"/>
              <path d="M53.91,91.08a1.39,1.39,0,0,0,.43.44.45.45,0,0,0,.22.08.31.31,0,0,0,.26-.31.59.59,0,0,0-.2-.39c-.1-.11-.22-.2-.32-.31" style="fill: none;stroke: #f072a0;stroke-miterlimit: 10;stroke-width: 0.075102611762551px"/>
            </g>
            <g>
              <path d="M55.08,93.1l-.15.84a.08.08,0,0,0,.14.06l.72-.9Z" style="fill: #613667"/>
              <path d="M57.18,93.1l-1.2.31a.84.84,0,0,1-.9-.31h0l2.25-2.71.63-.32a1.17,1.17,0,0,1,1.46.32h0Z" style="fill: #fff"/>
              <path d="M57.75,93.69l-.54-.59.83-1,.65.84a.62.62,0,0,1,0,.74h0A.61.61,0,0,1,57.75,93.69Z" style="fill: #f7bad5"/>
              <path d="M59,91.85l-.44-.43.83-1,.52.61a.62.62,0,0,1,0,.77h0A.62.62,0,0,1,59,91.85Z" style="fill: #f7bad5"/>
              <g>
                <path d="M55.67,92.73a1.68,1.68,0,0,1,1.54,0" style="fill: none;stroke: #f072a0;stroke-miterlimit: 10;stroke-width: 0.075102611762551px"/>
                <path d="M56.06,92.22a1.71,1.71,0,0,1,1.54,0" style="fill: none;stroke: #f072a0;stroke-miterlimit: 10;stroke-width: 0.075102611762551px"/>
                <path d="M56.46,91.71a1.69,1.69,0,0,1,1.53,0" style="fill: none;stroke: #f072a0;stroke-miterlimit: 10;stroke-width: 0.075102611762551px"/>
                <path d="M56.85,91.21a1.68,1.68,0,0,1,1.54,0" style="fill: none;stroke: #f072a0;stroke-miterlimit: 10;stroke-width: 0.075102611762551px"/>
                <path d="M57.24,90.7a1.71,1.71,0,0,1,1.54,0" style="fill: none;stroke: #f072a0;stroke-miterlimit: 10;stroke-width: 0.075102611762551px"/>
              </g>
              <line x1="56.27" y1="92.63" x2="58.01" y2="90.51" style="fill: none;stroke: #f072a0;stroke-miterlimit: 10;stroke-width: 0.075102611762551px"/>
              <path d="M57.44,92.82a1.38,1.38,0,0,0,.83.72.33.33,0,0,0,.14,0c.11,0,.1-.21.06-.32a2,2,0,0,0-.63-.85" style="fill: none;stroke: #f072a0;stroke-miterlimit: 10;stroke-width: 0.075102611762551px"/>
              <path d="M58.83,91.08a1.32,1.32,0,0,0,.44.44.45.45,0,0,0,.22.08.3.3,0,0,0,.25-.31.58.58,0,0,0-.19-.39c-.1-.11-.23-.2-.32-.31" style="fill: none;stroke: #f072a0;stroke-miterlimit: 10;stroke-width: 0.075102611762551px"/>
            </g>
            <g>
              <path d="M60,93.1l-.16.84A.08.08,0,0,0,60,94l.73-.9Z" style="fill: #613667"/>
              <path d="M62.1,93.1l-1.19.31a.84.84,0,0,1-.9-.31h0l2.24-2.71.63-.32a1.19,1.19,0,0,1,1.47.32h0Z" style="fill: #fff"/>
              <path d="M62.68,93.69l-.55-.59.84-1,.65.84a.63.63,0,0,1,0,.74h0A.61.61,0,0,1,62.68,93.69Z" style="fill: #f7bad5"/>
              <path d="M64,91.85l-.44-.43.83-1,.52.61a.63.63,0,0,1,0,.77h0A.62.62,0,0,1,64,91.85Z" style="fill: #f7bad5"/>
              <g>
                <path d="M60.6,92.73a1.66,1.66,0,0,1,1.53,0" style="fill: none;stroke: #f072a0;stroke-miterlimit: 10;stroke-width: 0.075102611762551px"/>
                <path d="M61,92.22a1.71,1.71,0,0,1,1.54,0" style="fill: none;stroke: #f072a0;stroke-miterlimit: 10;stroke-width: 0.075102611762551px"/>
                <path d="M61.38,91.71a1.71,1.71,0,0,1,1.54,0" style="fill: none;stroke: #f072a0;stroke-miterlimit: 10;stroke-width: 0.075102611762551px"/>
                <path d="M61.78,91.21a1.66,1.66,0,0,1,1.53,0" style="fill: none;stroke: #f072a0;stroke-miterlimit: 10;stroke-width: 0.075102611762551px"/>
                <path d="M62.17,90.7a1.71,1.71,0,0,1,1.54,0" style="fill: none;stroke: #f072a0;stroke-miterlimit: 10;stroke-width: 0.075102611762551px"/>
              </g>
              <line x1="61.19" y1="92.63" x2="62.94" y2="90.51" style="fill: none;stroke: #f072a0;stroke-miterlimit: 10;stroke-width: 0.075102611762551px"/>
              <path d="M62.37,92.82a1.36,1.36,0,0,0,.82.72.38.38,0,0,0,.15,0c.11,0,.1-.21,0-.32a2,2,0,0,0-.63-.85" style="fill: none;stroke: #f072a0;stroke-miterlimit: 10;stroke-width: 0.075102611762551px"/>
              <path d="M63.76,91.08a1.32,1.32,0,0,0,.44.44.42.42,0,0,0,.22.08.31.31,0,0,0,.25-.31.58.58,0,0,0-.19-.39c-.11-.11-.23-.2-.33-.31" style="fill: none;stroke: #f072a0;stroke-miterlimit: 10;stroke-width: 0.075102611762551px"/>
            </g>
          </g>
          <g>
            <g>
              <g>
                <path d="M75,77.05V75s.08-.09.18-.09h0c.1,0,.18,0,.18.09v2.2" style="fill: #fff;stroke: #f7bad5;stroke-miterlimit: 10;stroke-width: 0.075102611762551px"/>
                <rect x="74.97" y="74.91" width="0.36" height="0.24" rx="0.04" style="fill: #f072a0"/>
              </g>
              <g>
                <path d="M75.72,77.17V75s-.08-.09-.17-.09h0c-.1,0-.18,0-.18.09v2.08" style="fill: #fff;stroke: #f7bad5;stroke-miterlimit: 10;stroke-width: 0.075102611762551px"/>
                <path d="M75.63,75.16H75.4s0-.05,0-.07a.57.57,0,0,1,0-.13s.06,0,.08,0a1.69,1.69,0,0,1,.23,0s0,0,0,.07v.13S75.65,75.16,75.63,75.16Z" style="fill: #f072a0"/>
              </g>
              <g>
                <path d="M76.12,77.14V75s-.08-.09-.18-.09h0c-.1,0-.18,0-.18.09v2.11" style="fill: #fff;stroke: #f7bad5;stroke-miterlimit: 10;stroke-width: 0.075102611762551px"/>
                <path d="M76,75.16a1,1,0,0,1-.18,0s0-.08,0-.09,0-.11,0-.11.12,0,.13,0a1,1,0,0,1,.18,0s0,.07,0,.09,0,.11,0,.11A.5.5,0,0,1,76,75.16Z" style="fill: #f072a0"/>
              </g>
              <g>
                <path d="M76.51,77.11V75s-.08-.09-.17-.09h0c-.1,0-.18,0-.18.09v2.14" style="fill: #fff;stroke: #f7bad5;stroke-miterlimit: 10;stroke-width: 0.075102611762551px"/>
                <path d="M76.31,75.16a.49.49,0,0,1-.14,0s0-.1,0-.11,0-.09,0-.09a1,1,0,0,1,.18,0s.14,0,.14,0,0,.1,0,.11,0,.09,0,.09A1,1,0,0,1,76.31,75.16Z" style="fill: #f072a0"/>
              </g>
              <g>
                <path d="M76.91,77.08V75s-.08-.09-.18-.09h0c-.1,0-.18,0-.18.09v2.17" style="fill: #fff;stroke: #f7bad5;stroke-miterlimit: 10;stroke-width: 0.075102611762551px"/>
                <path d="M76.65,75.16s-.09,0-.09,0V75s0-.07,0-.07a1.62,1.62,0,0,1,.22,0s.09,0,.09,0v.13s0,.07,0,.07Z" style="fill: #f072a0"/>
              </g>
              <g>
                <path d="M77.3,77.05V75s-.08-.09-.17-.09h0c-.1,0-.18,0-.18.09v2.2" style="fill: #fff;stroke: #f7bad5;stroke-miterlimit: 10;stroke-width: 0.075102611762551px"/>
                <rect x="76.95" y="74.91" width="0.36" height="0.24" rx="0.04" transform="translate(154.25 150.07) rotate(-180)" style="fill: #f072a0"/>
              </g>
            </g>
            <g>
              <path d="M74.41,77.56V81.7c0,.4.78.71,1.74.71s1.75-.31,1.75-.71V77.56Z" style="fill: #f7bad5"/>
              <ellipse cx="76.15" cy="77.56" rx="1.74" ry="0.71" style="fill: #f072a0"/>
              <ellipse cx="76.15" cy="77.48" rx="1.36" ry="0.55" style="fill: #613667"/>
              <path d="M77.9,78.93c0,.39-.79.71-1.75.71s-1.74-.32-1.74-.71" style="fill: none;stroke: #f072a0;stroke-miterlimit: 10;stroke-width: 0.075102611762551px"/>
              <path d="M77.9,80.47c0,.39-.79.71-1.75.71s-1.74-.32-1.74-.71" style="fill: none;stroke: #f072a0;stroke-miterlimit: 10;stroke-width: 0.075102611762551px"/>
            </g>
            <g>
              <g>
                <path d="M75,77.73v-2s.08-.09.18-.09h0c.1,0,.18,0,.18.09v2.13" style="fill: #fff;stroke: #f7bad5;stroke-miterlimit: 10;stroke-width: 0.075102611762551px"/>
                <rect x="74.97" y="75.66" width="0.36" height="0.24" rx="0.04" style="fill: #f072a0"/>
              </g>
              <g>
                <path d="M75.72,78V75.77s-.08-.09-.17-.09h0c-.1,0-.18,0-.18.09v2.16" style="fill: #fff;stroke: #f7bad5;stroke-miterlimit: 10;stroke-width: 0.075102611762551px"/>
                <path d="M75.63,75.92a1.69,1.69,0,0,1-.23,0s0,0,0-.06a.61.61,0,0,1,0-.14s.06,0,.08,0h.23s0,0,0,.06v.14S75.65,75.92,75.63,75.92Z" style="fill: #f072a0"/>
              </g>
              <g>
                <path d="M76.12,78.08v-2.3s-.08-.09-.18-.09h0c-.1,0-.18,0-.18.09v2.27" style="fill: #fff;stroke: #f7bad5;stroke-miterlimit: 10;stroke-width: 0.075102611762551px"/>
                <path d="M76,75.94a1,1,0,0,1-.18,0s0-.08,0-.09,0-.11,0-.11.12,0,.13,0l.18,0s0,.07,0,.09,0,.11,0,.11S76,75.94,76,75.94Z" style="fill: #f072a0"/>
              </g>
              <g>
                <path d="M76.51,78.05V75.78s-.08-.09-.17-.09h0c-.1,0-.18,0-.18.09v2.3" style="fill: #fff;stroke: #f7bad5;stroke-miterlimit: 10;stroke-width: 0.075102611762551px"/>
                <path d="M76.31,75.94s-.14,0-.14,0,0-.1,0-.11,0-.09,0-.09l.18,0s.14,0,.14,0,0,.1,0,.11,0,.09,0,.09A1,1,0,0,1,76.31,75.94Z" style="fill: #f072a0"/>
              </g>
              <g>
                <path d="M76.91,77.93V75.77s-.08-.09-.18-.09h0c-.1,0-.18,0-.18.09V78" style="fill: #fff;stroke: #f7bad5;stroke-miterlimit: 10;stroke-width: 0.075102611762551px"/>
                <path d="M76.65,75.92s-.09,0-.09,0,0-.13,0-.14,0-.06,0-.06h.22s.09,0,.09,0v.14s0,.06,0,.06A1.62,1.62,0,0,1,76.65,75.92Z" style="fill: #f072a0"/>
              </g>
              <g>
                <path d="M77.3,77.73v-2s-.08-.09-.17-.09h0c-.1,0-.18,0-.18.09V78" style="fill: #fff;stroke: #f7bad5;stroke-miterlimit: 10;stroke-width: 0.075102611762551px"/>
                <rect x="76.95" y="75.66" width="0.36" height="0.24" rx="0.04" transform="translate(154.25 151.57) rotate(-180)" style="fill: #f072a0"/>
              </g>
            </g>
          </g>
          <g>
            <polygon points="85.71 81.71 77.93 81.71 79.73 79.69 87.5 79.69 85.71 81.71" style="fill: #fff"/>
            <rect x="81.16" y="80.43" width="3.11" height="0.55" rx="0.27" style="fill: #613667"/>
            <path d="M77.93,81.71v2.35a.71.71,0,0,0,.72.71h.55a.71.71,0,0,0,.71-.71h0a.82.82,0,0,1,.82-.82h2.18a.82.82,0,0,1,.82.82h0a.71.71,0,0,0,.72.71h1.26V81.71Z" style="fill: #f072a0"/>
            <path d="M87.45,79.72v2.35a1.93,1.93,0,0,1-.16.9l-.12.14c-.09.1-.16-.14-.16-.54h0c0-.45-.08-.72-.18-.6l-.5.56a2.18,2.18,0,0,0-.18,1h0a1.9,1.9,0,0,1-.16.9l-.28.32V81.71Z" style="fill: #f7bad5"/>
          </g>
          <g>
            <polygon points="81.82 88.3 74.05 88.3 75.84 86.27 83.61 86.27 81.82 88.3" style="fill: #fff"/>
            <rect x="77.27" y="87.01" width="3.11" height="0.55" rx="0.27" style="fill: #613667"/>
            <path d="M74.05,88.3v2.34a.71.71,0,0,0,.71.72h.55a.72.72,0,0,0,.72-.72h0a.81.81,0,0,1,.81-.81H79a.81.81,0,0,1,.81.81h0a.72.72,0,0,0,.72.72h1.26V88.3Z" style="fill: #f072a0"/>
            <path d="M83.56,86.31v2.34a1.9,1.9,0,0,1-.16.9l-.12.14c-.09.1-.16-.13-.16-.53h0c0-.45-.08-.72-.18-.61l-.49.56a2.24,2.24,0,0,0-.18,1h0a2,2,0,0,1-.17.91l-.28.32V88.3Z" style="fill: #f7bad5"/>
          </g>
          <g>
            <path d="M75.75,84.05a.29.29,0,0,0,0-.18.47.47,0,0,0-.12-.18.45.45,0,0,0-.1-.09l0,0-.07,0-.06,0a1.16,1.16,0,0,0-.87,0l-.13,0-.14,0-.13,0-.26.09-.42.18a2.45,2.45,0,0,0-.33.18,1.06,1.06,0,0,0-.37.36c-.09.12-.19.24-.27.36a6.59,6.59,0,0,0-.41.72,3.61,3.61,0,0,1-.52.72,9.23,9.23,0,0,1-.78.72c-.14.12-.26.24-.38.36l-.31.36a1.5,1.5,0,0,0-.24.36.91.91,0,0,0-.06.36.81.81,0,0,0,.1.36h0c.15.24.7.24,1.26,0h0a7.77,7.77,0,0,0,.71-.36,5.06,5.06,0,0,0,.54-.36,2.12,2.12,0,0,0,.37-.36q.16-.18.3-.36a3.75,3.75,0,0,0,.24-.36,4.56,4.56,0,0,1,.43-.72,5.21,5.21,0,0,1,.7-.72c.27-.24.57-.48.81-.72l.34-.36A.69.69,0,0,0,75.75,84.05Z" style="fill: #f072a0"/>
            <path d="M75.75,83.55a.29.29,0,0,0,0-.18.47.47,0,0,0-.12-.18.45.45,0,0,0-.1-.09l0,0-.07,0-.06,0a1.27,1.27,0,0,0-.87,0l-.13,0-.14,0-.13,0-.26.09-.42.18a2.45,2.45,0,0,0-.33.18,1.06,1.06,0,0,0-.37.36c-.09.12-.19.24-.27.36A6.59,6.59,0,0,0,72,85a3.61,3.61,0,0,1-.52.72,9.23,9.23,0,0,1-.78.72c-.14.12-.26.24-.38.36l-.31.36a1.5,1.5,0,0,0-.24.36.91.91,0,0,0-.06.36.81.81,0,0,0,.1.36h0c.15.25.7.25,1.26,0h0a7.77,7.77,0,0,0,.71-.36,5.06,5.06,0,0,0,.54-.36,2.12,2.12,0,0,0,.37-.36q.16-.18.3-.36a3.75,3.75,0,0,0,.24-.36,4.56,4.56,0,0,1,.43-.72,5.21,5.21,0,0,1,.7-.72c.27-.24.57-.48.81-.72l.34-.36A.69.69,0,0,0,75.75,83.55Z" style="fill: #b189bd"/>
            <path d="M69.8,88.23s-.93-2.31,1.31-3c0,0,2.11-.29,2.12,1.24a5.3,5.3,0,0,1-1.45,1.44C71.06,88.23,70.73,88.76,69.8,88.23Z" style="fill: #f072a0"/>
          </g>
        </g>
      </g>
    </g>
  </g>
</svg>
