<svg xmlns="http://www.w3.org/2000/svg" width="121.61" height="87" viewBox="0 0 121.61 87">
  <g id="Layer_2" data-name="Layer 2">
    <g id="Iron">
      <g>
        <g>
          <path d="M98.66,13.25A8.2,8.2,0,0,0,94.89,10l1.3-1.41a8.67,8.67,0,0,1,4,3.27ZM95,25.26a19.25,19.25,0,0,0,3.58-9.2l1.88.62A20.32,20.32,0,0,1,97,26.05ZM99.45,6.67a8.1,8.1,0,0,0-3.83-2.81l1.44-1.41a8.34,8.34,0,0,1,3.88,2.9Zm13,8.52H107v-4.1l-1.47.5-.14-.64c-1.23.14-2.47.33-4,.56l1,.28a7.94,7.94,0,0,1-1.23,3.91l-1.72-.56a6.81,6.81,0,0,0,1.38-3.8l.22.11L100,9.88a18.3,18.3,0,0,0,2.39-2.22c-.45,0-1.07.14-1.41.19l-.84-1.6a16.5,16.5,0,0,0,3.46-4.64l1.63.87a14.33,14.33,0,0,1-2.2,3.35l.85-.06,1-1.4,1.41.78V3.38h2.28a13.5,13.5,0,0,0-1.15-1.18l1.71-.9a18.87,18.87,0,0,1,1.49,2.11H113V5.27h-6.52a24.8,24.8,0,0,1-2.22,3.15L105.52,8a6.63,6.63,0,0,1,1.52,2.7h5.51v4.22a7.35,7.35,0,0,0,.87-3.4l1.58.25a7.09,7.09,0,0,1-1.07,4l-1.63-.39Zm-1.94,11.34-.81-2a57.83,57.83,0,0,0,5.79.51c.7,0,1-1,1.15-1.69H100.71l1.63-4.64h13.53v-.87H101.3V16H118v4.5l-14,0-.36.9,15.33,0a25.18,25.18,0,0,1-1.1,4.47,2.33,2.33,0,0,1-2.33,1.07Zm-6.24-14.85a7.41,7.41,0,0,1-.2,3.74l-1.86.05a6.88,6.88,0,0,0,.51-3.76Zm-.11-3.1a5.48,5.48,0,0,1-.85.73l1.24-.08ZM106,11.51a7,7,0,0,1,.76,3.34l-1.71.37A6,6,0,0,0,104.4,12Zm6.58-5.79V7.43H107V5.69ZM107,9.85V8.08l5.59,0V9.88Zm3.79,3.74V12.16l-1.94,0,0,1.44Zm6-5.15,1.33-.7A7.68,7.68,0,0,1,120,10.86l-1.41.59A9.08,9.08,0,0,1,119.75,15l-1.74.37a7.15,7.15,0,0,0-1.07-3.66l1.4-.33-.19-.57c-1.32.12-2.84.28-4.44.57l-1.1-1.58a14.58,14.58,0,0,0,2.44-2.47c-.33,0-1,.08-1.6.17l-.79-1.61a18,18,0,0,0,3.1-4.24l1.63.78a11.89,11.89,0,0,1-2.11,3.1l1.21-.06.81-1.41,1.64.79a20.5,20.5,0,0,1-3.27,4.42l1.63-.14Zm-1.37,7a7.44,7.44,0,0,0-.2-3.71l1.52-.25a8.32,8.32,0,0,1,.5,3.74Z" style="fill: #fff"/>
          <path d="M99.36,57.49V43.15c-.5.65-1.46,1.77-2.5,2.9l-2-1.15a24.8,24.8,0,0,0,7.23-12.69l2,.85a38.43,38.43,0,0,1-2.62,6.83l0,17.6Zm13.11-2.39c0,1.13-.4,2.37-2.14,2.37l-4.16,0-.87-2.2a38.1,38.1,0,0,0,4.27.15c.68,0,.76-.48.76-1v-8h-7.56v-2h7.56v-3a18.21,18.21,0,0,0,5-5.31l-10.74,0V34l13.13,0,0,1.94a25.19,25.19,0,0,1-5.2,6.38l0,2.11h7.84v2h-7.84Z" style="fill: #fff"/>
          <path d="M119.78,87H99.87c-1.49,0-2.17-1.24-2.17-2.61V66.56l-1.77,0V64.45l23.71,0v2.09H99.84l0,17.26c0,.79.28,1.1,1.15,1.1h18.76ZM109,83.09h-8V75.3l8,0Zm-5.85-5.74V81l3.71,0,0-3.74ZM116,73.81l-12.65,0,0-6.27H116ZM105.47,71.9h8.38V69.45h-8.38Zm13,3.4V83h-8V75.3Zm-2.11,2-3.8,0V81l3.77,0Z" style="fill: #fff"/>
        </g>
        <g>
          <path d="M100,12a8.2,8.2,0,0,0-3.77-3.26l1.29-1.41a8.64,8.64,0,0,1,4,3.27ZM96.3,24a19.25,19.25,0,0,0,3.58-9.2l1.88.62a20.32,20.32,0,0,1-3.43,9.37Zm4.45-18.59a8.1,8.1,0,0,0-3.83-2.81l1.44-1.41a8.34,8.34,0,0,1,3.88,2.9Zm13,8.52h-5.45V9.79l-1.47.5-.14-.64c-1.23.14-2.47.33-4,.56l1,.28a7.94,7.94,0,0,1-1.23,3.91l-1.72-.56a6.81,6.81,0,0,0,1.38-3.8l.22.11-1-1.57a18.3,18.3,0,0,0,2.39-2.22c-.45,0-1.07.14-1.41.19L101.48,5A16.5,16.5,0,0,0,104.94.31l1.63.87a14.33,14.33,0,0,1-2.2,3.35l.85-.06,1-1.4,1.41.78V2.08h2.28A13.5,13.5,0,0,0,108.71.9l1.71-.9a18.87,18.87,0,0,1,1.49,2.11h2.39V4h-6.52a24,24,0,0,1-2.22,3.14l1.26-.44a6.54,6.54,0,0,1,1.52,2.69h5.51v4.22a7.35,7.35,0,0,0,.87-3.4l1.58.25a7.09,7.09,0,0,1-1.07,4.05l-1.63-.39Zm-1.94,11.34-.81-2a57.83,57.83,0,0,0,5.79.51c.7,0,1-1,1.15-1.69H102l1.63-4.64h13.53v-.87H102.6V14.68h16.68v4.5l-14,0-.36.9,15.33,0a25.18,25.18,0,0,1-1.1,4.47,2.33,2.33,0,0,1-2.34,1.07Zm-6.24-14.85a7.41,7.41,0,0,1-.2,3.74l-1.86.05a6.88,6.88,0,0,0,.51-3.76Zm-.11-3.1a5.48,5.48,0,0,1-.85.73l1.24-.08Zm1.85,2.93a7,7,0,0,1,.76,3.34l-1.71.37a6,6,0,0,0-.62-3.26Zm6.58-5.79V6.13h-5.59V4.39Zm-5.59,4.13V6.78l5.59,0V8.58Zm3.79,3.74V10.85l-1.94,0,0,1.44Zm6-5.15,1.33-.7a7.68,7.68,0,0,1,1.94,3.12l-1.41.59a9.08,9.08,0,0,1,1.18,3.57l-1.74.37a7.15,7.15,0,0,0-1.07-3.66l1.4-.33-.19-.57c-1.32.12-2.84.28-4.44.57l-1.1-1.58a14.58,14.58,0,0,0,2.44-2.47c-.33,0-1,.08-1.6.16L114,4.61a18,18,0,0,0,3.1-4.24l1.63.78a11.89,11.89,0,0,1-2.11,3.1l1.21-.06.81-1.41,1.64.79A20.26,20.26,0,0,1,117,8l1.63-.14Zm-1.37,7a7.44,7.44,0,0,0-.2-3.71l1.52-.25a8.32,8.32,0,0,1,.5,3.74Z" style="fill: #214534"/>
          <path d="M100.66,56.19V41.85c-.5.65-1.46,1.77-2.5,2.9l-2-1.15a24.8,24.8,0,0,0,7.23-12.69l2,.85a38.43,38.43,0,0,1-2.62,6.83l0,17.6Zm13.11-2.39c0,1.13-.4,2.37-2.14,2.37l-4.16,0-.87-2.2a35.7,35.7,0,0,0,4.27.14c.68,0,.76-.47.76-.95v-8h-7.56v-2h7.56v-3a18.21,18.21,0,0,0,5-5.31l-10.74,0v-2l13.13,0,0,1.94a25.19,25.19,0,0,1-5.2,6.38l0,2.11h7.84v2h-7.84Z" style="fill: #214534"/>
          <path d="M121.08,85.7H101.17c-1.49,0-2.17-1.24-2.17-2.62V65.26l-1.77,0V63.15l23.71,0v2.09h-19.8l0,17.26c0,.79.28,1.1,1.15,1.1h18.76Zm-10.8-3.91h-8V74l8,0Zm-5.85-5.74v3.69l3.71,0,0-3.74Zm12.85-3.54-12.65,0,0-6.27h12.62ZM106.77,70.6h8.38V68.15h-8.38Zm13,3.4v7.71h-8.05V74Zm-2.11,2-3.8,0v3.6l3.77,0Z" style="fill: #214534"/>
        </g>
        <g style="isolation: isolate">
          <polygon points="52.63 78.4 0 59.24 45.09 39.47 97.71 58.63 52.63 78.4" style="fill: #c4dc77"/>
          <polygon points="52.65 80.23 52.63 78.4 97.71 58.63 97.73 60.46 52.65 80.23" style="fill: #718044"/>
          <polygon points="0.02 61.07 0 59.24 52.63 78.4 52.65 80.23 0.02 61.07" style="fill: #444d28"/>
        </g>
        <g>
          <polygon points="55.07 73.3 26.17 73.3 37.11 60.73 66.01 60.73 55.07 73.3" style="fill: #4fafa5"/>
          <rect x="41.91" y="53.39" width="7.43" height="9.83" style="fill: #f7bad5"/>
          <rect x="42.43" y="54.59" width="6.4" height="7.95" style="fill: #613667"/>
          <ellipse cx="45.6" cy="63.77" rx="1.17" ry="0.34" style="fill: #fff;stroke: #231f20;stroke-miterlimit: 10;stroke-width: 0.057178865204237px"/>
          <polygon points="48.82 62.54 42.43 62.54 44.61 61.15 48.82 61.15 48.82 62.54" style="fill: #f072a0"/>
          <g>
            <rect x="45.15" y="56.64" width="2.1" height="3.61" style="fill: #fff"/>
            <g>
              <path d="M46.2,62.2c-1.15,0-2.31-.29-2.31-.84a2,2,0,0,1,1-1.7c.06,0,.08-.19.14-.48.12-.66.32-1.77,1.18-1.77s1.06,1.11,1.18,1.77c0,.29.08.44.14.48a2,2,0,0,1,1,1.7C48.5,61.91,47.34,62.2,46.2,62.2Z" style="fill: #fff"/>
              <path d="M46.2,57.44c.83,0,1,1.09,1.15,1.74,0,.32.08.46.15.5a2,2,0,0,1,1,1.68c0,.53-1.14.81-2.27.81s-2.28-.28-2.28-.81a2,2,0,0,1,1-1.68c.07,0,.1-.18.16-.5.11-.65.31-1.74,1.15-1.74m0,0c-1.22,0-1.15,2.12-1.34,2.24a2.06,2.06,0,0,0-1,1.73c0,.58,1.17.87,2.34.87s2.33-.29,2.33-.87a2,2,0,0,0-1-1.73c-.19-.12-.12-2.24-1.33-2.24Z" style="fill: #f072a0"/>
            </g>
            <g>
              <path d="M46.2,58.06a1.52,1.52,0,0,0-.52-.52l1.06.05A.83.83,0,0,0,46.2,58.06Z" style="fill: #fff"/>
              <path d="M46.52,57.62a.87.87,0,0,0-.32.37,1.27,1.27,0,0,0-.36-.37h.68m.22-.06H45.66s.54.34.54.62a.85.85,0,0,1,.54-.62Z" style="fill: #f072a0"/>
            </g>
            <g>
              <path d="M45.15,56.64c0-.58,0-2,1.05-2s1,1.47,1,2" style="fill: #fff;stroke: #f072a0;stroke-miterlimit: 10;stroke-width: 0.057178865204237px"/>
              <circle cx="46.2" cy="56.64" r="1.05" style="fill: #f7bad5"/>
              <circle cx="46.2" cy="55.92" r="0.12" style="fill: #613667"/>
            </g>
            <path d="M47,57.93a3.63,3.63,0,0,0-.26,1.59c0,1.11-.67.42-.67.42l.13,2.27S48.35,61.68,47,57.93Z" style="fill: #fff;stroke: #f072a0;stroke-miterlimit: 10;stroke-width: 0.057178865204237px"/>
            <path d="M45.84,58.08v2s-.22,1.88-.69,1.33C45.15,61.42,43.71,60,45.84,58.08Z" style="fill: #fff;stroke: #f072a0;stroke-miterlimit: 10;stroke-width: 0.057178865204237px"/>
            <path d="M45.84,58.92v-.85a.15.15,0,0,1,.15-.14h.07a.14.14,0,0,1,.14.14Z" style="fill: #f7bad5"/>
          </g>
          <polygon points="51.35 51.72 51.35 61.18 49.34 63.23 49.34 53.39 51.35 51.72" style="fill: #b189bd"/>
          <g>
            <g>
              <path d="M48,63.82c0,.43-1.19.77-2.66.77s-2.65-.34-2.65-.77v-.3a6,6,0,0,1,2.65-.47,6,6,0,0,1,2.66.47Z" style="fill: #b189bd"/>
              <ellipse cx="45.35" cy="63.57" rx="2.66" ry="0.77" style="fill: #613667"/>
            </g>
            <g>
              <ellipse cx="44.52" cy="63.15" rx="1.03" ry="0.77" style="fill: #f072a0;stroke: #fff;stroke-miterlimit: 10;stroke-width: 0.057178865204237px"/>
              <ellipse cx="46.21" cy="63.15" rx="1.03" ry="0.77" style="fill: #f7bad5;stroke: #f072a0;stroke-miterlimit: 10;stroke-width: 0.057178865204237px"/>
              <ellipse cx="45.32" cy="61.93" rx="1.03" ry="0.77" style="fill: #f7bad5"/>
            </g>
          </g>
          <g>
            <polygon points="57.59 59.5 57.59 61.37 55.58 63.42 55.58 61.17 57.59 59.5" style="fill: #b189bd"/>
            <rect x="49.91" y="61.17" width="5.67" height="2.12" style="fill: #f072a0"/>
            <polygon points="49.91 61.17 51.56 59.5 57.59 59.5 55.58 61.17 49.91 61.17" style="fill: #fff"/>
            <rect x="51.57" y="53.83" width="6.03" height="5.67" style="fill: #fff;stroke: #231f20;stroke-miterlimit: 10;stroke-width: 0.057178865204237px"/>
            <polygon points="51.56 53.83 51.3 54.15 57.3 54.15 57.59 53.83 51.56 53.83" style="fill: #fff"/>
            <rect x="51.3" y="54.15" width="5.97" height="5.62" style="fill: #fff"/>
            <polygon points="57.27 54.15 57.27 59.77 57.59 59.5 57.59 53.83 57.27 54.15" style="fill: #b189bd"/>
          </g>
          <rect x="51.82" y="54.59" width="5.03" height="5.22" style="fill: #f072a0"/>
          <g>
            <path d="M53.17,60.71a1,1,0,0,1-1-1V58.52c0-2.14.73-3.87,1.64-3.87s1.65,1.73,1.65,3.87v1.17a1,1,0,0,1-1.06,1Z" style="fill: #4fafa5"/>
            <g>
              <path d="M53.79,54.77a1,1,0,0,1-.88-.54,1,1,0,0,1,0-.75,1,1,0,0,1,.49-.57,1,1,0,0,1,1.32.44,1,1,0,0,1-.44,1.31A1,1,0,0,1,53.79,54.77Z" style="fill: #f7bad5"/>
              <path d="M53.79,52.83h0a.94.94,0,0,1,.85.53,1,1,0,0,1-.42,1.28,1,1,0,0,1-1.28-.43,1,1,0,0,1,.42-1.28,1.08,1.08,0,0,1,.43-.1m0-.06a1,1,0,0,0-.45.11,1,1,0,0,0,.45,1.92,1,1,0,0,0,.45-.11,1,1,0,0,0,.46-1.36,1,1,0,0,0-.91-.56Z" style="fill: #fff"/>
            </g>
            <path d="M53.79,53.79a3,3,0,0,0-.66,1.47,1.35,1.35,0,0,1,.66-1.47Z" style="fill: #613667"/>
            <path d="M53.83,53.79a1.34,1.34,0,0,1,.66,1.47,3,3,0,0,0-.66-1.47Z" style="fill: #613667"/>
            <path d="M53.46,54.66a5.53,5.53,0,0,0,.37,2.41,5.82,5.82,0,0,0,.41-2.38S53.79,54.06,53.46,54.66Z" style="fill: #613667"/>
            <rect x="52.81" y="51.99" width="1.96" height="1.19" style="fill: #4fafa5"/>
            <path d="M52.22,57.39a3.68,3.68,0,0,0,3.14,0" style="fill: #613667"/>
            <g>
              <path d="M52.82,55.4a3.44,3.44,0,0,0-1.11,3.36h1.11Z" style="fill: #4fafa5;stroke: #613667;stroke-miterlimit: 10;stroke-width: 0.057178865204237px"/>
              <polygon points="52.82 59.46 51.72 60.39 51.72 58.76 52.82 57.56 52.82 59.46" style="fill: #613667"/>
            </g>
            <g>
              <path d="M54.79,55.4a3.42,3.42,0,0,1,1.1,3.36h-1.1Z" style="fill: #4fafa5;stroke: #613667;stroke-miterlimit: 10;stroke-width: 0.057178865204237px"/>
              <polygon points="54.79 59.49 55.9 60.42 55.9 58.76 54.79 57.59 54.79 59.49" style="fill: #613667"/>
            </g>
          </g>
          <g>
            <g>
              <path d="M51.75,61.86v2.86c0,.33.89.6,2,.6s2-.27,2-.6V61.86Z" style="fill: #f7bad5"/>
              <ellipse cx="53.75" cy="61.86" rx="2" ry="0.61" style="fill: #fff"/>
              <ellipse cx="53.75" cy="61.78" rx="1.65" ry="0.45" style="fill: #613667"/>
            </g>
            <g>
              <rect x="53.64" y="58.01" width="0.21" height="3.14" rx="0.09" style="fill: #b189bd;stroke: #613667;stroke-miterlimit: 10;stroke-width: 0.057178865204237px"/>
              <line x1="53.75" y1="61.15" x2="53.75" y2="62.01" style="fill: none;stroke: #f7bad5;stroke-miterlimit: 10;stroke-width: 0.057178865204237px"/>
            </g>
            <g>
              <rect x="53.18" y="58.01" width="0.21" height="3.14" rx="0.09" style="fill: #b189bd;stroke: #613667;stroke-miterlimit: 10;stroke-width: 0.057178865204237px"/>
              <line x1="53.28" y1="61.15" x2="53.28" y2="62.01" style="fill: none;stroke: #f7bad5;stroke-miterlimit: 10;stroke-width: 0.057178865204237px"/>
            </g>
            <g>
              <rect x="52.6" y="56.37" width="0.29" height="4.43" rx="0.12" style="fill: #f072a0;stroke: #f7bad5;stroke-miterlimit: 10;stroke-width: 0.057178865204237px"/>
              <line x1="52.75" y1="60.8" x2="52.75" y2="62.01" style="fill: none;stroke: #f7bad5;stroke-miterlimit: 10;stroke-width: 0.057178865204237px"/>
            </g>
            <g>
              <rect x="54.72" y="56.37" width="0.29" height="4.43" rx="0.12" style="fill: #f072a0;stroke: #f7bad5;stroke-miterlimit: 10;stroke-width: 0.057178865204237px"/>
              <line x1="54.87" y1="60.8" x2="54.87" y2="62.01" style="fill: none;stroke: #f7bad5;stroke-miterlimit: 10;stroke-width: 0.057178865204237px"/>
            </g>
            <g>
              <rect x="54.19" y="58.01" width="0.21" height="3.14" rx="0.09" style="fill: #b189bd;stroke: #613667;stroke-miterlimit: 10;stroke-width: 0.057178865204237px"/>
              <line x1="54.29" y1="61.15" x2="54.29" y2="62.01" style="fill: none;stroke: #f7bad5;stroke-miterlimit: 10;stroke-width: 0.057178865204237px"/>
            </g>
          </g>
          <g>
            <g>
              <path d="M41.28,59.8l-.2.07-.2.06a7.49,7.49,0,0,1-.79.18,9.42,9.42,0,0,1-1.58.12,10.64,10.64,0,0,1-1.59-.12,7.37,7.37,0,0,1-.79-.16l-.4-.12a3.12,3.12,0,0,1-.39-.15l0,0a2.18,2.18,0,0,0,0,3h0c.13-.06.26-.1.39-.15l.4-.11a7.43,7.43,0,0,1,.79-.17,10.64,10.64,0,0,1,1.59-.12,9.42,9.42,0,0,1,1.58.12c.26,0,.53.11.79.18l.2.06.2.07a3.29,3.29,0,0,1,.39.17v-3.1A3.29,3.29,0,0,1,41.28,59.8Z" style="fill: #fff"/>
              <ellipse cx="41.67" cy="61.22" rx="0.48" ry="1.59" style="fill: #f072a0"/>
              <path d="M42.15,60.88s-.19-.78-.48-.65-.25.53-.27,1,.06,1,.27,1.13c0,0,.33,0,.19-1.15l-.46,0" style="fill: none;stroke: #fff;stroke-miterlimit: 10;stroke-width: 0.057178865204237px"/>
            </g>
            <path d="M38.71,62.05a2,2,0,0,1,0-1.75.16.16,0,0,0-.28-.14,2.28,2.28,0,0,0,0,2.05.15.15,0,0,0,.13.07.11.11,0,0,0,.08,0A.14.14,0,0,0,38.71,62.05Z" style="fill: #f072a0"/>
          </g>
          <g>
            <g>
              <path d="M39,64.4a11.62,11.62,0,0,1-7.08-.4,12.7,12.7,0,0,0,3.63-1,11.06,11.06,0,0,0,5.46-.8A7.19,7.19,0,0,1,39,64.4Z" style="fill: #f7bad5;stroke: #f072a0;stroke-miterlimit: 10;stroke-width: 0.057178865204237px"/>
              <path d="M39,64.4a11.62,11.62,0,0,1-7.08-.4,12.7,12.7,0,0,0,3.63-1,11.06,11.06,0,0,0,5.46-.8A7.19,7.19,0,0,1,39,64.4Z" style="fill: #f7bad5;stroke: #f072a0;stroke-miterlimit: 10;stroke-width: 0.057178865204237px"/>
            </g>
            <g>
              <path d="M38.94,64.17a11.31,11.31,0,0,1-7.13-.55,10.76,10.76,0,0,0,3.73-1,10.45,10.45,0,0,0,5.18-.71A5.42,5.42,0,0,1,38.94,64.17Z" style="fill: #f7bad5;stroke: #f072a0;stroke-miterlimit: 10;stroke-width: 0.057178865204237px"/>
              <path d="M38.94,64.17a11.31,11.31,0,0,1-7.13-.55,10.76,10.76,0,0,0,3.73-1,10.45,10.45,0,0,0,5.18-.71A5.42,5.42,0,0,1,38.94,64.17Z" style="fill: #f7bad5;stroke: #f072a0;stroke-miterlimit: 10;stroke-width: 0.057178865204237px"/>
            </g>
            <g>
              <path d="M38.89,63.93a10.91,10.91,0,0,1-7.18-.7,9.35,9.35,0,0,0,3.83-.91,9.68,9.68,0,0,0,4.9-.62A4,4,0,0,1,38.89,63.93Z" style="fill: #f7bad5;stroke: #f072a0;stroke-miterlimit: 10;stroke-width: 0.057178865204237px"/>
              <path d="M38.89,63.93a10.91,10.91,0,0,1-7.18-.7,9.35,9.35,0,0,0,3.83-.91,9.68,9.68,0,0,0,4.9-.62A4,4,0,0,1,38.89,63.93Z" style="fill: #f7bad5;stroke: #f072a0;stroke-miterlimit: 10;stroke-width: 0.057178865204237px"/>
            </g>
            <g>
              <path d="M38.84,63.7a10.66,10.66,0,0,1-7.21-.86A8.63,8.63,0,0,0,35.54,62a9,9,0,0,0,4.63-.55A3.12,3.12,0,0,1,38.84,63.7Z" style="fill: #f7bad5;stroke: #f072a0;stroke-miterlimit: 10;stroke-width: 0.057178865204237px"/>
              <path d="M38.84,63.7a10.66,10.66,0,0,1-7.21-.86A8.63,8.63,0,0,0,35.54,62a9,9,0,0,0,4.63-.55A3.12,3.12,0,0,1,38.84,63.7Z" style="fill: #f7bad5;stroke: #f072a0;stroke-miterlimit: 10;stroke-width: 0.057178865204237px"/>
            </g>
            <g>
              <path d="M38.79,63.47a10.39,10.39,0,0,1-7.24-1,7.84,7.84,0,0,0,4-.74,8.41,8.41,0,0,0,4.37-.48A2.55,2.55,0,0,1,38.79,63.47Z" style="fill: #f7bad5;stroke: #f072a0;stroke-miterlimit: 10;stroke-width: 0.057178865204237px"/>
              <path d="M38.79,63.47a10.39,10.39,0,0,1-7.24-1,7.84,7.84,0,0,0,4-.74,8.41,8.41,0,0,0,4.37-.48A2.55,2.55,0,0,1,38.79,63.47Z" style="fill: #f7bad5;stroke: #f072a0;stroke-miterlimit: 10;stroke-width: 0.057178865204237px"/>
            </g>
          </g>
          <g>
            <g>
              <path d="M34.15,67.54l-.12.64c0,.06.07.1.1,0l.56-.69Z" style="fill: #613667"/>
              <path d="M35.74,67.54l-.91.24a.63.63,0,0,1-.68-.24h0l1.71-2.07.47-.24a.92.92,0,0,1,1.12.24h0Z" style="fill: #fff"/>
              <path d="M36.18,68l-.42-.45.64-.79.49.64a.46.46,0,0,1,0,.56h0A.46.46,0,0,1,36.18,68Z" style="fill: #f7bad5"/>
              <path d="M37.15,66.59l-.33-.33.63-.79.4.47a.48.48,0,0,1,0,.59h0A.48.48,0,0,1,37.15,66.59Z" style="fill: #f7bad5"/>
              <g>
                <path d="M34.59,67.26a1.27,1.27,0,0,1,1.17,0" style="fill: none;stroke: #f072a0;stroke-miterlimit: 10;stroke-width: 0.057178865204237px"/>
                <path d="M34.89,66.87a1.3,1.3,0,0,1,1.17,0" style="fill: none;stroke: #f072a0;stroke-miterlimit: 10;stroke-width: 0.057178865204237px"/>
                <path d="M35.19,66.48a1.3,1.3,0,0,1,1.17,0" style="fill: none;stroke: #f072a0;stroke-miterlimit: 10;stroke-width: 0.057178865204237px"/>
                <path d="M35.49,66.1a1.3,1.3,0,0,1,1.17,0" style="fill: none;stroke: #f072a0;stroke-miterlimit: 10;stroke-width: 0.057178865204237px"/>
                <path d="M35.79,65.71a1.3,1.3,0,0,1,1.17,0" style="fill: none;stroke: #f072a0;stroke-miterlimit: 10;stroke-width: 0.057178865204237px"/>
              </g>
              <line x1="35.05" y1="67.18" x2="36.38" y2="65.57" style="fill: none;stroke: #f072a0;stroke-miterlimit: 10;stroke-width: 0.057178865204237px"/>
              <path d="M35.94,67.33a1,1,0,0,0,.63.54.22.22,0,0,0,.11,0c.09,0,.08-.16,0-.24a1.54,1.54,0,0,0-.48-.65" style="fill: none;stroke: #f072a0;stroke-miterlimit: 10;stroke-width: 0.057178865204237px"/>
              <path d="M37,66a1,1,0,0,0,.34.34.31.31,0,0,0,.16.06.25.25,0,0,0,.2-.24.51.51,0,0,0-.15-.3l-.25-.23" style="fill: none;stroke: #f072a0;stroke-miterlimit: 10;stroke-width: 0.057178865204237px"/>
            </g>
            <g>
              <path d="M37.9,67.54l-.12.64c0,.06.07.1.1,0l.56-.69Z" style="fill: #613667"/>
              <path d="M39.49,67.54l-.91.24a.63.63,0,0,1-.68-.24h0l1.71-2.07.47-.24a.92.92,0,0,1,1.12.24h0Z" style="fill: #fff"/>
              <path d="M39.93,68l-.42-.45.64-.79.49.64a.46.46,0,0,1,0,.56h0A.46.46,0,0,1,39.93,68Z" style="fill: #f7bad5"/>
              <path d="M40.9,66.59l-.33-.33.63-.79.4.47a.48.48,0,0,1,0,.59h0A.48.48,0,0,1,40.9,66.59Z" style="fill: #f7bad5"/>
              <g>
                <path d="M38.34,67.26a1.27,1.27,0,0,1,1.17,0" style="fill: none;stroke: #f072a0;stroke-miterlimit: 10;stroke-width: 0.057178865204237px"/>
                <path d="M38.64,66.87a1.3,1.3,0,0,1,1.17,0" style="fill: none;stroke: #f072a0;stroke-miterlimit: 10;stroke-width: 0.057178865204237px"/>
                <path d="M38.94,66.48a1.3,1.3,0,0,1,1.17,0" style="fill: none;stroke: #f072a0;stroke-miterlimit: 10;stroke-width: 0.057178865204237px"/>
                <path d="M39.24,66.1a1.3,1.3,0,0,1,1.17,0" style="fill: none;stroke: #f072a0;stroke-miterlimit: 10;stroke-width: 0.057178865204237px"/>
                <path d="M39.54,65.71a1.3,1.3,0,0,1,1.17,0" style="fill: none;stroke: #f072a0;stroke-miterlimit: 10;stroke-width: 0.057178865204237px"/>
              </g>
              <line x1="38.8" y1="67.18" x2="40.13" y2="65.57" style="fill: none;stroke: #f072a0;stroke-miterlimit: 10;stroke-width: 0.057178865204237px"/>
              <path d="M39.69,67.33a1,1,0,0,0,.63.54.22.22,0,0,0,.11,0c.09,0,.08-.16,0-.24A1.46,1.46,0,0,0,40,67" style="fill: none;stroke: #f072a0;stroke-miterlimit: 10;stroke-width: 0.057178865204237px"/>
              <path d="M40.75,66a1,1,0,0,0,.34.34.31.31,0,0,0,.16.06.24.24,0,0,0,.2-.24.51.51,0,0,0-.15-.3l-.25-.23" style="fill: none;stroke: #f072a0;stroke-miterlimit: 10;stroke-width: 0.057178865204237px"/>
            </g>
            <g>
              <path d="M41.65,67.54l-.12.64a.06.06,0,0,0,.11,0l.55-.69Z" style="fill: #613667"/>
              <path d="M43.24,67.54l-.91.24a.64.64,0,0,1-.68-.24h0l1.71-2.07.48-.24a.91.91,0,0,1,1.11.24h0Z" style="fill: #fff"/>
              <path d="M43.68,68l-.41-.45.63-.79.49.64a.45.45,0,0,1,0,.56h0A.46.46,0,0,1,43.68,68Z" style="fill: #f7bad5"/>
              <path d="M44.65,66.59l-.33-.33.63-.79.4.47a.48.48,0,0,1,0,.59h0A.48.48,0,0,1,44.65,66.59Z" style="fill: #f7bad5"/>
              <g>
                <path d="M42.09,67.26a1.28,1.28,0,0,1,1.18,0" style="fill: none;stroke: #f072a0;stroke-miterlimit: 10;stroke-width: 0.057178865204237px"/>
                <path d="M42.39,66.87a1.32,1.32,0,0,1,1.18,0" style="fill: none;stroke: #f072a0;stroke-miterlimit: 10;stroke-width: 0.057178865204237px"/>
                <path d="M42.69,66.48a1.3,1.3,0,0,1,1.17,0" style="fill: none;stroke: #f072a0;stroke-miterlimit: 10;stroke-width: 0.057178865204237px"/>
                <path d="M43,66.1a1.3,1.3,0,0,1,1.17,0" style="fill: none;stroke: #f072a0;stroke-miterlimit: 10;stroke-width: 0.057178865204237px"/>
                <path d="M43.29,65.71a1.3,1.3,0,0,1,1.17,0" style="fill: none;stroke: #f072a0;stroke-miterlimit: 10;stroke-width: 0.057178865204237px"/>
              </g>
              <line x1="42.55" y1="67.18" x2="43.88" y2="65.57" style="fill: none;stroke: #f072a0;stroke-miterlimit: 10;stroke-width: 0.057178865204237px"/>
              <path d="M43.45,67.33a1,1,0,0,0,.62.54.22.22,0,0,0,.11,0c.09,0,.08-.16,0-.24a1.46,1.46,0,0,0-.48-.65" style="fill: none;stroke: #f072a0;stroke-miterlimit: 10;stroke-width: 0.057178865204237px"/>
              <path d="M44.5,66a1,1,0,0,0,.34.34.31.31,0,0,0,.16.06.24.24,0,0,0,.2-.24.51.51,0,0,0-.15-.3l-.25-.23" style="fill: none;stroke: #f072a0;stroke-miterlimit: 10;stroke-width: 0.057178865204237px"/>
            </g>
            <g>
              <path d="M45.4,67.54l-.12.64a.06.06,0,0,0,.11,0l.55-.69Z" style="fill: #613667"/>
              <path d="M47,67.54l-.91.24a.64.64,0,0,1-.68-.24h0l1.71-2.07.48-.24a.91.91,0,0,1,1.11.24h0Z" style="fill: #fff"/>
              <path d="M47.43,68,47,67.54l.63-.79.5.64a.46.46,0,0,1,0,.56h0A.46.46,0,0,1,47.43,68Z" style="fill: #f7bad5"/>
              <path d="M48.4,66.59l-.33-.33.63-.79.4.47a.48.48,0,0,1,0,.59h0A.48.48,0,0,1,48.4,66.59Z" style="fill: #f7bad5"/>
              <g>
                <path d="M45.85,67.26a1.26,1.26,0,0,1,1.17,0" style="fill: none;stroke: #f072a0;stroke-miterlimit: 10;stroke-width: 0.057178865204237px"/>
                <path d="M46.15,66.87a1.29,1.29,0,0,1,1.17,0" style="fill: none;stroke: #f072a0;stroke-miterlimit: 10;stroke-width: 0.057178865204237px"/>
                <path d="M46.44,66.48a1.32,1.32,0,0,1,1.18,0" style="fill: none;stroke: #f072a0;stroke-miterlimit: 10;stroke-width: 0.057178865204237px"/>
                <path d="M46.74,66.1a1.32,1.32,0,0,1,1.18,0" style="fill: none;stroke: #f072a0;stroke-miterlimit: 10;stroke-width: 0.057178865204237px"/>
                <path d="M47,65.71a1.32,1.32,0,0,1,1.18,0" style="fill: none;stroke: #f072a0;stroke-miterlimit: 10;stroke-width: 0.057178865204237px"/>
              </g>
              <line x1="46.3" y1="67.18" x2="47.63" y2="65.57" style="fill: none;stroke: #f072a0;stroke-miterlimit: 10;stroke-width: 0.057178865204237px"/>
              <path d="M47.2,67.33a1,1,0,0,0,.62.54.25.25,0,0,0,.12,0c.08,0,.07-.16,0-.24a1.56,1.56,0,0,0-.49-.65" style="fill: none;stroke: #f072a0;stroke-miterlimit: 10;stroke-width: 0.057178865204237px"/>
              <path d="M48.25,66a1,1,0,0,0,.34.34.31.31,0,0,0,.16.06.24.24,0,0,0,.2-.24.46.46,0,0,0-.15-.3l-.25-.23" style="fill: none;stroke: #f072a0;stroke-miterlimit: 10;stroke-width: 0.057178865204237px"/>
            </g>
            <g>
              <path d="M49.15,67.54l-.12.64a.06.06,0,0,0,.11,0l.55-.69Z" style="fill: #613667"/>
              <path d="M50.74,67.54l-.91.24a.64.64,0,0,1-.68-.24h0l1.71-2.07.48-.24a.92.92,0,0,1,1.12.24h0Z" style="fill: #fff"/>
              <path d="M51.18,68l-.41-.45.63-.79.5.64a.48.48,0,0,1,0,.56h0A.47.47,0,0,1,51.18,68Z" style="fill: #f7bad5"/>
              <path d="M52.15,66.59l-.33-.33.63-.79.4.47a.48.48,0,0,1,0,.59h0A.48.48,0,0,1,52.15,66.59Z" style="fill: #f7bad5"/>
              <g>
                <path d="M49.6,67.26a1.26,1.26,0,0,1,1.17,0" style="fill: none;stroke: #f072a0;stroke-miterlimit: 10;stroke-width: 0.057178865204237px"/>
                <path d="M49.9,66.87a1.29,1.29,0,0,1,1.17,0" style="fill: none;stroke: #f072a0;stroke-miterlimit: 10;stroke-width: 0.057178865204237px"/>
                <path d="M50.2,66.48a1.29,1.29,0,0,1,1.17,0" style="fill: none;stroke: #f072a0;stroke-miterlimit: 10;stroke-width: 0.057178865204237px"/>
                <path d="M50.5,66.1a1.29,1.29,0,0,1,1.17,0" style="fill: none;stroke: #f072a0;stroke-miterlimit: 10;stroke-width: 0.057178865204237px"/>
                <path d="M50.79,65.71a1.32,1.32,0,0,1,1.18,0" style="fill: none;stroke: #f072a0;stroke-miterlimit: 10;stroke-width: 0.057178865204237px"/>
              </g>
              <line x1="50.05" y1="67.18" x2="51.38" y2="65.57" style="fill: none;stroke: #f072a0;stroke-miterlimit: 10;stroke-width: 0.057178865204237px"/>
              <path d="M51,67.33a1,1,0,0,0,.62.54.25.25,0,0,0,.12,0c.08,0,.07-.16,0-.24a1.63,1.63,0,0,0-.48-.65" style="fill: none;stroke: #f072a0;stroke-miterlimit: 10;stroke-width: 0.057178865204237px"/>
              <path d="M52,66a.9.9,0,0,0,.33.34.35.35,0,0,0,.16.06.24.24,0,0,0,.2-.24.46.46,0,0,0-.15-.3l-.25-.23" style="fill: none;stroke: #f072a0;stroke-miterlimit: 10;stroke-width: 0.057178865204237px"/>
            </g>
          </g>
          <g>
            <g>
              <path d="M31.37,71l-.12.64a.06.06,0,0,0,.11,0l.55-.69Z" style="fill: #613667"/>
              <path d="M33,71l-.92.24a.64.64,0,0,1-.68-.24h0L33.08,69l.48-.24a.92.92,0,0,1,1.12.24h0Z" style="fill: #fff"/>
              <path d="M33.4,71.48,33,71l.63-.79.5.64a.48.48,0,0,1,0,.56h0A.47.47,0,0,1,33.4,71.48Z" style="fill: #f7bad5"/>
              <path d="M34.38,70.08,34,69.75l.63-.79.4.47a.48.48,0,0,1,0,.59h0A.47.47,0,0,1,34.38,70.08Z" style="fill: #f7bad5"/>
              <g>
                <path d="M31.82,70.75a1.26,1.26,0,0,1,1.17,0" style="fill: none;stroke: #f072a0;stroke-miterlimit: 10;stroke-width: 0.057178865204237px"/>
                <path d="M32.12,70.36a1.29,1.29,0,0,1,1.17,0" style="fill: none;stroke: #f072a0;stroke-miterlimit: 10;stroke-width: 0.057178865204237px"/>
                <path d="M32.42,70a1.29,1.29,0,0,1,1.17,0" style="fill: none;stroke: #f072a0;stroke-miterlimit: 10;stroke-width: 0.057178865204237px"/>
                <path d="M32.72,69.59a1.29,1.29,0,0,1,1.17,0" style="fill: none;stroke: #f072a0;stroke-miterlimit: 10;stroke-width: 0.057178865204237px"/>
                <path d="M33,69.2a1.29,1.29,0,0,1,1.17,0" style="fill: none;stroke: #f072a0;stroke-miterlimit: 10;stroke-width: 0.057178865204237px"/>
              </g>
              <line x1="32.27" y1="70.67" x2="33.6" y2="69.06" style="fill: none;stroke: #f072a0;stroke-miterlimit: 10;stroke-width: 0.057178865204237px"/>
              <path d="M33.17,70.82a1,1,0,0,0,.62.54.25.25,0,0,0,.12,0c.08,0,.07-.16,0-.24a1.63,1.63,0,0,0-.48-.65" style="fill: none;stroke: #f072a0;stroke-miterlimit: 10;stroke-width: 0.057178865204237px"/>
              <path d="M34.23,69.49a.9.9,0,0,0,.33.34.35.35,0,0,0,.17.06.24.24,0,0,0,.19-.24.46.46,0,0,0-.15-.3l-.25-.23" style="fill: none;stroke: #f072a0;stroke-miterlimit: 10;stroke-width: 0.057178865204237px"/>
            </g>
            <g>
              <path d="M35.12,71l-.12.64a.06.06,0,0,0,.11,0l.55-.69Z" style="fill: #613667"/>
              <path d="M36.72,71l-.92.24a.64.64,0,0,1-.68-.24h0L36.83,69l.48-.24a.92.92,0,0,1,1.12.24h0Z" style="fill: #fff"/>
              <path d="M37.15,71.48,36.74,71l.63-.79.5.64a.48.48,0,0,1,0,.56h0A.47.47,0,0,1,37.15,71.48Z" style="fill: #f7bad5"/>
              <path d="M38.13,70.08l-.34-.33.64-.79.39.47a.48.48,0,0,1,0,.59h0A.47.47,0,0,1,38.13,70.08Z" style="fill: #f7bad5"/>
              <g>
                <path d="M35.57,70.75a1.27,1.27,0,0,1,1.17,0" style="fill: none;stroke: #f072a0;stroke-miterlimit: 10;stroke-width: 0.057178865204237px"/>
                <path d="M35.87,70.36a1.29,1.29,0,0,1,1.17,0" style="fill: none;stroke: #f072a0;stroke-miterlimit: 10;stroke-width: 0.057178865204237px"/>
                <path d="M36.17,70a1.29,1.29,0,0,1,1.17,0" style="fill: none;stroke: #f072a0;stroke-miterlimit: 10;stroke-width: 0.057178865204237px"/>
                <path d="M36.47,69.59a1.29,1.29,0,0,1,1.17,0" style="fill: none;stroke: #f072a0;stroke-miterlimit: 10;stroke-width: 0.057178865204237px"/>
                <path d="M36.77,69.2a1.29,1.29,0,0,1,1.17,0" style="fill: none;stroke: #f072a0;stroke-miterlimit: 10;stroke-width: 0.057178865204237px"/>
              </g>
              <line x1="36.02" y1="70.67" x2="37.35" y2="69.06" style="fill: none;stroke: #f072a0;stroke-miterlimit: 10;stroke-width: 0.057178865204237px"/>
              <path d="M36.92,70.82a1,1,0,0,0,.62.54.25.25,0,0,0,.12,0c.08,0,.07-.16,0-.24a1.63,1.63,0,0,0-.48-.65" style="fill: none;stroke: #f072a0;stroke-miterlimit: 10;stroke-width: 0.057178865204237px"/>
              <path d="M38,69.49a.9.9,0,0,0,.33.34.35.35,0,0,0,.17.06.24.24,0,0,0,.19-.24.46.46,0,0,0-.15-.3c-.08-.08-.17-.15-.24-.23" style="fill: none;stroke: #f072a0;stroke-miterlimit: 10;stroke-width: 0.057178865204237px"/>
            </g>
            <g>
              <path d="M38.87,71l-.12.64a.06.06,0,0,0,.11,0l.55-.69Z" style="fill: #613667"/>
              <path d="M40.47,71l-.92.24a.64.64,0,0,1-.68-.24h0L40.58,69l.48-.24a.92.92,0,0,1,1.12.24h0Z" style="fill: #fff"/>
              <path d="M40.9,71.48,40.49,71l.63-.79.5.64a.46.46,0,0,1,0,.56h0A.47.47,0,0,1,40.9,71.48Z" style="fill: #f7bad5"/>
              <path d="M41.88,70.08l-.34-.33.64-.79.39.47a.48.48,0,0,1,0,.59h0A.47.47,0,0,1,41.88,70.08Z" style="fill: #f7bad5"/>
              <g>
                <path d="M39.32,70.75a1.27,1.27,0,0,1,1.17,0" style="fill: none;stroke: #f072a0;stroke-miterlimit: 10;stroke-width: 0.057178865204237px"/>
                <path d="M39.62,70.36a1.3,1.3,0,0,1,1.17,0" style="fill: none;stroke: #f072a0;stroke-miterlimit: 10;stroke-width: 0.057178865204237px"/>
                <path d="M39.92,70a1.3,1.3,0,0,1,1.17,0" style="fill: none;stroke: #f072a0;stroke-miterlimit: 10;stroke-width: 0.057178865204237px"/>
                <path d="M40.22,69.59a1.3,1.3,0,0,1,1.17,0" style="fill: none;stroke: #f072a0;stroke-miterlimit: 10;stroke-width: 0.057178865204237px"/>
                <path d="M40.52,69.2a1.29,1.29,0,0,1,1.17,0" style="fill: none;stroke: #f072a0;stroke-miterlimit: 10;stroke-width: 0.057178865204237px"/>
              </g>
              <line x1="39.77" y1="70.67" x2="41.1" y2="69.06" style="fill: none;stroke: #f072a0;stroke-miterlimit: 10;stroke-width: 0.057178865204237px"/>
              <path d="M40.67,70.82a1,1,0,0,0,.63.54.2.2,0,0,0,.11,0c.08,0,.07-.16,0-.24a1.63,1.63,0,0,0-.48-.65" style="fill: none;stroke: #f072a0;stroke-miterlimit: 10;stroke-width: 0.057178865204237px"/>
              <path d="M41.73,69.49a1,1,0,0,0,.33.34.35.35,0,0,0,.17.06.24.24,0,0,0,.19-.24.46.46,0,0,0-.15-.3c-.08-.08-.17-.15-.24-.23" style="fill: none;stroke: #f072a0;stroke-miterlimit: 10;stroke-width: 0.057178865204237px"/>
            </g>
            <g>
              <path d="M42.62,71l-.12.64a.06.06,0,0,0,.11,0l.55-.69Z" style="fill: #613667"/>
              <path d="M44.22,71l-.91.24a.65.65,0,0,1-.69-.24h0L44.33,69l.48-.24a.92.92,0,0,1,1.12.24h0Z" style="fill: #fff"/>
              <path d="M44.65,71.48,44.24,71l.63-.79.5.64a.46.46,0,0,1,0,.56h0A.47.47,0,0,1,44.65,71.48Z" style="fill: #f7bad5"/>
              <path d="M45.63,70.08l-.34-.33.64-.79.39.47a.48.48,0,0,1,0,.59h0A.47.47,0,0,1,45.63,70.08Z" style="fill: #f7bad5"/>
              <g>
                <path d="M43.07,70.75a1.27,1.27,0,0,1,1.17,0" style="fill: none;stroke: #f072a0;stroke-miterlimit: 10;stroke-width: 0.057178865204237px"/>
                <path d="M43.37,70.36a1.3,1.3,0,0,1,1.17,0" style="fill: none;stroke: #f072a0;stroke-miterlimit: 10;stroke-width: 0.057178865204237px"/>
                <path d="M43.67,70a1.3,1.3,0,0,1,1.17,0" style="fill: none;stroke: #f072a0;stroke-miterlimit: 10;stroke-width: 0.057178865204237px"/>
                <path d="M44,69.59a1.3,1.3,0,0,1,1.17,0" style="fill: none;stroke: #f072a0;stroke-miterlimit: 10;stroke-width: 0.057178865204237px"/>
                <path d="M44.27,69.2a1.3,1.3,0,0,1,1.17,0" style="fill: none;stroke: #f072a0;stroke-miterlimit: 10;stroke-width: 0.057178865204237px"/>
              </g>
              <line x1="43.52" y1="70.67" x2="44.85" y2="69.06" style="fill: none;stroke: #f072a0;stroke-miterlimit: 10;stroke-width: 0.057178865204237px"/>
              <path d="M44.42,70.82a1,1,0,0,0,.63.54.2.2,0,0,0,.11,0c.08,0,.07-.16,0-.24a1.63,1.63,0,0,0-.48-.65" style="fill: none;stroke: #f072a0;stroke-miterlimit: 10;stroke-width: 0.057178865204237px"/>
              <path d="M45.48,69.49a1,1,0,0,0,.33.34.35.35,0,0,0,.17.06.24.24,0,0,0,.19-.24.46.46,0,0,0-.15-.3c-.08-.08-.17-.15-.24-.23" style="fill: none;stroke: #f072a0;stroke-miterlimit: 10;stroke-width: 0.057178865204237px"/>
            </g>
            <g>
              <path d="M46.37,71l-.11.64a.06.06,0,0,0,.1,0l.55-.69Z" style="fill: #613667"/>
              <path d="M48,71l-.91.24a.65.65,0,0,1-.69-.24h0L48.08,69l.48-.24a.92.92,0,0,1,1.12.24h0Z" style="fill: #fff"/>
              <path d="M48.41,71.48,48,71l.63-.79.5.64a.46.46,0,0,1,0,.56h0A.46.46,0,0,1,48.41,71.48Z" style="fill: #f7bad5"/>
              <path d="M49.38,70.08,49,69.75l.64-.79.39.47a.5.5,0,0,1,0,.59h0A.48.48,0,0,1,49.38,70.08Z" style="fill: #f7bad5"/>
              <g>
                <path d="M46.82,70.75a1.27,1.27,0,0,1,1.17,0" style="fill: none;stroke: #f072a0;stroke-miterlimit: 10;stroke-width: 0.057178865204237px"/>
                <path d="M47.12,70.36a1.3,1.3,0,0,1,1.17,0" style="fill: none;stroke: #f072a0;stroke-miterlimit: 10;stroke-width: 0.057178865204237px"/>
                <path d="M47.42,70a1.3,1.3,0,0,1,1.17,0" style="fill: none;stroke: #f072a0;stroke-miterlimit: 10;stroke-width: 0.057178865204237px"/>
                <path d="M47.72,69.59a1.3,1.3,0,0,1,1.17,0" style="fill: none;stroke: #f072a0;stroke-miterlimit: 10;stroke-width: 0.057178865204237px"/>
                <path d="M48,69.2a1.3,1.3,0,0,1,1.17,0" style="fill: none;stroke: #f072a0;stroke-miterlimit: 10;stroke-width: 0.057178865204237px"/>
              </g>
              <line x1="47.28" y1="70.67" x2="48.6" y2="69.06" style="fill: none;stroke: #f072a0;stroke-miterlimit: 10;stroke-width: 0.057178865204237px"/>
              <path d="M48.17,70.82a1,1,0,0,0,.63.54.2.2,0,0,0,.11,0c.08,0,.07-.16,0-.24a1.63,1.63,0,0,0-.48-.65" style="fill: none;stroke: #f072a0;stroke-miterlimit: 10;stroke-width: 0.057178865204237px"/>
              <path d="M49.23,69.49a1,1,0,0,0,.33.34.35.35,0,0,0,.17.06.24.24,0,0,0,.19-.24.46.46,0,0,0-.15-.3c-.07-.08-.17-.15-.24-.23" style="fill: none;stroke: #f072a0;stroke-miterlimit: 10;stroke-width: 0.057178865204237px"/>
            </g>
          </g>
          <g>
            <g>
              <g>
                <path d="M57.77,58.81V57.25s.06-.07.13-.07h0c.08,0,.14,0,.14.07v1.68" style="fill: #fff;stroke: #f7bad5;stroke-miterlimit: 10;stroke-width: 0.057178865204237px"/>
                <rect x="57.77" y="57.18" width="0.27" height="0.19" rx="0.03" style="fill: #f072a0"/>
              </g>
              <g>
                <path d="M58.34,58.9V57.25s-.06-.07-.14-.07h0c-.07,0-.13,0-.13.07v1.59" style="fill: #fff;stroke: #f7bad5;stroke-miterlimit: 10;stroke-width: 0.057178865204237px"/>
                <path d="M58.26,57.37h-.17s0,0,0,0v-.1s.06,0,.07,0h.17s0,0,0,.05v.1S58.28,57.37,58.26,57.37Z" style="fill: #f072a0"/>
              </g>
              <g>
                <path d="M58.64,58.88V57.25s-.06-.07-.14-.07h0c-.07,0-.13,0-.13.07v1.61" style="fill: #fff;stroke: #f7bad5;stroke-miterlimit: 10;stroke-width: 0.057178865204237px"/>
                <path d="M58.52,57.37h-.13s0-.06,0-.07,0-.09,0-.09.09,0,.1,0h.14s0,.06,0,.07,0,.09,0,.09Z" style="fill: #f072a0"/>
              </g>
              <g>
                <path d="M58.94,58.86V57.25s-.06-.07-.14-.07h0c-.07,0-.13,0-.13.07v1.63" style="fill: #fff;stroke: #f7bad5;stroke-miterlimit: 10;stroke-width: 0.057178865204237px"/>
                <path d="M58.78,57.37l-.1,0s0-.08,0-.09,0-.07,0-.07h.13s.11,0,.11,0v.09s0,.07,0,.07Z" style="fill: #f072a0"/>
              </g>
              <g>
                <path d="M59.24,58.84V57.25s-.06-.07-.14-.07h0c-.07,0-.13,0-.13.07V58.9" style="fill: #fff;stroke: #f7bad5;stroke-miterlimit: 10;stroke-width: 0.057178865204237px"/>
                <path d="M59,57.37s-.07,0-.07,0v-.1s0-.05,0-.05h.18s.06,0,.06,0v.1s0,0,0,0Z" style="fill: #f072a0"/>
              </g>
              <g>
                <path d="M59.54,58.81V57.25s-.06-.07-.14-.07h0c-.07,0-.13,0-.13.07v1.68" style="fill: #fff;stroke: #f7bad5;stroke-miterlimit: 10;stroke-width: 0.057178865204237px"/>
                <rect x="59.27" y="57.18" width="0.27" height="0.19" rx="0.03" transform="translate(118.81 114.55) rotate(-180)" style="fill: #f072a0"/>
              </g>
            </g>
            <g>
              <path d="M57.34,59.2v3.15c0,.3.59.54,1.32.54S60,62.65,60,62.35V59.2Z" style="fill: #f7bad5"/>
              <ellipse cx="58.66" cy="59.2" rx="1.33" ry="0.54" style="fill: #f072a0"/>
              <ellipse cx="58.66" cy="59.14" rx="1.03" ry="0.42" style="fill: #613667"/>
              <path d="M60,60.24c0,.3-.59.54-1.33.54s-1.32-.24-1.32-.54" style="fill: none;stroke: #f072a0;stroke-miterlimit: 10;stroke-width: 0.057178865204237px"/>
              <path d="M60,61.41c0,.3-.59.55-1.33.55s-1.32-.25-1.32-.55" style="fill: none;stroke: #f072a0;stroke-miterlimit: 10;stroke-width: 0.057178865204237px"/>
            </g>
            <g>
              <g>
                <path d="M57.77,59.33V57.82s.06-.07.13-.07h0c.08,0,.14,0,.14.07v1.62" style="fill: #fff;stroke: #f7bad5;stroke-miterlimit: 10;stroke-width: 0.057178865204237px"/>
                <rect x="57.77" y="57.75" width="0.27" height="0.19" rx="0.03" style="fill: #f072a0"/>
              </g>
              <g>
                <path d="M58.34,59.55V57.83s-.06-.06-.14-.06h0c-.07,0-.13,0-.13.06v1.65" style="fill: #fff;stroke: #f7bad5;stroke-miterlimit: 10;stroke-width: 0.057178865204237px"/>
                <path d="M58.26,58h-.17s0,0,0-.06v-.1l.07,0h.17s0,0,0,0v.11Z" style="fill: #f072a0"/>
              </g>
              <g>
                <path d="M58.64,59.59V57.85s-.06-.07-.14-.07h0c-.07,0-.13,0-.13.07v1.72" style="fill: #fff;stroke: #f7bad5;stroke-miterlimit: 10;stroke-width: 0.057178865204237px"/>
                <path d="M58.52,58h-.13s0-.06,0-.07,0-.08,0-.08l.1,0h.14s0,.06,0,.07v.08S58.53,58,58.52,58Z" style="fill: #f072a0"/>
              </g>
              <g>
                <path d="M58.94,59.57V57.85s-.06-.07-.14-.07h0c-.07,0-.13,0-.13.07v1.74" style="fill: #fff;stroke: #f7bad5;stroke-miterlimit: 10;stroke-width: 0.057178865204237px"/>
                <path d="M58.78,58s-.1,0-.1,0,0-.08,0-.08,0-.07,0-.07h.13l.11,0s0,.07,0,.08,0,.07,0,.07Z" style="fill: #f072a0"/>
              </g>
              <g>
                <path d="M59.24,59.48V57.83s-.06-.06-.14-.06h0c-.07,0-.13,0-.13.06v1.72" style="fill: #fff;stroke: #f7bad5;stroke-miterlimit: 10;stroke-width: 0.057178865204237px"/>
                <path d="M59,58l-.07,0v-.11s0,0,0,0h.18l.06,0v.1s0,.06,0,.06Z" style="fill: #f072a0"/>
              </g>
              <g>
                <path d="M59.54,59.33V57.82s-.06-.07-.14-.07h0c-.07,0-.13,0-.13.07V59.5" style="fill: #fff;stroke: #f7bad5;stroke-miterlimit: 10;stroke-width: 0.057178865204237px"/>
                <rect x="59.27" y="57.75" width="0.27" height="0.19" rx="0.03" transform="translate(118.81 115.69) rotate(-180)" style="fill: #f072a0"/>
              </g>
            </g>
          </g>
          <g>
            <polygon points="65.94 62.36 60.02 62.36 61.39 60.82 67.31 60.82 65.94 62.36" style="fill: #fff"/>
            <rect x="62.48" y="61.38" width="2.37" height="0.42" rx="0.21" style="fill: #613667"/>
            <path d="M60,62.36v1.78a.54.54,0,0,0,.55.55H61a.55.55,0,0,0,.55-.55h0a.61.61,0,0,1,.62-.61h1.66a.61.61,0,0,1,.62.61h0a.55.55,0,0,0,.55.55h1V62.36Z" style="fill: #f072a0"/>
            <path d="M67.27,60.85v1.78a1.45,1.45,0,0,1-.13.69l-.09.1c-.07.08-.12-.1-.12-.4h0c0-.35-.06-.55-.14-.46l-.37.42a1.65,1.65,0,0,0-.14.78h0a1.63,1.63,0,0,1-.12.69l-.22.24V62.36Z" style="fill: #f7bad5"/>
          </g>
          <g>
            <polygon points="62.98 67.37 57.06 67.37 58.43 65.83 64.34 65.83 62.98 67.37" style="fill: #fff"/>
            <rect x="59.52" y="66.4" width="2.37" height="0.42" rx="0.21" style="fill: #613667"/>
            <path d="M57.06,67.37v1.79a.55.55,0,0,0,.55.54H58a.55.55,0,0,0,.55-.54h0a.62.62,0,0,1,.62-.62h1.66a.62.62,0,0,1,.62.62h0a.55.55,0,0,0,.55.54h1V67.37Z" style="fill: #f072a0"/>
            <path d="M64.31,65.86v1.78a1.42,1.42,0,0,1-.13.69l-.09.11C64,68.51,64,68.33,64,68h0c0-.34-.06-.55-.14-.46l-.37.42a1.65,1.65,0,0,0-.14.78h0a1.63,1.63,0,0,1-.12.69L63,69.7V67.37Z" style="fill: #f7bad5"/>
          </g>
          <g>
            <path d="M58.36,64.14a.3.3,0,0,0,0-.13.42.42,0,0,0-.09-.14l-.08-.07,0,0-.06,0,0,0a.92.92,0,0,0-.66,0l-.1,0-.11,0-.1,0-.19.07a1.92,1.92,0,0,0-.32.14,2.09,2.09,0,0,0-.26.13.74.74,0,0,0-.28.28l-.2.27a5.09,5.09,0,0,0-.31.55,3,3,0,0,1-.4.55c-.16.18-.39.36-.6.55a3.63,3.63,0,0,0-.28.27c-.09.09-.16.18-.24.27a1.1,1.1,0,0,0-.18.28.65.65,0,0,0,0,.27.8.8,0,0,0,.08.28h0c.11.18.53.18,1,0h0l.54-.28a3.84,3.84,0,0,0,.42-.27,1.85,1.85,0,0,0,.28-.28l.23-.27a2.11,2.11,0,0,0,.18-.27,2.86,2.86,0,0,1,.33-.55,3.4,3.4,0,0,1,.53-.55c.21-.18.43-.37.62-.55l.26-.27A.6.6,0,0,0,58.36,64.14Z" style="fill: #f072a0"/>
            <path d="M58.36,63.76a.34.34,0,0,0,0-.14.51.51,0,0,0-.09-.13.27.27,0,0,0-.08-.07l0,0-.06,0,0,0a.92.92,0,0,0-.66,0l-.1,0-.11,0-.1,0-.19.07-.32.13a2,2,0,0,0-.26.14A.81.81,0,0,0,56,64l-.2.28a4.29,4.29,0,0,0-.31.55,2.68,2.68,0,0,1-.4.54,5.37,5.37,0,0,1-.6.55,2.47,2.47,0,0,0-.28.28c-.09.09-.16.18-.24.27a1.06,1.06,0,0,0-.18.27.72.72,0,0,0,0,.28.7.7,0,0,0,.08.27h0c.11.18.53.18,1,0h0a5.42,5.42,0,0,0,.54-.27,2.78,2.78,0,0,0,.42-.28A1.82,1.82,0,0,0,56,66.5l.23-.27a3.23,3.23,0,0,0,.18-.28,3.64,3.64,0,0,1,.33-.55,3.82,3.82,0,0,1,.53-.54c.21-.19.43-.37.62-.55l.26-.28A.53.53,0,0,0,58.36,63.76Z" style="fill: #b189bd"/>
            <path d="M53.83,67.33a1.69,1.69,0,0,1,1-2.32s1.6-.22,1.61.94a4,4,0,0,1-1.11,1.1C54.79,67.33,54.54,67.73,53.83,67.33Z" style="fill: #f072a0"/>
          </g>
        </g>
        <g>
          <g>
            <path d="M42.94,23.57c-4.16,0-7.53,1.25-7.53,2.79H37c0-1.22,2.67-2.21,6-2.21s6,1,6,2.21h1.56C50.48,24.82,47.11,23.57,42.94,23.57Z" style="fill: #4fafa5"/>
            <path d="M42.94,19.3a10,10,0,0,1,1.54,10.19" style="fill: none;stroke: #613667;stroke-miterlimit: 10;stroke-width: 0.765349132578413px"/>
            <path d="M42.83,19.3a10,10,0,0,0-1.47,10.35" style="fill: none;stroke: #613667;stroke-miterlimit: 10;stroke-width: 0.765349132578413px"/>
            <path d="M42.94,28.58c3.3,0,6-1,6-2.22H37C37,27.59,39.64,28.58,42.94,28.58Z" style="fill: none"/>
            <polygon points="49.71 41.2 39.32 41.2 32.74 44.59 36.53 47.97 46.92 47.97 53.51 44.59 49.71 41.2" style="fill: #fff;stroke: #231f20;stroke-miterlimit: 10;stroke-width: 0.031492580188324px"/>
            <polygon points="49.71 31.5 39.32 31.5 32.74 34.89 36.53 38.28 46.92 38.28 53.51 34.89 49.71 31.5" style="fill: #fff;stroke: #231f20;stroke-miterlimit: 10;stroke-width: 0.031492580188324px"/>
            <rect x="36.54" y="38.28" width="10.39" height="13.16" style="fill: #f7bad5"/>
            <polygon points="32.74 34.89 32.74 47.96 36.53 51.35 36.53 38.28 32.74 34.89" style="fill: #b189bd"/>
            <polygon points="46.92 38.28 53.51 34.89 53.51 48.12 46.92 51.51 46.92 38.28" style="fill: #fff"/>
            <rect x="39.86" y="41.02" width="3.74" height="4.48" style="fill: #f072a0"/>
            <rect x="40.34" y="41.56" width="2.79" height="3.41" style="fill: #613667"/>
            <g>
              <polygon points="54.29 34.82 50.95 31.84 38.6 31.84 32.82 34.82 30.78 34.82 30.78 35.87 35.29 39.89 47.64 39.89 55.47 35.87 55.47 34.82 54.29 34.82" style="fill: #4fafa5"/>
              <polygon points="50.95 30.79 38.6 30.79 30.78 34.82 35.29 38.84 47.64 38.84 55.47 34.82 50.95 30.79" style="fill: #fff"/>
            </g>
            <rect x="40.47" y="29.96" width="1.09" height="7.22" rx="0.49" style="fill: #f7bad5"/>
            <rect x="44.28" y="29.96" width="1.09" height="7.22" rx="0.49" style="fill: #f7bad5"/>
            <g>
              <rect x="35.37" y="27.48" width="1.09" height="7.22" rx="0.49" style="fill: #f072a0"/>
              <rect x="36.19" y="29.04" width="1.09" height="7.22" rx="0.49" style="fill: #f7bad5"/>
            </g>
            <g>
              <rect x="49.41" y="27.48" width="1.09" height="7.22" rx="0.49" transform="translate(99.91 62.18) rotate(180)" style="fill: #f072a0"/>
              <rect x="48.59" y="29.04" width="1.09" height="7.22" rx="0.49" transform="translate(98.27 65.3) rotate(180)" style="fill: #f7bad5"/>
            </g>
            <path d="M48.92,26.36c0,1.23-2.68,2.22-6,2.22s-6-1-6-2.22H35.41V28.3c0,1.54,3.37,2.79,7.53,2.79s7.54-1.25,7.54-2.79V26.36Z" style="fill: #f7bad5"/>
            <path d="M37.53,23.6a11.31,11.31,0,0,0,10.84,0" style="fill: none;stroke: #613667;stroke-miterlimit: 10;stroke-width: 0.420942022918129px"/>
            <path d="M37.51,27.68c0-3.47.55-8.38,5.43-8.38,5.13,0,5.43,4.91,5.43,8.38" style="fill: none;stroke: #613667;stroke-miterlimit: 10;stroke-width: 0.900026314165869px"/>
            <path d="M37.53,26.24a11.31,11.31,0,0,0,10.84,0" style="fill: none;stroke: #613667;stroke-miterlimit: 10;stroke-width: 0.420942022918129px"/>
            <path d="M38.82,21.21a10.5,10.5,0,0,0,8.39,0" style="fill: none;stroke: #613667;stroke-miterlimit: 10;stroke-width: 0.420942022918129px"/>
            <ellipse cx="42.94" cy="19.66" rx="1.44" ry="0.8" style="fill: #fff"/>
            <ellipse cx="42.95" cy="18.86" rx="0.69" ry="0.8" style="fill: #613667"/>
            <path d="M42.94,28.58c-3.3,0-6-1-6-2.22H35.41c0,1.55,3.37,2.79,7.53,2.79s7.54-1.24,7.54-2.79H48.92C48.92,27.59,46.24,28.58,42.94,28.58Z" style="fill: #b189bd"/>
            <path d="M49.54,27.85a6.68,6.68,0,0,1,.67-3.35c.37-.56.67,0,.67,1.33" style="fill: #b189bd"/>
            <ellipse cx="50.29" cy="26.84" rx="2.1" ry="0.5" transform="translate(18.14 73.91) rotate(-83.75)" style="fill: #fff"/>
            <g>
              <line x1="50.29" y1="24.92" x2="50.29" y2="25.39" style="fill: none;stroke: #613667;stroke-miterlimit: 10;stroke-width: 0.078987720955645px"/>
              <line x1="50.29" y1="28.29" x2="50.29" y2="28.76" style="fill: none;stroke: #613667;stroke-miterlimit: 10;stroke-width: 0.078987720955645px"/>
            </g>
            <g>
              <line x1="50.84" y1="26.01" x2="50.71" y2="26.21" style="fill: none;stroke: #613667;stroke-miterlimit: 10;stroke-width: 0.078987720955645px"/>
              <line x1="49.88" y1="27.46" x2="49.75" y2="27.67" style="fill: none;stroke: #613667;stroke-miterlimit: 10;stroke-width: 0.078987720955645px"/>
            </g>
            <g>
              <line x1="50.68" y1="27.61" x2="50.58" y2="27.42" style="fill: none;stroke: #613667;stroke-miterlimit: 10;stroke-width: 0.078987720955645px"/>
              <line x1="50" y1="26.25" x2="49.91" y2="26.07" style="fill: none;stroke: #613667;stroke-miterlimit: 10;stroke-width: 0.078987720955645px"/>
            </g>
            <g>
              <line x1="49.91" y1="28.78" x2="50" y2="28.31" style="fill: none;stroke: #613667;stroke-miterlimit: 10;stroke-width: 0.078987720955645px"/>
              <line x1="50.58" y1="25.37" x2="50.68" y2="24.9" style="fill: none;stroke: #613667;stroke-miterlimit: 10;stroke-width: 0.078987720955645px"/>
            </g>
            <polygon points="50.29 25.57 50.37 26.84 50.21 26.84 50.29 25.57 50.29 25.57" style="fill: #f072a0"/>
            <polygon points="50.57 26.42 50.36 26.88 50.23 26.8 50.57 26.42 50.57 26.42" style="fill: #f072a0"/>
            <path d="M50.43,24.29h-.89c-.36.06-.86,1.18-.86,3.15l.87.07S49.67,24.85,50.43,24.29Z" style="fill: #f7bad5"/>
            <path d="M36.66,27.88a6.71,6.71,0,0,0-.3-3.4c-.3-.59-.66,0-.8,1.26" style="fill: #b189bd"/>
            <ellipse cx="36.03" cy="26.8" rx="0.5" ry="2.1" style="fill: #fff"/>
            <g>
              <line x1="35.57" y1="25.92" x2="35.68" y2="26.13" style="fill: none;stroke: #613667;stroke-miterlimit: 10;stroke-width: 0.078987720955645px"/>
              <line x1="36.37" y1="27.47" x2="36.48" y2="27.68" style="fill: none;stroke: #613667;stroke-miterlimit: 10;stroke-width: 0.078987720955645px"/>
            </g>
            <g>
              <line x1="35.56" y1="27.53" x2="35.67" y2="27.35" style="fill: none;stroke: #613667;stroke-miterlimit: 10;stroke-width: 0.078987720955645px"/>
              <line x1="36.38" y1="26.25" x2="36.5" y2="26.07" style="fill: none;stroke: #613667;stroke-miterlimit: 10;stroke-width: 0.078987720955645px"/>
            </g>
            <path d="M36.17,24.25l.88.1c.36.09.73,1.26.52,3.22l-.88,0S36.86,24.89,36.17,24.25Z" style="fill: #f7bad5"/>
            <g>
              <g>
                <path d="M40.6,29.07a2.34,2.34,0,0,1,4.67,0" style="fill: #b189bd"/>
                <circle cx="42.93" cy="29.07" r="1.92" style="fill: #fff"/>
              </g>
              <g>
                <line x1="42.93" y1="27.15" x2="42.93" y2="27.62" style="fill: none;stroke: #613667;stroke-miterlimit: 10;stroke-width: 0.123674455848672px"/>
                <line x1="42.93" y1="30.53" x2="42.93" y2="31" style="fill: none;stroke: #613667;stroke-miterlimit: 10;stroke-width: 0.123674455848672px"/>
              </g>
              <g>
                <line x1="44.86" y1="29.07" x2="44.39" y2="29.07" style="fill: none;stroke: #613667;stroke-miterlimit: 10;stroke-width: 0.123674455848672px"/>
                <line x1="41.48" y1="29.07" x2="41.01" y2="29.07" style="fill: none;stroke: #613667;stroke-miterlimit: 10;stroke-width: 0.123674455848672px"/>
              </g>
              <g>
                <line x1="44.29" y1="30.43" x2="43.96" y2="30.1" style="fill: none;stroke: #613667;stroke-miterlimit: 10;stroke-width: 0.123674455848672px"/>
                <line x1="41.91" y1="28.05" x2="41.57" y2="27.72" style="fill: none;stroke: #613667;stroke-miterlimit: 10;stroke-width: 0.123674455848672px"/>
              </g>
              <g>
                <line x1="41.57" y1="30.43" x2="41.91" y2="30.1" style="fill: none;stroke: #613667;stroke-miterlimit: 10;stroke-width: 0.123674455848672px"/>
                <line x1="43.96" y1="28.05" x2="44.29" y2="27.72" style="fill: none;stroke: #613667;stroke-miterlimit: 10;stroke-width: 0.123674455848672px"/>
              </g>
              <polygon points="42.93 27.8 43.06 29.07 42.81 29.07 42.93 27.8 42.93 27.8" style="fill: #f072a0"/>
              <polygon points="43.91 29.07 42.93 29.2 42.93 28.95 43.91 29.07 43.91 29.07" style="fill: #f072a0"/>
            </g>
            <g>
              <path d="M41.73,43.63h-.86s0,0,0,0V41.88s0,0,0,0h1.72s0,0,0,0V43.6a0,0,0,0,1,0,0Zm-.3-.89V43s0,0,0,0H42a0,0,0,0,0,0,0v-.54a0,0,0,0,0,0,0h-.54a0,0,0,0,0,0,0Zm1.11-.14v-.12s0,0,0,0l-.07,0s0,0,0,0l0,0h0a.12.12,0,0,0,.06-.15v0a.06.06,0,0,0-.09,0l0,.06a.77.77,0,0,1-.07.16.15.15,0,0,1-.21.06s0,0,0,0v.13s0,0,0,0h.1s0,0,0,0h-.09s0,.06,0,.07l.16.07s0,0,0,0a.07.07,0,0,0-.06-.08l0,0h0l.2,0h0l-.08,0s0,0,0,.06l.16.07s0,0,0,0v-.12s0-.06,0-.07a.18.18,0,0,0-.1,0s0,0,0,0h.12s0,0,0,0Zm-1.62,0v.08s0,0,0,0h.14v0h0a.15.15,0,0,0-.12.17S41,43,41,43a.12.12,0,0,0,.08-.06.75.75,0,0,1,.09-.15c.05-.06.1-.08.16,0s0,0,0,0a.48.48,0,0,1,0-.12.11.11,0,0,0-.05-.1l-.11-.07-.25-.15s0,0,0,0v.09s0,.07,0,.08l.1.05,0,0h0l-.12,0s0,0,0,0Zm1.22-.51a.27.27,0,0,0,.13,0l.06-.05s0,0,0,0,0,0,0,0l-.12.16,0,0s0,0,0,0,0,0,0,0,0,0,0-.05,0,0,0,0a.07.07,0,0,0-.08,0,.54.54,0,0,1-.07.13s0,0,0,0a.24.24,0,0,0,.15,0l0,0h0s0,0,0,0l-.05,0a.27.27,0,0,0-.07.08.09.09,0,0,0,0,.1.07.07,0,0,0,.09,0,.2.2,0,0,0,.06-.07,1.11,1.11,0,0,1,.07-.16.14.14,0,0,1,.17-.07s0,0,0,0V42s0,0,0,0l-.11.12s0,0,0,0,0,0,0,0a.86.86,0,0,0,.07-.1s0,0,0,0h-.2ZM41,41.92h0c-.06,0,0,0,0,.06s0,0,0,.05l0,0s0,0,0,0,0,0,0,0h0a0,0,0,0,0,0,0v.06s0,0,0,0l.19.12.16.1s.05,0,.06,0a0,0,0,0,1,0,0s0,0,0,0v0L41.15,42C41.11,42,41.07,41.91,41,41.92Zm0,1.45s0,0,.06,0l.09,0s0,0,0,0a1.49,1.49,0,0,0,.12-.14.33.33,0,0,0,.07-.13c0-.06,0-.09-.08-.07s0,0,0,0a.84.84,0,0,0-.29.27.18.18,0,0,0,0,.12s0,0,0,0a.21.21,0,0,0,.11,0,0,0,0,0,0,0,0A.12.12,0,0,0,41,43.37Zm.54-1.24h0V42s0,0,0,0H41.2s0,0,0,0l.06.07.2.28s0,0,0,0,0,0,0,0Zm.36,0h0v.17s0,0,0,0a0,0,0,0,0,0,0l0-.06.15-.28s0,0,0,0l0,0h-.19s0,0,0,0Zm-.25,1c-.07,0-.07,0-.1.07a.75.75,0,0,1-.05.16.29.29,0,0,1,0,.09c0,.06,0,.09.07.08s.07-.05.09-.08l0-.1a1.09,1.09,0,0,0,0-.17s0-.05,0-.05Zm.92.1h0v0c0-.06,0-.08-.07-.1L42.36,43,42.18,43s-.07,0-.07,0h0s0,0,0,0a.13.13,0,0,1,.18.07.19.19,0,0,1,0,.13s0,0,0,0l.17.05s0,0,0,0Zm-1.62,0,0,0a.7.7,0,0,1,.16-.14.34.34,0,0,1,.19-.07s0,0,.05,0a.13.13,0,0,0,0-.06h0s0,0,0,0l-.08,0s0,0,0,0l0,0h0a.12.12,0,0,0,.07-.07s0-.06,0-.07,0,0-.06,0l0,.06a.57.57,0,0,1-.08.13.15.15,0,0,1-.19.06h0s0,0,0,0Zm1.55.29h0c.07,0,.07,0,.07-.07a.09.09,0,0,0,0-.08.53.53,0,0,0-.17-.08.08.08,0,0,0-.08,0s0,0,0,.07l0,0a.27.27,0,0,0,.07.08A.2.2,0,0,0,42.47,43.55Zm-.57-.43h0l0,0c.07.11.14.22.2.33s.05.06.1.06,0,0,0-.06,0,0,0,0l-.09-.14c-.05,0-.08-.12-.13-.17A.09.09,0,0,0,41.9,43.12Zm-.34.42h.12s0,0,.06,0l0-.16c0-.06,0-.13,0-.2s0,0,0,0,0,0-.06.05a.56.56,0,0,0,0,.12A.36.36,0,0,1,41.56,43.54Zm-.17,0a.15.15,0,0,1,0-.14c0-.08,0-.17.08-.25a0,0,0,0,0,0,0h0s0,0,0,0a.26.26,0,0,1,0,.15.93.93,0,0,1-.16.18s0,0,0,0a0,0,0,0,0,.06,0s0,0,0,0,0,0,0,0Zm.3-1.33h0c0-.09.06-.19.1-.28l0,0h-.17s0,0,0,0,0,.09,0,.13Zm.59,1a.16.16,0,0,0-.09-.11.09.09,0,0,0-.07,0l0,0s0,0,0,0l.08.12a0,0,0,0,0,0,0l.06,0A.06.06,0,0,0,42.28,43.2Zm-.38.35H42s0,0,0,0l0-.07,0,0h-.08c-.05,0-.06,0-.06,0v0s0,0,0,0ZM41.54,42h0v.21c0,.09,0,.1.1.1s0,0,0,0S41.58,42.14,41.54,42Zm.28,0h0l-.1.28s0,0,0,0h.05s0,0,0,0Zm0,1.18s0,.08,0,.12h.09s0,0,0,0Z" style="fill: #f7bad5"/>
              <path d="M41.66,42.73l-.08,0s0,0,0,0,0,0,0,0l.09.06h0l.15-.1s0,0,.06,0,0,0,0,0l-.12.08s0,0,0,0,0,0,0,0v0s0,0,0,0,0,0-.07,0a0,0,0,0,1,0,0S41.62,42.75,41.66,42.73Z" style="fill: #f7bad5"/>
            </g>
            <g>
              <path d="M41.9,44.09a.66.66,0,0,1-.06.27,3,3,0,0,0,0-.52.19.19,0,0,0,.13,0l0-.06s.06,0,.06.06.07,0,.08,0h0l0,.06h-.07s0,0,0,0h0l0-.05,0,.07h-.07V44l0,0H42V44s0,0,0,0,0,.06,0,.06a.48.48,0,0,0,.12,0h0l0,0,0,.07h0c0,.07,0,.14,0,.19l0,.08h0a.23.23,0,0,1-.07-.07H42l0,0s-.07.06-.14,0l.07-.06s0,0,0,0v-.16Zm0-.19s0,0,0,0v0Zm.08,0v0h0v0Zm0,.3v0h0S42.05,44.2,42,44.2Zm0-.2s0,0,0,0S42,44,42,44Zm0,.14,0,0h0v0Zm-.09-.06h0l0,0h0s0,0,0,0Zm.14,0h0v0Zm-.11.15s0,0,0,0S42,44.22,42,44.24Zm0-.1h0l0,0,0,0h0Z" style="fill: #f7bad5"/>
              <path d="M42.49,44.3l-.07.06h0l.06-.08,0-.1a.2.2,0,0,1-.11.13h0l.08-.13h0l0,0,0,0h0l.05-.08h0l-.1.1v-.09s0,0,0-.07V44h0v0h0v-.15h0v0s0,.06,0,.08l0,0v-.13c.08,0,.08,0,.12,0s0,0,0,.07V44l0,.06h-.09s-.05,0-.05,0,.08,0,.1,0,0,0,0,.07a.34.34,0,0,1,0,.1.09.09,0,0,1,0,.07s0,0,0,0Zm.07-.25h0a0,0,0,0,0-.07,0h0s0,0,0,0,0,0,0,0h0v.07A.23.23,0,0,0,42.56,44.05Zm0-.1h-.06v0h.06Zm-.06,0h.06v-.05h-.06Zm.08.27h0l0,.1s0,0,0,0A.17.17,0,0,0,42.55,44.19Zm-.11-.09h0v0Z" style="fill: #f7bad5"/>
              <path d="M41.13,44h-.05l.05.1h-.05a.57.57,0,0,1,0,.13v.06l0,0,0-.08h0v-.14H41v.11l0,0v0l0,0s0,0,0,0v0l0,0,0,0v-.43l0,0,0,0s0,.07.07,0V43.8l0,0a0,0,0,0,1,0,0l0,0h0l0,0,0,.07h-.07V44h0l0-.06ZM41,44c0,.07,0,.07.06.07h0V44Zm0-.12v0s0,0,0,0v-.08Zm0,.21v-.06h0v.12h0a0,0,0,0,0,0,0Zm0-.17v-.07l0,0V44l0,0Z" style="fill: #f7bad5"/>
              <path d="M41.5,44a.6.6,0,0,0,.06.23l0-.09h0v0a.53.53,0,0,1,0,.13s0,0,0,0h0a.08.08,0,0,1,0,0,.6.6,0,0,1-.06-.23v0l-.06,0v.28l0,0,0,0v-.29l0,.06h0l0-.1,0-.1a.43.43,0,0,1,0-.11l0,0v0a.16.16,0,0,0,0,.12s0,0,0,0,.07,0,.07,0v-.16s0,0,.06,0h0s.07,0,0,.1a0,0,0,0,0,0,0s0,0,0,0Zm0-.18h0V44s.06,0,0,0A1,1,0,0,1,41.51,43.85Z" style="fill: #f7bad5"/>
              <path d="M41,44.15a.08.08,0,0,1,.06.1l0,0,0,0S41,44.18,41,44.15Z" style="fill: #f7bad5"/>
            </g>
            <g>
              <path d="M40.7,44.53h0s0,0,0,.07,0,0,0,.07h0v-.06h-.05v.06h-.05s0-.12,0-.14h.05v.06h.05S40.72,44.55,40.7,44.53Z" style="fill: #f7bad5"/>
              <path d="M41.14,44.53h0v.06h0l.05-.05v0h0l-.07.06.07.08h-.06s0,0,0-.06h0v.06h0A.17.17,0,0,0,41.14,44.53Z" style="fill: #f7bad5"/>
              <path d="M42,44.67h0V44.6h0v.07h0V44.6h0v.07h0v-.1h0a0,0,0,0,1,0,0h0s0,0,0,0v0A0,0,0,0,1,42,44.67Z" style="fill: #f7bad5"/>
              <path d="M41.53,44.64a0,0,0,0,1,0,0s0,0,.05,0h0v0a0,0,0,0,1,0,0h0l0,0s0,0,0,0h-.07S41.49,44.65,41.53,44.64Zm0,0v0a0,0,0,0,0,0,0s0,0,0,0,0,0,0,0h0Zm0,.08Z" style="fill: #f7bad5"/>
              <path d="M41,44.63a0,0,0,0,1,0,0s0,0,0,0h0v0l0,0h0a0,0,0,0,1,0,0s0,0,0,0H41A.2.2,0,0,1,41,44.63Zm0,0h0l0,0s0,0,0,0v0a0,0,0,0,1,0,0h0Zm0,.07Z" style="fill: #f7bad5"/>
              <path d="M42.44,44.71h0v-.05s0,0-.06,0,0-.06,0-.06h.06v.13Zm0-.09h0v0s0,0,0,0h0v.07s0,0,0,0Z" style="fill: #f7bad5"/>
              <path d="M42.32,44.54v0s0,0,0,0l0,0h0a0,0,0,0,0,0,0l0,0s0,0,0,.06a0,0,0,0,1-.06,0h0v0a0,0,0,0,0,0,0l0,0h0v0l0,0s0-.05,0-.06h.06Z" style="fill: #f7bad5"/>
              <path d="M41.75,44.67h-.06s0,0,0,0v-.11s0,0,0,0v0h.12v0s0,0,0,0A.18.18,0,0,0,41.75,44.67Z" style="fill: #f7bad5"/>
              <path d="M42.55,44.67h0s0,0,0,0v-.06h0v0h0Z" style="fill: #f7bad5"/>
              <path d="M40.88,44.57h0s0,0,0,0v0a0,0,0,0,0,0,0h0V44.6h0v.07h0Z" style="fill: #f7bad5"/>
              <path d="M41.4,44.67v-.1h0s0,0,0,0v.07h0a.16.16,0,0,0,0-.07h0v.07Z" style="fill: #f7bad5"/>
              <path d="M42.66,44.66a0,0,0,0,1,0,0h0a0,0,0,0,1,0,0s0,0,0,0,0,0,0,0h0s0,0,0,0a0,0,0,0,1,0,0v.06Zm0,0h0v0h0Z" style="fill: #f7bad5"/>
              <path d="M41.38,44.62a0,0,0,0,1,0,.05,0,0,0,1,1,0-.1A0,0,0,0,1,41.38,44.62Zm0,0v0h0v.06h0Z" style="fill: #f7bad5"/>
              <path d="M40.86,44.62a0,0,0,0,1,0,.05.05.05,0,0,1,0-.1A0,0,0,0,1,40.86,44.62Zm0,0v0h0a0,0,0,0,1,0,0v.06h0Z" style="fill: #f7bad5"/>
              <path d="M42.84,44.65a0,0,0,0,1-.05,0,.06.06,0,0,1,0-.06.07.07,0,0,1,.05,0s0,0,0,0h-.05s0,0,0,0Zm0,0v0l0,0Z" style="fill: #f7bad5"/>
              <path d="M42.09,44.62H42s0,0,0,0h0a.05.05,0,0,1,0,0s0,0,0-.06a0,0,0,0,1,0,0S42.09,44.59,42.09,44.62Zm-.05,0h0v0Z" style="fill: #f7bad5"/>
              <path d="M42.17,44.61l0,0s0,0,0,0h0l0,0s0,0,0,0h-.06v0l0,0h0v0l0,0s0,0,0,0l0,0h0Z" style="fill: #f7bad5"/>
              <path d="M42.72,44.67h0v-.1h0A.08.08,0,0,0,42.72,44.67Z" style="fill: #f7bad5"/>
              <path d="M41.83,44.58v.09h0v-.09Z" style="fill: #f7bad5"/>
              <path d="M41.84,44.55h0l0,0Z" style="fill: #f7bad5"/>
            </g>
          </g>
          <g>
            <line x1="36.24" y1="24.89" x2="36.19" y2="25.35" style="fill: none;stroke: #613667;stroke-miterlimit: 10;stroke-width: 0.078987720955645px"/>
            <line x1="35.87" y1="28.24" x2="35.82" y2="28.71" style="fill: none;stroke: #613667;stroke-miterlimit: 10;stroke-width: 0.078987720955645px"/>
          </g>
          <g>
            <line x1="36.2" y1="28.77" x2="36.16" y2="28.29" style="fill: none;stroke: #613667;stroke-miterlimit: 10;stroke-width: 0.078987720955645px"/>
            <line x1="35.9" y1="25.31" x2="35.85" y2="24.83" style="fill: none;stroke: #613667;stroke-miterlimit: 10;stroke-width: 0.078987720955645px"/>
          </g>
          <polygon points="36.16 25.54 36.1 26.81 35.95 26.79 36.16 25.54 36.16 25.54" style="fill: #f072a0"/>
          <polygon points="35.8 26.35 36.1 26.76 35.96 26.84 35.8 26.35 35.8 26.35" style="fill: #f072a0"/>
        </g>
        <g>
          <g>
            <polygon points="27.8 55.21 24.49 58.37 24.49 51.74 27.8 48.58 27.8 55.21" style="fill: #4fafa5"/>
            <polygon points="27.39 53.1 24.91 55.46 24.91 52.18 27.39 49.81 27.39 53.1" style="fill: #f7bad5"/>
            <polygon points="27.25 53.05 25.05 55.15 25.05 52.23 27.25 50.13 27.25 53.05" style="fill: #f072a0"/>
            <polygon points="24.49 58.37 20.02 62.64 20.02 56.01 24.49 51.74 24.49 58.37" style="fill: #613667"/>
            <polygon points="24.27 56.55 20.02 60.6 20.02 56.01 24.27 51.96 24.27 56.55" style="fill: #f7bad5"/>
            <line x1="20.03" y1="58.28" x2="24.27" y2="54.24" style="fill: none;stroke: #613667;stroke-miterlimit: 10;stroke-width: 0.105385360352733px"/>
            <line x1="22.14" y1="53.97" x2="22.14" y2="58.56" style="fill: #fff;stroke: #231f20;stroke-miterlimit: 10;stroke-width: 0.073797973576781px"/>
            <line x1="23.37" y1="52.79" x2="23.37" y2="57.38" style="fill: none;stroke: #613667;stroke-miterlimit: 10;stroke-width: 0.105385360352733px"/>
            <polygon points="24.27 58.59 20.15 62.51 20.15 60.85 24.27 56.92 24.27 58.59" style="fill: #f072a0"/>
            <polygon points="27.63 55.38 24.66 58.2 24.66 56.54 27.63 53.72 27.63 55.38" style="fill: #613667"/>
            <polygon points="24.41 57.04 20.02 61.23 20.02 60.59 24.41 56.39 24.41 57.04" style="fill: #b189bd;stroke: #613667;stroke-miterlimit: 10;stroke-width: 0.127191788373369px"/>
            <polygon points="24.91 55.92 24.51 56.3 24.51 51.72 24.91 51.35 24.91 55.92" style="fill: #f7bad5;stroke: #613667;stroke-miterlimit: 10;stroke-width: 0.076315073024021px"/>
            <polygon points="27.78 53.18 27.39 53.56 27.39 48.98 27.78 48.6 27.78 53.18" style="fill: #f7bad5;stroke: #613667;stroke-miterlimit: 10;stroke-width: 0.076315073024021px"/>
            <polygon points="22.23 60.53 22.07 60.68 22.07 59.27 22.23 59.13 22.23 60.53" style="fill: #231f20"/>
            <polygon points="23.45 59.36 23.3 59.51 23.3 58.1 23.45 57.96 23.45 59.36" style="fill: #613667"/>
            <g>
              <polygon points="25.11 57.78 24.78 58.09 24.78 56.69 25.11 56.37 25.11 57.78" style="fill: #f072a0"/>
              <polygon points="25.59 57.32 25.26 57.64 25.26 56.23 25.59 55.92 25.59 57.32" style="fill: #f072a0"/>
              <polygon points="26.07 56.86 25.74 57.18 25.74 55.77 26.07 55.46 26.07 56.86" style="fill: #f072a0"/>
              <polygon points="26.55 56.41 26.22 56.72 26.22 55.31 26.55 55 26.55 56.41" style="fill: #f072a0"/>
              <polygon points="27.03 55.95 26.7 56.26 26.7 54.86 27.03 54.54 27.03 55.95" style="fill: #f072a0"/>
              <polygon points="27.51 55.49 27.18 55.8 27.18 54.4 27.51 54.08 27.51 55.49" style="fill: #f072a0"/>
            </g>
            <polygon points="21 61.7 20.85 61.84 20.85 60.44 21 60.29 21 61.7" style="fill: #231f20"/>
          </g>
          <line x1="20.93" y1="55.16" x2="20.93" y2="59.75" style="fill: #fff;stroke: #231f20;stroke-miterlimit: 10;stroke-width: 0.073797973576781px"/>
          <rect x="13.21" y="46.64" width="6.63" height="6.63" style="fill: #fff"/>
          <rect x="13.41" y="56.01" width="6.63" height="6.63" style="fill: #613667"/>
          <rect x="13.98" y="56" width="5.51" height="4.59" style="fill: #f7bad5"/>
          <rect x="13.98" y="60.98" width="5.51" height="1.66" style="fill: #f072a0"/>
          <rect x="13.7" y="60.59" width="5.78" height="0.65" style="fill: #b189bd;stroke: #613667;stroke-miterlimit: 10;stroke-width: 0.127191788373369px"/>
          <g id="T5vVCF">
            <g>
              <path d="M17.91,52.6a.52.52,0,0,1-.4-.56.46.46,0,0,1,.45-.45.45.45,0,0,1,.45.44c0,.3-.09.46-.42.57Zm.27-.5a.52.52,0,0,0-.06-.28.16.16,0,0,0-.3,0,.54.54,0,0,0,0,.55.18.18,0,0,0,.32,0A.49.49,0,0,0,18.18,52.1Z" style="fill: #4fafa5"/>
              <path d="M16.53,47.3a2.07,2.07,0,1,1-2.06,2A2,2,0,0,1,16.53,47.3Zm-1.61,2.07a1.62,1.62,0,0,0,.42,1.07c.05.06.08.05.12,0l.73-1a.11.11,0,0,0,0-.16l-.7-1c-.07-.09-.09-.09-.16,0A1.62,1.62,0,0,0,14.92,49.37Zm3.21.11a1.72,1.72,0,0,0-.39-1.18c0-.06-.09-.09-.15,0-.24.33-.47.66-.72,1a.11.11,0,0,0,0,.14l.71,1c.05.08.09.09.15,0A1.55,1.55,0,0,0,18.13,49.48Zm-.52-1.28a1.54,1.54,0,0,0-2.16,0Zm-2.15,2.33a1.51,1.51,0,0,0,1.38.41,1.2,1.2,0,0,0,.74-.41Zm1.07-1.86c-.05,0-.14,0-.17,0s.05.1.09.15.09.12.17,0,.11-.09.08-.14S16.59,48.68,16.53,48.67Zm.2,1.38L16.68,50c-.18-.24-.11-.25-.31,0,0,0,0,.06,0,.06Z" style="fill: #4fafa5"/>
              <path d="M14.63,52.39a.53.53,0,0,1,0-.13.07.07,0,0,1,.06-.07s.06,0,.07.06a.3.3,0,0,0,.23.19.16.16,0,0,0,.2-.09c0-.1,0-.14-.12-.17l-.26-.08a.26.26,0,0,1-.17-.3.26.26,0,0,1,.27-.21.5.5,0,0,1,.21,0,.18.18,0,0,0,.2,0c.05,0,.08,0,.09.06v.18s0,.08-.06.09-.06,0-.08-.06a.29.29,0,0,0-.29-.16c-.06,0-.11,0-.12.09s0,.1.08.12a2,2,0,0,1,.26.09.29.29,0,0,1,.21.34.29.29,0,0,1-.32.22.55.55,0,0,1-.18,0,.15.15,0,0,0-.19,0s-.07,0-.08,0A.27.27,0,0,1,14.63,52.39Z" style="fill: #4fafa5"/>
              <path d="M16,52.58a.5.5,0,1,1,.46-.49A.47.47,0,0,1,16,52.58Zm-.21-.5a.43.43,0,0,0,0,.25.19.19,0,0,0,.17.12.17.17,0,0,0,.17-.12.56.56,0,0,0,0-.52c-.06-.13-.21-.12-.29,0A.42.42,0,0,0,15.78,52.08Z" style="fill: #4fafa5"/>
              <path d="M17.33,51.81V52s0,.06,0,.07A.09.09,0,0,1,17.2,52a.94.94,0,0,0-.06-.15.16.16,0,0,0-.3,0,.58.58,0,0,0,0,.53.16.16,0,0,0,.26.06.14.14,0,0,0,0-.22s0,0,0-.07,0,0,.07,0h.24c.06,0,.09.06,0,.09s-.09.15-.09.24a.28.28,0,0,1,0,.09s-.05.08-.08.06-.13,0-.19,0a.39.39,0,0,1-.41-.14.62.62,0,0,1,0-.71.37.37,0,0,1,.44-.1s.07,0,.12,0,.1,0,.11.07v.12Z" style="fill: #4fafa5"/>
            </g>
          </g>
          <rect x="20.79" y="54.64" width="2" height="9.7" rx="1" style="fill: #fff;stroke: #4fafa5;stroke-miterlimit: 10;stroke-width: 0.025438357674674px"/>
          <polygon points="22.43 52.54 19.84 53.26 19.84 46.63 22.43 45.91 22.43 52.54" style="fill: #f7bad5"/>
          <g>
            <path d="M20.73,47.18v.25l.32-.09a2.52,2.52,0,0,1-.57.69l.06.25.33-.24s0,.53.57.3l0-.25s-.27.12-.33-.08.61-.64.61-.64l-.05-.2-.49.27.26-.4-.11-.17A1.37,1.37,0,0,1,20.73,47.18Z" style="fill: #4fafa5"/>
            <path d="M20.82,48.89l-.14.28.76.09.23-.38A7.9,7.9,0,0,1,20.82,48.89Z" style="fill: #4fafa5"/>
            <polygon points="21.4 49.37 21.48 49.52 21.6 49.42 21.52 49.27 21.4 49.37" style="fill: #4fafa5"/>
            <polygon points="21.59 49.21 21.67 49.37 21.79 49.27 21.71 49.11 21.59 49.21" style="fill: #4fafa5"/>
            <path d="M20.56,49.72h.25s-.12.37.05.36a2.48,2.48,0,0,0,.83-.41l.08.26a2.18,2.18,0,0,1-1,.43C20.28,50.38,20.56,49.72,20.56,49.72Z" style="fill: #4fafa5"/>
            <path d="M20.85,50.73l-.09.28H21a1.13,1.13,0,0,1,.41,0s.06,0,.08,0l.19-.39A5.46,5.46,0,0,1,20.85,50.73Z" style="fill: #4fafa5"/>
            <path d="M20.65,51.42v.31a5.36,5.36,0,0,1,.58-.28c.09,0,.18-.09.18.16s-.19.34-.53.41v.28s.66-.1.76-.56,0-.75-.23-.59C21.34,51.19,20.65,51.42,20.65,51.42Z" style="fill: #4fafa5"/>
          </g>
          <g>
            <polygon points="24.46 44.04 27.69 41.02 27.62 47.62 24.46 50.58 24.46 44.04" style="fill: #f072a0"/>
            <path d="M27.58,41.17v6.42l-3.09,2.9V44.07l3.09-2.9m.08-.18-3.24,3v6.63l3.24-3.05V41Z" style="fill: #4fafa5"/>
          </g>
          <g>
            <path d="M26.91,46.07c-.19-.08-.26-.35-.25-.94A2.25,2.25,0,0,1,27,43.92c.15-.15.27.13.28.66A2.93,2.93,0,0,1,27,46Zm.17-1.2a3.15,3.15,0,0,0,0-.56c-.05-.23-.15-.16-.19.16a3.42,3.42,0,0,0,0,1.15c0,.25.16.13.2-.22A2.39,2.39,0,0,0,27.08,44.87Z" style="fill: #fff"/>
            <path d="M24.85,47.58v-.27a.32.32,0,0,1,0-.19s0,0,.05.07c0,.21.07.28.14.27s.11-.14.13-.31,0-.27-.08-.28a.88.88,0,0,1-.16,0c-.09,0-.13-.24-.11-.52a1,1,0,0,1,.17-.6s.09-.1.13-.09.08,0,.13-.11.05,0,.05.08,0,.24,0,.37a.67.67,0,0,1,0,.22s0,0,0-.08-.1-.26-.19-.16a.49.49,0,0,0-.08.26c0,.16,0,.19.06.2s.11,0,.16,0,.15.26.13.59a1,1,0,0,1-.2.66s-.07.08-.11,0-.08,0-.12.11-.05.06-.05,0A2.26,2.26,0,0,1,24.85,47.58Z" style="fill: #fff"/>
            <path d="M25.7,47.18c-.16.15-.29-.2-.29-.78a2.37,2.37,0,0,1,.29-1.31c.17-.15.29.19.29.79A2.23,2.23,0,0,1,25.7,47.18Zm-.13-.94a2.64,2.64,0,0,0,0,.51c0,.13,0,.2.1.15a.62.62,0,0,0,.11-.35,3.45,3.45,0,0,0,0-1.08c0-.22-.13-.13-.18.17A4.22,4.22,0,0,0,25.57,46.24Z" style="fill: #fff"/>
            <path d="M26.55,44.76v.29a.27.27,0,0,1,0,.17s0,0,0,0a2.19,2.19,0,0,0,0-.27c-.05-.24-.15-.16-.19.17a3.49,3.49,0,0,0,0,1.12c0,.19.11.16.16,0a.74.74,0,0,0,0-.47.31.31,0,0,1,0-.13.24.24,0,0,1,.05-.14,1,1,0,0,1,.15-.14s.06.08,0,.18a1.74,1.74,0,0,0-.05.55,1.27,1.27,0,0,1,0,.2c0,.1,0,.19-.05.16s-.08.06-.12.13-.19.18-.25,0a3.83,3.83,0,0,1,0-1.51c.07-.33.17-.51.27-.47s.05,0,.08-.06.06-.07.07.07v.26Z" style="fill: #fff"/>
          </g>
          <polygon points="24.42 50.67 22.43 52.54 22.43 45.91 24.42 44.04 24.42 50.67" style="fill: #f072a0"/>
          <path d="M23.43,45.64c.33-.34.62.33.61,1.5a4.49,4.49,0,0,1-.63,2.63c-.31.29-.61-.27-.6-1.54A4.36,4.36,0,0,1,23.43,45.64Zm-.49,2.52a2.75,2.75,0,0,0,.13,1s0,0,0,0c.08-.4.15-.8.22-1.2a.37.37,0,0,0,0-.15L23.11,47c0-.08,0-.08-.05,0A5.52,5.52,0,0,0,22.94,48.16Zm1-.8a3.45,3.45,0,0,0-.12-1.06s0-.07-.05,0l-.21,1.19a.38.38,0,0,0,0,.15q.11.38.21.78s0,0,0,0A6.1,6.1,0,0,0,23.91,47.36Zm-.16-1.13c-.17-.45-.5-.09-.65.61Zm-.65,2.94c.12.26.26.26.42,0a2,2,0,0,0,.22-.62ZM23.43,47s-.05,0-.06.07,0,.09,0,.13,0,.1.05-.05a1.55,1.55,0,0,0,0-.17S23.44,47,23.43,47Zm.05,1.33a.56.56,0,0,0,0-.07c-.06-.18,0-.21-.09.1,0,0,0,.08,0,.06Z" style="fill: #fff"/>
          <g>
            <path d="M23.19,51a1.94,1.94,0,0,1-.07.22l0,0a1,1,0,0,0,.06-.18Zm.06-.14v.27l0,0v-.28L23.1,51v-.1l.27-.26v.1Zm-.12-.09,0,0v-.19l.11-.11a.43.43,0,0,1,0-.05l0,0-.12.11v-.2l0,0v.1l.06-.06v-.13l0,0v.13l.07-.06v-.1l0,0v.21l-.12.11s0,0,0,.06l.11-.1v.19l0,0v-.1l-.2.18Zm0,0v-.09l.16-.16v.1Zm.15,0,.07.08,0,.11-.07-.1Z" style="fill: #fff"/>
            <path d="M23.71,50.52s0,0,0-.11l0,0c0,.13,0,.18-.05.21l0,0s0,0,0-.12v-.31l0,0a1.55,1.55,0,0,1-.1.59l0-.09a1.11,1.11,0,0,0,.09-.46l-.08.07v-.12l.12-.11v-.38l0,0v.38l.12-.11v.12l-.08.08v.3s0,0,0,0Zm-.17-.34a1.21,1.21,0,0,0-.05-.18l0-.09a1.09,1.09,0,0,1,.05.17Zm.2-.42c0,.1,0,.21,0,.28l0,0a1.86,1.86,0,0,0,.05-.27Z" style="fill: #fff"/>
          </g>
          <polygon points="21.84 56.02 11.22 56.02 12.38 54.18 20.67 54.18 21.84 56.02" style="fill: #fff"/>
          <line x1="11.49" y1="55.6" x2="21.6" y2="55.6" style="fill: #fff;stroke: #613667;stroke-miterlimit: 10;stroke-width: 0.127191788373369px"/>
          <polygon points="13.21 46.63 19.84 40.99 27.66 40.99 24.42 44.04 22.43 45.91 19.84 46.63 13.21 46.63" style="fill: #4fafa5"/>
          <polygon points="12.38 54.18 13.21 53.26 19.84 53.26 19.84 54.18 12.38 54.18" style="fill: #f7bad5"/>
          <polygon points="19.84 53.26 22.43 52.54 23.57 53.26 20.67 54.18 19.84 54.18 19.84 53.26" style="fill: #f072a0"/>
          <polygon points="23.57 53.26 29.36 47.64 27.66 47.62 22.43 52.54 23.57 53.26" style="fill: #b189bd"/>
          <polygon points="20.67 54.18 23.57 53.26 24.5 54.92 21.84 56.02 20.67 54.18" style="fill: #f7bad5"/>
          <polygon points="23.57 53.26 29.36 47.64 30.34 48.68 24.5 54.92 23.57 53.26" style="fill: #fff"/>
          <polyline points="21.57 55.59 24.26 54.46 30.02 48.34" style="fill: none;stroke: #613667;stroke-miterlimit: 10;stroke-width: 0.127191788373369px"/>
          <line x1="13.98" y1="58.29" x2="19.48" y2="58.29" style="fill: none;stroke: #613667;stroke-miterlimit: 10;stroke-width: 0.105385360352733px"/>
          <g>
            <line x1="15.69" y1="56" x2="15.69" y2="60.59" style="fill: none;stroke: #613667;stroke-miterlimit: 10;stroke-width: 0.105385360352733px"/>
            <line x1="17.77" y1="56" x2="17.77" y2="60.59" style="fill: none;stroke: #613667;stroke-miterlimit: 10;stroke-width: 0.105385360352733px"/>
          </g>
          <rect x="15.54" y="61.23" width="0.3" height="1.41" style="fill: #613667"/>
          <rect x="17.62" y="61.23" width="0.3" height="1.41" style="fill: #613667"/>
        </g>
        <g>
          <g>
            <polygon points="67.3 52.4 65.73 52.41 65.07 53.09 66.74 53.08 67.3 52.4" style="fill: #fff;stroke: #231f20;stroke-miterlimit: 10;stroke-width: 0.021127073792233px"/>
            <polygon points="67.3 52.37 65.73 52.38 65.07 53.06 66.74 53.05 67.3 52.37" style="fill: #fff;stroke: #231f20;stroke-miterlimit: 10;stroke-width: 0.021127073792233px"/>
            <polygon points="67.3 52.34 65.73 52.35 65.07 53.03 66.74 53.02 67.3 52.34" style="fill: #fff;stroke: #231f20;stroke-miterlimit: 10;stroke-width: 0.021127073792233px"/>
            <polygon points="67.3 52.3 65.73 52.32 65.07 52.99 66.74 52.98 67.3 52.3" style="fill: #fff;stroke: #231f20;stroke-miterlimit: 10;stroke-width: 0.021127073792233px"/>
          </g>
          <polygon points="69.52 50.5 66.83 50.5 64.53 53.4 67.33 53.4 69.52 50.5" style="fill: #fff;stroke: #231f20;stroke-miterlimit: 10;stroke-width: 0.021127073792233px"/>
          <rect x="59.3" y="43.61" width="10.63" height="4.07" style="fill: #613667"/>
          <rect x="59.3" y="47.68" width="10.63" height="7.44" style="fill: #4fafa5"/>
          <rect x="59.71" y="47.68" width="9.82" height="6.87" style="fill: #fff"/>
          <polygon points="69.52 54.56 59.71 54.56 62.84 51.54 69.53 51.54 69.52 54.56" style="fill: #613667"/>
          <rect x="59.62" y="43.86" width="9.99" height="3.58" style="fill: #b189bd"/>
          <g>
            <path d="M61.32,45.07a3.59,3.59,0,0,1-.12.39.53.53,0,0,1,.1.31.24.24,0,0,1-.06.19.19.19,0,0,1-.09,0h-.09a.42.42,0,0,0,0-.15h.1a.12.12,0,0,0,0-.09.43.43,0,0,0-.1-.27,2.81,2.81,0,0,0,.08-.31H61v1.16h-.15V45h.35Zm.86.14h-.11v.93c0,.1,0,.14-.08.17a1.38,1.38,0,0,1-.33,0,.88.88,0,0,0,0-.15h.25s0,0,0,0v-.93h-.58v-.16h.85Zm-.67.73V46h-.15v-.66h.44v.57Zm0-.42v.27h.13v-.27Z" style="fill: #613667"/>
            <path d="M63.64,45.43a1.41,1.41,0,0,0,.63.25.45.45,0,0,0-.11.13,1.35,1.35,0,0,1-.6-.29h0a1.29,1.29,0,0,1-.6.28.6.6,0,0,0-.09-.13,1.37,1.37,0,0,0,.61-.24v-.2h-.3l.12,0a.36.36,0,0,1,0,.09l.12.08-.09.11-.1-.08a.8.8,0,0,1-.17.15.52.52,0,0,0-.11-.1.57.57,0,0,0,.25-.28h-.23v-.15h.55V45h.17v.13h.57v.15h-.32l.13,0,0,.08a1.57,1.57,0,0,1,.23.13l-.09.12-.22-.15a.28.28,0,0,1-.1.09.52.52,0,0,0-.11-.1.41.41,0,0,0,.17-.2h-.23Zm.31.37a.73.73,0,0,1-.2.26,2.26,2.26,0,0,1,.31.15l-.1.12a2.1,2.1,0,0,0-.34-.18,1.62,1.62,0,0,1-.61.18.46.46,0,0,0-.07-.14,2,2,0,0,0,.52-.12l-.22-.1-.19.1A.32.32,0,0,0,63,46l.14-.06-.08,0,.09-.1.13,0a1,1,0,0,0,.21-.18l.16,0-.07.07h.32Zm-.58.09.23.1a.74.74,0,0,0,.13-.12h-.34Z" style="fill: #613667"/>
            <path d="M65.71,45.48v.05h.48v.11h-.48v0h.58v.12H65v-.12h.57v0h-.47v-.11h.47v-.05H65.1v-.11h.44v0H65V45.2h.57v-.06h-.42V45h.42V45h.17V45h.41v.16h.17v.12h-.17v.16Zm-.56.38h1v.48H66v-.05h-.63v.05h-.17Zm.17.11V46H66V46Zm.63.21v-.06h-.63v.06Zm-.24-1H66v-.06h-.24Zm0,.17H66v0h-.24Z" style="fill: #613667"/>
            <path d="M67.76,45.83a.19.19,0,0,1,0,.08h.48a.18.18,0,0,1,0,.06c0,.19,0,.27-.07.31a.22.22,0,0,1-.12,0h-.19a.27.27,0,0,0,0-.15H68a.49.49,0,0,0,0-.13h-.33a.56.56,0,0,1-.38.28.41.41,0,0,0-.1-.13.65.65,0,0,1-.1.15.5.5,0,0,0-.12-.13,1.1,1.1,0,0,0,.17-.68v-.48a4.87,4.87,0,0,0,.95-.11l.13.14a5.89,5.89,0,0,1-.91.1v.05h.93v.36h-.41a.31.31,0,0,1,0,.1h.45v.13Zm-.42,0a1.21,1.21,0,0,1-.11.37c.27-.08.33-.2.36-.37Zm.39-.13a.2.2,0,0,0,0-.08l.15,0h-.49v.1Zm-.38-.33v.09h.76v-.09Z" style="fill: #613667"/>
          </g>
          <rect x="62.84" y="47.68" width="6.68" height="3.86" style="fill: #f7bad5"/>
          <rect x="59.71" y="53.4" width="2.35" height="1.16" style="fill: #f7bad5;stroke: #f072a0;stroke-miterlimit: 10;stroke-width: 0.081417742587237px"/>
          <polygon points="62.06 53.43 64.67 50.51 64.67 51.6 62.06 54.55 62.06 53.43" style="fill: #f072a0"/>
          <polygon points="64.67 50.5 62.41 50.5 59.73 53.4 62.1 53.4 64.67 50.5" style="fill: #fff"/>
          <g>
            <polygon points="61.99 52.72 60.73 52.73 60.19 53.28 61.54 53.27 61.99 52.72" style="fill: #b189bd;stroke: #613667;stroke-miterlimit: 10;stroke-width: 0.017124126007018px"/>
            <polygon points="61.99 52.69 60.73 52.7 60.19 53.25 61.54 53.24 61.99 52.69" style="fill: #b189bd;stroke: #613667;stroke-miterlimit: 10;stroke-width: 0.017124126007018px"/>
            <polygon points="61.99 52.67 60.73 52.68 60.19 53.23 61.54 53.22 61.99 52.67" style="fill: #b189bd;stroke: #613667;stroke-miterlimit: 10;stroke-width: 0.017124126007018px"/>
            <polygon points="61.99 52.64 60.73 52.65 60.19 53.2 61.54 53.19 61.99 52.64" style="fill: #b189bd;stroke: #613667;stroke-miterlimit: 10;stroke-width: 0.017124126007018px"/>
          </g>
          <g>
            <polygon points="62.94 52.01 61.68 52.02 61.14 52.57 62.49 52.56 62.94 52.01" style="fill: #f7bad5;stroke: #4fafa5;stroke-miterlimit: 10;stroke-width: 0.017124126007018px"/>
            <polygon points="62.94 51.99 61.68 51.99 61.14 52.55 62.49 52.54 62.94 51.99" style="fill: #f7bad5;stroke: #4fafa5;stroke-miterlimit: 10;stroke-width: 0.017124126007018px"/>
            <polygon points="62.94 51.96 61.68 51.97 61.14 52.52 62.49 52.51 62.94 51.96" style="fill: #f7bad5;stroke: #4fafa5;stroke-miterlimit: 10;stroke-width: 0.017124126007018px"/>
            <polygon points="62.94 51.94 61.68 51.94 61.14 52.49 62.49 52.48 62.94 51.94" style="fill: #f7bad5;stroke: #4fafa5;stroke-miterlimit: 10;stroke-width: 0.017124126007018px"/>
          </g>
          <g>
            <polygon points="63.57 51.28 62.3 51.29 61.76 51.84 63.12 51.83 63.57 51.28" style="fill: #613667;stroke: #fff;stroke-miterlimit: 10;stroke-width: 0.017124126007018px"/>
            <polygon points="63.57 51.25 62.3 51.26 61.76 51.81 63.12 51.8 63.57 51.25" style="fill: #613667;stroke: #fff;stroke-miterlimit: 10;stroke-width: 0.017124126007018px"/>
            <polygon points="63.57 51.23 62.3 51.24 61.76 51.79 63.12 51.78 63.57 51.23" style="fill: #613667;stroke: #fff;stroke-miterlimit: 10;stroke-width: 0.017124126007018px"/>
            <polygon points="63.57 51.2 62.3 51.21 61.76 51.76 63.12 51.75 63.57 51.2" style="fill: #613667;stroke: #fff;stroke-miterlimit: 10;stroke-width: 0.017124126007018px"/>
          </g>
          <g>
            <polygon points="64.41 50.59 63.14 50.6 62.6 51.15 63.95 51.14 64.41 50.59" style="fill: #f072a0;stroke: #613667;stroke-miterlimit: 10;stroke-width: 0.017124126007018px"/>
            <polygon points="64.41 50.56 63.14 50.57 62.6 51.12 63.95 51.11 64.41 50.56" style="fill: #f072a0;stroke: #613667;stroke-miterlimit: 10;stroke-width: 0.017124126007018px"/>
            <polygon points="64.41 50.53 63.14 50.54 62.6 51.09 63.95 51.09 64.41 50.53" style="fill: #f072a0;stroke: #613667;stroke-miterlimit: 10;stroke-width: 0.017124126007018px"/>
            <polygon points="64.41 50.51 63.14 50.52 62.6 51.07 63.95 51.06 64.41 50.51" style="fill: #f072a0;stroke: #613667;stroke-miterlimit: 10;stroke-width: 0.017124126007018px"/>
          </g>
          <g>
            <rect x="64.4" y="48.02" width="4.59" height="2.14" style="fill: #fff"/>
            <path d="M68.88,48.13v1.92H64.51V48.13h4.37m.22-.22H64.29v2.37H69.1V47.91Z" style="fill: #613667"/>
          </g>
          <g>
            <rect x="59.71" y="52.29" width="1.62" height="0.39" style="fill: #f7bad5"/>
            <polygon points="61.33 52.29 63.77 49.62 63.77 49.99 61.33 52.68 61.33 52.29" style="fill: #b189bd"/>
            <polygon points="63.77 49.62 62.26 49.62 59.71 52.29 61.33 52.29 63.77 49.62" style="fill: #4fafa5"/>
          </g>
          <g>
            <g>
              <rect x="61.67" y="49.04" width="0.94" height="1.34" style="fill: #f7bad5"/>
              <polygon points="62.73 50.2 62.6 50.38 62.6 49.04 62.74 48.82 62.73 50.2" style="fill: #f072a0"/>
              <polygon points="61.67 49.04 61.88 48.81 62.74 48.82 62.6 49.04 61.67 49.04" style="fill: #fff;stroke: #231f20;stroke-miterlimit: 10;stroke-width: 0.022054322104937px"/>
            </g>
            <g>
              <rect x="61.27" y="49.46" width="0.94" height="1.34" style="fill: #e5aecf"/>
              <polygon points="62.33 50.63 62.2 50.8 62.2 49.46 62.34 49.24 62.33 50.63" style="fill: #cc6392"/>
              <polygon points="61.27 49.46 61.48 49.23 62.34 49.24 62.2 49.46 61.27 49.46" style="fill: #fff;stroke: #231f20;stroke-miterlimit: 10;stroke-width: 0.022054322104937px"/>
            </g>
            <g>
              <rect x="60.87" y="49.88" width="0.94" height="1.34" style="fill: #d4a2c9"/>
              <polygon points="61.92 51.05 61.79 51.22 61.79 49.88 61.94 49.66 61.92 51.05" style="fill: #a95484"/>
              <polygon points="60.87 49.88 61.08 49.65 61.94 49.66 61.79 49.88 60.87 49.88" style="fill: #fff;stroke: #231f20;stroke-miterlimit: 10;stroke-width: 0.022054322104937px"/>
            </g>
            <g>
              <rect x="60.46" y="50.3" width="0.94" height="1.34" style="fill: #c395c3"/>
              <polygon points="61.52 51.47 61.39 51.64 61.39 50.3 61.53 50.08 61.52 51.47" style="fill: #854575"/>
              <polygon points="60.46 50.3 60.67 50.07 61.53 50.08 61.39 50.3 60.46 50.3" style="fill: #fff;stroke: #231f20;stroke-miterlimit: 10;stroke-width: 0.022054322104937px"/>
            </g>
            <g>
              <rect x="60.06" y="50.73" width="0.94" height="1.34" style="fill: #b189bd"/>
              <polygon points="61.12 51.89 60.99 52.06 60.99 50.73 61.13 50.5 61.12 51.89" style="fill: #613667"/>
              <polygon points="60.06 50.73 60.27 50.49 61.13 50.5 60.99 50.73 60.06 50.73" style="fill: #fff;stroke: #231f20;stroke-miterlimit: 10;stroke-width: 0.022054322104937px"/>
            </g>
          </g>
          <g>
            <rect x="59.71" y="50.4" width="1.62" height="0.39" style="fill: #f7bad5"/>
            <polygon points="61.33 50.4 63.37 48.12 63.37 48.54 61.33 50.79 61.33 50.4" style="fill: #b189bd"/>
            <polygon points="63.37 48.12 61.85 48.12 59.71 50.4 61.33 50.4 63.37 48.12" style="fill: #4fafa5"/>
          </g>
          <g>
            <g>
              <rect x="61.13" y="47.92" width="0.94" height="1.34" style="fill: #f072a0"/>
              <polygon points="62.19 49.08 62.06 49.26 62.06 47.92 62.2 47.7 62.19 49.08" style="fill: #b189bd"/>
              <polygon points="61.13 47.92 61.34 47.69 62.2 47.7 62.06 47.92 61.13 47.92" style="fill: #613667"/>
            </g>
            <g>
              <rect x="60.87" y="48.15" width="0.94" height="1.34" style="fill: #f284ad"/>
              <polygon points="61.92 49.31 61.79 49.49 61.79 48.15 61.94 47.93 61.92 49.31" style="fill: #c395c3"/>
              <polygon points="60.87 48.15 61.08 47.91 61.94 47.93 61.79 48.15 60.87 48.15" style="fill: #854575"/>
            </g>
            <g>
              <rect x="60.6" y="48.38" width="0.94" height="1.34" style="fill: #f396bb"/>
              <polygon points="61.66 49.54 61.53 49.72 61.53 48.38 61.67 48.15 61.66 49.54" style="fill: #d4a2c9"/>
              <polygon points="60.6 48.38 60.81 48.14 61.67 48.15 61.53 48.38 60.6 48.38" style="fill: #a95484"/>
            </g>
            <g>
              <rect x="60.33" y="48.6" width="0.94" height="1.34" style="fill: #f5a8c8"/>
              <polygon points="61.39 49.76 61.26 49.94 61.26 48.6 61.4 48.38 61.39 49.76" style="fill: #e5aecf"/>
              <polygon points="60.33 48.6 60.54 48.37 61.4 48.38 61.26 48.6 60.33 48.6" style="fill: #cc6392"/>
            </g>
            <g>
              <rect x="60.06" y="48.83" width="0.94" height="1.34" style="fill: #f7bad5"/>
              <polygon points="61.12 49.99 60.99 50.17 60.99 48.83 61.13 48.61 61.12 49.99" style="fill: #f7bad5"/>
              <polygon points="60.06 48.83 60.27 48.59 61.13 48.61 60.99 48.83 60.06 48.83" style="fill: #f072a0"/>
            </g>
          </g>
          <rect x="64.53" y="53.4" width="2.8" height="0.21" style="fill: #b189bd"/>
          <polygon points="67.33 53.4 67.33 53.6 69.52 50.72 69.52 50.5 67.33 53.4" style="fill: #f7bad5"/>
          <polygon points="69.52 50.5 67.03 50.5 64.53 53.4 67.33 53.4 69.52 50.5" style="fill: #4fafa5"/>
          <rect x="64.7" y="53.6" width="2.5" height="0.81" style="fill: #f7bad5"/>
          <polygon points="67.2 53.6 67.2 54.42 69.32 51.54 69.32 50.98 67.33 53.6 67.2 53.6" style="fill: #f072a0"/>
          <g>
            <g>
              <rect x="67.01" y="49.64" width="0.94" height="1.34" style="fill: #f072a0"/>
              <polygon points="68.07 50.8 67.94 50.98 67.94 49.64 68.08 49.41 68.07 50.8" style="fill: #fff"/>
              <polygon points="67.01 49.64 67.22 49.4 68.08 49.41 67.94 49.64 67.01 49.64" style="fill: #f072a0"/>
            </g>
            <g>
              <rect x="66.74" y="49.86" width="0.94" height="1.34" style="fill: #e078a7"/>
              <polygon points="67.8 51.03 67.67 51.2 67.67 49.87 67.81 49.64 67.8 51.03" style="fill: #fdeef5"/>
              <polygon points="66.74 49.87 66.95 49.63 67.81 49.64 67.67 49.87 66.74 49.87" style="fill: #f284ad"/>
            </g>
            <g>
              <rect x="66.47" y="50.09" width="0.94" height="1.34" style="fill: #d17eaf"/>
              <polygon points="67.53 51.25 67.4 51.43 67.4 50.09 67.54 49.87 67.53 51.25" style="fill: #fbddea"/>
              <polygon points="66.47 50.09 66.68 49.85 67.54 49.87 67.4 50.09 66.47 50.09" style="fill: #f396bb"/>
            </g>
            <g>
              <rect x="66.2" y="50.32" width="0.94" height="1.34" style="fill: #c183b6"/>
              <polygon points="67.26 51.48 67.13 51.66 67.13 50.32 67.27 50.09 67.26 51.48" style="fill: #f9cbe0"/>
              <polygon points="66.2 50.32 66.41 50.08 67.27 50.09 67.13 50.32 66.2 50.32" style="fill: #f5a8c8"/>
            </g>
            <g>
              <rect x="65.94" y="50.55" width="0.94" height="1.34" style="fill: #b189bd"/>
              <polygon points="67 51.71 66.87 51.88 66.87 50.55 67.01 50.32 67 51.71" style="fill: #f7bad5"/>
              <polygon points="65.94 50.55 66.15 50.31 67.01 50.32 66.87 50.55 65.94 50.55" style="fill: #f7bad5"/>
            </g>
          </g>
          <g>
            <g>
              <rect x="68.17" y="49.64" width="0.94" height="1.34" style="fill: #b189bd"/>
              <polygon points="69.23 50.8 69.1 50.98 69.1 49.64 69.24 49.42 69.23 50.8" style="fill: #613667"/>
              <polygon points="68.17 49.64 68.38 49.4 69.24 49.42 69.1 49.64 68.17 49.64" style="fill: #613667"/>
            </g>
            <g>
              <rect x="67.9" y="49.87" width="0.94" height="1.34" style="fill: #c4a7ce"/>
              <polygon points="68.96 51.03 68.83 51.21 68.83 49.87 68.97 49.64 68.96 51.03" style="fill: #854575"/>
              <polygon points="67.9 49.87 68.11 49.63 68.97 49.64 68.83 49.87 67.9 49.87" style="fill: #754b7d"/>
            </g>
            <g>
              <rect x="67.63" y="50.09" width="0.94" height="1.34" style="fill: #d8c4de"/>
              <polygon points="68.69 51.26 68.56 51.43 68.56 50.09 68.7 49.87 68.69 51.26" style="fill: #a95484"/>
              <polygon points="67.63 50.09 67.84 49.86 68.7 49.87 68.56 50.09 67.63 50.09" style="fill: #896092"/>
            </g>
            <g>
              <rect x="67.37" y="50.32" width="0.94" height="1.34" style="fill: #ece2ef"/>
              <polygon points="68.42 51.48 68.29 51.66 68.29 50.32 68.44 50.1 68.42 51.48" style="fill: #cc6392"/>
              <polygon points="67.37 50.32 67.58 50.08 68.44 50.1 68.29 50.32 67.37 50.32" style="fill: #9d74a8"/>
            </g>
            <g>
              <rect x="67.1" y="50.55" width="0.94" height="1.34" style="fill: #fff"/>
              <polygon points="68.16 51.71 68.03 51.89 68.03 50.55 68.17 50.32 68.16 51.71" style="fill: #f072a0"/>
              <polygon points="67.1 50.55 67.31 50.31 68.17 50.32 68.03 50.55 67.1 50.55" style="fill: #b189bd"/>
            </g>
          </g>
          <polygon points="72.47 40.94 61.84 40.94 59.3 43.61 69.93 43.61 72.47 40.94" style="fill: #fff"/>
          <polygon points="72.47 40.94 72.47 52.01 69.93 55.13 69.93 43.61 72.47 40.94" style="fill: #f072a0"/>
          <g>
            <polygon points="67.08 51.97 65.82 51.98 65.28 52.53 66.63 52.52 67.08 51.97" style="fill: #613667;stroke: #fff;stroke-miterlimit: 10;stroke-width: 0.017124126007018px"/>
            <polygon points="67.08 51.95 65.82 51.96 65.28 52.51 66.63 52.5 67.08 51.95" style="fill: #613667;stroke: #fff;stroke-miterlimit: 10;stroke-width: 0.017124126007018px"/>
            <polygon points="67.08 51.92 65.82 51.93 65.28 52.48 66.63 52.47 67.08 51.92" style="fill: #613667;stroke: #fff;stroke-miterlimit: 10;stroke-width: 0.017124126007018px"/>
            <polygon points="67.08 51.9 65.82 51.9 65.28 52.45 66.63 52.45 67.08 51.9" style="fill: #613667;stroke: #fff;stroke-miterlimit: 10;stroke-width: 0.017124126007018px"/>
          </g>
          <g>
            <polygon points="67.24 51.77 65.97 51.78 65.43 52.33 66.78 52.32 67.24 51.77" style="fill: #613667;stroke: #fff;stroke-miterlimit: 10;stroke-width: 0.017124126007018px"/>
            <polygon points="67.24 51.75 65.97 51.76 65.43 52.3 66.78 52.3 67.24 51.75" style="fill: #613667;stroke: #fff;stroke-miterlimit: 10;stroke-width: 0.017124126007018px"/>
            <polygon points="67.24 51.72 65.97 51.73 65.43 52.28 66.78 52.27 67.24 51.72" style="fill: #613667;stroke: #fff;stroke-miterlimit: 10;stroke-width: 0.017124126007018px"/>
            <polygon points="67.24 51.69 65.97 51.7 65.43 52.25 66.78 52.24 67.24 51.69" style="fill: #613667;stroke: #fff;stroke-miterlimit: 10;stroke-width: 0.017124126007018px"/>
          </g>
          <g>
            <polygon points="67.6 52.73 66.33 52.73 65.79 53.28 67.15 53.27 67.6 52.73" style="fill: #f072a0;stroke: #613667;stroke-miterlimit: 10;stroke-width: 0.017124126007018px"/>
            <polygon points="67.6 52.7 66.33 52.71 65.79 53.26 67.15 53.25 67.6 52.7" style="fill: #f072a0;stroke: #613667;stroke-miterlimit: 10;stroke-width: 0.017124126007018px"/>
            <polygon points="67.6 52.67 66.33 52.68 65.79 53.23 67.15 53.22 67.6 52.67" style="fill: #f072a0;stroke: #613667;stroke-miterlimit: 10;stroke-width: 0.017124126007018px"/>
            <polygon points="67.6 52.65 66.33 52.66 65.79 53.21 67.15 53.2 67.6 52.65" style="fill: #f072a0;stroke: #613667;stroke-miterlimit: 10;stroke-width: 0.017124126007018px"/>
          </g>
          <g>
            <polygon points="67.37 52.56 66.11 52.57 65.57 53.12 66.92 53.11 67.37 52.56" style="fill: #f072a0;stroke: #613667;stroke-miterlimit: 10;stroke-width: 0.017124126007018px"/>
            <polygon points="67.37 52.53 66.11 52.54 65.57 53.09 66.92 53.08 67.37 52.53" style="fill: #f072a0;stroke: #613667;stroke-miterlimit: 10;stroke-width: 0.017124126007018px"/>
            <polygon points="67.37 52.51 66.11 52.52 65.57 53.06 66.92 53.06 67.37 52.51" style="fill: #f072a0;stroke: #613667;stroke-miterlimit: 10;stroke-width: 0.017124126007018px"/>
            <polygon points="67.37 52.48 66.11 52.49 65.57 53.04 66.92 53.03 67.37 52.48" style="fill: #f072a0;stroke: #613667;stroke-miterlimit: 10;stroke-width: 0.017124126007018px"/>
          </g>
        </g>
        <g>
          <g>
            <path d="M84.05,49.69v7.44c0,.65,1.3,1.18,2.91,1.18s2.92-.53,2.92-1.18V47.74Z" style="fill: #fff;stroke: #f072a0;stroke-miterlimit: 10;stroke-width: 0.170090494572427px"/>
            <path d="M84.05,54.72c0,.65,1.3,1.18,2.91,1.18s2.92-.53,2.92-1.18" style="fill: none;stroke: #f072a0;stroke-miterlimit: 10;stroke-width: 0.085045247286214px"/>
            <path d="M84.05,51.36c0,.65,1.3,1.18,2.91,1.18s2.92-.53,2.92-1.18" style="fill: none;stroke: #f072a0;stroke-miterlimit: 10;stroke-width: 0.085045247286214px"/>
            <g>
              <path d="M85.1,49.89c-.47,0-.69-.12-.69-.2s.15-.41.7-.83a7.55,7.55,0,0,1,2-1,5.61,5.61,0,0,1,1.74-.33c.48,0,.7.11.7.19s-.15.42-.71.83a7.48,7.48,0,0,1-2,1A5.65,5.65,0,0,1,85.1,49.89Z" style="fill: #613667"/>
              <path d="M88.82,47.91H89a3.17,3.17,0,0,1-.53.44,7.3,7.3,0,0,1-1.75.85,5.49,5.49,0,0,1-1.63.32h-.19a3.51,3.51,0,0,1,.53-.45,7.3,7.3,0,0,1,1.75-.85,5.56,5.56,0,0,1,1.63-.31m0-.73a6.09,6.09,0,0,0-1.86.36c-1.61.54-2.91,1.5-2.91,2.15,0,.37.41.56,1,.56A6.24,6.24,0,0,0,87,49.9c1.61-.54,2.92-1.51,2.92-2.16,0-.37-.41-.56-1.06-.56Z" style="fill: #f7bad5"/>
            </g>
          </g>
          <g>
            <path d="M81.72,46.86V58.73c0,.66,1.3,1.18,2.92,1.18s2.91-.52,2.91-1.18V44.91Z" style="fill: #fff;stroke: #f072a0;stroke-miterlimit: 10;stroke-width: 0.170090494572427px"/>
            <path d="M81.72,56.33c0,.65,1.3,1.18,2.92,1.18s2.91-.53,2.91-1.18" style="fill: none;stroke: #f072a0;stroke-miterlimit: 10;stroke-width: 0.085045247286214px"/>
            <path d="M81.72,53c0,.65,1.3,1.18,2.92,1.18s2.91-.53,2.91-1.18" style="fill: none;stroke: #f072a0;stroke-miterlimit: 10;stroke-width: 0.085045247286214px"/>
            <path d="M81.72,49.59c0,.65,1.3,1.18,2.92,1.18s2.91-.53,2.91-1.18" style="fill: none;stroke: #f072a0;stroke-miterlimit: 10;stroke-width: 0.085045247286214px"/>
            <g>
              <path d="M82.78,47c-.48,0-.7-.11-.7-.19s.15-.42.71-.83a7.48,7.48,0,0,1,2-1,5.65,5.65,0,0,1,1.75-.34c.47,0,.69.12.69.2s-.15.41-.71.83a7.48,7.48,0,0,1-2,1A5.61,5.61,0,0,1,82.78,47Z" style="fill: #613667"/>
              <path d="M86.5,45h.18a2.71,2.71,0,0,1-.53.45,7.42,7.42,0,0,1-1.74.85,5.56,5.56,0,0,1-1.63.31h-.19a3.17,3.17,0,0,1,.53-.44,7.42,7.42,0,0,1,1.74-.85A5.61,5.61,0,0,1,86.5,45m0-.72a6.24,6.24,0,0,0-1.86.35c-1.62.54-2.92,1.51-2.92,2.16,0,.37.41.56,1.06.56A6.09,6.09,0,0,0,84.64,47c1.61-.54,2.91-1.5,2.91-2.15,0-.37-.41-.56-1-.56Z" style="fill: #f7bad5"/>
            </g>
          </g>
          <g>
            <path d="M78.8,43.81v17.5c0,.65,1.31,1.18,2.92,1.18s2.92-.53,2.92-1.18V41.86Z" style="fill: #fff;stroke: #f072a0;stroke-miterlimit: 10;stroke-width: 0.170090494572427px"/>
            <path d="M78.8,58.9c0,.65,1.31,1.18,2.92,1.18s2.92-.53,2.92-1.18" style="fill: none;stroke: #f072a0;stroke-miterlimit: 10;stroke-width: 0.085045247286214px"/>
            <path d="M78.8,55.54c0,.65,1.31,1.18,2.92,1.18s2.92-.53,2.92-1.18" style="fill: none;stroke: #f072a0;stroke-miterlimit: 10;stroke-width: 0.085045247286214px"/>
            <path d="M78.8,52.17c0,.65,1.31,1.18,2.92,1.18s2.92-.53,2.92-1.18" style="fill: none;stroke: #f072a0;stroke-miterlimit: 10;stroke-width: 0.085045247286214px"/>
            <path d="M78.8,48.8c0,.65,1.31,1.18,2.92,1.18s2.92-.53,2.92-1.18" style="fill: none;stroke: #f072a0;stroke-miterlimit: 10;stroke-width: 0.085045247286214px"/>
            <path d="M78.8,45.43c0,.66,1.31,1.18,2.92,1.18s2.92-.52,2.92-1.18" style="fill: none;stroke: #f072a0;stroke-miterlimit: 10;stroke-width: 0.085045247286214px"/>
            <g>
              <path d="M79.86,43.84c-.48,0-.7-.12-.7-.2s.15-.41.71-.83a7.48,7.48,0,0,1,2-1,5.65,5.65,0,0,1,1.75-.34c.47,0,.69.12.69.2s-.15.41-.7.83a7.55,7.55,0,0,1-2,1A5.65,5.65,0,0,1,79.86,43.84Z" style="fill: #613667"/>
              <path d="M83.58,41.86h.19a3.51,3.51,0,0,1-.53.45,7.3,7.3,0,0,1-1.75.85,5.56,5.56,0,0,1-1.63.31h-.19A2.71,2.71,0,0,1,80.2,43,7.3,7.3,0,0,1,82,42.17a5.44,5.44,0,0,1,1.63-.31m0-.73a6,6,0,0,0-1.86.36C80.11,42,78.8,43,78.8,43.64c0,.37.41.56,1.06.56a6.09,6.09,0,0,0,1.86-.36c1.61-.54,2.92-1.5,2.92-2.15,0-.37-.42-.56-1.06-.56Z" style="fill: #f7bad5"/>
            </g>
          </g>
          <g>
            <path d="M75.58,50.42V63.73c0,.65,1.31,1.18,2.92,1.18s2.92-.53,2.92-1.18V48.47Z" style="fill: #fff;stroke: #f072a0;stroke-miterlimit: 10;stroke-width: 0.170090494572427px"/>
            <path d="M75.58,61.32c0,.66,1.31,1.18,2.92,1.18s2.92-.52,2.92-1.18" style="fill: none;stroke: #f072a0;stroke-miterlimit: 10;stroke-width: 0.085045247286214px"/>
            <path d="M75.58,58c0,.65,1.31,1.18,2.92,1.18s2.92-.53,2.92-1.18" style="fill: none;stroke: #f072a0;stroke-miterlimit: 10;stroke-width: 0.085045247286214px"/>
            <path d="M75.58,54.59c0,.65,1.31,1.18,2.92,1.18s2.92-.53,2.92-1.18" style="fill: none;stroke: #f072a0;stroke-miterlimit: 10;stroke-width: 0.085045247286214px"/>
            <path d="M75.58,51.22c0,.65,1.31,1.18,2.92,1.18s2.92-.53,2.92-1.18" style="fill: none;stroke: #f072a0;stroke-miterlimit: 10;stroke-width: 0.085045247286214px"/>
            <g>
              <path d="M76.64,50.61c-.47,0-.7-.11-.7-.19s.15-.42.71-.83a7.48,7.48,0,0,1,2-1,5.76,5.76,0,0,1,1.75-.34c.48,0,.7.12.7.2s-.15.41-.71.83a7.48,7.48,0,0,1-2,1A5.72,5.72,0,0,1,76.64,50.61Z" style="fill: #613667"/>
              <path d="M80.36,48.64h.19a3.06,3.06,0,0,1-.53.45,7.3,7.3,0,0,1-1.75.85,5.5,5.5,0,0,1-1.63.31h-.19A3.06,3.06,0,0,1,77,49.8,7.3,7.3,0,0,1,78.73,49a5.5,5.5,0,0,1,1.63-.31m0-.73a6.35,6.35,0,0,0-1.86.35c-1.61.54-2.92,1.51-2.92,2.16,0,.37.41.56,1.06.56a6,6,0,0,0,1.86-.36c1.61-.54,2.92-1.5,2.92-2.15,0-.37-.41-.56-1.06-.56Z" style="fill: #f7bad5"/>
            </g>
          </g>
          <g>
            <path d="M72.74,58.5v7.44c0,.65,1.3,1.18,2.91,1.18s2.92-.53,2.92-1.18V56.55Z" style="fill: #f7bad5;stroke: #f072a0;stroke-miterlimit: 10;stroke-width: 0.170090494572427px"/>
            <path d="M72.74,63.53c0,.65,1.3,1.18,2.91,1.18s2.92-.53,2.92-1.18" style="fill: none;stroke: #b189bd;stroke-miterlimit: 10;stroke-width: 0.12756787092932px"/>
            <path d="M72.74,60.17c0,.65,1.3,1.18,2.91,1.18s2.92-.53,2.92-1.18" style="fill: none;stroke: #b189bd;stroke-miterlimit: 10;stroke-width: 0.12756787092932px"/>
            <g>
              <path d="M73.79,58.7c-.47,0-.69-.12-.69-.2s.15-.41.7-.83a7.55,7.55,0,0,1,2-1,5.61,5.61,0,0,1,1.74-.33c.48,0,.7.11.7.19s-.15.42-.71.83a7.48,7.48,0,0,1-2,1A5.65,5.65,0,0,1,73.79,58.7Z" style="fill: #613667"/>
              <path d="M77.51,56.72h.19a3.17,3.17,0,0,1-.53.44,7.3,7.3,0,0,1-1.75.85,5.44,5.44,0,0,1-1.63.31h-.18a2.71,2.71,0,0,1,.53-.45A7,7,0,0,1,75.88,57a5.56,5.56,0,0,1,1.63-.31m0-.73a6.09,6.09,0,0,0-1.86.36c-1.61.54-2.91,1.5-2.91,2.15,0,.37.41.56,1.05.56a6.24,6.24,0,0,0,1.86-.35c1.61-.54,2.92-1.51,2.92-2.16,0-.37-.41-.56-1.06-.56Z" style="fill: #f7bad5"/>
            </g>
          </g>
        </g>
      </g>
    </g>
  </g>
</svg>
