<svg xmlns="http://www.w3.org/2000/svg" width="97.73" height="101.04" viewBox="0 0 97.73 101.04">
  <g id="Layer_2" data-name="Layer 2">
    <g id="Icon">
      <g>
        <g>
          <path d="M73.71,9.17a6.22,6.22,0,0,0-2.89-2.5l1-1.08a6.67,6.67,0,0,1,3.1,2.5Zm-2.8,9.21a14.73,14.73,0,0,0,2.74-7l1.45.47A15.61,15.61,0,0,1,72.46,19ZM74.32,4.12A6.35,6.35,0,0,0,71.38,2L72.48.88a6.34,6.34,0,0,1,3,2.23Zm9.94,6.54H80.08V7.51L79,7.9l-.11-.5c-.95.11-1.9.26-3,.43l.73.22a6.14,6.14,0,0,1-1,3l-1.31-.43a5.19,5.19,0,0,0,1-2.92l.18.09-.74-1.21a13.53,13.53,0,0,0,1.84-1.7c-.35,0-.82.1-1.08.15L74.88,3.8A12.63,12.63,0,0,0,77.53.24l1.25.67A10.56,10.56,0,0,1,77.1,3.47l.65,0,.73-1.08L79.56,3V1.6h1.75a9.16,9.16,0,0,0-.89-.91L81.74,0a14.06,14.06,0,0,1,1.14,1.62h1.84V3h-5A17.46,17.46,0,0,1,78,5.46l1-.35a5.16,5.16,0,0,1,1.16,2.07h4.23v3.24A5.57,5.57,0,0,0,85,7.81L86.25,8a5.45,5.45,0,0,1-.82,3.11l-1.25-.3Zm-1.48,8.69-.63-1.55a44,44,0,0,0,4.45.39c.53,0,.77-.73.88-1.3H75.29l1.25-3.56H86.92v-.66H75.74V11.26h12.8v3.45l-10.75,0-.28.69,11.76,0a19.54,19.54,0,0,1-.84,3.43,1.8,1.8,0,0,1-1.79.82ZM78,8a5.69,5.69,0,0,1-.15,2.87l-1.43,0A5.33,5.33,0,0,0,76.8,8ZM77.9,5.59a4.31,4.31,0,0,1-.65.56l1-.07Zm1.42,2.24a5.43,5.43,0,0,1,.59,2.57l-1.32.28a4.51,4.51,0,0,0-.47-2.5Zm5.05-4.44V4.7H80.08V3.37ZM80.08,6.56V5.2l4.29,0v1.4ZM83,9.43V8.33l-1.49,0,0,1.1Zm4.58-3.95,1-.54a5.84,5.84,0,0,1,1.49,2.4L89,7.79a6.84,6.84,0,0,1,.91,2.74l-1.34.28A5.43,5.43,0,0,0,87.74,8l1.08-.25-.15-.44c-1,.09-2.18.22-3.41.44l-.84-1.21a11.6,11.6,0,0,0,1.87-1.9c-.26,0-.77.06-1.23.13l-.6-1.23A14.23,14.23,0,0,0,86.83.28l1.25.6a8.81,8.81,0,0,1-1.61,2.38l.92,0L88,2.14l1.25.6a15.89,15.89,0,0,1-2.5,3.39L88,6Zm-1.06,5.39A5.75,5.75,0,0,0,86.36,8l1.16-.2a6.4,6.4,0,0,1,.39,2.87Z" style="fill: #214534"/>
          <path d="M74.25,43.1v-11c-.38.49-1.12,1.36-1.92,2.22l-1.51-.88a19.08,19.08,0,0,0,5.55-9.74l1.53.65a28.8,28.8,0,0,1-2,5.24l0,13.51Zm10.06-1.83c0,.86-.3,1.81-1.64,1.81l-3.19,0-.67-1.68a29.14,29.14,0,0,0,3.28.1c.51,0,.58-.36.58-.73V34.62H76.86V33.05h5.81V30.72a14.08,14.08,0,0,0,3.8-4.08l-8.25,0V25.06L88.3,25l0,1.49a19.35,19.35,0,0,1-4,4.9l0,1.62h6v1.57h-6Z" style="fill: #214534"/>
          <path d="M89.92,65.73H74.64c-1.14,0-1.66-1-1.66-2V50l-1.36,0v-1.6l18.19,0V50H74.62l0,13.25c0,.6.22.84.89.84H89.92Zm-8.29-3h-6.1v-6l6.1,0Zm-4.49-4.4v2.82l2.85,0,0-2.87ZM87,55.61l-9.71,0,0-4.81H87Zm-8.07-1.47h6.43V52.26H78.94Zm10,2.61v5.91H82.73V56.75ZM87.29,58.3l-2.92,0v2.76l2.89,0Z" style="fill: #214534"/>
        </g>
        <g>
          <path d="M20.69,31.42l-2-8.08h1.57L21.05,27c.2,1,.39,2,.53,2.82h0C21.73,29,22,28,22.19,27l.87-3.64h1.55l.8,3.72c.19,1,.37,1.85.49,2.73h0c.14-.9.33-1.81.55-2.81l.84-3.64h1.5l-2.18,8.08H25.07l-.84-3.81a24.23,24.23,0,0,1-.46-2.56h0a26.14,26.14,0,0,1-.53,2.57l-.94,3.8Z" style="fill: #214534"/>
          <path d="M33.83,30a8.08,8.08,0,0,0,.09,1.4H32.59l-.11-.65h0a2.13,2.13,0,0,1-1.73.78,1.73,1.73,0,0,1-1.84-1.74c0-1.46,1.31-2.21,3.47-2.2v-.1c0-.38-.16-1-1.19-1a3.14,3.14,0,0,0-1.57.43l-.29-1a4.28,4.28,0,0,1,2.11-.51,2.19,2.19,0,0,1,2.42,2.47Zm-1.44-1.45c-1.05,0-2,.2-2,1.09a.78.78,0,0,0,.84.84,1.21,1.21,0,0,0,1.16-.81.85.85,0,0,0,0-.32Z" style="fill: #214534"/>
          <path d="M35.39,27.32c0-.67,0-1.24,0-1.74h1.28l.07.88h0a2.13,2.13,0,0,1,1.87-1c1,0,2.08.66,2.08,2.5v3.47H39.2v-3.3c0-.84-.31-1.47-1.11-1.47a1.25,1.25,0,0,0-1.16.86,1.61,1.61,0,0,0-.07.47v3.44H35.39Z" style="fill: #214534"/>
          <path d="M50.59,31.18a5.34,5.34,0,0,1-2.1.36,3.82,3.82,0,0,1-4.13-4.06,4.06,4.06,0,0,1,4.33-4.26,4.59,4.59,0,0,1,2,.35l-.31,1.17a4,4,0,0,0-1.59-.31,2.69,2.69,0,0,0-2.83,3,2.64,2.64,0,0,0,2.82,2.91A4.45,4.45,0,0,0,50.35,30Z" style="fill: #214534"/>
          <path d="M51.79,22.89h1.48v3.48h0a2,2,0,0,1,.73-.66,2.06,2.06,0,0,1,1-.26c1,0,2,.66,2,2.53v3.44H55.61V28.13c0-.84-.32-1.48-1.13-1.48a1.21,1.21,0,0,0-1.15.83,1.23,1.23,0,0,0-.06.44v3.5H51.79Z" style="fill: #214534"/>
          <path d="M63.19,30a8.08,8.08,0,0,0,.09,1.4H62l-.1-.65h0a2.13,2.13,0,0,1-1.73.78,1.73,1.73,0,0,1-1.83-1.74c0-1.46,1.3-2.21,3.46-2.2v-.1c0-.38-.15-1-1.18-1a3.14,3.14,0,0,0-1.58.43l-.28-1a4.22,4.22,0,0,1,2.11-.51,2.19,2.19,0,0,1,2.41,2.47Zm-1.44-1.45c-1,0-2,.2-2,1.09a.78.78,0,0,0,.84.84,1.21,1.21,0,0,0,1.16-.81.85.85,0,0,0,0-.32Z" style="fill: #214534"/>
          <path d="M65.48,24.74a.8.8,0,1,1,.84-.79.78.78,0,0,1-.84.79Zm-.73,6.68V25.58h1.48v5.84Z" style="fill: #214534"/>
          <path d="M30.28,35.46a14.6,14.6,0,0,1,2.35-.18,4.88,4.88,0,0,1,3.28.93,3.62,3.62,0,0,1,1.27,3,4.17,4.17,0,0,1-1.25,3.21,5.43,5.43,0,0,1-3.66,1.1,16.68,16.68,0,0,1-2-.1Zm1.47,6.85a6.71,6.71,0,0,0,.82,0,2.77,2.77,0,0,0,3.06-3.1,2.57,2.57,0,0,0-2.87-2.81,4.77,4.77,0,0,0-1,.08Z" style="fill: #214534"/>
          <path d="M39.14,36.74A.8.8,0,1,1,40,36a.78.78,0,0,1-.84.79Zm-.73,6.68V37.58h1.48v5.84Z" style="fill: #214534"/>
          <path d="M41.42,42.05a3.15,3.15,0,0,0,1.49.44c.65,0,.94-.28.94-.66s-.24-.59-1-.86c-1.14-.38-1.61-1-1.61-1.7,0-1,.85-1.82,2.21-1.82a3.3,3.3,0,0,1,1.56.35l-.3,1a2.52,2.52,0,0,0-1.24-.34c-.53,0-.81.27-.81.63s.27.53,1,.81c1.07.37,1.55.91,1.56,1.78,0,1.06-.82,1.83-2.37,1.83a3.8,3.8,0,0,1-1.78-.41Z" style="fill: #214534"/>
          <path d="M48.18,36.08v1.5h1.4v1.1h-1.4v2.57c0,.72.19,1.08.75,1.08a1.87,1.87,0,0,0,.58-.06l0,1.11a3,3,0,0,1-1.06.16,1.66,1.66,0,0,1-1.27-.48,2.25,2.25,0,0,1-.47-1.64V38.68H45.9v-1.1h.83V36.49Z" style="fill: #214534"/>
          <path d="M50.7,39.46c0-.79,0-1.36-.05-1.88h1.27l.06,1.1h0a1.75,1.75,0,0,1,1.61-1.23,1.79,1.79,0,0,1,.34,0v1.38a2.76,2.76,0,0,0-.44,0,1.29,1.29,0,0,0-1.32,1.11,3,3,0,0,0,0,.45v3H50.7Z" style="fill: #214534"/>
          <path d="M55.7,36.74a.8.8,0,1,1,.84-.79.78.78,0,0,1-.84.79ZM55,43.42V37.58h1.48v5.84Z" style="fill: #214534"/>
          <path d="M62.34,43.24a4.37,4.37,0,0,1-1.66.3,2.81,2.81,0,0,1-3-3,3,3,0,0,1,3.25-3.1,4.06,4.06,0,0,1,1.43.26l-.26,1.12A2.44,2.44,0,0,0,61,38.6a1.89,1.89,0,0,0,0,3.78,2.89,2.89,0,0,0,1.16-.23Z" style="fill: #214534"/>
          <path d="M65.3,36.08v1.5h1.41v1.1H65.3v2.57c0,.72.19,1.08.76,1.08a1.8,1.8,0,0,0,.57-.06l0,1.11a3.08,3.08,0,0,1-1.07.16,1.68,1.68,0,0,1-1.27-.48,2.25,2.25,0,0,1-.47-1.64V38.68H63v-1.1h.83V36.49Z" style="fill: #214534"/>
        </g>
        <g style="isolation: isolate">
          <polygon points="52.63 99.2 0 80.05 45.09 60.28 97.71 79.44 52.63 99.2" style="fill: #c4dc77"/>
          <polygon points="52.65 101.04 52.63 99.2 97.71 79.44 97.73 81.27 52.65 101.04" style="fill: #718044"/>
          <polygon points="0.02 81.88 0 80.05 52.63 99.2 52.65 101.04 0.02 81.88" style="fill: #444d28"/>
        </g>
        <g>
          <g>
            <path d="M20.42,48.58c-5.41,0-9.79,1.63-9.79,3.63h2c0-1.59,3.47-2.88,7.76-2.88s7.75,1.29,7.75,2.88h2C30.2,50.21,25.82,48.58,20.42,48.58Z" style="fill: #4fafa5"/>
            <path d="M20.42,43a13,13,0,0,1,2,13.22" style="fill: none;stroke: #613667;stroke-miterlimit: 10;stroke-width: 0.993270323130265px"/>
            <path d="M20.27,43a13,13,0,0,0-1.91,13.43" style="fill: none;stroke: #613667;stroke-miterlimit: 10;stroke-width: 0.993270323130265px"/>
            <path d="M20.42,55.08c4.28,0,7.75-1.29,7.75-2.87H12.66C12.66,53.79,16.13,55.08,20.42,55.08Z" style="fill: none"/>
            <polygon points="29.19 71.46 15.71 71.46 7.17 75.86 12.1 80.25 25.58 80.25 34.12 75.86 29.19 71.46" style="fill: #fff;stroke: #231f20;stroke-miterlimit: 10;stroke-width: 0.040871079574468px"/>
            <polygon points="29.19 58.88 15.71 58.88 7.17 63.27 12.1 67.67 25.58 67.67 34.12 63.27 29.19 58.88" style="fill: #fff;stroke: #231f20;stroke-miterlimit: 10;stroke-width: 0.040871079574468px"/>
            <rect x="12.1" y="67.67" width="13.48" height="17.08" style="fill: #f7bad5"/>
            <polygon points="7.17 63.27 7.17 80.24 12.1 84.63 12.1 67.67 7.17 63.27" style="fill: #b189bd"/>
            <polygon points="25.58 67.67 34.12 63.27 34.12 80.44 25.58 84.84 25.58 67.67" style="fill: #fff"/>
            <rect x="16.41" y="71.23" width="4.85" height="5.81" style="fill: #f072a0"/>
            <rect x="17.03" y="71.92" width="3.62" height="4.42" style="fill: #613667"/>
            <g>
              <polygon points="35.14 63.18 30.8 59.31 14.78 59.31 7.27 63.18 4.62 63.18 4.62 64.54 10.48 69.76 26.51 69.76 36.67 64.54 36.67 63.18 35.14 63.18" style="fill: #4fafa5"/>
              <polygon points="30.8 57.95 14.78 57.95 4.62 63.18 10.48 68.4 26.51 68.4 36.67 63.18 30.8 57.95" style="fill: #fff"/>
            </g>
            <rect x="17.2" y="56.87" width="1.41" height="9.37" rx="0.64" style="fill: #f7bad5"/>
            <rect x="22.15" y="56.87" width="1.41" height="9.37" rx="0.64" style="fill: #f7bad5"/>
            <g>
              <rect x="10.58" y="53.65" width="1.41" height="9.37" rx="0.64" style="fill: #f072a0"/>
              <rect x="11.64" y="55.68" width="1.41" height="9.37" rx="0.64" style="fill: #f7bad5"/>
            </g>
            <g>
              <rect x="28.81" y="53.65" width="1.41" height="9.37" rx="0.64" transform="translate(59.03 116.68) rotate(-180)" style="fill: #f072a0"/>
              <rect x="27.74" y="55.68" width="1.41" height="9.37" rx="0.64" transform="translate(56.9 120.73) rotate(-180)" style="fill: #f7bad5"/>
            </g>
            <path d="M28.17,52.21c0,1.58-3.47,2.87-7.75,2.87s-7.76-1.29-7.76-2.87h-2v2.51c0,2,4.38,3.62,9.79,3.62s9.78-1.62,9.78-3.62V52.21Z" style="fill: #f7bad5"/>
            <path d="M13.39,48.62a14.67,14.67,0,0,0,14.07,0" style="fill: none;stroke: #613667;stroke-miterlimit: 10;stroke-width: 0.546298677721648px"/>
            <path d="M13.37,53.91c0-4.5.71-10.87,7.05-10.87,6.65,0,7,6.37,7,10.87" style="fill: none;stroke: #613667;stroke-miterlimit: 10;stroke-width: 1.16805440790865px"/>
            <path d="M13.39,52.05a14.67,14.67,0,0,0,14.07,0" style="fill: none;stroke: #613667;stroke-miterlimit: 10;stroke-width: 0.546298677721648px"/>
            <path d="M15.06,45.52a13.64,13.64,0,0,0,10.89,0" style="fill: none;stroke: #613667;stroke-miterlimit: 10;stroke-width: 0.546298677721648px"/>
            <ellipse cx="20.42" cy="43.51" rx="1.86" ry="1.04" style="fill: #fff"/>
            <ellipse cx="20.43" cy="42.47" rx="0.9" ry="1.04" style="fill: #613667"/>
            <path d="M20.42,55.08c-4.29,0-7.76-1.29-7.76-2.87h-2c0,2,4.38,3.62,9.79,3.62s9.78-1.62,9.78-3.62h-2C28.17,53.79,24.7,55.08,20.42,55.08Z" style="fill: #b189bd"/>
            <path d="M29,54.13a8.77,8.77,0,0,1,.86-4.34c.48-.73.87.05.87,1.73" style="fill: #b189bd"/>
            <ellipse cx="29.95" cy="52.82" rx="2.73" ry="0.65" transform="matrix(0.11, -0.99, 0.99, 0.11, -25.82, 76.85)" style="fill: #fff"/>
            <g>
              <line x1="29.95" y1="50.33" x2="29.95" y2="50.93" style="fill: none;stroke: #613667;stroke-miterlimit: 10;stroke-width: 0.102510286844676px"/>
              <line x1="29.95" y1="54.71" x2="29.95" y2="55.32" style="fill: none;stroke: #613667;stroke-miterlimit: 10;stroke-width: 0.102510286844676px"/>
            </g>
            <g>
              <line x1="30.66" y1="51.75" x2="30.49" y2="52.01" style="fill: none;stroke: #613667;stroke-miterlimit: 10;stroke-width: 0.102510286844676px"/>
              <line x1="29.42" y1="53.63" x2="29.24" y2="53.9" style="fill: none;stroke: #613667;stroke-miterlimit: 10;stroke-width: 0.102510286844676px"/>
            </g>
            <g>
              <line x1="30.45" y1="53.83" x2="30.33" y2="53.58" style="fill: none;stroke: #613667;stroke-miterlimit: 10;stroke-width: 0.102510286844676px"/>
              <line x1="29.57" y1="52.06" x2="29.45" y2="51.82" style="fill: none;stroke: #613667;stroke-miterlimit: 10;stroke-width: 0.102510286844676px"/>
            </g>
            <g>
              <line x1="29.45" y1="55.34" x2="29.57" y2="54.73" style="fill: none;stroke: #613667;stroke-miterlimit: 10;stroke-width: 0.102510286844676px"/>
              <line x1="30.33" y1="50.91" x2="30.45" y2="50.3" style="fill: none;stroke: #613667;stroke-miterlimit: 10;stroke-width: 0.102510286844676px"/>
            </g>
            <polygon points="29.95 51.17 30.05 52.82 29.85 52.82 29.95 51.17" style="fill: #f072a0"/>
            <polygon points="30.31 52.28 30.04 52.88 29.87 52.77 30.31 52.28" style="fill: #f072a0"/>
            <path d="M30.13,49.52H29c-.48.07-1.12,1.52-1.12,4.08l1.13.09S29.15,50.24,30.13,49.52Z" style="fill: #f7bad5"/>
            <path d="M12.26,54.17a8.71,8.71,0,0,0-.39-4.41c-.39-.76-.86,0-1,1.63" style="fill: #b189bd"/>
            <ellipse cx="11.44" cy="52.77" rx="0.65" ry="2.73" style="fill: #fff"/>
            <g>
              <line x1="10.85" y1="51.63" x2="10.99" y2="51.9" style="fill: none;stroke: #613667;stroke-miterlimit: 10;stroke-width: 0.102510286844676px"/>
              <line x1="11.88" y1="53.64" x2="12.03" y2="53.91" style="fill: none;stroke: #613667;stroke-miterlimit: 10;stroke-width: 0.102510286844676px"/>
            </g>
            <g>
              <line x1="10.83" y1="53.71" x2="10.98" y2="53.48" style="fill: none;stroke: #613667;stroke-miterlimit: 10;stroke-width: 0.102510286844676px"/>
              <line x1="11.9" y1="52.06" x2="12.05" y2="51.83" style="fill: none;stroke: #613667;stroke-miterlimit: 10;stroke-width: 0.102510286844676px"/>
            </g>
            <path d="M11.62,49.46l1.14.13c.47.12,1,1.64.68,4.18l-1.14,0S12.52,50.29,11.62,49.46Z" style="fill: #f7bad5"/>
            <g>
              <g>
                <path d="M17.37,55.72a3,3,0,0,1,6.07,0" style="fill: #b189bd"/>
                <circle cx="20.4" cy="55.72" r="2.49" style="fill: #fff"/>
              </g>
              <g>
                <line x1="20.4" y1="53.23" x2="20.4" y2="53.84" style="fill: none;stroke: #613667;stroke-miterlimit: 10;stroke-width: 0.160504744168093px"/>
                <line x1="20.4" y1="57.61" x2="20.4" y2="58.22" style="fill: none;stroke: #613667;stroke-miterlimit: 10;stroke-width: 0.160504744168093px"/>
              </g>
              <g>
                <line x1="22.9" y1="55.72" x2="22.29" y2="55.72" style="fill: none;stroke: #613667;stroke-miterlimit: 10;stroke-width: 0.160504744168093px"/>
                <line x1="18.52" y1="55.72" x2="17.91" y2="55.72" style="fill: none;stroke: #613667;stroke-miterlimit: 10;stroke-width: 0.160504744168093px"/>
              </g>
              <g>
                <line x1="22.17" y1="57.49" x2="21.74" y2="57.06" style="fill: none;stroke: #613667;stroke-miterlimit: 10;stroke-width: 0.160504744168093px"/>
                <line x1="19.07" y1="54.39" x2="18.64" y2="53.96" style="fill: none;stroke: #613667;stroke-miterlimit: 10;stroke-width: 0.160504744168093px"/>
              </g>
              <g>
                <line x1="18.64" y1="57.49" x2="19.07" y2="57.06" style="fill: none;stroke: #613667;stroke-miterlimit: 10;stroke-width: 0.160504744168093px"/>
                <line x1="21.74" y1="54.39" x2="22.17" y2="53.96" style="fill: none;stroke: #613667;stroke-miterlimit: 10;stroke-width: 0.160504744168093px"/>
              </g>
              <polygon points="20.4 54.07 20.56 55.72 20.24 55.72 20.4 54.07" style="fill: #f072a0"/>
              <polygon points="21.67 55.72 20.4 55.88 20.4 55.56 21.67 55.72" style="fill: #f072a0"/>
            </g>
            <g>
              <path d="M18.84,74.61H17.72s0,0,0,0V72.34s0,0,0,0H20s.05,0,.05,0v2.24s0,0-.05,0Zm-.39-1.15c0,.11,0,.23,0,.34s0,0,.05,0h.69s0,0,0,0v-.7s0,0,0,0h-.7s0,0,0,0S18.45,73.34,18.45,73.46Zm1.44-.18v-.16s0,0,0,0l-.08,0h0a0,0,0,0,1,0,0l0,0a.17.17,0,0,0,.08-.2s0,0,0,0a.08.08,0,0,0-.12,0l0,.07a.68.68,0,0,1-.1.21.19.19,0,0,1-.26.08s0,0,0,0a1,1,0,0,1,0,.17s0,0,0,0h.1s0,0,0,0,0,0,0,0h0a.15.15,0,0,0-.09,0s0,.06,0,.09l.2.08s0,0,0,0a.11.11,0,0,0-.08-.1s0,0,0,0,0,0,0,0l.26,0s0,0,0,0h0l-.11,0a.07.07,0,0,0,0,.09l.21.08s0,0,0,0v-.15a.08.08,0,0,0-.05-.1l-.13-.05h0s0,0,0,0h.14s0,0,0,0Zm-2.1,0v.1s0,0,0,0H18s0,0,0,0,0,0,0,0h0a.19.19,0,0,0-.15.22.07.07,0,0,0,.09.07.13.13,0,0,0,.1-.07,1.32,1.32,0,0,1,.12-.2.17.17,0,0,1,.21-.06s0,0,0,0v-.16a.13.13,0,0,0-.06-.13l-.14-.09-.32-.2s0,0,0,0V73a.1.1,0,0,0,.06.11l.13.06s0,0,0,0,0,0,0,0l-.16,0s0,0,0,0Zm1.58-.67a.32.32,0,0,0,.17,0l.08-.06s0,0,0,0,0,0,0,0-.11.13-.17.2l0,0h0s0,0,0,0a.16.16,0,0,0,0-.07s0,0,0,0a.08.08,0,0,0-.1.05.83.83,0,0,1-.09.16s0,0,0,0a.35.35,0,0,0,.2,0l0,0s0,0,0,0,0,0,0,0l-.06,0a.47.47,0,0,0-.1.1.14.14,0,0,0,0,.14.11.11,0,0,0,.12,0,.31.31,0,0,0,.07-.09,2,2,0,0,1,.1-.21.15.15,0,0,1,.21-.08s0,0,0,0v-.31s0,0,0,0l-.14.16s0,0,0,0,0,0,0,0l.09-.12s0,0,0,0h-.26Zm-1.48-.25h0c-.08,0-.07,0-.07.07s0,0,0,.07l.06,0s0,0,0,0,0,0,0,0h0s0,0,0,0v.08s0,0,0,.05l.25.15.21.13c.05,0,.07,0,.07-.05a0,0,0,0,1,0,0s0,0,0,0l0,0-.27-.39A.18.18,0,0,0,17.89,72.4Zm0,1.87h.06a.33.33,0,0,1,.13.07s0,0,0,0a.91.91,0,0,0,.17-.17.53.53,0,0,0,.08-.17c0-.08,0-.11-.09-.09l0,0a.89.89,0,0,0-.37.35.21.21,0,0,0,0,.15s0,0,0,0a.2.2,0,0,0,.14-.06s0,0,0,0A.18.18,0,0,0,17.86,74.27Zm.69-1.6h0v-.22s0,0-.05,0h-.35s0,0,0,0a.36.36,0,0,0,.07.1l.26.36s0,0,0,0,0,0,0-.05Zm.47,0h0v.22s0,.05,0,.05a0,0,0,0,0,.06,0l.05-.08.2-.36a0,0,0,0,0,0,0s0,0-.05,0h-.25s-.05,0-.05,0ZM18.7,74c-.1,0-.1,0-.13.1l-.06.2a.53.53,0,0,0,0,.12c0,.07,0,.11.09.09a.14.14,0,0,0,.11-.1.56.56,0,0,0,0-.12,2,2,0,0,0,.07-.23s0-.05,0-.06Zm1.19.13h0v0c0-.08,0-.1-.09-.13l-.14-.06-.24-.1q-.09,0-.09.06v0s0,0,0,0a.16.16,0,0,1,.24.09.25.25,0,0,1,0,.17s0,0,0,0a.55.55,0,0,1,.22.06s.06,0,.06,0A.22.22,0,0,0,19.89,74.08Zm-2.1.06,0,0a.86.86,0,0,1,.2-.18.38.38,0,0,1,.25-.08s.05,0,.07,0,0,0,0-.07h0s0,0,0,0l-.1,0s0,0,0,0a0,0,0,0,1,0,0l0,0a.16.16,0,0,0,.09-.09.08.08,0,0,0,0-.1.08.08,0,0,0-.09,0,.22.22,0,0,0,0,.08l-.11.17a.18.18,0,0,1-.24.07h0Zm2,.37h0c.08,0,.08,0,.08-.09a.08.08,0,0,0-.05-.1.57.57,0,0,0-.22-.11.14.14,0,0,0-.11,0c-.05,0-.05,0,0,.09l0,0s0,.08.08.11A.3.3,0,0,0,19.8,74.51ZM19.06,74h0a.08.08,0,0,0,0,0l.27.43a.13.13,0,0,0,.12.08s.07,0,0-.07l0,0a1.09,1.09,0,0,0-.13-.17,1.88,1.88,0,0,0-.16-.23A.11.11,0,0,0,19.06,74Zm-.44.55h.16s.06,0,.07-.06,0-.14,0-.21L19,74s0,0,0,0a.08.08,0,0,0-.09.06s0,.11,0,.16A.53.53,0,0,1,18.62,74.5Zm-.22,0a.2.2,0,0,1,0-.18c0-.11.07-.22.1-.33s0,0,0,0H18.4a.06.06,0,0,0,0,0,.36.36,0,0,1-.06.2,1.1,1.1,0,0,1-.21.22s0,0,0,0a.1.1,0,0,0,.09,0s0,0,0,0,0,0,0,0Zm.39-1.73h0c0-.12.08-.24.13-.36s0,0,0,0h-.22s0,0,0,0l.06.17A1.34,1.34,0,0,0,18.79,72.78Zm.76,1.28a.19.19,0,0,0-.11-.15.1.1,0,0,0-.09,0l0,0s0,0,0,.06l.11.16s0,0,0,0l.07-.06A.07.07,0,0,0,19.55,74.06Zm-.49.45h.12s0,0,0-.05l-.06-.09a0,0,0,0,0,0,0H19c-.07,0-.07,0-.08.07v0s0,.07.05.07Zm-.46-2h0v.28c0,.12,0,.12.13.12s0,0,0,0S18.64,72.68,18.6,72.56Zm.35,0h0c-.05.12-.09.25-.14.37s0,0,0,0h.06c.05,0,.06,0,.06-.06Zm0,1.54,0,.15a0,0,0,0,0,0,0h.1s0,0,0,0Z" style="fill: #f7bad5"/>
              <path d="M18.74,73.44l-.1-.06s0,0,0-.06,0,0,0,0l.12.08a0,0,0,0,0,.05,0l.2-.12s.05,0,.07,0,0,0,0,.06l-.16.1s0,0,0,0a0,0,0,0,1,0,0,0,0,0,0,1,0,0s0,0,0,0-.06,0-.09,0,0,0-.05,0S18.7,73.47,18.74,73.44Z" style="fill: #f7bad5"/>
            </g>
            <g>
              <path d="M19.05,75.21a.84.84,0,0,1-.07.35,5.1,5.1,0,0,0,0-.68.16.16,0,0,0,.16,0l0-.08c.06,0,.08,0,.09.08s.09,0,.1-.06h0l0,.08h-.09s0,0,0,.07h0l0,0,.05.08h-.09v.06s0,0,0,0,0,0,0,0h-.1s0,0,0,0v-.06s-.05,0-.06,0,0,.08.05.08h.16l0,0,0,0,.05.09H19.3a.7.7,0,0,1,0,.25.36.36,0,0,1,0,.09v0s0,0,0,0a.3.3,0,0,1-.08-.08,0,0,0,0,1,0,0h-.06l0,0a.27.27,0,0,1-.18.07l.09-.08s0,0,0-.06v-.21Zm0-.25c0,.06,0,.06.05.06V75Zm.11,0V75h0V75Zm0,.39v.05h0C19.26,75.35,19.26,75.35,19.22,75.35Zm0-.26s0,0-.06,0S19.19,75.09,19.22,75.09Zm0,.18s0,0,0,0h0s0,0,0,0Zm-.12-.07h0l.05,0h0a0,0,0,0,0,0,0Zm.18,0v0l-.05,0,0,0Zm-.14.19s0,0,0-.05S19.12,75.37,19.13,75.4Zm0-.13h0s0,0,0,0l0,0h0Z" style="fill: #f7bad5"/>
              <path d="M19.83,75.48l-.09.08h0l.07-.11a.29.29,0,0,0,.05-.13.36.36,0,0,1-.14.18h0l.1-.16h0l0,0s0,0,0,0h0l.06-.11h0l-.12.13,0-.11c.05,0,.05,0,.05-.09v-.12h0v0h.05v-.2l.05,0s0,0,0,0a.36.36,0,0,1,0,.1l.06,0v-.17c.12.05.12.05.16,0s0,.05,0,.09a1.09,1.09,0,0,0,0,.18s0,0,.06.08v0h-.12a.05.05,0,0,0-.06.06c.05,0,.1,0,.13,0s0,0,0,.1,0,.09,0,.13a.32.32,0,0,1,0,.09s0,0-.05,0S19.84,75.5,19.83,75.48Zm.09-.32,0,0a.06.06,0,0,0-.09,0h0s0,0,0,0v0h0v.09C19.76,75.19,19.9,75.19,19.92,75.16Zm0-.13H19.8v.06h.08Zm-.08,0h.07v-.07H19.8Zm.11.34h0l-.06.13s.05,0,.06,0A.38.38,0,0,1,19.91,75.33Zm-.15-.11h-.05l0,0v.06Z" style="fill: #f7bad5"/>
              <path d="M18.06,75.13H18l.07.13H18v.18a.17.17,0,0,1,0,.07s0,0,0,0l-.06-.11H18v-.19h-.13v.11s0,0,0,0l0,0s0,0,0,0,0,0,0,0,0,0,0,0v0l0,0s0,0,0,0v-.56l.06,0,.05,0s0,.1.1.07v-.12l.05,0s0,0,0,0,0,0,0,.06h0l0-.06.05.1H18v.11h0L18,75Zm-.23,0c0,.09,0,.1.07.1h0v-.11Zm0-.15V75c0,.06,0,.07.08,0V75Zm-.05.27v-.08a0,0,0,0,1,0,0l0,0v.15a0,0,0,0,0,0,0,0,0,0,0,0,0,0Zm0-.22V75s0,0,0,0,0,0,0,0v.12s0,0,0,0,0,0,0,0Z" style="fill: #f7bad5"/>
              <path d="M18.55,75.13a.6.6,0,0,0,.07.3l0-.12h0a.06.06,0,0,1,0,0,.91.91,0,0,1,0,.17,0,0,0,0,1,0,0s0,0,0,0a.12.12,0,0,1-.05,0,.84.84,0,0,1-.08-.31v0l-.09,0v.36l0,0a.08.08,0,0,1,0,0v-.37l-.05.08h0l0-.12a.74.74,0,0,1,0-.14.89.89,0,0,1,0-.14l.05,0s0,0,0,0a.24.24,0,0,0,0,.15s0,0,0,0,.09,0,.09,0v-.21s.06,0,.07,0h0c.06,0,.08.06.06.13l0,0s0,0,0,.06Zm0-.23h0v.18s.07,0,.06-.06A1.39,1.39,0,0,0,18.55,74.9Z" style="fill: #f7bad5"/>
              <path d="M17.85,75.28a.12.12,0,0,1,.08.14l0,0s0,0,0,0Z" style="fill: #f7bad5"/>
            </g>
            <g>
              <path d="M17.5,75.79h.07s0,0,0,.08,0,.06,0,.09h-.06v-.08h-.07V76h-.07a.17.17,0,0,0,0-.17h.07v.07h.06S17.53,75.81,17.5,75.79Z" style="fill: #f7bad5"/>
              <path d="M18.07,75.79h.07v.07h0l.06-.06v0h.05l-.08.06.09.11h-.08s0,0,0-.08h0V76h-.07A.17.17,0,0,0,18.07,75.79Z" style="fill: #f7bad5"/>
              <path d="M19.19,76h0v-.09h0a0,0,0,0,0,0,0,.28.28,0,0,0,0,.09h0a.28.28,0,0,0,0-.09s0,0,0,0h0A.28.28,0,0,0,19,76h0v-.12h.05a.06.06,0,0,1,.06,0h0s.05,0,.05,0v0S19.19,76,19.19,76Z" style="fill: #f7bad5"/>
              <path d="M18.58,75.92s0,0,0-.06,0,0,.06,0h.05s0,0,0,0,0,0,0,0h0s0,0,0,0h.06a0,0,0,0,1,0,0s0,0,0,0h-.1S18.53,75.93,18.58,75.92Zm0,0,0,0s0,0,0,0a0,0,0,0,0,0,0h0Zm0,.1h0l0,0h0l0,0Z" style="fill: #f7bad5"/>
              <path d="M17.89,75.91s0,0,0,0a0,0,0,0,1,.06,0H18v0s0,0,0,0h0s0,0,0,0H18l0,0a.08.08,0,0,1,0,0h-.1S17.88,75.94,17.89,75.91Zm0,0h0l0,0s0,0,0,0v0h0Zm0,.09h0l0,0h0l0,0Z" style="fill: #f7bad5"/>
              <path d="M19.76,76h-.05V76s-.07,0-.08,0a.08.08,0,0,1,0-.09h.08V76Zm0-.12h0v0a0,0,0,0,0,0,0h0a.11.11,0,0,0,0,0s0,0,0,0,0,0,0,0Z" style="fill: #f7bad5"/>
              <path d="M19.61,75.79v0a0,0,0,0,1,0,0l0,0s0,0,0,0,0,0,0,0l.05,0s0,0,0,.07a.05.05,0,0,1-.07,0H19.5v0a0,0,0,0,1,0,0s0,0,0,0,0,0,0,0v0l-.06,0a0,0,0,0,1,0-.08s0,0,0,0Z" style="fill: #f7bad5"/>
              <path d="M18.86,76h-.07V75.8s0,0-.05,0v0h.15v0s0,0,0,0A.26.26,0,0,0,18.86,76Z" style="fill: #f7bad5"/>
              <path d="M19.9,76h0s-.05,0-.05,0v-.06s0,0,0,0h.05s0,.06,0,.08,0,0,0,0h0a.27.27,0,0,0,0-.09h0Z" style="fill: #f7bad5"/>
              <path d="M17.73,75.84h.06s.05,0,.05,0V76h0a.28.28,0,0,0,0-.09,0,0,0,0,0,0,0h0a.27.27,0,0,0,0,.09h-.05Z" style="fill: #f7bad5"/>
              <path d="M18.41,76v-.12h.06s.05,0,.05,0V76h0v-.1l0,0V76Z" style="fill: #f7bad5"/>
              <path d="M20,76a0,0,0,0,1,0,0h-.06a.06.06,0,0,1,0,0l0,0s0,0,0,0,0,0,0,0h0v0h0s0,0,0,0,0,0,0,0,0,0,0,0A0,0,0,0,1,20,76Zm0,0h0l0,0h0Z" style="fill: #f7bad5"/>
              <path d="M18.38,75.9s0,.06-.05.06a.05.05,0,0,1-.06-.06.06.06,0,0,1,.06-.06S18.38,75.86,18.38,75.9Zm0,0a.06.06,0,0,0,0,0h0v.08h0A.08.08,0,0,0,18.35,75.9Z" style="fill: #f7bad5"/>
              <path d="M17.71,75.9s0,.07-.06.06a.06.06,0,0,1-.06-.06s0-.06.06-.06A.05.05,0,0,1,17.71,75.9Zm0,0v0h0a.11.11,0,0,0,0,.08h0s0,0,0,0Z" style="fill: #f7bad5"/>
              <path d="M20.28,75.93s0,0-.07,0,0,0,0-.08a.07.07,0,0,1,.06,0s0,0,0,.06h-.07l0,0Zm0,0,0,0,0,0Z" style="fill: #f7bad5"/>
              <path d="M19.31,75.9h-.07l0,0h0a0,0,0,0,1-.06,0s0,0,0-.07,0-.06.06,0S19.31,75.86,19.31,75.9Zm-.07,0h.05l0,0Z" style="fill: #f7bad5"/>
              <path d="M19.41,75.88s0,0,0,0h0s0,0,0,0l0,0s0,0,0,0a0,0,0,0,1-.05,0h0v0l0,0h0s0,0,0,0l0,0s0,0,0,0l0,0h0Z" style="fill: #f7bad5"/>
              <path d="M20.12,76h-.05v-.12h.09v0h0A.14.14,0,0,0,20.12,76Z" style="fill: #f7bad5"/>
              <path d="M19,75.84V76h0v-.12Z" style="fill: #f7bad5"/>
              <path d="M19,75.8l0,0,0,0s0,0,0,0Z" style="fill: #f7bad5"/>
            </g>
          </g>
          <g>
            <line x1="11.71" y1="50.29" x2="11.64" y2="50.89" style="fill: none;stroke: #613667;stroke-miterlimit: 10;stroke-width: 0.102510286844676px"/>
            <line x1="11.23" y1="54.65" x2="11.17" y2="55.25" style="fill: none;stroke: #613667;stroke-miterlimit: 10;stroke-width: 0.102510286844676px"/>
          </g>
          <g>
            <line x1="11.66" y1="55.33" x2="11.61" y2="54.71" style="fill: none;stroke: #613667;stroke-miterlimit: 10;stroke-width: 0.102510286844676px"/>
            <line x1="11.27" y1="50.83" x2="11.21" y2="50.21" style="fill: none;stroke: #613667;stroke-miterlimit: 10;stroke-width: 0.102510286844676px"/>
          </g>
          <polygon points="11.62 51.13 11.54 52.78 11.34 52.76 11.62 51.13" style="fill: #f072a0"/>
          <polygon points="11.14 52.19 11.53 52.72 11.35 52.82 11.14 52.19" style="fill: #f072a0"/>
        </g>
        <g>
          <g>
            <polygon points="58.98 64.82 54.51 69.09 54.51 60.12 58.98 55.85 58.98 64.82" style="fill: #4fafa5"/>
            <polygon points="58.42 61.96 55.07 65.16 55.07 60.71 58.42 57.51 58.42 61.96" style="fill: #f7bad5"/>
            <polygon points="58.23 61.89 55.26 64.73 55.26 60.78 58.23 57.94 58.23 61.89" style="fill: #f072a0"/>
            <polygon points="54.51 69.09 48.45 74.86 48.45 65.89 54.51 60.12 54.51 69.09" style="fill: #613667"/>
            <polygon points="54.2 66.62 48.45 72.1 48.45 65.89 54.2 60.41 54.2 66.62" style="fill: #f7bad5"/>
            <line x1="48.48" y1="68.96" x2="54.2" y2="63.5" style="fill: none;stroke: #613667;stroke-miterlimit: 10;stroke-width: 0.158905808692424px"/>
            <line x1="51.33" y1="63.14" x2="51.33" y2="69.34" style="fill: #fff;stroke: #231f20;stroke-miterlimit: 10;stroke-width: 0.111276619748982px"/>
            <line x1="53" y1="61.55" x2="53" y2="67.75" style="fill: none;stroke: #613667;stroke-miterlimit: 10;stroke-width: 0.158905808692424px"/>
            <polygon points="54.2 69.38 48.64 74.69 48.64 72.44 54.2 67.13 54.2 69.38" style="fill: #f072a0"/>
            <polygon points="58.75 65.04 54.74 68.86 54.74 66.61 58.75 62.79 58.75 65.04" style="fill: #613667"/>
            <polygon points="54.4 67.29 48.45 72.96 48.45 72.08 54.4 66.41 54.4 67.29" style="fill: #b189bd;stroke: #613667;stroke-miterlimit: 10;stroke-width: 0.191786733212814px"/>
            <polygon points="55.07 65.78 54.53 66.29 54.53 60.1 55.07 59.59 55.07 65.78" style="fill: #f7bad5;stroke: #613667;stroke-miterlimit: 10;stroke-width: 0.115072039927688px"/>
            <polygon points="58.96 62.07 58.42 62.58 58.42 56.39 58.96 55.88 58.96 62.07" style="fill: #f7bad5;stroke: #613667;stroke-miterlimit: 10;stroke-width: 0.115072039927688px"/>
            <polygon points="51.44 72.01 51.24 72.2 51.24 70.3 51.44 70.11 51.44 72.01" style="fill: #231f20"/>
            <polygon points="53.1 70.43 52.89 70.63 52.89 68.72 53.1 68.53 53.1 70.43" style="fill: #613667"/>
            <g>
              <polygon points="55.34 68.29 54.9 68.71 54.9 66.81 55.34 66.39 55.34 68.29" style="fill: #f072a0"/>
              <polygon points="55.99 67.67 55.55 68.09 55.55 66.19 55.99 65.77 55.99 67.67" style="fill: #f072a0"/>
              <polygon points="56.64 67.05 56.2 67.47 56.2 65.57 56.64 65.15 56.64 67.05" style="fill: #f072a0"/>
              <polygon points="57.29 66.43 56.85 66.86 56.85 64.95 57.29 64.53 57.29 66.43" style="fill: #f072a0"/>
              <polygon points="57.94 65.81 57.5 66.24 57.5 64.33 57.94 63.91 57.94 65.81" style="fill: #f072a0"/>
              <polygon points="58.59 65.19 58.15 65.62 58.15 63.72 58.59 63.29 58.59 65.19" style="fill: #f072a0"/>
            </g>
            <polygon points="49.79 73.59 49.58 73.78 49.58 71.88 49.79 71.69 49.79 73.59" style="fill: #231f20"/>
          </g>
          <line x1="49.69" y1="64.75" x2="49.69" y2="70.96" style="fill: #fff;stroke: #231f20;stroke-miterlimit: 10;stroke-width: 0.111276619748982px"/>
          <rect x="39.25" y="53.21" width="8.97" height="8.97" style="fill: #fff"/>
          <rect x="39.53" y="65.9" width="8.97" height="8.97" style="fill: #613667"/>
          <rect x="40.29" y="65.88" width="7.45" height="6.21" style="fill: #f7bad5"/>
          <rect x="40.29" y="72.61" width="7.45" height="2.25" style="fill: #f072a0"/>
          <rect x="39.91" y="72.09" width="7.82" height="0.87" style="fill: #b189bd;stroke: #613667;stroke-miterlimit: 10;stroke-width: 0.191786733212814px"/>
          <g id="T5vVCF">
            <g>
              <path d="M45.6,61.28c-.4-.17-.56-.38-.53-.76a.62.62,0,0,1,.6-.61.61.61,0,0,1,.61.6.67.67,0,0,1-.56.77ZM46,60.6a.84.84,0,0,0-.08-.38.23.23,0,0,0-.41,0,.7.7,0,0,0,0,.74.23.23,0,0,0,.42,0A.72.72,0,0,0,46,60.6Z" style="fill: #4fafa5"/>
              <path d="M43.75,54.12A2.79,2.79,0,1,1,41,56.83,2.77,2.77,0,0,1,43.75,54.12Zm-2.18,2.79a2.2,2.2,0,0,0,.56,1.45c.07.08.11.07.16,0l1-1.35a.14.14,0,0,0,0-.21c-.32-.43-.64-.87-1-1.31-.1-.12-.12-.13-.22,0A2.09,2.09,0,0,0,41.57,56.91Zm4.34.15a2.33,2.33,0,0,0-.53-1.59c-.07-.08-.12-.12-.21,0-.32.44-.64.89-1,1.33a.15.15,0,0,0,0,.2c.33.44.65.88,1,1.33.07.09.12.11.2,0A2.13,2.13,0,0,0,45.91,57.06Zm-.71-1.73a2.08,2.08,0,0,0-2.92,0Zm-2.91,3.15a2,2,0,0,0,1.87.55,1.62,1.62,0,0,0,1-.55ZM43.74,56c-.07,0-.19,0-.23,0s.07.14.12.2.12.17.23,0,.14-.13.11-.2S43.83,56,43.74,56ZM44,57.83l-.07-.11c-.24-.32-.15-.34-.41,0,0,0-.05.09,0,.09Z" style="fill: #4fafa5"/>
              <path d="M41.17,61a.86.86,0,0,1,0-.17s0-.1.08-.1a.08.08,0,0,1,.1.07.41.41,0,0,0,.31.26.21.21,0,0,0,.27-.12c0-.13-.06-.19-.16-.23a3.58,3.58,0,0,1-.35-.11.36.36,0,0,1-.24-.4.35.35,0,0,1,.37-.28.7.7,0,0,1,.29,0c.09,0,.17.07.26,0s.12,0,.13.09v.24a.11.11,0,0,1-.08.12c-.06,0-.08,0-.11-.08a.37.37,0,0,0-.39-.21c-.08,0-.15,0-.17.11s0,.14.12.17l.35.11a.4.4,0,0,1,.28.46.42.42,0,0,1-.44.31.45.45,0,0,1-.23,0c-.09,0-.17-.07-.26,0s-.11,0-.12-.06A1,1,0,0,1,41.17,61Z" style="fill: #4fafa5"/>
              <path d="M43,61.26a.65.65,0,0,1-.61-.68.62.62,0,1,1,.61.68Zm-.28-.68a.79.79,0,0,0,.06.34.25.25,0,0,0,.23.16.24.24,0,0,0,.23-.16.78.78,0,0,0,0-.71.22.22,0,0,0-.39,0A.68.68,0,0,0,42.72,60.58Z" style="fill: #4fafa5"/>
              <path d="M44.82,60.21v.19s0,.08-.07.09a.09.09,0,0,1-.1-.06c0-.07,0-.14-.08-.2a.23.23,0,0,0-.42,0,.82.82,0,0,0,0,.73.23.23,0,0,0,.35.08.19.19,0,0,0,0-.3s-.06,0,0-.09a.1.1,0,0,1,.1-.07h.32c.09,0,.13.09.06.14s-.12.19-.12.32a.49.49,0,0,1,0,.12.08.08,0,0,1-.12.07c-.09-.06-.16,0-.25,0a.5.5,0,0,1-.55-.19.83.83,0,0,1,0-1,.52.52,0,0,1,.6-.14c.05,0,.1.06.17,0s.13,0,.14.08v.17Z" style="fill: #4fafa5"/>
            </g>
          </g>
          <rect x="49.5" y="64.05" width="2.71" height="13.11" rx="1.35" style="fill: #fff;stroke: #4fafa5;stroke-miterlimit: 10;stroke-width: 0.038357346642563px"/>
          <polygon points="51.72 61.2 48.22 62.18 48.22 53.22 51.72 52.23 51.72 61.2" style="fill: #f7bad5"/>
          <g>
            <path d="M49.41,54v.35l.44-.13a3.31,3.31,0,0,1-.77.93l.08.35.45-.33s0,.72.77.41l.07-.35s-.37.17-.45-.11.83-.86.83-.86l-.07-.27-.67.37.36-.54-.15-.24A1.78,1.78,0,0,1,49.41,54Z" style="fill: #4fafa5"/>
            <path d="M49.55,56.27l-.19.37,1,.13.32-.52A10.6,10.6,0,0,1,49.55,56.27Z" style="fill: #4fafa5"/>
            <polygon points="50.32 56.91 50.43 57.12 50.59 56.98 50.48 56.77 50.32 56.91" style="fill: #4fafa5"/>
            <polygon points="50.58 56.7 50.69 56.92 50.86 56.78 50.74 56.57 50.58 56.7" style="fill: #4fafa5"/>
            <path d="M49.19,57.39h.33s-.16.49.08.48a3.34,3.34,0,0,0,1.12-.55l.11.34a3.06,3.06,0,0,1-1.37.6C48.81,58.28,49.19,57.39,49.19,57.39Z" style="fill: #4fafa5"/>
            <path d="M49.59,58.75l-.13.38h.27a1.75,1.75,0,0,1,.56.06.21.21,0,0,0,.11,0l.25-.54A7.07,7.07,0,0,1,49.59,58.75Z" style="fill: #4fafa5"/>
            <path d="M49.31,59.69v.41a6.53,6.53,0,0,1,.78-.37c.13,0,.26-.12.25.22s-.26.46-.72.55v.37s.9-.13,1-.75,0-1-.3-.8C50.25,59.37,49.31,59.69,49.31,59.69Z" style="fill: #4fafa5"/>
          </g>
          <g>
            <polygon points="54.47 49.7 58.73 45.72 58.73 54.55 54.47 58.54 54.47 49.7" style="fill: #f072a0"/>
            <path d="M58.68,45.85V54.5l-4.16,3.9V49.75l4.16-3.9m.11-.27L54.41,49.7v9l4.38-4.12v-9Z" style="fill: #4fafa5"/>
          </g>
          <g>
            <path d="M57.78,52.45c-.25-.1-.35-.47-.34-1.27a3,3,0,0,1,.39-1.63c.2-.2.37.17.38.89a3.75,3.75,0,0,1-.36,1.94ZM58,50.82a4.22,4.22,0,0,0,0-.75c-.06-.31-.19-.22-.25.22a4.74,4.74,0,0,0,0,1.55c.07.34.21.17.27-.29A6.06,6.06,0,0,0,58,50.82Z" style="fill: #fff"/>
            <path d="M55,54.49v-.36a.74.74,0,0,1,0-.26s.06,0,.07.1c0,.28.1.38.2.36s.15-.19.16-.42,0-.36-.1-.37a1.7,1.7,0,0,1-.22,0c-.12,0-.17-.31-.15-.69a1.41,1.41,0,0,1,.23-.82c.06-.07.13-.14.19-.12s.1.05.16-.15.07,0,.08.11v.5a.6.6,0,0,1,0,.29c0,.06,0,0-.07-.1,0-.27-.13-.35-.24-.21a.51.51,0,0,0-.11.34c0,.22,0,.27.07.28a1.43,1.43,0,0,1,.22,0c.14.06.21.35.18.8a1.42,1.42,0,0,1-.27.89c0,.05-.11.1-.15.07s-.11-.06-.17.15S55,55,55,54.83,55,54.59,55,54.49Z" style="fill: #fff"/>
            <path d="M56.14,54c-.21.2-.39-.27-.39-1.05a3.13,3.13,0,0,1,.4-1.77c.22-.21.39.26.39,1.06A3,3,0,0,1,56.14,54ZM56,52.69a3.66,3.66,0,0,0,0,.68c0,.17.08.27.15.2a.93.93,0,0,0,.14-.47,5.07,5.07,0,0,0,0-1.47c-.06-.3-.19-.17-.25.24A4.57,4.57,0,0,0,56,52.69Z" style="fill: #fff"/>
            <path d="M57.29,50.68v.39a.51.51,0,0,1,0,.24s-.05,0-.06-.08,0-.25,0-.36c-.06-.33-.2-.22-.26.23a5.14,5.14,0,0,0,0,1.52c0,.25.14.21.22,0a1,1,0,0,0,0-.63.46.46,0,0,1,0-.17.32.32,0,0,1,.07-.2.84.84,0,0,1,.2-.18c.05,0,.08.1,0,.24a2.39,2.39,0,0,0-.07.75,2.44,2.44,0,0,1,0,.27c0,.13,0,.25-.07.21s-.11.08-.16.18c-.13.26-.25.24-.35-.06a5.61,5.61,0,0,1,0-2c.09-.44.24-.69.37-.63s.07.06.11-.08.08-.11.09.09v.35Z" style="fill: #fff"/>
          </g>
          <polygon points="54.41 58.67 51.72 61.2 51.72 52.23 54.41 49.7 54.41 58.67" style="fill: #f072a0"/>
          <path d="M53.07,51.87c.44-.46.83.45.83,2s-.38,3.13-.85,3.56-.83-.37-.82-2.09S52.63,52.24,53.07,51.87Zm-.66,3.4a4.13,4.13,0,0,0,.17,1.3c0,.06,0,0,.05-.06.1-.54.2-1.08.29-1.62a.37.37,0,0,0,0-.21c-.09-.35-.19-.7-.28-1,0-.11,0-.1-.07,0A8.14,8.14,0,0,0,52.41,55.27Zm1.3-1.07a4.7,4.7,0,0,0-.16-1.44c0-.06,0-.09-.06.05-.09.54-.19,1.08-.29,1.61a.66.66,0,0,0,0,.2c.1.35.2.7.29,1.06,0,.07,0,.07.06,0A7,7,0,0,0,53.71,54.2Zm-.21-1.54c-.23-.61-.68-.11-.87.83Zm-.87,4c.16.36.35.35.56,0a2.48,2.48,0,0,0,.3-.84Zm.44-2.93s-.06,0-.07.09,0,.12,0,.18,0,.13.07-.07a1,1,0,0,0,0-.23C53.12,53.62,53.09,53.71,53.07,53.71Zm.07,1.79a.45.45,0,0,0,0-.08c-.07-.25,0-.3-.12.13,0,.06,0,.1,0,.08Z" style="fill: #fff"/>
          <g>
            <path d="M52.74,59.07a2.13,2.13,0,0,1-.09.3l0-.08a1.57,1.57,0,0,0,.09-.23Zm.09-.2v.37l-.06,0v-.37l-.15.14v-.13l.37-.35v.14Zm-.16-.12-.05,0v-.26l.15-.14s0,0,0-.06l0-.07-.16.16v-.28l0,0v.13l.09-.08V58l0-.05v.18l.09-.08v-.13l0-.06v.28l-.16.15a.29.29,0,0,1,0,.09L53,58.2v.26l0,0v-.13l-.26.25Zm0,0v-.13l.22-.21v.12Zm.21.05A.48.48,0,0,1,53,59l0,.14a1,1,0,0,0-.09-.13Z" style="fill: #fff"/>
            <path d="M53.45,58.47s0,0,0-.15,0,0,0,0c0,.19,0,.25,0,.29l-.06,0s-.06,0-.06-.16v-.41l-.05,0a2,2,0,0,1-.14.79s0-.09,0-.12a1.37,1.37,0,0,0,.11-.62l-.1.1v-.17l.16-.15v-.51l.05,0v.51l.16-.15V58l-.11.1v.41c0,.05,0,.05,0,0ZM53.21,58a1.05,1.05,0,0,0-.06-.24l0-.12a.88.88,0,0,1,.07.23Zm.28-.56c0,.13-.05.27-.07.37l-.05,0c0-.1.05-.26.06-.37Z" style="fill: #fff"/>
          </g>
          <polygon points="50.92 65.91 36.55 65.91 38.13 63.42 49.34 63.42 50.92 65.91" style="fill: #fff"/>
          <line x1="36.92" y1="65.33" x2="50.6" y2="65.33" style="fill: #fff;stroke: #613667;stroke-miterlimit: 10;stroke-width: 0.191786733212814px"/>
          <polygon points="39.25 53.22 48.22 45.58 58.79 45.58 54.41 49.7 51.72 52.23 48.22 53.22 39.25 53.22" style="fill: #4fafa5"/>
          <polygon points="38.13 63.42 39.25 62.18 48.22 62.18 48.22 63.42 38.13 63.42" style="fill: #f7bad5"/>
          <polygon points="48.22 62.18 51.72 61.2 53.26 62.18 49.34 63.42 48.22 63.42 48.22 62.18" style="fill: #f072a0"/>
          <polygon points="53.26 62.18 61.1 54.57 58.79 54.55 51.72 61.2 53.26 62.18" style="fill: #b189bd"/>
          <polygon points="49.34 63.42 53.26 62.18 54.52 64.42 50.92 65.91 49.34 63.42" style="fill: #f7bad5"/>
          <polygon points="53.26 62.18 61.1 54.57 62.41 55.98 54.52 64.42 53.26 62.18" style="fill: #fff"/>
          <polyline points="50.55 65.33 54.2 63.8 61.98 55.52" style="fill: none;stroke: #613667;stroke-miterlimit: 10;stroke-width: 0.191786733212814px"/>
          <line x1="40.29" y1="68.98" x2="47.73" y2="68.98" style="fill: none;stroke: #613667;stroke-miterlimit: 10;stroke-width: 0.158905808692424px"/>
          <g>
            <line x1="42.6" y1="65.88" x2="42.6" y2="72.09" style="fill: none;stroke: #613667;stroke-miterlimit: 10;stroke-width: 0.158905808692424px"/>
            <line x1="45.42" y1="65.88" x2="45.42" y2="72.09" style="fill: none;stroke: #613667;stroke-miterlimit: 10;stroke-width: 0.158905808692424px"/>
          </g>
          <rect x="42.39" y="72.96" width="0.41" height="1.9" style="fill: #613667"/>
          <rect x="45.21" y="72.96" width="0.41" height="1.9" style="fill: #613667"/>
        </g>
        <g>
          <polygon points="71.43 96.32 33.48 96.32 47.84 79.81 85.8 79.81 71.43 96.32" style="fill: #4fafa5"/>
          <rect x="54.14" y="70.17" width="9.76" height="12.92" style="fill: #f7bad5"/>
          <rect x="54.83" y="71.75" width="8.4" height="10.44" style="fill: #613667"/>
          <ellipse cx="59" cy="83.8" rx="1.54" ry="0.45" style="fill: #fff;stroke: #231f20;stroke-miterlimit: 10;stroke-width: 0.075102611762551px"/>
          <polygon points="63.23 82.19 54.83 82.19 57.69 80.36 63.23 80.36 63.23 82.19" style="fill: #f072a0"/>
          <g>
            <rect x="58.4" y="74.43" width="2.76" height="4.75" style="fill: #fff"/>
            <g>
              <path d="M59.78,81.74c-1.51,0-3-.38-3-1.11A2.65,2.65,0,0,1,58,78.4c.08-.05.12-.24.19-.63.16-.87.42-2.32,1.55-2.32s1.39,1.45,1.55,2.32c.07.39.1.58.18.63a2.66,2.66,0,0,1,1.3,2.23C62.81,81.36,61.28,81.74,59.78,81.74Z" style="fill: #fff"/>
              <path d="M59.78,75.49c1.09,0,1.35,1.43,1.51,2.29.07.41.11.59.2.65a2.62,2.62,0,0,1,1.28,2.2c0,.7-1.51,1.07-3,1.07s-3-.37-3-1.07a2.62,2.62,0,0,1,1.28-2.2c.09-.06.13-.24.21-.65.15-.86.41-2.29,1.51-2.29m0-.07c-1.6,0-1.51,2.79-1.76,3a2.69,2.69,0,0,0-1.31,2.26c0,.77,1.53,1.15,3.07,1.15s3.06-.38,3.06-1.15a2.69,2.69,0,0,0-1.31-2.26c-.25-.16-.16-3-1.75-3Z" style="fill: #f072a0"/>
            </g>
            <g>
              <path d="M59.78,76.3a2,2,0,0,0-.68-.68l1.39.06A1.12,1.12,0,0,0,59.78,76.3Z" style="fill: #fff"/>
              <path d="M60.2,75.72a1.19,1.19,0,0,0-.42.49,1.83,1.83,0,0,0-.47-.49h.89m.29-.07H59.08s.7.44.7.8a1.1,1.1,0,0,1,.71-.8Z" style="fill: #f072a0"/>
            </g>
            <g>
              <path d="M58.4,74.43c0-.76,0-2.68,1.38-2.68s1.38,1.92,1.38,2.68" style="fill: #fff;stroke: #f072a0;stroke-miterlimit: 10;stroke-width: 0.075102611762551px"/>
              <circle cx="59.78" cy="74.43" r="1.38" style="fill: #f7bad5"/>
              <circle cx="59.78" cy="73.49" r="0.16" style="fill: #613667"/>
            </g>
            <path d="M60.83,76.14a4.76,4.76,0,0,0-.34,2.08c0,1.45-.88.55-.88.55l.17,3S62.61,81.05,60.83,76.14Z" style="fill: #fff;stroke: #f072a0;stroke-miterlimit: 10;stroke-width: 0.075102611762551px"/>
            <path d="M59.31,76.32V79s-.29,2.47-.91,1.74C58.4,80.71,56.5,78.9,59.31,76.32Z" style="fill: #fff;stroke: #f072a0;stroke-miterlimit: 10;stroke-width: 0.075102611762551px"/>
            <path d="M59.31,77.43V76.32a.18.18,0,0,1,.19-.19h.09a.18.18,0,0,1,.19.19Z" style="fill: #f7bad5"/>
          </g>
          <polygon points="66.55 67.98 66.55 80.4 63.91 83.09 63.91 70.17 66.55 67.98" style="fill: #b189bd"/>
          <g>
            <g>
              <path d="M62.16,83.87c0,.56-1.56,1-3.49,1s-3.49-.45-3.49-1v-.39a7.83,7.83,0,0,1,3.49-.62,7.86,7.86,0,0,1,3.49.62Z" style="fill: #b189bd"/>
              <ellipse cx="58.67" cy="83.54" rx="3.49" ry="1.01" style="fill: #613667"/>
            </g>
            <g>
              <ellipse cx="57.58" cy="82.99" rx="1.35" ry="1.01" style="fill: #f072a0;stroke: #fff;stroke-miterlimit: 10;stroke-width: 0.075102611762551px"/>
              <ellipse cx="59.8" cy="82.99" rx="1.35" ry="1.01" style="fill: #f7bad5;stroke: #f072a0;stroke-miterlimit: 10;stroke-width: 0.075102611762551px"/>
              <ellipse cx="58.62" cy="81.38" rx="1.35" ry="1.01" style="fill: #f7bad5"/>
            </g>
          </g>
          <g>
            <polygon points="74.75 78.19 74.75 80.65 72.11 83.34 72.11 80.38 74.75 78.19" style="fill: #b189bd"/>
            <rect x="64.65" y="80.38" width="7.45" height="2.79" style="fill: #f072a0"/>
            <polygon points="64.65 80.38 66.83 78.19 74.75 78.19 72.11 80.38 64.65 80.38" style="fill: #fff"/>
            <rect x="66.83" y="70.74" width="7.92" height="7.44" style="fill: #fff;stroke: #231f20;stroke-miterlimit: 10;stroke-width: 0.075102611762551px"/>
            <polygon points="66.83 70.75 66.48 71.16 74.35 71.16 74.75 70.75 66.83 70.75" style="fill: #fff"/>
            <rect x="66.48" y="71.16" width="7.84" height="7.38" style="fill: #fff"/>
            <polygon points="74.32 71.16 74.32 78.54 74.75 78.19 74.75 70.75 74.32 71.16" style="fill: #b189bd"/>
          </g>
          <rect x="67.16" y="71.75" width="6.61" height="6.85" style="fill: #f072a0"/>
          <g>
            <path d="M68.94,79.78a1.37,1.37,0,0,1-1.35-1.36V76.91c0-2.81,1-5.09,2.16-5.09s2.16,2.28,2.16,5.09v1.53a1.37,1.37,0,0,1-1.39,1.37Z" style="fill: #4fafa5"/>
            <g>
              <path d="M69.75,72a1.28,1.28,0,0,1-1.15-.71,1.29,1.29,0,0,1,2.31-1.16,1.29,1.29,0,0,1,.07,1,1.27,1.27,0,0,1-.65.75A1.3,1.3,0,0,1,69.75,72Z" style="fill: #f7bad5"/>
              <path d="M69.75,69.36v.07a1.24,1.24,0,0,1,1.12.7,1.25,1.25,0,0,1-.56,1.68,1.18,1.18,0,0,1-.56.13,1.23,1.23,0,0,1-1.12-.69,1.28,1.28,0,0,1-.07-1,1.24,1.24,0,0,1,.63-.72,1.22,1.22,0,0,1,.56-.14v-.07m0,0a1.25,1.25,0,0,0-.59.14,1.33,1.33,0,0,0-.6,1.78,1.34,1.34,0,0,0,1.19.74,1.42,1.42,0,0,0,.6-.14,1.33,1.33,0,0,0-.6-2.52Z" style="fill: #fff"/>
            </g>
            <path d="M69.75,70.69a4.12,4.12,0,0,0-.86,1.94,1.83,1.83,0,0,1,0-.57,2.61,2.61,0,0,1,.14-.55A1.49,1.49,0,0,1,69.75,70.69Z" style="fill: #613667"/>
            <path d="M69.81,70.69a1.49,1.49,0,0,1,.76.82,2.1,2.1,0,0,1,.13.55,1.82,1.82,0,0,1,0,.57A4.12,4.12,0,0,0,69.81,70.69Z" style="fill: #613667"/>
            <path d="M69.32,71.84A7.13,7.13,0,0,0,69.81,75a7.62,7.62,0,0,0,.54-3.12S69.75,71.05,69.32,71.84Z" style="fill: #613667"/>
            <rect x="68.46" y="68.33" width="2.57" height="1.56" style="fill: #4fafa5"/>
            <path d="M67.69,75.42a4.81,4.81,0,0,0,4.13,0" style="fill: #613667"/>
            <g>
              <path d="M68.48,72.8S66.63,74.05,67,77.22h1.46Z" style="fill: #4fafa5;stroke: #613667;stroke-miterlimit: 10;stroke-width: 0.075102611762551px"/>
              <polygon points="68.47 78.14 67.03 79.36 67.03 77.22 68.47 75.65 68.47 78.14" style="fill: #613667"/>
            </g>
            <g>
              <path d="M71.06,72.8s1.85,1.25,1.46,4.42H71.06Z" style="fill: #4fafa5;stroke: #613667;stroke-miterlimit: 10;stroke-width: 0.075102611762551px"/>
              <polygon points="71.06 78.19 72.52 79.4 72.52 77.22 71.06 75.68 71.06 78.19" style="fill: #613667"/>
            </g>
          </g>
          <g>
            <g>
              <path d="M67.07,81.29V85c0,.45,1.18.8,2.63.8s2.62-.35,2.62-.8V81.29Z" style="fill: #f7bad5"/>
              <ellipse cx="69.7" cy="81.29" rx="2.63" ry="0.8" style="fill: #fff"/>
              <ellipse cx="69.7" cy="81.19" rx="2.17" ry="0.59" style="fill: #613667"/>
            </g>
            <g>
              <rect x="69.56" y="76.24" width="0.27" height="4.12" rx="0.12" style="fill: #b189bd;stroke: #613667;stroke-miterlimit: 10;stroke-width: 0.075102611762551px"/>
              <line x1="69.7" y1="80.36" x2="69.7" y2="81.49" style="fill: none;stroke: #f7bad5;stroke-miterlimit: 10;stroke-width: 0.075102611762551px"/>
            </g>
            <g>
              <rect x="68.95" y="76.24" width="0.27" height="4.12" rx="0.12" style="fill: #b189bd;stroke: #613667;stroke-miterlimit: 10;stroke-width: 0.075102611762551px"/>
              <line x1="69.08" y1="80.36" x2="69.08" y2="81.49" style="fill: none;stroke: #f7bad5;stroke-miterlimit: 10;stroke-width: 0.075102611762551px"/>
            </g>
            <g>
              <rect x="68.19" y="74.08" width="0.39" height="5.82" rx="0.16" style="fill: #f072a0;stroke: #f7bad5;stroke-miterlimit: 10;stroke-width: 0.075102611762551px"/>
              <line x1="68.38" y1="79.89" x2="68.38" y2="81.49" style="fill: none;stroke: #f7bad5;stroke-miterlimit: 10;stroke-width: 0.075102611762551px"/>
            </g>
            <g>
              <rect x="70.98" y="74.08" width="0.39" height="5.82" rx="0.16" style="fill: #f072a0;stroke: #f7bad5;stroke-miterlimit: 10;stroke-width: 0.075102611762551px"/>
              <line x1="71.17" y1="79.89" x2="71.17" y2="81.49" style="fill: none;stroke: #f7bad5;stroke-miterlimit: 10;stroke-width: 0.075102611762551px"/>
            </g>
            <g>
              <rect x="70.27" y="76.24" width="0.27" height="4.12" rx="0.12" style="fill: #b189bd;stroke: #613667;stroke-miterlimit: 10;stroke-width: 0.075102611762551px"/>
              <line x1="70.41" y1="80.36" x2="70.41" y2="81.49" style="fill: none;stroke: #f7bad5;stroke-miterlimit: 10;stroke-width: 0.075102611762551px"/>
            </g>
          </g>
          <g>
            <g>
              <path d="M53.32,78.59l-.26.09-.26.08a10.25,10.25,0,0,1-1,.23,11.28,11.28,0,0,1-2.08.16A13.16,13.16,0,0,1,47.6,79a9.75,9.75,0,0,1-1.05-.21L46,78.63c-.17-.06-.34-.12-.52-.2l0,.06a2.88,2.88,0,0,0,0,3.88h0c.18-.08.35-.14.52-.2l.52-.15a9.75,9.75,0,0,1,1.05-.21,13.16,13.16,0,0,1,2.08-.16,11.28,11.28,0,0,1,2.08.16,10.25,10.25,0,0,1,1,.23l.26.08.26.09c.17.07.34.14.52.23V78.37A4.48,4.48,0,0,1,53.32,78.59Z" style="fill: #fff"/>
              <ellipse cx="53.84" cy="80.45" rx="0.64" ry="2.08" style="fill: #f072a0"/>
              <path d="M54.46,80s-.25-1-.62-.86c-.19.09-.33.7-.36,1.34s.07,1.3.36,1.49c0,0,.42.06.25-1.52l-.61,0" style="fill: none;stroke: #fff;stroke-miterlimit: 10;stroke-width: 0.075102611762551px"/>
            </g>
            <path d="M50,81.54a2.57,2.57,0,0,1,0-2.29.21.21,0,0,0-.09-.28.21.21,0,0,0-.28.09,3,3,0,0,0,0,2.69.2.2,0,0,0,.18.1.19.19,0,0,0,.1,0A.2.2,0,0,0,50,81.54Z" style="fill: #f072a0"/>
          </g>
          <g>
            <g>
              <path d="M50.31,84.63A15.17,15.17,0,0,1,41,84.1a16.32,16.32,0,0,0,4.77-1.38,14.59,14.59,0,0,0,7.18-1A9.93,9.93,0,0,1,50.31,84.63Z" style="fill: #f7bad5;stroke: #f072a0;stroke-miterlimit: 10;stroke-width: 0.075102611762551px"/>
              <path d="M50.31,84.63A15.17,15.17,0,0,1,41,84.1a16.32,16.32,0,0,0,4.77-1.38,14.59,14.59,0,0,0,7.18-1A9.93,9.93,0,0,1,50.31,84.63Z" style="fill: #f7bad5;stroke: #f072a0;stroke-miterlimit: 10;stroke-width: 0.075102611762551px"/>
            </g>
            <g>
              <path d="M50.24,84.32a14.75,14.75,0,0,1-9.36-.72,14.2,14.2,0,0,0,4.9-1.29,13.52,13.52,0,0,0,6.8-.93A7,7,0,0,1,50.24,84.32Z" style="fill: #f7bad5;stroke: #f072a0;stroke-miterlimit: 10;stroke-width: 0.075102611762551px"/>
              <path d="M50.24,84.32a14.75,14.75,0,0,1-9.36-.72,14.2,14.2,0,0,0,4.9-1.29,13.52,13.52,0,0,0,6.8-.93A7,7,0,0,1,50.24,84.32Z" style="fill: #f7bad5;stroke: #f072a0;stroke-miterlimit: 10;stroke-width: 0.075102611762551px"/>
            </g>
            <g>
              <path d="M50.18,84c-3.22.66-6.79.5-9.43-.92a12.53,12.53,0,0,0,5-1.2,12.69,12.69,0,0,0,6.44-.82A5.31,5.31,0,0,1,50.18,84Z" style="fill: #f7bad5;stroke: #f072a0;stroke-miterlimit: 10;stroke-width: 0.075102611762551px"/>
              <path d="M50.18,84c-3.22.66-6.79.5-9.43-.92a12.53,12.53,0,0,0,5-1.2,12.69,12.69,0,0,0,6.44-.82A5.31,5.31,0,0,1,50.18,84Z" style="fill: #f7bad5;stroke: #f072a0;stroke-miterlimit: 10;stroke-width: 0.075102611762551px"/>
            </g>
            <g>
              <path d="M50.12,83.71c-3.26.63-6.87.41-9.48-1.13a11.3,11.3,0,0,0,5.14-1.09,11.9,11.9,0,0,0,6.09-.72A4.18,4.18,0,0,1,50.12,83.71Z" style="fill: #f7bad5;stroke: #f072a0;stroke-miterlimit: 10;stroke-width: 0.075102611762551px"/>
              <path d="M50.12,83.71c-3.26.63-6.87.41-9.48-1.13a11.3,11.3,0,0,0,5.14-1.09,11.9,11.9,0,0,0,6.09-.72A4.18,4.18,0,0,1,50.12,83.71Z" style="fill: #f7bad5;stroke: #f072a0;stroke-miterlimit: 10;stroke-width: 0.075102611762551px"/>
            </g>
            <g>
              <path d="M50.05,83.41c-3.29.59-6.94.3-9.51-1.36a10.42,10.42,0,0,0,5.25-1,11.07,11.07,0,0,0,5.73-.63A3.4,3.4,0,0,1,50.05,83.41Z" style="fill: #f7bad5;stroke: #f072a0;stroke-miterlimit: 10;stroke-width: 0.075102611762551px"/>
              <path d="M50.05,83.41c-3.29.59-6.94.3-9.51-1.36a10.42,10.42,0,0,0,5.25-1,11.07,11.07,0,0,0,5.73-.63A3.4,3.4,0,0,1,50.05,83.41Z" style="fill: #f7bad5;stroke: #f072a0;stroke-miterlimit: 10;stroke-width: 0.075102611762551px"/>
            </g>
          </g>
          <g>
            <g>
              <path d="M44,88.75l-.16.84a.08.08,0,0,0,.14.07l.73-.91Z" style="fill: #613667"/>
              <path d="M46,88.75l-1.19.32a.87.87,0,0,1-.9-.32h0L46.19,86l.63-.32a1.2,1.2,0,0,1,1.47.32h0Z" style="fill: #fff"/>
              <path d="M46.62,89.34l-.55-.59.84-1,.65.84a.63.63,0,0,1,0,.74h0A.61.61,0,0,1,46.62,89.34Z" style="fill: #f7bad5"/>
              <path d="M47.9,87.5l-.44-.42.83-1,.52.61a.62.62,0,0,1,0,.77h0A.62.62,0,0,1,47.9,87.5Z" style="fill: #f7bad5"/>
              <g>
                <path d="M44.54,88.38a1.69,1.69,0,0,1,1.53,0" style="fill: none;stroke: #f072a0;stroke-miterlimit: 10;stroke-width: 0.075102611762551px"/>
                <path d="M44.93,87.87a1.71,1.71,0,0,1,1.54,0" style="fill: none;stroke: #f072a0;stroke-miterlimit: 10;stroke-width: 0.075102611762551px"/>
                <path d="M45.32,87.37a1.68,1.68,0,0,1,1.54,0" style="fill: none;stroke: #f072a0;stroke-miterlimit: 10;stroke-width: 0.075102611762551px"/>
                <path d="M45.72,86.86a1.71,1.71,0,0,1,1.54,0" style="fill: none;stroke: #f072a0;stroke-miterlimit: 10;stroke-width: 0.075102611762551px"/>
                <path d="M46.11,86.35a1.71,1.71,0,0,1,1.54,0" style="fill: none;stroke: #f072a0;stroke-miterlimit: 10;stroke-width: 0.075102611762551px"/>
              </g>
              <line x1="45.13" y1="88.29" x2="46.88" y2="86.17" style="fill: none;stroke: #f072a0;stroke-miterlimit: 10;stroke-width: 0.075102611762551px"/>
              <path d="M46.31,88.48a1.34,1.34,0,0,0,.82.71.2.2,0,0,0,.15,0c.11,0,.1-.21,0-.32A2,2,0,0,0,46.7,88" style="fill: none;stroke: #f072a0;stroke-miterlimit: 10;stroke-width: 0.075102611762551px"/>
              <path d="M47.7,86.74a1.42,1.42,0,0,0,.44.44.41.41,0,0,0,.22.07.31.31,0,0,0,.25-.31.6.6,0,0,0-.19-.39c-.11-.11-.23-.2-.33-.31" style="fill: none;stroke: #f072a0;stroke-miterlimit: 10;stroke-width: 0.075102611762551px"/>
            </g>
            <g>
              <path d="M48.87,88.75l-.15.84a.08.08,0,0,0,.14.07l.73-.91Z" style="fill: #613667"/>
              <path d="M51,88.75l-1.2.32a.87.87,0,0,1-.9-.32h0L51.12,86l.63-.32a1.2,1.2,0,0,1,1.47.32h0Z" style="fill: #fff"/>
              <path d="M51.55,89.34,51,88.75l.83-1,.65.84a.62.62,0,0,1,0,.74h0A.61.61,0,0,1,51.55,89.34Z" style="fill: #f7bad5"/>
              <path d="M52.82,87.5l-.44-.42.84-1,.52.61a.65.65,0,0,1,0,.77h0A.63.63,0,0,1,52.82,87.5Z" style="fill: #f7bad5"/>
              <g>
                <path d="M49.46,88.38a1.71,1.71,0,0,1,1.54,0" style="fill: none;stroke: #f072a0;stroke-miterlimit: 10;stroke-width: 0.075102611762551px"/>
                <path d="M49.86,87.87a1.69,1.69,0,0,1,1.53,0" style="fill: none;stroke: #f072a0;stroke-miterlimit: 10;stroke-width: 0.075102611762551px"/>
                <path d="M50.25,87.37a1.68,1.68,0,0,1,1.54,0" style="fill: none;stroke: #f072a0;stroke-miterlimit: 10;stroke-width: 0.075102611762551px"/>
                <path d="M50.64,86.86a1.71,1.71,0,0,1,1.54,0" style="fill: none;stroke: #f072a0;stroke-miterlimit: 10;stroke-width: 0.075102611762551px"/>
                <path d="M51,86.35a1.71,1.71,0,0,1,1.54,0" style="fill: none;stroke: #f072a0;stroke-miterlimit: 10;stroke-width: 0.075102611762551px"/>
              </g>
              <line x1="50.06" y1="88.29" x2="51.81" y2="86.17" style="fill: none;stroke: #f072a0;stroke-miterlimit: 10;stroke-width: 0.075102611762551px"/>
              <path d="M51.24,88.48a1.32,1.32,0,0,0,.82.71.2.2,0,0,0,.15,0c.11,0,.09-.21,0-.32a2,2,0,0,0-.63-.85" style="fill: none;stroke: #f072a0;stroke-miterlimit: 10;stroke-width: 0.075102611762551px"/>
              <path d="M52.63,86.74a1.5,1.5,0,0,0,.43.44.44.44,0,0,0,.22.07.3.3,0,0,0,.26-.31.62.62,0,0,0-.2-.39c-.1-.11-.22-.2-.32-.31" style="fill: none;stroke: #f072a0;stroke-miterlimit: 10;stroke-width: 0.075102611762551px"/>
            </g>
            <g>
              <path d="M53.8,88.75l-.15.84a.08.08,0,0,0,.14.07l.72-.91Z" style="fill: #613667"/>
              <path d="M55.9,88.75l-1.2.32a.87.87,0,0,1-.9-.32h0L56.05,86l.63-.32a1.19,1.19,0,0,1,1.46.32h0Z" style="fill: #fff"/>
              <path d="M56.47,89.34l-.54-.59.83-1,.65.84a.62.62,0,0,1,0,.74h0A.61.61,0,0,1,56.47,89.34Z" style="fill: #f7bad5"/>
              <path d="M57.75,87.5l-.44-.42.83-1,.52.61a.62.62,0,0,1,0,.77h0A.62.62,0,0,1,57.75,87.5Z" style="fill: #f7bad5"/>
              <g>
                <path d="M54.39,88.38a1.71,1.71,0,0,1,1.54,0" style="fill: none;stroke: #f072a0;stroke-miterlimit: 10;stroke-width: 0.075102611762551px"/>
                <path d="M54.78,87.87a1.71,1.71,0,0,1,1.54,0" style="fill: none;stroke: #f072a0;stroke-miterlimit: 10;stroke-width: 0.075102611762551px"/>
                <path d="M55.18,87.37a1.66,1.66,0,0,1,1.53,0" style="fill: none;stroke: #f072a0;stroke-miterlimit: 10;stroke-width: 0.075102611762551px"/>
                <path d="M55.57,86.86a1.71,1.71,0,0,1,1.54,0" style="fill: none;stroke: #f072a0;stroke-miterlimit: 10;stroke-width: 0.075102611762551px"/>
                <path d="M56,86.35a1.71,1.71,0,0,1,1.54,0" style="fill: none;stroke: #f072a0;stroke-miterlimit: 10;stroke-width: 0.075102611762551px"/>
              </g>
              <line x1="54.99" y1="88.29" x2="56.73" y2="86.17" style="fill: none;stroke: #f072a0;stroke-miterlimit: 10;stroke-width: 0.075102611762551px"/>
              <path d="M56.16,88.48a1.36,1.36,0,0,0,.83.71.17.17,0,0,0,.14,0c.11,0,.1-.21.06-.32a2,2,0,0,0-.63-.85" style="fill: none;stroke: #f072a0;stroke-miterlimit: 10;stroke-width: 0.075102611762551px"/>
              <path d="M57.55,86.74a1.42,1.42,0,0,0,.44.44.44.44,0,0,0,.22.07.29.29,0,0,0,.25-.31.6.6,0,0,0-.19-.39c-.1-.11-.23-.2-.32-.31" style="fill: none;stroke: #f072a0;stroke-miterlimit: 10;stroke-width: 0.075102611762551px"/>
            </g>
            <g>
              <path d="M58.73,88.75l-.16.84a.08.08,0,0,0,.14.07l.73-.91Z" style="fill: #613667"/>
              <path d="M60.82,88.75l-1.19.32a.87.87,0,0,1-.9-.32h0L61,86l.63-.32a1.2,1.2,0,0,1,1.47.32h0Z" style="fill: #fff"/>
              <path d="M61.4,89.34l-.55-.59.84-1,.65.84a.63.63,0,0,1,0,.74h0A.61.61,0,0,1,61.4,89.34Z" style="fill: #f7bad5"/>
              <path d="M62.68,87.5l-.44-.42.83-1,.52.61a.63.63,0,0,1,0,.77h0A.62.62,0,0,1,62.68,87.5Z" style="fill: #f7bad5"/>
              <g>
                <path d="M59.32,88.38a1.69,1.69,0,0,1,1.53,0" style="fill: none;stroke: #f072a0;stroke-miterlimit: 10;stroke-width: 0.075102611762551px"/>
                <path d="M59.71,87.87a1.71,1.71,0,0,1,1.54,0" style="fill: none;stroke: #f072a0;stroke-miterlimit: 10;stroke-width: 0.075102611762551px"/>
                <path d="M60.1,87.37a1.68,1.68,0,0,1,1.54,0" style="fill: none;stroke: #f072a0;stroke-miterlimit: 10;stroke-width: 0.075102611762551px"/>
                <path d="M60.5,86.86a1.69,1.69,0,0,1,1.53,0" style="fill: none;stroke: #f072a0;stroke-miterlimit: 10;stroke-width: 0.075102611762551px"/>
                <path d="M60.89,86.35a1.71,1.71,0,0,1,1.54,0" style="fill: none;stroke: #f072a0;stroke-miterlimit: 10;stroke-width: 0.075102611762551px"/>
              </g>
              <line x1="59.91" y1="88.29" x2="61.66" y2="86.17" style="fill: none;stroke: #f072a0;stroke-miterlimit: 10;stroke-width: 0.075102611762551px"/>
              <path d="M61.09,88.48a1.34,1.34,0,0,0,.82.71.2.2,0,0,0,.15,0c.11,0,.1-.21,0-.32a2,2,0,0,0-.63-.85" style="fill: none;stroke: #f072a0;stroke-miterlimit: 10;stroke-width: 0.075102611762551px"/>
              <path d="M62.48,86.74a1.42,1.42,0,0,0,.44.44.41.41,0,0,0,.22.07.31.31,0,0,0,.25-.31.6.6,0,0,0-.19-.39c-.11-.11-.23-.2-.33-.31" style="fill: none;stroke: #f072a0;stroke-miterlimit: 10;stroke-width: 0.075102611762551px"/>
            </g>
            <g>
              <path d="M63.65,88.75l-.15.84a.08.08,0,0,0,.14.07l.73-.91Z" style="fill: #613667"/>
              <path d="M65.75,88.75l-1.2.32a.87.87,0,0,1-.9-.32h0L65.9,86l.63-.32A1.2,1.2,0,0,1,68,86h0Z" style="fill: #fff"/>
              <path d="M66.32,89.34l-.54-.59.83-1,.65.84a.62.62,0,0,1,0,.74h0A.61.61,0,0,1,66.32,89.34Z" style="fill: #f7bad5"/>
              <path d="M67.6,87.5l-.44-.42L68,86l.51.61a.62.62,0,0,1,0,.77h0A.62.62,0,0,1,67.6,87.5Z" style="fill: #f7bad5"/>
              <g>
                <path d="M64.24,88.38a1.71,1.71,0,0,1,1.54,0" style="fill: none;stroke: #f072a0;stroke-miterlimit: 10;stroke-width: 0.075102611762551px"/>
                <path d="M64.64,87.87a1.69,1.69,0,0,1,1.53,0" style="fill: none;stroke: #f072a0;stroke-miterlimit: 10;stroke-width: 0.075102611762551px"/>
                <path d="M65,87.37a1.68,1.68,0,0,1,1.54,0" style="fill: none;stroke: #f072a0;stroke-miterlimit: 10;stroke-width: 0.075102611762551px"/>
                <path d="M65.42,86.86a1.71,1.71,0,0,1,1.54,0" style="fill: none;stroke: #f072a0;stroke-miterlimit: 10;stroke-width: 0.075102611762551px"/>
                <path d="M65.82,86.35a1.7,1.7,0,0,1,1.53,0" style="fill: none;stroke: #f072a0;stroke-miterlimit: 10;stroke-width: 0.075102611762551px"/>
              </g>
              <line x1="64.84" y1="88.29" x2="66.59" y2="86.17" style="fill: none;stroke: #f072a0;stroke-miterlimit: 10;stroke-width: 0.075102611762551px"/>
              <path d="M66,88.48a1.32,1.32,0,0,0,.82.71.2.2,0,0,0,.15,0c.11,0,.09-.21.05-.32a2,2,0,0,0-.63-.85" style="fill: none;stroke: #f072a0;stroke-miterlimit: 10;stroke-width: 0.075102611762551px"/>
              <path d="M67.41,86.74a1.5,1.5,0,0,0,.43.44.44.44,0,0,0,.22.07.3.3,0,0,0,.26-.31.62.62,0,0,0-.2-.39c-.1-.11-.22-.2-.32-.31" style="fill: none;stroke: #f072a0;stroke-miterlimit: 10;stroke-width: 0.075102611762551px"/>
            </g>
          </g>
          <g>
            <g>
              <path d="M40.3,93.34l-.15.84a.08.08,0,0,0,.14.06l.72-.9Z" style="fill: #613667"/>
              <path d="M42.4,93.34l-1.2.31a.86.86,0,0,1-.9-.31h0l2.25-2.72.63-.31a1.19,1.19,0,0,1,1.47.31h0Z" style="fill: #fff"/>
              <path d="M43,93.93l-.54-.6.83-1,.65.84a.6.6,0,0,1,0,.73h0A.62.62,0,0,1,43,93.93Z" style="fill: #f7bad5"/>
              <path d="M44.25,92.09l-.44-.43.83-1,.52.62a.62.62,0,0,1,0,.77h0A.63.63,0,0,1,44.25,92.09Z" style="fill: #f7bad5"/>
              <g>
                <path d="M40.89,93a1.71,1.71,0,0,1,1.54,0" style="fill: none;stroke: #f072a0;stroke-miterlimit: 10;stroke-width: 0.075102611762551px"/>
                <path d="M41.28,92.46a1.68,1.68,0,0,1,1.54,0" style="fill: none;stroke: #f072a0;stroke-miterlimit: 10;stroke-width: 0.075102611762551px"/>
                <path d="M41.68,92a1.7,1.7,0,0,1,1.53,0" style="fill: none;stroke: #f072a0;stroke-miterlimit: 10;stroke-width: 0.075102611762551px"/>
                <path d="M42.07,91.45a1.68,1.68,0,0,1,1.54,0" style="fill: none;stroke: #f072a0;stroke-miterlimit: 10;stroke-width: 0.075102611762551px"/>
                <path d="M42.46,90.94a1.71,1.71,0,0,1,1.54,0" style="fill: none;stroke: #f072a0;stroke-miterlimit: 10;stroke-width: 0.075102611762551px"/>
              </g>
              <line x1="41.49" y1="92.87" x2="43.23" y2="90.75" style="fill: none;stroke: #f072a0;stroke-miterlimit: 10;stroke-width: 0.075102611762551px"/>
              <path d="M42.66,93.06a1.38,1.38,0,0,0,.83.72.22.22,0,0,0,.14,0c.11,0,.1-.2.06-.31a2,2,0,0,0-.63-.85" style="fill: none;stroke: #f072a0;stroke-miterlimit: 10;stroke-width: 0.075102611762551px"/>
              <path d="M44.05,91.32a1.32,1.32,0,0,0,.44.44.36.36,0,0,0,.22.07.28.28,0,0,0,.25-.31.6.6,0,0,0-.19-.39c-.1-.1-.23-.19-.32-.3" style="fill: none;stroke: #f072a0;stroke-miterlimit: 10;stroke-width: 0.075102611762551px"/>
            </g>
            <g>
              <path d="M45.23,93.34l-.16.84a.08.08,0,0,0,.14.06l.73-.9Z" style="fill: #613667"/>
              <path d="M47.32,93.34l-1.19.31a.86.86,0,0,1-.9-.31h0l2.24-2.72.63-.31a1.18,1.18,0,0,1,1.47.31h0Z" style="fill: #fff"/>
              <path d="M47.9,93.93l-.55-.6.84-1,.65.84a.62.62,0,0,1,0,.73h0A.62.62,0,0,1,47.9,93.93Z" style="fill: #f7bad5"/>
              <path d="M49.18,92.09l-.44-.43.83-1,.52.62a.62.62,0,0,1,0,.77h0A.63.63,0,0,1,49.18,92.09Z" style="fill: #f7bad5"/>
              <g>
                <path d="M45.82,93a1.69,1.69,0,0,1,1.53,0" style="fill: none;stroke: #f072a0;stroke-miterlimit: 10;stroke-width: 0.075102611762551px"/>
                <path d="M46.21,92.46a1.68,1.68,0,0,1,1.54,0" style="fill: none;stroke: #f072a0;stroke-miterlimit: 10;stroke-width: 0.075102611762551px"/>
                <path d="M46.6,92a1.71,1.71,0,0,1,1.54,0" style="fill: none;stroke: #f072a0;stroke-miterlimit: 10;stroke-width: 0.075102611762551px"/>
                <path d="M47,91.45a1.68,1.68,0,0,1,1.54,0" style="fill: none;stroke: #f072a0;stroke-miterlimit: 10;stroke-width: 0.075102611762551px"/>
                <path d="M47.39,90.94a1.71,1.71,0,0,1,1.54,0" style="fill: none;stroke: #f072a0;stroke-miterlimit: 10;stroke-width: 0.075102611762551px"/>
              </g>
              <line x1="46.41" y1="92.87" x2="48.16" y2="90.75" style="fill: none;stroke: #f072a0;stroke-miterlimit: 10;stroke-width: 0.075102611762551px"/>
              <path d="M47.59,93.06a1.36,1.36,0,0,0,.82.72.26.26,0,0,0,.15,0c.11,0,.1-.2,0-.31a2,2,0,0,0-.63-.85" style="fill: none;stroke: #f072a0;stroke-miterlimit: 10;stroke-width: 0.075102611762551px"/>
              <path d="M49,91.32a1.32,1.32,0,0,0,.44.44.34.34,0,0,0,.22.07c.14,0,.25-.16.25-.31a.6.6,0,0,0-.19-.39c-.11-.1-.23-.19-.33-.3" style="fill: none;stroke: #f072a0;stroke-miterlimit: 10;stroke-width: 0.075102611762551px"/>
            </g>
            <g>
              <path d="M50.15,93.34l-.15.84a.08.08,0,0,0,.14.06l.73-.9Z" style="fill: #613667"/>
              <path d="M52.25,93.34l-1.2.31a.87.87,0,0,1-.9-.31h0l2.25-2.72.63-.31a1.19,1.19,0,0,1,1.47.31h0Z" style="fill: #fff"/>
              <path d="M52.83,93.93l-.55-.6.83-1,.65.84a.6.6,0,0,1,0,.73h0A.62.62,0,0,1,52.83,93.93Z" style="fill: #f7bad5"/>
              <path d="M54.1,92.09l-.44-.43.84-1,.52.62a.65.65,0,0,1,0,.77h0A.64.64,0,0,1,54.1,92.09Z" style="fill: #f7bad5"/>
              <g>
                <path d="M50.74,93a1.71,1.71,0,0,1,1.54,0" style="fill: none;stroke: #f072a0;stroke-miterlimit: 10;stroke-width: 0.075102611762551px"/>
                <path d="M51.14,92.46a1.66,1.66,0,0,1,1.53,0" style="fill: none;stroke: #f072a0;stroke-miterlimit: 10;stroke-width: 0.075102611762551px"/>
                <path d="M51.53,92a1.71,1.71,0,0,1,1.54,0" style="fill: none;stroke: #f072a0;stroke-miterlimit: 10;stroke-width: 0.075102611762551px"/>
                <path d="M51.92,91.45a1.68,1.68,0,0,1,1.54,0" style="fill: none;stroke: #f072a0;stroke-miterlimit: 10;stroke-width: 0.075102611762551px"/>
                <path d="M52.32,90.94a1.71,1.71,0,0,1,1.54,0" style="fill: none;stroke: #f072a0;stroke-miterlimit: 10;stroke-width: 0.075102611762551px"/>
              </g>
              <line x1="51.34" y1="92.87" x2="53.09" y2="90.75" style="fill: none;stroke: #f072a0;stroke-miterlimit: 10;stroke-width: 0.075102611762551px"/>
              <path d="M52.52,93.06a1.33,1.33,0,0,0,.82.72.26.26,0,0,0,.15,0c.11,0,.09-.2,0-.31a2,2,0,0,0-.63-.85" style="fill: none;stroke: #f072a0;stroke-miterlimit: 10;stroke-width: 0.075102611762551px"/>
              <path d="M53.91,91.32a1.39,1.39,0,0,0,.43.44.36.36,0,0,0,.22.07.3.3,0,0,0,.26-.31.62.62,0,0,0-.2-.39c-.1-.1-.22-.19-.32-.3" style="fill: none;stroke: #f072a0;stroke-miterlimit: 10;stroke-width: 0.075102611762551px"/>
            </g>
            <g>
              <path d="M55.08,93.34l-.15.84a.08.08,0,0,0,.14.06l.72-.9Z" style="fill: #613667"/>
              <path d="M57.18,93.34l-1.2.31a.86.86,0,0,1-.9-.31h0l2.25-2.72.63-.31a1.17,1.17,0,0,1,1.46.31h0Z" style="fill: #fff"/>
              <path d="M57.75,93.93l-.54-.6.83-1,.65.84a.6.6,0,0,1,0,.73h0A.62.62,0,0,1,57.75,93.93Z" style="fill: #f7bad5"/>
              <path d="M59,92.09l-.44-.43.83-1,.52.62A.62.62,0,0,1,60,92h0A.63.63,0,0,1,59,92.09Z" style="fill: #f7bad5"/>
              <g>
                <path d="M55.67,93a1.71,1.71,0,0,1,1.54,0" style="fill: none;stroke: #f072a0;stroke-miterlimit: 10;stroke-width: 0.075102611762551px"/>
                <path d="M56.06,92.46a1.68,1.68,0,0,1,1.54,0" style="fill: none;stroke: #f072a0;stroke-miterlimit: 10;stroke-width: 0.075102611762551px"/>
                <path d="M56.46,92A1.69,1.69,0,0,1,58,92" style="fill: none;stroke: #f072a0;stroke-miterlimit: 10;stroke-width: 0.075102611762551px"/>
                <path d="M56.85,91.45a1.68,1.68,0,0,1,1.54,0" style="fill: none;stroke: #f072a0;stroke-miterlimit: 10;stroke-width: 0.075102611762551px"/>
                <path d="M57.24,90.94a1.71,1.71,0,0,1,1.54,0" style="fill: none;stroke: #f072a0;stroke-miterlimit: 10;stroke-width: 0.075102611762551px"/>
              </g>
              <line x1="56.27" y1="92.87" x2="58.01" y2="90.75" style="fill: none;stroke: #f072a0;stroke-miterlimit: 10;stroke-width: 0.075102611762551px"/>
              <path d="M57.44,93.06a1.38,1.38,0,0,0,.83.72.22.22,0,0,0,.14,0c.11,0,.1-.2.06-.31a2,2,0,0,0-.63-.85" style="fill: none;stroke: #f072a0;stroke-miterlimit: 10;stroke-width: 0.075102611762551px"/>
              <path d="M58.83,91.32a1.32,1.32,0,0,0,.44.44.36.36,0,0,0,.22.07.28.28,0,0,0,.25-.31.6.6,0,0,0-.19-.39c-.1-.1-.23-.19-.32-.3" style="fill: none;stroke: #f072a0;stroke-miterlimit: 10;stroke-width: 0.075102611762551px"/>
            </g>
            <g>
              <path d="M60,93.34l-.16.84a.08.08,0,0,0,.14.06l.73-.9Z" style="fill: #613667"/>
              <path d="M62.1,93.34l-1.19.31a.86.86,0,0,1-.9-.31h0l2.24-2.72.63-.31a1.18,1.18,0,0,1,1.47.31h0Z" style="fill: #fff"/>
              <path d="M62.68,93.93l-.55-.6.84-1,.65.84a.62.62,0,0,1,0,.73h0A.62.62,0,0,1,62.68,93.93Z" style="fill: #f7bad5"/>
              <path d="M64,92.09l-.44-.43.83-1,.52.62a.63.63,0,0,1,0,.77h0A.63.63,0,0,1,64,92.09Z" style="fill: #f7bad5"/>
              <g>
                <path d="M60.6,93a1.69,1.69,0,0,1,1.53,0" style="fill: none;stroke: #f072a0;stroke-miterlimit: 10;stroke-width: 0.075102611762551px"/>
                <path d="M61,92.46a1.68,1.68,0,0,1,1.54,0" style="fill: none;stroke: #f072a0;stroke-miterlimit: 10;stroke-width: 0.075102611762551px"/>
                <path d="M61.38,92a1.71,1.71,0,0,1,1.54,0" style="fill: none;stroke: #f072a0;stroke-miterlimit: 10;stroke-width: 0.075102611762551px"/>
                <path d="M61.78,91.45a1.66,1.66,0,0,1,1.53,0" style="fill: none;stroke: #f072a0;stroke-miterlimit: 10;stroke-width: 0.075102611762551px"/>
                <path d="M62.17,90.94a1.71,1.71,0,0,1,1.54,0" style="fill: none;stroke: #f072a0;stroke-miterlimit: 10;stroke-width: 0.075102611762551px"/>
              </g>
              <line x1="61.19" y1="92.87" x2="62.94" y2="90.75" style="fill: none;stroke: #f072a0;stroke-miterlimit: 10;stroke-width: 0.075102611762551px"/>
              <path d="M62.37,93.06a1.36,1.36,0,0,0,.82.72.26.26,0,0,0,.15,0c.11,0,.1-.2,0-.31a2,2,0,0,0-.63-.85" style="fill: none;stroke: #f072a0;stroke-miterlimit: 10;stroke-width: 0.075102611762551px"/>
              <path d="M63.76,91.32a1.32,1.32,0,0,0,.44.44.34.34,0,0,0,.22.07c.14,0,.25-.16.25-.31a.6.6,0,0,0-.19-.39c-.11-.1-.23-.19-.33-.3" style="fill: none;stroke: #f072a0;stroke-miterlimit: 10;stroke-width: 0.075102611762551px"/>
            </g>
          </g>
          <g>
            <g>
              <g>
                <path d="M75,77.29V75.24s.08-.09.18-.09h0c.1,0,.18,0,.18.09v2.2" style="fill: #fff;stroke: #f7bad5;stroke-miterlimit: 10;stroke-width: 0.075102611762551px"/>
                <rect x="74.97" y="75.15" width="0.36" height="0.24" rx="0.04" style="fill: #f072a0"/>
              </g>
              <g>
                <path d="M75.72,77.41V75.24s-.08-.09-.17-.09h0c-.1,0-.18,0-.18.09v2.08" style="fill: #fff;stroke: #f7bad5;stroke-miterlimit: 10;stroke-width: 0.075102611762551px"/>
                <path d="M75.63,75.39a1.69,1.69,0,0,1-.23,0s0,0,0-.06a.61.61,0,0,1,0-.14s.06,0,.08,0h.23s0,0,0,.06v.14S75.65,75.39,75.63,75.39Z" style="fill: #f072a0"/>
              </g>
              <g>
                <path d="M76.12,77.38V75.24s-.08-.09-.18-.09h0c-.1,0-.18,0-.18.09v2.11" style="fill: #fff;stroke: #f7bad5;stroke-miterlimit: 10;stroke-width: 0.075102611762551px"/>
                <path d="M76,75.39a1,1,0,0,1-.18,0s0-.08,0-.09a.43.43,0,0,1,0-.12.51.51,0,0,1,.13,0,1,1,0,0,1,.18,0s0,.07,0,.08a.43.43,0,0,1,0,.12Z" style="fill: #f072a0"/>
              </g>
              <g>
                <path d="M76.51,77.35V75.24s-.08-.09-.17-.09h0c-.1,0-.18,0-.18.09v2.14" style="fill: #fff;stroke: #f7bad5;stroke-miterlimit: 10;stroke-width: 0.075102611762551px"/>
                <path d="M76.31,75.39l-.14,0s0-.11,0-.12,0-.08,0-.08a1,1,0,0,1,.18,0,.52.52,0,0,1,.14,0s0,.11,0,.12,0,.09,0,.09A1,1,0,0,1,76.31,75.39Z" style="fill: #f072a0"/>
              </g>
              <g>
                <path d="M76.91,77.32V75.24s-.08-.09-.18-.09h0c-.1,0-.18,0-.18.09v2.17" style="fill: #fff;stroke: #f7bad5;stroke-miterlimit: 10;stroke-width: 0.075102611762551px"/>
                <path d="M76.65,75.39s-.09,0-.09,0,0-.13,0-.14,0-.06,0-.06h.22s.09,0,.09,0v.14s0,.06,0,.06A1.62,1.62,0,0,1,76.65,75.39Z" style="fill: #f072a0"/>
              </g>
              <g>
                <path d="M77.3,77.29V75.24s-.08-.09-.17-.09h0c-.1,0-.18,0-.18.09v2.2" style="fill: #fff;stroke: #f7bad5;stroke-miterlimit: 10;stroke-width: 0.075102611762551px"/>
                <rect x="76.95" y="75.15" width="0.36" height="0.24" rx="0.04" transform="translate(154.25 150.54) rotate(-180)" style="fill: #f072a0"/>
              </g>
            </g>
            <g>
              <path d="M74.41,77.8v4.14c0,.39.78.71,1.74.71s1.75-.32,1.75-.71V77.8Z" style="fill: #f7bad5"/>
              <ellipse cx="76.15" cy="77.8" rx="1.74" ry="0.71" style="fill: #f072a0"/>
              <ellipse cx="76.15" cy="77.72" rx="1.36" ry="0.55" style="fill: #613667"/>
              <path d="M77.9,79.16c0,.4-.79.72-1.75.72s-1.74-.32-1.74-.72" style="fill: none;stroke: #f072a0;stroke-miterlimit: 10;stroke-width: 0.075102611762551px"/>
              <path d="M77.9,80.71c0,.39-.79.71-1.75.71s-1.74-.32-1.74-.71" style="fill: none;stroke: #f072a0;stroke-miterlimit: 10;stroke-width: 0.075102611762551px"/>
            </g>
            <g>
              <g>
                <path d="M75,78V76s.08-.09.18-.09h0c.1,0,.18,0,.18.09v2.13" style="fill: #fff;stroke: #f7bad5;stroke-miterlimit: 10;stroke-width: 0.075102611762551px"/>
                <rect x="74.97" y="75.9" width="0.36" height="0.24" rx="0.04" style="fill: #f072a0"/>
              </g>
              <g>
                <path d="M75.72,78.25V76c0-.05-.08-.1-.17-.1h0c-.1,0-.18,0-.18.1v2.15" style="fill: #fff;stroke: #f7bad5;stroke-miterlimit: 10;stroke-width: 0.075102611762551px"/>
                <path d="M75.63,76.16H75.4s0-.05,0-.07a.57.57,0,0,1,0-.13s.06,0,.08,0h.23s0,0,0,.07v.14S75.65,76.16,75.63,76.16Z" style="fill: #f072a0"/>
              </g>
              <g>
                <path d="M76.12,78.31V76s-.08-.09-.18-.09h0c-.1,0-.18,0-.18.09v2.26" style="fill: #fff;stroke: #f7bad5;stroke-miterlimit: 10;stroke-width: 0.075102611762551px"/>
                <path d="M76,76.17a1,1,0,0,1-.18,0s0-.08,0-.09a.43.43,0,0,1,0-.12.51.51,0,0,1,.13,0,1,1,0,0,1,.18,0s0,.07,0,.09,0,.11,0,.11Z" style="fill: #f072a0"/>
              </g>
              <g>
                <path d="M76.51,78.28V76s-.08-.09-.17-.09h0c-.1,0-.18,0-.18.09v2.29" style="fill: #fff;stroke: #f7bad5;stroke-miterlimit: 10;stroke-width: 0.075102611762551px"/>
                <path d="M76.31,76.17l-.14,0s0-.1,0-.11,0-.09,0-.09a1,1,0,0,1,.18,0,.52.52,0,0,1,.14,0s0,.11,0,.12,0,.09,0,.09A1,1,0,0,1,76.31,76.17Z" style="fill: #f072a0"/>
              </g>
              <g>
                <path d="M76.91,78.16V76c0-.05-.08-.1-.18-.1h0c-.1,0-.18,0-.18.1v2.24" style="fill: #fff;stroke: #f7bad5;stroke-miterlimit: 10;stroke-width: 0.075102611762551px"/>
                <path d="M76.65,76.16s-.09,0-.09,0V76s0-.07,0-.07h.22s.09,0,.09,0v.13s0,.07,0,.07Z" style="fill: #f072a0"/>
              </g>
              <g>
                <path d="M77.3,78V76s-.08-.09-.17-.09h0c-.1,0-.18,0-.18.09v2.2" style="fill: #fff;stroke: #f7bad5;stroke-miterlimit: 10;stroke-width: 0.075102611762551px"/>
                <rect x="76.95" y="75.9" width="0.36" height="0.24" rx="0.04" transform="translate(154.25 152.04) rotate(-180)" style="fill: #f072a0"/>
              </g>
            </g>
          </g>
          <g>
            <polygon points="85.71 81.95 77.93 81.95 79.73 79.92 87.5 79.92 85.71 81.95" style="fill: #fff"/>
            <rect x="81.16" y="80.66" width="3.11" height="0.55" rx="0.27" style="fill: #613667"/>
            <path d="M77.93,82v2.34a.72.72,0,0,0,.72.72h.55a.71.71,0,0,0,.71-.72h0a.82.82,0,0,1,.82-.81h2.18a.82.82,0,0,1,.82.81h0a.72.72,0,0,0,.72.72h1.26V82Z" style="fill: #f072a0"/>
            <path d="M87.45,80V82.3a2,2,0,0,1-.16.91l-.12.14c-.09.1-.16-.14-.16-.54h0c0-.45-.08-.72-.18-.6l-.5.56a2.18,2.18,0,0,0-.18,1h0a1.93,1.93,0,0,1-.16.9l-.28.32V82Z" style="fill: #f7bad5"/>
          </g>
          <g>
            <polygon points="81.82 88.53 74.05 88.53 75.84 86.51 83.61 86.51 81.82 88.53" style="fill: #fff"/>
            <rect x="77.27" y="87.25" width="3.11" height="0.55" rx="0.27" style="fill: #613667"/>
            <path d="M74.05,88.53v2.35a.72.72,0,0,0,.71.72h.55a.72.72,0,0,0,.72-.72h0a.81.81,0,0,1,.81-.81H79a.81.81,0,0,1,.81.81h0a.72.72,0,0,0,.72.72h1.26V88.53Z" style="fill: #f072a0"/>
            <path d="M83.56,86.55v2.34a1.9,1.9,0,0,1-.16.9l-.12.14c-.09.1-.16-.14-.16-.53h0c0-.45-.08-.72-.18-.61l-.49.56a2.21,2.21,0,0,0-.18,1h0a1.87,1.87,0,0,1-.17.9l-.28.33V88.53Z" style="fill: #f7bad5"/>
          </g>
          <g>
            <path d="M75.75,84.29a.29.29,0,0,0,0-.18.47.47,0,0,0-.12-.18.45.45,0,0,0-.1-.09l0,0-.07,0-.06,0a1.27,1.27,0,0,0-.87,0l-.13,0-.14,0-.13,0-.26.09-.42.18a2.45,2.45,0,0,0-.33.18,1.06,1.06,0,0,0-.37.36c-.09.12-.19.24-.27.36a6.59,6.59,0,0,0-.41.72,3.61,3.61,0,0,1-.52.72,9.23,9.23,0,0,1-.78.72c-.14.12-.26.24-.38.36l-.31.36a1.5,1.5,0,0,0-.24.36.91.91,0,0,0-.06.36.81.81,0,0,0,.1.36h0c.15.25.7.25,1.26,0h0a7.77,7.77,0,0,0,.71-.36,5.06,5.06,0,0,0,.54-.36,2.12,2.12,0,0,0,.37-.36q.16-.18.3-.36a3.75,3.75,0,0,0,.24-.36,4.56,4.56,0,0,1,.43-.72,5.21,5.21,0,0,1,.7-.72c.27-.24.57-.48.81-.72l.34-.36A.69.69,0,0,0,75.75,84.29Z" style="fill: #f072a0"/>
            <path d="M75.75,83.79a.29.29,0,0,0,0-.18.47.47,0,0,0-.12-.18.45.45,0,0,0-.1-.09s0,0,0,0l-.07,0-.06,0a1.16,1.16,0,0,0-.87,0l-.13,0-.14,0-.13,0-.26.09-.42.18a2.45,2.45,0,0,0-.33.18,1.06,1.06,0,0,0-.37.36c-.09.12-.19.24-.27.36a6.59,6.59,0,0,0-.41.72,3.61,3.61,0,0,1-.52.72,9.23,9.23,0,0,1-.78.72c-.14.12-.26.24-.38.36l-.31.36a1.5,1.5,0,0,0-.24.36.91.91,0,0,0-.06.36.81.81,0,0,0,.1.36h0c.15.24.7.24,1.26,0h0a7.77,7.77,0,0,0,.71-.36,5.06,5.06,0,0,0,.54-.36,2.12,2.12,0,0,0,.37-.36q.16-.18.3-.36a3.75,3.75,0,0,0,.24-.36,4.56,4.56,0,0,1,.43-.72,5.21,5.21,0,0,1,.7-.72c.27-.24.57-.48.81-.72l.34-.36A.69.69,0,0,0,75.75,83.79Z" style="fill: #b189bd"/>
            <path d="M69.8,88.47s-.93-2.31,1.31-3c0,0,2.11-.29,2.12,1.24a5.45,5.45,0,0,1-1.45,1.44C71.06,88.47,70.73,89,69.8,88.47Z" style="fill: #f072a0"/>
          </g>
        </g>
      </g>
    </g>
  </g>
</svg>
