<svg xmlns="http://www.w3.org/2000/svg" width="97.73" height="128.18" viewBox="0 0 97.73 128.18">
  <g id="Layer_2" data-name="Layer 2">
    <g id="Icon">
      <g>
        <g>
          <path d="M65.9,10.53a8.64,8.64,0,0,0-3.75-3l1.1-1.28a12.41,12.41,0,0,1,3.86,3Zm-3.67,9.11a17.45,17.45,0,0,0,4.23-8.11l1.45.69a18.54,18.54,0,0,1-4.4,8.5ZM67.52,6A7.65,7.65,0,0,0,63.85,3.2l1.08-1.27A9.71,9.71,0,0,1,68.6,4.69ZM78.63,20.74l0-1.86-8.59,0,0,1.89-1.64,0V6.46h5V1.3h1.67V6.46h5.13V20.74ZM70,11.7h3.43V8L70,8Zm3.43,5.61v-4H70v4ZM75.09,8V11.7h3.52V8Zm3.52,5.26H75.09v4h3.52Z" style="fill: #fff"/>
          <path d="M79.86,44.12c-4-1.29-6.62-3.26-8.22-6.45-1.38,3.54-4.81,5.52-8.67,6.56l-1-1.51c3.93-.65,7.08-3,8-5.33H63v-1.6h7.47l.38-1.85,1.56.41-.26,1.44h7.64l0,1.6H73.32c.87,2,3.69,4.31,7.58,5.28ZM62.3,31.54A10.85,10.85,0,0,0,67.82,27l1.3.93a13.48,13.48,0,0,1-5.7,4.92Zm10.31.58a1.5,1.5,0,0,1-1.25,1.62,13.33,13.33,0,0,1-2.44.11l-.9-1.7a13.75,13.75,0,0,0,2.22.08c.47,0,.67-.21.67-.62V24.94h1.7Zm6.52.63a11.7,11.7,0,0,0-5.35-4.64L75,27a13.11,13.11,0,0,1,5.39,4.66Z" style="fill: #fff"/>
          <path d="M63.29,50h6.06V64.39H67.76V62.71l-2.81,0v1.68H63.29Zm4.45,1.58H65v3.84l2.81,0Zm0,5.39c-.91,0-1.94,0-2.81,0v4.1h2.81Zm1.92-5.91V49.51l10.72,0,0,1.6H76v6h3.8v1.59H76v6.28h5.29l0,1.6-12.43,0V64.93h5.39V58.65h-4V57.06l4,0v-6Z" style="fill: #fff"/>
          <path d="M80.94,90.38H65.67c-1.15,0-1.67-.94-1.67-2V74.7l-1.36,0v-1.6l18.19,0v1.6H65.64l0,13.25c0,.6.21.84.88.84H80.94Zm-8.28-3H66.55v-6l6.11,0ZM68.17,83v2.83l2.85,0L71,83ZM78,80.27l-9.71,0,0-4.81H78ZM70,78.8h6.43V76.92H70Zm10,2.61v5.91H73.76V81.41ZM78.31,83,75.4,83v2.77l2.89,0Z" style="fill: #fff"/>
        </g>
        <g>
          <path d="M67.2,9.23a8.64,8.64,0,0,0-3.75-3L64.55,5a12.53,12.53,0,0,1,3.86,3Zm-3.67,9.11a17.45,17.45,0,0,0,4.23-8.11l1.45.69a18.54,18.54,0,0,1-4.4,8.5ZM68.82,4.68A7.69,7.69,0,0,0,65.15,1.9L66.23.63A9.71,9.71,0,0,1,69.9,3.39ZM79.93,19.44l0-1.86-8.59,0,0,1.89-1.64,0V5.16h5V0h1.67V5.16h5.13V19.44Zm-8.61-9h3.43V6.71l-3.43,0ZM74.75,16V12H71.32v4Zm1.64-9.3V10.4h3.52V6.71ZM79.91,12H76.39v4h3.52Z" style="fill: #65181a"/>
          <path d="M81.16,42.82c-4-1.29-6.62-3.26-8.22-6.45-1.38,3.54-4.81,5.52-8.67,6.56l-1-1.51c3.93-.65,7.08-3,8-5.33H64.29v-1.6h7.47l.38-1.85,1.56.41-.26,1.44h7.64l0,1.6H74.62c.87,2,3.69,4.31,7.58,5.28ZM63.6,30.24a10.85,10.85,0,0,0,5.52-4.55l1.3.93a13.48,13.48,0,0,1-5.7,4.92Zm10.31.58a1.5,1.5,0,0,1-1.25,1.62,13.33,13.33,0,0,1-2.44.11l-.9-1.7a13.75,13.75,0,0,0,2.22.08c.47,0,.67-.21.67-.62V23.64h1.7Zm6.52.63a11.7,11.7,0,0,0-5.35-4.64l1.25-1.1a13.11,13.11,0,0,1,5.39,4.66Z" style="fill: #65181a"/>
          <path d="M64.59,48.72h6.06V63.09H69.06V61.41l-2.81,0v1.68H64.59ZM69,50.3H66.25v3.84l2.81,0Zm0,5.39c-.91,0-1.94,0-2.81,0v4.1h2.81ZM71,49.78V48.21l10.72,0,0,1.6H77.3v6h3.8v1.59H77.3v6.28h5.29l0,1.6-12.43,0V63.63h5.39V57.35h-4V55.76l4,0v-6Z" style="fill: #65181a"/>
          <path d="M82.24,89.08H67c-1.15,0-1.67-.94-1.67-2V73.4l-1.36,0v-1.6l18.19,0v1.6H66.94l0,13.25c0,.6.21.84.88.84H82.24Zm-8.28-3H67.85v-6l6.11,0Zm-4.49-4.41v2.83l2.85,0,0-2.87ZM79.33,79l-9.71,0,0-4.81h9.69ZM71.26,77.5h6.43V75.62H71.26Zm10,2.61V86H75.06V80.11Zm-1.62,1.55-2.91,0v2.77l2.89,0Z" style="fill: #65181a"/>
        </g>
        <g style="isolation: isolate">
          <polygon points="52.63 126.35 0 107.2 45.09 87.43 97.71 106.58 52.63 126.35" style="fill: #a780d6"/>
          <polygon points="52.65 128.18 52.63 126.35 97.71 106.58 97.73 108.42 52.65 128.18" style="fill: #775b99"/>
          <polygon points="0.02 109.03 0 107.2 52.63 126.35 52.65 128.18 0.02 109.03" style="fill: #5b3c80"/>
        </g>
        <g>
          <g>
            <g>
              <g>
                <rect x="18.81" y="95.21" width="6.92" height="8.46" style="fill: #a4d3d3"/>
                <path d="M25.05,95.89V103H19.49v-7.1h5.56m1.36-1.36H18.14v9.82h8.27V94.53Z" style="fill: #e95288"/>
              </g>
              <polygon points="28.81 100.76 26.41 104.35 26.41 94.53 28.81 91.79 28.81 100.76" style="fill: #e7326e"/>
              <line x1="20.61" y1="95.29" x2="20.61" y2="104.08" style="fill: none;stroke: #e95288;stroke-miterlimit: 10;stroke-width: 1.3571134118237px"/>
            </g>
            <polyline points="18.14 90.46 19.95 87.72 28.81 87.72 26.41 90.46 18.14 90.46" style="fill: #f092b6"/>
            <g>
              <rect x="18.81" y="91.14" width="6.92" height="8.46" style="fill: #a4d3d3"/>
              <path d="M25.05,91.82v7.1H19.49v-7.1h5.56m1.36-1.36H18.14v9.82h8.27V90.46Z" style="fill: #e95288"/>
            </g>
            <polygon points="28.81 96.69 26.41 100.28 26.41 90.46 28.81 87.72 28.81 96.69" style="fill: #e7326e"/>
            <line x1="22.16" y1="90.87" x2="22.16" y2="100" style="fill: none;stroke: #e95288;stroke-miterlimit: 10;stroke-width: 1.3571134118237px"/>
            <rect x="20.39" y="97.02" width="3.64" height="0.81" style="fill: #f5f1e8;stroke: #f092b6;stroke-miterlimit: 10;stroke-width: 0.301580758183044px"/>
            <rect x="19.27" y="101.76" width="2.68" height="0.81" style="fill: #f5f1e8;stroke: #f092b6;stroke-miterlimit: 10;stroke-width: 0.25854403078265px"/>
            <line x1="26.37" y1="99.9" x2="28.8" y2="96.36" style="fill: none;stroke: #f092b6;stroke-linecap: round;stroke-linejoin: round;stroke-width: 0.980137464094887px"/>
            <g>
              <polygon points="15.96 93.55 20.02 87.83 28.61 87.83 24.55 93.55 15.96 93.55" style="fill: #f5f1e8"/>
              <path d="M28.4,87.94l-3.9,5.5H16.17l3.9-5.5H28.4m.43-.22H20l-4.22,5.94h8.87l4.22-5.94Z" style="fill: #e95288"/>
            </g>
            <g>
              <line x1="20.82" y1="87.72" x2="16.63" y2="93.71" style="fill: none;stroke: #a4d3d3;stroke-linecap: round;stroke-linejoin: round;stroke-width: 0.317902856606467px"/>
              <line x1="22.12" y1="87.72" x2="17.93" y2="93.71" style="fill: none;stroke: #a4d3d3;stroke-linecap: round;stroke-linejoin: round;stroke-width: 0.317902856606467px"/>
              <line x1="23.43" y1="87.72" x2="19.24" y2="93.71" style="fill: none;stroke: #a4d3d3;stroke-linecap: round;stroke-linejoin: round;stroke-width: 0.317902856606467px"/>
              <line x1="24.73" y1="87.72" x2="20.54" y2="93.71" style="fill: none;stroke: #a4d3d3;stroke-linecap: round;stroke-linejoin: round;stroke-width: 0.317902856606467px"/>
              <line x1="26.04" y1="87.72" x2="21.85" y2="93.71" style="fill: none;stroke: #a4d3d3;stroke-linecap: round;stroke-linejoin: round;stroke-width: 0.317902856606467px"/>
              <line x1="27.35" y1="87.72" x2="23.16" y2="93.71" style="fill: none;stroke: #a4d3d3;stroke-linecap: round;stroke-linejoin: round;stroke-width: 0.317902856606467px"/>
            </g>
          </g>
          <g>
            <g>
              <g>
                <rect x="29.12" y="96.5" width="6.92" height="8.46" style="fill: #a4d3d3"/>
                <path d="M35.36,97.18v7.1H29.8v-7.1h5.56m1.35-1.36H28.44v9.82h8.27V95.82Z" style="fill: #e95288"/>
              </g>
              <polygon points="39.11 102.05 36.71 105.64 36.71 95.82 39.11 93.08 39.11 102.05" style="fill: #e7326e"/>
              <line x1="30.91" y1="96.58" x2="30.91" y2="105.37" style="fill: none;stroke: #e95288;stroke-miterlimit: 10;stroke-width: 1.3571134118237px"/>
            </g>
            <polyline points="28.44 91.75 30.25 89.01 39.11 89.01 36.71 91.75 28.44 91.75" style="fill: #f092b6"/>
            <g>
              <rect x="29.12" y="92.43" width="6.92" height="8.46" style="fill: #a4d3d3"/>
              <path d="M35.36,93.11v7.1H29.8v-7.1h5.56m1.35-1.36H28.44v9.82h8.27V91.75Z" style="fill: #e95288"/>
            </g>
            <polygon points="39.11 97.98 36.71 101.57 36.71 91.75 39.11 89.01 39.11 97.98" style="fill: #e7326e"/>
            <line x1="32.46" y1="92.16" x2="32.46" y2="101.29" style="fill: none;stroke: #e95288;stroke-miterlimit: 10;stroke-width: 1.3571134118237px"/>
            <rect x="30.69" y="98.31" width="3.64" height="0.81" style="fill: #f5f1e8;stroke: #f092b6;stroke-miterlimit: 10;stroke-width: 0.301580758183044px"/>
            <rect x="29.57" y="103.05" width="2.68" height="0.81" style="fill: #f5f1e8;stroke: #f092b6;stroke-miterlimit: 10;stroke-width: 0.25854403078265px"/>
            <line x1="36.67" y1="101.19" x2="39.1" y2="97.66" style="fill: none;stroke: #f092b6;stroke-linecap: round;stroke-linejoin: round;stroke-width: 0.980137464094887px"/>
            <g>
              <polygon points="26.26 94.84 30.32 89.13 38.92 89.13 34.86 94.84 26.26 94.84" style="fill: #f5f1e8"/>
              <path d="M38.7,89.24l-3.9,5.49H26.47l3.91-5.49H38.7m.43-.23H30.26L26,95h8.87L39.13,89Z" style="fill: #e95288"/>
            </g>
            <g>
              <line x1="31.12" y1="89.01" x2="26.93" y2="95" style="fill: none;stroke: #a4d3d3;stroke-linecap: round;stroke-linejoin: round;stroke-width: 0.317902856606467px"/>
              <line x1="32.43" y1="89.01" x2="28.24" y2="95" style="fill: none;stroke: #a4d3d3;stroke-linecap: round;stroke-linejoin: round;stroke-width: 0.317902856606467px"/>
              <line x1="33.73" y1="89.01" x2="29.54" y2="95" style="fill: none;stroke: #a4d3d3;stroke-linecap: round;stroke-linejoin: round;stroke-width: 0.317902856606467px"/>
              <line x1="35.04" y1="89.01" x2="30.85" y2="95" style="fill: none;stroke: #a4d3d3;stroke-linecap: round;stroke-linejoin: round;stroke-width: 0.317902856606467px"/>
              <line x1="36.34" y1="89.01" x2="32.15" y2="95" style="fill: none;stroke: #a4d3d3;stroke-linecap: round;stroke-linejoin: round;stroke-width: 0.317902856606467px"/>
              <line x1="37.65" y1="89.01" x2="33.46" y2="95" style="fill: none;stroke: #a4d3d3;stroke-linecap: round;stroke-linejoin: round;stroke-width: 0.317902856606467px"/>
            </g>
          </g>
          <path d="M28.41,100.27a1.31,1.31,0,0,0,1.49.08,2.39,2.39,0,0,0,1-1.16" style="fill: none;stroke: #e95288;stroke-linecap: round;stroke-linejoin: round;stroke-width: 0.317902856606467px"/>
          <path d="M33.67,99.1a2.76,2.76,0,0,0,2,1.58,1.21,1.21,0,0,0,1-.12" style="fill: none;stroke: #e95288;stroke-linecap: round;stroke-linejoin: round;stroke-width: 0.317902856606467px"/>
        </g>
        <g>
          <polyline points="43.11 84.41 44.63 82.64 43.11 82.6 43.11 84.41" style="fill: #f092b6"/>
          <polyline points="21.92 83.73 24.04 81.98 21.92 81.91 21.92 83.73" style="fill: #f092b6"/>
          <g>
            <path d="M28.17,73.47h0a.19.19,0,0,1,0,.1.43.43,0,0,1-.15.29.19.19,0,0,1,0,.09.17.17,0,0,1-.06.12s0,.13-.06.3,0,.33,0,.45a3.58,3.58,0,0,0,0,.48c0,.09,0,.14-.14.16s-.17-.17-.17-.55a6.31,6.31,0,0,1,0-.66.57.57,0,0,0-.2.33.27.27,0,0,1-.24.09c-.08,0-.11,0-.11-.09a.81.81,0,0,1,.07-.27,3.5,3.5,0,0,1,.28-.51,1.37,1.37,0,0,1,.29-.37.32.32,0,0,1,.17-.06A.27.27,0,0,1,28.17,73.47Zm-.28-.75a.74.74,0,0,1,.22,0,.25.25,0,0,1,.18.08.21.21,0,0,1,.07.15q0,.16-.3.36a1,1,0,0,1-.5.18.33.33,0,0,1-.15,0,.12.12,0,0,1-.05-.1.47.47,0,0,1,.15-.26A3.34,3.34,0,0,1,27.89,72.72Zm2.42,1.18c0,.08-.13.12-.34.12s-.17.06-.17.13a.13.13,0,0,0,0,.06,6.41,6.41,0,0,1,.07,1,.63.63,0,0,1-.05.21.28.28,0,0,1-.17.15.11.11,0,0,0-.12.1.12.12,0,0,1-.09,0,.19.19,0,0,1-.13-.07.12.12,0,0,0-.12-.08c-.05,0-.07,0-.07,0s0,0,0-.06a0,0,0,0,0,0,0,0,0,0,0,1,0,0s0,0,.07,0a.17.17,0,0,1,.08,0c.1,0,.15-.06.15-.2v-1a.39.39,0,0,0-.21,0h-.07q-.11,0-.18-.18s-.07,0-.09.06a.18.18,0,0,1-.05.07v.06c.15,0,.23,0,.24.13s-.08.14-.21.2-.06.1-.05.22l.15,0a.19.19,0,0,1,.16.08c0,.12-.05.2-.23.23a3.13,3.13,0,0,0-.52.14l-.1,0a.22.22,0,0,1-.2-.15q0-.18.18-.21a.43.43,0,0,0,.26-.15.49.49,0,0,1-.32-.11.26.26,0,0,1,0-.11c0-.06,0-.1.14-.12s.22-.07.22-.17H28.4a.25.25,0,0,1-.23-.13c0-.1.09-.17.32-.22a0,0,0,0,0,0,0s0,0-.09-.07a.22.22,0,0,1-.13-.12.38.38,0,0,1,0-.17c0-.1.07-.16.21-.2s.08,0,.09-.14v-.19a.3.3,0,0,1,.07-.17.12.12,0,0,1,.09-.06c.06,0,.12,0,.2.16a.35.35,0,0,1,0,.14.43.43,0,0,1,0,.11l.08,0a.22.22,0,0,1,.15.1.45.45,0,0,1,.05.19.36.36,0,0,1,0,.11.46.46,0,0,1-.23.2.14.14,0,0,0-.12.09h.11c.06,0,.09,0,.1.07l.22-.06a.49.49,0,0,0,.22-.17.08.08,0,0,1,.06,0,.5.5,0,0,1,.23.1.4.4,0,0,0,.15-.07.14.14,0,0,1,.11,0,.32.32,0,0,1,.19.09A.33.33,0,0,1,30.31,73.9ZM30,73h0c0,.1,0,.18-.18.23a.86.86,0,0,1-.33.08.22.22,0,0,1-.18-.08.19.19,0,0,1-.06-.13c0-.08.07-.15.21-.2a.93.93,0,0,1,.31-.07A.23.23,0,0,1,30,73Z" style="fill: #fff294"/>
            <path d="M35.3,73c0,.07-.07.13-.17.18a2.86,2.86,0,0,1-.53.12c-.08.13-.16.2-.23.2l0,0-.1-.13a3.2,3.2,0,0,0-.48.09.7.7,0,0,0-.1.28l.16-.08a.39.39,0,0,1,.16-.23.52.52,0,0,1,.2.1c.12,0,.18.06.19.15a.36.36,0,0,1-.17.23l-.13.1v0a.46.46,0,0,1,.21,0,.24.24,0,0,1,.15.06.17.17,0,0,1,.08.16.9.9,0,0,1-.15.41l-.26.17s0,.07,0,.12a.66.66,0,0,1,.23,0h.08a.19.19,0,0,1,0,.1.25.25,0,0,1,0,.14,1.38,1.38,0,0,1-.28.13c0,.15,0,.27,0,.36a.22.22,0,0,1-.13.2c0,.07-.07.1-.1.1s-.05,0-.07-.11,0-.32,0-.42a1.43,1.43,0,0,1-.34.06q-.16,0-.18-.18c0-.08.11-.12.23-.13l.26,0a.39.39,0,0,0,0-.15.34.34,0,0,1-.19.07.25.25,0,0,1-.14-.08.65.65,0,0,1-.1-.15,6.26,6.26,0,0,0-.35.9s-.07.06-.09.06-.05,0-.05-.12.08-.4.16-.72.15-.62.21-.89a3.87,3.87,0,0,1,.14-.52.44.44,0,0,1,.11-.16.32.32,0,0,1,.06-.25A.5.5,0,0,1,33.8,73H34c0-.12,0-.2.11-.22a.35.35,0,0,1,.33.18h.3l.25,0,.13,0A.15.15,0,0,1,35.3,73Zm-1.61,1.15V74a.59.59,0,0,1-.11-.08l0,.18,0,0Zm.41.07a3.76,3.76,0,0,0-.54.25.55.55,0,0,0,.12.24.77.77,0,0,0,.31-.12A.54.54,0,0,0,34.1,74.19Zm-.07.28-.18.11h-.11c-.05,0-.07,0-.07-.07a.13.13,0,0,1,0-.08.37.37,0,0,1,.27-.12c.06,0,.08,0,.08.07A.16.16,0,0,1,34,74.47Zm1.54,1.06h0a.4.4,0,0,1-.37.33c-.05.06-.09.09-.14.09s-.07,0-.1-.08a.18.18,0,0,1-.06-.1.27.27,0,0,1,0-.11s0-.08.1-.09a.12.12,0,0,0,.09,0,.38.38,0,0,0,0-.22c0-.12,0-.2,0-.26a.92.92,0,0,0-.43,0l-.14.55a.35.35,0,0,1-.06.09.1.1,0,0,1-.08,0s0,0,0-.08,0-.57.13-1.28h0l.06-.79c0-.09.07-.13.12-.13a.16.16,0,0,1,.09,0,.56.56,0,0,1,.36-.07c0-.07.09-.11.14-.11s.12.05.19.15a.36.36,0,0,1,.07.3A11.22,11.22,0,0,1,35.59,75c0,.11,0,.24,0,.38Zm-.45-.84v-.35a.48.48,0,0,1-.35.1l-.05.26a1.24,1.24,0,0,1,.27,0Zm0-.69h0v-.31a.11.11,0,0,0-.14,0,.42.42,0,0,0-.18.13V74h0A1.24,1.24,0,0,0,35.11,74Z" style="fill: #fff294"/>
          </g>
          <g>
            <polygon points="12.01 100.5 9.54 100.44 9.54 74.62 12.01 74.67 12.01 100.5" style="fill: #f092b6"/>
            <polygon points="14.48 100.56 12.01 100.5 12.01 74.67 14.48 74.73 14.48 100.56" style="fill: #a4d3d3"/>
            <path d="M12.49,102.29l-3.44-.08a.32.32,0,0,1-.32-.31v-1.18a.3.3,0,0,1,.32-.29l3.44.08a.32.32,0,0,1,.32.31V102A.3.3,0,0,1,12.49,102.29Z" style="fill: #e95288"/>
            <path d="M12.81,106.88l-4.08-.1V103a.84.84,0,0,1,.89-.81l2.3.06a.88.88,0,0,1,.89.85Z" style="fill: #e95288"/>
            <path d="M13.5,108.41l-5.45-.13v-1.22c0-.15.53-.26,1.19-.25l3.06.08c.66,0,1.2.15,1.2.3Z" style="fill: #e7326e"/>
            <polygon points="12.81 102.28 8.73 102.18 8.73 101.9 12.81 102 12.81 102.28" style="fill: #e7326e"/>
            <path d="M12.81,100.82l1.87-1.73a.32.32,0,0,0-.32-.31h-.48L12,100.5h.48S12.81,100.56,12.81,100.82Z" style="fill: #f5f1e8"/>
            <polygon points="12.81 100.82 12.81 102 14.68 100.18 14.68 99.09 12.81 100.82" style="fill: #f092b6"/>
            <polygon points="12.81 102 12.81 102.28 14.68 100.55 14.68 100.18 12.81 102" style="fill: #e7326e"/>
            <path d="M11.92,102.28a.93.93,0,0,1,.89.85l1.87-1.73a.78.78,0,0,0-.27-.6l-1.6,1.48Z" style="fill: #f5f1e8"/>
            <polygon points="12.81 103.13 12.81 106.88 14.68 105.15 14.68 101.4 12.81 103.13" style="fill: #f092b6"/>
            <path d="M12.81,106.88s.69.11.69.29l1.86-1.73c.07-.06-.19-.16-.22-.17a1.49,1.49,0,0,0-.46-.12Z" style="fill: #f5f1e8"/>
            <polygon points="13.5 107.17 13.5 108.39 15.37 106.66 15.37 105.44 13.5 107.17" style="fill: #e7326e"/>
          </g>
          <path d="M26,68.89c-.65,0-1.18-.4-1.18-.84" style="fill: none;stroke: #e95288;stroke-miterlimit: 10;stroke-width: 0.493192744749947px"/>
          <path d="M41.15,69.38c-.65,0-1.17-.4-1.17-.83" style="fill: none;stroke: #e95288;stroke-miterlimit: 10;stroke-width: 0.493192744749947px"/>
          <path d="M33.8,69.14c-.65,0-1.18-.39-1.18-.83" style="fill: none;stroke: #e95288;stroke-miterlimit: 10;stroke-width: 0.493192744749947px"/>
          <path d="M21.57,68.74c.65,0,1.18-.31,1.18-.75" style="fill: none;stroke: #e95288;stroke-miterlimit: 10;stroke-width: 0.493192744749947px"/>
          <path d="M28.94,69c.65,0,1.18-.32,1.18-.75" style="fill: none;stroke: #e95288;stroke-miterlimit: 10;stroke-width: 0.493192744749947px"/>
          <path d="M36.75,69.24c.65,0,1.17-.32,1.17-.76" style="fill: none;stroke: #e95288;stroke-miterlimit: 10;stroke-width: 0.493192744749947px"/>
          <polyline points="43.9 60.86 43.9 61.68 43.08 63.42 43.08 62.79" style="fill: #e95288"/>
          <polyline points="59.02 67.95 61.39 71.78 60.31 73.62 58.06 69.79 59.02 67.95" style="fill: #f5f1e8"/>
          <polygon points="20.88 67.99 5.73 67.5 5.73 68.1 20.88 68.59 20.88 67.99" style="fill: #e95288"/>
          <polygon points="42.74 68.7 42.74 69.3 58.06 69.79 58.06 69.2 42.74 68.7" style="fill: #e95288"/>
          <g>
            <path d="M43.17,68.6v-.7a.11.11,0,0,0-.11-.12L19.73,67a.12.12,0,0,0-.08,0,.09.09,0,0,0,0,.08v.69L6,67.39l1.62-1.7,51.16,1.7L58,69.08Z" style="fill: #f5f1e8"/>
            <path d="M7.64,65.85l51,1.66L57.91,69l-14.62-.47V67.9a.23.23,0,0,0-.23-.24L19.74,66.9h0a.24.24,0,0,0-.24.24v.57L6.28,67.28l1.36-1.43m-.1-.24L5.73,67.5l14,.46v-.82l23.32.76v.81l15,.49L59,67.28,7.54,65.61Z" style="fill: #f092b6"/>
          </g>
          <polyline points="12.68 76.93 14.66 76.3 52.5 77.53 52.5 78.22 12.68 76.93" style="fill: #e95288"/>
          <g>
            <polygon points="50.53 101.76 53 101.81 53 73.3 50.53 73.25 50.53 101.76" style="fill: #f092b6"/>
            <path d="M50,103.52l3.44.07a.3.3,0,0,0,.32-.29v-1.18a.32.32,0,0,0-.32-.31L50,101.75a.3.3,0,0,0-.32.29v1.18A.32.32,0,0,0,50,103.52Z" style="fill: #e95288"/>
            <path d="M49.72,108.1l4.08.08v-3.75a.88.88,0,0,0-.89-.85l-2.29,0a.86.86,0,0,0-.9.82Z" style="fill: #e95288"/>
            <path d="M49,109.58l5.44.11v-1.22c0-.15-.53-.29-1.19-.3l-3.06-.06c-.66,0-1.19.1-1.19.25Z" style="fill: #e7326e"/>
            <polygon points="49.73 103.5 53.8 103.58 53.8 103.3 49.73 103.22 49.73 103.5" style="fill: #e7326e"/>
            <polygon points="53 73.3 54.86 73.34 54.86 100.07 53 101.81 53 73.3" style="fill: #a4d3d3"/>
            <path d="M53.78,102.12l1.9-1.74a.32.32,0,0,0-.33-.3h-.49L53,101.8h.49S53.78,101.86,53.78,102.12Z" style="fill: #f5f1e8"/>
            <polygon points="53.78 102.12 53.78 103.3 55.67 101.47 55.67 100.38 53.78 102.12" style="fill: #f092b6"/>
            <polygon points="53.78 103.3 53.78 103.58 55.67 101.84 55.67 101.47 53.78 103.3" style="fill: #e7326e"/>
            <path d="M52.87,103.58a1,1,0,0,1,.91.85l1.9-1.74a.77.77,0,0,0-.28-.6l-1.62,1.49Z" style="fill: #f5f1e8"/>
            <polygon points="53.78 104.43 53.78 108.18 55.67 106.44 55.67 102.69 53.78 104.43" style="fill: #f092b6"/>
            <path d="M53.78,108.18s.69.11.69.29l1.9-1.74c.06-.06-.2-.15-.23-.17a2.39,2.39,0,0,0-.46-.12Z" style="fill: #f5f1e8"/>
            <polygon points="54.47 108.47 54.47 109.69 56.37 107.95 56.37 106.73 54.47 108.47" style="fill: #e7326e"/>
          </g>
          <g>
            <polygon points="43.11 73.06 60.31 73.62 58.06 69.79 43.11 69.31 43.11 73.06" style="fill: #f092b6"/>
            <polygon points="20.98 68.59 5.73 68.1 4.37 71.81 20.98 72.34 20.98 68.59" style="fill: #f092b6"/>
          </g>
          <polygon points="41.76 77.2 20.98 76.53 20.98 71.28 41.76 71.95 41.76 77.2" style="fill: #a4d3d3"/>
          <g>
            <polygon points="13 81.3 13 77.26 50.34 78.47 50.34 82.51 13 81.3" style="fill: #f5f1e8"/>
            <path d="M13.32,77.59,50,78.78v3.4L13.32,81v-3.4m-.64-.66v4.68l38,1.23V78.16l-38-1.23Z" style="fill: #a4d3d3"/>
          </g>
          <polygon points="43.11 68.65 19.63 67.89 19.63 67.03 43.11 67.79 43.11 68.65" style="fill: #e95288"/>
          <g>
            <polygon points="21.33 76.19 21.33 71.64 41.41 72.3 41.41 76.83 21.33 76.19" style="fill: #e95288"/>
            <path d="M21.68,72l19.37.63v3.83l-19.37-.63V72m-.7-.73v5.25l20.78.67V72L21,71.28Z" style="fill: #a4d3d3"/>
          </g>
          <polygon points="41.76 71.95 20.98 71.28 20.98 69.51 41.76 70.18 41.76 71.95" style="fill: #e95288"/>
          <polygon points="19.63 74.07 5.41 73.61 5.41 71.84 19.63 72.3 19.63 74.07" style="fill: #e95288"/>
          <polygon points="19.63 74.96 7.27 74.56 7.27 73.67 19.63 74.07 19.63 74.96" style="fill: #e7326e"/>
          <polygon points="55.43 76.12 43.08 75.72 43.08 74.83 55.43 75.23 55.43 76.12" style="fill: #e7326e"/>
          <polygon points="57.29 75.29 43.08 74.83 43.08 73.06 57.29 73.52 57.29 75.29" style="fill: #e95288"/>
          <polygon points="43.08 64.06 19.51 63.29 19.51 62.02 43.08 62.79 43.08 64.06" style="fill: #e95288"/>
          <polygon points="18.51 67 19.63 62.66 43.08 63.42 44.45 67.83 18.51 67" style="fill: #f092b6"/>
          <g>
            <line x1="20.48" y1="62.7" x2="19.46" y2="66.82" style="fill: none;stroke: #f5f1e8;stroke-linecap: round;stroke-linejoin: round;stroke-width: 0.437368852733193px"/>
            <line x1="21.82" y1="62.77" x2="20.93" y2="66.9" style="fill: none;stroke: #f5f1e8;stroke-linecap: round;stroke-linejoin: round;stroke-width: 0.437368852733193px"/>
            <line x1="23.16" y1="62.83" x2="22.4" y2="66.97" style="fill: none;stroke: #f5f1e8;stroke-linecap: round;stroke-linejoin: round;stroke-width: 0.437368852733193px"/>
            <line x1="24.51" y1="62.9" x2="23.87" y2="67.04" style="fill: none;stroke: #f5f1e8;stroke-linecap: round;stroke-linejoin: round;stroke-width: 0.437368852733193px"/>
            <line x1="25.85" y1="62.97" x2="25.34" y2="67.11" style="fill: none;stroke: #f5f1e8;stroke-linecap: round;stroke-linejoin: round;stroke-width: 0.437368852733193px"/>
            <line x1="27.19" y1="63.04" x2="26.81" y2="67.18" style="fill: none;stroke: #f5f1e8;stroke-linecap: round;stroke-linejoin: round;stroke-width: 0.437368852733193px"/>
            <line x1="28.53" y1="63.11" x2="28.28" y2="67.25" style="fill: none;stroke: #f5f1e8;stroke-linecap: round;stroke-linejoin: round;stroke-width: 0.437368852733193px"/>
            <line x1="29.87" y1="63.17" x2="29.75" y2="67.33" style="fill: none;stroke: #f5f1e8;stroke-linecap: round;stroke-linejoin: round;stroke-width: 0.437368852733193px"/>
            <line x1="31.22" y1="63.24" x2="31.22" y2="67.4" style="fill: none;stroke: #f5f1e8;stroke-linecap: round;stroke-linejoin: round;stroke-width: 0.437368852733193px"/>
            <line x1="32.56" y1="63.31" x2="32.69" y2="67.47" style="fill: none;stroke: #f5f1e8;stroke-linecap: round;stroke-linejoin: round;stroke-width: 0.437368852733193px"/>
            <line x1="33.9" y1="63.38" x2="34.16" y2="67.54" style="fill: none;stroke: #f5f1e8;stroke-linecap: round;stroke-linejoin: round;stroke-width: 0.437368852733193px"/>
            <line x1="35.24" y1="63.44" x2="35.63" y2="67.61" style="fill: none;stroke: #f5f1e8;stroke-linecap: round;stroke-linejoin: round;stroke-width: 0.437368852733193px"/>
            <line x1="36.58" y1="63.51" x2="37.1" y2="67.69" style="fill: none;stroke: #f5f1e8;stroke-linecap: round;stroke-linejoin: round;stroke-width: 0.437368852733193px"/>
            <line x1="37.93" y1="63.58" x2="38.57" y2="67.76" style="fill: none;stroke: #f5f1e8;stroke-linecap: round;stroke-linejoin: round;stroke-width: 0.437368852733193px"/>
            <line x1="39.27" y1="63.65" x2="40.04" y2="67.83" style="fill: none;stroke: #f5f1e8;stroke-linecap: round;stroke-linejoin: round;stroke-width: 0.437368852733193px"/>
            <line x1="40.61" y1="63.72" x2="41.51" y2="67.9" style="fill: none;stroke: #f5f1e8;stroke-linecap: round;stroke-linejoin: round;stroke-width: 0.437368852733193px"/>
            <line x1="41.95" y1="63.78" x2="42.98" y2="67.97" style="fill: none;stroke: #f5f1e8;stroke-linecap: round;stroke-linejoin: round;stroke-width: 0.437368852733193px"/>
          </g>
          <g>
            <line x1="6.84" y1="67.93" x2="5.41" y2="72.04" style="fill: none;stroke: #f5f1e8;stroke-linecap: round;stroke-linejoin: round;stroke-width: 0.437368852733193px"/>
            <line x1="8.19" y1="67.97" x2="6.86" y2="72.09" style="fill: none;stroke: #f5f1e8;stroke-linecap: round;stroke-linejoin: round;stroke-width: 0.437368852733193px"/>
            <line x1="9.54" y1="68.02" x2="8.32" y2="72.14" style="fill: none;stroke: #f5f1e8;stroke-linecap: round;stroke-linejoin: round;stroke-width: 0.437368852733193px"/>
            <line x1="10.88" y1="68.06" x2="9.77" y2="72.18" style="fill: none;stroke: #f5f1e8;stroke-linecap: round;stroke-linejoin: round;stroke-width: 0.437368852733193px"/>
            <line x1="12.23" y1="68.11" x2="11.22" y2="72.23" style="fill: none;stroke: #f5f1e8;stroke-linecap: round;stroke-linejoin: round;stroke-width: 0.437368852733193px"/>
            <line x1="13.58" y1="68.15" x2="12.67" y2="72.28" style="fill: none;stroke: #f5f1e8;stroke-linecap: round;stroke-linejoin: round;stroke-width: 0.437368852733193px"/>
            <line x1="14.93" y1="68.19" x2="14.12" y2="72.32" style="fill: none;stroke: #f5f1e8;stroke-linecap: round;stroke-linejoin: round;stroke-width: 0.437368852733193px"/>
            <line x1="16.27" y1="68.24" x2="15.57" y2="72.37" style="fill: none;stroke: #f5f1e8;stroke-linecap: round;stroke-linejoin: round;stroke-width: 0.437368852733193px"/>
            <line x1="17.62" y1="68.28" x2="17.02" y2="72.42" style="fill: none;stroke: #f5f1e8;stroke-linecap: round;stroke-linejoin: round;stroke-width: 0.437368852733193px"/>
            <line x1="18.97" y1="68.32" x2="18.48" y2="72.47" style="fill: none;stroke: #f5f1e8;stroke-linecap: round;stroke-linejoin: round;stroke-width: 0.437368852733193px"/>
          </g>
          <g>
            <line x1="56.51" y1="69.54" x2="57.94" y2="73.75" style="fill: none;stroke: #f5f1e8;stroke-linecap: round;stroke-linejoin: round;stroke-width: 0.437368852733193px"/>
            <line x1="55.16" y1="69.5" x2="56.48" y2="73.7" style="fill: none;stroke: #f5f1e8;stroke-linecap: round;stroke-linejoin: round;stroke-width: 0.437368852733193px"/>
            <line x1="53.81" y1="69.45" x2="55.03" y2="73.65" style="fill: none;stroke: #f5f1e8;stroke-linecap: round;stroke-linejoin: round;stroke-width: 0.437368852733193px"/>
            <line x1="52.47" y1="69.41" x2="53.58" y2="73.6" style="fill: none;stroke: #f5f1e8;stroke-linecap: round;stroke-linejoin: round;stroke-width: 0.437368852733193px"/>
            <line x1="51.12" y1="69.37" x2="52.13" y2="73.56" style="fill: none;stroke: #f5f1e8;stroke-linecap: round;stroke-linejoin: round;stroke-width: 0.437368852733193px"/>
            <line x1="49.77" y1="69.32" x2="50.68" y2="73.51" style="fill: none;stroke: #f5f1e8;stroke-linecap: round;stroke-linejoin: round;stroke-width: 0.437368852733193px"/>
            <line x1="48.42" y1="69.28" x2="49.23" y2="73.46" style="fill: none;stroke: #f5f1e8;stroke-linecap: round;stroke-linejoin: round;stroke-width: 0.437368852733193px"/>
            <line x1="47.08" y1="69.24" x2="47.78" y2="73.42" style="fill: none;stroke: #f5f1e8;stroke-linecap: round;stroke-linejoin: round;stroke-width: 0.437368852733193px"/>
            <line x1="45.73" y1="69.19" x2="46.33" y2="73.37" style="fill: none;stroke: #f5f1e8;stroke-linecap: round;stroke-linejoin: round;stroke-width: 0.437368852733193px"/>
            <line x1="44.38" y1="69.15" x2="44.87" y2="73.32" style="fill: none;stroke: #f5f1e8;stroke-linecap: round;stroke-linejoin: round;stroke-width: 0.437368852733193px"/>
          </g>
          <g>
            <polygon points="19.91 61.92 21.6 60.22 43.72 60.98 43 62.66 19.91 61.92" style="fill: #f5f1e8"/>
            <path d="M21.61,60.38l21.93.71-.62,1.45L20.19,61.8l1.42-1.42m-.09-.24L19.63,62l23.45.76.82-1.93-22.38-.72Z" style="fill: #f092b6"/>
          </g>
          <path d="M5.73,64.24V67.5l3.07.1A4.46,4.46,0,0,1,5.73,64.24Z" style="fill: #f092b6"/>
          <path d="M59,64v3.26l-3.2-.11A4.12,4.12,0,0,0,59,64Z" style="fill: #f092b6"/>
          <path d="M57.83,65.93v3.26l-3.2-.1A4.14,4.14,0,0,0,57.83,65.93Z" style="fill: #f092b6"/>
          <path d="M7.52,62.35v3.26l3.07.1A4.47,4.47,0,0,1,7.52,62.35Z" style="fill: #f092b6"/>
          <g>
            <path d="M19.63,58.77V62l3.2.1A4.5,4.5,0,0,1,19.63,58.77Z" style="fill: #f092b6"/>
            <path d="M21.49,56.88v3.26l3.21.1A4.52,4.52,0,0,1,21.49,56.88Z" style="fill: #f092b6"/>
          </g>
          <g>
            <path d="M19.63,58.77V62l3.2.1A4.5,4.5,0,0,1,19.63,58.77Z" style="fill: #f092b6"/>
            <path d="M21.49,56.88v3.26l3.21.1A4.52,4.52,0,0,1,21.49,56.88Z" style="fill: #f092b6"/>
          </g>
          <path d="M43,59.53v3.25l-3.21-.1A4.14,4.14,0,0,0,43,59.53Z" style="fill: #f092b6"/>
          <path d="M43.84,57.6v3.26l-3.2-.1A4.14,4.14,0,0,0,43.84,57.6Z" style="fill: #f092b6"/>
          <polyline points="43.9 61.68 45.55 65.98 44.45 67.83 43.08 63.42 43.9 61.68" style="fill: #f5f1e8"/>
          <polygon points="58.98 67.28 58.99 68.04 58.06 69.79 57.97 69.2 58.98 67.28" style="fill: #f092b6"/>
          <polygon points="21.92 83.73 19.63 83.65 19.63 67.89 21.92 67.96 21.92 83.73" style="fill: #e95288"/>
          <g>
            <polygon points="28.94 69.78 25.99 69.68 25.99 68.09 28.94 68.19 28.94 69.78" style="fill: #e95288"/>
            <polygon points="36.75 70.03 33.8 69.94 33.8 68.34 36.75 68.44 36.75 70.03" style="fill: #e95288"/>
          </g>
          <polygon points="43.11 84.41 40.92 84.34 40.92 68.58 43.11 68.65 43.11 84.41" style="fill: #e95288"/>
          <polygon points="41.76 71.95 20.98 71.28 20.98 70.39 41.76 71.07 41.76 71.95" style="fill: #e7326e"/>
          <path d="M22.35,71.73l1.42,0v1.46l-1.42,0V71.73m-.4-.42v2.27l2.23.07V71.38L22,71.31Z" style="fill: #a4d3d3"/>
          <path d="M39.09,72.27l1.42,0v1.46l-1.42,0V72.27m-.4-.42v2.27l2.23.08V71.93l-2.23-.08Z" style="fill: #a4d3d3"/>
          <path d="M22.35,74.69l1.42,0v1.46l-1.42,0V74.69m-.4-.42v2.27l2.23.07V74.34L22,74.27Z" style="fill: #a4d3d3"/>
          <path d="M39.09,75.23l1.42,0v1.46l-1.42,0V75.23m-.4-.42v2.27l2.23.07V74.88l-2.23-.07Z" style="fill: #a4d3d3"/>
          <g>
            <path d="M28.17,73.47h0a.19.19,0,0,1,0,.1.43.43,0,0,1-.15.29.19.19,0,0,1,0,.09.17.17,0,0,1-.06.12s0,.13-.06.3,0,.33,0,.45a3.58,3.58,0,0,0,0,.48c0,.09,0,.14-.14.16s-.17-.17-.17-.55a6.31,6.31,0,0,1,0-.66.57.57,0,0,0-.2.33.27.27,0,0,1-.24.09c-.08,0-.11,0-.11-.09a.81.81,0,0,1,.07-.27,3.5,3.5,0,0,1,.28-.51,1.37,1.37,0,0,1,.29-.37.32.32,0,0,1,.17-.06A.27.27,0,0,1,28.17,73.47Zm-.28-.75a.74.74,0,0,1,.22,0,.25.25,0,0,1,.18.08.21.21,0,0,1,.07.15q0,.16-.3.36a1,1,0,0,1-.5.18.33.33,0,0,1-.15,0,.12.12,0,0,1-.05-.1.47.47,0,0,1,.15-.26A3.34,3.34,0,0,1,27.89,72.72Zm2.42,1.18c0,.08-.13.12-.34.12s-.17.06-.17.13a.13.13,0,0,0,0,.06,6.41,6.41,0,0,1,.07,1,.63.63,0,0,1-.05.21.28.28,0,0,1-.17.15.11.11,0,0,0-.12.1.12.12,0,0,1-.09,0,.19.19,0,0,1-.13-.07.12.12,0,0,0-.12-.08c-.05,0-.07,0-.07,0s0,0,0-.06a0,0,0,0,0,0,0,0,0,0,0,1,0,0s0,0,.07,0a.17.17,0,0,1,.08,0c.1,0,.15-.06.15-.2v-1a.39.39,0,0,0-.21,0h-.07q-.11,0-.18-.18s-.07,0-.09.06a.18.18,0,0,1-.05.07v.06c.15,0,.23,0,.24.13s-.08.14-.21.2-.06.1-.05.22l.15,0a.19.19,0,0,1,.16.08c0,.12-.05.2-.23.23a3.13,3.13,0,0,0-.52.14l-.1,0a.22.22,0,0,1-.2-.15q0-.18.18-.21a.43.43,0,0,0,.26-.15.49.49,0,0,1-.32-.11.26.26,0,0,1,0-.11c0-.06,0-.1.14-.12s.22-.07.22-.17H28.4a.25.25,0,0,1-.23-.13c0-.1.09-.17.32-.22a0,0,0,0,0,0,0s0,0-.09-.07a.22.22,0,0,1-.13-.12.38.38,0,0,1,0-.17c0-.1.07-.16.21-.2s.08,0,.09-.14v-.19a.3.3,0,0,1,.07-.17.12.12,0,0,1,.09-.06c.06,0,.12,0,.2.16a.35.35,0,0,1,0,.14.43.43,0,0,1,0,.11l.08,0a.22.22,0,0,1,.15.1.45.45,0,0,1,.05.19.36.36,0,0,1,0,.11.46.46,0,0,1-.23.2.14.14,0,0,0-.12.09h.11c.06,0,.09,0,.1.07l.22-.06a.49.49,0,0,0,.22-.17.08.08,0,0,1,.06,0,.5.5,0,0,1,.23.1.4.4,0,0,0,.15-.07.14.14,0,0,1,.11,0,.32.32,0,0,1,.19.09A.33.33,0,0,1,30.31,73.9ZM30,73h0c0,.1,0,.18-.18.23a.86.86,0,0,1-.33.08.22.22,0,0,1-.18-.08.19.19,0,0,1-.06-.13c0-.08.07-.15.21-.2a.93.93,0,0,1,.31-.07A.23.23,0,0,1,30,73Z" style="fill: #f5f1e8"/>
            <path d="M35.3,73c0,.07-.07.13-.17.18a2.86,2.86,0,0,1-.53.12c-.08.13-.16.2-.23.2l0,0-.1-.13a3.2,3.2,0,0,0-.48.09.7.7,0,0,0-.1.28l.16-.08a.39.39,0,0,1,.16-.23.52.52,0,0,1,.2.1c.12,0,.18.06.19.15a.36.36,0,0,1-.17.23l-.13.1v0a.46.46,0,0,1,.21,0,.24.24,0,0,1,.15.06.17.17,0,0,1,.08.16.9.9,0,0,1-.15.41l-.26.17s0,.07,0,.12a.66.66,0,0,1,.23,0h.08a.19.19,0,0,1,0,.1.25.25,0,0,1,0,.14,1.38,1.38,0,0,1-.28.13c0,.15,0,.27,0,.36a.22.22,0,0,1-.13.2c0,.07-.07.1-.1.1s-.05,0-.07-.11,0-.32,0-.42a1.43,1.43,0,0,1-.34.06q-.16,0-.18-.18c0-.08.11-.12.23-.13l.26,0a.39.39,0,0,0,0-.15.34.34,0,0,1-.19.07.25.25,0,0,1-.14-.08.65.65,0,0,1-.1-.15,6.26,6.26,0,0,0-.35.9s-.07.06-.09.06-.05,0-.05-.12.08-.4.16-.72.15-.62.21-.89a3.87,3.87,0,0,1,.14-.52.44.44,0,0,1,.11-.16.32.32,0,0,1,.06-.25A.5.5,0,0,1,33.8,73H34c0-.12,0-.2.11-.22a.35.35,0,0,1,.33.18h.3l.25,0,.13,0A.15.15,0,0,1,35.3,73Zm-1.61,1.15V74a.59.59,0,0,1-.11-.08l0,.18,0,0Zm.41.07a3.76,3.76,0,0,0-.54.25.55.55,0,0,0,.12.24.77.77,0,0,0,.31-.12A.54.54,0,0,0,34.1,74.19Zm-.07.28-.18.11h-.11c-.05,0-.07,0-.07-.07a.13.13,0,0,1,0-.08.37.37,0,0,1,.27-.12c.06,0,.08,0,.08.07A.16.16,0,0,1,34,74.47Zm1.54,1.06h0a.4.4,0,0,1-.37.33c-.05.06-.09.09-.14.09s-.07,0-.1-.08a.18.18,0,0,1-.06-.1.27.27,0,0,1,0-.11s0-.08.1-.09a.12.12,0,0,0,.09,0,.38.38,0,0,0,0-.22c0-.12,0-.2,0-.26a.92.92,0,0,0-.43,0l-.14.55a.35.35,0,0,1-.06.09.1.1,0,0,1-.08,0s0,0,0-.08,0-.57.13-1.28h0l.06-.79c0-.09.07-.13.12-.13a.16.16,0,0,1,.09,0,.56.56,0,0,1,.36-.07c0-.07.09-.11.14-.11s.12.05.19.15a.36.36,0,0,1,.07.3A11.22,11.22,0,0,1,35.59,75c0,.11,0,.24,0,.38Zm-.45-.84v-.35a.48.48,0,0,1-.35.1l-.05.26a1.24,1.24,0,0,1,.27,0Zm0-.69h0v-.31a.11.11,0,0,0-.14,0,.42.42,0,0,0-.18.13V74h0A1.24,1.24,0,0,0,35.11,74Z" style="fill: #f5f1e8"/>
          </g>
          <polyline points="12.68 81.61 12.68 84.67 17.16 81.75 12.68 81.61" style="fill: #e95288"/>
          <polyline points="50.63 82.84 50.63 85.9 46.14 82.69 50.63 82.84" style="fill: #e95288"/>
          <g>
            <path d="M10.38,84.82h0s0,0,0,0,0,0,0,0l0,0-.08.1h0s0,0,0,0v0a.45.45,0,0,0,0,.14v.12a.11.11,0,0,1,0,0l0,0s0,0,0,0a.39.39,0,0,1,0-.06v0a.66.66,0,0,0,0-.19s0,0,0-.07h0a.39.39,0,0,1-.1.08l-.06,0h0l.11-.11.09-.13a.13.13,0,0,0,0-.08A0,0,0,0,1,10.38,84.82Zm-.06-.19h0s0,0,0,0h0s0,0,0,0a.53.53,0,0,1-.09.11.16.16,0,0,1-.08.06l0,0h0a.27.27,0,0,0,.07-.08.24.24,0,0,0,.06-.11.1.1,0,0,0,0-.07A0,0,0,0,1,10.32,84.63Zm.34.16h0a0,0,0,0,1,0,0h-.09v.08h.1l0,0h0a.68.68,0,0,0-.21,0h-.07s0,0,0,0h0l.15,0v-.09h-.09l0,0h.1v-.14a.08.08,0,0,0,0,0h0s0,0,0,0h0s0,0,0,0v0a0,0,0,0,0,0,0v.11h0Zm0,.28h0l0,0s0,0,0,0l-.07,0h0v.08l.09,0h0s0,0,0,0l0,0-.16,0-.06,0h0l0,0,0,0s0,0,0,0h.15v-.08s0,0,0,0h0l0,0h.11v0a0,0,0,0,0,0,0h0s0,0,0,0h0s0,0,0,0v0h0s0,0,0,0Zm.36-.14h0s0,0,0,0,0,0,0,0h-.14s0,0,0,0v0a.35.35,0,0,0,0,.06c0,.06,0,.11,0,.14v.12s0,.08,0,.1a.05.05,0,0,1,0,0s0,0,0,0a.27.27,0,0,0-.07-.08l0,0h.09s0,0,0,0,0-.09,0-.2a.61.61,0,0,0,0-.15v0h-.1s0,0,0,0h0l.23,0ZM11,84.77h0l0,0s0,0,0,0l-.07,0h-.14l0,0h0l.09,0a.08.08,0,0,0,.06,0Z" style="fill: #f5f1e8"/>
            <path d="M10.35,86.11h0s0,0,0,0,0,0,0,0l0,0a.43.43,0,0,1-.07.1h0a.09.09,0,0,1,0,0v0a.38.38,0,0,0,0,.13v.11s0,0,0,.06,0,0,0,0,0,0,0,0,0,0,0-.06v0a.66.66,0,0,0,0-.19.13.13,0,0,0,0-.06h0l-.1.07a.06.06,0,0,1,0,0h0a.45.45,0,0,0,.09-.1.36.36,0,0,0,.08-.12.11.11,0,0,0,0-.07S10.34,86.11,10.35,86.11Zm0-.2h0s0,0,0,0h0s0,0,0,0a.27.27,0,0,1-.08.1.13.13,0,0,1-.07.06l0,0h0l.07-.08.06-.1a.13.13,0,0,0,0-.06A0,0,0,0,1,10.32,85.91Zm.17.31h0s0,0,0,0h0l0,0h.14a0,0,0,0,1,0,0s0,0,0,0h0l0,0v0h.08s0,0,0,0h-.1v0h.07s0,0,0,0,0,0,0,0h-.06v0h.07s0,0,0,0h-.1v0h.11s0,0,0,0,0,0,0,0h-.28v0a.11.11,0,0,1,0,.05v0s0,0,0,0a.11.11,0,0,1,0,0,.08.08,0,0,1,0,0,.77.77,0,0,0,0-.18v-.06l0,0,0,0h0a.2.2,0,0,0,.06-.07l.05-.08s0,0,0,0Zm-.05-.3h.15v.24s0,0,0,0,0,0,0,0h0v0h-.09a0,0,0,0,1,0,0s0,0,0,0,0,0,0,0v-.09a.15.15,0,0,0,0-.07.35.35,0,0,0,0-.06h0S10.43,85.92,10.44,85.92Zm0,.25h.09V86.1h-.08A.13.13,0,0,1,10.46,86.17Zm0-.08h.06s0,0,0,0h0v0h-.08Zm0-.08h.08v-.06h-.07a.1.1,0,0,0,0,0Zm.15.37v0H10.5l0,0v0h0Zm-.11.19h.11v0h-.11Zm.11-.1v0h-.11v.06h.11Zm0-.56h.15l0,0v.21s0,0,0,0,0,0,0,0h-.11v0s0,0,0,0,0,0,0,0v-.08s0,0,0-.08a.35.35,0,0,0,0-.06h0Zm0,.25h.09v0h-.09A.07.07,0,0,1,10.66,86.16Zm0-.08h.09v0h-.09Zm0-.07.06,0h0a.18.18,0,0,1,0-.06h-.07s0,0,0,0Zm.36.17h0s0,0,0,0H11s0,0,0,0v.37a.22.22,0,0,1,0,.1s0,0,0,0a0,0,0,0,1,0,0l-.08-.08v0h0l.07,0s0,0,0,0,0-.1,0-.22a.61.61,0,0,0,0-.15v0H10.8s0,0,0,0h0l.2,0ZM11,86l0,0s0,0,0,0h0l-.06,0h-.12s0,0,0,0h0l.07,0H11Z" style="fill: #f5f1e8"/>
            <path d="M10.29,87.75a0,0,0,0,1,0,0,.17.17,0,0,1,0,0,.29.29,0,0,1,0,.09l0,0h-.06v-.07c0-.06.07-.09.07-.11Zm.27-.59h0l0,0s0,0,0,0l-.1,0h0s0,0,0,0h0s0,0,0,0l0,.07h.05l0,0s0,0,0,0v0l0,0v.07h-.07s0,0,0,0h0a0,0,0,0,1,0,0v.07h.1a0,0,0,0,1,0,0s0,0,0,0,0,0,0,0H10.4l-.09,0h0l0,0s0,0,0,0,0,0,0,0a.08.08,0,0,0,0,0c0-.07,0-.14,0-.22a.31.31,0,0,0,0-.13s0,0,0,0h0v0h.32Zm-.1.47v-.12H10.4a0,0,0,0,1,0,0v0s0,0,0,0a0,0,0,0,0,0,0h0s0,0,0,0h.1v-.13h-.13v0s0,0,0,0v.18s0,.1,0,.14,0,0,0,0Zm0-.16h.11s0,0,0,0v0h-.12Zm.05.3,0,0s0,0,0,.06a.11.11,0,0,1,0,.05s0,0,0,0,0,0,0-.07a.33.33,0,0,1,0-.1Zm.38-.58.06,0a0,0,0,0,1,0,0,0,0,0,0,1,0,0,.11.11,0,0,0,0,.06l0,.07,0,0s0,0,0,0h-.18v.11s0,0,0,0,0,0,.05,0h.13a.09.09,0,0,0,.06-.06V87.5s0,0,0,0h0l0,.06a0,0,0,0,0,0,0,0,0,0,0,1,0,0v0l-.06,0h-.18a.16.16,0,0,1-.08,0,.13.13,0,0,1,0-.08v-.26s0,0,0,0v0s0,0,0,0l0,0h.08l.07,0Zm-.19.59a.07.07,0,0,1,.06,0s0,0,0,0a.07.07,0,0,1,0,.05s0,0,0,0,0,0-.05-.07a.42.42,0,0,1,0-.09Zm.05-.51v.12h.12s0-.05,0-.07v0a0,0,0,0,0,0,0h0Zm.14.49h0l.07,0a.17.17,0,0,1,.06.06.13.13,0,0,1,0,.06,0,0,0,0,1,0,0s0,0,0,0h0a.5.5,0,0,0-.05-.07.21.21,0,0,0-.06-.1,0,0,0,0,1,0,0Z" style="fill: #f5f1e8"/>
            <path d="M10.42,88.63l0,0a0,0,0,0,1,0,0h0l-.09,0h0v.13l0,0,0,0a0,0,0,0,1,0,0v0l-.08.07v.27a.19.19,0,0,1,0,.07l0,0,0,0a.22.22,0,0,0-.07-.09h0l.06,0s0,0,0,0,0,0,0-.1v-.11L10.2,89a0,0,0,0,1,0,0l0,0s0,0,0,0h0l.05,0,.14-.07V88.7h-.13l0,0h0l.12,0V88.5s0-.06,0-.07v0s0,0,0,0l0,0s0,0,0,0,0,0,0,0a.2.2,0,0,0,0,.09.28.28,0,0,0,0,.09h.06Zm.41.12h.06s0,0,0,0H10.8v0h.11a0,0,0,0,1,0,0h-.09v0h.14l0,0,0,0s0,0,0,0a1.61,1.61,0,0,0-.22,0h-.09l0,0h0s0,0,0,0h0v.08s0,0,0,0l.09-.06h0a0,0,0,0,1,0,0l-.11.11s0,0,0,0h0s0,0,0,0h0a0,0,0,0,1,0,0v-.07s0,0,0-.06l-.05,0-.08,0-.06,0h0l.08,0a.26.26,0,0,0,.09-.09l0,0h-.12l0,0h.16v0h-.1a0,0,0,0,1,0,0h.07v-.05h-.09s0,0,0,0h.11v0a0,0,0,0,1,0,0h0s0,0,0,0h0v0h0a0,0,0,0,0,0,0h.1v-.06h0s0,0,0,0h0s0,0,0,0h0v0Zm-.18-.38h0l.05,0a.08.08,0,0,1,0,0s0,0,0,0l.1,0h.09l0,0s0,0,0,0h-.21l-.17,0h-.07l0,0h0l.22,0h0a.31.31,0,0,1,0-.09h0S10.64,88.36,10.65,88.37Zm-.15.22h0l.11,0h0v0h0l0,0,0,0h-.12s0,0,0,0v0a.08.08,0,0,1,0,0l0,0h0Zm.05.08h.08V88.6h-.09v.06Zm.19.19V88.8h-.1v.06Zm-.09.09h.09v0h-.09Zm.21,0a0,0,0,0,1,0,0l0,0s0,0,0,0l-.1,0,.07,0a.49.49,0,0,0,.19.08h0a.3.3,0,0,1-.12,0h0a1.18,1.18,0,0,1-.16-.18l-.05,0h0l.06,0h0l0,0s0,0,0,0A0,0,0,0,1,10.86,89Zm-.13-.43h0l.12,0h0l0,0h0l0,0,0,0,0,0h-.13s0,0,0,0,0,0,0,0v0a0,0,0,0,0,0,0,0,0,0,0,0,0,0h0Zm.06.08h.08a.1.1,0,0,1,0,0,0,0,0,0,0,0,0h-.09A.06.06,0,0,1,10.79,88.64Z" style="fill: #f5f1e8"/>
            <path d="M10.74,89.9l0,0,0,0a0,0,0,0,1,0,0,.37.37,0,0,0-.07.14.67.67,0,0,0,0,.17.11.11,0,0,0,0,.1.21.21,0,0,0,.14,0,.13.13,0,0,0,.08,0s0-.06,0-.14a0,0,0,0,0,0,0s0,0,0,0a.22.22,0,0,0,0,.14,0,0,0,0,1,0,0,.05.05,0,0,1,0,0,.26.26,0,0,1-.14,0,.28.28,0,0,1-.2-.06.21.21,0,0,1-.06-.16V90.2a1.54,1.54,0,0,1,0-.17s0,0,0,0l0,0h0l-.09,0,0,.1a.57.57,0,0,1-.11.22.32.32,0,0,1-.16.13h-.06l0,0a1,1,0,0,0,.15-.15.68.68,0,0,0,.08-.15.83.83,0,0,0,0-.12l-.12,0h0l-.05,0s0,0,0,0a0,0,0,0,1,0,0l.17,0,.06,0v0a1.09,1.09,0,0,0,0-.18v-.06a0,0,0,0,1,0,0s0,0,0,0l.05,0s0,0,0,0v0a.64.64,0,0,0,0,.09s0,.08,0,.12l.13,0Z" style="fill: #f5f1e8"/>
            <path d="M10.26,91.25a.09.09,0,0,1,.07,0,.14.14,0,0,1,0,.06s0,0,0,0-.05,0-.1-.08v0h0Zm.12-.27.06,0s0,0,0,0v0a.15.15,0,0,0,0,.07,1.21,1.21,0,0,1,0,.33.4.4,0,0,1-.1.17l-.08,0h0a0,0,0,0,1,0,0,.54.54,0,0,0,.11-.18.62.62,0,0,0,0-.25v-.17a.17.17,0,0,1,0,0,0,0,0,0,1,0,0Zm.14.28a.06.06,0,0,1,.06,0,.06.06,0,0,1,0,0s0,0,0,0,0,0-.09-.07,0,0,0,0h0Zm.11-.26,0,0s0,0,0,0v0a.41.41,0,0,0,0,.12v.31a.11.11,0,0,1,0,0,.43.43,0,0,1,0,0s0,0,0,0,0,0,0,0,0,0,0,0v-.35a.5.5,0,0,0,0-.15v0S10.61,91,10.63,91Zm.13.27a.08.08,0,0,1,.06,0,.07.07,0,0,1,0,.06s0,0,0,0l-.09-.08s0,0,0,0h0Zm.11-.34a.06.06,0,0,1,0,0s0,0,0,0v0s0,.06,0,.1v.43a1.25,1.25,0,0,1,0,.21.32.32,0,0,1,0,.06s0,0,0,0a1.15,1.15,0,0,1,0-.2V91h0A0,0,0,0,1,10.87,90.93Z" style="fill: #f5f1e8"/>
            <path d="M10.27,92.35l.05,0s0,0,0,0h0a.36.36,0,0,0,0,.09l.1,0v0a.72.72,0,0,0,0-.17.07.07,0,0,0,0-.05v0l0,0,0,0s0,0,0,0v0a.25.25,0,0,0,0,.1.45.45,0,0,0,0,.11h.05l0,0h0l0,0h-.09a.38.38,0,0,0,0,.1v0h0l0,0h0a0,0,0,0,1,0,0s0,0-.06,0V93a.13.13,0,0,1,0,.06l0,0,0,0a.25.25,0,0,1,0-.07s0,0,0,0a.88.88,0,0,0,0-.14v0l0,0-.12.08h0l-.05,0s0,0,0,0h0l.19-.09a.81.81,0,0,0,0-.16h-.06s-.05,0-.05,0l0,.07a.1.1,0,0,1,0,0h0a.62.62,0,0,0,.07-.18.3.3,0,0,0,0-.1Zm.42-.15h0s0,0,0,.05v0s0,0,0,0a1.31,1.31,0,0,1-.09.17v0h.13a.53.53,0,0,0,.17,0h0l0,0,0,0s0,0,0,0a.22.22,0,0,0,0,.1c0,.12,0,.2,0,.25a.23.23,0,0,1-.07.13l0,0s0,0,0,0a.61.61,0,0,0-.07-.1h0l.08,0s0,0,0,0a.7.7,0,0,0,.06-.19,1.76,1.76,0,0,0,0-.19s0,0,0,0h-.1l0,0s0,0,0,0h0a.15.15,0,0,0,0,.06,1.42,1.42,0,0,1-.11.18.45.45,0,0,1-.16.12l-.06,0h0a1.17,1.17,0,0,0,.16-.15.38.38,0,0,0,.09-.15.26.26,0,0,0,0-.11v0H10.7l0,0h0l0,0,0,.06a.27.27,0,0,1-.07.08l-.06,0h0l.06-.06.07-.11a.13.13,0,0,0,0-.07h0l0,0,0,0h0l.07-.13a.53.53,0,0,0,.05-.15.44.44,0,0,0,0-.1S10.68,92.2,10.69,92.2Z" style="fill: #f5f1e8"/>
            <path d="M10.59,93.41l0,0s0,0,0,0,0,0,0,0l0,0-.09.07h.07l.13,0h.08l0,0h0s0,0,0,0a.08.08,0,0,0,0,.06h0a0,0,0,0,1,0,0h-.33v.06h.13l.14,0h0l0,0s0,0,0,0h0s0,0,0,0l0,.06h0s0,0,0,0h-.19s0,0,0,0V94h0l.22,0h0l0,0s0,0,0,0,0,0-.05,0h-.17a.54.54,0,0,0-.18,0v.18s0,.07,0,.09,0,0,0,0a0,0,0,0,1,0,0s0,0,0-.07a.15.15,0,0,1,0-.07v-.13h0l-.25,0h0a.08.08,0,0,1-.06,0l0,0s0,0,0,0h.39a.2.2,0,0,1,0-.07v0h-.11v0l0,0s0,0,0,0a.17.17,0,0,1,0,0v0a.28.28,0,0,0,0-.09v-.12a.22.22,0,0,0,0-.09v0h.07l.07-.09a.1.1,0,0,0,0-.06A0,0,0,0,1,10.59,93.41Zm-.13.51.23,0h.06v-.05a0,0,0,0,0,0,0s0,0,0,0h-.12l-.13,0h0v.08Zm0-.22.2,0h.06V93.6H10.6l-.13,0v.08Z" style="fill: #f5f1e8"/>
            <path d="M10.74,94.69h0l0,0a0,0,0,0,1,0,0l0,0,.09,0h.05l0,0a0,0,0,0,1,0,0h-.17c0,.05,0,.08-.05.09v0h.07l.05,0s0,0,0,0,0,0,0,0,0,0,0,0l0,.13s0,0,0,0,0,0,0,0h-.11v.08l.19,0h.09l.06,0a.05.05,0,0,1,0,0,0,0,0,0,1,0,0,.15.15,0,0,0,0,.07v.1a.18.18,0,0,1,0,.11l-.05,0s0,0,0,0l-.06-.08s0,0,0,0h.09s0,0,0,0a.46.46,0,0,0,0-.14s0,0,0-.07h-.27v.09l.1,0,0,0a0,0,0,0,0,0,0h0l.05,0,0,0v.07h0s0,0,0,0h0l-.15,0-.06,0h0l0,0,0,0s0,0,0,0h.14v-.08l-.2,0v.19s0,0,0,0a0,0,0,0,1,0,0s0,0,0,0a0,0,0,0,1,0,0v-.06a.49.49,0,0,0,0-.12h-.07s0,0,0,0,0,0,0,0h.07v0h0s0,0,0,0h0l0,0v0l.2,0v-.08h-.13s0,0,0,0v-.07s0-.07,0-.08,0,0,0-.05h.06a1,1,0,0,0,.25,0h0l0-.1h0l0,0s0,0,0,0h.08a.25.25,0,0,0,0-.08v0S10.73,94.69,10.74,94.69Zm-.32,0,.05,0a0,0,0,0,1,0,0v.09h0s0,0,0,0h0l-.05,0a.35.35,0,0,0,0,.06l0,0a.11.11,0,0,1,0,0v0h0l-.05,0h0l0,0s0,0,0,0,0,0,0,0h.17a.22.22,0,0,0,0-.08,0,0,0,0,1,0,0S10.4,94.72,10.42,94.72Zm0,.37h.11V95h-.11v.08Zm0,.09h.1v-.07h-.11A.15.15,0,0,1,10.46,95.18ZM10.6,95l0,0v0h.13V95s0,0,0,0Zm0,.11v.07h.12s0-.05,0-.08h-.13Z" style="fill: #f5f1e8"/>
            <path d="M10.57,96.08l0,0s0,0,0,0,0,0,0,0l-.12,0s0,.08,0,.12h.12l0,0h0l-.12,0a.37.37,0,0,1,0,.11h.07l.06,0,0,0,0,0s0,0,0,0l-.17,0a0,0,0,0,0,0,0,.42.42,0,0,1-.1.2s-.06.06-.08.06h0l0,0a.65.65,0,0,0,.1-.22s0,0,0,0l-.1,0-.05,0-.05,0,0,0,0,0,.22,0a.37.37,0,0,0,0-.11l-.07,0h-.09l0,0h0l.17,0v-.11l0,0-.13,0h0s0,0,0,0l.15-.07v-.11a.14.14,0,0,0,0-.07,0,0,0,0,0,0,0h0a.06.06,0,0,1,.05,0s0,0,0,0v0a.19.19,0,0,0,0,.08l.06-.06Zm.35,0,.07,0s0,0,0,0h0l0,.06-.07.1h0a.28.28,0,0,1,.09.1.28.28,0,0,1,0,.13.19.19,0,0,1,0,.07s0,0,0,0a0,0,0,0,1,0,0l-.12-.09,0,0h0l.1,0a0,0,0,0,0,0,0,.31.31,0,0,0,0-.08l-.06-.09s0,0,0,0v0a.16.16,0,0,0,0-.08.39.39,0,0,0,0-.06,0,0,0,0,0,0,0h-.11v0s0,.06,0,.09v.41c0,.08,0,.14,0,.2s0,0,0,0a.1.1,0,0,1,0,0s0-.1,0-.18V96.1h0l0,0h0l.14,0Z" style="fill: #f5f1e8"/>
            <path d="M10.35,97.57l.05,0s0,0,0,0v0l-.06.06,0,0,0,0a.1.1,0,0,1,.06.09.14.14,0,0,1,0,.06h0l.08,0a1.22,1.22,0,0,0,.25.07,2,2,0,0,0,.37,0s0,0,0,0l-.06,0-.2,0-.1,0L10.42,98h-.08a.13.13,0,0,0-.09,0h0l0,0s0,0,0,0h.19v0a.27.27,0,0,0,0-.13,0,0,0,0,1,0,0l0-.07v0s0,0,0,0H10.2s0,0,0,0h0l.13,0Zm-.1-.22.08,0,.05,0a.08.08,0,0,1,0,0,0,0,0,0,1,0,0s0,0-.07,0,0-.06,0-.07Zm.56-.06.06,0s0,0,0,0l0,0-.09.05-.05,0h0a.05.05,0,0,1,0,0v0l.1,0h0l0,0,0,0v0a.19.19,0,0,0,0,.1v.12a.13.13,0,0,1,0,.06.22.22,0,0,1,0,.1s0,0,0,0,0,0,0,0l-.06-.07a0,0,0,0,1,0,0h.06s0,0,0,0,0,0,0-.12h-.14v.06a.22.22,0,0,1,0,.09l0,0s0,0,0,0v-.14h-.11v.07a.18.18,0,0,0,0,.06l0,0,0,0a.11.11,0,0,1,0,0v0a.22.22,0,0,0,0-.08v-.11a.22.22,0,0,0,0-.09v0h0l.16,0h0l-.08-.08h0l.05,0a.35.35,0,0,1,.07-.09v0h0l-.14,0h-.06l0,0h0l.14,0,.11,0Zm-.23.48h.11v-.07h-.11Zm0-.11h.11v-.09h-.11v.07Zm.17,0v.07h.14v-.07h-.13Zm0-.12v.08h.13v-.06a0,0,0,0,0,0,0s0,0,0,0h-.1Z" style="fill: #f5f1e8"/>
          </g>
          <g>
            <path d="M51.65,85.94h0l0,0a.08.08,0,0,1,0,0s0,0,0,0H52l0,0s0,0,0,0h-.28l-.22,0v0a2.31,2.31,0,0,1,0,.32.84.84,0,0,1-.07.19.4.4,0,0,1-.1.12h0a.83.83,0,0,0,.07-.13,1,1,0,0,0,.07-.25,1.94,1.94,0,0,0,0-.24.06.06,0,0,0,0,0h0l0,0s0,0,0,0l.33,0h0L51.65,86h0Zm0,.25h0s0,0,0,0h-.11v.09h.13s0,0,0,0h0s0,0,0,0l0,.11,0,0h-.08s0,0,0,0h.1a0,0,0,0,1,0,0h-.12v.16a.11.11,0,0,1,0,0,0,0,0,0,1,0,0s0,0,0,0l0,0v0a.35.35,0,0,0,0-.12l-.09,0h0l0,0s0,0,0,0h0l.17,0a.13.13,0,0,0,0-.06h0a0,0,0,0,1,0,0h0s0,0,0,0v0s0,0,0-.06a.05.05,0,0,0,0,0h.11s0-.07,0-.09h-.08l.08,0a.11.11,0,0,0,0,0,.06.06,0,0,0,0,0h0a0,0,0,0,1,0,0l0,0s0,0,0,0h0a.07.07,0,0,0,0,0h0Zm-.15.22h.17v0s0,0,0,0h-.16v0Zm0,.07h.14s0,0,0-.06h-.16Zm.25-.29H52l0,0s0,0,0,0v0a.27.27,0,0,0,0,.11c0,.1,0,.17,0,.22v.12a.22.22,0,0,1,0,.1s0,0,0,0v0l-.07-.08s0,0,0,0h0l0,0a0,0,0,0,0,0,0,.82.82,0,0,0,0-.19h-.12v0a.28.28,0,0,1,0,.11.35.35,0,0,1,0,.08l0,0h0a.37.37,0,0,0,.06-.1,1,1,0,0,0,0-.12.66.66,0,0,0,0-.15v-.06a.22.22,0,0,0,0-.09,0,0,0,0,0,0,0v0S51.78,86.19,51.79,86.19Zm.05.32H52v-.13h-.11v0A.34.34,0,0,1,51.84,86.51Zm0-.15H52v-.1s0,0,0,0a0,0,0,0,0,0,0h-.08a.13.13,0,0,0,0,.06Z" style="fill: #f5f1e8"/>
            <path d="M51.65,87.2a.07.07,0,0,1,.06,0l0,0s0,0,0,0,0,0,0,0l.22,0h0l.06,0s0,0,0,.06,0,0,0,0l-.14,0h0l.06-.09a0,0,0,0,0,0,0l-.46,0h-.06a.15.15,0,0,1,0,.06l0,.06h0s0,0,0,0,0,0,0,0a.93.93,0,0,0,0-.14,0,0,0,0,1,0,0s0,0,0,0v0h.27l0-.06a.78.78,0,0,1,0-.07Zm.17.28h0l0,0h-.16l0,0v.11h0l.18,0h0a.1.1,0,0,1,.06,0l0,0s0,0-.05,0h-.26s0,.1,0,.15a.44.44,0,0,1,0,.19s0,0,0,0h0L51.6,88h0s0,0,0,0h0s0,0,0,0,0,0,0-.07,0-.08,0-.14v0h0l-.19,0h0l-.05,0,0,0a0,0,0,0,1,0,0h.3v-.1l0,0h-.13l0,0h.19l.09,0Z" style="fill: #f5f1e8"/>
            <path d="M51.43,88.46l0,0a0,0,0,0,1,0,0,0,0,0,0,1,0,0v.27h.13l0,0s0,0,0,0h-.08s0,0,0,0v0a1.74,1.74,0,0,1,0,.18h0l.08,0h0a0,0,0,0,1,0,0l-.1.11a0,0,0,0,1,0,0s0,0,0,0a.08.08,0,0,1,0,0,0,0,0,0,1,0,0,.08.08,0,0,1,0,0v-.15s0,0,0-.06,0,0,0,0h-.06s0,0,0,0h0l0,0-.06.13a.2.2,0,0,1-.09.09l0,0h0a1,1,0,0,0,.08-.11.66.66,0,0,0,0-.11.22.22,0,0,0,0-.08h-.11s0,0,0,0h0l.17,0v-.28s0,0,0,0h0A0,0,0,0,1,51.43,88.46Zm-.12.17h0l.05,0s0,0,0,0,0,0,0,0a0,0,0,0,1,0,0,.25.25,0,0,1-.05-.07h0S51.3,88.63,51.31,88.63Zm.26,0h0l0,0s0,0,0,0l-.09.1h0l0-.07a.2.2,0,0,0,0-.07Zm.13-.1,0,0h0l.23,0H52l.06,0a.11.11,0,0,1,0,0s0,0,0,0h0l-.08,0h0a.14.14,0,0,0,0-.07s0,0,0,0h-.17l0,0s0,0,0,0a0,0,0,0,1,0,0v0H52s0,0,0,0h-.11v.07H52l0,0,0,0h0s0,0,0,0L52,89s0,0,0,0,0,0,0,0h-.08V89h.19l0,0s0,0,0,0h-.27v0a1.27,1.27,0,0,1,0,.2.11.11,0,0,1,0,0s0,0,0,0v-.25l-.08,0h-.07l0,0s0,0,0,0h.16V89h-.07v0h0a0,0,0,0,1,0,0v-.07s0-.06,0-.07a.08.08,0,0,0,0,0h0s0,0,0,0,0,0,0,0h.12v-.07h-.09a0,0,0,0,1,0,0s0,0,0,0h.08v0a.15.15,0,0,0,0-.07v0h-.09a.13.13,0,0,1,0,.06l0,0h0l0,0s0,0,0,0,0,0,0,0l0-.1S51.69,88.48,51.7,88.48Zm0,.36h.08v0h-.09v.06Zm0,.09h.07v-.06h-.08A.15.15,0,0,1,51.75,88.93Zm.12-.07v.06H52a.15.15,0,0,0,0-.08h-.1Zm0-.09v.06H52v0s0,0,0,0S51.93,88.76,51.88,88.77Z" style="fill: #f5f1e8"/>
            <path d="M51.27,90h0l.05,0a.14.14,0,0,1,0,.06s0,0,0,0h0a.87.87,0,0,1,0-.12h0Zm.16-.26,0,0s0,0,0,0v0a.19.19,0,0,0,0,.08V90s0,0,0,0,0,0,0-.07a0,0,0,0,0,0,0l0,0,0,0s0,0,0,0l-.13.09h0a1,1,0,0,1,0,.18h0l.06,0,0,0s0,0,0,0v0s0,0,0,0h0l0,0,0-.07a.47.47,0,0,1,0,.14l-.08.1-.07,0h0a.77.77,0,0,0,.09-.13.33.33,0,0,0,0-.15,1.23,1.23,0,0,0,0-.2v-.08a.34.34,0,0,0,0-.11.07.07,0,0,0,0,0v0S51.41,89.73,51.43,89.73Zm.52.45h0l0,0s0,0,0,0h-.13a0,0,0,0,1,0,0v.08H52l0,0s0,0,0,0h-.12v.09h0l.15,0h0l0,0s0,0,0,0,0,0,0,0h-.28l-.16,0h-.08s0,0,0,0h.26v-.09h-.13s0,0,0,0h.09v0s0,0,0,0h-.12s0,0,0,0h.17l.1,0Zm-.15-.48,0,0s0,0,0,0a0,0,0,0,1,0,0l0,0-.08.09h0l.16,0H52l.06,0,0,0h0s0,0,0,.06l0,.14a0,0,0,0,1,0,0,0,0,0,0,1,0,0H51.7s0,0,0,0V90a.56.56,0,0,0,0-.07s0,0,0,0h0a0,0,0,0,1,0,0h.07a1.17,1.17,0,0,1,.05-.11.28.28,0,0,0,0-.08Zm-.08.3.16,0H52v-.07s0,0,0,0l-.13,0h-.09V90Zm0,.1h.2a.54.54,0,0,0,0-.08h-.21Z" style="fill: #f5f1e8"/>
            <path d="M51.33,91.15h.06l.44,0H52l.06,0,0,0s0,0,0,0a.14.14,0,0,0,0,.07l0,.21a.46.46,0,0,1,0,.15s0,0-.05,0a0,0,0,0,1,0,0l0-.08h-.19l-.18,0h-.06s0,0,0,0h0l0,0a.06.06,0,0,1,0,0l0-.15a.59.59,0,0,0,0-.17.14.14,0,0,0,0-.09v0A0,0,0,0,1,51.33,91.15Zm.12.43.37,0h.11s0,0,0,0a1.06,1.06,0,0,0,0-.31v0h-.2s0,0,0,0h0s0,0,0,.06v.09s0,0,.06,0h.09a0,0,0,0,1,0,0,0,0,0,0,1,0,0h-.15a.09.09,0,0,1-.05-.09V91.2h-.09s0,0,0,0h0a0,0,0,0,0,0,0,.44.44,0,0,0,0,.1.35.35,0,0,1,0,.08.09.09,0,0,1-.06,0h0s0,0,0,0l0,0s0,0,0-.06,0,0,0-.06a.43.43,0,0,0,0,0h-.15v.06A2.39,2.39,0,0,1,51.45,91.58Z" style="fill: #f5f1e8"/>
            <path d="M51.32,92.45h0l.06,0a0,0,0,0,1,0,0s0,0,0,0h0a.4.4,0,0,1-.07-.09h0Zm.17.15a0,0,0,0,1,0,0,.39.39,0,0,1,0,.06,1.77,1.77,0,0,1-.06.17l0,.09s0,0,0,0l0,0,0-.07s0,0,0,0a.17.17,0,0,0,.06-.06l.09-.17A0,0,0,0,0,51.49,92.6Zm-.06-.35h0l.07,0a.08.08,0,0,1,0,0s0,0,0,0h0a.49.49,0,0,1-.08-.1h0S51.42,92.25,51.43,92.25Zm.23.2h.06l.19,0h0l.06,0,0,0a0,0,0,0,1,0,0,.12.12,0,0,0,0,.07v0h.16s0,0,0,0,0,0,0,0H52c0,.06,0,.11,0,.15h.07l0,0a.09.09,0,0,1,0,.06,0,0,0,0,1,0,0l0,0-.1,0s0,.06,0,.08a.12.12,0,0,1-.06.08l0,0,0,0-.08-.11h0l.05,0,0,0a.15.15,0,0,0,0-.08H51.7l-.06,0h0v-.06l0-.06a.31.31,0,0,0,0-.08h-.08s0,0,0,0,0,0,0,0h.15v-.07a.25.25,0,0,0,0-.1h0Zm.08-.29h0s0,0,0,0,0,0,0,0a0,0,0,0,0,0,0,.36.36,0,0,1-.07.1h0l.21,0H52l0,0-.05,0H51.7v0a.27.27,0,0,1-.08.07s0,0,0,0h0a.26.26,0,0,0,.07-.1.41.41,0,0,0,.07-.11.25.25,0,0,0,0-.08A0,0,0,0,1,51.74,92.16Zm.18.65v0s0-.08,0-.13H51.7a.61.61,0,0,1,0,.13h.25Zm-.21-.17h.23v-.15h0l-.17,0h0v0S51.71,92.6,51.71,92.64Zm0,0h0l0,0s0,0,0,0a0,0,0,0,1,0,0,0,0,0,0,1,0,0,.14.14,0,0,1,0-.07h0Zm0-.17h0l0,0a.05.05,0,0,1,0,0,0,0,0,0,1,0,0h0l0-.07Z" style="fill: #f5f1e8"/>
            <path d="M51.63,93.72l0,0,0,0s0,0,0,0l-.07,0h0l0,0v0s0,0,0,0v0h.18v-.09a.19.19,0,0,0,0-.08h0s0,0,0,0l0,0s0,0,0,0v0a.13.13,0,0,1,0,.06v.06H52l0,0s0,0,0,0,0,0,0,0h-.16v.16c0,.06,0,.1,0,.14s0,0,0,0,0,0,0,0V94h-.19a.14.14,0,0,1,0,.06.3.3,0,0,1-.07.1.21.21,0,0,1-.1.06l-.07,0h0l.12-.09a.24.24,0,0,0,.06-.11v0l-.1,0h-.08s0,0,0,0h.23v0s0-.05,0-.06h0l-.09,0h0l.11,0,.08-.07Zm-.15-.28h.05l.26,0h.06l0,0s0,0,0,0h0a.08.08,0,0,0,0,0l0,.14s0,0,0,0,0,0,0,0h-.26a.05.05,0,0,1,0,0v-.07a.54.54,0,0,0,0-.08l0-.05h0Zm.08.12h0l.19,0h.08v-.06s0,0,0,0l-.15,0-.13,0v.07Zm0,.1.15,0h.08a.15.15,0,0,0,0-.08h-.26A.17.17,0,0,0,51.58,93.66Z" style="fill: #f5f1e8"/>
            <path d="M51.84,94.68h0s0,0,0,0h0l-.12,0h0s0,0,0,0v.29h.06l.22,0h0l.05,0s0,0,0,0,0,0,0,0h-.36v.19c0,.07,0,.14,0,.19s0,.06,0,.06,0,0,0,0a.87.87,0,0,1,0-.18v-.21h0l-.25,0h0l0,0,0,0a0,0,0,0,1,0,0h.37v-.23a.15.15,0,0,0,0-.07v0h-.15l0,0s0,0,0,0l.18,0,.11,0Zm-.39.17h0s0,0,.06,0a.14.14,0,0,1,0,.07s0,0,0,0,0,0,0,0a.54.54,0,0,1-.07-.12v0Zm.47,0,0,0s0,0,0,0v0l-.16.12h0a.24.24,0,0,0,.06-.09.31.31,0,0,0,0-.1Z" style="fill: #f5f1e8"/>
            <path d="M51.78,95.91l.06,0s0,0,0,0l0,0-.14,0h0s0,0,0,0a0,0,0,0,1,0,0s0,.06,0,.09v0h0l.2,0h0l.05,0,0,0s0,0-.06,0h-.31v.28a.9.9,0,0,1,0,.18s0,.05,0,.05,0,0,0,0v-.47h0l-.23,0h-.09l0,0s0,0,0,0h.37v-.1a.19.19,0,0,0,0-.08h0l-.13,0h0s0,0,0,0l.15-.06.11-.08Z" style="fill: #f5f1e8"/>
            <path d="M51.59,97.16h0l0,0v.16h.08v-.17s0,0,0,0h0a0,0,0,0,1,0,0h0a0,0,0,0,1,0,0h0v0l0,.15h.15l.09,0,0,0s0,0,0,0,0,0,0,0h-.26l0,0a0,0,0,0,1,0,0l0,0,0,.06h.16s0,0,0,0h-.21v.05h.15l0,0s0,0,0,0h-.15v.06h0l.16,0H52s0,0,0,0,0,0,0,0h-.27V98s0,0,0,0l0,0a.11.11,0,0,1,0,0v0a.22.22,0,0,0,0-.1v-.09l-.17,0h0l0,0,0,0s0,0,0,0h.26v-.06h-.14l0,0s0,0,0,0h.13a.18.18,0,0,1,0-.06h0l-.1,0h-.06s0,0,0,0h.13l-.05-.1h0l-.11,0-.06,0,0,0,0,0s0,0,0,0l.15,0h.11a0,0,0,0,1,0,0v-.06a.35.35,0,0,0,0-.06l0,0h0S51.58,97.16,51.59,97.16Zm0,.65,0,0s0,0,0,0h0l0,0-.07,0-.06,0h0l.05,0,.08-.07,0,0s0,0,0,0Zm-.12-.58h0l.06,0a.09.09,0,0,1,0,0s0,0,0,0h0l0-.09h0Zm.2.3h.09a.25.25,0,0,0,0-.07.08.08,0,0,0,0,0v0h-.07l-.12,0h0a.1.1,0,0,1,0,0,.07.07,0,0,1,0,0S51.67,97.52,51.66,97.53Zm.15.28h0l.08,0a.22.22,0,0,1,.07.06A.13.13,0,0,1,52,98v0h0l-.06-.06c0-.05-.06-.07-.07-.09l0,0Zm.12-.64,0,0s0,0,0,0l0,0,0,0s-.07,0-.08,0h0l0-.06a.24.24,0,0,0,0-.07Z" style="fill: #f5f1e8"/>
            <path d="M51.45,99h.11l.27,0h.07L52,99s0,0,0,0,0,0,0,0a.3.3,0,0,0,0,.08l0,0h.14l.05,0s0,0,0,0h-.47l-.24,0h0l0,0s0,0,0,0,0,0,0,0h.17a0,0,0,0,1,0,0v-.05a.2.2,0,0,1,0-.07s0,0,0,0h0Zm.42-.5,0,0,0,0s0,0,0,0h-.12a.11.11,0,0,0,0,.05.34.34,0,0,0,.06.15v0l0,0a.12.12,0,0,0,0-.08v0s0,0,0,0l.05,0,0,0h0s0,0,0,0l-.06.1,0,0a.13.13,0,0,0,.07,0s0,0,0,0v-.08h0a.41.41,0,0,0,0,.14,0,0,0,0,0,0,0s0,0,0,0a.21.21,0,0,1-.14-.07.46.46,0,0,1-.07-.07l-.12.08h-.06a.75.75,0,0,0,.13-.11l0,0s0,0,0,0a.71.71,0,0,1-.07-.22h0l-.16,0h0v0s0,.06,0,.09h0a.15.15,0,0,0,.08,0h0l0,0,0,0h0s0,0,0,0,0,.09,0,.1a.15.15,0,0,1,0,.06h0l0,0a.15.15,0,0,0,0-.07h0l.07,0h0a.08.08,0,0,0,0-.06.13.13,0,0,0,0-.06s0,0,0,0h0l0,0h0a.24.24,0,0,0,0,.08l-.06.12a.27.27,0,0,1-.08.07h0a.35.35,0,0,0,.05-.08.47.47,0,0,0,.06-.15.66.66,0,0,0,0-.14v0h0l0,0s0,0,0,0l.3,0v-.07a.11.11,0,0,0,0-.06,0,0,0,0,1,0,0h0l0,0s0,0,0,0v.11h0Zm-.34.7h.1a.33.33,0,0,0,0-.13v0h-.08a.72.72,0,0,1,0,.13Zm.13,0h.08V99h-.09s0,0,0,0v.14Zm.1,0h.1s0,0,0-.09a.18.18,0,0,0,0,0s0,0,0,0h-.07l0,0a0,0,0,0,1,0,0v.05A.34.34,0,0,1,51.76,99.2Zm.09-.79h0l.06,0s0,0,0,0,0,0,0,0h0a.17.17,0,0,1-.06-.06h0Z" style="fill: #f5f1e8"/>
          </g>
        </g>
        <g>
          <path d="M77.23,95.53v-4.2l-1.6,1.41H48.12l-1.6-1.41v4.2h-.1L43.52,100h.18v12.34H54.78V113H69v-1.31h0v.65H80.29V100ZM46.58,111.69V100h0v11.69Z" style="fill: #c6c6c5"/>
          <polygon points="46.52 91.33 48.12 92.74 43.84 98.72 41.96 96.96 46.52 91.33" style="fill: #e95288"/>
          <g>
            <polygon points="44.03 98.62 48.2 92.79 75.43 92.83 70.94 98.62 44.03 98.62" style="fill: #f5f1e8"/>
            <path d="M75.24,92.93l-4.35,5.6H44.21l4-5.6h27m.39-.19H48.12l-4.28,6H71l4.64-6Z" style="fill: #f092b6"/>
          </g>
          <rect x="42.05" y="105.64" width="30.8" height="11.69" style="fill: #f092b6"/>
          <g>
            <polygon points="42.05 117.28 42.1 115.87 52.53 115.93 52.48 117.28 42.05 117.28" style="fill: #e7326e"/>
            <path d="M52.42,116v1.24H42.15V116H52.42m.11-.11H42.05v1.46H52.53v-1.46Z" style="fill: #a4d3d3"/>
          </g>
          <g>
            <rect x="44.63" y="104.84" width="27.35" height="1.74" style="fill: #a4d3d3"/>
            <path d="M71.77,105.05v1.32H44.83v-1.32H71.77m.41-.41H44.42v2.14H72.18v-2.14Z" style="fill: #e7326e"/>
          </g>
          <rect x="42.05" y="115.53" width="10.48" height="0.34" style="fill: #e95288"/>
          <g>
            <polygon points="62.27 117.28 62.32 115.87 72.85 115.93 72.8 117.28 62.27 117.28" style="fill: #e7326e"/>
            <path d="M72.75,116v1.24H62.37V116H72.75m.1-.11H62.27v1.46H72.85v-1.46Z" style="fill: #a4d3d3"/>
          </g>
          <rect x="62.27" y="115.53" width="10.59" height="0.34" style="fill: #e95288"/>
          <polyline points="38.96 105.64 41.87 101.17 41.09 101.17 72.67 101.17 75.73 105.64" style="fill: #e7326e"/>
          <rect x="41.96" y="99.98" width="30.71" height="1.19" style="fill: #e7326e"/>
          <rect x="43.42" y="98.37" width="27.65" height="1.6" style="fill: #6bbea1"/>
          <rect x="43.84" y="98.72" width="26.8" height="0.92" style="fill: #a4d3d3"/>
          <polyline points="43.57 98.38 43.57 99.98 41.96 99.98 41.96 96.96 43.57 98.38" style="fill: #f092b6"/>
          <polygon points="71.07 98.38 71.07 99.98 72.67 99.98 72.67 96.96 71.07 98.38" style="fill: #f092b6"/>
          <g>
            <line x1="41.06" y1="105.72" x2="43.42" y2="101.07" style="fill: none;stroke: #fff;stroke-linecap: round;stroke-linejoin: round;stroke-width: 0.247527121261879px"/>
            <line x1="43.14" y1="105.71" x2="45.2" y2="101.07" style="fill: none;stroke: #fff;stroke-linecap: round;stroke-linejoin: round;stroke-width: 0.247527121261879px"/>
            <line x1="45.22" y1="105.71" x2="46.97" y2="101.07" style="fill: none;stroke: #fff;stroke-linecap: round;stroke-linejoin: round;stroke-width: 0.247527121261879px"/>
            <line x1="47.29" y1="105.7" x2="48.75" y2="101.07" style="fill: none;stroke: #fff;stroke-linecap: round;stroke-linejoin: round;stroke-width: 0.247527121261879px"/>
            <line x1="49.37" y1="105.7" x2="50.53" y2="101.07" style="fill: none;stroke: #fff;stroke-linecap: round;stroke-linejoin: round;stroke-width: 0.247527121261879px"/>
            <line x1="51.45" y1="105.69" x2="52.31" y2="101.07" style="fill: none;stroke: #fff;stroke-linecap: round;stroke-linejoin: round;stroke-width: 0.247527121261879px"/>
            <line x1="53.52" y1="105.69" x2="54.09" y2="101.07" style="fill: none;stroke: #fff;stroke-linecap: round;stroke-linejoin: round;stroke-width: 0.247527121261879px"/>
            <line x1="55.6" y1="105.68" x2="55.87" y2="101.07" style="fill: none;stroke: #fff;stroke-linecap: round;stroke-linejoin: round;stroke-width: 0.247527121261879px"/>
            <line x1="57.68" y1="105.68" x2="57.64" y2="101.07" style="fill: none;stroke: #fff;stroke-linecap: round;stroke-linejoin: round;stroke-width: 0.247527121261879px"/>
            <line x1="59.75" y1="105.67" x2="59.42" y2="101.07" style="fill: none;stroke: #fff;stroke-linecap: round;stroke-linejoin: round;stroke-width: 0.247527121261879px"/>
            <line x1="61.83" y1="105.67" x2="61.2" y2="101.07" style="fill: none;stroke: #fff;stroke-linecap: round;stroke-linejoin: round;stroke-width: 0.247527121261879px"/>
            <line x1="63.91" y1="105.66" x2="62.98" y2="101.07" style="fill: none;stroke: #fff;stroke-linecap: round;stroke-linejoin: round;stroke-width: 0.247527121261879px"/>
            <line x1="65.98" y1="105.66" x2="64.76" y2="101.07" style="fill: none;stroke: #fff;stroke-linecap: round;stroke-linejoin: round;stroke-width: 0.247527121261879px"/>
            <line x1="68.06" y1="105.65" x2="66.54" y2="101.07" style="fill: none;stroke: #fff;stroke-linecap: round;stroke-linejoin: round;stroke-width: 0.247527121261879px"/>
            <line x1="70.14" y1="105.65" x2="68.31" y2="101.07" style="fill: none;stroke: #fff;stroke-linecap: round;stroke-linejoin: round;stroke-width: 0.247527121261879px"/>
            <line x1="72.22" y1="105.64" x2="70.09" y2="101.07" style="fill: none;stroke: #fff;stroke-linecap: round;stroke-linejoin: round;stroke-width: 0.247527121261879px"/>
            <line x1="74.29" y1="105.64" x2="71.87" y2="101.07" style="fill: none;stroke: #fff;stroke-linecap: round;stroke-linejoin: round;stroke-width: 0.247527121261879px"/>
          </g>
          <polygon points="60.98 117.33 59.73 117.33 59.73 109.96 55.08 109.96 55.08 117.33 53.8 117.33 53.72 107.64 60.9 107.64 60.98 117.33" style="fill: #e95288"/>
          <rect x="55.51" y="110.31" width="3.66" height="6.81" style="fill: #e7326e"/>
          <rect x="61.03" y="111.48" width="1.56" height="4.39" style="fill: #6bbea1"/>
          <rect x="52.19" y="111.48" width="1.52" height="4.39" style="fill: #6bbea1"/>
          <g>
            <path d="M55.69,108.16s0,0-.08.07a.72.72,0,0,1-.23,0c0,.06-.07.08-.1.08h0l0,0-.21,0a.53.53,0,0,0,0,.11l.07,0a.18.18,0,0,1,.07-.09.2.2,0,0,1,.08,0,.08.08,0,0,1,.09.06.18.18,0,0,1-.08.09l-.06,0h0l.09,0,.07,0a.06.06,0,0,1,0,.06.34.34,0,0,1-.07.16l-.12.07a.11.11,0,0,1,0,0,.2.2,0,0,1,.1,0h0l0,0a.14.14,0,0,1,0,.06l-.12,0a.32.32,0,0,0,0,.14.09.09,0,0,1-.06.08s0,0,0,0,0,0,0,0v-.17l-.14,0c-.05,0-.08,0-.08-.07s0,0,.1,0l.11,0a.07.07,0,0,0,0,0,.13.13,0,0,1-.08,0,.09.09,0,0,1-.06,0l0,0a2.85,2.85,0,0,0-.17.35s0,0,0,0,0,0,0,0,0-.16.07-.28.07-.25.1-.36a1,1,0,0,1,.07-.2l.05-.07s0-.05,0-.09a.17.17,0,0,1,.13,0h.1a.07.07,0,0,1,0-.09.15.15,0,0,1,.14.07h.3A.05.05,0,0,1,55.69,108.16Zm-.71.46v0a.05.05,0,0,1,0,0l0,.07h0Zm.17,0-.23.1a.21.21,0,0,0,0,.1.46.46,0,0,0,.14,0A.23.23,0,0,0,55.15,108.65Zm0,.11-.08,0h0s0,0,0,0,0,0,0,0a.13.13,0,0,1,.12,0s0,0,0,0A0,0,0,0,1,55.12,108.76Zm.66.41h0a.19.19,0,0,1-.17.13s0,0-.06,0,0,0,0,0,0,0,0,0a.11.11,0,0,0,0,0s0,0,0,0,0,0,0,0a.13.13,0,0,0,0-.08V109a.62.62,0,0,0-.19,0l-.07.22s0,0,0,0l0,0s0,0,0,0,0-.22.07-.5h0l0-.32s0,0,0,0l0,0a.29.29,0,0,1,.16,0s0,0,.06,0,0,0,.08.06a.14.14,0,0,1,0,.12c0,.15,0,.3,0,.45a.86.86,0,0,1,0,.15Zm-.19-.33v-.14a.19.19,0,0,1-.15,0l0,.11.11,0Zm0-.27h0v-.12a0,0,0,0,0-.06,0l-.08,0v.09h0A.29.29,0,0,0,55.59,108.57Z" style="fill: #f5f1e8"/>
            <path d="M57.29,108.53s0,0-.11,0l-.41.06s0,.1-.11.17l.16,0a.08.08,0,0,1,.06,0,.13.13,0,0,1,.09,0H57a.21.21,0,0,1,0,.13.35.35,0,0,1,0,.13.63.63,0,0,1-.07.12.11.11,0,0,1,0,.07s0,0,0,0a.12.12,0,0,1-.09,0h-.07a.79.79,0,0,0-.26,0l-.08,0a.66.66,0,0,1-.1-.17.57.57,0,0,1-.06-.21.08.08,0,0,1,0-.06.09.09,0,0,1,.07,0h0a.49.49,0,0,0,.09-.18l-.15.06h-.06a.28.28,0,0,1-.14-.06s-.07,0-.08-.07a.13.13,0,0,1,.08-.13l.38,0v-.21a.1.1,0,0,1,.1-.07h0l.08.07a.19.19,0,0,1,0,.07.23.23,0,0,1,0,.12l.22,0h.08a.08.08,0,0,1,.06,0A.27.27,0,0,1,57.29,108.53Zm-.45.42-.13,0a.53.53,0,0,0-.15,0,.28.28,0,0,1,0,.12.86.86,0,0,1,.17,0A.36.36,0,0,0,56.84,109Z" style="fill: #f5f1e8"/>
            <path d="M58.46,108.2s0,0,0,0a.07.07,0,0,1,0,0,2.77,2.77,0,0,1-.41.12.05.05,0,0,0,0,0l0,.07,0,.08,0,.09a.17.17,0,0,0,0,.07.37.37,0,0,0,0,.11s0,0,0,.05l-.14.28a.13.13,0,0,1-.09.1s0,0,0,0,0,0,0,0a.46.46,0,0,1,0-.14l.12-.27a2.65,2.65,0,0,1,.11-.27l0-.09a.2.2,0,0,1,0-.05,1,1,0,0,1,.07-.16s0-.07.08-.07a.36.36,0,0,0,.14,0l.18,0a.2.2,0,0,1,.1,0Zm0,.64.06,0,.06,0a.09.09,0,0,1,0,.07s0,0,0,0a1.87,1.87,0,0,1-.08.21.06.06,0,0,1,0,.06.13.13,0,0,1,0,.07.06.06,0,0,1-.06,0h-.07l-.27,0h0a.07.07,0,0,1-.06,0l-.1-.2a.39.39,0,0,1,0-.13.12.12,0,0,1,0-.09.07.07,0,0,1,.06,0h0A3,3,0,0,1,58.47,108.84Zm.1-.27h0a.11.11,0,0,1,0,.05s0,.06-.09.07l-.25.06-.15,0H58s0,0,0,0a.19.19,0,0,1,0-.08l.07,0,.12,0h.1l.11,0,.07,0,.07,0Zm-.17.45-.14,0a.34.34,0,0,0-.14,0l0,.09h.15A.24.24,0,0,0,58.4,109Z" style="fill: #f5f1e8"/>
            <path d="M60.3,109.32h0s0,0,0,0,0,0,0,0h-.07a.11.11,0,0,1-.08,0s0,0-.08,0a1.1,1.1,0,0,1-.38-.24,1.14,1.14,0,0,1-.15-.23h0a.49.49,0,0,1-.11.18.67.67,0,0,1-.2.16l-.14.09h0a0,0,0,0,1,0,0,0,0,0,0,1,0,0,1,1,0,0,1,.18-.19,1,1,0,0,0,.15-.2h-.07l-.05,0-.08-.09s0,0,0,0a.08.08,0,0,1,0,0,.28.28,0,0,1,.1,0l.19-.06a.42.42,0,0,0,0-.17.06.06,0,0,1,0,0,.14.14,0,0,1-.09,0,.23.23,0,0,1-.07-.08.17.17,0,0,1,0-.05s0,0,.09,0a1.58,1.58,0,0,0,.34-.07h.08l.09,0a.08.08,0,0,1,0,.06s0,0,0,.07l0,0-.17.06s0,.09,0,.14a.49.49,0,0,0,.14,0h0s0,0,0,0l.08.05a.11.11,0,0,1,0,.08s0,0,0,0l-.24.07a1.07,1.07,0,0,0,.26.26l.23.18C60.25,109.28,60.29,109.3,60.3,109.32Z" style="fill: #f5f1e8"/>
          </g>
          <polygon points="43.52 105.64 41.98 105.64 41.98 115.53 43.52 114.48 43.52 105.64" style="fill: #e7326e"/>
          <g>
            <rect x="72.93" y="105.71" width="2.72" height="12.19" style="fill: #e95288"/>
            <path d="M75.57,105.79v12H73v-12h2.56m.16-.15H72.85V118h2.88V105.64Z" style="fill: #f5f1e8"/>
          </g>
          <g>
            <line x1="42.02" y1="111.54" x2="50.59" y2="111.54" style="fill: none;stroke: #f5f1e8;stroke-linecap: round;stroke-linejoin: round;stroke-width: 0.263722126756881px"/>
            <g>
              <line x1="42.36" y1="110.52" x2="42.36" y2="115.57" style="fill: none;stroke: #f5f1e8;stroke-linecap: round;stroke-linejoin: round;stroke-width: 0.158233276054129px"/>
              <line x1="42.92" y1="110.52" x2="42.92" y2="115.57" style="fill: none;stroke: #f5f1e8;stroke-linecap: round;stroke-linejoin: round;stroke-width: 0.158233276054129px"/>
              <line x1="43.49" y1="110.52" x2="43.49" y2="115.57" style="fill: none;stroke: #f5f1e8;stroke-linecap: round;stroke-linejoin: round;stroke-width: 0.158233276054129px"/>
              <line x1="44.05" y1="110.52" x2="44.05" y2="115.57" style="fill: none;stroke: #f5f1e8;stroke-linecap: round;stroke-linejoin: round;stroke-width: 0.158233276054129px"/>
              <line x1="44.61" y1="110.52" x2="44.61" y2="115.57" style="fill: none;stroke: #f5f1e8;stroke-linecap: round;stroke-linejoin: round;stroke-width: 0.158233276054129px"/>
              <line x1="45.17" y1="110.52" x2="45.17" y2="115.57" style="fill: none;stroke: #f5f1e8;stroke-linecap: round;stroke-linejoin: round;stroke-width: 0.158233276054129px"/>
              <line x1="45.73" y1="110.52" x2="45.73" y2="115.57" style="fill: none;stroke: #f5f1e8;stroke-linecap: round;stroke-linejoin: round;stroke-width: 0.158233276054129px"/>
              <line x1="46.29" y1="110.52" x2="46.29" y2="115.57" style="fill: none;stroke: #f5f1e8;stroke-linecap: round;stroke-linejoin: round;stroke-width: 0.158233276054129px"/>
              <line x1="46.85" y1="110.52" x2="46.85" y2="115.57" style="fill: none;stroke: #f5f1e8;stroke-linecap: round;stroke-linejoin: round;stroke-width: 0.158233276054129px"/>
              <line x1="47.41" y1="110.52" x2="47.41" y2="115.57" style="fill: none;stroke: #f5f1e8;stroke-linecap: round;stroke-linejoin: round;stroke-width: 0.158233276054129px"/>
              <line x1="47.98" y1="110.52" x2="47.98" y2="115.57" style="fill: none;stroke: #f5f1e8;stroke-linecap: round;stroke-linejoin: round;stroke-width: 0.158233276054129px"/>
              <line x1="48.54" y1="110.52" x2="48.54" y2="115.57" style="fill: none;stroke: #f5f1e8;stroke-linecap: round;stroke-linejoin: round;stroke-width: 0.158233276054129px"/>
              <line x1="49.1" y1="110.52" x2="49.1" y2="115.57" style="fill: none;stroke: #f5f1e8;stroke-linecap: round;stroke-linejoin: round;stroke-width: 0.158233276054129px"/>
              <line x1="49.66" y1="110.52" x2="49.66" y2="115.57" style="fill: none;stroke: #f5f1e8;stroke-linecap: round;stroke-linejoin: round;stroke-width: 0.158233276054129px"/>
              <line x1="50.22" y1="110.52" x2="50.22" y2="115.57" style="fill: none;stroke: #f5f1e8;stroke-linecap: round;stroke-linejoin: round;stroke-width: 0.158233276054129px"/>
            </g>
          </g>
          <g>
            <path d="M49.27,109.37c-.29,0-.53-.16-.53-.36s-.23-.37-.51-.37h-4c-.28,0-.51.16-.51.36s-.23.36-.53.36l-1.1,0v-.76l.56,0a1.73,1.73,0,0,1,.16-.38.85.85,0,0,1,.75-.35h5.37a.85.85,0,0,1,.75.36,1,1,0,0,1,.13.36l.76,0,0,.73Z" style="fill: #f5f1e8"/>
            <path d="M48.91,107.94a.83.83,0,0,1,.73.34.85.85,0,0,1,.12.35v.05h.73l0,.67H49.27c-.27,0-.5-.16-.5-.34h0c0-.22-.24-.39-.54-.39h-4c-.29,0-.53.17-.53.39s-.23.33-.51.34H42.12l0-.67h.58v0a.85.85,0,0,1,.12-.35.82.82,0,0,1,.73-.34h5.37m0-.06H43.54a.9.9,0,0,0-.78.37,1.15,1.15,0,0,0-.13.37h-.58l0,.78,1.1,0c.31,0,.56-.18.56-.39h0c0-.19.22-.33.48-.33h4c.27,0,.48.14.49.33h0c0,.21.24.39.55.39l1.26,0,0-.79h-.74a.81.81,0,0,0-.13-.37.88.88,0,0,0-.77-.37Z" style="fill: #a4d3d3"/>
          </g>
          <g>
            <polygon points="50.54 115.85 50.57 105.64 52.09 105.66 52.06 115.85 50.54 115.85" style="fill: #f5f1e8"/>
            <path d="M52,105.69v10.13H50.59V105.69H52m.06,0H50.54v10.23h1.55V105.64Z" style="fill: #a4d3d3"/>
          </g>
          <rect x="52.08" y="105.64" width="0.64" height="10.24" style="fill: #e95288"/>
          <rect x="64.15" y="105.64" width="0.64" height="10.24" style="fill: #e95288"/>
          <g>
            <polygon points="50.22 116.66 50.25 115.87 52.41 115.9 52.38 116.66 50.22 116.66" style="fill: #f5f1e8"/>
            <path d="M52.35,115.93v.7H50.27v-.7h2.08m.06-.06H50.22v.82h2.19v-.82Z" style="fill: #a4d3d3"/>
          </g>
          <rect x="52.41" y="115.87" width="0.54" height="0.81" style="fill: #e95288"/>
          <g>
            <polygon points="50.22 118.61 50.25 116.69 52.41 116.71 52.38 118.61 50.22 118.61" style="fill: #f5f1e8"/>
            <path d="M52.35,116.74v1.84H50.27v-1.84h2.08m.06,0H50.22v2h2.19v-2Z" style="fill: #a4d3d3"/>
          </g>
          <g>
            <polygon points="42.02 117.95 42.05 117.33 50.22 117.36 50.19 117.95 42.02 117.95" style="fill: #f5f1e8"/>
            <path d="M50.16,117.39v.53H42.08v-.53h8.08m.06-.06H42V118h8.2v-.65Z" style="fill: #a4d3d3"/>
          </g>
          <g>
            <polygon points="64.47 117.95 64.5 117.33 72.85 117.36 72.83 117.95 64.47 117.95" style="fill: #f5f1e8"/>
            <path d="M72.79,117.39v.53H64.53v-.53h8.26m.06-.06H64.47V118h8.38v-.65Z" style="fill: #a4d3d3"/>
          </g>
          <g>
            <g>
              <path d="M71.5,109.36c-.29,0-.53-.16-.53-.36s-.23-.36-.51-.36h-4c-.28,0-.51.16-.51.36s-.24.37-.53.37l-1.23,0,0-.76.71,0a1.42,1.42,0,0,1,.15-.38.87.87,0,0,1,.76-.36h5.37a.88.88,0,0,1,.75.35,1,1,0,0,1,.12.36l.62,0,0,.76Z" style="fill: #f5f1e8"/>
              <path d="M71.14,107.94a.83.83,0,0,1,.73.34,1.3,1.3,0,0,1,.12.35v0h.57l0,.67h-1c-.28,0-.5-.16-.5-.34s-.24-.39-.54-.39h-4c-.3,0-.53.17-.53.39h0c0,.18-.23.33-.51.34H64.19v-.67h.73v-.05a1.11,1.11,0,0,1,.13-.35.81.81,0,0,1,.73-.34h5.37m0-.06H65.77a.9.9,0,0,0-.78.37,1.15,1.15,0,0,0-.13.37h-.74l0,.79,1.26,0c.31,0,.56-.18.56-.39h0c0-.19.22-.33.48-.33h4c.27,0,.48.14.48.33h0c0,.21.25.39.56.39l1.1,0,0-.78H72a1,1,0,0,0-.13-.37.89.89,0,0,0-.77-.37Z" style="fill: #a4d3d3"/>
            </g>
            <g>
              <polygon points="62.59 115.85 62.61 105.64 64.13 105.66 64.11 115.85 62.59 115.85" style="fill: #f5f1e8"/>
              <path d="M64.08,105.69v10.13H62.64V105.69h1.44m0,0H62.59v10.23h1.54V105.64Z" style="fill: #a4d3d3"/>
            </g>
            <g>
              <polygon points="62.27 116.66 62.29 115.87 64.45 115.9 64.43 116.66 62.27 116.66" style="fill: #f5f1e8"/>
              <path d="M64.4,115.93v.7H62.32v-.7H64.4m0-.06H62.27v.82h2.18v-.82Z" style="fill: #a4d3d3"/>
            </g>
            <g>
              <polygon points="62.27 118.61 62.29 116.69 64.45 116.71 64.43 118.61 62.27 118.61" style="fill: #f5f1e8"/>
              <path d="M64.4,116.74v1.84H62.32v-1.84H64.4m0,0H62.27v2h2.18v-2Z" style="fill: #a4d3d3"/>
            </g>
          </g>
          <rect x="56.37" y="97.18" width="1.76" height="1.22" rx="0.42" style="fill: #6bbea1"/>
          <ellipse cx="57.25" cy="96.72" rx="0.4" ry="0.46" style="fill: #6bbea1"/>
          <line x1="39.14" y1="105.03" x2="41.96" y2="99.98" style="fill: none;stroke: #f092b6;stroke-linecap: round;stroke-linejoin: round;stroke-width: 1.21312178308165px"/>
          <path d="M39,103l.37,1.65-.69-.18,2.82-5.05,0,.15L42,97l.19,2.7a.16.16,0,0,1,0,.12l0,0-2.82,5.05,0,.07a.36.36,0,0,1-.66-.25Z" style="fill: #6bbea1"/>
          <line x1="43.1" y1="100.84" x2="71.56" y2="100.84" style="fill: none;stroke: #f092b6;stroke-linecap: round;stroke-linejoin: round;stroke-width: 0.247527121261879px"/>
          <path d="M53.64,97.6c0,.13-.12.22-.11.37a.42.42,0,0,0,.16.32c.22.16.45,0,.61-.17a7.54,7.54,0,0,1,.55-.58,1.1,1.1,0,0,1,.6-.24.7.7,0,0,1,.67.44.37.37,0,0,1-.24.54" style="fill: none;stroke: #6bbea1;stroke-linecap: round;stroke-linejoin: round;stroke-width: 0.369210977459634px"/>
          <path d="M46.05,97.6c0,.13.12.22.11.37a.44.44,0,0,1-.15.32c-.23.16-.46,0-.62-.17a5,5,0,0,0-.55-.58,1.1,1.1,0,0,0-.6-.24.71.71,0,0,0-.67.44.37.37,0,0,0,.24.54" style="fill: none;stroke: #6bbea1;stroke-linecap: round;stroke-linejoin: round;stroke-width: 0.369210977459634px"/>
          <path d="M68.46,97.6c0,.13-.11.22-.1.37a.41.41,0,0,0,.15.32c.22.16.46,0,.62-.17a5.89,5.89,0,0,1,.54-.58,1.16,1.16,0,0,1,.6-.24.71.71,0,0,1,.68.44.37.37,0,0,1-.24.54" style="fill: none;stroke: #6bbea1;stroke-linecap: round;stroke-linejoin: round;stroke-width: 0.369210977459634px"/>
          <path d="M60.87,97.6c0,.13.12.22.11.37a.44.44,0,0,1-.15.32c-.22.16-.46,0-.62-.17a5,5,0,0,0-.55-.58,1.1,1.1,0,0,0-.6-.24.71.71,0,0,0-.67.44.37.37,0,0,0,.24.54" style="fill: none;stroke: #6bbea1;stroke-linecap: round;stroke-linejoin: round;stroke-width: 0.369210977459634px"/>
          <polygon points="72.67 96.96 77.23 91.33 75.63 92.74 71.07 98.38 72.67 96.96" style="fill: #a4d3d3"/>
          <g>
            <polygon points="72.77 96.96 77.13 91.59 77.13 94.34 72.77 99.71 72.77 96.96" style="fill: #f5f1e8"/>
            <path d="M77,91.86v2.41l-4.18,5.17V97L77,91.86m.19-.53L72.67,97v3l4.56-5.64v-3Z" style="fill: #f092b6"/>
          </g>
          <polygon points="72.67 99.98 72.67 101.17 77.23 95.53 77.23 94.34 72.67 99.98" style="fill: #e7326e"/>
          <polygon points="75.73 105.64 80.29 100 77.23 95.53 72.67 101.17 75.73 105.64" style="fill: #e7326e"/>
          <polygon points="80.29 100 80.29 112.34 75.73 117.98 75.73 105.64 80.29 100" style="fill: #a4d3d3"/>
          <line x1="72.74" y1="100.14" x2="75.56" y2="105.19" style="fill: none;stroke: #f092b6;stroke-linecap: round;stroke-linejoin: round;stroke-width: 1.21312178308165px"/>
          <line x1="41.96" y1="96.96" x2="43.57" y2="98.37" style="fill: #f092b6"/>
          <g>
            <rect x="39.22" y="105.71" width="2.72" height="12.19" style="fill: #e95288"/>
            <path d="M41.86,105.79v12H39.3v-12h2.56m.16-.15H39.14V118H42V105.64Z" style="fill: #a4d3d3"/>
          </g>
          <g>
            <line x1="73.85" y1="99.72" x2="76.77" y2="104.4" style="fill: none;stroke: #fff;stroke-linecap: round;stroke-linejoin: round;stroke-width: 0.247527121261879px"/>
            <line x1="74.97" y1="98.33" x2="77.94" y2="102.94" style="fill: none;stroke: #fff;stroke-linecap: round;stroke-linejoin: round;stroke-width: 0.247527121261879px"/>
            <line x1="76.1" y1="96.93" x2="79.11" y2="101.47" style="fill: none;stroke: #fff;stroke-linecap: round;stroke-linejoin: round;stroke-width: 0.247527121261879px"/>
            <line x1="77.23" y1="95.53" x2="80.29" y2="100" style="fill: none;stroke: #fff;stroke-linecap: round;stroke-linejoin: round;stroke-width: 0.247527121261879px"/>
          </g>
          <line x1="52.06" y1="111.47" x2="62.53" y2="111.47" style="fill: none;stroke: #f5f1e8;stroke-linecap: round;stroke-linejoin: round;stroke-width: 0.263722126756881px"/>
          <line x1="52.46" y1="110.96" x2="52.46" y2="116.72" style="fill: none;stroke: #f5f1e8;stroke-linecap: round;stroke-linejoin: round;stroke-width: 0.165521853777722px"/>
          <line x1="53.22" y1="110.96" x2="53.22" y2="116.72" style="fill: none;stroke: #f5f1e8;stroke-linecap: round;stroke-linejoin: round;stroke-width: 0.165521853777722px"/>
          <line x1="54.02" y1="110.96" x2="54.02" y2="117.33" style="fill: none;stroke: #f5f1e8;stroke-linecap: round;stroke-linejoin: round;stroke-width: 0.165521853777722px"/>
          <line x1="54.77" y1="110.96" x2="54.77" y2="117.11" style="fill: none;stroke: #f5f1e8;stroke-linecap: round;stroke-linejoin: round;stroke-width: 0.165521853777722px"/>
          <line x1="62.03" y1="110.96" x2="62.03" y2="116.72" style="fill: none;stroke: #f5f1e8;stroke-linecap: round;stroke-linejoin: round;stroke-width: 0.165521853777722px"/>
          <line x1="61.33" y1="110.96" x2="61.33" y2="116.72" style="fill: none;stroke: #f5f1e8;stroke-linecap: round;stroke-linejoin: round;stroke-width: 0.165521853777722px"/>
          <line x1="60.52" y1="110.96" x2="60.52" y2="117.33" style="fill: none;stroke: #f5f1e8;stroke-linecap: round;stroke-linejoin: round;stroke-width: 0.165521853777722px"/>
          <line x1="59.78" y1="110.96" x2="59.78" y2="117.11" style="fill: none;stroke: #f5f1e8;stroke-linecap: round;stroke-linejoin: round;stroke-width: 0.165521853777722px"/>
          <line x1="77.23" y1="95.53" x2="80.29" y2="100" style="fill: none;stroke: #f092b6;stroke-linecap: round;stroke-linejoin: round;stroke-width: 1.21312178308165px"/>
          <g>
            <line x1="54.48" y1="107.13" x2="56.98" y2="107.13" style="fill: none;stroke: #f5f1e8;stroke-linecap: round;stroke-linejoin: round;stroke-width: 0.263722126756881px"/>
            <line x1="57.73" y1="107.13" x2="60.22" y2="107.13" style="fill: none;stroke: #f5f1e8;stroke-linecap: round;stroke-linejoin: round;stroke-width: 0.263722126756881px"/>
          </g>
          <path d="M72.58,97,73,99.18,72.89,99l3.63,5.88-.68.21.31-2.28.43,2.26a.35.35,0,0,1-.29.41.34.34,0,0,1-.36-.16l0,0-3.62-5.89,0,0a.21.21,0,0,1,0-.15Z" style="fill: #6bbea1"/>
          <polygon points="60.11 119.3 60.81 118.64 60.81 117.63 60.46 117.95 60.46 118.45 60.11 118.8 60.11 119.3" style="fill: #a4d3d3"/>
          <polygon points="55.51 117.13 59.17 112.48 59.17 117.13 55.51 117.13" style="fill: #a4d3d3"/>
          <g>
            <polygon points="60.81 118.61 60.84 116.69 62.27 116.71 62.24 118.61 60.81 118.61" style="fill: #f5f1e8"/>
            <path d="M62.21,116.74v1.84H60.86v-1.84h1.35m.06,0H60.81v2h1.46v-2Z" style="fill: #a4d3d3"/>
          </g>
          <g>
            <polygon points="52.35 118.61 52.37 116.69 53.8 116.71 53.78 118.61 52.35 118.61" style="fill: #f5f1e8"/>
            <path d="M53.75,116.74v1.84H52.4v-1.84h1.35m0,0H52.35v2H53.8v-2Z" style="fill: #a4d3d3"/>
          </g>
          <g>
            <polygon points="53.1 119.28 53.12 118.8 60.11 118.81 60.1 119.28 53.1 119.28" style="fill: #f5f1e8"/>
            <path d="M60.08,118.83v.43H53.14v-.43h6.94m0,0h-7v.51h7v-.51Z" style="fill: #a4d3d3"/>
          </g>
          <g>
            <polygon points="53.45 118.44 53.47 117.95 60.46 117.97 60.44 118.44 53.45 118.44" style="fill: #f5f1e8"/>
            <path d="M60.42,118v.44H53.48V118h6.94m0,0h-7v.5h7V118Z" style="fill: #a4d3d3"/>
          </g>
          <g>
            <polygon points="53.8 117.61 53.82 117.13 60.81 117.14 60.79 117.61 53.8 117.61" style="fill: #f5f1e8"/>
            <path d="M60.78,117.16v.44H53.84v-.44h6.94m0,0h-7v.5h7v-.5Z" style="fill: #a4d3d3"/>
          </g>
          <polygon points="53.07 118.8 53.45 118.45 60.46 118.45 60.11 118.8 53.07 118.8" style="fill: #f092b6"/>
          <polygon points="53.8 117.63 53.45 117.95 60.46 117.95 60.81 117.63 53.8 117.63" style="fill: #f092b6"/>
          <g>
            <line x1="64.29" y1="111.54" x2="72.85" y2="111.54" style="fill: none;stroke: #f5f1e8;stroke-linecap: round;stroke-linejoin: round;stroke-width: 0.263722126756881px"/>
            <g>
              <line x1="64.63" y1="110.52" x2="64.63" y2="115.57" style="fill: none;stroke: #f5f1e8;stroke-linecap: round;stroke-linejoin: round;stroke-width: 0.158233276054129px"/>
              <line x1="65.19" y1="110.52" x2="65.19" y2="115.57" style="fill: none;stroke: #f5f1e8;stroke-linecap: round;stroke-linejoin: round;stroke-width: 0.158233276054129px"/>
              <line x1="65.75" y1="110.52" x2="65.75" y2="115.57" style="fill: none;stroke: #f5f1e8;stroke-linecap: round;stroke-linejoin: round;stroke-width: 0.158233276054129px"/>
              <line x1="66.31" y1="110.52" x2="66.31" y2="115.57" style="fill: none;stroke: #f5f1e8;stroke-linecap: round;stroke-linejoin: round;stroke-width: 0.158233276054129px"/>
              <line x1="66.87" y1="110.52" x2="66.87" y2="115.57" style="fill: none;stroke: #f5f1e8;stroke-linecap: round;stroke-linejoin: round;stroke-width: 0.158233276054129px"/>
              <line x1="67.44" y1="110.52" x2="67.44" y2="115.57" style="fill: none;stroke: #f5f1e8;stroke-linecap: round;stroke-linejoin: round;stroke-width: 0.158233276054129px"/>
              <line x1="68" y1="110.52" x2="68" y2="115.57" style="fill: none;stroke: #f5f1e8;stroke-linecap: round;stroke-linejoin: round;stroke-width: 0.158233276054129px"/>
              <line x1="68.56" y1="110.52" x2="68.56" y2="115.57" style="fill: none;stroke: #f5f1e8;stroke-linecap: round;stroke-linejoin: round;stroke-width: 0.158233276054129px"/>
              <line x1="69.12" y1="110.52" x2="69.12" y2="115.57" style="fill: none;stroke: #f5f1e8;stroke-linecap: round;stroke-linejoin: round;stroke-width: 0.158233276054129px"/>
              <line x1="69.68" y1="110.52" x2="69.68" y2="115.57" style="fill: none;stroke: #f5f1e8;stroke-linecap: round;stroke-linejoin: round;stroke-width: 0.158233276054129px"/>
              <line x1="70.24" y1="110.52" x2="70.24" y2="115.57" style="fill: none;stroke: #f5f1e8;stroke-linecap: round;stroke-linejoin: round;stroke-width: 0.158233276054129px"/>
              <line x1="70.8" y1="110.52" x2="70.8" y2="115.57" style="fill: none;stroke: #f5f1e8;stroke-linecap: round;stroke-linejoin: round;stroke-width: 0.158233276054129px"/>
              <line x1="71.36" y1="110.52" x2="71.36" y2="115.57" style="fill: none;stroke: #f5f1e8;stroke-linecap: round;stroke-linejoin: round;stroke-width: 0.158233276054129px"/>
              <line x1="71.93" y1="110.52" x2="71.93" y2="115.57" style="fill: none;stroke: #f5f1e8;stroke-linecap: round;stroke-linejoin: round;stroke-width: 0.158233276054129px"/>
              <line x1="72.49" y1="110.52" x2="72.49" y2="115.57" style="fill: none;stroke: #f5f1e8;stroke-linecap: round;stroke-linejoin: round;stroke-width: 0.158233276054129px"/>
            </g>
          </g>
          <polyline points="64.45 118.64 65.09 117.98 65.09 115.87 64.45 115.87" style="fill: #e95288"/>
        </g>
      </g>
    </g>
  </g>
</svg>
