<svg xmlns="http://www.w3.org/2000/svg" width="97.73" height="128.18" viewBox="0 0 97.73 128.18">
  <g id="Layer_2" data-name="Layer 2">
    <g id="Icon">
      <g>
        <g>
          <path d="M67.2,9.23a8.64,8.64,0,0,0-3.75-3L64.55,5a12.53,12.53,0,0,1,3.86,3Zm-3.67,9.11a17.45,17.45,0,0,0,4.23-8.11l1.45.69a18.54,18.54,0,0,1-4.4,8.5ZM68.82,4.68A7.69,7.69,0,0,0,65.15,1.9L66.23.63A9.71,9.71,0,0,1,69.9,3.39ZM79.93,19.44l0-1.86-8.59,0,0,1.89-1.64,0V5.16h5V0h1.67V5.16h5.13V19.44Zm-8.61-9h3.43V6.71l-3.43,0ZM74.75,16V12H71.32v4Zm1.64-9.3V10.4h3.52V6.71ZM79.91,12H76.39v4h3.52Z" style="fill: #65181a"/>
          <path d="M81.16,42.82c-4-1.29-6.62-3.26-8.22-6.45-1.38,3.54-4.81,5.52-8.67,6.56l-1-1.51c3.93-.65,7.08-3,8-5.33H64.29v-1.6h7.46l.39-1.85,1.56.41-.26,1.44h7.64l0,1.6H74.62c.87,2,3.69,4.31,7.58,5.28ZM63.6,30.24a10.85,10.85,0,0,0,5.52-4.55l1.3.93a13.48,13.48,0,0,1-5.7,4.92Zm10.31.58a1.5,1.5,0,0,1-1.25,1.62,13.33,13.33,0,0,1-2.44.11l-.9-1.7a13.75,13.75,0,0,0,2.22.08c.47,0,.67-.21.67-.62V23.64h1.7Zm6.52.63a11.7,11.7,0,0,0-5.35-4.64l1.25-1.1a13.11,13.11,0,0,1,5.39,4.66Z" style="fill: #65181a"/>
          <path d="M64.59,48.72h6.06V63.09H69.06V61.41l-2.81,0v1.68H64.59ZM69,50.3H66.25v3.84l2.81,0Zm0,5.39c-.91,0-1.94,0-2.81,0v4.1h2.81ZM71,49.78V48.21l10.72,0,0,1.6H77.3v6h3.8v1.59H77.3v6.28h5.29l0,1.6-12.43,0V63.63h5.39V57.35h-4V55.76l4,0v-6Z" style="fill: #65181a"/>
          <path d="M82.24,89.08H67c-1.14,0-1.66-1-1.66-2V73.4l-1.36,0v-1.6l18.19,0v1.6H66.94l0,13.25c0,.6.22.84.89.84H82.24Zm-8.28-3H67.85v-6l6.11,0Zm-4.49-4.41v2.83l2.85,0,0-2.87ZM79.33,79l-9.71,0,0-4.81h9.69ZM71.26,77.5h6.43V75.62H71.26Zm10,2.61V86H75.06V80.11Zm-1.62,1.55-2.91,0v2.77l2.89,0Z" style="fill: #65181a"/>
        </g>
        <g>
          <path d="M44.15,30.69V27.32l-2.56-4.71h1.69l1,2.07c.28.6.48,1.06.71,1.61h0c.2-.52.42-1,.7-1.61l1-2.07h1.67l-2.69,4.67v3.41Z" style="fill: #65181a"/>
          <path d="M52.69,29.29a7.17,7.17,0,0,0,.1,1.4H51.45l-.1-.65h0a2.13,2.13,0,0,1-1.73.78,1.73,1.73,0,0,1-1.83-1.74c0-1.46,1.31-2.22,3.46-2.2v-.1c0-.38-.15-1-1.18-1a3.08,3.08,0,0,0-1.57.43l-.29-1a4.25,4.25,0,0,1,2.11-.51,2.19,2.19,0,0,1,2.41,2.47Zm-1.44-1.45c-1,0-2,.2-2,1.09a.78.78,0,0,0,.84.84A1.21,1.21,0,0,0,51.21,29a.85.85,0,0,0,0-.32Z" style="fill: #65181a"/>
          <path d="M59.48,28.94c0,.69,0,1.27.05,1.75H58.25l-.08-.88h0a2.14,2.14,0,0,1-1.89,1c-1,0-2-.63-2-2.54V24.85H55.7V28c0,1,.32,1.59,1.09,1.59a1.19,1.19,0,0,0,1.13-.79,1.06,1.06,0,0,0,.09-.45V24.85h1.47Z" style="fill: #65181a"/>
          <path d="M38.89,35.84h-2.3V34.61h6.1v1.23H40.37v6.85H38.89Z" style="fill: #65181a"/>
          <path d="M42.77,41.32a3.11,3.11,0,0,0,1.48.43c.65,0,.94-.27.94-.65s-.24-.59-1-.86c-1.14-.38-1.61-1-1.61-1.7,0-1,.86-1.82,2.21-1.82a3.27,3.27,0,0,1,1.56.35l-.3,1a2.52,2.52,0,0,0-1.24-.34c-.52,0-.81.26-.81.62s.28.54,1,.82c1.07.37,1.55.91,1.56,1.78,0,1.06-.83,1.83-2.38,1.83a3.76,3.76,0,0,1-1.77-.41Z" style="fill: #65181a"/>
          <path d="M48.56,36a.8.8,0,1,1,.84-.79.78.78,0,0,1-.84.79Zm-.73,6.68V36.85h1.48v5.84Z" style="fill: #65181a"/>
          <path d="M50.9,38.59c0-.67,0-1.24,0-1.74h1.25l.08.86h0a2,2,0,0,1,1.8-1,1.68,1.68,0,0,1,1.62,1.08h0a2.26,2.26,0,0,1,.71-.73,2,2,0,0,1,1.2-.35c1,0,1.94.66,1.94,2.53v3.44H58.08V39.46c0-1-.34-1.54-1-1.54a1.13,1.13,0,0,0-1,.78,1.49,1.49,0,0,0-.07.49v3.5H54.49V39.31c0-.82-.32-1.39-1-1.39a1.2,1.2,0,0,0-1.07.82,2.08,2.08,0,0,0-.07.5v3.45H50.9Z" style="fill: #65181a"/>
          <path d="M37.47,51.39c0-1-.11-2.29-.09-3.39h0c-.26,1-.6,2.07-1,3.09l-1.19,3.5H34.07L33,51.14c-.32-1-.6-2.13-.82-3.14h0c0,1-.09,2.34-.15,3.44l-.18,3.25H30.44L31,46.61h1.95l1,3.25c.29.94.54,1.9.75,2.8h0c.22-.87.49-1.87.81-2.81l1.11-3.24H38.6l.47,8.08H37.63Z" style="fill: #65181a"/>
          <path d="M43.13,54.82a2.82,2.82,0,0,1-2.93-3,2.88,2.88,0,0,1,3-3.09,2.81,2.81,0,0,1,2.91,3,2.89,2.89,0,0,1-3,3.1Zm0-1.07c.84,0,1.43-.81,1.43-2,0-.91-.41-2-1.41-2s-1.47,1-1.47,2,.57,2,1.44,2Z" style="fill: #65181a"/>
          <path d="M47.34,50.59c0-.67,0-1.24-.05-1.74h1.29l.07.88h0a2.15,2.15,0,0,1,1.87-1c1,0,2.08.66,2.08,2.5v3.47H51.15v-3.3c0-.84-.31-1.47-1.11-1.47a1.23,1.23,0,0,0-1.15.86,1.33,1.33,0,0,0-.07.47v3.44H47.34Z" style="fill: #65181a"/>
          <path d="M59.49,53.84a3.39,3.39,0,0,1-.86,2.65,3.34,3.34,0,0,1-2.26.71,4.23,4.23,0,0,1-2-.47l.32-1.12a3.45,3.45,0,0,0,1.7.45A1.56,1.56,0,0,0,58,54.29v-.5h0a2,2,0,0,1-1.71.86,2.58,2.58,0,0,1-2.48-2.85,2.8,2.8,0,0,1,2.65-3.08,1.81,1.81,0,0,1,1.69.91h0l.06-.78h1.28c0,.4,0,.88,0,1.68ZM58,51.19a1.25,1.25,0,0,0-.05-.4,1.23,1.23,0,0,0-1.2-.94c-.83,0-1.44.71-1.44,1.9,0,1,.51,1.8,1.43,1.8a1.26,1.26,0,0,0,1.2-.9,1.7,1.7,0,0,0,.06-.51Z" style="fill: #65181a"/>
          <path d="M23.53,58.73a14.69,14.69,0,0,1,2.35-.18,4.91,4.91,0,0,1,3.29.93,3.62,3.62,0,0,1,1.27,3,4.14,4.14,0,0,1-1.26,3.21,5.41,5.41,0,0,1-3.66,1.1,16.68,16.68,0,0,1-2-.1ZM25,65.58a6.45,6.45,0,0,0,.81,0,2.78,2.78,0,0,0,3.06-3.11A2.57,2.57,0,0,0,26,59.7a4.66,4.66,0,0,0-1,.08Z" style="fill: #65181a"/>
          <path d="M32.4,60a.8.8,0,1,1,.84-.79.79.79,0,0,1-.84.79Zm-.73,6.68V60.85h1.47v5.84Z" style="fill: #65181a"/>
          <path d="M34.68,65.32a3.12,3.12,0,0,0,1.49.43c.64,0,.93-.27.93-.65s-.24-.59-1-.86c-1.14-.38-1.6-1-1.6-1.7,0-1,.85-1.82,2.2-1.82a3.27,3.27,0,0,1,1.56.35l-.3,1a2.51,2.51,0,0,0-1.23-.34c-.53,0-.82.26-.82.62s.28.54,1,.82c1.07.37,1.55.91,1.56,1.78,0,1.06-.83,1.83-2.38,1.83a3.76,3.76,0,0,1-1.77-.41Z" style="fill: #65181a"/>
          <path d="M41.43,59.35v1.5h1.41V62H41.43v2.57c0,.72.2,1.08.76,1.08a1.91,1.91,0,0,0,.58-.06l0,1.11a3.08,3.08,0,0,1-1.07.16,1.69,1.69,0,0,1-1.27-.48A2.31,2.31,0,0,1,40,64.69V62h-.82v-1.1H40V59.76Z" style="fill: #65181a"/>
          <path d="M44,62.73c0-.79,0-1.36-.05-1.88h1.27l.06,1.1h0a1.74,1.74,0,0,1,1.6-1.23,1.83,1.83,0,0,1,.35,0v1.38a2.76,2.76,0,0,0-.44,0,1.29,1.29,0,0,0-1.32,1.11,2.09,2.09,0,0,0,0,.45v3H44Z" style="fill: #65181a"/>
          <path d="M49,60a.8.8,0,1,1,.84-.79A.79.79,0,0,1,49,60Zm-.73,6.68V60.85H49.7v5.84Z" style="fill: #65181a"/>
          <path d="M55.59,66.51a4.31,4.31,0,0,1-1.65.3,2.81,2.81,0,0,1-3-3,3,3,0,0,1,3.25-3.1,4.06,4.06,0,0,1,1.43.26l-.27,1.12a2.42,2.42,0,0,0-1.11-.23,1.89,1.89,0,0,0,0,3.78,2.93,2.93,0,0,0,1.16-.23Z" style="fill: #65181a"/>
          <path d="M58.56,59.35v1.5H60V62h-1.4v2.57c0,.72.19,1.08.75,1.08a1.87,1.87,0,0,0,.58-.06l0,1.11a3,3,0,0,1-1.06.16,1.7,1.7,0,0,1-1.28-.48,2.31,2.31,0,0,1-.46-1.64V62h-.83v-1.1h.83V59.76Z" style="fill: #65181a"/>
        </g>
        <g style="isolation: isolate">
          <polygon points="52.63 126.35 0 107.2 45.09 87.43 97.71 106.58 52.63 126.35" style="fill: #a780d6"/>
          <polygon points="52.65 128.18 52.63 126.35 97.71 106.58 97.73 108.42 52.65 128.18" style="fill: #775b99"/>
          <polygon points="0.02 109.03 0 107.2 52.63 126.35 52.65 128.18 0.02 109.03" style="fill: #5b3c80"/>
        </g>
        <g>
          <g>
            <g>
              <g>
                <rect x="18.81" y="99.21" width="6.92" height="8.46" style="fill: #a4d3d3"/>
                <path d="M25.05,99.89V107H19.49v-7.1h5.56m1.36-1.36H18.14v9.82h8.27V98.53Z" style="fill: #e95288"/>
              </g>
              <polygon points="28.81 104.76 26.41 108.35 26.41 98.53 28.81 95.79 28.81 104.76" style="fill: #e7326e"/>
              <line x1="20.61" y1="99.29" x2="20.61" y2="108.08" style="fill: none;stroke: #e95288;stroke-miterlimit: 10;stroke-width: 1.3571134118237px"/>
            </g>
            <polyline points="18.14 94.46 19.95 91.72 28.81 91.72 26.41 94.46 18.14 94.46" style="fill: #f092b6"/>
            <g>
              <rect x="18.81" y="95.14" width="6.92" height="8.46" style="fill: #a4d3d3"/>
              <path d="M25.05,95.82v7.1H19.49v-7.1h5.56m1.36-1.36H18.14v9.82h8.27V94.46Z" style="fill: #e95288"/>
            </g>
            <polygon points="28.81 100.69 26.41 104.28 26.41 94.46 28.81 91.72 28.81 100.69" style="fill: #e7326e"/>
            <line x1="22.16" y1="94.87" x2="22.16" y2="104" style="fill: none;stroke: #e95288;stroke-miterlimit: 10;stroke-width: 1.3571134118237px"/>
            <rect x="20.39" y="101.02" width="3.64" height="0.81" style="fill: #f5f1e8;stroke: #f092b6;stroke-miterlimit: 10;stroke-width: 0.301580758183044px"/>
            <rect x="19.27" y="105.76" width="2.68" height="0.81" style="fill: #f5f1e8;stroke: #f092b6;stroke-miterlimit: 10;stroke-width: 0.25854403078265px"/>
            <line x1="26.37" y1="103.9" x2="28.8" y2="100.36" style="fill: none;stroke: #f092b6;stroke-linecap: round;stroke-linejoin: round;stroke-width: 0.980137464094887px"/>
            <g>
              <polygon points="15.96 97.55 20.01 91.83 28.61 91.83 24.55 97.55 15.96 97.55" style="fill: #f5f1e8"/>
              <path d="M28.4,91.94l-3.9,5.5H16.17l3.9-5.5H28.4m.43-.22H20l-4.22,5.94h8.87l4.22-5.94Z" style="fill: #e95288"/>
            </g>
            <g>
              <line x1="20.82" y1="91.72" x2="16.63" y2="97.71" style="fill: none;stroke: #a4d3d3;stroke-linecap: round;stroke-linejoin: round;stroke-width: 0.317902856606467px"/>
              <line x1="22.12" y1="91.72" x2="17.93" y2="97.71" style="fill: none;stroke: #a4d3d3;stroke-linecap: round;stroke-linejoin: round;stroke-width: 0.317902856606467px"/>
              <line x1="23.43" y1="91.72" x2="19.24" y2="97.71" style="fill: none;stroke: #a4d3d3;stroke-linecap: round;stroke-linejoin: round;stroke-width: 0.317902856606467px"/>
              <line x1="24.73" y1="91.72" x2="20.54" y2="97.71" style="fill: none;stroke: #a4d3d3;stroke-linecap: round;stroke-linejoin: round;stroke-width: 0.317902856606467px"/>
              <line x1="26.04" y1="91.72" x2="21.85" y2="97.71" style="fill: none;stroke: #a4d3d3;stroke-linecap: round;stroke-linejoin: round;stroke-width: 0.317902856606467px"/>
              <line x1="27.35" y1="91.72" x2="23.16" y2="97.71" style="fill: none;stroke: #a4d3d3;stroke-linecap: round;stroke-linejoin: round;stroke-width: 0.317902856606467px"/>
            </g>
          </g>
          <g>
            <g>
              <g>
                <rect x="29.12" y="100.5" width="6.92" height="8.46" style="fill: #a4d3d3"/>
                <path d="M35.36,101.18v7.1H29.8v-7.1h5.56m1.35-1.36H28.44v9.82h8.27V99.82Z" style="fill: #e95288"/>
              </g>
              <polygon points="39.11 106.05 36.71 109.64 36.71 99.82 39.11 97.08 39.11 106.05" style="fill: #e7326e"/>
              <line x1="30.91" y1="100.58" x2="30.91" y2="109.37" style="fill: none;stroke: #e95288;stroke-miterlimit: 10;stroke-width: 1.3571134118237px"/>
            </g>
            <polyline points="28.44 95.75 30.25 93.01 39.11 93.01 36.71 95.75 28.44 95.75" style="fill: #f092b6"/>
            <g>
              <rect x="29.12" y="96.43" width="6.92" height="8.46" style="fill: #a4d3d3"/>
              <path d="M35.36,97.11v7.1H29.8v-7.1h5.56m1.35-1.36H28.44v9.82h8.27V95.75Z" style="fill: #e95288"/>
            </g>
            <polygon points="39.11 101.98 36.71 105.57 36.71 95.75 39.11 93.01 39.11 101.98" style="fill: #e7326e"/>
            <line x1="32.46" y1="96.16" x2="32.46" y2="105.29" style="fill: none;stroke: #e95288;stroke-miterlimit: 10;stroke-width: 1.3571134118237px"/>
            <rect x="30.69" y="102.31" width="3.64" height="0.81" style="fill: #f5f1e8;stroke: #f092b6;stroke-miterlimit: 10;stroke-width: 0.301580758183044px"/>
            <rect x="29.57" y="107.05" width="2.68" height="0.81" style="fill: #f5f1e8;stroke: #f092b6;stroke-miterlimit: 10;stroke-width: 0.25854403078265px"/>
            <line x1="36.67" y1="105.19" x2="39.1" y2="101.66" style="fill: none;stroke: #f092b6;stroke-linecap: round;stroke-linejoin: round;stroke-width: 0.980137464094887px"/>
            <g>
              <polygon points="26.26 98.84 30.32 93.13 38.92 93.13 34.86 98.84 26.26 98.84" style="fill: #f5f1e8"/>
              <path d="M38.7,93.24l-3.9,5.49H26.47l3.91-5.49H38.7m.43-.23H30.26L26,99h8.87L39.13,93Z" style="fill: #e95288"/>
            </g>
            <g>
              <line x1="31.12" y1="93.01" x2="26.93" y2="99" style="fill: none;stroke: #a4d3d3;stroke-linecap: round;stroke-linejoin: round;stroke-width: 0.317902856606467px"/>
              <line x1="32.43" y1="93.01" x2="28.24" y2="99" style="fill: none;stroke: #a4d3d3;stroke-linecap: round;stroke-linejoin: round;stroke-width: 0.317902856606467px"/>
              <line x1="33.73" y1="93.01" x2="29.54" y2="99" style="fill: none;stroke: #a4d3d3;stroke-linecap: round;stroke-linejoin: round;stroke-width: 0.317902856606467px"/>
              <line x1="35.04" y1="93.01" x2="30.85" y2="99" style="fill: none;stroke: #a4d3d3;stroke-linecap: round;stroke-linejoin: round;stroke-width: 0.317902856606467px"/>
              <line x1="36.34" y1="93.01" x2="32.15" y2="99" style="fill: none;stroke: #a4d3d3;stroke-linecap: round;stroke-linejoin: round;stroke-width: 0.317902856606467px"/>
              <line x1="37.65" y1="93.01" x2="33.46" y2="99" style="fill: none;stroke: #a4d3d3;stroke-linecap: round;stroke-linejoin: round;stroke-width: 0.317902856606467px"/>
            </g>
          </g>
          <path d="M28.41,104.27a1.31,1.31,0,0,0,1.49.08,2.39,2.39,0,0,0,1-1.16" style="fill: none;stroke: #e95288;stroke-linecap: round;stroke-linejoin: round;stroke-width: 0.317902856606467px"/>
          <path d="M33.67,103.1a2.76,2.76,0,0,0,2,1.58,1.21,1.21,0,0,0,1-.12" style="fill: none;stroke: #e95288;stroke-linecap: round;stroke-linejoin: round;stroke-width: 0.317902856606467px"/>
        </g>
        <g>
          <polyline points="37.45 90.1 38.75 88.59 37.45 88.55 37.45 90.1" style="fill: #f092b6"/>
          <polyline points="19.36 89.52 21.17 88.02 19.36 87.96 19.36 89.52" style="fill: #f092b6"/>
          <g>
            <path d="M24.7,80.76h0a.29.29,0,0,1,0,.09.36.36,0,0,1-.13.25.13.13,0,0,1,0,.08.16.16,0,0,1-.05.1.6.6,0,0,0-.05.26c0,.15,0,.28,0,.38a2.63,2.63,0,0,0,0,.41c0,.07,0,.12-.11.14s-.15-.15-.15-.47a4.54,4.54,0,0,1,0-.57.51.51,0,0,0-.18.28.22.22,0,0,1-.2.08c-.07,0-.1,0-.1-.07a.64.64,0,0,1,.07-.24,2.71,2.71,0,0,1,.23-.43,1.13,1.13,0,0,1,.25-.32.23.23,0,0,1,.15,0A.25.25,0,0,1,24.7,80.76Zm-.24-.64a.34.34,0,0,1,.19,0,.2.2,0,0,1,.15.06.19.19,0,0,1,.06.13c0,.1-.09.2-.26.3a.82.82,0,0,1-.43.16.21.21,0,0,1-.12,0,.11.11,0,0,1-.05-.09.44.44,0,0,1,.13-.22A2.39,2.39,0,0,1,24.46,80.12Zm2.06,1c0,.06-.11.09-.29.1s-.14,0-.14.11a.11.11,0,0,0,0,0,5.87,5.87,0,0,1,.06.85.68.68,0,0,1,0,.17.22.22,0,0,1-.15.13.11.11,0,0,0-.1.09.13.13,0,0,1-.08,0,.17.17,0,0,1-.11-.06.11.11,0,0,0-.1-.07s-.06,0-.06,0a.06.06,0,0,1,0,0,.08.08,0,0,0,0,0s0,0,0,0l.06,0h.08c.08,0,.12-.06.12-.17v-.85a.57.57,0,0,0-.18,0l-.05,0c-.07,0-.12-.06-.16-.16s-.06,0-.08.05a.21.21,0,0,1,0,.06v.05c.12,0,.19,0,.2.12s-.07.11-.18.16-.05.09,0,.2l.13,0a.21.21,0,0,1,.13.07c0,.1,0,.17-.19.2a2.33,2.33,0,0,0-.45.12l-.09,0a.21.21,0,0,1-.16-.13q0-.16.15-.18a.36.36,0,0,0,.23-.13.42.42,0,0,1-.28-.09.22.22,0,0,1,0-.1s0-.09.12-.1.19-.06.19-.15H24.9a.2.2,0,0,1-.2-.1c0-.09.07-.15.27-.2v0s0,0-.08-.06a.2.2,0,0,1-.11-.11.25.25,0,0,1,0-.14c0-.08.06-.14.19-.17s.06,0,.07-.12v-.16a.26.26,0,0,1,.06-.15.1.1,0,0,1,.08,0c.05,0,.1,0,.16.14a.27.27,0,0,1,0,.12.28.28,0,0,1,0,.09h.07a.14.14,0,0,1,.12.08.37.37,0,0,1,0,.16.3.3,0,0,1,0,.1.41.41,0,0,1-.2.16.18.18,0,0,0-.1.09h.09a.08.08,0,0,1,.09.06.7.7,0,0,1,.19-.06.54.54,0,0,0,.19-.14.06.06,0,0,1,.05,0,.51.51,0,0,1,.19.08.27.27,0,0,0,.13,0,.09.09,0,0,1,.09,0,.25.25,0,0,1,.16.07A.23.23,0,0,1,26.52,81.13Zm-.28-.82h0c0,.09,0,.16-.15.2a.8.8,0,0,1-.28.07.21.21,0,0,1-.15-.07.17.17,0,0,1-.06-.11c0-.07.06-.13.18-.17a1,1,0,0,1,.27-.06A.21.21,0,0,1,26.24,80.31Z" style="fill: #fff294"/>
            <path d="M30.79,80.33q0,.09-.15.15a1.8,1.8,0,0,1-.45.1c-.07.12-.14.18-.2.18l0,0-.09-.11-.41.07a.76.76,0,0,0-.08.24l.14-.06a.32.32,0,0,1,.13-.2.63.63,0,0,1,.17.08.17.17,0,0,1,.17.14.4.4,0,0,1-.15.19l-.11.09v0a.45.45,0,0,1,.18,0,.24.24,0,0,1,.13,0,.17.17,0,0,1,.07.13.66.66,0,0,1-.14.35,1,1,0,0,1-.21.15.62.62,0,0,0,0,.1l.19,0H30A.2.2,0,0,1,30,82a.24.24,0,0,1,0,.12.77.77,0,0,1-.23.1,2.63,2.63,0,0,0,0,.31.19.19,0,0,1-.12.17c0,.06-.05.08-.08.08s-.05,0-.06-.09,0-.27,0-.36a1.06,1.06,0,0,1-.29.06.16.16,0,0,1-.16-.16.24.24,0,0,1,.21-.11l.22,0a.62.62,0,0,0,0-.13.29.29,0,0,1-.16.06.25.25,0,0,1-.12-.07.51.51,0,0,1-.09-.13,6.87,6.87,0,0,0-.3.77s-.05.06-.07.05,0,0,0-.1l.14-.61c.07-.28.13-.53.18-.76a2.46,2.46,0,0,1,.12-.45.56.56,0,0,1,.09-.14.24.24,0,0,1,.05-.2.35.35,0,0,1,.26-.07h.2c0-.1,0-.17.1-.19a.36.36,0,0,1,.28.15,2.08,2.08,0,0,0,.25,0l.22,0,.11,0A.13.13,0,0,1,30.79,80.33Zm-1.38,1v-.07a.24.24,0,0,1-.09-.06l-.05.15h0Zm.35.06a2.77,2.77,0,0,0-.46.22.54.54,0,0,0,.1.2.62.62,0,0,0,.26-.1A.42.42,0,0,0,29.76,81.37Zm-.06.24a.6.6,0,0,1-.15.09h-.1s-.05,0-.05-.07a.07.07,0,0,1,0-.06.3.3,0,0,1,.23-.11.06.06,0,0,1,.07.07A.11.11,0,0,1,29.7,81.61Zm1.32.9h0a.33.33,0,0,1-.32.27q-.06.09-.12.09a.13.13,0,0,1-.08-.08.18.18,0,0,1-.06-.08s0-.07,0-.1,0-.06.08-.07a.1.1,0,0,0,.08,0s0-.09,0-.19v-.22a.77.77,0,0,0-.37,0l-.12.47a.25.25,0,0,1,0,.07s-.05,0-.07,0,0,0,0-.07,0-.48.11-1.09h0l0-.67c0-.07.06-.11.11-.11a.11.11,0,0,1,.07,0,.47.47,0,0,1,.31-.06c0-.06.07-.1.12-.09s.1,0,.16.12A.31.31,0,0,1,31,81c0,.33.05.66.05,1,0,.09,0,.2,0,.33Zm-.38-.71v-.3a.41.41,0,0,1-.3.08l0,.23a.91.91,0,0,1,.23,0Zm0-.59h0c0-.07,0-.15,0-.27s-.06,0-.12,0a.44.44,0,0,0-.15.12v.19h0S30.45,81.23,30.63,81.21Z" style="fill: #fff294"/>
          </g>
          <g>
            <polygon points="10.89 103.84 8.78 103.79 8.78 81.74 10.89 81.79 10.89 103.84" style="fill: #f092b6"/>
            <polygon points="13.01 103.89 10.89 103.84 10.89 81.79 13.01 81.84 13.01 103.89" style="fill: #a4d3d3"/>
            <path d="M11.31,105.37l-2.94-.07A.27.27,0,0,1,8.1,105v-1a.26.26,0,0,1,.27-.25l2.94.07a.27.27,0,0,1,.27.26v1A.26.26,0,0,1,11.31,105.37Z" style="fill: #e95288"/>
            <path d="M11.58,109.29l-3.48-.08V106a.72.72,0,0,1,.76-.69l2,0a.75.75,0,0,1,.76.73Z" style="fill: #e95288"/>
            <path d="M12.16,110.6l-4.65-.11v-1c0-.13.46-.22,1-.21l2.62.07c.56,0,1,.13,1,.25Z" style="fill: #e7326e"/>
            <polygon points="11.58 105.36 8.1 105.28 8.1 105.04 11.58 105.12 11.58 105.36" style="fill: #e7326e"/>
            <path d="M11.58,104.11l1.6-1.48a.29.29,0,0,0-.28-.26h-.41l-1.6,1.48h.42S11.58,103.89,11.58,104.11Z" style="fill: #f5f1e8"/>
            <polygon points="11.58 104.11 11.58 105.12 13.18 103.57 13.18 102.63 11.58 104.11" style="fill: #f092b6"/>
            <polygon points="11.58 105.12 11.58 105.36 13.18 103.88 13.18 103.57 11.58 105.12" style="fill: #e7326e"/>
            <path d="M10.82,105.36a.79.79,0,0,1,.76.73l1.6-1.48a.71.71,0,0,0-.23-.52l-1.37,1.27Z" style="fill: #f5f1e8"/>
            <polygon points="11.58 106.09 11.58 109.29 13.18 107.81 13.18 104.61 11.58 106.09" style="fill: #f092b6"/>
            <path d="M11.58,109.29s.58.09.58.25l1.6-1.48c.05,0-.16-.13-.19-.14a1.43,1.43,0,0,0-.39-.11Z" style="fill: #f5f1e8"/>
            <polygon points="12.16 109.54 12.16 110.58 13.76 109.1 13.76 108.06 12.16 109.54" style="fill: #e7326e"/>
          </g>
          <path d="M22.87,76.84c-.56,0-1-.33-1-.71" style="fill: none;stroke: #e95288;stroke-miterlimit: 10;stroke-width: 0.493192744749947px"/>
          <path d="M35.78,77.26c-.55,0-1-.33-1-.71" style="fill: none;stroke: #e95288;stroke-miterlimit: 10;stroke-width: 0.493192744749947px"/>
          <path d="M29.5,77.06c-.55,0-1-.34-1-.71" style="fill: none;stroke: #e95288;stroke-miterlimit: 10;stroke-width: 0.493192744749947px"/>
          <path d="M19.06,76.72c.56,0,1-.27,1-.65" style="fill: none;stroke: #e95288;stroke-miterlimit: 10;stroke-width: 0.493192744749947px"/>
          <path d="M25.35,76.92c.56,0,1-.27,1-.64" style="fill: none;stroke: #e95288;stroke-miterlimit: 10;stroke-width: 0.493192744749947px"/>
          <path d="M32,77.14c.56,0,1-.27,1-.65" style="fill: none;stroke: #e95288;stroke-miterlimit: 10;stroke-width: 0.493192744749947px"/>
          <polyline points="38.13 69.99 38.13 70.69 37.42 72.17 37.42 71.63" style="fill: #e95288"/>
          <polyline points="51.04 76.05 53.07 79.31 52.15 80.89 50.22 77.62 51.04 76.05" style="fill: #f5f1e8"/>
          <polygon points="18.47 76.08 5.54 75.66 5.54 76.17 18.47 76.59 18.47 76.08" style="fill: #e95288"/>
          <polygon points="37.14 76.69 37.14 77.19 50.22 77.62 50.22 77.11 37.14 76.69" style="fill: #e95288"/>
          <g>
            <path d="M37.53,76.58V76a.13.13,0,0,0-.12-.12l-19.92-.65a.18.18,0,0,0-.09,0,.11.11,0,0,0,0,.08v.57L5.81,75.55l1.36-1.42,43.65,1.45L50.15,77Z" style="fill: #f5f1e8"/>
            <path d="M7.18,74.29,50.63,75.7l-.55,1.16-12.43-.4V76a.24.24,0,0,0-.24-.24L17.5,75.11h0a.28.28,0,0,0-.17.07.23.23,0,0,0-.07.17v.45L6.08,75.44l1.1-1.15M7.08,74,5.53,75.66l12,.39v-.7L37.41,76v.69l12.82.42L51,75.47,7.08,74Z" style="fill: #f092b6"/>
          </g>
          <polyline points="11.46 83.71 13.16 83.18 45.47 84.22 45.47 84.81 11.46 83.71" style="fill: #e95288"/>
          <g>
            <polygon points="43.79 104.91 45.9 104.96 45.9 80.61 43.79 80.57 43.79 104.91" style="fill: #f092b6"/>
            <path d="M43.38,106.42l2.93.06a.25.25,0,0,0,.27-.25v-1a.27.27,0,0,0-.27-.26l-2.93,0a.25.25,0,0,0-.28.24v1A.28.28,0,0,0,43.38,106.42Z" style="fill: #e95288"/>
            <path d="M43.1,110.33l3.48.07v-3.2a.76.76,0,0,0-.76-.73l-2,0a.72.72,0,0,0-.76.7Z" style="fill: #e95288"/>
            <path d="M42.52,111.6l4.65.09v-1c0-.13-.46-.25-1-.26l-2.61,0c-.56,0-1,.08-1,.21Z" style="fill: #e7326e"/>
            <polygon points="43.1 106.4 46.58 106.47 46.58 106.23 43.1 106.16 43.1 106.4" style="fill: #e7326e"/>
            <polygon points="45.9 80.61 47.49 80.64 47.49 103.47 45.9 104.96 45.9 80.61" style="fill: #a4d3d3"/>
            <path d="M46.57,105.22l1.62-1.48a.28.28,0,0,0-.28-.26h-.42L45.87,105h.42S46.57,105,46.57,105.22Z" style="fill: #f5f1e8"/>
            <polygon points="46.57 105.22 46.57 106.23 48.19 104.67 48.19 103.74 46.57 105.22" style="fill: #f092b6"/>
            <polygon points="46.57 106.23 46.57 106.47 48.19 104.98 48.19 104.67 46.57 106.23" style="fill: #e7326e"/>
            <path d="M45.79,106.47a.81.81,0,0,1,.78.73l1.62-1.49a.64.64,0,0,0-.24-.51l-1.38,1.27Z" style="fill: #f5f1e8"/>
            <polygon points="46.57 107.2 46.57 110.4 48.19 108.92 48.19 105.71 46.57 107.2" style="fill: #f092b6"/>
            <path d="M46.57,110.4s.59.09.59.24l1.62-1.48s-.17-.13-.2-.14a1.32,1.32,0,0,0-.39-.1Z" style="fill: #f5f1e8"/>
            <polygon points="47.16 110.64 47.16 111.69 48.78 110.2 48.78 109.16 47.16 110.64" style="fill: #e7326e"/>
          </g>
          <g>
            <polygon points="37.45 80.41 52.15 80.89 50.22 77.62 37.45 77.2 37.45 80.41" style="fill: #f092b6"/>
            <polygon points="18.56 76.59 5.54 76.17 4.37 79.34 18.56 79.8 18.56 76.59" style="fill: #f092b6"/>
          </g>
          <polygon points="36.3 83.94 18.55 83.37 18.55 78.89 36.3 79.46 36.3 83.94" style="fill: #a4d3d3"/>
          <g>
            <polygon points="11.79 87.4 11.79 84.04 43.59 85.07 43.59 88.43 11.79 87.4" style="fill: #f5f1e8"/>
            <path d="M12.11,84.37l31.16,1V88.1l-31.16-1V84.37m-.65-.66v4l32.45,1.05v-4L11.46,83.71Z" style="fill: #a4d3d3"/>
          </g>
          <polygon points="37.45 76.64 17.4 75.99 17.4 75.26 37.45 75.91 37.45 76.64" style="fill: #e95288"/>
          <g>
            <polygon points="18.91 83.03 18.91 79.25 35.95 79.8 35.95 83.58 18.91 83.03" style="fill: #e95288"/>
            <path d="M19.26,79.62l16.34.53v3.06l-16.34-.53V79.62m-.7-.73v4.48l17.74.57V79.46l-17.74-.57Z" style="fill: #a4d3d3"/>
          </g>
          <polygon points="36.3 79.46 18.55 78.89 18.55 77.37 36.3 77.95 36.3 79.46" style="fill: #e95288"/>
          <polygon points="17.4 81.27 5.26 80.88 5.26 79.36 17.4 79.76 17.4 81.27" style="fill: #e95288"/>
          <polygon points="17.4 82.03 6.85 81.69 6.85 80.93 17.4 81.27 17.4 82.03" style="fill: #e7326e"/>
          <polygon points="47.98 83.02 37.42 82.68 37.42 81.92 47.98 82.26 47.98 83.02" style="fill: #e7326e"/>
          <polygon points="49.56 82.31 37.42 81.92 37.42 80.41 49.56 80.8 49.56 82.31" style="fill: #e95288"/>
          <polygon points="37.42 72.72 17.3 72.06 17.3 70.98 37.42 71.63 37.42 72.72" style="fill: #e95288"/>
          <polygon points="16.45 75.23 17.4 71.53 37.42 72.17 38.59 75.94 16.45 75.23" style="fill: #f092b6"/>
          <g>
            <line x1="18.13" y1="71.56" x2="17.25" y2="75.08" style="fill: none;stroke: #f5f1e8;stroke-linecap: round;stroke-linejoin: round;stroke-width: 0.437368852733193px"/>
            <line x1="19.27" y1="71.62" x2="18.51" y2="75.14" style="fill: none;stroke: #f5f1e8;stroke-linecap: round;stroke-linejoin: round;stroke-width: 0.437368852733193px"/>
            <line x1="20.42" y1="71.67" x2="19.76" y2="75.2" style="fill: none;stroke: #f5f1e8;stroke-linecap: round;stroke-linejoin: round;stroke-width: 0.437368852733193px"/>
            <line x1="21.57" y1="71.73" x2="21.02" y2="75.27" style="fill: none;stroke: #f5f1e8;stroke-linecap: round;stroke-linejoin: round;stroke-width: 0.437368852733193px"/>
            <line x1="22.71" y1="71.79" x2="22.28" y2="75.33" style="fill: none;stroke: #f5f1e8;stroke-linecap: round;stroke-linejoin: round;stroke-width: 0.437368852733193px"/>
            <line x1="23.86" y1="71.85" x2="23.53" y2="75.39" style="fill: none;stroke: #f5f1e8;stroke-linecap: round;stroke-linejoin: round;stroke-width: 0.437368852733193px"/>
            <line x1="25" y1="71.91" x2="24.79" y2="75.45" style="fill: none;stroke: #f5f1e8;stroke-linecap: round;stroke-linejoin: round;stroke-width: 0.437368852733193px"/>
            <line x1="26.15" y1="71.96" x2="26.04" y2="75.51" style="fill: none;stroke: #f5f1e8;stroke-linecap: round;stroke-linejoin: round;stroke-width: 0.437368852733193px"/>
            <line x1="27.3" y1="72.02" x2="27.3" y2="75.57" style="fill: none;stroke: #f5f1e8;stroke-linecap: round;stroke-linejoin: round;stroke-width: 0.437368852733193px"/>
            <line x1="28.44" y1="72.08" x2="28.55" y2="75.63" style="fill: none;stroke: #f5f1e8;stroke-linecap: round;stroke-linejoin: round;stroke-width: 0.437368852733193px"/>
            <line x1="29.59" y1="72.14" x2="29.81" y2="75.69" style="fill: none;stroke: #f5f1e8;stroke-linecap: round;stroke-linejoin: round;stroke-width: 0.437368852733193px"/>
            <line x1="30.74" y1="72.19" x2="31.06" y2="75.76" style="fill: none;stroke: #f5f1e8;stroke-linecap: round;stroke-linejoin: round;stroke-width: 0.437368852733193px"/>
            <line x1="31.88" y1="72.25" x2="32.32" y2="75.82" style="fill: none;stroke: #f5f1e8;stroke-linecap: round;stroke-linejoin: round;stroke-width: 0.437368852733193px"/>
            <line x1="33.03" y1="72.31" x2="33.57" y2="75.88" style="fill: none;stroke: #f5f1e8;stroke-linecap: round;stroke-linejoin: round;stroke-width: 0.437368852733193px"/>
            <line x1="34.17" y1="72.37" x2="34.83" y2="75.94" style="fill: none;stroke: #f5f1e8;stroke-linecap: round;stroke-linejoin: round;stroke-width: 0.437368852733193px"/>
            <line x1="35.32" y1="72.43" x2="36.09" y2="76" style="fill: none;stroke: #f5f1e8;stroke-linecap: round;stroke-linejoin: round;stroke-width: 0.437368852733193px"/>
            <line x1="36.47" y1="72.48" x2="37.34" y2="76.06" style="fill: none;stroke: #f5f1e8;stroke-linecap: round;stroke-linejoin: round;stroke-width: 0.437368852733193px"/>
          </g>
          <g>
            <line x1="6.48" y1="76.03" x2="5.26" y2="79.54" style="fill: none;stroke: #f5f1e8;stroke-linecap: round;stroke-linejoin: round;stroke-width: 0.437368852733193px"/>
            <line x1="7.63" y1="76.06" x2="6.5" y2="79.58" style="fill: none;stroke: #f5f1e8;stroke-linecap: round;stroke-linejoin: round;stroke-width: 0.437368852733193px"/>
            <line x1="8.78" y1="76.1" x2="7.74" y2="79.62" style="fill: none;stroke: #f5f1e8;stroke-linecap: round;stroke-linejoin: round;stroke-width: 0.437368852733193px"/>
            <line x1="9.93" y1="76.14" x2="8.98" y2="79.66" style="fill: none;stroke: #f5f1e8;stroke-linecap: round;stroke-linejoin: round;stroke-width: 0.437368852733193px"/>
            <line x1="11.08" y1="76.18" x2="10.22" y2="79.7" style="fill: none;stroke: #f5f1e8;stroke-linecap: round;stroke-linejoin: round;stroke-width: 0.437368852733193px"/>
            <line x1="12.23" y1="76.21" x2="11.46" y2="79.74" style="fill: none;stroke: #f5f1e8;stroke-linecap: round;stroke-linejoin: round;stroke-width: 0.437368852733193px"/>
            <line x1="13.38" y1="76.25" x2="12.7" y2="79.78" style="fill: none;stroke: #f5f1e8;stroke-linecap: round;stroke-linejoin: round;stroke-width: 0.437368852733193px"/>
            <line x1="14.54" y1="76.29" x2="13.94" y2="79.82" style="fill: none;stroke: #f5f1e8;stroke-linecap: round;stroke-linejoin: round;stroke-width: 0.437368852733193px"/>
            <line x1="15.69" y1="76.33" x2="15.18" y2="79.86" style="fill: none;stroke: #f5f1e8;stroke-linecap: round;stroke-linejoin: round;stroke-width: 0.437368852733193px"/>
            <line x1="16.84" y1="76.36" x2="16.42" y2="79.9" style="fill: none;stroke: #f5f1e8;stroke-linecap: round;stroke-linejoin: round;stroke-width: 0.437368852733193px"/>
          </g>
          <g>
            <line x1="48.9" y1="77.4" x2="50.12" y2="80.99" style="fill: none;stroke: #f5f1e8;stroke-linecap: round;stroke-linejoin: round;stroke-width: 0.437368852733193px"/>
            <line x1="47.75" y1="77.36" x2="48.88" y2="80.95" style="fill: none;stroke: #f5f1e8;stroke-linecap: round;stroke-linejoin: round;stroke-width: 0.437368852733193px"/>
            <line x1="46.6" y1="77.33" x2="47.64" y2="80.91" style="fill: none;stroke: #f5f1e8;stroke-linecap: round;stroke-linejoin: round;stroke-width: 0.437368852733193px"/>
            <line x1="45.44" y1="77.29" x2="46.4" y2="80.87" style="fill: none;stroke: #f5f1e8;stroke-linecap: round;stroke-linejoin: round;stroke-width: 0.437368852733193px"/>
            <line x1="44.29" y1="77.25" x2="45.16" y2="80.83" style="fill: none;stroke: #f5f1e8;stroke-linecap: round;stroke-linejoin: round;stroke-width: 0.437368852733193px"/>
            <line x1="43.14" y1="77.22" x2="43.92" y2="80.79" style="fill: none;stroke: #f5f1e8;stroke-linecap: round;stroke-linejoin: round;stroke-width: 0.437368852733193px"/>
            <line x1="41.99" y1="77.18" x2="42.68" y2="80.75" style="fill: none;stroke: #f5f1e8;stroke-linecap: round;stroke-linejoin: round;stroke-width: 0.437368852733193px"/>
            <line x1="40.84" y1="77.14" x2="41.44" y2="80.71" style="fill: none;stroke: #f5f1e8;stroke-linecap: round;stroke-linejoin: round;stroke-width: 0.437368852733193px"/>
            <line x1="39.69" y1="77.1" x2="40.2" y2="80.67" style="fill: none;stroke: #f5f1e8;stroke-linecap: round;stroke-linejoin: round;stroke-width: 0.437368852733193px"/>
            <line x1="38.54" y1="77.07" x2="38.96" y2="80.63" style="fill: none;stroke: #f5f1e8;stroke-linecap: round;stroke-linejoin: round;stroke-width: 0.437368852733193px"/>
          </g>
          <g>
            <polygon points="17.68 70.87 19.1 69.45 37.95 70.1 37.35 71.51 17.68 70.87" style="fill: #f5f1e8"/>
            <path d="M19.11,69.61l18.66.61-.5,1.17L18,70.76l1.15-1.15m-.1-.24L17.4,71l20,.65.7-1.64L19,69.37Z" style="fill: #f092b6"/>
          </g>
          <path d="M5.53,72.88v2.78l2.63.09A3.82,3.82,0,0,1,5.53,72.88Z" style="fill: #f092b6"/>
          <path d="M51,72.68v2.79l-2.73-.09A3.54,3.54,0,0,0,51,72.68Z" style="fill: #f092b6"/>
          <path d="M50,74.32V77.1L47.29,77A3.52,3.52,0,0,0,50,74.32Z" style="fill: #f092b6"/>
          <path d="M7.06,71.26V74l2.62.09A3.81,3.81,0,0,1,7.06,71.26Z" style="fill: #f092b6"/>
          <g>
            <path d="M17.4,68.2V71l2.74.09A3.84,3.84,0,0,1,17.4,68.2Z" style="fill: #f092b6"/>
            <path d="M19,66.59v2.78l2.74.09A3.85,3.85,0,0,1,19,66.59Z" style="fill: #f092b6"/>
          </g>
          <g>
            <path d="M17.4,68.2V71l2.74.09A3.84,3.84,0,0,1,17.4,68.2Z" style="fill: #f092b6"/>
            <path d="M19,66.59v2.78l2.74.09A3.85,3.85,0,0,1,19,66.59Z" style="fill: #f092b6"/>
          </g>
          <path d="M37.34,68.85v2.78l-2.74-.09A3.53,3.53,0,0,0,37.34,68.85Z" style="fill: #f092b6"/>
          <path d="M38.08,67.21V70l-2.74-.09A3.53,3.53,0,0,0,38.08,67.21Z" style="fill: #f092b6"/>
          <polyline points="38.13 70.69 39.54 74.36 38.59 75.94 37.42 72.17 38.13 70.69" style="fill: #f5f1e8"/>
          <polygon points="51 75.47 51.02 76.12 50.22 77.62 50.14 77.11 51 75.47" style="fill: #f092b6"/>
          <polygon points="19.36 89.52 17.4 89.45 17.4 75.99 19.36 76.05 19.36 89.52" style="fill: #e95288"/>
          <g>
            <polygon points="25.35 77.6 22.84 77.52 22.84 76.16 25.35 76.25 25.35 77.6" style="fill: #e95288"/>
            <polygon points="32.02 77.82 29.5 77.74 29.5 76.38 32.02 76.46 32.02 77.82" style="fill: #e95288"/>
          </g>
          <polygon points="37.45 90.1 35.58 90.04 35.58 76.58 37.45 76.64 37.45 90.1" style="fill: #e95288"/>
          <polygon points="36.3 79.46 18.56 78.89 18.56 78.13 36.3 78.71 36.3 79.46" style="fill: #e7326e"/>
          <path d="M19.78,79.33l1.1,0V80.5l-1.1,0V79.33m-.4-.42v1.94l1.91.06V79l-1.91-.07Z" style="fill: #a4d3d3"/>
          <path d="M34.08,79.79l1.1,0V81l-1.1,0V79.79m-.4-.41v1.94l1.9.06V79.44l-1.9-.06Z" style="fill: #a4d3d3"/>
          <path d="M19.78,81.86l1.1,0V83l-1.1,0V81.86m-.4-.42v1.94l1.91.06V81.5l-1.91-.06Z" style="fill: #a4d3d3"/>
          <path d="M34.08,82.32l1.1,0v1.13l-1.1,0V82.32m-.4-.42v1.94l1.9.06V82l-1.9-.07Z" style="fill: #a4d3d3"/>
          <g>
            <path d="M24.7,80.76h0a.29.29,0,0,1,0,.09.36.36,0,0,1-.13.25.13.13,0,0,1,0,.08.16.16,0,0,1-.05.1.6.6,0,0,0-.05.26c0,.15,0,.28,0,.38a2.63,2.63,0,0,0,0,.41c0,.07,0,.12-.11.14s-.15-.15-.15-.47a4.54,4.54,0,0,1,0-.57.51.51,0,0,0-.18.28.22.22,0,0,1-.2.08c-.07,0-.1,0-.1-.07a.64.64,0,0,1,.07-.24,2.71,2.71,0,0,1,.23-.43,1.13,1.13,0,0,1,.25-.32.23.23,0,0,1,.15,0A.25.25,0,0,1,24.7,80.76Zm-.24-.64a.34.34,0,0,1,.19,0,.2.2,0,0,1,.15.06.19.19,0,0,1,.06.13c0,.1-.09.2-.26.3a.82.82,0,0,1-.43.16.21.21,0,0,1-.12,0,.11.11,0,0,1-.05-.09.44.44,0,0,1,.13-.22A2.39,2.39,0,0,1,24.46,80.12Zm2.06,1c0,.06-.11.09-.29.1s-.14,0-.14.11a.11.11,0,0,0,0,0,5.87,5.87,0,0,1,.06.85.68.68,0,0,1,0,.17.22.22,0,0,1-.15.13.11.11,0,0,0-.1.09.13.13,0,0,1-.08,0,.17.17,0,0,1-.11-.06.11.11,0,0,0-.1-.07s-.06,0-.06,0a.06.06,0,0,1,0,0,.08.08,0,0,0,0,0s0,0,0,0l.06,0h.08c.08,0,.12-.06.12-.17v-.85a.57.57,0,0,0-.18,0l-.05,0c-.07,0-.12-.06-.16-.16s-.06,0-.08.05a.21.21,0,0,1,0,.06v.05c.12,0,.19,0,.2.12s-.07.11-.18.16-.05.09,0,.2l.13,0a.21.21,0,0,1,.13.07c0,.1,0,.17-.19.2a2.33,2.33,0,0,0-.45.12l-.09,0a.21.21,0,0,1-.16-.13q0-.16.15-.18a.36.36,0,0,0,.23-.13.42.42,0,0,1-.28-.09.22.22,0,0,1,0-.1s0-.09.12-.1.19-.06.19-.15H24.9a.2.2,0,0,1-.2-.1c0-.09.07-.15.27-.2v0s0,0-.08-.06a.2.2,0,0,1-.11-.11.25.25,0,0,1,0-.14c0-.08.06-.14.19-.17s.06,0,.07-.12v-.16a.26.26,0,0,1,.06-.15.1.1,0,0,1,.08,0c.05,0,.1,0,.16.14a.27.27,0,0,1,0,.12.28.28,0,0,1,0,.09h.07a.14.14,0,0,1,.12.08.37.37,0,0,1,0,.16.3.3,0,0,1,0,.1.41.41,0,0,1-.2.16.18.18,0,0,0-.1.09h.09a.08.08,0,0,1,.09.06.7.7,0,0,1,.19-.06.54.54,0,0,0,.19-.14.06.06,0,0,1,.05,0,.51.51,0,0,1,.19.08.27.27,0,0,0,.13,0,.09.09,0,0,1,.09,0,.25.25,0,0,1,.16.07A.23.23,0,0,1,26.52,81.13Zm-.28-.82h0c0,.09,0,.16-.15.2a.8.8,0,0,1-.28.07.21.21,0,0,1-.15-.07.17.17,0,0,1-.06-.11c0-.07.06-.13.18-.17a1,1,0,0,1,.27-.06A.21.21,0,0,1,26.24,80.31Z" style="fill: #f5f1e8"/>
            <path d="M30.79,80.33q0,.09-.15.15a1.8,1.8,0,0,1-.45.1c-.07.12-.14.18-.2.18l0,0-.09-.11-.41.07a.76.76,0,0,0-.08.24l.14-.06a.32.32,0,0,1,.13-.2.63.63,0,0,1,.17.08.17.17,0,0,1,.17.14.4.4,0,0,1-.15.19l-.11.09v0a.45.45,0,0,1,.18,0,.24.24,0,0,1,.13,0,.17.17,0,0,1,.07.13.66.66,0,0,1-.14.35,1,1,0,0,1-.21.15.62.62,0,0,0,0,.1l.19,0H30A.2.2,0,0,1,30,82a.24.24,0,0,1,0,.12.77.77,0,0,1-.23.1,2.63,2.63,0,0,0,0,.31.19.19,0,0,1-.12.17c0,.06-.05.08-.08.08s-.05,0-.06-.09,0-.27,0-.36a1.06,1.06,0,0,1-.29.06.16.16,0,0,1-.16-.16.24.24,0,0,1,.21-.11l.22,0a.62.62,0,0,0,0-.13.29.29,0,0,1-.16.06.25.25,0,0,1-.12-.07.51.51,0,0,1-.09-.13,6.87,6.87,0,0,0-.3.77s-.05.06-.07.05,0,0,0-.1l.14-.61c.07-.28.13-.53.18-.76a2.46,2.46,0,0,1,.12-.45.56.56,0,0,1,.09-.14.24.24,0,0,1,.05-.2.35.35,0,0,1,.26-.07h.2c0-.1,0-.17.1-.19a.36.36,0,0,1,.28.15,2.08,2.08,0,0,0,.25,0l.22,0,.11,0A.13.13,0,0,1,30.79,80.33Zm-1.38,1v-.07a.24.24,0,0,1-.09-.06l-.05.15h0Zm.35.06a2.77,2.77,0,0,0-.46.22.54.54,0,0,0,.1.2.62.62,0,0,0,.26-.1A.42.42,0,0,0,29.76,81.37Zm-.06.24a.6.6,0,0,1-.15.09h-.1s-.05,0-.05-.07a.07.07,0,0,1,0-.06.3.3,0,0,1,.23-.11.06.06,0,0,1,.07.07A.11.11,0,0,1,29.7,81.61Zm1.32.9h0a.33.33,0,0,1-.32.27q-.06.09-.12.09a.13.13,0,0,1-.08-.08.18.18,0,0,1-.06-.08s0-.07,0-.1,0-.06.08-.07a.1.1,0,0,0,.08,0s0-.09,0-.19v-.22a.77.77,0,0,0-.37,0l-.12.47a.25.25,0,0,1,0,.07s-.05,0-.07,0,0,0,0-.07,0-.48.11-1.09h0l0-.67c0-.07.06-.11.11-.11a.11.11,0,0,1,.07,0,.47.47,0,0,1,.31-.06c0-.06.07-.1.12-.09s.1,0,.16.12A.31.31,0,0,1,31,81c0,.33.05.66.05,1,0,.09,0,.2,0,.33Zm-.38-.71v-.3a.41.41,0,0,1-.3.08l0,.23a.91.91,0,0,1,.23,0Zm0-.59h0c0-.07,0-.15,0-.27s-.06,0-.12,0a.44.44,0,0,0-.15.12v.19h0S30.45,81.23,30.63,81.21Z" style="fill: #f5f1e8"/>
          </g>
          <polyline points="11.46 87.71 11.46 90.33 15.29 87.83 11.46 87.71" style="fill: #e95288"/>
          <polyline points="43.88 88.76 43.88 91.38 40.05 88.64 43.88 88.76" style="fill: #e95288"/>
          <g>
            <path d="M9.5,90.45h0s0,0,0,0,0,0,0,0,0,0,0,0l-.07.09h0s0,0,0,0v.24a.08.08,0,0,1,0,0s0,0,0,0l0,0a.18.18,0,0,1,0-.06v0a.35.35,0,0,0,0-.17v0h0l-.09.07-.05,0h0l.09-.09a.44.44,0,0,0,.08-.11.25.25,0,0,0,0-.07S9.49,90.45,9.5,90.45Zm-.05-.16h0a.05.05,0,0,1,0,0h0s0,0,0,0a.35.35,0,0,1-.07.09.18.18,0,0,1-.07.05l0,0h0l.06-.07,0-.09a.13.13,0,0,0,0-.06Zm.29.13h0s0,0,0,0H9.71v.08H9.8l-.18,0h0l0,0a0,0,0,0,1,0,0h0l.12,0v-.07h0v-.15h0s0,0,0,0h0s0,0,0,0h0v.12h0Zm0,.24,0,0h0a0,0,0,0,1,0,0l-.06,0h0v.06H9.8s0,0,0,0h0l-.13,0-.05,0h0l0,0,0,0s0,0,0,0h.13v-.07h0v0s0,0,0,0h0s0,0,0,0h0l0,0h0v0h0Zm.3-.12h0s0,0,0,0H10a0,0,0,0,1,0,0h0v.28S10,91,10,91l0,0h0L9.84,91a0,0,0,0,1,0,0h0l.05,0a0,0,0,0,0,0,0s0-.08,0-.18a.37.37,0,0,0,0-.12v0H9.83l0,0a0,0,0,0,1,0,0l.2,0ZM10,90.41h0a0,0,0,0,1,0,0h0l0,0H9.84s0,0,0,0h.08l.05,0Z" style="fill: #f5f1e8"/>
            <path d="M9.48,91.55h0a.05.05,0,0,1,0,0h0l0,0a.7.7,0,0,1-.06.09h0l0,0V92a.11.11,0,0,1,0,.05h0s0,0,0,0l0,0v0a.54.54,0,0,0,0-.17s0,0,0-.05h0l-.08.06,0,0h0l.08-.08.07-.11a.13.13,0,0,0,0-.06A0,0,0,0,1,9.48,91.55Zm0-.17h0s0,0,0,0h0v0l-.07.09-.06,0h0l.06-.06a.41.41,0,0,0,0-.09.09.09,0,0,0,0,0A0,0,0,0,1,9.45,91.38Zm.14.26h0s0,0,0,0h0l0,0h.11s0,0,0,0a.11.11,0,0,0,0,0h0l0,0v0h.09s0,0,0,0H9.75v0h.08l0,0H9.75v0h.06s0,0,0,0H9.75v0h.1l0,0H9.61V92s0,0,0,0,0,0,0,0,0,0,0,0v0a.5.5,0,0,0,0-.15v0l0,0,0,0h0l0-.06,0-.07s0,0,0,0Zm0-.25h.13v.2a0,0,0,0,1,0,0v0h0v0H9.57v0a0,0,0,0,1,0,0v0a.07.07,0,0,0,0,0v-.06s0,0,0,0v0Zm0,.21h.07v0H9.58Zm0-.07h.07v0H9.58Zm0-.06h.07v0H9.59a0,0,0,0,0,0,0Zm.13.32v0H9.61a0,0,0,0,1,0,0v0h.09Zm-.1.15h.1v0h-.1Zm.1-.08v0H9.62a.43.43,0,0,0,0,.05h.1Zm0-.48h.13s0,0,0,0v.18a0,0,0,0,1,0,0,0,0,0,0,1,0,0H9.72a0,0,0,0,1,0,0v0a.07.07,0,0,0,0,0v-.07a.07.07,0,0,0,0,0h0A0,0,0,0,1,9.72,91.38Zm0,.22h.08v0H9.75A.07.07,0,0,1,9.74,91.6Zm0-.07h.07v0H9.75Zm0-.07h.07v0H9.76s0,0,0,0Zm.31.15h0l0,0s0,0,0,0H10s0,0,0,0V92s0,.07,0,.08l0,0s0,0,0,0A.46.46,0,0,0,9.86,92v0h0l.06,0,0,0v-.19a.45.45,0,0,0,0-.13v0h-.1a0,0,0,0,1,0,0l.18,0ZM10,91.49h0a0,0,0,0,1,0,0H9.89a0,0,0,0,1,0,0H10Z" style="fill: #f5f1e8"/>
            <path d="M9.43,93h0a.11.11,0,0,1,0,.05.1.1,0,0,1,0,.07s0,0,0,0,0,0,0,0h0s0,0,0,0,0,0,0,0L9.42,93A0,0,0,0,1,9.43,93Zm.23-.5h0a0,0,0,0,1,0,0H9.62l0,0h0a0,0,0,0,1,0,0v.06h0l0,0s0,0,0,0a0,0,0,0,1,0,0s0,0,0,0l0,0s0,0,0,0H9.61l0,0h0s0,0,0,0v.06h.08l0,0a0,0,0,0,1,0,0s0,0,0,0H9.64a.48.48,0,0,0-.12,0l-.08,0a0,0,0,0,1,0,0s0,0,0,0a0,0,0,0,1,0,0h0a.07.07,0,0,0,0,0,1,1,0,0,0,0-.18.25.25,0,0,0,0-.11v0h0s0,0,0,0h.17l.09,0Zm-.09.4a.54.54,0,0,1,0-.08s0,0,0,0h0s0,0,0,0,0,0,0,0v-.1h0a0,0,0,0,1,0,0h.09v-.11H9.47s0,0,0,0v.15s0,.09,0,.12,0,0,0,0Zm0-.14h.09s0,0,0,0v0s0,0,0,0H9.54Zm0,.26,0,0,0,.05s0,0,0,0,0,0,0,0,0,0,0-.06a.42.42,0,0,1,0-.09Zm.32-.49h0l0,0s0,0,0,0l0,0v.07h0s0,0,0,0H9.77v.09s0,0,0,0l0,0h.11a.08.08,0,0,0,.05,0v-.05h0v.08s0,0,0,0v0l0,0a.27.27,0,0,1-.09,0H9.82l-.07,0a.19.19,0,0,1,0-.08v-.26h0s0,0,0,0h.07l.06,0S9.9,92.47,9.9,92.48ZM9.75,93l0,0s0,0,0,.05,0,0,0,0a0,0,0,0,1,0,0s0,0,0,0l0-.08Zm0-.43v0s0,.06,0,.09l.08,0h0a.13.13,0,0,1,0-.06v0s0,0,0,0h-.1ZM9.9,93h0L10,93l0,.06a.06.06,0,0,1,0,0,0,0,0,0,1,0,0,0,0,0,0,1,0,0h0l0-.06L9.92,93s0,0,0,0Z" style="fill: #f5f1e8"/>
            <path d="M9.53,93.71h0a.15.15,0,0,1-.08,0h0v.11l0,0h0a.22.22,0,0,1-.07.06v.14s0,.07,0,.1a.14.14,0,0,1,0,.06s0,0,0,0h0a.28.28,0,0,0-.06-.08,0,0,0,0,1,0,0h.07s0,0,0-.09V94L9.35,94a0,0,0,0,1,0,0l0,0s0,0,0,0h0l.12-.06v-.13H9.33a0,0,0,0,1,0,0h.12v-.14a.35.35,0,0,0,0-.06v0a0,0,0,0,1,0,0l.05,0,0,0s0,0,0,0a.15.15,0,0,0,0,.08v.07h0Zm.36.1h0s0,0,0,0H9.86v0H10a0,0,0,0,1,0,0H9.85v0H10l0,0H9.72s0,0,0,0h0s0,0,0,0h0l0,0h0s0,0,0,.08h0l.08,0h0a0,0,0,0,1,0,0l-.09.1s0,0,0,0h0a.08.08,0,0,1,0,0h0s0,0,0,0v-.06a.07.07,0,0,0,0,0l0,0-.07,0H9.52l.07,0L9.67,94l0,0H9.58s0,0,0,0H9.7v0H9.63s0,0,0,0h.08v0h0v0h0a0,0,0,0,1,0,0h0l0,0h0v0h.08v0h0l0,0s0,0,0,0h0Zm-.16-.33h0s0,0,0,0a.05.05,0,0,1,0,0s0,0,0,0H10s0,0,0,0H9.8l-.15,0H9.57s0,0,0,0l.19,0h0a.56.56,0,0,1,0-.08h0Zm-.13.19s0,0,0,0l.1,0h0s0,0,0,0h0v0h0s0,0,0,0H9.63v0a0,0,0,0,0,0,0s0,0,0,0h0Zm.05.06h.06a.08.08,0,0,0,0,0,0,0,0,0,1,0,0H9.64Zm.16.17v-.05H9.73v0ZM9.73,94h.08v0H9.73Zm.18,0h0l0,0h0l-.09,0,.06,0a.4.4,0,0,0,.16.07s0,0,0,0h0a.18.18,0,0,1-.1,0h0a.69.69,0,0,1-.14-.15l0,0s0,0,0,0h0l0,0h0l0,0,0,0Zm-.11-.37s0,0,0,0l.11,0h0v0h0l0,0s0,0,0,0H9.83v0a0,0,0,0,0,0,0s0,0,0,0h0S9.79,93.64,9.8,93.64Zm0,.07h.07s0,0,0,0H9.85Z" style="fill: #f5f1e8"/>
            <path d="M9.81,94.79l0,0s0,0,0,0h0A.53.53,0,0,0,9.8,95a1.15,1.15,0,0,0,0,.14.12.12,0,0,0,0,.09.17.17,0,0,0,.12,0s.06,0,.07,0a.25.25,0,0,0,0-.12h0a.29.29,0,0,0,0,.12s0,0,0,0,0,0,0,0l-.12,0a.29.29,0,0,1-.17,0,.2.2,0,0,1,0-.14.28.28,0,0,1,0-.08l0-.14a.08.08,0,0,0,0,0s0,0,0,0h0l-.08,0a.94.94,0,0,1,0,.09.66.66,0,0,1-.09.19.36.36,0,0,1-.14.11h0a.64.64,0,0,0,.12-.13A.49.49,0,0,0,9.56,95l0-.1-.11,0H9.4l0,0h0l.15,0h0v0a1,1,0,0,0,0-.16.13.13,0,0,0,0-.06h0a0,0,0,0,1,0,0l.05,0s0,0,0,0,0,0,0,0,0,0,0,.07a.52.52,0,0,0,0,.11l.11,0Z" style="fill: #f5f1e8"/>
            <path d="M9.4,95.94a.06.06,0,0,1,.06,0s0,0,0,0a0,0,0,0,1,0,0L9.38,96v0h0Zm.1-.23.05,0s0,0,0,0v0a.43.43,0,0,0,0,0,1.57,1.57,0,0,1,0,.29.28.28,0,0,1-.09.14s0,0-.07,0h0a.37.37,0,0,0,.1-.16.56.56,0,0,0,0-.2v-.15s0,0,0-.05,0,0,0,0Zm.12.24a.08.08,0,0,1,.06,0,.11.11,0,0,1,0,0s0,0,0,0,0,0-.08-.06a0,0,0,0,1,0,0h0Zm.09-.22,0,0s0,0,0,0v0a.31.31,0,0,0,0,.1v.27s0,0,0,0,0,0,0,0l0,0,0,0a.11.11,0,0,1,0,0v-.3a.38.38,0,0,0,0-.13v0Zm.12.23s0,0,.05,0,0,0,0,0,0,0,0,0L9.8,96s0,0,0,0h0Zm.09-.29h0s0,0,0,0v0s0,.05,0,.08v.37c0,.07,0,.13,0,.18l0,0s0,0,0,0v-.61s0,0,0-.07v0S9.91,95.67,9.92,95.67Z" style="fill: #f5f1e8"/>
            <path d="M9.41,96.88l0,0s0,0,0,0h0a.3.3,0,0,0,0,.08l.09,0v0a.45.45,0,0,0,0-.14.07.07,0,0,0,0,0v0h0l.05,0s0,0,0,0v0a.22.22,0,0,0,0,.09s0,.06,0,.09h.1s0,0,0,0H9.56v.12h0l0,0a0,0,0,0,1,0,0h0l0,0v.23s0,0,0,0l0,0v0a.1.1,0,0,1,0-.06v0a.75.75,0,0,0,0-.11v0l0,0-.11.07h0a0,0,0,0,1,0,0s0,0,0,0h0l.16-.08a.53.53,0,0,0,0-.13h-.1l0,.06s0,0,0,0h0A.43.43,0,0,0,9.39,97s0-.06,0-.09Zm.36-.12h0s0,0,0,0h0s0,0,0,0a1,1,0,0,1-.08.15v0h.12L10,97h0l0,0s0,0,0,0a0,0,0,0,1,0,0,.2.2,0,0,0,0,.09c0,.1,0,.17,0,.21a.17.17,0,0,1-.06.11l0,0s0,0,0,0a.21.21,0,0,0-.06-.08h0l.07,0a0,0,0,0,0,0,0A.43.43,0,0,0,10,97.2,1,1,0,0,0,10,97s0,0,0,0H9.9l0,0s0,0,0,0l0,0a.38.38,0,0,1-.09.15.45.45,0,0,1-.13.11H9.6a.58.58,0,0,0,.14-.13.41.41,0,0,0,.08-.13.16.16,0,0,0,0-.09v0h0l-.06,0s0,0,0,0a0,0,0,0,1,0,0v0l0,.06-.05.06,0,0h0s0,0,.05-.05l.06-.09,0-.06h0l0,0,0,0h0L9.7,97a.69.69,0,0,1,.05-.13s0-.06,0-.09Z" style="fill: #f5f1e8"/>
            <path d="M9.68,97.79h0s0,0,0,0h0l0,0-.08.06h.06l.12,0h0l0,0,0,0h0s0,0,0,0,0,0,0,0h0s0,0,0,0H9.58v0h.11l.12,0h.06l0,0h0s0,0,0,0l0,0h0s0,0,0,0H9.72s0,0,0,0v0s0,0,0,0H10l0,0s0,0,0,0,0,0-.05,0h-.3v.16a.19.19,0,0,1,0,.08,0,0,0,0,1,0,0,0,0,0,0,0,0,0v-.23h0a.75.75,0,0,0-.21,0H9.36l0,0s0,0,0,0h.33a.35.35,0,0,0,0-.06v0h-.1a0,0,0,0,0,0,0l0,0a.17.17,0,0,1,0-.05h0s0,0,0-.08V98a.17.17,0,0,0,0-.08h0v0h.06l.06-.07a.39.39,0,0,0,0-.06Zm-.11.43h.25v0s0,0,0,0H9.7l-.11,0h0v.07Zm0-.18.17,0H9.8V98s0,0,0,0H9.58V98Z" style="fill: #f5f1e8"/>
            <path d="M9.81,98.88h0s0,0,0,0a0,0,0,0,1,0,0v0h.09l0,0h0s0,0,0,0H9.82a.29.29,0,0,1,0,.08h.05l0,0s0,0,0,0h0a.05.05,0,0,0,0,0l0,.12s0,0,0,0,0,0,0,0H9.7v.06h.24l.05,0s0,0,0,0,0,0,0,0,0,0,0,.06v.08a.12.12,0,0,1,0,.09l0,0h0a.21.21,0,0,0,0-.07v0h0l.05,0a0,0,0,0,0,0,0,.27.27,0,0,0,0-.11.35.35,0,0,0,0-.06H9.7v.07h.09l0,0s0,0,0,0h0l0,0,0,0s0,0,0,0v0s0,0,0,0h0a.09.09,0,0,0,0,0h0c-.09,0-.13,0-.13,0H9.59l0,0,0,0s0,0,0,0h.12v-.08l-.16,0v.17s0,0,0,0h0s0,0,0,0a0,0,0,0,1,0,0v-.06a.38.38,0,0,0,0-.1h0l0,0s0,0,0,0,0,0,0,0h.07v0h0a0,0,0,0,1,0,0h.16v-.07h-.1a0,0,0,0,1,0,0v-.07s0,0,0-.06a.05.05,0,0,0,0,0h0a.71.71,0,0,0,.21,0h0l0-.09h0s0,0,0,0h.08v-.09S9.8,98.88,9.81,98.88Zm-.28,0h.05a0,0,0,0,1,0,0V99h0s0,0,0,0H9.6v0s0,0,0,0a.05.05,0,0,1,0,0v0H9.52l0,0h0a0,0,0,0,1,0,0s0,0,0,0,0,0,0,0h.15a.26.26,0,0,1,0-.07,0,0,0,0,1,0,0S9.52,98.91,9.53,98.91Zm0,.31h.09v0a0,0,0,0,0,0,0H9.55v.06Zm0,.08h.08v-.06H9.57Zm.12-.15s0,0,0,0h0v0h.07s0,0,0,0h0v0s0,0,0,0Zm0,.09v.05h.1s0,0,0-.07H9.7Z" style="fill: #f5f1e8"/>
            <path d="M9.67,100.07l0,0s0,0,0,0,0,0,0,0l-.11,0v.1h.1l0,0h0l-.1,0s0,.06,0,.09h.06l0,0,0,0h0s0,0,0,0l-.14,0a0,0,0,0,0,0,0,.54.54,0,0,1-.08.17l-.07,0h0s0,0,0,0a.44.44,0,0,0,.09-.18s0,0,0,0l-.08,0H9.35s0,0,0,0h0l.19,0s0-.06,0-.09H9.4l0,0h0l.14,0v-.09h0l-.12,0h0l.14-.06v-.09a.11.11,0,0,0,0-.06,0,0,0,0,0,0,0h0a.06.06,0,0,1,.05,0s0,0,0,0v0s0,0,0,.07l.06,0Zm.3,0,0,0a0,0,0,0,1,0,0h0l0,0c0,.06-.06.08-.06.09h0a.24.24,0,0,1,.09.08.36.36,0,0,1,0,.11.14.14,0,0,1,0,.06l0,0s0,0,0,0l-.1-.08h0l.08,0s0,0,0,0a.25.25,0,0,0,0-.07.22.22,0,0,0-.05-.08s0,0,0,0a0,0,0,0,1,0,0l0-.07a.18.18,0,0,0,0-.06,0,0,0,0,0,0,0h-.1v0a.19.19,0,0,0,0,.08v.34c0,.07,0,.12,0,.17a.11.11,0,0,1,0,0s0,0,0,0v-.58a.13.13,0,0,0,0-.06h0s0,0,0,0h.05l.12,0Z" style="fill: #f5f1e8"/>
            <path d="M9.48,101.34l0,0,0,0s0,0,0,0a.12.12,0,0,0,0,0l0,0,0,0a.1.1,0,0,1,0,.08s0,0,0,0h.06a.9.9,0,0,0,.22.07l.31,0s0,0,0,0l-.06,0-.16,0-.09,0-.27-.12H9.37l0,0s0,0,0,0,0,0,0,0h.15v0a.21.21,0,0,0-.05-.12h0l0-.06h-.1s0,0,0,0h0l.11,0Zm-.08-.18h.06l0,0s0,0,0,0,0,0,0,0,0,0-.05,0,0,0,0-.06Zm.47-.06.05,0,0,0h0l-.08,0,0,0h0s0,0,0,0a0,0,0,0,1,0,0h.11l0,0s0,0,0,0h0a.2.2,0,0,0,0,.09s0,.08,0,.1v.06a.15.15,0,0,1,0,.08s0,0,0,0a0,0,0,0,1,0,0l-.06-.06v0h.06a0,0,0,0,0,0,0s0,0,0-.1H9.81v0a.19.19,0,0,1,0,.08s0,0,0,0a0,0,0,0,1,0,0v-.12h-.1v.11l0,0,0,0a.43.43,0,0,0,0,0h0a.2.2,0,0,0,0-.07s0-.06,0-.1a.56.56,0,0,0,0-.07v0h.16l-.06-.07h.07l.06-.07v0h0l-.12,0h0l0,0s0,0,0,0h.12l.09,0Zm-.2.41h.1v-.06h-.1Zm0-.09h.1v-.08H9.68a.11.11,0,0,0,0,.05Zm.15,0v.06h.12v-.07H9.82Zm0-.1v.07h.11v-.07h-.1Z" style="fill: #f5f1e8"/>
          </g>
          <g>
            <path d="M44.75,91.4h0l0,0a.06.06,0,0,1,0,0v0h.09s.06,0,.07,0h0l0,0h-.26l-.2,0v0a1.7,1.7,0,0,1,0,.28.44.44,0,0,1-.06.16.21.21,0,0,1-.08.1h0l.06-.11a.83.83,0,0,0,.06-.21,1.49,1.49,0,0,0,0-.21s0,0,0,0h0s0,0,0,0h0l.28,0h0l0-.08h0Zm0,.22h0s0,0,0,0h-.06l0,.07h.11s0,0,0,0h0s0,0,0,0l0,.08,0,0h-.06l0,0v0h.11s0,0,0,0h-.09v.14a0,0,0,0,1,0,0s0,0,0,0v0s0,0,0,0v0s0,0,0-.1h-.15v0a0,0,0,0,1,0,0l.15,0a.11.11,0,0,0,0,0h0a0,0,0,0,1,0,0s0,0,0,0v0s0,0,0,0a0,0,0,0,0,0,0h.09a.19.19,0,0,1,0-.08h0v-.08h0s0,0,0,0h0l0,0h0s0,0,0,0h0Zm-.13.19h.14v0s0,0,0,0h-.14s0,0,0,0Zm0,.06h.12a.18.18,0,0,1,0-.06h-.14S44.66,91.86,44.66,91.87Zm.21-.25H45l0,0s0,0,0,0h0a.22.22,0,0,0,0,.09v.3a.17.17,0,0,1,0,.08l0,0h0l0-.07H45a1.36,1.36,0,0,1,0-.16h-.11v0a.46.46,0,0,1,0,.09l-.05.07,0,0h0a.44.44,0,0,0,.05-.09l0-.1s0-.08,0-.13v0s0-.06,0-.08a0,0,0,0,0,0,0h0Zm0,.27H45a.38.38,0,0,0,0-.1h-.09v0A.19.19,0,0,1,44.91,91.89Zm0-.12H45v-.12a0,0,0,0,1,0,0h-.07a.11.11,0,0,0,0,0Z" style="fill: #f5f1e8"/>
            <path d="M44.75,92.48l0,0,0,0a0,0,0,0,1,0,0,.05.05,0,0,1,0,0l.19,0h0s0,0,0,0,0,0,0,0,0,0,0,0l-.12,0h0a.3.3,0,0,0,.06-.09h0a2.31,2.31,0,0,0-.39,0h-.05s0,0,0,0a.16.16,0,0,1,0,.06h0s0,0,0,0,0,0,0,0a0,0,0,0,1,0,0,.25.25,0,0,0,0-.11h0a0,0,0,0,1,0,0v0h.23l0,0a.15.15,0,0,1,0-.06Zm.14.24h0s0,0,0,0,0,0,0,0h-.11l0,0v.09H45l0,0s0,0,0,0,0,0,0,0h-.22v.12a.51.51,0,0,1,0,.16s0,0,0,0v0l-.07-.08a0,0,0,0,1,0,0h.08v-.06a.41.41,0,0,0,0-.12v0h0l-.16,0h-.07s0,0,0,0h.28s0-.06,0-.08,0,0,0,0h-.06s-.05,0-.05,0,0,0,0,0h.16l.08,0Z" style="fill: #f5f1e8"/>
            <path d="M44.56,93.56h0s0,0,0,0v.25h.12v0s0,0,0,0h-.07a0,0,0,0,1,0,0v0a.5.5,0,0,0,0,.15s0,0,0,0l.06,0h0l-.09.1h0a0,0,0,0,0,0,0s0,0,0,0a.1.1,0,0,0,0,0v-.13a.07.07,0,0,0,0,0v0l-.05,0h0l0,0h0l0,0a.37.37,0,0,1,0,.11.19.19,0,0,1-.07.08h0l.06-.09a.3.3,0,0,0,0-.1.17.17,0,0,0,0-.07h-.1a0,0,0,0,1,0,0h0l.15,0v-.24s0,0,0,0v0Zm-.11.14h0l0,0s0,0,0,0,0,0,0,0h0l0-.07h0Zm.23,0h0s0,0,0,0h0l-.07.08h0a.14.14,0,0,0,0-.06.13.13,0,0,0,0-.06Zm.11-.08v0h0l.2,0h.06l0,0s0,0,0,0h0l-.06,0h0s0,0,0-.06a0,0,0,0,0,0,0h-.12s0,0,0,0v0H45s0,0,0,0h-.1v.06H45a.06.06,0,0,1,0,0l0,0h0l0,0,0,.11,0,0s0,0,0,0h-.06v.07h0l.1,0h0l0,0,0,0s0,0,0,0h-.19v0c0,.07,0,.12,0,.17a.11.11,0,0,1,0,0s0,0,0,0a.62.62,0,0,1,0-.15v-.06h-.12l0,0h.15V94h0s0,0,0,0h0s0,0,0,0v-.06a.18.18,0,0,1,0-.06s0,0,0,0h.12v-.06h0v-.08h-.08a.06.06,0,0,1,0,0s0,0,0,0h0s0,0,0,0v0a0,0,0,0,1,0,0l0-.09S44.78,93.58,44.79,93.58Zm0,.31h.07v0h-.07v0Zm0,.07h.06v0h-.06Zm.11-.06v0H45s0,0,0-.07h-.08Zm0-.08v.05H45v0s0,0,0,0Z" style="fill: #f5f1e8"/>
            <path d="M44.42,94.87h0l0,0a.08.08,0,0,1,0,0s0,0,0,0h0l0-.09v0Zm.14-.23,0,0s0,0,0,0v0a.17.17,0,0,0,0,.07v.09l0,0a.21.21,0,0,0,0-.06h0l0,0h0l-.11.08h0a.78.78,0,0,1,0,.16h0l0,0,0,0s0,0,0,0v0h0l0,0,0-.05a.36.36,0,0,1,0,.11l-.07.09-.06,0h0a.33.33,0,0,0,.08-.11.5.5,0,0,0,0-.13.86.86,0,0,0,0-.17v-.16a.08.08,0,0,1,0,0,0,0,0,0,1,0,0S44.54,94.64,44.56,94.64ZM45,95h0s0,0,0,0h-.13v0h0a0,0,0,0,0,0,0v0h.13a0,0,0,0,1,0,0h-.11v.07h.22l0,0s0,0,0,0H44.7s0,0,0,0h0a.47.47,0,0,0,.12,0h.08V95.2H44.8s0,0,0,0a0,0,0,0,1,0,0h.09v0a0,0,0,0,0,0,0h-.09l0,0h0l.12,0H45Zm-.13-.41h0s0,0,0,0h0l0,0a.27.27,0,0,1-.07.08h0l.13,0h0l.05,0,0,0a0,0,0,0,0,0,0s0,0,0,0L45,95s0,0,0,0l0,0h-.19a0,0,0,0,1,0,0V94.9s0-.05,0-.06,0,0,0,0h0s0,0,0,0h0a.93.93,0,0,0,.05-.1.18.18,0,0,0,0-.06Zm-.06.26.13,0H45v0s0,0,0,0H44.8v.07Zm0,.08H45a.26.26,0,0,1,0-.07h-.19A.18.18,0,0,1,44.82,95Z" style="fill: #f5f1e8"/>
            <path d="M44.48,95.86h.05l.38,0h.14l.05,0,0,0a0,0,0,0,1,0,0s0,0,0,.06l0,.17a.29.29,0,0,1,0,.14l0,0h0l0-.07h-.15l-.16,0h0s0,0,0,0h0s0,0,0,0a0,0,0,0,1,0,0h0s0,0,0,0v-.13a.88.88,0,0,0,0-.14.19.19,0,0,0,0-.08v0S44.47,95.86,44.48,95.86Zm.1.36.31,0H45l0,0a1.24,1.24,0,0,0,0-.27v0h-.17s0,0,0,0h0s0,0,0,0V96a0,0,0,0,0,0,0H45v0a0,0,0,0,1,0,0h-.13A.07.07,0,0,1,44.8,96a.43.43,0,0,0,0-.05V95.9h-.08l0,0h0v0a.64.64,0,0,1,0,.09l0,.06a.1.1,0,0,1,0,0h0l0,0,0,0a.43.43,0,0,0,0-.05s0,0,0,0,0,0,0,0h-.13v0C44.57,96.08,44.57,96.17,44.58,96.22Z" style="fill: #f5f1e8"/>
            <path d="M44.47,97h0l.06,0s0,0,0,0,0,0,0,0h0a.18.18,0,0,1-.06-.08h0S44.46,97,44.47,97Zm.14.13h0a.1.1,0,0,0,0,0s0,.09-.06.15l0,.08s0,0,0,0,0,0,0,0l0,0s0,0,0,0l0,0,.08-.14Zm0-.3h0l0,0s0,0,0,0,0,0,0,0a0,0,0,0,1,0,0,.3.3,0,0,1-.07-.08h0Zm.2.17h0L45,97h0l.06,0a0,0,0,0,1,0,0v0a.08.08,0,0,0,0,.06v0h.13s0,0,0,0H45s0,.09,0,.13h.06s0,0,0,0,0,0,0,0,0,0,0,0h0l-.09,0s0,.06,0,.07a.22.22,0,0,1,0,.08l0,0a0,0,0,0,1,0,0,.45.45,0,0,0-.07-.09h.07s0,0,0,0a.16.16,0,0,0,0-.06h-.18l0,0h0s0,0,0,0,0,0,0,0,0,0,0,0,0,0,0,0a.19.19,0,0,0,0-.07h-.1l0,0h0a.33.33,0,0,0,.1,0,.18.18,0,0,0,0-.06.22.22,0,0,0,0-.09h0A0,0,0,0,1,44.76,97Zm.06-.25h0l0,0s0,0,0,0,0,0,0,0l-.06.08h0l.17,0h.07s0,0,0,0,0,0,0,0h-.24v0l-.07.06h0l.06-.09.06-.1a.15.15,0,0,0,0-.07A0,0,0,0,1,44.82,96.72Zm.16.55h0a.37.37,0,0,0,0-.11h-.2a.36.36,0,0,1,0,.11H45Zm-.18-.14H45s0-.07,0-.1a0,0,0,0,0,0,0h0a.42.42,0,0,0-.15,0h0v0S44.8,97.09,44.8,97.13Zm.05.05h0l0,0a0,0,0,0,1,0,0s0,0,0,0h0s0,0,0-.06h0S44.84,97.17,44.85,97.18Zm0-.16s0,0,0,0a.05.05,0,0,1,0,0s0,0,0,0,0,0,0,0h0l0-.06h0Z" style="fill: #f5f1e8"/>
            <path d="M44.73,98.05l0,0,0,0s0,0,0,0h-.05l0,0h0a0,0,0,0,0,0,0v0h.16v-.08s0-.05,0-.06v0h0l0,0v0a.07.07,0,0,0,0,0v.06H45l0,0s0,0,0,0h-.17v.15a.36.36,0,0,1,0,.11s0,0,0,0a0,0,0,0,1,0,0v-.27h-.17s0,0,0,0l-.06.09-.09,0a.1.1,0,0,1-.06,0h0l.1-.07a.33.33,0,0,0,.06-.1v0l-.08,0h-.08l0,0s0,0,0,0h.17v0a.07.07,0,0,0,0,0h0l-.08,0s0,0,0,0h0l.1,0,.07-.06Zm-.12-.24h0l.21,0h.06l0,0,0,0s0,0,0,0,0,0,0,0l0,.12s0,0,0,0,0,0,0,0h-.2v0h0a0,0,0,0,1,0,0,0,0,0,0,1,0,0v-.06a.23.23,0,0,1,0-.07l0,0h0Zm.06.1h0l.16,0h.07v0s0,0,0,0l-.13,0h-.1v.06Zm0,.09h.21a.56.56,0,0,0,0-.07h-.22Z" style="fill: #f5f1e8"/>
            <path d="M44.91,98.87h0s0,0,0,0h0l-.11,0h0s0,0,0,0v0a.19.19,0,0,0,0,.08v.14h0l.18,0h0l0,0s0,0,0,0,0,0-.05,0h-.3v.16a.88.88,0,0,1,0,.17s0,0,0,0a0,0,0,0,1,0,0v-.34h0a.76.76,0,0,0-.21,0h-.09s0,0,0,0h.34V99s0,0,0-.07h-.13s0,0,0,0h0l.15,0,.09,0Zm-.33.15h0a.1.1,0,0,1,0,0,.08.08,0,0,1,0,.06s0,0,0,0h0L44.58,99v0Zm.4,0,0,0s0,0,0,0,0,0,0,0l-.13.11h0a.22.22,0,0,0,0-.08A.3.3,0,0,0,45,99Z" style="fill: #f5f1e8"/>
            <path d="M44.86,99.92l0,0a.07.07,0,0,1,0,0s0,0,0,0l-.12,0h0l0,0v0a.15.15,0,0,0,0,.07v0h0l.17,0h.08s0,0,0,0,0,0,0,0h-.26v.24a.71.71,0,0,1,0,.15s0,0,0,0a0,0,0,0,1,0,0s0-.08,0-.14v-.26h0l-.2,0h-.08l0,0s0,0,0,0h.31v-.15h0a.28.28,0,0,1-.11,0h0l.13,0,.09-.07Z" style="fill: #f5f1e8"/>
            <path d="M44.7,101h0l0,0v.13h.07V101a0,0,0,0,0,0,0h0s0,0,0,0h0a0,0,0,0,1,0,0h0a0,0,0,0,0,0,0v.12h.25s0,0,0,0,0,0,0,0H44.9l0,0v0l0,0,0,0H45l0,0h-.17a0,0,0,0,0,0,0v0H45s0,0,0,0h-.12v0h.24l0,0s0,0,0,0H45a.56.56,0,0,0-.13,0v.07s0,.06,0,.09v0a.06.06,0,0,1,0,0h0s0,0,0,0,0,0,0,0h0v-.17l-.14,0h-.07l0,0h.23v0h-.11s0,0,0,0h.13s0,0,0,0h-.13s0,0,0,0h0l.12,0h0l0-.08h0l-.1,0h-.08s0,0,0,0h.24a0,0,0,0,1,0,0V101l0,0h0S44.69,101,44.7,101Zm0,.56h0a0,0,0,0,1,0,0h0l0,0,0,0-.06,0,0,0h0l0,0,.06,0s0,0,0,0,0,0,0,0Zm-.11-.51h0l0,0a.05.05,0,0,1,0,0l0,0h0l-.05-.07h0Zm.18.26h.07a.39.39,0,0,0,0-.06.08.08,0,0,0,0,0v0h-.15s0,0,0,0,0,0,0,0A0,0,0,0,1,44.76,101.3Zm.13.25h0l.07,0s0,0,0,0a.08.08,0,0,1,0,0h0l-.05-.06-.06-.07s0,0,0,0ZM45,101l0,0,0,0h0l-.05,0-.07,0h0l0,0,0-.06A0,0,0,0,1,45,101Z" style="fill: #f5f1e8"/>
            <path d="M44.58,102.57h.09l.23,0H45l0,0a0,0,0,0,1,0,0l0,.07,0,0h.12l0,0s0,0,0,0h-.63l-.05,0s0,0,0,0,0,0,0,0h.15a0,0,0,0,1,0,0v0a.12.12,0,0,0,0,0,.05.05,0,0,0,0,0h0S44.57,102.57,44.58,102.57Zm.35-.42h0s0,0,0,0h-.13v0a.59.59,0,0,0,.06.14h0l0,0a.2.2,0,0,0,0-.07v0s0,0,0,0l0,0,0,0h0s0,0,0,0l-.06.08,0,0s0,0,.06,0a0,0,0,0,0,0,0v0h0a.71.71,0,0,0,0,.12v0a0,0,0,0,1,0,0,.17.17,0,0,1-.12-.06l-.06-.06a.24.24,0,0,1-.11.06l0,0h0l.11-.09,0,0a.05.05,0,0,1,0,0,.53.53,0,0,1-.06-.19h0l-.15,0h0a.19.19,0,0,1,0,.08h.15s0,0,0,0h0s0,0,0,0a.22.22,0,0,1,0,.09.05.05,0,0,1,0,0h0a.21.21,0,0,0,0-.06h0l.06,0h0a.17.17,0,0,1,0,0v-.05s0,0,0,0h0l0,0h0s0,0,0,.06a.31.31,0,0,1-.05.1.23.23,0,0,1-.07.07h0l.05-.06a.5.5,0,0,0,0-.13.49.49,0,0,0,0-.12,0,0,0,0,0,0,0h0l0,0a0,0,0,0,1,0,0l.26,0v0a.14.14,0,0,0,0-.06s0,0,0,0,0,0,0,0l.05,0s0,0,0,0v.1h.08Zm-.28.59h.08l0-.11v0h-.06s0,.09,0,.11Zm.11,0h.06v-.13h-.07v.12Zm.08,0h.09a.23.23,0,0,1,0-.07.2.2,0,0,1,0-.05s0,0,0,0h0v.06A.24.24,0,0,1,44.84,102.73Zm.08-.68H45s0,0,0,0a0,0,0,0,1,0,0h0l0-.05h0S44.91,102.05,44.92,102.05Z" style="fill: #f5f1e8"/>
          </g>
        </g>
        <g>
          <path d="M77.23,95.53v-4.2l-1.6,1.41H48.12l-1.6-1.41v4.2h-.1L43.52,100h.18v12.34H54.78V113H69v-1.31h0v.65H80.29V100ZM46.58,111.69V100h0v11.69Z" style="fill: #c6c6c5"/>
          <polygon points="46.52 91.33 48.12 92.74 43.84 98.72 41.96 96.96 46.52 91.33" style="fill: #e95288"/>
          <g>
            <polygon points="44.03 98.62 48.2 92.79 75.43 92.83 70.94 98.62 44.03 98.62" style="fill: #f5f1e8"/>
            <path d="M75.24,92.93l-4.35,5.6H44.21l4-5.6h27m.39-.19H48.12l-4.28,6H71l4.64-6Z" style="fill: #f092b6"/>
          </g>
          <rect x="42.05" y="105.64" width="30.8" height="11.69" style="fill: #f092b6"/>
          <g>
            <polygon points="42.05 117.28 42.1 115.87 52.53 115.93 52.48 117.28 42.05 117.28" style="fill: #e7326e"/>
            <path d="M52.42,116v1.24H42.15V116H52.42m.11-.11H42.05v1.46H52.53v-1.46Z" style="fill: #a4d3d3"/>
          </g>
          <g>
            <rect x="44.63" y="104.84" width="27.35" height="1.74" style="fill: #a4d3d3"/>
            <path d="M71.77,105.05v1.32H44.83v-1.32H71.77m.41-.41H44.42v2.14H72.18v-2.14Z" style="fill: #e7326e"/>
          </g>
          <rect x="42.05" y="115.53" width="10.48" height="0.34" style="fill: #e95288"/>
          <g>
            <polygon points="62.27 117.28 62.32 115.87 72.85 115.93 72.8 117.28 62.27 117.28" style="fill: #e7326e"/>
            <path d="M72.75,116v1.24H62.37V116H72.75m.1-.11H62.27v1.46H72.85v-1.46Z" style="fill: #a4d3d3"/>
          </g>
          <rect x="62.27" y="115.53" width="10.59" height="0.34" style="fill: #e95288"/>
          <polyline points="38.96 105.64 41.87 101.17 41.09 101.17 72.67 101.17 75.73 105.64" style="fill: #e7326e"/>
          <rect x="41.96" y="99.98" width="30.71" height="1.19" style="fill: #e7326e"/>
          <rect x="43.42" y="98.37" width="27.65" height="1.6" style="fill: #6bbea1"/>
          <rect x="43.84" y="98.72" width="26.8" height="0.92" style="fill: #a4d3d3"/>
          <polyline points="43.57 98.38 43.57 99.98 41.96 99.98 41.96 96.96 43.57 98.38" style="fill: #f092b6"/>
          <polygon points="71.07 98.38 71.07 99.98 72.67 99.98 72.67 96.96 71.07 98.38" style="fill: #f092b6"/>
          <g>
            <line x1="41.06" y1="105.71" x2="43.42" y2="101.07" style="fill: none;stroke: #fff;stroke-linecap: round;stroke-linejoin: round;stroke-width: 0.247527121261879px"/>
            <line x1="43.14" y1="105.71" x2="45.2" y2="101.07" style="fill: none;stroke: #fff;stroke-linecap: round;stroke-linejoin: round;stroke-width: 0.247527121261879px"/>
            <line x1="45.22" y1="105.71" x2="46.97" y2="101.07" style="fill: none;stroke: #fff;stroke-linecap: round;stroke-linejoin: round;stroke-width: 0.247527121261879px"/>
            <line x1="47.29" y1="105.7" x2="48.75" y2="101.07" style="fill: none;stroke: #fff;stroke-linecap: round;stroke-linejoin: round;stroke-width: 0.247527121261879px"/>
            <line x1="49.37" y1="105.7" x2="50.53" y2="101.07" style="fill: none;stroke: #fff;stroke-linecap: round;stroke-linejoin: round;stroke-width: 0.247527121261879px"/>
            <line x1="51.45" y1="105.69" x2="52.31" y2="101.07" style="fill: none;stroke: #fff;stroke-linecap: round;stroke-linejoin: round;stroke-width: 0.247527121261879px"/>
            <line x1="53.52" y1="105.69" x2="54.09" y2="101.07" style="fill: none;stroke: #fff;stroke-linecap: round;stroke-linejoin: round;stroke-width: 0.247527121261879px"/>
            <line x1="55.6" y1="105.68" x2="55.87" y2="101.07" style="fill: none;stroke: #fff;stroke-linecap: round;stroke-linejoin: round;stroke-width: 0.247527121261879px"/>
            <line x1="57.68" y1="105.68" x2="57.64" y2="101.07" style="fill: none;stroke: #fff;stroke-linecap: round;stroke-linejoin: round;stroke-width: 0.247527121261879px"/>
            <line x1="59.75" y1="105.67" x2="59.42" y2="101.07" style="fill: none;stroke: #fff;stroke-linecap: round;stroke-linejoin: round;stroke-width: 0.247527121261879px"/>
            <line x1="61.83" y1="105.67" x2="61.2" y2="101.07" style="fill: none;stroke: #fff;stroke-linecap: round;stroke-linejoin: round;stroke-width: 0.247527121261879px"/>
            <line x1="63.91" y1="105.66" x2="62.98" y2="101.07" style="fill: none;stroke: #fff;stroke-linecap: round;stroke-linejoin: round;stroke-width: 0.247527121261879px"/>
            <line x1="65.98" y1="105.66" x2="64.76" y2="101.07" style="fill: none;stroke: #fff;stroke-linecap: round;stroke-linejoin: round;stroke-width: 0.247527121261879px"/>
            <line x1="68.06" y1="105.65" x2="66.54" y2="101.07" style="fill: none;stroke: #fff;stroke-linecap: round;stroke-linejoin: round;stroke-width: 0.247527121261879px"/>
            <line x1="70.14" y1="105.65" x2="68.31" y2="101.07" style="fill: none;stroke: #fff;stroke-linecap: round;stroke-linejoin: round;stroke-width: 0.247527121261879px"/>
            <line x1="72.22" y1="105.64" x2="70.09" y2="101.07" style="fill: none;stroke: #fff;stroke-linecap: round;stroke-linejoin: round;stroke-width: 0.247527121261879px"/>
            <line x1="74.29" y1="105.64" x2="71.87" y2="101.07" style="fill: none;stroke: #fff;stroke-linecap: round;stroke-linejoin: round;stroke-width: 0.247527121261879px"/>
          </g>
          <polygon points="60.98 117.33 59.73 117.33 59.73 109.96 55.08 109.96 55.08 117.33 53.8 117.33 53.72 107.64 60.9 107.64 60.98 117.33" style="fill: #e95288"/>
          <rect x="55.51" y="110.31" width="3.66" height="6.81" style="fill: #e7326e"/>
          <rect x="61.03" y="111.48" width="1.56" height="4.39" style="fill: #6bbea1"/>
          <rect x="52.19" y="111.48" width="1.52" height="4.39" style="fill: #6bbea1"/>
          <g>
            <path d="M55.69,108.16s0,0-.08.07a.72.72,0,0,1-.23,0c0,.06-.07.08-.1.08h0l0,0-.21,0a.53.53,0,0,0,0,.11l.07,0a.18.18,0,0,1,.07-.09.2.2,0,0,1,.08,0,.08.08,0,0,1,.09.06.18.18,0,0,1-.08.09l-.06,0h0l.09,0,.07,0a.06.06,0,0,1,0,.06.34.34,0,0,1-.07.16l-.12.07a.11.11,0,0,1,0,0,.2.2,0,0,1,.1,0h0l0,0a.14.14,0,0,1,0,.06l-.12,0a.32.32,0,0,0,0,.14.09.09,0,0,1-.06.08s0,0,0,0,0,0,0,0v-.17l-.14,0c-.05,0-.08,0-.08-.07s0,0,.1,0l.11,0a.07.07,0,0,0,0,0,.13.13,0,0,1-.08,0,.09.09,0,0,1-.06,0l0,0a2.85,2.85,0,0,0-.17.35s0,0,0,0,0,0,0,0,0-.16.07-.28.07-.25.1-.36a1,1,0,0,1,.07-.2l.05-.07s0-.05,0-.09a.17.17,0,0,1,.13,0h.1a.06.06,0,0,1,0-.08.17.17,0,0,1,.14.06.56.56,0,0,0,.13,0l.11,0h.06A.05.05,0,0,1,55.69,108.16Zm-.71.46v0a.05.05,0,0,1,0,0l0,.07h0Zm.17,0-.23.1a.21.21,0,0,0,0,.1.46.46,0,0,0,.14,0A.23.23,0,0,0,55.15,108.65Zm0,.11-.08,0h0s0,0,0,0,0,0,0,0a.13.13,0,0,1,.12,0s0,0,0,0A0,0,0,0,1,55.12,108.76Zm.66.41h0a.19.19,0,0,1-.17.13s0,0-.06,0,0,0,0,0,0,0,0,0a.11.11,0,0,0,0,0s0,0,0,0,0,0,0,0a.13.13,0,0,0,0-.08V109a.62.62,0,0,0-.19,0l-.07.22s0,0,0,0l0,0s0,0,0,0,0-.22.07-.5h0l0-.32s0,0,0,0l0,0a.29.29,0,0,1,.16,0s0,0,.06,0,0,0,.08.06a.14.14,0,0,1,0,.12c0,.15,0,.3,0,.45a.86.86,0,0,1,0,.15Zm-.19-.33v-.14a.19.19,0,0,1-.15,0l0,.11.11,0Zm0-.27h0v-.12a0,0,0,0,0-.06,0l-.08,0v.09h0A.29.29,0,0,0,55.59,108.57Z" style="fill: #f5f1e8"/>
            <path d="M57.29,108.53s0,0-.11,0l-.41.06a.31.31,0,0,1-.11.17l.16,0a.08.08,0,0,1,.06,0,.13.13,0,0,1,.09,0H57a.21.21,0,0,1,0,.13.39.39,0,0,1,0,.13.63.63,0,0,1-.07.12.11.11,0,0,1,0,.07.06.06,0,0,1,0,0,.12.12,0,0,1-.09,0h-.07a.79.79,0,0,0-.26,0l-.08,0a.66.66,0,0,1-.1-.17.57.57,0,0,1-.06-.21.08.08,0,0,1,0-.06.09.09,0,0,1,.07,0h0a.49.49,0,0,0,.09-.18l-.15.06h-.06a.28.28,0,0,1-.14-.06s-.07,0-.08-.07a.16.16,0,0,1,.08-.14l.38,0v-.21a.1.1,0,0,1,.1-.07h0l.08.07a.19.19,0,0,1,0,.07.23.23,0,0,1,0,.12l.22,0h.08a.08.08,0,0,1,.06,0A.27.27,0,0,1,57.29,108.53Zm-.45.42-.13,0a.33.33,0,0,0-.15,0,.28.28,0,0,1,0,.12.86.86,0,0,1,.17,0A.36.36,0,0,0,56.84,109Z" style="fill: #f5f1e8"/>
            <path d="M58.46,108.2s0,0,0,0a.07.07,0,0,1,0,0,1.91,1.91,0,0,1-.41.11s0,0,0,0l0,.07,0,.08,0,.09a.17.17,0,0,0,0,.07.37.37,0,0,0,0,.11s0,0,0,.05l-.14.28a.13.13,0,0,1-.09.1s0,0,0,0,0,0,0,0a.46.46,0,0,1,0-.14l.12-.27a2.65,2.65,0,0,1,.11-.27l0-.09a.2.2,0,0,1,0-.05,1,1,0,0,1,.07-.16s0-.07.08-.07a.36.36,0,0,0,.14,0l.18,0a.2.2,0,0,1,.1,0Zm0,.64.06,0,.06,0a.09.09,0,0,1,0,.07s0,0,0,0a1.87,1.87,0,0,1-.08.21.06.06,0,0,1,0,.06.13.13,0,0,1,0,.07.06.06,0,0,1-.06,0h-.07l-.27,0h0a.07.07,0,0,1-.06,0l-.1-.2a.39.39,0,0,1,0-.13.12.12,0,0,1,0-.09s0,0,.06,0h0A3,3,0,0,1,58.47,108.84Zm.1-.27h0a.11.11,0,0,1,0,.05s0,.06-.09.07l-.25.06-.15,0h0s0,0-.05,0a.05.05,0,0,1,0,0,.19.19,0,0,1,0-.08l.07,0,.12,0h.1l.11,0,.07,0,.07,0Zm-.17.45-.14,0a.34.34,0,0,0-.14,0l0,.09h.15A.24.24,0,0,0,58.4,109Z" style="fill: #f5f1e8"/>
            <path d="M60.3,109.32h0s0,0,0,0,0,0,0,0h-.07a.11.11,0,0,1-.08,0s0,0-.08,0a1.1,1.1,0,0,1-.38-.24,1.14,1.14,0,0,1-.15-.23h0a.45.45,0,0,1-.11.19.67.67,0,0,1-.2.16.68.68,0,0,0-.14.09h0a0,0,0,0,1,0,0,0,0,0,0,1,0,0,1,1,0,0,1,.18-.19,1,1,0,0,0,.15-.2h-.07l-.05,0-.08-.09s0,0,0,0a.08.08,0,0,1,0,0,.28.28,0,0,1,.1,0l.19-.06a.42.42,0,0,0,0-.17.06.06,0,0,1,0,0,.14.14,0,0,1-.09,0,.23.23,0,0,1-.07-.08.17.17,0,0,1,0-.05s0,0,.09,0a2.58,2.58,0,0,0,.34-.07h.08a.18.18,0,0,1,.09,0,.08.08,0,0,1,0,.06s0,0,0,.07l0,0-.17,0s0,.1,0,.15a.49.49,0,0,0,.14,0h0s0,0,0,0a.16.16,0,0,1,.08.05.11.11,0,0,1,0,.08s0,0,0,0l-.24.07a1.07,1.07,0,0,0,.26.26l.23.18C60.25,109.28,60.29,109.3,60.3,109.32Z" style="fill: #f5f1e8"/>
          </g>
          <polygon points="43.52 105.64 41.98 105.64 41.98 115.53 43.52 114.48 43.52 105.64" style="fill: #e7326e"/>
          <g>
            <rect x="72.93" y="105.71" width="2.72" height="12.19" style="fill: #e95288"/>
            <path d="M75.57,105.79v12H73v-12h2.56m.16-.15H72.85V118h2.88V105.64Z" style="fill: #f5f1e8"/>
          </g>
          <g>
            <line x1="42.02" y1="111.54" x2="50.59" y2="111.54" style="fill: none;stroke: #f5f1e8;stroke-linecap: round;stroke-linejoin: round;stroke-width: 0.263722126756881px"/>
            <g>
              <line x1="42.36" y1="110.52" x2="42.36" y2="115.57" style="fill: none;stroke: #f5f1e8;stroke-linecap: round;stroke-linejoin: round;stroke-width: 0.158233276054129px"/>
              <line x1="42.92" y1="110.52" x2="42.92" y2="115.57" style="fill: none;stroke: #f5f1e8;stroke-linecap: round;stroke-linejoin: round;stroke-width: 0.158233276054129px"/>
              <line x1="43.49" y1="110.52" x2="43.49" y2="115.57" style="fill: none;stroke: #f5f1e8;stroke-linecap: round;stroke-linejoin: round;stroke-width: 0.158233276054129px"/>
              <line x1="44.05" y1="110.52" x2="44.05" y2="115.57" style="fill: none;stroke: #f5f1e8;stroke-linecap: round;stroke-linejoin: round;stroke-width: 0.158233276054129px"/>
              <line x1="44.61" y1="110.52" x2="44.61" y2="115.57" style="fill: none;stroke: #f5f1e8;stroke-linecap: round;stroke-linejoin: round;stroke-width: 0.158233276054129px"/>
              <line x1="45.17" y1="110.52" x2="45.17" y2="115.57" style="fill: none;stroke: #f5f1e8;stroke-linecap: round;stroke-linejoin: round;stroke-width: 0.158233276054129px"/>
              <line x1="45.73" y1="110.52" x2="45.73" y2="115.57" style="fill: none;stroke: #f5f1e8;stroke-linecap: round;stroke-linejoin: round;stroke-width: 0.158233276054129px"/>
              <line x1="46.29" y1="110.52" x2="46.29" y2="115.57" style="fill: none;stroke: #f5f1e8;stroke-linecap: round;stroke-linejoin: round;stroke-width: 0.158233276054129px"/>
              <line x1="46.85" y1="110.52" x2="46.85" y2="115.57" style="fill: none;stroke: #f5f1e8;stroke-linecap: round;stroke-linejoin: round;stroke-width: 0.158233276054129px"/>
              <line x1="47.41" y1="110.52" x2="47.41" y2="115.57" style="fill: none;stroke: #f5f1e8;stroke-linecap: round;stroke-linejoin: round;stroke-width: 0.158233276054129px"/>
              <line x1="47.98" y1="110.52" x2="47.98" y2="115.57" style="fill: none;stroke: #f5f1e8;stroke-linecap: round;stroke-linejoin: round;stroke-width: 0.158233276054129px"/>
              <line x1="48.54" y1="110.52" x2="48.54" y2="115.57" style="fill: none;stroke: #f5f1e8;stroke-linecap: round;stroke-linejoin: round;stroke-width: 0.158233276054129px"/>
              <line x1="49.1" y1="110.52" x2="49.1" y2="115.57" style="fill: none;stroke: #f5f1e8;stroke-linecap: round;stroke-linejoin: round;stroke-width: 0.158233276054129px"/>
              <line x1="49.66" y1="110.52" x2="49.66" y2="115.57" style="fill: none;stroke: #f5f1e8;stroke-linecap: round;stroke-linejoin: round;stroke-width: 0.158233276054129px"/>
              <line x1="50.22" y1="110.52" x2="50.22" y2="115.57" style="fill: none;stroke: #f5f1e8;stroke-linecap: round;stroke-linejoin: round;stroke-width: 0.158233276054129px"/>
            </g>
          </g>
          <g>
            <path d="M49.27,109.37c-.29,0-.53-.16-.53-.36s-.23-.37-.51-.37h-4c-.28,0-.51.16-.51.36s-.23.36-.53.36l-1.1,0v-.76l.56,0a1.73,1.73,0,0,1,.16-.38.85.85,0,0,1,.75-.35h5.37a.85.85,0,0,1,.75.36,1,1,0,0,1,.13.36l.76,0,0,.73Z" style="fill: #f5f1e8"/>
            <path d="M48.91,107.94a.83.83,0,0,1,.73.34.85.85,0,0,1,.12.35v.05h.73l0,.67H49.27c-.27,0-.5-.16-.5-.34v0c0-.21-.24-.38-.54-.38h-4c-.29,0-.53.17-.53.39s-.23.33-.51.34H42.12l0-.67h.58v0a.8.8,0,0,1,.12-.35.82.82,0,0,1,.73-.34h5.37m0-.06H43.54a.9.9,0,0,0-.78.37,1.15,1.15,0,0,0-.13.37h-.58l0,.78,1.1,0c.31,0,.56-.18.56-.39h0c0-.19.22-.33.48-.33h4c.27,0,.48.14.49.33h0c0,.21.24.39.55.39l1.26,0,0-.79h-.74a.81.81,0,0,0-.13-.37.88.88,0,0,0-.77-.37Z" style="fill: #a4d3d3"/>
          </g>
          <g>
            <polygon points="50.54 115.85 50.57 105.64 52.09 105.66 52.06 115.85 50.54 115.85" style="fill: #f5f1e8"/>
            <path d="M52,105.69v10.13H50.59V105.69H52m.06,0H50.54v10.23h1.55V105.64Z" style="fill: #a4d3d3"/>
          </g>
          <rect x="52.08" y="105.64" width="0.64" height="10.24" style="fill: #e95288"/>
          <rect x="64.15" y="105.64" width="0.64" height="10.24" style="fill: #e95288"/>
          <g>
            <polygon points="50.22 116.66 50.25 115.87 52.41 115.9 52.38 116.66 50.22 116.66" style="fill: #f5f1e8"/>
            <path d="M52.35,115.93v.7H50.27v-.7h2.08m.06-.06H50.22v.82h2.19v-.82Z" style="fill: #a4d3d3"/>
          </g>
          <rect x="52.41" y="115.87" width="0.54" height="0.81" style="fill: #e95288"/>
          <g>
            <polygon points="50.22 118.61 50.25 116.69 52.41 116.71 52.38 118.61 50.22 118.61" style="fill: #f5f1e8"/>
            <path d="M52.35,116.74v1.84H50.27v-1.84h2.08m.06,0H50.22v2h2.19v-2Z" style="fill: #a4d3d3"/>
          </g>
          <g>
            <polygon points="42.02 117.95 42.05 117.33 50.22 117.36 50.19 117.95 42.02 117.95" style="fill: #f5f1e8"/>
            <path d="M50.16,117.39v.53H42.08v-.53h8.08m.06-.06H42V118h8.2v-.65Z" style="fill: #a4d3d3"/>
          </g>
          <g>
            <polygon points="64.47 117.95 64.5 117.33 72.85 117.36 72.83 117.95 64.47 117.95" style="fill: #f5f1e8"/>
            <path d="M72.79,117.39v.53H64.53v-.53h8.26m.06-.06H64.47V118h8.38v-.65Z" style="fill: #a4d3d3"/>
          </g>
          <g>
            <g>
              <path d="M71.5,109.36c-.29,0-.53-.16-.53-.36s-.23-.36-.51-.36h-4c-.28,0-.51.16-.51.36s-.24.37-.53.37l-1.23,0,0-.76.71,0a1.42,1.42,0,0,1,.15-.38.87.87,0,0,1,.76-.36h5.37a.88.88,0,0,1,.75.35,1,1,0,0,1,.12.36l.62,0,0,.76Z" style="fill: #f5f1e8"/>
              <path d="M71.14,107.94a.83.83,0,0,1,.73.34,1.18,1.18,0,0,1,.12.35v0h.57l0,.67h-1c-.28,0-.5-.16-.5-.34s-.24-.39-.54-.39h-4c-.3,0-.53.17-.53.39h0c0,.18-.23.33-.51.34H64.19v-.67h.73v-.05a1,1,0,0,1,.13-.35.81.81,0,0,1,.73-.34h5.37m0-.06H65.77a.9.9,0,0,0-.78.37,1.15,1.15,0,0,0-.13.37h-.74l0,.79,1.26,0c.31,0,.56-.18.56-.39h0c0-.19.22-.33.48-.33h4c.27,0,.48.14.48.33h0c0,.21.25.39.56.39l1.1,0,0-.78H72a1,1,0,0,0-.13-.37.89.89,0,0,0-.77-.37Z" style="fill: #a4d3d3"/>
            </g>
            <g>
              <polygon points="62.59 115.85 62.61 105.64 64.13 105.66 64.11 115.85 62.59 115.85" style="fill: #f5f1e8"/>
              <path d="M64.08,105.69v10.13H62.64V105.69h1.44m0,0H62.59v10.23h1.54V105.64Z" style="fill: #a4d3d3"/>
            </g>
            <g>
              <polygon points="62.27 116.66 62.29 115.87 64.45 115.9 64.43 116.66 62.27 116.66" style="fill: #f5f1e8"/>
              <path d="M64.4,115.93v.7H62.32v-.7H64.4m0-.06H62.27v.82h2.18v-.82Z" style="fill: #a4d3d3"/>
            </g>
            <g>
              <polygon points="62.27 118.61 62.29 116.69 64.45 116.71 64.43 118.61 62.27 118.61" style="fill: #f5f1e8"/>
              <path d="M64.4,116.74v1.84H62.32v-1.84H64.4m0,0H62.27v2h2.18v-2Z" style="fill: #a4d3d3"/>
            </g>
          </g>
          <rect x="56.37" y="97.18" width="1.76" height="1.22" rx="0.42" style="fill: #6bbea1"/>
          <ellipse cx="57.25" cy="96.72" rx="0.4" ry="0.46" style="fill: #6bbea1"/>
          <line x1="39.14" y1="105.03" x2="41.96" y2="99.98" style="fill: none;stroke: #f092b6;stroke-linecap: round;stroke-linejoin: round;stroke-width: 1.21312178308165px"/>
          <path d="M39,103l.37,1.65-.69-.18,2.82-5.05,0,.15L42,97l.19,2.7a.16.16,0,0,1,0,.12l0,0-2.82,5.05,0,.07a.36.36,0,0,1-.66-.25Z" style="fill: #6bbea1"/>
          <line x1="43.1" y1="100.84" x2="71.56" y2="100.84" style="fill: none;stroke: #f092b6;stroke-linecap: round;stroke-linejoin: round;stroke-width: 0.247527121261879px"/>
          <path d="M53.64,97.6c0,.13-.12.22-.11.37a.42.42,0,0,0,.16.32c.22.16.45,0,.61-.17a7.54,7.54,0,0,1,.55-.58,1.1,1.1,0,0,1,.6-.24.7.7,0,0,1,.67.44.37.37,0,0,1-.24.54" style="fill: none;stroke: #6bbea1;stroke-linecap: round;stroke-linejoin: round;stroke-width: 0.369210977459634px"/>
          <path d="M46.05,97.6c0,.13.12.22.11.37a.44.44,0,0,1-.15.32c-.23.16-.46,0-.62-.17a5,5,0,0,0-.55-.58,1.1,1.1,0,0,0-.6-.24.71.71,0,0,0-.67.44.37.37,0,0,0,.24.54" style="fill: none;stroke: #6bbea1;stroke-linecap: round;stroke-linejoin: round;stroke-width: 0.369210977459634px"/>
          <path d="M68.46,97.6c0,.13-.11.22-.1.37a.41.41,0,0,0,.15.32c.22.16.46,0,.62-.17a5.89,5.89,0,0,1,.54-.58,1.16,1.16,0,0,1,.6-.24.71.71,0,0,1,.68.44.37.37,0,0,1-.24.54" style="fill: none;stroke: #6bbea1;stroke-linecap: round;stroke-linejoin: round;stroke-width: 0.369210977459634px"/>
          <path d="M60.87,97.6c0,.13.12.22.11.37a.44.44,0,0,1-.15.32c-.22.16-.46,0-.62-.17a5,5,0,0,0-.55-.58,1.1,1.1,0,0,0-.6-.24.71.71,0,0,0-.67.44.37.37,0,0,0,.24.54" style="fill: none;stroke: #6bbea1;stroke-linecap: round;stroke-linejoin: round;stroke-width: 0.369210977459634px"/>
          <polygon points="72.67 96.96 77.23 91.33 75.63 92.74 71.07 98.38 72.67 96.96" style="fill: #a4d3d3"/>
          <g>
            <polygon points="72.77 96.96 77.13 91.59 77.13 94.34 72.77 99.71 72.77 96.96" style="fill: #f5f1e8"/>
            <path d="M77,91.86v2.41l-4.18,5.17V97L77,91.86m.19-.53L72.67,97v3l4.56-5.64v-3Z" style="fill: #f092b6"/>
          </g>
          <polygon points="72.67 99.98 72.67 101.17 77.23 95.53 77.23 94.34 72.67 99.98" style="fill: #e7326e"/>
          <polygon points="75.73 105.64 80.29 100 77.23 95.53 72.67 101.17 75.73 105.64" style="fill: #e7326e"/>
          <polygon points="80.29 100 80.29 112.34 75.73 117.98 75.73 105.64 80.29 100" style="fill: #a4d3d3"/>
          <line x1="72.74" y1="100.14" x2="75.56" y2="105.19" style="fill: none;stroke: #f092b6;stroke-linecap: round;stroke-linejoin: round;stroke-width: 1.21312178308165px"/>
          <line x1="41.96" y1="96.96" x2="43.57" y2="98.37" style="fill: #f092b6"/>
          <g>
            <rect x="39.22" y="105.71" width="2.72" height="12.19" style="fill: #e95288"/>
            <path d="M41.86,105.79v12H39.3v-12h2.56m.16-.15H39.14V118H42V105.64Z" style="fill: #a4d3d3"/>
          </g>
          <g>
            <line x1="73.85" y1="99.72" x2="76.77" y2="104.4" style="fill: none;stroke: #fff;stroke-linecap: round;stroke-linejoin: round;stroke-width: 0.247527121261879px"/>
            <line x1="74.97" y1="98.32" x2="77.94" y2="102.94" style="fill: none;stroke: #fff;stroke-linecap: round;stroke-linejoin: round;stroke-width: 0.247527121261879px"/>
            <line x1="76.1" y1="96.93" x2="79.11" y2="101.47" style="fill: none;stroke: #fff;stroke-linecap: round;stroke-linejoin: round;stroke-width: 0.247527121261879px"/>
            <line x1="77.23" y1="95.53" x2="80.29" y2="100" style="fill: none;stroke: #fff;stroke-linecap: round;stroke-linejoin: round;stroke-width: 0.247527121261879px"/>
          </g>
          <line x1="52.06" y1="111.47" x2="62.53" y2="111.47" style="fill: none;stroke: #f5f1e8;stroke-linecap: round;stroke-linejoin: round;stroke-width: 0.263722126756881px"/>
          <line x1="52.46" y1="110.96" x2="52.46" y2="116.72" style="fill: none;stroke: #f5f1e8;stroke-linecap: round;stroke-linejoin: round;stroke-width: 0.165521853777722px"/>
          <line x1="53.22" y1="110.96" x2="53.22" y2="116.72" style="fill: none;stroke: #f5f1e8;stroke-linecap: round;stroke-linejoin: round;stroke-width: 0.165521853777722px"/>
          <line x1="54.02" y1="110.96" x2="54.02" y2="117.33" style="fill: none;stroke: #f5f1e8;stroke-linecap: round;stroke-linejoin: round;stroke-width: 0.165521853777722px"/>
          <line x1="54.77" y1="110.96" x2="54.77" y2="117.11" style="fill: none;stroke: #f5f1e8;stroke-linecap: round;stroke-linejoin: round;stroke-width: 0.165521853777722px"/>
          <line x1="62.03" y1="110.96" x2="62.03" y2="116.72" style="fill: none;stroke: #f5f1e8;stroke-linecap: round;stroke-linejoin: round;stroke-width: 0.165521853777722px"/>
          <line x1="61.33" y1="110.96" x2="61.33" y2="116.72" style="fill: none;stroke: #f5f1e8;stroke-linecap: round;stroke-linejoin: round;stroke-width: 0.165521853777722px"/>
          <line x1="60.52" y1="110.96" x2="60.52" y2="117.33" style="fill: none;stroke: #f5f1e8;stroke-linecap: round;stroke-linejoin: round;stroke-width: 0.165521853777722px"/>
          <line x1="59.78" y1="110.96" x2="59.78" y2="117.11" style="fill: none;stroke: #f5f1e8;stroke-linecap: round;stroke-linejoin: round;stroke-width: 0.165521853777722px"/>
          <line x1="77.23" y1="95.53" x2="80.29" y2="100" style="fill: none;stroke: #f092b6;stroke-linecap: round;stroke-linejoin: round;stroke-width: 1.21312178308165px"/>
          <g>
            <line x1="54.48" y1="107.13" x2="56.98" y2="107.13" style="fill: none;stroke: #f5f1e8;stroke-linecap: round;stroke-linejoin: round;stroke-width: 0.263722126756881px"/>
            <line x1="57.73" y1="107.13" x2="60.22" y2="107.13" style="fill: none;stroke: #f5f1e8;stroke-linecap: round;stroke-linejoin: round;stroke-width: 0.263722126756881px"/>
          </g>
          <path d="M72.58,97,73,99.18,72.89,99l3.63,5.88-.68.21.31-2.28.43,2.26a.35.35,0,0,1-.29.41.34.34,0,0,1-.36-.16l0,0-3.62-5.89,0,0a.21.21,0,0,1,0-.15Z" style="fill: #6bbea1"/>
          <polygon points="60.11 119.3 60.81 118.64 60.81 117.63 60.46 117.95 60.46 118.45 60.11 118.8 60.11 119.3" style="fill: #a4d3d3"/>
          <polygon points="55.51 117.13 59.17 112.48 59.17 117.13 55.51 117.13" style="fill: #a4d3d3"/>
          <g>
            <polygon points="60.81 118.61 60.84 116.69 62.27 116.71 62.24 118.61 60.81 118.61" style="fill: #f5f1e8"/>
            <path d="M62.21,116.74v1.84H60.86v-1.84h1.35m.06,0H60.81v2h1.46v-2Z" style="fill: #a4d3d3"/>
          </g>
          <g>
            <polygon points="52.35 118.61 52.37 116.69 53.8 116.71 53.78 118.61 52.35 118.61" style="fill: #f5f1e8"/>
            <path d="M53.75,116.74v1.84H52.4v-1.84h1.35m0,0H52.35v2H53.8v-2Z" style="fill: #a4d3d3"/>
          </g>
          <g>
            <polygon points="53.1 119.28 53.12 118.79 60.11 118.81 60.1 119.28 53.1 119.28" style="fill: #f5f1e8"/>
            <path d="M60.08,118.83v.43H53.14v-.43h6.94m0,0h-7v.51h7v-.51Z" style="fill: #a4d3d3"/>
          </g>
          <g>
            <polygon points="53.45 118.44 53.47 117.95 60.46 117.97 60.44 118.44 53.45 118.44" style="fill: #f5f1e8"/>
            <path d="M60.42,118v.44H53.48V118h6.94m0,0h-7v.5h7V118Z" style="fill: #a4d3d3"/>
          </g>
          <g>
            <polygon points="53.8 117.61 53.82 117.13 60.81 117.14 60.79 117.61 53.8 117.61" style="fill: #f5f1e8"/>
            <path d="M60.78,117.16v.44H53.84v-.44h6.94m0,0h-7v.5h7v-.5Z" style="fill: #a4d3d3"/>
          </g>
          <polygon points="53.07 118.8 53.45 118.45 60.46 118.45 60.11 118.8 53.07 118.8" style="fill: #f092b6"/>
          <polygon points="53.8 117.63 53.45 117.95 60.46 117.95 60.81 117.63 53.8 117.63" style="fill: #f092b6"/>
          <g>
            <line x1="64.29" y1="111.54" x2="72.85" y2="111.54" style="fill: none;stroke: #f5f1e8;stroke-linecap: round;stroke-linejoin: round;stroke-width: 0.263722126756881px"/>
            <g>
              <line x1="64.63" y1="110.52" x2="64.63" y2="115.57" style="fill: none;stroke: #f5f1e8;stroke-linecap: round;stroke-linejoin: round;stroke-width: 0.158233276054129px"/>
              <line x1="65.19" y1="110.52" x2="65.19" y2="115.57" style="fill: none;stroke: #f5f1e8;stroke-linecap: round;stroke-linejoin: round;stroke-width: 0.158233276054129px"/>
              <line x1="65.75" y1="110.52" x2="65.75" y2="115.57" style="fill: none;stroke: #f5f1e8;stroke-linecap: round;stroke-linejoin: round;stroke-width: 0.158233276054129px"/>
              <line x1="66.31" y1="110.52" x2="66.31" y2="115.57" style="fill: none;stroke: #f5f1e8;stroke-linecap: round;stroke-linejoin: round;stroke-width: 0.158233276054129px"/>
              <line x1="66.87" y1="110.52" x2="66.87" y2="115.57" style="fill: none;stroke: #f5f1e8;stroke-linecap: round;stroke-linejoin: round;stroke-width: 0.158233276054129px"/>
              <line x1="67.44" y1="110.52" x2="67.44" y2="115.57" style="fill: none;stroke: #f5f1e8;stroke-linecap: round;stroke-linejoin: round;stroke-width: 0.158233276054129px"/>
              <line x1="68" y1="110.52" x2="68" y2="115.57" style="fill: none;stroke: #f5f1e8;stroke-linecap: round;stroke-linejoin: round;stroke-width: 0.158233276054129px"/>
              <line x1="68.56" y1="110.52" x2="68.56" y2="115.57" style="fill: none;stroke: #f5f1e8;stroke-linecap: round;stroke-linejoin: round;stroke-width: 0.158233276054129px"/>
              <line x1="69.12" y1="110.52" x2="69.12" y2="115.57" style="fill: none;stroke: #f5f1e8;stroke-linecap: round;stroke-linejoin: round;stroke-width: 0.158233276054129px"/>
              <line x1="69.68" y1="110.52" x2="69.68" y2="115.57" style="fill: none;stroke: #f5f1e8;stroke-linecap: round;stroke-linejoin: round;stroke-width: 0.158233276054129px"/>
              <line x1="70.24" y1="110.52" x2="70.24" y2="115.57" style="fill: none;stroke: #f5f1e8;stroke-linecap: round;stroke-linejoin: round;stroke-width: 0.158233276054129px"/>
              <line x1="70.8" y1="110.52" x2="70.8" y2="115.57" style="fill: none;stroke: #f5f1e8;stroke-linecap: round;stroke-linejoin: round;stroke-width: 0.158233276054129px"/>
              <line x1="71.36" y1="110.52" x2="71.36" y2="115.57" style="fill: none;stroke: #f5f1e8;stroke-linecap: round;stroke-linejoin: round;stroke-width: 0.158233276054129px"/>
              <line x1="71.93" y1="110.52" x2="71.93" y2="115.57" style="fill: none;stroke: #f5f1e8;stroke-linecap: round;stroke-linejoin: round;stroke-width: 0.158233276054129px"/>
              <line x1="72.49" y1="110.52" x2="72.49" y2="115.57" style="fill: none;stroke: #f5f1e8;stroke-linecap: round;stroke-linejoin: round;stroke-width: 0.158233276054129px"/>
            </g>
          </g>
          <polyline points="64.45 118.64 65.09 117.98 65.09 115.87 64.45 115.87" style="fill: #e95288"/>
        </g>
      </g>
    </g>
  </g>
</svg>
