<svg xmlns="http://www.w3.org/2000/svg" width="64.54" height="64.54" viewBox="0 0 64.54 64.54">
  <g id="Layer_2" data-name="Layer 2">
    <g id="Home_Back_button" data-name="Home Back button">
      <path d="M32.27,0A32.27,32.27,0,1,0,64.54,32.27,32.27,32.27,0,0,0,32.27,0ZM48.94,32.08H45V49.32a1.09,1.09,0,0,1-1.18,1H36.11V37.18c0-.52-.64-.94-1.44-.94h-4.3c-.79,0-1.43.42-1.43.94V50.27H20.76a1.09,1.09,0,0,1-1.18-1V32.08h-4a1.13,1.13,0,0,1,0-1.61L31.46,14.61a1.14,1.14,0,0,1,1.62,0l5.54,5.54V16.71h3.49v6.92l6.83,6.84A1.13,1.13,0,0,1,48.94,32.08Z" style="fill: #fff"/>
    </g>
  </g>
</svg>
