<svg xmlns="http://www.w3.org/2000/svg" xmlns:xlink="http://www.w3.org/1999/xlink" width="48" height="48" viewBox="0 0 48 48">
  <defs>
    <clipPath id="clip-path">
      <rect x="9" y="9" width="30" height="30" style="fill: none"/>
    </clipPath>
  </defs>
  <g id="Layer_2" data-name="Layer 2">
    <g id="icon-text">
      <g>
        <path d="M24,0A24,24,0,1,0,48,24,24,24,0,0,0,24,0Z" style="fill: #a054a0"/>
        <g style="clip-path: url(#clip-path)">
          <path d="M24,9.9A14.1,14.1,0,0,0,12.19,31.7L10.77,37,16,35.61A14.1,14.1,0,1,0,24,9.9Zm-.09,6a2.34,2.34,0,0,1,2.39,2.22,2.17,2.17,0,0,1-2.39,2.18,2.33,2.33,0,0,1-2.34-2.18A2.28,2.28,0,0,1,23.91,15.89ZM27,32.11H21V29.27h.91V24.09H21V21.27h5v8h1Z" style="fill: #fff"/>
        </g>
      </g>
    </g>
  </g>
</svg>
