<?xml version="1.0" encoding="utf-8"?>
<!-- Generator: Adobe Illustrator 26.0.1, SVG Export Plug-In . SVG Version: 6.00 Build 0)  -->
<svg version="1.1" id="Layer_1" xmlns="http://www.w3.org/2000/svg" xmlns:xlink="http://www.w3.org/1999/xlink" x="0px" y="0px"
	 viewBox="0 0 773.2 66.8" style="enable-background:new 0 0 773.2 66.8;" xml:space="preserve">
<g>
	<g id="Layer_2_00000001657215317671545380000015176303548495847831_">
		<g id="icon-text">
			<g>
				<path style="opacity:0.5;fill:#FFFFFF;enable-background:new    ;" d="M13.9,0h745.4c7.7,0,13.9,6.2,13.9,13.9V53
					c0,7.7-6.2,13.9-13.9,13.9H13.9C6.2,66.8,0,60.6,0,53V13.9C0,6.2,6.2,0,13.9,0z"/>
			</g>
		</g>
	</g>
	<g>
		<path style="fill:#231F20;" d="M39.8,10.3c-0.8,0.8-2,1.7-3,2.2l-0.6-0.9c1.2-0.3,2-1,2.9-2L39.8,10.3z M43.5,17.1l-2.5,0l0.6,0.7
			c-1.5,0.8-3.1,1.3-4.9,1.4l-0.5-1c1.7-0.1,3.2-0.4,4.6-1.1l-2.5,0l0-5.4h1.9l-0.5-0.9c1.8-0.1,3.4-0.8,3.8-2l-1.5,0
			c-0.3,0.4-0.7,0.9-1.3,1.3l-0.9-0.6c1.1-0.6,1.8-1.7,2.2-2.7l0.8,0.4c-0.1,0.3-0.2,0.6-0.2,0.7h5.1c-0.2,0.9-0.5,1.6-0.9,2.3
			l-0.9-0.5c0.4-0.5,0.4-0.6,0.5-0.9l-1.8,0c-0.1,0.2-0.2,0.4-0.3,0.6c1,1,2,1.4,4.1,1.6l-0.5,1c-1.7-0.3-2.9-0.6-4.1-1.7
			c-0.8,0.9-1.9,1.3-3,1.5l5.6,0l0,5.4l-1.9,0c1.3,0.2,2.6,0.6,3.8,1.2l-0.6,0.9c-1.5-0.8-2.9-1.2-4.7-1.3L43.5,17.1z M37.2,7.2
			c0.9,0.3,1.6,0.7,2.3,1.4l-0.6,0.8c-0.6-0.5-1.4-1.2-2.3-1.4L37.2,7.2z M45.2,14l-6,0v0.6h6V14z M39.3,16.1l6,0v-0.6h-6L39.3,16.1
			z M45.2,12.6l-6,0v0.5l6,0V12.6z"/>
		<path style="fill:#231F20;" d="M56.2,11.4C56.2,11.3,56.1,11.3,56.2,11.4l0.8-0.6c1,0.6,1.7,1.5,2.2,2.5l-0.8,0.7
			c-0.4-1-1.1-1.8-2-2.4v0.9H54V13l0.4-0.2c0.9,0.4,1.6,1,2.2,1.8l-0.8,0.6c-0.5-0.7-1.2-1.3-1.8-1.5l0,5.5h-1l0-4.6
			c-0.4,0.8-1.3,1.7-2.3,2.5l-0.8-0.7c1.3-0.9,2.8-2.9,3.1-4l-2.4,0v-1H53l0-4.6h1v4.6H56.2z M51.6,11c-0.1-1.1-0.4-2-1.1-2.9
			l0.9-0.5c0.6,0.9,1,1.8,1.2,2.8L51.6,11z M54,10.5c0.7-0.9,1.2-1.8,1.3-2.9L56.2,8c-0.1,0.9-0.6,2.4-1.3,3L54,10.5z M59.9,15.2
			l-4.6,1.3l-0.3-1l4.9-1.3V6.7h1v7.1l1.2-0.4l0.3,1L61,14.9v4.2h-1L59.9,15.2z M58.6,10.5c-0.4-1-1.2-1.8-2.1-2.2l0.8-0.7
			c0.9,0.5,1.6,1.3,2.2,2.3L58.6,10.5z"/>
		<path style="fill:#231F20;" d="M64.1,17.3c1.5-0.6,2.8-1.5,3.9-2.6c0.6-0.6,1.3-1.4,1.7-2.1l0-3.1h-5v-1h5V6.7h1.1v1.7h5v1h-5v3.1
			c1,1.5,2.5,3,4,4c0.5,0.3,0.9,0.5,1.6,0.8c-0.3,0.3-0.5,0.6-0.8,0.8c-2.1-0.9-3.5-2.2-4.8-4l0,5l-1.1,0v-4.8
			c-1.1,1.6-2.8,3-4.9,3.9L64.1,17.3z M64.8,13.9c1-0.9,1.6-1.8,1.8-3.1c0.1-0.3,0.1-0.7,0.1-1.2l1,0.3c0,0.6-0.1,1-0.2,1.4
			c0.7,0.4,1.2,1,1.8,1.7l-0.8,0.7c-0.4-0.5-0.8-1-1.3-1.4c-0.2,0.6-0.7,1.5-1.6,2.3L64.8,13.9z M74.9,14.2
			c-0.4-0.7-0.9-1.4-1.4-1.8c-0.2,0.4-0.5,1-1.1,1.6c-0.3-0.2-0.6-0.3-0.9-0.5c1.1-1.1,1.4-2.4,1.4-3.9l1,0.2c0,0.6-0.1,1.2-0.2,1.6
			c0.8,0.4,1.5,1.2,2,2.1L74.9,14.2z"/>
		<path style="fill:#231F20;" d="M80.1,12.4c-0.4-0.8-1.1-1.4-1.9-1.8l0.7-0.7c0.8,0.4,1.5,1.1,2,1.8L80.1,12.4z M81.1,13.5
			c-0.4,2.1-1,3.7-2.1,5.2l-0.9-0.6c1.2-1.4,1.9-3.5,2-5.1L81.1,13.5z M79.5,7.2c0.9,0.4,1.6,1.2,2,1.8l-0.8,0.7
			c-0.4-0.8-1.1-1.4-1.9-1.8L79.5,7.2z M89.3,9.4v4.8H87v3.7c0,0.7-0.3,1.2-0.9,1.2h-1.3l-0.4-1l1.1,0.1c0.3,0,0.5-0.2,0.5-0.4v-3.5
			h-2.4V9.4h2.1c0.2-0.3,0.3-0.7,0.3-0.9h-3.2v5.7c0,1.8-0.5,3.5-1.6,5.1l-1-0.6c1-1.5,1.5-3.1,1.5-4.9V7.4l8.4,0l0,1H87
			c-0.1,0.3-0.2,0.7-0.3,0.9H89.3z M82.3,17.3c1-0.7,1.8-1.7,2.2-2.8l0.9,0.5c-0.4,1.1-1.3,2.3-2.2,3L82.3,17.3z M88.3,10.4h-3.7
			l0,0.8h3.7V10.4z M88.3,12.2h-3.7v1.1h3.7V12.2z M88.5,14.5c1,0.8,1.4,1.8,1.9,2.9L89.5,18c-0.2-0.8-0.9-2.3-1.9-3L88.5,14.5z"/>
		<path style="fill:#231F20;" d="M95,9.4h1.5v1.5H95V9.4z M95,15.1h1.5v1.5H95V15.1z"/>
		<path style="fill:#231F20;" d="M111.9,7.8c-1.5,0.5-3,0.7-4.4,0.8v1.2l4.9,0v1h-4.9l0,2.5h3.2v5.9h-1l0-0.7l-5.3,0v0.7h-1v-5.5
			c-0.4,0.2-1,0.5-1.7,0.7l-0.8-0.9c1.8-0.6,3.4-1.4,4.5-2.7h-3.7v-1h4.9l0-1c-1.2,0.1-2.6,0.2-4,0.2l-0.7-1c3.3,0,6.9-0.3,9.3-1
			L111.9,7.8z M106.5,11c-0.5,0.8-1.6,1.8-2.4,2.2l2.4,0V11z M109.6,14.2l-5.3,0l0,1l5.3,0V14.2z M109.6,17.4l0-1.2h-5.3l0,1.2
			L109.6,17.4z M108.4,10.8c1.7,0.5,3.2,1.3,4.6,2.5l-0.7,0.8c-1.1-1.1-2.9-2.1-4.6-2.5L108.4,10.8z"/>
		<path style="fill:#231F20;" d="M117,12.7c-0.5-0.8-1.2-1.4-2.1-1.7l0.6-0.8c0.7,0.2,1.7,0.9,2.3,1.8L117,12.7z M117.9,14.1
			c-0.3,1.8-0.9,3.5-1.9,5l-1-0.5c1.1-1.2,1.8-3.8,2-4.9l0.9,0.3c1-0.5,1.9-1.3,2.3-2.1h-2.1v-1h2.1V9.4h-1.6v-1h1.6V6.9h1.1l0,1.5
			l2.3,0V6.9h1l0,1.5h1.6v1h-1.6v1.4h2.1l0,1h-2.1c0.6,0.9,1.9,2,2.8,2.2l-0.7,0.8c-0.7-0.3-1.3-0.8-1.6-1.1l0,2.4h-4.2v0.8
			c0,0.2,0,0.5,0.4,0.5h3.6c0.5,0,0.5-0.5,0.6-1.3h1c-0.1,1.1-0.2,2.3-1.4,2.3h-4.1c-0.9,0-1.1-0.6-1.1-1.1v-3.5
			c-0.3,0.2-0.7,0.6-1.3,0.9L117.9,14.1z M117.6,9.7c-0.8-1.1-1.5-1.4-2.2-1.6l0.8-0.7c0.8,0.3,1.6,0.8,2.2,1.6L117.6,9.7z
			 M121.4,11.8c-0.2,0.5-0.5,0.9-0.7,1.2h3.6c-0.2-0.3-0.6-0.8-0.8-1.2L121.4,11.8z M120.9,15.3h3.1l0-1.2h-3.1V15.3z M121.3,9.4
			l0,1.4l2.3,0l0-1.4H121.3z"/>
		<path style="fill:#231F20;" d="M128.7,18.3c2-0.7,3.9-1.3,5.4-2.7c-1.4-1.4-2.1-3.4-2.5-5.4h-2.2v-1h5.5c-0.5-0.8-1.2-1.4-2-1.8
			l0.8-0.7c0.8,0.4,1.7,1.3,2.2,1.9l-0.7,0.5l5.1,0v1H138c-0.3,1.9-1.1,3.9-2.4,5.4c1.4,1.2,3.3,1.9,5.3,2.6l-0.7,0.9
			c-2-0.6-3.8-1.4-5.3-2.7c-1.5,1.4-4.1,2.4-5.3,2.8L128.7,18.3z M132.7,10.2c0.2,2.2,1.5,4,2.2,4.6c1.2-1.3,1.8-3,2.1-4.6H132.7z"
			/>
		<path style="fill:#231F20;" d="M147.7,18.1c0.3,0,0.4-0.2,0.4-0.5v-0.8h-5.6v-0.9l5.6,0v-0.5c0.7-0.2,1.4-0.5,1.5-0.5l-4.9,0v-1
			h7.4l0,0.9c-1,0.5-1.9,0.8-2.9,1.1l5.3,0v0.9h-5.3V18c0,0.6-0.2,1-0.8,1.1c-0.6,0.1-1.1,0.1-1.8,0.1l-0.8-1H147.7z M149.6,12.5
			c-0.4-0.5-0.9-0.7-1.1-0.9c-0.5,0.4-1,0.6-1.6,0.9l-0.7-0.6c0.5-0.2,1-0.6,1.3-0.8c-0.2-0.1-0.6-0.2-1.2-0.4l0.6-0.7
			c0.5,0,0.9,0.3,1.4,0.5c0.2-0.2,0.5-0.5,0.8-0.8l0.7,0.6c-0.3,0.3-0.5,0.6-0.6,0.7c0.3,0.2,0.7,0.5,1.1,0.9l-0.6,0.6h2.3l0.1-0.9
			l-1.9,0l0-0.9h2l0.1-0.7l-2.1,0l0-0.9l2.1,0l0.1-0.6h-2.5V7.5l3.5,0l-0.5,5l0.9,0l0,2.1h-1v-1.1l-9.1,0l0,1.2h-1v-2.1l0.9,0
			l-0.5-4.6c1.1-0.1,1.9-0.4,2.8-1.1l0.5,0.8c-0.8,0.6-1.5,0.9-2.3,1l0.1,0.4h2.1c0.5-0.2,0.9-0.5,1.1-0.6c-0.4-0.1-0.9-0.3-1.2-0.3
			l0.4-0.8c0.6,0.2,1.2,0.3,1.6,0.5c0.3-0.3,0.6-0.6,0.9-1l0.7,0.6c-0.2,0.4-0.5,0.7-0.7,0.9c0.2,0.2,0.5,0.4,0.9,0.8l-0.6,0.8
			c-0.4-0.4-0.7-0.7-1.1-0.9c-0.4,0.3-0.8,0.6-1.3,0.9l-0.6-0.5V10h-2.1l0.1,0.7h2v0.9l-1.9,0l0.1,0.8H149.6z"/>
		<path style="fill:#231F20;" d="M156.6,16.4l1.9-0.6v-4.2H157l0-1l1.5,0l0-2.9h1v2.9h1.4l0,1l-1.4,0l0,3.7l1.6-0.5v1l-3.9,1.4
			L156.6,16.4z M168.7,15.9c-0.4,2.2-0.7,2.7-1.5,2.7h-4.6c-0.6,0-1.1-0.5-1.1-1.1v-4.6l-0.7,0.2l-0.4-1l1.1-0.3l0-2.8h1v2.5
			l1.5-0.5V6.8h1v4.1L168,10c-0.1,1.9-0.3,4-0.7,5c-0.2,0.3-0.4,0.6-0.8,0.6c-0.4,0-0.7-0.1-1.1-0.2l-0.2-1.2c0.5,0.2,0.6,0.3,1,0.4
			c0.2,0,0.2-0.1,0.3-0.2c0.2-1.1,0.3-2,0.4-3l-1.8,0.5l0,4.4h-1v-4.1l-1.5,0.5l0,4.6c0,0.2,0.2,0.4,0.3,0.4l4.1,0
			c0.4,0,0.5-1.1,0.7-2L168.7,15.9z"/>
		<path style="fill:#231F20;" d="M175.2,16.9c-1.2,0.9-2.6,1.3-4.1,1.6l-0.4-0.9c1.6-0.2,2.9-0.6,3.9-1.4L175.2,16.9z M171.1,11.9
			l5.2,0c0-0.1-0.2-0.5-0.3-0.6h-3.5l0-3.9l8.5,0v3.9h-3.9c0,0,0.2,0.4,0.2,0.6l5.2,0l0,1l-11.5,0V11.9z M177.4,18
			c0,0.4-0.3,0.8-0.6,0.9c-0.5,0.2-1.1,0.1-1.7,0.1c-0.1-0.3-0.2-0.6-0.3-1c0.6,0,1,0.1,1.4,0c0.2,0,0.3-0.2,0.3-0.4V16l-3.5,0v-2.6
			l7.9,0l0,2.6h-3.4V18z M180,8.9V8.3h-6.4v0.6H180z M173.6,9.8v0.5h6.4V9.8H173.6z M173.9,14.4l0,0.7h5.9l0-0.7H173.9z M182.2,18.6
			c-1.2-0.8-2.5-1.3-4.1-1.5l0.5-0.9c1.5,0.2,2.8,0.7,4.1,1.5L182.2,18.6z"/>
		<path style="fill:#231F20;" d="M188.5,10.3c-0.8,0.8-2,1.7-3,2.2l-0.6-0.9c1.2-0.3,2-1,2.9-2L188.5,10.3z M192.2,17.1l-2.5,0
			l0.6,0.7c-1.5,0.8-3.1,1.3-4.9,1.4l-0.5-1c1.7-0.1,3.2-0.4,4.6-1.1l-2.5,0l0-5.4h1.9l-0.5-0.9c1.8-0.1,3.4-0.8,3.8-2l-1.5,0
			c-0.3,0.4-0.7,0.9-1.3,1.3l-0.9-0.6c1.1-0.6,1.8-1.7,2.2-2.7l0.8,0.4c-0.1,0.3-0.2,0.6-0.2,0.7h5.1c-0.2,0.9-0.5,1.6-0.9,2.3
			l-0.9-0.5c0.4-0.5,0.4-0.6,0.5-0.9l-1.8,0c-0.1,0.2-0.2,0.4-0.3,0.6c1,1,2,1.4,4.1,1.6l-0.5,1c-1.7-0.3-2.9-0.6-4.1-1.7
			c-0.8,0.9-1.9,1.3-3,1.5l5.6,0l0,5.4l-1.9,0c1.3,0.2,2.6,0.6,3.8,1.2l-0.6,0.9c-1.5-0.8-2.9-1.2-4.7-1.3L192.2,17.1z M185.9,7.2
			c0.9,0.3,1.6,0.7,2.3,1.4l-0.6,0.8c-0.6-0.5-1.4-1.2-2.3-1.4L185.9,7.2z M194,14l-6,0v0.6h6V14z M188,16.1l6,0v-0.6h-6L188,16.1z
			 M194,12.6l-6,0v0.5l6,0V12.6z"/>
		<path style="fill:#231F20;" d="M201,12.4c-0.4-0.8-1.1-1.4-1.9-1.8l0.7-0.7c0.8,0.4,1.5,1.1,2,1.8L201,12.4z M202.1,13.5
			c-0.4,2.1-1,3.7-2.1,5.2l-0.9-0.6c1.2-1.4,1.9-3.5,2-5.1L202.1,13.5z M200.4,7.2c0.9,0.4,1.6,1.2,2,1.8l-0.8,0.7
			c-0.4-0.8-1.1-1.4-1.9-1.8L200.4,7.2z M210.3,9.4v4.8h-2.3v3.7c0,0.7-0.3,1.2-0.9,1.2h-1.3l-0.4-1l1.1,0.1c0.3,0,0.5-0.2,0.5-0.4
			v-3.5h-2.4V9.4h2.1c0.2-0.3,0.3-0.7,0.3-0.9h-3.2v5.7c0,1.8-0.5,3.5-1.6,5.1l-1-0.6c1-1.5,1.5-3.1,1.5-4.9V7.4l8.4,0l0,1h-3.1
			c-0.1,0.3-0.2,0.7-0.3,0.9H210.3z M203.2,17.3c1-0.7,1.8-1.7,2.2-2.8l0.9,0.5c-0.4,1.1-1.3,2.3-2.2,3L203.2,17.3z M209.2,10.4
			h-3.7l0,0.8h3.7V10.4z M209.2,12.2h-3.7v1.1h3.7V12.2z M209.4,14.5c1,0.8,1.4,1.8,1.9,2.9l-0.9,0.6c-0.2-0.8-0.9-2.3-1.9-3
			L209.4,14.5z"/>
		<path style="fill:#231F20;" d="M215.5,13.4c0,2.4-0.3,4.3-1.3,5.8l-1-0.6c1.4-1.9,1.3-4.1,1.3-5.7V8h5.1c-0.3-0.3-1.2-0.5-1.6-0.6
			l0.8-0.7c0.9,0.1,1.6,0.4,2.3,1.1L220.6,8h4.5v1l-9.7,0V13.4z M215.8,10.8l0-1l4,0V9h1l0,0.8h4.1v1h-4.1l0,0.5l3.2,0v4.4l-3.1,0
			l0,0.6h4.5v1l-4.5,0v1.9h-1v-1.9l-4.4,0l0-1l4.4,0l0-0.6l-3.2,0v-4.4h3.2v-0.5H215.8z M219.8,14h-2.1l0,0.7h2.1V14z M219.8,12.3
			h-2.1V13h2.1L219.8,12.3z M222.9,13v-0.7h-2.1l0,0.7H222.9z M222.9,14h-2.1v0.7l2.1,0V14z"/>
		<path style="fill:#231F20;" d="M232.8,13.5c-0.2,0.7-0.9,1.3-1.7,1.4c-0.7,0.1-1.3-0.2-1.7-0.7c-0.4-0.5-0.6-1.2-0.4-1.9
			c0.2-0.7,0.9-1.3,1.7-1.3c0.7,0,1.3,0.2,1.7,0.8C232.8,12.3,233,12.9,232.8,13.5z M231.2,11.8c-0.4-0.1-0.8,0-1.1,0.3
			c-0.2,0.3-0.4,0.6-0.3,1c0.1,0.3,0.3,0.7,0.6,0.8c0.4,0.2,1,0.1,1.3-0.2c0.3-0.3,0.4-0.8,0.2-1.2
			C231.8,12.2,231.5,11.9,231.2,11.8z"/>
		<path style="fill:#231F20;" d="M240.5,10.3c-0.8,0.8-2,1.7-3,2.2l-0.6-0.9c1.2-0.3,2-1,2.9-2L240.5,10.3z M244.2,17.1l-2.5,0
			l0.6,0.7c-1.5,0.8-3.1,1.3-4.9,1.4l-0.5-1c1.7-0.1,3.2-0.4,4.6-1.1l-2.5,0l0-5.4h1.9l-0.5-0.9c1.8-0.1,3.4-0.8,3.8-2l-1.5,0
			c-0.3,0.4-0.7,0.9-1.3,1.3l-0.9-0.6c1.1-0.6,1.8-1.7,2.2-2.7l0.8,0.4c-0.1,0.3-0.2,0.6-0.2,0.7h5.1c-0.2,0.9-0.5,1.6-0.9,2.3
			l-0.9-0.5c0.4-0.5,0.4-0.6,0.5-0.9l-1.8,0c-0.1,0.2-0.2,0.4-0.3,0.6c1,1,2,1.4,4.1,1.6l-0.5,1c-1.7-0.3-2.9-0.6-4.1-1.7
			c-0.8,0.9-1.9,1.3-3,1.5l5.6,0l0,5.4l-1.9,0c1.3,0.2,2.6,0.6,3.8,1.2l-0.6,0.9c-1.5-0.8-2.9-1.2-4.7-1.3L244.2,17.1z M237.9,7.2
			c0.9,0.3,1.6,0.7,2.3,1.4l-0.6,0.8c-0.6-0.5-1.4-1.2-2.3-1.4L237.9,7.2z M246,14l-6,0v0.6h6V14z M240,16.1l6,0v-0.6h-6L240,16.1z
			 M246,12.6l-6,0v0.5l6,0V12.6z"/>
		<path style="fill:#231F20;" d="M253,12.4c-0.4-0.8-1.1-1.4-1.9-1.8l0.7-0.7c0.8,0.4,1.5,1.1,2,1.8L253,12.4z M254,13.5
			c-0.4,2.1-1,3.7-2.1,5.2l-0.9-0.6c1.2-1.4,1.9-3.5,2-5.1L254,13.5z M252.4,7.2c0.9,0.4,1.6,1.2,2,1.8l-0.8,0.7
			c-0.4-0.8-1.1-1.4-1.9-1.8L252.4,7.2z M262.2,9.4v4.8h-2.3v3.7c0,0.7-0.3,1.2-0.9,1.2h-1.3l-0.4-1l1.1,0.1c0.3,0,0.5-0.2,0.5-0.4
			v-3.5h-2.4V9.4h2.1c0.2-0.3,0.3-0.7,0.3-0.9h-3.2v5.7c0,1.8-0.5,3.5-1.6,5.1l-1-0.6c1-1.5,1.5-3.1,1.5-4.9V7.4l8.4,0l0,1h-3.1
			c-0.1,0.3-0.2,0.7-0.3,0.9H262.2z M255.2,17.3c1-0.7,1.8-1.7,2.2-2.8l0.9,0.5c-0.4,1.1-1.3,2.3-2.2,3L255.2,17.3z M261.2,10.4
			h-3.7l0,0.8h3.7V10.4z M261.2,12.2h-3.7v1.1h3.7V12.2z M261.4,14.5c1,0.8,1.4,1.8,1.9,2.9l-0.9,0.6c-0.2-0.8-0.9-2.3-1.9-3
			L261.4,14.5z"/>
		<path style="fill:#231F20;" d="M267.4,13.4c0,2.4-0.3,4.3-1.3,5.8l-1-0.6c1.4-1.9,1.3-4.1,1.3-5.7V8h5.1c-0.3-0.3-1.2-0.5-1.6-0.6
			l0.8-0.7c0.9,0.1,1.6,0.4,2.3,1.1L272.6,8h4.5v1l-9.7,0V13.4z M267.8,10.8l0-1l4,0V9h1l0,0.8h4.1v1h-4.1l0,0.5l3.2,0v4.4l-3.1,0
			l0,0.6h4.5v1l-4.5,0v1.9h-1v-1.9l-4.4,0l0-1l4.4,0l0-0.6l-3.2,0v-4.4h3.2v-0.5H267.8z M271.8,14h-2.1l0,0.7h2.1V14z M271.8,12.3
			h-2.1V13h2.1L271.8,12.3z M274.9,13v-0.7h-2.1l0,0.7H274.9z M274.9,14h-2.1v0.7l2.1,0V14z"/>
		<path style="fill:#231F20;" d="M280,9.5l4.4,0V6.8h1.1l0,2.7l4.4,0V19l-1.1,0V18h-7.7l0,1.2l-1.1,0V9.5z M281.1,13.1h3.3l0-2.6
			l-3.3,0L281.1,13.1z M281.1,16.9h3.3v-2.8l-3.3,0L281.1,16.9z M285.5,13.1h3.3l0-2.6l-3.2,0V13.1z M285.5,16.9l3.3,0l0-2.8h-3.3
			V16.9z"/>
		<path style="fill:#231F20;" d="M303.6,7.8c-1.5,0.5-3,0.7-4.4,0.8v1.2l4.9,0v1h-4.9l0,2.5h3.2v5.9h-1l0-0.7l-5.3,0v0.7h-1v-5.5
			c-0.4,0.2-1,0.5-1.7,0.7l-0.8-0.9c1.8-0.6,3.4-1.4,4.5-2.7h-3.7v-1h4.9l0-1c-1.2,0.1-2.6,0.2-4,0.2l-0.7-1c3.3,0,6.9-0.3,9.3-1
			L303.6,7.8z M298.2,11c-0.5,0.8-1.6,1.8-2.4,2.2l2.4,0V11z M301.3,14.2l-5.3,0l0,1l5.3,0V14.2z M301.3,17.4l0-1.2H296l0,1.2
			L301.3,17.4z M300.1,10.8c1.7,0.5,3.2,1.3,4.6,2.5l-0.7,0.8c-1.1-1.1-2.9-2.1-4.6-2.5L300.1,10.8z"/>
		<path style="fill:#231F20;" d="M308.7,12.7c-0.5-0.8-1.2-1.4-2.1-1.7l0.6-0.8c0.7,0.2,1.7,0.9,2.3,1.8L308.7,12.7z M309.6,14.1
			c-0.3,1.8-0.9,3.5-1.9,5l-1-0.5c1.1-1.2,1.8-3.8,2-4.9l0.9,0.3c1-0.5,1.9-1.3,2.3-2.1h-2.1v-1h2.1V9.4h-1.6v-1h1.6V6.9h1.1l0,1.5
			l2.3,0V6.9h1l0,1.5h1.6v1h-1.6v1.4h2.1l0,1h-2.1c0.6,0.9,1.9,2,2.8,2.2l-0.7,0.8c-0.7-0.3-1.3-0.8-1.6-1.1l0,2.4h-4.2v0.8
			c0,0.2,0,0.5,0.4,0.5h3.6c0.5,0,0.5-0.5,0.6-1.3h1c-0.1,1.1-0.2,2.3-1.4,2.3h-4.1c-0.9,0-1.1-0.6-1.1-1.1v-3.5
			c-0.3,0.2-0.7,0.6-1.3,0.9L309.6,14.1z M309.2,9.7c-0.8-1.1-1.5-1.4-2.2-1.6l0.8-0.7c0.8,0.3,1.6,0.8,2.2,1.6L309.2,9.7z
			 M313.1,11.8c-0.2,0.5-0.5,0.9-0.7,1.2h3.6c-0.2-0.3-0.6-0.8-0.8-1.2L313.1,11.8z M312.6,15.3h3.1l0-1.2h-3.1V15.3z M313,9.4
			l0,1.4l2.3,0l0-1.4H313z"/>
		<path style="fill:#231F20;" d="M321.5,15.5V9.4h4.5l0-2.5h1.1l0,2.5l4.5,0v6h-1.1v-0.9h-3.4l0,4.6H326l0-4.6h-3.4l0,1H321.5z
			 M326,10.4h-3.4v3.1h3.4L326,10.4z M330.5,10.4h-3.3v3.1h3.4L330.5,10.4z"/>
		<path style="fill:#231F20;" d="M334,18.3c2-0.7,3.9-1.3,5.4-2.7c-1.4-1.4-2.1-3.4-2.5-5.4h-2.2v-1h5.5c-0.5-0.8-1.2-1.4-2-1.8
			l0.8-0.7c0.8,0.4,1.7,1.3,2.2,1.9l-0.7,0.5l5.1,0v1h-2.2c-0.3,1.9-1.1,3.9-2.4,5.4c1.4,1.2,3.3,1.9,5.3,2.6l-0.7,0.9
			c-2-0.6-3.8-1.4-5.3-2.7c-1.5,1.4-4.1,2.4-5.3,2.8L334,18.3z M337.9,10.2c0.2,2.2,1.5,4,2.2,4.6c1.2-1.3,1.8-3,2.1-4.6H337.9z"/>
		<path style="fill:#231F20;" d="M349,11.2v-1.1h4.3c0.1-1,0.1-2.2,0.1-3.5c0.4,0.1,0.7,0.1,1.1,0.2c0,1.2,0,2.3-0.1,3.3h4.9l0,1.1
			h-4c0.5,2.9,1.6,5,4.7,6.7l-0.7,0.8c-3-1.8-4.4-3.8-4.9-7.6c-0.7,3.8-2.2,5.8-5.2,7.5l-0.8-0.9c3-1.4,4.4-3.9,4.9-6.6H349z"/>
		<path style="fill:#231F20;" d="M367,18.1c0.3,0,0.4-0.2,0.4-0.5v-0.8h-5.6v-0.9l5.6,0v-0.5c0.7-0.2,1.4-0.5,1.5-0.5l-4.9,0v-1h7.4
			l0,0.9c-1,0.5-1.9,0.8-2.9,1.1l5.3,0v0.9h-5.3V18c0,0.6-0.2,1-0.8,1.1c-0.6,0.1-1.1,0.1-1.8,0.1l-0.8-1H367z M368.9,12.5
			c-0.4-0.5-0.9-0.7-1.1-0.9c-0.5,0.4-1,0.6-1.6,0.9l-0.7-0.6c0.5-0.2,1-0.6,1.3-0.8c-0.2-0.1-0.6-0.2-1.2-0.4l0.6-0.7
			c0.5,0,0.9,0.3,1.4,0.5c0.2-0.2,0.5-0.5,0.8-0.8l0.7,0.6c-0.3,0.3-0.5,0.6-0.6,0.7c0.3,0.2,0.7,0.5,1.1,0.9l-0.6,0.6h2.3l0.1-0.9
			l-1.9,0l0-0.9h1.9l0.1-0.7l-2.1,0l0-0.9l2.1,0l0.1-0.6h-2.5V7.5l3.5,0l-0.5,5l0.9,0l0,2.1h-1v-1.1l-9.1,0l0,1.2h-1v-2.1l0.9,0
			l-0.5-4.6c1.1-0.1,1.9-0.4,2.8-1.1l0.5,0.8c-0.8,0.6-1.5,0.9-2.3,1l0.1,0.4h2.1c0.5-0.2,0.9-0.5,1.1-0.6c-0.4-0.1-0.9-0.3-1.2-0.3
			l0.4-0.8c0.6,0.2,1.2,0.3,1.6,0.5c0.3-0.3,0.6-0.6,0.9-1l0.7,0.6c-0.2,0.4-0.5,0.7-0.7,0.9c0.2,0.2,0.5,0.4,0.9,0.8L369,9.8
			c-0.4-0.4-0.7-0.7-1.1-0.9c-0.4,0.3-0.8,0.6-1.3,0.9l-0.6-0.5V10h-2.1l0.1,0.7h2v0.9l-1.9,0l0.1,0.8H368.9z"/>
		<path style="fill:#231F20;" d="M386.6,7.8c-1.5,0.5-3,0.7-4.4,0.8v1.2l4.9,0v1h-4.9l0,2.5h3.2v5.9h-1l0-0.7l-5.3,0v0.7h-1v-5.5
			c-0.4,0.2-1,0.5-1.7,0.7l-0.8-0.9c1.8-0.6,3.4-1.4,4.5-2.7h-3.7v-1h4.9l0-1c-1.2,0.1-2.6,0.2-4,0.2l-0.7-1c3.3,0,6.9-0.3,9.3-1
			L386.6,7.8z M381.2,11c-0.5,0.8-1.6,1.8-2.4,2.2l2.4,0V11z M384.4,14.2l-5.3,0l0,1l5.3,0V14.2z M384.4,17.4l0-1.2h-5.3l0,1.2
			L384.4,17.4z M383.1,10.8c1.7,0.5,3.2,1.3,4.6,2.5l-0.7,0.8c-1.1-1.1-2.9-2.1-4.6-2.5L383.1,10.8z"/>
		<path style="fill:#231F20;" d="M391.7,12.7c-0.5-0.8-1.2-1.4-2.1-1.7l0.6-0.8c0.7,0.2,1.7,0.9,2.3,1.8L391.7,12.7z M392.7,14.1
			c-0.3,1.8-0.9,3.5-1.9,5l-1-0.5c1.1-1.2,1.8-3.8,2-4.9l0.9,0.3c1-0.5,1.9-1.3,2.3-2.1h-2.1v-1h2.1V9.4h-1.6v-1h1.6V6.9h1.1l0,1.5
			l2.3,0V6.9h1l0,1.5h1.6v1h-1.6v1.4h2.1l0,1h-2.1c0.6,0.9,1.9,2,2.8,2.2l-0.7,0.8c-0.7-0.3-1.3-0.8-1.6-1.1l0,2.4h-4.2v0.8
			c0,0.2,0,0.5,0.4,0.5h3.6c0.5,0,0.5-0.5,0.6-1.3h1c-0.1,1.1-0.2,2.3-1.4,2.3h-4.1c-0.9,0-1.1-0.6-1.1-1.1v-3.5
			c-0.3,0.2-0.7,0.6-1.3,0.9L392.7,14.1z M392.3,9.7c-0.8-1.1-1.5-1.4-2.2-1.6l0.8-0.7c0.8,0.3,1.6,0.8,2.2,1.6L392.3,9.7z
			 M396.1,11.8c-0.2,0.5-0.5,0.9-0.7,1.2h3.6c-0.2-0.3-0.6-0.8-0.8-1.2L396.1,11.8z M395.6,15.3h3.1l0-1.2h-3.1V15.3z M396,9.4
			l0,1.4l2.3,0l0-1.4H396z"/>
		<path style="fill:#231F20;" d="M403.5,18.3c2-0.7,3.9-1.3,5.4-2.7c-1.4-1.4-2.1-3.4-2.5-5.4h-2.2v-1h5.5c-0.5-0.8-1.2-1.4-2-1.8
			l0.8-0.7c0.8,0.4,1.7,1.3,2.2,1.9l-0.7,0.5l5.1,0v1h-2.2c-0.3,1.9-1.1,3.9-2.4,5.4c1.4,1.2,3.3,1.9,5.3,2.6l-0.7,0.9
			c-1.9-0.6-3.8-1.4-5.3-2.7c-1.5,1.4-4.1,2.4-5.3,2.8L403.5,18.3z M407.4,10.2c0.2,2.2,1.5,4,2.2,4.6c1.2-1.3,1.8-3,2.1-4.6H407.4z
			"/>
		<path style="fill:#231F20;" d="M422.4,18.1c0.3,0,0.4-0.2,0.4-0.5v-0.8h-5.6v-0.9l5.6,0v-0.5c0.7-0.2,1.4-0.5,1.5-0.5l-4.9,0v-1
			h7.4l0,0.9c-1,0.5-1.9,0.8-2.9,1.1l5.3,0v0.9h-5.3V18c0,0.6-0.2,1-0.8,1.1c-0.6,0.1-1.1,0.1-1.8,0.1l-0.8-1H422.4z M424.4,12.5
			c-0.4-0.5-0.9-0.7-1.1-0.9c-0.5,0.4-1,0.6-1.6,0.9l-0.7-0.6c0.5-0.2,1-0.6,1.3-0.8c-0.2-0.1-0.6-0.2-1.2-0.4l0.6-0.7
			c0.5,0,0.9,0.3,1.4,0.5c0.2-0.2,0.5-0.5,0.8-0.8l0.7,0.6c-0.3,0.3-0.5,0.6-0.6,0.7c0.3,0.2,0.7,0.5,1.1,0.9l-0.6,0.6h2.3l0.1-0.9
			l-1.9,0l0-0.9h2l0.1-0.7l-2.1,0l0-0.9l2.1,0l0.1-0.6h-2.5V7.5l3.5,0l-0.5,5l0.9,0l0,2.1h-1v-1.1l-9.1,0l0,1.2h-1v-2.1l0.9,0
			l-0.5-4.6c1.1-0.1,1.9-0.4,2.8-1.1l0.5,0.8c-0.8,0.6-1.5,0.9-2.3,1l0.1,0.4h2.1c0.5-0.2,0.9-0.5,1.1-0.6c-0.4-0.1-0.9-0.3-1.2-0.3
			l0.4-0.8c0.6,0.2,1.2,0.3,1.6,0.5c0.3-0.3,0.6-0.6,0.9-1l0.7,0.6c-0.2,0.4-0.5,0.7-0.7,0.9c0.2,0.2,0.5,0.4,0.9,0.8l-0.6,0.8
			c-0.4-0.4-0.7-0.7-1.1-0.9c-0.4,0.3-0.8,0.6-1.3,0.9l-0.6-0.5V10h-2.1l0.1,0.7h2v0.9l-1.9,0l0.1,0.8H424.4z"/>
		<path style="fill:#231F20;" d="M431,13.5c1.6-2.3,1.9-3.4,2.1-4.9h-1.8l0-0.9l4.9,0l0,0.9h-2c-0.1,0.8-0.5,2-0.7,2.6h2.3v6.5h-1.1
			l0-1.1h-1.3l0,1.4l-1,0v-4.7c-0.2,0.2-0.4,0.5-0.7,0.9L431,13.5z M434.9,12.2c-0.5,0-1,0-1.5,0v3.7h1.5V12.2z M438.7,13.1
			c0,3.4-0.7,4.2-2.3,6l-0.9-0.7c1.1-1,1.8-2.2,2-3.5c0.1-0.6,0.1-1.4,0.1-1.9h-1.6v-0.9h1.6l0-3.7l-1.2,0V7.5h6.7l0,0.9l-1.6,0v3.7
			h2v1h-2l0,6h-1.1l0-6H438.7z M440.6,8.4l-1.9,0l0,3.7h1.9L440.6,8.4z"/>
		<path style="fill:#231F20;" d="M446.9,13.7h3.5c0.1-0.4,0.2-1,0.2-1.5l0-0.4l1.1,0.1c0,0.7-0.1,1.3-0.2,1.8h3.8
			c-0.2,1.2-0.3,2.3-0.5,3.4c0,0.2,0.1,0.5,0.3,0.5h0.8c0.2,0,0.3,0,0.4-0.2c0.2-0.5,0.4-1.2,0.5-1.8l1,0.5
			c-0.2,0.7-0.4,1.2-0.7,1.8c-0.3,0.5-0.8,0.7-1.3,0.7c-0.7,0-1.5,0.2-1.9-0.6c-0.2-0.3-0.2-0.7-0.2-1.1c0.1-0.8,0.2-1.6,0.3-2.2
			h-2.7c-0.2,0.8-0.4,1.8-1.1,2.5c-1.1,1.2-2.8,1.6-4.2,2l-0.6-1c1.3-0.3,2.6-0.7,3.4-1.2c0.8-0.5,1.1-1.3,1.3-2.3h-3.4L446.9,13.7z
			 M450.9,10c-0.2,0.9-1,1.9-1.9,2.4c-0.8,0.4-1.7,0.7-2.7,0.8l-0.6-1c1.2-0.1,2.2-0.4,3-0.9c0.5-0.4,0.9-1,1.2-1.7L450.9,10z
			 M450.7,6.7c0.7,0.3,1.7,1,2.2,1.3l-0.4,0.4l4.7,0l0,2.6l-1.1,0V9.4h-8.8v1.7h-1.1V8.4h5.5c-0.3-0.3-1.2-0.8-1.7-1L450.7,6.7z
			 M453.8,12.5c-0.8,0-1.2-0.3-1.2-0.8V9.8h1v1.5c0,0.2,0.2,0.2,0.6,0.2h2.8v1H453.8z"/>
		<path style="fill:#231F20;" d="M460.3,15.5V9.4h4.5l0-2.5h1.1l0,2.5l4.5,0v6h-1.1v-0.9h-3.4l0,4.6h-1.1l0-4.6h-3.4l0,1H460.3z
			 M464.8,10.4h-3.4v3.1h3.4L464.8,10.4z M469.2,10.4h-3.3v3.1h3.4L469.2,10.4z"/>
		<path style="fill:#231F20;" d="M472.8,15.8c0.9-1.5,1.6-2.9,2-4.7l1,0.4c-0.3,1.8-0.9,3-2,4.8L472.8,15.8z M477.7,10.1l0,6.7
			c0,0.2,0.3,0.4,0.5,0.5h2.1c0.2,0,0.4-0.1,0.5-0.4c0.2-0.7,0.4-1.5,0.6-2.4l1.1,0.4c-0.3,1-0.4,1.9-0.8,2.7
			c-0.2,0.5-0.8,0.8-1.3,0.8l-2.2,0c-0.7,0-1.6-0.4-1.6-1.4v-6.8L477.7,10.1z M480,11.1c-0.8-1.3-2-2.5-3.3-3.3
			c0.4-0.2,0.6-0.5,0.9-0.6c1.3,0.9,2.4,2.1,3.3,3.4L480,11.1z M484.4,16c-0.7-1.6-1.5-3.1-2.8-4.5c0.4-0.2,0.6-0.3,0.9-0.5
			c1.3,1.3,2.1,2.9,2.9,4.5L484.4,16z"/>
		<path style="fill:#231F20;" d="M492.4,16.8c-1.5,1.1-3.1,1.8-4.8,2.3c-0.2-0.3-0.4-0.6-0.7-0.9c1.7-0.6,3.4-1.2,4.7-2.2
			L492.4,16.8z M491.8,7.9c-0.9,0.6-1.8,0.9-2.7,1.1l0.1,0.9h2.3l0,1h-2.2c0,0.4,0.1,0.9,0.1,1.4h2.1l0,1h-2c0,0.5,0.1,1.1,0.1,1.5
			h2.2l0-3h1v3h1.1v-3.4h-2.1l0-4.7h1.1l0,1.4h2v1h-2v1.4h2.1v4.4h2.1l0.2-1.6h-1.9v-1l2,0c0.1-0.4,0.1-1,0.2-1.4h-2.2v-1l2.2,0
			c0.1-0.4,0.1-0.9,0.2-1.3h-2.7v-1h3.8l-0.7,7.2h1l0,1h-11.5v-1l0.9,0L488,8.2c1.2-0.3,2.1-0.5,3.2-1.2L491.8,7.9z M495,15.9
			c1.8,0.4,3.2,1.3,4.8,2.3l-0.6,0.9c-1.7-1.1-2.9-1.8-4.7-2.3L495,15.9z"/>
		<path style="fill:#231F20;" d="M512,7.8c-1.5,0.5-3,0.7-4.4,0.8v1.2l4.9,0v1h-4.9l0,2.5h3.2v5.9h-1l0-0.7l-5.3,0v0.7h-1v-5.5
			c-0.4,0.2-1,0.5-1.7,0.7l-0.8-0.9c1.8-0.6,3.4-1.4,4.5-2.7h-3.7v-1h4.9l0-1c-1.2,0.1-2.6,0.2-4,0.2l-0.7-1c3.3,0,6.9-0.3,9.3-1
			L512,7.8z M506.6,11c-0.5,0.8-1.6,1.8-2.4,2.2l2.4,0V11z M509.7,14.2l-5.3,0l0,1l5.3,0V14.2z M509.7,17.4l0-1.2h-5.3l0,1.2
			L509.7,17.4z M508.5,10.8c1.7,0.5,3.2,1.3,4.6,2.5l-0.7,0.8c-1.1-1.1-2.9-2.1-4.6-2.5L508.5,10.8z"/>
		<path style="fill:#231F20;" d="M517.1,12.7c-0.5-0.8-1.2-1.4-2.1-1.7l0.6-0.8c0.7,0.2,1.7,0.9,2.3,1.8L517.1,12.7z M518,14.1
			c-0.3,1.8-0.9,3.5-1.9,5l-1-0.5c1.1-1.2,1.8-3.8,2-4.9l0.9,0.3c1-0.5,1.9-1.3,2.3-2.1h-2.1v-1h2.1V9.4h-1.6v-1h1.6V6.9h1.1l0,1.5
			l2.3,0V6.9h1l0,1.5h1.6v1h-1.6v1.4h2.1l0,1h-2.1c0.6,0.9,1.9,2,2.8,2.2l-0.7,0.8c-0.7-0.3-1.3-0.8-1.6-1.1l0,2.4h-4.2v0.8
			c0,0.2,0,0.5,0.4,0.5h3.6c0.5,0,0.5-0.5,0.6-1.3h1c-0.1,1.1-0.2,2.3-1.4,2.3H521c-0.9,0-1.1-0.6-1.1-1.1v-3.5
			c-0.3,0.2-0.7,0.6-1.3,0.9L518,14.1z M517.6,9.7c-0.8-1.1-1.5-1.4-2.2-1.6l0.8-0.7c0.8,0.3,1.6,0.8,2.2,1.6L517.6,9.7z
			 M521.5,11.8c-0.2,0.5-0.5,0.9-0.7,1.2h3.6c-0.2-0.3-0.6-0.8-0.8-1.2L521.5,11.8z M520.9,15.3h3.1l0-1.2h-3.1V15.3z M521.3,9.4
			l0,1.4l2.3,0l0-1.4H521.3z"/>
		<path style="fill:#231F20;" d="M529.9,15.5V9.4h4.5l0-2.5h1.1l0,2.5l4.5,0v6h-1.1v-0.9h-3.4l0,4.6h-1.1l0-4.6H531l0,1H529.9z
			 M534.4,10.4H531v3.1h3.4L534.4,10.4z M538.8,10.4h-3.3v3.1h3.4L538.8,10.4z"/>
		<path style="fill:#231F20;" d="M542.4,18.3c2-0.7,3.9-1.3,5.4-2.7c-1.4-1.4-2.1-3.4-2.5-5.4H543v-1h5.5c-0.5-0.8-1.2-1.4-2-1.8
			l0.8-0.7c0.8,0.4,1.7,1.3,2.2,1.9l-0.7,0.5l5.1,0v1h-2.2c-0.3,1.9-1.1,3.9-2.4,5.4c1.4,1.2,3.3,1.9,5.3,2.6l-0.7,0.9
			c-2-0.6-3.8-1.4-5.3-2.7c-1.5,1.4-4.1,2.4-5.3,2.8L542.4,18.3z M546.3,10.2c0.2,2.2,1.5,4,2.2,4.6c1.2-1.3,1.8-3,2.1-4.6H546.3z"
			/>
		<path style="fill:#231F20;" d="M557.4,11.2v-1.1h4.3c0.1-1,0.1-2.2,0.1-3.5c0.4,0.1,0.7,0.1,1.1,0.2c0,1.2,0,2.3-0.1,3.3h4.9
			l0,1.1h-4c0.5,2.9,1.6,5,4.7,6.7l-0.7,0.8c-3-1.8-4.4-3.8-4.9-7.6c-0.7,3.8-2.2,5.8-5.2,7.5l-0.8-0.9c3-1.4,4.4-3.9,4.9-6.6H557.4
			z"/>
		<path style="fill:#231F20;" d="M575.3,18.1c0.3,0,0.4-0.2,0.4-0.5v-0.8h-5.6v-0.9l5.6,0v-0.5c0.7-0.2,1.4-0.5,1.5-0.5l-4.9,0v-1
			h7.4l0,0.9c-1,0.5-1.9,0.8-2.9,1.1l5.3,0v0.9h-5.3V18c0,0.6-0.2,1-0.8,1.1c-0.6,0.1-1.1,0.1-1.8,0.1l-0.8-1H575.3z M577.3,12.5
			c-0.4-0.5-0.9-0.7-1.1-0.9c-0.5,0.4-1,0.6-1.6,0.9l-0.7-0.6c0.5-0.2,1-0.6,1.3-0.8c-0.2-0.1-0.6-0.2-1.2-0.4l0.6-0.7
			c0.5,0,0.9,0.3,1.4,0.5c0.2-0.2,0.5-0.5,0.8-0.8l0.7,0.6c-0.3,0.3-0.5,0.6-0.6,0.7c0.3,0.2,0.7,0.5,1.1,0.9l-0.6,0.6h2.3l0.1-0.9
			l-1.9,0l0-0.9h1.9l0.1-0.7l-2.1,0l0-0.9l2.1,0l0.1-0.6h-2.5V7.5l3.5,0l-0.5,5l0.9,0l0,2.1h-1v-1.1l-9.1,0l0,1.2h-1v-2.1l0.9,0
			L571,7.9c1.1-0.1,1.9-0.4,2.8-1.1l0.5,0.8c-0.8,0.6-1.5,0.9-2.3,1l0.1,0.4h2.1c0.5-0.2,0.9-0.5,1.1-0.6c-0.4-0.1-0.9-0.3-1.2-0.3
			l0.4-0.8c0.6,0.2,1.2,0.3,1.6,0.5c0.3-0.3,0.6-0.6,0.9-1l0.7,0.6c-0.2,0.4-0.5,0.7-0.7,0.9c0.2,0.2,0.5,0.4,0.9,0.8l-0.6,0.8
			c-0.4-0.4-0.7-0.7-1.1-0.9c-0.4,0.3-0.8,0.6-1.3,0.9l-0.6-0.5V10h-2.1l0.1,0.7h2v0.9l-1.9,0l0.1,0.8H577.3z"/>
		<path style="fill:#231F20;" d="M584.7,19.1V7.3h10.8v11.8h-1v-0.7h-8.7v0.7H584.7z M585.8,8.3v9.1l8.7,0V8.3H585.8z M593.1,8.7V11
			h-2.5v0.3l3.6,0l0,0.9h-8.1v-0.9h3.5V11h-2.5V8.7H593.1z M586.8,16.9l0-4.2h6.7v4.2H586.8z M587.7,13.6v2.5h4.8l0-2.5L587.7,13.6z
			 M588.1,10.2l3.9,0V9.5h-3.9V10.2z M588.6,15.7l0-1.8h3.1v1.8H588.6z M589.4,15h1.4v-0.4h-1.4V15z"/>
		<path style="fill:#231F20;" d="M603.2,8.5h-3.4V7.6l3.4,0V6.7h1.1v0.9l4,0v1.3l1.4,0l0,0.9l-1.4,0l0,1.5h-4l0,0.5l4.5,0v0.9h-4.5
			v0.6l5.6,0v0.9l-11.7,0l0-0.9h5.1v-0.6l-4,0l0-0.9l4,0v-0.5l-3.3,0v-0.9l3.4,0l0-0.6h-4.9V8.9l4.9,0V8.5z M599.9,19.1l0-4.5l8.2,0
			V19l-1,0l0-0.7h-6.1v0.7H599.9z M600.9,15.5v0.5l6.2,0v-0.5L600.9,15.5z M607,17.4V17l-6.2,0l0,0.5H607z M604.2,8.9h2.9V8.5h-3
			L604.2,8.9z M604.2,10.4l2.9,0V9.8l-3,0L604.2,10.4z"/>
		<path style="fill:#231F20;" d="M620.9,8.2l2.6,0v2.2h-0.9v3.4h-3.8v0.9h4.2v4.4h-1v-0.9h-3.2v0.9l-1,0v-8.7h-0.9V9.9l-0.4,0.2
			c-0.2-0.2-0.3-0.3-0.4-0.5v0.8h-2.5c-0.2,0.2-0.4,0.5-0.5,0.6h3.8v4.3h-3v2l1.7-0.8c-0.1-0.1-0.4-0.3-0.8-0.5l0.9-0.6
			c0.9,0.4,1.6,1.4,2.1,2.2l-0.9,0.6c-0.2-0.5-0.3-0.7-0.5-1c-1.1,0.5-2.2,0.9-3.1,1.3l-0.8-0.7c0.4-0.3,0.4-0.7,0.4-1.1v-5.6
			c-0.1,0.1-0.2,0.2-0.4,0.3c-0.3-0.2-0.5-0.4-0.9-0.6c1.3-1.3,2.3-2.6,2.5-4.4l1,0.4c0,0.3-0.1,0.4-0.1,0.5c0.8,0.3,1.6,0.8,2,1.3
			V8.2h3c-0.2-0.2-0.6-0.7-1.2-0.9c0.3-0.3,0.5-0.4,0.8-0.6c0.6,0.3,1.2,0.7,1.6,1.5L620.9,8.2z M615.7,12.1h-2v0.6h2V12.1z
			 M615.7,13.7h-2v0.6h2V13.7z M615.8,9.5c-0.4-0.4-0.8-0.7-1.3-0.9c-0.1,0.3-0.3,0.7-0.4,0.9H615.8z M622.4,9.2l-4.6,0v1.1h4.6V9.2
			z M618.8,11.3v1.5l2.7,0v-1.5L618.8,11.3z M618.8,17.2l3.1,0l0-1.5h-3.1V17.2z"/>
		<path style="fill:#231F20;" d="M630.5,15.7c-1.2,1.4-2.7,2.7-4.3,3.5l-0.6-0.9c1.2-0.6,3.2-2.2,4-3.3L630.5,15.7z M634.2,6.8v2.6
			h2v1l-2,0v3.2l2.8,0l0,1h-11.2v-1.1l2.8,0l0-3.2l-2,0v-1l2,0V6.8h1.1v2.6l3.4,0V6.8H634.2z M633.1,10.5l-3.4,0l0,3.1h3.4V10.5z
			 M636.4,19.1c-1-1.3-2.6-2.5-4.1-3.4l0.7-0.8c1.5,0.9,3,2,4.1,3.5L636.4,19.1z"/>
		<path style="fill:#231F20;" d="M647.2,17.8c0.7,0,1.6,0,1.8-0.1c0.1-0.1,0.2-0.4,0.2-0.6l0-8.6l-8.3,0v10.8h-1.1V7.4h10.5l0,9.9
			c0,0.6-0.2,1.3-0.6,1.5c-0.4,0.1-1.7,0.2-2.2,0.2L647.2,17.8z M648.9,9.9l0,1h-7.3l0-1H648.9z M647.7,12.4v4.1h-5.2v-4.1
			L647.7,12.4z M643.6,15.5h3.1v-2.1l-3.1,0V15.5z"/>
		<path style="fill:#231F20;" d="M653.1,10.4c1.4,0,2.3-0.6,2.5-1.5c0.3-0.7,0.3-1.2,0.3-2.1l1,0.2c0,0.9-0.1,1.7-0.3,2.3
			c0.6,0.2,1.2,0.5,1.9,1l-0.6,0.7c-0.6-0.5-1.1-0.8-1.7-0.9c-0.7,0.7-1,1-2.5,1.2L653.1,10.4z M653.3,9.1c0.5-0.5,0.8-1,0.9-1.7
			l0.8,0.4c-0.1,0.7-0.5,1.3-0.9,1.9L653.3,9.1z M663.7,11.2c-0.8-0.6-1.6-1.1-2.4-1.2c-0.5,0.8-1.3,1.2-2.3,1.4l5.2,0l0,2.3h-1
			v-1.3l-8.8,0v1.4h-1v-2.4h5.5l-0.5-0.9c1.1-0.1,2.1-0.6,2.4-1.6c0.2-0.6,0.2-1.2,0.2-2.1l1,0.2c0,0.8-0.1,1.6-0.2,2.1
			c0.9,0.2,2.2,0.8,2.7,1.4L663.7,11.2z M655.5,19.1h-1l0-3.1l3.6,0c0.1-0.2,0.2-0.5,0.3-0.6l-3.3,0v-2.6l7.4,0l0,2.6h-3.2
			c0,0.2-0.1,0.5-0.2,0.7l4.1,0v3h-1v-0.5h-6.7V19.1z M662.2,17l-6.7,0v0.6h6.7V17z M661.4,13.7h-5.4v0.7l5.4,0V13.7z M656.9,9.1
			c0.5-0.6,0.8-1,0.9-1.7l0.8,0.3c-0.1,0.7-0.4,1.2-0.7,1.8L656.9,9.1z M658.6,9.2c0.5-0.6,0.7-1.1,0.8-1.9l0.9,0.4
			c-0.1,0.7-0.3,1.3-0.7,1.9L658.6,9.2z M662.4,8.9c0.5-0.5,0.8-1,0.9-1.7l0.8,0.4c-0.1,0.7-0.4,1.2-0.9,1.7L662.4,8.9z"/>
		<path style="fill:#231F20;" d="M666.7,18.6c1.6-1.5,2.2-2.7,2.5-4H667l0-0.9c0.8-0.9,1.6-1.8,2-2.6h-2.2l0-1l3.4,0V11
			c-0.6,1.1-1.2,1.9-1.9,2.6h1.9c-0.1,1.2-0.3,2.2-0.7,3c0.8,0.5,1.8,1,2.9,1l4.3,0l2.4-0.1l-0.4,1.1h-6.2c-1.3,0-2.4-0.5-3.4-1.1
			c-0.4,0.6-1.1,1.3-1.5,1.7L666.7,18.6z M668.9,9.9c-0.3-1-0.7-1.9-1.7-2.5l0.9-0.5c0.9,0.6,1.3,1.6,1.7,2.5L668.9,9.9z M677.4,8.4
			h-6.2v1l-1,0v-2l8.3,0v1.9h-1v0.7h-2.6v0.5h3v4.2h-3l0,0.6l3.7,0v1l-3.7,0l0,1.1h-1v-1.1h-3.6v-1h3.6v-0.6l-3,0v-4.2l3,0v-0.5
			h-2.6l0-1h2.6V8.5h1l0,0.6h2.5V8.4z M671.8,11.4v0.7h2v-0.7L671.8,11.4z M671.8,13.8l2,0v-0.7h-2L671.8,13.8z M676.8,12.1v-0.7
			h-1.9v0.7L676.8,12.1z M676.8,13.1h-1.9v0.7l1.9,0V13.1z"/>
		<path style="fill:#231F20;" d="M683.4,11.8h1.5v1.4c0,0.5-0.2,1.5-1.2,1.9l-0.4-0.5c0.6-0.3,0.8-0.8,0.8-1.4h-0.7V11.8z"/>
		<path style="fill:#231F20;" d="M698.9,7.3c-0.5,1.2-1.5,1.9-2,2.3l4,0v1l-3.7,0l0,6.8h4.1v1h-12v-1h4.2v-6.8h-3.7l0-1h3.9
			c-0.6-0.9-1.5-1.7-2.3-2.1l0.8-0.6c1,0.4,1.8,1.3,2.4,2.2l-0.7,0.5l2.7,0l-0.7-0.6c0.9-0.6,1.7-1.3,2.2-2.3L698.9,7.3z
			 M692.2,16.3c-0.3-1.6-1-3-2-4.3l0.8-0.6c1.1,1.3,1.8,2.7,2.2,4.3L692.2,16.3z M694.6,10.6v6.8h1.5l0-6.8L694.6,10.6z M700.3,11.9
			c-0.5,1.5-1.1,3-2.2,4.4l-0.9-0.6c0.9-1,1.8-2.8,2.1-4.3L700.3,11.9z"/>
		<path style="fill:#231F20;" d="M707.1,7.6c-0.3,0.9-0.7,1.7-1.2,2.4c0.2,0.5,0.3,1,0.4,1.6c0.9-0.6,1.6-1.4,1.9-2.7l0.8,0.3
			c-0.1,0.4-0.2,0.7-0.3,0.9h1.7c-0.1-0.2-0.2-0.3-0.3-0.4h-0.6l0-0.8h-2.5v-1l2.5,0l0-0.9h1V9l0.2-0.1c0.3,0.4,0.4,0.8,0.6,1.2
			l3.4,0V11h-3.2l0,0.3h2.7v0.9l-2.7,0v0.5l2.7,0v0.9h-2.7V14l3.5,0v1h-7.6l0-3.1c-0.1,0.1-0.3,0.4-0.7,0.6l-0.3-0.2
			c0.1,1.2,0.2,2.7,0.1,4.1c-0.1,0.9,0.1,2-0.8,2.6c-0.6,0.4-1.3,0.1-1.9,0.1l-0.3-1.1c0.6,0.1,1.1,0.3,1.5,0.2
			c0.2-0.1,0.4-0.4,0.4-0.7c0.2-1.2,0.2-2.1,0.2-3.3c-0.5,0.5-1.1,1.2-2,1.8l-0.8-0.7c1.4-0.8,2.4-2,2.7-2.7
			c-0.1-0.5-0.2-1.1-0.3-1.6c-0.3,0.3-0.7,0.7-1.3,1.1l-0.9-0.7c0.8-0.4,1.4-0.9,1.8-1.4c-0.3-0.7-1-1.4-1.9-1.7l0.6-0.8
			c0.6,0.3,1.3,0.7,1.9,1.6c0.4-0.6,0.5-1,0.9-1.8L707.1,7.6z M706.4,18.2c1.5-0.1,2.7-0.2,3.7-0.6c-0.5-0.2-1.1-0.8-1.5-1.3h-1v-1
			l6.6,0v0.8c-0.7,0.7-1.1,1-2,1.5c0.9,0.3,2.1,0.5,3.6,0.5l-0.6,1c-1.5-0.1-2.8-0.4-4-0.9c-1.2,0.4-1.9,0.8-4.2,1L706.4,18.2z
			 M708.6,12.2l0,0.4h2.1v-0.4L708.6,12.2z M710.7,13.9v-0.4h-2.1v0.4H710.7z M708.6,11.4h2.1V11h-2.1V11.4z M709.8,16.3
			c0.3,0.2,0.8,0.7,1.3,0.9c0.6-0.2,1.2-0.6,1.5-0.9H709.8z M712.4,8.8v0.8l-1,0V6.9h1v1h2.7v1H712.4z"/>
		<path style="fill:#231F20;" d="M722.6,8.7l0,1h-5.2l0-1h2.4c-0.3-0.5-0.7-0.9-1.2-1.5l0.9-0.5c0.5,0.5,1,1.1,1.3,1.8l-0.4,0.2
			L722.6,8.7z M717.9,10.6l4.1,0v1h-4.2L717.9,10.6z M722,12.3l0,1h-4.1l0-1L722,12.3z M720.9,18l-1.8,0v1l-1,0l0-4.6h3.8l0,4.6
			l-1,0V18z M720.9,15.3l-1.8,0l0,1.6h1.8V15.3z M722.1,12.5l1.9,0c0.2-0.7,0.3-1.4,0.4-2h-1.7v-1h1.9c0.1-0.3,0.2-0.8,0.2-1.1
			l-2.6,0l0-1l6.9,0v1l-3.2,0c-0.1,0.4-0.2,0.8-0.2,1.1h2.7c-0.1,1.1-0.2,2.1-0.3,3l1.5,0v1l-7.5,0L722.1,12.5z M728.5,14.3l0,4.8
			l-1,0v-0.8h-3.2l0,0.9h-1v-4.9H728.5z M724.2,17.3l3.2,0v-2l-3.2,0L724.2,17.3z M727.3,10.5l-1.8,0c-0.1,0.3-0.2,0.7-0.2,1.1
			c-0.1,0.3-0.1,0.7-0.2,0.8l2,0L727.3,10.5z"/>
		<path style="fill:#231F20;" d="M731.2,18.3c2-0.7,3.9-1.3,5.4-2.7c-1.4-1.4-2.1-3.4-2.5-5.4h-2.2v-1h5.5c-0.5-0.8-1.2-1.4-2-1.8
			l0.8-0.7c0.8,0.4,1.7,1.3,2.2,1.9l-0.7,0.5l5.1,0v1h-2.2c-0.3,1.9-1.1,3.9-2.4,5.4c1.4,1.2,3.3,1.9,5.3,2.6l-0.7,0.9
			c-2-0.6-3.8-1.4-5.3-2.7c-1.5,1.4-4.1,2.4-5.3,2.8L731.2,18.3z M735.1,10.2c0.2,2.2,1.5,4,2.2,4.6c1.2-1.3,1.8-3,2.1-4.6H735.1z"
			/>
		<path style="fill:#231F20;" d="M47.8,39.1c-1-0.7-1.7-1.4-2.4-2.5c-0.6,0.8-1.6,1.8-2.7,2.5l-0.8-0.8c1.2-0.7,2.3-1.6,2.9-2.7
			c-0.4-1-0.8-1.9-1-3.3c-0.2,0.4-0.4,0.8-0.7,1.1l-0.9-0.7c0.2-0.3,0.5-0.7,0.7-1.1h-1.6c-0.5,0.5-0.8,0.8-1.2,1l2.1,0v1.1
			c-0.5,0.6-1.1,1.2-1.5,1.4l3-0.5l0,1l-3.1,0.5v1.8c0,0.6-0.5,0.9-0.9,0.9h-1.4l-0.4-1c0.6,0,1.1,0.1,1.4,0.1
			c0.2,0,0.3-0.1,0.3-0.3v-1.3l-3,0.5l-0.6-1c1.3-0.1,2.3-0.2,3.6-0.4V35c0.5-0.2,1.3-0.9,1.5-1.1h-2.3c-0.6,0.3-1.2,0.6-1.9,1
			l-0.7-0.9c1.5-0.6,2.9-1.2,3.8-2.1h-3.8v-1h2.8v-1.3H37v-1h1.7V27h1.1v1.4h1.7v1h-1.7v1.3h1c0.6-0.7,1.2-1.7,1.6-2.7l0.9,0.5
			c-0.5,1.1-0.9,1.7-1.3,2.2H43v0.6c0.5-1.1,0.9-3.6,1.1-4.7l1,0.2c-0.1,0.9-0.2,1.7-0.4,2.4h3.5v1h-1c0,1.8-0.5,3.7-1.3,5.4
			c0.5,1,1.5,1.9,2.6,2.6L47.8,39.1z M44.5,30.3c-0.1,1.5,0.5,3,0.9,4.1c0.4-0.8,0.8-2.4,0.9-4.1H44.5z"/>
		<path style="fill:#231F20;" d="M60.6,32.1l0,5.7c0,0.3-0.3,0.7-0.5,0.8c-0.5,0.3-1.3,0.1-1.9,0.2l-0.4-1.1l1.5,0.1
			c0.1,0,0.3-0.1,0.3-0.3v-0.9h-5.7c-0.3,0.9-1.3,2.1-2.2,2.6l-0.7-0.9c1-0.6,2-1.6,2-2.8l0-3.4H60.6z M55.7,26.6
			c0.7,0.5,1.2,1,1.5,1.4h5.1v1h-5.8c-0.8,0.8-1.7,1.5-2.3,1.8l4.9-0.4c-0.3-0.2-0.5-0.3-1-0.6l0.6-0.7c1.2,0.6,2.3,1.3,3.3,2.3
			l-0.7,0.7c-0.3-0.3-0.7-0.7-1.1-1.1L52.3,32l-0.5-0.9c1.4-0.6,2.4-1.3,3.2-2h-4l0-1H56c-0.3-0.3-0.7-0.6-1.2-0.9L55.7,26.6z
			 M54,34.8c0,0.2,0,0.6-0.1,0.9h5.6l0-0.9H54z M54,33.1v0.7l5.5,0l0-0.7L54,33.1z"/>
		<path style="fill:#231F20;" d="M66.7,38.2c1.6-0.4,2.8-1.1,3.9-2c-1.2-1.2-1.9-2.4-2.5-4.1c-0.1,2-0.4,3.4-0.8,4.3
			c-0.4,0.9-1,1.8-1.7,2.7c-0.4-0.2-0.7-0.4-1.1-0.6c1.1-1.1,1.9-2.2,2.1-3.4c0.2-1.2,0.3-2.1,0.4-3.4c0.1-1,0.1-2.1,0.1-3h-1.8v-1
			h8.7v0.9c-0.6,0.9-1.3,1.8-1.8,2.5h2.7c-0.1,1.1-0.4,2-0.9,2.9c-0.5,0.9-1.1,1.6-1.7,2.3c1.1,0.9,2.5,1.5,4.1,1.9l-0.6,1
			c-1.6-0.5-2.9-1.1-4.2-2.2c-1.1,0.9-2.3,1.6-4.1,2.2L66.7,38.2z M68.2,29.3c0.5,1.7,0.9,2.7,1.4,3.6c0.5,1,0.9,1.5,1.9,2.6
			c0.9-0.9,1.8-2.2,2.1-3.4h-2.9v-0.9c0.7-0.9,1.5-1.9,1.8-2.4h-4.3V29.3z"/>
		<path style="fill:#231F20;" d="M77.8,33.5c1.6-2.3,1.9-3.4,2.1-4.9h-1.8l0-0.9l4.9,0l0,0.9h-2c-0.1,0.8-0.5,2-0.7,2.6h2.3v6.5
			h-1.1l0-1.1h-1.3l0,1.4l-1,0v-4.7c-0.2,0.2-0.4,0.5-0.7,0.9L77.8,33.5z M81.6,32.2c-0.5,0-1,0-1.5,0v3.7h1.5V32.2z M85.5,33.1
			c0,3.4-0.7,4.2-2.3,6l-0.9-0.7c1.1-1,1.8-2.2,2-3.5c0.1-0.6,0.1-1.4,0.1-1.9h-1.6v-0.9h1.6l0-3.7l-1.2,0v-0.9H90l0,0.9l-1.6,0v3.7
			h2v1h-2l0,6h-1.1l0-6H85.5z M87.3,28.4l-1.9,0l0,3.7h1.9L87.3,28.4z"/>
		<path style="fill:#231F20;" d="M93.8,33.7h3.5c0.1-0.4,0.2-1,0.2-1.5l0-0.4l1.1,0.1c0,0.7-0.1,1.3-0.2,1.8h3.8
			c-0.2,1.2-0.3,2.3-0.5,3.4c0,0.2,0.1,0.5,0.3,0.5h0.8c0.2,0,0.3,0,0.4-0.2c0.2-0.5,0.4-1.2,0.5-1.8l1,0.5
			c-0.2,0.7-0.4,1.2-0.7,1.8c-0.3,0.5-0.8,0.7-1.3,0.7c-0.7,0-1.5,0.2-1.9-0.6c-0.2-0.3-0.2-0.7-0.2-1.1c0.1-0.8,0.2-1.6,0.3-2.2
			h-2.7c-0.2,0.8-0.4,1.8-1.1,2.5c-1.1,1.2-2.8,1.6-4.2,2l-0.6-1c1.3-0.3,2.6-0.7,3.4-1.2c0.8-0.5,1.1-1.3,1.3-2.3h-3.4L93.8,33.7z
			 M97.8,30c-0.2,0.9-1,1.9-1.9,2.4c-0.8,0.4-1.7,0.7-2.7,0.8l-0.6-1c1.2-0.1,2.2-0.4,3-0.9c0.5-0.4,0.9-1,1.2-1.7L97.8,30z
			 M97.6,26.7c0.7,0.3,1.7,1,2.2,1.3l-0.4,0.4l4.7,0l0,2.6l-1.1,0v-1.6h-8.8v1.7h-1.1v-2.7h5.5c-0.3-0.3-1.2-0.8-1.7-1L97.6,26.7z
			 M100.7,32.5c-0.8,0-1.2-0.3-1.2-0.8v-1.9h1v1.5c0,0.2,0.2,0.2,0.6,0.2h2.8v1H100.7z"/>
		<path style="fill:#231F20;" d="M108,29.9v1.6h-1.1v-2.6h2.7c-0.3-0.3-0.8-0.8-1.5-1.2c0.3-0.3,0.6-0.4,0.9-0.6
			c0.4,0.2,1.4,1.2,1.9,1.8h1.1v-2.2h1.1l0,2.2h1.3c0.5-0.5,1-1.2,1.4-1.9c0.3,0.2,0.6,0.4,0.9,0.6c-0.3,0.6-0.7,1.1-1,1.3l2.5,0
			v2.5h-1.1v-1.6H108z M107.9,38.1l0-3.6h4.1v-0.8h-3v-3l7,0v3.1l-3,0v0.9h4.2V37c0,0.3-0.3,0.7-0.9,0.8c-0.5,0.1-0.9,0-1.5,0
			c-0.1-0.4-0.2-0.6-0.3-1c0.6,0,1.1,0.1,1.5,0c0.1,0,0.2-0.1,0.2-0.2v-1.1l-3.1,0l0,3.6h-1.1l0-3.6l-3.1,0v2.6H107.9z M115,31.6
			h-4.9v1h4.9V31.6z"/>
		<path style="fill:#231F20;" d="M126.4,32.8c0.7-0.3,1.4-0.6,2-1.1c-0.4-0.4-0.7-1-1-1.7c-0.3,0.4-0.6,0.7-0.9,1
			c-0.3-0.2-0.6-0.4-1-0.6c1.3-1.1,1.9-2.3,2.4-3.8c0.3,0.1,0.6,0.2,0.9,0.3c-0.1,0.4-0.2,0.8-0.3,1.1l3.9,0v1h-1.1
			c-0.3,1-0.7,2-1.4,2.7c0.9,0.7,2,1.2,3.3,1.5l-0.6,1c-1.2-0.3-2.4-0.9-3.5-1.7c-0.9,0.7-2.1,1.2-3.3,1.7l-0.6-0.9l0.6-0.2
			l-0.6-0.1c0.1-0.2,0.1-0.5,0.2-0.7h-0.6v5.7c0,0.7-0.4,1.1-1,1.2c-0.4,0.1-0.9,0.1-1.3,0l-0.4-1.1c0.5,0,0.9,0.1,1.2,0
			c0.3,0,0.4-0.1,0.4-0.4v-5.5c-0.4,2.1-1.1,3.7-2.6,5l-0.8-0.7c1.3-1.1,2-2.5,2.3-4.3h-1.8v-1h3.1c-0.5-0.5-1.2-1-2.1-1.4l0.8-0.7
			c0.4,0.2,0.7,0.3,1,0.5c0.5-0.4,1-0.8,1.2-1.2h-3.5v-1h4.7v0.9c-0.5,0.7-1.1,1.4-1.7,1.9l0.7,0.7l-0.3,0.3h1.9L126.4,32.8z
			 M125,38.2c1.8-0.3,2.8-1.7,3.1-3.1h-1.9v-1h2.1c0-0.3,0-0.6,0-1h1.1c0,0.4,0,0.7,0,1h2.4c-0.1,1.6-0.2,2.9-0.5,3.8
			c-0.2,0.7-0.6,0.9-1.4,0.9c-0.4,0-0.8,0-1.3-0.1c-0.1-0.4-0.2-0.8-0.3-1.1c0.5,0.1,1,0.2,1.4,0.2c0.3,0,0.5-0.1,0.5-0.4
			c0.1-0.5,0.3-1.5,0.4-2.2h-1.5c-0.2,1.9-1.6,3.6-3.6,4.1L125,38.2z M128.2,29c0.2,0.7,0.5,1.3,1,2c0.5-0.5,0.8-1.2,1-2H128.2z"/>
		<path style="fill:#231F20;" d="M140.7,32.6v-1.8c-1.2,1.4-2.8,2.1-4.9,2.7l-0.6-0.9c1.8-0.4,3.3-1,4.3-2l-3.9,0v-1l5.1,0v-1
			c-1,0.1-3.5,0.3-4.2,0.3l-0.5-1.1c3.4,0,6.7-0.3,9.6-1.2l0.6,0.9c-1.3,0.4-3.3,0.8-4.5,1l0,1.1l5,0l0,1l-5.1,0v2.3h-0.7l0.3,0.2
			c-0.3,0.3-0.7,0.7-0.7,0.8l6.1,0v1l-2.4,0c-0.4,0.7-1.1,1.4-1.6,1.9c1.2,0.4,2.6,0.8,4,1.5l-0.5,0.9c-1.5-0.8-3-1.4-4.5-1.7
			c-1.8,1.1-3.9,1.5-6.2,1.8l-0.4-1c2,0,5-0.9,5-1.1c0,0-2-0.4-3-0.5c0.6-0.7,1.1-1.3,1.4-1.7h-2.9l0-1l3.7,0
			c0.3-0.4,0.7-0.8,1.1-1.3L140.7,32.6z M141.6,36.3c0.6-0.4,1.3-1,1.6-1.5l-3.3,0c-0.3,0.4-0.5,0.6-0.8,1L141.6,36.3z M142.7,30.8
			c1.6,0.2,2.9,0.8,4.3,1.5c-0.2,0.3-0.4,0.6-0.6,0.9c-1.2-0.6-2.7-1.3-4.2-1.5L142.7,30.8z"/>
		<path style="fill:#231F20;" d="M156.7,37c1.7,0.2,3.1,0.6,4.7,1.2l-0.5,0.9c-1.6-0.7-3.1-1.1-4.9-1.3l0.5-0.8h-2.3l0.5,0.7
			c-1.5,0.8-3.1,1.1-4.8,1.4c-0.2-0.3-0.4-0.5-0.7-0.9c1.8-0.2,3.3-0.5,4.8-1.2l-3.4,0v-6.1h9.3V37H156.7z M159.4,27.4v2.8h-8v-2.8
			L159.4,27.4z M159,31.8l-7.2,0l0,0.6l7.2,0V31.8z M151.8,34.2h7.2v-0.7l-7.2,0V34.2z M151.8,35.2V36l7.2,0v-0.8H151.8z
			 M158.3,29.3v-0.9h-5.9v0.9H158.3z"/>
		<path style="fill:#231F20;" d="M169.8,27.1c1.7,1.3,3.5,2.7,5.9,3.2l-0.7,0.9c-0.4-0.1-0.7-0.2-0.9-0.3l0,2.8h-9.9v-2.9
			c-0.2,0.1-0.5,0.2-0.9,0.4c-0.2-0.3-0.3-0.6-0.6-0.9c2.4-0.9,4.5-2,6.4-3.9l0.9,0.5L169.8,27.1z M171.4,29.9h-4.5l0-0.6
			c-0.9,0.5-1.7,0.9-2.1,1.1l8.3,0c-0.3-0.1-1.2-0.6-1.7-1V29.9z M165,39v-4.8l8.3,0l0,4.8h-1.1v-0.7H166V39H165z M165.2,31.4v1.2
			h1.4c-0.2-0.2-0.5-0.5-1-0.9c0.2-0.2,0.5-0.3,0.7-0.4L165.2,31.4z M166.1,35.7l6.2,0v-0.6h-6.2V35.7z M172.3,36.7h-6.2v0.6h6.2
			L172.3,36.7z M166.6,31.4c0.5,0.4,0.9,0.8,1.2,1.2h0.8l0-1.2H166.6z M170.6,28.9c-0.4-0.3-1-0.8-1.4-1.2c-0.6,0.5-1,0.9-1.6,1.2
			L170.6,28.9z M169.7,31.4l0,1.3h0.9c0.4-0.4,0.6-0.7,0.9-1.3H169.7z M172.4,31.8c-0.2,0.4-0.5,0.9-0.5,0.9h1.2l0-1.3h-1.4
			L172.4,31.8z"/>
		<path style="fill:#231F20;" d="M184.8,39.2c-2.4-2.4-3.2-6.2-1.9-9.4c0.5-1.1,1.1-2.2,2-3.1l0.7,0.6c-0.9,0.9-1.6,2-2,3.3
			c-0.8,2.8-0.1,5.8,2,7.9L184.8,39.2z"/>
		<path style="fill:#231F20;" d="M193.7,28.7l0,1h-5.2l0-1h2.4c-0.3-0.5-0.7-0.9-1.2-1.5l0.9-0.5c0.5,0.5,1,1.1,1.3,1.8l-0.4,0.2
			L193.7,28.7z M189,30.6l4.1,0v1H189L189,30.6z M193.2,32.3l0,1H189l0-1L193.2,32.3z M192.1,38l-1.8,0v1l-1,0l0-4.6h3.8l0,4.6l-1,0
			V38z M192.1,35.3l-1.8,0l0,1.6h1.8V35.3z M193.3,32.5l1.9,0c0.2-0.7,0.3-1.4,0.4-2h-1.7v-1h1.9c0.1-0.3,0.2-0.8,0.2-1.1l-2.6,0
			l0-1l6.9,0v1l-3.2,0c-0.1,0.4-0.2,0.8-0.2,1.1h2.7c-0.1,1.1-0.2,2.1-0.3,3l1.5,0v1l-7.5,0L193.3,32.5z M199.6,34.3l0,4.8l-1,0
			v-0.8h-3.2l0,0.9h-1v-4.9H199.6z M195.4,37.3l3.2,0v-2l-3.2,0L195.4,37.3z M198.5,30.5l-1.8,0c-0.1,0.3-0.2,0.7-0.2,1.1
			c-0.1,0.3-0.1,0.7-0.2,0.8l2,0L198.5,30.5z"/>
		<path style="fill:#231F20;" d="M204.7,29.9v1.6h-1.1v-2.6h2.7c-0.3-0.3-0.8-0.8-1.5-1.2c0.3-0.3,0.6-0.4,0.9-0.6
			c0.4,0.2,1.4,1.2,1.9,1.8h1.1v-2.2h1.1l0,2.2h1.3c0.5-0.5,1-1.2,1.4-1.9c0.3,0.2,0.6,0.4,0.9,0.6c-0.3,0.6-0.7,1.1-1,1.3l2.5,0
			v2.5h-1.1v-1.6H204.7z M204.6,38.1l0-3.6h4.1v-0.8h-3v-3l7,0v3.1l-3,0v0.9h4.2V37c0,0.3-0.3,0.7-0.9,0.8c-0.5,0.1-0.9,0-1.5,0
			c-0.1-0.4-0.2-0.6-0.3-1c0.6,0,1.1,0.1,1.5,0c0.1,0,0.2-0.1,0.2-0.2v-1.1l-3.1,0l0,3.6h-1.1l0-3.6l-3.1,0v2.6H204.6z M211.7,31.6
			h-4.9v1h4.9V31.6z"/>
		<path style="fill:#231F20;" d="M225,27.1c1.7,1.3,3.5,2.7,5.9,3.2l-0.7,0.9c-0.4-0.1-0.7-0.2-0.9-0.3l0,2.8h-9.9v-2.9
			c-0.2,0.1-0.5,0.2-0.9,0.4c-0.2-0.3-0.3-0.6-0.6-0.9c2.4-0.9,4.5-2,6.4-3.9l0.9,0.5L225,27.1z M226.6,29.9h-4.5l0-0.6
			c-0.9,0.5-1.7,0.9-2.1,1.1l8.3,0c-0.3-0.1-1.2-0.6-1.7-1V29.9z M220.2,39v-4.8l8.3,0l0,4.8h-1.1v-0.7h-6.2V39H220.2z M220.5,31.4
			v1.2h1.4c-0.2-0.2-0.5-0.5-1-0.9c0.2-0.2,0.5-0.3,0.7-0.4L220.5,31.4z M221.3,35.7l6.2,0v-0.6h-6.2V35.7z M227.5,36.7h-6.2v0.6
			h6.2L227.5,36.7z M221.8,31.4c0.5,0.4,0.9,0.8,1.2,1.2h0.8l0-1.2H221.8z M225.9,28.9c-0.4-0.3-1-0.8-1.4-1.2
			c-0.6,0.5-1,0.9-1.6,1.2L225.9,28.9z M224.9,31.4l0,1.3h0.9c0.4-0.4,0.6-0.7,0.9-1.3H224.9z M227.6,31.8c-0.2,0.4-0.5,0.9-0.5,0.9
			h1.2l0-1.3h-1.4L227.6,31.8z"/>
		<path style="fill:#231F20;" d="M235.2,30.6c-0.4-1.3-1-2.3-2-3.3l0.7-0.6c0.9,0.9,1.5,1.9,2,3.1c1.3,3.2,0.4,7-1.9,9.4l-0.7-0.6
			C235.3,36.4,236,33.5,235.2,30.6z"/>
		<path style="fill:#231F20;" d="M247.1,30.3c-0.8,0.8-2,1.7-3,2.2l-0.6-0.9c1.2-0.3,2-1,2.9-2L247.1,30.3z M250.7,37.1l-2.5,0
			l0.6,0.7c-1.5,0.8-3.1,1.3-4.9,1.4l-0.5-1c1.7-0.1,3.2-0.4,4.6-1.1l-2.5,0l0-5.4h1.9l-0.5-0.9c1.8-0.1,3.4-0.8,3.8-2l-1.5,0
			c-0.3,0.4-0.7,0.9-1.3,1.3l-0.9-0.6c1.1-0.6,1.8-1.7,2.2-2.7l0.8,0.4c-0.1,0.3-0.2,0.6-0.2,0.7h5.1c-0.2,0.9-0.5,1.6-0.9,2.3
			l-0.9-0.5c0.4-0.5,0.4-0.6,0.5-0.9l-1.8,0c-0.1,0.2-0.2,0.4-0.3,0.6c1,1,2,1.4,4.1,1.6l-0.5,1c-1.7-0.3-2.9-0.6-4.1-1.7
			c-0.8,0.9-1.9,1.3-3,1.5l5.6,0l0,5.4l-1.9,0c1.3,0.2,2.6,0.6,3.8,1.2l-0.6,0.9c-1.5-0.8-2.9-1.2-4.7-1.3L250.7,37.1z M244.5,27.2
			c0.9,0.3,1.6,0.7,2.3,1.4l-0.6,0.8c-0.6-0.5-1.4-1.2-2.3-1.4L244.5,27.2z M252.5,34l-6,0v0.6h6V34z M246.6,36.1l6,0v-0.6h-6
			L246.6,36.1z M252.5,32.6l-6,0v0.5l6,0V32.6z"/>
		<path style="fill:#231F20;" d="M264.5,36.2l-5.7,1.8c-0.2-0.3-0.4-0.6-0.7-0.9l1.2-0.4l0-9.2h4.3l0,7.9l0.9-0.3V36.2z M262.6,31.3
			l-2.2,0v1.9h2.2V31.3z M260.4,36.4l2.2-0.6l0-1.6h-2.2V36.4z M262.6,28.5l-2.2,0v1.8l2.1,0L262.6,28.5z M270.1,29.8l-0.2,2.7
			c-0.1,1.7-0.4,3.3-0.7,4.9c-0.1,0.6-0.6,1.2-1.2,1.4c-0.7,0.2-1.3-0.1-2-0.2l-0.1-1.1c0.6,0.2,1,0.3,1.5,0.3c0.2,0,0.5,0,0.6-0.2
			c0.6-1.2,0.8-4.2,1-6.7l-1.9,0c-0.2,1.9-0.2,4-1.4,5.6c-0.7,1-1.8,2-2.9,2.7l-0.1-0.2c-0.2-0.2-0.4-0.4-0.7-0.7
			c1.9-1.1,3.5-2.8,3.7-4.9c0.1-0.9,0.2-1.8,0.3-2.6l-1.9,0v-1h2c0-0.9,0.1-2,0-3l1.1,0l-0.1,3H270.1z"/>
		<path style="fill:#231F20;" d="M279,33.5c-0.2,0.7-0.9,1.3-1.7,1.4c-0.7,0.1-1.3-0.2-1.7-0.7c-0.4-0.5-0.6-1.2-0.4-1.9
			c0.2-0.7,0.9-1.3,1.7-1.3c0.7,0,1.3,0.2,1.7,0.8C279.1,32.3,279.2,32.9,279,33.5z M277.4,31.8c-0.4-0.1-0.8,0-1.1,0.3
			c-0.2,0.3-0.4,0.6-0.3,1c0.1,0.3,0.3,0.7,0.6,0.8c0.4,0.2,1,0.1,1.3-0.2c0.3-0.3,0.4-0.8,0.2-1.2
			C278.1,32.2,277.8,31.9,277.4,31.8z"/>
		<path style="fill:#231F20;" d="M287.6,30.3c-0.8,0.8-2,1.7-3,2.2l-0.6-0.9c1.2-0.3,2-1,2.9-2L287.6,30.3z M291.3,37.1l-2.5,0
			l0.6,0.7c-1.5,0.8-3.1,1.3-4.9,1.4l-0.5-1c1.7-0.1,3.2-0.4,4.6-1.1l-2.5,0l0-5.4h1.9l-0.5-0.9c1.8-0.1,3.4-0.8,3.8-2l-1.5,0
			c-0.3,0.4-0.7,0.9-1.3,1.3l-0.9-0.6c1.1-0.6,1.8-1.7,2.2-2.7l0.8,0.4c-0.1,0.3-0.2,0.6-0.2,0.7h5.1c-0.2,0.9-0.5,1.6-0.9,2.3
			l-0.9-0.5c0.4-0.5,0.4-0.6,0.5-0.9l-1.8,0c-0.1,0.2-0.2,0.4-0.3,0.6c1,1,2,1.4,4.1,1.6l-0.5,1c-1.7-0.3-2.9-0.6-4.1-1.7
			c-0.8,0.9-1.9,1.3-3,1.5l5.6,0l0,5.4l-1.9,0c1.3,0.2,2.6,0.6,3.8,1.2l-0.6,0.9c-1.5-0.8-2.9-1.2-4.7-1.3L291.3,37.1z M285,27.2
			c0.9,0.3,1.6,0.7,2.3,1.4l-0.6,0.8c-0.6-0.5-1.4-1.2-2.3-1.4L285,27.2z M293.1,34l-6,0v0.6h6V34z M287.1,36.1l6,0v-0.6h-6
			L287.1,36.1z M293.1,32.6l-6,0v0.5l6,0V32.6z"/>
		<path style="fill:#231F20;" d="M300.9,32.4c-0.4-0.8-1.1-1.4-1.9-1.8l0.7-0.7c0.8,0.4,1.5,1.1,2,1.8L300.9,32.4z M302,33.5
			c-0.4,2.1-1,3.7-2.1,5.2l-0.9-0.6c1.2-1.4,1.9-3.5,2-5.1L302,33.5z M300.4,27.2c0.9,0.4,1.6,1.2,2,1.8l-0.8,0.7
			c-0.4-0.8-1.1-1.4-1.9-1.8L300.4,27.2z M310.2,29.4v4.8h-2.3v3.7c0,0.7-0.3,1.2-0.9,1.2h-1.3l-0.4-1l1.1,0.1
			c0.3,0,0.5-0.2,0.5-0.4v-3.5h-2.4v-4.8h2.1c0.2-0.3,0.3-0.7,0.3-0.9h-3.2v5.7c0,1.8-0.5,3.5-1.6,5.1l-1-0.6c1-1.5,1.5-3.1,1.5-4.9
			v-6.2l8.4,0l0,1h-3.1c-0.1,0.3-0.2,0.7-0.3,0.9H310.2z M303.1,37.3c1-0.7,1.8-1.7,2.2-2.8l0.9,0.5c-0.4,1.1-1.3,2.3-2.2,3
			L303.1,37.3z M309.1,30.4h-3.7l0,0.8h3.7V30.4z M309.1,32.2h-3.7v1.1h3.7V32.2z M309.3,34.5c1,0.8,1.4,1.8,1.9,2.9l-0.9,0.6
			c-0.2-0.8-0.9-2.3-1.9-3L309.3,34.5z"/>
		<path style="fill:#231F20;" d="M316.2,33.4c0,2.4-0.3,4.3-1.3,5.8l-1-0.6c1.4-1.9,1.3-4.1,1.3-5.7v-5h5.1
			c-0.3-0.3-1.2-0.5-1.6-0.6l0.8-0.7c0.9,0.1,1.6,0.4,2.3,1.1l-0.2,0.2h4.5v1l-9.7,0V33.4z M316.6,30.8l0-1l4,0V29h1l0,0.8h4.1v1
			h-4.1l0,0.5l3.2,0v4.4l-3.1,0l0,0.6h4.5v1l-4.5,0v1.9h-1v-1.9l-4.4,0l0-1l4.4,0l0-0.6l-3.2,0v-4.4h3.2v-0.5H316.6z M320.5,34h-2.1
			l0,0.7h2.1V34z M320.6,32.3h-2.1V33h2.1L320.6,32.3z M323.7,33v-0.7h-2.1l0,0.7H323.7z M323.7,34h-2.1v0.7l2.1,0V34z"/>
		<path style="fill:#231F20;" d="M340.9,37.3v1l-11.7,0v-1l5.3,0l0-3.1h-4l0-1l4,0l0-2.5l-4.9,0v-1h10.8l0,1h-4.9v2.5h4l0,1l-4,0
			l0,3.1L340.9,37.3z M333.6,26.7c1.1,0.5,1.9,1.3,2.5,2.3l-0.9,0.5c-0.6-1.1-1.3-1.6-2.4-2.3L333.6,26.7z"/>
		<path style="fill:#231F20;" d="M345.5,33.1l0-3.7l2.8,0v-0.9l-3.9,0v-1H356v1h-3.9l0,0.9l2.9,0l0,3.7h-5.2l0.6,0.5l-0.6,0.6h6.1
			l0,0.9l-2.3,0c-0.4,0.6-1,1.2-1.4,1.6c0.6,0.2,1.4,0.5,2.2,0.9c0.5,0.2,1,0.5,1.6,0.8l-0.7,0.8c-1.2-0.7-3-1.4-4.2-1.7
			c-1.6,0.9-4,1.5-6.4,1.6l-0.7-1c2.2-0.1,3.7-0.3,5.4-1c-0.8-0.1-2.1-0.3-3.2-0.4l1.5-1.6h-3v-1l4,0l1-1.1L345.5,33.1z M346.5,32.1
			h1.7l0-1.7h-1.8V32.1z M349,35.1l-0.8,0.8c0.5,0.1,1,0.1,1.7,0.2c0.2,0.1,0.7,0.1,0.9,0.2c0.6-0.4,1.2-0.8,1.5-1.2L349,35.1z
			 M349.3,28.5v0.9h1.8v-0.9H349.3z M349.3,30.3v1.7h1.8l0-1.7H349.3z M352.2,30.3v1.7h1.8l0-1.7H352.2z"/>
		<path style="fill:#231F20;" d="M363.5,38.3c1.3-0.7,2.5-1.5,3.3-2.5c-0.7-1.1-1.1-2.4-1.4-3.5c-0.2,0.5-0.7,1.3-1,1.7l-0.9-0.7
			c1.3-1.7,1.9-4.1,2-6.5l1,0.3c0,0.8-0.1,1.6-0.2,2.1h4.1v1h-0.8c-0.1,1.9-0.6,3.9-1.6,5.5c0.6,1,1.7,2,3,2.5l-0.8,0.8
			c-1.2-0.5-2.2-1.5-2.9-2.4c-0.8,1-1.9,1.8-3.1,2.5l-0.8-0.7v0.7h-1v-3.7l-2.6,0.9l-0.8-0.8c0.5-0.3,0.5-0.5,0.5-1v-6.2h1v6.6
			l1.8-0.6v-7.3h1V38.3z M366,30.7c0.3,1.5,0.6,2.8,1.4,4.1c0.8-1.6,1-3,1.1-4.5h-2.4L366,30.7z"/>
		<path style="fill:#231F20;" d="M377,35.8c0.5-0.8,0.7-1.3,0.8-2.2l0.9,0.3c-0.1,0.8-0.4,1.5-0.7,2.2l0.6-0.2v1
			c-0.8,0.3-3.6,1.1-4.1,1.4l-0.7-0.9c0.9-0.2,1.5-0.4,2.1-0.6v-3.4h-1.7l0-1l1.7,0v-1H375c-0.2,0.2-0.4,0.4-0.7,0.6l-0.7-0.7
			c1.5-1.2,2.3-2.9,2.7-4.4l0.9,0.4c-0.1,0.4-0.2,0.7-0.2,0.9c0.7,0.3,1.6,1.2,2.2,1.9l-0.9,0.6c0-0.1,0,0,0-0.1l0,0.8h-1.2v1l1.5,0
			v1l-1.5,0l0,3l0.8-0.3L377,35.8z M374.7,36.5c-0.1-0.9-0.4-1.7-0.9-2.4l0.9-0.4c0.5,0.7,0.8,1.5,1,2.4L374.7,36.5z M378,30.3
			c-0.5-0.6-1.1-1.1-1.5-1.4c-0.3,0.6-0.5,0.9-0.8,1.4H378z M382.4,37.9c0,0.5-0.3,1-0.9,1.1c-0.5,0.1-1.1,0-1.7,0.1l-0.4-1.1
			c0.6,0,1.1,0.1,1.5,0.1c0.2,0,0.3-0.1,0.3-0.3V36c-0.5,0.4-1.9,1.3-2.4,1.8l-0.9-0.7c0.9-0.4,2.3-1.6,3.4-2.4l0-2.2l-2.9,0v-1h3.9
			l0.2-0.8H379c0.2-0.6,1.1-3.4,1.3-4.1l0.9,0.3c0,0.2-0.2,0.6-0.2,0.7h3.5c-0.4,1.5-0.8,2.7-1.2,3.9l2.2,0v1l-3.2,0v3.3l0.6-0.7
			c1.2,0.4,2.1,1.1,3,2l-0.7,0.8c-0.8-0.9-1.7-1.6-2.9-1.9V37.9z M380.4,35c-0.6-0.8-1.1-1.2-2-1.5l0.8-0.7c0.7,0.3,1.3,0.9,1.9,1.5
			L380.4,35z M380.8,28.7c-0.1,0.4-0.3,0.8-0.4,1.1h2.5l0.3-1.1H380.8z M382.6,34c0.9-0.3,1.7-0.9,2.2-1.4l0.6,0.7
			c-0.6,0.7-1.3,1.1-2.1,1.5L382.6,34z"/>
		<path style="fill:#231F20;" d="M392.3,39.1V26.7h4.7v0.9h-3.8v11.5H392.3z"/>
		<path style="fill:#231F20;" d="M400.2,28.2h2.4l0-1.5h1l0,1.5h2.1v1l-2.1,0V30l1.8,0v5h-1.8v0.8h2.3l0,1h-2.3l0,2.5l-1,0v-2.4
			h-2.7v-1h2.7v-0.8h-1.9l0-5l1.9,0l0-0.8h-2.4L400.2,28.2z M401.6,30.9l0,1h0.9v-1H401.6z M401.6,33.9l0.9,0v-1l-0.9,0V33.9z
			 M403.5,30.9l0,1h0.9v-1H403.5z M404.4,32.9l-0.8,0l0,1.1l0.9,0V32.9z M406.1,35.3v-1l5.3,0l0,1h-2.1l0,2h2.8v1h-6.6v-1h2.8v-2
			H406.1z M406.8,31.3c0.6,0.6,1,1.4,1.4,2.2c-0.3,0.2-0.5,0.3-0.9,0.5c-0.3-1.1-0.9-2-1.7-2.7c0.8-0.8,1.2-1.7,1.6-2.7
			c0.3,0.2,0.6,0.4,0.9,0.6C407.7,30,407.3,30.7,406.8,31.3z M411.8,28.5l-6.1,0v-1h6.1V28.5z M409.2,34.1c-0.3-1-0.8-2-1.6-2.7
			v-0.1c0.7-0.7,1.1-1.6,1.5-2.6c0.3,0.1,0.5,0.3,0.9,0.4c-0.3,0.9-0.7,1.6-1.2,2.2c0.6,0.6,1,1.4,1.3,2.3L409.2,34.1z M411,34.1
			c-0.5-1-0.9-1.9-1.8-2.7c0.8-0.8,1.2-1.7,1.6-2.7l0.9,0.5c-0.3,0.8-0.8,1.5-1.3,2.1c0.6,0.6,1,1.4,1.4,2.3L411,34.1z"/>
		<path style="fill:#231F20;" d="M419.9,37.4c-0.3-0.6-0.5-1-1-1.4v3.1h-1v-2.9c-0.3,0.6-1.2,1.4-2.2,1.9c-0.2-0.2-0.4-0.4-0.7-0.7
			c1.2-0.6,2.3-1.6,2.7-2.6h-2.2l0-1h2.3l0-0.7h1v0.7h2l0,1h-2l0,0.4L419,35c0.5,0.4,1.3,1.1,1.7,1.8L419.9,37.4z M420.5,31.4
			c0.4,0.2,1.2,0.8,1.6,1.3l-0.8,0.5c-0.2-0.2-0.3-0.3-0.4-0.4l-3.8,0.2l-0.8,0.1l-0.4-0.8c0.7-0.3,0.9-0.6,1.3-0.9l-1.8,0v-0.9h1.1
			l0-3.3h5.4v0.9h-4.5v0.2h4.1v0.9h-4.1l0,0.2h4.1v0.9h-4.1v0.2h4.9v0.9H420.5z M418.5,31.4c-0.3,0.3-0.5,0.5-0.8,0.7
			c0.6,0,1.6,0,2.2,0c0,0-0.2-0.1-0.6-0.2l0.5-0.3L418.5,31.4z M422.9,33.2c-0.4,1.2-1,2.1-2,3l-0.9-0.6c1-0.9,1.6-1.7,2-2.9
			L422.9,33.2z M426,39c-0.1-0.3-0.2-0.5-0.3-0.6l-2.8,0.2l-1.5,0.2l-0.6-0.9c1.2-0.9,2.1-2.1,2.6-3.5l0.9,0.5
			c-0.4,1.2-1.2,2.3-1.9,2.8l2.9-0.1c-0.3-0.4-0.7-0.9-1.1-1.1l0.9-0.5c0.9,0.7,1.6,1.6,2,2.7L426,39z M421.6,28.3
			c1.7-0.3,3-0.8,4.4-1.7l0.7,0.7c-1.3,1-2.8,1.5-4.3,1.9L421.6,28.3z M427.4,30.3c-1.5,1.2-3.3,1.8-5,2.3l-0.6-0.9
			c1.7-0.4,3.6-1.1,5-2.1L427.4,30.3z M426.8,28.7c-1.3,1-2.6,1.5-4,2l-0.7-0.9c1.6-0.3,2.9-1,4.1-1.8L426.8,28.7z M426.9,36.3
			c-1-0.6-1.7-1.6-2.1-2.5h-1.9v-1h2.5c0.4,1.1,1.1,2.1,2.2,2.7L426.9,36.3z"/>
		<path style="fill:#231F20;" d="M436.6,37.9c0,0.5-0.5,0.8-0.9,0.9c-0.5,0.1-0.9,0.1-1.5,0.1l-0.4-1.1l1.3,0c0.2,0,0.4-0.2,0.4-0.3
			l0-0.8h-3c-0.1,0.8-0.4,1.6-1.8,2.6l-0.8-0.8c0.7-0.4,1.6-1.1,1.5-2.2c0.1-0.9,0.1-2.4,0.1-4h5l0,0.2c0.3-0.3,0.5-0.7,0.7-1
			l-6.7,0v-1h1.6l0-1.2H431v-1h1.1l0-1.3h1.1v1.3h1.6l0-1.4h1v1.3l1.1,0l0,1l-1,0l0,1.3l1.5,0v0.8c0.4-0.9,1-2.5,1-4.6l1,0.2
			c0,0.6-0.1,2-0.2,2.6h3.1v1l-0.8,0c-0.1,1.6-0.4,3.8-1.1,5.1c0.5,1,1.4,1.9,2.5,2.7l-0.8,0.8c-0.8-0.6-1.6-1.6-2.3-2.5
			c-0.6,0.8-1.4,1.7-2.5,2.5l-0.8-0.8c1.1-0.8,2.1-1.7,2.6-2.7c-0.6-1-0.9-2.1-1.1-3.3l-0.7,1l-0.8-0.4V37.9z M432.6,33.3l0,0.7h2.9
			v-0.7H432.6z M435.6,35l-3,0v0.7h3V35z M434.8,29.3l-1.6,0v1.3h1.6L434.8,29.3z M438.8,30.5c0.2,1.3,0.3,2.6,0.9,3.9
			c0.6-1.3,0.6-2.1,0.7-3.9H438.8z"/>
		<path style="fill:#231F20;" d="M456.7,33.2c-0.6,1.3-1.4,2.7-2.6,3.5c-2.4,1.6-5.2,2-8.2,2.4l-0.4-1.1c3.2-0.4,6.4-0.6,8.7-2.7
			c0.7-0.7,1.2-1.6,1.6-2.6L456.7,33.2z M450.4,33.4c-1.1,1.3-2.4,2.4-3.9,3.1c-0.3-0.3-0.5-0.5-0.8-0.9c1.5-0.6,2.8-1.6,3.8-2.9
			L450.4,33.4z M446.1,32.2v-1h2V28l1.1,0l0,3.2h2.3v-4.5h1.1l0,1.7h4.4v1l-4.3,0v1.7h5v1h-4.9v3.7h-1.1l0-3.7L446.1,32.2z"/>
		<path style="fill:#231F20;" d="M465.6,38.1c0.3,0,0.4-0.2,0.4-0.5v-0.8h-5.6v-0.9l5.6,0v-0.5c0.7-0.2,1.4-0.5,1.5-0.5l-4.9,0v-1
			h7.4l0,0.9c-1,0.5-1.9,0.8-2.9,1.1l5.3,0v0.9h-5.3V38c0,0.6-0.2,1-0.8,1.1c-0.6,0.1-1.1,0.1-1.8,0.1l-0.8-1H465.6z M467.6,32.5
			c-0.4-0.5-0.9-0.7-1.1-0.9c-0.5,0.4-1,0.6-1.6,0.9l-0.7-0.6c0.5-0.2,1-0.6,1.3-0.8c-0.2-0.1-0.6-0.2-1.2-0.4l0.6-0.7
			c0.5,0,0.9,0.3,1.4,0.5c0.2-0.2,0.5-0.5,0.8-0.8l0.7,0.6c-0.3,0.3-0.5,0.6-0.6,0.7c0.3,0.2,0.7,0.5,1.1,0.9l-0.6,0.6h2.3l0.1-0.9
			l-1.9,0l0-0.9h2l0.1-0.7l-2.1,0l0-0.9l2.1,0l0.1-0.6h-2.5v-0.9l3.5,0l-0.5,5l0.9,0l0,2.1h-1v-1.1l-9.1,0l0,1.2h-1v-2.1l0.9,0
			l-0.5-4.6c1.1-0.1,1.9-0.4,2.8-1.1l0.5,0.8c-0.8,0.6-1.5,0.9-2.3,1l0.1,0.4h2.1c0.5-0.2,0.9-0.5,1.1-0.6c-0.4-0.1-0.9-0.3-1.2-0.3
			l0.4-0.8c0.6,0.2,1.2,0.3,1.6,0.5c0.3-0.3,0.6-0.6,0.9-1l0.7,0.6c-0.2,0.4-0.5,0.7-0.7,0.9c0.2,0.2,0.5,0.4,0.9,0.8l-0.6,0.8
			c-0.4-0.4-0.7-0.7-1.1-0.9c-0.4,0.3-0.8,0.6-1.3,0.9l-0.6-0.5V30h-2.1l0.1,0.7h2v0.9l-1.9,0l0.1,0.8H467.6z"/>
		<path style="fill:#231F20;" d="M475.8,35.5v-6.1h4.5l0-2.5h1.1l0,2.5l4.5,0v6h-1.1v-0.9h-3.4l0,4.6h-1.1l0-4.6H477l0,1H475.8z
			 M480.3,30.4h-3.4v3.1h3.4L480.3,30.4z M484.8,30.4h-3.3v3.1h3.4L484.8,30.4z"/>
		<path style="fill:#231F20;" d="M489.1,38.3c2-0.7,3.9-1.3,5.4-2.7c-1.4-1.4-2.1-3.4-2.5-5.4h-2.2v-1h5.5c-0.5-0.8-1.2-1.4-2-1.8
			l0.8-0.7c0.8,0.4,1.7,1.3,2.2,1.9l-0.7,0.5l5.1,0v1h-2.2c-0.3,1.9-1.1,3.9-2.4,5.4c1.4,1.2,3.3,1.9,5.3,2.6l-0.7,0.9
			c-2-0.6-3.8-1.4-5.3-2.7c-1.5,1.4-4.1,2.4-5.3,2.8L489.1,38.3z M493,30.2c0.2,2.2,1.5,4,2.2,4.6c1.2-1.3,1.8-3,2.1-4.6H493z"/>
		<path style="fill:#231F20;" d="M504.5,39.1v-0.9h3.9V26.7h0.9v12.4H504.5z"/>
		<path style="fill:#231F20;" d="M518.5,34.9c-0.5-1.1-1.1-2-2.1-2.8l0.8-0.7c1,0.6,1.9,1.4,2.6,2.4L518.5,34.9z"/>
		<path style="fill:#231F20;" d="M527,39.1V26.7h4.7v0.9h-3.8v11.5H527z"/>
		<path style="fill:#231F20;" d="M536.3,28.8c-0.2-0.5-0.5-1-1.1-1.7l0.9-0.5c0.6,0.5,1,1.2,1.3,1.9c-0.2,0.1-0.3,0.2-0.4,0.2l2,0v1
			h-4.5v-1H536.3z M538.5,30.5v1H535l0-1H538.5z M535,33.3l0-1l3.5,0v1L535,33.3z M537.4,37.9h-1.2v0.9l-1,0v-4.6h3.2v4.6l-1,0
			L537.4,37.9z M536.2,35.2V37h1.2v-1.7H536.2z M539.3,28.8h2.6v-0.4h-3.5l0-0.9l3.5,0v-0.9h1l0,0.9h3.8v0.9l-3.8,0v0.3l2.7,0v0.9
			h-6.4V28.8z M543.9,37.2c1,0.2,1.9,0.6,3,1.1c-0.2,0.3-0.3,0.5-0.5,0.8c-1.2-0.6-2.1-1-3.3-1.2l0.5-0.7l-1.7,0l0.4,0.6
			c-1,0.6-2,1.1-3.1,1.3l-0.5-0.9c1.2-0.3,1.9-0.4,2.9-1l-2.1,0v-4.6h6.3v4.6H543.9z M546.2,29.9v2.2h-7.4v-2.2L546.2,29.9z
			 M541,31.3v-0.5l-1.2,0v0.5H541z M544.6,36.3v-0.4l-4.3,0l0,0.4H544.6z M540.3,33.9l4.3,0l0-0.4l-4.3,0V33.9z M540.3,34.7v0.4
			l4.3,0v-0.4L540.3,34.7z M541.9,30.8v0.5h1.1l0-0.5H541.9z M545.2,31.3v-0.5H544v0.5L545.2,31.3z"/>
		<path style="fill:#231F20;" d="M557.1,38.1c0.7,0,1.5,0,1.8,0c0.3-0.1,0.3-0.6,0.5-0.9c0.1-0.5,0.2-1.1,0.3-1.5l-7,0
			c-0.7,0.5-1.6,1-2.5,1.4l-0.6-0.9c1.3-0.5,2.6-1.2,3.3-2.2l-1.3,0v-3.8c1.2-0.2,2.2-0.5,3.3-1.2l0.7,0.7c-0.9,0.7-2,1-2.9,1.2v0.5
			l2.5,0v1h-2.5V33h5.7v-0.8h-2.5v-1h2.5v-0.6h-2.7l0-1l3.7,0V34h-5.3c-0.2,0.3-0.4,0.5-0.5,0.6h7.2c-0.1,1.4-0.2,2.5-0.7,3.7
			c-0.4,1.1-1.6,0.7-2.8,0.8L557.1,38.1z M555,28c-0.1-0.2-0.5-0.5-0.9-0.8l1.1-0.5c0.4,0.4,0.8,0.9,1,1.3h4.8l0,2.5l-1.1,0v-1.5
			h-8.8l0,1.6H550V28H555z M550.1,38.4c0.9-0.6,1.6-1.4,2.1-2.3c0.3,0.1,0.5,0.3,0.8,0.4c-0.2,0.6-0.9,1.6-1.9,2.5L550.1,38.4z
			 M553.9,38.7c-0.1-0.9-0.3-1.6-0.8-2.3c0.4-0.1,0.6-0.2,0.9-0.2c0.4,0.7,0.8,1.4,0.8,2.3L553.9,38.7z M555.8,38.2
			c-0.1-0.8-0.3-1.4-0.8-2c0.4-0.1,0.7-0.1,1-0.2c0.5,0.7,0.7,1.3,0.8,2L555.8,38.2z M558,35.7c0.5,0.5,0.8,1.1,0.8,1.8l-1,0.2
			c-0.1-0.7-0.4-1.2-0.9-1.8L558,35.7z"/>
		<path style="fill:#231F20;" d="M571.9,26.8c0,1,0,3.2,0.1,4.2h3.7v1h-3.6c0.1,0.8,0.3,1.8,0.5,2.6c0.6-0.7,1.1-1.4,1.5-2.3
			l0.9,0.4c-0.7,1.4-1.4,2.2-2.1,2.9c0.2,0.4,0.5,0.8,0.5,0.9c0.3,0.5,0.9,1.4,1,1.1c0.2-0.6,0.3-1.1,0.3-1.9l1.1,0.4
			c-0.1,0.8-0.2,1.6-0.5,2.3c-0.1,0.2-0.2,0.4-0.5,0.5c-0.6,0.1-1.1-0.3-1.4-0.6c-0.5-0.4-0.9-0.9-1.5-1.9c-0.7,0.6-1.6,1.2-2.7,1.7
			l-0.9-0.8c1.2-0.6,2.2-1.2,3.1-2c-0.4-1.1-0.6-2.3-0.8-3.4h-2.6l0,2l2.1-0.5l0,1.1l-2.1,0.6l0,2.8c0,0.4-0.2,0.7-0.6,0.9
			c-0.7,0.2-1.5,0.1-2.1,0.1c-0.1-0.3-0.2-0.6-0.4-1.1l1.7,0c0.2,0,0.3-0.1,0.3-0.4v-2.2c-0.5,0.1-1.7,0.5-2.4,0.6l-0.8-1
			c1.2-0.2,2.2-0.5,3.2-0.7V32l-2.8,0l0-1h2.8v-2c-0.5,0.2-1.6,0.4-2.2,0.4c-0.2-0.3-0.3-0.6-0.6-1c2.5,0,3.7-0.6,5.4-1.5l0.7,0.8
			c-0.8,0.4-1.4,0.9-2.1,1.1V31l2.6,0c-0.1-1.2-0.1-2.6-0.1-4.2H571.9z M573.1,27.4c0.8,0.4,1.9,1.3,2.4,2.3
			c-0.3,0.3-0.5,0.5-0.9,0.8c-0.4-1-1.3-1.8-2.4-2.3L573.1,27.4z"/>
		<path style="fill:#231F20;" d="M578.9,35.6c0.8-0.3,1.3-0.5,1.9-0.7v-3.5h-1.4l0-1h1.4v-2.9l1,0v2.9h1.2l0,1h-1.2v3l1.4-0.6v1.1
			l-3.5,1.5L578.9,35.6z M590.6,31.4c-0.3,1.6-0.8,3.2-1.6,4.5c0.2,0.6,0.5,1.4,1,1.9c0.2,0.1,0.3-1.2,0.4-1.9l1,0.4
			c-0.1,0.9-0.3,1.6-0.6,2.3c-0.1,0.3-0.4,0.5-0.7,0.4c-0.7,0-1.5-1.2-1.8-2c-0.6,0.7-1.4,1.3-2.2,1.9l-0.8-0.7
			c1.1-0.7,2-1.5,2.7-2.3c-0.4-1.7-0.6-3.6-0.7-5.4h-2.7V32h2.5c0,1.2-0.1,2.7-0.3,3.9c-0.1,0.4-0.3,0.8-0.7,0.9
			c-0.5,0.1-1-0.1-1.4-0.2l-0.2-1.2c0.5,0.2,0.8,0.3,1.1,0.4c0.2,0.1,0.3-0.2,0.3-0.4c0.1-0.8,0.2-1.7,0.2-2.4h-1.5
			c-0.1,2.2-0.1,4-1.9,6.2l-0.9-0.7c1-1.1,1.8-2.5,1.8-5.1v-4h3.6c0-0.7,0-1.8,0-2.6h1c0,0.8,0,1.6,0.1,2.6h2.8v1l-2.7,0
			c0,1,0.3,3.1,0.4,4.2c0.6-1.1,0.8-2.1,1.1-3.5L590.6,31.4z M590,29.3c-0.5-0.7-1.1-1.2-1.9-1.4l0.7-0.7c0.9,0.3,1.5,0.8,1.9,1.4
			L590,29.3z"/>
		<path style="fill:#231F20;" d="M594.4,39.1v-0.9h3.9V26.7h0.9v12.4H594.4z"/>
		<path style="fill:#231F20;" d="M608.4,34.9c-0.5-1.1-1.1-2-2.1-2.8l0.8-0.7c1,0.6,1.9,1.4,2.6,2.4L608.4,34.9z"/>
		<path style="fill:#231F20;" d="M616.8,39.1V26.7h4.7v0.9h-3.8v11.5H616.8z"/>
		<path style="fill:#231F20;" d="M624.1,29.9c0.7-0.5,1.8-1.8,1.9-3.1l0.9,0.4c-0.1,0.3-0.1,0.5-0.2,0.7h3.6l0,0.9h-2
			c0.2,0.3,0.4,0.5,0.6,0.9c-0.3,0.1-0.6,0.3-0.9,0.4c-0.2-0.5-0.5-0.9-0.8-1.3h-0.9c-0.3,0.6-0.9,1.2-1.5,1.8L624.1,29.9z
			 M630.6,30.3l3.9,0l0,1.4h1.4v0.9h-1.4v1.5h-3.9v0.6l4.2,0v0.9h-4.2v0.6h5.1v0.9h-5.1l0,1.8h-1v-1.8l-5,0v-0.9l4.9,0v-0.7h-4.1
			l0-0.9l4.1,0v-0.6H626l0-0.9l3.5,0l0-0.6h-5.2v-0.9h5.3v-0.5H626l0-0.9l3.5,0v-0.6h0.9l-0.5-0.3c0.7-0.8,1.2-1.6,1.3-2.7l0.9,0.3
			c0,0.4-0.1,0.7-0.2,0.8l4,0v1l-2.3,0c0.1,0.1,0.3,0.4,0.5,0.9l-0.9,0.5c-0.2-0.6-0.4-1-0.7-1.4h-1c-0.2,0.3-0.4,0.8-0.8,1.2
			l-0.3-0.2L630.6,30.3z M630.6,31.2l0,0.5h2.9v-0.5L630.6,31.2z M633.5,32.6h-2.9l0,0.6h2.9L633.5,32.6z"/>
		<path style="fill:#231F20;" d="M642.4,31c-0.5,1-1.1,1.8-1.8,2.6l1.7,0c-0.1,1.1-0.3,2.1-0.6,2.9c1.2,0.9,2.8,1.1,4.5,1l5-0.1
			l-0.6,1.1l-4.7,0c-1.9,0-3.1-0.2-4.6-1.1c-0.4,0.8-1.1,1.3-1.7,1.9l-0.7-0.8c1.4-1.1,2.2-2.4,2.4-3.9l-2,0v-1
			c0.9-0.9,1.5-1.7,2-2.5l-2.3,0v-1h3.5V31z M640.1,26.8c0.6,0.6,1.3,1.4,1.6,2.3c-0.3,0.2-0.6,0.3-1,0.5c-0.4-0.9-0.9-1.6-1.6-2.3
			L640.1,26.8z M644.7,30.9c0,2.1-0.1,4.2-1.8,5.6l-0.7-0.7c1.5-1.4,1.5-3.3,1.5-5.1L644.7,30.9z M650.2,29.1v1h-3.5l0,7l-1,0l0-7
			h-3v-1h3v-2.3l1,0v2.3H650.2z M649.1,29c-0.3-0.3-0.6-0.5-0.9-0.7c-0.3-0.2-0.7-0.3-1.2-0.6l0.6-0.7c0.8,0.2,1.5,0.6,2.1,1.2
			L649.1,29z M650.5,36c-1.2,0-1.9,0.1-2.3-0.3c-0.2-0.2-0.3-0.6-0.3-1.2l0-3.8h1l0,3.9c0,0.2,0.2,0.3,0.4,0.3l1.1,0L650.5,36z"/>
		<path style="fill:#231F20;" d="M661.4,26.8c0,1,0,3.2,0.1,4.2h3.7v1h-3.6c0.1,0.8,0.3,1.8,0.5,2.6c0.6-0.7,1.1-1.4,1.5-2.3
			l0.9,0.4c-0.7,1.4-1.4,2.2-2.1,2.9c0.2,0.4,0.5,0.8,0.5,0.9c0.3,0.5,0.9,1.4,1,1.1c0.2-0.6,0.3-1.1,0.3-1.9l1.1,0.4
			c-0.1,0.8-0.2,1.6-0.5,2.3c-0.1,0.2-0.2,0.4-0.5,0.5c-0.6,0.1-1.1-0.3-1.4-0.6c-0.5-0.4-0.9-0.9-1.5-1.9c-0.7,0.6-1.6,1.2-2.7,1.7
			l-0.9-0.8c1.2-0.6,2.2-1.2,3.1-2c-0.4-1.1-0.6-2.3-0.8-3.4h-2.6l0,2l2.1-0.5l0,1.1l-2.1,0.6l0,2.8c0,0.4-0.2,0.7-0.6,0.9
			c-0.7,0.2-1.5,0.1-2.1,0.1c-0.1-0.3-0.2-0.6-0.4-1.1l1.7,0c0.2,0,0.3-0.1,0.3-0.4v-2.2c-0.5,0.1-1.7,0.5-2.4,0.6l-0.8-1
			c1.2-0.2,2.2-0.5,3.2-0.7V32l-2.8,0l0-1h2.8v-2c-0.5,0.2-1.6,0.4-2.2,0.4c-0.2-0.3-0.3-0.6-0.6-1c2.5,0,3.7-0.6,5.4-1.5l0.7,0.8
			c-0.8,0.4-1.4,0.9-2.1,1.1V31l2.6,0c-0.1-1.2-0.1-2.6-0.1-4.2H661.4z M662.7,27.4c0.8,0.4,1.9,1.3,2.4,2.3
			c-0.3,0.3-0.5,0.5-0.9,0.8c-0.4-1-1.3-1.8-2.4-2.3L662.7,27.4z"/>
		<path style="fill:#231F20;" d="M668.4,35.6c0.8-0.3,1.3-0.5,1.9-0.7v-3.5h-1.4l0-1h1.4v-2.9l1,0v2.9h1.2l0,1h-1.2v3l1.4-0.6v1.1
			l-3.5,1.5L668.4,35.6z M680.1,31.4c-0.3,1.6-0.8,3.2-1.6,4.5c0.2,0.6,0.5,1.4,1,1.9c0.2,0.1,0.3-1.2,0.4-1.9l1,0.4
			c-0.1,0.9-0.3,1.6-0.6,2.3c-0.1,0.3-0.4,0.5-0.7,0.4c-0.7,0-1.5-1.2-1.8-2c-0.6,0.7-1.4,1.3-2.2,1.9l-0.8-0.7
			c1.1-0.7,2-1.5,2.7-2.3c-0.4-1.7-0.6-3.6-0.7-5.4H674V32h2.5c0,1.2-0.1,2.7-0.3,3.9c-0.1,0.4-0.3,0.8-0.7,0.9
			c-0.5,0.1-1-0.1-1.4-0.2l-0.2-1.2c0.5,0.2,0.8,0.3,1.1,0.4c0.2,0.1,0.3-0.2,0.3-0.4c0.1-0.8,0.2-1.7,0.2-2.4h-1.5
			c-0.1,2.2-0.1,4-1.9,6.2l-0.9-0.7c1-1.1,1.8-2.5,1.8-5.1v-4h3.6c0-0.7,0-1.8,0-2.6h1c0,0.8,0,1.6,0.1,2.6h2.8v1l-2.7,0
			c0,1,0.3,3.1,0.4,4.2c0.6-1.1,0.8-2.1,1.1-3.5L680.1,31.4z M679.5,29.3c-0.5-0.7-1.1-1.2-1.9-1.4l0.7-0.7c0.9,0.3,1.5,0.8,1.9,1.4
			L679.5,29.3z"/>
		<path style="fill:#231F20;" d="M685.1,32.5c-0.1,0.2-0.6,0.9-1.1,1.4l-1-0.6c1.9-1.9,2.7-4.3,3.4-6.7l1,0.4
			c-0.4,1.2-0.9,2.5-1.3,3.6v8.5h-1.1L685.1,32.5z M686.5,33c-0.1-0.4-0.2-0.6-0.3-1c0.7-0.2,1.2-0.4,1.7-0.5l0-2.7h1.1l0,2.3
			l1.6-0.5l0-4l1.1,0v3.6l3.3-1c-0.1,1.9-0.3,3.7-0.6,5.3c-0.1,0.4-0.3,0.8-0.7,0.9c-0.5,0.1-1,0.1-1.5,0l-0.3-1.1
			c0.6,0.1,0.9,0.2,1.2,0.1c0.2,0,0.2-0.2,0.3-0.4c0.2-1.2,0.4-2.3,0.5-3.4l-2.1,0.7l0,4.9l-1.1,0l0-4.6l-1.6,0.5v4.6
			c0,0.4,0.3,0.6,0.5,0.6h4.2c0.4,0,0.5-0.3,0.6-0.5c0.1-0.4,0.2-0.8,0.3-1.4l1.1,0.5c-0.2,0.8-0.4,1.3-0.5,1.7
			c-0.3,0.5-0.7,0.7-1.3,0.8l-4.5,0c-0.9,0-1.5-0.7-1.5-1.2v-4.8L686.5,33z"/>
		<path style="fill:#231F20;" d="M703.6,36.8c-1.5,1.1-3.1,1.8-4.8,2.3c-0.2-0.3-0.4-0.6-0.7-0.9c1.7-0.6,3.4-1.2,4.7-2.2
			L703.6,36.8z M703,27.9c-0.9,0.6-1.8,0.9-2.7,1.1l0.1,0.9h2.3l0,1h-2.2c0,0.4,0.1,0.9,0.1,1.4h2.1l0,1h-2c0,0.5,0.1,1.1,0.1,1.5
			h2.2l0-3h1v3h1.1v-3.4h-2.1l0-4.7h1.1l0,1.4h2v1h-2v1.4h2.1v4.4h2.1l0.2-1.6h-1.9v-1l2,0c0.1-0.4,0.1-1,0.2-1.4h-2.2v-1l2.2,0
			c0.1-0.4,0.1-0.9,0.2-1.3h-2.7v-1h3.8l-0.7,7.2h1l0,1h-11.5v-1l0.9,0l-0.6-6.6c1.2-0.3,2.1-0.5,3.2-1.2L703,27.9z M706.2,35.9
			c1.8,0.4,3.2,1.3,4.8,2.3l-0.6,0.9c-1.7-1.1-2.9-1.8-4.7-2.3L706.2,35.9z"/>
		<path style="fill:#231F20;" d="M713.6,38.3c1.1-1,1.7-1.7,2.4-2.6c-0.5-0.3-1-0.6-1.6-0.8c0.5-1.5,0.9-3,1.1-4.1l-1.2,0v-1h1.4
			l0.5-2.9l1,0.2l-0.5,2.7l1.9,0c0,1.8-0.5,4.3-1.2,5.5c0.3,0.3,0.7,0.6,1.3,1.1l-0.6,0.9c-0.3-0.4-1-0.9-1.2-1.1
			c-0.5,0.7-1.3,1.8-2.4,2.7L713.6,38.3z M716.5,30.8c-0.3,1.2-0.6,2.4-0.9,3.5c0.3,0.1,0.6,0.3,0.9,0.5c0.4-0.9,0.9-2.8,1-4H716.5z
			 M724.2,37.5c0.6-0.2,0.7-1.4,0.9-2.1l1,0.4c-0.2,0.8-0.3,1.4-0.6,2.1c-0.4,0.5-0.8,0.6-1.4,0.6h-3.2c-0.8,0-1.6-0.4-1.6-1.2v-4.9
			l-0.6,0.2l-0.3-1c0.4-0.1,0.7-0.2,0.9-0.3l0-2.7l1.1,0V31l1.3-0.4l0-3.9l1,0v3.6l2.7-0.8c-0.1,2.2-0.2,3.9-0.7,5.4
			c-0.3,0.5-0.6,0.5-1.7,0.4l-0.2-1.1c0.5,0.1,0.8,0.3,1,0c0.2-0.8,0.4-1.6,0.5-2.4c0-0.4,0.1-0.7,0.1-1c-0.5,0.1-1.1,0.4-1.6,0.5
			l0,5h-1v-4.7l-1.3,0.4v5c0,0.2,0.1,0.5,0.6,0.5H724.2z"/>
		<path style="fill:#231F20;" d="M728.9,39.1v-0.9h3.9V26.7h0.9v12.4H728.9z"/>
		<path style="fill:#231F20;" d="M742.9,34.9c-0.5-1.1-1.1-2-2.1-2.8l0.8-0.7c1,0.6,1.9,1.4,2.6,2.4L742.9,34.9z"/>
		<path style="fill:#231F20;" d="M43,59.1V46.7h4.7v0.9h-3.8v11.5H43z"/>
		<path style="fill:#231F20;" d="M49.9,58.3c1-1.1,1.2-2.5,1.1-3.9c0-0.5,0-0.9,0-1.4c0.4,0,0.6,0,1,0c0,1,0,1.8-0.1,2.7
			c0.3,0.3,0.4,0.6,0.7,0.7V52h-2.3l0-1h2v-1.6h-1.6v-1h1.6v-1.7h1.1v1.7h1.4v1h-1.4v1.6h1.8v1h-1.6l0,1.6h1.5v1h-1.4V57
			c0.4,0.2,1.5,0.5,2.4,0.5h6.5l-0.4,1L56,58.5c-1.6,0-3.2-0.5-4.2-1.6c-0.2,0.5-0.3,1.4-1.1,2.1L49.9,58.3z M61.3,56.4
			c-0.2-0.8-0.3-1.5-0.5-2c-0.2,0.4-0.9,1.5-1.6,2.3l-0.3-0.3v1h-1.1v-2.1c-0.7,0.3-1.7,0.6-2.7,1l-0.7-0.9c0.5-0.1,0.8-0.2,1-0.3
			v-6.7l-0.8,0v-1h5v1h-0.8v2.4l0.8-0.4c0.4,0.5,0.8,1,1,1.3c0.2-0.7,0.3-1.3,0.3-1.9H59v-1l2.9,0c0,1.5-0.2,2.9-0.6,4.2
			c0.4,0.8,0.6,1.8,0.9,2.7L61.3,56.4z M56.5,48.3v1.4h1.2v-1.4H56.5z M57.8,50.7h-1.2v1.5h1.2V50.7z M56.5,53.1v1.5
			c0.4-0.1,0.8-0.3,1.2-0.5v-1L56.5,53.1z M58.8,55.5c0.7-0.9,1.1-1.6,1.4-2.4c-0.5-0.8-1-1.6-1.4-2.2L58.8,55.5z"/>
		<path style="fill:#231F20;" d="M72.6,58.1c0.7,0,1.5,0,1.8,0c0.3-0.1,0.3-0.6,0.5-0.9c0.1-0.5,0.2-1.1,0.3-1.5l-7,0
			c-0.7,0.5-1.6,1-2.5,1.4l-0.6-0.9c1.3-0.5,2.6-1.2,3.3-2.2l-1.3,0v-3.8c1.2-0.2,2.2-0.5,3.3-1.2l0.7,0.7c-0.9,0.7-2,1-2.9,1.2v0.5
			l2.5,0v1h-2.5V53h5.7v-0.8h-2.5v-1h2.5v-0.6h-2.7l0-1l3.7,0V54h-5.3c-0.2,0.3-0.4,0.5-0.5,0.6h7.2c-0.1,1.4-0.2,2.5-0.7,3.7
			c-0.4,1.1-1.6,0.7-2.8,0.8L72.6,58.1z M70.5,48c-0.1-0.2-0.5-0.5-0.9-0.8l1.1-0.5c0.4,0.4,0.8,0.9,1,1.3h4.8l0,2.5l-1.1,0v-1.5
			h-8.8l0,1.6h-1.1V48H70.5z M65.6,58.4c0.9-0.6,1.6-1.4,2.1-2.3c0.3,0.1,0.5,0.3,0.8,0.4c-0.2,0.6-0.9,1.6-1.9,2.5L65.6,58.4z
			 M69.4,58.7c-0.1-0.9-0.3-1.6-0.8-2.3c0.4-0.1,0.6-0.2,0.9-0.2c0.4,0.7,0.8,1.4,0.8,2.3L69.4,58.7z M71.3,58.2
			c-0.1-0.8-0.3-1.4-0.8-2c0.4-0.1,0.7-0.1,1-0.2c0.5,0.7,0.7,1.3,0.8,2L71.3,58.2z M73.5,55.7c0.5,0.5,0.8,1.1,0.8,1.8l-1,0.2
			c-0.1-0.7-0.4-1.2-0.9-1.8L73.5,55.7z"/>
		<path style="fill:#231F20;" d="M79.2,58.3c2-0.7,3.9-1.3,5.4-2.7c-1.4-1.4-2.1-3.4-2.5-5.4h-2.2v-1h5.5c-0.5-0.8-1.2-1.4-2-1.8
			l0.8-0.7c0.8,0.4,1.7,1.3,2.2,1.9l-0.7,0.5l5.1,0v1h-2.2c-0.3,1.9-1.1,3.9-2.4,5.4c1.4,1.2,3.3,1.9,5.3,2.6L90.6,59
			c-2-0.6-3.8-1.4-5.3-2.7c-1.5,1.4-4.1,2.4-5.3,2.8L79.2,58.3z M83.1,50.2c0.2,2.2,1.5,4,2.2,4.6c1.2-1.3,1.8-3,2.1-4.6H83.1z"/>
		<path style="fill:#231F20;" d="M98.8,58.1c0.3,0,0.4-0.2,0.4-0.5v-0.8h-5.6v-0.9l5.6,0v-0.5c0.7-0.2,1.4-0.5,1.5-0.5l-4.9,0v-1
			h7.4l0,0.9c-1,0.5-1.9,0.8-2.9,1.1l5.3,0v0.9h-5.3V58c0,0.6-0.2,1-0.8,1.1c-0.6,0.1-1.1,0.1-1.8,0.1l-0.8-1H98.8z M100.7,52.5
			c-0.4-0.5-0.9-0.7-1.1-0.9c-0.5,0.4-1,0.6-1.6,0.9l-0.7-0.6c0.5-0.2,1-0.6,1.3-0.8c-0.2-0.1-0.6-0.2-1.2-0.4l0.6-0.7
			c0.5,0,0.9,0.3,1.4,0.5c0.2-0.2,0.5-0.5,0.8-0.8l0.7,0.6c-0.3,0.3-0.5,0.6-0.6,0.7c0.3,0.2,0.7,0.5,1.1,0.9l-0.6,0.6h2.3l0.1-0.9
			l-1.9,0l0-0.9h2l0.1-0.7l-2.1,0l0-0.9l2.1,0l0.1-0.6h-2.5v-0.9l3.5,0l-0.5,5l0.9,0l0,2.1h-1v-1.1l-9.1,0l0,1.2h-1v-2.1l0.9,0
			l-0.5-4.6c1.1-0.1,1.9-0.4,2.8-1.1l0.5,0.8c-0.8,0.6-1.5,0.9-2.3,1l0.1,0.4h2.1c0.5-0.2,0.9-0.5,1.1-0.6c-0.4-0.1-0.9-0.3-1.2-0.3
			l0.4-0.8c0.6,0.2,1.2,0.3,1.6,0.5c0.3-0.3,0.6-0.6,0.9-1l0.7,0.6c-0.2,0.4-0.5,0.7-0.7,0.9c0.2,0.2,0.5,0.4,0.9,0.8l-0.6,0.8
			c-0.4-0.4-0.7-0.7-1.1-0.9c-0.4,0.3-0.8,0.6-1.3,0.9l-0.6-0.5V50h-2.1l0.1,0.7h2v0.9l-1.9,0l0.1,0.8H100.7z"/>
		<path style="fill:#231F20;" d="M109.8,52.2l0-4.5l7.8,0v4.5l-3.1,0v1.8h4.1v1h-4.1v2.3c0.8,0.2,1.9,0.1,2.8,0.1l3.1,0l-0.8,1H116
			c-2,0-3.8-0.6-5.3-1.6c-0.4,0.8-1.2,1.7-2.1,2.3l-0.8-0.9c2-1,2.6-3,2.5-5.1l1.2,0.2c0,1-0.2,2-0.4,2.5c0.6,0.5,1.5,1,2.3,1.2
			v-4.9H109.8z M110.9,51.2h5.6v-2.4h-5.6L110.9,51.2z"/>
		<path style="fill:#231F20;" d="M128.8,47.6c-1.2,0.9-2.8,1.5-4,1.7l0,2.3l3.3,0l0,1h-3.2v3.5l3.8-1.3v1.1
			c-0.8,0.3-3.8,1.3-4.8,1.7l-0.9-0.8c0.4-0.2,0.7-0.4,0.7-0.7v-7.7c1.3-0.1,3.3-0.8,4.3-1.7L128.8,47.6z M128.9,47.7h4.9v7.6
			c0,1-0.3,1.3-0.8,1.5c-0.5,0.2-1.3,0.1-1.9,0.1l-0.3-1c0.7,0,1.2,0.1,1.6,0c0.2-0.1,0.3-0.4,0.3-0.7v-6.4H130l0,10.4l-1.1,0V47.7z
			"/>
		<path style="fill:#231F20;" d="M136.4,59.1v-0.9h3.9V46.7h0.9v12.4H136.4z"/>
		<path style="fill:#231F20;" d="M151.5,50.5c-0.2-0.6-0.6-1.2-1-1.6l-0.7,0c-0.3,0.6-0.8,1.3-1.6,1.8l-0.8-0.6
			c1.2-0.9,2.1-2.5,2.2-3.5l1,0.3c-0.1,0.5-0.2,0.8-0.3,1h3.4v1h-1.9c0.2,0.2,0.4,0.6,0.7,1.1L151.5,50.5z M153.9,58
			c0.6,0,1.1,0.1,1.6,0.1c0.2,0,0.3-0.2,0.3-0.3V56h-8.2v-1h8.2v-0.9l1.1,0V55h2.4v1h-2.4v2.1c0,0.3-0.3,0.7-0.5,0.9
			c-0.3,0.2-1.1,0.2-2,0.2L153.9,58z M154,50.1V51l3.8,0v1l-3.8,0v1h4.8v1h-10.7l0-1l4.8,0v-1h-3.7l0-1h3.7v-1h0.9l-0.6-0.5
			c0.9-0.8,1.5-1.7,1.6-2.9l0.9,0.4c-0.1,0.5-0.1,0.6-0.2,0.9h3.7v1h-1.9c0.2,0.2,0.4,0.6,0.6,1.1l-1,0.5c-0.1-0.6-0.5-1.2-0.8-1.6
			h-1.1c-0.2,0.4-0.6,0.9-1,1.2L154,50.1z M150.1,56.1c1.2,0.1,2.3,0.6,3.2,1.4l-0.6,0.9c-0.8-0.9-2.2-1.4-3.2-1.5L150.1,56.1z"/>
		<path style="fill:#231F20;" d="M164.6,48.7c-0.3-0.6-0.6-1-1.2-1.6l0.9-0.6c0.7,0.5,1.2,1.2,1.5,2l-0.2,0.1l2.3,0v1h-5.7v-1H164.6
			z M167.3,51.5l-4.5,0v-1h4.5V51.5z M162.8,52.3h4.4v1h-4.4L162.8,52.3z M165.9,58.8l0-0.7h-1.8v0.7l-1,0v-4.5l3.9,0v4.5H165.9z
			 M165.9,55.3l-1.8,0v1.8h1.8V55.3z M170.2,51.8l-2.9,0v-1h2.9l0-4.1l1,0l0,4.1h3.2v1l-3.2,0v7.3h-1V51.8z"/>
		<path style="fill:#231F20;" d="M176.8,58.2l8.7-0.4v0.9l-8.2,0.5L176.8,58.2z M185.5,53.8h-8.6v-0.9h3.9v-0.4h-2.8v-0.8h2.8l0-0.3
			l-2.6,0v-0.9h2.6V50h-3.6v-0.9l3.6,0v-0.4l-2.6,0v-0.9h2.6v-0.9h1v0.9l2.8,0v1.3h0.9V50h-0.9v1.4l-2.8,0v0.3l2.9,0v0.8h-2.9v0.4
			l3.7,0V53.8z M178.1,57.6v-3.4h6.5v3.4H178.1z M180.9,55.1h-1.7v0.4h1.7V55.1z M179.1,56.7h1.8l0-0.4h-1.7L179.1,56.7z
			 M183.5,48.7h-1.7l0,0.4l1.7,0V48.7z M181.8,50.4l1.7,0V50h-1.7V50.4z M181.8,55.1v0.4h1.7v-0.4H181.8z M181.8,56.3l0,0.4l1.7,0
			v-0.4H181.8z M188.4,46.9V58c0,0.4-0.3,0.7-0.6,0.9c-0.5,0.3-1.1,0.1-1.9,0.2l-0.4-1.1c0.6,0,1.2,0.1,1.4,0c0.2,0,0.3-0.2,0.3-0.4
			V46.9H188.4z M185.7,48.2h1l0,8l-1,0V48.2z"/>
		<path style="fill:#231F20;" d="M195,50.3c-0.8,0.8-2,1.7-3,2.2l-0.6-0.9c1.2-0.3,2-1,2.9-2L195,50.3z M198.7,57.1l-2.5,0l0.6,0.7
			c-1.5,0.8-3.1,1.3-4.9,1.4l-0.5-1c1.7-0.1,3.2-0.4,4.6-1.1l-2.5,0l0-5.4h1.9l-0.5-0.9c1.8-0.1,3.4-0.8,3.8-2l-1.5,0
			c-0.3,0.4-0.7,0.9-1.3,1.3l-0.9-0.6c1.1-0.6,1.8-1.7,2.2-2.7l0.8,0.4c-0.1,0.3-0.2,0.6-0.2,0.7h5.1c-0.2,0.9-0.5,1.6-0.9,2.3
			l-0.9-0.5c0.4-0.5,0.4-0.6,0.5-0.9l-1.8,0c-0.1,0.2-0.2,0.4-0.3,0.6c1,1,2,1.4,4.1,1.6l-0.5,1c-1.7-0.3-2.9-0.6-4.1-1.7
			c-0.8,0.9-1.9,1.3-3,1.5l5.6,0l0,5.4l-1.9,0c1.3,0.2,2.6,0.6,3.8,1.2l-0.6,0.9c-1.5-0.8-2.9-1.2-4.7-1.3L198.7,57.1z M192.4,47.2
			c0.9,0.3,1.6,0.7,2.3,1.4l-0.6,0.8c-0.6-0.5-1.4-1.2-2.3-1.4L192.4,47.2z M200.5,54l-6,0v0.6h6V54z M194.5,56.1l6,0v-0.6h-6
			L194.5,56.1z M200.5,52.6l-6,0v0.5l6,0V52.6z"/>
		<path style="fill:#231F20;" d="M212.1,51.4C212.1,51.3,212.1,51.3,212.1,51.4l0.8-0.6c1,0.6,1.7,1.5,2.2,2.5l-0.8,0.7
			c-0.4-1-1.1-1.8-2-2.4v0.9h-2.3V53l0.4-0.2c0.9,0.4,1.6,1,2.2,1.8l-0.8,0.6c-0.5-0.7-1.2-1.3-1.8-1.5l0,5.5h-1l0-4.6
			c-0.4,0.8-1.3,1.7-2.3,2.5l-0.8-0.7c1.3-0.9,2.8-2.9,3.1-4l-2.4,0v-1h2.5l0-4.6h1v4.6H212.1z M207.5,51c-0.1-1.1-0.4-2-1.1-2.9
			l0.9-0.5c0.6,0.9,1,1.8,1.2,2.8L207.5,51z M210,50.5c0.7-0.9,1.2-1.8,1.3-2.9l0.9,0.4c-0.1,0.9-0.6,2.4-1.3,3L210,50.5z
			 M215.9,55.2l-4.6,1.3l-0.3-1l4.9-1.3v-7.4h1v7.1l1.2-0.4l0.3,1l-1.5,0.4v4.2h-1L215.9,55.2z M214.5,50.5c-0.4-1-1.2-1.8-2.1-2.2
			l0.8-0.7c0.9,0.5,1.6,1.3,2.2,2.3L214.5,50.5z"/>
		<path style="fill:#231F20;" d="M223.7,51.8h1.5v1.4c0,0.5-0.2,1.5-1.2,1.9l-0.4-0.5c0.6-0.3,0.8-0.8,0.8-1.4h-0.7V51.8z"/>
		<path style="fill:#231F20;" d="M234.1,49.5c-0.2,0.3-0.4,0.8-0.7,1.2h5.5l0,3.9h-4.5l0,2.1c0,0.3,0.2,0.6,0.6,0.6l5.4,0
			c0.4-0.1,0.9,0.1,1.2-0.2c0.3-0.5,0.4-1,0.6-1.6l1,0.3c-0.3,0.9-0.4,1.7-1.1,2.3c-0.3,0.2-0.8,0.2-1.2,0.2h-6.3
			c-0.6,0-1.3-0.7-1.3-1.4v-6.1c-0.5,0.8-0.9,1.4-1.8,2.2l-0.9-0.7c1.7-1.5,3-3.9,3.5-5.9l1,0.4c-0.2,0.6-0.4,1.2-0.6,1.5h7.5
			c0,1.5-0.1,4.1-0.8,6.1c-0.2,0.7-0.4,1.2-1.6,1.4c-0.4,0.1-0.8,0-1.3,0c-0.1-0.4-0.3-0.7-0.5-1.1c0.8,0.1,1.6,0.3,2-0.1
			c0.4-0.5,0.4-1.1,0.6-1.8c0.2-1.1,0.3-2.3,0.3-3.4L234.1,49.5z M234.4,53.6h3.4v-1.9h-3.4V53.6z"/>
		<path style="fill:#231F20;" d="M245,54.1c0.9-0.2,1.7-0.5,2.4-0.7v-3h-1.9v-1h1.9l0-2.6h1.1l0,2.6h1.5l0,1h-1.6l0,2.7
			c0.2,0,1.3-0.5,1.7-0.6l0,1.1c-0.6,0.2-1.2,0.4-1.7,0.6v3.6c0,0.6-0.1,0.9-0.5,1.3c-0.5,0.3-1.1,0.1-1.7,0.2l-0.4-1.1
			c0.5,0,0.9,0.1,1.3,0c0.2-0.1,0.3-0.1,0.3-0.4v-3.2l-1.6,0.5L245,54.1z M249.6,47.9c2.5-0.1,4.7-0.3,6.8-1.2l0.6,0.9
			c-1,0.4-2,0.8-3,0.9v2.1h3.5l0,1l-3.5,0v2.1h2.5l0,5.3l-1.1,0l0-1l-3.9,0v1h-1.1l0-5.3h2.5l0-2.1h-3.4v-1h3.4l0-1.9
			c-0.8,0.1-1.8,0.2-2.8,0.2L249.6,47.9z M251.5,54.8l0,2.3h3.9l0-2.3L251.5,54.8z"/>
		<path style="fill:#231F20;" d="M267.4,51.8c-0.9,0.6-1.8,1.1-2.9,1.5c1.5-0.1,4.5-0.5,6.1-0.9l0.5,0.9c-1.6,0.6-4.8,1-6.7,1.1
			c-0.1,0.3-0.2,0.7-0.3,0.9h6.5c-0.2,1-0.4,1.9-0.7,2.7c-0.1,0.4-0.4,0.7-1,1c-0.4,0.1-2.7-0.2-3.4-0.4l-0.2-1.1
			c1.1,0.3,2,0.4,3,0.5c0.2,0,0.4-0.1,0.5-0.2c0.2-0.5,0.4-1.1,0.5-1.5h-6.5l0.6-2.3c-0.7,0.3-1.8,0.7-2.8,1.1l-0.6-1
			c2.1-0.7,4-1.4,5.4-2.2l-4.8,0l0-1h4.5v-1.3h-3.6v-1h3.6v-1.8h1.1v1.8h2.9V49c0.5-0.4,1-1.1,1.6-1.8l0.9,0.7
			c-1,1.2-2.6,2.8-2.8,2.9l3.4,0v1H267.4z M266.1,49.5v1.3h0.8c0.6-0.4,1.2-1,1.5-1.3L266.1,49.5z"/>
		<path style="fill:#231F20;" d="M277.9,51.1c0.2,0.1,0.7,0.4,0.9,0.7c0.4-0.4,0.7-0.7,0.8-1h-1.9c-0.5,0.6-1.1,1.2-1.9,1.7
			l-0.9-0.7c1.2-0.7,2.3-1.7,2.7-3l0.8,0.3c0,0.3-0.2,0.6-0.2,0.7l2.4,0l0,0.8c-0.3,0.7-0.7,1.2-1,1.6h2.8c-0.7-0.9-1.2-1.9-1.5-3
			l0.9-0.3c0.4,1.2,0.9,2.1,1.7,3c0.3-0.3,0.6-0.9,0.7-1.3h-1.6v-0.9h2.7c0,1.2-0.5,2.2-1.1,3c0.6,0.6,1.8,1.3,2.9,1.5l-0.6,0.9
			c-0.6-0.2-1.3-0.5-1.9-0.9v0.9l-3,0v2.9c0,0.4-0.3,0.8-0.5,1c-0.5,0.2-1.1,0.1-1.7,0.2l-0.5-0.9h1.3c0.3,0,0.4-0.2,0.4-0.4v-2.7
			h-3.2v-0.8c-0.6,0.3-1.2,0.6-1.8,0.9l-0.8-0.9c0.9-0.3,1.6-0.6,2.1-0.9c-0.2-0.2-0.4-0.3-0.9-0.5l0.7-0.6c0.4,0.2,0.7,0.5,0.9,0.7
			c0.2-0.1,0.5-0.3,0.6-0.5c-0.2-0.2-0.5-0.5-1-0.7L277.9,51.1z M279.7,56.2c-1.3,1-2.6,1.6-4.1,1.9l-0.6-0.9
			c1.6-0.3,2.9-0.8,4.1-1.7L279.7,56.2z M286.5,50.1l-1,0v-1.2h-9.1v1.3h-1v-2.3h4.8c-0.2-0.2-0.3-0.3-1-0.7l0.9-0.6
			c0.5,0.2,1.2,0.9,1.4,1.2h5.1V50.1z M284.5,54.1c-0.6-0.4-1.2-1-1.7-1.5v0.7h-3.4v-0.6c-0.5,0.5-1.2,1-1.8,1.4L284.5,54.1z
			 M286.2,58c-1.2-0.9-2.4-1.4-3.9-1.7l0.5-0.9c1.5,0.2,2.9,0.8,4.1,1.7L286.2,58z"/>
		<path style="fill:#231F20;" d="M297.4,47c-0.1,0.3-0.2,0.7-0.3,1h3.6v0.8c-0.6,1.2-1.2,2.2-1.9,2.8c0.9,0.7,2,1.2,3.4,1.7
			l-0.7,0.9c-1.2-0.4-2.4-1.1-3.4-1.9c-0.7,0.6-1.6,1.2-2.5,1.5h4.7v5.1h-1.1v-0.8h-2.6v0.8h-1.1V54c-0.4,0.2-0.8,0.3-1.1,0.5
			l-0.3-0.4H293v2.3c0.6-0.2,1.2-0.5,1.8-0.8v1.1c-1.5,0.6-3.3,1.4-4.8,2l-0.7-0.9c0.2-0.1,0.5-0.2,0.9-0.3v-4.8l1,0v4.4l0.7-0.3
			v-5.2h-1.6v-4.1h3.9v3.4c1-1.1,1.7-2.5,2.1-4.3L297.4,47z M293.3,50.5v-2.1h-1.9v2.1H293.3z M294.3,51.3v0.3H293l0,1.5h1.3v0.3
			c1-0.4,2.2-1,3.1-1.7c-0.4-0.5-0.9-1.1-1.2-1.6c-0.3,0.5-0.8,1.2-1.2,1.7L294.3,51.3z M296.6,55v2.4l2.6,0V55H296.6z M296.9,49
			c0.3,0.7,0.7,1.3,1.2,1.9c0.5-0.5,0.9-1.2,1.3-1.9H296.9z"/>
		<path style="fill:#231F20;" d="M306.2,55.7c0,1.2-0.3,2.1-0.9,3c-0.3-0.1-0.6-0.2-1-0.4c0.6-0.9,0.8-1.7,0.9-2.8
			C305.5,55.6,305.8,55.6,306.2,55.7z M309.3,49.7c-0.5,1.2-1.6,3.2-2.6,4.1c0.3,0,0.8-0.2,1.2-0.2c0-0.1-0.2-0.3-0.5-0.7l0.9-0.4
			c0.3,0.5,0.6,1,0.7,1.5l0-0.5h2.9v0.9c-0.4,1.7-1.5,3.1-3,4.1l-0.8-0.7c0.1-0.1,0.2-0.1,0.2-0.2c-0.1-0.8-0.3-1.4-0.8-2
			c0.4-0.1,0.6-0.2,1-0.2c0.4,0.6,0.7,1.1,0.8,1.6c0.7-0.5,1.3-1.6,1.6-2.4h-1.8c0,0.1,0.1,0.2,0.1,0.3c-0.3,0.1-0.6,0.2-1,0.4
			c0-0.4-0.1-0.5-0.1-0.6c-0.9,0.1-1.9,0.2-2.9,0.5l-0.5-0.8c1-0.8,1.9-1.8,2.4-2.7c-0.6,0-1.2,0.1-2,0.2c-0.2-0.3-0.3-0.5-0.5-0.8
			c1.1-1.1,1.9-2.4,2.3-4l0.8,0.7c-0.4,1.2-1,2.2-1.6,3c0.4,0,1-0.1,1.5-0.1c0.2-0.4,0.4-0.8,0.6-1.4L309.3,49.7z M307.3,55.5
			c0.3,0.5,0.5,1.6,0.5,2.4c-0.3,0.2-0.6,0.2-1,0.4c0.1-0.9,0-1.7-0.4-2.6L307.3,55.5z M316.5,53.9c-0.5,0.8-1.5,1.3-2.1,1.5
			c0.5,0.8,1.3,1.5,2.4,2.2c-0.2,0.3-0.5,0.5-0.7,0.8c-1.5-1-2.2-1.9-2.8-2.9l0,2.7c0,0.5-0.5,0.7-0.9,0.8c-0.4,0.1-0.9,0.1-1.4,0
			c-0.1-0.3-0.2-0.7-0.4-1.1c0.6,0,1,0.1,1.4,0.1c0.1,0,0.2-0.1,0.2-0.2v-5.2h-2.7c0-1.5,0-3.2,0-4.8h2c0.4-0.3,0.8-0.7,1.1-1.3
			l0.8,0.6c-0.2,0.3-0.4,0.6-0.5,0.6h2.8v4.8l-2.4,0v0.6c0.1,0.5,0.4,0.9,0.6,1.3c0.6-0.2,1.6-0.9,2-1.4L316.5,53.9z M314.7,50.7
			l-4.2,0v1h4.2V50.7z M310.5,48.9c0,0.2,0,0.6,0,0.9h4.2v-0.9H310.5z"/>
		<path style="fill:#231F20;" d="M323.2,54.9c-0.5-1.1-1.1-2-2.1-2.8l0.8-0.7c1,0.6,1.9,1.4,2.6,2.4L323.2,54.9z"/>
		<path style="fill:#231F20;" d="M327.5,58.3c2-0.7,3.9-1.3,5.4-2.7c-1.4-1.4-2.1-3.4-2.5-5.4h-2.2v-1h5.5c-0.5-0.8-1.2-1.4-2-1.8
			l0.8-0.7c0.8,0.4,1.7,1.3,2.2,1.9l-0.7,0.5l5.1,0v1h-2.2c-0.3,1.9-1.1,3.9-2.4,5.4c1.4,1.2,3.3,1.9,5.3,2.6L339,59
			c-2-0.6-3.8-1.4-5.3-2.7c-1.5,1.4-4.1,2.4-5.3,2.8L327.5,58.3z M331.5,50.2c0.2,2.2,1.5,4,2.2,4.6c1.2-1.3,1.8-3,2.1-4.6H331.5z"
			/>
		<path style="fill:#231F20;" d="M347.1,58.1c0.3,0,0.4-0.2,0.4-0.5v-0.8h-5.6v-0.9l5.6,0v-0.5c0.7-0.2,1.4-0.5,1.5-0.5l-4.9,0v-1
			h7.4l0,0.9c-1,0.5-1.9,0.8-2.9,1.1l5.3,0v0.9h-5.3V58c0,0.6-0.2,1-0.8,1.1c-0.6,0.1-1.1,0.1-1.8,0.1l-0.8-1H347.1z M349.1,52.5
			c-0.4-0.5-0.9-0.7-1.1-0.9c-0.5,0.4-1,0.6-1.6,0.9l-0.7-0.6c0.5-0.2,1-0.6,1.3-0.8c-0.2-0.1-0.6-0.2-1.2-0.4l0.6-0.7
			c0.5,0,0.9,0.3,1.4,0.5c0.2-0.2,0.5-0.5,0.8-0.8l0.7,0.6c-0.3,0.3-0.5,0.6-0.6,0.7c0.3,0.2,0.7,0.5,1.1,0.9l-0.6,0.6h2.3l0.1-0.9
			l-1.9,0l0-0.9h1.9l0.1-0.7l-2.1,0l0-0.9l2.1,0l0.1-0.6h-2.5v-0.9l3.5,0l-0.5,5l0.9,0l0,2.1h-1v-1.1l-9.1,0l0,1.2h-1v-2.1l0.9,0
			l-0.5-4.6c1.1-0.1,1.9-0.4,2.8-1.1l0.5,0.8c-0.8,0.6-1.5,0.9-2.3,1l0.1,0.4h2.1c0.5-0.2,0.9-0.5,1.1-0.6c-0.4-0.1-0.9-0.3-1.2-0.3
			l0.4-0.8c0.6,0.2,1.2,0.3,1.6,0.5c0.3-0.3,0.6-0.6,0.9-1l0.7,0.6c-0.2,0.4-0.5,0.7-0.7,0.9c0.2,0.2,0.5,0.4,0.9,0.8l-0.6,0.8
			c-0.4-0.4-0.7-0.7-1.1-0.9c-0.4,0.3-0.8,0.6-1.3,0.9l-0.6-0.5V50H344l0.1,0.7h2v0.9l-1.9,0l0.1,0.8H349.1z"/>
		<path style="fill:#231F20;" d="M356.7,56.4l1.9-0.6v-4.2h-1.5l0-1l1.5,0l0-2.9h1v2.9h1.4l0,1l-1.4,0l0,3.7l1.6-0.5v1l-3.9,1.4
			L356.7,56.4z M368.8,55.9c-0.4,2.2-0.7,2.7-1.5,2.7h-4.6c-0.6,0-1.1-0.5-1.1-1.1v-4.6l-0.7,0.2l-0.4-1l1.1-0.3l0-2.8h1v2.5
			l1.5-0.5v-4.3h1v4.1l2.9-0.8c-0.1,1.9-0.3,4-0.7,5c-0.2,0.3-0.4,0.6-0.8,0.6c-0.4,0-0.7-0.1-1.1-0.2l-0.2-1.2
			c0.5,0.2,0.6,0.3,1,0.4c0.2,0,0.2-0.1,0.3-0.2c0.2-1.1,0.3-2,0.4-3l-1.8,0.5l0,4.4h-1v-4.1l-1.5,0.5l0,4.6c0,0.2,0.2,0.4,0.3,0.4
			l4.1,0c0.4,0,0.5-1.1,0.7-2L368.8,55.9z"/>
		<path style="fill:#231F20;" d="M372.1,59.1V47.3h10.8v11.8h-1v-0.7h-8.7v0.7H372.1z M373.1,48.3v9.1l8.7,0v-9.1H373.1z
			 M380.4,48.7V51h-2.5v0.3l3.6,0l0,0.9h-8.1v-0.9h3.5V51h-2.5v-2.3H380.4z M374.1,56.9l0-4.2h6.7v4.2H374.1z M375.1,53.6v2.5h4.8
			l0-2.5L375.1,53.6z M375.5,50.2l3.9,0v-0.6h-3.9V50.2z M375.9,55.7l0-1.8h3.1v1.8H375.9z M376.8,55h1.4v-0.4h-1.4V55z"/>
		<path style="fill:#231F20;" d="M390.2,54.9c-0.5-1.1-1.1-2-2.1-2.8l0.8-0.7c1,0.6,1.9,1.4,2.6,2.4L390.2,54.9z"/>
		<path style="fill:#231F20;" d="M403.8,51.8c-0.9,0.6-1.8,1.1-2.9,1.5c1.5-0.1,4.5-0.5,6.1-0.9l0.5,0.9c-1.6,0.6-4.8,1-6.7,1.1
			c-0.1,0.3-0.2,0.7-0.3,0.9h6.5c-0.2,1-0.4,1.9-0.7,2.7c-0.1,0.4-0.4,0.7-1,1c-0.4,0.1-2.7-0.2-3.4-0.4l-0.2-1.1
			c1.1,0.3,2,0.4,3,0.5c0.2,0,0.4-0.1,0.5-0.2c0.2-0.5,0.4-1.1,0.5-1.5h-6.5l0.6-2.3c-0.7,0.3-1.8,0.7-2.8,1.1l-0.6-1
			c2.1-0.7,4-1.4,5.4-2.2l-4.8,0l0-1h4.5v-1.3h-3.6v-1h3.6v-1.8h1.1v1.8h2.9V49c0.5-0.4,1-1.1,1.6-1.8l0.9,0.7
			c-1,1.2-2.6,2.8-2.8,2.9l3.4,0v1H403.8z M402.5,49.5v1.3h0.8c0.6-0.4,1.2-1,1.5-1.3L402.5,49.5z"/>
		<path style="fill:#231F20;" d="M414.3,51.1c0.2,0.1,0.7,0.4,0.9,0.7c0.4-0.4,0.7-0.7,0.8-1h-1.9c-0.5,0.6-1.1,1.2-1.9,1.7
			l-0.9-0.7c1.2-0.7,2.3-1.7,2.7-3l0.8,0.3c0,0.3-0.2,0.6-0.2,0.7l2.4,0l0,0.8c-0.3,0.7-0.7,1.2-1,1.6h2.8c-0.7-0.9-1.2-1.9-1.5-3
			l0.9-0.3c0.4,1.2,0.9,2.1,1.7,3c0.3-0.3,0.6-0.9,0.7-1.3h-1.6v-0.9h2.7c0,1.2-0.5,2.2-1.1,3c0.6,0.6,1.8,1.3,2.9,1.5l-0.6,0.9
			c-0.6-0.2-1.3-0.5-1.9-0.9v0.9l-3,0v2.9c0,0.4-0.3,0.8-0.5,1c-0.5,0.2-1.1,0.1-1.7,0.2l-0.5-0.9h1.3c0.3,0,0.4-0.2,0.4-0.4v-2.7
			h-3.2v-0.8c-0.6,0.3-1.2,0.6-1.8,0.9l-0.8-0.9c0.9-0.3,1.6-0.6,2.1-0.9c-0.2-0.2-0.4-0.3-0.9-0.5l0.7-0.6c0.4,0.2,0.7,0.5,0.9,0.7
			c0.2-0.1,0.5-0.3,0.6-0.5c-0.2-0.2-0.5-0.5-1-0.7L414.3,51.1z M416.1,56.2c-1.3,1-2.6,1.6-4.1,1.9l-0.6-0.9
			c1.6-0.3,2.9-0.8,4.1-1.7L416.1,56.2z M422.9,50.1l-1,0v-1.2h-9.1v1.3h-1v-2.3h4.8c-0.2-0.2-0.3-0.3-1-0.7l0.9-0.6
			c0.5,0.2,1.2,0.9,1.4,1.2h5.1V50.1z M420.9,54.1c-0.6-0.4-1.2-1-1.7-1.5v0.7h-3.4v-0.6c-0.5,0.5-1.2,1-1.8,1.4L420.9,54.1z
			 M422.5,58c-1.2-0.9-2.4-1.4-3.9-1.7l0.5-0.9c1.5,0.2,2.9,0.8,4.1,1.7L422.5,58z"/>
		<path style="fill:#231F20;" d="M426,49.9c0.7-0.5,1.8-1.8,1.9-3.1l0.9,0.4c-0.1,0.3-0.1,0.5-0.2,0.7h3.6l0,0.9h-2
			c0.2,0.3,0.4,0.5,0.6,0.9c-0.3,0.1-0.6,0.3-0.9,0.4c-0.2-0.5-0.5-0.9-0.8-1.3h-0.9c-0.3,0.6-0.9,1.2-1.5,1.8L426,49.9z
			 M432.5,50.3l3.9,0l0,1.4h1.4v0.9h-1.4v1.5h-3.9v0.6l4.2,0v0.9h-4.2v0.6h5.1v0.9h-5.1l0,1.8h-1v-1.8l-5,0v-0.9l4.9,0v-0.7h-4.1
			l0-0.9l4.1,0v-0.6h-3.6l0-0.9l3.5,0l0-0.6h-5.2v-0.9h5.3v-0.5h-3.5l0-0.9l3.5,0v-0.6h0.9l-0.5-0.3c0.7-0.8,1.2-1.6,1.3-2.7
			l0.9,0.3c0,0.4-0.1,0.7-0.2,0.8l4,0v1l-2.3,0c0.1,0.1,0.3,0.4,0.5,0.9l-0.9,0.5c-0.2-0.6-0.4-1-0.7-1.4h-1
			c-0.2,0.3-0.4,0.8-0.8,1.2l-0.3-0.2L432.5,50.3z M432.5,51.2l0,0.5h2.9v-0.5L432.5,51.2z M435.4,52.6h-2.9l0,0.6h2.9L435.4,52.6z"
			/>
		<path style="fill:#231F20;" d="M446.3,48.8l0,1l-5.5,0v-1h2.4c-0.2-0.5-0.7-1-1.3-1.6l0.9-0.6c0.6,0.4,1.2,1.1,1.5,1.9l-0.5,0.2
			L446.3,48.8z M445.8,51.5h-4.4l0-1h4.4L445.8,51.5z M445.8,53.3h-4.4l0-1h4.4V53.3z M444.6,59v-1h-1.9v1l-1,0l0-4.7h4V59H444.6z
			 M444.6,55.3h-1.9l0,1.6h1.9L444.6,55.3z M450.9,51.9v-3.2h-4.6v-1l5.7,0l0,6h-1.1v-0.7h-3.3l0,4.1c0,0.3,0.2,0.5,0.5,0.5h3.2
			c0.2,0,0.4-0.2,0.5-0.4c0.1-0.5,0.2-1,0.2-1.6l1.1,0.4c0,0.5-0.2,1-0.3,1.4c-0.2,0.6-0.8,1.2-1.4,1.2h-3.7c-0.9,0-1.2-0.9-1.2-1.5
			v-5.2H450.9z"/>
		<path style="fill:#231F20;" d="M455.3,58.5c0.7-1,0.8-2.1,0.8-3.2l0.9,0.2c-0.1,1-0.1,2.3-0.8,3.3L455.3,58.5z M455.8,53.8
			c0.9-0.8,1.6-1.4,2.4-2.4l-2.1,0.4l-0.5-0.9c1.1-0.9,2.3-2.6,2.9-4l0.8,0.6c-0.5,1.2-1.2,2.2-2.3,3.1l1.9-0.3
			c0.2-0.3,0.4-0.6,0.5-1.2l0.9,0.5c-0.8,1.6-1.8,3-3,4l1.6-0.2c-0.1-0.1-0.2-0.3-0.4-0.6l0.9-0.4c0.5,0.7,0.9,1.4,1.1,2.3l-0.9,0.4
			c0-0.3-0.1-0.5-0.2-0.8c-1,0.2-2.2,0.4-3.2,0.6L455.8,53.8z M458.7,58.2c-0.3,0.1-0.6,0.1-1,0.2c0.2-1,0-1.9-0.3-2.8
			c0.4-0.1,0.6-0.1,1-0.1C458.7,56.2,458.9,57.2,458.7,58.2z M460.4,57.5c-0.3,0.1-0.6,0.2-1,0.2c0-0.5-0.1-0.8-0.2-1.2
			c-0.1-0.3-0.3-0.7-0.5-1.2c0.4-0.1,0.6-0.2,1-0.3C460,55.9,460.4,56.6,460.4,57.5z M460.2,58.2c0.4-0.2,0.4-0.4,0.5-0.6V48
			c2.1-0.1,4-0.4,5.8-1.3l0.7,0.8c-0.6,0.3-1.1,0.5-1.6,0.7c-0.3,0.1-0.7,0.2-0.9,0.3v3.1l2.7,0v1h-2.6c0.1,1,0.3,2.9,0.6,4
			c0.2,0.4,0.3,0.9,0.7,1.2c0.2,0,0.5-1.3,0.6-2l1,0.5c-0.2,0.9-0.5,2.1-1.2,2.6c-0.3,0.2-0.6,0.2-0.9,0c-0.8-0.6-1.2-1.6-1.4-2.4
			c-0.3-1.3-0.5-2.6-0.5-3.8h-1.9v4.9c0.6-0.3,1.4-0.7,2.3-1v1c-1,0.5-2,1-3,1.6L460.2,58.2z M463.6,48.7c-0.5,0.1-1.2,0.2-1.8,0.2
			v2.6h1.8L463.6,48.7z"/>
		<path style="fill:#231F20;" d="M474.5,54.9c-0.5-1.1-1.1-2-2.1-2.8l0.8-0.7c1,0.6,1.9,1.4,2.6,2.4L474.5,54.9z"/>
		<path style="fill:#231F20;" d="M482,53.1c-0.6-0.9-1.4-1.5-2.4-2l0.8-0.7c0.9,0.5,1.7,1,2.3,1.9L482,53.1z M480,58.2
			c1.3-1.4,2-2.8,2.5-4.5l0.9,0.4c-0.5,1.7-1.2,3.3-2.5,4.7L480,58.2z M483.1,49.9c-0.7-0.8-1.4-1.4-2.4-1.8l0.7-0.7
			c0.9,0.3,1.9,1,2.5,1.8L483.1,49.9z M489.9,58.2h-4.6l0,0.9h-1l0-5.1h2.8l0-2.3h-3.9v-1l3.9,0v-1.8c-0.8,0.1-1.9,0.2-2.9,0.2
			l-0.5-1c2.6,0,4.9-0.2,7-1.2l0.7,0.8c-1.1,0.5-2.2,1-3.3,1.1v1.9l3.9,0v1h-3.9V54l2.8,0v5.1l-1.1,0V58.2z M485.3,55v2.3h4.6V55
			H485.3z"/>
		<path style="fill:#231F20;" d="M506.1,50.1c0,3.3-0.2,5.7-0.6,7.7c-0.2,0.8-0.6,1.1-1.4,1.1c-0.3,0-0.6-0.1-1-0.1l-0.2-1.1
			c0.4,0.1,0.8,0.1,1.1,0.1c0.2,0,0.4,0,0.5-0.3c0.5-1.8,0.6-4.1,0.6-6.4H504c0,2.9-0.3,5.8-2.3,8.1l-0.9-0.6
			c0.2-0.1,0.2-0.2,0.4-0.4l-6.3,0.7l-0.5-1c1.3-0.1,2.5-0.2,3.6-0.2v-0.9h-2.7v-1h2.7V55h-2.4v-4.5h2.4v-0.6h-3.2v-1h3.2v-0.5
			c-0.9,0.1-1.8,0.1-2.7,0.1l-0.5-0.9c1.7,0,5-0.2,6.6-0.7l0.6,0.8c-1,0.3-2,0.5-2.9,0.6v0.6h3v1h-3v0.6h2.4V55H499v0.7l2.7,0v1H499
			v0.8l2.9-0.2c0.9-1.4,1.2-3.4,1.2-6.2h-1.3v-1h1.3v-3.3h1v3.3H506.1z M497.9,52.2v-0.7h-1.4v0.7H497.9z M497.9,54v-0.8l-1.4,0V54
			H497.9z M499,51.5v0.7h1.3v-0.7L499,51.5z M499,53.2V54h1.3v-0.8H499z"/>
		<path style="fill:#231F20;" d="M514.1,51.2c-0.4,0.8-0.9,1.5-1.4,2.1v5.8h-1v-4.6c-0.4,0.3-1,0.8-1.7,1.2L509,55
			c1.6-0.9,3.3-2.4,4.3-4.4L514.1,51.2z M509.2,49.6v-1l2.7,0v-1.8h1v1.8l1.9,0l0,1l-1.8,0v1.5l-1,0v-1.5L509.2,49.6z M521,55.6
			c-0.5,2.7-0.6,3.1-1.6,3.1h-3.4c-0.7,0-1.1-0.6-1.1-1.2v-6.5h1V54c1.2-0.3,2.4-0.8,3.5-1.9l0.8,0.7c-1.3,1.2-2.8,1.8-4.3,2.2v2.4
			c0,0.3,0.2,0.4,0.3,0.4h2.9c0.4,0,0.4-0.5,0.8-2.5L521,55.6z M517.1,46.8h1.1l0,1.8l2.7,0l0,1l-2.7,0l0,1.7l-1,0l0-1.7h-1.9v-1
			h1.9V46.8z"/>
		<path style="fill:#231F20;" d="M528.7,57c-1.1,0.6-2.4,1.1-3.5,1.3l-0.8,0.1l-0.6-1c1.6-0.2,3-0.5,4.3-1.3L528.7,57z M532.9,54.9
			c-0.2-0.2-0.5-0.4-1.1-0.7l1-0.6c1.1,0.5,1.9,1.5,2.7,2.5l-0.8,0.6c-0.2-0.4-0.5-0.7-0.7-0.9l-2.8,0.1l-0.5,0v1.9
			c0,0.6-0.2,1.1-0.9,1.1h-1.5l-0.3-1l1.3,0.1c0.2,0,0.3-0.1,0.3-0.3v-1.7l-1.9,0c-0.4,0-0.8,0.1-1.2,0.1c-0.3,0-0.6,0-1,0.1
			l-0.6-0.9c0.5-0.2,1-0.3,1.4-0.4c1.1-0.3,2.3-0.7,2.9-1c-0.8,0-2,0-3.3,0.2l-0.5-0.9c0.4-0.1,0.6-0.2,0.8-0.2
			c1-0.3,1.9-0.7,2.8-1.5c-0.3-0.1-0.6-0.3-0.7-0.3c-1,0.7-2.2,1.2-3.5,1.4l-0.6-0.9c1.2-0.2,2-0.4,2.9-0.9
			c-0.5-0.1-1.5-0.3-2.1-0.4c0.5-0.6,0.9-1,1.1-1.4h-1.5v-1h2.1c0.2-0.4,0.4-0.9,0.7-1.5l0.9,0.4c-0.2,0.4-0.3,0.9-0.4,1.1h2.6
			l0,0.8c-0.2,0.6-0.6,1.1-1.1,1.6c0.6,0.3,1.3,0.6,1.6,0.8l0-3.8h4.4v4.1h-4.4l-0.5,0.5c-0.2-0.1-0.6-0.3-0.8-0.4l0.4,0.3
			c-0.4,0.4-1,0.8-1.5,1c0.9,0,2.1,0,2.9-0.1c0.5-0.3,0.9-0.6,1.4-1.1l0.9,0.6c-1.4,1.3-3,2.1-4.7,2.7L532.9,54.9z M526.9,49.1
			c-0.2,0.3-0.3,0.5-0.5,0.7c0.4,0.1,1,0.2,1.5,0.4c0.4-0.3,0.7-0.7,1-1H526.9z M535.3,58.5c-1.5-0.9-2.7-1.3-4-1.5l0.5-0.9
			c1.5,0.2,2.8,0.7,4.1,1.5L535.3,58.5z M531.6,50.6h2.3v-2.1h-2.3V50.6z"/>
		<path style="fill:#231F20;" d="M540.7,51.8h1.5v1.4c0,0.5-0.2,1.5-1.2,1.9l-0.4-0.5c0.6-0.3,0.8-0.8,0.8-1.4h-0.7V51.8z"/>
		<path style="fill:#231F20;" d="M547.4,56.2c0.6-0.3,1-0.5,1.3-0.7v-7.9l1.1,0v7.2c1-0.5,2-1.2,3.3-1.9v1.2c-1.2,0.7-2.3,1.3-3.4,2
			c-0.4,0.3-0.9,0.6-1.4,0.9L547.4,56.2z M550.6,57.9c1.7-0.9,3.3-2.2,4.2-3.8c0.5-1.1,0.9-2.2,1-3.4c0.1-1,0.1-2.1,0.1-3.5h1.1
			c-0.1,2.7,0.1,5-1.1,7.3c0.8,0.5,2.6,2.1,3.2,3.4l-0.9,0.7c-0.9-1.5-1.9-2.5-2.9-3.2c-0.9,1.2-2.3,2.5-4.1,3.5L550.6,57.9z
			 M553.6,51.7c-0.8-1-1.7-1.7-2.9-2.2l0.7-0.8c0.6,0.2,1.1,0.5,1.5,0.8c0.4,0.3,0.9,0.8,1.4,1.2L553.6,51.7z"/>
		<path style="fill:#231F20;" d="M564.1,58.2c1.6-0.4,2.8-1.1,3.9-2c-1.2-1.2-1.9-2.4-2.5-4.1c-0.1,2-0.4,3.4-0.8,4.3
			c-0.4,0.9-1,1.8-1.7,2.7c-0.4-0.2-0.7-0.4-1.1-0.6c1.1-1.1,1.9-2.2,2.1-3.4c0.2-1.2,0.3-2.1,0.4-3.4c0.1-1,0.1-2.1,0.1-3h-1.8v-1
			h8.7v0.9c-0.6,0.9-1.3,1.8-1.8,2.5h2.7c-0.1,1.1-0.4,2-0.9,2.9c-0.5,0.9-1.1,1.6-1.7,2.3c1.1,0.9,2.5,1.5,4.1,1.9l-0.6,1
			c-1.6-0.5-2.9-1.1-4.2-2.2c-1.1,0.9-2.3,1.6-4.1,2.2L564.1,58.2z M565.6,49.3c0.5,1.7,0.9,2.7,1.4,3.6c0.5,1,0.9,1.5,1.9,2.6
			c0.9-0.9,1.8-2.2,2.1-3.4h-2.9v-0.9c0.7-0.9,1.5-1.9,1.8-2.4h-4.3V49.3z"/>
		<path style="fill:#231F20;" d="M587.6,54.9c-1.8-0.1-4.7-1.7-5.8-3.2c-1.4,1.6-3.5,2.6-5.9,3.1l-0.6-0.9c1.9-0.2,3.5-0.9,4.6-1.7
			c-0.7,0.1-2.3,0.3-3,0.5l-0.5-0.9c0.8-0.5,1.5-1.2,1.8-1.9l-0.2,0l-0.5-0.9c1.5-0.5,3.1-1.3,3.9-2.4l0.7,0.8
			c-0.8,0.8-1.7,1.2-2.2,1.4l4-0.3c-0.1-0.1-0.5-0.2-1.2-0.4l0.8-0.7c1.1,0.2,2.1,0.9,2.9,1.9l-0.8,0.6c-0.2-0.2-0.5-0.5-0.7-0.7
			l-6.1,0.6c0,0,0.1,0.1,0.3,0.3c-0.3,0.6-0.7,1.1-1.2,1.5l1.9-0.2c-0.1-0.2-0.3-0.3-0.6-0.5l0.9-0.4c0.4,0.3,0.6,0.5,0.9,0.9
			c0.5-0.5,0.7-0.9,1.1-1.5l0.9,0.4c-0.2,0.4-0.4,0.6-0.5,0.8c1.4,1.7,3.6,2.9,5.8,3.1L587.6,54.9z M576.9,54.9
			c1.9-0.4,3.5-1.1,4.9-2.5l0.8,0.6c-0.9,1.1-2.9,2.3-4.9,2.8L576.9,54.9z M584.2,54.1c-1,1-2.2,1.9-3.4,2.4c-0.9,0.4-1.9,0.8-2.9,1
			l-0.7-0.8c2.5-0.5,4.6-1.5,6.2-3.2L584.2,54.1z M577.6,58.5c3.8-0.7,6-2,7.8-3.9l0.8,0.6c-0.7,0.7-1.4,1.3-2.1,1.8
			c-1.6,1.1-3.5,2-5.8,2.4L577.6,58.5z M586.6,52.5c-0.1-0.4-0.2-0.5-0.2-0.7c-0.6,0.1-1.7,0.3-2.5,0.5l-0.7-0.8
			c0.7-0.6,1.2-1.4,1.5-2.3c0.4,0.1,0.6,0.3,0.8,0.5c-0.2,0.6-0.6,1.2-1,1.6l1.3-0.2c-0.1-0.1-0.3-0.3-0.5-0.5l0.7-0.4
			c0.7,0.5,1.1,1.2,1.5,1.9L586.6,52.5z"/>
		<path style="fill:#231F20;" d="M596.3,53.1c0,1-0.1,2.4-0.4,3.8c-0.1,0.7-0.2,1.3-1.1,1.6c-0.6,0.2-1.6-0.1-2.2-0.2l-0.2-1.2
			c0.7,0.2,1.2,0.4,1.8,0.4c0.2,0,0.3-0.1,0.4-0.3c0.4-1.1,0.5-2.4,0.6-3.6l0.1-3h-1.7c-0.1,1.6-0.3,3.2-0.7,4.8
			c-0.3,1-1.2,2.8-2.3,3.7l-0.8-0.7c0.9-0.9,1.6-1.8,2-2.8c0.3-0.7,0.4-1.5,0.5-2.3c0.1-0.9,0.2-1.9,0.3-2.7h-2.3v-1h2.3
			c0.1-0.7,0.1-2,0.1-2.9l1.1,0.1c0,1.1-0.1,2-0.1,2.8l2.7,0L596.3,53.1z M601.5,48.9v9.7l-1.1,0v-1h-2.2v1.1h-1.1v-9.7H601.5z
			 M600.5,49.9h-2.2v6.6h2.1L600.5,49.9z"/>
		<path style="fill:#231F20;" d="M613.2,49.2c0.4-0.4,1.1-1.3,1.5-1.7l0.9,0.6c-0.8,1.1-1.7,2.1-2.6,2.8h3.4l0,1h-4.8
			c-0.7,0.5-1.5,0.9-1.8,1.1l4.8,0v6.1l-1.1,0v-0.8H609l0,0.8h-1.1V54l-2.7,1.1l-0.7-0.9c1.6-0.5,4.3-1.7,5.2-2.3l-4.4,0v-1h4.3
			l0-1.5h-3v-1h3v-1.7h1.1l0,1.7h2.6V49.2z M613.6,54l-4.6,0v1.1l4.6,0L613.6,54z M609,56.1v1.2h4.7v-1.2H609z M610.7,49.4v1.5h0.7
			c0.7-0.6,1-0.9,1.7-1.5H610.7z"/>
		<path style="fill:#231F20;" d="M621.1,51.7c-0.4,0.6-0.9,1.4-1.4,2l-1-0.5c1.7-1.9,2.8-4.1,3.5-6.4l0.9,0.4c-0.3,0.9-0.7,2-1,2.7
			l0,9.2h-1.1V51.7z M630.8,51.8v1h-4.4l0,1.7l4.7,0l0,1h-4.7l0,3.6h-1.1v-8.9l-0.2,0c-0.5,1-1.1,2-1.9,3.1l-0.9-0.5
			c1.4-1.8,2.5-3.7,2.9-6.2l1,0.4c-0.1,0.8-0.4,1.8-0.6,2.3h5.8v1l-5,0v1.6L630.8,51.8z"/>
		<path style="fill:#231F20;" d="M637.9,59.1v-0.9h-2.6v1l-1,0V53h4.6l0,6.1H637.9z M635.3,57.2l2.5,0v-3.2h-2.5V57.2z M643.4,47.4
			l0,4.5h-7.8v-4.5L643.4,47.4z M642.5,48.3l-6,0l0,2.8h5.9L642.5,48.3z M641.2,59.1h-1v-6.1h4.7V59h-1v-0.9l-2.6,0V59.1z
			 M643.8,53.9h-2.6v3.2l2.6,0V53.9z"/>
		<path style="fill:#231F20;" d="M653.9,53.5c-0.2,0.7-0.9,1.3-1.7,1.4c-0.7,0.1-1.3-0.2-1.7-0.7c-0.4-0.5-0.6-1.2-0.4-1.9
			c0.2-0.7,0.9-1.3,1.7-1.3c0.7,0,1.3,0.2,1.7,0.8C654,52.3,654.1,52.9,653.9,53.5z M652.3,51.8c-0.4-0.1-0.8,0-1.1,0.3
			c-0.2,0.3-0.4,0.6-0.3,1c0.1,0.3,0.3,0.7,0.6,0.8c0.4,0.2,1,0.1,1.3-0.2c0.3-0.3,0.4-0.8,0.2-1.2C653,52.2,652.7,51.9,652.3,51.8z
			"/>
	</g>
</g>
</svg>
