<svg xmlns="http://www.w3.org/2000/svg" width="428.37" height="66.85" viewBox="0 0 428.37 66.85">
  <g style="isolation: isolate">
    <g id="Layer_2" data-name="Layer 2">
      <g id="icon-text">
        <g>
          <rect width="428.37" height="66.85" rx="13.88" style="fill: #fff;opacity: 0.5"/>
          <g style="mix-blend-mode: multiply">
            <path d="M36.28,12a5.7,5.7,0,0,1-2.12,1.57L33.79,13a4.6,4.6,0,0,0,2.08-1.44Zm-2.47,6a8.3,8.3,0,0,0,3.43-.84l.38.43a8.56,8.56,0,0,1-3.49,1Zm1.88-6.77a4.81,4.81,0,0,0-.64-.54,3,3,0,0,0-1-.44l.38-.47a4.48,4.48,0,0,1,1.61,1ZM41.18,17H35.31V13.07h5.86Zm-.62-2.28H35.92v.64h4.64Zm-4.63,1.73h4.63v-.59H35.92Zm4.63-2.79H35.93v.56h4.63Zm-.72-2.9-.25.54a2.16,2.16,0,0,0,.66.55,4.41,4.41,0,0,0,1.23.55,6.87,6.87,0,0,0,1.12.16l-.3.58a6.77,6.77,0,0,1-1.51-.34,4.12,4.12,0,0,1-1.5-1h0A4.06,4.06,0,0,1,36.74,13l-.31-.56a4.39,4.39,0,0,0,2.17-.73,2,2,0,0,0,.62-.93H38a3.81,3.81,0,0,1-.95,1l-.51-.37a4,4,0,0,0,1.56-1.94l.48.22a2.92,2.92,0,0,1-.21.53h3.81a5.54,5.54,0,0,1-.63,1.55L41,11.45a1.8,1.8,0,0,0,.36-.7Zm2.4,7.78a8.09,8.09,0,0,0-3.35-.93l.36-.52a9,9,0,0,1,3.34,1Z" style="fill: #231f20"/>
            <path d="M48.24,15.53a3.11,3.11,0,0,0-1.41-1.14v4.15h-.62V14.91A6.42,6.42,0,0,1,44.44,17l-.5-.4.69-.6a6.28,6.28,0,0,0,1.59-2.53H44.37v-.59h1.85V9.44h.62v3.43h1.72v.59H46.83v.71l.36-.24a4.1,4.1,0,0,1,1.54,1.25Zm-3-3.15a3.57,3.57,0,0,0-.78-2l.53-.27a4.4,4.4,0,0,1,.82,2Zm1.85-.23A4.12,4.12,0,0,0,48,10.09l.54.22a3.89,3.89,0,0,1-.93,2.1Zm4.39,3.41L48,16.5l-.18-.59,3.63-1V9.39h.62v5.36l.94-.27.16.57-1.1.32v3.11h-.62Zm-1.24-1a3.93,3.93,0,0,0-1.56-1.79l.5-.35a4.26,4.26,0,0,1,1.55,1.74ZM50.42,12a3.4,3.4,0,0,0-1.49-1.58l.48-.38a4.12,4.12,0,0,1,1.52,1.58Z" style="fill: #231f20"/>
            <path d="M58.65,18.5V14.74a8.88,8.88,0,0,1-3.71,3.06c-.13-.18-.29-.35-.41-.54a9.16,9.16,0,0,0,2.87-1.94,11,11,0,0,0,1.26-1.64v-2.4H54.9v-.61h3.76V9.39h.69v1.28h3.74v.61H59.32v2.41a10.13,10.13,0,0,0,3.06,3,6.55,6.55,0,0,0,1.1.53c-.14.17-.31.34-.46.5a8.29,8.29,0,0,1-3.67-3.1l0,3.85ZM57,11.75a7,7,0,0,1-.11,1A3.79,3.79,0,0,1,58.22,14a2.47,2.47,0,0,1-.47.44,3.56,3.56,0,0,0-1-1.13,4.79,4.79,0,0,1-1.15,1.7l-.07,0-.48-.37a3.56,3.56,0,0,0,1.29-2.28c0-.26.07-.53.08-.78Zm4.63-.07a6.66,6.66,0,0,1-.13,1.18A4.28,4.28,0,0,1,63,14.4a2.33,2.33,0,0,1-.51.38,4.35,4.35,0,0,0-1.09-1.34s0,0,0,0a3.76,3.76,0,0,1-.77,1.26c-.19-.12-.37-.2-.56-.32a4.18,4.18,0,0,0,1.05-2.82Z" style="fill: #231f20"/>
            <path d="M64.89,17.89c.08-.15.22-.29.32-.44a7.54,7.54,0,0,0,1.14-3.22l.58.25a7.39,7.39,0,0,1-.38,1.64,7.06,7.06,0,0,1-1.09,2.11Zm1.36-4.41a3.11,3.11,0,0,0-1.33-1.26l.42-.4a3.61,3.61,0,0,1,1.36,1.25Zm.46-2.05a2.86,2.86,0,0,0-1.3-1.25l.44-.38a2.4,2.4,0,0,1,.55.34,4.14,4.14,0,0,1,.78.9Zm6.41,0v3.47H71.37v2.85c0,.46-.19.83-.63.83h-.93l-.22-.61.82,0c.13,0,.28,0,.31-.17V14.86H68.93V11.39h1.54a2.68,2.68,0,0,0,.29-.88H68.18v4.35a6.39,6.39,0,0,1-1.11,3.68l-.62-.37a6.27,6.27,0,0,0,1.11-3.64V9.92h6.12v.59H71.36a3.61,3.61,0,0,1-.24.88ZM68,17.24a4,4,0,0,0,1.54-2l.54.27a6.12,6.12,0,0,1-1.56,2.13ZM72.49,12H69.55v.75h2.94Zm0,1.34H69.55v.95h2.94Zm.85,4.32a4.64,4.64,0,0,0-.52-1.13,3.2,3.2,0,0,0-.85-1l.58-.28a5.68,5.68,0,0,1,1.34,2.06Z" style="fill: #231f20"/>
            <path d="M77.51,11.45h1v1h-1Zm0,4.18h1v1h-1Z" style="fill: #231f20"/>
            <path d="M88.42,18.51V18H84.3v.54h-.62V14.35a9.06,9.06,0,0,1-1.32.57l-.46-.52a6.74,6.74,0,0,0,3.37-2.14H82.39v-.59h3.66v-.92c-1,.06-2,.16-3,.16l-.43-.59,2.14-.06a18.2,18.2,0,0,0,2.1-.19l1.61-.23a8.2,8.2,0,0,0,1-.23l.47.46a18.41,18.41,0,0,1-3.21.6v1h3.7v.59H86.68v2H89v4.26Zm-2.36-6.27a6.34,6.34,0,0,1-2.2,2l2.2,0Zm2.36,2.61H84.31v.92h4.11Zm0,2.52v-1h-4.1v1Zm1.91-2.62A7.93,7.93,0,0,0,87,12.93c.14-.17.29-.32.45-.49a8.14,8.14,0,0,1,3.31,1.83Z" style="fill: #231f20"/>
            <path d="M93.71,13.71a2.81,2.81,0,0,0-1.45-1.22l.37-.44a2.79,2.79,0,0,1,1.56,1.25Zm-1.37,4.42a7.1,7.1,0,0,0,1.46-3.55l.56.19a8.17,8.17,0,0,1-1.42,3.68Zm1.8-6.67a2.74,2.74,0,0,0-1.5-1.17l.47-.41A3,3,0,0,1,94.61,11Zm2.55,6.65c-.48,0-.78-.23-.78-.62V14.55a7.66,7.66,0,0,1-1,.72l-.4-.49a3.69,3.69,0,0,0,1.81-1.72H94.64v-.58H96.2V11.24H95v-.58H96.2V9.5h.62v1.16H98.7V9.5h.62v1.16h1.16v.58H99.32v1.24h1.57v.58H99.3a4.32,4.32,0,0,0,2,1.79l-.43.49a4.23,4.23,0,0,1-1.24-.91v2H96.52v.85c0,.19.09.3.35.3h2.75c.56,0,.47-.58.49-1h.61c0,.64,0,1.55-.92,1.55Zm.25-5a3.19,3.19,0,0,1-.64,1h3.06a6.87,6.87,0,0,1-.74-1Zm-.42,2.76h2.54V14.68H96.52Zm.3-4.58v1.24H98.7V11.24Z" style="fill: #231f20"/>
            <path d="M102.54,18a10.55,10.55,0,0,0,4-2,8,8,0,0,1-1.93-4.14h-1.66v-.6h8v.6h-1.63A8.19,8.19,0,0,1,107.45,16a10.65,10.65,0,0,0,3.94,2l-.44.52a11.4,11.4,0,0,1-4-2c-.26.15-.5.4-.75.56A13.59,13.59,0,0,1,103,18.54Zm2.7-6.15a7.54,7.54,0,0,0,.25,1.1s0,.07,0,.1a7.23,7.23,0,0,0,.79,1.66,4,4,0,0,0,.67.8,7.13,7.13,0,0,0,1.68-3.66Zm1.81-.72A3.8,3.8,0,0,0,105.6,9.8l.45-.39a2.21,2.21,0,0,1,.6.37,5.33,5.33,0,0,1,.93,1Z" style="fill: #231f20"/>
            <path d="M117.48,17.8a.58.58,0,0,1-.52.67,10,10,0,0,1-1.35,0l-.47-.62h1.3c.37-.06.4-.14.4-.35v-.73h-4.2v-.55h4.23v-.41c.5-.16,1-.35,1.47-.51h-4.07v-.56h5.39v.54a18,18,0,0,1-2.19.84v.11h4v.55h-4Zm1-4.94v-.52H120l.08-.69h-1.56v-.55h1.62l.06-.59h-1.91V10h2.56l-.39,3.73h.68v1.39h-.6v-.81h-7v.87h-.6V13.69h.69l-.35-3.43a4.11,4.11,0,0,0,2-.78l.35.46a4,4,0,0,1-1.7.73l0,.47h1.62v.52H114l.08.7h1.48v.53h-1.42l.08.78h5.6l.1-.83Zm-.54.71a4.36,4.36,0,0,0-.86-.74h0a7,7,0,0,1-1.11.67l-.43-.38a11.1,11.1,0,0,0,1-.6,3.6,3.6,0,0,0-.9-.33l.35-.41a2.69,2.69,0,0,1,.61.19l.42.19c.21-.17.39-.38.59-.57l.38.33a6,6,0,0,1-.49.53,6.66,6.66,0,0,1,.85.68Zm-2.25-2.46a6.52,6.52,0,0,0,.87-.53,4,4,0,0,0-.76-.25l-.18,0,.24-.45a7.24,7.24,0,0,1,1.17.36h0a4.64,4.64,0,0,0,.62-.71l.4.32a3.27,3.27,0,0,1-.54.65,5.72,5.72,0,0,1,.73.59l-.37.46a3,3,0,0,0-.81-.66,10.43,10.43,0,0,1-1,.64Z" style="fill: #231f20"/>
            <path d="M123.15,16.65l1.36-.45V12.94h-1.15v-.59h1.16V10.16h.63v2.19h1.07v.59h-1.08v3l1.18-.39v.61l-2.8,1ZM126.22,14l-.22-.62.8-.22V11.13h.62V13l1.25-.39V9.42h.62v3.07l2.15-.59,0,1-.16,1.5a5,5,0,0,1-.26,1.14.52.52,0,0,1-.54.4,3.26,3.26,0,0,1-.78-.12l-.1-.7a3.54,3.54,0,0,0,.67.24.24.24,0,0,0,.23-.16,17.57,17.57,0,0,0,.33-2.46l-1.5.4v3.28h-.62V13.3l-1.23.39V17.2c0,.19,0,.29.26.33h3.18c.37-.15.33-.57.43-.88l.09-.59.59.16a8.8,8.8,0,0,1-.32,1.39.72.72,0,0,1-.67.52h-3.4a.68.68,0,0,1-.77-.67V13.83Z" style="fill: #231f20"/>
            <path d="M136.72,16.94a6.22,6.22,0,0,1-2.87,1.1l-.26-.55a5.55,5.55,0,0,0,2.79-1A2.48,2.48,0,0,1,136.72,16.94Zm-2.9-3.67h3.91a2.72,2.72,0,0,0-.19-.59H135V9.91h6.2v2.77h-2.95c0,.09.14.4.19.59h3.93v.56h-8.49Zm4.57,4.48a1,1,0,0,1-.4.64,3.3,3.3,0,0,1-1.23.09c-.07-.18-.11-.38-.17-.57a5.5,5.5,0,0,0,.91,0,.37.37,0,0,0,.26-.28V16.22h-2.58V14.43h5.76v1.78h-2.54ZM140.53,11v-.58h-4.94V11Zm-4.94.53v.55h4.94v-.55Zm.2,3.42v.66h4.55V15Zm3.7,1.54a8.05,8.05,0,0,1,2.94,1l-.34.53a7.23,7.23,0,0,0-2.9-1.05Z" style="fill: #231f20"/>
            <path d="M146.56,12a5.7,5.7,0,0,1-2.12,1.57l-.37-.51a4.6,4.6,0,0,0,2.08-1.44Zm-2.47,6a8.3,8.3,0,0,0,3.43-.84l.38.43a8.56,8.56,0,0,1-3.49,1ZM146,11.18a4.81,4.81,0,0,0-.64-.54,3,3,0,0,0-1-.44l.38-.47a4.48,4.48,0,0,1,1.61,1ZM151.46,17h-5.87V13.07h5.86Zm-.62-2.28H146.2v.64h4.64Zm-4.63,1.73h4.63v-.59H146.2Zm4.63-2.79h-4.63v.56h4.63Zm-.72-2.9-.25.54a2.16,2.16,0,0,0,.66.55,4.41,4.41,0,0,0,1.23.55,6.87,6.87,0,0,0,1.12.16l-.3.58a6.77,6.77,0,0,1-1.51-.34,4.12,4.12,0,0,1-1.5-1h0A4.06,4.06,0,0,1,147,13l-.31-.56a4.39,4.39,0,0,0,2.17-.73,2,2,0,0,0,.62-.93h-1.24a3.81,3.81,0,0,1-.95,1l-.51-.37a4,4,0,0,0,1.56-1.94l.48.22a2.92,2.92,0,0,1-.21.53h3.81a5.54,5.54,0,0,1-.63,1.55l-.52-.26a1.8,1.8,0,0,0,.36-.7Zm2.4,7.78a8.09,8.09,0,0,0-3.35-.93l.36-.52a9,9,0,0,1,3.34,1Z" style="fill: #231f20"/>
            <path d="M154.51,17.89c.08-.15.22-.29.32-.44A7.54,7.54,0,0,0,156,14.23l.58.25a7.39,7.39,0,0,1-.38,1.64,7.06,7.06,0,0,1-1.09,2.11Zm1.36-4.41a3.11,3.11,0,0,0-1.33-1.26l.42-.4a3.61,3.61,0,0,1,1.36,1.25Zm.46-2.05a2.86,2.86,0,0,0-1.3-1.25l.44-.38a2.4,2.4,0,0,1,.55.34,4.14,4.14,0,0,1,.78.9Zm6.41,0v3.47H161v2.85c0,.46-.19.83-.63.83h-.93l-.22-.61.82,0c.13,0,.28,0,.31-.17V14.86h-1.79V11.39h1.54a2.68,2.68,0,0,0,.29-.88H157.8v4.35a6.39,6.39,0,0,1-1.11,3.68l-.62-.37a6.27,6.27,0,0,0,1.11-3.64V9.92h6.12v.59H161a3.61,3.61,0,0,1-.24.88Zm-5.09,5.85a4,4,0,0,0,1.54-2l.54.27a6.12,6.12,0,0,1-1.56,2.13ZM162.11,12h-2.94v.75h2.94Zm0,1.34h-2.94v.95h2.94Zm.85,4.32a4.64,4.64,0,0,0-.52-1.13,3.2,3.2,0,0,0-.85-1l.58-.28a5.68,5.68,0,0,1,1.34,2.06Z" style="fill: #231f20"/>
            <path d="M165,18.24c.09-.22.24-.41.34-.64a7.8,7.8,0,0,0,.56-3.61V10.34h3.91a2.91,2.91,0,0,0-.93-.47l-.38-.08.48-.41a2.86,2.86,0,0,1,1.56.73l-.24.22h3.5v.59h-7.28V14l0,1.6a5.88,5.88,0,0,1-.9,3Zm1.62-1v-.6h3.31V16h-2.37V12.85h2.35l0-.53h-3v-.59h3v-.61h.63v.61h3.08v.59h-3.08v.53h2.37V16h-2.36v.64h3.37v.59h-3.37V18.6h-.62V17.19Zm3.31-3.75h-1.75v.64h1.75Zm0,1.22h-1.74v.7h1.75Zm2.38-.59v-.64h-1.76v.63Zm0,.59h-1.74v.7h1.74Z" style="fill: #231f20"/>
            <path d="M179.55,14.42a1.5,1.5,0,0,1-1.22,1,1.45,1.45,0,0,1-1.24-.51,1.42,1.42,0,0,1-.25-1.36,1.43,1.43,0,0,1,1.22-1,1.39,1.39,0,0,1,1.27.57A1.42,1.42,0,0,1,179.55,14.42Zm-1.16-1.25a.82.82,0,0,0-.8.24.84.84,0,0,0,.25,1.34A.84.84,0,0,0,179,13.67.88.88,0,0,0,178.39,13.17Z" style="fill: #231f20"/>
            <path d="M185.21,12a5.7,5.7,0,0,1-2.12,1.57l-.37-.51a4.6,4.6,0,0,0,2.08-1.44Zm-2.47,6a8.3,8.3,0,0,0,3.43-.84l.38.43a8.56,8.56,0,0,1-3.49,1Zm1.88-6.77a4.81,4.81,0,0,0-.64-.54,3,3,0,0,0-1-.44l.38-.47a4.48,4.48,0,0,1,1.61,1ZM190.11,17h-5.87V13.07h5.86Zm-.62-2.28h-4.64v.64h4.64Zm-4.63,1.73h4.63v-.59h-4.64Zm4.63-2.79h-4.63v.56h4.63Zm-.72-2.9-.25.54a2.16,2.16,0,0,0,.66.55,4.41,4.41,0,0,0,1.23.55,6.87,6.87,0,0,0,1.12.16l-.3.58a6.77,6.77,0,0,1-1.51-.34,4.12,4.12,0,0,1-1.5-1h0A4.06,4.06,0,0,1,185.67,13l-.31-.56a4.39,4.39,0,0,0,2.17-.73,2,2,0,0,0,.62-.93h-1.24a3.81,3.81,0,0,1-.95,1l-.51-.37A4,4,0,0,0,187,9.41l.48.22a2.92,2.92,0,0,1-.21.53h3.81a5.54,5.54,0,0,1-.63,1.55l-.52-.26a1.8,1.8,0,0,0,.36-.7Zm2.4,7.78a8.09,8.09,0,0,0-3.35-.93l.36-.52a9,9,0,0,1,3.34,1Z" style="fill: #231f20"/>
            <path d="M193.17,17.89c.08-.15.22-.29.32-.44a7.54,7.54,0,0,0,1.14-3.22l.58.25a7.39,7.39,0,0,1-.38,1.64,7.06,7.06,0,0,1-1.09,2.11Zm1.36-4.41a3.11,3.11,0,0,0-1.33-1.26l.42-.4A3.61,3.61,0,0,1,195,13.07Zm.46-2.05a2.86,2.86,0,0,0-1.3-1.25l.44-.38a2.4,2.4,0,0,1,.55.34,4.14,4.14,0,0,1,.78.9Zm6.4,0v3.47h-1.75v2.85c0,.46-.19.83-.63.83h-.92l-.22-.61.81,0c.13,0,.28,0,.31-.17V14.86h-1.78V11.39h1.53a2.68,2.68,0,0,0,.29-.88h-2.57v4.35a6.39,6.39,0,0,1-1.11,3.68l-.62-.37a6.27,6.27,0,0,0,1.11-3.64V9.92h6.11v.59h-2.32a3.61,3.61,0,0,1-.24.88Zm-5.08,5.85a4,4,0,0,0,1.54-2l.53.27a6,6,0,0,1-1.55,2.13ZM200.76,12h-2.93v.75h2.93Zm0,1.34h-2.93v.95h2.93Zm.85,4.32a4.64,4.64,0,0,0-.52-1.13,3.2,3.2,0,0,0-.85-1l.58-.28a5.68,5.68,0,0,1,1.34,2.06Z" style="fill: #231f20"/>
            <path d="M203.63,18.24c.09-.22.25-.41.34-.64a7.68,7.68,0,0,0,.57-3.61V10.34h3.91a2.91,2.91,0,0,0-.93-.47l-.38-.08.48-.41a2.86,2.86,0,0,1,1.56.73l-.24.22h3.49v.59h-7.27V14l0,1.6a5.88,5.88,0,0,1-.9,3Zm1.63-1v-.6h3.31V16H206.2V12.85h2.35l0-.53h-3v-.59h3v-.61h.63v.61h3.07v.59h-3.07v.53h2.36V16H209.2v.64h3.36v.59h-3.36V18.6h-.62V17.19Zm3.31-3.75h-1.75v.64h1.75Zm0,1.22h-1.74v.7h1.75Zm2.38-.59v-.64h-1.76v.63Zm0,.59H209.2v.7h1.74Z" style="fill: #231f20"/>
            <path d="M217.92,11.49V9.42h.7v2.06H222v7h-.69v-.81h-6v.86c-.22,0-.45,0-.68,0V11.48Zm-2.61,2.7h2.61V12.1H215.3Zm0,2.87H218V14.81H215.3Zm3.36-2.87h2.59V12.11h-2.6Zm0,2.87h2.62V14.81h-2.61Z" style="fill: #231f20"/>
            <path d="M230.52,18.51V18h-4.11v.54h-.62V14.35a9.06,9.06,0,0,1-1.32.57L224,14.4a6.74,6.74,0,0,0,3.37-2.14H224.5v-.59h3.66v-.92c-1,.06-2,.16-3,.16l-.43-.59,2.14-.06a18.2,18.2,0,0,0,2.1-.19l1.61-.23a8.52,8.52,0,0,0,1-.23l.47.46a18.29,18.29,0,0,1-3.2.6v1h3.69v.59h-3.7v2h2.35v4.26Zm-2.35-6.27a6.34,6.34,0,0,1-2.2,2l2.2,0Zm2.35,2.61h-4.1v.92h4.1Zm0,2.52v-1h-4.09v1Zm1.91-2.62a8,8,0,0,0-3.34-1.82c.14-.17.29-.32.45-.49a8.17,8.17,0,0,1,3.3,1.83Z" style="fill: #231f20"/>
            <path d="M235.82,13.71a2.81,2.81,0,0,0-1.45-1.22l.37-.44a2.79,2.79,0,0,1,1.56,1.25Zm-1.37,4.42a7.1,7.1,0,0,0,1.46-3.55l.56.19a8.17,8.17,0,0,1-1.42,3.68Zm1.8-6.67a2.74,2.74,0,0,0-1.5-1.17l.47-.41a3,3,0,0,1,1.5,1.13Zm2.54,6.65c-.48,0-.78-.23-.78-.62V14.55a7.57,7.57,0,0,1-1,.72l-.4-.49a3.67,3.67,0,0,0,1.8-1.72h-1.64v-.58h1.55V11.24h-1.16v-.58h1.16V9.5h.62v1.16h1.88V9.5h.62v1.16h1.17v.58h-1.17v1.24H243v.58h-1.6a4.35,4.35,0,0,0,2,1.79l-.43.49a4.27,4.27,0,0,1-1.25-.91v2h-3.15v.85c0,.19.09.3.35.3h2.75c.56,0,.47-.58.49-1h.62c-.05.64-.05,1.55-.93,1.55Zm.25-5a3.19,3.19,0,0,1-.64,1h3.06a6.87,6.87,0,0,1-.74-1Zm-.42,2.76h2.54V14.68h-2.54Zm.3-4.58v1.24h1.88V11.24Z" style="fill: #231f20"/>
            <path d="M245.42,15.79v-4.4h3.37V9.5h.66v1.88h3.34v4.38h-.65v-.71h-2.68v3.46h-.65V15.05h-2.71v.75ZM248.78,12h-2.7v2.48h2.71Zm3.33,0h-2.67v2.48h2.67Z" style="fill: #231f20"/>
            <path d="M254.74,18a10.43,10.43,0,0,0,4-2,8.09,8.09,0,0,1-1.92-4.14h-1.66v-.6h8v.6H261.5A8.19,8.19,0,0,1,259.64,16a10.65,10.65,0,0,0,3.94,2l-.44.52a11.4,11.4,0,0,1-3.95-2c-.26.15-.5.4-.75.56a13.35,13.35,0,0,1-3.23,1.55Zm2.7-6.15a7.54,7.54,0,0,0,.25,1.1s0,.07,0,.1a7.23,7.23,0,0,0,.79,1.66,4,4,0,0,0,.67.8,7.13,7.13,0,0,0,1.68-3.66Zm1.8-.72A3.85,3.85,0,0,0,257.8,9.8l.44-.39a2.21,2.21,0,0,1,.6.37,5.33,5.33,0,0,1,.93,1Z" style="fill: #231f20"/>
            <path d="M269,12a21.76,21.76,0,0,0,.07-2.57c.23,0,.44.05.66.09a20.2,20.2,0,0,1,0,2.47h3.69v.65h-3a6.58,6.58,0,0,0,2.17,4.24,8.92,8.92,0,0,0,1.29.88l-.46.53a7.14,7.14,0,0,1-3.14-3.61,10.23,10.23,0,0,1-.48-2.05h-.07c-.05.23-.07.31-.13.54a10.75,10.75,0,0,1-1,2.56,6.63,6.63,0,0,1-1.95,2,4.35,4.35,0,0,1-.77.46,6.71,6.71,0,0,1-.48-.58,6.08,6.08,0,0,0,3.17-3.4,6.46,6.46,0,0,0,.42-1.62h-3.13V12Z" style="fill: #231f20"/>
            <path d="M280.1,17.8a.58.58,0,0,1-.52.67,10,10,0,0,1-1.35,0l-.47-.62h1.3c.37-.06.4-.14.4-.35v-.73h-4.2v-.55h4.23v-.41c.5-.16,1-.35,1.47-.51h-4.07v-.56h5.39v.54a18,18,0,0,1-2.19.84v.11h4v.55h-4Zm1-4.94v-.52h1.46l.08-.69h-1.56v-.55h1.62l.06-.59h-1.91V10h2.56l-.39,3.73h.68v1.39h-.6v-.81h-7v.87h-.6V13.69h.69l-.35-3.43a4.11,4.11,0,0,0,2-.78l.35.46a4,4,0,0,1-1.7.73l0,.47h1.62v.52h-1.56l.08.7h1.48v.53h-1.42l.08.78h5.6l.1-.83Zm-.54.71a4.36,4.36,0,0,0-.86-.74h-.05a7,7,0,0,1-1.11.67l-.43-.38a11.1,11.1,0,0,0,1-.6,3.6,3.6,0,0,0-.9-.33l.35-.41a2.69,2.69,0,0,1,.61.19l.42.19c.21-.17.39-.38.59-.57l.38.33a6,6,0,0,1-.49.53,6.66,6.66,0,0,1,.85.68Zm-2.25-2.46a6.52,6.52,0,0,0,.87-.53,4,4,0,0,0-.76-.25l-.18,0,.24-.45a7.24,7.24,0,0,1,1.17.36h.05a4.64,4.64,0,0,0,.62-.71l.4.32a3.27,3.27,0,0,1-.54.65,5.72,5.72,0,0,1,.73.59l-.37.46a3,3,0,0,0-.81-.66,10.43,10.43,0,0,1-1,.64Z" style="fill: #231f20"/>
            <path d="M292.07,18.51V18H288v.54h-.61V14.35a9.06,9.06,0,0,1-1.32.57l-.46-.52a6.71,6.71,0,0,0,3.36-2.14h-2.88v-.59h3.65v-.92c-1,.06-2,.16-3,.16l-.43-.59,2.13-.06a18.2,18.2,0,0,0,2.1-.19l1.61-.23a8.2,8.2,0,0,0,1-.23l.47.46a18.41,18.41,0,0,1-3.21.6v1H294v.59h-3.71v2h2.36v4.26Zm-2.36-6.27a6.4,6.4,0,0,1-2.19,2l2.19,0Zm2.36,2.61H288v.92h4.11Zm0,2.52v-1H288v1ZM294,14.75a7.93,7.93,0,0,0-3.35-1.82c.14-.17.29-.32.45-.49a8.14,8.14,0,0,1,3.31,1.83Z" style="fill: #231f20"/>
            <path d="M297.36,13.71a2.83,2.83,0,0,0-1.44-1.22l.36-.44a2.79,2.79,0,0,1,1.56,1.25ZM296,18.13a7.1,7.1,0,0,0,1.46-3.55l.56.19a8.17,8.17,0,0,1-1.42,3.68Zm1.8-6.67a2.74,2.74,0,0,0-1.5-1.17l.47-.41a3,3,0,0,1,1.5,1.13Zm2.55,6.65c-.48,0-.78-.23-.78-.62V14.55a7.66,7.66,0,0,1-1,.72l-.4-.49a3.69,3.69,0,0,0,1.81-1.72h-1.65v-.58h1.56V11.24h-1.17v-.58h1.17V9.5h.62v1.16h1.88V9.5H303v1.16h1.17v.58H303v1.24h1.58v.58H303A4.35,4.35,0,0,0,305,14.85l-.43.49a4.27,4.27,0,0,1-1.25-.91v2h-3.15v.85c0,.19.09.3.35.3h2.75c.56,0,.47-.58.49-1h.62c-.05.64-.05,1.55-.93,1.55Zm.25-5a3.19,3.19,0,0,1-.64,1H303a6.87,6.87,0,0,1-.74-1Zm-.42,2.76h2.54V14.68h-2.54Zm.3-4.58v1.24h1.88V11.24Z" style="fill: #231f20"/>
            <path d="M306.2,18a10.55,10.55,0,0,0,4-2,8,8,0,0,1-1.93-4.14H306.6v-.6h8v.6H313A8.19,8.19,0,0,1,311.1,16a10.65,10.65,0,0,0,3.94,2l-.44.52a11.4,11.4,0,0,1-4-2c-.25.15-.49.4-.74.56a13.59,13.59,0,0,1-3.24,1.55Zm2.7-6.15a7.54,7.54,0,0,0,.25,1.1s0,.07,0,.1a7.63,7.63,0,0,0,.78,1.66,4.81,4.81,0,0,0,.67.8,7.13,7.13,0,0,0,1.68-3.66Zm1.8-.72a3.78,3.78,0,0,0-1.44-1.34l.45-.39a2,2,0,0,1,.59.37,5.33,5.33,0,0,1,.93,1Z" style="fill: #231f20"/>
            <path d="M321.13,17.8c0,.4-.13.59-.51.67a10,10,0,0,1-1.35,0l-.47-.62h1.3c.37-.06.4-.14.4-.35v-.73h-4.2v-.55h4.23v-.41c.49-.16,1-.35,1.46-.51h-4.06v-.56h5.38v.54a18.51,18.51,0,0,1-2.18.84v.11h4v.55h-4Zm1-4.94v-.52h1.46l.08-.69h-1.56v-.55h1.62l.06-.59h-1.91V10h2.56l-.39,3.73h.68v1.39h-.6v-.81h-7v.87h-.6V13.69h.69l-.35-3.43a4.11,4.11,0,0,0,2-.78l.35.46a4,4,0,0,1-1.7.73l0,.47h1.62v.52h-1.56l.08.7h1.48v.53H317.8l.08.78h5.59l.1-.83Zm-.54.71a4,4,0,0,0-.85-.74h-.05a7,7,0,0,1-1.11.67l-.43-.38a11.1,11.1,0,0,0,1-.6,3.6,3.6,0,0,0-.9-.33l.35-.41a2.69,2.69,0,0,1,.61.19l.42.19a7.8,7.8,0,0,0,.58-.57l.38.33a4.69,4.69,0,0,1-.48.53,7.36,7.36,0,0,1,.84.68Zm-2.24-2.46a6.52,6.52,0,0,0,.87-.53,4,4,0,0,0-.76-.25l-.18,0,.24-.45a7.24,7.24,0,0,1,1.17.36h.05a5.26,5.26,0,0,0,.62-.71l.39.32a3.27,3.27,0,0,1-.54.65A5.72,5.72,0,0,1,322,11l-.37.46a3.17,3.17,0,0,0-.8-.66,10.43,10.43,0,0,1-1,.64Z" style="fill: #231f20"/>
            <path d="M326.52,14.42a7.92,7.92,0,0,0,1.58-3.72h-1.35v-.55l3.48,0v.57h-1.45a13.79,13.79,0,0,1-.59,2.14H330v4.71h-.63v-.8h-1.12v1h-.63V14a6.72,6.72,0,0,1-.59.9Zm2.8-1h-1.11v2.77h1.11Zm2.78.66c0,.38,0,.83-.05,1.2a5.23,5.23,0,0,1-1.58,3.29h-.05l-.48-.4a4.25,4.25,0,0,0,1.46-2.6,9.4,9.4,0,0,0,.07-1.49h-1.16v-.55h1.15l0-2.94h-.92V10h4.94v.56h-1.18v3h1.49v.56h-1.48v4.5h-.65v-4.5Zm1.56-3.52h-1.57v2.94h1.59Z" style="fill: #231f20"/>
            <path d="M338.28,14.61h2.63a10.06,10.06,0,0,0,.17-1.21l0-.22.62.09a8.72,8.72,0,0,1-.15,1.34h2.83c-.14.8-.25,1.6-.34,2.43,0,.1,0,.25.05.33s.58.1.87.13c.14,0,.29-.05.36-.18a3.78,3.78,0,0,0,.26-.85c0-.12.07-.3.11-.44a4.78,4.78,0,0,1,.62.26,9.64,9.64,0,0,1-.48,1.29,1,1,0,0,1-.92.47c-.52,0-1.1.13-1.41-.38a1.29,1.29,0,0,1-.1-.76c.05-.56.16-1.15.23-1.72h-2.18a4.65,4.65,0,0,1-.8,1.92,4.55,4.55,0,0,1-2,1.17,9.22,9.22,0,0,1-1,.28l-.37-.62a6.72,6.72,0,0,0,2.49-.87,2.1,2.1,0,0,0,.82-1.07,6.4,6.4,0,0,0,.2-.81h-2.51Zm-.84-1.16a4.84,4.84,0,0,0,2.2-.66,2.79,2.79,0,0,0,.87-1.25,6.19,6.19,0,0,1,.58.28,2.14,2.14,0,0,1-.2.47,2.79,2.79,0,0,1-1.19,1.19,5.42,5.42,0,0,1-1.93.58Zm8.4-2.81v1.82h-.65V11.22h-6.76v1.28h-.67V10.64H342a5.16,5.16,0,0,0-.91-.61l-.49-.26c.13-.14.32-.27.47-.41a7.58,7.58,0,0,1,.74.4c.27.16.53.33.8.51l-.36.36Zm-2.46,2.9c-.51,0-.75-.22-.81-.55V11.67h.61v1c0,.19.16.26.55.26h2.06v.57Z" style="fill: #231f20"/>
            <path d="M348.18,15.79v-4.4h3.37V9.5h.66v1.88h3.34l0,4.38h-.64v-.71h-2.68v3.46h-.65V15.05h-2.71v.75ZM351.54,12h-2.7v2.48h2.71Zm3.33,0H352.2v2.48h2.67Z" style="fill: #231f20"/>
            <path d="M359.53,12.94a10.31,10.31,0,0,1-1.43,3.42h-.05l-.54-.3A10.45,10.45,0,0,0,359,12.7Zm5,2.55a11.22,11.22,0,0,1-.58,1.92,1,1,0,0,1-.9.51h-1.64a1.1,1.1,0,0,1-1-.61,1.87,1.87,0,0,1-.1-.74V11.94H361v4.93a.6.6,0,0,0,.24.36l.21.06H363a.58.58,0,0,0,.47-.32,12.33,12.33,0,0,0,.42-1.72Zm-1.21-3.3a6.26,6.26,0,0,1-.55.34,7.7,7.7,0,0,0-2.35-2.37c.2-.12.35-.28.55-.39A8.33,8.33,0,0,1,363.33,12.19Zm3.41,3.69a5.86,5.86,0,0,1-.61.32,10.29,10.29,0,0,0-2-3.26c.19-.1.35-.2.55-.29A11.25,11.25,0,0,1,366.74,15.88Z" style="fill: #231f20"/>
            <path d="M371.87,16.84a12.62,12.62,0,0,1-3.43,1.65l-.4-.58a11.42,11.42,0,0,0,3.4-1.57Zm3.86-2.68h-1.44v-.58h1.49c.06-.4.08-.82.13-1.23h-1.62v-.58H376c.05-.39.08-.72.11-1.11h-2v-.58h2.73v.18l-.27,2.57L376.39,14c-.05.49-.11,1-.16,1.51H377v.59H368.5V15.5h.68l0-.59L368.88,12l0-.4c0-.36-.09-.75-.1-1.12A6.18,6.18,0,0,0,371,9.62l.38.54a7.41,7.41,0,0,1-2,.8l.1.86h1.71v.58h-1.66c0,.42.09.79.1,1.22h1.57v.57h-1.47c0,.44.05.88.09,1.3h1.83V13.27h.62v2.22h.94v-2.7h-1.57V9.4h.63v1h1.55V11H372.3v1.19h1.56V15.5h1.73a1.86,1.86,0,0,0,.05-.42ZM377,18.48c-.16-.09-.32-.21-.48-.31a10.12,10.12,0,0,0-2.87-1.33c.09-.18.2-.37.3-.55a11.63,11.63,0,0,1,3.43,1.63C377.24,18.12,377.1,18.29,377,18.48Z" style="fill: #231f20"/>
            <path d="M384.9,18.51V18h-4.12v.54h-.62V14.35a9.06,9.06,0,0,1-1.32.57l-.46-.52a6.74,6.74,0,0,0,3.37-2.14h-2.89v-.59h3.66v-.92c-1,.06-2,.16-3,.16l-.43-.59,2.14-.06a18.2,18.2,0,0,0,2.1-.19l1.61-.23a8.2,8.2,0,0,0,1-.23l.47.46a18.41,18.41,0,0,1-3.21.6v1h3.7v.59h-3.71v2h2.36v4.26Zm-2.36-6.27a6.34,6.34,0,0,1-2.2,2l2.2,0Zm2.36,2.61h-4.11v.92h4.11Zm0,2.52v-1h-4.1v1Zm1.91-2.62a7.93,7.93,0,0,0-3.35-1.82c.14-.17.29-.32.45-.49a8.14,8.14,0,0,1,3.31,1.83Z" style="fill: #231f20"/>
            <path d="M390.19,13.71a2.81,2.81,0,0,0-1.45-1.22l.37-.44a2.79,2.79,0,0,1,1.56,1.25Zm-1.37,4.42a7.1,7.1,0,0,0,1.46-3.55l.56.19a8.17,8.17,0,0,1-1.42,3.68Zm1.8-6.67a2.74,2.74,0,0,0-1.5-1.17l.47-.41a3,3,0,0,1,1.5,1.13Zm2.55,6.65c-.48,0-.78-.23-.78-.62V14.55a7.66,7.66,0,0,1-1,.72l-.4-.49a3.69,3.69,0,0,0,1.81-1.72h-1.65v-.58h1.56V11.24h-1.17v-.58h1.17V9.5h.62v1.16h1.88V9.5h.62v1.16H397v.58H395.8v1.24h1.58v.58h-1.6a4.35,4.35,0,0,0,2.05,1.79l-.43.49a4.27,4.27,0,0,1-1.25-.91v2H393v.85c0,.19.09.3.35.3h2.75c.56,0,.47-.58.49-1h.62c0,.64,0,1.55-.93,1.55Zm.25-5a3.19,3.19,0,0,1-.64,1h3.06a6.87,6.87,0,0,1-.74-1ZM393,15.82h2.54V14.68H393Zm.3-4.58v1.24h1.88V11.24Z" style="fill: #231f20"/>
            <path d="M399.8,15.79v-4.4h3.37V9.5h.66v1.88h3.34v4.38h-.65v-.71h-2.68v3.46h-.65V15.05h-2.71v.75ZM403.16,12h-2.7v2.48h2.71Zm3.33,0h-2.67v2.48h2.67Z" style="fill: #231f20"/>
            <path d="M409.11,18a10.55,10.55,0,0,0,4-2,8,8,0,0,1-1.93-4.14h-1.66v-.6h8v.6h-1.63A8.19,8.19,0,0,1,414,16a10.65,10.65,0,0,0,3.94,2l-.44.52a11.4,11.4,0,0,1-3.95-2c-.26.15-.5.4-.75.56a13.59,13.59,0,0,1-3.24,1.55Zm2.7-6.15a7.54,7.54,0,0,0,.25,1.1s0,.07,0,.1a7.23,7.23,0,0,0,.79,1.66,4,4,0,0,0,.67.8,7.13,7.13,0,0,0,1.68-3.66Zm1.81-.72a3.8,3.8,0,0,0-1.45-1.34l.45-.39a2.21,2.21,0,0,1,.6.37,5.33,5.33,0,0,1,.93,1Z" style="fill: #231f20"/>
            <path d="M37.71,26a21.76,21.76,0,0,0,.07-2.57l.67.09A20.2,20.2,0,0,1,38.4,26h3.69v.65h-3a6.58,6.58,0,0,0,2.17,4.24,8.92,8.92,0,0,0,1.29.88l-.46.53a7.14,7.14,0,0,1-3.14-3.61,10.23,10.23,0,0,1-.48-2.05h-.07c-.05.23-.07.31-.13.54a10.37,10.37,0,0,1-1,2.56,6.63,6.63,0,0,1-1.95,2,4.35,4.35,0,0,1-.77.46,6.71,6.71,0,0,1-.48-.58,6.48,6.48,0,0,0,3.59-5H34.49V26Z" style="fill: #231f20"/>
            <path d="M48.74,31.8a.58.58,0,0,1-.52.67,10,10,0,0,1-1.34,0l-.47-.62H47.7c.37-.06.4-.14.4-.35v-.73H43.91v-.55h4.22v-.41c.5-.16,1-.35,1.47-.51H45.54v-.56h5.38v.54a18,18,0,0,1-2.19.84v.11h4v.55h-4Zm1-4.94v-.52h1.46l.08-.69H49.75v-.55h1.62l.06-.59H49.52V24h2.56l-.39,3.73h.68v1.39h-.6v-.81h-7v.87h-.6V27.69h.69l-.35-3.43a4.11,4.11,0,0,0,2-.78l.34.46a4,4,0,0,1-1.69.73l0,.47h1.61v.52H45.27l.08.7h1.47v.53H45.41l.08.78h5.59l.1-.83Zm-.54.71a4.36,4.36,0,0,0-.86-.74h0a7,7,0,0,1-1.11.67l-.43-.38a11.1,11.1,0,0,0,1-.6,3.68,3.68,0,0,0-.89-.33l.34-.41a2.69,2.69,0,0,1,.61.19l.42.19c.21-.17.39-.38.59-.57l.38.33a6,6,0,0,1-.49.53,6.66,6.66,0,0,1,.85.68ZM47,25.11a6.52,6.52,0,0,0,.87-.53,4.13,4.13,0,0,0-.75-.25l-.19,0,.24-.45a7.24,7.24,0,0,1,1.17.36h0a4.64,4.64,0,0,0,.62-.71l.4.32a3.27,3.27,0,0,1-.54.65,5.72,5.72,0,0,1,.73.59l-.37.46a3,3,0,0,0-.81-.66,10.43,10.43,0,0,1-1,.64Z" style="fill: #231f20"/>
            <path d="M54.7,32.54V23.83h7.93v8.7H62V32H55.33v.54Zm.62-8.12v7H62v-7Zm5.48.44v1.6H59v.4h2.67v.49H55.71v-.49h2.66v-.41H56.49v-1.6Zm-4.58,6v-3h4.86v3Zm.57-2.52v2h3.72V28.37Zm.3-2.4H60.2v-.62H57.1Zm.47,4V28.8h2.16V30Zm.51-.38h1.2v-.42h-1.2Z" style="fill: #231f20"/>
            <path d="M68.4,24.58H65.86V24h2.52v-.65H69v.66h3v1H73.1v.53H72v1.11H69v.52h3.37v.52H69.05v.6h4.17v.52l-8.63,0v-.54h3.82v-.59h-3v-.53h3v-.52H65.88v-.54H68.4v-.58H64.71v-.52H68.4ZM65.91,32.5V29.32h6v3.14h-.59v-.52H66.54v.56Zm.62-2.65v.55h4.78v-.55Zm4.79,1.58v-.5H66.53v.49ZM69,25.06H71.4v-.48H69Zm0,1.1h2.34v-.59H69Z" style="fill: #231f20"/>
            <path d="M77.69,26H75.82A5.82,5.82,0,0,1,75,27l-.53-.41a5.44,5.44,0,0,0,1.85-3.15l.59.21c0,.14-.06.27-.08.41a3.81,3.81,0,0,1,1.67,1.16v-.71h2.27a2.29,2.29,0,0,0-.89-.8c.14-.14.33-.24.49-.38a1.58,1.58,0,0,1,.48.29,2.86,2.86,0,0,1,.63.72,2,2,0,0,0-.23.18h2.1v1.46c-.21,0-.42,0-.62,0v-.87H79.11V26h-.64v-.41l-.37.22a4.5,4.5,0,0,0-1.47-1.23,3,3,0,0,1-.43.88h1.48Zm.58,5.89a2.19,2.19,0,0,0-.39-.68l-.58.22-1.78.76-.47-.41a.89.89,0,0,0,.27-.78V26.66h2.89v3.06H76v1.69H76l1.45-.62a2,2,0,0,0-.58-.43l.49-.34a2.77,2.77,0,0,1,.89.72,4.63,4.63,0,0,1,.56.8Zm-.64-3.43H75.94v.64h1.68Zm0-1.24H76v.64h1.68Zm1.55,5.26V26.08h3.47V28.5H79.81v.87H83v3.12h-.62v-.66H79.81v.68Zm.63-1.27h2.51V30H79.81Zm0-4.57v1.25H82V26.66Z" style="fill: #231f20"/>
            <path d="M88.42,30a11.23,11.23,0,0,1-3.11,2.49L84.94,32a8.26,8.26,0,0,0,2-1.44c.37-.37.67-.66.9-.94Zm2.78-6.56v2h1.5v.62H91.2V28.6h2.1v.62H85.08V28.6h2.09V26.07H85.68v-.61l1.51,0v-2h.65l0,2h2.73v-2Zm-.65,2.6H87.84l0,2.52h2.72Zm0,3.52a10.73,10.73,0,0,1,3,2.49l-.46.38a10.71,10.71,0,0,0-3-2.4Z" style="fill: #231f20"/>
            <path d="M96.18,24.5v8.11h-.65V23.89h7.71v7.43a1,1,0,0,1-.36.87.83.83,0,0,1-.47.13h-1.14c-.06-.23-.14-.45-.22-.67h1.18a.52.52,0,0,0,.29-.11.62.62,0,0,0,.06-.28V24.5Zm5.92,1.28v.61H96.83l0-.61Zm-.84,1.87v3H97.5V27.66ZM98.13,30h2.52V28.27H98.13Z" style="fill: #231f20"/>
            <path d="M108.75,26.5a3.55,3.55,0,0,0-1.3-.69,2.28,2.28,0,0,1-.74.61,3.41,3.41,0,0,1-1.11.33l-.27-.57a2,2,0,0,0,1.77-.92,5.08,5.08,0,0,0,.28-1.76l.58.12a5.11,5.11,0,0,1-.27,1.71,4.29,4.29,0,0,1,1.42.74Zm-2.64,2.06h-.63V26.9h8v1.59h-.62v-1H106.1Zm-.6-3.45a2.2,2.2,0,0,0,.62-1.16l.46.25a2.74,2.74,0,0,1-.58,1.24Zm1.42,7.43h-.62V30.36H109a1.84,1.84,0,0,0,.24-.64h-2.44V27.91h5.4V29.7h-2.4a2.37,2.37,0,0,1-.15.65h3.1v2.09h-.62v-.4h-5.17Zm5.18-1.62h-5.17v.6h5.18Zm-.55-2.45H107.4v.67h4.16Zm-3.32-3.4a2.29,2.29,0,0,0,.58-1.16l.48.2a3.08,3.08,0,0,1-.5,1.18Zm4.92,1.46a4,4,0,0,0-1.84-.86,2.78,2.78,0,0,1-1.79,1.1l-.28-.57A2,2,0,0,0,111,24.92a5.42,5.42,0,0,0,.16-1.48l.57.11a5.15,5.15,0,0,1-.2,1.58,5,5,0,0,1,1,.3,4.49,4.49,0,0,1,1.06.69Zm-3.65-1.42a2.15,2.15,0,0,0,.54-1.24l.49.2a2.75,2.75,0,0,1-.49,1.3Zm2.82-.17a2.11,2.11,0,0,0,.61-1.12l.45.24a2.29,2.29,0,0,1-.58,1.16Z" style="fill: #231f20"/>
            <path d="M115.35,32.24a11.25,11.25,0,0,0,1-1.14,5.67,5.67,0,0,0,.84-1.93h-1.66v-.58a10,10,0,0,0,1.55-2.09h-1.69v-.58h2.4v.61a10.83,10.83,0,0,1-1.48,2.06h1.53a5.93,5.93,0,0,1-.59,2.2,4.5,4.5,0,0,0,2.27.77l3.24,0,1.69-.09-.26.69h-4.61a4.7,4.7,0,0,1-2.57-.85c-.14.14-.22.31-.36.47s-.47.5-.75.79ZM117,25.58a3.08,3.08,0,0,0-1.16-1.77l.52-.29a3.53,3.53,0,0,1,1.17,1.73Zm1-.34V23.91H124V25.2h-.62v-.7h-4.81v.75Zm2.75,6V30.4H118v-.57h2.7v-.59h-2.25v-3h2.24v-.5h-2v-.57h2v-.46h.62v.46h1.93v.57h-1.93v.5h2.22v3H121.3v.61h2.82v.57h-2.81v.83Zm-1.62-4.45v.67h1.62v-.67Zm0,1.88h1.62V28h-1.62Zm3.85-1.21v-.67H121.3v.67Zm0,.53h-1.6v.69h1.6Z" style="fill: #231f20"/>
            <path d="M127.87,27.21h1v1a1.35,1.35,0,0,1-.82,1.41l-.24-.37a1,1,0,0,0,.55-1h-.49Z" style="fill: #231f20"/>
            <path d="M141,32H132.2v-.62h3.12V26.11h-2.77v-.61h8.19v.6H138v5.25l3.08,0Zm-6.64-1.63a7,7,0,0,0-1.47-3.08l.48-.32A8.05,8.05,0,0,1,135,30Zm1-4.93a3.7,3.7,0,0,0-1.27-1.34l-.38-.22.47-.39a4.58,4.58,0,0,1,1.7,1.55Zm.57.7v5.27l1.3,0V26.12ZM137.18,25a4.15,4.15,0,0,0,1.55-1.59l.47.35a5.4,5.4,0,0,1-1.52,1.68ZM138.25,30a7.47,7.47,0,0,0,1.32-2.36c.08-.23.13-.47.19-.71l.55.31a9.31,9.31,0,0,1-1.53,3.11Z" style="fill: #231f20"/>
            <path d="M148.69,28.35v.49h2.6v.57h-5.56V27a5.93,5.93,0,0,1-.61.53l-.35-.26a15.74,15.74,0,0,1,.1,3.23c0,.74,0,1.53-.59,1.89-.4.26-.9.09-1.32,0l-.17-.66a2.44,2.44,0,0,0,1.05.14c.25,0,.29-.31.33-.59a14.22,14.22,0,0,0,.11-2.69,5.22,5.22,0,0,1-1.56,1.49l-.48-.42a5.45,5.45,0,0,0,1.68-1.53,2.53,2.53,0,0,0,.28-.51,5,5,0,0,0-.24-1.35,5.29,5.29,0,0,1-1,.82l-.52-.39a4.25,4.25,0,0,0,1.31-1,2.53,2.53,0,0,0-1.36-1.35l.38-.46a3.06,3.06,0,0,1,1.37,1.25,7.09,7.09,0,0,0,.68-1.38l.48.24a9.3,9.3,0,0,1-.87,1.76,5.35,5.35,0,0,1,.33,1.28,3.4,3.4,0,0,0,1.46-1.9s0-.09,0-.14l.53.23a3.79,3.79,0,0,1-.28.7H148a1.47,1.47,0,0,0-.3-.49h-.38V24.8h-2v-.57h2V23.5h.61v1.63l.25-.07a2.81,2.81,0,0,1,.4.86h2.55v.57h-2.42v.43h2.05v.49h-2.05v.46h2.05v.48ZM144.93,32a10.16,10.16,0,0,0,2.78-.49,6.12,6.12,0,0,1-1.06-.87l-.2-.24h-.69v-.57h4.78v.52A6.4,6.4,0,0,1,149,31.5a7.63,7.63,0,0,0,2.73.41l-.35.57a8.17,8.17,0,0,1-3-.67,10.77,10.77,0,0,1-3.13.74Zm1.41-5.06h1.74v-.43h-1.74Zm0,.49v.46h1.74v-.46Zm1.74,1.43v-.49h-1.74v.49Zm-.93,1.54a4.2,4.2,0,0,0,1.19.85,5.13,5.13,0,0,0,1.32-.85Zm2-5.58v.63h-.61V23.5h.61v.73h2v.57Z" style="fill: #231f20"/>
            <path d="M154.46,23.47a4,4,0,0,1,.88,1.2c-.13.08-.31.15-.42.22h1.78v.59H153V24.9h1.84c-.05-.2-.25-.35-.34-.54s-.35-.44-.54-.63Zm-1.1,2.8h3v.59h-3Zm2.95,1.34v.59h-2.93v-.58Zm-.65,4.05h-1.54v.72h-.59V29.08h2.72v3.26h-.59Zm0-2h-1.53v1.4h1.52Zm.9-2H158c.12-.55.22-1.09.32-1.65H157v-.59h1.39c.08-.32.13-.64.19-1h-2v-.59h5v.6h-2.38c-.08.32-.15.66-.2,1h2.06c-.07.77-.14,1.47-.22,2.23H162v.59h-5.49Zm4.61,1.36v3.44h-.61v-.62H158v.65h-.61V29.05ZM158,31.3h2.58V29.64H158Zm1-5.25c-.05.32-.13.62-.19.94s-.09.5-.12.7h1.63l.09-.78v-.17l.06-.68Z" style="fill: #231f20"/>
            <path d="M163.26,32a10.55,10.55,0,0,0,4-2,8,8,0,0,1-1.93-4.14h-1.66v-.6h8v.6H170A8.19,8.19,0,0,1,168.17,30a10.65,10.65,0,0,0,3.94,2l-.44.52a11.4,11.4,0,0,1-3.95-2c-.26.15-.5.4-.75.56a13.59,13.59,0,0,1-3.24,1.55Zm2.7-6.15a7.54,7.54,0,0,0,.25,1.1s0,.07,0,.1a7.23,7.23,0,0,0,.79,1.66,4,4,0,0,0,.67.8,7.13,7.13,0,0,0,1.68-3.66Zm1.81-.72a3.8,3.8,0,0,0-1.45-1.34l.45-.39a2.21,2.21,0,0,1,.6.37,5.33,5.33,0,0,1,.93,1Z" style="fill: #231f20"/>
            <path d="M182,32.43a8.41,8.41,0,0,1-1.8-1.92,6.82,6.82,0,0,1-1.86,1.85l-.43-.44a6.51,6.51,0,0,0,2-1.94,7.67,7.67,0,0,1-1.06-2.89,4.75,4.75,0,0,1-.65,1l-.49-.43a3.9,3.9,0,0,0,.51-.68h-1.66a10,10,0,0,1-.68.78h1.84v.57l-1.22,1.21v.34l1.63-.48V30l-1.62.48v1.39a.64.64,0,0,1-.51.57,6.78,6.78,0,0,1-.91,0l-.26-.64a5.74,5.74,0,0,0,.92.05.18.18,0,0,0,.16-.19v-1l-1.64.46-.35-.59,2-.51v-.69l1-1H175.3a9.63,9.63,0,0,1-1.75,1.34l-.37-.52a9.9,9.9,0,0,0,2.56-2.18h-2.33v-.58h1.87v-1h-1.42v-.59h1.42V23.59h.58v1.17h1.34v.41l.6-.84.52.37c-.42.58-.91,1.21-1.3,1.66h1.31v.36a10.67,10.67,0,0,0,.87-3.25l.61.18a13.6,13.6,0,0,1-.39,1.92h2.8v.56h-.8a12.1,12.1,0,0,1-.9,3.83,7.21,7.21,0,0,0,1.91,2Zm-6.15-7.08v1h.41c.25-.3.52-.65.79-1Zm3.43.79a8.33,8.33,0,0,0,.9,3.22,10.25,10.25,0,0,0,.66-3.22Z" style="fill: #231f20"/>
            <path d="M186.14,30.67a2.93,2.93,0,0,1-.39.74,4.68,4.68,0,0,1-1.16,1.19c-.18-.18-.3-.39-.45-.56a2.85,2.85,0,0,0,1.42-1.92l0-.42V27.47h5.6v4.18a.78.78,0,0,1-.37.55c-.37.24-.91.09-1.36.13l-.24-.66,1,.06a.46.46,0,0,0,.19-.08.34.34,0,0,0,.14-.25v-.75ZM188,24.4a2.73,2.73,0,0,0-.5-.46c-.14-.11-.29-.17-.42-.26l.57-.33a5.35,5.35,0,0,1,.63.53,5,5,0,0,1,.42.52h3.75V25h-4.28a7.76,7.76,0,0,1-2,1.49c.49,0,1,0,1.46-.09l2.73-.25a5.24,5.24,0,0,0-.79-.46,2.87,2.87,0,0,1,.39-.39,8.38,8.38,0,0,1,2.35,1.66l-.41.42h0a6.37,6.37,0,0,0-.81-.75l-.39,0-3.36.3c-.7.06-1.43.17-2.16.25l-.33-.59a6.72,6.72,0,0,0,1.45-.77,5.7,5.7,0,0,0,1-.85h-3V24.4Zm-1.74,4.91c0,.26,0,.55-.06.81h4.33v-.81Zm0-1.27v.69h4.28v-.69Z" style="fill: #231f20"/>
            <path d="M201.69,26.64a5.42,5.42,0,0,1-.63,2,8.74,8.74,0,0,1-1.35,1.77,8.24,8.24,0,0,0,3,1.47l-.39.61a9.46,9.46,0,0,1-3.13-1.59c-.26.17-.49.37-.72.53a7.8,7.8,0,0,1-2.31,1.06c-.14-.17-.26-.37-.4-.56a7.6,7.6,0,0,0,2.93-1.48,9.57,9.57,0,0,1-2.05-3.29,13.42,13.42,0,0,1-.57,3.36.54.54,0,0,1-.05.11,7.56,7.56,0,0,1-1.25,1.89c-.23-.12-.45-.27-.68-.41a5,5,0,0,0,1.53-2.54,16,16,0,0,0,.29-2.55c0-.78.06-1.55,0-2.31h-1.38v-.62H201v.58c-.43.66-.93,1.3-1.41,1.94Zm-4.31.6a11.22,11.22,0,0,0,1.38,2.26l.05.06a2.78,2.78,0,0,0,.41.43,6.37,6.37,0,0,0,1.71-2.74h-2.22v-.58c.51-.64,1.12-1.45,1.36-1.83l.07-.11h-3.45c0,.18,0,.36,0,.55a8.4,8.4,0,0,0,.61,1.79Z" style="fill: #231f20"/>
            <path d="M203.79,28.42a7.92,7.92,0,0,0,1.58-3.72H204v-.55l3.48,0v.57h-1.45a13.79,13.79,0,0,1-.59,2.14h1.77v4.71h-.63v-.8h-1.12v1h-.63V28a6.72,6.72,0,0,1-.59.9Zm2.8-1h-1.11v2.77h1.11Zm2.78.66c0,.38,0,.83-.05,1.2a5.23,5.23,0,0,1-1.58,3.29h-.05l-.48-.4a4.25,4.25,0,0,0,1.46-2.6,9.4,9.4,0,0,0,.07-1.49h-1.16v-.55h1.15l0-2.94h-.92V24h4.94v.56h-1.18v2.95h1.49v.56h-1.48v4.5h-.65v-4.5Zm1.56-3.52h-1.57v2.94h1.59Z" style="fill: #231f20"/>
            <path d="M215.51,28.61h2.63a10.06,10.06,0,0,0,.17-1.21l0-.22.62.09a8.72,8.72,0,0,1-.15,1.34h2.84c-.14.8-.25,1.6-.34,2.43,0,.1,0,.25,0,.33s.58.1.87.13.29-.05.36-.18a3.78,3.78,0,0,0,.26-.85c0-.12.07-.3.11-.44a4.78,4.78,0,0,1,.62.26,9.64,9.64,0,0,1-.48,1.29,1,1,0,0,1-.92.47c-.52,0-1.1.13-1.41-.38a1.29,1.29,0,0,1-.1-.76c.05-.56.16-1.15.23-1.72H218.7a4.65,4.65,0,0,1-.8,1.92,4.55,4.55,0,0,1-2,1.17,9.22,9.22,0,0,1-1,.28l-.37-.62a6.72,6.72,0,0,0,2.49-.87,2.1,2.1,0,0,0,.82-1.07,6.4,6.4,0,0,0,.2-.81h-2.51Zm-.84-1.16a4.84,4.84,0,0,0,2.2-.66,2.79,2.79,0,0,0,.87-1.25,6.19,6.19,0,0,1,.58.28,2.14,2.14,0,0,1-.2.47,2.79,2.79,0,0,1-1.19,1.19,5.42,5.42,0,0,1-1.93.58Zm8.41-2.81v1.82h-.65V25.22h-6.77v1.28H215V24.64h4.26a5.65,5.65,0,0,0-.92-.61l-.49-.26c.13-.14.32-.27.47-.41a7.58,7.58,0,0,1,.74.4c.27.16.53.33.8.51l-.36.36Zm-2.46,2.9c-.51,0-.76-.22-.81-.55V25.67h.61v1c0,.19.16.26.55.26H223v.57Z" style="fill: #231f20"/>
            <path d="M225.74,25.64v1.21h-.62V25.06h2.14a5,5,0,0,0-1.16-1l.55-.37a7.57,7.57,0,0,1,1.41,1.37H229V23.41h.62v1.65h1.09a8.25,8.25,0,0,0,1-1.39l.55.35a5.65,5.65,0,0,1-.8,1h2v1.76h-.61V25.64Zm.13,6.13V29.23H229v-.79h-2.25V26.32h5.07v2.12h-2.21v.79h3.12V31a.61.61,0,0,1-.67.61h-1l-.18-.57a8,8,0,0,0,.92,0,.24.24,0,0,0,.28-.25v-1h-2.51v2.73H229V29.8h-2.52v2Zm5.34-4.88h-3.85v1h3.85Z" style="fill: #231f20"/>
            <path d="M239.22,28.07l-.63-.15a5.29,5.29,0,0,0,.15-.57h-.62v4.31a.79.79,0,0,1-.34.73c-.34.27-.87.09-1.3.15l-.22-.66a7.8,7.8,0,0,0,1,0,.34.34,0,0,0,.23-.31V27.35h-.14a6,6,0,0,1-1.88,3.75l-.48-.43a5,5,0,0,0,1.73-3.32h-1.4v-.61h2.4a4.16,4.16,0,0,0-.42-.42,4.51,4.51,0,0,0-1.2-.69l.49-.42.73.39a8.09,8.09,0,0,0,1.06-1.05h-2.68v-.61h3.39v.6A4.1,4.1,0,0,1,237.79,26l.52.5-.31.28h1.52a10.46,10.46,0,0,1-.23,1.3,7.59,7.59,0,0,0,1.7-1,4.62,4.62,0,0,1-.84-1.46,4.56,4.56,0,0,1-.73.85l-.57-.36a5.11,5.11,0,0,0,1.69-2.76l.58.2a5.07,5.07,0,0,1-.28.83h3V25H243a4.61,4.61,0,0,1-1.13,2.09,5.7,5.7,0,0,0,2.45,1.15l-.34.58a7.16,7.16,0,0,1-2.57-1.29A7.44,7.44,0,0,1,239,28.78l-.39-.51Zm1.62.84c0-.29,0-.62,0-.92h.67a6.7,6.7,0,0,1,0,.91h1.84c0,.4,0,.79-.08,1.19a10.34,10.34,0,0,1-.29,1.57.83.83,0,0,1-.57.55,4.9,4.9,0,0,1-1.27-.05l-.17-.66c.55.1,1.24.31,1.41-.11a8.29,8.29,0,0,0,.31-1.88h-1.27a3.81,3.81,0,0,1-1.29,2.39,3.67,3.67,0,0,1-1.27.66l-.36-.59a2.9,2.9,0,0,0,2.12-1.86c0-.19.12-.39.15-.59h-1.48v-.61ZM240.62,25a3.55,3.55,0,0,0,.83,1.68,4.07,4.07,0,0,0,.91-1.68Z" style="fill: #231f20"/>
            <path d="M250.24,28.08c-.15.16-.45.46-.6.63h4.69v.57h-1.76a5.73,5.73,0,0,1-1.35,1.52,23.7,23.7,0,0,1,3.05,1.12,6,6,0,0,1-.3.56,14.69,14.69,0,0,0-3.34-1.28,11.22,11.22,0,0,1-4.56,1.33c-.08-.21-.19-.41-.25-.63a10.66,10.66,0,0,0,3.72-.8,1.63,1.63,0,0,0,.23-.11,17.47,17.47,0,0,0-2.42-.42c.33-.43.75-.86,1.09-1.29h-2.29v-.57h2.72c.26-.33.57-.64.82-1Zm4.13-1.95h-3.82v1.7h-.62V26.15a4.66,4.66,0,0,1-1.57,1.32s0,0-.06,0a8.5,8.5,0,0,1-2.12.86c-.12-.18-.23-.37-.34-.56a6.59,6.59,0,0,0,3.31-1.65h-3v-.6h3.79v-.89c-.37,0-.74.07-1.12.09l-2,.11c-.12-.2-.19-.41-.3-.61l1.54,0a21.06,21.06,0,0,0,5.52-.83c.11.16.27.38.39.53l-.26.08-1.59.35a15.13,15.13,0,0,1-1.5.25v1h3.79Zm-5.2,3.15c-.24.27-.46.59-.7.86h.05l2,.44a4.1,4.1,0,0,0,1.32-1.3Zm4.88-1.18a11.75,11.75,0,0,0-2.06-.89,7.43,7.43,0,0,0-1-.21,5.29,5.29,0,0,1,.29-.52,11,11,0,0,1,3.08,1.08C254.29,27.75,254.17,27.92,254.05,28.1Z" style="fill: #231f20"/>
            <path d="M259.93,31.49a12.51,12.51,0,0,1-3.42,1c-.12-.2-.24-.37-.38-.56a12.06,12.06,0,0,0,3.45-.87A5.2,5.2,0,0,1,259.93,31.49Zm4-5v4.44h-6.84V26.47Zm-.52-2.56v2h-5.83v-2Zm-.1,3.14h-5.58v.63h5.58ZM257.76,29h5.58v-.71h-5.58Zm0,.59v.75h5.58v-.74Zm5.06-4.27v-.8h-4.57v.8Zm1.82,7.12a14,14,0,0,0-3.5-.89c.08-.17.19-.31.28-.48a16.16,16.16,0,0,1,3.52.84Z" style="fill: #231f20"/>
            <path d="M270.94,23.59A10.7,10.7,0,0,0,275.35,26l-.39.54c-.25-.06-.49-.16-.74-.23v2.12h-7.3V26.23c-.23.11-.46.21-.7.3-.12-.18-.23-.37-.34-.55a12.55,12.55,0,0,0,4.68-2.85l.55.31Zm1.25,2H269v-.49a12.2,12.2,0,0,1-2,1.05l6.93,0a9.41,9.41,0,0,1-1.72-1Zm-4.66,6.82V29h6.09v3.45H273v-.5h-4.81v.5Zm0-5.66v1.1h1.32a6.38,6.38,0,0,0-.76-.72l.48-.27a5.48,5.48,0,0,1,.94,1h.73v-1.1Zm.61,3.37H273v-.59h-4.82Zm4.83.58h-4.82v.64H273ZM269.18,25l2.73,0a15.21,15.21,0,0,1-1.32-1.11A10.12,10.12,0,0,1,269.18,25Zm4.39,1.75h-2.69v1.12h.79a4.29,4.29,0,0,0,.73-1,4.71,4.71,0,0,1,.48.29,2.24,2.24,0,0,1-.51.68l1.2,0Z" style="fill: #231f20"/>
            <path d="M282.13,32.51a6.47,6.47,0,0,1-1.4-6.83,6.71,6.71,0,0,1,1.42-2.23l.46.43a6.15,6.15,0,0,0-1.46,2.46,5.77,5.77,0,0,0,1.46,5.75Z" style="fill: #231f20"/>
            <path d="M286.22,23.47a4,4,0,0,1,.88,1.2c-.13.08-.31.15-.42.22h1.79v.59h-3.76V24.9h1.84c-.05-.2-.25-.35-.34-.54s-.35-.44-.54-.63Zm-1.1,2.8h3v.59h-3Zm3,1.34v.59h-2.94v-.58Zm-.66,4.05h-1.54v.72h-.59V29.08H288v3.26h-.6Zm0-2h-1.53v1.4h1.52Zm.91-2h1.43c.12-.55.22-1.09.32-1.65h-1.28v-.59h1.39c.08-.32.13-.64.19-1h-2v-.59h5v.6H291c-.08.32-.15.66-.2,1h2.06c-.07.77-.14,1.47-.22,2.23h1.15v.59h-5.49Zm4.61,1.36v3.44h-.61v-.62h-2.58v.65h-.61V29.05Zm-3.19,2.25h2.58V29.64h-2.58Zm1-5.25c-.05.32-.13.62-.19.94s-.09.5-.12.7h1.63l.09-.78v-.17l.06-.68Z" style="fill: #231f20"/>
            <path d="M296.36,25.64v1.21h-.62V25.06h2.14a5,5,0,0,0-1.16-1l.55-.37a7.57,7.57,0,0,1,1.41,1.37h.93V23.41h.62v1.65h1.09a8.25,8.25,0,0,0,1-1.39l.55.35a5.65,5.65,0,0,1-.8,1h2v1.76h-.62V25.64Zm.13,6.13V29.23h3.13v-.79h-2.25V26.32h5.07v2.12h-2.21v.79h3.12V31a.61.61,0,0,1-.67.61h-1l-.18-.57a8,8,0,0,0,.92,0,.24.24,0,0,0,.28-.25v-1h-2.51v2.73h-.61V29.8H297.1v2Zm5.34-4.88H298v1h3.85Z" style="fill: #231f20"/>
            <path d="M311.29,23.59A10.7,10.7,0,0,0,315.7,26l-.39.54c-.25-.06-.49-.16-.74-.23v2.12h-7.31V26.23c-.23.11-.46.21-.7.3-.12-.18-.23-.37-.34-.55a12.51,12.51,0,0,0,4.69-2.85l.55.31Zm1.25,2h-3.21v-.49a12.2,12.2,0,0,1-2,1.05l6.93,0a9.41,9.41,0,0,1-1.72-1Zm-4.66,6.82V29H314v3.45h-.65v-.5h-4.81v.5Zm0-5.66v1.1h1.32a6.38,6.38,0,0,0-.76-.72l.48-.27a5.48,5.48,0,0,1,.94,1h.73v-1.1Zm.61,3.37h4.83v-.59h-4.82Zm4.83.58h-4.82v.64h4.81ZM309.53,25l2.73,0a15.21,15.21,0,0,1-1.32-1.11A10.12,10.12,0,0,1,309.53,25Zm4.39,1.75h-2.69v1.12H312a4.29,4.29,0,0,0,.73-1,4.71,4.71,0,0,1,.48.29,2.24,2.24,0,0,1-.51.68l1.2,0Z" style="fill: #231f20"/>
            <path d="M318.89,26.34a6.15,6.15,0,0,0-1.46-2.46l.44-.44a7,7,0,0,1,1.45,2.24,6.45,6.45,0,0,1-1.41,6.83l-.48-.42A5.73,5.73,0,0,0,318.89,26.34Z" style="fill: #231f20"/>
            <path d="M327.39,26a5.7,5.7,0,0,1-2.12,1.57L324.9,27A4.6,4.6,0,0,0,327,25.59Zm-2.47,6a8.3,8.3,0,0,0,3.43-.84l.38.43a8.56,8.56,0,0,1-3.49,1Zm1.88-6.77a4.81,4.81,0,0,0-.64-.54,3,3,0,0,0-1-.44l.38-.47a4.48,4.48,0,0,1,1.61,1ZM332.29,31h-5.87V27.07h5.86Zm-.62-2.28H327v.64h4.64ZM327,30.44h4.63v-.59H327Zm4.63-2.79H327v.56h4.63Zm-.72-2.9-.25.54a2.16,2.16,0,0,0,.66.55,4.41,4.41,0,0,0,1.23.55,6.6,6.6,0,0,0,1.11.16l-.3.58a6.81,6.81,0,0,1-1.5-.34,4.12,4.12,0,0,1-1.5-1h0A4.06,4.06,0,0,1,327.85,27l-.31-.56a4.39,4.39,0,0,0,2.17-.73,2,2,0,0,0,.62-.93h-1.24a3.81,3.81,0,0,1-.95,1l-.51-.37a4,4,0,0,0,1.56-1.94l.48.22a2.92,2.92,0,0,1-.21.53h3.8a5.84,5.84,0,0,1-.62,1.55l-.52-.26a1.8,1.8,0,0,0,.36-.7Zm2.39,7.78A8,8,0,0,0,330,31.6l.36-.52a8.85,8.85,0,0,1,3.33,1Z" style="fill: #231f20"/>
            <path d="M339.55,30c.21-.08.48-.19.7-.25v.66L336,31.7a5.75,5.75,0,0,0-.41-.56l.86-.27V24h3.1Zm-.66-3.32H337.1v1.58h1.79Zm0,3.51V28.83H337.1v1.85Zm0-5.6h-1.76v1.49h1.76Zm2.53,6.84a8.78,8.78,0,0,0,1,.21.62.62,0,0,0,.49-.17c.26-.27.22-.65.32-1l.19-1.18.17-1.51.08-1.47h-1.55c-.15,1.49-.18,3-1,4.24a7.94,7.94,0,0,1-2.06,1.95h0c-.14-.17-.32-.33-.45-.49a5.2,5.2,0,0,0,2.74-3.67c.08-.66.15-1.33.2-2h-1.45v-.58h1.47c0-.72,0-1.59,0-2.27h.63c0,.72,0,1.52,0,2.26h2.2l-.12,1.91a27.18,27.18,0,0,1-.5,3.65,1.24,1.24,0,0,1-.82,1,3.38,3.38,0,0,1-1.42-.12Z" style="fill: #231f20"/>
            <path d="M351,28.42a1.5,1.5,0,0,1-1.22,1,1.43,1.43,0,1,1-.27-2.85,1.39,1.39,0,0,1,1.27.57A1.42,1.42,0,0,1,351,28.42Zm-1.16-1.25a.82.82,0,0,0-.8.24.84.84,0,0,0,.25,1.34.84.84,0,0,0,1.12-1.08A.88.88,0,0,0,349.81,27.17Z" style="fill: #231f20"/>
            <path d="M357.09,26A5.59,5.59,0,0,1,355,27.54l-.37-.51a4.6,4.6,0,0,0,2.08-1.44Zm-2.46,6a8.25,8.25,0,0,0,3.42-.84l.38.43a8.47,8.47,0,0,1-3.48,1Zm1.88-6.77a4.81,4.81,0,0,0-.64-.54,3,3,0,0,0-1-.44l.38-.47a4.48,4.48,0,0,1,1.61,1ZM362,31h-5.86V27.07H362Zm-.62-2.28h-4.63v.64h4.63Zm-4.62,1.73h4.62v-.59h-4.63Zm4.62-2.79h-4.62v.56h4.62Zm-.72-2.9-.25.54a2.16,2.16,0,0,0,.66.55,4.41,4.41,0,0,0,1.23.55,6.87,6.87,0,0,0,1.12.16l-.3.58a6.77,6.77,0,0,1-1.51-.34,4.12,4.12,0,0,1-1.5-1h0A4.06,4.06,0,0,1,357.55,27l-.3-.56a4.39,4.39,0,0,0,2.16-.73,2,2,0,0,0,.62-.93h-1.24a3.81,3.81,0,0,1-1,1l-.5-.37a4.06,4.06,0,0,0,1.55-1.94l.48.22a2.92,2.92,0,0,1-.21.53H363a5.54,5.54,0,0,1-.63,1.55l-.52-.26a1.8,1.8,0,0,0,.36-.7Zm2.4,7.78a8.09,8.09,0,0,0-3.35-.93l.36-.52a9,9,0,0,1,3.34,1Z" style="fill: #231f20"/>
            <path d="M365.52,31.89c.08-.15.22-.29.32-.44A7.54,7.54,0,0,0,367,28.23l.58.25a7.39,7.39,0,0,1-.38,1.64,7.06,7.06,0,0,1-1.09,2.11Zm1.36-4.41a3.11,3.11,0,0,0-1.33-1.26l.42-.4a3.61,3.61,0,0,1,1.36,1.25Zm.46-2.05a2.86,2.86,0,0,0-1.3-1.25l.44-.38a2.4,2.4,0,0,1,.55.34,4.14,4.14,0,0,1,.78.9Zm6.4,0v3.47H372v2.85c0,.46-.19.83-.63.83h-.93l-.22-.61.82,0c.13,0,.28,0,.31-.17V28.86h-1.79V25.39h1.54a2.68,2.68,0,0,0,.29-.88h-2.58v4.35a6.39,6.39,0,0,1-1.11,3.68l-.62-.37a6.27,6.27,0,0,0,1.11-3.64V23.92h6.11v.59H372a3.18,3.18,0,0,1-.23.88Zm-5.08,5.85a4,4,0,0,0,1.54-2l.54.27a6.12,6.12,0,0,1-1.56,2.13ZM373.11,26h-2.93v.75h2.93Zm0,1.34h-2.93v.95h2.93Zm.85,4.32a4.64,4.64,0,0,0-.52-1.13,3.2,3.2,0,0,0-.85-1l.58-.28a5.68,5.68,0,0,1,1.34,2.06Z" style="fill: #231f20"/>
            <path d="M376.45,32.24c.09-.22.25-.41.34-.64a7.68,7.68,0,0,0,.57-3.61V24.34h3.91a2.91,2.91,0,0,0-.93-.47L380,23.8l.48-.41a2.86,2.86,0,0,1,1.56.73l-.24.22h3.49v.59H378V28l-.05,1.6a5.88,5.88,0,0,1-.9,3Zm1.63-1v-.6h3.31V30H379V26.85h2.35l0-.53h-3v-.59h3v-.61H382v.61h3.07v.59H382v.53h2.36V30H382v.64h3.36v.59H382V32.6h-.62V31.19Zm3.31-3.75h-1.75v.64h1.75Zm0,1.22h-1.74v.7h1.75Zm2.37-.59v-.64H382v.63Zm0,.59H382v.7h1.73Z" style="fill: #231f20"/>
            <path d="M396.22,31.31v.6h-8.6v-.6h3.95V28.87h-3v-.61h3V26.19H387.9v-.61h8v.61h-3.66v2.05h3v.61h-3V31.3Zm-4.21-6a2.82,2.82,0,0,0-.8-.95,4.26,4.26,0,0,0-.62-.48l-.27-.15.54-.34h0a4.16,4.16,0,0,1,1.7,1.6Z" style="fill: #231f20"/>
            <path d="M398.74,29h2.94l.85-.91.46.38-.5.54h4.65v.57h-1.72a4.8,4.8,0,0,1-1.19,1.27,14.13,14.13,0,0,1,1.78.67c.37.17.74.37,1.1.58l-.46.5h-.06a12.26,12.26,0,0,0-3.07-1.26,10.8,10.8,0,0,1-4.72,1.23l-.43-.57a11.65,11.65,0,0,0,4.2-.85l-1.73-.25-.83-.07,1.12-1.23h-2.39Zm2.82-3.57v-.84h-2.92V24h8.58v.57h-2.88v.84h2.15V28h-7v-2.6Zm-1.48,2h1.47V26h-1.46ZM402,29.53l-.67.74c.54.08.9.11,1.43.2l.73.12a4.56,4.56,0,0,0,1.25-1.07Zm.26-5v.84h1.48v-.84Zm0,1.42v1.45h1.48V26Zm2.13,0v1.45h1.49V26Z" style="fill: #231f20"/>
            <path d="M412.5,32.54h-.63V29.71l-2,.66-.48-.5c.33-.21.31-.36.31-.73V24.55h.62v5l1.52-.52V23.56h.62Zm.15-.48a7.13,7.13,0,0,0,2.49-1.94,9.23,9.23,0,0,1-1.09-2.82c-.11.17-.18.38-.28.56a5.1,5.1,0,0,1-.5.8l-.54-.4a8.41,8.41,0,0,0,1.37-4.19l.06-.59.63.21a12.18,12.18,0,0,1-.16,1.62h3.06v.57h-.63a8.53,8.53,0,0,1-1.18,4.21A5.25,5.25,0,0,0,418.07,32l-.46.48a5.94,5.94,0,0,1-2.12-1.8,8.29,8.29,0,0,1-2.34,1.89Zm1.84-6.16-.1.39a9,9,0,0,0,1.12,3.21,7.87,7.87,0,0,0,.94-3.6Z" style="fill: #231f20"/>
            <path d="M34.16,41.61h1.3V40.7h-.8l-.47.41-.46-.42a6,6,0,0,0,1.94-3.2c.18.07.36.17.55.24a5.31,5.31,0,0,1-.21.64,9.92,9.92,0,0,1,.89.6,9.22,9.22,0,0,1,.74.79,3.39,3.39,0,0,1-.5.37,4.52,4.52,0,0,0-1.32-1.22l0,.05a8.82,8.82,0,0,1-.7,1.17H37v.57h-.91v.93h1.13v.58H36.07v2.46c.41-.12.85-.3,1.27-.41v.61l-2.11.69-.91.29-.39-.53a15.59,15.59,0,0,0,1.52-.44V42.19H34.15Zm1,2.72-.56.21a3.2,3.2,0,0,0-.64-1.66l.53-.22A4.66,4.66,0,0,1,35.11,44.33Zm1.72-.06-.54-.19a3.4,3.4,0,0,0,.58-1.55l.53.16A5,5,0,0,1,36.83,44.27Zm.87,1.31-.56-.4C38,44.6,38.76,44,39.6,43.41v-1.8H37.41V41h2.88l.24-.78H37.86l.94-2.86.56.16c0,.18-.14.41-.17.58H41.8c-.28,1-.59,1.92-.89,2.9H42.6v.58H40.21v4.17a.89.89,0,0,1-.53.67,8.16,8.16,0,0,1-1.22,0l-.23-.65c.34,0,.69.07,1,.06a.36.36,0,0,0,.29-.2V44.12C39,44.58,38.4,45.05,37.7,45.58Zm1.09-2.19a3,3,0,0,0-1.32-1l.48-.42a3.78,3.78,0,0,1,1.29,1Zm.2-4.67c-.09.33-.22.61-.31,1h2l.29-1Zm3.46,6.82a4.41,4.41,0,0,0-2.08-1.4l.42-.47a5.7,5.7,0,0,1,2.1,1.43Zm-.08-3.26a3.73,3.73,0,0,1-1.48,1l-.38-.48a3.91,3.91,0,0,0,1.52-1Z" style="fill: #231f20"/>
            <path d="M47.54,46.5v-9H51v.58H48.14V46.5Z" style="fill: #231f20"/>
            <path d="M53.19,38.53H55v-1.1h.58v1.1h1.6v.58h-1.6v.72h1.37v3.57H55.59v.75h1.77v.57H55.59v1.83H55V44.72H53v-.58h2v-.75H53.56V39.83H55v-.71H53.18Zm1,1.87v.9H55v-.9Zm0,2.41H55v-.94h-.85Zm1.42-2.41v.9h.79v-.89Zm.8,1.48h-.8v.93h.79Zm1.29,1.83v-.59H61.5v.57H59.93v1.69H62V46H57.22v-.58H59.3V43.71Zm.34-3a5.51,5.51,0,0,1,1,1.63c-.17.1-.34.23-.52.33a4.06,4.06,0,0,0-1.23-1.93,5.41,5.41,0,0,0,1.16-1.93c.18.11.35.24.51.36A6.09,6.09,0,0,1,58,40.76Zm3.79-2.18H57.38V38h4.41Zm-2,.3c.18,0,.33.17.51.24a5.46,5.46,0,0,1-.92,1.6,4.82,4.82,0,0,1,1,1.69l-.47.33h0a4.32,4.32,0,0,0-1.21-2A6.05,6.05,0,0,0,59.82,38.88Zm1.9.29a8.19,8.19,0,0,1-.94,1.56,6,6,0,0,1,1,1.67c-.17.09-.32.25-.49.32a5.58,5.58,0,0,0-1.26-2,6.41,6.41,0,0,0,1.16-1.94c.18.09.33.21.5.31Z" style="fill: #231f20"/>
            <path d="M66.15,44.12a4.45,4.45,0,0,1-1.68,1.6l-.42-.44a4.46,4.46,0,0,0,2-2.05H64.41v-.58h1.74V42h.62v.69h1.47v.58H66.77v.45l.26-.11a4.64,4.64,0,0,1,1.11,1.26l-.52.36a3.4,3.4,0,0,0-.85-1.09v2.4h-.62Zm-.46-5.81v.25h3.06v.54H65.69v.25h3v.54h-3v.25h3.64v.53H66.52a3.44,3.44,0,0,1-.78.7c.7,0,1.42,0,2.11-.06a2.34,2.34,0,0,0-.49-.27l.41-.28a2.29,2.29,0,0,1,.58.3,3.48,3.48,0,0,1,.77.71l-.44.33a3.07,3.07,0,0,0-.29-.34l-2.88.14-.54,0-.27-.46c.11-.06.26-.12.39-.2a5.34,5.34,0,0,0,.67-.59H64.31v-.54h.81V37.77H69v.54Zm2,5.69a4.85,4.85,0,0,0,1.53-2.12l.52.27a5.27,5.27,0,0,1-1.53,2.22Zm.64,1.6a5.24,5.24,0,0,0,1.86-2.55l.56.29a4.58,4.58,0,0,1-1.59,2.15l2.48-.1,0,0a3,3,0,0,0-.43-.52l-.39-.35.5-.28a4.2,4.2,0,0,1,1.42,1.86l-.57.31a3.9,3.9,0,0,0-.2-.47l-2.17.14-1.1.12Zm4.2-7.89A8.32,8.32,0,0,1,69.42,39L69,38.51a8.38,8.38,0,0,0,3.15-1.2Zm.16,1.86a3,3,0,0,1,.38.42,9.85,9.85,0,0,1-3.64,1.65l-.36-.51a10.84,10.84,0,0,0,3.35-1.34Zm0-.74a8.78,8.78,0,0,1-3,1.43l-.42-.51a8.15,8.15,0,0,0,3-1.31h0ZM70,42H71.7a3.75,3.75,0,0,0,1.61,2l-.42.5a4.28,4.28,0,0,1-1.54-1.86H70Z" style="fill: #231f20"/>
            <path d="M79.76,45.56a.71.71,0,0,1-.68.77h-.94l-.24-.6c.45,0,.68,0,1,.06a.3.3,0,0,0,.28-.3v-.78H76.75a2.48,2.48,0,0,1-1.23,1.89L75,46.14a2.24,2.24,0,0,0,1-1.16,3.44,3.44,0,0,0,.1-.86V41.55h3.59Zm.59-5.29v.57h-5v-.57h1.18V39.12h-.82v-.57h.82v-1h.61v1h1.41v-1h.61v1H80v.57h-.8v1.15Zm-3.59,1.85v.74h2.41v-.74Zm2.41,1.29H76.76v.75h2.41Zm-.6-4.29H77.16v1.15h1.41Zm5.37,1h-.59a8.87,8.87,0,0,1-.84,3.9,4,4,0,0,0,.32.52A6.35,6.35,0,0,0,84.36,46l-.46.47a7.81,7.81,0,0,1-1.72-1.86,6.76,6.76,0,0,1-1.85,1.88L79.88,46a6.23,6.23,0,0,0,1.94-2A8.66,8.66,0,0,1,81,41.36a5.57,5.57,0,0,1-.56.81l-.57-.33a4.61,4.61,0,0,0,.63-1,7.76,7.76,0,0,0,.68-2.17,9.25,9.25,0,0,0,.1-1.3l.57.14a9.18,9.18,0,0,1-.21,2h2.35Zm-2.57,0a7.7,7.7,0,0,0,.79,3.17,7.39,7.39,0,0,0,.56-3.17Z" style="fill: #231f20"/>
            <path d="M92.61,44.71a13.29,13.29,0,0,1-6,1.74c-.06-.21-.15-.41-.21-.62,2.31-.27,4.67-.46,6.38-2.07A6.06,6.06,0,0,0,94,41.87c.18.1.35.23.54.34A5.82,5.82,0,0,1,92.61,44.71Zm-2.84-2.37A8,8,0,0,1,87,44.54c-.16-.16-.31-.36-.46-.52A7.47,7.47,0,0,0,89.24,42Zm-3-1v-.62h1.47v-2.4h.66v2.4h1.85V37.41h.66v1.3h3.25v.61H91.39v1.43h3.76v.6H91.48v2.76H90.8V41.36Z" style="fill: #231f20"/>
            <path d="M101.94,45.8a.58.58,0,0,1-.52.67,10,10,0,0,1-1.35,0l-.47-.62h1.3c.37-.06.4-.14.4-.35v-.73H97.1v-.55h4.23v-.41c.5-.16,1-.35,1.47-.51H98.73v-.56h5.39v.54a18,18,0,0,1-2.19.84v.11h4v.55h-4Zm1-4.94v-.52h1.46l.08-.69H103v-.55h1.62l.06-.59h-1.91V38h2.56l-.39,3.73h.68v1.39H105v-.81H98v.87h-.6V41.69h.69l-.35-3.43a4.11,4.11,0,0,0,2-.78l.35.46a4,4,0,0,1-1.7.73l0,.47H100v.52H98.46l.08.7H100v.53H98.6l.08.78h5.6l.1-.83Zm-.54.71a4.36,4.36,0,0,0-.86-.74h0a7,7,0,0,1-1.11.67l-.43-.38a11.1,11.1,0,0,0,1-.6,3.6,3.6,0,0,0-.9-.33l.35-.41a2.69,2.69,0,0,1,.61.19l.42.19c.21-.17.39-.38.59-.57l.38.33a6,6,0,0,1-.49.53,6.66,6.66,0,0,1,.85.68Zm-2.25-2.46a6.52,6.52,0,0,0,.87-.53,4,4,0,0,0-.76-.25l-.18,0,.24-.45a7.24,7.24,0,0,1,1.17.36h0a4.64,4.64,0,0,0,.62-.71l.4.32a3.27,3.27,0,0,1-.54.65,5.72,5.72,0,0,1,.73.59l-.37.46a3,3,0,0,0-.81-.66,10.43,10.43,0,0,1-1,.64Z" style="fill: #231f20"/>
            <path d="M108.29,43.79v-4.4h3.37V37.5h.66v1.88h3.33v4.38H115v-.71h-2.67v3.46h-.65V43.05H109v.75ZM111.65,40H109v2.48h2.71ZM115,40h-2.66v2.48H115Z" style="fill: #231f20"/>
            <path d="M118.07,46a10.58,10.58,0,0,0,4-2,8,8,0,0,1-1.93-4.14h-1.65v-.6h8v.6h-1.63A8.19,8.19,0,0,1,123,44a10.65,10.65,0,0,0,3.94,2l-.44.52a11.4,11.4,0,0,1-4-2c-.26.15-.5.4-.75.56a13.71,13.71,0,0,1-3.23,1.55Zm2.69-6.15A7.54,7.54,0,0,0,121,41s0,.07,0,.1a7.23,7.23,0,0,0,.79,1.66,4,4,0,0,0,.67.8,7.13,7.13,0,0,0,1.68-3.66Zm1.81-.72a3.8,3.8,0,0,0-1.45-1.34l.45-.39a2.21,2.21,0,0,1,.6.37,5.33,5.33,0,0,1,.93,1Z" style="fill: #231f20"/>
            <path d="M129.33,46.5v-.59h2.87V37.46h.59v9Z" style="fill: #231f20"/>
            <path d="M139.7,43.32a4.77,4.77,0,0,0-1.53-2l.48-.42a6,6,0,0,1,1.8,1.69Z" style="fill: #231f20"/>
            <path d="M145.91,46.5v-9h3.41v.58h-2.81V46.5Z" style="fill: #231f20"/>
            <path d="M152.76,39a3.53,3.53,0,0,0-.82-1.3l.52-.27a4.16,4.16,0,0,1,.88,1.26l-.45.29,1.62,0v.57H151.3V39Zm1.45,1.28v.56h-2.47v-.56Zm-2.47,1.92v-.56h2.47v.56Zm1.79,3.49h-1.07v.69h-.59V43.05h2.23v3.26h-.57Zm-1.07-2v1.46h1.07V43.62ZM155,38.94h2v-.43h-2.64V38h2.64v-.64h.6V38h2.86v.52h-2.86v.43h2.08v.52H155Zm2,6.64a8,8,0,0,1-2.2.93l-.3-.51a6.4,6.4,0,0,0,2.2-.84Zm3-5.77v1.51h-5.38V39.81Zm-.42,2v3.27H155V41.8Zm-3.32-1V40.3h-1.06v.52Zm-.65,1.9h3.37V42.3h-3.37Zm0,.47v.44h3.37v-.44Zm3.37,1.38v-.48h-3.37v.48Zm-2.18-4.27v.52h1V40.3Zm1.36,4.89a6.68,6.68,0,0,1,2.28.81l-.3.48a7.89,7.89,0,0,0-1.17-.57,5.45,5.45,0,0,0-1.14-.29Zm1.26-4.37V40.3h-1v.52Z" style="fill: #231f20"/>
            <path d="M164.65,43.9a9.4,9.4,0,0,1-1.78,1h0l-.39-.5a5.56,5.56,0,0,0,2.49-1.73h-1V40a6.31,6.31,0,0,0,2.34-.87l.41.44a6.4,6.4,0,0,1-2.1.85v.49h1.88v.57h-1.87v.66H169v-.74h-1.84v-.57H169V40.2h-2v-.57h2.67v3.1h-4a5.22,5.22,0,0,1-.46.62h5.5a11.08,11.08,0,0,1-.54,2.68c-.36.72-1.26.43-1.94.49-.05-.19-.14-.39-.19-.59a6.29,6.29,0,0,0,1.34,0c.29-.16.28-.46.39-.72A12,12,0,0,0,170,43.9Zm1.88-5.57a2.83,2.83,0,0,0-.7-.68l.63-.32a3.75,3.75,0,0,1,.75,1h3.55V40h-.64V38.91h-6.75V40.1h-.64V38.32Zm-3.67,7.72a4.5,4.5,0,0,0,1.45-1.59,4.45,4.45,0,0,1,.48.26,4.64,4.64,0,0,1-.69,1.05,3.52,3.52,0,0,1-.67.61h-.06Zm2.78.15a3.84,3.84,0,0,0-.52-1.57c.18,0,.36-.1.54-.13a3.39,3.39,0,0,1,.56,1.56Zm1.43-.37a2.88,2.88,0,0,0-.53-1.36c.2,0,.38-.09.58-.14a3.14,3.14,0,0,1,.53,1.3s0,.07,0,.07Zm2.12-.46c-.2,0-.39.1-.59.13a2.24,2.24,0,0,0-.59-1.19,5.69,5.69,0,0,1,.59-.16A2.33,2.33,0,0,1,169.19,45.37Z" style="fill: #231f20"/>
            <path d="M173.26,41.21v-.63h2.1V39a3.22,3.22,0,0,0-.5.11,7.71,7.71,0,0,1-1.2.16,5,5,0,0,0-.39-.62,7.34,7.34,0,0,0,3.87-1.11l.41.47a12.29,12.29,0,0,1-1.52.81v1.81h2.07a29.8,29.8,0,0,1-.07-3.14h.65c0,.45,0,.86,0,1.34v.13c0,.5,0,1.17.07,1.67h2.74v.63h-2.66a10,10,0,0,0,.37,1.92l.08.27a6.63,6.63,0,0,0,1.22-1.71l.57.23A9.23,9.23,0,0,1,179.56,44a5.83,5.83,0,0,0,.57.95,3.05,3.05,0,0,0,.75.69c.05,0,.09,0,.11-.07a7.89,7.89,0,0,0,.18-1.39l.65.26a5.63,5.63,0,0,1-.35,1.61.65.65,0,0,1-.3.31c-.4.09-.69-.22-1-.41a5,5,0,0,1-1.12-1.47,10.47,10.47,0,0,1-2,1.32l-.56-.44a9.52,9.52,0,0,0,2.28-1.49,12.39,12.39,0,0,1-.6-2.69H176v1.65l1.57-.39v.63l-1.58.42v2.19a.73.73,0,0,1-.4.63,5.19,5.19,0,0,1-1.51.1c-.08-.21-.15-.43-.23-.65l1.25,0a.28.28,0,0,0,.22-.25V43.72l-1.85.49-.47-.6c.78-.16,1.56-.34,2.31-.54V41.21ZM179.68,38a3.76,3.76,0,0,1,1.66,1.57,3.24,3.24,0,0,1-.53.46,3.48,3.48,0,0,0-1.66-1.62c.14-.15.35-.26.48-.42Z" style="fill: #231f20"/>
            <path d="M183.8,44c.46-.16.9-.34,1.35-.53V40.74h-1.08v-.59h1.09V38h.61v2.18h.89v.59h-.91v2.44l1.06-.42v.64l-2.51,1.1Zm8.79-4.62V40h-2c0,.62.09,1.24.15,1.83a15.62,15.62,0,0,0,.22,1.57,7.38,7.38,0,0,0,.91-2.7l.52.22a9.09,9.09,0,0,1-.79,2.58c-.09.2-.31.5-.43.75a3.33,3.33,0,0,0,.8,1.46.16.16,0,0,0,.19-.08,7.47,7.47,0,0,0,.22-1.31l.6.23a6.16,6.16,0,0,1-.42,1.59.49.49,0,0,1-.47.29,1.06,1.06,0,0,1-.78-.51,4.14,4.14,0,0,1-.56-1.06A9.15,9.15,0,0,1,189,46.27l-.5-.42a7.51,7.51,0,0,0,2-1.75A24.59,24.59,0,0,1,190,40h-2.15v1.34h1.89a19.93,19.93,0,0,1-.25,2.82.76.76,0,0,1-.45.6,1.91,1.91,0,0,1-1-.14l-.12-.68a2.07,2.07,0,0,0,.82.25c.19-.09.17-.32.21-.49a17.6,17.6,0,0,0,.15-1.77h-1.27A7.58,7.58,0,0,1,187,45.7c-.18.28-.36.53-.57.81l-.56-.42a4.57,4.57,0,0,0,1.23-2.73l.08-1.19V39.39h2.74c0-.58,0-1.46,0-2h.58c0,.56,0,1.1,0,2Zm-.58-.28a2.63,2.63,0,0,0-1.26-1l.42-.39a2.5,2.5,0,0,1,.88.5,4.17,4.17,0,0,1,.41.43Z" style="fill: #231f20"/>
            <path d="M195.19,46.5v-.59h2.86V37.46h.59v9Z" style="fill: #231f20"/>
            <path d="M205.56,43.32a4.77,4.77,0,0,0-1.53-2l.48-.42a6,6,0,0,1,1.8,1.69Z" style="fill: #231f20"/>
            <path d="M211.77,46.5v-9h3.41v.58h-2.81V46.5Z" style="fill: #231f20"/>
            <path d="M217,39.69a3.8,3.8,0,0,0,.68-.71s.05-.07.07-.08a3.43,3.43,0,0,0,.67-1.48,5,5,0,0,1,.52.25,2.57,2.57,0,0,1-.16.54h2.72v.56H220a4.1,4.1,0,0,1,.49.76,5.48,5.48,0,0,1-.56.23,5.41,5.41,0,0,0-.58-1h-.76a7,7,0,0,1-1.07,1.31Zm.12,1.44h3.93v-.52h-2.65v-.55h2.65V39.6h.62v.45h2.94v1.07h1.06v.55h-1.06v1.13h-2.95v.59h3.15V44h-3.14v.64h3.81v.55h-3.8v1.35h-.62V45.13h-3.72v-.55h3.71V44H218v-.54h3.09v-.6H218.4v-.54h2.65v-.59h-3.91Zm8.67-2.38H224a2.54,2.54,0,0,1,.44.71,2.73,2.73,0,0,1-.53.29,3.37,3.37,0,0,0-.53-1h-.86a3.93,3.93,0,0,1-.58.86,4.74,4.74,0,0,1-.52-.31,3.39,3.39,0,0,0,.92-1.92,5.05,5.05,0,0,1,.55.18,2.69,2.69,0,0,1-.16.65h3.07ZM224,41.68h-2.34v.59H224Zm-2.34-1.08v.53H224V40.6Z" style="fill: #231f20"/>
            <path d="M228,42.5a8.3,8.3,0,0,0,1.53-2h-1.78V39.9h2.46a1.45,1.45,0,0,1-.11.78,7.29,7.29,0,0,1-1.37,1.83l1.47,0a7.51,7.51,0,0,1-.49,2.09,5.15,5.15,0,0,0,3.43.81l2.78-.06c.26,0,.53,0,.79,0-.09.23-.21.42-.31.65h-3.48a5.64,5.64,0,0,1-3.46-.86,6.39,6.39,0,0,1-1.27,1.43l-.45-.47a4.46,4.46,0,0,0,1.78-3H228Zm.58-5a4.73,4.73,0,0,1,1.12,1.56,6.28,6.28,0,0,1-.57.31A5,5,0,0,0,228,37.8a5.54,5.54,0,0,0,.53-.3Zm3.37,3c0,1.41-.06,2.83-1,3.86a1.29,1.29,0,0,1-.21.17l-.44-.43a3.34,3.34,0,0,0,1-2.26,12,12,0,0,0,.06-1.47Zm4.15-1.36v.6h-2.61V45h-.61V39.77h-2.28v-.59h2.27V37.45h.63v1.72Zm-.8-.27c-.2-.16-.44-.33-.66-.48a5.74,5.74,0,0,0-.79-.38l.37-.43a4.1,4.1,0,0,1,1.47.85Zm1,5.31c-.81,0-1.31.09-1.59-.21-.16-.09-.2-.42-.2-.82V40.44h.66v2.93a.32.32,0,0,0,.3.24h.84Z" style="fill: #231f20"/>
            <path d="M238.79,41.21v-.63h2.1V39a3.22,3.22,0,0,0-.5.11,7.71,7.71,0,0,1-1.2.16,5,5,0,0,0-.39-.62,7.31,7.31,0,0,0,3.86-1.11l.41.47a12.29,12.29,0,0,1-1.52.81v1.81h2.07a29.8,29.8,0,0,1-.07-3.14h.65c0,.45,0,.86,0,1.34v.13c0,.5,0,1.17.07,1.67H247v.63h-2.67a10,10,0,0,0,.37,1.92l.08.27a6.92,6.92,0,0,0,1.23-1.71l.57.23A9.23,9.23,0,0,1,245.08,44a5.83,5.83,0,0,0,.57.95,3.05,3.05,0,0,0,.75.69c.06,0,.1,0,.12-.07a7.89,7.89,0,0,0,.18-1.39l.65.26a5.63,5.63,0,0,1-.35,1.61.65.65,0,0,1-.3.31c-.4.09-.69-.22-1-.41a5,5,0,0,1-1.12-1.47,10.47,10.47,0,0,1-2,1.32l-.56-.44a9.52,9.52,0,0,0,2.28-1.49,12.39,12.39,0,0,1-.6-2.69h-2.13v1.65l1.57-.39v.63l-1.58.42v2.19a.71.71,0,0,1-.4.63,5.11,5.11,0,0,1-1.5.1c-.08-.21-.15-.43-.23-.65l1.25,0a.28.28,0,0,0,.22-.25V43.72l-1.85.49-.47-.6c.78-.16,1.56-.34,2.31-.54V41.21ZM245.2,38a3.78,3.78,0,0,1,1.67,1.57,3.24,3.24,0,0,1-.53.46,3.5,3.5,0,0,0-1.67-1.62c.14-.15.35-.26.48-.42Z" style="fill: #231f20"/>
            <path d="M249.33,44c.46-.16.9-.34,1.35-.53V40.74H249.6v-.59h1.09V38h.61v2.18h.88v.59h-.9v2.44l1-.42v.64l-2.5,1.1Zm8.79-4.62V40h-2.05c0,.62.09,1.24.15,1.83a13.18,13.18,0,0,0,.23,1.57,7.57,7.57,0,0,0,.91-2.7l.52.22a9.09,9.09,0,0,1-.79,2.58c-.09.2-.31.5-.44.75a3.35,3.35,0,0,0,.81,1.46.16.16,0,0,0,.19-.08,7.47,7.47,0,0,0,.22-1.31l.6.23a6.16,6.16,0,0,1-.42,1.59.49.49,0,0,1-.47.29,1.06,1.06,0,0,1-.78-.51,3.85,3.85,0,0,1-.56-1.06,9.55,9.55,0,0,1-1.69,1.44l-.5-.42a7.51,7.51,0,0,0,2-1.75,24.59,24.59,0,0,1-.55-4.12h-2.15v1.34h1.89a19.93,19.93,0,0,1-.25,2.82.76.76,0,0,1-.45.6,1.91,1.91,0,0,1-1-.14l-.12-.68a2.07,2.07,0,0,0,.82.25c.19-.09.17-.32.21-.49a17.6,17.6,0,0,0,.15-1.77h-1.27a7.58,7.58,0,0,1-.81,3.79c-.18.28-.36.53-.57.81l-.55-.42a4.62,4.62,0,0,0,1.22-2.73l.08-1.19V39.39h2.74c0-.58,0-1.46,0-2H256c0,.56,0,1.1,0,2Zm-.58-.28a2.61,2.61,0,0,0-1.27-1l.42-.39a2.46,2.46,0,0,1,.89.5,4.17,4.17,0,0,1,.41.43Z" style="fill: #231f20"/>
            <path d="M261.55,41.38a10.82,10.82,0,0,1-.92,1.22l-.61-.35a11.83,11.83,0,0,0,2.51-4.92l.62.28a21.56,21.56,0,0,1-1,2.61v6.32h-.61Zm1,.5-.22-.56,1.27-.38V38.87h.62v1.88l1.43-.4v-3h.62v2.8l2.48-.76a18.69,18.69,0,0,1-.47,3.85.89.89,0,0,1-.5.65,2.39,2.39,0,0,1-1.09,0l-.17-.63a3,3,0,0,0,.93.11c.15,0,.26-.21.3-.38a17,17,0,0,0,.35-2.71l-1.83.55v3.69h-.62V41l-1.43.42v3.75c0,.26.22.4.49.4h3.16a.54.54,0,0,0,.51-.38,4.62,4.62,0,0,0,.3-1.06l.63.3a5.77,5.77,0,0,1-.43,1.21.86.86,0,0,1-.9.49h-3.5c-.53,0-.88-.3-.88-.74v-3.8Z" style="fill: #231f20"/>
            <path d="M274.9,44.84a12.62,12.62,0,0,1-3.43,1.65l-.4-.58a11.42,11.42,0,0,0,3.4-1.57Zm3.87-2.68h-1.44v-.58h1.49c.06-.4.08-.82.13-1.23h-1.62v-.58H279c.05-.39.08-.72.11-1.11h-2v-.58h2.73v.18l-.27,2.57L279.43,42c-.05.49-.11,1-.16,1.51H280v.59h-8.49V43.5h.68l0-.59L271.91,40l0-.4c0-.36-.09-.75-.1-1.12a6.18,6.18,0,0,0,2.27-.88l.38.54a7.41,7.41,0,0,1-2,.8l.1.86h1.71v.58h-1.66c0,.42.09.79.1,1.22h1.57v.57h-1.47c0,.44.05.88.09,1.3h1.83V41.27h.62v2.22h.95v-2.7H274.7V37.4h.63v1h1.56V39h-1.57v1.19h1.57V43.5h1.73a1.86,1.86,0,0,0,.05-.42ZM280,46.48c-.16-.09-.32-.21-.48-.31a10.12,10.12,0,0,0-2.87-1.33c.09-.18.2-.37.3-.55a11.63,11.63,0,0,1,3.43,1.63C280.28,46.12,280.14,46.29,280,46.48Z" style="fill: #231f20"/>
            <path d="M285.77,39.68a11.87,11.87,0,0,1-.5,3.06,8.78,8.78,0,0,1-.42,1.07c.33.27.69.53,1,.84l-.37.55a8,8,0,0,0-.92-.83,8.32,8.32,0,0,1-1.77,2l-.48-.4A8.92,8.92,0,0,0,284,44.21l.12-.19a6.62,6.62,0,0,0-1.24-.64c.3-1,.59-2.05.8-3.09h-.93v-.61h1.06l.34-2.13.61.13-.33,2Zm-.66.6h-.82c-.21.94-.44,1.87-.73,2.77a6,6,0,0,1,.79.42A8.14,8.14,0,0,0,285.11,40.28Zm6.34,3.9a5.16,5.16,0,0,1-.45,1.46,1,1,0,0,1-1,.44h-2.36a1.15,1.15,0,0,1-1-.43,1.21,1.21,0,0,1-.12-.38V41.48l-.51.14-.18-.56.69-.21v-2h.64v1.79l1.1-.34V37.39h.63v2.7l2-.62a13.77,13.77,0,0,1-.48,3.79.7.7,0,0,1-.82.47l-.45-.07-.09-.66c.27,0,.67.2.78,0a9.39,9.39,0,0,0,.35-1.83c0-.28,0-.55.06-.83-.47.12-.93.29-1.39.43v3.74h-.61V40.94l-1.11.33v3.61c0,.42.13.61.57.61h2.44c.5-.18.6-1.1.71-1.52Z" style="fill: #231f20"/>
            <path d="M293.6,46.5v-.59h2.87V37.46h.59v9Z" style="fill: #231f20"/>
            <path d="M304,43.32a4.77,4.77,0,0,0-1.53-2l.48-.42a6,6,0,0,1,1.8,1.69Z" style="fill: #231f20"/>
            <path d="M310.18,46.5v-9h3.41v.58h-2.81V46.5Z" style="fill: #231f20"/>
            <path d="M316.7,42.12c0,.76,0,1.54,0,2a3.87,3.87,0,0,0,.64.51l0-3.43h-1.72c0-.22,0-.37,0-.59h1.52V39.28h-1.25v-.59h1.24V37.4h.65v1.3h1v.59h-1v1.37h1.33v.59H318V42.6h1.09v.6H318V45a5.63,5.63,0,0,0,1.08.33c.23,0,.48,0,.71.09l1.35,0h2.54l1,0c-.06.21-.17.42-.24.64l-4.51,0a4.65,4.65,0,0,1-3-1.06c-.1,0-.16-.13-.25-.17a3.27,3.27,0,0,1-.8,1.54c-.17-.12-.33-.27-.5-.38a3,3,0,0,0,.79-1.84,3.7,3.7,0,0,0,0-.75V42.12Zm2.11-4.29h3.56v.59h-.6V44c.05,0,.06,0,.1-.07A7.41,7.41,0,0,0,323,42.05a6.36,6.36,0,0,0-1.1-1.67l.55-.25a8.32,8.32,0,0,1,.78,1.09,5.39,5.39,0,0,0,.26-1.7H322.1v-.58h2a9.18,9.18,0,0,1-.47,3.07,11.37,11.37,0,0,1,.66,2l-.56.44a6.65,6.65,0,0,0-.42-1.62,9.48,9.48,0,0,1-1.2,1.81l-.31-.37h0v.91h-.62V43.6l-2.05.74-.41-.53a5.19,5.19,0,0,0,.73-.23V38.42h-.63Zm1.25.59V39.6h1.09V38.42Zm1.09,1.78h-1.09v1.25h1.09ZM320.06,42v1.32c.39-.13.72-.27,1.09-.42v-.89Z" style="fill: #231f20"/>
            <path d="M328.72,43.9a9.4,9.4,0,0,1-1.78,1h0l-.39-.5a5.64,5.64,0,0,0,2.5-1.73H328V40a6.3,6.3,0,0,0,2.35-.87l.41.44a6.37,6.37,0,0,1-2.11.85v.49h1.89v.57h-1.88v.66h4.45v-.74h-1.84v-.57h1.83V40.2h-2v-.57h2.67v3.1h-4a5.22,5.22,0,0,1-.46.62h5.5a11.08,11.08,0,0,1-.54,2.68c-.36.72-1.26.43-1.94.49-.05-.19-.14-.39-.19-.59a6.29,6.29,0,0,0,1.34,0c.29-.16.28-.46.39-.72a12,12,0,0,0,.22-1.25Zm1.89-5.57a2.83,2.83,0,0,0-.7-.68l.63-.32a3.75,3.75,0,0,1,.75,1h3.55V40h-.64V38.91h-6.76V40.1h-.64V38.32Zm-3.68,7.72a4.5,4.5,0,0,0,1.45-1.59,4.45,4.45,0,0,1,.48.26,4.33,4.33,0,0,1-.69,1.05,3.52,3.52,0,0,1-.67.61h-.06Zm2.79.15a3.84,3.84,0,0,0-.52-1.57c.18,0,.36-.1.54-.13a3.39,3.39,0,0,1,.56,1.56Zm1.43-.37a2.88,2.88,0,0,0-.53-1.36c.2,0,.38-.09.58-.14a3.14,3.14,0,0,1,.53,1.3s0,.07,0,.07Zm2.12-.46c-.2,0-.39.1-.59.13a2.24,2.24,0,0,0-.59-1.19,5.69,5.69,0,0,1,.59-.16A2.33,2.33,0,0,1,333.27,45.37Z" style="fill: #231f20"/>
            <path d="M337,46a10.55,10.55,0,0,0,4-2,8,8,0,0,1-1.93-4.14h-1.66v-.6h8v.6h-1.62A8.19,8.19,0,0,1,341.9,44a10.61,10.61,0,0,0,3.93,2l-.44.52a11.44,11.44,0,0,1-3.94-2c-.26.15-.5.4-.75.56a13.59,13.59,0,0,1-3.24,1.55Zm2.7-6.15a7.54,7.54,0,0,0,.25,1.1s0,.07,0,.1a7.23,7.23,0,0,0,.79,1.66,4,4,0,0,0,.67.8,7.13,7.13,0,0,0,1.68-3.66Zm1.81-.72a3.8,3.8,0,0,0-1.45-1.34l.45-.39a2.21,2.21,0,0,1,.6.37,5.33,5.33,0,0,1,.93,1Z" style="fill: #231f20"/>
            <path d="M352.39,45.8a.58.58,0,0,1-.52.67,10,10,0,0,1-1.35,0l-.47-.62h1.3c.37-.06.4-.14.4-.35v-.73h-4.19v-.55h4.22v-.41c.5-.16,1-.35,1.47-.51h-4.07v-.56h5.39v.54a18,18,0,0,1-2.19.84v.11h4v.55h-4Zm1-4.94v-.52h1.46l.08-.69H353.4v-.55H355l.06-.59h-1.91V38h2.56l-.39,3.73H356v1.39h-.6v-.81h-7v.87h-.6V41.69h.69l-.35-3.43a4.08,4.08,0,0,0,2-.78l.35.46a4.05,4.05,0,0,1-1.69.73l0,.47h1.61v.52h-1.55l.08.7h1.47v.53h-1.42l.08.78h5.6l.1-.83Zm-.54.71a4.36,4.36,0,0,0-.86-.74H352a7,7,0,0,1-1.11.67l-.43-.38a11.1,11.1,0,0,0,1-.6,3.6,3.6,0,0,0-.9-.33l.35-.41a2.69,2.69,0,0,1,.61.19l.42.19c.21-.17.39-.38.59-.57l.38.33a6,6,0,0,1-.49.53,6.66,6.66,0,0,1,.85.68Zm-2.25-2.46a6.52,6.52,0,0,0,.87-.53,4,4,0,0,0-.76-.25l-.18,0,.24-.45a7.24,7.24,0,0,1,1.17.36H352a4.64,4.64,0,0,0,.62-.71l.4.32a3.27,3.27,0,0,1-.54.65,5.72,5.72,0,0,1,.73.59l-.37.46a3,3,0,0,0-.81-.66,10.43,10.43,0,0,1-1,.64Z" style="fill: #231f20"/>
            <path d="M362.81,45.37a13.38,13.38,0,0,0,2.21.1h2.13l-.49.62H364a6.87,6.87,0,0,1-4-1.22,4.05,4.05,0,0,1-1.53,1.7l-.51-.52a3.84,3.84,0,0,0,1.84-3.74l.7.1a5,5,0,0,1-.28,1.82,6.57,6.57,0,0,0,1.48.84,1.52,1.52,0,0,0,.4.16V41.38h-2.64V38.15h5.66v3.24h-2.35v1.5h3.08v.62h-3.08Zm-2.64-4.61h4.34v-2h-4.33Z" style="fill: #231f20"/>
            <path d="M373.31,37.94a8.11,8.11,0,0,1-2.95,1.23V41h2.43v.62h-2.42v2.83l2.87-1v.66l-1.77.62c-.59.21-1.21.44-1.72.65-.17-.15-.37-.32-.53-.48.2-.09.44-.23.48-.42l0-.23V38.67a8,8,0,0,0,2.34-.7,7.31,7.31,0,0,0,.84-.52Zm.31.16h3.5v5.65c0,.78-.21,1-.51,1.07a6.29,6.29,0,0,1-1.32.08l-.2-.63c.4,0,.82.15,1.19,0,.2-.15.18-.39.18-.63V38.74h-2.19v7.76h-.66Z" style="fill: #231f20"/>
            <path d="M379.27,46.5v-.59h2.87V37.46h.59v9Z" style="fill: #231f20"/>
            <path d="M389.06,38.94a2.65,2.65,0,0,1-.49.74,4.54,4.54,0,0,1-.62.62h0l-.48-.39a4.71,4.71,0,0,0,.9-.94,5,5,0,0,0,.72-1.55l.56.17a4.5,4.5,0,0,1-.27.78h2.55v.58H390.4a3.3,3.3,0,0,1,.61.86,5.34,5.34,0,0,1-.59.28,3.65,3.65,0,0,0-.74-1.15Zm5.25,6.89a.8.8,0,0,1-.38.56,1.08,1.08,0,0,1-.36.11H392.5c-.08-.19-.14-.42-.23-.62.37,0,.78,0,1.15,0a.4.4,0,0,0,.24-.22V44.18h-6.12v-.58h6.12v-.67h.65v.68h1.85v.58h-1.84Zm-2.16-3.75h3.6v.58h-7.86v-.58h3.61v-.92h-2.77v-.57h2.77v-.77h.65v.76H395v.57h-2.84Zm-2.8,2.36a3.93,3.93,0,0,1,2.27,1c-.09.17-.24.34-.31.5h0a3.83,3.83,0,0,0-1.82-1c-.15,0-.3,0-.45,0Zm5.25-5.55a2.81,2.81,0,0,1,.52.84l-.59.3a2.79,2.79,0,0,0-.6-1.14H393a2.71,2.71,0,0,1-.68.89c-.18-.16-.36-.23-.52-.37a3.29,3.29,0,0,0,1.14-2l.56.21a3.81,3.81,0,0,1-.19.74h2.82v.58Z" style="fill: #231f20"/>
            <path d="M402.42,38.9v.6h-4.09V38.9h1.88a3,3,0,0,0-.92-1.25l.52-.36a3.09,3.09,0,0,1,1,1.38l-.33.2ZM402,40.8h-3.2v-.6H402Zm-3.19.78H402v.59h-3.16Zm2.35,4.72v-.49h-1.49v.5H399V43.1h2.74V46.3Zm0-2.62h-1.5v1.54h1.5Zm3.19-2.61h-2.16v-.6h2.15V37.41H405v3.06h2.4v.58H405V46.5h-.62Z" style="fill: #231f20"/>
            <path d="M415.47,42.53h-6.31v-.48h2.93v-.46H410v-.46h2.13V40.7h-1.94V40.2h1.93v-.52h-2.71v-.53h2.71v-.47h-1.95v-.51h1.95v-.7h.62v.69h2.07v.94h.67v.53h-.67v1.05h-2.07v.39h2.18v.48h-2.17V42h2.75ZM409.17,46l6.34-.3v.49l-6,.37Zm.9-.57V43h4.74v2.35Zm2.08-1.87h-1.46V44h1.46Zm-1.46,1.35h1.48v-.45h-1.48Zm3.47-6.18h-1.45v.47h1.45Zm-1.44,1.5h1.44v-.52h-1.45Zm0,3.31V44h1.46V43.5Zm0,.9v.47h1.46V44.4Zm4.95-6.87v8.24a.81.81,0,0,1-.38.59,3.2,3.2,0,0,1-1.32.12l-.22-.63a6.88,6.88,0,0,0,1.11,0,.4.4,0,0,0,.19-.35v-8Zm-1.88,1h.62v5.85h-.63Z" style="fill: #231f20"/>
            <path d="M36.28,54a5.7,5.7,0,0,1-2.12,1.57L33.79,55a4.6,4.6,0,0,0,2.08-1.44Zm-2.47,6a8.3,8.3,0,0,0,3.43-.84l.38.43a8.56,8.56,0,0,1-3.49,1Zm1.88-6.77a4.81,4.81,0,0,0-.64-.54,3,3,0,0,0-1-.44l.38-.47a4.48,4.48,0,0,1,1.61,1ZM41.18,59H35.31V55.07h5.86Zm-.62-2.28H35.92v.64h4.64Zm-4.63,1.73h4.63v-.59H35.92Zm4.63-2.79H35.93v.56h4.63Zm-.72-2.9-.25.54a2.16,2.16,0,0,0,.66.55,4.41,4.41,0,0,0,1.23.55,6.87,6.87,0,0,0,1.12.16l-.3.58a6.77,6.77,0,0,1-1.51-.34,4.12,4.12,0,0,1-1.5-1h0A4.06,4.06,0,0,1,36.74,55l-.31-.56a4.39,4.39,0,0,0,2.17-.73,2,2,0,0,0,.62-.93H38a3.81,3.81,0,0,1-.95,1l-.51-.37a4,4,0,0,0,1.56-1.94l.48.22a2.92,2.92,0,0,1-.21.53h3.81a5.54,5.54,0,0,1-.63,1.55L41,53.45a1.8,1.8,0,0,0,.36-.7Zm2.4,7.78a8.09,8.09,0,0,0-3.35-.93l.36-.52a9,9,0,0,1,3.34,1Z" style="fill: #231f20"/>
            <path d="M48.67,57.53a3.11,3.11,0,0,0-1.41-1.14v4.15h-.62V56.91A6.42,6.42,0,0,1,44.87,59l-.5-.4.69-.6a6.28,6.28,0,0,0,1.59-2.53H44.8v-.59h1.85V51.44h.62v3.43H49v.59H47.26v.71l.36-.24a4.1,4.1,0,0,1,1.54,1.25Zm-3-3.15a3.57,3.57,0,0,0-.78-2l.53-.27a4.4,4.4,0,0,1,.82,2Zm1.85-.23a4.12,4.12,0,0,0,.93-2.06l.54.22a3.89,3.89,0,0,1-.93,2.1Zm4.39,3.41-3.45.94-.18-.59,3.63-1V51.39h.62v5.36l.94-.27.16.57-1.1.32v3.11h-.62Zm-1.24-1a3.93,3.93,0,0,0-1.56-1.79l.5-.35a4.26,4.26,0,0,1,1.55,1.74ZM50.85,54a3.4,3.4,0,0,0-1.49-1.58l.48-.38a4.12,4.12,0,0,1,1.52,1.58Z" style="fill: #231f20"/>
            <path d="M57.73,55.21h1v1a1.35,1.35,0,0,1-.82,1.41l-.24-.37a1,1,0,0,0,.55-1h-.49Z" style="fill: #231f20"/>
            <path d="M66,51.53c-.12.39-.28.79-.44,1.18h5.67A23,23,0,0,1,71,55.45a9.79,9.79,0,0,1-.53,2.1,1.07,1.07,0,0,1-1,.59c-.3,0-.62,0-.92,0-.08-.23-.18-.45-.28-.67.47,0,1,.22,1.47-.08A3.66,3.66,0,0,0,70.28,56a15.6,15.6,0,0,0,.24-2.67H65.21A9.59,9.59,0,0,1,63.29,56h0l-.49-.42A8.84,8.84,0,0,0,65,52.39c.15-.34.3-.71.42-1.07Zm6,6.67a3,3,0,0,1-.79,1.63,1.71,1.71,0,0,1-.83.16H65.65a1,1,0,0,1-.81-.57,1.81,1.81,0,0,1-.12-.73V54.41h4.07v2.75h-3.4V59c0,.15.15.36.33.38l.29.06,3.94,0c.31,0,.75.1,1-.19A2.77,2.77,0,0,0,71.36,58ZM65.4,56.57h2.7V55H65.4Z" style="fill: #231f20"/>
            <path d="M75.15,57.05c-.42.13-.82.28-1.25.4a5.11,5.11,0,0,1-.48-.55c.57-.16,1.16-.32,1.72-.5V54H73.74v-.61h1.4V51.49h.65v1.94H77V54H75.79v2.18c.22-.06,1.07-.4,1.29-.46v.66l-1.29.41v2.75c0,.45-.09.69-.35.84a2.86,2.86,0,0,1-1.21.13c-.07-.23-.17-.43-.22-.67a4.21,4.21,0,0,0,.87,0,.54.54,0,0,0,.19-.08,1.33,1.33,0,0,0,.08-.44ZM80,52.64v1.69h2.63v.61H80v1.77H81.8l0,3.82h-.64v-.74H78.08v.73h-.66V56.7h1.84V55H76.69v-.61h2.57V52.72c-.69.08-1.41.15-2.12.19-.09-.21-.22-.42-.3-.64a14.34,14.34,0,0,0,5-.85l.4.51A9.66,9.66,0,0,1,80,52.64Zm-1.88,4.67V59.2h3.08V57.31Z" style="fill: #231f20"/>
            <path d="M92.88,52.2a21.44,21.44,0,0,1-2.31,2.24l2.76,0V55H89.85a15.92,15.92,0,0,1-2.5,1.34A36,36,0,0,0,90.94,56c.45-.08.88-.21,1.32-.33l.34.56c-.51.14-1,.24-1.51.33-1.16.2-2.32.34-3.52.43l-.24.84h4.88a15.52,15.52,0,0,1-.5,1.9,1.08,1.08,0,0,1-.63.67,2.54,2.54,0,0,1-1.1,0c-.45-.05-.92-.15-1.39-.25l-.13-.64a14.84,14.84,0,0,0,2.15.38.5.5,0,0,0,.45-.24,5.61,5.61,0,0,0,.38-1.28h-4.9L87,56.58c-.7.31-1.46.61-2.18.86l-.37-.62a24.94,24.94,0,0,0,4.24-1.76l-3.86,0v-.58h3.39V53.28H85.5V52.7h2.72V51.38h.62V52.7H91v.5a13.73,13.73,0,0,0,1.3-1.43Zm-4,1.08v1.18h.73a8.59,8.59,0,0,0,1.35-1.18Z" style="fill: #231f20"/>
            <path d="M98.69,55.63a8.75,8.75,0,0,1-2.92,1.93L95.3,57a7.89,7.89,0,0,0,1.56-.72,2.65,2.65,0,0,0-.63-.44l.41-.35a2.86,2.86,0,0,1,.63.52,2.62,2.62,0,0,0,.6-.45,2.11,2.11,0,0,0-.75-.53l.42-.36a2.25,2.25,0,0,1,.67.56h0a7.1,7.1,0,0,0,.74-.92H97.42a6.65,6.65,0,0,1-1.36,1.29l-.54-.41a4,4,0,0,0,2-2.14l.48.19a2.41,2.41,0,0,1-.21.54H99.6v.49a5.17,5.17,0,0,1-.88,1.29h2.39v.57H98.69Zm.1,2.77a7.49,7.49,0,0,1-2.92,1.35l-.38-.52A7.08,7.08,0,0,0,98.4,58Zm4.51-4.61v-.92h-7v1h-.62V52.28h3.67a1.94,1.94,0,0,0-.74-.58l.51-.35a2.45,2.45,0,0,1,.53.38,2.94,2.94,0,0,1,.48.54h3.76v1.51Zm-.84,3.71H100.2c0,.82,0,1.43,0,2.2a.87.87,0,0,1-.38.68,3.16,3.16,0,0,1-1.2.1l-.3-.56h1a.31.31,0,0,0,.23-.17l0-.25v-2H97.2v-.56h5.27Zm-1.24-3.83h1.85a3.47,3.47,0,0,1-.88,2.13,4.32,4.32,0,0,0,1.93,1.11l.21.05-.41.53a6.36,6.36,0,0,1-2.53-1.64A6.79,6.79,0,0,1,100,53.33l.51-.2a7.44,7.44,0,0,0,1.29,2.27,2.94,2.94,0,0,0,.68-1.2h-1.21Zm2.49,6a6.5,6.5,0,0,0-2.82-1.19l.31-.5a6.89,6.89,0,0,1,3,1.24Z" style="fill: #231f20"/>
            <path d="M109.59,54.6a7.18,7.18,0,0,0,1.69-3.21,6,6,0,0,1,.59.22c-.05.25-.21.53-.28.79h2.74v.54a5,5,0,0,1-1.45,2.15,7.75,7.75,0,0,0,2.52,1.41l-.47.5a7.16,7.16,0,0,1-2.49-1.49A10.21,10.21,0,0,1,109.71,57l-.18-.28h-1v1.93c.43-.18.93-.39,1.37-.55v.63c-.46.2-.92.4-1.37.58l-2.06.87h0l-.45-.54c.2-.08.41-.12.6-.21V55.86h.62V59.2l.68-.28V54.85h-1.17V52h2.8v2.9h-1v1.3h1v.28a8.5,8.5,0,0,0,2.5-1.37,9.1,9.1,0,0,1-.94-1.41,5.1,5.1,0,0,1-1,1.32Zm-.69-.34V52.55h-1.55v1.72ZM114,56.77V60.5h-.63v-.59h-2.13v.63h-.65V56.77Zm-2.78.6v2h2.12v-2Zm.17-4.39a6.83,6.83,0,0,0,1,1.63A4.24,4.24,0,0,0,113.58,53Z" style="fill: #231f20"/>
            <path d="M117.66,58c.19,0,.4.06.59.12a4,4,0,0,1-.64,2.12A6.14,6.14,0,0,1,117,60a3.24,3.24,0,0,0,.55-1.21,3.31,3.31,0,0,0,.09-.73Zm2.3-2.24a3.82,3.82,0,0,1,.68,1.56c-.19.07-.39.13-.58.21a1.42,1.42,0,0,0-.07-.42,12.73,12.73,0,0,0-2.25.37l-.35-.49a7.28,7.28,0,0,0,1.82-2.1,10.45,10.45,0,0,0-1.6.15l-.29-.51A6.88,6.88,0,0,0,119,51.66l.49.38a6.74,6.74,0,0,1-1.31,2.31c.45,0,.9-.05,1.35-.07a5.88,5.88,0,0,0,.46-1l.53.33a1.82,1.82,0,0,1-.11.28,10,10,0,0,1-1.9,2.83c.42,0,.82-.13,1.24-.16a1.62,1.62,0,0,0-.36-.56ZM119.13,58c.08,0,.05.09.09.13a3.66,3.66,0,0,1,.24,1.48,3.64,3.64,0,0,1-.61.21,3,3,0,0,0-.25-1.73Zm3.54-1a4.83,4.83,0,0,1-2.14,3l-.47-.44.53-.33c-.14,0-.27.09-.41.1a2.52,2.52,0,0,0-.55-1.36,5.09,5.09,0,0,1,.56-.14,3.19,3.19,0,0,1,.56,1.23,3.12,3.12,0,0,0,.51-.46,3.75,3.75,0,0,0,.71-1.17l.14-.39h-1.45v-.59h2Zm3.32-.31a3.36,3.36,0,0,1-1.42,1l-.16.06a6.74,6.74,0,0,0,1.78,1.71c-.14.15-.29.3-.44.44a5.61,5.61,0,0,1-.55-.41,5.1,5.1,0,0,1-1.6-2.13v2.49c0,.3-.33.48-.6.56a4.79,4.79,0,0,1-1,0c-.08-.21-.13-.44-.21-.64a6.32,6.32,0,0,0,1,0,.33.33,0,0,0,.22-.25v-4h-2c0-1.06,0-2.35,0-3.42h1.42a2.3,2.3,0,0,0,.85-.9l.46.35a3,3,0,0,1-.44.55h2.22V55.7h-1.83v.56a5,5,0,0,0,.47,1.06,1.76,1.76,0,0,0,.39-.12,3.26,3.26,0,0,0,1.13-.89Zm-4.45-3.86c0,.25,0,.54,0,.81h3.28v-.81Zm3.27,1.36h-3.28v.89h3.28Z" style="fill: #231f20"/>
            <path d="M131.09,57.32a4.77,4.77,0,0,0-1.53-2l.48-.42a6,6,0,0,1,1.8,1.69Z" style="fill: #231f20"/>
            <path d="M134.26,60a10.55,10.55,0,0,0,4-2,8,8,0,0,1-1.93-4.14h-1.66v-.6h8v.6H141A8.19,8.19,0,0,1,139.16,58a10.65,10.65,0,0,0,3.94,2l-.44.52a11.4,11.4,0,0,1-3.95-2c-.25.15-.49.4-.74.56a13.59,13.59,0,0,1-3.24,1.55Zm2.7-6.15a7.54,7.54,0,0,0,.25,1.1s0,.07,0,.1a7.23,7.23,0,0,0,.79,1.66,4.33,4.33,0,0,0,.66.8,7.13,7.13,0,0,0,1.68-3.66Zm1.8-.72a3.71,3.71,0,0,0-1.44-1.34l.45-.39a2.21,2.21,0,0,1,.6.37,5.63,5.63,0,0,1,.92,1Z" style="fill: #231f20"/>
            <path d="M149.63,59.8a.58.58,0,0,1-.52.67,10,10,0,0,1-1.35,0l-.47-.62h1.3c.37-.06.4-.14.4-.35v-.73h-4.2v-.55H149v-.41c.49-.16,1-.35,1.46-.51h-4.06v-.56h5.38v.54a18,18,0,0,1-2.19.84v.11h4v.55h-4Zm1-4.94v-.52h1.46l.08-.69h-1.56v-.55h1.62l.06-.59H150.4V52H153l-.39,3.73h.68v1.39h-.6v-.81h-7v.87h-.6V55.69h.69l-.35-3.43a4.11,4.11,0,0,0,2-.78l.35.46a4,4,0,0,1-1.7.73l0,.47h1.62v.52h-1.56l.08.7h1.48v.53h-1.42l.08.78H152l.1-.83Zm-.54.71a4.61,4.61,0,0,0-.85-.74h-.06a6.46,6.46,0,0,1-1.1.67l-.43-.38a11.1,11.1,0,0,0,1-.6,3.6,3.6,0,0,0-.9-.33l.35-.41a2.69,2.69,0,0,1,.61.19l.41.19a7.94,7.94,0,0,0,.59-.57l.38.33a6,6,0,0,1-.49.53,6.66,6.66,0,0,1,.85.68Zm-2.24-2.46a6.52,6.52,0,0,0,.87-.53,4,4,0,0,0-.76-.25l-.18,0,.24-.45a6.83,6.83,0,0,1,1.16.36h.06a5.19,5.19,0,0,0,.61-.71l.4.32a3.27,3.27,0,0,1-.54.65,5.72,5.72,0,0,1,.73.59l-.37.46a2.9,2.9,0,0,0-.81-.66,9.16,9.16,0,0,1-1,.64Z" style="fill: #231f20"/>
            <path d="M155.73,58.65l1.36-.45V54.94h-1.15v-.59h1.16V52.16h.63v2.19h1.06v.59h-1.07v3l1.17-.39v.61l-2.79,1ZM158.8,56l-.22-.62.79-.22V53.13H160V55l1.25-.39v-3.2h.62v3.07L164,53.9l-.05,1-.16,1.5a5,5,0,0,1-.26,1.14.52.52,0,0,1-.54.4,3.26,3.26,0,0,1-.78-.12l-.1-.7a3.54,3.54,0,0,0,.67.24.24.24,0,0,0,.23-.16,17.57,17.57,0,0,0,.33-2.46l-1.5.4v3.28h-.62V55.3l-1.23.39V59.2c0,.19,0,.29.26.33h3.18c.37-.15.33-.57.43-.88l.09-.59.59.16a8.8,8.8,0,0,1-.32,1.39.72.72,0,0,1-.67.52h-3.4a.68.68,0,0,1-.77-.67V55.83Z" style="fill: #231f20"/>
            <path d="M167,60.54V51.83H175v8.7h-.63V60h-6.68v.54Zm.62-8.12v7h6.69v-7Zm5.47.44v1.6h-1.86v.4h2.67v.49H168v-.49h2.65v-.41h-1.86v-1.6Zm-4.57,6v-3h4.85v3Zm.57-2.52v2h3.71V56.37Zm.29-2.4h3.11v-.62h-3.09Zm.47,4V56.8H172V58Zm.51-.38h1.2v-.42h-1.2Z" style="fill: #231f20"/>
            <path d="M180.5,57.32a4.77,4.77,0,0,0-1.53-2l.48-.42a6,6,0,0,1,1.8,1.69Z" style="fill: #231f20"/>
            <path d="M193.44,52.2a21.44,21.44,0,0,1-2.31,2.24l2.76,0V55h-3.48a15.92,15.92,0,0,1-2.5,1.34A36,36,0,0,0,191.5,56c.45-.08.88-.21,1.32-.33l.34.56c-.51.14-1,.24-1.51.33-1.16.2-2.32.34-3.52.43l-.24.84h4.88a15.52,15.52,0,0,1-.5,1.9,1.08,1.08,0,0,1-.63.67,2.54,2.54,0,0,1-1.1,0c-.45-.05-.92-.15-1.39-.25l-.13-.64a14.84,14.84,0,0,0,2.15.38.5.5,0,0,0,.45-.24,5.61,5.61,0,0,0,.38-1.28h-4.9l.46-1.77c-.7.31-1.45.61-2.17.86l-.37-.62a25.18,25.18,0,0,0,4.23-1.76l-3.85,0v-.58h3.38V53.28h-2.71V52.7h2.71V51.38h.62V52.7h2.18v.5a13.73,13.73,0,0,0,1.3-1.43Zm-4,1.08v1.18h.73a8.59,8.59,0,0,0,1.35-1.18Z" style="fill: #231f20"/>
            <path d="M199.25,55.63a8.75,8.75,0,0,1-2.92,1.93l-.47-.52a7.89,7.89,0,0,0,1.56-.72,2.65,2.65,0,0,0-.63-.44l.41-.35a2.86,2.86,0,0,1,.63.52,2.62,2.62,0,0,0,.6-.45,2.11,2.11,0,0,0-.75-.53l.42-.36a2.25,2.25,0,0,1,.67.56h0a7.1,7.1,0,0,0,.74-.92H198a6.65,6.65,0,0,1-1.36,1.29l-.54-.41A4,4,0,0,0,198,53.09l.48.19a2.41,2.41,0,0,1-.21.54h1.86v.49a5.17,5.17,0,0,1-.88,1.29h2.39v.57h-2.41Zm.1,2.77a7.49,7.49,0,0,1-2.92,1.35l-.38-.52A7.08,7.08,0,0,0,199,58Zm4.51-4.61v-.92h-7v1h-.62V52.28H200a1.94,1.94,0,0,0-.74-.58l.51-.35a2.45,2.45,0,0,1,.53.38,2.94,2.94,0,0,1,.48.54h3.76v1.51ZM203,57.5h-2.26c0,.82,0,1.43,0,2.2a.87.87,0,0,1-.38.68,3.16,3.16,0,0,1-1.2.1l-.3-.56h1a.31.31,0,0,0,.23-.17l0-.25v-2h-2.37v-.56H203Zm-1.24-3.83h1.85a3.47,3.47,0,0,1-.88,2.13,4.32,4.32,0,0,0,1.93,1.11l.21.05-.41.53A6.36,6.36,0,0,1,202,55.85a6.79,6.79,0,0,1-1.44-2.52l.51-.2a7.44,7.44,0,0,0,1.29,2.27,2.94,2.94,0,0,0,.68-1.2h-1.21Zm2.49,6a6.5,6.5,0,0,0-2.82-1.19l.31-.5a6.89,6.89,0,0,1,3,1.24Z" style="fill: #231f20"/>
            <path d="M206.83,53.69a3.8,3.8,0,0,0,.68-.71s.05-.07.07-.08a3.43,3.43,0,0,0,.67-1.48,5,5,0,0,1,.52.25,2.57,2.57,0,0,1-.16.54h2.72v.56h-1.55a4.1,4.1,0,0,1,.49.76,5.48,5.48,0,0,1-.56.23,5.41,5.41,0,0,0-.58-1h-.76a7,7,0,0,1-1.07,1.31Zm.11,1.44h3.94v-.52h-2.65v-.55h2.65V53.6h.62v.45h2.94v1.07h1.06v.55h-1.06v1.13H211.5v.59h3.15V58h-3.14v.64h3.81v.55h-3.8v1.35h-.62V59.13h-3.72v-.55h3.71V58h-3.09v-.54h3.09v-.6h-2.67v-.54h2.65v-.59h-3.92Zm8.68-2.38h-1.8a2.54,2.54,0,0,1,.44.71,2.73,2.73,0,0,1-.53.29,3.37,3.37,0,0,0-.53-1h-.86a3.93,3.93,0,0,1-.58.86,4.74,4.74,0,0,1-.52-.31,3.39,3.39,0,0,0,.92-1.92,5.05,5.05,0,0,1,.55.18,2.69,2.69,0,0,1-.16.65h3.07Zm-1.77,2.93h-2.34v.59h2.34Zm-2.34-1.08v.53h2.33V54.6Z" style="fill: #231f20"/>
            <path d="M219.55,53a4.48,4.48,0,0,0-1-1.25c.15-.12.33-.21.49-.32a3.24,3.24,0,0,1,.53.46,3.37,3.37,0,0,1,.55.82,5,5,0,0,0-.45.29h2v.6h-4V53Zm1.7,1.87H218.1v-.59h3.15Zm0,1.37h-3.15V55.6h3.14Zm-.12,4.2-.63,0v-.77h-1.59v.78h-.62V57.08h2.83Zm-.63-2.72h-1.59v1.39h1.59Zm1.26-5v-.6h4.14v4.33h-.68v-.56h-2.59v3.06a.78.78,0,0,0,.18.53,1.61,1.61,0,0,0,.59,0h2a.57.57,0,0,0,.44-.35,5.22,5.22,0,0,0,.16-1.13c.22.07.42.17.64.25a5.25,5.25,0,0,1-.22,1c-.1.36-.36.79-.73.83l-.34,0h-2.58a.76.76,0,0,1-.66-.41,1.29,1.29,0,0,1-.19-.64v-3.8h3.26V52.7Z" style="fill: #231f20"/>
            <path d="M229.6,58a5.24,5.24,0,0,1-.38,2l-.15.3c-.1,0-.18-.07-.28-.09l-.34-.08a4.3,4.3,0,0,0,.57-2.24A1.63,1.63,0,0,1,229.6,58Zm-.19-3.64c.55,0,1.09-.2,1.64-.28a4.08,4.08,0,0,0,.41-.84c.18.1.38.17.55.28a8.05,8.05,0,0,1-2.32,3l.13,0c.46-.1.94-.14,1.4-.23a5.4,5.4,0,0,0-.3-.47,3.54,3.54,0,0,1,.53-.23,4.1,4.1,0,0,1,.77,1.6,5.29,5.29,0,0,0-.54.25c-.07-.21-.13-.4-.2-.59-.1,0-.19,0-.3,0-.69.11-1.41.19-2.09.36-.13-.18-.19-.41-.33-.59a12,12,0,0,0,1.81-1.9l.08-.06a10,10,0,0,0-1.36.25c-.16,0-.2.08-.37.11-.08-.2-.22-.42-.32-.61a8.63,8.63,0,0,0,1.6-1.88c.14-.28.32-.55.44-.83,0-.06.05-.11.06-.16h0l.48.36a6,6,0,0,1-1.65,2.25Zm1.39,5.48-.61.13a3.75,3.75,0,0,0-.25-2l.59-.08A3.89,3.89,0,0,1,230.8,59.81Zm1.24-.49c-.2,0-.38.13-.58.15a2.33,2.33,0,0,0-.15-.82,5.71,5.71,0,0,0-.37-.8l.56-.14A3.58,3.58,0,0,1,232,59.32Zm5-7.43a5.77,5.77,0,0,1-1.11.49l-.75.22V55h2v.59h-2a16.05,16.05,0,0,0,.48,3.08,2.69,2.69,0,0,0,.52.95c.08,0,.15,0,.18-.1a7.15,7.15,0,0,0,.35-1.11l.05-.24c.2.09.4.21.61.28a2.72,2.72,0,0,1-.1.46c-.21.46-.23,1-.73,1.37a.65.65,0,0,1-.59,0,2.94,2.94,0,0,1-1-1.77,14.36,14.36,0,0,1-.39-3h-1.56v3.87c.56-.25,1.16-.54,1.72-.78v.6a24,24,0,0,0-2.14,1.12c-.17-.13-.36-.34-.53-.49a.55.55,0,0,0,.29-.49V52.38a10.54,10.54,0,0,0,4.23-1Zm-2.47.84c-.49.06-1,.16-1.51.19V55h1.5Z" style="fill: #231f20"/>
            <path d="M242.69,57.32a4.77,4.77,0,0,0-1.53-2l.48-.42a6,6,0,0,1,1.8,1.69Z" style="fill: #231f20"/>
            <path d="M248.09,56a3.61,3.61,0,0,0-1.64-1.36l.47-.42a3.89,3.89,0,0,1,1.62,1.34Zm-1.44,3.91a7.63,7.63,0,0,0,1.81-3.27l.51.24a7.91,7.91,0,0,1-1.8,3.39Zm.95-8a3.66,3.66,0,0,1,1.48,1c.1.08.16.2.24.27l-.44.42a4.39,4.39,0,0,0-1.68-1.26Zm6.43,8h-3.57v.69h-.63V56.87h2.11V55H249v-.59h2.89V52.87c-.71.1-1.46.11-2.2.14l-.33-.61a12.23,12.23,0,0,0,5.12-.88L255,52a9.42,9.42,0,0,1-2.38.81v1.59h2.91V55h-2.92v1.89h2.12v3.67H254Zm-3.57-2.41v1.83H254V57.45Z" style="fill: #231f20"/>
            <path d="M264.27,54.39a11.59,11.59,0,0,1-.66,4.56,6.83,6.83,0,0,1-1,1.58l-.56-.35c.14-.13.23-.28.36-.41l-4.86.53-.31-.62c.87,0,1.78-.1,2.66-.18v-.82h-2v-.6h2.05v-.65h-1.8V54.22h1.8v-.59h-2.43V53h2.43v-.52L258,52.6h-.22l-.35-.54,1.61,0a13.09,13.09,0,0,0,3.15-.45l.37.45a11.8,11.8,0,0,1-2.08.43V53h2.26v.59h-2.26v.6h1.76v3.21H260.5v.65h2v.59h-2v.77l2.24-.17a6.18,6.18,0,0,0,.84-3.25l.06-1.65h-1v-.59h1V51.44h.62v2.35h1.6v1l-.05,1.9a11.69,11.69,0,0,1-.38,2.66,1,1,0,0,1-.55.76,2.6,2.6,0,0,1-1.11,0l-.16-.68a2.91,2.91,0,0,0,.92.15.37.37,0,0,0,.24-.23,12,12,0,0,0,.37-2.43l.08-1.84,0-.74Zm-4.4,1.12v-.69h-1.18v.69Zm0,1.34V56.1h-1.19v.75Zm.61-2v.68h1.14v-.69Zm0,1.27v.75h1.12V56.1Z" style="fill: #231f20"/>
            <path d="M270,60.53V57a6.47,6.47,0,0,1-1.36,1l-.57-.42a7.45,7.45,0,0,0,3.08-3.18l.47.38a10.48,10.48,0,0,1-1,1.52v4.28Zm-1.83-7.13v-.59h2V51.47h.62v1.34h1.38v.59h-1.38v1.11h-.62V53.4Zm7.46,6.26a.3.3,0,0,0,.31-.23,7.75,7.75,0,0,0,.31-1.63l.59.21a10.85,10.85,0,0,1-.42,1.89.62.62,0,0,1-.59.35h-2.54a.72.72,0,0,1-.78-.72V54.65h.63v2.2a5.8,5.8,0,0,0,2.7-1.4l.45.42a7.3,7.3,0,0,1-3.15,1.59v1.91c0,.16.11.29.3.29Zm-1.52-8.19h.63v1.34h2v.59h-2v1.27h-.61V53.41h-1.4v-.6h1.4Z" style="fill: #231f20"/>
            <path d="M282.41,59a9.88,9.88,0,0,1-2.54.91l-.56.1-.34-.57a6.94,6.94,0,0,0,3-.94Zm-3.33-3.86a6.59,6.59,0,0,0,2.23-.74,10.43,10.43,0,0,0-1.63-.32,8.27,8.27,0,0,0,.81-1h-1.2v-.59h1.52a8.15,8.15,0,0,0,.5-1.08l.51.25a4.63,4.63,0,0,1-.36.83h2V53a3.75,3.75,0,0,1-.89,1.21,8.74,8.74,0,0,1,1.32.69l-.37.41c-.16-.06-.28-.17-.44-.24a10.44,10.44,0,0,0-1-.44,7.51,7.51,0,0,1-2.6,1.06Zm3,4.72.87,0a.26.26,0,0,0,.31-.28V58.24l-1.53,0c-.29,0-.59,0-.88.06s-.49,0-.73.06l-.38-.56.94-.27a22,22,0,0,0,2.51-.9,25.81,25.81,0,0,0-2.79.13l-.32-.54c.17-.05.35-.09.52-.15A5.47,5.47,0,0,0,282.68,55l.44.34a3.48,3.48,0,0,1-1.74,1,7.24,7.24,0,0,0,.92-.12c.66-.07,1.34,0,2-.11a7.71,7.71,0,0,0,1-.8l.5.35a9.66,9.66,0,0,1-3.4,2,7,7,0,0,1-1,.25c.41,0,.79-.09,1.22-.11l3.27-.14A3.08,3.08,0,0,0,285,57l.57-.36a5.46,5.46,0,0,1,1.87,1.77l-.48.37c-.14-.21-.31-.44-.48-.65l-2.13.08-.48,0v1.5c0,.46-.13.76-.58.76h-1Zm-.92-6.82a4.83,4.83,0,0,1-.44.64A11,11,0,0,1,282,54a3,3,0,0,0,.84-.94ZM284,54.91V52h3.17v2.91Zm.62-.59h1.92V52.59h-1.92ZM287.45,60a3.46,3.46,0,0,0-.78-.42A5.8,5.8,0,0,0,284.6,59l.32-.51a8.05,8.05,0,0,1,2.91,1.08Z" style="fill: #231f20"/>
            <path d="M291.47,55.21h1v1a1.35,1.35,0,0,1-.82,1.41l-.24-.37a1,1,0,0,0,.55-1h-.49Z" style="fill: #231f20"/>
            <path d="M296.48,58.47c.32-.18.65-.33.95-.52V52.09h.68v5.49c.83-.44,1.65-.95,2.48-1.42v.72c-.83.48-1.66,1-2.47,1.45l-1,.62Zm6.93-5.62a9.77,9.77,0,0,1-.81,4.27,8.7,8.7,0,0,1,2.41,2.5l-.53.47h0a5.91,5.91,0,0,0-.71-1,8.08,8.08,0,0,0-1.48-1.38,9.68,9.68,0,0,1-3,2.67c-.15-.22-.31-.41-.44-.6a6.33,6.33,0,0,0,3.85-5.51,22.47,22.47,0,0,0,.1-2.47h.68Zm-2.47,2.07a5.24,5.24,0,0,0-2-1.53l.43-.45a5.08,5.08,0,0,1,1.08.58,6.64,6.64,0,0,1,1,.85Z" style="fill: #231f20"/>
            <path d="M314.66,54.64a5.42,5.42,0,0,1-.63,2,8.74,8.74,0,0,1-1.35,1.77,8.21,8.21,0,0,0,3,1.47l-.39.61a9.41,9.41,0,0,1-3.14-1.59c-.26.17-.49.37-.72.53a7.8,7.8,0,0,1-2.31,1.06c-.14-.17-.26-.37-.4-.56a7.6,7.6,0,0,0,2.93-1.48,9.57,9.57,0,0,1-2.05-3.29,13.42,13.42,0,0,1-.57,3.36.54.54,0,0,1-.05.11,7.56,7.56,0,0,1-1.25,1.89c-.23-.12-.45-.27-.68-.41a5,5,0,0,0,1.53-2.54A16,16,0,0,0,308.9,55c0-.78.06-1.55,0-2.31h-1.38v-.62H314v.58c-.43.66-.93,1.3-1.41,1.94Zm-4.31.6a11.22,11.22,0,0,0,1.38,2.26l0,.06a2.78,2.78,0,0,0,.41.43,6.37,6.37,0,0,0,1.71-2.74h-2.22v-.58c.51-.64,1.12-1.45,1.36-1.83l.07-.11h-3.45c0,.18,0,.36,0,.55a8.4,8.4,0,0,0,.61,1.79Z" style="fill: #231f20"/>
            <path d="M320.28,54.74a1.4,1.4,0,0,0-.38-.42l.48-.21h0a3.2,3.2,0,0,1,.59.63,4.35,4.35,0,0,0,.86-1.12l.52.26a4.24,4.24,0,0,1-.38.56,6.36,6.36,0,0,0,4.1,2.35l.22,0a3.67,3.67,0,0,1-.34.53,4.23,4.23,0,0,1-.92-.21,7.15,7.15,0,0,1-3.17-2c0-.11-.17-.16-.22-.27a7.69,7.69,0,0,1-4.41,2.33l-.34-.53a7.66,7.66,0,0,0,3.6-1.47c-.45,0-.89.12-1.34.18s-.77.16-1.15.22a4,4,0,0,1-.35-.56,3.74,3.74,0,0,0,1.39-1.51l-.2,0-.33-.57a6.88,6.88,0,0,0,1.5-.65,5.09,5.09,0,0,0,1.34-1.05l.41.43a6,6,0,0,1-1.88,1.17l.27,0,2.81-.25a3.56,3.56,0,0,0,.47-.05,3.3,3.3,0,0,0-.92-.35l.47-.39a3.66,3.66,0,0,1,2,1.33,3.83,3.83,0,0,1-.44.36,4.47,4.47,0,0,0-.54-.53l-3.09.28c-.56,0-1.14.11-1.7.2.1.11.21.18.32.28a4,4,0,0,1-1,1.15l0,0ZM321,57a7.6,7.6,0,0,1-2.41,1,3.8,3.8,0,0,1-.46-.53,6.84,6.84,0,0,0,3.55-1.81,3.23,3.23,0,0,1,.5.35A8.18,8.18,0,0,1,321,57Zm-.09,1.63a9.06,9.06,0,0,1-2.13.72l-.43-.5a8.51,8.51,0,0,0,4.54-2.34h0l.44.34A8.83,8.83,0,0,1,320.92,58.64Zm3.95-.94a10.15,10.15,0,0,1-1.5,1.28,11.12,11.12,0,0,1-3.94,1.67c-.11,0-.23.05-.35.06-.14-.17-.31-.34-.44-.52a14.79,14.79,0,0,0,3-.9c.05,0,.08,0,.12,0a8.83,8.83,0,0,0,2.61-1.91Zm-2.06-2.79a3.53,3.53,0,0,0,1.05-1.6,3.24,3.24,0,0,1,.47.28,2.84,2.84,0,0,1-.57,1l-.27.25c.44,0,.87-.13,1.32-.2a1.52,1.52,0,0,0-.39-.37,2.92,2.92,0,0,1,.47-.23,3.48,3.48,0,0,1,1,1.31l-.56.2a2.82,2.82,0,0,0-.19-.48,5.71,5.71,0,0,0-.92.16l-1,.21Z" style="fill: #231f20"/>
            <path d="M332.34,56.14a17.56,17.56,0,0,1-.21,2.43l-.06.38c-.08.51-.18.95-.78,1.14A2.74,2.74,0,0,1,330,60l-.25-.06c0-.24-.11-.45-.14-.7a4.76,4.76,0,0,0,1.25.3.47.47,0,0,0,.37-.26,9.53,9.53,0,0,0,.42-2.75l.08-2.32h-1.4a17.29,17.29,0,0,1-.53,3.67A6,6,0,0,1,328.65,60a6.58,6.58,0,0,1-.5.57l-.53-.42a6.5,6.5,0,0,0,1.45-2.09,8.24,8.24,0,0,0,.41-1.73c.1-.71.17-1.41.21-2.12H328v-.6h1.69c.06-.63.08-1.54.1-2.17l.67,0c0,.76-.07,1.43-.08,2.11h2ZM336.23,53v7.1h-.65v-.76H333.8v.78h-.65V53Zm-.66.6H333.8v5.14h1.77Z" style="fill: #231f20"/>
            <path d="M341,56.67c-.67.31-1.51.69-2,.87l-.46-.54a27.25,27.25,0,0,0,4-1.85l-3.52,0v-.58h3.24v-1.3H340v-.58h2.24V51.39h.62v1.28h1.94v.58h-1.94v1.3h.62A11.72,11.72,0,0,0,346,52l.56.35a13.54,13.54,0,0,1-2.07,2.18l2.72,0v.58H343.7a15.58,15.58,0,0,1-1.66,1l3.86,0v4.37h-.61v-.6h-3.68v.61H341Zm4.29,0h-3.68v1h3.68Zm-3.68,1.59v1h3.68v-1Z" style="fill: #231f20"/>
            <path d="M350.73,60.54V54.73a7.58,7.58,0,0,1-1.18,1.74l-.59-.32a12.42,12.42,0,0,0,2.57-4.69l.54.26a14.1,14.1,0,0,1-.72,1.92v6.9Zm2.83-6.67a15.59,15.59,0,0,1-1.41,2.3l-.57-.28a9.9,9.9,0,0,0,2.11-4.58l.62.22a11.79,11.79,0,0,1-.5,1.76h4.4v.58h-3.74v1.38h3.32v.57h-3.32v1.46h3.32v.57h-3.32v2.69h-.62V53.87Z" style="fill: #231f20"/>
            <path d="M363,60.52v-.71h-2.07v.73h-.61V56.08h3.31v4.44Zm-2.06-1.28H363V56.66h-2.05ZM367,51.89v3.23h-5.69V51.89Zm-.6.57h-4.46v2.07h4.46Zm-1.06,8h-.63V56.05h3.36v4.42h-.63v-.7h-2.11Zm2.12-3.86h-2.12V59.2h2.12Z" style="fill: #231f20"/>
            <path d="M374.89,56.42a1.5,1.5,0,0,1-1.22,1,1.43,1.43,0,1,1-.27-2.85,1.39,1.39,0,0,1,1.27.57A1.42,1.42,0,0,1,374.89,56.42Zm-1.16-1.25a.82.82,0,0,0-.8.24.84.84,0,0,0,.25,1.34.84.84,0,0,0,1.12-1.08A.88.88,0,0,0,373.73,55.17Z" style="fill: #231f20"/>
          </g>
        </g>
      </g>
    </g>
  </g>
</svg>
