<?xml version="1.0" encoding="utf-8"?>
<!-- Generator: Adobe Illustrator 26.0.1, SVG Export Plug-In . SVG Version: 6.00 Build 0)  -->
<svg version="1.1" id="Layer_1" xmlns="http://www.w3.org/2000/svg" xmlns:xlink="http://www.w3.org/1999/xlink" x="0px" y="0px"
	 viewBox="0 0 120 120" style="enable-background:new 0 0 120 120;" xml:space="preserve">
<style type="text/css">
	.st0{fill:#231F20;}
</style>
<g>
	<path class="st0" d="M23.64,51.56v18.13h-3.82V39.85h10.21c-0.94-1.12-2.56-2.79-3.91-3.96l1.71-1.4h-3.29
		c-1.44,2.03-3.06,3.83-4.59,5.22c-0.63-0.72-2.02-2.16-2.83-2.79c2.75-2.16,5.31-5.53,6.79-8.95l3.73,1.12
		c-0.31,0.72-0.67,1.39-1.08,2.11h10.8v3.29h-7.78c1.26,1.08,2.65,2.43,3.42,3.33l-2.29,2.02h5.22v11.7H23.64z M23.64,42.42v2.02
		h8.5v-2.02H23.64z M32.15,48.99v-2.11h-8.5v2.11H32.15z M33.23,65.91v1.57h-3.78v-13.9h16.69v12.33H33.23z M33.23,56.05v2.43h9.18
		v-2.43H33.23z M42.41,63.39v-2.43h-9.18v2.43H42.41z M58.16,34.5h-9.09c1.4,1.04,2.93,2.34,3.73,3.29l-2.34,2.07h5.26v25.33
		c0,2.07-0.45,3.2-1.84,3.78c-1.44,0.63-3.69,0.67-7.06,0.67c-0.14-1.04-0.72-2.7-1.26-3.69c2.34,0.09,4.68,0.09,5.35,0.04
		c0.67,0,0.9-0.23,0.9-0.86V51.56H39.17v-11.7h10.44c-0.99-1.12-2.65-2.7-4.05-3.78l1.89-1.58h-3.96c-1.17,1.98-2.56,3.74-3.96,5.04
		c-0.72-0.63-2.25-1.89-3.19-2.43c2.56-2.21,4.77-5.58,5.98-9.09l3.82,0.94c-0.27,0.77-0.58,1.49-0.94,2.25h12.96V34.5z
		 M51.81,42.42h-8.86v2.02h8.86V42.42z M51.81,48.99v-2.11h-8.86v2.11H51.81z"/>
	<path class="st0" d="M86.01,30.36c-0.22,0.41-0.49,0.76-0.76,1.12c4,5.22,11.47,9.9,18.99,11.92c-0.99,0.94-2.34,2.74-2.97,3.91
		c-7.15-2.34-13.86-7.06-18.49-12.64c-4.81,5.58-11.74,10.53-18.63,13.27c-0.54-1.21-1.57-2.97-2.56-4
		c8.46-2.7,16.96-9.18,21.06-15.97L86.01,30.36z M72.47,46.34h4.37v5.44c0,5.94-0.99,13.05-9.9,18c-0.72-0.99-2.34-2.43-3.46-3.15
		c8.1-4.28,9-10.04,9-14.94V46.34z M89.16,46.29h4.41v23.49h-4.41V46.29z"/>
</g>
<g>
	<path class="st0" d="M4.6,77.1v14.83H1.9V77.1H4.6z"/>
	<path class="st0" d="M7.6,84.41c0-1.23-0.04-2.27-0.09-3.19h2.35l0.13,1.61h0.07c0.48-0.84,1.65-1.85,3.43-1.85
		c1.87,0,3.81,1.21,3.81,4.6v6.36h-2.71v-6.05c0-1.54-0.57-2.71-2.05-2.71c-1.08,0-1.83,0.77-2.11,1.58
		c-0.09,0.22-0.13,0.55-0.13,0.86v6.31H7.6V84.41z"/>
	<path class="st0" d="M23.28,78.47v2.75h2.57v2.02h-2.57v4.71c0,1.32,0.35,1.98,1.39,1.98c0.48,0,0.75-0.02,1.06-0.11l0.04,2.05
		c-0.4,0.15-1.12,0.29-1.96,0.29c-1.01,0-1.83-0.33-2.33-0.88c-0.59-0.62-0.86-1.61-0.86-3.01v-5.02H19.1v-2.02h1.52v-2L23.28,78.47
		z"/>
	<path class="st0" d="M27.9,84.67c0-1.45-0.02-2.51-0.09-3.46h2.33l0.11,2.02h0.07c0.53-1.5,1.78-2.27,2.95-2.27
		c0.26,0,0.42,0.02,0.64,0.07v2.53c-0.24-0.04-0.48-0.07-0.81-0.07c-1.28,0-2.18,0.81-2.42,2.05c-0.04,0.24-0.07,0.53-0.07,0.81
		v5.57H27.9V84.67z"/>
	<path class="st0" d="M40.42,92.17c-3.01,0-5.37-2.07-5.37-5.52c0-3.52,2.31-5.68,5.54-5.68c3.19,0,5.32,2.25,5.32,5.5
		c0,3.94-2.77,5.7-5.48,5.7H40.42z M40.51,90.22c1.54,0,2.62-1.5,2.62-3.67c0-1.67-0.75-3.61-2.6-3.61c-1.91,0-2.68,1.87-2.68,3.65
		c0,2.07,1.03,3.63,2.64,3.63H40.51z"/>
	<path class="st0" d="M58.02,76.29v12.63c0,1.1,0.04,2.29,0.09,3.01h-2.4l-0.13-1.69h-0.04c-0.64,1.19-1.94,1.94-3.48,1.94
		c-2.57,0-4.6-2.18-4.6-5.48c-0.02-3.59,2.22-5.72,4.8-5.72c1.47,0,2.53,0.59,3.01,1.39h0.04v-6.07H58.02z M55.31,85.68
		c0-0.22-0.02-0.51-0.07-0.73c-0.24-1.03-1.1-1.89-2.33-1.89c-1.74,0-2.71,1.54-2.71,3.52S51.18,90,52.89,90
		c1.1,0,2.07-0.75,2.33-1.91c0.07-0.24,0.09-0.51,0.09-0.79V85.68z"/>
	<path class="st0" d="M70.52,88.72c0,1.28,0.04,2.33,0.09,3.21h-2.35l-0.13-1.61h-0.07c-0.46,0.75-1.52,1.85-3.45,1.85
		c-1.94,0-3.72-1.17-3.72-4.67v-6.29h2.71v5.83c0,1.78,0.57,2.93,2,2.93c1.1,0,1.8-0.75,2.07-1.45c0.11-0.22,0.15-0.53,0.15-0.84
		v-6.47h2.71V88.72z"/>
	<path class="st0" d="M81.32,91.6c-0.57,0.26-1.69,0.55-3.04,0.55c-3.34,0-5.52-2.16-5.52-5.48c0-3.21,2.2-5.7,5.96-5.7
		c0.99,0,2,0.22,2.62,0.48l-0.48,2.05c-0.44-0.22-1.08-0.42-2.05-0.42c-2.07,0-3.3,1.52-3.28,3.48c0,2.2,1.43,3.46,3.28,3.46
		c0.92,0,1.61-0.2,2.13-0.42L81.32,91.6z"/>
	<path class="st0" d="M86.42,78.47v2.75H89v2.02h-2.57v4.71c0,1.32,0.35,1.98,1.39,1.98c0.48,0,0.75-0.02,1.06-0.11l0.04,2.05
		c-0.4,0.15-1.12,0.29-1.96,0.29c-1.01,0-1.83-0.33-2.33-0.88c-0.59-0.62-0.86-1.61-0.86-3.01v-5.02h-1.52v-2.02h1.52v-2
		L86.42,78.47z"/>
	<path class="st0" d="M92.38,79.68c-0.9,0-1.5-0.66-1.5-1.45c0-0.84,0.62-1.47,1.52-1.47c0.92,0,1.5,0.64,1.52,1.47
		c0,0.79-0.59,1.45-1.52,1.45H92.38z M91.04,91.93V81.22h2.71v10.72H91.04z"/>
	<path class="st0" d="M101.36,92.17c-3.01,0-5.37-2.07-5.37-5.52c0-3.52,2.31-5.68,5.54-5.68c3.19,0,5.32,2.25,5.32,5.5
		c0,3.94-2.77,5.7-5.48,5.7H101.36z M101.45,90.22c1.54,0,2.62-1.5,2.62-3.67c0-1.67-0.75-3.61-2.6-3.61
		c-1.91,0-2.68,1.87-2.68,3.65c0,2.07,1.03,3.63,2.64,3.63H101.45z"/>
	<path class="st0" d="M109.08,84.41c0-1.23-0.04-2.27-0.09-3.19h2.35l0.13,1.61h0.07c0.48-0.84,1.65-1.85,3.43-1.85
		c1.87,0,3.81,1.21,3.81,4.6v6.36h-2.71v-6.05c0-1.54-0.57-2.71-2.05-2.71c-1.08,0-1.83,0.77-2.11,1.58
		c-0.09,0.22-0.13,0.55-0.13,0.86v6.31h-2.71V84.41z"/>
</g>
</svg>
