<svg xmlns="http://www.w3.org/2000/svg" width="100" height="114.51" viewBox="0 0 100 114.51">
  <g id="Layer_2" data-name="Layer 2">
    <g id="Pointer">
      <g>
        <rect y="82.31" width="100" height="32.2" rx="16.1" style="fill: #be0000"/>
        <g>
          <path d="M18.65,103.25a22.92,22.92,0,0,1-2.53,6.38l-1.43-.92a18.12,18.12,0,0,0,2.39-5.79ZM15,97.31V95.74h2.8A23.32,23.32,0,0,0,16.65,93l1.52-.55a21.07,21.07,0,0,1,1.19,3.28H22a30,30,0,0,0,1.09-3.28l1.57.53a25,25,0,0,1-1.09,2.75h2.76v1.57H21.55V100h4.33v1.57H21.55v8.8H19.81v-8.8H15.39V100h4.42V97.31Zm4.88-7a17.2,17.2,0,0,0-1.07-2L20.64,88c.31.68.62,1.45.94,2.3h4.56v1.59H15.25V90.26ZM25.54,107l-1.48.55a39.45,39.45,0,0,0-1.49-4.37l1.47-.39A42.28,42.28,0,0,1,25.54,107Zm10.8-17a25.07,25.07,0,0,1-7.11,1.4v4.44H37v1.67H34.45v12.85H32.74V97.48H29.23v2.68q-.14,6.3-2.75,10.07L25.22,109c1.45-2.12,2.23-5,2.35-8.79V90a21.1,21.1,0,0,0,7.9-1.57Z" style="fill: #fff"/>
          <path d="M43.79,100.36l-1.13,1.13a22.46,22.46,0,0,0-3.26-3l1.16-1.11A23.74,23.74,0,0,1,43.79,100.36Zm1-10.51V88.16H46.5v1.69h2.9v1.52H46.5v2H44.83v-2H39.59V89.85Zm-.72,13.48a62.17,62.17,0,0,1-2.88,6.81l-1.59-.7a57.53,57.53,0,0,0,3-6.69Zm.17-7.56-1.14,1.11a20.89,20.89,0,0,0-3.26-2.95L41,92.84A21.18,21.18,0,0,1,44.28,95.77Zm7.63-1.09v-1.6h1.64v1.6h4.21A23.12,23.12,0,0,0,56,92.84l1.13-.7a17.23,17.23,0,0,1,2,2l-.8.56h2.3V96.2H53.55V98H59.4v10.15c0,1.3-.63,2-1.84,2H55.44L55,108.52l2,.07c.51,0,.77-.29.77-.82V106H53.55v4.06H51.91V106H47.73v4.22H46.11V98h5.8V96.2h-7V94.68Zm-4.18,4.71v2h4.18v-2Zm0,5.26h4.18v-1.93H47.73ZM55.2,88.16v1.69h5.24v1.52H55.2v1.35H53.53V91.37H50.61V89.85h2.92V88.16Zm2.6,11.23H53.55v2H57.8Zm0,3.33H53.55v1.93H57.8Z" style="fill: #fff"/>
          <path d="M78.28,110.16l-.43-1.62,2.78.08c.7,0,1.06-.41,1.06-1.24V96.2H66.57v14.11H64.9V94.58H83.36v13.17c0,1.59-.75,2.41-2.2,2.41ZM75.05,88.33v3.21h6.11V89.1h1.69v4H65.31V89.24H67v2.3h6.36V88.33ZM67.78,101V99.46h3.55a21.1,21.1,0,0,0-1.82-2.15l1.28-.8a20.93,20.93,0,0,1,2,2.44l-.72.51h3.38a21.07,21.07,0,0,0,1.79-3l1.62.53a20,20,0,0,1-1.69,2.51h3.26V101H75v4.49h2.87v-3.28h1.62v4.83H68.79v-4.81h1.62v3.26h2.9V101Z" style="fill: #fff"/>
        </g>
        <g>
          <path d="M49.51,38.49c-5.34-3.08-9.65-10.56-9.63-16.7a8.06,8.06,0,0,1,1.36-4.86c-2.36.72-3.8,3.36-3.81,7.17,0,6.14,4.3,13.62,9.64,16.7,3.89,2.25,7.25,1.53,8.79-1.38C54.16,40.13,51.94,39.89,49.51,38.49Z"/>
          <path d="M47.19,5.73C41.42,2.4,36.38,2.09,32.61,4.28c1.58-.91,3.13-1.92,4.78-2.88,3.78-2.19,9-1.88,14.77,1.45C63.62,9.46,72.88,25.5,72.84,38.67a23.45,23.45,0,0,1-3.32,12.81L53.7,75.62l-6,3.47L65.94,50.42a19.06,19.06,0,0,0,1.93-8.87C67.91,28.39,58.65,12.35,47.19,5.73Z"/>
        </g>
        <path d="M67.87,41.55a19.06,19.06,0,0,1-1.93,8.87L47.75,79.09l-18-46.54c-2-7-2.56-10.41-2.55-15.21,0-13.17,8.57-18.22,20-11.61S67.91,28.39,67.87,41.55Zm-20.78-.86c5.35,3.09,9.69.61,9.71-5.53s-4.3-13.62-9.65-16.71-9.68-.6-9.7,5.54,4.3,13.62,9.64,16.7h0" style="fill: #be0000"/>
      </g>
    </g>
  </g>
</svg>
