<?xml version="1.0" encoding="utf-8"?>
<!-- Generator: Adobe Illustrator 26.0.1, SVG Export Plug-In . SVG Version: 6.00 Build 0)  -->
<svg version="1.1" id="Layer_1" xmlns="http://www.w3.org/2000/svg" xmlns:xlink="http://www.w3.org/1999/xlink" x="0px" y="0px"
	 width="138.8px" height="135.1px" viewBox="0 0 138.8 135.1" style="enable-background:new 0 0 138.8 135.1;" xml:space="preserve"
	>
<path style="fill:#BE0000;" d="M113.4,135.5h-87c-14.6,0-26.5-11.9-26.5-26.5v0c0-14.6,11.9-26.5,26.5-26.5h87
	c14.6,0,26.5,11.9,26.5,26.5v0C139.9,123.7,128,135.5,113.4,135.5z"/>
<g>
	<path style="fill:#FFFFFF;" d="M38.7,105.5c-0.6,2.4-1.4,4.6-2.4,6.4l-1.9-1.2c1-1.7,1.8-3.6,2.2-5.6L38.7,105.5z M34.8,99.8v-2.1
		h2.6c-0.3-0.8-0.7-1.6-1-2.4l2-0.7c0.4,0.9,0.7,1.9,1.1,3.1h2.3c0.4-1,0.7-2,1-3.1l2.1,0.7c-0.3,0.9-0.6,1.7-1,2.4h2.5v2.1h-4.5
		v2.1h4.1v2.1h-4.1v8.6h-2.3V104h-4.2v-2.1h4.2v-2.1H34.8z M39.4,92.2c-0.3-0.6-0.6-1.2-1-1.8l2.4-0.4c0.3,0.6,0.6,1.4,0.9,2.1h4.4
		v2.1h-11v-2.1H39.4z M45.6,109.1l-1.9,0.7c-0.4-1.5-0.8-2.9-1.4-4.4l1.9-0.5C44.8,106.5,45.3,107.9,45.6,109.1z M56.4,92.6
		c-2.1,0.7-4.4,1.1-6.9,1.3v3.9h7.4v2.2h-2.3v12.7h-2.2V100h-2.9v2.4c-0.1,4.3-1,7.7-2.8,10.2l-1.6-1.7c1.4-2,2.1-4.9,2.2-8.5V92
		c2.9,0,5.6-0.6,8-1.5L56.4,92.6z"/>
	<path style="fill:#FFFFFF;" d="M63.9,102.4l-1.5,1.5c-0.8-0.9-1.9-1.9-3.3-2.9l1.5-1.5C61.9,100.5,63,101.4,63.9,102.4z
		 M64.2,105.6c-0.8,2.4-1.8,4.7-2.8,6.8l-2.1-0.9c1.1-2.2,2.1-4.4,2.9-6.7L64.2,105.6z M64.5,91.8v-1.5h2.2v1.5h2.7v2h-2.7v1.8h-2.2
		v-1.8h-5v-2H64.5z M64.3,97.8l-1.5,1.5c-0.8-0.9-1.9-1.9-3.3-2.9l1.5-1.4C62.4,95.9,63.5,96.8,64.3,97.8z M71.5,96.7v-1.4h2.2v1.4
		h3.5c-0.4-0.5-0.9-1-1.4-1.5l1.5-0.9c0.8,0.7,1.4,1.3,1.9,1.9l-0.8,0.6h2.3v2h-6.9v1.3h5.7v10.2c0,1.4-0.7,2.2-2.1,2.2h-2.1
		l-0.6-2.1l2,0.1c0.4,0,0.7-0.2,0.7-0.7v-1.3h-3.6v3.9h-2.2v-3.9H68v4.1h-2.1V100h5.7v-1.3h-6.8v-2H71.5z M68,101.8v1.6h3.6v-1.6H68
		z M68,106.7h3.6v-1.5H68V106.7z M75.3,90.3v1.5h5v2h-5V95h-2.2v-1.2h-2.7v-2h2.7v-1.5H75.3z M77.4,101.8h-3.6v1.6h3.6V101.8z
		 M77.4,105.1h-3.6v1.5h3.6V105.1z"/>
	<path style="fill:#FFFFFF;" d="M87.6,103.4v-2h3.1c-0.4-0.6-0.9-1.2-1.5-1.8l1.6-1h-4.1v13.9h-2.2v-16h18.9V110
		c0,1.6-0.8,2.5-2.4,2.5h-2.9l-0.6-2.1l2.8,0.1c0.6,0,0.8-0.3,0.8-0.9V98.7h-4l1.7,0.6c-0.4,0.8-0.9,1.5-1.4,2.2h2.9v2h-5.3v4h2.3
		v-3.1h2.1v5.1H88.5v-5.1h2.1v3.1h2.3v-4H87.6z M95.2,90.5v2.9h5.6v-2.2h2.2v4.2H84.9v-4.1h2.2v2.1H93v-2.9H95.2z M90.9,98.7
		c0.8,0.9,1.4,1.6,1.9,2.3l-0.7,0.5h3.2c0.6-0.9,1.1-1.8,1.6-2.8H90.9z"/>
	<path style="fill:#FFFFFF;" d="M30.4,126.1c0.6,0.3,1.5,0.6,2.4,0.6c1.2,0,1.8-0.6,1.8-1.4c0-0.8-0.5-1.2-1.8-1.7
		c-1.7-0.6-2.7-1.5-2.7-2.9c0-1.7,1.4-2.9,3.6-2.9c1.1,0,1.9,0.2,2.4,0.5l-0.4,1.5c-0.4-0.2-1.1-0.5-2-0.5c-1.2,0-1.7,0.6-1.7,1.2
		c0,0.8,0.6,1.1,1.9,1.6c1.8,0.7,2.6,1.6,2.6,3c0,1.6-1.2,3-3.8,3c-1.1,0-2.2-0.3-2.7-0.6L30.4,126.1z"/>
	<path style="fill:#FFFFFF;" d="M43.9,126.4c0,0.7,0,1.3,0.1,1.8h-1.7l-0.1-0.8h0c-0.4,0.6-1.2,1-2.2,1c-1.5,0-2.3-1.1-2.3-2.2
		c0-1.8,1.6-2.8,4.3-2.8v-0.1c0-0.5-0.2-1.3-1.5-1.3c-0.7,0-1.5,0.2-2,0.5l-0.4-1.2c0.5-0.3,1.5-0.6,2.6-0.6c2.3,0,3,1.5,3,3.1
		V126.4z M42.1,124.5c-1.3,0-2.5,0.3-2.5,1.4c0,0.7,0.5,1.1,1,1.1c0.8,0,1.3-0.5,1.5-1c0-0.1,0-0.3,0-0.4V124.5z"/>
	<path style="fill:#FFFFFF;" d="M45.9,123c0-0.8,0-1.5-0.1-2.2h1.6l0.1,1.1h0c0.3-0.6,1.1-1.3,2.3-1.3c1.3,0,2.6,0.8,2.6,3.1v4.3
		h-1.8V124c0-1-0.4-1.8-1.4-1.8c-0.7,0-1.2,0.5-1.4,1.1c-0.1,0.1-0.1,0.4-0.1,0.6v4.3h-1.8V123z"/>
	<path style="fill:#FFFFFF;" d="M57.6,118.1c0.7-0.1,1.6-0.2,2.8-0.2c1.4,0,2.3,0.3,3,0.8c0.6,0.5,1,1.3,1,2.2c0,1-0.3,1.7-0.9,2.3
		c-0.8,0.7-1.9,1.1-3.2,1.1c-0.3,0-0.6,0-0.9-0.1v3.8h-1.8V118.1z M59.5,122.8c0.2,0.1,0.5,0.1,0.9,0.1c1.4,0,2.2-0.7,2.2-1.9
		c0-1.1-0.8-1.7-2.1-1.7c-0.5,0-0.9,0-1.1,0.1V122.8z"/>
	<path style="fill:#FFFFFF;" d="M68.8,128.3c-2.1,0-3.7-1.4-3.7-3.8c0-2.4,1.6-3.9,3.8-3.9c2.2,0,3.6,1.5,3.6,3.8
		C72.5,127.1,70.6,128.3,68.8,128.3L68.8,128.3z M68.8,126.9c1,0,1.8-1,1.8-2.5c0-1.1-0.5-2.5-1.8-2.5c-1.3,0-1.8,1.3-1.8,2.5
		C67,125.9,67.7,126.9,68.8,126.9L68.8,126.9z"/>
	<path style="fill:#FFFFFF;" d="M77.2,118H79v4.6h0c0.2-0.4,0.5-0.8,0.7-1.1l2.7-3.6h2.3l-3.5,4.3l3.7,5.8h-2.2l-2.9-4.6l-0.9,1.1
		v3.6h-1.8V118z"/>
	<path style="fill:#FFFFFF;" d="M88.9,128.3c-2.1,0-3.7-1.4-3.7-3.8c0-2.4,1.6-3.9,3.8-3.9c2.2,0,3.6,1.5,3.6,3.8
		C92.7,127.1,90.8,128.3,88.9,128.3L88.9,128.3z M89,126.9c1,0,1.8-1,1.8-2.5c0-1.1-0.5-2.5-1.8-2.5c-1.3,0-1.8,1.3-1.8,2.5
		C87.2,125.9,87.9,126.9,89,126.9L89,126.9z"/>
	<path style="fill:#FFFFFF;" d="M94.2,123c0-0.8,0-1.5-0.1-2.2h1.6l0.1,1.1h0c0.3-0.6,1.1-1.3,2.3-1.3c1.3,0,2.6,0.8,2.6,3.1v4.3H99
		V124c0-1-0.4-1.8-1.4-1.8c-0.7,0-1.2,0.5-1.4,1.1c-0.1,0.1-0.1,0.4-0.1,0.6v4.3h-1.8V123z"/>
	<path style="fill:#FFFFFF;" d="M109.4,127c0,1.5-0.3,2.6-1.1,3.3c-0.8,0.7-1.8,0.9-2.8,0.9c-0.9,0-1.9-0.2-2.5-0.6l0.4-1.4
		c0.5,0.3,1.2,0.6,2.1,0.6c1.2,0,2.1-0.6,2.1-2.2V127h0c-0.4,0.6-1.2,1.1-2.1,1.1c-1.8,0-3.1-1.5-3.1-3.6c0-2.4,1.6-3.9,3.3-3.9
		c1.1,0,1.8,0.5,2.1,1.1h0l0.1-1h1.6c0,0.5-0.1,1.1-0.1,2.1V127z M107.5,123.7c0-0.2,0-0.3-0.1-0.5c-0.2-0.7-0.7-1.2-1.5-1.2
		c-1,0-1.8,0.9-1.8,2.4c0,1.2,0.6,2.2,1.8,2.2c0.7,0,1.3-0.5,1.5-1.1c0.1-0.2,0.1-0.4,0.1-0.6V123.7z"/>
</g>
<g>
	<path d="M69.4,38.7c-5.3-3.1-9.7-10.6-9.6-16.7c0-2.1,0.5-3.7,1.4-4.9c-2.4,0.7-3.8,3.4-3.8,7.2c0,6.1,4.3,13.6,9.6,16.7
		c3.9,2.2,7.2,1.5,8.8-1.4C74,40.4,71.8,40.1,69.4,38.7z"/>
	<path d="M67.1,6c-5.8-3.3-10.8-3.6-14.6-1.5c1.6-0.9,3.1-1.9,4.8-2.9c3.8-2.2,9-1.9,14.8,1.4c11.5,6.6,20.7,22.7,20.7,35.8
		c0,3.6-0.5,8.3-3.3,12.8L73.6,75.8l-5.9,3.5l18.2-28.7c1.2-2.3,1.9-5.3,1.9-8.9C87.8,28.6,78.5,12.6,67.1,6z"/>
</g>
<path style="fill:#BE0000;" d="M87.8,41.8c0,3.6-0.7,6.5-1.9,8.9L67.6,79.3l-18-46.5c-2-7-2.6-10.4-2.5-15.2
	c0-13.2,8.6-18.2,20-11.6C78.5,12.6,87.8,28.6,87.8,41.8z M67,40.9c5.3,3.1,9.7,0.6,9.7-5.5c0-6.1-4.3-13.6-9.6-16.7
	c-5.3-3.1-9.7-0.6-9.7,5.5C57.3,30.4,61.6,37.8,67,40.9L67,40.9"/>
</svg>
