<?xml version="1.0" encoding="utf-8"?>
<!-- Generator: Adobe Illustrator 26.0.1, SVG Export Plug-In . SVG Version: 6.00 Build 0)  -->
<svg version="1.1" id="Layer_1" xmlns="http://www.w3.org/2000/svg" xmlns:xlink="http://www.w3.org/1999/xlink" x="0px" y="0px"
	 width="159.9px" height="135.3px" viewBox="0 0 159.9 135.3" style="enable-background:new 0 0 159.9 135.3;" xml:space="preserve"
	>
<path style="fill:#BE0000;" d="M133.4,135.3h-107c-14.6,0-26.5-11.9-26.5-26.5v0c0-14.6,11.9-26.5,26.5-26.5h107
	c14.6,0,26.5,11.9,26.5,26.5v0C159.9,123.4,148,135.3,133.4,135.3z"/>
<g>
	<path style="fill:#FFFFFF;" d="M50.5,100.9v-2.1h2.3v2.1h4.6v2.2h-4.6v1.1c1.5,0.8,2.9,1.7,4.4,2.8l-1.4,2.1
		c-1.2-1.1-2.2-2-3.1-2.7v6h-2.3v-6.8c-1.3,2.1-2.8,3.8-4.6,5.2l-1.4-2c2.3-1.6,4.1-3.5,5.4-5.7h-4.5v-2.2H50.5z M57.6,92.2
		c-3,0.9-7.1,1.4-12.2,1.4l-0.7-2c4.7,0,8.6-0.4,11.8-1.3L57.6,92.2z M48.9,98.6L47,99.1c-0.5-1.4-1.1-2.8-1.8-4.1l1.8-0.6
		C47.8,95.6,48.3,97,48.9,98.6z M52.8,97.4l-1.9,0.7c-0.4-1.2-0.8-2.4-1.4-3.6l1.9-0.5C52,95.2,52.4,96.3,52.8,97.4z M57.2,94
		c-0.5,1.9-1.1,3.5-1.8,5l-1.8-0.7c0.7-1.3,1.2-2.9,1.7-4.8L57.2,94z M67,104.7c-2.3,3.1-5.2,5.6-8.6,7.6l-1-2.2
		c3.3-1.8,6-4.2,8-7.1L67,104.7z M65.2,91.6c-1.8,2.2-4,4-6.5,5.5l-1-2.1c2.4-1.3,4.4-3,6-5.1L65.2,91.6z M66.3,98.1
		c-1.9,2.4-4.3,4.3-7.1,5.9l-1-2.1c2.7-1.4,4.9-3.3,6.6-5.5L66.3,98.1z"/>
	<path style="fill:#FFFFFF;" d="M75,90.1v4h3.4v10.3h-3.5v4.1c0.5-0.1,1-0.3,1.5-0.4c-0.1-0.7-0.3-1.4-0.4-2.1l1.8-0.6
		c0.5,1.8,0.9,3.9,1.3,6.2l-2,0.5c-0.1-0.7-0.2-1.4-0.3-2.1c-2.4,0.7-4.9,1.4-7.5,1.9l-0.6-2.2c1.4-0.2,2.7-0.4,4-0.7v-4.6h-3.3
		V94.1h3.3v-4H75z M71.4,96.1v6.2h1.4v-6.2H71.4z M76.4,102.4v-6.2h-1.6v6.2H76.4z M80,93.6v-2.1h10.6v2.1h-4.3v15.8h4.9v2.1H79.3
		v-2.1h4.8V93.6H80z"/>
	<path style="fill:#FFFFFF;" d="M98.2,92.9v-2.7h2.2v2.7h4.6v2.2h-4.6v7.9h2v-5.8h2.1v7.9h-4.1v3.7c1.5-0.4,2.9-0.8,4.2-1.4l0.4,2.1
		c-2.2,0.9-4.7,1.6-7.5,2.2l-0.6-2.2c0.8-0.3,1.3-0.8,1.3-1.7v-2.7H94v-7.9h2.1v5.8h2v-7.9h-4.9v-2.2H98.2z M114.7,90.9v1.7
		c-0.7,2.4-1.5,4.6-2.4,6.7c1.8,2.4,2.8,4.4,2.8,5.9c0,1.5-0.3,2.6-0.9,3.2c-0.7,0.6-2,0.9-4,0.9l-0.7-2.3c0.8,0.1,1.5,0.1,2.1,0.1
		c0.6,0,0.9-0.2,1.1-0.4c0.1-0.2,0.2-0.7,0.2-1.5c0-1.5-1-3.5-2.9-5.9c0.8-1.8,1.6-3.9,2.3-6.3h-3.5v19.4h-2.2V90.9H114.7z"/>
	<path style="fill:#FFFFFF;" d="M32.5,127.6c-0.4,0.2-1.4,0.4-2.6,0.4c-3.2,0-5.2-2-5.2-5.1c0-3.3,2.3-5.3,5.4-5.3
		c1.2,0,2.1,0.2,2.4,0.4l-0.4,1.5c-0.5-0.2-1.2-0.4-2-0.4c-2.1,0-3.5,1.3-3.5,3.7c0,2.2,1.3,3.6,3.5,3.6c0.7,0,1.5-0.1,2-0.4
		L32.5,127.6z"/>
	<path style="fill:#FFFFFF;" d="M34,117.2h1.8v4.3h0c0.2-0.3,0.5-0.6,0.9-0.8c0.4-0.2,0.8-0.3,1.3-0.3c1.2,0,2.5,0.8,2.5,3.2v4.3
		h-1.8v-4.1c0-1-0.4-1.9-1.4-1.9c-0.7,0-1.2,0.5-1.4,1c-0.1,0.2-0.1,0.4-0.1,0.6v4.4H34V117.2z"/>
	<path style="fill:#FFFFFF;" d="M45.8,128.1c-2.1,0-3.7-1.4-3.7-3.8c0-2.4,1.6-3.9,3.8-3.9c2.2,0,3.6,1.5,3.6,3.8
		C49.5,126.9,47.7,128.1,45.8,128.1L45.8,128.1z M45.9,126.7c1,0,1.8-1,1.8-2.5c0-1.1-0.5-2.5-1.8-2.5c-1.3,0-1.8,1.3-1.8,2.5
		C44,125.7,44.7,126.7,45.9,126.7L45.9,126.7z"/>
	<path style="fill:#FFFFFF;" d="M52,119.5c-0.6,0-1-0.5-1-1c0-0.6,0.4-1,1-1c0.6,0,1,0.4,1,1C53,119.1,52.6,119.5,52,119.5L52,119.5
		z M51.1,127.9v-7.3h1.8v7.3H51.1z"/>
	<path style="fill:#FFFFFF;" d="M59.9,117.8v4h4.3v-4H66v10.1h-1.8v-4.5h-4.3v4.5h-1.8v-10.1H59.9z"/>
	<path style="fill:#FFFFFF;" d="M74.6,125.7c0,0.9,0,1.6,0.1,2.2h-1.6l-0.1-1.1h0c-0.3,0.5-1,1.3-2.4,1.3c-1.3,0-2.5-0.8-2.5-3.2
		v-4.3h1.8v4c0,1.2,0.4,2,1.4,2c0.8,0,1.2-0.5,1.4-1c0.1-0.2,0.1-0.4,0.1-0.6v-4.4h1.8V125.7z"/>
	<path style="fill:#FFFFFF;" d="M76.6,122.8c0-0.8,0-1.5-0.1-2.2h1.6l0.1,1.1h0c0.3-0.6,1.1-1.3,2.3-1.3c1.3,0,2.6,0.8,2.6,3.1v4.3
		h-1.8v-4.1c0-1-0.4-1.8-1.4-1.8c-0.7,0-1.2,0.5-1.4,1.1c-0.1,0.1-0.1,0.4-0.1,0.6v4.3h-1.8V122.8z"/>
	<path style="fill:#FFFFFF;" d="M91.8,126.8c0,1.5-0.3,2.6-1.1,3.3c-0.8,0.7-1.8,0.9-2.8,0.9c-0.9,0-1.9-0.2-2.5-0.6l0.4-1.4
		c0.5,0.3,1.2,0.6,2.1,0.6c1.2,0,2.1-0.6,2.1-2.2v-0.6h0c-0.4,0.6-1.2,1.1-2.1,1.1c-1.8,0-3.1-1.5-3.1-3.6c0-2.4,1.6-3.9,3.3-3.9
		c1.1,0,1.8,0.5,2.1,1.1h0l0.1-1h1.6c0,0.5-0.1,1.1-0.1,2.1V126.8z M90,123.5c0-0.2,0-0.3-0.1-0.5c-0.2-0.7-0.7-1.2-1.5-1.2
		c-1,0-1.8,0.9-1.8,2.4c0,1.2,0.6,2.2,1.8,2.2c0.7,0,1.3-0.5,1.5-1.1c0.1-0.2,0.1-0.4,0.1-0.6V123.5z"/>
	<path style="fill:#FFFFFF;" d="M102.6,123.4h-3.8v3h4.3v1.5H97v-10.1h5.9v1.5h-4v2.6h3.8V123.4z"/>
	<path style="fill:#FFFFFF;" d="M104.5,126.2c0.4,0.3,1.2,0.5,1.9,0.5c0.8,0,1.2-0.3,1.2-0.8c0-0.5-0.3-0.7-1.2-1.1
		c-1.4-0.5-2-1.3-2-2.1c0-1.3,1.1-2.3,2.8-2.3c0.8,0,1.5,0.2,2,0.4l-0.4,1.3c-0.3-0.2-0.9-0.4-1.5-0.4c-0.7,0-1,0.3-1,0.8
		c0,0.5,0.3,0.7,1.3,1c1.3,0.5,1.9,1.1,1.9,2.2c0,1.3-1,2.3-3,2.3c-0.9,0-1.7-0.2-2.2-0.5L104.5,126.2z"/>
	<path style="fill:#FFFFFF;" d="M113,118.7v1.9h1.8v1.4H113v3.2c0,0.9,0.2,1.4,0.9,1.4c0.3,0,0.5,0,0.7-0.1l0,1.4
		c-0.3,0.1-0.8,0.2-1.3,0.2c-0.7,0-1.2-0.2-1.6-0.6c-0.4-0.4-0.6-1.1-0.6-2.1V122h-1v-1.4h1v-1.4L113,118.7z"/>
	<path style="fill:#FFFFFF;" d="M121.8,126.1c0,0.7,0,1.3,0.1,1.8h-1.7l-0.1-0.8h0c-0.4,0.6-1.2,1-2.2,1c-1.5,0-2.3-1.1-2.3-2.2
		c0-1.8,1.6-2.8,4.3-2.8V123c0-0.5-0.2-1.3-1.5-1.3c-0.7,0-1.5,0.2-2,0.5l-0.4-1.2c0.5-0.3,1.5-0.6,2.6-0.6c2.3,0,3,1.5,3,3.1V126.1
		z M120,124.3c-1.3,0-2.5,0.3-2.5,1.4c0,0.7,0.5,1.1,1,1.1c0.8,0,1.3-0.5,1.5-1c0-0.1,0-0.3,0-0.4V124.3z"/>
	<path style="fill:#FFFFFF;" d="M125.8,118.7v1.9h1.8v1.4h-1.8v3.2c0,0.9,0.2,1.4,0.9,1.4c0.3,0,0.5,0,0.7-0.1l0,1.4
		c-0.3,0.1-0.8,0.2-1.3,0.2c-0.7,0-1.2-0.2-1.6-0.6c-0.4-0.4-0.6-1.1-0.6-2.1V122h-1v-1.4h1v-1.4L125.8,118.7z"/>
	<path style="fill:#FFFFFF;" d="M130.2,124.8c0,1.3,1.1,1.9,2.2,1.9c0.9,0,1.5-0.1,2-0.3l0.3,1.3c-0.6,0.3-1.5,0.5-2.5,0.5
		c-2.4,0-3.8-1.5-3.8-3.7c0-2,1.2-3.9,3.6-3.9c2.4,0,3.2,2,3.2,3.6c0,0.3,0,0.6-0.1,0.8H130.2z M133.4,123.5c0-0.7-0.3-1.8-1.5-1.8
		c-1.1,0-1.6,1-1.7,1.8H133.4z"/>
</g>
<g>
	<path d="M79.4,38.5c-5.3-3.1-9.7-10.6-9.6-16.7c0-2.1,0.5-3.7,1.4-4.9c-2.4,0.7-3.8,3.4-3.8,7.2c0,6.1,4.3,13.6,9.6,16.7
		c3.9,2.2,7.2,1.5,8.8-1.4C84.1,40.1,81.8,39.9,79.4,38.5z"/>
	<path d="M77.1,5.7c-5.8-3.3-10.8-3.6-14.6-1.5c1.6-0.9,3.1-1.9,4.8-2.9c3.8-2.2,9-1.9,14.8,1.4c11.5,6.6,20.7,22.7,20.7,35.8
		c0,3.6-0.5,8.3-3.3,12.8L83.6,75.6l-5.9,3.5l18.2-28.7c1.2-2.3,1.9-5.3,1.9-8.9C97.8,28.4,88.6,12.3,77.1,5.7z"/>
</g>
<path style="fill:#BE0000;" d="M97.8,41.6c0,3.6-0.7,6.5-1.9,8.9L77.7,79.1l-18-46.5c-2-7-2.6-10.4-2.5-15.2
	c0-13.2,8.6-18.2,20-11.6C88.6,12.3,97.8,28.4,97.8,41.6z M77,40.7c5.3,3.1,9.7,0.6,9.7-5.5c0-6.1-4.3-13.6-9.6-16.7
	c-5.3-3.1-9.7-0.6-9.7,5.5C67.3,30.1,71.7,37.6,77,40.7L77,40.7"/>
</svg>
