<svg xmlns="http://www.w3.org/2000/svg" width="100" height="114.51" viewBox="0 0 100 114.51">
  <g id="Layer_2" data-name="Layer 2">
    <g id="Pointer">
      <g>
        <rect y="82.31" width="100" height="32.2" rx="16.1" style="fill: #be0000"/>
        <g>
          <path d="M20.9,99.17V96.78h1.74v2.39h4.78v1.69H22.64v1.5a53.6,53.6,0,0,1,4.61,3l-1,1.54c-1.4-1.26-2.61-2.22-3.6-3v6.33H20.9v-7.46a22.57,22.57,0,0,1-5,5.84l-1-1.49a20.28,20.28,0,0,0,5.7-6.31H15.64V99.17Zm6.64-9.27a41.42,41.42,0,0,1-12.15,1.45l-.5-1.55a44.21,44.21,0,0,0,11.83-1.35Zm-8.76,6.74L17.35,97a24.91,24.91,0,0,0-1.81-4.16l1.38-.46A24.79,24.79,0,0,1,18.78,96.64Zm3.91-1.19L21.21,96a26.38,26.38,0,0,0-1.42-3.64l1.47-.42A29.42,29.42,0,0,1,22.69,95.45Zm4.42-3.53a23.26,23.26,0,0,1-1.84,5l-1.4-.51a23.48,23.48,0,0,0,1.79-4.88ZM37,102.46a29.22,29.22,0,0,1-8.6,7.75l-.8-1.64a24.28,24.28,0,0,0,8.21-7.42ZM35.25,89.27a22.13,22.13,0,0,1-6.57,5.53l-.75-1.59A18,18,0,0,0,34.09,88Zm1,6.54a23.71,23.71,0,0,1-7.2,6l-.77-1.6a20.06,20.06,0,0,0,6.83-5.63Z" style="fill: #fff"/>
          <path d="M44.81,88.16v4.15h3.43v9.83H44.71v4.74l2.1-.58c-.19-.82-.36-1.62-.55-2.37l1.38-.43c.48,1.78.94,3.86,1.35,6.2l-1.5.37c-.12-.78-.24-1.55-.39-2.28a60,60,0,0,1-7.82,2l-.44-1.71c1.45-.22,2.85-.48,4.21-.8v-5.17H39.69V92.31H43V88.16Zm-3.6,5.72v6.72h1.93V93.88Zm5.53,6.72V93.88H44.69v6.72Zm3.43-9.28V89.7H60.65v1.62H56.16v16.43h5.05v1.64H49.47v-1.64h5V91.32Z" style="fill: #fff"/>
          <path d="M68.52,91.13V88.21h1.72v2.92H75v1.69H70.24v8.5h2.61V95.23h1.62v7.71H70.24v4.37a27.16,27.16,0,0,0,4.54-1.54l.34,1.59a45.26,45.26,0,0,1-7.1,2.17l-.46-1.69a1.28,1.28,0,0,0,1-1.3v-3.6H64.3V95.28h1.64v6h2.58v-8.5H63.4V91.13Zm16-2v1.31c-.77,2.46-1.6,4.73-2.49,6.86,1.89,2.44,2.83,4.44,2.85,6a3.92,3.92,0,0,1-.89,2.94c-.65.58-2,.9-3.89.9l-.51-1.76a15,15,0,0,0,1.57.12,2.49,2.49,0,0,0,1.69-.49,3,3,0,0,0,.36-1.71c0-1.52-1-3.53-3-6a59.41,59.41,0,0,0,2.47-6.57H78.55v19.56H76.88V89.12Z" style="fill: #fff"/>
        </g>
        <g>
          <path d="M49.51,38.49c-5.34-3.08-9.65-10.56-9.63-16.7a8.06,8.06,0,0,1,1.36-4.86c-2.36.72-3.8,3.36-3.81,7.17,0,6.14,4.3,13.62,9.64,16.7,3.89,2.25,7.25,1.53,8.79-1.38C54.16,40.13,51.94,39.89,49.51,38.49Z"/>
          <path d="M47.19,5.73C41.42,2.4,36.38,2.09,32.61,4.28c1.58-.91,3.13-1.92,4.78-2.88,3.78-2.19,9-1.88,14.77,1.45C63.62,9.46,72.88,25.5,72.84,38.67a23.45,23.45,0,0,1-3.32,12.81L53.7,75.62l-6,3.47L65.94,50.42a19.06,19.06,0,0,0,1.93-8.87C67.91,28.39,58.65,12.35,47.19,5.73Z"/>
        </g>
        <path d="M67.87,41.55a19.06,19.06,0,0,1-1.93,8.87L47.75,79.09l-18-46.54c-2-7-2.56-10.41-2.55-15.21,0-13.17,8.57-18.22,20-11.61S67.91,28.39,67.87,41.55Zm-20.78-.86c5.35,3.09,9.69.61,9.71-5.53s-4.3-13.62-9.65-16.71-9.68-.6-9.7,5.54,4.3,13.62,9.64,16.7h0" style="fill: #be0000"/>
      </g>
    </g>
  </g>
</svg>
