<svg xmlns="http://www.w3.org/2000/svg" width="100" height="114.51" viewBox="0 0 100 114.51">
  <g id="Layer_2" data-name="Layer 2">
    <g id="Pointer">
      <g>
        <rect y="82.31" width="100" height="32.2" rx="16.1" style="fill: #be0000"/>
        <g>
          <path d="M24.31,88.2v5.22H31.5v13.72c0,.73.39,1.09,1.19,1.09h1.18c.65,0,1.06-.46,1.21-1.33.1-1.09.14-2.25.14-3.48l1.65.49a28.39,28.39,0,0,1-.44,4.13,2.33,2.33,0,0,1-2.56,1.9H32.4c-1.79,0-2.68-.84-2.68-2.53V95.16H24.26a23.85,23.85,0,0,1-2.05,9.3,13.16,13.16,0,0,1-6.29,5.68l-1-1.62a12,12,0,0,0,6-5.41,22.33,22.33,0,0,0,1.67-8H16.41V93.42h6.16V88.2Z" style="fill: #fff"/>
          <path d="M46,102.77c-.82-.19-1.64-.36-2.44-.48a14.54,14.54,0,0,0-1.59-.24v1a13.92,13.92,0,0,1-1.89,7.37l-1.28-1.21a11.73,11.73,0,0,0,1.48-6.06V97.5h8.31v11c0,1.16-.66,1.74-1.91,1.74h-2l-.41-1.55c.68.05,1.33.1,1.91.1s.75-.29.75-.87v-2.39c-1.47.29-3,.55-4.71.77l-.34-1.45c1.74-.17,3.41-.41,5.05-.7V99H42v1.79c1,.09,1.74.21,2.34.31s1.3.22,2.25.41Zm-2.58-13c-.2-.53-.41-1-.63-1.49L44.57,88a16.05,16.05,0,0,1,.6,1.78h4.16v1.5h-1.4l-.78,3.19H49.5V96H39V94.46H41.4l-.7-3.19H39.42v-1.5Zm2.07,4.69.78-3.19h-4l.7,3.19Zm6.74-2h7.35v4.78H52.27v1.57H59.5v1.38H52.27v1.47H59.5v1.4H52.27v1.52H59.5V106H52.27v1.55c0,.53.29.82.9.82h4.95a2,2,0,0,0,.89-.17c.24-.14.41-.7.49-1.67l1.57.51a6.77,6.77,0,0,1-.58,2.39,3,3,0,0,1-2.13.53H52.42a1.57,1.57,0,0,1-1.79-1.78V95.77H58V94H50.61V88.16h1.66v1.3h7.9v1.47h-7.9Z" style="fill: #fff"/>
          <path d="M65.31,94.39V88.28H67v6.11h2.15V96H67v7.34c.68-.33,1.33-.7,2-1.08V104a30.59,30.59,0,0,1-5.65,2.56l-.43-1.64c.82-.22,1.64-.49,2.41-.78V96H63.14V94.39Zm6.84,4c-.1,4.83-1.21,8.72-3.34,11.62l-1.28-1.13c1.86-2.52,2.83-6,2.93-10.49V91.85h7c0-1.16,0-2.39,0-3.67H79c0,1.3,0,2.54.07,3.67h5.43v1.57H79.13a52.28,52.28,0,0,0,.7,7.13c.07.48.17.92.26,1.35a27.75,27.75,0,0,0,2.13-6.23l1.42.6a27.82,27.82,0,0,1-3,7.78,11.73,11.73,0,0,0,.83,2c.58,1.14,1.06,1.72,1.4,1.72s.62-1.21.89-3.53l1.45.8c-.48,3.24-1.16,4.85-2,4.85s-1.67-.72-2.56-2.17a11.43,11.43,0,0,1-1-2.13,14.42,14.42,0,0,1-4.83,4.3l-1-1.32A14,14,0,0,0,79,103.81a22.76,22.76,0,0,1-.68-2.68,52.67,52.67,0,0,1-.82-7.71H72.15V96.9h4.18c0,4.35-.2,7-.54,8a2,2,0,0,1-1.86,1.45H72.29l-.43-1.42h1.66c.54-.05.85-.46,1-1.21a40.8,40.8,0,0,0,.25-5.32H72.15ZM83.6,91l-1.28.56a20.08,20.08,0,0,0-1.69-3.05l1.28-.5A19.86,19.86,0,0,1,83.6,91Z" style="fill: #fff"/>
        </g>
        <g>
          <path d="M49.51,38.49c-5.34-3.08-9.65-10.56-9.63-16.7a8.06,8.06,0,0,1,1.36-4.86c-2.36.72-3.8,3.36-3.81,7.17,0,6.14,4.3,13.62,9.64,16.7,3.89,2.25,7.25,1.53,8.79-1.38C54.16,40.13,51.94,39.89,49.51,38.49Z"/>
          <path d="M47.19,5.73C41.42,2.4,36.38,2.09,32.61,4.28c1.58-.91,3.13-1.92,4.78-2.88,3.78-2.19,9-1.88,14.77,1.45C63.62,9.46,72.88,25.5,72.84,38.67a23.45,23.45,0,0,1-3.32,12.81L53.7,75.62l-6,3.47L65.94,50.42a19.06,19.06,0,0,0,1.93-8.87C67.91,28.39,58.65,12.35,47.19,5.73Z"/>
        </g>
        <path d="M67.87,41.55a19.06,19.06,0,0,1-1.93,8.87L47.75,79.09l-18-46.54c-2-7-2.56-10.41-2.55-15.21,0-13.17,8.57-18.22,20-11.61S67.91,28.39,67.87,41.55Zm-20.78-.86c5.35,3.09,9.69.61,9.71-5.53s-4.3-13.62-9.65-16.71-9.68-.6-9.7,5.54,4.3,13.62,9.64,16.7h0" style="fill: #be0000"/>
      </g>
    </g>
  </g>
</svg>
