<?xml version="1.0" encoding="utf-8"?>
<!-- Generator: Adobe Illustrator 26.0.1, SVG Export Plug-In . SVG Version: 6.00 Build 0)  -->
<svg version="1.1" id="Layer_1" xmlns="http://www.w3.org/2000/svg" xmlns:xlink="http://www.w3.org/1999/xlink" x="0px" y="0px"
	 width="130px" height="134.9px" viewBox="0 0 130 134.9" style="enable-background:new 0 0 130 134.9;" xml:space="preserve">
<path style="fill:#BE0000;" d="M103.5,135.3h-77C11.9,135.3,0,123.4,0,108.8v0c0-14.6,11.9-26.5,26.5-26.5h77
	c14.6,0,26.5,11.9,26.5,26.5v0C130,123.4,118.1,135.3,103.5,135.3z"/>
<g>
	<path style="fill:#FFFFFF;" d="M39.6,90.1v5h7.1v13.5c0,0.7,0.4,1.1,1.2,1.1h0.8c0.5,0,0.9-0.4,1-1.1c0.1-1.1,0.1-2.2,0.1-3.4
		l2.1,0.6c-0.2,2.3-0.3,3.7-0.5,4.3c-0.3,1.3-1.2,1.9-2.8,1.9h-1.2c-2.2,0-3.2-1-3.2-3V97.4h-4.8c-0.2,3.7-0.9,6.8-2.1,9.1
		c-1.3,2.4-3.4,4.3-6.3,5.7l-1.3-2.1c2.9-1.4,4.8-3.1,5.8-5.3c0.9-2,1.4-4.4,1.6-7.4h-5.9v-2.3h6v-5H39.6z"/>
	<path style="fill:#FFFFFF;" d="M55.4,112.5l-1.7-1.6c0.9-1.6,1.4-3.7,1.4-6.2v-5.4h8.7v11c0,1.3-0.7,2-2.2,2h-1.9l-0.5-2
		c0.6,0.1,1.2,0.1,1.8,0.1c0.5,0,0.7-0.3,0.7-0.9v-1.7c-1.3,0.3-2.7,0.5-4.2,0.7l-0.4-1.5C56.9,109.2,56.3,111.1,55.4,112.5z
		 M58.1,91.6c-0.2-0.5-0.3-0.9-0.5-1.3l2.3-0.4c0.2,0.5,0.4,1.1,0.5,1.7h4v1.9h-1.3l-0.7,2.7h2.1v2H53.9v-2h2.1l-0.6-2.7h-1.1v-1.9
		H58.1z M60.7,105c-0.8-0.2-1.6-0.4-2.4-0.5c-0.3-0.1-0.7-0.1-1-0.2v0.3c0,0.7,0,1.4-0.1,2c1.5-0.1,3-0.4,4.5-0.6v-4.8h-4.3v1.4
		c0.8,0.1,1.5,0.2,1.9,0.3c0.5,0.1,1.3,0.2,2.1,0.4L60.7,105z M60.4,96.2l0.7-2.7h-3.5l0.6,2.7H60.4z M67.6,94.3h7.2v5.2h-7.2v1.2h7
		v1.8h-7v1.1h7v1.8h-7v1.1h7v1.8h-7v1c0,0.5,0.3,0.7,0.8,0.7H73c0.3,0,0.6,0,0.7-0.1c0.2-0.1,0.3-0.6,0.4-1.4l2.1,0.7
		c-0.1,1.3-0.3,2.1-0.6,2.4c-0.3,0.3-1.1,0.5-2.3,0.5h-5.9c-1.4,0-2-0.7-2-2V97.5h7.1v-1.3h-7.2v-6.1h2.2v1.1h7.7v1.9h-7.7V94.3z"/>
	<path style="fill:#FFFFFF;" d="M80,96.1v-5.9h2.2v5.9h2v2.2h-2v6.6l1.7-1v2.2c-1.8,1.1-3.6,1.9-5.7,2.7l-0.6-2.2
		c0.8-0.2,1.5-0.4,2.3-0.7v-7.6h-2v-2.2H80z M84.1,112.1l-1.7-1.5c1.8-2.5,2.7-5.9,2.8-10.2v-6.8h7c0-1.1,0-2.3,0-3.5h2.1
		c0,1.3,0,2.4,0.1,3.5h5.2v2.1h-5.2c0.1,2.9,0.3,5.1,0.7,6.7c0,0.3,0.1,0.5,0.1,0.7c0.7-1.6,1.3-3.5,1.8-5.5l1.9,0.8
		c-0.7,3-1.7,5.5-2.9,7.6c0.2,0.7,0.4,1.2,0.7,1.7c0.5,1.1,0.9,1.6,1.2,1.6c0.2,0,0.5-1.1,0.7-3.2l1.9,1.1c-0.5,3.3-1.2,5-2.2,5
		c-0.9,0-1.8-0.7-2.7-2.2c-0.4-0.5-0.7-1.1-1-1.8c-1.3,1.7-2.9,3-4.5,3.9l-1.4-1.8c2-1,3.7-2.6,5.1-4.6c-0.2-0.8-0.4-1.6-0.6-2.5
		c-0.4-2-0.7-4.5-0.9-7.5h-4.8v3h4.1c0,4.5-0.2,7.2-0.6,8.2c-0.4,1-1.1,1.4-2,1.5h-1.6l-0.6-1.9h1.7c0.4,0,0.7-0.4,0.8-1.1
		c0.1-0.7,0.2-2.3,0.2-4.8h-2C87.3,105.4,86.2,109.2,84.1,112.1z M98.8,92.8l-1.6,0.7c-0.5-1.1-1-2.1-1.6-2.9l1.7-0.7
		C97.8,90.9,98.3,91.8,98.8,92.8z"/>
	<path style="fill:#FFFFFF;" d="M23,117.8h1.8v4.6h0c0.2-0.4,0.5-0.8,0.7-1.1l2.7-3.6h2.3l-3.5,4.3l3.7,5.8h-2.2l-2.9-4.6l-0.9,1.1
		v3.6H23V117.8z"/>
	<path style="fill:#FFFFFF;" d="M34.7,128.1c-2.1,0-3.7-1.4-3.7-3.8c0-2.4,1.6-3.9,3.8-3.9c2.2,0,3.6,1.5,3.6,3.8
		C38.5,126.9,36.6,128.1,34.7,128.1L34.7,128.1z M34.8,126.7c1,0,1.8-1,1.8-2.5c0-1.1-0.5-2.5-1.8-2.5c-1.3,0-1.8,1.3-1.8,2.5
		C32.9,125.7,33.7,126.7,34.8,126.7L34.8,126.7z"/>
	<path style="fill:#FFFFFF;" d="M41,120.6l0.8,3.3c0.2,0.8,0.3,1.6,0.5,2.4h0c0.1-0.8,0.4-1.6,0.6-2.4l1-3.3h1.5l0.9,3.2
		c0.2,0.9,0.4,1.6,0.6,2.4h0c0.1-0.8,0.3-1.6,0.5-2.4l0.8-3.2h1.8l-2.3,7.3h-1.7l-0.9-3c-0.2-0.8-0.4-1.5-0.6-2.3h0
		c-0.2,0.9-0.3,1.6-0.6,2.3l-0.9,3h-1.7l-2.2-7.3H41z"/>
	<path style="fill:#FFFFFF;" d="M51.1,117.2h1.8v10.7h-1.8V117.2z"/>
	<path style="fill:#FFFFFF;" d="M58.1,128.1c-2.1,0-3.7-1.4-3.7-3.8c0-2.4,1.6-3.9,3.8-3.9c2.2,0,3.6,1.5,3.6,3.8
		C61.9,126.9,60,128.1,58.1,128.1L58.1,128.1z M58.2,126.7c1,0,1.8-1,1.8-2.5c0-1.1-0.5-2.5-1.8-2.5c-1.3,0-1.8,1.3-1.8,2.5
		C56.4,125.7,57.1,126.7,58.2,126.7L58.2,126.7z"/>
	<path style="fill:#FFFFFF;" d="M66.6,128.1c-2.1,0-3.7-1.4-3.7-3.8c0-2.4,1.6-3.9,3.8-3.9c2.2,0,3.6,1.5,3.6,3.8
		C70.3,126.9,68.5,128.1,66.6,128.1L66.6,128.1z M66.7,126.7c1,0,1.8-1,1.8-2.5c0-1.1-0.5-2.5-1.8-2.5c-1.3,0-1.8,1.3-1.8,2.5
		C64.8,125.7,65.5,126.7,66.7,126.7L66.7,126.7z"/>
	<path style="fill:#FFFFFF;" d="M71.9,122.8c0-0.8,0-1.5-0.1-2.2h1.6l0.1,1.1h0c0.3-0.6,1.1-1.3,2.3-1.3c1.3,0,2.6,0.8,2.6,3.1v4.3
		h-1.8v-4.1c0-1-0.4-1.8-1.4-1.8c-0.7,0-1.2,0.5-1.4,1.1c-0.1,0.1-0.1,0.4-0.1,0.6v4.3h-1.8V122.8z"/>
	<path style="fill:#FFFFFF;" d="M90.9,127.6c-0.4,0.2-1.4,0.4-2.6,0.4c-3.2,0-5.2-2-5.2-5.1c0-3.3,2.3-5.3,5.4-5.3
		c1.2,0,2.1,0.2,2.4,0.4l-0.4,1.5c-0.5-0.2-1.2-0.4-2-0.4c-2.1,0-3.5,1.3-3.5,3.7c0,2.2,1.3,3.6,3.5,3.6c0.7,0,1.5-0.1,2-0.4
		L90.9,127.6z"/>
	<path style="fill:#FFFFFF;" d="M93.3,119.5c-0.6,0-1-0.5-1-1c0-0.6,0.4-1,1-1c0.6,0,1,0.4,1,1C94.3,119.1,93.9,119.5,93.3,119.5
		L93.3,119.5z M92.4,127.9v-7.3h1.8v7.3H92.4z"/>
	<path style="fill:#FFFFFF;" d="M98.3,118.7v1.9h1.8v1.4h-1.8v3.2c0,0.9,0.2,1.4,0.9,1.4c0.3,0,0.5,0,0.7-0.1l0,1.4
		c-0.3,0.1-0.8,0.2-1.3,0.2c-0.7,0-1.2-0.2-1.6-0.6c-0.4-0.4-0.6-1.1-0.6-2.1V122h-1v-1.4h1v-1.4L98.3,118.7z"/>
	<path style="fill:#FFFFFF;" d="M102.7,120.6l1.3,3.9c0.1,0.4,0.3,1,0.4,1.4h0c0.1-0.4,0.2-1,0.4-1.4l1.1-3.9h2l-1.8,5
		c-1,2.7-1.7,3.9-2.5,4.7c-0.7,0.6-1.5,0.9-1.9,0.9l-0.4-1.5c0.3-0.1,0.7-0.2,1.1-0.5c0.3-0.2,0.8-0.7,1-1.2
		c0.1-0.1,0.1-0.2,0.1-0.3c0-0.1,0-0.2-0.1-0.4l-2.7-6.7H102.7z"/>
</g>
<g>
	<path d="M64.5,38.5c-5.3-3.1-9.7-10.6-9.6-16.7c0-2.1,0.5-3.7,1.4-4.9c-2.4,0.7-3.8,3.4-3.8,7.2c0,6.1,4.3,13.6,9.6,16.7
		c3.9,2.2,7.2,1.5,8.8-1.4C69.2,40.1,66.9,39.9,64.5,38.5z"/>
	<path d="M62.2,5.7c-5.8-3.3-10.8-3.6-14.6-1.5c1.6-0.9,3.1-1.9,4.8-2.9c3.8-2.2,9-1.9,14.8,1.4c11.5,6.6,20.7,22.7,20.7,35.8
		c0,3.6-0.5,8.3-3.3,12.8L68.7,75.6l-5.9,3.5l18.2-28.7c1.2-2.3,1.9-5.3,1.9-8.9C82.9,28.4,73.6,12.3,62.2,5.7z"/>
</g>
<path style="fill:#BE0000;" d="M82.9,41.6c0,3.6-0.7,6.5-1.9,8.9L62.8,79.1l-18-46.5c-2-7-2.6-10.4-2.5-15.2
	c0-13.2,8.6-18.2,20-11.6C73.6,12.3,82.9,28.4,82.9,41.6z M62.1,40.7c5.3,3.1,9.7,0.6,9.7-5.5c0-6.1-4.3-13.6-9.6-16.7
	c-5.3-3.1-9.7-0.6-9.7,5.5C52.4,30.1,56.8,37.6,62.1,40.7L62.1,40.7"/>
</svg>
