<svg xmlns="http://www.w3.org/2000/svg" width="200" height="114.51" viewBox="0 0 200 114.51">
  <g id="Layer_2" data-name="Layer 2">
    <g id="Pointer">
      <g>
        <rect y="82.31" width="200" height="32.2" rx="16.1" style="fill: #be0000"/>
        <g>
          <path d="M21.47,107.87a14.1,14.1,0,0,1-2.88,2.48l-1.23-.87a10.9,10.9,0,0,0,2.83-2.24Zm-1.07-14H24V95H20.5l.1,1.33H34.51l.1-1.21H31.06V94H34.7l.1-1.28H31.13V91.54H34.9L35,90.26H31V88.93h5.56l-.53,7.39h1.66v3.82H36.06V97.67h-17V100H17.38V96.32h1.67l-.53-7.15a33.42,33.42,0,0,0,5.05-.87l.55,1.26a32.2,32.2,0,0,1-4,.77l.1,1.23h3.72v1.16H20.31Zm15.1,7.56V107H20.33v-4.47l-1.33.58-1-1.33c3-1,5.1-2.32,6.19-3.82l1.61.2a8,8,0,0,1-.65.91h8.12v1a18.37,18.37,0,0,1-1.62,1.35ZM22,102.55v1.11h5.14v-1.11Zm0,3.29h5.14v-1.16H22Zm7.58-4.45a20.15,20.15,0,0,0,1.77-1.18H24.08a14.06,14.06,0,0,1-1.65,1.18Zm-3.59,8.82-1.57.14a17.29,17.29,0,0,0-.92-2.65l1.47-.2A19.57,19.57,0,0,1,25.94,110.21Zm1.83-20.56a10.48,10.48,0,0,0,1.47-1.11l1,.63a16.73,16.73,0,0,1-1.4,1.14,16.34,16.34,0,0,1,1.47,1l-.87.85A16.09,16.09,0,0,0,27.79,91,18.81,18.81,0,0,1,25,92.19l-.67-1.06a13.06,13.06,0,0,0,2.24-.85c-.53-.29-1.09-.6-1.67-.89l.83-.8C26.49,88.93,27.14,89.29,27.77,89.65Zm0,3.84a11.83,11.83,0,0,0,1.62-1.3l1,.63a15.14,15.14,0,0,1-1.52,1.3c.58.34,1.14.68,1.62,1l-.85.84a21.65,21.65,0,0,0-1.83-1.18A20.85,20.85,0,0,1,25.16,96l-.65-1.06a18.44,18.44,0,0,0,2.08-.8c-.53-.26-1.07-.53-1.65-.79l.85-.83C26.49,92.84,27.14,93.16,27.75,93.49Zm6.13,9.06H28.64v1.11h5.24Zm0,3.29v-1.16H28.64v1.16Zm-2.32,4.37-1.57.17a13.64,13.64,0,0,0-1.25-2.71l1.47-.19A22.39,22.39,0,0,1,31.56,110.21Zm6.36-.73-1.21.85a21.2,21.2,0,0,0-2.47-2.44l1.16-.72A19.54,19.54,0,0,1,37.92,109.48Z" style="fill: #fff"/>
          <path d="M43.76,94.68V88.25H45.5v6.43h2.7v1.69H45.5v7.95c1.08-.39,2.15-.8,3.18-1.28v1.71A48.75,48.75,0,0,1,41,107.43l-.44-1.74c1.07-.24,2.13-.5,3.17-.79V96.37H40.91V94.68Zm13-6.52v5.62l5.07-1.49a53.53,53.53,0,0,1-1.08,9.54l-1.6-.49a55.5,55.5,0,0,0,1-6.86l-3.41,1v9.61H55.13V96L52,96.9V107c0,.82.39,1.26,1.16,1.26h6.21a1.21,1.21,0,0,0,1.11-.51,9.4,9.4,0,0,0,.56-3.6l1.61.51c-.17,2.49-.48,4-1,4.54a2.63,2.63,0,0,1-2,.7h-7c-1.55,0-2.3-.87-2.3-2.56v-9.9l-1.73.5V96.22l1.73-.5v-5.1H52v4.59l3.09-.92V88.16Z" style="fill: #fff"/>
          <path d="M68.12,94.58V88.3h1.74v6.28h2.85v1.69H69.86v8a34.52,34.52,0,0,0,3.31-1.31v1.77a55.86,55.86,0,0,1-8,2.68l-.41-1.76c1.16-.25,2.3-.51,3.38-.83v-8.5H65.2V94.58Zm5.22-1V91.92h6.11A31.36,31.36,0,0,0,78,88.28L79.86,88a35.24,35.24,0,0,1,1.4,4h5.32v1.67H78.27v1.74c0,.82,0,1.64-.1,2.42h7.2a72.91,72.91,0,0,1-.53,10.14,2.93,2.93,0,0,1-3.07,2.17c-.82,0-1.76,0-2.85-.07l-.48-1.52c1.25,0,2.29.1,3.14.1a1.84,1.84,0,0,0,1.81-1.65c.14-1.15.22-3.67.27-7.53H78q-.93,7.14-5,10.87l-1.35-1.19q4.78-4.27,4.85-13.74V93.59Z" style="fill: #fff"/>
          <path d="M94.81,94.8q-1.74,7.24-4.57,11l-1.49-1.33a26.77,26.77,0,0,0,4.32-10.36ZM95.15,110l-.41-1.81c1.21.1,2.36.14,3.45.14A1.2,1.2,0,0,0,99.54,107V88.52h1.79v19A2.24,2.24,0,0,1,98.84,110Zm16-5.19-1.55,1.08a111.21,111.21,0,0,0-4.42-11.4l1.57-1A114.24,114.24,0,0,1,111.19,104.85Z" style="fill: #fff"/>
          <path d="M116.86,105.23a24.89,24.89,0,0,1-2.47,4.81l-1.4-.72a26.64,26.64,0,0,0,2.54-4.71ZM121.5,89.1v14.71h-7.35V89.1Zm-1.67,4.32V90.64h-4v2.78Zm0,4.33V94.9h-4v2.85Zm0,1.44h-4v3.07h4Zm1.76,9.23-1.28.9a28.31,28.31,0,0,0-2.27-4l1.26-.79A31.46,31.46,0,0,1,121.59,108.42Zm13.26-17.58h-9.61v4.44H134v1.26a16.91,16.91,0,0,1-2.9,8.57,16.17,16.17,0,0,0,4.23,3.67l-.82,1.45a16.73,16.73,0,0,1-4.42-3.79,20.32,20.32,0,0,1-4.5,3.87l-1.08-1.26a18.72,18.72,0,0,0,4.58-3.94,19.56,19.56,0,0,1-3-8.23h-.89v.45q-.1,8.16-2.56,13.07l-1.23-1.13c1.35-2.85,2.07-6.84,2.12-11.94V89.22h11.28Zm-2.39,6h-4.85a17.16,17.16,0,0,0,2.49,6.86A15.9,15.9,0,0,0,132.46,96.88Z" style="fill: #fff"/>
          <path d="M147.36,90.93a24.93,24.93,0,0,0-1.26-2.73l1.86-.29c.39.9.78,1.91,1.16,3H159V92.6h-9.8v3.17h7.85v8.76a2,2,0,0,1-2.2,2.2h-2.42l-.43-1.67,2.29.1a.9.9,0,0,0,1-1V97.43H149.2v12.83h-1.79V97.43h-5.82v9.47h-1.72V95.77h7.54V92.6H137.6V90.93Z" style="fill: #fff"/>
          <path d="M164.31,94.58V88.2H166v6.38h2.63v1.69H166v8.07c.87-.34,1.74-.68,2.58-1.06V105a45.75,45.75,0,0,1-6.78,2.34l-.44-1.67c1-.21,2-.45,3-.74V96.27h-2.78V94.58Zm19.16,3.09v1.52h-9.23a10.68,10.68,0,0,1-1,1.5h9.35a53.67,53.67,0,0,1-.36,5.63,6.7,6.7,0,0,1-.94,3,2.78,2.78,0,0,1-2.1.87H177.4l-.43-1.57c.51,0,1,.07,1.45.07a1.89,1.89,0,0,0,2-1.23,23.23,23.23,0,0,0,.62-5.34h-1.35a13.19,13.19,0,0,1-8.07,8l-.94-1.4a12,12,0,0,0,7.47-6.64H176a12.48,12.48,0,0,1-6.14,5.09l-1-1.2a11.84,11.84,0,0,0,5.51-3.89H172a14.36,14.36,0,0,1-2.32,1.71l-1-1.3a10,10,0,0,0,3.87-3.34h-3.5V97.67ZM181.68,89v7.22H170.57V89Zm-1.62,3V90.43h-7.9V92Zm0,1.28h-7.9v1.6h7.9Z" style="fill: #fff"/>
        </g>
        <g>
          <path d="M99.51,38.49c-5.34-3.08-9.65-10.56-9.63-16.7a8.06,8.06,0,0,1,1.36-4.86c-2.36.72-3.8,3.36-3.81,7.17,0,6.14,4.3,13.62,9.64,16.7,3.89,2.25,7.25,1.53,8.79-1.38C104.16,40.13,101.94,39.89,99.51,38.49Z"/>
          <path d="M97.19,5.73C91.42,2.4,86.38,2.09,82.61,4.28c1.58-.91,3.13-1.92,4.78-2.88,3.78-2.19,9-1.88,14.77,1.45,11.46,6.61,20.72,22.65,20.68,35.82a23.45,23.45,0,0,1-3.32,12.81L103.7,75.62l-6,3.47,18.19-28.67a19.06,19.06,0,0,0,1.93-8.87C117.91,28.39,108.65,12.35,97.19,5.73Z"/>
        </g>
        <path d="M117.87,41.55a19.06,19.06,0,0,1-1.93,8.87L97.75,79.09l-18-46.54c-2-7-2.56-10.41-2.55-15.21,0-13.17,8.57-18.22,20-11.61S117.91,28.39,117.87,41.55Zm-20.78-.86c5.35,3.09,9.69.61,9.71-5.53s-4.3-13.62-9.65-16.71-9.68-.6-9.7,5.54,4.3,13.62,9.64,16.7h0" style="fill: #be0000"/>
      </g>
    </g>
  </g>
</svg>
