<?xml version="1.0" encoding="utf-8"?>
<!-- Generator: Adobe Illustrator 26.0.1, SVG Export Plug-In . SVG Version: 6.00 Build 0)  -->
<svg version="1.1" id="Layer_1" xmlns="http://www.w3.org/2000/svg" xmlns:xlink="http://www.w3.org/1999/xlink" x="0px" y="0px"
	 width="230px" height="134.9px" viewBox="0 0 230 134.9" style="enable-background:new 0 0 230 134.9;" xml:space="preserve">
<path style="fill:#BE0000;" d="M204,135.3H26c-14.4,0-26-11.6-26-26l0-1c0-14.4,11.6-26,26-26h178c14.4,0,26,11.6,26,26v1
	C230,123.7,218.4,135.3,204,135.3z"/>
<g>
	<path style="fill:#FFFFFF;" d="M35.7,95.7H39v1.4h-3.3l0.1,1h13.4l0.1-0.8h-3.3v-1.5h3.4l0.1-1h-3.4v-1.4h3.5l0.1-0.9H46v-1.7h5.8
		l-0.5,7.4h1.6v4.1h-2.2v-2.3H34.4v2.2h-2.2v-3.9h1.7L33.3,91c1.7-0.1,3.5-0.4,5.2-0.8l0.7,1.6c-0.8,0.2-2.1,0.5-3.8,0.7l0.1,0.9H39
		v1.4h-3.4L35.7,95.7z M36.7,110c-0.8,0.9-1.7,1.8-2.8,2.5l-1.6-1.1c1.1-0.6,2-1.3,2.8-2.1L36.7,110z M50.8,103.2v5.9h-0.1
		c1.1,0.8,1.9,1.6,2.4,2.2l-1.6,1.1c-0.6-0.7-1.4-1.6-2.4-2.4l1.4-0.9H35.2v-4.4c-0.4,0.1-0.7,0.3-1.1,0.5l-1.3-1.7
		c3-0.9,5-2.1,6.1-3.5l2.1,0.3c-0.1,0.2-0.3,0.5-0.5,0.7h7.9v1.2c-0.4,0.4-0.8,0.8-1.3,1.1H50.8z M37.4,104.7v0.8h4.6v-0.8H37.4z
		 M37.4,107.6h4.6v-0.8h-4.6V107.6z M44.6,103.2c0.4-0.3,0.9-0.6,1.3-0.8h-6.7c-0.4,0.3-0.8,0.6-1.2,0.8H44.6z M41.2,112.2l-2.1,0.2
		c-0.2-1-0.5-1.9-0.9-2.7l1.9-0.3C40.5,110.3,40.9,111.2,41.2,112.2z M42.7,91.5c0.5-0.3,0.9-0.7,1.4-1l1.3,0.8
		c-0.4,0.4-0.8,0.7-1.3,1.1c0.5,0.3,0.9,0.6,1.3,0.9l-0.9,0.9l1.1,0.7c-0.5,0.5-0.9,0.9-1.4,1.2c0.5,0.3,1,0.6,1.4,0.9L44.6,98
		c-0.5-0.4-1.1-0.7-1.7-1.1c-0.7,0.3-1.5,0.7-2.4,1.1l-0.8-1.4c0.6-0.2,1.1-0.4,1.7-0.6c-0.4-0.2-0.9-0.4-1.3-0.6l1.1-1
		c0.6,0.3,1.2,0.6,1.7,0.8c0.5-0.3,0.9-0.7,1.4-1c-0.4-0.3-0.9-0.7-1.4-1c-0.7,0.4-1.6,0.7-2.6,1.2L39.3,93c0.7-0.2,1.4-0.4,2-0.7
		c-0.5-0.3-0.9-0.5-1.4-0.8l1-1C41.6,90.8,42.2,91.1,42.7,91.5z M46.8,112.2l-2.1,0.2c-0.3-1-0.7-1.9-1.1-2.7l1.9-0.3
		C45.9,110.3,46.4,111.2,46.8,112.2z M48.7,104.7H44v0.8h4.7V104.7z M48.7,107.6v-0.8H44v0.8H48.7z"/>
	<path style="fill:#FFFFFF;" d="M58.5,96.3v-6.2h2.3v6.2h2.5v2.2h-2.5v7.3c1-0.4,2-0.8,2.9-1.2v2.3c-2.4,1.1-4.9,2-7.6,2.7l-0.6-2.3
		c1-0.2,2-0.4,3-0.7v-8h-2.7v-2.2H58.5z M72.1,90.1v5.3l5-1.5c0,3.2-0.4,6.5-1.2,10l-2.1-0.7c0.5-1.9,0.8-4,1.1-6.4l-2.8,0.8v9.5
		h-2.2v-8.9L67.4,99v9.6c0,0.8,0.4,1.2,1.1,1.2h5.9c0.4,0,0.7-0.2,0.9-0.5c0.2-0.3,0.4-1.4,0.5-3.3l2.1,0.7c-0.2,2.5-0.5,4.1-1,4.5
		c-0.5,0.5-1.1,0.7-2.1,0.7h-7.1c-1.8,0-2.7-1-2.7-2.9v-9.4l-1.5,0.4v-2.2l1.5-0.4v-4.9h2.2v4.2l2.5-0.7v-6H72.1z"/>
	<path style="fill:#FFFFFF;" d="M82.9,96.3v-6.1h2.3v6.1h2.7v2.2h-2.7v7.3c1-0.4,2-0.8,3-1.2v2.3c-2.5,1.1-5.1,2-7.9,2.7l-0.6-2.3
		c1.1-0.2,2.1-0.4,3.1-0.7v-8h-2.7v-2.2H82.9z M88.3,95.9v-2.2h5.8c-0.4-1.2-0.8-2.3-1.3-3.4l2.5-0.4c0.4,1.1,0.8,2.4,1.3,3.8h5.2
		v2.2h-8.1v1.5c0,0.7,0,1.4-0.1,2.1h7.2c-0.1,5.7-0.3,9.3-0.7,10.7c-0.5,1.3-1.5,1.9-3.1,1.9c-0.8,0-1.8,0-2.9-0.1l-0.6-2
		c1.3,0.1,2.4,0.1,3.2,0.1c0.8,0,1.3-0.5,1.5-1.3c0.1-1,0.2-3.4,0.3-7.3h-5.1c-0.7,4.7-2.3,8.2-4.8,10.7l-1.8-1.6
		c3-2.8,4.6-7.3,4.7-13.4v-1.5H88.3z"/>
	<path style="fill:#FFFFFF;" d="M110,97c-1.1,4.8-2.6,8.4-4.4,10.9l-2-1.8c1.8-2.5,3.2-5.9,4.1-10.1L110,97z M110.1,112.1l-0.6-2.4
		c1.2,0.1,2.2,0.2,3.2,0.2c0.9,0,1.4-0.5,1.4-1.4v-18h2.4v18.6c0,2-1,3-2.9,3H110.1z M126.3,106.6l-2.1,1.4c-1-3.4-2.4-7.1-4.1-11.3
		l2.1-1.3C124,99.7,125.3,103.4,126.3,106.6z"/>
	<path style="fill:#FFFFFF;" d="M132,107.4c-0.6,1.6-1.4,3.2-2.4,4.8l-1.8-1c1-1.5,1.9-3.1,2.5-4.6L132,107.4z M136.7,90.9V106h-7.8
		V90.9H136.7z M134.5,95.2v-2.2h-3.3v2.2H134.5z M134.5,99.5v-2.4h-3.3v2.4H134.5z M134.5,101.4h-3.3v2.6h3.3V101.4z M149.9,93.1
		h-9.4V97h8.6v1.6c-0.2,3.2-1.1,5.9-2.7,8.3c1.1,1.3,2.4,2.5,3.9,3.5l-1.1,1.9c-1.6-1-3-2.2-4.2-3.6c-1.2,1.4-2.6,2.6-4.2,3.6
		l-1.4-1.6c1.7-1.1,3.2-2.4,4.3-3.8c-1.4-2.2-2.2-4.8-2.7-7.8h-0.7c-0.1,5.6-0.9,10-2.6,13.4l-1.6-1.5l0.2-0.5l-1.5,1
		c-0.5-1.2-1.3-2.5-2.2-4l1.6-1c0.9,1.4,1.6,2.6,2.2,3.7c1.1-2.8,1.6-6.5,1.7-11.2v-8h11.5V93.1z M147.2,99.1h-4
		c0.3,2.2,1,4.2,2,5.9C146.2,103.2,146.9,101.3,147.2,99.1z"/>
	<path style="fill:#FFFFFF;" d="M162,92.7c-0.4-0.9-0.7-1.7-1.2-2.4l2.5-0.4c0.4,0.8,0.7,1.8,1,2.8h9.7v2.2h-9.6v2.6h7.9v9
		c0,1.5-0.8,2.3-2.4,2.3h-2.4l-0.6-2.2l2.3,0.1c0.6,0,0.9-0.3,0.9-0.8v-6.2h-5.6v12.7h-2.3V99.7h-5.3v9.3h-2.2V97.5h7.5v-2.6h-9.6
		v-2.2H162z"/>
	<path style="fill:#FFFFFF;" d="M179,96.3v-6.1h2.2v6.1h2.4v2.2h-2.4v7.4c0.8-0.3,1.6-0.7,2.3-1v2.2c-2.1,0.9-4.4,1.7-6.8,2.4
		l-0.6-2.2c1-0.2,1.9-0.4,2.8-0.7v-8.1h-2.6v-2.2H179z M198.6,99.5v2h-9.1c-0.2,0.4-0.4,0.7-0.7,1.1h9c0,2.4-0.2,4.3-0.4,5.8
		c-0.2,1.4-0.5,2.5-0.9,3c-0.4,0.6-1.1,0.9-2.1,0.9h-2.1l-0.6-2.1c0.6,0,1.1,0.1,1.6,0.1c0.8,0,1.4-0.4,1.7-1.1
		c0.3-0.8,0.5-2.4,0.6-4.8h-0.9c-1.6,4-4.2,6.6-7.8,7.9l-1.2-1.8c3.2-1.1,5.6-3.1,7-6.1h-1.6c-1.2,2.1-3.2,3.8-5.9,5l-1.3-1.6
		c2.3-0.9,4-2,5-3.4h-1.8c-0.7,0.6-1.4,1.1-2.2,1.6l-1.3-1.7c1.6-0.8,2.8-1.8,3.6-2.9h-3.1v-2H198.6z M196.9,90.9v7.6h-11.4v-7.6
		H196.9z M194.8,93.9v-1.2h-7.2v1.2H194.8z M194.8,95.5h-7.2v1.2h7.2V95.5z"/>
	<path style="fill:#FFFFFF;" d="M20.4,117.8v4h4.3v-4h1.8v10.1h-1.8v-4.5h-4.3v4.5h-1.8v-10.1H20.4z"/>
	<path style="fill:#FFFFFF;" d="M34.2,126.1c0,0.7,0,1.3,0.1,1.8h-1.7l-0.1-0.8h0c-0.4,0.6-1.2,1-2.2,1c-1.5,0-2.3-1.1-2.3-2.2
		c0-1.8,1.6-2.8,4.3-2.8V123c0-0.5-0.2-1.3-1.5-1.3c-0.7,0-1.5,0.2-2,0.5l-0.4-1.2c0.5-0.3,1.5-0.6,2.6-0.6c2.3,0,3,1.5,3,3.1V126.1
		z M32.4,124.3c-1.3,0-2.6,0.3-2.6,1.4c0,0.7,0.5,1.1,1.1,1.1c0.8,0,1.3-0.5,1.5-1c0-0.1,0-0.3,0-0.4V124.3z"/>
	<path style="fill:#FFFFFF;" d="M42.7,125.7c0,0.9,0,1.6,0.1,2.2h-1.6l-0.1-1.1h0c-0.3,0.5-1,1.3-2.4,1.3c-1.3,0-2.5-0.8-2.5-3.2
		v-4.3H38v4c0,1.2,0.4,2,1.4,2c0.7,0,1.2-0.5,1.4-1c0.1-0.2,0.1-0.4,0.1-0.6v-4.4h1.8V125.7z"/>
	<path style="fill:#FFFFFF;" d="M49.2,119.3h-2.9v-1.5H54v1.5h-2.9v8.6h-1.8V119.3z"/>
	<path style="fill:#FFFFFF;" d="M55.2,124.8c0,1.3,1.1,1.9,2.2,1.9c0.9,0,1.5-0.1,2-0.3l0.3,1.3c-0.6,0.3-1.5,0.5-2.6,0.5
		c-2.4,0-3.8-1.5-3.8-3.7c0-2,1.2-3.9,3.6-3.9c2.4,0,3.1,2,3.1,3.6c0,0.3,0,0.6-0.1,0.8H55.2z M58.5,123.5c0-0.7-0.3-1.8-1.5-1.8
		c-1.1,0-1.6,1-1.7,1.8H58.5z"/>
	<path style="fill:#FFFFFF;" d="M62.6,119.5c-0.6,0-1-0.5-1-1c0-0.6,0.4-1,1-1c0.6,0,1,0.4,1,1C63.6,119.1,63.2,119.5,62.6,119.5
		L62.6,119.5z M61.7,127.9v-7.3h1.8v7.3H61.7z"/>
	<path style="fill:#FFFFFF;" d="M68.7,125.9c0.6,0.3,1.5,0.6,2.4,0.6c1.2,0,1.8-0.6,1.8-1.4c0-0.8-0.5-1.2-1.8-1.7
		c-1.7-0.6-2.7-1.5-2.7-2.9c0-1.7,1.4-2.9,3.6-2.9c1.1,0,1.9,0.2,2.4,0.5l-0.4,1.5c-0.4-0.2-1.1-0.5-2-0.5c-1.2,0-1.7,0.6-1.7,1.2
		c0,0.8,0.6,1.1,1.9,1.6c1.8,0.7,2.6,1.6,2.6,3c0,1.6-1.2,3-3.8,3c-1.1,0-2.2-0.3-2.7-0.6L68.7,125.9z"/>
	<path style="fill:#FFFFFF;" d="M81.4,126.9L81.4,126.9c-0.5,0.7-1.2,1.2-2.3,1.2c-1.7,0-3.1-1.4-3.1-3.7c0-2.7,1.7-3.9,3.3-3.9
		c1,0,1.7,0.5,2.1,1.1l0,0l0-1h1.8c0,0.7-0.1,1.4-0.1,2.1v8.2h-1.8V126.9z M81.4,123.6c0-0.1,0-0.3,0-0.4c-0.2-0.7-0.8-1.3-1.6-1.3
		c-1.2,0-1.9,1-1.9,2.4c0,1.3,0.6,2.3,1.8,2.3c0.8,0,1.4-0.5,1.6-1.2c0.1-0.2,0.1-0.4,0.1-0.6V123.6z"/>
	<path style="fill:#FFFFFF;" d="M91.8,125.7c0,0.9,0,1.6,0.1,2.2h-1.6l-0.1-1.1h0c-0.3,0.5-1,1.3-2.4,1.3c-1.3,0-2.5-0.8-2.5-3.2
		v-4.3H87v4c0,1.2,0.4,2,1.4,2c0.7,0,1.2-0.5,1.4-1c0.1-0.2,0.1-0.4,0.1-0.6v-4.4h1.8V125.7z"/>
	<path style="fill:#FFFFFF;" d="M99.4,126.1c0,0.7,0,1.3,0.1,1.8h-1.7l-0.1-0.8h0c-0.4,0.6-1.2,1-2.2,1c-1.5,0-2.3-1.1-2.3-2.2
		c0-1.8,1.6-2.8,4.3-2.8V123c0-0.5-0.2-1.3-1.5-1.3c-0.7,0-1.5,0.2-2,0.5l-0.4-1.2c0.5-0.3,1.5-0.6,2.6-0.6c2.3,0,3,1.5,3,3.1V126.1
		z M97.6,124.3c-1.3,0-2.6,0.3-2.6,1.4c0,0.7,0.5,1.1,1.1,1.1c0.8,0,1.3-0.5,1.5-1c0-0.1,0-0.3,0-0.4V124.3z"/>
	<path style="fill:#FFFFFF;" d="M101.4,122.9c0-1,0-1.7-0.1-2.4h1.6l0.1,1.4h0c0.4-1,1.2-1.5,2-1.5c0.2,0,0.3,0,0.4,0v1.7
		c-0.2,0-0.3,0-0.6,0c-0.9,0-1.5,0.6-1.6,1.4c0,0.2,0,0.4,0,0.6v3.8h-1.8V122.9z"/>
	<path style="fill:#FFFFFF;" d="M107.9,124.8c0,1.3,1.1,1.9,2.2,1.9c0.9,0,1.5-0.1,2-0.3l0.3,1.3c-0.6,0.3-1.5,0.5-2.5,0.5
		c-2.4,0-3.8-1.5-3.8-3.7c0-2,1.2-3.9,3.6-3.9c2.4,0,3.1,2,3.1,3.6c0,0.3,0,0.6-0.1,0.8H107.9z M111.1,123.5c0-0.7-0.3-1.8-1.5-1.8
		c-1.1,0-1.6,1-1.7,1.8H111.1z"/>
	<path style="fill:#FFFFFF;" d="M119.3,117.8v4h4.3v-4h1.8v10.1h-1.8v-4.5h-4.3v4.5h-1.8v-10.1H119.3z"/>
	<path style="fill:#FFFFFF;" d="M133.2,126.1c0,0.7,0,1.3,0.1,1.8h-1.7l-0.1-0.8h0c-0.4,0.6-1.2,1-2.2,1c-1.5,0-2.3-1.1-2.3-2.2
		c0-1.8,1.6-2.8,4.3-2.8V123c0-0.5-0.2-1.3-1.5-1.3c-0.7,0-1.5,0.2-2,0.5l-0.4-1.2c0.5-0.3,1.5-0.6,2.6-0.6c2.3,0,3,1.5,3,3.1V126.1
		z M131.4,124.3c-1.3,0-2.6,0.3-2.6,1.4c0,0.7,0.5,1.1,1.1,1.1c0.8,0,1.3-0.5,1.5-1c0-0.1,0-0.3,0-0.4V124.3z"/>
	<path style="fill:#FFFFFF;" d="M136.1,120.6l0.8,3.3c0.2,0.8,0.3,1.6,0.5,2.4h0c0.1-0.8,0.4-1.6,0.6-2.4l1-3.3h1.5l0.9,3.2
		c0.2,0.9,0.4,1.6,0.6,2.4h0c0.1-0.8,0.3-1.6,0.5-2.4l0.8-3.2h1.8l-2.3,7.3H141l-0.9-3c-0.2-0.8-0.4-1.5-0.6-2.3h0
		c-0.2,0.9-0.3,1.6-0.6,2.3l-0.9,3h-1.7l-2.2-7.3H136.1z"/>
	<path style="fill:#FFFFFF;" d="M148,123.8L148,123.8c0.2-0.3,0.4-0.6,0.6-0.9l1.8-2.4h2.2l-2.7,3l3.1,4.3h-2.3l-2.1-3.2l-0.6,0.7
		v2.5h-1.8v-10.7h1.8V123.8z"/>
	<path style="fill:#FFFFFF;" d="M155,124.8c0,1.3,1.1,1.9,2.2,1.9c0.9,0,1.5-0.1,2-0.3l0.3,1.3c-0.6,0.3-1.5,0.5-2.6,0.5
		c-2.4,0-3.8-1.5-3.8-3.7c0-2,1.2-3.9,3.6-3.9c2.4,0,3.1,2,3.1,3.6c0,0.3,0,0.6-0.1,0.8H155z M158.2,123.5c0-0.7-0.3-1.8-1.5-1.8
		c-1.1,0-1.6,1-1.7,1.8H158.2z"/>
	<path style="fill:#FFFFFF;" d="M161.5,122.9c0-1,0-1.7-0.1-2.4h1.6l0.1,1.4h0c0.4-1,1.2-1.5,2-1.5c0.2,0,0.3,0,0.4,0v1.7
		c-0.2,0-0.3,0-0.6,0c-0.9,0-1.5,0.6-1.6,1.4c0,0.2,0,0.4,0,0.6v3.8h-1.8V122.9z"/>
	<path style="fill:#FFFFFF;" d="M170,117.9c0.6-0.1,1.6-0.2,2.7-0.2c1.3,0,2.2,0.2,2.9,0.6c0.6,0.4,1,1,1,1.9c0,0.9-0.6,1.8-1.7,2.2
		v0c1.1,0.3,2,1.1,2,2.5c0,0.9-0.4,1.6-1,2.1c-0.7,0.6-1.9,0.9-3.8,0.9c-1,0-1.8-0.1-2.3-0.1V117.9z M171.8,121.9h0.9
		c1.3,0,2-0.6,2-1.5c0-1-0.7-1.4-1.9-1.4c-0.5,0-0.9,0-1.1,0.1V121.9z M171.8,126.6c0.2,0,0.6,0,1,0c1.2,0,2.2-0.4,2.2-1.7
		c0-1.2-1-1.6-2.3-1.6h-0.9V126.6z"/>
	<path style="fill:#FFFFFF;" d="M184.2,126.1c0,0.7,0,1.3,0.1,1.8h-1.7l-0.1-0.8h0c-0.4,0.6-1.2,1-2.2,1c-1.5,0-2.3-1.1-2.3-2.2
		c0-1.8,1.6-2.8,4.3-2.8V123c0-0.5-0.2-1.3-1.5-1.3c-0.7,0-1.5,0.2-2,0.5l-0.4-1.2c0.5-0.3,1.5-0.6,2.6-0.6c2.3,0,3,1.5,3,3.1V126.1
		z M182.4,124.3c-1.3,0-2.6,0.3-2.6,1.4c0,0.7,0.5,1.1,1.1,1.1c0.8,0,1.3-0.5,1.5-1c0-0.1,0-0.3,0-0.4V124.3z"/>
	<path style="fill:#FFFFFF;" d="M185.5,126.8l2.7-3.5c0.4-0.5,0.7-0.8,1.1-1.2v0h-3.5v-1.5h5.8v1.1l-2.7,3.4
		c-0.4,0.4-0.7,0.9-1.1,1.2v0h3.8v1.5h-6.1V126.8z"/>
	<path style="fill:#FFFFFF;" d="M198.6,126.1c0,0.7,0,1.3,0.1,1.8H197l-0.1-0.8h0c-0.4,0.6-1.2,1-2.2,1c-1.5,0-2.3-1.1-2.3-2.2
		c0-1.8,1.6-2.8,4.3-2.8V123c0-0.5-0.2-1.3-1.5-1.3c-0.7,0-1.5,0.2-2,0.5l-0.4-1.2c0.5-0.3,1.5-0.6,2.6-0.6c2.3,0,3,1.5,3,3.1V126.1
		z M196.8,124.3c-1.3,0-2.6,0.3-2.6,1.4c0,0.7,0.5,1.1,1.1,1.1c0.8,0,1.3-0.5,1.5-1c0-0.1,0-0.3,0-0.4V124.3z"/>
	<path style="fill:#FFFFFF;" d="M206.2,126.1c0,0.7,0,1.3,0.1,1.8h-1.7l-0.1-0.8h0c-0.4,0.6-1.2,1-2.2,1c-1.5,0-2.3-1.1-2.3-2.2
		c0-1.8,1.6-2.8,4.3-2.8V123c0-0.5-0.2-1.3-1.5-1.3c-0.7,0-1.5,0.2-2,0.5l-0.4-1.2c0.5-0.3,1.5-0.6,2.6-0.6c2.3,0,3,1.5,3,3.1V126.1
		z M204.4,124.3c-1.3,0-2.6,0.3-2.6,1.4c0,0.7,0.5,1.1,1.1,1.1c0.8,0,1.3-0.5,1.5-1c0-0.1,0-0.3,0-0.4V124.3z"/>
	<path style="fill:#FFFFFF;" d="M208.2,122.9c0-1,0-1.7-0.1-2.4h1.6l0.1,1.4h0c0.4-1,1.2-1.5,2-1.5c0.2,0,0.3,0,0.4,0v1.7
		c-0.2,0-0.3,0-0.6,0c-0.9,0-1.5,0.6-1.6,1.4c0,0.2,0,0.4,0,0.6v3.8h-1.8V122.9z"/>
</g>
<g>
	<path d="M114.5,38.5c-5.3-3.1-9.7-10.6-9.6-16.7c0-2.1,0.5-3.7,1.4-4.9c-2.4,0.7-3.8,3.4-3.8,7.2c0,6.1,4.3,13.6,9.6,16.7
		c3.9,2.2,7.2,1.5,8.8-1.4C119.2,40.1,116.9,39.9,114.5,38.5z"/>
	<path d="M112.2,5.7c-5.8-3.3-10.8-3.6-14.6-1.5c1.6-0.9,3.1-1.9,4.8-2.9c3.8-2.2,9-1.9,14.8,1.4c11.5,6.6,20.7,22.7,20.7,35.8
		c0,3.6-0.5,8.3-3.3,12.8l-15.8,24.1l-5.9,3.5l18.2-28.7c1.2-2.3,1.9-5.3,1.9-8.9C132.9,28.4,123.6,12.3,112.2,5.7z"/>
</g>
<path style="fill:#BE0000;" d="M132.9,41.6c0,3.6-0.7,6.5-1.9,8.9l-18.2,28.7l-18-46.5c-2-7-2.6-10.4-2.5-15.2
	c0-13.2,8.6-18.2,20-11.6C123.6,12.3,132.9,28.4,132.9,41.6z M112.1,40.7c5.3,3.1,9.7,0.6,9.7-5.5c0-6.1-4.3-13.6-9.6-16.7
	c-5.3-3.1-9.7-0.6-9.7,5.5C102.4,30.1,106.8,37.6,112.1,40.7L112.1,40.7"/>
</svg>
