<svg xmlns="http://www.w3.org/2000/svg" width="90" height="114.51" viewBox="0 0 90 114.51">
  <g id="Layer_2" data-name="Layer 2">
    <g id="Pointer">
      <g>
        <rect y="82.31" width="90" height="32.2" rx="16.1" style="fill: #be0000"/>
        <g>
          <path d="M10.35,103.11l-.54-1.84a22.31,22.31,0,0,0,6.12-8H10.3V91.56h3.5a27.11,27.11,0,0,0-1.28-3.09L14.16,88a28.54,28.54,0,0,1,1.21,3.31l-.7.26h3V93a18.6,18.6,0,0,1-2.8,5.24v0A20.48,20.48,0,0,1,18.08,101l-.95,1.42a19.28,19.28,0,0,0-2.27-2.32v10.25H13.17v-10C12.3,101.27,11.36,102.19,10.35,103.11Zm21.2-14v1.55H18.41V89.12Zm-.36,21.21H29.55v-1H20.32v1H18.68V99.44H31.19Zm-1.09-18V97.7H19.81V92.36Zm-6,11.25v-2.72H20.32v2.72Zm0,4.21v-2.76H20.32v2.76Zm4.35-14.06h-7V96.3h7Zm-2.7,9.85h3.79v-2.72H25.76Zm3.79,4.21v-2.76H25.76v2.76Z" style="fill: #fff"/>
          <path d="M44.11,92.46H35.24V90.79h8.87V88.23H45.9v2.56h8.89v1.67H45.9v6.71A25.91,25.91,0,0,0,56,107.55l-.94,1.62a28.16,28.16,0,0,1-9.2-7.44v8.5H44.11V101.8A27.39,27.39,0,0,1,35,109.24l-.89-1.54a26.17,26.17,0,0,0,10-8.41Zm-8.17,9-1.08-1.33a12.48,12.48,0,0,0,4.23-6.84l1.61.29a19,19,0,0,1-1.25,3.44,19.18,19.18,0,0,1,3.19,2.24l-.92,1.45a16.8,16.8,0,0,0-3-2.34A12.68,12.68,0,0,1,35.94,101.49Zm12.59-.68-1.06-1.35A11.36,11.36,0,0,0,51,93.37l1.64.29a16.85,16.85,0,0,1-1.14,3.19,20.82,20.82,0,0,1,3.65,2.71l-1,1.47a20,20,0,0,0-3.46-2.8A11.32,11.32,0,0,1,48.53,100.81Z" style="fill: #fff"/>
          <path d="M63.52,91.13V88.2h1.72v2.93H70v1.69H65.24v8.5h2.61V95.23h1.62v7.71H65.24v4.37a26.29,26.29,0,0,0,4.54-1.55l.34,1.6a46.35,46.35,0,0,1-7.1,2.17l-.46-1.69a1.28,1.28,0,0,0,1-1.3v-3.6H59.3V95.28h1.64v6h2.58v-8.5H58.4V91.13Zm16-2v1.31c-.77,2.46-1.59,4.73-2.49,6.86,1.89,2.44,2.83,4.44,2.85,6a3.92,3.92,0,0,1-.89,2.94c-.65.58-2,.9-3.89.9l-.51-1.77a12.7,12.7,0,0,0,1.57.12,2.45,2.45,0,0,0,1.69-.48,3,3,0,0,0,.36-1.71c0-1.52-1-3.53-3-6a59.41,59.41,0,0,0,2.47-6.57H73.55v19.56H71.88V89.12Z" style="fill: #fff"/>
        </g>
        <g>
          <path d="M44.51,38.49c-5.34-3.08-9.65-10.56-9.63-16.7a8.06,8.06,0,0,1,1.36-4.86c-2.36.72-3.8,3.36-3.81,7.17,0,6.14,4.3,13.62,9.64,16.7,3.89,2.25,7.25,1.53,8.79-1.38C49.16,40.13,46.94,39.89,44.51,38.49Z"/>
          <path d="M42.19,5.73C36.42,2.4,31.38,2.09,27.61,4.28c1.58-.91,3.13-1.92,4.78-2.88,3.78-2.19,9-1.88,14.77,1.45C58.62,9.46,67.88,25.5,67.84,38.67a23.45,23.45,0,0,1-3.32,12.81L48.7,75.62l-6,3.47L60.94,50.42a19.06,19.06,0,0,0,1.93-8.87C62.91,28.39,53.65,12.35,42.19,5.73Z"/>
        </g>
        <path d="M62.87,41.55a19.06,19.06,0,0,1-1.93,8.87L42.75,79.09l-18-46.54c-2-7-2.56-10.41-2.55-15.21,0-13.17,8.57-18.22,20-11.61S62.91,28.39,62.87,41.55Zm-20.78-.86c5.35,3.09,9.69.61,9.71-5.53s-4.3-13.62-9.65-16.71-9.68-.6-9.7,5.54,4.3,13.62,9.64,16.7h0" style="fill: #be0000"/>
      </g>
    </g>
  </g>
</svg>
