<?xml version="1.0" encoding="utf-8"?>
<!-- Generator: Adobe Illustrator 26.0.1, SVG Export Plug-In . SVG Version: 6.00 Build 0)  -->
<svg version="1.1" id="Layer_1" xmlns="http://www.w3.org/2000/svg" xmlns:xlink="http://www.w3.org/1999/xlink" x="0px" y="0px"
	 width="130px" height="135.3px" viewBox="0 0 130 135.3" style="enable-background:new 0 0 130 135.3;" xml:space="preserve">
<path style="fill:#BE0000;" d="M103.5,135.3h-77C11.9,135.3,0,123.4,0,108.8v0c0-14.6,11.9-26.5,26.5-26.5h77
	c14.6,0,26.5,11.9,26.5,26.5v0C130,123.4,118.1,135.3,103.5,135.3z"/>
<g>
	<path style="fill:#FFFFFF;" d="M30.4,105.4l-0.7-2.4c2.9-2.6,4.8-5.1,5.8-7.6h-5.3v-2.2h3.2c-0.3-0.9-0.7-1.9-1.1-2.8l2.1-0.6
		c0.5,1.2,0.8,2.3,1.1,3.4h2.3v1.9c-0.6,1.7-1.5,3.5-2.7,5.1c1.1,0.7,2.1,1.5,3.1,2.4l-1.2,1.9c-0.6-0.7-1.3-1.4-1.9-2v9.7h-2.2V103
		C32.1,103.8,31.3,104.6,30.4,105.4z M51.6,90.9v2H38.3v-2H51.6z M51.4,112.4h-2.2v-0.9h-8.5v0.9h-2.2v-11.2h12.9V112.4z M50.3,94.2
		v5.6H39.6v-5.6H50.3z M43.8,105.3v-2.2h-3.2v2.2H43.8z M43.8,109.5v-2.3h-3.2v2.3H43.8z M48.1,96h-6.3v2h6.3V96z M46,105.3h3.2
		v-2.2H46V105.3z M49.2,109.5v-2.3H46v2.3H49.2z"/>
	<path style="fill:#FFFFFF;" d="M63.8,94.7h-8.7v-2.2h8.7v-2.4h2.3v2.4h8.7v2.2h-8.7v6.4c2.5,3.4,5.8,6,10,7.9l-1.3,2.1
		c-3.4-1.7-6.3-3.9-8.7-6.8v7.8h-2.3v-7.8c-2.3,2.7-5.1,5-8.7,6.8l-1.2-2.1c4.3-2.1,7.5-4.7,9.9-8V94.7z M56.2,103.6l-1.4-1.7
		c2-1.6,3.3-3.8,4-6.5l2.1,0.4c-0.3,1.2-0.7,2.3-1.2,3.3c1.1,0.6,2.1,1.3,3,2l-1.2,1.9c-0.9-0.8-1.9-1.5-2.8-2.1
		C57.9,101.9,57.1,102.8,56.2,103.6z M68.8,102.9l-1.4-1.8c1.6-1.4,2.7-3.4,3.3-5.7l2.1,0.4c-0.3,1.1-0.6,2.1-1,3
		c1.3,0.7,2.4,1.5,3.5,2.4l-1.3,2c-1-1-2.1-1.9-3.2-2.5C70.3,101.5,69.6,102.3,68.8,102.9z"/>
	<path style="fill:#FFFFFF;" d="M83.3,92.9v-2.7h2.2v2.7h4.6v2.2h-4.6v7.9h2v-5.8h2.1v7.9h-4.1v3.7c1.5-0.4,2.9-0.8,4.2-1.4l0.4,2.1
		c-2.2,0.9-4.7,1.6-7.5,2.2l-0.6-2.2c0.8-0.3,1.3-0.8,1.3-1.7v-2.7h-4.1v-7.9h2.1v5.8h2v-7.9h-4.9v-2.2H83.3z M99.8,90.9v1.7
		c-0.7,2.4-1.5,4.6-2.4,6.7c1.8,2.4,2.8,4.4,2.8,5.9c0,1.5-0.3,2.6-0.9,3.2c-0.7,0.6-2,0.9-4,0.9l-0.7-2.3c0.8,0.1,1.5,0.1,2.1,0.1
		c0.6,0,0.9-0.2,1.1-0.4c0.1-0.2,0.2-0.7,0.2-1.5c0-1.5-1-3.5-2.9-5.9c0.8-1.8,1.6-3.9,2.3-6.3h-3.5v19.4h-2.2V90.9H99.8z"/>
	<path style="fill:#FFFFFF;" d="M21.7,117.8h5.9v1.5h-4v2.8h3.7v1.5h-3.7v4.3h-1.8V117.8z"/>
	<path style="fill:#FFFFFF;" d="M35.3,125.7c0,0.9,0,1.6,0.1,2.2h-1.6l-0.1-1.1h0c-0.3,0.5-1,1.3-2.4,1.3c-1.3,0-2.5-0.8-2.5-3.2
		v-4.3h1.8v4c0,1.2,0.4,2,1.4,2c0.8,0,1.2-0.5,1.4-1c0.1-0.2,0.1-0.4,0.1-0.6v-4.4h1.8V125.7z"/>
	<path style="fill:#FFFFFF;" d="M39.2,123.8L39.2,123.8c0.2-0.3,0.4-0.6,0.6-0.9l1.8-2.4h2.2l-2.7,3l3.1,4.3h-2.3l-2.1-3.2l-0.6,0.7
		v2.5h-1.8v-10.7h1.8V123.8z"/>
	<path style="fill:#FFFFFF;" d="M48.1,117.8H50v8.6h4.2v1.5h-6V117.8z"/>
	<path style="fill:#FFFFFF;" d="M58.5,128.1c-2.1,0-3.7-1.4-3.7-3.8c0-2.4,1.6-3.9,3.8-3.9c2.2,0,3.6,1.5,3.6,3.8
		C62.2,126.9,60.3,128.1,58.5,128.1L58.5,128.1z M58.5,126.7c1,0,1.8-1,1.8-2.5c0-1.1-0.5-2.5-1.8-2.5c-1.3,0-1.8,1.3-1.8,2.5
		C56.7,125.7,57.4,126.7,58.5,126.7L58.5,126.7z"/>
	<path style="fill:#FFFFFF;" d="M64.7,119.5c-0.6,0-1-0.5-1-1c0-0.6,0.4-1,1-1c0.6,0,1,0.4,1,1C65.7,119.1,65.3,119.5,64.7,119.5
		L64.7,119.5z M63.7,127.9v-7.3h1.8v7.3H63.7z"/>
	<path style="fill:#FFFFFF;" d="M76.4,123.4h-3.8v3h4.3v1.5h-6.1v-10.1h5.9v1.5h-4v2.6h3.8V123.4z"/>
	<path style="fill:#FFFFFF;" d="M78.3,126.2c0.4,0.3,1.2,0.5,1.9,0.5c0.8,0,1.2-0.3,1.2-0.8c0-0.5-0.3-0.7-1.2-1.1
		c-1.4-0.5-2-1.3-2-2.1c0-1.3,1.1-2.3,2.8-2.3c0.8,0,1.5,0.2,2,0.4l-0.4,1.3c-0.3-0.2-0.9-0.4-1.5-0.4c-0.7,0-1,0.3-1,0.8
		c0,0.5,0.3,0.7,1.3,1c1.3,0.5,1.9,1.1,1.9,2.2c0,1.3-1,2.3-3,2.3c-0.9,0-1.7-0.2-2.2-0.5L78.3,126.2z"/>
	<path style="fill:#FFFFFF;" d="M86.8,118.7v1.9h1.8v1.4h-1.8v3.2c0,0.9,0.2,1.4,0.9,1.4c0.3,0,0.5,0,0.7-0.1l0,1.4
		c-0.3,0.1-0.8,0.2-1.3,0.2c-0.7,0-1.2-0.2-1.6-0.6c-0.4-0.4-0.6-1.1-0.6-2.1V122h-1v-1.4h1v-1.4L86.8,118.7z"/>
	<path style="fill:#FFFFFF;" d="M95.6,126.1c0,0.7,0,1.3,0.1,1.8h-1.7l-0.1-0.8h0c-0.4,0.6-1.2,1-2.2,1c-1.5,0-2.3-1.1-2.3-2.2
		c0-1.8,1.6-2.8,4.3-2.8V123c0-0.5-0.2-1.3-1.5-1.3c-0.7,0-1.5,0.2-2,0.5l-0.4-1.2c0.5-0.3,1.5-0.6,2.6-0.6c2.3,0,3,1.5,3,3.1V126.1
		z M93.8,124.3c-1.3,0-2.5,0.3-2.5,1.4c0,0.7,0.5,1.1,1,1.1c0.8,0,1.3-0.5,1.5-1c0-0.1,0-0.3,0-0.4V124.3z"/>
	<path style="fill:#FFFFFF;" d="M99.6,118.7v1.9h1.8v1.4h-1.8v3.2c0,0.9,0.2,1.4,0.9,1.4c0.3,0,0.5,0,0.7-0.1l0,1.4
		c-0.3,0.1-0.8,0.2-1.3,0.2c-0.7,0-1.2-0.2-1.6-0.6c-0.4-0.4-0.6-1.1-0.6-2.1V122h-1v-1.4h1v-1.4L99.6,118.7z"/>
	<path style="fill:#FFFFFF;" d="M103.9,124.8c0,1.3,1.1,1.9,2.2,1.9c0.9,0,1.5-0.1,2-0.3l0.3,1.3c-0.6,0.3-1.5,0.5-2.5,0.5
		c-2.4,0-3.8-1.5-3.8-3.7c0-2,1.2-3.9,3.6-3.9c2.4,0,3.1,2,3.1,3.6c0,0.3,0,0.6-0.1,0.8H103.9z M107.1,123.5c0-0.7-0.3-1.8-1.5-1.8
		c-1.1,0-1.6,1-1.7,1.8H107.1z"/>
</g>
<g>
	<path d="M64.5,38.5c-5.3-3.1-9.7-10.6-9.6-16.7c0-2.1,0.5-3.7,1.4-4.9c-2.4,0.7-3.8,3.4-3.8,7.2c0,6.1,4.3,13.6,9.6,16.7
		c3.9,2.2,7.2,1.5,8.8-1.4C69.2,40.1,66.9,39.9,64.5,38.5z"/>
	<path d="M62.2,5.7c-5.8-3.3-10.8-3.6-14.6-1.5c1.6-0.9,3.1-1.9,4.8-2.9c3.8-2.2,9-1.9,14.8,1.4c11.5,6.6,20.7,22.7,20.7,35.8
		c0,3.6-0.5,8.3-3.3,12.8L68.7,75.6l-5.9,3.5l18.2-28.7c1.2-2.3,1.9-5.3,1.9-8.9C82.9,28.4,73.6,12.3,62.2,5.7z"/>
</g>
<path style="fill:#BE0000;" d="M82.9,41.6c0,3.6-0.7,6.5-1.9,8.9L62.8,79.1l-18-46.5c-2-7-2.6-10.4-2.5-15.2
	c0-13.2,8.6-18.2,20-11.6C73.6,12.3,82.9,28.4,82.9,41.6z M62.1,40.7c5.3,3.1,9.7,0.6,9.7-5.5c0-6.1-4.3-13.6-9.6-16.7
	c-5.3-3.1-9.7-0.6-9.7,5.5C52.4,30.1,56.8,37.6,62.1,40.7L62.1,40.7"/>
</svg>
