<svg xmlns="http://www.w3.org/2000/svg" width="120" height="114.51" viewBox="0 0 120 114.51">
  <g id="Layer_2" data-name="Layer 2">
    <g id="Pointer">
      <g>
        <rect y="82.31" width="120" height="32.2" rx="16.1" style="fill: #be0000"/>
        <g>
          <path d="M19.72,89.1a19.22,19.22,0,0,1-6.52,7.1l-.51-1.74a16.84,16.84,0,0,0,5.46-6.09Zm1.14,5.51a19,19,0,0,1-2.64,3.86v11.84H16.51V100.23a31.61,31.61,0,0,1-3.17,2.52l-.5-1.74a19.83,19.83,0,0,0,6.45-7.13ZM34.6,95.84v1.71H30.69v10.56c0,1.4-.8,2.1-2.35,2.1H24.79l-.36-1.72c1.16.08,2.25.12,3.31.12.77,0,1.18-.31,1.18-.94V97.55H21.31V95.84ZM33.54,89.7v1.72H22V89.7Z" style="fill: #fff"/>
          <path d="M48.63,93.57a22.15,22.15,0,0,0,10.48,15L58,110.14a23.81,23.81,0,0,1-10-13c-1.45,5.27-4.88,9.62-10.24,13.07l-1.06-1.55Q46.66,102.49,47,92c0-1.64,0-2.92,0-3.84H48.8C48.8,90.28,48.73,92.07,48.63,93.57Z" style="fill: #fff"/>
          <path d="M70.68,96.71a49.1,49.1,0,0,0,.6-5.56H62.54V89.46H81.62v1.69H73a52.91,52.91,0,0,1-.62,5.56h9.9v1.66H73.43A19.28,19.28,0,0,0,83.07,109L82,110.38A20.44,20.44,0,0,1,72,98.86,16.7,16.7,0,0,1,70.41,103a19.91,19.91,0,0,1-8.24,7.37L61.09,109a18.13,18.13,0,0,0,7.68-6.59,15.25,15.25,0,0,0,1.54-4h-8.4V96.71Z" style="fill: #fff"/>
          <path d="M90.41,110.23H88.74v-12a27.35,27.35,0,0,1-3,6.33L85,102.67a22.67,22.67,0,0,0,3.74-8.11H85.5V92.89h3.24V88.16h1.67v4.73H93v1.67H90.41v1.52a51.47,51.47,0,0,1,3.16,4.1l-1,1.45q-1.26-2.28-2.19-3.69ZM98,92.17a11.3,11.3,0,0,0,.79-1.65c-1.28.08-2.63.12-4.06.12l-.45-1.42a44.72,44.72,0,0,0,10.43-1l.77,1.33a30,30,0,0,1-5.09.89,14.82,14.82,0,0,1-.7,1.77h6.86v1.44H103a9.88,9.88,0,0,0,4.4,2.88L106.69,98a12.52,12.52,0,0,1-2.85-1.67v3.12H96.13v-3a14.64,14.64,0,0,1-2.78,1.64l-.79-1.42A12.55,12.55,0,0,0,97,93.61H93.6V92.17Zm4.27,18.11-.39-1.4,1.82.07c.48,0,.74-.29.74-.84v-5.9H95.67v8.07H94.1v-9.52H106v7.71a1.62,1.62,0,0,1-1.84,1.81Zm.51-6.79v4.28H97.29v-4.28Zm-1.43-9.88H98.89a12.55,12.55,0,0,1-1.43,1.72h5.24A9.71,9.71,0,0,1,101.37,93.61Zm1,3H97.56v1.64h4.83Zm-1,8.14H98.67v1.81h2.73Z" style="fill: #fff"/>
        </g>
        <g>
          <path d="M59.51,38.49c-5.34-3.08-9.65-10.56-9.63-16.7a8.06,8.06,0,0,1,1.36-4.86c-2.36.72-3.8,3.36-3.81,7.17,0,6.14,4.3,13.62,9.64,16.7,3.89,2.25,7.25,1.53,8.79-1.38C64.16,40.13,61.94,39.89,59.51,38.49Z"/>
          <path d="M57.19,5.73C51.42,2.4,46.38,2.09,42.61,4.28c1.58-.91,3.13-1.92,4.78-2.88,3.78-2.19,9-1.88,14.77,1.45C73.62,9.46,82.88,25.5,82.84,38.67a23.45,23.45,0,0,1-3.32,12.81L63.7,75.62l-6,3.47L75.94,50.42a19.06,19.06,0,0,0,1.93-8.87C77.91,28.39,68.65,12.35,57.19,5.73Z"/>
        </g>
        <path d="M77.87,41.55a19.06,19.06,0,0,1-1.93,8.87L57.75,79.09l-18-46.54c-2-7-2.56-10.41-2.55-15.21,0-13.17,8.57-18.22,20-11.61S77.91,28.39,77.87,41.55Zm-20.78-.86c5.35,3.09,9.69.61,9.71-5.53s-4.3-13.62-9.65-16.71-9.68-.6-9.7,5.54,4.3,13.62,9.64,16.7h0" style="fill: #be0000"/>
      </g>
    </g>
  </g>
</svg>
