<?xml version="1.0" encoding="utf-8"?>
<!-- Generator: Adobe Illustrator 26.0.1, SVG Export Plug-In . SVG Version: 6.00 Build 0)  -->
<svg version="1.1" id="Layer_1" xmlns="http://www.w3.org/2000/svg" xmlns:xlink="http://www.w3.org/1999/xlink" x="0px" y="0px"
	 width="190px" height="134.9px" viewBox="0 0 190 134.9" style="enable-background:new 0 0 190 134.9;" xml:space="preserve">
<path style="fill:#BE0000;" d="M163.5,135.3h-137C11.9,135.3,0,123.4,0,108.8v0c0-14.6,11.9-26.5,26.5-26.5h137
	c14.6,0,26.5,11.9,26.5,26.5v0C190,123.4,178.1,135.3,163.5,135.3z"/>
<g>
	<path style="fill:#FFFFFF;" d="M54.8,91.2c-1.3,2.7-3.5,5-6.6,7.1l-0.7-2.3c2.3-1.7,4.1-3.6,5.2-5.8L54.8,91.2z M56,96.8
		c-0.7,1.3-1.5,2.5-2.5,3.7v11.9h-2.2v-9.7c-0.9,0.7-1.8,1.5-2.8,2.2l-0.7-2.3c2.8-1.9,4.8-4.2,6.1-6.8L56,96.8z M69.7,97.5v2.2
		h-3.8V110c0,1.5-0.9,2.3-2.6,2.3h-3.5l-0.5-2.2c1.1,0.1,2.2,0.1,3.2,0.1c0.7,0,1.1-0.3,1.1-0.8v-9.7h-7.3v-2.2H69.7z M68.6,91.4
		v2.2H56.8v-2.2H68.6z"/>
	<path style="fill:#FFFFFF;" d="M83.8,95.5c1.4,6.4,4.9,11.3,10.4,14.7l-1.5,2c-4.6-3.1-7.9-7.2-9.7-12.4c-1.6,5-4.9,9.2-10,12.5
		l-1.4-2.1c6.5-4,9.9-9.4,10.1-16.3c0-1.6,0-2.9,0-3.8H84C84,92.3,83.9,94,83.8,95.5z"/>
	<path style="fill:#FFFFFF;" d="M105.4,98.4c0.3-1.5,0.5-3.2,0.6-5h-8.5v-2.2h19.2v2.2h-8.4c-0.1,1.8-0.3,3.5-0.6,5h9.7v2.2h-8.6
		c1.7,4.3,4.8,7.7,9.4,10l-1.4,1.9c-4.7-2.6-7.9-6.2-9.7-10.8c-0.4,1.4-0.8,2.5-1.4,3.4c-1.6,2.9-4.4,5.4-8.2,7.5l-1.4-1.9
		c3.5-1.8,6-4,7.5-6.5c0.6-0.9,1-2.1,1.4-3.5h-8.1v-2.2H105.4z"/>
	<path style="fill:#FFFFFF;" d="M125.7,112.3h-2.2v-11c-0.7,2-1.6,3.8-2.6,5.4l-1-2.5c1.6-2.1,2.9-4.6,3.6-7.3h-3v-2.2h3v-4.5h2.2
		v4.5h2.4v2.2h-2.4v1.3c1,1.1,2,2.3,3,3.7l-1.3,1.9c-0.7-1.2-1.2-2.2-1.7-3.1V112.3z M132.9,93.9c0.2-0.4,0.4-0.8,0.6-1.2
		c-1.2,0-2.4,0.1-3.6,0.1l-0.6-1.8c4.1,0,7.6-0.3,10.4-1l1,1.7c-1.4,0.4-3.1,0.7-5,0.8c-0.2,0.5-0.3,0.9-0.5,1.3h6.5v1.9h-3.1
		c1,0.9,2.3,1.7,4,2.2l-1,2c-1-0.4-1.8-0.9-2.6-1.4v2.9h-8.1v-2.7c-0.7,0.5-1.5,0.9-2.3,1.3l-1.1-1.9c1.6-0.7,2.9-1.5,3.9-2.5h-2.9
		v-1.9H132.9z M137.3,112.4l-0.5-1.8l1.8,0.1c0.4,0,0.6-0.2,0.6-0.7v-5.5h-8.3v7.9h-2.1v-9.8h12.3v7.8c0,1.3-0.7,2-2,2H137.3z
		 M138,105.4v4.5h-5.8v-4.5H138z M137.1,98.8h-4.4v1.3h4.4V98.8z M136.3,95.8h-2.2c-0.3,0.5-0.7,0.9-1.1,1.3h4.3
		C136.9,96.7,136.5,96.3,136.3,95.8z M136.2,106.9h-2.3v1.4h2.3V106.9z"/>
	<path style="fill:#FFFFFF;" d="M20.6,117.9c0.7-0.1,1.6-0.2,2.8-0.2c1.4,0,2.3,0.3,3,0.8c0.6,0.5,1,1.3,1,2.2c0,1-0.3,1.7-0.9,2.3
		c-0.8,0.7-1.9,1.1-3.2,1.1c-0.3,0-0.6,0-0.9-0.1v3.8h-1.8V117.9z M22.5,122.6c0.2,0.1,0.5,0.1,0.9,0.1c1.4,0,2.2-0.7,2.2-1.9
		c0-1.1-0.8-1.7-2.1-1.7c-0.5,0-0.9,0-1.1,0.1V122.6z"/>
	<path style="fill:#FFFFFF;" d="M29.9,124.8c0,1.3,1.1,1.9,2.2,1.9c0.9,0,1.5-0.1,2-0.3l0.3,1.3c-0.6,0.3-1.5,0.5-2.6,0.5
		c-2.4,0-3.8-1.5-3.8-3.7c0-2,1.2-3.9,3.6-3.9c2.4,0,3.1,2,3.1,3.6c0,0.3,0,0.6-0.1,0.8H29.9z M33.1,123.5c0-0.7-0.3-1.8-1.5-1.8
		c-1.1,0-1.6,1-1.7,1.8H33.1z"/>
	<path style="fill:#FFFFFF;" d="M43,117.2v8.6c0,0.7,0,1.6,0.1,2.1h-1.6l-0.1-1.2h0c-0.4,0.8-1.3,1.3-2.4,1.3
		c-1.8,0-3.1-1.5-3.1-3.7c0-2.4,1.5-3.9,3.3-3.9c1,0,1.7,0.4,2.1,0.9h0v-4.1H43z M41.2,123.6c0-0.1,0-0.3,0-0.5
		c-0.2-0.7-0.8-1.3-1.6-1.3c-1.2,0-1.8,1.1-1.8,2.4c0,1.4,0.7,2.3,1.8,2.3c0.8,0,1.4-0.5,1.6-1.3c0-0.2,0.1-0.3,0.1-0.5V123.6z"/>
	<path style="fill:#FFFFFF;" d="M46.3,124.8c0,1.3,1.1,1.9,2.2,1.9c0.9,0,1.5-0.1,2-0.3l0.3,1.3c-0.6,0.3-1.5,0.5-2.6,0.5
		c-2.4,0-3.8-1.5-3.8-3.7c0-2,1.2-3.9,3.6-3.9c2.4,0,3.1,2,3.1,3.6c0,0.3,0,0.6-0.1,0.8H46.3z M49.5,123.5c0-0.7-0.3-1.8-1.5-1.8
		c-1.1,0-1.6,1-1.7,1.8H49.5z"/>
	<path style="fill:#FFFFFF;" d="M52.7,126.2c0.4,0.3,1.2,0.5,1.9,0.5c0.8,0,1.2-0.3,1.2-0.8c0-0.5-0.3-0.7-1.2-1.1
		c-1.4-0.5-2-1.3-2-2.1c0-1.3,1.1-2.3,2.8-2.3c0.8,0,1.5,0.2,1.9,0.4l-0.4,1.3c-0.3-0.2-0.9-0.4-1.5-0.4c-0.7,0-1,0.3-1,0.8
		c0,0.5,0.3,0.7,1.3,1c1.3,0.5,1.9,1.1,1.9,2.2c0,1.3-1,2.3-3,2.3c-0.9,0-1.7-0.2-2.2-0.5L52.7,126.2z"/>
	<path style="fill:#FFFFFF;" d="M61.1,118.7v1.9h1.8v1.4h-1.8v3.2c0,0.9,0.2,1.4,0.9,1.4c0.3,0,0.5,0,0.7-0.1l0,1.4
		c-0.3,0.1-0.8,0.2-1.3,0.2c-0.7,0-1.2-0.2-1.6-0.6c-0.4-0.4-0.6-1.1-0.6-2.1V122h-1v-1.4h1v-1.4L61.1,118.7z"/>
	<path style="fill:#FFFFFF;" d="M64.3,122.9c0-1,0-1.7-0.1-2.4h1.6l0.1,1.4h0c0.4-1,1.2-1.5,2-1.5c0.2,0,0.3,0,0.4,0v1.7
		c-0.2,0-0.3,0-0.6,0c-0.9,0-1.5,0.6-1.6,1.4c0,0.2,0,0.4,0,0.6v3.8h-1.8V122.9z"/>
	<path style="fill:#FFFFFF;" d="M70.5,119.5c-0.6,0-1-0.5-1-1c0-0.6,0.4-1,1-1c0.6,0,1,0.4,1,1C71.6,119.1,71.2,119.5,70.5,119.5
		L70.5,119.5z M69.6,127.9v-7.3h1.8v7.3H69.6z"/>
	<path style="fill:#FFFFFF;" d="M79.1,126.1c0,0.7,0,1.3,0.1,1.8h-1.7l-0.1-0.8h0c-0.4,0.6-1.2,1-2.2,1c-1.5,0-2.3-1.1-2.3-2.2
		c0-1.8,1.6-2.8,4.3-2.8V123c0-0.5-0.2-1.3-1.5-1.3c-0.7,0-1.5,0.2-2,0.5l-0.4-1.2c0.5-0.3,1.5-0.6,2.6-0.6c2.3,0,3,1.5,3,3.1V126.1
		z M77.3,124.3c-1.3,0-2.6,0.3-2.6,1.4c0,0.7,0.5,1.1,1.1,1.1c0.8,0,1.3-0.5,1.5-1c0-0.1,0-0.3,0-0.4V124.3z"/>
	<path style="fill:#FFFFFF;" d="M81.1,122.8c0-0.8,0-1.5-0.1-2.2h1.6l0.1,1.1h0c0.3-0.6,1.1-1.3,2.3-1.3c1.3,0,2.6,0.8,2.6,3.1v4.3
		h-1.8v-4.1c0-1-0.4-1.8-1.4-1.8c-0.7,0-1.2,0.5-1.4,1.1c-0.1,0.1-0.1,0.4-0.1,0.6v4.3h-1.8V122.8z"/>
	<path style="fill:#FFFFFF;" d="M92.8,117.8h5.8v1.5h-4v2.8h3.7v1.5h-3.7v4.3h-1.8V117.8z"/>
	<path style="fill:#FFFFFF;" d="M103.2,128.1c-2.1,0-3.7-1.4-3.7-3.8c0-2.4,1.6-3.9,3.8-3.9c2.2,0,3.6,1.5,3.6,3.8
		C106.9,126.9,105,128.1,103.2,128.1L103.2,128.1z M103.2,126.7c1,0,1.8-1,1.8-2.5c0-1.1-0.5-2.5-1.8-2.5c-1.3,0-1.8,1.3-1.8,2.5
		C101.4,125.7,102.1,126.7,103.2,126.7L103.2,126.7z"/>
	<path style="fill:#FFFFFF;" d="M111.6,128.1c-2.1,0-3.7-1.4-3.7-3.8c0-2.4,1.6-3.9,3.8-3.9c2.2,0,3.6,1.5,3.6,3.8
		C115.4,126.9,113.5,128.1,111.6,128.1L111.6,128.1z M111.7,126.7c1,0,1.8-1,1.8-2.5c0-1.1-0.5-2.5-1.8-2.5c-1.3,0-1.8,1.3-1.8,2.5
		C109.9,125.7,110.6,126.7,111.7,126.7L111.7,126.7z"/>
	<path style="fill:#FFFFFF;" d="M119,118.7v1.9h1.8v1.4H119v3.2c0,0.9,0.2,1.4,0.9,1.4c0.3,0,0.5,0,0.7-0.1l0,1.4
		c-0.3,0.1-0.8,0.2-1.3,0.2c-0.7,0-1.2-0.2-1.6-0.6c-0.4-0.4-0.6-1.1-0.6-2.1V122h-1v-1.4h1v-1.4L119,118.7z"/>
	<path style="fill:#FFFFFF;" d="M122.2,117.2h1.8v4.4h0c0.4-0.7,1.2-1.2,2.3-1.2c1.8,0,3.1,1.5,3,3.7c0,2.6-1.7,3.9-3.3,3.9
		c-0.9,0-1.8-0.4-2.3-1.3h0l-0.1,1.1h-1.6c0-0.5,0.1-1.3,0.1-2V117.2z M124,124.9c0,0.1,0,0.3,0,0.4c0.2,0.8,0.8,1.3,1.6,1.3
		c1.2,0,1.9-0.9,1.9-2.4c0-1.3-0.6-2.3-1.8-2.3c-0.8,0-1.4,0.5-1.6,1.4c0,0.1-0.1,0.3-0.1,0.5V124.9z"/>
	<path style="fill:#FFFFFF;" d="M130.9,122.9c0-1,0-1.7-0.1-2.4h1.6l0.1,1.4h0c0.4-1,1.2-1.5,2-1.5c0.2,0,0.3,0,0.4,0v1.7
		c-0.2,0-0.3,0-0.6,0c-0.9,0-1.5,0.6-1.6,1.4c0,0.2,0,0.4,0,0.6v3.8h-1.8V122.9z"/>
	<path style="fill:#FFFFFF;" d="M137.2,119.5c-0.6,0-1-0.5-1-1c0-0.6,0.4-1,1-1c0.6,0,1,0.4,1,1
		C138.2,119.1,137.8,119.5,137.2,119.5L137.2,119.5z M136.3,127.9v-7.3h1.8v7.3H136.3z"/>
	<path style="fill:#FFFFFF;" d="M146.9,117.2v8.6c0,0.7,0,1.6,0.1,2.1h-1.6l-0.1-1.2h0c-0.4,0.8-1.3,1.3-2.4,1.3
		c-1.8,0-3.1-1.5-3.1-3.7c0-2.4,1.5-3.9,3.3-3.9c1,0,1.7,0.4,2.1,0.9h0v-4.1H146.9z M145,123.6c0-0.1,0-0.3,0-0.5
		c-0.2-0.7-0.8-1.3-1.6-1.3c-1.2,0-1.8,1.1-1.8,2.4c0,1.4,0.7,2.3,1.8,2.3c0.8,0,1.4-0.5,1.6-1.3c0-0.2,0.1-0.3,0.1-0.5V123.6z"/>
	<path style="fill:#FFFFFF;" d="M155.4,126.8c0,1.5-0.3,2.6-1.1,3.3c-0.8,0.7-1.8,0.9-2.8,0.9c-0.9,0-1.9-0.2-2.5-0.6l0.4-1.4
		c0.5,0.3,1.2,0.6,2.1,0.6c1.2,0,2.1-0.6,2.1-2.2v-0.6h0c-0.4,0.6-1.2,1.1-2.1,1.1c-1.8,0-3.1-1.5-3.1-3.6c0-2.4,1.6-3.9,3.3-3.9
		c1.1,0,1.8,0.5,2.1,1.1h0l0.1-1h1.6c0,0.5-0.1,1.1-0.1,2.1V126.8z M153.6,123.5c0-0.2,0-0.3-0.1-0.5c-0.2-0.7-0.7-1.2-1.5-1.2
		c-1,0-1.8,0.9-1.8,2.4c0,1.2,0.6,2.2,1.8,2.2c0.7,0,1.3-0.5,1.5-1.1c0.1-0.2,0.1-0.4,0.1-0.6V123.5z"/>
	<path style="fill:#FFFFFF;" d="M158.7,124.8c0,1.3,1.1,1.9,2.2,1.9c0.9,0,1.5-0.1,2-0.3l0.3,1.3c-0.6,0.3-1.5,0.5-2.6,0.5
		c-2.4,0-3.8-1.5-3.8-3.7c0-2,1.2-3.9,3.6-3.9c2.4,0,3.1,2,3.1,3.6c0,0.3,0,0.6-0.1,0.8H158.7z M161.9,123.5c0-0.7-0.3-1.8-1.5-1.8
		c-1.1,0-1.6,1-1.7,1.8H161.9z"/>
	<path style="fill:#FFFFFF;" d="M165.1,126.2c0.4,0.3,1.2,0.5,1.9,0.5c0.8,0,1.2-0.3,1.2-0.8c0-0.5-0.3-0.7-1.2-1.1
		c-1.4-0.5-2-1.3-2-2.1c0-1.3,1.1-2.3,2.8-2.3c0.8,0,1.5,0.2,1.9,0.4l-0.4,1.3c-0.3-0.2-0.9-0.4-1.5-0.4c-0.7,0-1,0.3-1,0.8
		c0,0.5,0.3,0.7,1.3,1c1.3,0.5,1.9,1.1,1.9,2.2c0,1.3-1,2.3-3,2.3c-0.9,0-1.7-0.2-2.2-0.5L165.1,126.2z"/>
</g>
<g>
	<path d="M94.5,38.5c-5.3-3.1-9.7-10.6-9.6-16.7c0-2.1,0.5-3.7,1.4-4.9c-2.4,0.7-3.8,3.4-3.8,7.2c0,6.1,4.3,13.6,9.6,16.7
		c3.9,2.2,7.2,1.5,8.8-1.4C99.2,40.1,96.9,39.9,94.5,38.5z"/>
	<path d="M92.2,5.7c-5.8-3.3-10.8-3.6-14.6-1.5c1.6-0.9,3.1-1.9,4.8-2.9c3.8-2.2,9-1.9,14.8,1.4c11.5,6.6,20.7,22.7,20.7,35.8
		c0,3.6-0.5,8.3-3.3,12.8L98.7,75.6l-5.9,3.5l18.2-28.7c1.2-2.3,1.9-5.3,1.9-8.9C112.9,28.4,103.6,12.3,92.2,5.7z"/>
</g>
<path style="fill:#BE0000;" d="M112.9,41.6c0,3.6-0.7,6.5-1.9,8.9L92.8,79.1l-18-46.5c-2-7-2.6-10.4-2.5-15.2
	c0-13.2,8.6-18.2,20-11.6C103.6,12.3,112.9,28.4,112.9,41.6z M92.1,40.7c5.3,3.1,9.7,0.6,9.7-5.5c0-6.1-4.3-13.6-9.6-16.7
	c-5.3-3.1-9.7-0.6-9.7,5.5C82.4,30.1,86.8,37.6,92.1,40.7L92.1,40.7"/>
</svg>
