<svg xmlns="http://www.w3.org/2000/svg" width="150" height="114.51" viewBox="0 0 150 114.51">
  <g id="Layer_2" data-name="Layer 2">
    <g id="Pointer">
      <g>
        <rect y="82.31" width="150" height="32.2" rx="16.1" style="fill: #be0000"/>
        <g>
          <path d="M20.57,98.23l-1.14,1.18a25.86,25.86,0,0,0-3.72-3.62l1.16-1.11A28.74,28.74,0,0,1,20.57,98.23Zm-.22,3.48c-.87,2.94-1.81,5.7-2.83,8.26l-1.61-.7a76,76,0,0,0,2.94-8.14Zm.94-9.38-1.16,1.14a27.07,27.07,0,0,0-4-3.62l1.16-1.12A28.42,28.42,0,0,1,21.29,92.33Zm14.28-3.52v6.47H33v1.38h3.77V98H33v1.5h4.22v1.37H33.32a12.88,12.88,0,0,0,4.54,2.9l-1,1.26a19.9,19.9,0,0,1-2.61-1.59,12,12,0,0,1-2.37,1.71L31,104.07a13.69,13.69,0,0,0,2.19-1.47,9.48,9.48,0,0,1-1.52-1.72H26.94a9.57,9.57,0,0,1-1.83,1.89,15.78,15.78,0,0,1,2,1.52l-.94.94a14.94,14.94,0,0,0-2.2-1.69,20.07,20.07,0,0,1-2.32,1.21l-.82-1.35a11.21,11.21,0,0,0,4.4-2.52H21.12V99.51h4.5V98H21.87V96.66h3.75V95.28H23V88.81Zm-8.19,18a28.44,28.44,0,0,1-5.85,2.34L21,107.77a28.54,28.54,0,0,0,6.12-2.25ZM34,91.39v-1.3H24.58v1.3Zm0,1.26H24.58V94H34Zm-7.9,17.63-.36-1.55c.67,0,1.33.1,1.95.1s.75-.22.75-.63v-6.47H30v6.86c0,1.11-.6,1.69-1.79,1.69Zm5.36-13.62V95.28H27.23v1.38Zm0,2.85V98H27.23v1.5Zm5.8,8.81-.85,1.31a27.19,27.19,0,0,0-5.48-2.78l.77-1.13A30.94,30.94,0,0,1,37.21,108.32Z" style="fill: #fff"/>
          <path d="M53.22,94.51v2.94H60v8.12a2,2,0,0,1-2.27,2.27H55.49l-.43-1.62,2.15,0c.77,0,1.15-.36,1.15-1.06V99.07H53.22v11.24H51.55V99.07H46.38V108H44.72V98.76a36.8,36.8,0,0,1-3.94,3.48l-1.11-1.45A27.08,27.08,0,0,0,46.92,93H40.47V91.3h7.36a23.74,23.74,0,0,0,1.33-3.24l1.76.22a26.27,26.27,0,0,1-1.15,3H61.48V93H48.92a26.78,26.78,0,0,1-3,4.46h5.67V94.51Z" style="fill: #fff"/>
          <path d="M69,97.77,67.83,98.9a22.59,22.59,0,0,0-3.72-3.59l1.13-1.09A27.16,27.16,0,0,1,69,97.77Zm.32,3.65a86.41,86.41,0,0,1-3.5,8.59l-1.6-.67a72.43,72.43,0,0,0,3.65-8.53Zm-.22-9.5-1.14,1.16a21.52,21.52,0,0,0-3.52-3.5l1.13-1.09A29,29,0,0,1,69.06,91.92Zm1.74,4.57a17.44,17.44,0,0,1-.53,2.9L69.21,99a14.3,14.3,0,0,0,.62-2.75Zm4.06-.82-1.06.26-.2-.77c-1.21.24-2.53.46-4,.65l-.22-1c.51-.17,1.28-1,2.29-2.48l-2,.21-.24-.94a9.22,9.22,0,0,0,2-3.36l1.18.34a10.09,10.09,0,0,1-1.81,2.9l1.57-.17c.27-.43.56-.89.85-1.38l1.16.42a30.49,30.49,0,0,1-3.07,4.25c.72-.15,1.4-.27,2-.39-.15-.44-.29-.85-.46-1.26l1-.31A18.7,18.7,0,0,1,74.86,95.67Zm-2.3,9.83H84.83c0,2.08-.19,3.38-.55,3.91a2.91,2.91,0,0,1-2.51.92c-1.07,0-2.11,0-3.12-.07l-.36-1.38c1.16.05,2.22.07,3.21.07.77,0,1.26-.17,1.47-.48a4.17,4.17,0,0,0,.25-1.6H70.82l.58-4.15H82.49v-1.55H71.19V99.89H84V104H72.78Zm.22-6.38-1.09.15a22.83,22.83,0,0,0-.19-2.83l.94-.1A14.55,14.55,0,0,1,72.78,99.12Zm2-.58-1,.36c-.17-.84-.36-1.66-.6-2.46l.89-.27C74.42,97,74.66,97.82,74.83,98.54Zm1.89-8.91a13.41,13.41,0,0,0-.49-1.33l1.48-.24c.17.48.31,1,.46,1.57h2.1v1.16H74.69V89.63Zm3,5.82V99H75.22v-3.5Zm-.14-3.74v1H75.36v-1Zm0,1.86v1H75.36v-1Zm-1,2.8H76.38V98H78.6Zm7.3-.8-1.09.24c0-.24-.12-.46-.17-.67-1.21.19-2.58.38-4.13.58l-.24-1c.53-.17,1.33-1,2.39-2.39-.6,0-1.26.12-2,.19l-.24-.94a9.13,9.13,0,0,0,2-3.29l1.19.34a10.79,10.79,0,0,1-1.82,2.83l1.6-.17.89-1.33,1.16.41a27.31,27.31,0,0,1-3.26,4.18c.77-.12,1.5-.24,2.13-.36-.17-.51-.34-1-.53-1.45l1-.32A26.79,26.79,0,0,1,85.9,95.57Zm-4,.87a20,20,0,0,1-.46,2.87l-1.06-.38a13.75,13.75,0,0,0,.56-2.73Zm2,2.61-1.11.14a22.86,22.86,0,0,0-.24-2.82l.94-.1A13.77,13.77,0,0,1,83.89,99.05ZM86,98.42l-1,.34c-.21-.85-.46-1.67-.75-2.49l.9-.26A18.61,18.61,0,0,1,86,98.42Z" style="fill: #fff"/>
          <path d="M96.69,89.75a26.6,26.6,0,0,1-6.91,11L88.4,99.56A24,24,0,0,0,95.07,89.1Zm11.4,19.81-1.62.72c-.36-.82-.72-1.57-1.09-2.29-4.27.65-9,1.16-14.25,1.49l-.31-1.69q2.87-1.52,7.22-11.45l1.72.58a51.66,51.66,0,0,1-6.24,10.78q5.88-.37,11.09-1.21a49.59,49.59,0,0,0-2.92-4.78l1.59-.51A50.81,50.81,0,0,1,108.09,109.56ZM104.18,89a17.58,17.58,0,0,0,5.91,10.39l-1.37,1.25a19.31,19.31,0,0,1-5.9-10h-4V89Z" style="fill: #fff"/>
          <path d="M133.13,110.33h-1.69v-1.06H115.16v1.06h-1.69V89.12h19.66Zm-1.69-2.63v-17H115.16v17Zm-2.94-9.83v4h-5.39a9.64,9.64,0,0,1-1.38,1.31v2.53c.94-.24,1.91-.51,2.88-.8l.24,1.26c-1.5.44-3,.8-4.54,1.09l-.46-1.14a.62.62,0,0,0,.48-.58v-1.47A21.57,21.57,0,0,1,117,105.5l-.8-1.31a14.13,14.13,0,0,0,5.34-2.34h-3.38v-4Zm-6-5.15v-1.3h1.59v1.3H129V94H124.1v1.43h6.11v1.3H116.47v-1.3h6V94h-4.93v-1.3Zm4.54,6.33h-7.52v1.62h7.52Zm3.09,3.69a22.12,22.12,0,0,1-2.42,1.45c.92.49,1.81,1,2.64,1.53l-.83,1.23a28,28,0,0,0-6.11-3.29l.73-1.08c.77.29,1.52.62,2.24,1a15.68,15.68,0,0,0,2.69-1.62Z" style="fill: #fff"/>
        </g>
        <g>
          <path d="M74.51,38.49c-5.34-3.08-9.65-10.56-9.63-16.7a8.06,8.06,0,0,1,1.36-4.86c-2.36.72-3.8,3.36-3.81,7.17,0,6.14,4.3,13.62,9.64,16.7,3.89,2.25,7.25,1.53,8.79-1.38C79.16,40.13,76.94,39.89,74.51,38.49Z"/>
          <path d="M72.19,5.73C66.42,2.4,61.38,2.09,57.61,4.28c1.58-.91,3.13-1.92,4.78-2.88,3.78-2.19,9-1.88,14.77,1.45C88.62,9.46,97.88,25.5,97.84,38.67a23.45,23.45,0,0,1-3.32,12.81L78.7,75.62l-6,3.47L90.94,50.42a19.06,19.06,0,0,0,1.93-8.87C92.91,28.39,83.65,12.35,72.19,5.73Z"/>
        </g>
        <path d="M92.87,41.55a19.06,19.06,0,0,1-1.93,8.87L72.75,79.09l-18-46.54c-2-7-2.56-10.41-2.55-15.21,0-13.17,8.57-18.22,20-11.61S92.91,28.39,92.87,41.55Zm-20.78-.86c5.35,3.09,9.69.61,9.71-5.53s-4.3-13.62-9.65-16.71-9.68-.6-9.7,5.54,4.3,13.62,9.64,16.7h0" style="fill: #be0000"/>
      </g>
    </g>
  </g>
</svg>
