<?xml version="1.0" encoding="utf-8"?>
<!-- Generator: Adobe Illustrator 26.0.1, SVG Export Plug-In . SVG Version: 6.00 Build 0)  -->
<svg version="1.1" id="Layer_1" xmlns="http://www.w3.org/2000/svg" xmlns:xlink="http://www.w3.org/1999/xlink" x="0px" y="0px"
	 width="170px" height="135.3px" viewBox="0 0 170 135.3" style="enable-background:new 0 0 170 135.3;" xml:space="preserve">
<path style="fill:#BE0000;" d="M143.5,135.3h-117C11.9,135.3,0,123.4,0,108.8v0c0-14.6,11.9-26.5,26.5-26.5h117
	c14.6,0,26.5,11.9,26.5,26.5v0C170,123.4,158.1,135.3,143.5,135.3z"/>
<g>
	<path style="fill:#FFFFFF;" d="M30.7,100l-1.5,1.5c-0.9-1.1-2.1-2.3-3.7-3.6l1.5-1.5C28.5,97.7,29.7,98.9,30.7,100z M30.6,103.8
		c-0.8,2.9-1.7,5.7-2.7,8.2l-2.1-0.9c1.1-2.6,2.1-5.3,2.9-8.1L30.6,103.8z M31.5,94.1l-1.5,1.5C29,94.5,27.7,93.3,26,92l1.5-1.4
		C29.1,91.7,30.4,92.9,31.5,94.1z M45.8,90.7v6.7h-2.6v1h3.6v1.7h-3.6v1.1h4v1.8h-3.6c1,0.9,2.4,1.7,4.3,2.5l-1.3,1.7
		c-1-0.5-1.8-1-2.5-1.6c-0.7,0.6-1.4,1.1-2.2,1.6l-1.1-1.4c0.7-0.4,1.4-0.8,2-1.3c-0.5-0.5-0.9-1-1.3-1.5h-4.5
		c-0.5,0.6-1,1.2-1.6,1.7c0.7,0.5,1.3,0.9,1.8,1.4l-1.2,1.2c-0.5-0.5-1.2-1-2-1.6c-0.7,0.4-1.4,0.8-2.1,1.1l-1.1-1.7
		c1.7-0.6,3-1.3,4-2.1h-3.7v-1.8h4.3v-1.1h-3.6v-1.7h3.6v-1h-2.6v-6.7H45.8z M37.5,109c-1.5,0.8-3.4,1.6-5.7,2.2l-0.7-1.7
		c2.3-0.6,4.3-1.3,6-2.1L37.5,109z M43.7,93.2v-0.9h-8.9v0.9H43.7z M43.7,94.8h-8.9v0.9h8.9V94.8z M36.1,112.4l-0.5-2
		c0.7,0.1,1.3,0.1,1.9,0.1c0.4,0,0.7-0.2,0.7-0.6v-6.1h2.1v6.7c0,1.3-0.7,1.9-2.1,1.9H36.1z M41.2,98.4v-1h-3.7v1H41.2z M41.2,101.3
		v-1.1h-3.7v1.1H41.2z M47.2,110.1l-1.1,1.7c-1.7-1.2-3.5-2.1-5.3-2.7l1-1.5C43.8,108.3,45.6,109.1,47.2,110.1z"/>
	<path style="fill:#FFFFFF;" d="M63.5,96.5v2.8h6.7v8.2c0,1.7-0.8,2.5-2.5,2.5h-2.2l-0.6-2.1l2,0.1c0.7,0,1.1-0.3,1.1-1v-5.6h-4.5
		v11h-2.2v-11h-4.5v8.8h-2.2v-9c-1.1,1.1-2.3,2.1-3.6,3.1l-1.5-1.9c2.9-2.1,5.1-4.5,6.8-7.1h-6V93h7.3c0.5-1,0.9-2,1.2-3l2.3,0.3
		c-0.3,1-0.7,1.9-1,2.8h11.4v2.2H59.1c-0.8,1.4-1.7,2.8-2.8,4h5v-2.8H63.5z"/>
	<path style="fill:#FFFFFF;" d="M79.1,99.6l-1.5,1.5c-0.9-1.1-2.1-2.3-3.7-3.6l1.5-1.4C76.9,97.2,78.1,98.4,79.1,99.6z M79.5,103.5
		c-1,3-2.2,5.9-3.4,8.6l-2.1-0.9c1.4-2.8,2.6-5.6,3.6-8.5L79.5,103.5z M79.2,93.8l-1.5,1.5c-0.8-1.1-2-2.2-3.5-3.5l1.5-1.4
		C77.1,91.5,78.3,92.6,79.2,93.8z M80.9,98.5c-0.1,1-0.2,2-0.5,2.9l-1.3-0.5c0.3-0.9,0.5-1.8,0.6-2.8L80.9,98.5z M85,97.6L83.6,98
		c-0.1-0.2-0.1-0.5-0.2-0.7c-1.2,0.2-2.5,0.4-3.9,0.6l-0.3-1.3c0.5-0.1,1.2-0.9,2.1-2.2c-0.5,0-1.1,0.1-1.7,0.2l-0.3-1.2
		c0.7-0.7,1.3-1.8,1.8-3.2l1.5,0.4c-0.5,1.1-1,2-1.7,2.7c0.4,0,0.8-0.1,1.2-0.1c0.2-0.4,0.5-0.8,0.8-1.3l1.5,0.5
		c-0.7,1-1.2,1.9-1.7,2.6l1.3-0.4C84.3,95.4,84.7,96.5,85,97.6z M83,107.4h12c0,2.1-0.2,3.5-0.5,4.1c-0.4,0.6-1.2,0.9-2.4,0.9
		c-1.2,0-2.3,0-3.4-0.1l-0.5-1.8c1.3,0,2.4,0.1,3.5,0.1c0.6,0,0.9-0.1,1-0.4c0.1-0.2,0.2-0.6,0.2-1.1H80.7l0.7-4.6h10.7v-1.2h-11
		v-1.6h13v4.5H83.2L83,107.4z M82.9,101.1l-1.4,0.2c0-1.2-0.1-2.1-0.1-2.8l1.1-0.1C82.7,99,82.8,99.9,82.9,101.1z M81.6,96.3
		l1.5-0.3c-0.1-0.4-0.3-0.7-0.4-1.1C82.2,95.5,81.9,96,81.6,96.3z M84.9,100.5l-1.2,0.4c-0.2-0.8-0.4-1.7-0.6-2.5l1.1-0.3
		C84.5,99,84.8,99.8,84.9,100.5z M86.5,91.5c-0.1-0.4-0.3-0.8-0.4-1.2l1.9-0.3c0.1,0.4,0.3,0.9,0.4,1.5h2V93h-5.7v-1.5H86.5z
		 M89.8,97.4v3.6h-4.7v-3.6H89.8z M89.6,93.6v1.3h-4.3v-1.3H89.6z M89.6,95.5v1.2h-4.3v-1.2H89.6z M88.3,98.5h-1.7v1.3h1.7V98.5z
		 M96,97.5l-1.3,0.3l-0.1-0.6c-1.2,0.2-2.5,0.4-4,0.6l-0.3-1.3c0.5-0.1,1.2-0.9,2.1-2.1c-0.5,0-1.1,0.1-1.6,0.2l-0.3-1.2
		c0.7-0.7,1.3-1.8,1.8-3.2l1.5,0.4c-0.5,1.1-1,1.9-1.6,2.6c0.4,0,0.8-0.1,1.2-0.1c0.3-0.4,0.5-0.8,0.8-1.3l1.5,0.5
		C95,93.2,94.5,94,94,94.6l0.9-0.3C95.3,95.3,95.7,96.3,96,97.5z M92,98.5c-0.1,1-0.2,2-0.4,2.9l-1.3-0.5c0.2-0.8,0.4-1.8,0.5-2.7
		L92,98.5z M94,101l-1.4,0.2c0-1.2-0.1-2.1-0.2-2.8l1.1-0.1C93.8,98.9,93.9,99.9,94,101z M92.5,96.3c0.6-0.1,1.1-0.2,1.6-0.3
		c-0.1-0.4-0.3-0.7-0.4-1.1C93.3,95.5,92.9,96,92.5,96.3z M96.1,100.3l-1.2,0.4c-0.2-0.8-0.4-1.7-0.7-2.5l1.1-0.3
		C95.6,98.9,95.9,99.6,96.1,100.3z"/>
	<path style="fill:#FFFFFF;" d="M106.9,91.7c-1.7,4.8-4,8.5-6.8,11.1l-1.8-1.6c2.9-2.6,5-6.1,6.4-10.4L106.9,91.7z M118.2,111.4
		l-2.1,1c-0.3-0.8-0.7-1.6-1-2.3c-4.2,0.6-8.9,1.1-14,1.4l-0.4-2.2c1.7-0.6,4.1-4.3,7.2-11.1L110,99c-1.9,4.1-3.9,7.5-5.9,10.2
		c3.4-0.2,6.7-0.6,10-1.1c-0.8-1.6-1.6-3.1-2.5-4.4l2.1-0.7C115.4,105.7,116.9,108.5,118.2,111.4z M114.4,90.8
		c0.8,4.3,2.8,7.7,5.8,10.3l-1.8,1.6c-2.9-2.6-4.8-5.9-5.7-9.8h-3.9v-2.1H114.4z"/>
	<path style="fill:#FFFFFF;" d="M143.4,112.4h-2.2v-0.9h-15.7v0.9h-2.2V90.9h20.1V112.4z M141.2,109.4V93h-15.7v16.5H141.2z
		 M138.7,99.8v4.2l0.2-0.2l1.4,1c-0.7,0.5-1.4,0.9-2.1,1.3c0.8,0.4,1.5,0.8,2.2,1.3l-1.1,1.6c-1.9-1.4-3.9-2.4-5.9-3.2l0.9-1.4
		c0.7,0.3,1.5,0.6,2.2,0.9c0.8-0.4,1.6-0.9,2.2-1.3h-5.4c-0.4,0.4-0.8,0.8-1.3,1.2v2.2c0.8-0.2,1.7-0.4,2.6-0.7l0.3,1.6
		c-1.5,0.4-3.1,0.7-4.7,1l-0.6-1.5c0.3-0.1,0.5-0.4,0.5-0.7v-0.8c-0.9,0.4-1.9,0.9-3,1.3l-1-1.7c2.3-0.6,3.9-1.2,5-1.9h-3.2v-4.2
		H138.7z M132.3,94.6v-1h2.1v1h4.7v1.7h-4.7v1h5.9v1.7h-13.8v-1.7h5.8v-1h-4.7v-1.7H132.3z M136.8,101.3h-7.1v1.2h7.1V101.3z"/>
	<path style="fill:#FFFFFF;" d="M29.1,127.9l-2.5-10.1h2l1,4.6c0.3,1.2,0.5,2.5,0.7,3.5h0c0.2-1.1,0.5-2.3,0.7-3.6l1.1-4.6H34l1,4.6
		c0.2,1.2,0.5,2.3,0.6,3.4h0c0.2-1.1,0.4-2.3,0.7-3.5l1.1-4.6h1.9l-2.7,10.1h-2l-1-4.8c-0.3-1.1-0.4-2.1-0.6-3.2h0
		c-0.2,1.1-0.4,2.1-0.7,3.2l-1.2,4.8H29.1z"/>
	<path style="fill:#FFFFFF;" d="M45.5,126.1c0,0.7,0,1.3,0.1,1.8h-1.7l-0.1-0.8h0c-0.4,0.6-1.2,1-2.2,1c-1.5,0-2.3-1.1-2.3-2.2
		c0-1.8,1.6-2.8,4.3-2.8V123c0-0.5-0.2-1.3-1.5-1.3c-0.7,0-1.5,0.2-2,0.5l-0.4-1.2c0.5-0.3,1.5-0.6,2.6-0.6c2.3,0,3,1.5,3,3.1V126.1
		z M43.7,124.3c-1.3,0-2.6,0.3-2.6,1.4c0,0.7,0.5,1.1,1.1,1.1c0.8,0,1.3-0.5,1.5-1c0-0.1,0-0.3,0-0.4V124.3z"/>
	<path style="fill:#FFFFFF;" d="M49.5,118.7v1.9h1.8v1.4h-1.8v3.2c0,0.9,0.2,1.4,0.9,1.4c0.3,0,0.5,0,0.7-0.1l0,1.4
		c-0.3,0.1-0.8,0.2-1.3,0.2c-0.7,0-1.2-0.2-1.6-0.6c-0.4-0.4-0.6-1.1-0.6-2.1V122h-1v-1.4h1v-1.4L49.5,118.7z"/>
	<path style="fill:#FFFFFF;" d="M53.8,124.8c0,1.3,1.1,1.9,2.2,1.9c0.9,0,1.5-0.1,2-0.3l0.3,1.3c-0.6,0.3-1.5,0.5-2.5,0.5
		c-2.4,0-3.8-1.5-3.8-3.7c0-2,1.2-3.9,3.6-3.9c2.4,0,3.1,2,3.1,3.6c0,0.3,0,0.6-0.1,0.8H53.8z M57,123.5c0-0.7-0.3-1.8-1.5-1.8
		c-1.1,0-1.6,1-1.7,1.8H57z"/>
	<path style="fill:#FFFFFF;" d="M60.3,122.9c0-1,0-1.7-0.1-2.4h1.6l0.1,1.4h0c0.4-1,1.2-1.5,2-1.5c0.2,0,0.3,0,0.4,0v1.7
		c-0.2,0-0.3,0-0.6,0c-0.9,0-1.5,0.6-1.6,1.4c0,0.2,0,0.4,0,0.6v3.8h-1.8V122.9z"/>
	<path style="fill:#FFFFFF;" d="M66.2,127.9V122h-1v-1.4h1v-0.3c0-0.9,0.3-1.9,0.9-2.5c0.5-0.5,1.3-0.7,1.9-0.7
		c0.5,0,0.9,0.1,1.2,0.2l-0.1,1.4c-0.2-0.1-0.4-0.1-0.8-0.1c-0.9,0-1.2,0.8-1.2,1.7v0.4h1.6v1.4h-1.6v5.9H66.2z"/>
	<path style="fill:#FFFFFF;" d="M76.5,126.1c0,0.7,0,1.3,0.1,1.8h-1.7l-0.1-0.8h0c-0.4,0.6-1.2,1-2.2,1c-1.5,0-2.3-1.1-2.3-2.2
		c0-1.8,1.6-2.8,4.3-2.8V123c0-0.5-0.2-1.3-1.5-1.3c-0.7,0-1.5,0.2-2,0.5l-0.4-1.2c0.5-0.3,1.5-0.6,2.6-0.6c2.3,0,3,1.5,3,3.1V126.1
		z M74.7,124.3c-1.3,0-2.6,0.3-2.6,1.4c0,0.7,0.5,1.1,1.1,1.1c0.8,0,1.3-0.5,1.5-1c0-0.1,0-0.3,0-0.4V124.3z"/>
	<path style="fill:#FFFFFF;" d="M78.4,117.2h1.8v10.7h-1.8V117.2z"/>
	<path style="fill:#FFFFFF;" d="M82.3,117.2h1.8v10.7h-1.8V117.2z"/>
	<path style="fill:#FFFFFF;" d="M89.3,117.9c0.6-0.1,1.7-0.2,2.7-0.2c1.3,0,2.2,0.2,2.9,0.6c0.6,0.4,1,1,1,1.9
		c0,0.9-0.6,1.8-1.7,2.2v0c1.1,0.3,2,1.1,2,2.5c0,0.9-0.4,1.6-1,2.1c-0.7,0.6-1.9,0.9-3.8,0.9c-1,0-1.8-0.1-2.3-0.1V117.9z
		 M91.1,121.9h0.9c1.3,0,2-0.6,2-1.5c0-1-0.7-1.4-1.9-1.4c-0.5,0-0.9,0-1,0.1V121.9z M91.1,126.6c0.2,0,0.6,0,1,0
		c1.2,0,2.2-0.4,2.2-1.7c0-1.2-1-1.6-2.3-1.6h-0.9V126.6z"/>
	<path style="fill:#FFFFFF;" d="M103.6,126.1c0,0.7,0,1.3,0.1,1.8H102l-0.1-0.8h0c-0.4,0.6-1.2,1-2.2,1c-1.5,0-2.3-1.1-2.3-2.2
		c0-1.8,1.6-2.8,4.3-2.8V123c0-0.5-0.2-1.3-1.5-1.3c-0.7,0-1.5,0.2-2,0.5l-0.4-1.2c0.5-0.3,1.5-0.6,2.6-0.6c2.3,0,3,1.5,3,3.1V126.1
		z M101.8,124.3c-1.3,0-2.6,0.3-2.6,1.4c0,0.7,0.5,1.1,1.1,1.1c0.8,0,1.3-0.5,1.5-1c0-0.1,0-0.3,0-0.4V124.3z"/>
	<path style="fill:#FFFFFF;" d="M106.5,120.6l1.3,3.9c0.2,0.4,0.3,1,0.4,1.4h0c0.1-0.4,0.2-1,0.4-1.4l1.1-3.9h2l-1.8,5
		c-1,2.7-1.7,3.9-2.5,4.7c-0.7,0.6-1.5,0.9-1.9,0.9l-0.4-1.5c0.3-0.1,0.7-0.2,1.1-0.5c0.3-0.2,0.8-0.7,1-1.2
		c0.1-0.1,0.1-0.2,0.1-0.3c0-0.1,0-0.2-0.1-0.4l-2.7-6.7H106.5z"/>
	<path style="fill:#FFFFFF;" d="M116,117.9c0.7-0.1,1.6-0.2,2.8-0.2c1.4,0,2.3,0.3,3,0.8c0.6,0.5,1,1.3,1,2.2c0,1-0.3,1.7-0.9,2.3
		c-0.8,0.7-1.9,1.1-3.2,1.1c-0.3,0-0.6,0-0.9-0.1v3.8H116V117.9z M117.9,122.6c0.2,0.1,0.5,0.1,0.9,0.1c1.4,0,2.2-0.7,2.2-1.9
		c0-1.1-0.8-1.7-2.1-1.7c-0.5,0-0.9,0-1.1,0.1V122.6z"/>
	<path style="fill:#FFFFFF;" d="M129.7,126.1c0,0.7,0,1.3,0.1,1.8h-1.7l-0.1-0.8h0c-0.4,0.6-1.2,1-2.2,1c-1.5,0-2.3-1.1-2.3-2.2
		c0-1.8,1.6-2.8,4.3-2.8V123c0-0.5-0.2-1.3-1.5-1.3c-0.7,0-1.5,0.2-2,0.5l-0.4-1.2c0.5-0.3,1.5-0.6,2.6-0.6c2.3,0,3,1.5,3,3.1V126.1
		z M127.9,124.3c-1.3,0-2.5,0.3-2.5,1.4c0,0.7,0.5,1.1,1,1.1c0.8,0,1.3-0.5,1.5-1c0-0.1,0-0.3,0-0.4V124.3z"/>
	<path style="fill:#FFFFFF;" d="M131.6,122.9c0-1,0-1.7-0.1-2.4h1.6l0.1,1.4h0c0.4-1,1.2-1.5,2-1.5c0.2,0,0.3,0,0.4,0v1.7
		c-0.2,0-0.3,0-0.6,0c-0.9,0-1.5,0.6-1.6,1.4c0,0.2,0,0.4,0,0.6v3.8h-1.8V122.9z"/>
	<path style="fill:#FFFFFF;" d="M138.8,123.8L138.8,123.8c0.2-0.3,0.4-0.6,0.6-0.9l1.8-2.4h2.2l-2.7,3l3.1,4.3h-2.3l-2.1-3.2
		l-0.6,0.7v2.5H137v-10.7h1.8V123.8z"/>
</g>
<g>
	<path d="M84.5,38.5c-5.3-3.1-9.7-10.6-9.6-16.7c0-2.1,0.5-3.7,1.4-4.9c-2.4,0.7-3.8,3.4-3.8,7.2c0,6.1,4.3,13.6,9.6,16.7
		c3.9,2.2,7.2,1.5,8.8-1.4C89.2,40.1,86.9,39.9,84.5,38.5z"/>
	<path d="M82.2,5.7c-5.8-3.3-10.8-3.6-14.6-1.5c1.6-0.9,3.1-1.9,4.8-2.9c3.8-2.2,9-1.9,14.8,1.4c11.5,6.6,20.7,22.7,20.7,35.8
		c0,3.6-0.5,8.3-3.3,12.8L88.7,75.6l-5.9,3.5l18.2-28.7c1.2-2.3,1.9-5.3,1.9-8.9C102.9,28.4,93.6,12.3,82.2,5.7z"/>
</g>
<path style="fill:#BE0000;" d="M102.9,41.6c0,3.6-0.7,6.5-1.9,8.9L82.8,79.1l-18-46.5c-2-7-2.6-10.4-2.5-15.2
	c0-13.2,8.6-18.2,20-11.6C93.6,12.3,102.9,28.4,102.9,41.6z M82.1,40.7c5.3,3.1,9.7,0.6,9.7-5.5c0-6.1-4.3-13.6-9.6-16.7
	c-5.3-3.1-9.7-0.6-9.7,5.5C72.4,30.1,76.8,37.6,82.1,40.7L82.1,40.7"/>
</svg>
