<svg xmlns="http://www.w3.org/2000/svg" width="100" height="114.51" viewBox="0 0 100 114.51">
  <g id="Layer_2" data-name="Layer 2">
    <g id="Pointer">
      <g>
        <rect y="82.31" width="100" height="32.2" rx="16.1" style="fill: #be0000"/>
        <g>
          <path d="M20.66,89.77V88.13h1.71v1.64H25.3v1.57H22.37v1.55H20.66V91.34H15.42V89.77Zm14.27,4v1.53H26.72v6.86H36v1.52H26.72v2.24h8.05v1.55H26.72v2.87H25v-2.87H17v-1.55H25v-2.24H15.76v-1.52H25V95.26H16.87V93.73ZM20.61,96.1v1.81h2.73v1.48H20.61v1.93H18.92V99.39H16V97.91h3V96.1Zm10.46-8v1.64h5.22v1.57H31.07v1.55H29.35V91.34H26.41V89.77h2.94V88.13Zm1.71,8v1.81h3v1.48h-3v1.93H31.09V99.39H28.36V97.91h2.73V96.1Z" style="fill: #fff"/>
          <path d="M60.17,94.63H58.5v-3h-17v3H39.83V90.06h9.4a18.44,18.44,0,0,0-.89-1.78L50.17,88A16.12,16.12,0,0,1,51,90.06h9.13Zm-1.5,15.7H57v-.87H43.12v.89H41.45V101.8H58.67ZM57.3,93.13v1.4H42.68v-1.4Zm-8.12,11.79v-1.76H43.12v1.76Zm0,3.16v-1.86H43.12v1.86Zm7.37-12.2v4.59h-13V95.88Zm-1.64,1.33H45.17v2h9.74Zm-4,7.71H57v-1.76H50.9ZM57,108.08v-1.86H50.9v1.86Z" style="fill: #fff"/>
          <path d="M68.52,91.13V88.2h1.72v2.93H75v1.69H70.24v8.5h2.61V95.23h1.62v7.71H70.24v4.37a26.29,26.29,0,0,0,4.54-1.55l.34,1.6a46.35,46.35,0,0,1-7.1,2.17l-.46-1.69a1.28,1.28,0,0,0,1-1.3v-3.6H64.3V95.28h1.64v6h2.58v-8.5H63.4V91.13Zm16-2v1.31c-.77,2.46-1.6,4.73-2.49,6.86q2.82,3.66,2.85,6a3.92,3.92,0,0,1-.89,2.94c-.66.58-2,.9-3.89.9l-.51-1.77a12.7,12.7,0,0,0,1.57.12,2.45,2.45,0,0,0,1.69-.48,3,3,0,0,0,.36-1.71q0-2.3-3-6a59.41,59.41,0,0,0,2.47-6.57H78.55v19.56H76.88V89.12Z" style="fill: #fff"/>
        </g>
        <g>
          <path d="M49.51,38.49c-5.34-3.08-9.65-10.56-9.63-16.7a8.06,8.06,0,0,1,1.36-4.86c-2.36.72-3.8,3.36-3.81,7.17,0,6.14,4.3,13.62,9.64,16.7,3.89,2.25,7.25,1.53,8.79-1.38C54.16,40.13,51.94,39.89,49.51,38.49Z"/>
          <path d="M47.19,5.73C41.42,2.4,36.38,2.09,32.61,4.28c1.58-.91,3.13-1.92,4.78-2.88,3.78-2.19,9-1.88,14.77,1.45C63.62,9.46,72.88,25.5,72.84,38.67a23.45,23.45,0,0,1-3.32,12.81L53.7,75.62l-6,3.47L65.94,50.42a19.06,19.06,0,0,0,1.93-8.87C67.91,28.39,58.65,12.35,47.19,5.73Z"/>
        </g>
        <path d="M67.87,41.55a19.06,19.06,0,0,1-1.93,8.87L47.75,79.09l-18-46.54c-2-7-2.56-10.41-2.55-15.21,0-13.17,8.57-18.22,20-11.61S67.91,28.39,67.87,41.55Zm-20.78-.86c5.35,3.09,9.69.61,9.71-5.53s-4.3-13.62-9.65-16.71-9.68-.6-9.7,5.54,4.3,13.62,9.64,16.7h0" style="fill: #be0000"/>
      </g>
    </g>
  </g>
</svg>
