<?xml version="1.0" encoding="utf-8"?>
<!-- Generator: Adobe Illustrator 26.0.1, SVG Export Plug-In . SVG Version: 6.00 Build 0)  -->
<svg version="1.1" id="Layer_1" xmlns="http://www.w3.org/2000/svg" xmlns:xlink="http://www.w3.org/1999/xlink" x="0px" y="0px"
	 width="140px" height="135.7px" viewBox="0 0 140 135.7" style="enable-background:new 0 0 140 135.7;" xml:space="preserve">
<path style="fill:#BE0000;" d="M113.5,135.3h-87C11.9,135.3,0,123.4,0,108.8v0c0-14.6,11.9-26.5,26.5-26.5h87
	c14.6,0,26.5,11.9,26.5,26.5v0C140,123.4,128.1,135.3,113.5,135.3z"/>
<g>
	<path style="fill:#FFFFFF;" d="M40.4,91.5v-1.5h2.2v1.5h2.7v2.1h-2.7v1.3h-2.2v-1.3h-5v-2.1H40.4z M55,95.5v2h-8v6.4H56v2H47v1.8
		h7.8v2H47v2.7h-2.2v-2.7h-7.9v-2h7.9v-1.8h-9.1v-2h9.1v-6.4h-7.9v-2H55z M40.9,98.1v1.6h2.5v1.9h-2.5v1.6h-2.2v-1.6h-2.8v-1.9h2.8
		v-1.6H40.9z M51.3,90.1v1.5h5v2.1h-5v1.3h-2.2v-1.3h-2.7v-2.1h2.7v-1.5H51.3z M53,98.1v1.6h2.8v1.9H53v1.6h-2.2v-1.6h-2.5v-1.9h2.5
		v-1.6H53z"/>
	<path style="fill:#FFFFFF;" d="M80.3,96.6h-2.2v-2.8H61.9v2.8h-2.2v-4.8h9.1c-0.2-0.6-0.5-1.1-0.8-1.5l2.4-0.4
		c0.3,0.6,0.6,1.2,0.8,1.9h9.1V96.6z M78.8,112.4h-2.2v-0.7H63.5v0.7h-2.2v-8.7h17.5V112.4z M77.2,95v1.8H62.8V95H77.2z M76.7,97.9
		v4.8H63.4v-4.8H76.7z M68.9,106.8v-1.4h-5.4v1.4H68.9z M68.9,109.9v-1.4h-5.4v1.4H68.9z M74.5,99.5h-9.1v1.5h9.1V99.5z M71.1,106.8
		h5.5v-1.4h-5.5V106.8z M76.6,109.9v-1.4h-5.5v1.4H76.6z"/>
	<path style="fill:#FFFFFF;" d="M88.3,92.9v-2.7h2.2v2.7h4.6v2.2h-4.6v7.9h2v-5.8h2.1v7.9h-4.1v3.7c1.5-0.4,2.9-0.8,4.2-1.4l0.4,2.1
		c-2.2,0.9-4.7,1.6-7.5,2.2l-0.6-2.2c0.8-0.3,1.3-0.8,1.3-1.7v-2.7h-4.1v-7.9h2.1v5.8h2v-7.9h-4.9v-2.2H88.3z M104.8,90.9v1.7
		c-0.7,2.4-1.5,4.6-2.4,6.7c1.8,2.4,2.8,4.4,2.8,5.9c0,1.5-0.3,2.6-0.9,3.2c-0.7,0.6-2,0.9-4,0.9l-0.7-2.3c0.8,0.1,1.5,0.1,2.1,0.1
		c0.6,0,0.9-0.2,1.1-0.4c0.1-0.2,0.2-0.7,0.2-1.5c0-1.5-1-3.5-2.9-5.9c0.8-1.8,1.6-3.9,2.3-6.3h-3.5v19.4h-2.2V90.9H104.8z"/>
	<path style="fill:#FFFFFF;" d="M23.8,127.9l-2.5-10.1h2l1,4.6c0.3,1.2,0.5,2.5,0.7,3.5h0c0.2-1.1,0.4-2.3,0.7-3.6l1.1-4.6h1.9
		l1,4.6c0.2,1.2,0.5,2.3,0.6,3.4h0c0.2-1.1,0.4-2.3,0.7-3.5l1-4.6H34l-2.7,10.1h-2l-1-4.8c-0.3-1.1-0.4-2.1-0.6-3.2h0
		c-0.2,1.1-0.4,2.1-0.7,3.2l-1.2,4.8H23.8z"/>
	<path style="fill:#FFFFFF;" d="M40.2,126.1c0,0.7,0,1.3,0.1,1.8h-1.7l-0.1-0.8h0c-0.4,0.6-1.2,1-2.2,1c-1.5,0-2.3-1.1-2.3-2.2
		c0-1.8,1.6-2.8,4.3-2.8V123c0-0.5-0.2-1.3-1.5-1.3c-0.7,0-1.5,0.2-2,0.5l-0.4-1.2c0.5-0.3,1.5-0.6,2.6-0.6c2.3,0,3,1.5,3,3.1V126.1
		z M38.4,124.3c-1.3,0-2.5,0.3-2.5,1.4c0,0.7,0.5,1.1,1,1.1c0.8,0,1.3-0.5,1.5-1c0-0.1,0-0.3,0-0.4V124.3z"/>
	<path style="fill:#FFFFFF;" d="M42.2,117.2H44v4.3h0c0.2-0.3,0.5-0.6,0.9-0.8c0.4-0.2,0.8-0.3,1.3-0.3c1.2,0,2.5,0.8,2.5,3.2v4.3
		h-1.8v-4.1c0-1-0.4-1.9-1.4-1.9c-0.7,0-1.2,0.5-1.4,1c-0.1,0.2-0.1,0.4-0.1,0.6v4.4h-1.8V117.2z"/>
	<path style="fill:#FFFFFF;" d="M53.9,117.8h5.8v1.5h-4v2.8h3.7v1.5h-3.7v4.3h-1.8V117.8z"/>
	<path style="fill:#FFFFFF;" d="M67.6,125.7c0,0.9,0,1.6,0.1,2.2H66l-0.1-1.1h0c-0.3,0.5-1,1.3-2.4,1.3c-1.3,0-2.5-0.8-2.5-3.2v-4.3
		h1.8v4c0,1.2,0.4,2,1.4,2c0.8,0,1.2-0.5,1.4-1c0.1-0.2,0.1-0.4,0.1-0.6v-4.4h1.8V125.7z"/>
	<path style="fill:#FFFFFF;" d="M78.4,123.4h-3.8v3h4.3v1.5h-6.1v-10.1h5.9v1.5h-4v2.6h3.8V123.4z"/>
	<path style="fill:#FFFFFF;" d="M80.3,126.2c0.4,0.3,1.2,0.5,1.9,0.5c0.8,0,1.2-0.3,1.2-0.8c0-0.5-0.3-0.7-1.2-1.1
		c-1.4-0.5-2-1.3-2-2.1c0-1.3,1.1-2.3,2.8-2.3c0.8,0,1.5,0.2,1.9,0.4l-0.4,1.3c-0.3-0.2-0.9-0.4-1.5-0.4c-0.7,0-1,0.3-1,0.8
		c0,0.5,0.3,0.7,1.3,1c1.3,0.5,1.9,1.1,1.9,2.2c0,1.3-1,2.3-3,2.3c-0.9,0-1.7-0.2-2.2-0.5L80.3,126.2z"/>
	<path style="fill:#FFFFFF;" d="M92.3,126.1c0,0.7,0,1.3,0.1,1.8h-1.7l-0.1-0.8h0c-0.4,0.6-1.2,1-2.2,1c-1.5,0-2.3-1.1-2.3-2.2
		c0-1.8,1.6-2.8,4.3-2.8V123c0-0.5-0.2-1.3-1.5-1.3c-0.7,0-1.5,0.2-2,0.5l-0.4-1.2c0.5-0.3,1.5-0.6,2.6-0.6c2.3,0,3,1.5,3,3.1V126.1
		z M90.5,124.3c-1.3,0-2.5,0.3-2.5,1.4c0,0.7,0.5,1.1,1,1.1c0.8,0,1.3-0.5,1.5-1c0-0.1,0-0.3,0-0.4V124.3z"/>
	<path style="fill:#FFFFFF;" d="M96.3,118.7v1.9H98v1.4h-1.8v3.2c0,0.9,0.2,1.4,0.9,1.4c0.3,0,0.5,0,0.7-0.1l0,1.4
		c-0.3,0.1-0.8,0.2-1.3,0.2c-0.7,0-1.2-0.2-1.6-0.6c-0.4-0.4-0.6-1.1-0.6-2.1V122h-1v-1.4h1v-1.4L96.3,118.7z"/>
	<path style="fill:#FFFFFF;" d="M105.1,126.1c0,0.7,0,1.3,0.1,1.8h-1.7l-0.1-0.8h0c-0.4,0.6-1.2,1-2.2,1c-1.5,0-2.3-1.1-2.3-2.2
		c0-1.8,1.6-2.8,4.3-2.8V123c0-0.5-0.2-1.3-1.5-1.3c-0.7,0-1.5,0.2-2,0.5l-0.4-1.2c0.5-0.3,1.5-0.6,2.6-0.6c2.3,0,3,1.5,3,3.1V126.1
		z M103.3,124.3c-1.3,0-2.5,0.3-2.5,1.4c0,0.7,0.5,1.1,1,1.1c0.8,0,1.3-0.5,1.5-1c0-0.1,0-0.3,0-0.4V124.3z"/>
	<path style="fill:#FFFFFF;" d="M109.1,118.7v1.9h1.8v1.4h-1.8v3.2c0,0.9,0.2,1.4,0.9,1.4c0.3,0,0.5,0,0.7-0.1l0,1.4
		c-0.3,0.1-0.8,0.2-1.3,0.2c-0.7,0-1.2-0.2-1.6-0.6c-0.4-0.4-0.6-1.1-0.6-2.1V122h-1v-1.4h1v-1.4L109.1,118.7z"/>
	<path style="fill:#FFFFFF;" d="M113.5,124.8c0,1.3,1.1,1.9,2.2,1.9c0.9,0,1.5-0.1,2-0.3l0.3,1.3c-0.6,0.3-1.5,0.5-2.6,0.5
		c-2.4,0-3.8-1.5-3.8-3.7c0-2,1.2-3.9,3.6-3.9c2.4,0,3.2,2,3.2,3.6c0,0.3,0,0.6-0.1,0.8H113.5z M116.7,123.5c0-0.7-0.3-1.8-1.5-1.8
		c-1.1,0-1.6,1-1.7,1.8H116.7z"/>
</g>
<g>
	<path d="M69.5,38.5c-5.3-3.1-9.7-10.6-9.6-16.7c0-2.1,0.5-3.7,1.4-4.9c-2.4,0.7-3.8,3.4-3.8,7.2c0,6.1,4.3,13.6,9.6,16.7
		c3.9,2.2,7.2,1.5,8.8-1.4C74.2,40.1,71.9,39.9,69.5,38.5z"/>
	<path d="M67.2,5.7c-5.8-3.3-10.8-3.6-14.6-1.5c1.6-0.9,3.1-1.9,4.8-2.9c3.8-2.2,9-1.9,14.8,1.4c11.5,6.6,20.7,22.7,20.7,35.8
		c0,3.6-0.5,8.3-3.3,12.8L73.7,75.6l-5.9,3.5l18.2-28.7c1.2-2.3,1.9-5.3,1.9-8.9C87.9,28.4,78.6,12.3,67.2,5.7z"/>
</g>
<path style="fill:#BE0000;" d="M87.9,41.6c0,3.6-0.7,6.5-1.9,8.9L67.8,79.1l-18-46.5c-2-7-2.6-10.4-2.5-15.2
	c0-13.2,8.6-18.2,20-11.6C78.6,12.3,87.9,28.4,87.9,41.6z M67.1,40.7c5.3,3.1,9.7,0.6,9.7-5.5c0-6.1-4.3-13.6-9.6-16.7
	c-5.3-3.1-9.7-0.6-9.7,5.5C57.4,30.1,61.8,37.6,67.1,40.7L67.1,40.7"/>
</svg>
