<?xml version="1.0" encoding="utf-8"?>
<!-- Generator: Adobe Illustrator 26.0.1, SVG Export Plug-In . SVG Version: 6.00 Build 0)  -->
<svg version="1.1" id="Layer_1" xmlns="http://www.w3.org/2000/svg" xmlns:xlink="http://www.w3.org/1999/xlink" x="0px" y="0px"
	 width="150px" height="135.3px" viewBox="0 0 150 135.3" style="enable-background:new 0 0 150 135.3;" xml:space="preserve">
<path style="fill:#BE0000;" d="M123.5,135.3h-97C11.9,135.3,0,123.4,0,108.8v0c0-14.6,11.9-26.5,26.5-26.5h97
	c14.6,0,26.5,11.9,26.5,26.5v0C150,123.4,138.1,135.3,123.5,135.3z"/>
<g>
	<path style="fill:#FFFFFF;" d="M32.5,102.4l-1.5,1.5c-0.7-0.9-1.8-1.9-3.2-2.9l1.5-1.4C30.6,100.5,31.7,101.5,32.5,102.4z
		 M32.9,105.7c-0.8,2.4-1.7,4.6-2.7,6.7l-2.1-0.9c1.1-2.1,2.1-4.3,2.9-6.5L32.9,105.7z M33.3,91.5v-1.4h2.2v1.4h2.7v2h-2.7v1.3h-2.2
		v-1.3h-5v-2H33.3z M33,97.9l-1.5,1.5c-0.8-0.9-1.9-1.8-3.2-2.8l1.5-1.4C31.1,96,32.2,97,33,97.9z M44.2,90.1v1.4h5v2h-5v1.3h-1.8
		v0.9H46c-0.2-0.4-0.3-0.8-0.5-1.2l1.9-0.3c0.1,0.4,0.3,0.9,0.4,1.5h1.3v1.6h-6.8v1h5.9v6.5c0,0.9-0.6,1.4-1.8,1.4v0.7h3v1.7h-3v1.8
		c0,1.3-0.7,1.9-2.2,1.9h-2.4l-0.4-1.9c0.7,0.1,1.5,0.1,2.1,0.1c0.4,0,0.7-0.2,0.7-0.7v-1.3h-6.6c1.2,0.7,2.1,1.4,3,2l-1.4,1.4
		c-0.8-0.7-1.9-1.5-3.4-2.4l1.1-1h-3.4v-1.7h10.8v-0.9h0.6l-0.3-1.2l1.2,0.1c0.3,0,0.5-0.2,0.5-0.5v-0.3h-3.8v1.8h-2.2v-1.8h-3.7
		v1.9h-2.1v-7.7h5.8v-1h-6.7v-1.6h6.7v-0.9H42v-1.2h-2.7v-2H42v-1.4H44.2z M36.5,99.6v0.9h3.7v-0.9H36.5z M36.5,102.7h3.7v-0.9h-3.7
		V102.7z M46.2,99.6h-3.8v0.9h3.8V99.6z M46.2,101.8h-3.8v0.9h3.8V101.8z"/>
	<path style="fill:#FFFFFF;" d="M59.4,101.7c-0.7,0.4-1.5,0.8-2.3,1.2v6.9c0,1.6-0.8,2.4-2.4,2.4h-2l-0.5-2.2
		c0.6,0.1,1.1,0.1,1.7,0.1c0.6,0,0.9-0.3,0.9-0.9v-5.2c-0.9,0.3-1.8,0.7-2.7,1l-0.6-2.2c1.1-0.3,2.2-0.6,3.3-1v-5.1h-2.9v-2.2h2.9
		v-4.2h2.3v4.2h2.4v2.2h-2.4v4.1c0.8-0.4,1.5-0.8,2.3-1.3V101.7z M65.5,93.9v-3.7h2.3v3.7h4.9v2.2h-4.9v2.6c0,0.6,0,1.1-0.1,1.7h6
		v2.2h-5.3c1.3,3.2,3.2,5.9,5.8,7.9l-1.5,1.8c-2.5-2.2-4.5-5-5.8-8.1c-1.1,3-3,5.7-5.8,8l-1.8-1.5c2.9-2.3,4.9-5,5.7-8.1h-4.7v-2.2
		h5.1c0-0.6,0.1-1.1,0.1-1.7v-2.6H61v-2.2H65.5z"/>
	<path style="fill:#FFFFFF;" d="M80.1,94.6v-4.5h2.3v4.5h3.1v2.2h-3.1V98c1.3,1.1,2.5,2.4,3.8,3.8l-1.4,2c-1-1.4-1.8-2.7-2.5-3.6
		v12.1h-2.3v-11.8c-0.8,2.3-1.9,4.4-3.2,6.4l-1-2.5c1.9-2.2,3.2-4.7,4.1-7.5h-3.4v-2.2H80.1z M90.5,94.6v-4.5h2.3v4.5h4.9v2.2H93
		c1.3,3.7,3.1,6.8,5.4,9.3l-1.5,2.1c-1.6-2.2-3-4.9-4.2-8.2v12.3h-2.3V100c-1.3,3.4-2.8,6.2-4.6,8.3l-1.3-2.2
		c2.4-2.3,4.3-5.5,5.7-9.3h-4v-2.2H90.5z"/>
	<path style="fill:#FFFFFF;" d="M104.2,94.6v-4.5h2.3v4.5h2.7v2.2h-2.7v1.3c1.1,1.1,2.2,2.2,3.4,3.6l-1.3,2
		c-0.8-1.4-1.5-2.5-2.1-3.4v11.9h-2.3v-11.6c-0.8,2.3-1.9,4.3-3.3,6.2l-1-2.6c1.9-2.2,3.2-4.7,4.1-7.5h-3.5v-2.2H104.2z
		 M113.1,112.1l-0.5-2.2c1.4,0.1,2.6,0.1,3.9,0.1c0.6,0,0.8-0.3,0.8-1V97h-7.1v-2.2h7.1v-4.5h2.3v4.5h2.4V97h-2.4v12.7
		c0,1.6-0.8,2.5-2.4,2.5H113.1z M115.8,104.8l-1.9,1.3c-0.8-1.7-2-3.6-3.5-5.7l1.9-1.2C113.8,101.3,115,103.2,115.8,104.8z"/>
	<path style="fill:#FFFFFF;" d="M17.8,117.9c0.7-0.1,1.6-0.2,2.8-0.2c1.3,0,2.3,0.3,3,0.8c0.6,0.5,1,1.3,1,2.2c0,1-0.3,1.7-0.9,2.3
		c-0.8,0.7-1.9,1.1-3.2,1.1c-0.3,0-0.6,0-0.9-0.1v3.8h-1.8V117.9z M19.6,122.6c0.2,0.1,0.5,0.1,0.9,0.1c1.4,0,2.2-0.7,2.2-1.9
		c0-1.1-0.8-1.7-2.1-1.7c-0.5,0-0.9,0-1.1,0.1V122.6z"/>
	<path style="fill:#FFFFFF;" d="M28.9,128.1c-2.1,0-3.7-1.4-3.7-3.8c0-2.4,1.6-3.9,3.8-3.9c2.2,0,3.6,1.5,3.6,3.8
		C32.7,126.9,30.8,128.1,28.9,128.1L28.9,128.1z M29,126.7c1,0,1.8-1,1.8-2.5c0-1.1-0.5-2.5-1.8-2.5c-1.3,0-1.8,1.3-1.8,2.5
		C27.2,125.7,27.9,126.7,29,126.7L29,126.7z"/>
	<path style="fill:#FFFFFF;" d="M36,123.8L36,123.8c0.2-0.3,0.4-0.6,0.6-0.9l1.8-2.4h2.2l-2.7,3l3.1,4.3h-2.3l-2.1-3.2l-0.6,0.7v2.5
		h-1.8v-10.7H36V123.8z"/>
	<path style="fill:#FFFFFF;" d="M45,117.8h5.8v1.5h-4v2.8h3.7v1.5h-3.7v4.3H45V117.8z"/>
	<path style="fill:#FFFFFF;" d="M58.6,125.7c0,0.9,0,1.6,0.1,2.2h-1.6l-0.1-1.1h0c-0.3,0.5-1,1.3-2.4,1.3c-1.3,0-2.5-0.8-2.5-3.2
		v-4.3h1.8v4c0,1.2,0.4,2,1.4,2c0.8,0,1.2-0.5,1.4-1c0.1-0.2,0.1-0.4,0.1-0.6v-4.4h1.8V125.7z"/>
	<path style="fill:#FFFFFF;" d="M63.8,117.8h1.8v8.6h4.2v1.5h-6V117.8z"/>
	<path style="fill:#FFFFFF;" d="M76.8,126.1c0,0.7,0,1.3,0.1,1.8h-1.7l-0.1-0.8h0c-0.4,0.6-1.2,1-2.2,1c-1.5,0-2.3-1.1-2.3-2.2
		c0-1.8,1.6-2.8,4.3-2.8V123c0-0.5-0.2-1.3-1.5-1.3c-0.7,0-1.5,0.2-2,0.5l-0.4-1.2c0.5-0.3,1.5-0.6,2.6-0.6c2.3,0,3,1.5,3,3.1V126.1
		z M75,124.3c-1.3,0-2.5,0.3-2.5,1.4c0,0.7,0.5,1.1,1,1.1c0.8,0,1.3-0.5,1.5-1c0-0.1,0-0.3,0-0.4V124.3z"/>
	<path style="fill:#FFFFFF;" d="M78.7,122.8c0-0.8,0-1.5-0.1-2.2h1.6l0.1,1.1h0c0.3-0.6,1-1.2,2.2-1.2c1,0,1.7,0.5,2,1.4h0
		c0.3-0.4,0.6-0.7,0.9-0.9c0.4-0.3,0.9-0.4,1.5-0.4c1.2,0,2.4,0.8,2.4,3.2v4.3h-1.8v-4c0-1.2-0.4-1.9-1.3-1.9c-0.6,0-1.1,0.5-1.3,1
		c-0.1,0.2-0.1,0.4-0.1,0.6v4.4h-1.8v-4.2c0-1-0.4-1.7-1.3-1.7c-0.7,0-1.2,0.5-1.3,1c-0.1,0.2-0.1,0.4-0.1,0.6v4.3h-1.8V122.8z"/>
	<path style="fill:#FFFFFF;" d="M100.3,123.4h-3.8v3h4.3v1.5h-6.1v-10.1h5.9v1.5h-4v2.6h3.8V123.4z"/>
	<path style="fill:#FFFFFF;" d="M102.2,126.2c0.4,0.3,1.2,0.5,1.9,0.5c0.8,0,1.2-0.3,1.2-0.8c0-0.5-0.3-0.7-1.2-1.1
		c-1.4-0.5-2-1.3-2-2.1c0-1.3,1.1-2.3,2.8-2.3c0.8,0,1.5,0.2,2,0.4l-0.4,1.3c-0.3-0.2-0.9-0.4-1.5-0.4c-0.7,0-1,0.3-1,0.8
		c0,0.5,0.3,0.7,1.3,1c1.3,0.5,1.9,1.1,1.9,2.2c0,1.3-1,2.3-3,2.3c-0.9,0-1.7-0.2-2.2-0.5L102.2,126.2z"/>
	<path style="fill:#FFFFFF;" d="M110.7,118.7v1.9h1.8v1.4h-1.8v3.2c0,0.9,0.2,1.4,0.9,1.4c0.3,0,0.5,0,0.7-0.1l0,1.4
		c-0.3,0.1-0.8,0.2-1.3,0.2c-0.7,0-1.2-0.2-1.6-0.6c-0.4-0.4-0.6-1.1-0.6-2.1V122h-1v-1.4h1v-1.4L110.7,118.7z"/>
	<path style="fill:#FFFFFF;" d="M119.5,126.1c0,0.7,0,1.3,0.1,1.8h-1.7l-0.1-0.8h0c-0.4,0.6-1.2,1-2.2,1c-1.5,0-2.3-1.1-2.3-2.2
		c0-1.8,1.6-2.8,4.3-2.8V123c0-0.5-0.2-1.3-1.5-1.3c-0.7,0-1.5,0.2-2,0.5l-0.4-1.2c0.5-0.3,1.5-0.6,2.6-0.6c2.3,0,3,1.5,3,3.1V126.1
		z M117.7,124.3c-1.3,0-2.5,0.3-2.5,1.4c0,0.7,0.5,1.1,1,1.1c0.8,0,1.3-0.5,1.5-1c0-0.1,0-0.3,0-0.4V124.3z"/>
	<path style="fill:#FFFFFF;" d="M123.5,118.7v1.9h1.8v1.4h-1.8v3.2c0,0.9,0.2,1.4,0.9,1.4c0.3,0,0.5,0,0.7-0.1l0,1.4
		c-0.3,0.1-0.8,0.2-1.3,0.2c-0.7,0-1.2-0.2-1.6-0.6c-0.4-0.4-0.6-1.1-0.6-2.1V122h-1v-1.4h1v-1.4L123.5,118.7z"/>
	<path style="fill:#FFFFFF;" d="M127.8,124.8c0,1.3,1.1,1.9,2.2,1.9c0.9,0,1.5-0.1,2-0.3l0.3,1.3c-0.6,0.3-1.5,0.5-2.5,0.5
		c-2.4,0-3.8-1.5-3.8-3.7c0-2,1.2-3.9,3.6-3.9c2.4,0,3.2,2,3.2,3.6c0,0.3,0,0.6-0.1,0.8H127.8z M131,123.5c0-0.7-0.3-1.8-1.5-1.8
		c-1.1,0-1.6,1-1.7,1.8H131z"/>
</g>
<g>
	<path d="M74.5,38.5c-5.3-3.1-9.7-10.6-9.6-16.7c0-2.1,0.5-3.7,1.4-4.9c-2.4,0.7-3.8,3.4-3.8,7.2c0,6.1,4.3,13.6,9.6,16.7
		c3.9,2.2,7.2,1.5,8.8-1.4C79.2,40.1,76.9,39.9,74.5,38.5z"/>
	<path d="M72.2,5.7c-5.8-3.3-10.8-3.6-14.6-1.5c1.6-0.9,3.1-1.9,4.8-2.9c3.8-2.2,9-1.9,14.8,1.4c11.5,6.6,20.7,22.7,20.7,35.8
		c0,3.6-0.5,8.3-3.3,12.8L78.7,75.6l-5.9,3.5l18.2-28.7c1.2-2.3,1.9-5.3,1.9-8.9C92.9,28.4,83.6,12.3,72.2,5.7z"/>
</g>
<path style="fill:#BE0000;" d="M92.9,41.6c0,3.6-0.7,6.5-1.9,8.9L72.8,79.1l-18-46.5c-2-7-2.6-10.4-2.5-15.2
	c0-13.2,8.6-18.2,20-11.6C83.6,12.3,92.9,28.4,92.9,41.6z M72.1,40.7c5.3,3.1,9.7,0.6,9.7-5.5c0-6.1-4.3-13.6-9.6-16.7
	c-5.3-3.1-9.7-0.6-9.7,5.5C62.4,30.1,66.8,37.6,72.1,40.7L72.1,40.7"/>
</svg>
