<svg xmlns="http://www.w3.org/2000/svg" width="120" height="114.51" viewBox="0 0 120 114.51">
  <g id="Layer_2" data-name="Layer 2">
    <g id="Pointer">
      <g>
        <rect y="82.31" width="120" height="32.2" rx="16.1" style="fill: #be0000"/>
        <g>
          <path d="M17.35,100.55l-1.13,1.13a20.19,20.19,0,0,0-3.17-2.87l1.14-1.07A21.68,21.68,0,0,1,17.35,100.55Zm.29,3a58.38,58.38,0,0,1-2.78,6.69l-1.61-.7A54.28,54.28,0,0,0,16.17,103Zm1-13.79V88.16h1.67v1.59h2.87v1.52H20.28v1.5H18.61v-1.5H13.39V89.75ZM17.86,96l-1.14,1.13a21.94,21.94,0,0,0-3.23-2.8l1.13-1.09A22.69,22.69,0,0,1,17.86,96Zm7.63-2.18V92.72h1.67v1.11h4a13,13,0,0,0-.63-1.35L32,92.24c.2.48.37,1,.56,1.59h1.57v1.23h-7V96.3H33.1v6.3c0,.92-.6,1.4-1.81,1.4h-.05v1h3.24v1.35H31.24v2.15c0,1.14-.65,1.72-1.93,1.72H26.92l-.32-1.43c.78,0,1.5.1,2.2.1a.69.69,0,0,0,.77-.77v-1.77h-11V105h11v-1H30l-.29-1.11,1.23,0a.57.57,0,0,0,.61-.65v-.46H27.16v1.93H25.49v-1.93H21.22v2H19.6V96.3h5.89V95.06H18.56V93.83Zm.05,15-1.09,1.07A19.51,19.51,0,0,0,21,107.38l1.06-1A21.68,21.68,0,0,1,25.54,108.78ZM21.22,97.43v1.18h4.27V97.43Zm0,3.33h4.27V99.63H21.22ZM29,88.16v1.59h5.22v1.52H29v1.5H27.3v-1.5H24.41V89.75H27.3V88.16Zm2.54,9.27H27.16v1.18h4.35Zm0,2.2H27.16v1.13h4.35Z" style="fill: #fff"/>
          <path d="M44.45,99.41c-.82.48-1.67.92-2.54,1.33v7.1a2,2,0,0,1-2.2,2.25h-1.9l-.37-1.69c.58,0,1.14.09,1.67.09s1-.36,1-1.08v-5.87c-1,.38-2,.77-3,1.11L36.67,101a30.53,30.53,0,0,0,3.46-1.16V94.27H37V92.6h3.14V88.2h1.78v4.4h2.64v1.67H41.91v4.8c.87-.43,1.72-.89,2.54-1.4Zm6.3-7.29V88.23h1.77v3.89h5v1.69h-5V97c0,.58-.05,1.13-.1,1.66H58.6v1.69H53a18.91,18.91,0,0,0,6.11,8.53l-1.16,1.35a21.1,21.1,0,0,1-6.14-8.62,17.67,17.67,0,0,1-6.16,8.6L44.28,109a15.46,15.46,0,0,0,6.09-8.72h-5V98.61h5.32c.05-.55.09-1.11.09-1.66V93.81H46.09V92.12Z" style="fill: #fff"/>
          <path d="M65.36,92.91V88.18h1.77v4.73h3.28v1.67H67.13V96c1.28,1.21,2.58,2.56,3.93,4.08l-1,1.53c-1.14-1.67-2.1-3-2.92-4v12.59H65.36V97.58a26.72,26.72,0,0,1-3.57,7L61,102.67a21.75,21.75,0,0,0,4.25-8.09H61.62V92.91Zm10.39,0V88.18h1.74v4.73h5.09v1.67H77.9a26.29,26.29,0,0,0,5.36,9.78l-1.13,1.55a32.54,32.54,0,0,1-4.64-9.49v13.79H75.75V96.46a29.64,29.64,0,0,1-5,9.62l-1-1.64a25.27,25.27,0,0,0,5.63-9.86h-4V92.91Z" style="fill: #fff"/>
          <path d="M89.46,92.89V88.18H91.2v4.71h2.85v1.67H91.2V96.1a50.27,50.27,0,0,1,3.58,4l-1,1.5c-1-1.62-1.83-2.92-2.56-3.89v12.46H89.46V97.72a27.54,27.54,0,0,1-3.64,7L85,102.82a22.2,22.2,0,0,0,4.33-8.26H85.6V92.89ZM98.06,110l-.36-1.69c1.35.05,2.63.1,3.87.1.72,0,1.08-.41,1.08-1.21V94.7H95.24V93h7.41V88.3h1.74V93H107V94.7h-2.59v13c0,1.55-.75,2.34-2.22,2.34Zm2.66-7.05-1.4,1a46.49,46.49,0,0,0-3.7-5.78l1.43-.89A44.13,44.13,0,0,1,100.72,103Z" style="fill: #fff"/>
        </g>
        <g>
          <path d="M59.51,38.49c-5.34-3.08-9.65-10.56-9.63-16.7a8.06,8.06,0,0,1,1.36-4.86c-2.36.72-3.8,3.36-3.81,7.17,0,6.14,4.3,13.62,9.64,16.7,3.89,2.25,7.25,1.53,8.79-1.38C64.16,40.13,61.94,39.89,59.51,38.49Z"/>
          <path d="M57.19,5.73C51.42,2.4,46.38,2.09,42.61,4.28c1.58-.91,3.13-1.92,4.78-2.88,3.78-2.19,9-1.88,14.77,1.45C73.62,9.46,82.88,25.5,82.84,38.67a23.45,23.45,0,0,1-3.32,12.81L63.7,75.62l-6,3.47L75.94,50.42a19.06,19.06,0,0,0,1.93-8.87C77.91,28.39,68.65,12.35,57.19,5.73Z"/>
        </g>
        <path d="M77.87,41.55a19.06,19.06,0,0,1-1.93,8.87L57.75,79.09l-18-46.54c-2-7-2.56-10.41-2.55-15.21,0-13.17,8.57-18.22,20-11.61S77.91,28.39,77.87,41.55Zm-20.78-.86c5.35,3.09,9.69.61,9.71-5.53s-4.3-13.62-9.65-16.71-9.68-.6-9.7,5.54,4.3,13.62,9.64,16.7h0" style="fill: #be0000"/>
      </g>
    </g>
  </g>
</svg>
