<?xml version="1.0" encoding="utf-8"?>
<!-- Generator: Adobe Illustrator 26.0.1, SVG Export Plug-In . SVG Version: 6.00 Build 0)  -->
<svg version="1.1" id="Layer_1" xmlns="http://www.w3.org/2000/svg" xmlns:xlink="http://www.w3.org/1999/xlink" x="0px" y="0px"
	 width="180.4px" height="137.5px" viewBox="0 0 180.4 137.5" style="enable-background:new 0 0 180.4 137.5;" xml:space="preserve"
	>
<path style="fill:#BE0000;" d="M153.9,136.5h-127c-14.6,0-26.5-11.9-26.5-26.5v0c0-14.6,11.9-26.5,26.5-26.5h127
	c14.6,0,26.5,11.9,26.5,26.5v0C180.4,124.6,168.6,136.5,153.9,136.5z"/>
<g>
	<path style="fill:#FFFFFF;" d="M45,98.9v-0.6c-0.3,0.3-0.5,0.7-0.8,1l-1.2-1.7c1.5-1.8,2.9-3.9,4.2-6.3h1.5c1.5,1.7,3,3.4,4.3,5.3
		l-1.5,1.6L51,97.3v1.6h-1.8v2.2H52v2.1h-2.8v6.7c0.9-0.2,1.9-0.5,2.8-0.7v2.1c-2.5,0.7-5.3,1.3-8.2,1.8l-0.6-2.1
		c1.3-0.1,2.5-0.3,3.7-0.6v-7.2H44v-2.1h3.1v-2.2H45z M46.5,109.2l-1.6,0.4c-0.4-1.6-0.8-3.2-1.4-4.6l1.6-0.5
		C45.7,105.9,46.1,107.4,46.5,109.2z M50.7,96.9c-1-1.4-1.9-2.5-2.6-3.3c-0.6,1.2-1.3,2.3-2.1,3.3H50.7z M52.4,104.5
		c-0.3,1.6-0.7,3-1.1,4.3l-1.5-0.6c0.4-1.1,0.7-2.5,1-4.2L52.4,104.5z M55.4,110.3c1.3-0.3,2.5-0.7,3.8-1.2l0.5,2
		c-1.8,0.7-4,1.4-6.7,2l-0.5-1.8c0.5-0.1,0.7-0.4,0.7-0.7V92.1h10.4v10.7h-8.2V110.3z M61.4,94.2h-6.1v2.3h6.1V94.2z M55.4,100.7
		h6.1v-2.3h-6.1V100.7z M65.2,105.1c-1,1.3-2.2,2.2-3.5,2.9c1.1,1.4,2.3,2.5,3.8,3.4l-1.3,1.9c-2.9-1.8-5.1-4.7-6.4-8.5l1.7-1
		c0.3,0.9,0.7,1.8,1.2,2.6c1.1-0.6,2.1-1.5,3.1-2.7L65.2,105.1z"/>
	<path style="fill:#FFFFFF;" d="M68,94.6v-2.2h7v2.2H72c-0.3,1.8-0.6,3.5-1.1,5h3.7v11c0.9-2,1.3-4.5,1.4-7.6V93h6
		c-0.2-0.5-0.5-1-0.7-1.5l2.3-0.4c0.2,0.6,0.4,1.2,0.7,1.9h4.8v2h-2.2v1h1.7v1.6h-1.7v2.2h-6.5v-2.2h-1.6V96h1.6v-1H78v5.7h11.2v1.7
		H78v0.6c-0.1,4.3-0.9,7.7-2.5,10.3l-1.6-1.4c0.1-0.2,0.2-0.3,0.3-0.5h-3v1.3h-2v-8.9c-0.3,0.6-0.6,1.2-1,1.7l-1.2-1.9
		c1.4-2.7,2.3-5.7,2.8-9H68z M72.7,109.4v-7.9h-1.6v7.9H72.7z M88.3,103.2v6.8h-2.2c1.2,0.5,2.3,1.1,3.3,1.7l-1.1,1.6
		c-1.3-0.9-2.6-1.6-3.9-2.1l0.8-1.3h-3.4l0.9,1c-1.1,1-2.4,1.8-4,2.4l-0.9-1.8c1.3-0.4,2.3-1,3.2-1.6h-2.2v-6.8H88.3z M82.6,106
		v-1.1h-1.9v1.1H82.6z M82.6,107.3h-1.9v1.1h1.9V107.3z M82.1,96h2.8v-1h-2.8V96z M82.1,98.7h2.8v-1h-2.8V98.7z M84.4,106h2v-1.1h-2
		V106z M86.4,107.3h-2v1.1h2V107.3z"/>
	<path style="fill:#FFFFFF;" d="M96.5,101.2l-1.5,1.5c-0.9-1.1-2.1-2.3-3.7-3.6l1.5-1.5C94.3,98.8,95.5,100,96.5,101.2z M96.4,105
		c-0.8,2.9-1.7,5.7-2.7,8.2l-2.1-0.9c1.1-2.6,2.1-5.3,2.9-8.1L96.4,105z M97.3,95.3l-1.5,1.5c-0.9-1.1-2.2-2.3-3.9-3.6l1.5-1.4
		C94.9,92.9,96.2,94.1,97.3,95.3z M111.6,91.8v6.7h-2.6v1h3.6v1.7h-3.6v1.1h4v1.8h-3.6c1,0.9,2.4,1.7,4.3,2.5l-1.3,1.7
		c-1-0.5-1.8-1-2.5-1.6c-0.7,0.6-1.4,1.1-2.2,1.6l-1.1-1.4c0.7-0.4,1.4-0.8,2-1.3c-0.5-0.5-0.9-1-1.3-1.5h-4.5
		c-0.5,0.6-1,1.2-1.6,1.7c0.7,0.5,1.3,0.9,1.8,1.4l-1.2,1.2c-0.5-0.5-1.2-1-2-1.6c-0.7,0.4-1.4,0.8-2.1,1.1l-1.1-1.7
		c1.7-0.6,3-1.3,4-2.1h-3.7v-1.8h4.3v-1.1h-3.6v-1.7h3.6v-1h-2.6v-6.7H111.6z M103.3,110.1c-1.5,0.8-3.4,1.6-5.7,2.2l-0.7-1.7
		c2.3-0.6,4.3-1.3,6-2.1L103.3,110.1z M109.5,94.4v-0.9h-8.9v0.9H109.5z M109.5,96h-8.9v0.9h8.9V96z M101.9,113.5l-0.5-2
		c0.7,0.1,1.3,0.1,1.9,0.1c0.4,0,0.7-0.2,0.7-0.6v-6.1h2.1v6.7c0,1.3-0.7,1.9-2.1,1.9H101.9z M107,99.6v-1h-3.7v1H107z M107,102.4
		v-1.1h-3.7v1.1H107z M113,111.3l-1.1,1.7c-1.7-1.2-3.5-2.1-5.3-2.7l1-1.5C109.6,109.4,111.4,110.3,113,111.3z"/>
	<path style="fill:#FFFFFF;" d="M129.3,97.7v2.8h6.7v8.2c0,1.7-0.8,2.5-2.5,2.5h-2.2l-0.6-2.1l2,0.1c0.7,0,1.1-0.3,1.1-1v-5.6h-4.5
		v11h-2.2v-11h-4.5v8.8h-2.2v-9c-1.1,1.1-2.3,2.1-3.6,3.1l-1.5-1.9c2.9-2.1,5.1-4.5,6.8-7.1h-6v-2.2h7.3c0.5-1,0.9-2,1.2-3l2.3,0.3
		c-0.3,1-0.7,1.9-1,2.8h11.4v2.2h-12.5c-0.8,1.4-1.7,2.8-2.8,4h5v-2.8H129.3z"/>
	<path style="fill:#FFFFFF;" d="M24.9,127c0.6,0.3,1.5,0.6,2.4,0.6c1.2,0,1.8-0.6,1.8-1.4c0-0.8-0.5-1.2-1.8-1.7
		c-1.7-0.6-2.7-1.5-2.7-2.9c0-1.7,1.4-2.9,3.6-2.9c1.1,0,1.9,0.2,2.4,0.5l-0.4,1.5c-0.4-0.2-1.1-0.5-2-0.5c-1.2,0-1.7,0.6-1.7,1.2
		c0,0.8,0.6,1.1,1.9,1.6c1.8,0.7,2.6,1.6,2.6,3c0,1.6-1.2,3-3.8,3c-1.1,0-2.2-0.3-2.7-0.6L24.9,127z"/>
	<path style="fill:#FFFFFF;" d="M33.5,120.7c-0.6,0-1-0.5-1-1c0-0.6,0.4-1,1-1c0.6,0,1,0.4,1,1C34.6,120.2,34.2,120.7,33.5,120.7
		L33.5,120.7z M32.6,129v-7.3h1.8v7.3H32.6z"/>
	<path style="fill:#FFFFFF;" d="M36.5,118.4h1.8V129h-1.8V118.4z"/>
	<path style="fill:#FFFFFF;" d="M41.5,121.7l1.2,3.7c0.2,0.6,0.4,1.2,0.5,1.8h0c0.1-0.6,0.3-1.2,0.5-1.8l1.2-3.7h1.9L44,129h-1.8
		l-2.7-7.3H41.5z"/>
	<path style="fill:#FFFFFF;" d="M49.1,125.9c0,1.3,1.1,1.9,2.2,1.9c0.9,0,1.5-0.1,2-0.3l0.3,1.3c-0.6,0.3-1.5,0.5-2.6,0.5
		c-2.4,0-3.8-1.5-3.8-3.7c0-2,1.2-3.9,3.6-3.9c2.4,0,3.1,2,3.1,3.6c0,0.3,0,0.6-0.1,0.8H49.1z M52.3,124.6c0-0.7-0.3-1.8-1.5-1.8
		c-1.1,0-1.6,1-1.7,1.8H52.3z"/>
	<path style="fill:#FFFFFF;" d="M55.5,124.1c0-1,0-1.7-0.1-2.4H57l0.1,1.4h0c0.4-1,1.2-1.5,2-1.5c0.2,0,0.3,0,0.4,0v1.7
		c-0.2,0-0.3,0-0.6,0c-0.9,0-1.5,0.6-1.6,1.4c0,0.2,0,0.4,0,0.6v3.8h-1.8V124.1z"/>
	<path style="fill:#FFFFFF;" d="M72.5,124.9c-0.1-1.3-0.1-2.9-0.1-4.2h0c-0.3,1.2-0.8,2.6-1.2,3.9l-1.5,4.4h-1.4l-1.4-4.3
		c-0.4-1.3-0.7-2.7-1-3.9h0c0,1.3-0.1,2.9-0.2,4.3l-0.2,4.1h-1.7l0.7-10.1h2.4l1.3,4.1c0.4,1.2,0.7,2.4,0.9,3.5h0
		c0.3-1.1,0.6-2.3,1-3.5l1.4-4H74l0.6,10.1h-1.8L72.5,124.9z"/>
	<path style="fill:#FFFFFF;" d="M77.4,120.7c-0.6,0-1-0.5-1-1c0-0.6,0.4-1,1-1c0.6,0,1,0.4,1,1C78.4,120.2,78,120.7,77.4,120.7
		L77.4,120.7z M76.5,129v-7.3h1.8v7.3H76.5z"/>
	<path style="fill:#FFFFFF;" d="M80.3,123.9c0-0.8,0-1.5-0.1-2.2h1.6l0.1,1.1h0c0.3-0.6,1.1-1.3,2.3-1.3c1.3,0,2.6,0.8,2.6,3.1v4.3
		h-1.8v-4.1c0-1-0.4-1.8-1.4-1.8c-0.7,0-1.2,0.5-1.4,1.1c-0.1,0.1-0.1,0.4-0.1,0.6v4.3h-1.8V123.9z"/>
	<path style="fill:#FFFFFF;" d="M90.2,125.9c0,1.3,1.1,1.9,2.2,1.9c0.9,0,1.5-0.1,2-0.3l0.3,1.3c-0.6,0.3-1.5,0.5-2.5,0.5
		c-2.4,0-3.8-1.5-3.8-3.7c0-2,1.2-3.9,3.6-3.9c2.4,0,3.1,2,3.1,3.6c0,0.3,0,0.6-0.1,0.8H90.2z M93.4,124.6c0-0.7-0.3-1.8-1.5-1.8
		c-1.1,0-1.6,1-1.7,1.8H93.4z"/>
	<path style="fill:#FFFFFF;" d="M100.9,129l-2.5-10.1h2l1,4.6c0.3,1.2,0.5,2.5,0.7,3.5h0c0.2-1.1,0.4-2.3,0.7-3.6l1.1-4.6h1.9l1,4.6
		c0.2,1.2,0.5,2.3,0.6,3.4h0c0.2-1.1,0.4-2.3,0.7-3.5l1.1-4.6h1.9l-2.7,10.1h-2l-1-4.8c-0.3-1.1-0.4-2.1-0.6-3.2h0
		c-0.2,1.1-0.4,2.1-0.7,3.2l-1.2,4.8H100.9z"/>
	<path style="fill:#FFFFFF;" d="M117.3,127.3c0,0.7,0,1.3,0.1,1.8h-1.7l-0.1-0.8h0c-0.4,0.6-1.2,1-2.2,1c-1.5,0-2.3-1.1-2.3-2.2
		c0-1.8,1.6-2.8,4.3-2.8v-0.1c0-0.5-0.2-1.3-1.5-1.3c-0.7,0-1.5,0.2-2,0.5l-0.4-1.2c0.5-0.3,1.5-0.6,2.6-0.6c2.3,0,3,1.5,3,3.1
		V127.3z M115.5,125.5c-1.3,0-2.6,0.3-2.6,1.4c0,0.7,0.5,1.1,1.1,1.1c0.8,0,1.3-0.5,1.5-1c0-0.1,0-0.3,0-0.4V125.5z"/>
	<path style="fill:#FFFFFF;" d="M121.3,119.9v1.9h1.8v1.4h-1.8v3.2c0,0.9,0.2,1.4,0.9,1.4c0.3,0,0.5,0,0.7-0.1l0,1.4
		c-0.3,0.1-0.8,0.2-1.3,0.2c-0.7,0-1.2-0.2-1.6-0.6c-0.4-0.4-0.6-1.1-0.6-2.1v-3.4h-1v-1.4h1v-1.4L121.3,119.9z"/>
	<path style="fill:#FFFFFF;" d="M125.7,125.9c0,1.3,1.1,1.9,2.2,1.9c0.9,0,1.5-0.1,2-0.3l0.3,1.3c-0.6,0.3-1.5,0.5-2.6,0.5
		c-2.4,0-3.8-1.5-3.8-3.7c0-2,1.2-3.9,3.6-3.9c2.4,0,3.1,2,3.1,3.6c0,0.3,0,0.6-0.1,0.8H125.7z M128.9,124.6c0-0.7-0.3-1.8-1.5-1.8
		c-1.1,0-1.6,1-1.7,1.8H128.9z"/>
	<path style="fill:#FFFFFF;" d="M132.1,124.1c0-1,0-1.7-0.1-2.4h1.6l0.1,1.4h0c0.4-1,1.2-1.5,2-1.5c0.2,0,0.3,0,0.4,0v1.7
		c-0.2,0-0.3,0-0.6,0c-0.9,0-1.5,0.6-1.6,1.4c0,0.2,0,0.4,0,0.6v3.8h-1.8V124.1z"/>
	<path style="fill:#FFFFFF;" d="M138.1,129v-5.9h-1v-1.4h1v-0.3c0-0.9,0.3-1.9,0.9-2.5c0.5-0.5,1.3-0.7,1.9-0.7
		c0.5,0,0.9,0.1,1.2,0.2l-0.1,1.4c-0.2-0.1-0.4-0.1-0.8-0.1c-0.9,0-1.2,0.8-1.2,1.7v0.4h1.6v1.4h-1.6v5.9H138.1z"/>
	<path style="fill:#FFFFFF;" d="M148.3,127.3c0,0.7,0,1.3,0.1,1.8h-1.7l-0.1-0.8h0c-0.4,0.6-1.2,1-2.2,1c-1.5,0-2.3-1.1-2.3-2.2
		c0-1.8,1.6-2.8,4.3-2.8v-0.1c0-0.5-0.2-1.3-1.5-1.3c-0.7,0-1.5,0.2-2,0.5l-0.4-1.2c0.5-0.3,1.5-0.6,2.6-0.6c2.3,0,3,1.5,3,3.1
		V127.3z M146.5,125.5c-1.3,0-2.6,0.3-2.6,1.4c0,0.7,0.5,1.1,1.1,1.1c0.8,0,1.3-0.5,1.5-1c0-0.1,0-0.3,0-0.4V125.5z"/>
	<path style="fill:#FFFFFF;" d="M150.3,118.4h1.8V129h-1.8V118.4z"/>
	<path style="fill:#FFFFFF;" d="M154.1,118.4h1.8V129h-1.8V118.4z"/>
</g>
<g>
	<path d="M89.9,39.6c-5.3-3.1-9.7-10.6-9.6-16.7c0-2.1,0.5-3.7,1.4-4.9c-2.4,0.7-3.8,3.4-3.8,7.2c0,6.1,4.3,13.6,9.6,16.7
		c3.9,2.2,7.2,1.5,8.8-1.4C94.6,41.3,92.4,41,89.9,39.6z"/>
	<path d="M87.6,6.9C81.8,3.6,76.8,3.2,73,5.4c1.6-0.9,3.1-1.9,4.8-2.9c3.8-2.2,9-1.9,14.8,1.4c11.5,6.6,20.7,22.7,20.7,35.8
		c0,3.6-0.5,8.3-3.3,12.8L94.1,76.8l-5.9,3.5l18.2-28.7c1.2-2.3,1.9-5.3,1.9-8.9C108.3,29.5,99.1,13.5,87.6,6.9z"/>
</g>
<path style="fill:#BE0000;" d="M108.3,42.7c0,3.6-0.7,6.5-1.9,8.9L88.2,80.2l-18-46.5c-2-7-2.6-10.4-2.5-15.2
	c0-13.2,8.6-18.2,20-11.6C99.1,13.5,108.3,29.5,108.3,42.7z M87.5,41.8c5.3,3.1,9.7,0.6,9.7-5.5c0-6.1-4.3-13.6-9.6-16.7
	c-5.3-3.1-9.7-0.6-9.7,5.5C77.9,31.3,82.2,38.8,87.5,41.8L87.5,41.8"/>
</svg>
