<svg xmlns="http://www.w3.org/2000/svg" width="120" height="114.51" viewBox="0 0 120 114.51">
  <g id="Layer_2" data-name="Layer 2">
    <g id="Pointer">
      <g>
        <rect y="82.31" width="120" height="32.2" rx="16.1" style="fill: #be0000"/>
        <g>
          <path d="M14.58,95.55v-.78c-.34.44-.71.85-1,1.28l-.95-1.28a35.78,35.78,0,0,0,4.33-6.4H18.1C19.6,90,21,91.8,22.43,93.69l-1.12,1.18c-1.4-2-2.63-3.62-3.64-4.83A39.42,39.42,0,0,1,15.18,94h5.36v1.57h-2v2.7h3V99.9h-3v7.34c1-.24,2-.51,3-.8v1.62a75.07,75.07,0,0,1-8.14,1.79L13,108.2c1.3-.16,2.61-.38,3.86-.62V99.9H13.56V98.25h3.33v-2.7Zm1.35,10.63-1.23.31a36,36,0,0,0-1.43-4.69l1.26-.41A36.91,36.91,0,0,1,15.93,106.18Zm5.87-4.81a30.8,30.8,0,0,1-1.14,4.25l-1.23-.43A32.11,32.11,0,0,0,20.52,101Zm2.9,6.3a29.18,29.18,0,0,0,4.1-1.4l.39,1.55a49.87,49.87,0,0,1-6.38,2l-.38-1.4c.38-.12.6-.32.6-.61V89.15H33V99.36H24.7Zm6.64-16.93H24.7v2.8h6.64ZM24.7,97.82h6.64V95.09H24.7Zm9.9,3.89a11,11,0,0,1-3.67,3,12.91,12.91,0,0,0,4,3.84l-1,1.4a15.86,15.86,0,0,1-6.5-8.6l1.3-.74a16.71,16.71,0,0,0,1.33,2.85,11,11,0,0,0,3.38-2.81Z" style="fill: #fff"/>
          <path d="M37.64,91.2V89.51h6.88V91.2H41.33a33.62,33.62,0,0,1-1.25,5.48h3.86v11.4h-3.5v1.4H38.92V99.7c-.44.9-.9,1.74-1.38,2.56l-.92-1.45a27.56,27.56,0,0,0,3.07-9.61Zm4.9,15.34V98.18h-2.1v8.36Zm4.76-6.69c-.1,4.25-.94,7.68-2.54,10.26L43.51,109c1.42-2.2,2.17-5.27,2.22-9.18V90.11h6.14a15.65,15.65,0,0,0-.8-1.74l1.74-.31c.24.6.5,1.28.75,2h4.88v1.52H56.16V93h1.89v1.28H56.16v2.41H50V94.27H48.15V93H50V91.63H47.3v6.14H58.73v1.3H47.3Zm10.48.38v6.48H51.31l.92,1a13.66,13.66,0,0,1-4.06,2.51l-.7-1.4a10.73,10.73,0,0,0,3.74-2.15H48.48v-6.48ZM52.4,103v-1.47H50V103Zm0,1H50v1.45H52.4Zm-1-11h3.31V91.63H51.41Zm0,2.7h3.31V94.27H51.41ZM53.82,103h2.51v-1.47H53.82Zm2.51,1H53.82v1.45h2.51Zm2.56,4.9-.82,1.26a17.22,17.22,0,0,0-4-2.27l.8-1.16A20,20,0,0,1,58.89,108.9Z" style="fill: #fff"/>
          <path d="M65.94,98.23l-1.13,1.18a25.86,25.86,0,0,0-3.72-3.62l1.16-1.11A28.64,28.64,0,0,1,65.94,98.23Zm-.21,3.48c-.87,2.94-1.82,5.7-2.83,8.26l-1.62-.7a73.92,73.92,0,0,0,3-8.14Zm.94-9.38-1.16,1.14a27.6,27.6,0,0,0-4-3.62l1.16-1.11A28.34,28.34,0,0,1,66.67,92.33Zm14.27-3.52v6.47H78.38v1.38h3.77V98H78.38v1.5h4.23v1.38H78.7a12.83,12.83,0,0,0,4.54,2.89l-1,1.26a21.33,21.33,0,0,1-2.61-1.59,12,12,0,0,1-2.36,1.71l-.85-1.09a14.26,14.26,0,0,0,2.2-1.47,8.73,8.73,0,0,1-1.52-1.71H72.32a9.58,9.58,0,0,1-1.84,1.88,15.93,15.93,0,0,1,2,1.52l-.94.94a15.49,15.49,0,0,0-2.2-1.69A20.07,20.07,0,0,1,67,104.75l-.82-1.35a11.36,11.36,0,0,0,4.39-2.51H66.5V99.51H71V98H67.25V96.66H71V95.28H68.33V88.81Zm-8.19,18a28.33,28.33,0,0,1-5.84,2.34l-.58-1.35a27.73,27.73,0,0,0,6.11-2.25Zm6.57-15.39v-1.3H70v1.3Zm0,1.26H70V94h9.37Zm-7.89,17.63-.37-1.54c.68,0,1.33.09,2,.09s.75-.22.75-.63v-6.47h1.62v6.86c0,1.11-.61,1.69-1.79,1.69Zm5.36-13.62V95.28H72.61v1.38Zm0,2.85V98H72.61v1.5Zm5.8,8.81-.85,1.31a27.45,27.45,0,0,0-5.48-2.78l.77-1.13A31.26,31.26,0,0,1,82.59,108.32Z" style="fill: #fff"/>
          <path d="M98.6,94.51v2.95h6.81v8.11a2,2,0,0,1-2.27,2.27h-2.27l-.44-1.62,2.15,0c.77,0,1.16-.36,1.16-1.06V99.07H98.6v11.24H96.93V99.07H91.76V108H90.09V98.76a37.68,37.68,0,0,1-3.93,3.48L85,100.79A27,27,0,0,0,92.29,93H85.84V91.3h7.37a25.08,25.08,0,0,0,1.33-3.24l1.76.22a26.29,26.29,0,0,1-1.16,3h11.72V93H94.3a27.34,27.34,0,0,1-3,4.47h5.68V94.51Z" style="fill: #fff"/>
        </g>
        <g>
          <path d="M59.51,38.49c-5.34-3.08-9.65-10.56-9.63-16.7a8.06,8.06,0,0,1,1.36-4.86c-2.36.72-3.8,3.36-3.81,7.17,0,6.14,4.3,13.62,9.64,16.7,3.89,2.25,7.25,1.53,8.79-1.38C64.16,40.13,61.94,39.89,59.51,38.49Z"/>
          <path d="M57.19,5.73C51.42,2.4,46.38,2.09,42.61,4.28c1.58-.91,3.13-1.92,4.78-2.88,3.78-2.19,9-1.88,14.77,1.45C73.62,9.46,82.88,25.5,82.84,38.67a23.45,23.45,0,0,1-3.32,12.81L63.7,75.62l-6,3.47L75.94,50.42a19.06,19.06,0,0,0,1.93-8.87C77.91,28.39,68.65,12.35,57.19,5.73Z"/>
        </g>
        <path d="M77.87,41.55a19.06,19.06,0,0,1-1.93,8.87L57.75,79.09l-18-46.54c-2-7-2.56-10.41-2.55-15.21,0-13.17,8.57-18.22,20-11.61S77.91,28.39,77.87,41.55Zm-20.78-.86c5.35,3.09,9.69.61,9.71-5.53s-4.3-13.62-9.65-16.71-9.68-.6-9.7,5.54,4.3,13.62,9.64,16.7h0" style="fill: #be0000"/>
      </g>
    </g>
  </g>
</svg>
