<svg xmlns="http://www.w3.org/2000/svg" width="100" height="114.51" viewBox="0 0 100 114.51">
  <g id="Layer_2" data-name="Layer 2">
    <g id="Pointer">
      <g>
        <rect y="82.31" width="100" height="32.2" rx="16.1" style="fill: #be0000"/>
        <g>
          <path d="M14.89,95.79,14.48,94A14,14,0,0,0,18,87.94l1.57.51c-.19.53-.38,1-.58,1.49h4v1.19a25.38,25.38,0,0,1-1.67,2.65h2.42v10.15H16.07V94.58C15.68,95,15.27,95.4,14.89,95.79Zm2.48,9.42a24.19,24.19,0,0,1-.91,5.39L15,110.14a17.35,17.35,0,0,0,1.09-5.08Zm4-13.87h-3a19.39,19.39,0,0,1-1.6,2.44h2.9A22.57,22.57,0,0,0,21.34,91.34Zm-2.11,6.82V95.23H17.47v2.93Zm0,1.4H17.47v2.92h1.76ZM20,110l-1.33.14a31.63,31.63,0,0,0-.41-4.88l1.18-.14A29.69,29.69,0,0,1,20,110Zm2.78-.8-1.28.31a36.44,36.44,0,0,0-1-4.39l1.11-.24C22,106.22,22.4,107.67,22.74,109.22Zm-2.2-11.06h1.83V95.23H20.54Zm1.83,1.4H20.54v2.92h1.83Zm2.28,8.14-1,.38a30.59,30.59,0,0,0-1.06-3.28l1-.27A24,24,0,0,1,24.65,107.7ZM36,89.1v11.13H31.41v3h4.93v1.64H31.41v3H37v1.67H24.23v-1.67h5.51v-3h-5v-1.64h5v-3H25.15V89.1Zm-6.23,4.81V90.67H26.82v3.24Zm0,1.52H26.82v3.23h2.92Zm1.67-1.52h2.9V90.67h-2.9Zm2.9,1.52h-2.9v3.23h2.9Z" style="fill: #fff"/>
          <path d="M44,105.52a20.58,20.58,0,0,1-3.41,4.88l-1.42-1a18.66,18.66,0,0,0,3.38-4.54Zm-3.67-9.44-1.12-1.35a22.14,22.14,0,0,0,7.37-6.65l1.79.39c-.39.58-.8,1.16-1.21,1.69h8.24v1.33a21.68,21.68,0,0,1-2.32,2.42h5.22V104.2H42.23V94.85C41.6,95.28,41,95.69,40.37,96.08Zm12.85-4.32h-7.4a25.16,25.16,0,0,1-2.34,2.15h7.44A25.32,25.32,0,0,0,53.22,91.76ZM49.5,98.23V95.5H43.92v2.73Zm0,1.54H43.92v2.81H49.5ZM49,110l-1.74.39a33.63,33.63,0,0,0-1.11-4.74l1.66-.33C48.24,106.76,48.65,108.3,49,110Zm5.6,0-1.74.39a24.56,24.56,0,0,0-1.91-4.83l1.67-.36A34.57,34.57,0,0,1,54.59,109.94ZM51.14,98.23h5.53V95.5H51.14Zm5.53,1.54H51.14v2.81h5.53Zm4.23,9.55-1.45,1a40.09,40.09,0,0,0-3.07-4.66l1.4-.87A35.27,35.27,0,0,1,60.9,109.32Z" style="fill: #fff"/>
          <path d="M73.11,97.75h-7v12.46H64.32V89h8.79Zm-1.73-7.37H66.06v2.25h5.32ZM66.06,96.3h5.32V94H66.06Zm9.11,1.47V89h8.74v18.87c0,1.54-.7,2.34-2.08,2.34-.91,0-1.86,0-2.77,0l-.41-1.62c.91.05,1.76.08,2.56.08s1-.44,1-1.31V97.77Zm7-7.37H76.91v2.23H82.2Zm-5.29,5.92H82.2V94H76.91Z" style="fill: #fff"/>
        </g>
        <g>
          <path d="M49.51,38.49c-5.34-3.08-9.65-10.56-9.63-16.7a8.06,8.06,0,0,1,1.36-4.86c-2.36.72-3.8,3.36-3.81,7.17,0,6.14,4.3,13.62,9.64,16.7,3.89,2.25,7.25,1.53,8.79-1.38C54.16,40.13,51.94,39.89,49.51,38.49Z"/>
          <path d="M47.19,5.73C41.42,2.4,36.38,2.09,32.61,4.28c1.58-.91,3.13-1.92,4.78-2.88,3.78-2.19,9-1.88,14.77,1.45C63.62,9.46,72.88,25.5,72.84,38.67a23.45,23.45,0,0,1-3.32,12.81L53.7,75.62l-6,3.47L65.94,50.42a19.06,19.06,0,0,0,1.93-8.87C67.91,28.39,58.65,12.35,47.19,5.73Z"/>
        </g>
        <path d="M67.87,41.55a19.06,19.06,0,0,1-1.93,8.87L47.75,79.09l-18-46.54c-2-7-2.56-10.41-2.55-15.21,0-13.17,8.57-18.22,20-11.61S67.91,28.39,67.87,41.55Zm-20.78-.86c5.35,3.09,9.69.61,9.71-5.53s-4.3-13.62-9.65-16.71-9.68-.6-9.7,5.54,4.3,13.62,9.64,16.7h0" style="fill: #be0000"/>
      </g>
    </g>
  </g>
</svg>
