<?xml version="1.0" encoding="utf-8"?>
<!-- Generator: Adobe Illustrator 26.0.1, SVG Export Plug-In . SVG Version: 6.00 Build 0)  -->
<svg version="1.1" id="Layer_1" xmlns="http://www.w3.org/2000/svg" xmlns:xlink="http://www.w3.org/1999/xlink" x="0px" y="0px"
	 width="130.9px" height="135.5px" viewBox="0 0 130.9 135.5" style="enable-background:new 0 0 130.9 135.5;" xml:space="preserve"
	>
<path style="fill:#BE0000;" d="M103.9,135.5h-77c-14.6,0-26.5-11.9-26.5-26.5v0c0-14.6,11.9-26.5,26.5-26.5h77
	c14.6,0,26.5,11.9,26.5,26.5v0C130.4,123.7,118.6,135.5,103.9,135.5z"/>
<g>
	<path style="fill:#FFFFFF;" d="M30.4,98.2l-0.5-2.4c1.5-1.5,2.6-3.4,3.3-5.7l2.1,0.7c-0.1,0.4-0.3,0.8-0.5,1.2h3.8v1.5
		c-0.5,0.9-0.9,1.7-1.4,2.3h2.1v10.5h-8v-9.1C31,97.6,30.7,97.9,30.4,98.2z M33,107.5c-0.1,2-0.4,3.8-0.8,5.4l-1.9-0.6
		c0.6-1.4,0.9-3.1,1.1-5L33,107.5z M36.4,93.8h-2.5c-0.4,0.7-0.8,1.4-1.3,2H35C35.4,95.2,35.9,94.6,36.4,93.8z M34.5,100.1v-2.4
		h-1.3v2.4H34.5z M34.5,101.9h-1.3v2.5h1.3V101.9z M35.6,112.1l-1.7,0.2c0-2.1-0.1-3.7-0.3-4.8l1.5-0.2
		C35.3,108.5,35.5,110.1,35.6,112.1z M38.3,111.3l-1.6,0.4c-0.2-1.6-0.6-3.1-0.9-4.3l1.4-0.3C37.6,108.4,38,109.8,38.3,111.3z
		 M36.1,100.1h1.4v-2.4h-1.4V100.1z M37.5,101.9h-1.4v2.5h1.4V101.9z M40.1,109.7h4.8v-2.5h-4.8v-2.1h4.8v-2.4h-4.5V91.1h11.2v11.6
		h-4.5v2.4h4.7v2.1h-4.7v2.5h5.4v2.2H39.6V110l-0.7,0.2c-0.3-1.1-0.6-2.2-1-3.2l1.2-0.3C39.6,107.8,39.9,108.8,40.1,109.7z
		 M44.9,95.9v-2.8h-2.3v2.8H44.9z M44.9,97.9h-2.3v2.8h2.3V97.9z M47.1,95.9h2.3v-2.8h-2.3V95.9z M49.4,97.9h-2.3v2.8h2.3V97.9z"/>
	<path style="fill:#FFFFFF;" d="M59.7,107.9c-0.9,1.8-2,3.5-3.3,4.8l-1.9-1.4c1.3-1.2,2.4-2.7,3.3-4.4L59.7,107.9z M56,98.5
		l-1.5-1.8c2.8-1.5,5.2-3.7,7.2-6.4l2.3,0.5c-0.3,0.5-0.7,0.9-1,1.4h7.9v1.7c-0.6,0.8-1.3,1.5-1.9,2.1h4.8v10.7H57.5v-9.1
		C57,97.9,56.5,98.2,56,98.5z M68.1,94.2h-6.8c-0.6,0.6-1.2,1.2-1.8,1.7h6.8C66.9,95.4,67.5,94.8,68.1,94.2z M64.6,100.2v-2.1h-4.9
		v2.1H64.6z M64.6,102.2h-4.9v2.2h4.9V102.2z M64.6,112.1l-2.3,0.5c-0.3-1.8-0.6-3.4-1-4.7l2.2-0.4
		C63.9,108.9,64.3,110.5,64.6,112.1z M70.2,112.1l-2.3,0.5c-0.5-1.8-1.1-3.4-1.8-4.8l2.2-0.5C69,108.8,69.6,110.4,70.2,112.1z
		 M66.8,100.2h5v-2.1h-5V100.2z M71.7,102.2h-5v2.2h5V102.2z M76.5,111.3l-1.9,1.4c-0.7-1.4-1.7-2.9-2.9-4.6l1.9-1.2
		C74.8,108.6,75.8,110.1,76.5,111.3z"/>
	<path style="fill:#FFFFFF;" d="M88.8,100.1h-6.9v12.4h-2.3V91h9.2V100.1z M86.5,92.8h-4.6v1.7h4.6V92.8z M81.8,98.2h4.6v-1.8h-4.6
		V98.2z M90.4,100.1V91h9.1v18.7c0,1.9-0.8,2.8-2.3,2.8c-0.9,0-1.8,0-2.7-0.1l-0.6-2.1c0.8,0,1.6,0.1,2.4,0.1c0.6,0,0.9-0.5,0.9-1.4
		v-8.8H90.4z M97.2,92.9h-4.6v1.7h4.6V92.9z M92.7,98.2h4.6v-1.8h-4.6V98.2z"/>
	<path style="fill:#FFFFFF;" d="M27.6,118h1.8v8.6h4.2v1.5h-6V118z"/>
	<path style="fill:#FFFFFF;" d="M36,125c0,1.3,1.1,1.9,2.2,1.9c0.9,0,1.5-0.1,2-0.3l0.3,1.3c-0.6,0.3-1.5,0.5-2.5,0.5
		c-2.4,0-3.8-1.5-3.8-3.7c0-2,1.2-3.9,3.6-3.9c2.4,0,3.1,2,3.1,3.6c0,0.3,0,0.6-0.1,0.8H36z M39.2,123.7c0-0.7-0.3-1.8-1.5-1.8
		c-1.1,0-1.6,1-1.7,1.8H39.2z"/>
	<path style="fill:#FFFFFF;" d="M43.4,119.8c-0.6,0-1-0.5-1-1c0-0.6,0.4-1,1-1c0.6,0,1,0.4,1,1C44.4,119.3,44,119.8,43.4,119.8
		L43.4,119.8z M42.5,128.1v-7.3h1.8v7.3H42.5z"/>
	<path style="fill:#FFFFFF;" d="M51.1,128.1v-4.2l-3.2-5.9h2.1l1.2,2.6c0.3,0.8,0.6,1.3,0.9,2h0c0.2-0.6,0.5-1.3,0.9-2l1.2-2.6h2.1
		l-3.4,5.8v4.3H51.1z"/>
	<path style="fill:#FFFFFF;" d="M63,125.9c0,0.9,0,1.6,0.1,2.2h-1.6l-0.1-1.1h0c-0.3,0.5-1,1.3-2.4,1.3c-1.3,0-2.5-0.8-2.5-3.2v-4.3
		h1.8v4c0,1.2,0.4,2,1.4,2c0.8,0,1.2-0.5,1.4-1c0.1-0.2,0.1-0.4,0.1-0.6v-4.4H63V125.9z"/>
	<path style="fill:#FFFFFF;" d="M66.3,125c0,1.3,1.1,1.9,2.2,1.9c0.9,0,1.5-0.1,2-0.3l0.3,1.3c-0.6,0.3-1.5,0.5-2.5,0.5
		c-2.4,0-3.8-1.5-3.8-3.7c0-2,1.2-3.9,3.6-3.9c2.4,0,3.1,2,3.1,3.6c0,0.3,0,0.6-0.1,0.8H66.3z M69.5,123.7c0-0.7-0.3-1.8-1.5-1.8
		c-1.1,0-1.6,1-1.7,1.8H69.5z"/>
	<path style="fill:#FFFFFF;" d="M84.4,124c-0.1-1.3-0.1-2.9-0.1-4.2h0c-0.3,1.2-0.8,2.6-1.2,3.9l-1.5,4.4h-1.4l-1.4-4.3
		c-0.4-1.3-0.8-2.7-1-3.9h0c0,1.3-0.1,2.9-0.2,4.3l-0.2,4.1h-1.7l0.7-10.1h2.4l1.3,4.1c0.4,1.2,0.7,2.4,0.9,3.5h0
		c0.3-1.1,0.6-2.3,1-3.5l1.4-4h2.4l0.6,10.1h-1.8L84.4,124z"/>
	<path style="fill:#FFFFFF;" d="M94.8,125.9c0,0.9,0,1.6,0.1,2.2h-1.6l-0.1-1.1h0c-0.3,0.5-1,1.3-2.4,1.3s-2.5-0.8-2.5-3.2v-4.3H90
		v4c0,1.2,0.4,2,1.4,2c0.7,0,1.2-0.5,1.4-1c0.1-0.2,0.1-0.4,0.1-0.6v-4.4h1.8V125.9z"/>
	<path style="fill:#FFFFFF;" d="M96.8,123c0-0.8,0-1.5-0.1-2.2h1.6l0.1,1.1h0c0.3-0.6,1.1-1.3,2.3-1.3c1.3,0,2.6,0.8,2.6,3.1v4.3
		h-1.8V124c0-1-0.4-1.8-1.4-1.8c-0.7,0-1.2,0.5-1.4,1.1c-0.1,0.1-0.1,0.4-0.1,0.6v4.3h-1.8V123z"/>
</g>
<g>
	<path d="M64.9,38.7c-5.3-3.1-9.7-10.6-9.6-16.7c0-2.1,0.5-3.7,1.4-4.9c-2.4,0.7-3.8,3.4-3.8,7.2c0,6.1,4.3,13.6,9.6,16.7
		c3.9,2.2,7.2,1.5,8.8-1.4C69.6,40.4,67.4,40.1,64.9,38.7z"/>
	<path d="M62.6,6C56.8,2.6,51.8,2.3,48,4.5c1.6-0.9,3.1-1.9,4.8-2.9c3.8-2.2,9-1.9,14.8,1.4C79,9.7,88.3,25.7,88.3,38.9
		c0,3.6-0.5,8.3-3.3,12.8L69.1,75.8l-5.9,3.5l18.2-28.7c1.2-2.3,1.9-5.3,1.9-8.9C83.3,28.6,74.1,12.6,62.6,6z"/>
</g>
<path style="fill:#BE0000;" d="M83.3,41.8c0,3.6-0.7,6.5-1.9,8.9L63.2,79.3l-18-46.5c-2-7-2.6-10.4-2.5-15.2
	c0-13.2,8.6-18.2,20-11.6C74.1,12.6,83.3,28.6,83.3,41.8z M62.5,40.9c5.3,3.1,9.7,0.6,9.7-5.5c0-6.1-4.3-13.6-9.6-16.7
	c-5.3-3.1-9.7-0.6-9.7,5.5C52.9,30.4,57.2,37.8,62.5,40.9L62.5,40.9"/>
</svg>
