<?xml version="1.0" encoding="utf-8"?>
<!-- Generator: Adobe Illustrator 26.0.1, SVG Export Plug-In . SVG Version: 6.00 Build 0)  -->
<svg version="1.1" id="Layer_1" xmlns="http://www.w3.org/2000/svg" xmlns:xlink="http://www.w3.org/1999/xlink" x="0px" y="0px"
	 width="129.8px" height="135.5px" viewBox="0 0 129.8 135.5" style="enable-background:new 0 0 129.8 135.5;" xml:space="preserve"
	>
<path style="fill:#BE0000;" d="M103.3,135.5h-77c-14.6,0-26.5-11.9-26.5-26.5v0c0-14.6,11.9-26.5,26.5-26.5h77
	c14.6,0,26.5,11.9,26.5,26.5v0C129.8,123.7,118,135.5,103.3,135.5z"/>
<g>
	<path style="fill:#FFFFFF;" d="M42.2,91.7h8.9v1.8H33v7.9c0,4.7-0.7,8.5-1.9,11.3l-1.7-1.6c1-2.3,1.5-5.6,1.6-9.7v-9.8h8.9
		c-0.2-0.4-0.4-0.8-0.7-1.2l2.4-0.4C41.8,90.6,42,91.1,42.2,91.7z M40,101c0.2-0.4,0.4-0.7,0.5-1.1l1.9,0.2
		c-0.1,0.3-0.3,0.6-0.5,0.9h7.4v6.4h-2.4c-0.3,0.7-0.6,1.2-0.9,1.7c0.6-0.1,1.2-0.2,1.8-0.4c-0.2-0.3-0.3-0.5-0.5-0.8l1-0.3
		c0.6,0.8,1,1.5,1.3,2.2l-1,0.4c-0.1-0.2-0.2-0.5-0.3-0.7c-1.1,0.3-2.1,0.6-3.2,0.7l-0.4-0.9c0.4-0.4,0.8-1.1,1.1-1.8h-1.7v2.3
		c0,0.6,0.3,0.9,0.8,0.9h3.8c0.5,0,0.8-0.1,1-0.3c0.3-0.2,0.5-0.8,0.6-1.9l1.9,0.6c-0.2,1.6-0.5,2.6-1,2.9c-0.5,0.3-1.1,0.4-2.1,0.4
		h-4.7c-1.5,0-2.3-0.7-2.3-2.2v-2.7h-1.1c-0.1,1.4-0.7,2.5-1.7,3.4c-1.1,0.8-2.8,1.5-5.1,2l-1.1-1.8c2.3-0.4,3.8-0.9,4.7-1.5
		c0.7-0.6,1.2-1.3,1.3-2.1h-3.9V101H40z M36.2,96.8c0,1.5-0.5,2.6-1.4,3.3l-1.2-1c0.8-0.5,1.2-1.3,1.3-2.3H36.2z M37,94.6v-0.7h1.9
		v0.7h2.8v1.6h-2.8v4H37v-4h-2.9v-1.6H37z M41.1,103.5v-1.1H37v1.1H41.1z M41.1,104.9H37v1h4.1V104.9z M40.9,96.8v1.4
		c0,0.2,0.1,0.3,0.3,0.3h1v1.1h-1.4c-0.7,0-1-0.5-1-1.3v-1.5H40.9z M44.7,96.9c0,1.4-0.5,2.5-1.3,3.2l-1-0.9c0.7-0.5,1-1.3,1.1-2.4
		H44.7z M45.5,94.6v-0.7h1.9v0.7h2.9v1.6h-2.9v4h-1.9v-4h-2.8v-1.6H45.5z M43.1,103.5h4.2v-1.1h-4.2V103.5z M47.3,104.9h-4.2v1h4.2
		V104.9z M49.5,96.8V98c0,0.4,0.2,0.6,0.5,0.6h1v1.3h-1.5c-0.9,0-1.4-0.6-1.4-1.7v-1.4H49.5z"/>
	<path style="fill:#FFFFFF;" d="M61.7,92.5c0.5-0.8,0.8-1.5,1-2.3l2.5,0.4c-0.2,0.7-0.6,1.3-1,2H73v10.8h-5.7v4
		c0.7-0.8,1.3-2.1,1.8-3.7l1.7,0.5c-0.4,1.2-0.9,2.1-1.5,3c0.7-0.1,1.3-0.3,1.9-0.5c-0.2-0.5-0.5-1.1-0.7-1.6l1.5-0.4
		c0.7,1.3,1.3,2.5,1.7,3.6l0.1-0.9l2.1,0.7c-0.2,2.1-0.6,3.3-1,3.8c-0.4,0.4-1.1,0.6-2.1,0.6h-5.3c-1.6,0-2.5-0.9-2.5-2.6v-6.4h-1.5
		c-0.2,2.4-0.9,4.4-2.1,5.9c-1.3,1.5-3.3,2.6-6.1,3.4l-1.2-1.9c2.8-0.8,4.6-1.8,5.6-2.9c0.9-1.2,1.4-2.7,1.6-4.4h-5.2V92.5H61.7z
		 M63.4,96.9v-2.4h-5.1v2.4H63.4z M63.4,98.9h-5.1v2.3h5.1V98.9z M65.6,96.9h5.1v-2.4h-5.1V96.9z M70.7,98.9h-5.1v2.3h5.1V98.9z
		 M67.2,109.1c0,0.7,0.3,1,1,1h4.2c0.4,0,0.7-0.1,0.9-0.4c0.1-0.2,0.3-0.6,0.4-1.2l-1.5,0.6c-0.1-0.4-0.3-0.7-0.4-1.1
		c-1.4,0.4-2.7,0.7-4.1,0.8l-0.4-1.3V109.1z"/>
	<path style="fill:#FFFFFF;" d="M98.7,94.5v17.6h-2.3v-1.4H81.5v1.4h-2.3V94.4h2.3v14.1h6.3v-18h2.3v18h6.3v-14H98.7z"/>
	<path style="fill:#FFFFFF;" d="M27.6,118.2c0.8-0.1,1.8-0.2,2.9-0.2c1.9,0,3.2,0.4,4.1,1.2c1,0.8,1.6,2,1.6,3.7
		c0,1.8-0.6,3.1-1.6,4c-1,0.9-2.6,1.4-4.6,1.4c-1.1,0-1.9-0.1-2.5-0.1V118.2z M29.4,126.7c0.3,0,0.6,0,1,0c2.4,0,3.8-1.3,3.8-3.9
		c0-2.2-1.3-3.5-3.6-3.5c-0.6,0-1,0-1.3,0.1V126.7z"/>
	<path style="fill:#FFFFFF;" d="M39.1,125c0,1.3,1.1,1.9,2.2,1.9c0.9,0,1.5-0.1,2-0.3l0.3,1.3c-0.6,0.3-1.5,0.5-2.5,0.5
		c-2.4,0-3.8-1.5-3.8-3.7c0-2,1.2-3.9,3.6-3.9c2.4,0,3.1,2,3.1,3.6c0,0.3,0,0.6-0.1,0.8H39.1z M42.3,123.7c0-0.7-0.3-1.8-1.5-1.8
		c-1.1,0-1.6,1-1.7,1.8H42.3z"/>
	<path style="fill:#FFFFFF;" d="M46.7,120.8l1.2,3.7c0.2,0.6,0.4,1.2,0.5,1.8h0c0.1-0.6,0.3-1.2,0.5-1.8l1.2-3.7H52l-2.8,7.3h-1.8
		l-2.7-7.3H46.7z"/>
	<path style="fill:#FFFFFF;" d="M54,119.8c-0.6,0-1-0.5-1-1c0-0.6,0.4-1,1-1c0.6,0,1,0.4,1,1C55.1,119.3,54.7,119.8,54,119.8
		L54,119.8z M53.1,128.1v-7.3H55v7.3H53.1z"/>
	<path style="fill:#FFFFFF;" d="M57,117.4h1.8v10.7H57V117.4z"/>
	<path style="fill:#FFFFFF;" d="M62.2,117.7l-0.3,3.9h-1.1l-0.3-3.9H62.2z"/>
	<path style="fill:#FFFFFF;" d="M63.7,126.4c0.4,0.3,1.2,0.5,1.9,0.5c0.8,0,1.2-0.3,1.2-0.8c0-0.5-0.3-0.7-1.2-1.1
		c-1.4-0.5-2-1.3-2-2.1c0-1.3,1.1-2.3,2.8-2.3c0.8,0,1.5,0.2,1.9,0.4l-0.4,1.3c-0.3-0.2-0.9-0.4-1.5-0.4c-0.7,0-1,0.3-1,0.8
		c0,0.5,0.3,0.7,1.3,1c1.3,0.5,1.9,1.1,2,2.2c0,1.3-1,2.3-3,2.3c-0.9,0-1.7-0.2-2.2-0.5L63.7,126.4z"/>
	<path style="fill:#FFFFFF;" d="M73.2,118.1c0.7-0.1,1.6-0.2,2.8-0.2c1.4,0,2.3,0.3,3,0.8c0.6,0.5,1,1.3,1,2.2c0,1-0.3,1.7-0.9,2.3
		c-0.8,0.7-1.9,1.1-3.2,1.1c-0.3,0-0.6,0-0.9-0.1v3.8h-1.8V118.1z M75.1,122.8c0.2,0.1,0.5,0.1,0.9,0.1c1.4,0,2.2-0.7,2.2-1.9
		c0-1.1-0.8-1.7-2.1-1.7c-0.5,0-0.9,0-1.1,0.1V122.8z"/>
	<path style="fill:#FFFFFF;" d="M82.5,125c0,1.3,1.1,1.9,2.2,1.9c0.9,0,1.5-0.1,2-0.3l0.3,1.3c-0.6,0.3-1.5,0.5-2.5,0.5
		c-2.4,0-3.8-1.5-3.8-3.7c0-2,1.2-3.9,3.6-3.9c2.4,0,3.1,2,3.1,3.6c0,0.3,0,0.6-0.1,0.8H82.5z M85.7,123.7c0-0.7-0.3-1.8-1.5-1.8
		c-1.1,0-1.6,1-1.7,1.8H85.7z"/>
	<path style="fill:#FFFFFF;" d="M94.6,126.4c0,0.7,0,1.3,0.1,1.8H93l-0.1-0.8h0c-0.4,0.6-1.2,1-2.2,1c-1.5,0-2.3-1.1-2.3-2.2
		c0-1.8,1.6-2.8,4.3-2.8v-0.1c0-0.5-0.2-1.3-1.5-1.3c-0.7,0-1.5,0.2-2,0.5l-0.4-1.2c0.5-0.3,1.5-0.6,2.6-0.6c2.3,0,3,1.5,3,3.1
		V126.4z M92.8,124.5c-1.3,0-2.5,0.3-2.5,1.4c0,0.7,0.5,1.1,1,1.1c0.8,0,1.3-0.5,1.5-1c0-0.1,0-0.3,0-0.4V124.5z"/>
	<path style="fill:#FFFFFF;" d="M98.4,124L98.4,124c0.2-0.3,0.4-0.6,0.6-0.9l1.8-2.4h2.2l-2.7,3l3.1,4.3h-2.3l-2.1-3.2l-0.6,0.7v2.5
		h-1.8v-10.7h1.8V124z"/>
</g>
<g>
	<path d="M64.4,38.7C59,35.6,54.7,28.1,54.7,22c0-2.1,0.5-3.7,1.4-4.9c-2.4,0.7-3.8,3.4-3.8,7.2c0,6.1,4.3,13.6,9.6,16.7
		c3.9,2.2,7.2,1.5,8.8-1.4C69,40.4,66.8,40.1,64.4,38.7z"/>
	<path d="M62,6c-5.8-3.3-10.8-3.6-14.6-1.5c1.6-0.9,3.1-1.9,4.8-2.9c3.8-2.2,9-1.9,14.8,1.4c11.5,6.6,20.7,22.7,20.7,35.8
		c0,3.6-0.5,8.3-3.3,12.8L68.5,75.8l-5.9,3.5l18.2-28.7c1.2-2.3,1.9-5.3,1.9-8.9C82.8,28.6,73.5,12.6,62,6z"/>
</g>
<path style="fill:#BE0000;" d="M82.7,41.8c0,3.6-0.7,6.5-1.9,8.9L62.6,79.3l-18-46.5c-2-7-2.6-10.4-2.5-15.2C42,4.4,50.6-0.7,62,6
	C73.5,12.6,82.8,28.6,82.7,41.8z M61.9,40.9c5.3,3.1,9.7,0.6,9.7-5.5c0-6.1-4.3-13.6-9.6-16.7c-5.3-3.1-9.7-0.6-9.7,5.5
	C52.3,30.4,56.6,37.8,61.9,40.9L61.9,40.9"/>
</svg>
