<svg xmlns="http://www.w3.org/2000/svg" width="100" height="114.51" viewBox="0 0 100 114.51">
  <g id="Layer_2" data-name="Layer 2">
    <g id="Pointer">
      <g>
        <rect y="82.31" width="100" height="32.2" rx="16.1" style="fill: #be0000"/>
        <g>
          <path d="M27.21,89.68h9v1.4H18v8.14a28.81,28.81,0,0,1-2,11.23l-1.33-1.18a25.06,25.06,0,0,0,1.76-10V89.68h9.06a12.71,12.71,0,0,0-.75-1.43L26.51,88C26.75,88.47,27,89.05,27.21,89.68Zm-1.91,9.2a5.23,5.23,0,0,0,.58-1.26l1.47.2a4.57,4.57,0,0,1-.58,1.06h7.59V105H32a8.37,8.37,0,0,1-1.13,2.08,11.61,11.61,0,0,0,2.29-.53c-.19-.34-.36-.63-.55-.92l.8-.24a11.77,11.77,0,0,1,1.28,2.29l-.83.32c-.12-.29-.24-.53-.33-.78A18.15,18.15,0,0,1,30,108l-.29-.77A6.11,6.11,0,0,0,31,105H28.87v2.73c0,.63.29.94.9.94h4a1.83,1.83,0,0,0,1.19-.31c.31-.24.53-.94.62-2.15l1.43.43c-.17,1.6-.48,2.59-1,2.93a3.57,3.57,0,0,1-2,.43H29.36c-1.36,0-2-.65-2-1.93V105H25.78a4.73,4.73,0,0,1-1.69,3.38,12.76,12.76,0,0,1-5.14,2L18.08,109a12.45,12.45,0,0,0,4.8-1.6A3.33,3.33,0,0,0,24.23,105h-4.1V98.88Zm-4-4.32a4,4,0,0,1-1.52,3.28l-.92-.79a2.93,2.93,0,0,0,1.33-2.49Zm1.09-2.06v-.87h1.47v.87h3v1.26h-3v4.08H22.35V93.76h-3V92.5Zm4.11,8.94V100H21.72v1.4Zm0,1.09H21.72v1.33h4.74Zm-.51-8V96c0,.26.12.41.36.41h1v.94H26c-.63,0-.94-.44-.94-1.26V94.58Zm3.84,0a4.27,4.27,0,0,1-1.3,3.21l-.8-.7a3.13,3.13,0,0,0,1.13-2.51Zm1.06-2.11v-.87H32.3v.87h3.12v1.26H32.3v4.13H30.85V93.76h-3V92.5ZM28,101.44h4.79V100H28Zm4.79,1.09H28v1.33h4.79Zm1.78-8v1.3c0,.44.17.65.56.65h1v1.07H34.72c-.85,0-1.26-.53-1.26-1.57V94.56Z" style="fill: #fff"/>
          <path d="M47,90.45A9.56,9.56,0,0,0,48.19,88l1.89.26a10.08,10.08,0,0,1-1.16,2.2h9v10.36H52.13v6.45c0,.73.34,1.09,1,1.09h4.37a1.52,1.52,0,0,0,1.16-.41,6,6,0,0,0,.58-2.83l1.59.51c-.19,2-.5,3.29-1,3.77a3.14,3.14,0,0,1-2,.55H52.64c-1.45,0-2.18-.77-2.18-2.32v-6.81H48.38a9.92,9.92,0,0,1-2,6,12.54,12.54,0,0,1-6.12,3.41l-.94-1.47c2.78-.78,4.71-1.79,5.8-3a8.45,8.45,0,0,0,1.62-4.88H41.4V90.45Zm1.86,4.49V92H43.09v2.9Zm0,1.53H43.09v2.75h5.78Zm1.66-1.53h5.73V92H50.53Zm5.73,1.53H50.53v2.75h5.73Zm2.58,9.9-1.25.46c-.15-.41-.29-.8-.44-1.16a26.59,26.59,0,0,1-4.35.87l-.36-1.26a9.74,9.74,0,0,0,1.94-3.91l1.35.41a13.58,13.58,0,0,1-1.67,3.33,20.46,20.46,0,0,0,2.61-.6c-.29-.65-.58-1.28-.89-1.86l1.18-.32A27.53,27.53,0,0,1,58.84,106.37Z" style="fill: #fff"/>
          <path d="M83.67,92.26v17.59H81.93v-1.62H66.35v1.59H64.61V92.19h1.74v14.37h6.91V88.3h1.79v18.26h6.88V92.26Z" style="fill: #fff"/>
        </g>
        <g>
          <path d="M49.51,38.49c-5.34-3.08-9.65-10.56-9.63-16.7a8.06,8.06,0,0,1,1.36-4.86c-2.36.72-3.8,3.36-3.81,7.17,0,6.14,4.3,13.62,9.64,16.7,3.89,2.25,7.25,1.53,8.79-1.38C54.16,40.13,51.94,39.89,49.51,38.49Z"/>
          <path d="M47.19,5.73C41.42,2.4,36.38,2.09,32.61,4.28c1.58-.91,3.13-1.92,4.78-2.88,3.78-2.19,9-1.88,14.77,1.45C63.62,9.46,72.88,25.5,72.84,38.67a23.45,23.45,0,0,1-3.32,12.81L53.7,75.62l-6,3.47L65.94,50.42a19.06,19.06,0,0,0,1.93-8.87C67.91,28.39,58.65,12.35,47.19,5.73Z"/>
        </g>
        <path d="M67.87,41.55a19.06,19.06,0,0,1-1.93,8.87L47.75,79.09l-18-46.54c-2-7-2.56-10.41-2.55-15.21,0-13.17,8.57-18.22,20-11.61S67.91,28.39,67.87,41.55Zm-20.78-.86c5.35,3.09,9.69.61,9.71-5.53s-4.3-13.62-9.65-16.71-9.68-.6-9.7,5.54,4.3,13.62,9.64,16.7h0" style="fill: #be0000"/>
      </g>
    </g>
  </g>
</svg>
