<?xml version="1.0" encoding="utf-8"?>
<!-- Generator: Adobe Illustrator 26.0.1, SVG Export Plug-In . SVG Version: 6.00 Build 0)  -->
<svg version="1.1" id="Layer_1" xmlns="http://www.w3.org/2000/svg" xmlns:xlink="http://www.w3.org/1999/xlink" x="0px" y="0px"
	 width="150px" height="134.5px" viewBox="0 0 150 134.5" style="enable-background:new 0 0 150 134.5;" xml:space="preserve">
<path style="fill:#BE0000;" d="M123.5,135.3h-97C11.9,135.3,0,123.4,0,108.8v0c0-14.6,11.9-26.5,26.5-26.5h97
	c14.6,0,26.5,11.9,26.5,26.5v0C150,123.4,138.1,135.3,123.5,135.3z"/>
<g>
	<path style="fill:#FFFFFF;" d="M29.7,98.5l-1.4-1.8c2.1-1.7,3.6-3.8,4.3-6.3l2.3,0.3c-0.3,0.9-0.6,1.8-1,2.7h4.1v-3.2h2.3v3.2h7.7
		v2.2h-7.7v3.3h9.5v2.2h-22v-2.2h10.1v-3.3h-5.4C31.7,96.6,30.8,97.6,29.7,98.5z M46.9,112.4h-2.3v-1.2H33.1v1.2h-2.3v-9.2h16.2
		V112.4z M44.6,109v-3.7H33.1v3.7H44.6z"/>
	<path style="fill:#FFFFFF;" d="M61.8,97.7v-7.6h2.3v7.6h9.6v2.2h-9.6v9.1h8.7v2.2H53.1V109h8.7v-9.1h-9.7v-2.2H61.8z"/>
	<path style="fill:#FFFFFF;" d="M85.3,101.7c-1.1,0.5-2.1,0.9-3.2,1.3v6.8c0,1.5-0.8,2.3-2.4,2.3h-2.5l-0.5-2.2
		c0.8,0.1,1.5,0.1,2.2,0.1c0.6,0,0.9-0.3,0.9-0.8v-5.4c-1.1,0.4-2.3,0.7-3.4,1l-0.6-2.2c1.4-0.3,2.7-0.6,4-1v-5.1h-3.6v-2.2h3.6
		v-4.2h2.3v4.2H85v2.2h-2.9v4.3c1.1-0.4,2.1-0.9,3.2-1.4V101.7z M97.9,91.8V94h-3.7v15.6c0,1.6-0.8,2.5-2.3,2.5h-4l-0.5-2.2
		c1.3,0.1,2.6,0.1,3.7,0.1c0.5,0,0.8-0.3,0.8-1V94h-6.2v-2.2H97.9z"/>
	<path style="fill:#FFFFFF;" d="M106.3,96v1.8c-0.8,1.3-1.6,2.5-2.7,3.7h2.9v1.5c-0.3,1.8-0.7,3.3-1.2,4.4c0.2,0.1,0.4,0.3,0.6,0.5
		c0.8,0.7,1.5,1.2,2.2,1.5c0.7,0.3,1.7,0.4,3.1,0.5c1.3,0,2.8,0,4.5,0c1.7,0,3.9-0.1,6.6-0.2l-0.5,2.2H116c-1.7,0-3.3,0-4.9-0.1
		c-1.7,0-2.9-0.2-3.7-0.6c-1-0.4-1.9-1-2.8-1.9c-0.2-0.2-0.4-0.3-0.6-0.3c-0.5,0-1.3,1-2.3,3.2l-1.7-1.5c1.1-2.1,2.2-3.4,3.2-3.7
		c0.5-1.1,0.8-2.3,1.1-3.6h-3.5v-1.7c1.1-1.3,2.1-2.5,2.9-3.6h-3.3V96H106.3z M106.1,93.7l-1.5,1.5c-0.9-1.1-2.1-2.2-3.7-3.5
		l1.5-1.4C103.9,91.4,105.1,92.5,106.1,93.7z M110.7,92.6c-0.4-0.7-0.8-1.3-1.3-1.8l2.1-0.8c0.5,0.7,1,1.6,1.5,2.6h2.7
		c0.6-0.9,1.1-1.8,1.6-2.7l2.2,0.7c-0.4,0.7-0.8,1.4-1.3,1.9h3.7v2.1h-6.7c-0.1,0.5-0.3,1.1-0.5,1.5h5.5v12.1h-11.5V96.2h3.5
		c0.2-0.5,0.4-1,0.5-1.5H107v-2.1H110.7z M118.2,99.7v-1.5H111v1.5H118.2z M118.2,103v-1.5H111v1.5H118.2z M118.2,104.7H111v1.6h7.3
		V104.7z"/>
	<path style="fill:#FFFFFF;" d="M31.1,127.4c-0.6,0.2-1.9,0.6-3.2,0.6c-1.7,0-3-0.4-4-1.4c-0.9-0.9-1.4-2.2-1.4-3.7
		c0-3.2,2.3-5.2,5.6-5.2c1.2,0,2.2,0.3,2.7,0.5l-0.4,1.5c-0.6-0.3-1.2-0.4-2.3-0.4c-2.2,0-3.7,1.3-3.7,3.6c0,2.3,1.4,3.7,3.5,3.7
		c0.7,0,1.2-0.1,1.4-0.2v-2.5h-1.8v-1.5h3.6V127.4z"/>
	<path style="fill:#FFFFFF;" d="M32.9,117.2h1.8v10.7h-1.8V117.2z"/>
	<path style="fill:#FFFFFF;" d="M40,128.1c-2.1,0-3.7-1.4-3.7-3.8c0-2.4,1.6-3.9,3.8-3.9c2.2,0,3.6,1.5,3.6,3.8
		C43.7,126.9,41.8,128.1,40,128.1L40,128.1z M40,126.7c1,0,1.8-1,1.8-2.5c0-1.1-0.5-2.5-1.8-2.5c-1.3,0-1.8,1.3-1.8,2.5
		C38.2,125.7,38.9,126.7,40,126.7L40,126.7z"/>
	<path style="fill:#FFFFFF;" d="M51.8,125.7c0,0.9,0,1.6,0.1,2.2h-1.6l-0.1-1.1h0c-0.3,0.5-1,1.3-2.4,1.3s-2.5-0.8-2.5-3.2v-4.3H47
		v4c0,1.2,0.4,2,1.4,2c0.8,0,1.2-0.5,1.4-1c0.1-0.2,0.1-0.4,0.1-0.6v-4.4h1.8V125.7z"/>
	<path style="fill:#FFFFFF;" d="M59.1,127.7c-0.4,0.2-1.2,0.4-2.1,0.4c-2.3,0-3.8-1.5-3.8-3.7c0-2.2,1.5-3.9,4.1-3.9
		c0.7,0,1.4,0.1,1.8,0.3l-0.3,1.4c-0.3-0.1-0.7-0.3-1.4-0.3c-1.4,0-2.2,1-2.2,2.4c0,1.5,1,2.4,2.2,2.4c0.6,0,1.1-0.1,1.5-0.3
		L59.1,127.7z"/>
	<path style="fill:#FFFFFF;" d="M61.7,124.8c0,1.3,1.1,1.9,2.2,1.9c0.9,0,1.5-0.1,2-0.3l0.3,1.3c-0.6,0.3-1.5,0.5-2.6,0.5
		c-2.4,0-3.8-1.5-3.8-3.7c0-2,1.2-3.9,3.6-3.9c2.4,0,3.1,2,3.1,3.6c0,0.3,0,0.6-0.1,0.8H61.7z M64.9,123.5c0-0.7-0.3-1.8-1.5-1.8
		c-1.1,0-1.6,1-1.7,1.8H64.9z"/>
	<path style="fill:#FFFFFF;" d="M68,126.2c0.4,0.3,1.2,0.5,1.9,0.5c0.8,0,1.2-0.3,1.2-0.8c0-0.5-0.3-0.7-1.2-1.1
		c-1.4-0.5-2-1.3-2-2.1c0-1.3,1.1-2.3,2.8-2.3c0.8,0,1.5,0.2,2,0.4l-0.4,1.3c-0.3-0.2-0.9-0.4-1.5-0.4c-0.7,0-1,0.3-1,0.8
		c0,0.5,0.3,0.7,1.3,1c1.3,0.5,1.9,1.1,1.9,2.2c0,1.3-1,2.3-3,2.3c-0.9,0-1.7-0.2-2.2-0.5L68,126.2z"/>
	<path style="fill:#FFFFFF;" d="M76.5,118.7v1.9h1.8v1.4h-1.8v3.2c0,0.9,0.2,1.4,0.9,1.4c0.3,0,0.5,0,0.7-0.1l0,1.4
		c-0.3,0.1-0.8,0.2-1.3,0.2c-0.7,0-1.2-0.2-1.6-0.6c-0.4-0.4-0.6-1.1-0.6-2.1V122h-1v-1.4h1v-1.4L76.5,118.7z"/>
	<path style="fill:#FFFFFF;" d="M80.8,124.8c0,1.3,1.1,1.9,2.2,1.9c0.9,0,1.5-0.1,2-0.3l0.3,1.3c-0.6,0.3-1.5,0.5-2.5,0.5
		c-2.4,0-3.8-1.5-3.8-3.7c0-2,1.2-3.9,3.6-3.9c2.4,0,3.2,2,3.2,3.6c0,0.3,0,0.6-0.1,0.8H80.8z M84.1,123.5c0-0.7-0.3-1.8-1.5-1.8
		c-1.1,0-1.6,1-1.7,1.8H84.1z"/>
	<path style="fill:#FFFFFF;" d="M87.3,122.9c0-1,0-1.7-0.1-2.4h1.6l0.1,1.4h0c0.4-1,1.2-1.5,2-1.5c0.2,0,0.3,0,0.4,0v1.7
		c-0.2,0-0.3,0-0.6,0c-0.9,0-1.5,0.6-1.6,1.4c0,0.2,0,0.4,0,0.6v3.8h-1.8V122.9z"/>
	<path style="fill:#FFFFFF;" d="M95.8,117.9c0.7-0.1,1.7-0.2,2.8-0.2c1.5,0,2.4,0.2,3.1,0.8c0.6,0.5,0.9,1.2,0.9,2
		c0,1.3-0.9,2.2-1.8,2.5v0c0.7,0.3,1.2,1,1.4,2c0.3,1.3,0.6,2.4,0.8,2.8H101c-0.1-0.3-0.4-1.1-0.7-2.4c-0.3-1.3-0.8-1.7-1.8-1.8
		h-0.9v4.2h-1.8V117.9z M97.6,122.4h1.1c1.2,0,2-0.7,2-1.7c0-1.1-0.8-1.6-2-1.6c-0.6,0-1,0-1.1,0.1V122.4z"/>
	<path style="fill:#FFFFFF;" d="M107.5,128.1c-2.1,0-3.7-1.4-3.7-3.8c0-2.4,1.6-3.9,3.8-3.9c2.2,0,3.6,1.5,3.6,3.8
		C111.2,126.9,109.3,128.1,107.5,128.1L107.5,128.1z M107.5,126.7c1,0,1.8-1,1.8-2.5c0-1.1-0.5-2.5-1.8-2.5c-1.3,0-1.8,1.3-1.8,2.5
		C105.7,125.7,106.4,126.7,107.5,126.7L107.5,126.7z"/>
	<path style="fill:#FFFFFF;" d="M118.4,126.1c0,0.7,0,1.3,0.1,1.8h-1.7l-0.1-0.8h0c-0.4,0.6-1.2,1-2.2,1c-1.5,0-2.3-1.1-2.3-2.2
		c0-1.8,1.6-2.8,4.3-2.8V123c0-0.5-0.2-1.3-1.5-1.3c-0.7,0-1.5,0.2-2,0.5l-0.4-1.2c0.5-0.3,1.5-0.6,2.6-0.6c2.3,0,3,1.5,3,3.1V126.1
		z M116.6,124.3c-1.3,0-2.5,0.3-2.5,1.4c0,0.7,0.5,1.1,1,1.1c0.8,0,1.3-0.5,1.5-1c0-0.1,0-0.3,0-0.4V124.3z"/>
	<path style="fill:#FFFFFF;" d="M127.1,117.2v8.6c0,0.7,0,1.6,0.1,2.1h-1.6l-0.1-1.2h0c-0.4,0.8-1.3,1.3-2.4,1.3
		c-1.8,0-3.1-1.5-3.1-3.7c0-2.4,1.5-3.9,3.3-3.9c1,0,1.7,0.4,2.1,0.9h0v-4.1H127.1z M125.2,123.6c0-0.1,0-0.3,0-0.5
		c-0.2-0.7-0.8-1.3-1.6-1.3c-1.2,0-1.8,1.1-1.8,2.4c0,1.4,0.7,2.3,1.8,2.3c0.8,0,1.4-0.5,1.6-1.3c0-0.2,0.1-0.3,0.1-0.5V123.6z"/>
</g>
<g>
	<path d="M74.5,38.5c-5.3-3.1-9.7-10.6-9.6-16.7c0-2.1,0.5-3.7,1.4-4.9c-2.4,0.7-3.8,3.4-3.8,7.2c0,6.1,4.3,13.6,9.6,16.7
		c3.9,2.2,7.2,1.5,8.8-1.4C79.2,40.1,76.9,39.9,74.5,38.5z"/>
	<path d="M72.2,5.7c-5.8-3.3-10.8-3.6-14.6-1.5c1.6-0.9,3.1-1.9,4.8-2.9c3.8-2.2,9-1.9,14.8,1.4c11.5,6.6,20.7,22.7,20.7,35.8
		c0,3.6-0.5,8.3-3.3,12.8L78.7,75.6l-5.9,3.5l18.2-28.7c1.2-2.3,1.9-5.3,1.9-8.9C92.9,28.4,83.6,12.3,72.2,5.7z"/>
</g>
<path style="fill:#BE0000;" d="M92.9,41.6c0,3.6-0.7,6.5-1.9,8.9L72.8,79.1l-18-46.5c-2-7-2.6-10.4-2.5-15.2
	c0-13.2,8.6-18.2,20-11.6C83.6,12.3,92.9,28.4,92.9,41.6z M72.1,40.7c5.3,3.1,9.7,0.6,9.7-5.5c0-6.1-4.3-13.6-9.6-16.7
	c-5.3-3.1-9.7-0.6-9.7,5.5C62.4,30.1,66.8,37.6,72.1,40.7L72.1,40.7"/>
</svg>
