<svg xmlns="http://www.w3.org/2000/svg" width="120" height="114.51" viewBox="0 0 120 114.51">
  <g id="Layer_2" data-name="Layer 2">
    <g id="Pointer">
      <g>
        <rect y="82.31" width="120" height="32.2" rx="16.1" style="fill: #be0000"/>
        <g>
          <path d="M14.5,96.32l-1-1.38a12.94,12.94,0,0,0,4.45-6.42l1.74.19a15.4,15.4,0,0,1-1.19,2.85H23.2V88.13H25v3.43h7.9v1.67H25v3.91H34.7v1.72H12.86V97.14H23.2V93.23H17.43A17.74,17.74,0,0,1,14.5,96.32Zm17.22,14H30V109H17.74v1.28H16v-8.89H31.72ZM30,107.36v-4.3H17.74v4.3Z" style="fill: #fff"/>
          <path d="M47.06,96V88.15h1.79V96h9.83v1.66H48.85v9.74h8.91v1.69H38.15v-1.69h8.91V97.62H37.18V96Z" style="fill: #fff"/>
          <path d="M70.29,99.46c-1.14.51-2.29,1-3.45,1.4V108a1.87,1.87,0,0,1-2.13,2.06H62.17l-.38-1.69c.82,0,1.59.09,2.32.09a.82.82,0,0,0,.94-.91v-6.09c-1.26.38-2.49.77-3.75,1.11L60.87,101c1.4-.32,2.8-.68,4.18-1.11V94.27H61.26V92.6h3.79V88.23h1.79V92.6H70v1.67H66.84v5c1.16-.46,2.31-1,3.45-1.5ZM82.85,90v1.69H78.94v16.06A2,2,0,0,1,76.76,110h-4l-.36-1.67c1.3,0,2.54.1,3.72.1.65,0,1-.39,1-1.11V91.73H70.73V90Z" style="fill: #fff"/>
          <path d="M91.06,94.19v1.38a36.73,36.73,0,0,1-3,4.16h3.24v1.15A23.36,23.36,0,0,1,90,105.69c.2.15.41.31.63.51A8.58,8.58,0,0,0,93,107.84a10.07,10.07,0,0,0,3.31.51l4.61,0c1.62,0,3.72-.05,6.33-.12l-.39,1.67h-5.72c-1.86,0-3.5,0-4.93-.07a11.35,11.35,0,0,1-3.84-.63,8.5,8.5,0,0,1-2.78-1.93A.92.92,0,0,0,89,107c-.6,0-1.45,1.07-2.56,3.22l-1.28-1.14q1.69-3.25,3.26-3.69a21.57,21.57,0,0,0,1.26-4.23H86.06V99.87a30.44,30.44,0,0,0,3.07-4.08H85.5v-1.6ZM91,91.85,89.83,93a26.9,26.9,0,0,0-3.72-3.51l1.13-1.08A28.67,28.67,0,0,1,91,91.85ZM96.13,91a12.39,12.39,0,0,0-1.52-2.23l1.62-.6A15.41,15.41,0,0,1,97.89,91h3A20.68,20.68,0,0,0,102.7,88l1.64.56A15,15,0,0,1,102.82,91H107v1.57h-6.89a17.57,17.57,0,0,1-.67,1.93h5.74v11.81H94V94.46h3.55a9.33,9.33,0,0,0,.65-1.93H92.12V91Zm7.42,7V96h-7.9v2Zm0,3.35v-2h-7.9v2Zm0,1.38h-7.9v2h7.9Z" style="fill: #fff"/>
        </g>
        <g>
          <path d="M59.51,38.49c-5.34-3.08-9.65-10.56-9.63-16.7a8.06,8.06,0,0,1,1.36-4.86c-2.36.72-3.8,3.36-3.81,7.17,0,6.14,4.3,13.62,9.64,16.7,3.89,2.25,7.25,1.53,8.79-1.38C64.16,40.13,61.94,39.89,59.51,38.49Z"/>
          <path d="M57.19,5.73C51.42,2.4,46.38,2.09,42.61,4.28c1.58-.91,3.13-1.92,4.78-2.88,3.78-2.19,9-1.88,14.77,1.45C73.62,9.46,82.88,25.5,82.84,38.67a23.45,23.45,0,0,1-3.32,12.81L63.7,75.62l-6,3.47L75.94,50.42a19.06,19.06,0,0,0,1.93-8.87C77.91,28.39,68.65,12.35,57.19,5.73Z"/>
        </g>
        <path d="M77.87,41.55a19.06,19.06,0,0,1-1.93,8.87L57.75,79.09l-18-46.54c-2-7-2.56-10.41-2.55-15.21,0-13.17,8.57-18.22,20-11.61S77.91,28.39,77.87,41.55Zm-20.78-.86c5.35,3.09,9.69.61,9.71-5.53s-4.3-13.62-9.65-16.71-9.68-.6-9.7,5.54,4.3,13.62,9.64,16.7h0" style="fill: #be0000"/>
      </g>
    </g>
  </g>
</svg>
