<svg xmlns="http://www.w3.org/2000/svg" width="100" height="114.51" viewBox="0 0 100 114.51">
  <g id="Layer_2" data-name="Layer 2">
    <g id="Pointer">
      <g>
        <rect y="82.31" width="100" height="32.2" rx="16.1" style="fill: #be0000"/>
        <g>
          <path d="M28.12,104.05a21.73,21.73,0,0,1-1.25,4.85l-1.16-.38c-.36,1-.87,1.54-1.5,1.54s-1.06-.41-1.52-1.23a11.7,11.7,0,0,1-.65-1.59c-.49.75-1,1.42-1.45,2l-1.07-.92a22.65,22.65,0,0,0,2.06-3l-.15-.92a67.88,67.88,0,0,1-.53-8H18.63v4.74l1.5-.75V102c-.48.26-1,.53-1.5.77v5.36c0,1.26-.56,1.91-1.64,1.91H15.22l-.36-1.57a12.12,12.12,0,0,0,1.57.12c.46,0,.7-.29.7-.87V103.4c-.63.26-1.28.53-1.95.77l-.41-1.52c.82-.29,1.59-.58,2.36-.87V96.39H14.89V94.82h2.24V91.75a15.09,15.09,0,0,1-1.62.63l-.74-1.3a10.57,10.57,0,0,0,4.42-2.54l.94,1.26A9.42,9.42,0,0,1,18.63,91v3.84h2.25c-.05-1.93-.05-4.08-.05-6.45h1.45c0,2.39,0,4.54,0,6.45H26v1.57H22.35c0,2.88.17,5.12.31,6.76a31.11,31.11,0,0,0,1.82-5.38l1.23.48A37,37,0,0,1,23,105.59c.34,1.79.72,2.73,1.16,2.83.29,0,.51-.75.67-2.2l1.24.85a7.4,7.4,0,0,1-.2.92,18.48,18.48,0,0,0,1.07-4.26ZM26.07,93l-1.33.53A27.89,27.89,0,0,0,23,89.46l1.37-.39A27.6,27.6,0,0,1,26.07,93Zm2.68,8.28h7.8a41.88,41.88,0,0,1-.43,7.3,2.25,2.25,0,0,1-2.51,1.61h-1l-.48-1.47,1.47,0a1.12,1.12,0,0,0,1.14-.84,47.3,47.3,0,0,0,.19-5.1H27.16V90.09H29.5a10.52,10.52,0,0,0,.77-2l1.74.24a7.69,7.69,0,0,1-.82,1.77h4.32v7H28.75v1.38h7.56v1.4H28.75Zm1.6,7.37-1.16.17a29.52,29.52,0,0,0-.46-4.74l1.06-.14A25.91,25.91,0,0,1,30.35,108.64Zm3.57-17.2H28.75v1.5h5.17Zm-5.17,4.25h5.17V94.17H28.75Zm3.65,12.25-1.09.14a16.91,16.91,0,0,0-.7-4.18l1.06-.12A15.89,15.89,0,0,1,32.4,107.94Zm2.1-.9-1,.41c-.24-1.25-.55-2.46-.89-3.67l1-.29C34,104.8,34.28,106,34.5,107Z" style="fill: #fff"/>
          <path d="M42.44,92.19a22.08,22.08,0,0,1-1.91,3.67,22.33,22.33,0,0,1,2.15,3.72l-1.32.75A25.55,25.55,0,0,0,39,95.91a21.83,21.83,0,0,0,2-4.33Zm6.79,15.6a95.07,95.07,0,0,1-10,1.5L39,107.67c1.57-.14,3.06-.31,4.49-.51v-4.51h-4V101h9.73v1.62h-4v4.27c1.45-.21,2.77-.46,4-.72Zm.22-18.62v1.62H39.33V89.17ZM45.8,92.24A20.91,20.91,0,0,1,44,95.86a19.62,19.62,0,0,1,2,3.53l-1.3.75a25.75,25.75,0,0,0-2.25-4.23,21.12,21.12,0,0,0,2-4.28Zm3.45.05a19.39,19.39,0,0,1-2,3.57,21.3,21.3,0,0,1,2.27,3.53l-1.33.75a23.4,23.4,0,0,0-2.46-4.23,21.36,21.36,0,0,0,2.1-4.23Zm5.12,14.58a16,16,0,0,1-3.84,3.51l-1-1.31a14.94,14.94,0,0,0,3.67-3.23Zm6.31-17.75v1.55H56.11c-.07.75-.17,1.47-.26,2.19h4v12.57H50.8V92.86h3.36c.09-.72.19-1.44.24-2.19H50.32V89.12Zm-2.44,7.42v-2.2h-5.8v2.2Zm0,3.62V98h-5.8v2.17Zm0,1.45h-5.8v2.27h5.8Zm2.8,7.53-1.13,1.16a24.54,24.54,0,0,0-3.43-3.43l1.08-1A25.32,25.32,0,0,1,61,109.14Z" style="fill: #fff"/>
          <path d="M68.33,110.23H66.66v-12a27.74,27.74,0,0,1-3,6.33l-.75-1.91a22.58,22.58,0,0,0,3.74-8.11H63.43V92.89h3.23V88.15h1.67v4.74h2.56v1.67H68.33v1.52q1.56,1.82,3.17,4.1l-1,1.45c-.85-1.52-1.57-2.75-2.2-3.69Zm7.61-18.07a11.82,11.82,0,0,0,.8-1.64c-1.28.07-2.64.12-4.06.12l-.46-1.42a44.6,44.6,0,0,0,10.43-1l.78,1.33a30.33,30.33,0,0,1-5.1.89,11.53,11.53,0,0,1-.7,1.76h6.86v1.45H81a9.88,9.88,0,0,0,4.4,2.88L84.61,98a12.74,12.74,0,0,1-2.85-1.67v3.12h-7.7v-3a15.29,15.29,0,0,1-2.78,1.64l-.8-1.42a12.63,12.63,0,0,0,4.4-3.1H71.52V92.16Zm4.28,18.12-.39-1.4,1.81.07c.48,0,.75-.29.75-.84v-5.9H73.6v8.07H72v-9.52H83.94v7.71a1.62,1.62,0,0,1-1.84,1.81Zm.5-6.79v4.28h-5.5v-4.28ZM79.3,93.61H76.81a11.87,11.87,0,0,1-1.43,1.72h5.25A9.26,9.26,0,0,1,79.3,93.61Zm1,3H75.48v1.65h4.83Zm-1,8.14H76.59v1.82h2.73Z" style="fill: #fff"/>
        </g>
        <g>
          <path d="M49.51,38.49c-5.34-3.08-9.65-10.56-9.63-16.7a8.06,8.06,0,0,1,1.36-4.86c-2.36.72-3.8,3.36-3.81,7.17,0,6.14,4.3,13.62,9.64,16.7,3.89,2.25,7.25,1.53,8.79-1.38C54.16,40.13,51.94,39.89,49.51,38.49Z"/>
          <path d="M47.19,5.73C41.42,2.4,36.38,2.09,32.61,4.28c1.58-.91,3.13-1.92,4.78-2.88,3.78-2.19,9-1.88,14.77,1.45C63.62,9.46,72.88,25.5,72.84,38.67a23.45,23.45,0,0,1-3.32,12.81L53.7,75.62l-6,3.47L65.94,50.42a19.06,19.06,0,0,0,1.93-8.87C67.91,28.39,58.65,12.35,47.19,5.73Z"/>
        </g>
        <path d="M67.87,41.55a19.06,19.06,0,0,1-1.93,8.87L47.75,79.09l-18-46.54c-2-7-2.56-10.41-2.55-15.21,0-13.17,8.57-18.22,20-11.61S67.91,28.39,67.87,41.55Zm-20.78-.86c5.35,3.09,9.69.61,9.71-5.53s-4.3-13.62-9.65-16.71-9.68-.6-9.7,5.54,4.3,13.62,9.64,16.7h0" style="fill: #be0000"/>
      </g>
    </g>
  </g>
</svg>
