<?xml version="1.0" encoding="utf-8"?>
<!-- Generator: Adobe Illustrator 26.0.1, SVG Export Plug-In . SVG Version: 6.00 Build 0)  -->
<svg version="1.1" id="Layer_1" xmlns="http://www.w3.org/2000/svg" xmlns:xlink="http://www.w3.org/1999/xlink" x="0px" y="0px"
	 width="161.3px" height="133.3px" viewBox="0 0 161.3 133.3" style="enable-background:new 0 0 161.3 133.3;" xml:space="preserve"
	>
<path style="fill:#BE0000;" d="M133.9,135.3h-107c-14.6,0-26.5-11.9-26.5-26.5v0c0-14.6,11.9-26.5,26.5-26.5h107
	c14.6,0,26.5,11.9,26.5,26.5v0C160.4,123.4,148.5,135.3,133.9,135.3z"/>
<g>
	<path style="fill:#FFFFFF;" d="M58.6,106.1c-0.2,1.7-0.6,3.3-1.2,4.8l-1.2-0.4c-0.4,1.1-0.9,1.7-1.6,1.7c-0.6,0-1.1-0.4-1.6-1.2
		c-0.2-0.4-0.5-0.8-0.6-1.3c-0.4,0.6-0.8,1.2-1.2,1.6l-1.4-1.2c0.7-0.9,1.4-1.8,2-2.8c0-0.2-0.1-0.5-0.1-0.7
		c-0.3-1.5-0.4-4.2-0.5-7.9h-1.9v4.1c0.4-0.2,0.9-0.4,1.3-0.6v2.1c-0.4,0.2-0.8,0.4-1.3,0.7v4.9c0,1.5-0.6,2.3-1.8,2.3h-1.8
		l-0.5-2.1c0.5,0.1,1,0.1,1.5,0.1c0.4,0,0.6-0.3,0.6-0.9v-3.5c-0.6,0.2-1.1,0.4-1.7,0.6l-0.6-2c0.8-0.2,1.5-0.5,2.2-0.8v-4.9h-2.1
		v-2.1h2.1v-2.5c-0.4,0.1-0.8,0.3-1.3,0.5l-1-1.7c1.9-0.6,3.4-1.4,4.3-2.5l1.2,1.6c-0.4,0.4-0.9,0.7-1.4,1.1v3.5h1.8
		c0-1.9,0-4,0-6.3h1.9c0,2.3,0,4.4,0,6.3h3.5v2.1H53c0,2.3,0.1,4.2,0.2,5.6c0.6-1.4,1-2.9,1.4-4.6l1.6,0.6c-0.7,2.8-1.6,5.2-2.7,7.2
		c0.3,1.5,0.6,2.3,1,2.5c0.2,0,0.3-0.7,0.5-2l1.4,0.9c0.3-1.1,0.6-2.1,0.7-3.2L58.6,106.1z M56.7,94.9L55,95.6
		c-0.4-1.4-1-2.8-1.6-4.1l1.8-0.5C55.8,92.4,56.3,93.7,56.7,94.9z M59.5,103h7.7c0,3.9-0.2,6.4-0.5,7.6c-0.3,1.1-1.2,1.7-2.7,1.7
		h-0.8l-0.7-1.9c0.6,0,1.1,0,1.6,0c0.4,0,0.7-0.3,0.8-0.8c0.1-0.5,0.1-2.1,0.1-4.6h-7.7V91.9h2.3c0.3-0.6,0.5-1.2,0.7-1.8l2.3,0.3
		c-0.2,0.5-0.4,1.1-0.7,1.5h4.1v7.4h-6.6v1h7.3v1.8h-7.3V103z M60.8,110.5l-1.5,0.2c0-2-0.2-3.5-0.3-4.6l1.3-0.2
		C60.6,107,60.8,108.6,60.8,110.5z M64,93.6h-4.5v1.1H64V93.6z M59.5,97.5H64v-1.2h-4.5V97.5z M62.9,109.8l-1.4,0.2
		c-0.1-1.7-0.3-3.1-0.6-4.1l1.3-0.1C62.6,106.8,62.8,108.1,62.9,109.8z M65,109l-1.3,0.5c-0.2-1.3-0.5-2.5-0.8-3.6l1.3-0.3
		C64.5,106.7,64.8,107.9,65,109z"/>
	<path style="fill:#FFFFFF;" d="M73,94.3c-0.6,1.4-1.2,2.6-1.8,3.6c0.6,0.9,1.3,2.1,2,3.6l-1.7,1c-0.7-1.7-1.4-3.2-2.3-4.5
		c0.8-1.4,1.4-2.9,1.9-4.3L73,94.3z M79.7,110c-3,0.6-6.4,1.1-10.1,1.5l-0.3-2.1c1.5-0.1,3-0.3,4.3-0.5v-4h-3.8v-2.1h9.8v2.1h-3.8
		v3.6c1.4-0.2,2.6-0.4,3.8-0.7V110z M79.9,90.9v2.1H69.6v-2.1H79.9z M76.4,94.4c-0.6,1.4-1.1,2.6-1.7,3.5c0.6,0.8,1.2,1.9,1.9,3.4
		l-1.7,1c-0.7-1.6-1.4-3-2.2-4.3c0.8-1.4,1.4-2.8,1.9-4.3L76.4,94.4z M79.8,94.4c-0.6,1.4-1.2,2.5-1.8,3.5c0.7,0.8,1.4,1.9,2.1,3.4
		l-1.7,1c-0.7-1.6-1.5-3-2.4-4.3c0.8-1.4,1.5-2.8,2-4.3L79.8,94.4z M84.9,109c-1,1.3-2.3,2.5-3.8,3.5l-1.3-1.7
		c1.4-0.9,2.6-2,3.6-3.2L84.9,109z M91.1,90.9v2h-4.4l-0.1,1.8h3.8v12.9H81V94.7h3.3c0.1-0.6,0.1-1.2,0.2-1.8h-3.9v-2H91.1z
		 M88.3,98.4v-1.7h-5.1v1.7H88.3z M88.3,101.9v-1.7h-5.1v1.7H88.3z M88.3,103.8h-5.1v1.8h5.1V103.8z M91.6,110.9l-1.5,1.5
		c-0.8-1.1-1.9-2.2-3.4-3.4l1.4-1.4C89.5,108.7,90.6,109.8,91.6,110.9z"/>
	<path style="fill:#FFFFFF;" d="M99,112.3h-2.2v-11c-0.7,2-1.6,3.8-2.6,5.4l-1-2.5c1.6-2.1,2.9-4.6,3.6-7.3h-3v-2.2h3v-4.5H99v4.5
		h2.4v2.2H99v1.3c1,1.1,2,2.3,3,3.7l-1.3,1.9c-0.7-1.2-1.2-2.2-1.7-3.1V112.3z M106.2,93.9c0.2-0.4,0.4-0.8,0.6-1.2
		c-1.2,0-2.4,0.1-3.6,0.1l-0.6-1.8c4.1,0,7.6-0.3,10.4-1l1,1.7c-1.4,0.4-3.1,0.7-5,0.8c-0.2,0.5-0.3,0.9-0.5,1.3h6.5v1.9h-3.1
		c1,0.9,2.3,1.7,4,2.2l-1,2c-1-0.4-1.8-0.9-2.6-1.4v2.9h-8.1v-2.7c-0.7,0.5-1.5,0.9-2.3,1.3l-1.1-1.9c1.6-0.7,2.9-1.5,3.9-2.5h-2.9
		v-1.9H106.2z M110.6,112.4l-0.5-1.8l1.8,0.1c0.4,0,0.6-0.2,0.6-0.7v-5.5h-8.3v7.9h-2.1v-9.8h12.3v7.8c0,1.3-0.7,2-2,2H110.6z
		 M111.3,105.4v4.5h-5.8v-4.5H111.3z M110.5,98.8h-4.4v1.3h4.4V98.8z M109.6,95.8h-2.2c-0.3,0.5-0.7,0.9-1.1,1.3h4.3
		C110.2,96.7,109.9,96.3,109.6,95.8z M109.5,106.9h-2.3v1.4h2.3V106.9z"/>
	<path style="fill:#FFFFFF;" d="M27.1,127.6c-0.4,0.2-1.4,0.4-2.6,0.4c-3.2,0-5.2-2-5.2-5.1c0-3.3,2.3-5.3,5.4-5.3
		c1.2,0,2.1,0.2,2.4,0.4l-0.4,1.5c-0.5-0.2-1.2-0.4-2-0.4c-2.1,0-3.5,1.3-3.5,3.7c0,2.2,1.3,3.6,3.5,3.6c0.7,0,1.5-0.1,2-0.4
		L27.1,127.6z"/>
	<path style="fill:#FFFFFF;" d="M34.1,126.1c0,0.7,0,1.3,0.1,1.8h-1.7l-0.1-0.8h0c-0.4,0.6-1.2,1-2.2,1c-1.5,0-2.3-1.1-2.3-2.2
		c0-1.8,1.6-2.8,4.3-2.8V123c0-0.5-0.2-1.3-1.5-1.3c-0.7,0-1.5,0.2-2,0.5l-0.4-1.2c0.5-0.3,1.5-0.6,2.6-0.6c2.3,0,3,1.5,3,3.1V126.1
		z M32.3,124.3c-1.3,0-2.5,0.3-2.5,1.4c0,0.7,0.5,1.1,1,1.1c0.8,0,1.3-0.5,1.5-1c0-0.1,0-0.3,0-0.4V124.3z"/>
	<path style="fill:#FFFFFF;" d="M36,122.8c0-0.8,0-1.5-0.1-2.2h1.6l0.1,1.1h0c0.3-0.6,1.1-1.3,2.3-1.3c1.3,0,2.6,0.8,2.6,3.1v4.3
		h-1.8v-4.1c0-1-0.4-1.8-1.4-1.8c-0.7,0-1.2,0.5-1.4,1.1c-0.1,0.1-0.1,0.4-0.1,0.6v4.3H36V122.8z"/>
	<path style="fill:#FFFFFF;" d="M50.3,126.1c0,0.7,0,1.3,0.1,1.8h-1.7l-0.1-0.8h0c-0.4,0.6-1.2,1-2.2,1c-1.5,0-2.3-1.1-2.3-2.2
		c0-1.8,1.6-2.8,4.3-2.8V123c0-0.5-0.2-1.3-1.5-1.3c-0.7,0-1.5,0.2-2,0.5l-0.4-1.2c0.5-0.3,1.5-0.6,2.6-0.6c2.3,0,3,1.5,3,3.1V126.1
		z M48.5,124.3c-1.3,0-2.6,0.3-2.6,1.4c0,0.7,0.5,1.1,1.1,1.1c0.8,0,1.3-0.5,1.5-1c0-0.1,0-0.3,0-0.4V124.3z"/>
	<path style="fill:#FFFFFF;" d="M52.2,117.2h1.8v10.7h-1.8V117.2z"/>
	<path style="fill:#FFFFFF;" d="M59.3,117.9c0.7-0.1,1.7-0.2,2.8-0.2c1.5,0,2.4,0.2,3.1,0.8c0.6,0.5,0.9,1.2,0.9,2
		c0,1.3-0.9,2.2-1.8,2.5v0c0.7,0.3,1.2,1,1.4,2c0.3,1.3,0.6,2.4,0.8,2.8h-1.9c-0.1-0.3-0.4-1.1-0.7-2.4c-0.3-1.3-0.8-1.7-1.8-1.8
		h-0.9v4.2h-1.8V117.9z M61.1,122.4h1.1c1.2,0,2-0.7,2-1.7c0-1.1-0.8-1.6-2-1.6c-0.6,0-1,0-1.1,0.1V122.4z"/>
	<path style="fill:#FFFFFF;" d="M70.9,128.1c-2.1,0-3.7-1.4-3.7-3.8c0-2.4,1.6-3.9,3.8-3.9c2.2,0,3.6,1.5,3.6,3.8
		C74.7,126.9,72.8,128.1,70.9,128.1L70.9,128.1z M71,126.7c1,0,1.8-1,1.8-2.5c0-1.1-0.5-2.5-1.8-2.5c-1.3,0-1.8,1.3-1.8,2.5
		C69.2,125.7,69.9,126.7,71,126.7L71,126.7z"/>
	<path style="fill:#FFFFFF;" d="M81.9,126.1c0,0.7,0,1.3,0.1,1.8h-1.7l-0.1-0.8h0c-0.4,0.6-1.2,1-2.2,1c-1.5,0-2.3-1.1-2.3-2.2
		c0-1.8,1.6-2.8,4.3-2.8V123c0-0.5-0.2-1.3-1.5-1.3c-0.7,0-1.5,0.2-2,0.5l-0.4-1.2c0.5-0.3,1.5-0.6,2.6-0.6c2.3,0,3,1.5,3,3.1V126.1
		z M80.1,124.3c-1.3,0-2.5,0.3-2.5,1.4c0,0.7,0.5,1.1,1,1.1c0.8,0,1.3-0.5,1.5-1c0-0.1,0-0.3,0-0.4V124.3z"/>
	<path style="fill:#FFFFFF;" d="M90.6,117.2v8.6c0,0.7,0,1.6,0.1,2.1H89l-0.1-1.2h0c-0.4,0.8-1.3,1.3-2.4,1.3
		c-1.8,0-3.1-1.5-3.1-3.7c0-2.4,1.5-3.9,3.3-3.9c1,0,1.7,0.4,2.1,0.9h0v-4.1H90.6z M88.7,123.6c0-0.1,0-0.3,0-0.5
		c-0.2-0.7-0.8-1.3-1.6-1.3c-1.2,0-1.8,1.1-1.8,2.4c0,1.4,0.7,2.3,1.8,2.3c0.8,0,1.4-0.5,1.6-1.3c0-0.2,0.1-0.3,0.1-0.5V123.6z"/>
	<path style="fill:#FFFFFF;" d="M95.7,117.8h5.9v1.5h-4v2.8h3.7v1.5h-3.7v4.3h-1.8V117.8z"/>
	<path style="fill:#FFFFFF;" d="M103,117.2h1.8v10.7H103V117.2z"/>
	<path style="fill:#FFFFFF;" d="M108.1,120.6l1.3,3.9c0.2,0.4,0.3,1,0.4,1.4h0c0.1-0.4,0.2-1,0.4-1.4l1.1-3.9h2l-1.8,5
		c-1,2.7-1.7,3.9-2.5,4.7c-0.7,0.6-1.5,0.9-1.9,0.9l-0.4-1.5c0.3-0.1,0.7-0.2,1.1-0.5c0.3-0.2,0.8-0.7,1-1.2
		c0.1-0.1,0.1-0.2,0.1-0.3c0-0.1,0-0.2-0.1-0.4l-2.7-6.7H108.1z"/>
	<path style="fill:#FFFFFF;" d="M117.4,128.1c-2.1,0-3.7-1.4-3.7-3.8c0-2.4,1.6-3.9,3.8-3.9c2.2,0,3.6,1.5,3.6,3.8
		C121.1,126.9,119.2,128.1,117.4,128.1L117.4,128.1z M117.4,126.7c1,0,1.8-1,1.8-2.5c0-1.1-0.5-2.5-1.8-2.5c-1.3,0-1.8,1.3-1.8,2.5
		C115.6,125.7,116.3,126.7,117.4,126.7L117.4,126.7z"/>
	<path style="fill:#FFFFFF;" d="M123.7,120.6l1.2,3.7c0.2,0.6,0.4,1.2,0.5,1.8h0c0.1-0.6,0.3-1.2,0.5-1.8l1.2-3.7h1.9l-2.8,7.3h-1.8
		l-2.7-7.3H123.7z"/>
	<path style="fill:#FFFFFF;" d="M131.3,124.8c0,1.3,1.1,1.9,2.2,1.9c0.9,0,1.5-0.1,2-0.3l0.3,1.3c-0.6,0.3-1.5,0.5-2.5,0.5
		c-2.4,0-3.8-1.5-3.8-3.7c0-2,1.2-3.9,3.6-3.9c2.4,0,3.2,2,3.2,3.6c0,0.3,0,0.6-0.1,0.8H131.3z M134.5,123.5c0-0.7-0.3-1.8-1.5-1.8
		c-1.1,0-1.6,1-1.7,1.8H134.5z"/>
	<path style="fill:#FFFFFF;" d="M137.7,122.9c0-1,0-1.7-0.1-2.4h1.6l0.1,1.4h0c0.4-1,1.2-1.5,2-1.5c0.2,0,0.3,0,0.4,0v1.7
		c-0.2,0-0.3,0-0.6,0c-0.9,0-1.5,0.6-1.6,1.4c0,0.2,0,0.4,0,0.6v3.8h-1.8V122.9z"/>
</g>
<g>
	<path d="M79.9,38.5c-5.3-3.1-9.7-10.6-9.6-16.7c0-2.1,0.5-3.7,1.4-4.9c-2.4,0.7-3.8,3.4-3.8,7.2c0,6.1,4.3,13.6,9.6,16.7
		c3.9,2.2,7.2,1.5,8.8-1.4C84.6,40.1,82.3,39.9,79.9,38.5z"/>
	<path d="M77.6,5.7C71.8,2.4,66.8,2.1,63,4.3c1.6-0.9,3.1-1.9,4.8-2.9c3.8-2.2,9-1.9,14.8,1.4c11.5,6.6,20.7,22.7,20.7,35.8
		c0,3.6-0.5,8.3-3.3,12.8L84.1,75.6l-5.9,3.5l18.2-28.7c1.2-2.3,1.9-5.3,1.9-8.9C98.3,28.4,89,12.3,77.6,5.7z"/>
</g>
<path style="fill:#BE0000;" d="M98.3,41.6c0,3.6-0.7,6.5-1.9,8.9L78.1,79.1l-18-46.5c-2-7-2.6-10.4-2.5-15.2
	c0-13.2,8.6-18.2,20-11.6C89,12.3,98.3,28.4,98.3,41.6z M77.5,40.7c5.3,3.1,9.7,0.6,9.7-5.5c0-6.1-4.3-13.6-9.6-16.7
	c-5.3-3.1-9.7-0.6-9.7,5.5C67.8,30.1,72.1,37.6,77.5,40.7L77.5,40.7"/>
</svg>
