<svg xmlns="http://www.w3.org/2000/svg" width="100" height="114.51" viewBox="0 0 100 114.51">
  <g id="Layer_2" data-name="Layer 2">
    <g id="Pointer">
      <g>
        <rect y="82.31" width="100" height="32.2" rx="16.1" style="fill: #be0000"/>
        <g>
          <path d="M22.23,107.82H20.56v-1.43h-3v2H15.8V90.14h6.43Zm-1.67-3.07v-13h-3v13ZM30.93,88.28v7.19h5.24v1.72H30.93v10.58h5.94v1.71H23.1v-1.71h6V97.19H24V95.47h5.19V88.28Z" style="fill: #fff"/>
          <path d="M48,98v4.83H45.63v1.74h2.61v1.28H45.63v2c1.11-.2,2.15-.41,3.17-.63v1.4c-2.56.58-5.56,1.11-9,1.62l-.41-1.45c.46-.07.92-.12,1.35-.17v-4.73h1.4v4.54l2-.32v-5.31H40.66V98Zm11.19-9.33V90H50.82v1.25h9.26v4h-1.6V92.55H50.82v4.5H49.18v-4.5H41.52v2.76H39.93v-4h9.25V90h-8.4V88.66ZM46.55,99.24H42.1v2.32h4.45Zm1.23-2.92a27.45,27.45,0,0,1-4.93.68l-.31-1a27.85,27.85,0,0,0,4.9-.65Zm0-2.49-.37.94c-1.49-.24-3-.43-4.63-.55l.5-.94C44.81,93.4,46.31,93.59,47.76,93.83Zm6.47,3.6c-.19.36-.39.7-.58,1h5.7v1a10.62,10.62,0,0,1-3.09,2.92,25.45,25.45,0,0,0,5.05,1.4L60.44,105a21.72,21.72,0,0,1-5.65-1.79,29.83,29.83,0,0,1-5.66,2.06L48.19,104a30.45,30.45,0,0,0,5.17-1.62,9.67,9.67,0,0,1-2-1.65,19.5,19.5,0,0,1-1.94,1.16l-.91-1.2a9.06,9.06,0,0,0,4.42-3.63Zm5,12.95H57.66v-.82h-5.6v.82H50.51v-5.46h8.67Zm-1.52-2.1v-2.1h-5.6v2.1Zm-.24-12.2-.41,1c-1.57-.34-3.19-.58-4.86-.77l.46-.9A42.52,42.52,0,0,1,57.42,96.08Zm-5.19-2.27a28,28,0,0,0,4.51-.7l.36,1a36,36,0,0,1-4.68.68Zm2.6,7.9a10.84,10.84,0,0,0,2.78-2.08H52.68c-.12.1-.21.19-.31.29A11.14,11.14,0,0,0,54.83,101.71Z" style="fill: #fff"/>
          <path d="M68.52,98.06l-1.2,1.23a24.54,24.54,0,0,0-4-3.5l1.21-1.19A26.87,26.87,0,0,1,68.52,98.06Zm0,4.25a70.38,70.38,0,0,1-3.22,8l-1.74-.75a67.82,67.82,0,0,0,3.39-7.85Zm.79-10L68,93.49a27.61,27.61,0,0,0-4.27-3.67L65,88.64A30.52,30.52,0,0,1,69.27,92.29Zm4.06-1.5V88.23H75v2.56h4.06V88.23h1.69v2.56h3.07v1.57H80.77v2.87h3.84v1.6h-4a10.11,10.11,0,0,0,4.71,4l-.72,1.5a14.47,14.47,0,0,1-3.34-2.37v5H73.94v2.32c0,.62.33.94,1.06,1h6.5a1.07,1.07,0,0,0,1-.58,7.94,7.94,0,0,0,.38-2.2l1.65.54a11.73,11.73,0,0,1-.49,2.6,2,2,0,0,1-2,1.24H74.37c-1.45,0-2.15-.66-2.15-2v-7.17a19.33,19.33,0,0,1-2.83,2.12l-.89-1.47a11.6,11.6,0,0,0,4.86-4.54H69.54v-1.6h3.79V92.36H70.48V90.79Zm7.54,8.69A11.6,11.6,0,0,1,79,96.83H75a10,10,0,0,1-1.59,2.65Zm-1.19,4V101H73.94v2.51Zm-.6-8.24V92.36H75v2.87Z" style="fill: #fff"/>
        </g>
        <g>
          <path d="M49.51,38.49c-5.34-3.08-9.65-10.56-9.63-16.7a8.06,8.06,0,0,1,1.36-4.86c-2.36.72-3.8,3.36-3.81,7.17,0,6.14,4.3,13.62,9.64,16.7,3.89,2.25,7.25,1.53,8.79-1.38C54.16,40.13,51.94,39.89,49.51,38.49Z"/>
          <path d="M47.19,5.73C41.42,2.4,36.38,2.09,32.61,4.28c1.58-.91,3.13-1.92,4.78-2.88,3.78-2.19,9-1.88,14.77,1.45C63.62,9.46,72.88,25.5,72.84,38.67a23.45,23.45,0,0,1-3.32,12.81L53.7,75.62l-6,3.47L65.94,50.42a19.06,19.06,0,0,0,1.93-8.87C67.91,28.39,58.65,12.35,47.19,5.73Z"/>
        </g>
        <path d="M67.87,41.55a19.06,19.06,0,0,1-1.93,8.87L47.75,79.09l-18-46.54c-2-7-2.56-10.41-2.55-15.21,0-13.17,8.57-18.22,20-11.61S67.91,28.39,67.87,41.55Zm-20.78-.86c5.35,3.09,9.69.61,9.71-5.53s-4.3-13.62-9.65-16.71-9.68-.6-9.7,5.54,4.3,13.62,9.64,16.7h0" style="fill: #be0000"/>
      </g>
    </g>
  </g>
</svg>
