<?xml version="1.0" encoding="utf-8"?>
<!-- Generator: Adobe Illustrator 26.0.1, SVG Export Plug-In . SVG Version: 6.00 Build 0)  -->
<svg version="1.1" id="Layer_1" xmlns="http://www.w3.org/2000/svg" xmlns:xlink="http://www.w3.org/1999/xlink" x="0px" y="0px"
	 width="130px" height="134.9px" viewBox="0 0 130 134.9" style="enable-background:new 0 0 130 134.9;" xml:space="preserve">
<path style="fill:#BE0000;" d="M103.5,135.3h-77C11.9,135.3,0,123.4,0,108.8v0c0-14.6,11.9-26.5,26.5-26.5h77
	c14.6,0,26.5,11.9,26.5,26.5v0C130,123.4,118.1,135.3,103.5,135.3z"/>
<g>
	<path style="fill:#FFFFFF;" d="M37.4,109.9h-2.2v-1.3h-2.4v1.9h-2.2V91.9h6.9V109.9z M35.2,106.4V94h-2.4v12.4H35.2z M46.2,90.3
		v6.9h5v2.2h-5v9.9h5.7v2.2H38v-2.2h5.8v-9.9h-5v-2.2h5v-6.9H46.2z"/>
	<path style="fill:#FFFFFF;" d="M63.2,99.8v5.1h-2.3v1.4h2.4v1.6h-2.4v1.5c1-0.2,2-0.4,2.9-0.6v1.8c-2.6,0.6-5.6,1.1-9,1.6l-0.6-1.9
		l1.3-0.1v-4.4h1.8v4.2c0.5-0.1,1.1-0.1,1.5-0.2v-5h-3.4v-5.1H63.2z M74.4,90.5v1.7h-8.3v0.9h9.3v4.2h-2.1v-2.6h-7.1V99h-2.2v-4.3
		h-7.1v2.6h-2.1v-4.2h9.3v-0.9h-8.3v-1.7H74.4z M61.3,101.4h-3.9v1.9h3.9V101.4z M62.8,98.5c-1,0.2-2.6,0.4-4.9,0.6l-0.4-1.3
		c2.3-0.1,3.9-0.3,4.9-0.5L62.8,98.5z M62.8,95.7l-0.5,1.2c-1.5-0.2-3-0.3-4.6-0.4l0.6-1.2C59.9,95.3,61.4,95.5,62.8,95.7z
		 M69.4,99.5c-0.1,0.2-0.3,0.5-0.4,0.7h5.5v1.3c-0.7,1-1.5,1.9-2.7,2.7c1.3,0.5,2.9,0.9,4.6,1.2l-1.1,1.6c-0.3-0.1-0.6-0.1-0.9-0.2
		v5.5h-2v-0.7h-5v0.7h-2v-5.3c-0.4,0.1-0.7,0.2-1.1,0.3l-1.2-1.6c1.9-0.4,3.6-0.9,5-1.4c-0.6-0.4-1.2-0.9-1.6-1.4
		c-0.6,0.4-1.1,0.7-1.7,1l-1.2-1.6c2.1-0.9,3.6-2.1,4.3-3.4L69.4,99.5z M73.6,106.7c-1.4-0.4-2.7-0.8-3.8-1.3
		c-1,0.5-2.1,0.9-3.3,1.3H73.6z M72.4,97.9l-0.5,1.3c-1.5-0.3-3.2-0.5-4.8-0.7l0.6-1.1C69.4,97.5,70.9,97.7,72.4,97.9z M67.2,95.7
		c1.6-0.1,3.1-0.3,4.4-0.5l0.5,1.3c-1.3,0.2-2.9,0.4-4.6,0.5L67.2,95.7z M72.4,110v-1.7h-5v1.7H72.4z M70,103.4
		c0.9-0.5,1.7-1.1,2.3-1.6h-4.4c0,0-0.1,0.1-0.1,0.1C68.3,102.5,69.1,103,70,103.4z"/>
	<path style="fill:#FFFFFF;" d="M83.7,99.9l-1.6,1.6c-1-1.1-2.3-2.3-4-3.5l1.6-1.6C81.3,97.5,82.7,98.7,83.7,99.9z M83.7,104.4
		c-0.9,2.9-1.9,5.5-3,8l-2.3-1c1.2-2.5,2.3-5.1,3.2-7.8L83.7,104.4z M84.5,94.1l-1.6,1.6c-1-1.1-2.4-2.4-4.3-3.7l1.6-1.6
		C81.9,91.7,83.3,92.9,84.5,94.1z M88.1,92.5v-2.4h2.2v2.4h3.5v-2.4H96v2.4h2.9v2.1H96V97h3.6v2.1h-3.6c1,1.4,2.4,2.5,4.4,3.4l-1,2
		c-1.2-0.6-2.2-1.3-3-2v4.7h-7.3v1.8c0,0.6,0.3,0.8,1,0.8h6.2c0.4,0,0.7-0.2,0.8-0.5c0.1-0.2,0.2-0.9,0.3-2l2.2,0.7
		c-0.1,1.2-0.3,2.1-0.5,2.6c-0.3,0.8-1,1.3-2.1,1.3h-7.8c-1.6,0-2.3-0.7-2.3-2.1v-6.6c-0.7,0.6-1.5,1.2-2.4,1.7l-1.2-1.9
		c2.2-1.2,3.7-2.5,4.6-4h-3.5V97h3.6v-2.3h-2.7v-2.1H88.1z M95.4,101.3c-0.6-0.7-1.1-1.4-1.5-2.2h-3.7c-0.3,0.8-0.8,1.5-1.3,2.2
		H95.4z M94.4,105.2v-2h-5.2v2H94.4z M93.8,97v-2.3h-3.5V97H93.8z"/>
	<path style="fill:#FFFFFF;" d="M25.6,119.3h-2.9v-1.5h7.6v1.5h-2.9v8.6h-1.8V119.3z"/>
	<path style="fill:#FFFFFF;" d="M33.5,128.1c-2.1,0-3.7-1.4-3.7-3.8c0-2.4,1.6-3.9,3.8-3.9c2.2,0,3.6,1.5,3.6,3.8
		C37.3,126.9,35.4,128.1,33.5,128.1L33.5,128.1z M33.6,126.7c1,0,1.8-1,1.8-2.5c0-1.1-0.5-2.5-1.8-2.5c-1.3,0-1.8,1.3-1.8,2.5
		C31.8,125.7,32.5,126.7,33.6,126.7L33.6,126.7z"/>
	<path style="fill:#FFFFFF;" d="M38.8,117.2h1.8v10.7h-1.8V117.2z"/>
	<path style="fill:#FFFFFF;" d="M45.8,128.1c-2.1,0-3.7-1.4-3.7-3.8c0-2.4,1.6-3.9,3.8-3.9c2.2,0,3.6,1.5,3.6,3.8
		C49.6,126.9,47.7,128.1,45.8,128.1L45.8,128.1z M45.9,126.7c1,0,1.8-1,1.8-2.5c0-1.1-0.5-2.5-1.8-2.5c-1.3,0-1.8,1.3-1.8,2.5
		C44.1,125.7,44.8,126.7,45.9,126.7L45.9,126.7z"/>
	<path style="fill:#FFFFFF;" d="M56.1,117.8v4.1h4.3v-4.1h1.8v10.1h-1.8v-4.5h-4.3v4.5h-1.8v-10.1H56.1z"/>
	<path style="fill:#FFFFFF;" d="M70,126.1c0,0.7,0,1.3,0.1,1.8h-1.7l-0.1-0.8h0c-0.4,0.6-1.2,1-2.2,1c-1.5,0-2.3-1.1-2.3-2.2
		c0-1.8,1.6-2.8,4.3-2.8V123c0-0.5-0.2-1.3-1.5-1.3c-0.7,0-1.5,0.2-2,0.5l-0.4-1.2c0.5-0.3,1.5-0.6,2.6-0.6c2.3,0,3,1.5,3,3.1V126.1
		z M68.2,124.3c-1.3,0-2.6,0.3-2.6,1.4c0,0.7,0.5,1.1,1.1,1.1c0.8,0,1.3-0.5,1.5-1c0-0.1,0-0.3,0-0.4V124.3z"/>
	<path style="fill:#FFFFFF;" d="M71.9,122.9c0-1,0-1.7-0.1-2.4h1.6l0.1,1.4h0c0.4-1,1.2-1.5,2-1.5c0.2,0,0.3,0,0.4,0v1.7
		c-0.2,0-0.3,0-0.6,0c-0.9,0-1.5,0.6-1.6,1.4c0,0.2,0,0.4,0,0.6v3.8h-1.8V122.9z"/>
	<path style="fill:#FFFFFF;" d="M77.3,117.2h1.8v4.4h0c0.4-0.7,1.2-1.2,2.3-1.2c1.8,0,3.1,1.5,3,3.7c0,2.6-1.7,3.9-3.3,3.9
		c-0.9,0-1.8-0.4-2.3-1.3h0l-0.1,1.1h-1.6c0-0.5,0.1-1.3,0.1-2V117.2z M79.1,124.9c0,0.1,0,0.3,0,0.4c0.2,0.8,0.8,1.3,1.6,1.3
		c1.2,0,1.9-0.9,1.9-2.4c0-1.3-0.6-2.3-1.8-2.3c-0.8,0-1.4,0.5-1.6,1.3c0,0.1-0.1,0.3-0.1,0.5V124.9z"/>
	<path style="fill:#FFFFFF;" d="M89.2,128.1c-2.1,0-3.7-1.4-3.7-3.8c0-2.4,1.6-3.9,3.8-3.9c2.2,0,3.6,1.5,3.6,3.8
		C93,126.9,91.1,128.1,89.2,128.1L89.2,128.1z M89.3,126.7c1,0,1.8-1,1.8-2.5c0-1.1-0.5-2.5-1.8-2.5c-1.3,0-1.8,1.3-1.8,2.5
		C87.5,125.7,88.2,126.7,89.3,126.7L89.3,126.7z"/>
	<path style="fill:#FFFFFF;" d="M101,125.7c0,0.9,0,1.6,0.1,2.2h-1.6l-0.1-1.1h0c-0.3,0.5-1,1.3-2.4,1.3c-1.3,0-2.5-0.8-2.5-3.2
		v-4.3h1.8v4c0,1.2,0.4,2,1.4,2c0.8,0,1.2-0.5,1.4-1c0.1-0.2,0.1-0.4,0.1-0.6v-4.4h1.8V125.7z"/>
	<path style="fill:#FFFFFF;" d="M103,122.9c0-1,0-1.7-0.1-2.4h1.6l0.1,1.4h0c0.4-1,1.2-1.5,2-1.5c0.2,0,0.3,0,0.4,0v1.7
		c-0.2,0-0.3,0-0.6,0c-0.9,0-1.5,0.6-1.6,1.4c0,0.2,0,0.4,0,0.6v3.8H103V122.9z"/>
</g>
<g>
	<path d="M64.5,38.5c-5.3-3.1-9.7-10.6-9.6-16.7c0-2.1,0.5-3.7,1.4-4.9c-2.4,0.7-3.8,3.4-3.8,7.2c0,6.1,4.3,13.6,9.6,16.7
		c3.9,2.2,7.2,1.5,8.8-1.4C69.2,40.1,66.9,39.9,64.5,38.5z"/>
	<path d="M62.2,5.7c-5.8-3.3-10.8-3.6-14.6-1.5c1.6-0.9,3.1-1.9,4.8-2.9c3.8-2.2,9-1.9,14.8,1.4c11.5,6.6,20.7,22.7,20.7,35.8
		c0,3.6-0.5,8.3-3.3,12.8L68.7,75.6l-5.9,3.5l18.2-28.7c1.2-2.3,1.9-5.3,1.9-8.9C82.9,28.4,73.6,12.3,62.2,5.7z"/>
</g>
<path style="fill:#BE0000;" d="M82.9,41.6c0,3.6-0.7,6.5-1.9,8.9L62.8,79.1l-18-46.5c-2-7-2.6-10.4-2.5-15.2
	c0-13.2,8.6-18.2,20-11.6C73.6,12.3,82.9,28.4,82.9,41.6z M62.1,40.7c5.3,3.1,9.7,0.6,9.7-5.5c0-6.1-4.3-13.6-9.6-16.7
	c-5.3-3.1-9.7-0.6-9.7,5.5C52.4,30.1,56.8,37.6,62.1,40.7L62.1,40.7"/>
</svg>
