<?xml version="1.0" encoding="utf-8"?>
<!-- Generator: Adobe Illustrator 26.0.1, SVG Export Plug-In . SVG Version: 6.00 Build 0)  -->
<svg version="1.1" id="Layer_1" xmlns="http://www.w3.org/2000/svg" xmlns:xlink="http://www.w3.org/1999/xlink" x="0px" y="0px"
	 width="160px" height="134.9px" viewBox="0 0 160 134.9" style="enable-background:new 0 0 160 134.9;" xml:space="preserve">
<path style="fill:#BE0000;" d="M133.5,135.3h-107C11.9,135.3,0,123.4,0,108.8v0c0-14.6,11.9-26.5,26.5-26.5h107
	c14.6,0,26.5,11.9,26.5,26.5v0C160,123.4,148.1,135.3,133.5,135.3z"/>
<g>
	<path style="fill:#FFFFFF;" d="M24.7,105.3c-0.6,2.4-1.4,4.6-2.4,6.4l-1.9-1.2c1-1.7,1.8-3.6,2.2-5.6L24.7,105.3z M20.8,99.6v-2.1
		h2.6c-0.3-0.8-0.7-1.6-1-2.4l2-0.7c0.4,0.9,0.7,1.9,1.1,3.1h2.3c0.4-1,0.7-2,1-3.1l2.1,0.7c-0.3,0.9-0.6,1.7-1,2.4h2.5v2.1h-4.5
		v2.1h4.1v2.1h-4.1v8.6h-2.3v-8.6h-4.2v-2.1h4.2v-2.1H20.8z M25.4,92c-0.3-0.6-0.6-1.2-1-1.8l2.4-0.4c0.3,0.6,0.6,1.4,0.9,2.1h4.4
		v2.1H21V92H25.4z M31.6,108.9l-1.9,0.7c-0.4-1.5-0.8-2.9-1.4-4.4l1.9-0.5C30.8,106.3,31.3,107.6,31.6,108.9z M42.4,92.3
		c-2.1,0.7-4.4,1.1-6.9,1.3v3.9h7.4v2.2h-2.3v12.7h-2.2V99.7h-2.9v2.4c-0.1,4.3-1,7.7-2.8,10.2l-1.6-1.7c1.4-2,2.1-4.9,2.2-8.5V91.8
		c2.9,0,5.6-0.6,8-1.5L42.4,92.3z"/>
	<path style="fill:#FFFFFF;" d="M46.7,96.1v-5.9H49v5.9h2v2.2h-2v6.6l1.7-1v2.2c-1.8,1.1-3.6,1.9-5.7,2.7l-0.6-2.2
		c0.8-0.2,1.5-0.4,2.3-0.7v-7.6h-2v-2.2H46.7z M50.8,112.1l-1.7-1.5c1.8-2.5,2.7-5.9,2.8-10.2v-6.8h7c0-1.1,0-2.3,0-3.5H61
		c0,1.3,0,2.4,0.1,3.5h5.2v2.1h-5.2c0.1,2.9,0.3,5.1,0.7,6.7c0,0.3,0.1,0.5,0.1,0.7c0.7-1.6,1.3-3.5,1.8-5.5l1.9,0.8
		c-0.7,3-1.7,5.5-2.9,7.6c0.2,0.7,0.4,1.2,0.7,1.7c0.5,1.1,0.9,1.6,1.2,1.6c0.2,0,0.5-1.1,0.7-3.2l1.9,1.1c-0.5,3.3-1.2,5-2.2,5
		c-0.9,0-1.8-0.7-2.7-2.2c-0.4-0.5-0.7-1.1-1-1.8c-1.3,1.7-2.9,3-4.5,3.9l-1.4-1.8c2-1,3.7-2.6,5.1-4.6c-0.2-0.8-0.4-1.6-0.6-2.5
		c-0.4-2-0.7-4.5-0.9-7.5h-4.8v3h4.1c0,4.5-0.2,7.2-0.6,8.2c-0.4,1-1.1,1.4-2,1.5H54l-0.6-1.9h1.7c0.4,0,0.7-0.4,0.8-1.1
		c0.1-0.7,0.2-2.3,0.2-4.8h-2C54,105.4,52.9,109.2,50.8,112.1z M65.5,92.8l-1.6,0.7c-0.5-1.1-1-2.1-1.6-2.9l1.7-0.7
		C64.5,90.9,65,91.8,65.5,92.8z"/>
	<path style="fill:#FFFFFF;" d="M78.7,92.7c-0.4-0.9-0.7-1.7-1.2-2.4l2.5-0.4c0.4,0.8,0.7,1.8,1,2.8h9.7v2.2h-9.6v2.6H89v9
		c0,1.5-0.8,2.3-2.4,2.3h-2.4l-0.6-2.2l2.3,0.1c0.6,0,0.9-0.3,0.9-0.8v-6.2h-5.6v12.7h-2.3V99.7h-5.3v9.3h-2.2V97.5h7.5v-2.6h-9.6
		v-2.2H78.7z"/>
	<path style="fill:#FFFFFF;" d="M101.4,94.6v-1.2h-4.3v6.1H115v1.8H97c-0.2,4.4-0.9,8.1-2.2,10.9l-1.7-1.5c1.1-2.7,1.7-6.3,1.8-11
		v-8.2h9.1c-0.2-0.4-0.4-0.8-0.6-1.1l2.4-0.4c0.2,0.4,0.4,0.9,0.6,1.5h8.5v1.9h-4v1.2h3.4v1.7h-3.4v2.4h-9.5v-2.4H98v-1.7H101.4z
		 M113.4,102.1v6.8h-4.3c2.1,0.5,4.1,1.1,5.9,1.9l-1.1,1.7c-2-1-4.1-1.8-6.2-2.3l0.9-1.3h-5.1l1,1.1c-1.8,1-3.9,1.8-6.4,2.5
		l-0.9-1.9c2.2-0.5,4.1-1.1,5.6-1.8h-3.9v-6.8H113.4z M105,104.8v-1.1H101v1.1H105z M105,106.1H101v1.1h4.1V106.1z M108.7,93.4h-5.1
		v1.2h5.1V93.4z M103.5,97.2h5.1v-0.9h-5.1V97.2z M107.1,104.8h4.1v-1.1h-4.1V104.8z M111.2,106.1h-4.1v1.1h4.1V106.1z"/>
	<path style="fill:#FFFFFF;" d="M119.9,96.3v-6.1h2.2v6.1h2.4v2.2h-2.4v7.4c0.8-0.3,1.6-0.7,2.3-1v2.2c-2.1,0.9-4.4,1.7-6.8,2.4
		l-0.6-2.2c1-0.2,1.9-0.4,2.8-0.7v-8.1h-2.6v-2.2H119.9z M139.4,99.5v2h-9.1c-0.2,0.4-0.4,0.7-0.7,1.1h9c0,2.4-0.2,4.3-0.4,5.8
		c-0.2,1.4-0.5,2.5-0.9,3c-0.4,0.6-1.1,0.9-2.1,0.9h-2.1l-0.6-2.1c0.6,0,1.1,0.1,1.6,0.1c0.8,0,1.4-0.4,1.7-1.1
		c0.3-0.8,0.5-2.4,0.6-4.8h-0.9c-1.6,4-4.2,6.6-7.8,7.9l-1.2-1.8c3.2-1.1,5.6-3.1,7-6.1H132c-1.2,2.1-3.2,3.8-5.9,5l-1.3-1.6
		c2.3-0.9,4-2,5-3.4H128c-0.7,0.6-1.4,1.1-2.2,1.6l-1.3-1.7c1.6-0.8,2.8-1.8,3.6-2.9H125v-2H139.4z M137.7,90.9v7.6h-11.4v-7.6
		H137.7z M135.6,93.9v-1.2h-7.2v1.2H135.6z M135.6,95.5h-7.2v1.2h7.2V95.5z"/>
	<path style="fill:#FFFFFF;" d="M29.1,127.9v-10.1h2.1l2.6,4.3c0.7,1.1,1.3,2.3,1.7,3.4l0,0c-0.1-1.3-0.2-2.6-0.2-4.2v-3.5h1.7v10.1
		h-1.9l-2.6-4.5c-0.6-1.1-1.3-2.3-1.8-3.5l-0.1,0c0.1,1.3,0.1,2.6,0.1,4.3v3.6H29.1z"/>
	<path style="fill:#FFFFFF;" d="M40.5,124.8c0,1.3,1.1,1.9,2.2,1.9c0.9,0,1.5-0.1,2-0.3l0.3,1.3c-0.6,0.3-1.5,0.5-2.5,0.5
		c-2.4,0-3.8-1.5-3.8-3.7c0-2,1.2-3.9,3.6-3.9c2.4,0,3.1,2,3.1,3.6c0,0.3,0,0.6-0.1,0.8H40.5z M43.7,123.5c0-0.7-0.3-1.8-1.5-1.8
		c-1.1,0-1.6,1-1.7,1.8H43.7z"/>
	<path style="fill:#FFFFFF;" d="M48.1,120.6l0.8,3.3c0.2,0.8,0.3,1.6,0.5,2.4h0c0.1-0.8,0.4-1.6,0.6-2.4l1-3.3h1.5l0.9,3.2
		c0.2,0.9,0.4,1.6,0.6,2.4h0c0.1-0.8,0.3-1.6,0.5-2.4l0.8-3.2H57l-2.3,7.3H53l-0.9-3c-0.2-0.8-0.4-1.5-0.6-2.3h0
		c-0.2,0.9-0.3,1.6-0.6,2.3l-0.9,3h-1.7l-2.2-7.3H48.1z"/>
	<path style="fill:#FFFFFF;" d="M62.7,119.3h-2.9v-1.5h7.6v1.5h-2.9v8.6h-1.8V119.3z"/>
	<path style="fill:#FFFFFF;" d="M70.6,128.1c-2.1,0-3.7-1.4-3.7-3.8c0-2.4,1.6-3.9,3.8-3.9c2.2,0,3.6,1.5,3.6,3.8
		C74.4,126.9,72.5,128.1,70.6,128.1L70.6,128.1z M70.7,126.7c1,0,1.8-1,1.8-2.5c0-1.1-0.5-2.5-1.8-2.5c-1.3,0-1.8,1.3-1.8,2.5
		C68.9,125.7,69.6,126.7,70.7,126.7L70.7,126.7z"/>
	<path style="fill:#FFFFFF;" d="M76.9,120.6l0.8,3.3c0.2,0.8,0.3,1.6,0.5,2.4h0c0.1-0.8,0.4-1.6,0.6-2.4l1-3.3h1.5l0.9,3.2
		c0.2,0.9,0.4,1.6,0.6,2.4h0c0.1-0.8,0.3-1.6,0.5-2.4l0.8-3.2h1.8l-2.3,7.3h-1.7l-0.9-3c-0.2-0.8-0.4-1.5-0.6-2.3h0
		c-0.2,0.9-0.3,1.6-0.6,2.3l-0.9,3h-1.7l-2.2-7.3H76.9z"/>
	<path style="fill:#FFFFFF;" d="M87,122.8c0-0.8,0-1.5-0.1-2.2h1.6l0.1,1.1h0c0.3-0.6,1.1-1.3,2.3-1.3c1.3,0,2.6,0.8,2.6,3.1v4.3
		h-1.8v-4.1c0-1-0.4-1.8-1.4-1.8c-0.7,0-1.2,0.5-1.4,1.1c-0.1,0.2-0.1,0.4-0.1,0.6v4.3H87V122.8z"/>
	<path style="fill:#FFFFFF;" d="M98.8,117.9c0.7-0.1,1.6-0.2,2.8-0.2c1.4,0,2.3,0.3,3,0.8c0.6,0.5,1,1.3,1,2.2c0,1-0.3,1.7-0.9,2.3
		c-0.8,0.7-1.9,1.1-3.2,1.1c-0.3,0-0.6,0-0.9-0.1v3.8h-1.8V117.9z M100.6,122.6c0.2,0.1,0.5,0.1,0.9,0.1c1.4,0,2.2-0.7,2.2-1.9
		c0-1.1-0.8-1.7-2.1-1.7c-0.5,0-0.9,0-1.1,0.1V122.6z"/>
	<path style="fill:#FFFFFF;" d="M107.1,117.2h1.8v10.7h-1.8V117.2z"/>
	<path style="fill:#FFFFFF;" d="M116.6,126.1c0,0.7,0,1.3,0.1,1.8H115l-0.1-0.8h0c-0.4,0.6-1.2,1-2.2,1c-1.5,0-2.3-1.1-2.3-2.2
		c0-1.8,1.6-2.8,4.3-2.8V123c0-0.5-0.2-1.3-1.5-1.3c-0.7,0-1.5,0.2-2,0.5l-0.4-1.2c0.5-0.3,1.5-0.6,2.6-0.6c2.3,0,3,1.5,3,3.1V126.1
		z M114.8,124.3c-1.3,0-2.6,0.3-2.6,1.4c0,0.7,0.5,1.1,1.1,1.1c0.8,0,1.3-0.5,1.5-1c0-0.1,0-0.3,0-0.4V124.3z"/>
	<path style="fill:#FFFFFF;" d="M117.8,126.8l2.7-3.5c0.4-0.5,0.7-0.8,1.1-1.2v0h-3.5v-1.5h5.8v1.1l-2.7,3.4
		c-0.4,0.4-0.7,0.9-1.1,1.2v0h3.8v1.5h-6.1V126.8z"/>
	<path style="fill:#FFFFFF;" d="M131,126.1c0,0.7,0,1.3,0.1,1.8h-1.7l-0.1-0.8h0c-0.4,0.6-1.2,1-2.2,1c-1.5,0-2.3-1.1-2.3-2.2
		c0-1.8,1.6-2.8,4.3-2.8V123c0-0.5-0.2-1.3-1.5-1.3c-0.7,0-1.5,0.2-2,0.5l-0.4-1.2c0.5-0.3,1.5-0.6,2.6-0.6c2.3,0,3,1.5,3,3.1V126.1
		z M129.2,124.3c-1.3,0-2.6,0.3-2.6,1.4c0,0.7,0.5,1.1,1.1,1.1c0.8,0,1.3-0.5,1.5-1c0-0.1,0-0.3,0-0.4V124.3z"/>
</g>
<g>
	<path d="M79.5,38.5c-5.3-3.1-9.7-10.6-9.6-16.7c0-2.1,0.5-3.7,1.4-4.9c-2.4,0.7-3.8,3.4-3.8,7.2c0,6.1,4.3,13.6,9.6,16.7
		c3.9,2.2,7.2,1.5,8.8-1.4C84.2,40.1,81.9,39.9,79.5,38.5z"/>
	<path d="M77.2,5.7c-5.8-3.3-10.8-3.6-14.6-1.5c1.6-0.9,3.1-1.9,4.8-2.9c3.8-2.2,9-1.9,14.8,1.4c11.5,6.6,20.7,22.7,20.7,35.8
		c0,3.6-0.5,8.3-3.3,12.8L83.7,75.6l-5.9,3.5l18.2-28.7c1.2-2.3,1.9-5.3,1.9-8.9C97.9,28.4,88.6,12.3,77.2,5.7z"/>
</g>
<path style="fill:#BE0000;" d="M97.9,41.6c0,3.6-0.7,6.5-1.9,8.9L77.8,79.1l-18-46.5c-2-7-2.6-10.4-2.5-15.2
	c0-13.2,8.6-18.2,20-11.6C88.6,12.3,97.9,28.4,97.9,41.6z M77.1,40.7c5.3,3.1,9.7,0.6,9.7-5.5c0-6.1-4.3-13.6-9.6-16.7
	c-5.3-3.1-9.7-0.6-9.7,5.5C67.4,30.1,71.8,37.6,77.1,40.7L77.1,40.7"/>
</svg>
