<svg xmlns="http://www.w3.org/2000/svg" width="150" height="114.51" viewBox="0 0 150 114.51">
  <g id="Layer_2" data-name="Layer 2">
    <g id="Pointer">
      <g>
        <rect y="82.31" width="150" height="32.2" rx="16.1" style="fill: #be0000"/>
        <g>
          <path d="M19.5,103.25A22.92,22.92,0,0,1,17,109.63l-1.43-.92a18.08,18.08,0,0,0,2.39-5.8Zm-3.64-5.94V95.74h2.8A22.62,22.62,0,0,0,17.5,93L19,92.46a21.07,21.07,0,0,1,1.19,3.28h2.6a30.75,30.75,0,0,0,1.09-3.28l1.57.53a25,25,0,0,1-1.09,2.75h2.76v1.57H22.4V100h4.33v1.57H22.4v8.79H20.66v-8.79H16.24V100h4.42V97.31Zm4.88-7a17.2,17.2,0,0,0-1.07-2L21.49,88c.31.68.62,1.45.94,2.3H27v1.59H16.1V90.26ZM26.39,107l-1.47.55a40.16,40.16,0,0,0-1.5-4.37l1.47-.39A42.28,42.28,0,0,1,26.39,107Zm10.8-17a25.07,25.07,0,0,1-7.11,1.4v4.44h7.73v1.67H35.3v12.85H33.59V97.48H30.08v2.68q-.13,6.3-2.75,10.07L26.08,109q2.16-3.18,2.34-8.79V90a21.1,21.1,0,0,0,7.9-1.57Z" style="fill: #fff"/>
          <path d="M42,94.39V88.28H43.7v6.11h2.15V96H43.7v7.34c.68-.33,1.33-.7,2-1.08V104A30.59,30.59,0,0,1,40,106.54l-.43-1.65a23.35,23.35,0,0,0,2.41-.77V96H39.84V94.39Zm6.84,4c-.1,4.83-1.21,8.72-3.34,11.62l-1.28-1.14c1.86-2.51,2.83-6,2.93-10.48V91.85h7c0-1.16,0-2.39,0-3.67h1.6c0,1.3,0,2.54.07,3.67h5.44v1.57H55.83a52.28,52.28,0,0,0,.7,7.13c.07.48.17.92.27,1.35a28.26,28.26,0,0,0,2.12-6.23l1.43.6a28.13,28.13,0,0,1-3,7.78,11.73,11.73,0,0,0,.83,2c.58,1.14,1.06,1.72,1.4,1.72s.63-1.21.89-3.53l1.45.8q-.72,4.84-2,4.85c-.82,0-1.67-.72-2.56-2.17a11.43,11.43,0,0,1-1-2.13,14.33,14.33,0,0,1-4.83,4.3l-1-1.33a13.88,13.88,0,0,0,5.27-4.8,22.76,22.76,0,0,1-.68-2.68,54.09,54.09,0,0,1-.82-7.71H48.85V96.9H53c0,4.35-.2,7-.53,8a2,2,0,0,1-1.86,1.45H49l-.43-1.43h1.66c.54,0,.85-.45,1-1.2a43.58,43.58,0,0,0,.24-5.32H48.85ZM60.3,91,59,91.54a20.08,20.08,0,0,0-1.69-3.05l1.28-.5A19.86,19.86,0,0,1,60.3,91Z" style="fill: #fff"/>
          <path d="M74.06,90.93A24.93,24.93,0,0,0,72.8,88.2l1.86-.29c.39.9.78,1.91,1.16,3H85.7V92.6H75.9v3.17h7.85v8.76a2,2,0,0,1-2.2,2.2H79.13l-.43-1.67,2.29.1a.9.9,0,0,0,1-1V97.43H75.9v12.83H74.11V97.43H68.29v9.47H66.57V95.77h7.54V92.6H64.3V90.93Z" style="fill: #fff"/>
          <path d="M96.62,92.77V91.15H91.81v6.64q-.11,7.68-2.32,12.32L88.19,109c1.2-2.68,1.86-6.4,1.93-11.16V89.65h9.25c-.24-.48-.48-.94-.72-1.33l1.83-.28a15.62,15.62,0,0,1,.68,1.61h8.67v1.5H105.6v1.62h3.55v1.3H105.6v2.54h-9V94.07H93.07v-1.3Zm13.26,4.9v1.4H92v-1.4Zm-10.56,10.2a24.67,24.67,0,0,1-6.45,2.58L92.2,109a23.81,23.81,0,0,0,6.18-2.23Zm8.91-7.66v6.57H94v-6.57Zm-7.94,2.68v-1.45H95.63v1.45Zm0,1.11H95.63v1.47h4.66Zm3.65-12.85H98.28v1.62h5.66Zm-5.66,4.3h5.66V94.07H98.28Zm3.6,7.44h4.71v-1.45h-4.71Zm4.71,1.11h-4.71v1.47h4.71Zm3.29,5.1-.87,1.3a35.73,35.73,0,0,0-6.28-2.41l.75-1.09A38.11,38.11,0,0,1,109.88,109.1Z" style="fill: #fff"/>
          <path d="M115.16,94.58V88.2h1.67v6.38h2.63v1.69h-2.63v8.07c.87-.34,1.74-.68,2.58-1.06V105a45.75,45.75,0,0,1-6.78,2.34l-.44-1.67q1.53-.31,3-.75V96.27h-2.78V94.58Zm19.16,3.09v1.52h-9.23a10.68,10.68,0,0,1-1,1.5h9.35a53.67,53.67,0,0,1-.36,5.63,6.7,6.7,0,0,1-.94,3,2.74,2.74,0,0,1-2.1.86h-1.82l-.43-1.57c.51,0,1,.08,1.45.08a1.89,1.89,0,0,0,2-1.23,23.23,23.23,0,0,0,.62-5.34H130.5a13.19,13.19,0,0,1-8.07,8l-.94-1.4a12,12,0,0,0,7.46-6.64h-2.07a12.48,12.48,0,0,1-6.14,5.09l-1-1.2a11.84,11.84,0,0,0,5.51-3.89h-2.42a14.36,14.36,0,0,1-2.32,1.71l-1-1.3a10,10,0,0,0,3.87-3.34h-3.5V97.67ZM132.53,89v7.22H121.42V89Zm-1.62,3V90.43H123V92Zm0,1.28H123v1.59h7.9Z" style="fill: #fff"/>
        </g>
        <g>
          <path d="M74.51,38.49c-5.34-3.08-9.65-10.56-9.63-16.7a8.06,8.06,0,0,1,1.36-4.86c-2.36.72-3.8,3.36-3.81,7.17,0,6.14,4.3,13.62,9.64,16.7,3.89,2.25,7.25,1.53,8.79-1.38C79.16,40.13,76.94,39.89,74.51,38.49Z"/>
          <path d="M72.19,5.73C66.42,2.4,61.38,2.09,57.61,4.28c1.58-.91,3.13-1.92,4.78-2.88,3.78-2.19,9-1.88,14.77,1.45C88.62,9.46,97.88,25.5,97.84,38.67a23.45,23.45,0,0,1-3.32,12.81L78.7,75.62l-6,3.47L90.94,50.42a19.06,19.06,0,0,0,1.93-8.87C92.91,28.39,83.65,12.35,72.19,5.73Z"/>
        </g>
        <path d="M92.87,41.55a19.06,19.06,0,0,1-1.93,8.87L72.75,79.09l-18-46.54c-2-7-2.56-10.41-2.55-15.21,0-13.17,8.57-18.22,20-11.61S92.91,28.39,92.87,41.55Zm-20.78-.86c5.35,3.09,9.69.61,9.71-5.53s-4.3-13.62-9.65-16.71-9.68-.6-9.7,5.54,4.3,13.62,9.64,16.7h0" style="fill: #be0000"/>
      </g>
    </g>
  </g>
</svg>
