<?xml version="1.0" encoding="utf-8"?>
<!-- Generator: Adobe Illustrator 26.0.1, SVG Export Plug-In . SVG Version: 6.00 Build 0)  -->
<svg version="1.1" id="Layer_1" xmlns="http://www.w3.org/2000/svg" xmlns:xlink="http://www.w3.org/1999/xlink" x="0px" y="0px"
	 width="1720px" height="880px" viewBox="0 0 1720 880" style="enable-background:new 0 0 1720 880;" xml:space="preserve">
<rect style="fill:#053450;" width="1720" height="880"/>
<g>
	<defs>
		<rect id="SVGID_1_" width="1720" height="880"/>
	</defs>
	<clipPath id="SVGID_00000088846230898700929850000001068094073795071903_">
		<use xlink:href="#SVGID_1_"  style="overflow:visible;"/>
	</clipPath>
	<path style="clip-path:url(#SVGID_00000088846230898700929850000001068094073795071903_);fill:#FFF23D;" d="M1409.7,943.6l-27-145
		c-1.9-10.4-7.4-19.8-15.4-26.7l-69.2-59.3c-8-6.8-13.4-16.1-15.3-26.4l-3.7-19.3c-2.8-14.4-12.2-26.7-25.5-33l-67.1-32.2
		c-12.2-5.8-21.2-16.7-24.7-29.7l-14.9-54.9c-5.2-19.1-21.9-32.8-41.6-34.1l-12.4-0.8c-13.7-0.9-27.1,4.3-36.6,14.3l-18.8,19.8
		c-7.1,7.4-16.4,12.3-26.6,13.9l-128.5,19.5c-2.3,0.3-4.6,0.5-6.9,0.5H665.5c-16.2,0-31.2-8.4-39.6-22.2l0,0
		c-10.6-17.4-8.6-39.6,4.9-54.8l3.6-4c11.4-12.9,14.5-30.6,9-46.1l33.3-19.9l-13.8-23.1L628.9,400l-69.7-91.4
		c-4.6-6-10.5-10.8-17.3-13.9l-144.7-67.4c-5.4-2.5-11.2-4-17.2-4.3l-417.9-21.7c-14.3-0.7-27.5,5.1-36.5,14.9v836.5h1449.7
		C1398.5,991.3,1414.3,968.3,1409.7,943.6z"/>
	<path style="clip-path:url(#SVGID_00000088846230898700929850000001068094073795071903_);fill:#FFF23D;" d="M1385.1-109.9l-11,1.8
		c-3.5,0.6-6.8,2.1-9.5,4.3L1132.4,88.7c-5.3,4.4-7.9,11.2-7,18l13.6,101.8c0.6,4.3,2.6,8.4,5.7,11.5l32.4,32.4
		c6.3,6.3,16,7.7,23.8,3.3l63.8-35.6c12.5-7,28.1,1.2,29.5,15.4c0.6,6.1-1.6,12.1-6,16.3l-96.5,93.5c-10.3,10-7,27.4,6.4,32.8
		l183.5,74.6c5.8,2.3,12.3,1.9,17.7-1.3l95.6-56.5c4.7-2.8,8.1-7.4,9.3-12.7l11.8-51.7c1.4-6.1,5.6-11.2,11.2-13.7l306.3-138.1
		v-288.5H1385.1z"/>
	<path style="clip-path:url(#SVGID_00000088846230898700929850000001068094073795071903_);fill:#E3DBAA;" d="M1328.8-109.9
		L1131.5,53.6c-5.3,4.4-7.9,11.2-7,18l13.6,101.8c0.6,4.3,2.6,8.4,5.7,11.5l32.4,32.4c6.3,6.3,16,7.7,23.8,3.3l63.8-35.6
		c12.5-7,28.1,1.2,29.5,15.4v0c0.6,6.1-1.6,12.1-6,16.3l-96.5,93.5c-10.3,10-7,27.4,6.4,32.8l183.5,74.6c5.8,2.3,12.3,1.9,17.7-1.3
		l95.6-56.5c4.7-2.8,8.1-7.4,9.3-12.7l11.8-51.7c1.4-6.1,5.6-11.2,11.2-13.7l307.1-138.4v-253.1H1328.8z"/>
	<path style="clip-path:url(#SVGID_00000088846230898700929850000001068094073795071903_);fill:#E3DBAA;" d="M1371.8,901.1l-27-145
		c-1.9-10.4-7.4-19.8-15.4-26.7l-69.2-59.3c-8-6.8-13.4-16.1-15.3-26.4l-3.7-19.3c-2.8-14.4-12.2-26.7-25.5-33l-67.1-32.2
		c-12.2-5.8-21.2-16.7-24.7-29.7l-14.9-54.9c-5.2-19.1-21.9-32.8-41.6-34.1l-12.4-0.8c-13.7-0.9-27.1,4.3-36.6,14.3l-18.8,19.8
		c-7.1,7.4-16.4,12.3-26.6,13.9l-128.5,19.5c-2.3,0.3-4.6,0.5-6.9,0.5H627.6c-16.2,0-31.2-8.4-39.6-22.2l0,0
		c-10.6-17.4-8.6-39.6,4.9-54.8l3.6-4c11.4-12.9,14.5-30.6,9-46.1l33.3-19.9l-13.8-23.1l-33.9,20.3l-69.7-91.4
		c-4.6-6-10.5-10.8-17.3-13.9l-144.7-67.4c-5.4-2.5-11.2-4-17.2-4.3l-417.9-21.7c-14.3-0.7-27.5,5.1-36.5,14.9v836.5h1449.7
		C1360.6,948.8,1376.4,925.7,1371.8,901.1z"/>
</g>
<path style="fill:none;stroke:#D8C356;stroke-width:20;stroke-linejoin:round;stroke-miterlimit:10;" d="M0,293.3
	c10.9,0,75.8,10.1,111.5,11.3c70.6,2.2,124.1-6.9,229.5,71.9c124.4,92.9,108.7,267.9,107.3,281.4c-0.1,0.1-1.8,1.6-1.4,4
	c0.3,1.4,1.2,2.7,2.7,3.2l96,35.9c1.7,0.6,2.8,2.2,2.8,4c0,3.2,3.4,5.2,6.2,3.8l8.6-4.4c2.4-1.2,5.3,0.1,6,2.7l24.6,90
	c0.3,1,0.9,1.9,1.9,2.5l40.6,25.3c2,1.3,4.7,0.6,5.9-1.5l40.1-69.8c0.9-1.6,2.7-2.4,4.5-2.1l38.6,7.7c2.5,0.5,5-1.4,5.1-4l2.3-44.8
	c0.1-1.4,0.8-2.7,2-3.4l23.1-14.1c0.6-0.4,1.1-0.8,1.4-1.4l44.7-73.5c0.3-0.5,0.7-0.9,1.1-1.2l56.6-41.4c0.4-0.3,0.9-0.5,1.4-0.7
	l55.1-14.8c0.5-0.1,0.9-0.2,1.4-0.1l62.6,4.4c1.3,0.1,2.5-0.4,3.4-1.3l14.6-15.3c0.5-0.5,0.9-1.2,1-1.9l11.2-42.7
	c0.4-1.5,1.5-2.6,2.9-3c9.2-2.6,39.8-7,77.1,38.2"/>
<g>
	<rect x="1046.6" y="181.6" style="fill:#89B37B;" width="8.4" height="3"/>
	<rect x="1049.2" y="177.4" style="fill:#89B37B;" width="7.1" height="2.5"/>
	<polygon style="fill:#EEDB9B;" points="1049.2,177.4 1052.5,176.3 1057.7,176.3 1056.3,177.4 	"/>
	<polygon style="fill:#EEDB9B;" points="1046.6,181.7 1049.2,179.8 1055.6,179.8 1055.1,181.7 	"/>
	<path style="fill:#FFFBDD;" d="M1105.8,207.5h-42.9c-7.1,0-12.4-5.7-11.2-11.9l3.4-16.4c1.9-9.3,11-16,21.6-16h15.2
		c10.6,0,19.7,6.7,21.6,16l3.4,16.4C1118.2,201.8,1112.9,207.5,1105.8,207.5z"/>
	<path style="fill:#679840;" d="M1122.3,210.7h-15.8c-3.6,0-6.2-2.5-5.6-5.2l1.2-5.2c0.8-3.4,4.6-5.9,9.1-5.9h6.4
		c4.5,0,8.3,2.5,9.1,5.9l1.2,5.2C1128.5,208.2,1125.9,210.7,1122.3,210.7z"/>
	<path style="fill:#ECC438;stroke:#89B37B;stroke-width:0.2641;stroke-miterlimit:10;" d="M1102.1,221.7h-7.9
		c-1.8,0-3.1-1.3-2.8-2.6l0.6-2.6c0.4-1.7,2.3-3,4.5-3h3.2c2.2,0,4.1,1.2,4.5,3l0.6,2.6C1105.2,220.4,1103.8,221.7,1102.1,221.7z"/>
	<path style="fill:#FFFFFF;stroke:#121617;stroke-width:0.1954;stroke-miterlimit:10;" d="M1065.3,154.6"/>
	<rect x="1044.1" y="193" style="fill:#ECC438;" width="24" height="5.4"/>
	<rect x="1048.2" y="200.9" style="fill:#ECC438;" width="27.7" height="5.4"/>
	<g>
		<polygon style="fill:#679840;" points="1048.2,200.8 1044.5,198.3 1072,198.3 1075.7,200.8 		"/>
		<path style="fill:#89B37B;" d="M1072,198.3l3.5,2.4h-27.3l-3.5-2.4H1072 M1072,198.2h-27.7l3.9,2.7h27.7L1072,198.2L1072,198.2z"
			/>
	</g>
	<g>
		<polygon style="fill:#FFFFFF;" points="1044.1,192.9 1040.8,190.4 1064.7,190.4 1067.9,192.9 		"/>
		<path style="fill:#89B37B;" d="M1064.6,190.4l3.1,2.4h-23.6l-3.1-2.4H1064.6 M1064.7,190.3h-24l3.4,2.7h24L1064.7,190.3
			L1064.7,190.3z"/>
	</g>
	<rect x="1051.5" y="208.9" style="fill:#ECC438;" width="28.9" height="5.4"/>
	<g>
		<polygon style="fill:#679840;" points="1051.9,208.8 1048.1,206.2 1076.4,206.2 1080.2,208.8 		"/>
		<path style="fill:#89B37B;" d="M1076.3,206.3l3.6,2.4h-28l-3.6-2.4H1076.3 M1076.4,206.2h-28.5l4,2.7h28.5L1076.4,206.2
			L1076.4,206.2z"/>
	</g>
	<polygon style="fill:#89B37B;" points="1040.7,190.3 1040.7,204.6 1051.5,214.3 1051.5,208.9 1048.2,206.3 1048.2,200.9 
		1044.3,198.2 1044.3,193 	"/>
	<g>
		<g>
			<polygon style="fill:#EEDB9B;" points="1091.2,145.7 1077.5,145.7 1076.5,150.4 1089.1,150.4 1091.5,148.1 			"/>
		</g>
		<g>
			<polygon style="fill:#FFFBDD;" points="1076.5,128.6 1081.2,124.1 1091.5,124.1 1086.8,128.6 			"/>
		</g>
		<g>
			<g>
				<rect x="1076.5" y="128.6" style="fill:#ECC438;" width="10.3" height="1.6"/>
			</g>
		</g>
		<g>
			<g>
				<rect x="1076.5" y="130.2" style="fill:#89B37B;" width="2.7" height="1.6"/>
			</g>
		</g>
		<g>
			<polygon style="fill:#89B37B;" points="1074.1,171.6 1071.5,171.6 1076.6,131.8 1079.3,131.8 			"/>
		</g>
		<g>
			<g>
				<g>
					<rect x="1082" y="115.9" style="fill:#679840;" width="3.1" height="5.3"/>
				</g>
			</g>
			<g>
				<g>
					<rect x="1082" y="119.6" style="fill:#89B37B;" width="3.1" height="1.6"/>
				</g>
			</g>
			<g>
				<g>
					<polygon style="fill:#EEDB9B;" points="1084.2,122.9 1082.9,122.9 1082,121.2 1085.1,121.2 					"/>
				</g>
			</g>
			<g>
				<g>
					<rect x="1082.9" y="122.9" style="fill:#ECC438;" width="1.1" height="3.5"/>
				</g>
			</g>
		</g>
		<g>
			<g>
				<rect x="1076.5" y="150.4" style="fill:#ECC438;" width="10.3" height="21.3"/>
			</g>
		</g>
		<g>
			<g>
				<rect x="1076.5" y="150.4" style="fill:#FFFFFF;" width="10.3" height="1.7"/>
			</g>
		</g>
		<g>
			<polygon style="fill:#EEDB9B;" points="1074.1,171.6 1076.5,171.6 1076.5,152.1 			"/>
		</g>
		<g>
			<polygon style="fill:#EEDB9B;" points="1086.8,171.6 1089.1,171.6 1086.8,152.1 			"/>
		</g>
		<g>
			<polygon style="fill:#ECC438;" points="1074.1,150.4 1071.9,150.4 1071.9,168 			"/>
		</g>
		<g>
			<g>
				<polygon style="fill:#ECC438;" points="1089.1,150.4 1091.3,150.4 1091.3,167.2 				"/>
			</g>
		</g>
		<g>
			<g>
				<rect x="1081.1" y="131.8" style="fill:#ECC438;" width="5" height="6.3"/>
			</g>
		</g>
		<g>
			<g>
				<rect x="1079.2" y="130.2" style="fill:#93D5D8;" width="5" height="1.6"/>
			</g>
		</g>
		<g>
			<g>
				<rect x="1082.3" y="138.1" style="fill:#ECC438;" width="2.5" height="9.1"/>
			</g>
		</g>
		<g>
			<polygon style="fill:#ECC438;" points="1091.7,171.6 1096.5,167.1 1096,162.7 1091.2,166.3 			"/>
		</g>
		<g>
			<polygon style="fill:#679840;" points="1091.3,150.4 1096,145.9 1096,162.7 1091.2,166.3 			"/>
		</g>
		<g>
			<polygon style="fill:#FFFFFF;" points="1089.1,150.4 1093.8,145.9 1096,145.9 1091.3,150.4 			"/>
		</g>
		<g>
			<polygon style="fill:#679840;" points="1086.8,128.6 1091.5,124.1 1091.5,127.7 1086.8,131.8 			"/>
		</g>
		<g>
			<polygon style="fill:#89B37B;" points="1093.8,145.9 1091.5,148.1 1089.2,129.7 1091.5,127.7 			"/>
		</g>
		<g>
			<polygon style="fill:#EEDB9B;" points="1071.9,150.4 1074.7,146.9 1074.1,150.4 			"/>
		</g>
		
			<polyline style="fill:none;stroke:#FFFFFF;stroke-width:0.8584;stroke-linecap:round;stroke-linejoin:round;stroke-miterlimit:10;" points="
			1077.8,134.5 1086,134.5 1090.7,130.7 		"/>
		
			<polyline style="fill:none;stroke:#FFFFFF;stroke-width:0.8584;stroke-linecap:round;stroke-linejoin:round;stroke-miterlimit:10;" points="
			1077.8,137.9 1086,137.9 1090.7,134.2 		"/>
		
			<polyline style="fill:none;stroke:#FFFFFF;stroke-width:0.8584;stroke-linecap:round;stroke-linejoin:round;stroke-miterlimit:10;" points="
			1077.2,141.4 1086,141.4 1091.2,137.1 		"/>
		
			<polyline style="fill:none;stroke:#FFFFFF;stroke-width:0.8584;stroke-linecap:round;stroke-linejoin:round;stroke-miterlimit:10;" points="
			1076.6,145.1 1086,145.1 1091.5,140.6 		"/>
		<g>
			<g>
				<polygon style="fill:#89B37B;" points="1089.1,171.6 1091.7,171.6 1086.8,131.7 1084.1,131.7 				"/>
			</g>
		</g>
	</g>
	<g>
		<g>
			<rect x="1040.7" y="186.9" style="fill:#89B37B;" width="19.4" height="3.4"/>
		</g>
	</g>
	<g>
		<polygon style="fill:#FFFFFF;" points="1041,186.9 1046.1,184.7 1055.1,184.7 1059.8,186.9 		"/>
		<path style="fill:#89B37B;" d="M1055.1,184.7l4.4,2.1h-18.2l4.8-2.1H1055.1 M1055.1,184.6h-9l-5.4,2.4h19.4L1055.1,184.6
			L1055.1,184.6z"/>
	</g>
	
		<polyline style="fill:none;stroke:#EEDB9B;stroke-width:1.2857;stroke-linecap:round;stroke-linejoin:round;stroke-miterlimit:10;" points="
		1055.3,200 1039.1,180.4 1049.2,168.9 1061.6,168.5 	"/>
	
		<line style="fill:none;stroke:#EEDB9B;stroke-width:1.2857;stroke-linecap:round;stroke-linejoin:round;stroke-miterlimit:10;" x1="1051.7" y1="195.6" x2="1051.7" y2="208.9"/>
	
		<line style="fill:none;stroke:#EEDB9B;stroke-width:1.2857;stroke-linecap:round;stroke-linejoin:round;stroke-miterlimit:10;" x1="1046.6" y1="189.5" x2="1046.6" y2="199.2"/>
	
		<line style="fill:none;stroke:#EEDB9B;stroke-width:1.2857;stroke-linecap:round;stroke-linejoin:round;stroke-miterlimit:10;" x1="1041.8" y1="191.2" x2="1041.8" y2="183.4"/>
	
		<line style="fill:none;stroke:#EEDB9B;stroke-width:1.2857;stroke-linecap:round;stroke-linejoin:round;stroke-miterlimit:10;" x1="1046.6" y1="184.6" x2="1046.6" y2="171.8"/>
	
		<line style="fill:none;stroke:#EEDB9B;stroke-width:1.2857;stroke-linecap:round;stroke-linejoin:round;stroke-miterlimit:10;" x1="1052.5" y1="176.3" x2="1052.5" y2="168.8"/>
	<polygon style="fill:#FFFFFF;" points="1071.9,150.4 1071.9,152.1 1073.9,152.1 1074.1,150.4 	"/>
	<polygon style="fill:#FFFFFF;" points="1089.3,152.1 1091.3,152.1 1091.3,150.4 1089.1,150.4 	"/>
	<g>
		<g>
			<rect x="1084.1" y="130.2" style="fill:#89B37B;" width="2.7" height="1.6"/>
		</g>
	</g>
</g>
<g>
	<polygon style="fill:#93D5D8;" points="389.8,497.3 438,454.9 490.4,458.4 447.9,501 	"/>
	
		<rect x="386.8" y="499.1" transform="matrix(0.9979 6.511556e-02 -6.511556e-02 0.9979 36.2538 -25.9339)" style="fill:#89B37B;" width="58.3" height="88.3"/>
	
		<rect x="383.6" y="587.2" transform="matrix(0.9979 6.511556e-02 -6.511556e-02 0.9979 39.4831 -25.6172)" style="fill:#679840;" width="58.3" height="11.3"/>
	<g>
		<path style="fill:#ECC438;" d="M400.4,526.2l-7-0.5c-1.2-0.1-2.1-1.1-2-2.3l1-15.9c0.1-1.2,1.1-2.1,2.3-2l7,0.5
			c1.2,0.1,2.1,1.1,2,2.3l-1,15.9C402.7,525.3,401.6,526.2,400.4,526.2z"/>
		<path style="fill:#ECC438;" d="M440.4,528.8l-7-0.5c-1.2-0.1-2.1-1.1-2-2.3l1-15.9c0.1-1.2,1.1-2.1,2.3-2l7,0.5
			c1.2,0.1,2.1,1.1,2,2.3l-1,15.9C442.6,527.9,441.6,528.8,440.4,528.8z"/>
		<path style="fill:#ECC438;" d="M426.5,527.9l-19.1-1.2c-1.2-0.1-2.1-1.1-2-2.3l1-15.9c0.1-1.2,1.1-2.1,2.3-2l19.1,1.2
			c1.2,0.1,2.1,1.1,2,2.3l-1,15.9C428.7,527,427.7,527.9,426.5,527.9z"/>
	</g>
	<g>
		<path style="fill:#ECC438;" d="M398.4,561.5l-7.5-0.5c-1-0.1-1.8-1-1.8-2l0.8-11.6c0.1-1,1-1.8,2-1.8l7.5,0.5c1,0.1,1.8,1,1.8,2
			l-0.8,11.6C400.3,560.8,399.4,561.6,398.4,561.5z"/>
		<path style="fill:#ECC438;" d="M438.4,564.2l-7.5-0.5c-1-0.1-1.8-1-1.8-2l0.8-11.6c0.1-1,1-1.8,2-1.8l7.5,0.5c1,0.1,1.8,1,1.8,2
			l-0.8,11.6C440.3,563.4,439.4,564.2,438.4,564.2z"/>
		<path style="fill:#ECC438;" d="M424.4,563.2l-19.6-1.3c-1-0.1-1.8-1-1.8-2l0.8-11.6c0.1-1,1-1.8,2-1.8l19.6,1.3c1,0.1,1.8,1,1.8,2
			l-0.8,11.6C426.4,562.5,425.5,563.3,424.4,563.2z"/>
	</g>
	<g>
		
			<rect x="406.3" y="536.1" transform="matrix(0.9979 6.511556e-02 -6.511556e-02 0.9979 36.0538 -25.9474)" style="fill:#679840;" width="19.7" height="8.1"/>
		
			<rect x="408.2" y="537.6" transform="matrix(0.9979 6.511556e-02 -6.511556e-02 0.9979 36.0538 -25.9474)" style="fill:#ECC438;" width="15.8" height="5.1"/>
	</g>
	<line style="fill:none;stroke:#EEDB9B;stroke-width:0.3534;stroke-miterlimit:10;" x1="389.6" y1="500.1" x2="447.8" y2="503.9"/>
	
		<ellipse transform="matrix(6.511556e-02 -0.9979 0.9979 6.511556e-02 -190.2384 953.2209)" style="fill:#93D5D8;" cx="413.6" cy="578.1" rx="4.5" ry="5"/>
	
		<ellipse transform="matrix(6.511556e-02 -0.9979 0.9979 6.511556e-02 -190.2384 953.2209)" style="fill:#ECC438;" cx="413.6" cy="578.1" rx="3.2" ry="3.6"/>
	
		<ellipse transform="matrix(6.511556e-02 -0.9979 0.9979 6.511556e-02 -177.7355 978.8055)" style="fill:#93D5D8;stroke:#FFFFFF;stroke-width:0.1767;stroke-miterlimit:10;" cx="433.5" cy="584.3" rx="1.6" ry="1.9"/>
	
		<ellipse transform="matrix(6.511556e-02 -0.9979 0.9979 6.511556e-02 -173.6743 983.7498)" style="fill:#93D5D8;stroke:#FFFFFF;stroke-width:0.1767;stroke-miterlimit:10;" cx="438.2" cy="584.6" rx="1.6" ry="1.9"/>
	
		<ellipse transform="matrix(6.511556e-02 -0.9979 0.9979 6.511556e-02 -216.0029 932.2177)" style="fill:#ECC438;stroke:#FFFFFF;stroke-width:0.1767;stroke-miterlimit:10;" cx="389.5" cy="581.4" rx="1.6" ry="1.9"/>
	
		<ellipse transform="matrix(6.511556e-02 -0.9979 0.9979 6.511556e-02 -211.9417 937.1619)" style="fill:#ECC438;stroke:#FFFFFF;stroke-width:0.1767;stroke-miterlimit:10;" cx="394.2" cy="581.7" rx="1.6" ry="1.9"/>
	
		<ellipse transform="matrix(6.511556e-02 -0.9979 0.9979 6.511556e-02 -199.0041 918.2548)" style="fill:#679840;stroke:#FFFFFF;stroke-width:0.1767;stroke-miterlimit:10;" cx="390.6" cy="565.3" rx="1.6" ry="1.9"/>
	
		<ellipse transform="matrix(6.511556e-02 -0.9979 0.9979 6.511556e-02 -203.3871 921.855)" style="fill:#679840;stroke:#FFFFFF;stroke-width:0.1767;stroke-miterlimit:10;" cx="390.3" cy="569.5" rx="1.6" ry="1.9"/>
	<g>
		<path style="fill:#FFFFFF;" d="M428.7,590.9L428.7,590.9l-0.7,0.3l-0.1-0.4l0.9-0.4l0.4,0l-0.3,3.9l-0.5,0L428.7,590.9z"/>
		<path style="fill:#FFFFFF;" d="M430.4,593.4c0-0.5,0.3-0.8,0.8-1l0,0c-0.4-0.2-0.6-0.6-0.6-0.9c0-0.6,0.6-1,1.3-1
			c0.8,0,1.1,0.5,1.1,1c0,0.3-0.2,0.7-0.7,0.9l0,0c0.5,0.2,0.7,0.6,0.7,1.1c0,0.7-0.7,1.1-1.4,1C430.8,594.5,430.4,594,430.4,593.4z
			 M432.5,593.5c0-0.5-0.3-0.7-0.8-0.9c-0.5,0.1-0.7,0.4-0.8,0.8c0,0.4,0.2,0.8,0.7,0.8C432.2,594.2,432.5,593.9,432.5,593.5z
			 M431.2,591.5c0,0.4,0.3,0.6,0.7,0.8c0.3-0.1,0.6-0.3,0.6-0.7c0-0.3-0.1-0.6-0.6-0.7C431.5,590.9,431.2,591.1,431.2,591.5z"/>
	</g>
	<polygon style="fill:#EEDB9B;" points="435,500.2 402.7,498.1 407.3,489.7 431.6,491.3 	"/>
	<g>
		<path style="fill:#679840;" d="M414.3,493.2L414.3,493.2l-0.7,0.3l-0.1-0.4l0.9-0.4l0.4,0l-0.3,3.9l-0.5,0L414.3,493.2z"/>
		<path style="fill:#679840;" d="M416,495.7c0-0.5,0.3-0.8,0.8-1l0,0c-0.4-0.2-0.6-0.6-0.6-0.9c0-0.6,0.6-1,1.3-1
			c0.8,0,1.1,0.5,1.1,1c0,0.3-0.2,0.7-0.7,0.9l0,0c0.5,0.2,0.7,0.6,0.7,1.1c0,0.7-0.7,1.1-1.4,1C416.4,496.8,416,496.3,416,495.7z
			 M418.1,495.8c0-0.5-0.3-0.7-0.8-0.9c-0.5,0.1-0.7,0.4-0.8,0.8c0,0.4,0.2,0.8,0.7,0.8C417.7,496.5,418.1,496.2,418.1,495.8z
			 M416.8,493.8c0,0.4,0.3,0.6,0.7,0.8c0.3-0.1,0.6-0.3,0.6-0.7c0-0.3-0.1-0.6-0.6-0.7C417.1,493.2,416.8,493.4,416.8,493.8z"/>
	</g>
	<g>
		<polygon style="fill:#ECC438;" points="484,556.6 441.5,600.4 447.9,501 490.4,458.4 		"/>
		<g>
			<g>
				<path style="fill:#EEDB9B;" d="M454.1,520.9l-4.3,4.5c-0.3,0.3-0.4,0.1-0.4-0.4l1.2-18.5c0-0.5,0.3-1.1,0.5-1.3l4.3-4.5
					c0.3-0.3,0.4-0.1,0.4,0.4l-1.2,18.5C454.6,520,454.4,520.6,454.1,520.9z"/>
				<path style="fill:#89B37B;" d="M454.9,507.1l-4.1,4.2c-0.1,0.1-0.2,0-0.2-0.2l0.3-4.2c0-0.2,0.1-0.5,0.2-0.6l4.1-4.2
					c0.1-0.1,0.2,0,0.2,0.2l-0.3,4.2C455.2,506.7,455,507,454.9,507.1z"/>
			</g>
			<g>
				<path style="fill:#EEDB9B;" d="M460.3,514.5L456,519c-0.3,0.3-0.4,0.1-0.4-0.4l1.2-18.5c0-0.5,0.3-1.1,0.5-1.3l4.3-4.5
					c0.3-0.3,0.4-0.1,0.4,0.4l-1.2,18.5C460.8,513.6,460.6,514.2,460.3,514.5z"/>
				<path style="fill:#89B37B;" d="M461.1,500.8L457,505c-0.1,0.1-0.2,0-0.2-0.2l0.3-4.2c0-0.2,0.1-0.5,0.2-0.6l4.1-4.2
					c0.1-0.1,0.2,0,0.2,0.2l-0.3,4.2C461.3,500.4,461.2,500.7,461.1,500.8z"/>
			</g>
			<g>
				<path style="fill:#EEDB9B;" d="M466.5,508.2l-4.3,4.5c-0.3,0.3-0.4,0.1-0.4-0.4l1.2-18.5c0-0.5,0.3-1.1,0.5-1.3l4.3-4.5
					c0.3-0.3,0.4-0.1,0.4,0.4l-1.2,18.5C467,507.3,466.7,507.9,466.5,508.2z"/>
				<path style="fill:#89B37B;" d="M467.2,494.4l-4.1,4.2c-0.1,0.1-0.2,0-0.2-0.2l0.3-4.2c0-0.2,0.1-0.5,0.2-0.6l4.1-4.2
					c0.1-0.1,0.2,0,0.2,0.2l-0.3,4.2C467.5,494,467.4,494.3,467.2,494.4z"/>
			</g>
			<g>
				<path style="fill:#EEDB9B;" d="M472.6,501.8l-4.3,4.5c-0.3,0.3-0.4,0.1-0.4-0.4l1.2-18.5c0-0.5,0.3-1.1,0.5-1.3l4.3-4.5
					c0.3-0.3,0.4-0.1,0.4,0.4l-1.2,18.5C473.1,500.9,472.9,501.5,472.6,501.8z"/>
				<path style="fill:#89B37B;" d="M473.4,488.1l-4.1,4.2c-0.1,0.1-0.2,0-0.2-0.2l0.3-4.2c0-0.2,0.1-0.5,0.2-0.6l4.1-4.2
					c0.1-0.1,0.2,0,0.2,0.2l-0.3,4.2C473.6,487.7,473.5,488,473.4,488.1z"/>
			</g>
			<g>
				<path style="fill:#EEDB9B;" d="M478.8,495.5l-4.3,4.5c-0.3,0.3-0.4,0.1-0.4-0.4l1.2-18.5c0-0.5,0.3-1.1,0.5-1.3l4.3-4.5
					c0.3-0.3,0.4-0.1,0.4,0.4l-1.2,18.5C479.3,494.6,479,495.2,478.8,495.5z"/>
				<path style="fill:#89B37B;" d="M479.6,481.7l-4.1,4.2c-0.1,0.1-0.2,0-0.2-0.2l0.3-4.2c0-0.2,0.1-0.5,0.2-0.6l4.1-4.2
					c0.1-0.1,0.2,0,0.2,0.2l-0.3,4.2C479.8,481.3,479.7,481.6,479.6,481.7z"/>
			</g>
			<g>
				<path style="fill:#EEDB9B;" d="M484.9,489.1l-4.3,4.5c-0.3,0.3-0.4,0.1-0.4-0.4l1.2-18.5c0-0.5,0.3-1.1,0.5-1.3l4.3-4.5
					c0.3-0.3,0.4-0.1,0.4,0.4l-1.2,18.5C485.4,488.2,485.2,488.8,484.9,489.1z"/>
				<path style="fill:#89B37B;" d="M485.7,475.4l-4.1,4.2c-0.1,0.1-0.2,0-0.2-0.2l0.3-4.2c0-0.2,0.1-0.5,0.2-0.6l4.1-4.2
					c0.1-0.1,0.2,0,0.2,0.2l-0.3,4.2C485.9,475,485.8,475.3,485.7,475.4z"/>
			</g>
		</g>
		<path style="fill:#EEDB9B;" d="M472.3,535.1L457.8,550c-0.7,0.7-1.1,0.3-1.1-0.9l0.7-11.1c0.1-1.2,0.7-2.7,1.3-3.4l14.5-14.9
			c0.7-0.7,1.1-0.3,1.1,0.9l-0.7,11.1C473.5,532.9,472.9,534.5,472.3,535.1z"/>
		<path style="fill:#679840;" d="M472.8,568.4l-20.2,20.8l0.9-6.8c0.5-3.4,1.6-6.6,2.7-7.7l14.4-14.8c1.1-1.2,2,0,2,2.8L472.8,568.4
			z"/>
		<g>
			<polygon style="fill:#89B37B;" points="459.3,548.5 458.7,549.2 459.7,533.8 460.3,533.1 			"/>
			<polygon style="fill:#89B37B;" points="465.4,542.2 464.7,542.9 465.7,527.5 466.4,526.9 			"/>
			<polygon style="fill:#89B37B;" points="471.5,535.9 470.9,536.6 471.9,521.2 472.5,520.6 			"/>
			<polygon style="fill:#89B37B;" points="457.3,542 457.4,540.2 474.2,522.8 474.1,524.6 			"/>
		</g>
		<g>
			<polygon style="fill:#EEDB9B;" points="450.3,586.3 445,591.7 448,545.8 453.3,540.4 			"/>
			<polygon style="fill:#679840;" points="450.3,586.3 445,591.7 446.5,568.8 451.8,563.3 			"/>
			<line style="fill:none;stroke:#ECC438;stroke-width:0.3534;stroke-miterlimit:10;" x1="449.2" y1="566.1" x2="447.7" y2="589"/>
		</g>
		<g>
			<polygon style="fill:#EEDB9B;" points="481.1,554.6 475.8,560 478.8,514 484.1,508.6 			"/>
			<polygon style="fill:#679840;" points="481.1,554.6 475.8,560 477.3,537 482.6,531.6 			"/>
			<line style="fill:none;stroke:#ECC438;stroke-width:0.3534;stroke-miterlimit:10;" x1="480" y1="534.3" x2="478.5" y2="557.3"/>
		</g>
	</g>
	<line style="fill:none;stroke:#EEDB9B;stroke-width:1.4137;stroke-miterlimit:10;" x1="405.6" y1="520.9" x2="429" y2="522.4"/>
	<polygon style="fill:#FFFFFF;" points="407.3,489.7 429.7,470.2 452.7,471.7 431.6,491.3 	"/>
	<polygon style="fill:#ECC438;" points="435,500.2 458.1,478 452.7,471.6 431.6,491.3 	"/>
	
		<line style="fill:none;stroke:#679840;stroke-width:2.474;stroke-linecap:round;stroke-linejoin:round;stroke-miterlimit:10;" x1="443.5" y1="471" x2="464.6" y2="431"/>
	
		<line style="fill:none;stroke:#679840;stroke-width:2.474;stroke-linecap:round;stroke-linejoin:round;stroke-miterlimit:10;" x1="450.6" y1="429.1" x2="479.4" y2="431"/>
</g>
<g>
	<path style="fill:#89B37B;" d="M990.2,676.7c-14.3-3.6-33.1-5.7-53.7-5.7s-39.3,2.2-53.7,5.7h-27.8V694c0,12.7,36.5,23,81.5,23
		c45,0,81.5-10.3,81.5-23v-17.3H990.2z"/>
	<ellipse style="fill:#FFFFFF;" cx="936.6" cy="676.7" rx="81.5" ry="23"/>
	<ellipse style="fill:#93D5D8;" cx="936.6" cy="675.8" rx="64.6" ry="18.3"/>
	<g>
		<path style="fill:#679840;" d="M975.2,684.4c-1,0-2-0.6-2.5-1.7c-0.6-1.4,0.1-2.9,1.5-3.5c1.6-0.7,2.1-1.6,2.3-2.2
			c0.8-2.3-0.7-5.8-1.3-7c0,0,0,0,0,0l-41.7-76.8c-0.7-1.3-0.2-2.9,1.1-3.6c1.3-0.7,2.9-0.2,3.6,1.1l41.7,76.8
			c0.4,0.8,3.4,6.3,1.7,11.3c-0.8,2.4-2.7,4.3-5.3,5.4C975.9,684.3,975.5,684.4,975.2,684.4z"/>
	</g>
	<g>
		<path style="fill:#679840;" d="M900.1,673.6c-0.9,0-1.7-0.4-2.2-1.2c-0.8-1.2-0.5-2.9,0.7-3.7l88.2-60c1.2-0.8,2.9-0.5,3.7,0.7
			c0.8,1.2,0.5,2.9-0.7,3.7l-88.2,60C901.1,673.5,900.6,673.6,900.1,673.6z"/>
	</g>
	<g>
		<g>
			<path style="fill:#679840;" d="M910.5,682.5c-2,0-3.8-0.3-5.6-0.8c-4.4-1.4-7.7-4.4-9.3-8.5c-3.3-8.4,0.9-20,10-27.6
				c1-0.8,2.5-0.7,3.3,0.3c0.8,1,0.7,2.5-0.3,3.3c-7.5,6.3-11.2,15.9-8.7,22.3c1.1,2.8,3.3,4.8,6.4,5.8c4.8,1.5,10.8,0.2,16.6-3.5
				c1.1-0.7,2.5-0.4,3.2,0.7c0.7,1.1,0.4,2.5-0.7,3.2C920.5,680.8,915.3,682.5,910.5,682.5z"/>
		</g>
		<g>
			<polygon style="fill:#679840;" points="925.3,632.8 899.8,644.6 904,652.5 			"/>
		</g>
		<g>
			<polygon style="fill:#679840;" points="949.1,658.3 925,691.5 917,676.7 			"/>
		</g>
	</g>
	<polygon style="fill:#EEDB9B;" points="949.1,658.3 952.1,663.7 929.5,694 925,691.5 	"/>
	<polygon style="fill:#EEDB9B;" points="925.3,632.8 927.2,638.3 908.1,655.1 904,652.5 	"/>
	<ellipse style="fill:#EEDB9B;" cx="964.1" cy="674.3" rx="6.5" ry="3.4"/>
	<ellipse style="fill:#ECC438;" cx="955.6" cy="681" rx="6.5" ry="3.4"/>
	<ellipse style="fill:#EEDB9B;" cx="907.7" cy="687" rx="6.5" ry="3.4"/>
	<ellipse style="fill:#EEDB9B;" cx="887.1" cy="671.2" rx="6.5" ry="3.4"/>
	<ellipse style="fill:#ECC438;" cx="883.1" cy="674.9" rx="6.5" ry="3.4"/>
	<ellipse style="fill:#ECC438;" cx="991.4" cy="676.7" rx="6.5" ry="3.4"/>
	<path style="fill:#EEDB9B;" d="M975.9,615.9l5.2-3.5c1.1-0.7,1.4-2.2,0.6-3.2l-1.2-1.8c-0.7-1.1-2.2-1.4-3.2-0.6l-5.2,3.5
		c-1.1,0.7-1.4,2.2-0.6,3.2l1.2,1.8C973.3,616.3,974.8,616.6,975.9,615.9z"/>
	<path style="fill:#EEDB9B;" d="M983,626.4l4.9-3.3c1.1-0.8,1.4-2.3,0.7-3.5l-1.3-1.9c-0.8-1.1-2.3-1.4-3.5-0.7l-4.9,3.3
		c-1.1,0.8-1.4,2.3-0.7,3.5l1.3,1.9C980.3,626.8,981.9,627.1,983,626.4z"/>
	<g>
		<path style="fill:#FFFFFF;" d="M989.3,620.8l-1.8-2.7l8.9-6c-0.1-0.6-0.5-1.8-1.5-3.3L993,606c-1-1.5-2-2.3-2.5-2.7l-8.9,6
			l-1.8-2.7l9.3-6.2c0.7-0.5,1.9-0.7,3.8,0.7c0.9,0.7,1.9,1.9,2.8,3.1l1.9,2.8c2.8,4.2,2.4,6.6,1,7.5L989.3,620.8z"/>
	</g>
	
		<rect x="930.3" y="643.1" transform="matrix(0.556 0.8312 -0.8312 0.556 953.2324 -489.7921)" style="fill:#FFFFFF;" width="9.5" height="8.4"/>
	
		<rect x="930.3" y="645.4" transform="matrix(0.556 0.8312 -0.8312 0.556 953.2324 -489.7921)" style="fill:#ECC438;" width="9.5" height="3.9"/>
</g>
<g>
	<path style="fill:#89B37B;" d="M1329.1,603.3l-24.1-42.1l-207.8,0.2l-19.3,40.6c-5.1,10.7-2.5,23.6,6.4,31.5
		c7.4,6.5,16.9,12.7,26.3,12.7h178.9c8.2,0,16.1-1.9,22.9-5.7c8.2-4.5,14.5-10.8,18.1-17.8c0.4-0.8,0.8-1.9,1.1-3
		C1332.8,614.1,1331.9,608.3,1329.1,603.3z"/>
	<path style="fill:#EEDB9B;" d="M1270.9,597.2h-141.5c-15.9,0-29.6-11.5-32-27.2c-0.1-0.4-0.1-0.7-0.2-1.1
		c-1.6-12.9,8.5-24.2,21.5-24.2l164.4-0.1c15.4,0,26,15.6,20.1,29.8c-2.8,6.8-7.8,12.9-14.3,17.4
		C1283.7,595.3,1277.4,597.2,1270.9,597.2z"/>
	<g>
		<rect x="1126.6" y="533" style="fill:#89B37B;" width="78.9" height="23.2"/>
		<g>
			
				<line style="fill:none;stroke:#679840;stroke-width:1.0864;stroke-linecap:round;stroke-linejoin:round;stroke-miterlimit:10;" x1="1143.5" y1="533" x2="1143.5" y2="556.2"/>
			
				<line style="fill:none;stroke:#679840;stroke-width:1.0864;stroke-linecap:round;stroke-linejoin:round;stroke-miterlimit:10;" x1="1159.5" y1="533" x2="1159.5" y2="556.2"/>
			
				<line style="fill:none;stroke:#679840;stroke-width:1.0864;stroke-linecap:round;stroke-linejoin:round;stroke-miterlimit:10;" x1="1175.4" y1="533" x2="1175.4" y2="556.2"/>
			
				<line style="fill:none;stroke:#679840;stroke-width:1.0864;stroke-linecap:round;stroke-linejoin:round;stroke-miterlimit:10;" x1="1191.3" y1="533" x2="1191.3" y2="556.2"/>
		</g>
		
			<line style="fill:none;stroke:#679840;stroke-width:1.0864;stroke-linecap:round;stroke-linejoin:round;stroke-miterlimit:10;" x1="1126.6" y1="544.6" x2="1205.5" y2="544.6"/>
		
			<rect x="1121.6" y="530.5" style="fill:#FFFFFF;stroke:#231F20;stroke-width:0.4855;stroke-miterlimit:10;" width="88.8" height="2.5"/>
		
			<rect x="1122.3" y="533" style="fill:#EEDB9B;stroke:#679840;stroke-width:0.6518;stroke-miterlimit:10;" width="4.3" height="23.2"/>
		
			<rect x="1205.5" y="533" style="fill:#FFFFFF;stroke:#231F20;stroke-width:0.4855;stroke-miterlimit:10;" width="4.3" height="23.2"/>
	</g>
	<g>
		<rect x="1189.8" y="533" style="fill:#89B37B;" width="78.9" height="23.2"/>
		<g>
			
				<line style="fill:#FFFFFF;stroke:#231F20;stroke-width:0.4855;stroke-miterlimit:10;" x1="1206.8" y1="533" x2="1206.8" y2="556.2"/>
			
				<line style="fill:#FFFFFF;stroke:#3A472B;stroke-width:0.6858;stroke-linecap:round;stroke-linejoin:round;stroke-miterlimit:10;" x1="1222.7" y1="533" x2="1222.7" y2="556.2"/>
			
				<line style="fill:#FFFFFF;stroke:#507035;stroke-width:0.8861;stroke-linecap:round;stroke-linejoin:round;stroke-miterlimit:10;" x1="1238.6" y1="533" x2="1238.6" y2="556.2"/>
			
				<line style="fill:none;stroke:#679840;stroke-width:1.0864;stroke-linecap:round;stroke-linejoin:round;stroke-miterlimit:10;" x1="1254.6" y1="533" x2="1254.6" y2="556.2"/>
		</g>
		
			<line style="fill:none;stroke:#679840;stroke-width:1.0864;stroke-linecap:round;stroke-linejoin:round;stroke-miterlimit:10;" x1="1189.8" y1="544.6" x2="1268.8" y2="544.6"/>
		
			<rect x="1184.9" y="530.5" style="fill:#FFFFFF;stroke:#231F20;stroke-width:0.4855;stroke-miterlimit:10;" width="88.8" height="2.5"/>
		
			<rect x="1185.5" y="533" style="fill:#FFFFFF;stroke:#231F20;stroke-width:0.4855;stroke-miterlimit:10;" width="4.3" height="23.2"/>
		
			<rect x="1268.8" y="533" style="fill:#EEDB9B;stroke:#679840;stroke-width:0.6518;stroke-miterlimit:10;" width="4.3" height="23.2"/>
	</g>
	<g>
		<rect x="1162.1" y="548.6" style="fill:#89B37B;" width="78.9" height="23.2"/>
		<g>
			
				<line style="fill:none;stroke:#679840;stroke-width:1.0864;stroke-linecap:round;stroke-linejoin:round;stroke-miterlimit:10;" x1="1179" y1="548.6" x2="1179" y2="571.8"/>
			
				<line style="fill:none;stroke:#679840;stroke-width:1.0864;stroke-linecap:round;stroke-linejoin:round;stroke-miterlimit:10;" x1="1195" y1="548.6" x2="1195" y2="571.8"/>
			
				<line style="fill:none;stroke:#679840;stroke-width:1.0864;stroke-linecap:round;stroke-linejoin:round;stroke-miterlimit:10;" x1="1210.9" y1="548.6" x2="1210.9" y2="571.8"/>
			
				<line style="fill:none;stroke:#679840;stroke-width:1.0864;stroke-linecap:round;stroke-linejoin:round;stroke-miterlimit:10;" x1="1226.8" y1="548.6" x2="1226.8" y2="571.8"/>
		</g>
		
			<line style="fill:none;stroke:#679840;stroke-width:1.0864;stroke-linecap:round;stroke-linejoin:round;stroke-miterlimit:10;" x1="1162.1" y1="560.2" x2="1241" y2="560.2"/>
		
			<rect x="1157.2" y="546.1" style="fill:#FFFFFF;stroke:#231F20;stroke-width:0.4855;stroke-miterlimit:10;" width="88.8" height="2.5"/>
		
			<rect x="1157.8" y="548.6" style="fill:#EEDB9B;stroke:#679840;stroke-width:0.6518;stroke-miterlimit:10;" width="4.3" height="23.2"/>
		
			<rect x="1241" y="548.6" style="fill:#EEDB9B;stroke:#679840;stroke-width:0.6518;stroke-miterlimit:10;" width="4.3" height="23.2"/>
	</g>
	<g>
		<path style="fill:#FFFFFF;stroke:#93D5D8;stroke-width:0.4345;stroke-miterlimit:10;" d="M1115.3,532.9c0,0,34.9-17.1,50-35
			c0,0,26.6,26.4,52.7,35l-54.4,9.4L1115.3,532.9z"/>
		<polygon style="fill:#FFFFFF;stroke:#93D5D8;stroke-width:0.4345;stroke-miterlimit:10;" points="1166.1,491.3 1154.7,504.7 
			1177.4,504.7 		"/>
	</g>
	<g>
		<path style="fill:#FFFFFF;stroke:#93D5D8;stroke-width:0.4345;stroke-miterlimit:10;" d="M1178.5,532.9c0,0,34.9-17.1,50-35
			c0,0,26.6,26.4,52.7,35l-54.4,9.4L1178.5,532.9z"/>
		<polygon style="fill:#FFFFFF;stroke:#93D5D8;stroke-width:0.4345;stroke-miterlimit:10;" points="1229.3,491.3 1217.9,504.7 
			1240.7,504.7 		"/>
	</g>
	<g>
		<path style="fill:#FFFFFF;stroke:#93D5D8;stroke-width:0.4345;stroke-miterlimit:10;" d="M1150.2,548.8c0,0,34.9-17.1,50-35
			c0,0,26.6,26.4,52.7,35l-54.4,8L1150.2,548.8z"/>
		<polygon style="fill:#FFFFFF;stroke:#93D5D8;stroke-width:0.4345;stroke-miterlimit:10;" points="1201,507.1 1189.6,520.6 
			1212.4,520.6 		"/>
	</g>
	<g>
		
			<line style="fill:none;stroke:#679840;stroke-width:1.3036;stroke-miterlimit:10;" x1="1166.1" y1="491.3" x2="1166.1" y2="479.5"/>
		
			<rect x="1164" y="490.1" style="fill:#FFFFFF;stroke:#93D5D8;stroke-width:0.4345;stroke-miterlimit:10;" width="4.2" height="2.5"/>
	</g>
	<g>
		<line style="fill:none;stroke:#679840;stroke-width:1.3036;stroke-miterlimit:10;" x1="1201" y1="507" x2="1201" y2="495.3"/>
		
			<rect x="1198.9" y="505.9" style="fill:#FFFFFF;stroke:#93D5D8;stroke-width:0.4345;stroke-miterlimit:10;" width="4.2" height="2.5"/>
	</g>
	<g>
		
			<line style="fill:none;stroke:#679840;stroke-width:1.3036;stroke-miterlimit:10;" x1="1229.3" y1="491.3" x2="1229.3" y2="479.5"/>
		
			<rect x="1227.2" y="490.1" style="fill:#FFFFFF;stroke:#93D5D8;stroke-width:0.4345;stroke-miterlimit:10;" width="4.2" height="2.5"/>
	</g>
	<g>
		<polygon style="fill:#FFFFFF;" points="1216.8,587.6 1181,587.6 1187.6,577.6 1210.3,577.6 		"/>
		<polygon style="fill:#93D5D8;stroke:#89B37B;stroke-width:0.2173;stroke-miterlimit:10;" points="1200.1,556.6 1197.8,556.6 
			1197.8,556.8 1190.9,582.4 1192.9,582.3 1197.8,564 1197.8,585.1 1199.8,585.1 1199.8,563.6 1205,582.3 1207,582.2 		"/>
		<rect x="1181" y="587.6" style="fill:#ECC438;" width="35.8" height="5.4"/>
	</g>
	<g>
		<polygon style="fill:#FFFFFF;" points="1169.9,580.2 1134.1,580.2 1140.6,570.3 1163.4,570.3 		"/>
		<polygon style="fill:#93D5D8;stroke:#89B37B;stroke-width:0.2173;stroke-miterlimit:10;" points="1153.2,549.3 1150.8,549.3 
			1150.8,549.4 1143.9,575 1145.9,575 1150.8,556.7 1150.8,577.8 1152.9,577.8 1152.9,556.3 1158.1,575 1160.1,574.8 		"/>
		<rect x="1134.1" y="580.2" style="fill:#ECC438;" width="35.8" height="5.4"/>
	</g>
	<g>
		<polygon style="fill:#FFFFFF;" points="1131.6,559 1102.5,559 1107.8,550.9 1126.3,550.9 		"/>
		<polygon style="fill:#93D5D8;stroke:#89B37B;stroke-width:0.2173;stroke-miterlimit:10;" points="1118,533.2 1116.1,533.2 
			1110.5,554.8 1112.1,554.7 1116.1,539.8 1116.1,557 1117.8,557 1117.8,539.5 1122,554.7 1123.6,554.6 		"/>
		<rect x="1102.5" y="559" style="fill:#ECC438;" width="29.1" height="4.4"/>
	</g>
	<g>
		<polygon style="fill:#FFFFFF;" points="1295.8,559 1266.7,559 1272,550.9 1290.5,550.9 		"/>
		<polygon style="fill:#93D5D8;stroke:#89B37B;stroke-width:0.2173;stroke-miterlimit:10;" points="1282.1,533 1280.2,533 
			1274.6,554.8 1276.3,554.7 1280.2,539.8 1280.2,557 1281.9,557 1281.9,539.5 1286.1,554.7 1287.8,554.6 		"/>
		<rect x="1266.7" y="559" style="fill:#ECC438;" width="29.1" height="4.4"/>
	</g>
	<g>
		<polygon style="fill:#FFFFFF;" points="1268.8,580.2 1233,580.2 1239.5,570.3 1262.3,570.3 		"/>
		<polygon style="fill:#93D5D8;stroke:#89B37B;stroke-width:0.2173;stroke-miterlimit:10;" points="1252,549.3 1249.7,549.3 
			1249.7,549.4 1242.8,575 1244.8,575 1249.7,556.7 1249.7,577.8 1251.8,577.8 1251.8,556.3 1257,575 1259,574.8 		"/>
		<rect x="1233" y="580.2" style="fill:#ECC438;" width="35.8" height="5.4"/>
	</g>
	<rect x="1226.8" y="606.3" style="fill:#EEDB9B;" width="49.8" height="3.9"/>
	<polygon style="fill:#ECC438;" points="1276.6,606.3 1226.8,606.3 1230,602.4 1273.4,602.4 	"/>
	<polygon style="fill:#FFFFFF;" points="1285.5,646.5 1217.9,646.5 1226.8,610.2 1276.6,610.2 	"/>
	<path style="fill:#679840;" d="M1234.4,646.5c0-15.9,7.8-28.8,17.3-28.8s17.3,12.9,17.3,28.8H1234.4z"/>
	<circle style="fill:#679840;" cx="1094.4" cy="604" r="13.7"/>
	<circle style="fill:#679840;" cx="1157.8" cy="612.9" r="13.7"/>
	<circle style="fill:#679840;" cx="1301.7" cy="587.6" r="13.7"/>
	<circle style="fill:#ECC438;" cx="1133.8" cy="630.2" r="13.7"/>
	<circle style="fill:#ECC438;" cx="1210.1" cy="610.5" r="9.1"/>
	<circle style="fill:#679840;" cx="1201.6" cy="622" r="9.1"/>
	<circle style="fill:#EEDB9B;" cx="1162.2" cy="620.7" r="7.7"/>
	<circle style="fill:#EEDB9B;" cx="1297.3" cy="610.5" r="7.7"/>
	<circle style="fill:#ECC438;" cx="1102.5" cy="615.1" r="6.8"/>
</g>
<g>
	<circle style="fill:#5DC2A5;" cx="649.7" cy="576.7" r="15.9"/>
	<ellipse style="fill:#5DC2A5;" cx="627" cy="567" rx="22.4" ry="24"/>
	
		<line style="fill:none;stroke:#F2652D;stroke-width:3.45;stroke-linecap:round;stroke-linejoin:round;stroke-miterlimit:10;" x1="627" y1="629.1" x2="627" y2="563.2"/>
	
		<line style="fill:none;stroke:#F2652D;stroke-width:3.45;stroke-linecap:round;stroke-linejoin:round;stroke-miterlimit:10;" x1="627" y1="582.1" x2="636.7" y2="571.1"/>
	
		<line style="fill:none;stroke:#F2652D;stroke-width:3.45;stroke-linecap:round;stroke-linejoin:round;stroke-miterlimit:10;" x1="627" y1="585.9" x2="616.7" y2="579"/>
</g>
<g>
	<ellipse style="fill:#5DC2A5;" cx="591.6" cy="590.5" rx="16.4" ry="18.1"/>
	
		<line style="fill:none;stroke:#F2652D;stroke-width:3.45;stroke-linecap:round;stroke-linejoin:round;stroke-miterlimit:10;" x1="593" y1="631.7" x2="593" y2="592.6"/>
	
		<line style="fill:none;stroke:#F2652D;stroke-width:3.45;stroke-linecap:round;stroke-linejoin:round;stroke-miterlimit:10;" x1="593" y1="600" x2="598.8" y2="593.5"/>
	
		<line style="fill:none;stroke:#F2652D;stroke-width:3.45;stroke-linecap:round;stroke-linejoin:round;stroke-miterlimit:10;" x1="593" y1="606" x2="586.9" y2="601.9"/>
	<circle style="fill:#5DC2A5;" cx="573.8" cy="601.6" r="11.6"/>
	<circle style="fill:#5DC2A5;" cx="609.3" cy="598.9" r="8.1"/>
</g>
<g>
	<ellipse style="fill:#5DC2A5;" cx="667.8" cy="608.9" rx="16.4" ry="18.1"/>
	
		<line style="fill:none;stroke:#F2652D;stroke-width:3.45;stroke-linecap:round;stroke-linejoin:round;stroke-miterlimit:10;" x1="669.2" y1="650.1" x2="669.2" y2="611"/>
	
		<line style="fill:none;stroke:#F2652D;stroke-width:3.45;stroke-linecap:round;stroke-linejoin:round;stroke-miterlimit:10;" x1="669.2" y1="618.4" x2="675" y2="611.9"/>
	
		<line style="fill:none;stroke:#F2652D;stroke-width:3.45;stroke-linecap:round;stroke-linejoin:round;stroke-miterlimit:10;" x1="669.2" y1="624.4" x2="663.1" y2="620.3"/>
	<circle style="fill:#5DC2A5;" cx="650" cy="620" r="11.6"/>
	<circle style="fill:#5DC2A5;" cx="685.6" cy="617.3" r="8.1"/>
</g>
<g>
	<path d="M752.1,765.9c-0.5,0.6-1.4,1.6-2.1,1.9c0,0-0.2,0.1-0.2,0.1c-0.4-0.1,0.3-0.6,0.4-0.7c0.6-0.6,1.3-1.4,1.5-2.2
		c0-0.1,0-0.3,0-0.4c0-0.1,0-0.1,0.1-0.1c0.2,0,1,0.2,1,0.5c0,0.2-0.3,0.4-0.4,0.5c0.2,0,0.9-0.3,1.3-0.2c0.2,0,0.5,0.2,0.2,0.4
		C753.3,766,752.8,765.9,752.1,765.9z M751.7,768.8c-0.3-0.3-0.5-0.5-0.6-1.1c0.4,0,0.9,0,1.2,0.5
		C752.4,768.5,752.2,769.1,751.7,768.8z M756.4,770.8c0,0.6,0.4,2.2,0.1,3.3c-0.1,0.4-0.3,0.6-0.6,0.7c-0.6-1.1-0.8-1.2-1.8-2
		c0.3,0.2,1.3,0.7,1.6,0.6c0.1,0,0.1,0,0.2-0.1c0.2-0.5,0-4-0.5-4c-0.4,0-2,0.4-2.8,0.4c0,0.3,0,0.5,0.1,0.8c0.2,0,1.2-0.3,1.8-0.3
		c0.4,0,0.7,0.2,0.5,0.4c-0.4,0.3-1.8,0.4-2.3,0.5c0,0.3,0,0.6,0,0.8c0.3-0.1,1.8-0.4,2-0.4c0.2,0,0.4,0.2,0.3,0.4
		c-0.3,0.4-1.8,0.4-2.3,0.4c0,0.6-0.2,1.9-0.8,2.2c-0.3-0.2-0.4-0.7-0.3-1c0.1-0.2,0.2-0.5,0.3-0.7c0.2-0.7,0.4-2,0.2-2.8
		c0-0.2-0.4-0.9,0-0.8c0.6,0.1,1,0.1,1.6,0c0-0.7,0-1.6-0.4-2.2c-0.1-0.5,1.3,0,1.2,0.2c0,0.2-0.2,0.4-0.2,0.6
		c-0.1,0.4-0.1,0.9-0.1,1.3c0.5-0.1,0.8-0.3,1.1-0.4c0.3-0.1,0.5-0.1,0.8,0.1c0.2,0.1,0.3,0.2,0.6,0.5
		C756.4,769.7,756.4,770.2,756.4,770.8z M752.9,767.4c-0.3,0.2-1.1-0.7-1.2-0.9c0.5-0.1,1.1-0.2,1.3,0.3
		C753.1,767,753,767.3,752.9,767.4z M755.6,765.4c-0.5,0.5-1,1-1.7,1.2c-0.2,0-0.2-0.1-0.1-0.2c0.5-0.6,0.9-1,1.2-1.8
		c0.1-0.3-0.1-0.6,0.2-0.8c0.3,0,0.8,0.2,0.9,0.5c0.1,0.2-0.2,0.4-0.3,0.5c0.2,0,0.4,0,0.6-0.1c0.5-0.1,1.1-0.4,1.5-0.2
		c0.2,0.1,0.2,0.2,0.1,0.4C757.9,765.5,756,765.5,755.6,765.4z M757.1,767.8c-0.7,0.1-1.8,0.6-2.4,0.6c-0.2,0-0.2-0.2,0-0.3
		c0.4-0.3,0.8-0.5,1.2-0.8c0.2-0.2,0.1-0.7,0.5-0.5c0.1,0.1,0.7,0.6,0.8,0.7C757.3,767.7,757.3,767.8,757.1,767.8z M756.3,766.8
		c-0.3,0.1-0.9-0.7-1-0.9c0.5-0.2,1.3,0.1,1.3,0.5C756.5,766.5,756.5,766.7,756.3,766.8z"/>
	<path d="M772.1,771.4c-2.4,0-5,0.2-7.3,0.8c-0.5,0.1-1.1,0-1.5-0.4c0,0,0-0.1,0-0.1c1.2-0.1,2.3-0.3,3.4-0.4l0-2.8
		c-0.7,0.1-1.2,0.3-1.8-0.3c0.6,0,1.2-0.1,1.8-0.2c0-0.2,0-0.5-0.1-0.7c0-0.3,0.6,0,0.7,0c0.2,0.1,0.1,0.3,0,0.5
		c0.6-0.1,1.2-0.2,1.8-0.3c0-0.2,0-0.5-0.1-0.7c0-0.1-0.1-0.2-0.1-0.3c0-0.3,1,0,1,0.4c0,0.2-0.1,0.3-0.1,0.5
		c0.3-0.1,0.6-0.2,0.9-0.2c0.4-0.1,1.2,0.4,0.6,0.6c-0.2,0.1-1.2,0.2-1.5,0.2c0,1,0,1.9-0.1,2.9c1.1-0.1,2.4-0.7,3.4,0
		c0.1,0.1,0.3,0.3,0.3,0.5C773.4,771.6,772.4,771.4,772.1,771.4z M765,774.5c-0.4,0.1-0.4-0.1-0.1-0.3c0.7-0.5,1.7-1.2,2-2
		c0.1-0.2,0-0.3,0.2-0.3c0.4,0,1.1,0.2,0.8,0.7C767.1,773.4,766.1,774.3,765,774.5z M768.1,765.5c-0.4,0.2-1.1,0.2-1.5,0.1
		c-0.1,0.2-0.2,0.4-0.4,0.6c0.3-0.1,1.1-0.2,1.2,0.3c0,0.2,0,0.4-0.3,0.4c-0.4,0-0.8-0.4-1-0.6c-0.4,0.5-0.9,1-1.3,1.1
		c-0.1,0-0.2,0-0.1-0.1c0.5-0.5,1.2-1.7,1.3-2.4c0-0.2-0.3-0.5,0.1-0.6c0.2,0,0.8,0.1,1,0.3c0.2,0.1-0.2,0.6-0.3,0.7
		c0.4,0,1.1-0.4,1.4-0.3C768.6,765.2,768.4,765.4,768.1,765.5z M767.4,768.4v0.5c0.5-0.1,1.2-0.5,1.6-0.1c0.2,0.2,0,0.3-0.3,0.3
		c-0.5,0.1-1.2,0.1-1.4,0.1l0,0.7c0.3-0.1,1.5-0.4,1.7-0.1c0.2,0.2,0,0.3-0.4,0.4c-0.5,0.1-1.2,0.1-1.3,0.1l0,0.8
		c0.6-0.1,1.2-0.2,1.8-0.3c0-0.9,0-1.9,0-2.9C768.6,768.2,768,768.3,767.4,768.4z M771.9,765c-0.7,0.3-1.5,0.3-2.2,0.2
		c-0.2,0.3-0.8,1.2-1.6,1.6c-0.2,0.1-0.2,0-0.2-0.1c0.5-0.6,1.2-1.5,1.2-2.3c0-0.1-0.2-0.4,0-0.5c0.1,0,0.7,0,0.9,0.1
		c0.4,0.1,0,0.6-0.1,0.8c0.6-0.1,1.6-0.6,2.2-0.3C772.5,764.7,772.1,764.9,771.9,765z M770.5,774.4c-0.3-0.2-0.6-0.7-0.8-1
		c-0.3-0.5-0.9-0.9-1.3-1.4c-0.1-0.1,0.1-0.1,0.1-0.1c1,0.2,2.1,0.8,2.7,1.6C771.6,774,771.3,775,770.5,774.4z M769.4,765.8
		L769.4,765.8c1.1-0.7,1.9,0.4,1.3,0.6C770.3,766.5,769.6,766.1,769.4,765.8z"/>
	<path d="M779,773.5c0,0.1-0.1,0.2-0.2,0.2c-0.3-0.1-0.8-1.1-0.9-1.4c0-0.2,0.2-0.2,0.4-0.2c0.1,0,0.1-0.1,0.2-0.2
		c0.2-0.3,0.3-0.6,0.5-0.9c0.3-0.6,0.6-1.2,0.9-1.8C779.6,770.7,779.2,772.1,779,773.5z M779.5,768.9c-0.6,0.4-1.1-0.7-1.4-1.2
		c0.5,0,1.2,0.1,1.5,0.6C779.7,768.4,779.7,768.8,779.5,768.9z M778.8,765.2c0.6-0.1,1.9-0.1,1.7,0.8
		C779.9,766.8,779.1,765.7,778.8,765.2z M780,770c-0.1-0.4,0.1-0.9,0.1-1.3c0.2,0.3,0.8,1.4,0.3,1.6
		C780.2,770.3,780.1,770.2,780,770z M781.3,767.7c0.2,0,0.6-0.2,0.7-0.3c0-0.1,0-0.3,0-0.5c0.5,0.1,0.6,0.4,0.6,0.6
		c0,0.3-0.3,0.6-0.5,0.2c-0.2,0.2-0.7,0.5-1,0.8c-0.1,0-0.3-0.1-0.4-0.3c-0.1-0.3-0.1-0.3,0.1-0.5c0.2-0.2,0.4-0.5,0.6-0.8
		c-0.2,0-0.8,0.6-0.9,0.4c-0.1-0.1-0.1-0.2-0.2-0.3c-0.1-0.3,0.4-0.6,0.6-1c0.1-0.3,0.1-0.6,0.1-1c0-0.1,0-0.2,0.1-0.1
		c0.2,0,0.5,0.3,0.6,0.5c0,0.1,0,0.1,0,0.2c-0.3,0.3-0.5,0.7-0.7,1.1c0.2,0,0.5-0.2,0.6-0.2c0.2-0.3,0.3-0.7,0.3-1.1
		c0-0.3,0.9,0,0.7,0.2C782.3,766.3,781.6,767,781.3,767.7z M781.1,769.6c-0.2-0.1-0.2-0.4-0.3-0.6c0-0.1-0.1-0.2-0.1-0.3
		c0.5,0,0.7,0.4,0.7,0.6C781.5,769.6,781.3,769.8,781.1,769.6z M782,769.3c-0.2-0.1-0.3-0.7-0.3-1c0.5,0,0.7,0.4,0.7,0.7
		C782.3,769.3,782.2,769.4,782,769.3z M785.1,774.5c-0.6,0.7-0.8,0.4-0.9,0.3c-0.2-0.6-1-1.2-1.4-1.5c0.3,0.1,1.5,0.6,1.8,0.5
		c0.4-0.2,0.6-1.9,0.4-2c-0.2-0.1-1.8,0.2-2.1,0.2c-0.5,0.1-0.7,0.5-1,0.5c-0.2-0.1-0.2-0.3-0.3-0.4c0.3-0.5,0.5-0.7,0.3-1.3
		c0-0.1,0-0.2,0.2-0.2c0.8,0.2,1.4-0.1,2.2-0.3c0.1-0.1,0.2-0.3,0.2-0.5c-0.2-0.2-1.8,0.3-2.1,0.4c-0.3,0-0.5-0.2-0.6-0.4
		c0.7-0.1,1.9-0.2,2.5-0.5c0.1,0,0.2-0.1,0.3-0.1c0.3,0,0.7,0.2,0.9,0.4c0.1,0,0.2,0.2,0.1,0.3c-0.2,0.1-0.4,0.2-0.5,0.4
		c0.1,0.2,0.1,0.3-0.1,0.3c-0.2,0.1-0.5,0.1-0.7,0.1c-0.5,0.1-1,0.2-1.6,0.3c-0.1,0.1-0.1,0.3-0.1,0.5c0.9,0,1.8-0.1,2.6-0.6
		c0.2,0.1,1.1,0.3,0.9,0.7C785.6,772.5,785.9,773.7,785.1,774.5z M784.3,768.5c0.1,0,0.2,0.1,0.2,0.1c0.1,0.2-0.3,0.3-0.5,0.3
		c-0.4,0-0.8,0-1.1,0.3c-0.3-0.3-0.2-0.7-0.5-1.1c0,0,0-0.1,0.1-0.1c0.5,0,1.1-0.2,1.5-0.3c0.2-0.1,0.6,0.3,0.7,0.3
		C784.9,768.2,784.3,768.3,784.3,768.5z M784.1,767.4c-0.5,0.1-1.1,0.3-1.4-0.1c0.5-0.1,1.1-0.4,1.6-0.3
		C784.6,767,784.4,767.3,784.1,767.4z M784.7,765.7c-0.3,0.2-1.2,0.3-1.6,0.2c-0.2,0-0.3-0.1-0.4-0.3l1.5-0.4c0.2,0,0.5,0.1,0.5,0.2
		C784.8,765.6,784.8,765.7,784.7,765.7z M782.8,766.5c0.3-0.1,1-0.4,1.3-0.4c0.4,0,0.5,0.3,0.2,0.4
		C783.9,766.7,783.1,766.9,782.8,766.5z M783.1,768.3c0,0.1,0.1,0.3,0.1,0.4c0.5-0.1,0.6-0.1,0.7-0.6
		C783.7,768.1,783.2,768.2,783.1,768.3z M784.1,765c-0.4,0.1-0.7-0.7-0.9-0.9c0.4,0,1,0,1.1,0.5C784.4,764.8,784.3,765,784.1,765z
		 M785,769.1c-0.2,0-0.3-0.1-0.3-0.2c0-0.3,0.3-0.7,0.5-1C785.4,768.2,785.4,769,785,769.1z M785.8,767c0.1,0,0.6-0.1,0.7-0.2
		c0-0.1-0.1-0.2-0.1-0.4c0.5,0,0.8,0.3,0.8,0.6c0,0.5-0.4,0.4-0.5,0c-0.4,0.1-0.9,0.4-1.3,0.7c-0.2,0-0.3-0.3-0.3-0.4
		c0-0.1,0-0.2,0.1-0.3c0.4-0.3,0.5-0.5,0.8-0.9c-0.3,0.1-0.6,0.2-0.9,0.4c-0.1-0.1-0.3-0.5-0.2-0.6c0,0,0.1-0.2,0.2-0.2
		c0.3-0.4,0.6-0.7,0.6-1.2c0-0.1,0-0.2,0-0.3c0-0.4,0.6,0,0.8,0.2c0.1,0.1,0,0.1,0,0.2c-0.3,0.3-0.7,0.8-0.9,1.2
		c0.2,0,0.5-0.1,0.8-0.1c0.1-0.2,0.2-0.3,0.3-0.6c0-0.2,0-0.3,0.2-0.2c0.2,0,0.9,0.4,0.6,0.6C786.7,765.9,786,766.6,785.8,767z
		 M785.9,768.5c-0.1-0.2-0.2-0.5-0.2-0.6c0.6,0,0.8,0.3,0.8,0.6C786.5,768.8,786.2,769.1,785.9,768.5z M787.2,768.7
		c-0.1-0.1-0.7-0.9-0.8-1.1c0.3,0,1,0.1,1.1,0.6C787.6,768.3,787.6,768.9,787.2,768.7z"/>
</g>
<g>
	<path d="M860.8,565.1l-0.5-1.4l1.6-0.5l0.5,1.4l6.7-2.2l0.5,1.5l-6.7,2.2l0.4,1.2l5.5-1.8l2.2,6.6l-4,1.3c1.7,0.9,3.9,1.3,6.6,1.3
		l-0.2,1.7c-3.3-0.2-5.9-1.1-7.8-2.5l0,0l1.7,5.2l-1.6,0.5l-1.7-5.2l0,0c-0.5,2.2-2,4.4-4.6,6.6l-1.4-1.2c2.4-1.8,3.9-3.5,4.6-5
		l-4.1,1.3l-2.2-6.6l5.5-1.8l-0.4-1.2l-6.7,2.2l-0.5-1.5L860.8,565.1z M862.2,569.3l-3.9,1.3l0.4,1.3l3.9-1.3L862.2,569.3z
		 M859.5,574.4l3.9-1.3l-0.4-1.3l-3.9,1.3L859.5,574.4z M867.6,567.5l-3.9,1.3l0.4,1.3l3.9-1.3L867.6,567.5z M865,572.6l3.9-1.3
		l-0.4-1.3l-3.9,1.3L865,572.6z"/>
	<path d="M881.9,560.2l-0.3-0.8l-6.2,2l-0.4-1.3l6.2-2l-0.3-1l1.6-0.5l0.3,1l6.2-2l0.4,1.3l-6.2,2l0.3,0.8l5.7-1.9l0.4,1.3l-13,4.2
		l-0.4-1.3L881.9,560.2z M878.9,567l-1.1-3.3l11-3.6l1.1,3.3l-1.4,0.5l-0.2,1.2l4.1-1.4l0.4,1.3l-15.4,5l-0.4-1.3l4.2-1.4l-0.7-0.8
		L878.9,567z M892.6,570.8l-1.6,0.5l-0.2-0.6l-8.3,2.7l0.2,0.6l-1.6,0.5l-1.4-4.4l11.5-3.7L892.6,570.8z M887.6,561.8l-7.9,2.6
		l0.3,0.9l7.9-2.6L887.6,561.8z M890.4,569.3l-0.4-1.1l-8.3,2.7l0.4,1.1L890.4,569.3z M882.3,565.9l0.7,0.8l3.5-1.2l0.2-1.2
		L882.3,565.9z"/>
	<path d="M899.4,553.8l-0.7,1.4c-0.9-0.6-2-1.1-3.4-1.6l0.7-1.4C897.3,552.7,898.4,553.3,899.4,553.8z M900.1,555.5l0.4,1.3
		c-0.3,1.1-0.6,2.2-1,3.3l2.1-0.7l0.4,1.1c0.2,1.3,0.2,2.5,0.2,3.4c0.2,0.1,0.3,0.1,0.5,0.2c0.7,0.3,1.3,0.5,1.9,0.6
		c0.6,0,1.3-0.1,2.3-0.4c0.9-0.3,2-0.6,3.2-1c1.2-0.4,2.8-1,4.7-1.7l0.1,1.7l-4.2,1.4c-1.2,0.4-2.4,0.7-3.5,1.1
		c-1.2,0.4-2.1,0.5-2.8,0.5c-0.8-0.1-1.6-0.3-2.4-0.7c-0.2-0.1-0.3-0.1-0.5-0.1c-0.3,0.1-0.7,1-0.9,2.8l-1.5-0.7
		c0.3-1.8,0.8-2.9,1.4-3.4c0.1-0.9,0-1.8-0.1-2.8L898,562l-0.4-1.2c0.5-1.2,0.9-2.2,1.2-3.2l-2.3,0.8l-0.5-1.5L900.1,555.5z
		 M902.4,552.1c-0.4-0.4-0.8-0.7-1.3-1l1.3-1.1c0.5,0.4,1.1,0.9,1.7,1.5l1.9-0.6c0.2-0.8,0.4-1.5,0.5-2.3l1.7,0
		c-0.1,0.6-0.3,1.1-0.4,1.7l2.7-0.9l0.5,1.5l-4.7,1.5c0,0.4,0,0.8,0,1.2l3.9-1.3l2.8,8.6l-8.2,2.7l-2.8-8.6l2.5-0.8
		c0-0.4,0-0.8,0-1.2l-4.1,1.3l-0.5-1.5L902.4,552.1z M909.4,555.3l-0.3-1.1l-5.2,1.7l0.3,1.1L909.4,555.3z M910.2,557.7l-0.3-1
		l-5.2,1.7l0.3,1L910.2,557.7z M910.6,558.9l-5.2,1.7l0.4,1.1l5.2-1.7L910.6,558.9z"/>
</g>
<g>
	<path d="M913,709.4c-0.6,0.1-1.6,0.1-2.2,0.1c-0.5,0-1-0.8-1.3-1.2l-1.5-1.8c-0.2,0-0.4,0.1-0.6,0.1c-0.6,1.6-1.6,3.2-3.3,3.7
		l0-0.1c-0.2,0.5-0.3,0.9-0.5,1.4c-0.1,0.2-0.2,0.3-0.4,0.2c-0.1-0.2-0.7-1.2-0.4-1.4c0.7-0.5,1.2-1.1,1.6-1.8
		c0.1-0.2,0.3-0.4,0.4-0.6c0-0.1,0.1-0.1,0.2-0.1c0.1,0.1,0,0.2,0,0.2c-0.1,0.5-0.6,1.2-0.8,1.7c0,0.1-0.1,0.1-0.1,0.2
		c1-0.8,2.1-2.1,2.5-3.3c-0.8,0.2-1,0.5-1.6-0.2c0.6-0.1,1.2-0.2,1.8-0.4c0.1-0.4,0.2-0.9,0.1-1.3c-0.5,0.1-0.8-0.1-1.2-0.5
		c0.7-0.1,2.3-0.4,2.9-0.7c0.1,0,0.2-0.1,0.3-0.1c0.6-0.2,1.2,0.4,1,0.6c-0.2,0.1-1.9,0.5-2.2,0.6c0.2,0,0.3,0.1,0.3,0.3
		c-0.1,0.3-0.2,0.7-0.4,1c0.8-0.2,1.6-0.5,2.4-0.6c0.5-0.1,1.6,0.4,0.7,0.6c-0.4,0.1-0.7,0.1-1.1,0.1c-0.4,0-0.8,0.1-1.1,0.2
		c1.1,0.9,2,1.8,3.3,2.3c0.4,0.2,0.9,0.3,1.3,0.4C913.5,709.3,913.3,709.4,913,709.4z M904.3,707.7c-0.1,0.2-0.3,0.1-0.5,0
		c-0.5-0.2-0.8-0.9-1-1.3c0.5,0,1.5,0.1,1.6,0.6C904.4,707.3,904.4,707.6,904.3,707.7z M905.2,705.2c-0.3,0.3-0.9-0.3-1.1-0.5
		c-0.2-0.3-0.3-0.4-0.5-0.8c0.5-0.1,1.6,0.1,1.7,0.7C905.4,704.8,905.4,705.1,905.2,705.2z M905.5,711.8c-0.5,0.3-0.9,0.1-0.6-0.7
		c0.6-0.4,0.9-0.9,1.1-1.6c0.1,0.1,0.2,0.3,0.2,0.5C906.3,711,905.9,711.6,905.5,711.8z M907.9,712.8c-0.1,0.5-0.3,0.6-0.5,0.3
		c-0.3-0.4-0.4-1-0.3-1.4c0.1-0.2,0.2-1.1,0.2-1.3c0-0.7,0-1.7-0.3-2.4c-0.4-0.7,0.7-0.2,1,0.2l0.1,0.1
		C907.8,709.8,908.3,711.4,907.9,712.8z M909.1,711.5c-0.3-0.3-0.8-1.2-1-1.7c0-0.1,0-0.1,0.1-0.1c0.6,0.2,1.3,0.6,1.4,1.3
		C909.8,711.4,909.6,711.9,909.1,711.5z M911.3,712c-0.4,0.1-0.7-0.6-0.9-0.9l-0.9-1.5c0.6,0.3,1.7,0.9,2,1.5
		C911.6,711.4,911.6,711.9,911.3,712z"/>
	<path d="M918.4,711.9c-0.3,0.1-0.4-0.1-0.5-0.4c-0.1-0.4,0.1-0.8,0.2-1.1c0.1-0.3,0.3-0.8,0.3-1.1
		C919.2,709.9,918.9,711.7,918.4,711.9z M926,709.7c-0.1,0.6-0.2,1.6-0.5,2.5c-0.2,0.6-0.5,1.1-1.1,1.3c-0.2,0.1-0.4,0.1-0.4-0.2
		c-0.1-0.8-0.6-1.2-1.1-1.8c0.2,0.1,0.9,0.3,1.3,0.4c0.3,0,0.4,0,0.4-0.2c0.3-0.7,0.5-1.4,0.5-2.1c0-0.3,0-0.6-0.1-0.9
		c-0.1-0.4-0.3-0.5-0.7-0.4c-1.3,0.2-2.5,0.4-3.8,0.6c-0.2,0-0.4,0.2-0.5,0.4c-0.1,0.1-0.2,0.3-0.3,0.2c-0.6-0.4-0.1-1.6-0.1-2.2
		c0-1,0.1-1.9-0.1-2.9c-0.1-0.1-0.2-0.3-0.1-0.4c0.4-0.1,0.6,0.2,0.9,0.2c0.2,0,1.5-0.3,1.8-0.3c0.5-0.1,1.4-0.4,1.8-0.4
		c0.2,0,0.6,0,0.7,0.2c0.2,0.3-0.1,0.4-0.3,0.4c-0.5,0.1-1.1,0.3-1.7,0.4c0.1,0.3,0,0.6,0,0.8c0.3,0,0.8-0.2,1.1,0
		c0.4,0.2,0.3,0.3,0,0.4c-0.3,0.2-1,0.3-1.1,0.3l0,0.6c0.3-0.1,0.8-0.2,1.2-0.1c0.2,0.1,0.2,0.3,0,0.4c-0.3,0.2-0.8,0.3-1.2,0.4v0.7
		c0.7-0.1,1.4-0.3,2.1-0.5c0.2-0.1,0.3,0,0.5,0.1c0.2,0.1,0.6,0.5,0.9,0.6c0.1,0.1,0.2,0.2,0.1,0.3
		C926.2,709.1,926.1,709.4,926,709.7z M919.8,711c-0.2-0.3-0.3-0.9-0.2-1.3c0.6,0,1.3,0.8,0.8,1.4C920.2,711.3,920,711.3,919.8,711z
		 M922,707.6c-0.3,0-1.4,0.2-1.3-0.3c0.4-0.2,0.9-0.3,1.3-0.4v-0.6c-0.5,0.1-1.2,0.2-1.5-0.3c0.5-0.2,1-0.3,1.5-0.4
		c0-0.3,0-0.5-0.1-0.8c-0.4,0.1-0.9,0.1-1.4,0c-0.2,1.3-0.2,2.6-0.2,3.8c0.6-0.1,1.2-0.2,1.7-0.3L922,707.6z M921.5,710.8
		c-0.4-0.3-0.6-0.9-0.7-1.4c0.4,0,0.9,0.2,1.1,0.7c0.1,0.2,0.1,0.4,0.1,0.6C921.9,710.9,921.6,710.9,921.5,710.8z M923.9,710.8
		c-0.1,0.1-0.4,0.1-0.5,0c-0.4-0.2-0.9-1.2-1-1.6c0.6,0,1.4,0.3,1.6,0.8C924,710.2,924,710.6,923.9,710.8z"/>
	<path d="M941.4,712.2c-1.2-0.1-2.4-0.2-3.6,0c-0.7,0.1-1.5,0.2-2.2,0.3c-0.2,0-0.4-0.2-0.6-0.3c-0.1,0.4-0.3,0.7-0.6,1
		c-0.2,0-0.3-0.3-0.3-0.4c-0.2-0.5-0.6-0.9-1-1.3c0.1,0,1.1,0.6,1.2,0.5c0,0,0.1-0.1,0.2-0.2c0.1-1.1,0.1-2.1,0.1-3.2l-0.9,0.2
		c0,0.2,0,0.3,0,0.5c0.3,0,0.6,0.1,0.8,0.3c0.1,0.1,0.1,0.4,0,0.5c-0.2,0.4-0.7-0.2-0.8-0.4c-0.2,1.4-0.8,2.5-2.2,3
		c1.2-1.3,1.6-2.1,1.7-3.9c-1.1,0.2-1.3,0.7-2.2-0.3c0.8,0,1.5-0.1,2.2-0.2c0-0.9,0.1-1.9-0.3-2.7c0.2-0.3,0.4-0.1,0.6-0.1
		c0.3-0.4,0.7-1,0.8-1.4c0-0.1-0.1-0.3,0.1-0.3c0.2,0,1.2,0.3,0.9,0.6c-0.4,0.4-1,0.8-1.4,1.2c0.5,0,0.9-0.5,1.3-0.3
		c0.2,0.1,0.4,0.3,0.5,0.4c0.2,0.2-0.2,0.4-0.2,0.7c-0.1,0.4-0.1,1.2-0.1,1.6c0.2,0,0.5-0.1,0.6,0.1c-0.1,0.3-0.4,0.3-0.6,0.4
		c0,1.2,0.1,2.4,0,3.5l1-0.1c-0.1-0.6-0.2-1.1-0.5-1.6c-0.1-0.2-0.2-0.3,0.1-0.3c1.3,0.1,2.5-0.1,3.7-0.5c0.3,0.1,1,0.3,1.2,0.6
		c0.1,0.1,0,0.2-0.1,0.3c-0.3,0.3-0.5,0.8-0.6,1.2c0.3,0,0.7-0.1,1.1,0c0.3,0,0.6,0.1,0.8,0.4C941.8,712.2,941.6,712.3,941.4,712.2z
		 M933.6,706v0.8c0.5-0.1,0.8,0.1,0.8,0.4c0.1,0.3-0.1,0.6-0.5,0.3l-0.3-0.2v0.9c0.3,0,0.6-0.1,0.9-0.1c0-0.5,0.1-1.8,0-2.2
		C934.1,705.9,933.9,706,933.6,706z M938.2,709.2c-0.1,0-1.6,0.2-1.7,0.3c0,0-0.1,0.1-0.1,0.1c-0.1,0.1-0.2,0.1-0.4,0
		c-0.3-0.2-0.3-0.4-0.2-0.7c0.3-0.9,0.1-2.9-0.1-3.8c-0.1-0.5,0.6-0.1,0.8-0.1c0.6,0,1.4-0.5,1.9-0.3c0.4,0.1,0.2,0.4-0.1,0.5
		c-0.2,0.1-0.4,0.1-0.6,0.2c0.2,0.3-0.1,0.5-0.2,0.9c0.2,0,0.3-0.2,0.5-0.1c0.2,0.1,0.4,0.3,0.4,0.5c-0.1,0.2-0.6,0.4-0.4,0.7
		c0.1,0.1,0.1,0.1,0.1,0.3c0,0.2-0.2,0.2-0.4,0.3c0.1,0.2-0.1,0.5-0.1,0.7c0.3-0.1,0.9-0.2,1.1,0.2
		C938.7,709.2,938.3,709.2,938.2,709.2z M937.1,708.1c-0.2,0-0.4,0.1-0.6,0.1c0,0.3-0.1,0.5-0.1,0.8c0.2,0,0.5-0.1,0.7-0.2
		C937.1,708.6,937.2,708.3,937.1,708.1z M936.4,705.6l0,1l0.6-0.2c0-0.3,0-0.6,0-0.9C936.9,705.6,936.7,705.6,936.4,705.6z
		 M936.9,710.4c-0.2,0-0.3,0-0.5,0.1c0.1,0.4,0.2,0.9,0.2,1.3l0.5,0L936.9,710.4z M936.5,707c0,0.2,0,0.5,0,0.7l0.8-0.2
		c0.2,0,0.3-0.6,0.2-0.7C937.3,706.8,936.7,707,936.5,707z M937.4,710.4c0.2,0.5,0.3,0.8,0.2,1.3l0.4,0c0.1-0.4,0.1-0.9,0-1.4
		C937.9,710.4,937.6,710.4,937.4,710.4z M939,707.1c-0.2,0.2-0.4,0.5-0.7,0.7c-0.1,0.1-0.2,0-0.1-0.1c0.5-0.8,1-1.8,1.1-2.8
		c0-0.3-0.1-0.5-0.1-0.7c0-0.3,0.9,0.1,1.1,0.3c0.2,0.3-0.1,0.5-0.2,0.7c-0.3,0.5-0.5,1-0.8,1.5c0.6,0,1.4-0.5,1.8-0.3
		c0.2,0.1,0.3,0.3,0.1,0.5C940.6,707,939.6,707.1,939,707.1z M938.8,710.2c0,0,0.1,0.1,0.1,0.2c0,0.4-0.2,0.9-0.3,1.2l0.6,0
		c0.1-0.3,0.4-1.1,0.3-1.4C939.5,710.1,938.9,710.2,938.8,710.2z M938.6,708.3c0.1,0,0.8-0.2,0.9-0.2c0.1,0,0.3-0.1,0.4-0.2
		c0.5-0.1,1,0.3,0.2,0.6C939.7,708.6,939.1,708.7,938.6,708.3z"/>
	<path d="M951.1,708.4c-0.2,0.1-0.4,0.2-0.6,0.3l0,1.8c0,0.7,0.2,2.1-0.4,2.6c-0.2,0.1-0.3,0-0.4-0.2c-0.3-0.4-0.3-0.6-0.7-0.9
		c-0.2-0.1-0.3-0.3-0.5-0.4c0.2,0,1.2,0.3,1.3,0c0.1-0.9,0-1.9,0-2.9c-0.4,0.1-0.8,0.2-1.2,0.3c-0.2,1.5-0.7,3-2.1,3.8
		c-0.1,0.1-0.2,0-0.1-0.1c0.9-1.1,1.4-2.1,1.6-3.5l-1.5,0.5c-0.4,0.1-0.8-0.4-1-0.6c0.8-0.1,1.7-0.2,2.5-0.4c0-0.7,0-1.4-0.1-2.1
		c-0.1-0.2-0.2-0.4-0.3-0.7c0-0.1,0-0.2,0.1-0.2c0.2,0,0.6,0.2,0.8,0.2c0.3-0.5,0.7-1.2,0.7-1.7c0-0.2-0.3-0.7,0.1-0.7
		c0.2,0,0.8,0.2,1,0.4c0.1,0.1,0.1,0.2,0,0.3c-0.3,0.6-0.7,1.2-1.2,1.6c0.3-0.1,0.5-0.2,0.7-0.4c0.2-0.1,0.8,0.3,1,0.4
		c0.2,0.2-0.2,0.5-0.2,0.8c0,0.5-0.1,1,0,1.5c0.1,0,0.4-0.1,0.6-0.1C951.3,708.1,951.2,708.3,951.1,708.4z M949.4,706.2
		c-0.4,0.1-0.5,0.1-0.9,0.2c0,0.7,0.1,1.5,0,2.2c0.4-0.1,0.8-0.2,1.2-0.3c0-0.6,0-1.3,0-1.9C949.8,706.1,949.6,706.2,949.4,706.2z
		 M949.1,710.5c-0.3-0.3-0.5-0.7-0.5-1.1c0.3,0,0.9,0.2,1,0.7C949.7,710.4,949.4,710.8,949.1,710.5z M949.1,707.9
		c-0.3-0.1-0.4-0.7-0.5-1c0.3,0,0.8,0,1,0.4C949.7,707.6,949.5,708.1,949.1,707.9z M952.4,706.5c0,1.2-0.4,2.6-1.7,2.8
		c-0.1,0-0.1-0.1,0-0.2c0.9-0.7,1.2-1.7,1-2.9c0-0.3-0.1-0.6-0.3-0.8c-0.2-0.2-0.1-0.4,0.1-0.4c0.2,0,0.8,0.2,0.9,0.5
		C952.5,705.8,952.4,706.2,952.4,706.5z M955.3,710.2c-0.5,0.4-0.7,0.6-0.8,1.3c0.3,0.1,0.5,0.5,0.1,0.6c-0.9,0.2-1.8,0.1-2.7,0.2
		c0,0.2,0,0.4-0.2,0.6c-0.2,0-0.3-0.1-0.3-0.3c-0.2-1-0.1-2.1-0.7-2.9c0-0.3,0.2-0.2,0.3-0.2c0.9,0.3,1.9,0,2.8-0.3
		c0.2-0.1,0.3-0.1,0.5,0c0.3,0.2,0.6,0.3,0.9,0.6C955.5,709.9,955.5,710,955.3,710.2z M953.7,709.9c-0.5,0-1.5,0.3-1.9,0.2
		c0.1,0.6,0.1,1.2,0.2,1.8c0.8-0.2,1.3-0.2,1.5-0.2c0.1,0,0.3-0.1,0.3-0.3c0.1-0.2,0.1-0.5,0.1-1.1C954,709.9,954,709.9,953.7,709.9
		z M955.4,708.1c-0.5,0.1-1.3,0.3-1.8-0.1c-0.2-0.2-0.4-0.5-0.4-0.8c0-0.6,0-1.7,0-2.3c0-0.3,0.1-0.4,0.5-0.3
		c0.3,0.1,0.6,0.2,0.7,0.4c0.1,0.3-0.2,0.4-0.3,0.6c-0.2,0.3-0.2,0.7-0.2,1.2c0,0.3,0,0.5,0.2,0.6c0.3,0.2,0.7,0,1-0.1l0.2-0.1
		c0.2,0,0.3,0,0.6,0.3C956.2,707.9,955.7,708.1,955.4,708.1z"/>
	<path d="M966.4,707c0,0.1,0,0.8,0,1.1c0,0.2-0.2,0.2-0.3,0c-0.1-0.3-0.2-0.6-0.3-1c-0.6,0.2-0.9,0.3-1.4,0c0.1,0.3-0.9,0.4-1,0.5
		c0.1,0.1,0,0.6,0,0.8c0.2-0.1,0.8-0.2,1,0c0.1,0.1,0.1,0.2,0,0.3c-0.1,0.1-0.9,0.3-1,0.3l0,1.5c0.2-0.2,0.3-0.4,0.5-0.6
		c0.1-0.3,0.1-0.6,0.2-0.6c0.1,0,0.4,0.2,0.5,0.3c0.1,0.1,0.1,0.2,0,0.3c-0.4,0.3-0.8,0.5-1.2,0.6l0,0.4c0.4-0.1,0.8-0.3,1.1-0.4
		c0.1,0,0.2,0.1,0,0.2c-1,0.5-2,1.2-3,1.8c-0.3,0.2-1.4-0.6-0.6-0.7c0.1,0,0.3,0,0.4-0.1c0.5-0.2,1-0.3,1.5-0.6l0-2
		c-0.3,0.1-1.1,0.2-1.3-0.1l-0.1-0.2c0.5-0.1,1-0.2,1.5-0.3c0-0.2,0-0.6-0.1-0.8c-0.2,0-0.5,0.1-0.7-0.1c-0.7,0.9-1.3,1.6-2.4,2
		c1.3-1.4,2.6-3,3.3-4.8c0.1-0.2,0.1-0.5,0-0.7c0.2-0.3,0.9,0.3,1,0.4c-0.1,0.2-0.2,0.4-0.3,0.6c0.4,0.1,0.9,0.2,1.1,0.7
		c0.1,0.2,0,0.4-0.1,0.5c-0.3,0.1-1-0.6-1.2-0.8c-0.3,0.6-0.6,1.2-1,1.7c0.5-0.1,0.9-0.2,1.4-0.3c0.2,0,0.3-0.1,0.5,0
		c0.5-0.1,1-0.1,1.5-0.3c-0.1-0.4-0.2-0.9-0.4-1.3c0-0.1-0.1-0.1-0.2-0.2c-0.3-0.5,0.8-0.2,1.1,0c0.2,0.2,0.1,1.2,0.1,1.4
		c0.1,0,0.5,0,0.5,0C966.9,706.9,966.6,707,966.4,707z M961.9,710.6c-0.1-0.2-0.3-0.8-0.3-0.9c0.7,0.2,0.9,0.5,0.9,0.8
		C962.6,710.8,962.2,711.1,961.9,710.6z M969.7,709.4c-0.3,1.1,0,2.4-0.8,3.4c-0.2,0.2-0.3,0.1-0.3-0.1c-0.1-0.3-0.2-0.8-0.3-0.9
		c-0.3-0.1-1.9,0.2-2.4,0.2c0,0.2,0,0.3,0,0.5c-0.1,0.3-0.3,0.3-0.4-0.2c-0.2-0.8-0.2-1.7-0.4-2.5c-0.1-0.3-0.2-0.6-0.3-0.9
		c-0.1-0.3,0.4-0.2,0.5-0.2c0.2,0,0.4,0,0.5,0c1-0.1,2-0.3,2.9-0.6c0.4-0.1,1,0.3,1.3,0.5C970.2,708.9,969.8,709.2,969.7,709.4z
		 M966.8,709c-0.4,0.1-0.8,0.1-1.2,0.2c0,0.3,0.1,0.7,0.1,1c0.4-0.1,0.8-0.2,1.2-0.3C966.9,709.7,966.9,709.3,966.8,709z
		 M965.7,710.4c0,0.4,0.1,0.9,0.1,1.3c0.3,0,0.7-0.1,1-0.2c0-0.3,0-0.7,0-1C966.5,710.6,966.1,710.5,965.7,710.4z M970.3,706.7
		c-0.6,0-1.2,0-1.8,0.1c-0.2,0.5-0.4,1-0.7,1.5c-0.1,0.1-0.1,0-0.2-0.1c0.1-0.4,0.2-0.9,0.2-1.3c-0.3,0-0.6-0.1-0.7-0.3
		c0.3-0.1,0.5-0.1,0.8-0.2c0.2-0.7,0.4-1.4,0.1-2.1c-0.2-0.5,1.1,0,1.1,0.3c0,0.2-0.5,1.3-0.6,1.6c0.5-0.1,1.3-0.4,1.8-0.1
		C970.6,706.4,970.8,706.7,970.3,706.7z M968.8,708.8c-0.3-0.1-1.1,0-1.4,0c0.2,0.2,0,0.8,0,1c0.3-0.1,0.8-0.2,1,0
		c0.1,0.1,0.1,0.3-0.1,0.3c-0.3,0.1-0.7,0.1-1,0.2l-0.1,1c0.3-0.1,1.2-0.3,1.4,0.2c0.1-0.6,0.4-2.1,0.2-2.7
		C968.9,708.9,968.9,708.9,968.8,708.8z"/>
</g>
<g>
	<path style="fill:#A72428;" d="M769.6,760.4c-4.4,0-8.5-1-12.3-3.3c-3.3-1.9-5.8-4.6-7.3-8.1c-1-2.2-1.3-4.4-1.2-6.8
		c0.3-3.2,1.5-6,3.5-8.4c2.8-3.4,6.5-5.5,10.8-6.7c2.6-0.7,5.3-1,8-0.8c4.5,0.3,8.7,1.6,12.4,4.3c2.7,2,4.8,4.5,6,7.6
		c0.8,2,1,4,0.9,6.1c-0.3,3.6-1.8,6.7-4.2,9.3c-3.1,3.3-7,5.3-11.4,6.2c-0.8,0.2-1.7,0.3-2.6,0.4
		C771.4,760.3,770.5,760.3,769.6,760.4z M780.3,754.6c0.2-0.9-0.3-2.8-1.2-4.3c-1.7-3-4.1-5-7.5-5.8c0-0.9,0-1.8,0-2.6
		c0.1,0,0.1,0,0.2-0.1c4.4-0.9,7.6-4.9,8.4-8.4c0.1-0.5,0.1-1,0.2-1.5c-1.3,0-2.6,0-3.9,0c-0.1,0-0.2,0.1-0.2,0.2
		c-0.3,0.7-0.5,1.5-0.9,2.2c-0.8,1.5-1.9,2.7-3.5,3.4c-0.1,0-0.2,0.1-0.4,0.1c0-2,0-4,0-5.9c-1.2,0-2.4,0-3.7,0c0,2,0,4,0,6
		c-3-1-4.3-3.3-5-6c-1.3,0-2.6,0-3.8,0c0.1,2,0.8,3.8,1.9,5.4c1.7,2.5,4,4,7,4.6c0,0.8,0,1.7,0,2.5c0,0.2-0.1,0.2-0.3,0.2
		c-4.8,1-7.8,5-8.5,8.9c-0.1,0.4-0.1,0.8-0.1,1.1c1.3,0,2.6,0,3.8,0c0.8-2.8,2-5.1,5.1-6.1c0,2.1,0,4.1,0,6.1c1.2,0,2.5,0,3.7,0
		c0-2,0-4,0-6c2.9,1.1,4.1,3.3,4.8,6C777.7,754.6,779,754.6,780.3,754.6z"/>
	<path style="fill:#FFFFFF;" d="M780.3,754.6c-1.3,0-2.6,0-3.9,0c-0.7-2.7-2-5-4.8-6c0,2,0,4,0,6c-1.2,0-2.5,0-3.7,0c0-2,0-4,0-6.1
		c-3,1-4.3,3.3-5.1,6.1c-1.3,0-2.5,0-3.8,0c0-0.4,0.1-0.8,0.1-1.1c0.7-3.9,3.7-7.9,8.5-8.9c0.1,0,0.3,0,0.3-0.2c0-0.8,0-1.6,0-2.5
		c-3-0.6-5.3-2.1-7-4.6c-1.1-1.6-1.8-3.4-1.9-5.4c1.3,0,2.6,0,3.8,0c0.8,2.7,2,5,5,6c0-2,0-4,0-6c1.2,0,2.4,0,3.7,0c0,2,0,3.9,0,5.9
		c0.2,0,0.3-0.1,0.4-0.1c1.6-0.6,2.7-1.8,3.5-3.4c0.4-0.7,0.6-1.5,0.9-2.2c0-0.1,0.1-0.2,0.2-0.2c1.3,0,2.5,0,3.9,0
		c-0.1,0.5-0.1,1-0.2,1.5c-0.8,3.5-4,7.5-8.4,8.4c0,0-0.1,0-0.2,0.1c0,0.9,0,1.7,0,2.6c3.4,0.7,5.8,2.8,7.5,5.8
		C780,751.7,780.5,753.7,780.3,754.6z"/>
</g>
<path style="fill:#BE0000;" d="M1157.5,522.6h-237c-14.6,0-26.5-11.9-26.5-26.5v0c0-14.6,11.9-26.5,26.5-26.5h237
	c14.6,0,26.5,11.9,26.5,26.5v0C1184,510.8,1172.2,522.6,1157.5,522.6z"/>
<g>
	<path style="fill:#FFFFFF;" d="M965.6,482.2v-1.8c-2.2,0.1-4.6,0.2-7.1,0.2l-0.7-2c6.5,0,12-0.4,16.5-1.3l1.1,1.8
		c-2.2,0.5-4.7,0.9-7.6,1.1v1.9h9.2v2.2h-7.5c3.1,1.3,5.9,2.7,8.2,4.3l-1.5,1.8c-0.7-0.5-1.4-1.1-2.2-1.5v10.8h-2.2v-1.2h-10v1.2
		h-2.2v-10.3c-0.9,0.4-1.8,0.8-2.7,1.2l-1.3-2c3.8-1.2,6.5-2.6,8-4.1h-7.4v-2.2H965.6z M960.5,488.8h5.1v-4
		C964.4,486.3,962.7,487.6,960.5,488.8z M971.7,492.7v-1.9h-10v1.9H971.7z M971.7,496.4v-1.8h-10v1.8H971.7z M967.8,485.6v3.2h6
		C972,487.7,970,486.6,967.8,485.6z"/>
	<path style="fill:#FFFFFF;" d="M985.3,487.2l-1.6,1.6c-1-1.1-2.3-2.3-4-3.5l1.6-1.6C982.9,484.9,984.2,486,985.3,487.2z
		 M985.3,491.7c-0.9,2.9-1.9,5.5-3,8l-2.3-1c1.2-2.5,2.3-5.1,3.2-7.8L985.3,491.7z M986.1,481.4l-1.6,1.6c-1-1.1-2.4-2.4-4.3-3.7
		l1.6-1.6C983.5,479,984.9,480.2,986.1,481.4z M989.7,479.8v-2.4h2.2v2.4h3.5v-2.4h2.2v2.4h2.9v2.1h-2.9v2.3h3.6v2.1h-3.6
		c1,1.4,2.4,2.5,4.4,3.4l-1,2c-1.2-0.6-2.2-1.3-3-2v4.7h-7.3v1.8c0,0.6,0.3,0.8,1,0.8h6.2c0.4,0,0.7-0.2,0.8-0.5
		c0.1-0.2,0.2-0.9,0.3-2l2.2,0.7c-0.1,1.2-0.3,2.1-0.5,2.6c-0.3,0.8-1,1.3-2.1,1.3h-7.8c-1.6,0-2.3-0.7-2.3-2.1v-6.6
		c-0.7,0.6-1.5,1.2-2.4,1.7l-1.2-1.9c2.2-1.2,3.7-2.5,4.6-4h-3.5v-2.1h3.6v-2.3H987v-2.1H989.7z M997,488.6
		c-0.6-0.7-1.1-1.4-1.5-2.2h-3.7c-0.3,0.8-0.8,1.5-1.3,2.2H997z M996,492.5v-2h-5.2v2H996z M995.4,484.3v-2.3h-3.5v2.3H995.4z"/>
	<path style="fill:#FFFFFF;" d="M1009.1,486.6l-1.6,1.6c-0.9-1-2.1-2-3.7-3.1l1.6-1.6C1006.9,484.5,1008.1,485.6,1009.1,486.6z
		 M1009.4,491.5c-1,2.8-2.1,5.4-3.3,7.9l-2.1-0.9c1.3-2.5,2.5-5.1,3.5-7.7L1009.4,491.5z M1009.5,480.7l-1.6,1.6
		c-0.9-1-2.1-2-3.6-3.1l1.6-1.6C1007.3,478.7,1008.5,479.7,1009.5,480.7z M1012.3,482.8h12c-0.1,2.1-0.1,4-0.2,5.6h1.9v2.1h-2
		c-0.1,1.5-0.1,2.7-0.2,3.7h1.8v2h-2c0,0.6-0.1,1-0.2,1.2c-0.2,0.8-0.7,1.4-1.4,1.7c-0.7,0.4-1.6,0.6-2.9,0.6c-0.7,0-1.4,0-2.3,0
		l-0.7-2.1c1,0.1,1.9,0.1,2.6,0.1c0.6,0,1.1-0.1,1.5-0.2c0.4-0.2,0.8-0.5,1-1c0-0.1,0-0.2,0.1-0.4h-11.4c0.4-1.9,0.7-3.8,1-5.7h-2.2
		v-2.1h2.5c0.2-1.6,0.3-3.1,0.3-4.7c-0.4,0.5-0.8,0.9-1.2,1.3l-1.4-1.8c1.5-1.5,2.9-3.5,3.9-6.1l2.3,0.5c-0.2,0.5-0.4,1-0.7,1.4
		h10.8v2.1h-12C1013.1,481.8,1012.7,482.3,1012.3,482.8z M1012.6,494.2h5.4c-0.7-0.8-1.7-1.6-2.9-2.5l1.3-1.2h-3.1
		C1013.1,491.8,1012.9,493.1,1012.6,494.2z M1022.1,484.8h-8.4c-0.1,1.3-0.1,2.5-0.2,3.6h4.7c-0.7-0.7-1.7-1.4-2.8-2.1l1.4-1.4
		c1.2,0.7,2.2,1.5,3,2.2l-1.3,1.3h3.5L1022.1,484.8z M1021.7,494.2c0-1,0.1-2.2,0.2-3.7h-5.1c1.1,0.8,2,1.5,2.8,2.3l-1.4,1.4H1021.7
		z"/>
	<path style="fill:#FFFFFF;" d="M1036.6,478.2v1.8c-0.7,2.1-1.5,4.3-2.5,6.5c1.4,2.2,2.2,4.2,2.4,5.9c0,1.1-0.3,1.9-0.7,2.4
		c-0.7,0.6-2,0.9-3.8,0.9l-0.7-2.3c0.5,0.1,0.9,0.1,1.2,0.1c0.7,0,1.2-0.1,1.4-0.3c0.2-0.2,0.3-0.5,0.3-0.8c0-1.6-0.8-3.5-2.4-5.5
		c1.1-2.4,1.9-4.6,2.5-6.5h-3.3v19.3h-2.2v-21.5H1036.6z M1042.5,480.8c-0.3-1.1-0.7-2.1-1.1-3.1l2.3-0.4c0.4,1,0.7,2.1,1.1,3.5h5.1
		v2.2h-7.8c0,0.9-0.1,2.1-0.2,3.7h6.9c-0.1,5.5-0.3,8.9-0.7,10.3c-0.5,1.6-1.7,2.4-3.5,2.4c-0.5,0-1.2,0-1.9-0.1l-0.7-2.1
		c0.9,0,1.7,0.1,2.4,0.1c0.9,0,1.5-0.6,1.8-1.6c0.1-0.9,0.2-3.1,0.3-6.7h-4.7c-0.2,1.9-0.7,3.6-1.4,5.2c-1,2-2.3,3.9-4,5.6l-1.7-1.6
		c2-2.1,3.3-4.1,4-5.8c0.6-1.8,1-3.8,1.1-6c0-1.4,0.1-2.5,0.1-3.3h-3.1v-2.2H1042.5z"/>
	<path style="fill:#FFFFFF;" d="M1054.7,483.1v-5.7h2.2v5.7h2.2v2.2h-2.2v14.3h-2.2v-14.3h-2.4v-2.2H1054.7z M1069.1,492.4v-1h2.2v1
		h2.7v2h-2.7v3.1c0,1.4-0.7,2.2-2.1,2.2h-2.7l-0.5-2.1c0.9,0.1,1.7,0.1,2.5,0.1c0.4,0,0.6-0.3,0.6-0.7v-2.5h-6.2
		c1.2,0.9,2.2,1.8,3,2.7l-1.4,1.4c-0.8-1-1.9-2-3.3-3.1l1.1-1h-3.5v-2H1069.1z M1065.5,479v-1.5h2.2v1.5h2.2
		c-0.2-0.4-0.4-0.8-0.6-1.2l2-0.3l0.5,1.5h2v1.9h-6.1v1h5.4v7.6c0,1.2-0.7,1.7-2.1,1.7h-1.3l-0.5-1.7l1.2,0.1c0.3,0,0.5-0.2,0.5-0.6
		v-0.4h-3.3v2.4h-2.2v-2.4h-3.2v2.6h-2.1v-9.3h5.4v-1h-6.1V479H1065.5z M1065.5,484.6v-1.1h-3.2v1.1H1065.5z M1065.5,487.1v-1h-3.2
		v1H1065.5z M1067.7,484.6h3.3v-1.1h-3.3V484.6z M1067.7,487.1h3.3v-1h-3.3V487.1z"/>
	<path style="fill:#FFFFFF;" d="M1078.1,487.8l-2-0.6c0.7-2.6,1.1-5.2,1.2-8l2,0.1c0,1-0.1,1.9-0.2,2.9h1.3v-4.8h2.2v4.8h1.8v2.2
		h-1.8v5.1c0.6-0.3,1.1-0.5,1.7-0.8v2.2c-0.6,0.3-1.1,0.5-1.7,0.8v8h-2.2v-7.1c-1.1,0.4-2.3,0.8-3.5,1.2l-0.5-2.2
		c1.4-0.3,2.7-0.7,4-1.1v-6h-1.5C1078.6,485.6,1078.4,486.7,1078.1,487.8z M1089.3,477.9c-0.2,1.2-0.5,2.2-0.8,3.2h9.2
		c0,8.3-0.1,13.4-0.4,15.4c-0.3,2.1-1.6,3.1-4.1,3.1c-0.3,0-0.9,0-1.8-0.1l-0.5-2.1c0.8,0.1,1.4,0.1,2,0.1c1.3,0,2.1-0.7,2.3-2.1
		c0.1-1.2,0.2-5.2,0.3-12.1h-1.1c-0.5,3.9-1.2,7-2.1,9.3c-1.1,2.6-2.8,4.8-5,6.9l-1.4-1.8c2-1.8,3.5-3.8,4.5-6
		c0.9-2.1,1.5-4.9,2-8.4h-1.4c-1,5.2-2.8,8.9-5.5,11.3l-1.5-1.7c2.4-2,4-5.2,4.9-9.6h-1.2c-0.6,1.4-1.3,2.7-2.1,3.6l-1.7-1.4
		c1.5-1.9,2.6-4.6,3.2-8.2L1089.3,477.9z"/>
	<path style="fill:#FFFFFF;" d="M1122,484.4h-1.6v5.7h-7.3v1.9h8v7.9h-2.2v-0.9h-5.9v0.9h-2.1v-15.4h-1.3v-1.6l-0.6,0.6
		c-0.5-0.6-0.9-1.1-1.3-1.5v1.8h-4.4v-0.8c-0.6,0.6-1.2,1.3-1.8,1.9l-1.2-1.7c1.5-1.5,2.9-3.2,4.2-5.2h2.1c1,1,2,2,2.9,3v-1h5
		c-0.3-0.7-0.6-1.4-0.8-1.9l2.2-0.3c0.3,0.7,0.5,1.4,0.8,2.3h5.3V484.4z M1110.1,498.4l-1.9,0.8c-0.2-0.5-0.3-1-0.5-1.5
		c-1.8,0.7-3.8,1.4-6,2l-0.7-1.8c0.4-0.2,0.6-0.5,0.6-0.8v-12.3h7.5v9.2h-5.4v3.2c1.2-0.4,2.2-0.8,3.2-1.2c-0.2-0.5-0.4-0.9-0.6-1.3
		l1.9-0.6C1109,495.3,1109.6,496.8,1110.1,498.4z M1107,486.9h-3.2v1.5h3.2V486.9z M1103.8,491.8h3.2v-1.6h-3.2V491.8z
		 M1107.7,481.7c-0.7-0.8-1.4-1.5-1.9-2c-0.5,0.7-1,1.4-1.5,2H1107.7z M1119.9,483.6v-1.8h-8.1v1.8H1119.9z M1118.3,488.1v-2.5h-5.2
		v2.5H1118.3z M1113.1,496.8h5.9v-2.9h-5.9V496.8z"/>
	<path style="fill:#FFFFFF;" d="M914,505.1v4h4.3v-4h1.8v10.1h-1.8v-4.5H914v4.5h-1.8v-10.1H914z"/>
	<path style="fill:#FFFFFF;" d="M925.4,515.4c-2.1,0-3.7-1.4-3.7-3.8c0-2.4,1.6-3.9,3.8-3.9c2.2,0,3.6,1.5,3.6,3.8
		C929.1,514.2,927.3,515.4,925.4,515.4L925.4,515.4z M925.5,514c1,0,1.8-1,1.8-2.5c0-1.1-0.5-2.5-1.8-2.5c-1.3,0-1.8,1.3-1.8,2.5
		C923.6,513,924.3,514,925.5,514L925.5,514z"/>
	<path style="fill:#FFFFFF;" d="M930.7,510.1c0-0.8,0-1.5-0.1-2.2h1.6l0.1,1.1h0c0.3-0.6,1.1-1.3,2.3-1.3c1.3,0,2.6,0.8,2.6,3.1v4.3
		h-1.8v-4.1c0-1-0.4-1.8-1.4-1.8c-0.7,0-1.2,0.5-1.4,1.1c-0.1,0.1-0.1,0.4-0.1,0.6v4.3h-1.8V510.1z"/>
	<path style="fill:#FFFFFF;" d="M945.9,514.1c0,1.5-0.3,2.6-1.1,3.3c-0.8,0.7-1.8,0.9-2.8,0.9c-0.9,0-1.9-0.2-2.6-0.6l0.4-1.4
		c0.5,0.3,1.2,0.6,2.1,0.6c1.2,0,2.1-0.6,2.1-2.2v-0.6h0c-0.4,0.6-1.2,1.1-2.1,1.1c-1.8,0-3.1-1.5-3.1-3.6c0-2.4,1.6-3.9,3.3-3.9
		c1.1,0,1.8,0.5,2.1,1.1h0l0.1-1h1.6c0,0.5-0.1,1.1-0.1,2.1V514.1z M944,510.8c0-0.2,0-0.3-0.1-0.5c-0.2-0.7-0.7-1.2-1.5-1.2
		c-1,0-1.8,0.9-1.8,2.4c0,1.2,0.6,2.2,1.8,2.2c0.7,0,1.3-0.5,1.5-1.1c0.1-0.2,0.1-0.4,0.1-0.6V510.8z"/>
	<path style="fill:#FFFFFF;" d="M951,505.1h1.8v4.6h0c0.2-0.4,0.5-0.8,0.7-1.1l2.7-3.6h2.3l-3.5,4.3l3.7,5.8h-2.2l-2.8-4.6l-0.9,1.1
		v3.6H951V505.1z"/>
	<path style="fill:#FFFFFF;" d="M962.7,515.4c-2.1,0-3.7-1.4-3.7-3.8c0-2.4,1.6-3.9,3.8-3.9c2.2,0,3.6,1.5,3.6,3.8
		C966.5,514.2,964.6,515.4,962.7,515.4L962.7,515.4z M962.8,514c1,0,1.8-1,1.8-2.5c0-1.1-0.5-2.5-1.8-2.5c-1.3,0-1.8,1.3-1.8,2.5
		C961,513,961.7,514,962.8,514L962.8,514z"/>
	<path style="fill:#FFFFFF;" d="M968,510.1c0-0.8,0-1.5-0.1-2.2h1.6l0.1,1.1h0c0.3-0.6,1.1-1.3,2.3-1.3c1.3,0,2.6,0.8,2.6,3.1v4.3
		h-1.8v-4.1c0-1-0.4-1.8-1.4-1.8c-0.7,0-1.2,0.5-1.4,1.1c-0.1,0.1-0.1,0.4-0.1,0.6v4.3H968V510.1z"/>
	<path style="fill:#FFFFFF;" d="M983.2,514.1c0,1.5-0.3,2.6-1.1,3.3c-0.8,0.7-1.8,0.9-2.8,0.9c-0.9,0-1.9-0.2-2.5-0.6l0.4-1.4
		c0.5,0.3,1.2,0.6,2.1,0.6c1.2,0,2.1-0.6,2.1-2.2v-0.6h0c-0.4,0.6-1.2,1.1-2.1,1.1c-1.8,0-3.1-1.5-3.1-3.6c0-2.4,1.6-3.9,3.3-3.9
		c1.1,0,1.8,0.5,2.1,1.1h0l0.1-1h1.6c0,0.5-0.1,1.1-0.1,2.1V514.1z M981.3,510.8c0-0.2,0-0.3-0.1-0.5c-0.2-0.7-0.7-1.2-1.5-1.2
		c-1,0-1.8,0.9-1.8,2.4c0,1.2,0.6,2.2,1.8,2.2c0.7,0,1.3-0.5,1.5-1.1c0.1-0.2,0.1-0.4,0.1-0.6V510.8z"/>
	<path style="fill:#FFFFFF;" d="M996.9,511.1c-0.1-1.3-0.1-2.9-0.1-4.2h0c-0.3,1.2-0.8,2.6-1.2,3.9l-1.5,4.4h-1.4l-1.4-4.3
		c-0.4-1.3-0.8-2.7-1-3.9h0c0,1.3-0.1,2.9-0.2,4.3l-0.2,4.1h-1.7l0.7-10.1h2.4l1.3,4.1c0.4,1.2,0.7,2.4,0.9,3.5h0
		c0.3-1.1,0.6-2.3,1-3.5l1.4-4h2.4l0.6,10.1h-1.8L996.9,511.1z"/>
	<path style="fill:#FFFFFF;" d="M1007.2,513c0,0.9,0,1.6,0.1,2.2h-1.6l-0.1-1.1h0c-0.3,0.5-1,1.3-2.4,1.3s-2.5-0.8-2.5-3.2v-4.3h1.8
		v4c0,1.2,0.4,2,1.4,2c0.8,0,1.2-0.5,1.4-1c0.1-0.2,0.1-0.4,0.1-0.6v-4.4h1.8V513z"/>
	<path style="fill:#FFFFFF;" d="M1009.1,513.5c0.4,0.3,1.2,0.5,1.9,0.5c0.8,0,1.2-0.3,1.2-0.8c0-0.5-0.3-0.7-1.2-1.1
		c-1.4-0.5-2-1.3-2-2.1c0-1.3,1.1-2.3,2.8-2.3c0.8,0,1.5,0.2,1.9,0.4l-0.4,1.3c-0.3-0.2-0.9-0.4-1.5-0.4c-0.7,0-1,0.3-1,0.8
		c0,0.5,0.3,0.7,1.3,1c1.3,0.5,1.9,1.1,1.9,2.2c0,1.3-1,2.3-3,2.3c-0.9,0-1.7-0.2-2.2-0.5L1009.1,513.5z"/>
	<path style="fill:#FFFFFF;" d="M1016.8,512.1c0,1.3,1.1,1.9,2.2,1.9c0.9,0,1.5-0.1,2-0.3l0.3,1.3c-0.6,0.3-1.5,0.5-2.5,0.5
		c-2.4,0-3.8-1.5-3.8-3.7c0-2,1.2-3.9,3.6-3.9c2.4,0,3.1,2,3.1,3.6c0,0.3,0,0.6-0.1,0.8H1016.8z M1020,510.8c0-0.7-0.3-1.8-1.5-1.8
		c-1.1,0-1.6,1-1.7,1.8H1020z"/>
	<path style="fill:#FFFFFF;" d="M1029.7,513c0,0.9,0,1.6,0.1,2.2h-1.6l-0.1-1.1h0c-0.3,0.5-1,1.3-2.4,1.3s-2.5-0.8-2.5-3.2v-4.3h1.8
		v4c0,1.2,0.4,2,1.4,2c0.8,0,1.2-0.5,1.4-1c0.1-0.2,0.1-0.4,0.1-0.6v-4.4h1.8V513z"/>
	<path style="fill:#FFFFFF;" d="M1031.7,510.1c0-0.8,0-1.5-0.1-2.2h1.6l0.1,1.1h0c0.3-0.6,1-1.2,2.2-1.2c1,0,1.7,0.5,2,1.4h0
		c0.3-0.4,0.6-0.7,0.9-0.9c0.4-0.3,0.9-0.4,1.5-0.4c1.2,0,2.4,0.8,2.4,3.2v4.3h-1.8v-4c0-1.2-0.4-1.9-1.3-1.9c-0.6,0-1.1,0.5-1.3,1
		c-0.1,0.2-0.1,0.4-0.1,0.6v4.4h-1.8V511c0-1-0.4-1.7-1.3-1.7c-0.7,0-1.2,0.5-1.3,1c-0.1,0.2-0.1,0.4-0.1,0.6v4.3h-1.8V510.1z"/>
	<path style="fill:#FFFFFF;" d="M1050.8,515.4c-2.1,0-3.7-1.4-3.7-3.8c0-2.4,1.6-3.9,3.8-3.9c2.2,0,3.6,1.5,3.6,3.8
		C1054.5,514.2,1052.6,515.4,1050.8,515.4L1050.8,515.4z M1050.8,514c1,0,1.8-1,1.8-2.5c0-1.1-0.5-2.5-1.8-2.5
		c-1.3,0-1.8,1.3-1.8,2.5C1049,513,1049.7,514,1050.8,514L1050.8,514z"/>
	<path style="fill:#FFFFFF;" d="M1056.2,515.2v-5.9h-1v-1.4h1v-0.3c0-0.9,0.3-1.9,0.9-2.5c0.5-0.5,1.3-0.7,1.9-0.7
		c0.5,0,0.9,0.1,1.2,0.2l-0.1,1.4c-0.2-0.1-0.5-0.1-0.8-0.1c-0.9,0-1.2,0.8-1.2,1.7v0.4h1.6v1.4h-1.6v5.9H1056.2z"/>
	<path style="fill:#FFFFFF;" d="M1071.2,514.9c-0.4,0.2-1.4,0.4-2.6,0.4c-3.2,0-5.2-2-5.2-5.1c0-3.3,2.3-5.3,5.4-5.3
		c1.2,0,2.1,0.2,2.4,0.4l-0.4,1.5c-0.5-0.2-1.2-0.4-2-0.4c-2.1,0-3.5,1.3-3.5,3.7c0,2.2,1.3,3.6,3.5,3.6c0.7,0,1.5-0.1,2-0.4
		L1071.2,514.9z"/>
	<path style="fill:#FFFFFF;" d="M1075.7,515.4c-2.1,0-3.7-1.4-3.7-3.8c0-2.4,1.6-3.9,3.8-3.9c2.2,0,3.6,1.5,3.6,3.8
		C1079.4,514.2,1077.5,515.4,1075.7,515.4L1075.7,515.4z M1075.7,514c1,0,1.8-1,1.8-2.5c0-1.1-0.5-2.5-1.8-2.5
		c-1.3,0-1.8,1.3-1.8,2.5C1073.9,513,1074.6,514,1075.7,514L1075.7,514z"/>
	<path style="fill:#FFFFFF;" d="M1086.6,513.5c0,0.7,0,1.3,0.1,1.8h-1.7l-0.1-0.8h0c-0.4,0.6-1.2,1-2.2,1c-1.5,0-2.3-1.1-2.3-2.2
		c0-1.8,1.6-2.8,4.3-2.8v-0.1c0-0.5-0.2-1.3-1.5-1.3c-0.7,0-1.5,0.2-2,0.5l-0.4-1.2c0.5-0.3,1.5-0.6,2.6-0.6c2.3,0,3,1.5,3,3.1
		V513.5z M1084.8,511.6c-1.3,0-2.5,0.3-2.5,1.4c0,0.7,0.5,1.1,1,1.1c0.8,0,1.3-0.5,1.5-1c0-0.1,0-0.3,0-0.4V511.6z"/>
	<path style="fill:#FFFFFF;" d="M1088.5,513.5c0.4,0.3,1.2,0.5,1.9,0.5c0.8,0,1.2-0.3,1.2-0.8c0-0.5-0.3-0.7-1.2-1.1
		c-1.4-0.5-2-1.3-2-2.1c0-1.3,1.1-2.3,2.8-2.3c0.8,0,1.5,0.2,1.9,0.4l-0.4,1.3c-0.3-0.2-0.9-0.4-1.5-0.4c-0.7,0-1,0.3-1,0.8
		c0,0.5,0.3,0.7,1.3,1c1.3,0.5,1.9,1.1,1.9,2.2c0,1.3-1,2.3-3,2.3c-0.9,0-1.7-0.2-2.2-0.5L1088.5,513.5z"/>
	<path style="fill:#FFFFFF;" d="M1096.9,506v1.9h1.8v1.4h-1.8v3.2c0,0.9,0.2,1.4,0.9,1.4c0.3,0,0.5,0,0.7-0.1l0,1.4
		c-0.3,0.1-0.8,0.2-1.3,0.2c-0.7,0-1.2-0.2-1.6-0.6c-0.4-0.4-0.6-1.1-0.6-2.1v-3.4h-1v-1.4h1v-1.4L1096.9,506z"/>
	<path style="fill:#FFFFFF;" d="M1105.8,513.5c0,0.7,0,1.3,0.1,1.8h-1.7l-0.1-0.8h0c-0.4,0.6-1.2,1-2.2,1c-1.5,0-2.3-1.1-2.3-2.2
		c0-1.8,1.6-2.8,4.3-2.8v-0.1c0-0.5-0.2-1.3-1.5-1.3c-0.7,0-1.5,0.2-2,0.5l-0.4-1.2c0.5-0.3,1.5-0.6,2.6-0.6c2.3,0,3,1.5,3,3.1
		V513.5z M1104,511.6c-1.3,0-2.6,0.3-2.6,1.4c0,0.7,0.5,1.1,1.1,1.1c0.8,0,1.3-0.5,1.5-1c0-0.1,0-0.3,0-0.4V511.6z"/>
	<path style="fill:#FFFFFF;" d="M1107.7,504.5h1.8v10.7h-1.8V504.5z"/>
	<path style="fill:#FFFFFF;" d="M1114.7,505.2c0.8-0.1,1.8-0.2,2.9-0.2c1.9,0,3.2,0.4,4.1,1.2c1,0.8,1.6,2,1.6,3.7
		c0,1.8-0.6,3.1-1.6,4c-1,0.9-2.6,1.4-4.6,1.4c-1.1,0-1.9-0.1-2.5-0.1V505.2z M1116.6,513.8c0.3,0,0.6,0,1,0c2.4,0,3.8-1.3,3.8-3.9
		c0-2.2-1.3-3.5-3.6-3.5c-0.6,0-1,0-1.3,0.1V513.8z"/>
	<path style="fill:#FFFFFF;" d="M1126.2,512.1c0,1.3,1.1,1.9,2.2,1.9c0.9,0,1.5-0.1,2-0.3l0.3,1.3c-0.6,0.3-1.5,0.5-2.5,0.5
		c-2.4,0-3.8-1.5-3.8-3.7c0-2,1.2-3.9,3.6-3.9c2.4,0,3.2,2,3.2,3.6c0,0.3,0,0.6-0.1,0.8H1126.2z M1129.4,510.8
		c0-0.7-0.3-1.8-1.5-1.8c-1.1,0-1.6,1-1.7,1.8H1129.4z"/>
	<path style="fill:#FFFFFF;" d="M1132.9,515.2v-5.9h-1v-1.4h1v-0.3c0-0.9,0.3-1.9,0.9-2.5c0.5-0.5,1.3-0.7,1.9-0.7
		c0.5,0,0.9,0.1,1.2,0.2l-0.1,1.4c-0.2-0.1-0.5-0.1-0.8-0.1c-0.9,0-1.2,0.8-1.2,1.7v0.4h1.6v1.4h-1.6v5.9H1132.9z"/>
	<path style="fill:#FFFFFF;" d="M1138.6,512.1c0,1.3,1.1,1.9,2.2,1.9c0.9,0,1.5-0.1,2-0.3l0.3,1.3c-0.6,0.3-1.5,0.5-2.6,0.5
		c-2.4,0-3.8-1.5-3.8-3.7c0-2,1.2-3.9,3.6-3.9c2.4,0,3.2,2,3.2,3.6c0,0.3,0,0.6-0.1,0.8H1138.6z M1141.8,510.8
		c0-0.7-0.3-1.8-1.5-1.8c-1.1,0-1.6,1-1.7,1.8H1141.8z"/>
	<path style="fill:#FFFFFF;" d="M1145,510.1c0-0.8,0-1.5-0.1-2.2h1.6l0.1,1.1h0c0.3-0.6,1.1-1.3,2.3-1.3c1.3,0,2.6,0.8,2.6,3.1v4.3
		h-1.8v-4.1c0-1-0.4-1.8-1.4-1.8c-0.7,0-1.2,0.5-1.4,1.1c-0.1,0.1-0.1,0.4-0.1,0.6v4.3h-1.8V510.1z"/>
	<path style="fill:#FFFFFF;" d="M1159,515c-0.4,0.2-1.2,0.4-2.1,0.4c-2.3,0-3.8-1.5-3.8-3.7c0-2.2,1.5-3.9,4.1-3.9
		c0.7,0,1.4,0.1,1.8,0.3l-0.3,1.4c-0.3-0.1-0.7-0.3-1.4-0.3c-1.4,0-2.2,1-2.2,2.4c0,1.5,1,2.4,2.2,2.4c0.6,0,1.1-0.1,1.5-0.3
		L1159,515z"/>
	<path style="fill:#FFFFFF;" d="M1161.5,512.1c0,1.3,1.1,1.9,2.2,1.9c0.9,0,1.5-0.1,2-0.3l0.3,1.3c-0.6,0.3-1.5,0.5-2.5,0.5
		c-2.4,0-3.8-1.5-3.8-3.7c0-2,1.2-3.9,3.6-3.9c2.4,0,3.2,2,3.2,3.6c0,0.3,0,0.6-0.1,0.8H1161.5z M1164.7,510.8
		c0-0.7-0.3-1.8-1.5-1.8c-1.1,0-1.6,1-1.7,1.8H1164.7z"/>
</g>
<g>
	<path d="M1038.5,425.8c-5.3-3.1-9.7-10.6-9.6-16.7c0-2.1,0.5-3.7,1.4-4.9c-2.4,0.7-3.8,3.4-3.8,7.2c0,6.1,4.3,13.6,9.6,16.7
		c3.9,2.2,7.2,1.5,8.8-1.4C1043.2,427.4,1041,427.2,1038.5,425.8z"/>
	<path d="M1036.2,393c-5.8-3.3-10.8-3.6-14.6-1.5c1.6-0.9,3.1-1.9,4.8-2.9c3.8-2.2,9-1.9,14.8,1.4c11.5,6.6,20.7,22.7,20.7,35.8
		c0,3.6-0.5,8.3-3.3,12.8l-15.8,24.1l-5.9,3.5l18.2-28.7c1.2-2.3,1.9-5.3,1.9-8.9C1056.9,415.7,1047.7,399.7,1036.2,393z"/>
</g>
<path style="fill:#BE0000;" d="M1056.9,428.9c0,3.6-0.7,6.5-1.9,8.9l-18.2,28.7l-18-46.5c-2-7-2.6-10.4-2.5-15.2
	c0-13.2,8.6-18.2,20-11.6C1047.7,399.7,1056.9,415.7,1056.9,428.9z M1036.1,428c5.3,3.1,9.7,0.6,9.7-5.5c0-6.1-4.3-13.6-9.6-16.7
	c-5.3-3.1-9.7-0.6-9.7,5.5C1026.5,417.4,1030.8,424.9,1036.1,428L1036.1,428"/>
<path style="fill:#BE0000;" d="M135.4,297.3h-67c-14.6,0-26.5-11.9-26.5-26.5v0c0-14.6,11.9-26.5,26.5-26.5h67
	c14.6,0,26.5,11.9,26.5,26.5v0C161.9,285.5,150,297.3,135.4,297.3z"/>
<g>
	<path style="fill:#FFFFFF;" d="M67,259.8l-0.5-2.4c1.3-1.4,2.2-3.2,2.9-5.4l2,0.6l-0.4,1.2h3.4v1.5c-0.4,1-0.9,1.8-1.3,2.6h1.9V268
		h-7.2v-8.8C67.4,259.4,67.2,259.6,67,259.8z M69.1,269.1c-0.1,2-0.5,3.8-1,5.3l-1.4-0.5c0.6-1.4,0.9-3.1,1-5L69.1,269.1z M72,255.6
		H70c-0.4,0.8-0.9,1.5-1.4,2.2h2.1C71.2,257.2,71.6,256.4,72,255.6z M70.4,262v-2.4h-1v2.4H70.4z M70.4,263.7h-1v2.7h1V263.7z
		 M71.1,273.7l-1.3,0.1c0-2.1-0.1-3.6-0.3-4.8l1.2-0.1C70.9,270.1,71,271.7,71.1,273.7z M73.2,273.3l-1.3,0.1
		c-0.1-2-0.3-3.5-0.7-4.6l1.3-0.1C72.8,269.9,73.1,271.4,73.2,273.3z M72,262h1v-2.4h-1V262z M73,263.7h-1v2.7h1V263.7z M75.3,272.3
		c0.7-1.2,1.2-2.4,1.6-3.6l1.6,0.8c-0.5,1.6-1.2,3.1-2,4.6l-1.7-0.9C75,273,75.1,272.7,75.3,272.3l-1.3,0.4
		c-0.2-1.4-0.6-2.6-0.9-3.8l1.2-0.4C74.7,269.7,75,270.9,75.3,272.3z M81.8,253.1v15h-6v-15H81.8z M79.8,257.3V255h-2v2.3H79.8z
		 M79.8,261.7v-2.5h-2v2.5H79.8z M79.8,263.6h-2v2.7h2V263.6z M82.6,272.7l-1.5,1c-0.5-1.3-1.2-2.7-2-4.2l1.4-0.9
		C81.4,270.2,82.1,271.6,82.6,272.7z M84.9,254.3v14.9H83v-14.9H84.9z M83.9,274.2l-0.5-2c0.7,0.1,1.3,0.1,1.9,0.1
		c0.5,0,0.8-0.3,0.8-1v-19h2.1v19.6c0,1.5-0.7,2.3-2.1,2.3H83.9z"/>
	<path style="fill:#FFFFFF;" d="M96.1,269.7c-0.9,1.8-2,3.5-3.3,4.8l-1.9-1.4c1.3-1.2,2.4-2.7,3.3-4.4L96.1,269.7z M92.4,260.3
		l-1.5-1.8c2.8-1.5,5.2-3.7,7.2-6.4l2.3,0.5c-0.3,0.5-0.7,0.9-1,1.4h7.9v1.7c-0.6,0.8-1.3,1.5-1.9,2.1h4.8v10.7H93.9v-9.1
		C93.4,259.7,92.9,260,92.4,260.3z M104.6,256h-6.8c-0.6,0.6-1.2,1.2-1.8,1.7h6.8C103.3,257.2,103.9,256.7,104.6,256z M101.1,262
		v-2.1h-4.9v2.1H101.1z M101.1,264h-4.9v2.2h4.9V264z M101,273.9l-2.3,0.5c-0.3-1.8-0.6-3.4-1-4.7l2.2-0.4
		C100.3,270.7,100.7,272.3,101,273.9z M106.6,273.9l-2.3,0.5c-0.5-1.8-1.1-3.4-1.8-4.8l2.2-0.5C105.4,270.6,106.1,272.2,106.6,273.9
		z M103.2,262h5v-2.1h-5V262z M108.2,264h-5v2.2h5V264z M112.9,273.1l-1.9,1.4c-0.7-1.4-1.7-2.9-2.9-4.6l1.9-1.2
		C111.2,270.4,112.2,271.9,112.9,273.1z"/>
	<path style="fill:#FFFFFF;" d="M120.7,261.5l-1.6,1.6c-0.9-1.1-2.3-2.2-4-3.5l1.6-1.6C118.2,259.2,119.6,260.3,120.7,261.5z
		 M121.1,265.6c-1.1,3-2.4,5.9-3.7,8.6l-2.3-1c1.5-2.7,2.8-5.5,3.9-8.4L121.1,265.6z M121.2,255.7l-1.6,1.6c-1-1.1-2.4-2.2-4.1-3.4
		l1.6-1.6C118.7,253.5,120.1,254.6,121.2,255.7z M132,274.1l-0.6-2.1l2,0.1c0.5,0,0.8-0.4,0.8-1.1v-2h-4v4.8h-2.1v-4.8h-3.9v5.1
		h-2.1v-15.9h4.9c-0.9-0.5-1.8-1.1-2.8-1.6l1.5-1.4c1.2,0.6,2.2,1.3,3.2,1.9c1.2-0.6,2.3-1.4,3.5-2.2h-10.6v-2.1h13.7v1.9
		c-1.4,1.3-3,2.5-4.8,3.6h5.5v13.2c0,1.7-0.7,2.6-2.2,2.6H132z M128.1,262.8v-2.3h-3.9v2.3H128.1z M128.1,267.1v-2.3h-3.9v2.3H128.1
		z M130.2,262.8h4v-2.3h-4V262.8z M130.2,267.1h4v-2.3h-4V267.1z"/>
	<path style="fill:#FFFFFF;" d="M75.4,291.5c-1.4-0.4-2.7-0.8-3.9-1.3c-0.2-0.1-0.4-0.1-0.7-0.1c-2.3-0.1-4.4-1.8-4.4-5.1
		c0-3.1,1.9-5.3,4.8-5.3c2.9,0,4.7,2.2,4.7,5.1c0,2.4-1.1,4.1-2.6,4.7v0.1c0.9,0.2,1.8,0.5,2.7,0.6L75.4,291.5z M71.2,288.6
		c1.8,0,2.8-1.6,2.8-3.8c0-1.9-0.9-3.7-2.8-3.7c-1.8,0-2.8,1.8-2.8,3.8S69.4,288.6,71.2,288.6L71.2,288.6z"/>
	<path style="fill:#FFFFFF;" d="M84,287.7c0,0.9,0,1.6,0.1,2.2h-1.6l-0.1-1.1h0c-0.3,0.5-1,1.3-2.4,1.3c-1.3,0-2.5-0.8-2.5-3.2v-4.3
		h1.8v4c0,1.2,0.4,2,1.4,2c0.8,0,1.2-0.5,1.4-1c0.1-0.2,0.1-0.4,0.1-0.6v-4.4H84V287.7z"/>
	<path style="fill:#FFFFFF;" d="M91.7,288.2c0,0.7,0,1.3,0.1,1.8h-1.7l-0.1-0.8h0c-0.4,0.6-1.2,1-2.2,1c-1.5,0-2.3-1.1-2.3-2.2
		c0-1.8,1.6-2.8,4.3-2.8V285c0-0.5-0.2-1.3-1.5-1.3c-0.7,0-1.5,0.2-2,0.5l-0.4-1.2c0.5-0.3,1.5-0.6,2.6-0.6c2.3,0,3,1.5,3,3.1V288.2
		z M89.9,286.4c-1.3,0-2.5,0.3-2.5,1.4c0,0.7,0.5,1.1,1,1.1c0.8,0,1.3-0.5,1.5-1c0-0.1,0-0.3,0-0.4V286.4z"/>
	<path style="fill:#FFFFFF;" d="M93.6,285c0-1,0-1.7-0.1-2.4h1.6l0.1,1.4h0c0.4-1,1.2-1.5,2-1.5c0.2,0,0.3,0,0.4,0v1.7
		c-0.2,0-0.3,0-0.6,0c-0.9,0-1.5,0.6-1.7,1.4c0,0.2,0,0.4,0,0.6v3.8h-1.8V285z"/>
	<path style="fill:#FFFFFF;" d="M99,285c0-1,0-1.7-0.1-2.4h1.6l0.1,1.4h0c0.4-1,1.2-1.5,2-1.5c0.2,0,0.3,0,0.4,0v1.7
		c-0.2,0-0.3,0-0.6,0c-0.9,0-1.5,0.6-1.7,1.4c0,0.2,0,0.4,0,0.6v3.8H99V285z"/>
	<path style="fill:#FFFFFF;" d="M105.8,282.6l1.3,3.9c0.1,0.4,0.3,1,0.4,1.4h0c0.1-0.4,0.2-1,0.4-1.4l1.1-3.9h2l-1.8,5
		c-1,2.7-1.7,3.9-2.5,4.7c-0.7,0.6-1.5,0.9-1.9,0.9l-0.4-1.5c0.3-0.1,0.7-0.2,1.1-0.5c0.3-0.2,0.8-0.7,1-1.2
		c0.1-0.1,0.1-0.2,0.1-0.3c0-0.1,0-0.2-0.1-0.4l-2.7-6.7H105.8z"/>
	<path style="fill:#FFFFFF;" d="M115.3,280c0.6-0.1,1.6-0.2,2.7-0.2c1.4,0,2.2,0.2,2.9,0.6c0.6,0.4,1,1,1,1.9c0,0.9-0.6,1.8-1.7,2.2
		v0c1.1,0.3,2,1.1,2,2.5c0,0.9-0.4,1.6-1,2.1c-0.7,0.6-1.9,0.9-3.8,0.9c-1,0-1.8-0.1-2.3-0.1V280z M117.2,284h0.9c1.3,0,2-0.6,2-1.5
		c0-1-0.7-1.4-1.9-1.4c-0.5,0-0.9,0-1.1,0.1V284z M117.2,288.6c0.2,0,0.6,0,1,0c1.2,0,2.2-0.4,2.2-1.7c0-1.2-1-1.6-2.3-1.6h-0.9
		V288.6z"/>
	<path style="fill:#FFFFFF;" d="M129.6,288.2c0,0.7,0,1.3,0.1,1.8H128l-0.1-0.8h0c-0.4,0.6-1.2,1-2.2,1c-1.5,0-2.3-1.1-2.3-2.2
		c0-1.8,1.6-2.8,4.3-2.8V285c0-0.5-0.2-1.3-1.5-1.3c-0.7,0-1.5,0.2-2,0.5l-0.4-1.2c0.5-0.3,1.5-0.6,2.6-0.6c2.3,0,3,1.5,3,3.1V288.2
		z M127.8,286.4c-1.3,0-2.5,0.3-2.5,1.4c0,0.7,0.5,1.1,1,1.1c0.8,0,1.3-0.5,1.5-1c0-0.1,0-0.3,0-0.4V286.4z"/>
	<path style="fill:#FFFFFF;" d="M132.5,282.6l1.3,3.9c0.1,0.4,0.3,1,0.4,1.4h0c0.1-0.4,0.2-1,0.4-1.4l1.1-3.9h2l-1.8,5
		c-1,2.7-1.7,3.9-2.5,4.7c-0.7,0.6-1.5,0.9-1.9,0.9l-0.4-1.5c0.3-0.1,0.7-0.2,1.1-0.5c0.3-0.2,0.8-0.7,1-1.2
		c0.1-0.1,0.1-0.2,0.1-0.3c0-0.1,0-0.2-0.1-0.4l-2.7-6.7H132.5z"/>
</g>
<g>
	<path d="M101.4,200.5c-5.3-3.1-9.7-10.6-9.6-16.7c0-2.1,0.5-3.7,1.4-4.9c-2.4,0.7-3.8,3.4-3.8,7.2c0,6.1,4.3,13.6,9.6,16.7
		c3.9,2.2,7.2,1.5,8.8-1.4C106,202.2,103.8,201.9,101.4,200.5z"/>
	<path d="M99.1,167.8c-5.8-3.3-10.8-3.6-14.6-1.5c1.6-0.9,3.1-1.9,4.8-2.9c3.8-2.2,9-1.9,14.8,1.4c11.5,6.6,20.7,22.7,20.7,35.8
		c0,3.6-0.5,8.3-3.3,12.8l-15.8,24.1l-5.9,3.5l18.2-28.7c1.2-2.3,1.9-5.3,1.9-8.9C119.8,190.4,110.5,174.4,99.1,167.8z"/>
</g>
<path style="fill:#BE0000;" d="M119.7,203.6c0,3.6-0.7,6.5-1.9,8.9l-18.2,28.7l-18-46.5c-2-7-2.6-10.4-2.5-15.2
	c0-13.2,8.6-18.2,20-11.6C110.5,174.4,119.8,190.4,119.7,203.6z M99,202.7c5.3,3.1,9.7,0.6,9.7-5.5c0-6.1-4.3-13.6-9.6-16.7
	c-5.3-3.1-9.7-0.6-9.7,5.5C89.3,192.2,93.6,199.6,99,202.7L99,202.7"/>
<g>
	<g>
		<g>
			<path style="fill:#FFFFFF;" d="M100.8,779.3H25.5c-0.6,0-1-0.5-1-1s0.5-1,1-1h75.4c0.6,0,1,0.5,1,1S101.4,779.3,100.8,779.3z"/>
		</g>
		<g>
			<path style="fill:#FFFFFF;" d="M79.5,828.2H46.8c-7.6,0-13.8-6.2-13.8-13.8v-12.3c0-7.6,6.2-13.8,13.8-13.8h32.8
				c7.6,0,13.8,6.2,13.8,13.8v12.3C93.3,822,87.1,828.2,79.5,828.2z M46.8,790.5c-6.4,0-11.7,5.2-11.7,11.7v12.3
				c0,6.4,5.2,11.7,11.7,11.7h32.8c6.4,0,11.7-5.2,11.7-11.7v-12.3c0-6.4-5.2-11.7-11.7-11.7H46.8z"/>
		</g>
		<g>
			<path style="fill:#FFFFFF;" d="M92.2,818.1c-2,0-3.7-1.6-3.7-3.7v-12.3c0-5-4.1-9-9-9c-2,0-3.7-1.6-3.7-3.7s1.6-3.7,3.7-3.7
				c9,0,16.4,7.3,16.4,16.4v12.3C95.9,816.5,94.2,818.1,92.2,818.1z"/>
		</g>
		<g>
			<path style="fill:#FFFFFF;" d="M34.1,818.1c-2,0-3.7-1.6-3.7-3.7v-12.3c0-9,7.3-16.4,16.4-16.4c2,0,3.7,1.6,3.7,3.7
				s-1.6,3.7-3.7,3.7c-5,0-9,4.1-9,9v12.3C37.7,816.5,36.1,818.1,34.1,818.1z"/>
		</g>
		<g>
			<path style="fill:#FFFFFF;" d="M63.1,859c-2,0-3.7-1.6-3.7-3.7v-86.5c0-2,1.6-3.7,3.7-3.7s3.7,1.6,3.7,3.7v86.5
				C66.8,857.4,65.2,859,63.1,859z"/>
		</g>
		<g>
			<path style="fill:#FFFFFF;" d="M90.9,809.3H36.8c-0.6,0-1-0.5-1-1s0.5-1,1-1h54.1c0.6,0,1,0.5,1,1S91.5,809.3,90.9,809.3z"/>
		</g>
		<g>
			<path style="fill:#FFFFFF;" d="M24.4,856.4c-0.1,0-0.1,0-0.2,0c-0.6,0-1-0.5-1-1.1c0-0.6,0.5-1,1.1-1c0.1,0,9.7,0.1,16.6-6.6
				c4.8-4.7,7.2-11.6,7.2-20.5c0-0.6,0.5-1,1-1s1,0.5,1,1c0,9.5-2.7,16.9-7.9,22C35.2,856.1,25.8,856.4,24.4,856.4z"/>
		</g>
		<g>
			<path style="fill:#FFFFFF;" d="M101.9,856.4c-1.4,0-10.8-0.3-17.9-7.2c-5.2-5.1-7.9-12.5-7.9-22c0-0.6,0.5-1,1-1s1,0.5,1,1
				c0,8.9,2.4,15.8,7.2,20.5c6.9,6.8,16.5,6.6,16.6,6.6c0,0,0,0,0,0c0.6,0,1,0.5,1,1c0,0.6-0.4,1.1-1,1.1
				C102.1,856.4,102,856.4,101.9,856.4z"/>
		</g>
	</g>
	<g>
		<path style="fill:#FFFFFF;" d="M194.2,816.1c-2.2,0-4.3,0.5-6.2,1.3c-5.7,2.4-9.8,8.1-9.8,14.7c0,8.3,6.3,15.1,14.3,15.9
			c0.5,0.1,1.1,0.1,1.6,0.1c8.8,0,16-7.2,16-16C210.1,823.2,203,816.1,194.2,816.1z M194.2,841.7c-5.3,0-9.7-4.3-9.7-9.7
			c0-5.3,4.4-9.7,9.7-9.7c5.4,0,9.7,4.4,9.7,9.7C203.8,837.4,199.5,841.7,194.2,841.7z"/>
		<ellipse style="fill:#FFFFFF;" cx="158.4" cy="832" rx="12.7" ry="12.6"/>
		<path style="fill:#FFFFFF;" d="M182.1,815.4c6.8-2.9,11.6-9.6,11.6-17.4c0-10.4-8.5-18.8-18.9-18.8s-18.9,8.5-18.9,18.8
			s8.5,18.8,18.9,18.8C177.4,816.9,179.9,816.4,182.1,815.4z M159,798.1c0-8.7,7.1-15.7,15.8-15.7c8.7,0,15.8,7,15.8,15.7
			s-7.1,15.7-15.8,15.7C166.1,813.8,159,806.7,159,798.1z"/>
		<path style="fill:#FFFFFF;" d="M192.3,852.2h-31c-13.4,0-24.4-10.1-25.8-22.9c0.9-0.6,1.5-1.6,1.5-2.7v-28.4
			c0-12.7,10.4-23.1,23.3-23.1h14.5h15.9c1.8,0,3.2-1.4,3.2-3.1c0-1.8-1.4-3.2-3.2-3.2h-30.4c-4,0-7.8,0.8-11.3,2.2
			c-3.6,1.5-6.8,3.6-9.6,6.4c-5.6,5.5-8.6,12.8-8.7,20.6c0,0,0,0,0,0.1v28.6c0,1.2,0.7,2.3,1.7,2.8c0.6,6.6,3.6,12.8,8.4,17.5
			c5.4,5.4,12.6,8.4,20.3,8.4c0,0,0,0,0.1,0h31.2c0.9,0,1.6-0.7,1.6-1.6C193.8,852.9,193.1,852.2,192.3,852.2z"/>
	</g>
</g>
</svg>
