<svg id="Layer_1" data-name="Layer 1" xmlns="http://www.w3.org/2000/svg" xmlns:xlink="http://www.w3.org/1999/xlink" width="847" height="1061.83" viewBox="0 0 847 1061.83"><defs><clipPath id="clip-path"><rect x="-873" width="1720" height="1480" style="fill:none"/></clipPath></defs><g style="clip-path:url(#clip-path)"><text transform="translate(31 142.13)" style="font-size:24px;fill:#fff;font-family:NotoSansHK-Medium-83pv-RKSJ-H, Noto Sans HK"><tspan style="letter-spacing:0.12400309244791667em">　　</tspan><tspan x="53.95" y="0" style="letter-spacing:0.07899983723958333em">華</tspan><tspan x="79.85" y="0" style="letter-spacing:0.08298746744791667em">富</tspan><tspan x="105.84" y="0" style="letter-spacing:0.09299723307291667em">邨</tspan><tspan x="132.07" y="0" style="letter-spacing:0.07700602213541667em">往</tspan><tspan x="157.92" y="0" style="letter-spacing:0.06599934895833333em">昔</tspan><tspan x="183.5" y="0" style="letter-spacing:0.09999593098958333em">有許</tspan><tspan x="236.3" y="0" style="letter-spacing:0.06998697916666667em">多</tspan><tspan x="261.98" y="0" style="letter-spacing:0.09100341796875em">曲</tspan><tspan x="288.17" y="0" style="letter-spacing:0.09999593098958333em">折</tspan><tspan x="314.57" y="0" style="letter-spacing:0.11600748697916667em">迂</tspan><tspan x="341.35" y="0" style="letter-spacing:0.0989990234375em">迴</tspan><tspan x="367.73" y="0" style="letter-spacing:0.0830078125em">的</tspan><tspan x="393.72" y="0" style="letter-spacing:0.08799235026041667em">山</tspan><tspan x="419.83" y="0" style="letter-spacing:-0.09200032552083333em">徑</tspan><tspan x="441.62" y="0" style="letter-spacing:-0.11399332682291667em">，</tspan><tspan x="462.89" y="0" style="letter-spacing:0.06998697916666667em">自</tspan><tspan x="488.57" y="0" style="letter-spacing:0.1090087890625em">遠</tspan><tspan x="515.18" y="0" style="letter-spacing:0.08799235026041667em">處</tspan><tspan x="541.3" y="0" style="letter-spacing:0.10300699869791667em">觀</tspan><tspan x="567.77" y="0" style="letter-spacing:0.10500081380208333em">望</tspan><tspan x="594.29" y="0" style="letter-spacing:0.11600748697916667em">就</tspan><tspan x="621.07" y="0" style="letter-spacing:0.093994140625em">如</tspan><tspan x="647.33" y="0" style="letter-spacing:0.09999593098958333em">雞</tspan><tspan x="673.73" y="0">籠</tspan></text><text transform="translate(31 180.13)" style="font-size:24px;fill:#fff;font-family:NotoSansHK-Medium-83pv-RKSJ-H, Noto Sans HK"><tspan style="letter-spacing:0.07899983723958333em">上</tspan><tspan x="25.9" y="0" style="letter-spacing:0.04400634765625em">竹</tspan><tspan x="50.95" y="0" style="letter-spacing:0.058003743489583336em">片</tspan><tspan x="76.34" y="0" style="letter-spacing:0.10498046875em">交</tspan><tspan x="102.86" y="0" style="letter-spacing:-0.072998046875em">錯</tspan><tspan x="125.11" y="0" style="letter-spacing:-0.08099365234375em">，</tspan><tspan x="147.17" y="0" style="letter-spacing:0.11100260416666667em">故</tspan><tspan x="173.83" y="0" style="letter-spacing:0.10198974609375em">被</tspan><tspan x="200.28" y="0" style="letter-spacing:0.093017578125em">稱</tspan><tspan x="226.51" y="0" style="letter-spacing:-0.17799886067708334em">作</tspan><tspan x="246.24" y="0" style="letter-spacing:0.11098225911458333em">「</tspan><tspan x="272.9" y="0" style="letter-spacing:0.10201009114583333em">雞</tspan><tspan x="299.35" y="0" style="letter-spacing:0.10500081380208333em">籠</tspan><tspan x="325.87" y="0" style="letter-spacing:0.10599772135416667em">灣</tspan><tspan x="352.42" y="0" style="letter-spacing:-0.5110066731770834em">」</tspan><tspan x="364.15" y="0" style="letter-spacing:-0.08799235026041667em">。</tspan><tspan x="386.04" y="0" style="letter-spacing:0.125em">首</tspan><tspan x="413.04" y="0" style="letter-spacing:0.12599690755208334em">期</tspan><tspan x="440.06" y="0">於</tspan></text><text transform="translate(497.8 179.13)" style="font-size:24px;fill:#fff;font-family:MyriadPro-Regular, Myriad Pro"><tspan style="letter-spacing:0.048014322916666664em">1</tspan><tspan x="13.46" y="0" style="letter-spacing:0.1199951171875em">9</tspan><tspan x="28.66" y="0" style="letter-spacing:0.0780029296875em">6</tspan><tspan x="42.84" y="0">7</tspan></text><text transform="translate(555.64 180.13)" style="font-size:24px;fill:#fff;font-family:NotoSansHK-Medium-83pv-RKSJ-H, Noto Sans HK">年</text><text transform="translate(581.01 179.13)" style="font-size:24px;fill:#fff;font-family:MyriadPro-Regular, Myriad Pro"><tspan style="letter-spacing:0.006001790364583333em">1</tspan><tspan x="12.46" y="0">1</tspan></text><text transform="translate(607.27 180.13)" style="font-size:24px;fill:#fff;font-family:NotoSansHK-Medium-83pv-RKSJ-H, Noto Sans HK"><tspan style="letter-spacing:0.06899007161458333em">月</tspan><tspan x="25.66" y="0" style="letter-spacing:0.10500081380208333em">落</tspan><tspan x="52.18" y="0" style="letter-spacing:-0.059000651041666664em">成</tspan><tspan x="74.76" y="0" style="letter-spacing:-0.042989095052083336em">，</tspan><tspan x="97.73" y="0">住</tspan></text><text transform="translate(31 218.13)" style="font-size:24px;fill:#fff;font-family:NotoSansHK-Medium-83pv-RKSJ-H, Noto Sans HK"><tspan style="letter-spacing:0.07600911458333333em">戶</tspan><tspan x="25.82" y="0" style="letter-spacing:0.13999430338541666em">數</tspan><tspan x="53.18" y="0" style="letter-spacing:0.11700439453125em">最</tspan><tspan x="79.99" y="0" style="letter-spacing:0.1099853515625em">多</tspan><tspan x="106.63" y="0" style="letter-spacing:0.14101155598958334em">時</tspan><tspan x="134.02" y="0" style="letter-spacing:0.12099202473958333em">約</tspan><tspan x="160.92" y="0" style="letter-spacing:0.08900960286458333em">有</tspan><tspan x="187.06" y="0" style="letter-spacing:0.09698486328125em">五</tspan><tspan x="213.38" y="0" style="letter-spacing:0.11000569661458333em">萬</tspan><tspan x="240.02" y="0" style="letter-spacing:-0.1669921875em">人</tspan><tspan x="260.02" y="0" style="letter-spacing:-0.053995768229166664em">。</tspan><tspan x="282.72" y="0" style="letter-spacing:0.10099283854166667em">它</tspan><tspan x="309.14" y="0" style="letter-spacing:0.11899820963541667em">也</tspan><tspan x="336" y="0" style="letter-spacing:0.0780029296875em">是</tspan><tspan x="361.87" y="0" style="letter-spacing:0.08799235026041667em">首</tspan><tspan x="387.98" y="0" style="letter-spacing:0.12701416015625em">個</tspan><tspan x="415.03" y="0" style="letter-spacing:0.08498128255208333em">以</tspan><tspan x="441.07" y="0" style="letter-spacing:0.13301595052083334em">市</tspan><tspan x="468.26" y="0" style="letter-spacing:0.125em">鎮</tspan><tspan x="495.26" y="0" style="letter-spacing:0.11299641927083333em">式出</tspan><tspan x="548.69" y="0" style="letter-spacing:0.12900797526041666em">現</tspan><tspan x="575.78" y="0" style="letter-spacing:0.10898844401041667em">的</tspan><tspan x="602.4" y="0" style="letter-spacing:0.09501139322916667em">屋</tspan><tspan x="628.68" y="0" style="letter-spacing:-0.046000162760416664em">邨</tspan><tspan x="651.58" y="0" style="letter-spacing:-0.07600911458333333em">，</tspan><tspan x="673.75" y="0">屋</tspan></text><text transform="translate(31 256.13)" style="font-size:24px;fill:#fff;font-family:NotoSansHK-Medium-83pv-RKSJ-H, Noto Sans HK"><tspan style="letter-spacing:0.11299641927083333em">邨</tspan><tspan x="26.71" y="0" style="letter-spacing:0.13100179036458334em">內</tspan><tspan x="53.86" y="0" style="letter-spacing:0.13800048828125em">配</tspan><tspan x="81.17" y="0" style="letter-spacing:0.11800130208333333em">備</tspan><tspan x="108" y="0" style="letter-spacing:0.12300618489583333em">商</tspan><tspan x="134.95" y="0" style="letter-spacing:-0.006998697916666667em">場</tspan><tspan x="158.78" y="0" style="letter-spacing:-0.010009765625em">、</tspan><tspan x="182.54" y="0" style="letter-spacing:0.13600667317708334em">街</tspan><tspan x="209.81" y="0" style="letter-spacing:-0.055013020833333336em">市</tspan><tspan x="232.49" y="0" style="letter-spacing:-0.02398681640625em">、</tspan><tspan x="255.91" y="0" style="letter-spacing:0.14699300130208334em">學</tspan><tspan x="283.44" y="0" style="letter-spacing:-0.019999186197916668em">校</tspan><tspan x="306.96" y="0" style="letter-spacing:-0.0469970703125em">、</tspan><tspan x="329.83" y="0" style="letter-spacing:0.12300618489583333em">停</tspan><tspan x="356.78" y="0" style="letter-spacing:0.14298502604166666em">車</tspan><tspan x="384.22" y="0" style="letter-spacing:0.12701416015625em">場</tspan><tspan x="411.26" y="0" style="letter-spacing:0.13899739583333334em">等</tspan><tspan x="438.6" y="0" style="letter-spacing:0.15399169921875em">設</tspan><tspan x="466.3" y="0" style="letter-spacing:-0.043986002604166664em">施</tspan><tspan x="489.24" y="0" style="letter-spacing:-0.07000732421875em">，</tspan><tspan x="511.56" y="0" style="letter-spacing:0.10699462890625em">居</tspan><tspan x="538.13" y="0" style="letter-spacing:0.12300618489583333em">民</tspan><tspan x="565.08" y="0" style="letter-spacing:0.13199869791666666em">所</tspan><tspan x="592.25" y="0" style="letter-spacing:0.14699300130208334em">需</tspan><tspan x="619.78" y="0" style="letter-spacing:0.1300048828125em">一</tspan><tspan x="646.9" y="0" style="letter-spacing:0.12599690755208334em">應</tspan><tspan x="673.92" y="0">俱</tspan></text><text transform="translate(31 294.13)" style="font-size:24px;fill:#fff;font-family:NotoSansHK-Medium-83pv-RKSJ-H, Noto Sans HK"><tspan style="letter-spacing:-0.053995768229166664em">全</tspan><tspan x="22.7" y="0">。</tspan></text><line x1="37.75" y1="337.88" x2="724.75" y2="337.88" style="fill:none;stroke:#eee8cf;stroke-linecap:round;stroke-linejoin:round;stroke-width:2.5px;stroke-dasharray:0,4.995999813079834"/><path d="M727.25,337.88h0m-694.5,0h0" style="fill:none;stroke:#eee8cf;stroke-linecap:round;stroke-linejoin:round;stroke-width:2.5px"/><text transform="translate(31 398.13)" style="font-size:24px;fill:#eee8cf;font-family:NotoSansHK-Medium-83pv-RKSJ-H, Noto Sans HK"><tspan style="letter-spacing:0.07899983723958333em">對</tspan><tspan x="25.9" y="0" style="letter-spacing:0.08099365234375em">應</tspan><tspan x="51.84" y="0" style="letter-spacing:0.08599853515625em">作</tspan><tspan x="77.9" y="0" style="letter-spacing:-0.09800211588541667em">品</tspan><tspan x="99.55" y="0" style="letter-spacing:-0.09999593098958333em">：</tspan><tspan x="121.15" y="0" style="letter-spacing:0.06599934895833333em">王</tspan><tspan x="146.74" y="0" style="letter-spacing:0.07700602213541667em">良</tspan><tspan x="172.58" y="0" style="letter-spacing:-0.19000244140625em">和</tspan><tspan x="192.02" y="0" style="letter-spacing:0.08900960286458333em">〈</tspan><tspan x="218.16" y="0" style="letter-spacing:0.11399332682291667em">瀑</tspan><tspan x="244.9" y="0" style="letter-spacing:0.0679931640625em">布</tspan><tspan x="270.53" y="0" style="letter-spacing:0.1090087890625em">灣</tspan><tspan x="297.14" y="0" style="letter-spacing:0.09800211588541667em">道</tspan><tspan x="323.5" y="0" style="letter-spacing:-0.69000244140625em">〉</tspan><tspan x="330.94" y="0" style="letter-spacing:0.07598876953125em">（</tspan><tspan x="356.76" y="0" style="letter-spacing:0.09401448567708333em">節</tspan><tspan x="383.02" y="0" style="letter-spacing:0.07200113932291667em">錄</tspan><tspan x="408.74" y="0">）</tspan></text><text transform="translate(31 457.13)" style="font-size:24px;fill:#eee8cf;font-family:NotoSansHK-Medium-83pv-RKSJ-H, Noto Sans HK"><tspan style="letter-spacing:0.114990234375em">　　</tspan><tspan x="53.52" y="0" style="letter-spacing:0.093994140625em">華</tspan><tspan x="79.78" y="0" style="letter-spacing:0.09800211588541667em">富</tspan><tspan x="106.13" y="0" style="letter-spacing:0.10400390625em">邨</tspan><tspan x="132.62" y="0" style="letter-spacing:0.11700439453125em">的</tspan><tspan x="159.43" y="0" style="letter-spacing:0.11399332682291667em">街</tspan><tspan x="186.17" y="0" style="letter-spacing:-0.09000651041666667em">市</tspan><tspan x="208.01" y="0" style="letter-spacing:-0.06899007161458333em">，</tspan><tspan x="230.35" y="0" style="letter-spacing:0.08599853515625em">初</tspan><tspan x="256.42" y="0" style="letter-spacing:0.12198893229166667em">見</tspan><tspan x="283.34" y="0" style="letter-spacing:0.093017578125em">真</tspan><tspan x="309.58" y="0" style="letter-spacing:0.0679931640625em">有</tspan><tspan x="335.21" y="0" style="letter-spacing:0.12099202473958333em">一點</tspan><tspan x="389.02" y="0" style="letter-spacing:0.1199951171875em">新</tspan><tspan x="415.9" y="0" style="letter-spacing:0.09800211588541667em">奇</tspan><tspan x="442.25" y="0" style="letter-spacing:0.11299641927083333em">的</tspan><tspan x="468.96" y="0" style="letter-spacing:0.09501139322916667em">驚</tspan><tspan x="495.24" y="0" style="letter-spacing:-0.045003255208333336em">喜</tspan><tspan x="518.16" y="0" style="letter-spacing:-0.0670166015625em">。</tspan><tspan x="540.55" y="0" style="letter-spacing:0.08601888020833333em">它</tspan><tspan x="566.62" y="0" style="letter-spacing:0.093994140625em">不</tspan><tspan x="592.87" y="0" style="letter-spacing:0.125em">是</tspan><tspan x="619.87" y="0" style="letter-spacing:0.12400309244791667em">那</tspan><tspan x="646.85" y="0" style="letter-spacing:0.12099202473958333em">種</tspan><tspan x="673.75" y="0">露</tspan></text><text transform="translate(31 495.13)" style="font-size:24px;fill:#eee8cf;font-family:NotoSansHK-Medium-83pv-RKSJ-H, Noto Sans HK"><tspan style="letter-spacing:-0.027994791666666668em">天</tspan><tspan x="23.33" y="0" style="letter-spacing:-0.012003580729166666em">、</tspan><tspan x="47.04" y="0" style="letter-spacing:0.12900797526041666em">攤</tspan><tspan x="74.14" y="0" style="letter-spacing:0.09698486328125em">子</tspan><tspan x="100.46" y="0" style="letter-spacing:0.14101155598958334em">處</tspan><tspan x="127.85" y="0" style="letter-spacing:-0.045003255208333336em">處</tspan><tspan x="150.77" y="0" style="letter-spacing:-0.05999755859375em">、</tspan><tspan x="173.33" y="0" style="letter-spacing:0.114990234375em">地</tspan><tspan x="200.09" y="0" style="letter-spacing:0.11000569661458333em">面</tspan><tspan x="226.73" y="0" style="letter-spacing:0.09700520833333333em">污</tspan><tspan x="253.06" y="0" style="letter-spacing:0.11899820963541667em">黑</tspan><tspan x="279.91" y="0" style="letter-spacing:0.12099202473958333em">濕</tspan><tspan x="306.82" y="0" style="letter-spacing:0.135009765625em">漉</tspan><tspan x="334.06" y="0" style="letter-spacing:0.11899820963541667em">的</tspan><tspan x="360.91" y="0" style="letter-spacing:0.0989990234375em">舊</tspan><tspan x="387.29" y="0" style="letter-spacing:0.13899739583333334em">式</tspan><tspan x="414.62" y="0" style="letter-spacing:0.12900797526041666em">街</tspan><tspan x="441.72" y="0" style="letter-spacing:-0.07401529947916667em">市</tspan><tspan x="463.94" y="0" style="letter-spacing:-0.058003743489583336em">，</tspan><tspan x="486.55" y="0" style="letter-spacing:0.11501057942708333em">而是巧妙</tspan><tspan x="593.59" y="0" style="letter-spacing:0.10599772135416667em">設</tspan><tspan x="620.14" y="0" style="letter-spacing:0.12001546223958333em">在</tspan><tspan x="647.02" y="0" style="letter-spacing:0.11598714192708333em">商</tspan><tspan x="673.8" y="0">場</tspan></text><text transform="translate(31 533.13)" style="font-size:24px;fill:#eee8cf;font-family:NotoSansHK-Medium-83pv-RKSJ-H, Noto Sans HK"><tspan style="letter-spacing:0.135009765625em">的</tspan><tspan x="27.24" y="0" style="letter-spacing:0.13899739583333334em">底</tspan><tspan x="54.58" y="0" style="letter-spacing:-0.02801513671875em">部</tspan><tspan x="77.9" y="0" style="letter-spacing:-0.02099609375em">，</tspan><tspan x="101.4" y="0" style="letter-spacing:0.14599609375em">晴</tspan><tspan x="128.9" y="0" style="letter-spacing:0.135009765625em">天</tspan><tspan x="156.14" y="0" style="letter-spacing:0.09499104817708333em">雨</tspan><tspan x="182.42" y="0" style="letter-spacing:-0.06699625651041667em">日</tspan><tspan x="204.82" y="0" style="letter-spacing:-0.07200113932291667em">，</tspan><tspan x="227.09" y="0" style="letter-spacing:0.14900716145833334em">買</tspan><tspan x="254.66" y="0" style="letter-spacing:0.11800130208333333em">菜</tspan><tspan x="281.5" y="0" style="letter-spacing:0.11899820963541667em">也</tspan><tspan x="308.35" y="0" style="letter-spacing:0.11000569661458333em">不</tspan><tspan x="334.99" y="0" style="letter-spacing:0.13698323567708334em">用</tspan><tspan x="362.28" y="0" style="letter-spacing:0.15500895182291666em">撐</tspan><tspan x="390" y="0" style="letter-spacing:-0.03399658203125em">傘</tspan><tspan x="413.18" y="0" style="letter-spacing:0.014994303385416666em">。</tspan><tspan x="437.54" y="0" style="letter-spacing:0.11000569661458333em">你</tspan><tspan x="464.18" y="0" style="letter-spacing:0.14699300130208334em">只</tspan><tspan x="491.71" y="0" style="letter-spacing:0.13399251302083334em">要</tspan><tspan x="518.93" y="0" style="letter-spacing:0.14801025390625em">沿</tspan><tspan x="546.48" y="0" style="letter-spacing:0.1300048828125em">着華</tspan><tspan x="600.72" y="0" style="letter-spacing:0.13700358072916666em">富</tspan><tspan x="628.01" y="0" style="letter-spacing:-0.05499267578125em">道</tspan><tspan x="650.69" y="0" style="letter-spacing:-0.032002766927083336em">，</tspan><tspan x="673.92" y="0">向</tspan></text><text transform="translate(31 571.13)" style="font-size:24px;fill:#eee8cf;font-family:NotoSansHK-Medium-83pv-RKSJ-H, Noto Sans HK"><tspan style="letter-spacing:0.14499918619791666em">左</tspan><tspan x="27.48" y="0" style="letter-spacing:0.13600667317708334em">走</tspan><tspan x="54.74" y="0" style="letter-spacing:0.12599690755208334em">到</tspan><tspan x="81.77" y="0" style="letter-spacing:0.15000406901041666em">瀑</tspan><tspan x="109.37" y="0" style="letter-spacing:0.10398356119791667em">布</tspan><tspan x="135.86" y="0" style="letter-spacing:0.14400227864583334em">灣</tspan><tspan x="163.32" y="0" style="letter-spacing:0.15000406901041666em">道</tspan><tspan x="190.92" y="0" style="letter-spacing:0.1090087890625em">入</tspan><tspan x="217.54" y="0" style="letter-spacing:-0.059000651041666664em">口</tspan><tspan x="240.12" y="0" style="letter-spacing:-0.09200032552083333em">，</tspan><tspan x="261.91" y="0" style="letter-spacing:0.12699381510416666em">左</tspan><tspan x="288.96" y="0" style="letter-spacing:-0.031005859375em">轉</tspan><tspan x="312.22" y="0" style="letter-spacing:-0.035990397135416664em">，</tspan><tspan x="335.35" y="0" style="letter-spacing:0.14300537109375em">落</tspan><tspan x="362.78" y="0" style="letter-spacing:0.12898763020833334em">斜</tspan><tspan x="389.88" y="0" style="letter-spacing:0.12200927734375em">路</tspan><tspan x="416.81" y="0" style="letter-spacing:0.1510009765625em">就</tspan><tspan x="444.43" y="0" style="letter-spacing:0.135986328125em">見</tspan><tspan x="471.7" y="0" style="letter-spacing:-0.01300048828125em">到</tspan><tspan x="495.38" y="0" style="letter-spacing:-0.016988118489583332em">。</tspan><tspan x="518.98" y="0" style="letter-spacing:0.12699381510416666em">然</tspan><tspan x="546.02" y="0" style="letter-spacing:-0.04998779296875em">而</tspan><tspan x="568.82" y="0" style="letter-spacing:-0.034016927083333336em">，</tspan><tspan x="592.01" y="0" style="letter-spacing:0.14801025390625em">這</tspan><tspan x="619.56" y="0" style="letter-spacing:0.12599690755208334em">是</tspan><tspan x="646.58" y="0" style="letter-spacing:0.13600667317708334em">許</tspan><tspan x="673.85" y="0">多</tspan></text><text transform="translate(31 609.13)" style="font-size:24px;fill:#eee8cf;font-family:NotoSansHK-Medium-83pv-RKSJ-H, Noto Sans HK"><tspan style="letter-spacing:0.09299723307291667em">年</tspan><tspan x="26.23" y="0" style="letter-spacing:-0.0780029296875em">後</tspan><tspan x="48.36" y="0" style="letter-spacing:-0.06500244140625em">，</tspan><tspan x="70.8" y="0" style="letter-spacing:0.09600830078125em">習</tspan><tspan x="97.1" y="0" style="letter-spacing:0.11800130208333333em">慣</tspan><tspan x="123.94" y="0" style="letter-spacing:0.11899820963541667em">上</tspan><tspan x="150.79" y="0" style="letter-spacing:0.114990234375em">網</tspan><tspan x="177.55" y="0" style="letter-spacing:0.08900960286458333em">看</tspan><tspan x="203.69" y="0" style="letter-spacing:0.11700439453125em">街</tspan><tspan x="230.5" y="0" style="letter-spacing:0.10799153645833333em">道</tspan><tspan x="257.09" y="0" style="letter-spacing:0.11000569661458333em">圖</tspan><tspan x="283.73" y="0" style="letter-spacing:0.11100260416666667em">的</tspan><tspan x="310.39" y="0" style="letter-spacing:0.11700439453125em">新</tspan><tspan x="337.2" y="0" style="letter-spacing:0.10198974609375em">世</tspan><tspan x="363.65" y="0" style="letter-spacing:-0.06699625651041667em">代</tspan><tspan x="386.04" y="0" style="letter-spacing:-0.08699544270833333em">，</tspan><tspan x="407.95" y="0" style="letter-spacing:0.08699544270833333em">或</tspan><tspan x="434.04" y="0" style="letter-spacing:0.11899820963541667em">者</tspan><tspan x="460.9" y="0" style="letter-spacing:0.12799072265625em">依</tspan><tspan x="487.97" y="0" style="letter-spacing:0.10001627604166667em">路</tspan><tspan x="514.37" y="0" style="letter-spacing:0.11698404947916667em">牌</tspan><tspan x="541.18" y="0" style="letter-spacing:0.10101318359375em">尋</tspan><tspan x="567.6" y="0" style="letter-spacing:0.10799153645833333em">路的</tspan><tspan x="620.78" y="0" style="letter-spacing:0.10298665364583333em">遊客</tspan><tspan x="673.73" y="0">的</tspan></text><text transform="translate(31 647.13)" style="font-size:24px;fill:#eee8cf;font-family:NotoSansHK-Medium-83pv-RKSJ-H, Noto Sans HK"><tspan style="letter-spacing:0.14499918619791666em">指</tspan><tspan x="27.48" y="0" style="letter-spacing:0.11800130208333333em">認</tspan><tspan x="54.31" y="0" style="letter-spacing:0.11100260416666667em">方</tspan><tspan x="80.98" y="0" style="letter-spacing:-0.034993489583333336em">法</tspan><tspan x="104.14" y="0" style="letter-spacing:-0.046000162760416664em">；</tspan><tspan x="127.03" y="0" style="letter-spacing:0.135986328125em">那</tspan><tspan x="154.3" y="0" style="letter-spacing:0.1199951171875em">年</tspan><tspan x="181.18" y="0" style="letter-spacing:0.1400146484375em">代</tspan><tspan x="208.54" y="0" style="letter-spacing:0.11698404947916667em">的</tspan><tspan x="235.34" y="0" style="letter-spacing:0.10801188151041667em">居</tspan><tspan x="261.94" y="0" style="letter-spacing:-0.060994466145833336em">民</tspan><tspan x="284.47" y="0" style="letter-spacing:-0.037007649739583336em">，</tspan><tspan x="307.58" y="0" style="letter-spacing:0.11899820963541667em">沒</tspan><tspan x="334.44" y="0" style="letter-spacing:0.12300618489583333em">有</tspan><tspan x="361.39" y="0" style="letter-spacing:0.1300048828125em">甚</tspan><tspan x="388.51" y="0" style="letter-spacing:0.15098063151041666em">麼</tspan><tspan x="416.14" y="0" style="letter-spacing:0.14501953125em">街</tspan><tspan x="443.62" y="0" style="letter-spacing:0.14298502604166666em">道</tspan><tspan x="471.05" y="0" style="letter-spacing:0.12900797526041666em">意</tspan><tspan x="498.14" y="0" style="letter-spacing:-0.010009765625em">識</tspan><tspan x="521.9" y="0" style="letter-spacing:0.00201416015625em">。</tspan><tspan x="545.95" y="0" style="letter-spacing:0.13899739583333334em">他</tspan><tspan x="573.29" y="0" style="letter-spacing:0.13800048828125em">們</tspan><tspan x="600.6" y="0" style="letter-spacing:0.15598551432291666em">會</tspan><tspan x="628.34" y="0" style="letter-spacing:-0.059000651041666664em">說</tspan><tspan x="650.93" y="0" style="letter-spacing:-0.045979817708333336em">，</tspan><tspan x="673.82" y="0">邨</tspan></text><text transform="translate(31 685.13)" style="font-size:24px;fill:#eee8cf;font-family:NotoSansHK-Medium-83pv-RKSJ-H, Noto Sans HK"><tspan style="letter-spacing:-0.08699544270833333em">口</tspan><tspan x="21.91" y="0" style="letter-spacing:-0.07700602213541667em">，</tspan><tspan x="44.06" y="0" style="letter-spacing:0.11600748697916667em">大</tspan><tspan x="70.85" y="0" style="letter-spacing:0.09999593098958333em">大</tspan><tspan x="97.25" y="0" style="letter-spacing:0.07100423177083333em">公</tspan><tspan x="122.95" y="0" style="letter-spacing:-0.08101399739583333em">司</tspan><tspan x="145.01" y="0" style="letter-spacing:-0.06699625651041667em">，</tspan><tspan x="167.4" y="0" style="letter-spacing:0.11700439453125em">華</tspan><tspan x="194.21" y="0" style="letter-spacing:0.12900797526041666em">泰</tspan><tspan x="221.3" y="0" style="letter-spacing:-0.059000651041666664em">樓</tspan><tspan x="243.89" y="0" style="letter-spacing:-0.0670166015625em">，</tspan><tspan x="266.28" y="0" style="letter-spacing:0.09800211588541667em">華</tspan><tspan x="292.63" y="0" style="letter-spacing:0.114013671875em">明</tspan><tspan x="319.37" y="0" style="letter-spacing:-0.059000651041666664em">樓</tspan><tspan x="341.95" y="0" style="letter-spacing:-0.06801350911458333em">，</tspan><tspan x="364.32" y="0" style="letter-spacing:0.10801188151041667em">雞</tspan><tspan x="390.91" y="0" style="letter-spacing:0.12099202473958333em">籠</tspan><tspan x="417.82" y="0" style="letter-spacing:-0.07598876953125em">環</tspan><tspan x="439.99" y="0" style="letter-spacing:-0.08900960286458333em">，</tspan><tspan x="461.86" y="0" style="letter-spacing:0.09299723307291667em">商</tspan><tspan x="488.09" y="0" style="letter-spacing:-0.059000651041666664em">場</tspan><tspan x="510.67" y="0" style="letter-spacing:-0.06699625651041667em">，</tspan><tspan x="533.06" y="0" style="letter-spacing:0.08099365234375em">郵</tspan><tspan x="559.01" y="0" style="letter-spacing:-0.07499186197916667em">局</tspan><tspan x="581.21" y="0" style="letter-spacing:-0.053995768229166664em">，</tspan><tspan x="603.91" y="0" style="letter-spacing:0.10599772135416667em">街</tspan><tspan x="630.46" y="0" style="letter-spacing:-0.09800211588541667em">市</tspan><tspan x="652.1" y="0" style="letter-spacing:-0.08699544270833333em">，</tspan><tspan x="674.02" y="0">惠</tspan></text><text transform="translate(31 723.13)" style="font-size:24px;fill:#eee8cf;font-family:NotoSansHK-Medium-83pv-RKSJ-H, Noto Sans HK"><tspan style="letter-spacing:-0.045003255208333336em">康</tspan><tspan x="22.92" y="0" style="letter-spacing:-0.04400634765625em">，</tspan><tspan x="45.86" y="0" style="letter-spacing:0.12601725260416666em">4</tspan><tspan x="62.57" y="0" style="letter-spacing:0.11399332682291667em">號</tspan><tspan x="89.3" y="0" style="letter-spacing:0.0989990234375em">巴</tspan><tspan x="115.68" y="0" style="letter-spacing:0.11600748697916667em">士</tspan><tspan x="142.46" y="0" style="letter-spacing:-0.047993977864583336em">站</tspan><tspan x="165.31" y="0" style="letter-spacing:-0.06400553385416667em">，</tspan><tspan x="187.78" y="0" style="letter-spacing:0.10799153645833333em">小</tspan><tspan x="214.37" y="0" style="letter-spacing:0.13299560546875em">巴</tspan><tspan x="241.56" y="0" style="letter-spacing:-0.047993977864583336em">站</tspan><tspan x="264.41" y="0" style="letter-spacing:-0.0419921875em">，</tspan><tspan x="287.4" y="0" style="letter-spacing:0.11199951171875em">華</tspan><tspan x="314.09" y="0" style="letter-spacing:0.11000569661458333em">富</tspan><tspan x="340.73" y="0" style="letter-spacing:0.12099202473958333em">酒</tspan><tspan x="367.63" y="0" style="letter-spacing:-0.08500162760416667em">家</tspan><tspan x="389.59" y="0" style="letter-spacing:-0.047993977864583336em">，</tspan><tspan x="412.44" y="0" style="letter-spacing:0.09800211588541667em">永</tspan><tspan x="438.79" y="0" style="letter-spacing:0.135986328125em">德</tspan><tspan x="466.06" y="0" style="letter-spacing:0.09401448567708333em">書</tspan><tspan x="492.31" y="0" style="letter-spacing:-0.04901123046875em">局</tspan><tspan x="515.14" y="0" style="letter-spacing:-0.0369873046875em">，</tspan><tspan x="538.25" y="0" style="letter-spacing:0.13399251302083334em">卻</tspan><tspan x="565.46" y="0" style="letter-spacing:0.11600748697916667em">從</tspan><tspan x="592.25" y="0" style="letter-spacing:0.12799072265625em">不</tspan><tspan x="619.32" y="0" style="letter-spacing:0.13600667317708334em">說</tspan><tspan x="646.58" y="0" style="letter-spacing:0.13899739583333334em">街</tspan><tspan x="673.92" y="0">道</tspan></text><text transform="translate(31 761.13)" style="font-size:24px;fill:#eee8cf;font-family:NotoSansHK-Medium-83pv-RKSJ-H, Noto Sans HK"><tspan style="letter-spacing:0.09700520833333333em">的</tspan><tspan x="26.33" y="0" style="letter-spacing:0.05999755859375em">名</tspan><tspan x="51.77" y="0" style="letter-spacing:-0.06300862630208333em">字</tspan><tspan x="74.26" y="0" style="letter-spacing:-0.0419921875em">。</tspan><tspan x="97.25" y="0" style="letter-spacing:0.047993977864583336em">除</tspan><tspan x="122.4" y="0" style="letter-spacing:0.022013346354166668em">了</tspan><tspan x="146.93" y="0" style="letter-spacing:0.114990234375em">經</tspan><tspan x="173.69" y="0" style="letter-spacing:0.09999593098958333em">過</tspan><tspan x="200.09" y="0" style="letter-spacing:0.11800130208333333em">時</tspan><tspan x="226.92" y="0" style="letter-spacing:0.10300699869791667em">偶</tspan><tspan x="253.39" y="0" style="letter-spacing:0.10599772135416667em">然</tspan><tspan x="279.94" y="0" style="letter-spacing:0.09999593098958333em">瞄</tspan><tspan x="306.34" y="0" style="letter-spacing:0.11501057942708333em">一</tspan><tspan x="333.1" y="0" style="letter-spacing:0.10599772135416667em">眼</tspan><tspan x="359.64" y="0" style="letter-spacing:0.09299723307291667em">斜</tspan><tspan x="385.87" y="0" style="letter-spacing:0.07700602213541667em">路</tspan><tspan x="411.72" y="0" style="letter-spacing:-0.20900472005208334em">口</tspan><tspan x="430.7" y="0">「</tspan></text><text transform="translate(486.34 760.13)" style="font-size:24px;fill:#eee8cf;font-family:MyriadPro-Regular, Myriad Pro;letter-spacing:0.06500244140625em">W<tspan x="21.86" y="0" style="letter-spacing:0.08099365234375em">a</tspan><tspan x="35.38" y="0" style="letter-spacing:0.07899983723958333em">t</tspan><tspan x="45.22" y="0" style="letter-spacing:0.09000651041666667em">e</tspan><tspan x="59.4" y="0" style="letter-spacing:0.11897786458333333em">r</tspan><tspan x="70.1" y="0" style="letter-spacing:0.09501139322916667em">f</tspan><tspan x="79.39" y="0" style="letter-spacing:0.08599853515625em">a</tspan><tspan x="93.02" y="0" style="letter-spacing:0.0830078125em">l</tspan><tspan x="100.68" y="0" style="letter-spacing:0.09999593098958333em">l</tspan><tspan x="108.74" y="0" style="letter-spacing:0.4909871419270833em"> </tspan><tspan x="125.61" y="0" style="letter-spacing:0.093994140625em">B</tspan><tspan x="140.88" y="0" style="letter-spacing:0.07200113932291667em">a</tspan><tspan x="154.17" y="0" style="letter-spacing:0.10001627604166667em">y</tspan><tspan x="167.88" y="0" style="letter-spacing:0.4909871419270833em"> </tspan><tspan x="184.75" y="0" style="letter-spacing:0.09000651041666667em">R</tspan><tspan x="199.82" y="0" style="letter-spacing:0.093017578125em">o</tspan><tspan x="215.23" y="0" style="letter-spacing:0.08998616536458333em">a</tspan><tspan x="228.96" y="0" style="letter-spacing:0.000020345052083333332em">d</tspan></text><text transform="translate(31 799.13)" style="font-size:24px;fill:#eee8cf;font-family:NotoSansHK-Medium-83pv-RKSJ-H, Noto Sans HK"><tspan style="letter-spacing:0.11399332682291667em">瀑</tspan><tspan x="26.74" y="0" style="letter-spacing:0.06801350911458333em">布</tspan><tspan x="52.37" y="0" style="letter-spacing:0.10898844401041667em">灣</tspan><tspan x="78.98" y="0" style="letter-spacing:0.11600748697916667em">道</tspan><tspan x="105.77" y="0" style="letter-spacing:-0.19199625651041666em">」</tspan><tspan x="125.16" y="0" style="letter-spacing:0.09499104817708333em">的</tspan><tspan x="151.44" y="0" style="letter-spacing:0.08900960286458333em">路</tspan><tspan x="177.58" y="0" style="letter-spacing:-0.056009928385416664em">牌</tspan><tspan x="200.23" y="0">。</tspan></text><path d="M137.82,850.4h38.23v1.85H137.82Zm52.85-3.14h4.92v2.23h-4.92V860h-2.28V849.49h-4.8v-2.23h4.8v-5.69h-4.18v-2.16h10.7v2.16h-4.24Zm8.64,6.86h-2.24V840.8h2.24Zm5.23-15.7V857.1c0,1.46-.36,2.13-1.25,2.49a13.18,13.18,0,0,1-4.7.43,9,9,0,0,0-.87-2.35c1.73.07,3.36.05,3.84.05s.7-.17.7-.62V838.42Zm27.38,3.72v2.07h-8.26a19,19,0,0,1-2.59,3.91,8,8,0,0,0-1.49-1.39c0,.16,0,.65,0,.86-.17,7.63-.31,10.35-.91,11.19a2.19,2.19,0,0,1-1.51.88,12.82,12.82,0,0,1-2.48.05,5.82,5.82,0,0,0-.57-2.09c.84.08,1.58.1,2,.1a.72.72,0,0,0,.69-.34c.39-.5.53-2.68.67-8.68h-2.8c-.32,4.63-1.13,8.66-3.46,11.35a5.91,5.91,0,0,0-1.61-1.66c2.74-3.12,3-8.54,3.1-14.52H210v-2.06h5a19.54,19.54,0,0,0-1.78-3.22l1.95-.77a13.36,13.36,0,0,1,2,3.29l-1.72.7h4.94v2.06h-5.47c0,.94-.05,1.87-.07,2.78h4.75l-.15-.09a20.52,20.52,0,0,0,4.4-8.64l2.18.57a35.8,35.8,0,0,1-1.3,3.65Zm-8.76,11.26a44.6,44.6,0,0,1,7.71,4.75l-1.54,1.92a44.2,44.2,0,0,0-7.61-5Zm1.49-6.7a44.93,44.93,0,0,1,5.14,3.72l-1.49,1.71a41.38,41.38,0,0,0-5.07-3.94Zm21.59,13.54L241.15,849l5.09-11.24,1.61.51L243,849l4.9,10.73Zm3.94,0L245.11,849l5.07-11.24,1.6.51L246.89,849l4.89,10.73ZM270,845.09a20.72,20.72,0,0,0,7.47,9.22,9.18,9.18,0,0,0-1.75,2,16.23,16.23,0,0,1-2.91-2.62v2.09h-5.3V860h-2.36v-4.25h-5.3v-2.13a20.94,20.94,0,0,1-3,2.73,9.78,9.78,0,0,0-1.65-1.82c3-1.92,5.73-5.57,7.37-9.44h-6.63v-2.25h9.19V838h2.36v4.85h9.31v2.25Zm-4.85,8.41v-8.41h-.31a27.14,27.14,0,0,1-4.92,8.41Zm7.49,0a28.08,28.08,0,0,1-4.87-8.41h-.26v8.41Zm30,3.28V859H281.22v-2.19h9.45v-9.07h-7.92v-2.18h7.92V838h2.38v7.49h8v2.18h-8v9.07Zm9.43-7.77-4.89-10.73,1.6-.51L313.88,849l-5.09,11.23-1.6-.5Zm3.94,0-4.9-10.73,1.61-.51L317.82,849l-5.09,11.23-1.61-.5Zm14.81-7.66a16.42,16.42,0,0,1-2.45,3.07,14,14,0,0,0-1.51-1.46,14.09,14.09,0,0,0,3.5-5.16l2,.57a8.3,8.3,0,0,1-.55,1.23h5.74v1.75h-4a15,15,0,0,1,1.92,1.9L334,844.52a23.79,23.79,0,0,0-2.3-2.43l.89-.74Zm16.63,10.75s0,.56-.07.87c-.29,3.24-.58,4.7-1.2,5.33a2.26,2.26,0,0,1-1.66.69,24.4,24.4,0,0,1-3,0,5,5,0,0,0-.62-2,18.16,18.16,0,0,0,2.59.12,1.17,1.17,0,0,0,.84-.19c.29-.31.5-1.1.72-2.88h-6.39v6h-2.2v-5.09a21.76,21.76,0,0,1-7.68,5.07,9.24,9.24,0,0,0-1.44-1.76,19.91,19.91,0,0,0,7.39-4.22H329a54.63,54.63,0,0,0,.87-5.62h6.65v-1.87H329v-1.85H346.5v5.57h-7.83v1.87Zm-15.75-1.87c-.07.65-.16,1.27-.26,1.87h5v-1.87Zm16.93-10.63v1.75h-4.73A15.41,15.41,0,0,1,346,843.2l-1.52,1.29a18.45,18.45,0,0,0-2.44-2.3l1-.84h-2.4a12.65,12.65,0,0,1-1.82,2.23,12.11,12.11,0,0,0-1.68-1.32,10.52,10.52,0,0,0,3-4.44l2,.48c-.17.46-.34.87-.53,1.3Zm-10,8.78h5.65v-1.87h-5.65Z" style="fill:#eee8cf"/><text transform="translate(351.46 857.13)" style="font-size:24px;fill:#eee8cf;font-family:MyriadPro-Regular, Myriad Pro"><tspan style="letter-spacing:0.08201090494791667em">3</tspan><tspan x="14.28" y="0">0</tspan></text><text transform="translate(380.71 858.13)" style="font-size:24px;fill:#eee8cf;font-family:NotoSansHK-Medium-83pv-RKSJ-H, Noto Sans HK"><tspan style="letter-spacing:-0.21999104817708334em">期</tspan><tspan x="18.72" y="0">（</tspan></text><text transform="translate(425.59 857.13)" style="font-size:24px;fill:#eee8cf;font-family:MyriadPro-Regular, Myriad Pro"><tspan style="letter-spacing:0.07600911458333333em">2</tspan><tspan x="14.14" y="0" style="letter-spacing:0.043009440104166664em">0</tspan><tspan x="27.48" y="0" style="letter-spacing:0.034993489583333336em">1</tspan><tspan x="40.63" y="0">6</tspan></text><text transform="translate(481.21 858.13)" style="font-size:24px;fill:#eee8cf;font-family:NotoSansHK-Medium-83pv-RKSJ-H, Noto Sans HK">年</text><text transform="translate(507.02 857.13)" style="font-size:24px;fill:#eee8cf;font-family:MyriadPro-Regular, Myriad Pro">9</text><text transform="translate(520.72 858.13)" style="font-size:24px;fill:#eee8cf;font-family:NotoSansHK-Medium-83pv-RKSJ-H, Noto Sans HK">月</text><text transform="translate(545.78 857.13)" style="font-size:24px;fill:#eee8cf;font-family:MyriadPro-Regular, Myriad Pro"><tspan style="letter-spacing:0.08201090494791667em">3</tspan><tspan x="14.28" y="0">0</tspan></text><text transform="translate(574 858.13)" style="font-size:24px;fill:#eee8cf;font-family:NotoSansHK-Medium-83pv-RKSJ-H, Noto Sans HK"><tspan style="letter-spacing:0.046000162760416664em">日</tspan><tspan x="25.1" y="0" style="letter-spacing:-0.3889973958333333em">）</tspan><tspan x="39.77" y="0" style="letter-spacing:-0.12699381510416666em">，</tspan><tspan x="60.72" y="0">頁</tspan></text><text transform="translate(660.31 857.13)" style="font-size:24px;fill:#eee8cf;font-family:MyriadPro-Regular, Myriad Pro"><tspan style="letter-spacing:0.11199951171875em">8</tspan><tspan x="15" y="0" style="letter-spacing:0.024007161458333332em">-</tspan><tspan x="22.94" y="0" style="letter-spacing:-0.016988118489583332em">1</tspan><tspan x="34.85" y="0">1</tspan></text><text transform="translate(705 858.13)" style="font-size:24px;fill:#eee8cf;font-family:NotoSansHK-Medium-83pv-RKSJ-H, Noto Sans HK">。</text><text transform="translate(31 915.93)" style="font-size:14px;fill:#fff;font-family:NotoSansHK-Medium-83pv-RKSJ-H, Noto Sans HK"><tspan style="letter-spacing:0.010986328125em">（</tspan><tspan x="14.15" y="0" style="letter-spacing:0.011997767857142858em">照</tspan><tspan x="28.32" y="0" style="letter-spacing:-0.040980747767857144em">片</tspan><tspan x="41.75" y="0">來</tspan><tspan x="55.75" y="0" style="letter-spacing:-0.18498883928571427em">源</tspan><tspan x="67.16" y="0">：</tspan></text><text transform="translate(109.61 914.93)" style="font-size:14px;fill:#fff;font-family:MyriadPro-Regular, Myriad Pro"><tspan style="letter-spacing:0.013009207589285714em">E</tspan><tspan x="7.07" y="0" style="letter-spacing:-0.004987444196428571em">x</tspan><tspan x="13.48" y="0" style="letter-spacing:-0.004010881696428571em">p</tspan><tspan x="21.39" y="0" style="letter-spacing:-0.005998883928571429em">lo</tspan><tspan x="32.21" y="0" style="letter-spacing:-0.007010323660714286em">r</tspan><tspan x="36.69" y="0" style="letter-spacing:-0.011997767857142858em">i</tspan><tspan x="39.8" y="0" style="letter-spacing:-0.007010323660714286em">n</tspan><tspan x="47.47" y="0" style="letter-spacing:-0.010986328125em">g</tspan><tspan x="55.15" y="0" style="letter-spacing:-0.012974330357142858em">l</tspan><tspan x="58.27" y="0" style="letter-spacing:-0.007010323660714286em">i</tspan><tspan x="61.44" y="0" style="letter-spacing:-0.005998883928571429em">f</tspan><tspan x="65.45" y="0">e</tspan></text><text transform="translate(179.72 915.93)" style="font-size:14px;fill:#fff;font-family:NotoSansHK-Medium-83pv-RKSJ-H, Noto Sans HK">，</text><text transform="translate(191.65 914.93)" style="font-size:14px;fill:#fff;font-family:MyriadPro-Regular, Myriad Pro"><tspan style="letter-spacing:-0.005998883928571429em">C</tspan><tspan x="8.04" y="0" style="letter-spacing:-0.014997209821428572em">a</tspan><tspan x="14.57" y="0" style="letter-spacing:-0.016985212053571428em">t</tspan><tspan x="18.97" y="0">e</tspan><tspan x="25.98" y="0" style="letter-spacing:-0.005964006696428571em">go</tspan><tspan x="41.33" y="0" style="letter-spacing:0.023995535714285716em">r</tspan><tspan x="46.24" y="0" style="letter-spacing:-0.001988002232142857em">y</tspan><tspan x="52.81" y="0" style="letter-spacing:-0.022007533482142856em">:</tspan><tspan x="55.4" y="0" style="letter-spacing:-0.031005859375em">W</tspan><tspan x="66.81" y="0" style="letter-spacing:-0.010986328125em">a</tspan><tspan x="73.4" y="0">h </tspan><tspan x="84.14" y="0" style="letter-spacing:-0.032993861607142856em">F</tspan><tspan x="90.49" y="0">u </tspan><tspan x="101.18" y="0" style="letter-spacing:-0.0009765625em">E</tspan><tspan x="108.05" y="0">s</tspan><tspan x="113.59" y="0" style="letter-spacing:-0.001988002232142857em">t</tspan><tspan x="118.2" y="0" style="letter-spacing:-0.015032087053571428em">a</tspan><tspan x="124.74" y="0" style="letter-spacing:-0.016985212053571428em">t</tspan><tspan x="129.13" y="0" style="letter-spacing:0.00003487723214285714em">e - </tspan><tspan x="146.38" y="0" style="letter-spacing:-0.0009765625em">W</tspan><tspan x="158.21" y="0" style="letter-spacing:-0.011997767857142858em">i</tspan><tspan x="161.32" y="0" style="letter-spacing:0.004987444196428571em">k</tspan><tspan x="167.96" y="0" style="letter-spacing:-0.011997767857142858em">i</tspan><tspan x="171.06" y="0" style="letter-spacing:-0.003976004464285714em">m</tspan><tspan x="182.68" y="0">e</tspan><tspan x="189.7" y="0" style="letter-spacing:-0.010986328125em">d</tspan><tspan x="197.44" y="0" style="letter-spacing:-0.011997767857142858em">i</tspan><tspan x="200.55" y="0">a </tspan><tspan x="210.26" y="0" style="letter-spacing:-0.022007533482142856em">C</tspan><tspan x="218.07" y="0" style="letter-spacing:-0.005998883928571429em">o</tspan><tspan x="225.68" y="0" style="letter-spacing:-0.010986328125em">m</tspan><tspan x="237.2" y="0" style="letter-spacing:-0.005964006696428571em">mo</tspan><tspan x="256.39" y="0" style="letter-spacing:-0.014997209821428572em">n</tspan><tspan x="263.95" y="0">s</tspan></text><text transform="translate(460.42 915.93)" style="font-size:14px;fill:#fff;font-family:NotoSansHK-Medium-83pv-RKSJ-H, Noto Sans HK">）</text></g></svg>