<svg xmlns="http://www.w3.org/2000/svg" width="120" height="114.51" viewBox="0 0 120 114.51">
  <g id="Layer_2" data-name="Layer 2">
    <g id="Pointer">
      <g>
        <rect y="82.31" width="120" height="32.2" rx="16.1" style="fill: #be0000"/>
        <g>
          <path d="M13.71,98.16l-1-1.31a10.68,10.68,0,0,0,2.63-2.36,19.4,19.4,0,0,0-2.12-1.77l1-1a20.1,20.1,0,0,1,1.91,1.59,13.72,13.72,0,0,0,1.23-2.63H14V89.12h5V90.4a14.65,14.65,0,0,1-2,4.42h5.44v1.52H16.68v-1A13.16,13.16,0,0,1,13.71,98.16Zm9.8,6.81a17.23,17.23,0,0,1-1.18,2.27l2.82-.46v1.62c-3.59.58-7.46,1.06-11.57,1.45l-.41-1.6,3.27-.29a17.08,17.08,0,0,0-1.33-2.87l1.57-.58A20.74,20.74,0,0,1,18,107.79c.87-.09,1.71-.21,2.54-.31a22.88,22.88,0,0,0,1.44-3ZM24,98.3v5.61H14.89V98.3Zm-1.67,1.5h-5.7v2.61h5.7Zm2.08-10.27a10,10,0,0,1-2.13,2c.32.46.63.92.94,1.4a11.06,11.06,0,0,0,2-1.74l1.06.92a12.46,12.46,0,0,1-2.29,2c.58,1,1.11,1.93,1.62,2.9L24,97.65a46.9,46.9,0,0,0-5-8.07l1.42-.48c.34.43.68.89,1,1.33a10.35,10.35,0,0,0,1.88-1.79ZM34,89.24v1.31c-.78,2.51-1.65,4.85-2.56,7,1.88,2.41,2.82,4.37,2.85,5.89a3.85,3.85,0,0,1-.87,2.9c-.63.55-1.86.84-3.72.84l-.51-1.73a14.82,14.82,0,0,0,1.57.12c.8,0,1.3-.2,1.52-.49a3.49,3.49,0,0,0,.34-1.64c0-1.5-1-3.48-3-5.89a57.61,57.61,0,0,0,2.49-6.74H28v19.44H26.36v-21Z" style="fill: #fff"/>
          <path d="M41.24,107.75c2.27-.49,4.49-1.07,6.71-1.74l.32,1.69c-2.56.72-5.58,1.45-9.09,2.22l-.38-1.62c.48-.17.72-.46.72-.84v-17a119,119,0,0,0,15.9-1.93l.89,1.5c-2.1.41-4.3.77-6.59,1.11a49.8,49.8,0,0,0,.33,5.94h8v1.69H50.3a17.52,17.52,0,0,0,.38,2,18.15,18.15,0,0,0,2.37,5.55c.94,1.26,1.81,1.88,2.58,1.91.51-.1,1-1.45,1.57-4.06l1.55,1a23.3,23.3,0,0,1-1.21,3.34c-.53,1.06-1.11,1.61-1.79,1.61a4.82,4.82,0,0,1-3.5-2.07,17.42,17.42,0,0,1-3-6.09,24.36,24.36,0,0,1-.73-3.14H41.24ZM48,91.39q-3.23.4-6.71.66v5.07h7C48.1,95.38,48,93.47,48,91.39Z" style="fill: #fff"/>
          <path d="M68.38,103.78a22.61,22.61,0,0,1-5.12,5.58l-1-1.37a21.35,21.35,0,0,0,4.93-5.29ZM82,99.46v1.67H73v8.81H71.28v-8.81h-9V99.46Zm-.49-4H79.81V92.21H64.44V95.5H62.75V90.57h8.7c-.24-.8-.46-1.52-.7-2.17l1.74-.29q.36,1.08.72,2.46h8.31Zm-2.8-.27V96.8H65.63V95.16Zm3.55,12.92L81,109.29a38,38,0,0,0-4.93-5.6l1.16-1.14A37.61,37.61,0,0,1,82.27,108.08Z" style="fill: #fff"/>
          <path d="M85.67,103.16l-.53-1.84a22.17,22.17,0,0,0,6.18-8.09H85.67V91.56h3.6a27.38,27.38,0,0,0-1.33-3.09L89.59,88a30,30,0,0,1,1.25,3.31l-.7.26h2.92V93a17.74,17.74,0,0,1-2.63,5v0a18,18,0,0,1,3.24,2.81l-1,1.47A19.9,19.9,0,0,0,90.43,100v10.32H88.72V100.16A39.47,39.47,0,0,1,85.67,103.16Zm15.44,7-.41-1.57,2.87,0c.7,0,1.06-.41,1.06-1.23V90.74H94V89.15h12.31v18.74c0,1.52-.79,2.3-2.39,2.3Zm1.83-16.5v1.54H94.08V93.69Zm-.84,4.22v7.54H94.63V97.91Zm-1.62,1.53H96.23v4.49h4.25Z" style="fill: #fff"/>
        </g>
        <g>
          <path d="M59.51,38.49c-5.34-3.08-9.65-10.56-9.63-16.7a8.06,8.06,0,0,1,1.36-4.86c-2.36.72-3.8,3.36-3.81,7.17,0,6.14,4.3,13.62,9.64,16.7,3.89,2.25,7.25,1.53,8.79-1.38C64.16,40.13,61.94,39.89,59.51,38.49Z"/>
          <path d="M57.19,5.73C51.42,2.4,46.38,2.09,42.61,4.28c1.58-.91,3.13-1.92,4.78-2.88,3.78-2.19,9-1.88,14.77,1.45C73.62,9.46,82.88,25.5,82.84,38.67a23.45,23.45,0,0,1-3.32,12.81L63.7,75.62l-6,3.47L75.94,50.42a19.06,19.06,0,0,0,1.93-8.87C77.91,28.39,68.65,12.35,57.19,5.73Z"/>
        </g>
        <path d="M77.87,41.55a19.06,19.06,0,0,1-1.93,8.87L57.75,79.09l-18-46.54c-2-7-2.56-10.41-2.55-15.21,0-13.17,8.57-18.22,20-11.61S77.91,28.39,77.87,41.55Zm-20.78-.86c5.35,3.09,9.69.61,9.71-5.53s-4.3-13.62-9.65-16.71-9.68-.6-9.7,5.54,4.3,13.62,9.64,16.7h0" style="fill: #be0000"/>
      </g>
    </g>
  </g>
</svg>
