<svg xmlns="http://www.w3.org/2000/svg" width="120" height="114.51" viewBox="0 0 120 114.51">
  <g id="Layer_2" data-name="Layer 2">
    <g id="Pointer">
      <g>
        <rect y="82.31" width="120" height="32.2" rx="16.1" style="fill: #be0000"/>
        <g>
          <path d="M15.59,94.1V88.2H17.3v5.9h2.44v1.69H17.3v14.49H15.59V95.79H13V94.1ZM30,103.33v-1.21h1.69v1.21h2.87v1.54H31.68v3.5a1.68,1.68,0,0,1-1.86,1.91H27.14l-.37-1.62c.87.08,1.69.12,2.47.12.48,0,.75-.29.75-.82v-3.09H19.5v-1.54ZM26.39,89.9V88.23h1.66V89.9h2.81c-.25-.54-.49-1-.73-1.45l1.5-.25c.22.51.43,1.07.65,1.7h2.08v1.47H28.05v1.3h5.49v7.54c0,1.06-.63,1.62-1.84,1.62H30.37L30,100.5l1.26.07c.43,0,.65-.24.65-.7V99.2H28.05v2.48H26.39V99.2H22.55v2.6H20.93V92.67h5.46v-1.3H20.08V89.9Zm0,18.06-1.08,1.09A22.06,22.06,0,0,0,22,106l1.06-1A23.36,23.36,0,0,1,26.36,108Zm0-12.53V94H22.55v1.45Zm0,2.58v-1.4H22.55V98Zm1.66-2.58h3.87V94H28.05Zm0,2.58h3.87v-1.4H28.05Z" style="fill: #fff"/>
          <path d="M47,100.72a11.44,11.44,0,0,1-1.23,1.49h9.08v1.26a11.82,11.82,0,0,1-4.44,3.45,32.37,32.37,0,0,0,8.5,1.72l-.43,1.67a31.1,31.1,0,0,1-10.22-2.44,49.81,49.81,0,0,1-10.68,2.48L37,108.71a53.49,53.49,0,0,0,9.35-1.79,26.36,26.36,0,0,1-3.53-2.29,29.69,29.69,0,0,1-3.57,1.83l-1-1.37a26.3,26.3,0,0,0,3.33-1.5A19.13,19.13,0,0,1,40,102.24l1.23-.87c.51.48,1,.94,1.6,1.4a12.19,12.19,0,0,0,2.31-2.08,1.62,1.62,0,0,1-1.66-1.81v-3h1.66v2.61a.67.67,0,0,0,.75.77h4.4a1.42,1.42,0,0,0,.89-.22,3.09,3.09,0,0,0,.44-1.61l1.59.5c-.14,1.31-.41,2.1-.84,2.39a3.31,3.31,0,0,1-1.77.37ZM58,97.58H56.29V94.92H39.57v2.66H37.88V93.37h3.57a14.21,14.21,0,0,0-.77-1.71l1.69-.27a17.36,17.36,0,0,1,.8,2h4.08a13.28,13.28,0,0,0-.8-1.88l1.7-.29c.29.65.55,1.38.82,2.17h3.35a21.7,21.7,0,0,0,1.36-2.73l1.66.58a13.56,13.56,0,0,1-1.18,2.15H58Zm-15.58-.7a10.68,10.68,0,0,1-3,4.34l-1.23-1.08a8.87,8.87,0,0,0,2.77-3.84Zm14.92-7.2a116.63,116.63,0,0,1-18.43,1.18l-.5-1.47A129.52,129.52,0,0,0,56.5,88.28Zm-4.66,13.94H44.23a.22.22,0,0,0-.12.09,25.6,25.6,0,0,0,4.35,2.44A13.2,13.2,0,0,0,52.66,103.62Zm-2.51-6.24-1.09,1.11a16.94,16.94,0,0,0-2.65-2.27l1.06-1A18.51,18.51,0,0,1,50.15,97.38Zm7.71,2.81-1.45,1a35.54,35.54,0,0,0-3.14-4.37L54.55,96A33.91,33.91,0,0,1,57.86,100.19Z" style="fill: #fff"/>
          <path d="M72.32,88.66v1.26H66.5l1.06.43c-.1.25-.19.46-.29.68H71.5v1H69.42c0,.53,0,1,0,1.26h2.88v1.08H69.18c-.05.12-.07.22-.12.32a15.83,15.83,0,0,1,3,1.57l-.67,1a12.94,12.94,0,0,0-2.83-1.78,5.16,5.16,0,0,1-3,1.83l-.65-1.08c1.59-.34,2.58-1,2.92-1.89H64.76V93.33H68c0-.37,0-.78,0-1.26H66.69a7,7,0,0,1-1.11,1.23l-.94-.82a6,6,0,0,0,1.81-2.56H63.94v7a.55.55,0,0,0,.63.63H72v1.25h-7.9a1.49,1.49,0,0,1-1.67-1.69V89.92h-.82V88.66Zm-7.49,20.92v.77H63.16v-8.14h5.9V101H61.74V99.7H82.42V101H75.31v1.2H81v8.14H79.35v-.77Zm5.85-6.23a2.9,2.9,0,0,1-1.14,1.93A9.65,9.65,0,0,1,66,106.56l-.68-1.09a8.68,8.68,0,0,0,3.14-.94,2.1,2.1,0,0,0,.82-1.18H64.83v5.07H79.35v-2.9h-4.2c-1,0-1.45-.41-1.45-1.18v-1Zm6.59,3v1H67.56v-1ZM70.7,101v1.2h3V101Zm9.45-12.32v2c0,.24.16.36.53.36h2v1.28H80.31c-1.11,0-1.64-.46-1.64-1.38v-1h-3a3.59,3.59,0,0,1-.53,1.54,5.86,5.86,0,0,1-1.82,1.45l-1-1a5.51,5.51,0,0,0,1.49-1.14,3.22,3.22,0,0,0,.56-2.12ZM77.73,96a9.85,9.85,0,0,0,2.1-1.64H72.92V93.11h8.65V94.2a10.82,10.82,0,0,1-2.34,2.34A36.06,36.06,0,0,1,82.68,98l-.89,1.06A34.17,34.17,0,0,0,78,97.33,16.16,16.16,0,0,1,73.24,99l-.61-1.23a16,16,0,0,0,3.7-1c-1-.39-2.13-.75-3.26-1.09l.72-.87C75.19,95.14,76.5,95.55,77.73,96Zm1.62,7.37H75.12v.75a.36.36,0,0,0,.41.41h3.82Z" style="fill: #fff"/>
          <path d="M93,89.12v1.35c-.66,2.2-1.43,4.47-2.32,6.84a12.31,12.31,0,0,1,2.19,5.75,3.49,3.49,0,0,1-.72,2.37,5.27,5.27,0,0,1-3.41.89l-.58-1.76a8.11,8.11,0,0,0,1,.09,3.07,3.07,0,0,0,1.64-.41,1.49,1.49,0,0,0,.41-1.18A9.69,9.69,0,0,0,89,97.58a69.38,69.38,0,0,0,2.32-6.84H87.73v19.59H86V89.12Zm13.88,10.1v1.64h-4v6.55c0,.63.22,1,.71,1h1a1,1,0,0,0,.68-.24c.26-.22.43-1.28.5-3.16l1.6.53c-.15,2.15-.41,3.43-.75,3.86a2.27,2.27,0,0,1-1.67.58h-1.91a1.71,1.71,0,0,1-1.4-.6,2.3,2.3,0,0,1-.5-1.52v-7H98.91a14.58,14.58,0,0,1-1.26,5.65,9.8,9.8,0,0,1-4.05,3.7l-1.09-1.43a9.06,9.06,0,0,0,3.57-3,11.79,11.79,0,0,0,1.14-4.88H93.86V99.22Zm-.26-4H105V92H95.55v3.26H93.86v-4.9h5.48a15.42,15.42,0,0,0-.87-2l1.79-.29a24.39,24.39,0,0,1,.85,2.29h5.53Zm-1.76-.31v1.57H95.65V94.92Z" style="fill: #fff"/>
        </g>
        <g>
          <path d="M59.51,38.49c-5.34-3.08-9.65-10.56-9.63-16.7a8.06,8.06,0,0,1,1.36-4.86c-2.36.72-3.8,3.36-3.81,7.17,0,6.14,4.3,13.62,9.64,16.7,3.89,2.25,7.25,1.53,8.79-1.38C64.16,40.13,61.94,39.89,59.51,38.49Z"/>
          <path d="M57.19,5.73C51.42,2.4,46.38,2.09,42.61,4.28c1.58-.91,3.13-1.92,4.78-2.88,3.78-2.19,9-1.88,14.77,1.45C73.62,9.46,82.88,25.5,82.84,38.67a23.45,23.45,0,0,1-3.32,12.81L63.7,75.62l-6,3.47L75.94,50.42a19.06,19.06,0,0,0,1.93-8.87C77.91,28.39,68.65,12.35,57.19,5.73Z"/>
        </g>
        <path d="M77.87,41.55a19.06,19.06,0,0,1-1.93,8.87L57.75,79.09l-18-46.54c-2-7-2.56-10.41-2.55-15.21,0-13.17,8.57-18.22,20-11.61S77.91,28.39,77.87,41.55Zm-20.78-.86c5.35,3.09,9.69.61,9.71-5.53s-4.3-13.62-9.65-16.71-9.68-.6-9.7,5.54,4.3,13.62,9.64,16.7h0" style="fill: #be0000"/>
      </g>
    </g>
  </g>
</svg>
