<svg xmlns="http://www.w3.org/2000/svg" width="100" height="114.51" viewBox="0 0 100 114.51">
  <g id="Layer_2" data-name="Layer 2">
    <g id="Pointer">
      <g>
        <rect y="82.31" width="100" height="32.2" rx="16.1" style="fill: #be0000"/>
        <g>
          <path d="M24.94,99.53H23.41V98.2q-3.61.51-8,.87l-.17-1.4,2.3-.17V90.43H15.66V89.05h11v1.38H24.94Zm-8.29,10.2-1-1.21a10.45,10.45,0,0,0,4.49-5.75l1.43.22a14.89,14.89,0,0,1-1.06,2.53,19.26,19.26,0,0,1,3.26,2.56l-.87,1.33a18.56,18.56,0,0,0-3.1-2.75A12.14,12.14,0,0,1,16.65,109.73Zm1-7.59-.48-1.45A68.56,68.56,0,0,0,33.37,99l.74,1.32a42.08,42.08,0,0,1-7.31,1.36v8.6H25.1v-8.43C22.83,102,20.35,102.14,17.69,102.14Zm5.72-10.26V90.43H19v1.45Zm0,2.58V93.08H19v1.38Zm0,1.21H19v1.71c1.59-.14,3-.31,4.39-.48Zm12.2-5.87v1.28a16.49,16.49,0,0,1-2.49,4.44A37.17,37.17,0,0,1,36,98l-1.13,1.11a34,34,0,0,0-2.8-2.41,12,12,0,0,1-4.38,2.68L27,97.91a9.78,9.78,0,0,0,3.82-2.22c-1.11-.82-2.32-1.66-3.65-2.51l1.06-1c1.31.82,2.52,1.62,3.63,2.44a16.16,16.16,0,0,0,2-3.28H27.3V89.8ZM33,102.33a16.76,16.76,0,0,1-1,2.78,17.62,17.62,0,0,0,4.2,3l-.85,1.4a19.13,19.13,0,0,1-4.05-3.14,12.16,12.16,0,0,1-2.68,3.11l-1-1.21a11.35,11.35,0,0,0,3.89-6.23Z" style="fill: #fff"/>
          <path d="M40.78,105.84l-1.16-1.36A18.67,18.67,0,0,0,43.07,98l1.57.36c-.19.63-.41,1.21-.63,1.79h6V98.25h1.79v1.91h8v1.55h-8v2.41H59v1.5H51.84v2.46H61v1.6H40.44v-1.6h9.61v-2.46H43.34v-1.5h6.71v-2.41H43.34A20.83,20.83,0,0,1,40.78,105.84ZM58.34,88.93v8.55H42.61V88.93ZM56.62,92.5V90.43H44.33V92.5Zm0,1.41H44.33V96H56.62Z" style="fill: #fff"/>
          <path d="M68,110.28h-1.7v-12A29.09,29.09,0,0,1,63.72,104L63,102.17a22.6,22.6,0,0,0,3.22-7.61H63.52V92.89h2.73V88.16H68v4.73h2.14v1.67H68v1.37c1,1.11,1.9,2.37,2.87,3.75l-.94,1.37c-.75-1.35-1.4-2.43-1.93-3.28Zm9.22-20.8V88.16h1.6v1.32H83.4v2.76h1.72v1.45H83.4v2.73H78.77v1.33H84v4H78.09l-1,1.42h8v1.38H82.24a6.7,6.7,0,0,1-2.07,2.7c1.59.54,3.23,1.16,4.92,1.89l-.94,1.21c-1.78-.83-3.6-1.55-5.38-2.18a22.12,22.12,0,0,1-7.59,2.15l-.65-1.4a26,26,0,0,0,6.33-1.4c-1.31-.41-2.59-.77-3.84-1.09.48-.62,1-1.25,1.42-1.88H70.87v-1.38h4.56c.34-.48.66-1,.95-1.42H72v-4h5.22V96.42H72.53V93.69H70.92V92.24h1.61V89.48Zm0,9.4H73.5v1.62h3.67Zm0-6.5V90.74H74.1v1.64Zm0,1.16H74.1v1.65h3.07Zm-2,12.25c1.09.24,2.2.53,3.36.89a5.77,5.77,0,0,0,2.17-2.17H76.13C75.77,105,75.43,105.4,75.14,105.79Zm3.63-13.41h3.09V90.74H78.77Zm3.09,1.16H78.77v1.65h3.09Zm.58,5.34H78.77v1.62h3.67Z" style="fill: #fff"/>
        </g>
        <g>
          <path d="M49.51,38.49c-5.34-3.08-9.65-10.56-9.63-16.7a8.06,8.06,0,0,1,1.36-4.86c-2.36.72-3.8,3.36-3.81,7.17,0,6.14,4.3,13.62,9.64,16.7,3.89,2.25,7.25,1.53,8.79-1.38C54.16,40.13,51.94,39.89,49.51,38.49Z"/>
          <path d="M47.19,5.73C41.42,2.4,36.38,2.09,32.61,4.28c1.58-.91,3.13-1.92,4.78-2.88,3.78-2.19,9-1.88,14.77,1.45C63.62,9.46,72.88,25.5,72.84,38.67a23.45,23.45,0,0,1-3.32,12.81L53.7,75.62l-6,3.47L65.94,50.42a19.06,19.06,0,0,0,1.93-8.87C67.91,28.39,58.65,12.35,47.19,5.73Z"/>
        </g>
        <path d="M67.87,41.55a19.06,19.06,0,0,1-1.93,8.87L47.75,79.09l-18-46.54c-2-7-2.56-10.41-2.55-15.21,0-13.17,8.57-18.22,20-11.61S67.91,28.39,67.87,41.55Zm-20.78-.86c5.35,3.09,9.69.61,9.71-5.53s-4.3-13.62-9.65-16.71-9.68-.6-9.7,5.54,4.3,13.62,9.64,16.7h0" style="fill: #be0000"/>
      </g>
    </g>
  </g>
</svg>
