<?xml version="1.0" encoding="utf-8"?>
<!-- Generator: Adobe Illustrator 26.0.1, SVG Export Plug-In . SVG Version: 6.00 Build 0)  -->
<svg version="1.1" id="Layer_1" xmlns="http://www.w3.org/2000/svg" xmlns:xlink="http://www.w3.org/1999/xlink" x="0px" y="0px"
	 width="291.5px" height="137.4px" viewBox="0 0 291.5 137.4" style="enable-background:new 0 0 291.5 137.4;" xml:space="preserve"
	>
<path style="fill:#BE0000;" d="M264.2,135.5h-237c-14.6,0-26.5-11.9-26.5-26.5v0c0-14.6,11.9-26.5,26.5-26.5h237
	c14.6,0,26.5,11.9,26.5,26.5v0C290.7,123.7,278.8,135.5,264.2,135.5z"/>
<g>
	<path style="fill:#FFFFFF;" d="M72.2,95.1v-1.8c-2.2,0.1-4.6,0.2-7.1,0.2l-0.7-2c6.5,0,12-0.4,16.5-1.3l1.1,1.8
		c-2.2,0.5-4.7,0.9-7.6,1.1v1.9h9.2v2.2h-7.5c3.1,1.3,5.9,2.7,8.2,4.3l-1.5,1.8c-0.7-0.5-1.4-1.1-2.2-1.5v10.8h-2.2v-1.2h-10v1.2
		h-2.2v-10.3c-0.9,0.4-1.8,0.8-2.7,1.2l-1.3-2c3.8-1.2,6.5-2.6,8-4.1h-7.4v-2.2H72.2z M67.1,101.7h5.1v-4
		C71,99.2,69.3,100.5,67.1,101.7z M78.3,105.6v-1.9h-10v1.9H78.3z M78.3,109.3v-1.8h-10v1.8H78.3z M74.4,98.5v3.2h6
		C78.7,100.6,76.7,99.5,74.4,98.5z"/>
	<path style="fill:#FFFFFF;" d="M92,100.1l-1.6,1.6c-1-1.1-2.3-2.3-4-3.5l1.6-1.6C89.6,97.8,90.9,98.9,92,100.1z M91.9,104.6
		c-0.9,2.9-1.9,5.5-3,8l-2.3-1c1.2-2.5,2.3-5.1,3.2-7.8L91.9,104.6z M92.7,94.3l-1.6,1.6c-1-1.1-2.4-2.4-4.3-3.7l1.6-1.6
		C90.1,91.9,91.5,93.1,92.7,94.3z M96.3,92.7v-2.4h2.2v2.4h3.5v-2.4h2.2v2.4h2.9v2.1h-2.9v2.3h3.6v2.1h-3.6c1,1.4,2.4,2.5,4.4,3.4
		l-1,2c-1.2-0.6-2.2-1.3-3-2v4.7h-7.3v1.8c0,0.6,0.3,0.8,1,0.8h6.2c0.4,0,0.7-0.2,0.8-0.5c0.1-0.2,0.2-0.9,0.3-2l2.2,0.7
		c-0.1,1.2-0.3,2.1-0.5,2.6c-0.3,0.8-1,1.3-2.1,1.3h-7.8c-1.6,0-2.3-0.7-2.3-2.1v-6.6c-0.7,0.6-1.5,1.2-2.4,1.7l-1.2-1.9
		c2.2-1.2,3.7-2.5,4.6-4h-3.5v-2.1h3.6v-2.3h-2.7v-2.1H96.3z M103.6,101.5c-0.6-0.7-1.1-1.4-1.5-2.2h-3.7c-0.3,0.8-0.8,1.5-1.3,2.2
		H103.6z M102.6,105.4v-2h-5.2v2H102.6z M102,97.2v-2.3h-3.5v2.3H102z"/>
	<path style="fill:#FFFFFF;" d="M115.7,99.6l-1.6,1.6c-0.9-1-2.1-2-3.7-3.1l1.6-1.6C113.5,97.5,114.7,98.5,115.7,99.6z M116.1,104.4
		c-1,2.8-2.1,5.4-3.3,7.9l-2.1-0.9c1.3-2.5,2.5-5.1,3.5-7.7L116.1,104.4z M116.1,93.6l-1.6,1.6c-0.9-1-2.1-2-3.6-3.1l1.6-1.6
		C113.9,91.6,115.1,92.6,116.1,93.6z M119,95.7h12c-0.1,2.1-0.1,4-0.2,5.6h1.9v2.1h-2c-0.1,1.5-0.1,2.7-0.2,3.7h1.8v2h-2
		c0,0.6-0.1,1-0.2,1.2c-0.2,0.8-0.7,1.4-1.4,1.7c-0.7,0.4-1.6,0.6-2.9,0.6c-0.7,0-1.4,0-2.3,0l-0.7-2.1c1,0.1,1.9,0.1,2.6,0.1
		c0.6,0,1.1-0.1,1.5-0.2c0.4-0.2,0.8-0.5,1-1c0-0.1,0-0.2,0.1-0.4h-11.4c0.4-1.9,0.7-3.8,1-5.7h-2.2v-2.1h2.5
		c0.2-1.6,0.3-3.1,0.3-4.7c-0.4,0.5-0.8,0.9-1.2,1.3l-1.4-1.8c1.5-1.5,2.9-3.5,3.9-6.1l2.3,0.5c-0.2,0.5-0.4,1-0.7,1.4H132v2.1h-12
		C119.7,94.7,119.3,95.2,119,95.7z M119.3,107.1h5.4c-0.7-0.8-1.7-1.6-2.9-2.5l1.3-1.2h-3.1C119.7,104.7,119.5,106,119.3,107.1z
		 M128.8,97.7h-8.4c-0.1,1.3-0.1,2.5-0.2,3.6h4.7c-0.7-0.7-1.7-1.4-2.8-2.1l1.4-1.4c1.2,0.7,2.2,1.5,3,2.2l-1.3,1.3h3.5L128.8,97.7z
		 M128.3,107.1c0-1,0.1-2.2,0.2-3.7h-5.1c1.1,0.8,2,1.5,2.8,2.3l-1.4,1.4H128.3z"/>
	<path style="fill:#FFFFFF;" d="M143.2,91.1v1.8c-0.7,2.1-1.5,4.3-2.5,6.5c1.4,2.2,2.2,4.2,2.4,5.9c0,1.1-0.3,1.9-0.7,2.4
		c-0.7,0.6-2,0.9-3.8,0.9l-0.7-2.3c0.5,0.1,0.9,0.1,1.2,0.1c0.7,0,1.2-0.1,1.4-0.3c0.2-0.2,0.3-0.5,0.3-0.8c0-1.6-0.8-3.5-2.4-5.5
		c1.1-2.4,1.9-4.6,2.5-6.5h-3.3v19.3h-2.2V91.1H143.2z M149.1,93.7c-0.3-1.1-0.7-2.1-1.1-3.1l2.3-0.4c0.4,1,0.7,2.1,1.1,3.5h5.1v2.2
		h-7.8c0,0.9-0.1,2.1-0.2,3.7h6.9c-0.1,5.5-0.3,8.9-0.7,10.3c-0.5,1.6-1.7,2.4-3.5,2.4c-0.5,0-1.2,0-1.9-0.1l-0.7-2.1
		c0.9,0,1.7,0.1,2.4,0.1c0.9,0,1.5-0.6,1.8-1.6c0.1-0.9,0.2-3.1,0.3-6.7h-4.7c-0.2,1.9-0.7,3.6-1.4,5.2c-1,2-2.3,3.9-4,5.6l-1.7-1.6
		c2-2.1,3.3-4.1,4-5.8c0.6-1.8,1-3.8,1.1-6c0-1.4,0.1-2.5,0.1-3.3h-3.1v-2.2H149.1z"/>
	<path style="fill:#FFFFFF;" d="M161.4,96.1v-5.7h2.2v5.7h2.2v2.2h-2.2v14.3h-2.2V98.3H159v-2.2H161.4z M175.8,105.3v-1h2.2v1h2.7v2
		H178v3.1c0,1.4-0.7,2.2-2.1,2.2h-2.7l-0.5-2.1c0.9,0.1,1.7,0.1,2.5,0.1c0.4,0,0.6-0.3,0.6-0.7v-2.5h-6.2c1.2,0.9,2.2,1.8,3,2.7
		l-1.4,1.4c-0.8-1-1.9-2-3.3-3.1l1.1-1h-3.5v-2H175.8z M172.2,91.9v-1.5h2.2v1.5h2.2c-0.2-0.4-0.4-0.8-0.6-1.2l2-0.3l0.5,1.5h2v1.9
		h-6.1v1h5.4v7.6c0,1.2-0.7,1.7-2.1,1.7h-1.3l-0.5-1.7l1.2,0.1c0.3,0,0.5-0.2,0.5-0.6v-0.4h-3.3v2.4h-2.2v-2.4h-3.2v2.6h-2.1v-9.3
		h5.4v-1h-6.1v-1.9H172.2z M172.2,97.5v-1.1h-3.2v1.1H172.2z M172.2,100v-1h-3.2v1H172.2z M174.4,97.5h3.3v-1.1h-3.3V97.5z
		 M174.4,100h3.3v-1h-3.3V100z"/>
	<path style="fill:#FFFFFF;" d="M184.7,100.7l-2-0.6c0.7-2.6,1.1-5.2,1.2-8l2,0.1c0,1-0.1,1.9-0.2,2.9h1.3v-4.8h2.2v4.8h1.8v2.2
		h-1.8v5.1c0.6-0.3,1.1-0.5,1.7-0.8v2.2c-0.6,0.3-1.1,0.5-1.7,0.8v8H187v-7.1c-1.1,0.4-2.3,0.8-3.5,1.2l-0.5-2.2
		c1.4-0.3,2.7-0.7,4-1.1v-6h-1.5C185.3,98.5,185,99.7,184.7,100.7z M195.9,90.8c-0.2,1.2-0.5,2.2-0.8,3.2h9.2
		c0,8.3-0.1,13.4-0.4,15.4c-0.3,2.1-1.6,3.1-4.1,3.1c-0.3,0-0.9,0-1.8-0.1l-0.5-2.1c0.8,0.1,1.4,0.1,2,0.1c1.3,0,2.1-0.7,2.3-2.1
		c0.1-1.2,0.2-5.2,0.3-12.1h-1.1c-0.5,3.9-1.2,7-2.1,9.3c-1.1,2.6-2.8,4.8-5,6.9l-1.4-1.8c2-1.8,3.5-3.8,4.5-6
		c0.9-2.1,1.5-4.9,2-8.4h-1.4c-1,5.2-2.8,8.9-5.5,11.3l-1.5-1.7c2.4-2,4-5.2,4.9-9.6h-1.2c-0.6,1.4-1.3,2.7-2.1,3.6l-1.7-1.4
		c1.5-1.9,2.6-4.6,3.2-8.2L195.9,90.8z"/>
	<path style="fill:#FFFFFF;" d="M228.7,97.3h-1.6v5.7h-7.3v1.9h8v7.9h-2.2v-0.9h-5.9v0.9h-2.1V97.3h-1.3v-1.6l-0.6,0.6
		c-0.5-0.6-0.9-1.1-1.3-1.5v1.8H210v-0.8c-0.6,0.6-1.2,1.3-1.8,1.9l-1.2-1.7c1.5-1.5,2.9-3.2,4.2-5.2h2.1c1,1,2,2,2.9,3v-1h5
		c-0.3-0.7-0.6-1.4-0.8-1.9l2.2-0.3c0.3,0.7,0.5,1.4,0.8,2.3h5.3V97.3z M216.8,111.3l-1.9,0.8c-0.2-0.5-0.3-1-0.5-1.5
		c-1.8,0.7-3.8,1.4-6,2l-0.7-1.8c0.4-0.2,0.6-0.5,0.6-0.8V97.6h7.5v9.2h-5.4v3.2c1.2-0.4,2.2-0.8,3.2-1.2c-0.2-0.5-0.4-0.9-0.6-1.3
		l1.9-0.6C215.6,108.3,216.3,109.7,216.8,111.3z M213.7,99.8h-3.2v1.5h3.2V99.8z M210.5,104.7h3.2v-1.6h-3.2V104.7z M214.3,94.7
		c-0.7-0.8-1.4-1.5-1.9-2c-0.5,0.7-1,1.4-1.5,2H214.3z M226.5,96.5v-1.8h-8.1v1.8H226.5z M224.9,101v-2.5h-5.2v2.5H224.9z
		 M219.7,109.7h5.9v-2.9h-5.9V109.7z"/>
	<path style="fill:#FFFFFF;" d="M20.7,118v4H25v-4h1.8v10.1H25v-4.5h-4.3v4.5h-1.8V118H20.7z"/>
	<path style="fill:#FFFFFF;" d="M32,128.3c-2.1,0-3.7-1.4-3.7-3.8c0-2.4,1.6-3.9,3.8-3.9c2.2,0,3.6,1.5,3.6,3.8
		C35.8,127.1,33.9,128.3,32,128.3L32,128.3z M32.1,126.9c1,0,1.8-1,1.8-2.5c0-1.1-0.5-2.5-1.8-2.5c-1.3,0-1.8,1.3-1.8,2.5
		C30.3,125.9,31,126.9,32.1,126.9L32.1,126.9z"/>
	<path style="fill:#FFFFFF;" d="M37.3,123c0-0.8,0-1.5-0.1-2.2h1.6l0.1,1.1h0c0.3-0.6,1.1-1.3,2.3-1.3c1.3,0,2.6,0.8,2.6,3.1v4.3
		h-1.8V124c0-1-0.4-1.8-1.4-1.8c-0.7,0-1.2,0.5-1.4,1.1c-0.1,0.1-0.1,0.4-0.1,0.6v4.3h-1.8V123z"/>
	<path style="fill:#FFFFFF;" d="M52.5,127c0,1.5-0.3,2.6-1.1,3.3c-0.8,0.7-1.8,0.9-2.8,0.9c-0.9,0-1.9-0.2-2.6-0.6l0.4-1.4
		c0.5,0.3,1.2,0.6,2.1,0.6c1.2,0,2.1-0.6,2.1-2.2V127h0c-0.4,0.6-1.2,1.1-2.1,1.1c-1.8,0-3.1-1.5-3.1-3.6c0-2.4,1.6-3.9,3.3-3.9
		c1.1,0,1.8,0.5,2.1,1.1h0l0.1-1h1.6c0,0.5-0.1,1.1-0.1,2.1V127z M50.7,123.7c0-0.2,0-0.3-0.1-0.5c-0.2-0.7-0.7-1.2-1.5-1.2
		c-1,0-1.8,0.9-1.8,2.4c0,1.2,0.6,2.2,1.8,2.2c0.7,0,1.3-0.5,1.5-1.1c0.1-0.2,0.1-0.4,0.1-0.6V123.7z"/>
	<path style="fill:#FFFFFF;" d="M57.7,118h1.8v4.6h0c0.2-0.4,0.5-0.8,0.7-1.1l2.7-3.6h2.3l-3.5,4.3l3.7,5.8h-2.2l-2.8-4.6l-0.9,1.1
		v3.6h-1.8V118z"/>
	<path style="fill:#FFFFFF;" d="M69.4,128.3c-2.1,0-3.7-1.4-3.7-3.8c0-2.4,1.6-3.9,3.8-3.9c2.2,0,3.6,1.5,3.6,3.8
		C73.1,127.1,71.2,128.3,69.4,128.3L69.4,128.3z M69.4,126.9c1,0,1.8-1,1.8-2.5c0-1.1-0.5-2.5-1.8-2.5c-1.3,0-1.8,1.3-1.8,2.5
		C67.6,125.9,68.3,126.9,69.4,126.9L69.4,126.9z"/>
	<path style="fill:#FFFFFF;" d="M74.6,123c0-0.8,0-1.5-0.1-2.2h1.6l0.1,1.1h0c0.3-0.6,1.1-1.3,2.3-1.3c1.3,0,2.6,0.8,2.6,3.1v4.3
		h-1.8V124c0-1-0.4-1.8-1.4-1.8c-0.7,0-1.2,0.5-1.4,1.1c-0.1,0.1-0.1,0.4-0.1,0.6v4.3h-1.8V123z"/>
	<path style="fill:#FFFFFF;" d="M89.8,127c0,1.5-0.3,2.6-1.1,3.3c-0.8,0.7-1.8,0.9-2.8,0.9c-0.9,0-1.9-0.2-2.5-0.6l0.4-1.4
		c0.5,0.3,1.2,0.6,2.1,0.6c1.2,0,2.1-0.6,2.1-2.2V127h0c-0.4,0.6-1.2,1.1-2.1,1.1c-1.8,0-3.1-1.5-3.1-3.6c0-2.4,1.6-3.9,3.3-3.9
		c1.1,0,1.8,0.5,2.1,1.1h0l0.1-1h1.6c0,0.5-0.1,1.1-0.1,2.1V127z M88,123.7c0-0.2,0-0.3-0.1-0.5c-0.2-0.7-0.7-1.2-1.5-1.2
		c-1,0-1.8,0.9-1.8,2.4c0,1.2,0.6,2.2,1.8,2.2c0.7,0,1.3-0.5,1.5-1.1c0.1-0.2,0.1-0.4,0.1-0.6V123.7z"/>
	<path style="fill:#FFFFFF;" d="M103.5,124c-0.1-1.3-0.1-2.9-0.1-4.2h0c-0.3,1.2-0.8,2.6-1.2,3.9l-1.5,4.4h-1.4l-1.4-4.3
		c-0.4-1.3-0.8-2.7-1-3.9h0c0,1.3-0.1,2.9-0.2,4.3l-0.2,4.1h-1.7l0.7-10.1h2.4l1.3,4.1c0.4,1.2,0.7,2.4,0.9,3.5h0
		c0.3-1.1,0.6-2.3,1-3.5l1.4-4h2.4l0.6,10.1h-1.8L103.5,124z"/>
	<path style="fill:#FFFFFF;" d="M113.9,125.9c0,0.9,0,1.6,0.1,2.2h-1.6l-0.1-1.1h0c-0.3,0.5-1,1.3-2.4,1.3s-2.5-0.8-2.5-3.2v-4.3
		h1.8v4c0,1.2,0.4,2,1.4,2c0.8,0,1.2-0.5,1.4-1c0.1-0.2,0.1-0.4,0.1-0.6v-4.4h1.8V125.9z"/>
	<path style="fill:#FFFFFF;" d="M115.8,126.4c0.4,0.3,1.2,0.5,1.9,0.5c0.8,0,1.2-0.3,1.2-0.8c0-0.5-0.3-0.7-1.2-1.1
		c-1.4-0.5-2-1.3-2-2.1c0-1.3,1.1-2.3,2.8-2.3c0.8,0,1.5,0.2,1.9,0.4l-0.4,1.3c-0.3-0.2-0.9-0.4-1.5-0.4c-0.7,0-1,0.3-1,0.8
		c0,0.5,0.3,0.7,1.3,1c1.3,0.5,1.9,1.1,1.9,2.2c0,1.3-1,2.3-3,2.3c-0.9,0-1.7-0.2-2.2-0.5L115.8,126.4z"/>
	<path style="fill:#FFFFFF;" d="M123.4,125c0,1.3,1.1,1.9,2.2,1.9c0.9,0,1.5-0.1,2-0.3l0.3,1.3c-0.6,0.3-1.5,0.5-2.5,0.5
		c-2.4,0-3.8-1.5-3.8-3.7c0-2,1.2-3.9,3.6-3.9c2.4,0,3.1,2,3.1,3.6c0,0.3,0,0.6-0.1,0.8H123.4z M126.6,123.7c0-0.7-0.3-1.8-1.5-1.8
		c-1.1,0-1.6,1-1.7,1.8H126.6z"/>
	<path style="fill:#FFFFFF;" d="M136.4,125.9c0,0.9,0,1.6,0.1,2.2h-1.6l-0.1-1.1h0c-0.3,0.5-1,1.3-2.4,1.3s-2.5-0.8-2.5-3.2v-4.3
		h1.8v4c0,1.2,0.4,2,1.4,2c0.8,0,1.2-0.5,1.4-1c0.1-0.2,0.1-0.4,0.1-0.6v-4.4h1.8V125.9z"/>
	<path style="fill:#FFFFFF;" d="M138.4,123c0-0.8,0-1.5-0.1-2.2h1.6l0.1,1.1h0c0.3-0.6,1-1.2,2.2-1.2c1,0,1.7,0.5,2,1.4h0
		c0.3-0.4,0.6-0.7,0.9-0.9c0.4-0.3,0.9-0.4,1.5-0.4c1.2,0,2.4,0.8,2.4,3.2v4.3h-1.8v-4c0-1.2-0.4-1.9-1.3-1.9c-0.6,0-1.1,0.5-1.3,1
		c-0.1,0.2-0.1,0.4-0.1,0.6v4.4h-1.8v-4.2c0-1-0.4-1.7-1.3-1.7c-0.7,0-1.2,0.5-1.3,1c-0.1,0.2-0.1,0.4-0.1,0.6v4.3h-1.8V123z"/>
	<path style="fill:#FFFFFF;" d="M157.4,128.3c-2.1,0-3.7-1.4-3.7-3.8c0-2.4,1.6-3.9,3.8-3.9c2.2,0,3.6,1.5,3.6,3.8
		C161.2,127.1,159.3,128.3,157.4,128.3L157.4,128.3z M157.5,126.9c1,0,1.8-1,1.8-2.5c0-1.1-0.5-2.5-1.8-2.5c-1.3,0-1.8,1.3-1.8,2.5
		C155.7,125.9,156.4,126.9,157.5,126.9L157.5,126.9z"/>
	<path style="fill:#FFFFFF;" d="M162.9,128.1v-5.9h-1v-1.4h1v-0.3c0-0.9,0.3-1.9,0.9-2.5c0.5-0.5,1.3-0.7,1.9-0.7
		c0.5,0,0.9,0.1,1.2,0.2l-0.1,1.4c-0.2-0.1-0.5-0.1-0.8-0.1c-0.9,0-1.2,0.8-1.2,1.7v0.4h1.6v1.4h-1.6v5.9H162.9z"/>
	<path style="fill:#FFFFFF;" d="M177.9,127.8c-0.4,0.2-1.4,0.4-2.6,0.4c-3.2,0-5.2-2-5.2-5.1c0-3.3,2.3-5.3,5.4-5.3
		c1.2,0,2.1,0.2,2.4,0.4l-0.4,1.5c-0.5-0.2-1.2-0.4-2-0.4c-2.1,0-3.5,1.3-3.5,3.7c0,2.2,1.3,3.6,3.5,3.6c0.7,0,1.5-0.1,2-0.4
		L177.9,127.8z"/>
	<path style="fill:#FFFFFF;" d="M182.3,128.3c-2.1,0-3.7-1.4-3.7-3.8c0-2.4,1.6-3.9,3.8-3.9c2.2,0,3.6,1.5,3.6,3.8
		C186.1,127.1,184.2,128.3,182.3,128.3L182.3,128.3z M182.4,126.9c1,0,1.8-1,1.8-2.5c0-1.1-0.5-2.5-1.8-2.5c-1.3,0-1.8,1.3-1.8,2.5
		C180.6,125.9,181.3,126.9,182.4,126.9L182.4,126.9z"/>
	<path style="fill:#FFFFFF;" d="M193.3,126.4c0,0.7,0,1.3,0.1,1.8h-1.7l-0.1-0.8h0c-0.4,0.6-1.2,1-2.2,1c-1.5,0-2.3-1.1-2.3-2.2
		c0-1.8,1.6-2.8,4.3-2.8v-0.1c0-0.5-0.2-1.3-1.5-1.3c-0.7,0-1.5,0.2-2,0.5l-0.4-1.2c0.5-0.3,1.5-0.6,2.6-0.6c2.3,0,3,1.5,3,3.1
		V126.4z M191.5,124.5c-1.3,0-2.5,0.3-2.5,1.4c0,0.7,0.5,1.1,1,1.1c0.8,0,1.3-0.5,1.5-1c0-0.1,0-0.3,0-0.4V124.5z"/>
	<path style="fill:#FFFFFF;" d="M195.1,126.4c0.4,0.3,1.2,0.5,1.9,0.5c0.8,0,1.2-0.3,1.2-0.8c0-0.5-0.3-0.7-1.2-1.1
		c-1.4-0.5-2-1.3-2-2.1c0-1.3,1.1-2.3,2.8-2.3c0.8,0,1.5,0.2,1.9,0.4l-0.4,1.3c-0.3-0.2-0.9-0.4-1.5-0.4c-0.7,0-1,0.3-1,0.8
		c0,0.5,0.3,0.7,1.3,1c1.3,0.5,1.9,1.1,1.9,2.2c0,1.3-1,2.3-3,2.3c-0.9,0-1.7-0.2-2.2-0.5L195.1,126.4z"/>
	<path style="fill:#FFFFFF;" d="M203.6,118.9v1.9h1.8v1.4h-1.8v3.2c0,0.9,0.2,1.4,0.9,1.4c0.3,0,0.5,0,0.7-0.1l0,1.4
		c-0.3,0.1-0.8,0.2-1.3,0.2c-0.7,0-1.2-0.2-1.6-0.6c-0.4-0.4-0.6-1.1-0.6-2.1v-3.4h-1v-1.4h1v-1.4L203.6,118.9z"/>
	<path style="fill:#FFFFFF;" d="M212.4,126.4c0,0.7,0,1.3,0.1,1.8h-1.7l-0.1-0.8h0c-0.4,0.6-1.2,1-2.2,1c-1.5,0-2.3-1.1-2.3-2.2
		c0-1.8,1.6-2.8,4.3-2.8v-0.1c0-0.5-0.2-1.3-1.5-1.3c-0.7,0-1.5,0.2-2,0.5l-0.4-1.2c0.5-0.3,1.5-0.6,2.6-0.6c2.3,0,3,1.5,3,3.1
		V126.4z M210.6,124.5c-1.3,0-2.6,0.3-2.6,1.4c0,0.7,0.5,1.1,1.1,1.1c0.8,0,1.3-0.5,1.5-1c0-0.1,0-0.3,0-0.4V124.5z"/>
	<path style="fill:#FFFFFF;" d="M214.4,117.4h1.8v10.7h-1.8V117.4z"/>
	<path style="fill:#FFFFFF;" d="M221.4,118.2c0.8-0.1,1.8-0.2,2.9-0.2c1.9,0,3.2,0.4,4.1,1.2c1,0.8,1.6,2,1.6,3.7
		c0,1.8-0.6,3.1-1.6,4c-1,0.9-2.6,1.4-4.6,1.4c-1.1,0-1.9-0.1-2.5-0.1V118.2z M223.2,126.7c0.3,0,0.6,0,1,0c2.4,0,3.8-1.3,3.8-3.9
		c0-2.2-1.3-3.5-3.6-3.5c-0.6,0-1,0-1.3,0.1V126.7z"/>
	<path style="fill:#FFFFFF;" d="M232.9,125c0,1.3,1.1,1.9,2.2,1.9c0.9,0,1.5-0.1,2-0.3l0.3,1.3c-0.6,0.3-1.5,0.5-2.5,0.5
		c-2.4,0-3.8-1.5-3.8-3.7c0-2,1.2-3.9,3.6-3.9c2.4,0,3.2,2,3.2,3.6c0,0.3,0,0.6-0.1,0.8H232.9z M236.1,123.7c0-0.7-0.3-1.8-1.5-1.8
		c-1.1,0-1.6,1-1.7,1.8H236.1z"/>
	<path style="fill:#FFFFFF;" d="M239.5,128.1v-5.9h-1v-1.4h1v-0.3c0-0.9,0.3-1.9,0.9-2.5c0.5-0.5,1.3-0.7,1.9-0.7
		c0.5,0,0.9,0.1,1.2,0.2l-0.1,1.4c-0.2-0.1-0.5-0.1-0.8-0.1c-0.9,0-1.2,0.8-1.2,1.7v0.4h1.6v1.4h-1.6v5.9H239.5z"/>
	<path style="fill:#FFFFFF;" d="M245.2,125c0,1.3,1.1,1.9,2.2,1.9c0.9,0,1.5-0.1,2-0.3l0.3,1.3c-0.6,0.3-1.5,0.5-2.6,0.5
		c-2.4,0-3.8-1.5-3.8-3.7c0-2,1.2-3.9,3.6-3.9c2.4,0,3.2,2,3.2,3.6c0,0.3,0,0.6-0.1,0.8H245.2z M248.4,123.7c0-0.7-0.3-1.8-1.5-1.8
		c-1.1,0-1.6,1-1.7,1.8H248.4z"/>
	<path style="fill:#FFFFFF;" d="M251.7,123c0-0.8,0-1.5-0.1-2.2h1.6l0.1,1.1h0c0.3-0.6,1.1-1.3,2.3-1.3c1.3,0,2.6,0.8,2.6,3.1v4.3
		h-1.8V124c0-1-0.4-1.8-1.4-1.8c-0.7,0-1.2,0.5-1.4,1.1c-0.1,0.1-0.1,0.4-0.1,0.6v4.3h-1.8V123z"/>
	<path style="fill:#FFFFFF;" d="M265.6,127.9c-0.4,0.2-1.2,0.4-2.1,0.4c-2.3,0-3.8-1.5-3.8-3.7c0-2.2,1.5-3.9,4.1-3.9
		c0.7,0,1.4,0.1,1.8,0.3l-0.3,1.4c-0.3-0.1-0.7-0.3-1.4-0.3c-1.4,0-2.2,1-2.2,2.4c0,1.5,1,2.4,2.2,2.4c0.6,0,1.1-0.1,1.5-0.3
		L265.6,127.9z"/>
	<path style="fill:#FFFFFF;" d="M268.1,125c0,1.3,1.1,1.9,2.2,1.9c0.9,0,1.5-0.1,2-0.3l0.3,1.3c-0.6,0.3-1.5,0.5-2.5,0.5
		c-2.4,0-3.8-1.5-3.8-3.7c0-2,1.2-3.9,3.6-3.9c2.4,0,3.2,2,3.2,3.6c0,0.3,0,0.6-0.1,0.8H268.1z M271.4,123.7c0-0.7-0.3-1.8-1.5-1.8
		c-1.1,0-1.6,1-1.7,1.8H271.4z"/>
</g>
<g>
	<path d="M145.2,38.7c-5.3-3.1-9.7-10.6-9.6-16.7c0-2.1,0.5-3.7,1.4-4.9c-2.4,0.7-3.8,3.4-3.8,7.2c0,6.1,4.3,13.6,9.6,16.7
		c3.9,2.2,7.2,1.5,8.8-1.4C149.8,40.4,147.6,40.1,145.2,38.7z"/>
	<path d="M142.9,6c-5.8-3.3-10.8-3.6-14.6-1.5c1.6-0.9,3.1-1.9,4.8-2.9c3.8-2.2,9-1.9,14.8,1.4c11.5,6.6,20.7,22.7,20.7,35.8
		c0,3.6-0.5,8.3-3.3,12.8l-15.8,24.1l-5.9,3.5l18.2-28.7c1.2-2.3,1.9-5.3,1.9-8.9C163.6,28.6,154.3,12.6,142.9,6z"/>
</g>
<path style="fill:#BE0000;" d="M163.6,41.8c0,3.6-0.7,6.5-1.9,8.9l-18.2,28.7l-18-46.5c-2-7-2.6-10.4-2.5-15.2
	c0-13.2,8.6-18.2,20-11.6C154.3,12.6,163.6,28.6,163.6,41.8z M142.8,40.9c5.3,3.1,9.7,0.6,9.7-5.5c0-6.1-4.3-13.6-9.6-16.7
	c-5.3-3.1-9.7-0.6-9.7,5.5C133.1,30.4,137.4,37.8,142.8,40.9L142.8,40.9"/>
</svg>
