<svg xmlns="http://www.w3.org/2000/svg" width="190" height="114.51" viewBox="0 0 190 114.51">
  <g id="Layer_2" data-name="Layer 2">
    <g id="Pointer">
      <g>
        <rect y="82.31" width="190" height="32.2" rx="16.1" style="fill: #be0000"/>
        <g>
          <path d="M21.8,93.13V90.84q-3.47.21-7.48.21l-.51-1.52a88.64,88.64,0,0,0,16.55-1.35l.79,1.4a55.42,55.42,0,0,1-7.65,1.14v2.41h9.39v1.64H24.46a50.78,50.78,0,0,1,9,4.81L32.31,101a42.74,42.74,0,0,0-8.81-5.08v3.84h6.28v10.56H28.09V109H17.38v1.3H15.69V99.72H21.8V94.89q-2.46,3.52-9.2,6.07l-.94-1.55q6.23-2.07,8.5-4.64h-8V93.13Zm6.29,10.53v-2.39H17.38v2.39Zm0,3.77v-2.27H17.38v2.27Z" style="fill: #fff"/>
          <path d="M41.08,98.06l-1.21,1.23a24.54,24.54,0,0,0-4-3.5l1.21-1.19A27.5,27.5,0,0,1,41.08,98.06Zm0,4.25a70.38,70.38,0,0,1-3.22,8l-1.73-.75a69.52,69.52,0,0,0,3.38-7.85Zm.79-10-1.23,1.2a27.07,27.07,0,0,0-4.27-3.67l1.23-1.18A30.52,30.52,0,0,1,41.82,92.29Zm4.06-1.5V88.23h1.69v2.56h4.06V88.23h1.69v2.56h3.07v1.57H53.32v2.87h3.84v1.6h-4a10.11,10.11,0,0,0,4.71,4l-.72,1.5a14.78,14.78,0,0,1-3.34-2.37v5H46.49v2.32c0,.62.33.94,1.06,1h6.5a1.09,1.09,0,0,0,1-.58,7.94,7.94,0,0,0,.38-2.2l1.65.53a11.72,11.72,0,0,1-.49,2.61,2,2,0,0,1-2,1.24H46.92c-1.45,0-2.15-.66-2.15-2v-7.17a19.33,19.33,0,0,1-2.83,2.12l-.89-1.47a11.6,11.6,0,0,0,4.86-4.54H42.09v-1.6h3.79V92.36H43V90.79Zm7.54,8.69a11.92,11.92,0,0,1-1.89-2.65h-4a10,10,0,0,1-1.59,2.65Zm-1.19,4V101H46.49v2.51Zm-.6-8.24V92.36H47.57v2.87Z" style="fill: #fff"/>
          <path d="M64.89,97.5l-1.23,1.23a23.46,23.46,0,0,0-3.73-3.09l1.26-1.21A28.84,28.84,0,0,1,64.89,97.5Zm.29,4.59a71.42,71.42,0,0,1-3.43,7.9l-1.62-.7a67.94,67.94,0,0,0,3.55-7.78Zm.09-10.55L64,92.79a20.57,20.57,0,0,0-3.72-3l1.26-1.18A23.19,23.19,0,0,1,65.27,91.54Zm2.56,2.12H80.1c-.07,2.13-.14,4-.19,5.65h2v1.62H79.84c-.1,1.77-.17,3.19-.24,4.3h2v1.5h-2.1a11.2,11.2,0,0,1-.2,1.28,3,3,0,0,1-1.37,1.74,6.74,6.74,0,0,1-3,.51l-2.1,0-.51-1.59c.87,0,1.67.09,2.39.09a8.07,8.07,0,0,0,1.77-.19,1.86,1.86,0,0,0,1.16-1.09,5,5,0,0,0,.14-.77H66.31c.39-1.93.73-3.87,1-5.8H64.86V99.31h2.59c.19-1.86.31-3.74.36-5.62a21.64,21.64,0,0,1-1.59,1.81L65.1,94.17a17.24,17.24,0,0,0,4-6.18l1.74.36c-.24.6-.5,1.18-.77,1.71H81.24v1.62h-12A23.8,23.8,0,0,1,67.83,93.66Zm.41,11.57H78c.08-1.09.15-2.51.25-4.3H68.92C68.73,102.48,68.51,103.93,68.24,105.23Zm10.17-10h-9c-.07,1.45-.17,2.82-.29,4.1h9.18C78.32,98.06,78.37,96.68,78.41,95.21Zm-3,8.62-1.14,1.11a19.45,19.45,0,0,0-3-2.65l1.09-1.07A20.81,20.81,0,0,1,75.42,103.83ZM75.66,98,74.55,99.1a17.17,17.17,0,0,0-3-2.42l1.09-1.06A19.24,19.24,0,0,1,75.66,98Z" style="fill: #fff"/>
          <path d="M92.37,89.12V90.5c-.72,2.17-1.59,4.44-2.58,6.81a12.05,12.05,0,0,1,2.41,5.94,2.8,2.8,0,0,1-.75,2.18,6.27,6.27,0,0,1-3.65.84l-.55-1.76a7.34,7.34,0,0,0,.94.09,4,4,0,0,0,1.81-.36,1.1,1.1,0,0,0,.46-1c0-1.69-.82-3.6-2.46-5.67a65.36,65.36,0,0,0,2.63-6.82h-4v19.57H84.91V89.12Zm6.38,2.63a26.2,26.2,0,0,0-1.14-3.38l1.74-.29a32.8,32.8,0,0,1,1.16,3.67h5.24v1.69h-8c0,1-.08,2.35-.17,4.18h6.91a65.76,65.76,0,0,1-.56,10,3.13,3.13,0,0,1-3.21,2.48c-.58,0-1.28,0-2.1-.12l-.56-1.62c1,.05,1.81.1,2.49.1a2,2,0,0,0,1.93-1.88c.15-1.14.22-3.55.24-7.23H97.44a20.43,20.43,0,0,1-1.4,5.51,19.66,19.66,0,0,1-3.91,5.58l-1.28-1.21a18.31,18.31,0,0,0,4-6,21.93,21.93,0,0,0,1.09-6.16c0-1.64.09-2.85.12-3.63H92.71V91.75Z" style="fill: #fff"/>
          <path d="M111,94.1V88.2h1.72v5.9h2.44v1.69h-2.44v14.49H111V95.79h-2.6V94.1Zm14.4,9.22v-1.2h1.69v1.2h2.88v1.55h-2.88v3.5a1.68,1.68,0,0,1-1.86,1.91h-2.68l-.36-1.62c.87.07,1.69.12,2.46.12.48,0,.75-.29.75-.82v-3.09H114.88v-1.55Zm-3.6-13.43V88.23h1.67v1.66h2.8c-.24-.53-.48-1-.72-1.45L127,88.2c.22.51.44,1.07.66,1.69h2.07v1.48h-6.3v1.3h5.48v7.54c0,1.06-.63,1.62-1.83,1.62h-1.33l-.37-1.33,1.26.07c.44,0,.65-.24.65-.7v-.68h-3.86v2.49h-1.67V99.19h-3.84v2.61H116.3V92.67h5.46v-1.3h-6.3V89.89Zm0,18.07-1.09,1.09a21.58,21.58,0,0,0-3.31-3.09l1.06-1A24,24,0,0,1,121.74,108Zm0-12.53V94h-3.84v1.45Zm0,2.58v-1.4h-3.84V98Zm1.67-2.58h3.86V94h-3.86Zm0,2.58h3.86v-1.4h-3.86Z" style="fill: #fff"/>
          <path d="M133.64,98.42,132.12,98a27.44,27.44,0,0,0,1.55-8.07l1.52.12c-.05,1.06-.15,2.12-.29,3.16h1.69v-5h1.69v5h2v1.69h-2v5.8c.68-.31,1.3-.63,1.93-1v1.65c-.63.34-1.28.65-1.93,1v8h-1.69v-7.24c-1.23.48-2.49.94-3.79,1.35l-.42-1.69a30.7,30.7,0,0,0,4.21-1.3V94.89h-2A32.65,32.65,0,0,1,133.64,98.42ZM145,88.57A34.29,34.29,0,0,1,144.1,92h9.37q0,12.1-.36,14.93-.41,3.19-3.91,3.19c-.34,0-.94,0-1.82-.07l-.41-1.57c.78,0,1.43.09,2,.09a2.35,2.35,0,0,0,2.53-2.32c.17-1.35.27-5.55.32-12.56h-1.65A40.81,40.81,0,0,1,148,103.3a20.41,20.41,0,0,1-5,6.79L142,108.71a18.48,18.48,0,0,0,4.54-6.09,34.61,34.61,0,0,0,2.1-8.89h-1.88q-1.46,7.9-5.51,11.48l-1.13-1.31c2.48-2.12,4.18-5.53,5.09-10.17H143.5a15.88,15.88,0,0,1-2.2,3.82L140,96.46a18.76,18.76,0,0,0,3.33-8.33Z" style="fill: #fff"/>
          <path d="M177.79,95h-1.57v5.55h-7.49v2.2h8.19v7.63h-1.64v-1.06h-6.55v1h-1.62V95h-1.37V93.3l-.61.63a51.78,51.78,0,0,0-3.45-3.87c-.63.92-1.28,1.77-2,2.59h4V94.1h-4.44v-.95c-.63.68-1.26,1.36-1.93,2l-1-1.33a29.72,29.72,0,0,0,4.38-5.31h1.54c1.19,1.16,2.32,2.36,3.41,3.62V90.59h5.19a17.5,17.5,0,0,0-.94-2.12l1.69-.27c.29.7.58,1.5.85,2.39h5.26Zm-11.86,14.2-1.42.65c-.2-.58-.39-1.09-.56-1.57a46.34,46.34,0,0,1-6.13,2l-.49-1.38a.72.72,0,0,0,.49-.7V95.69H165v8.7h-5.51v3.91c1.47-.48,2.78-1,3.91-1.45-.27-.6-.53-1.16-.8-1.67l1.45-.48A30.5,30.5,0,0,1,165.93,109.17Zm-2.61-11.88h-3.86v2h3.86Zm-3.86,5.5h3.86v-2.05h-3.86Zm16.71-8.33V92.19h-8.79v2.27Zm-1.59,4.59V96h-5.85v3.07Zm-5.85,8.69h6.55v-3.47h-6.55Z" style="fill: #fff"/>
        </g>
        <g>
          <path d="M94.51,38.49c-5.34-3.08-9.65-10.56-9.63-16.7a8.06,8.06,0,0,1,1.36-4.86c-2.36.72-3.8,3.36-3.81,7.17,0,6.14,4.3,13.62,9.64,16.7,3.89,2.25,7.25,1.53,8.79-1.38C99.16,40.13,96.94,39.89,94.51,38.49Z"/>
          <path d="M92.19,5.73C86.42,2.4,81.38,2.09,77.61,4.28c1.58-.91,3.13-1.92,4.78-2.88,3.78-2.19,9-1.88,14.77,1.45,11.46,6.61,20.72,22.65,20.68,35.82a23.45,23.45,0,0,1-3.32,12.81L98.7,75.62l-6,3.47,18.19-28.67a19.06,19.06,0,0,0,1.93-8.87C112.91,28.39,103.65,12.35,92.19,5.73Z"/>
        </g>
        <path d="M112.87,41.55a19.06,19.06,0,0,1-1.93,8.87L92.75,79.09l-18-46.54c-2-7-2.56-10.41-2.55-15.21,0-13.17,8.57-18.22,20-11.61S112.91,28.39,112.87,41.55Zm-20.78-.86c5.35,3.09,9.69.61,9.71-5.53s-4.3-13.62-9.65-16.71-9.68-.6-9.7,5.54,4.3,13.62,9.64,16.7h0" style="fill: #be0000"/>
      </g>
    </g>
  </g>
</svg>
