<svg xmlns="http://www.w3.org/2000/svg" width="100" height="114.51" viewBox="0 0 100 114.51">
  <g id="Layer_2" data-name="Layer 2">
    <g id="Pointer">
      <g>
        <rect y="82.31" width="100" height="32.2" rx="16.1" style="fill: #be0000"/>
        <g>
          <path d="M15.08,95.57l-.41-1.84a13.68,13.68,0,0,0,3-5.67l1.5.48c-.17.51-.34,1-.51,1.43h3.48v1.16A24.82,24.82,0,0,1,20.66,94h2.15v9.83h-7v-9.1Zm2,9.44A18.65,18.65,0,0,1,16,110.28l-1.14-.36a17.25,17.25,0,0,0,1.09-5Zm3.43-13.67H18.08A17.08,17.08,0,0,1,16.43,94H19A20.85,20.85,0,0,0,20.49,91.34ZM18.7,98.15V95.33H17.21v2.82Zm0,1.31H17.21v3H18.7Zm.39,10.27-1.06.09c-.05-2.08-.15-3.67-.29-4.78l1-.12A46.75,46.75,0,0,1,19.09,109.73Zm2.1-.42-1,.13a19.27,19.27,0,0,0-.67-4.57l1-.12A20.49,20.49,0,0,1,21.19,109.31ZM20,98.15h1.47V95.33H20Zm1.47,1.31H20v3h1.47Zm2,8.94-1,.26a26.22,26.22,0,0,0-1-3.81l.94-.29A28,28,0,0,1,23.39,108.4Zm3.07-3a27.21,27.21,0,0,1-2.08,4.66l-1.3-.68a30,30,0,0,0,2.1-4.59Zm3.26-16.14V104H24V89.29ZM28.2,93.52V90.74H25.54v2.78Zm0,4.39V95H25.54v2.94Zm0,1.45H25.54v3.17H28.2Zm2.36,9.52-1.16.8a35,35,0,0,0-2-4.28l1.14-.7A39.28,39.28,0,0,1,30.56,108.88ZM32.74,90.3v15H31.26v-15ZM32,110.06l-.36-1.54c.72,0,1.4.09,2.07.09s.82-.33.82-1V88.32h1.6V108c0,1.37-.63,2.07-1.84,2.07Z" style="fill: #fff"/>
          <path d="M44,105.52a20.79,20.79,0,0,1-3.41,4.88l-1.42-1a18.85,18.85,0,0,0,3.38-4.54Zm-3.67-9.44-1.12-1.35a22.25,22.25,0,0,0,7.37-6.65l1.79.39c-.39.58-.8,1.16-1.21,1.69h8.24v1.33a20.71,20.71,0,0,1-2.32,2.41h5.22v10.29H42.22V94.85C41.6,95.28,41,95.69,40.37,96.08Zm12.84-4.33H45.82a22.67,22.67,0,0,1-2.34,2.15h7.44A21.69,21.69,0,0,0,53.21,91.75ZM49.5,98.23V95.5H43.92v2.73Zm0,1.54H43.92v2.81H49.5ZM49,110l-1.74.39a33.63,33.63,0,0,0-1.11-4.74l1.66-.34C48.24,106.75,48.65,108.3,49,110Zm5.6,0-1.74.39a24.56,24.56,0,0,0-1.91-4.83l1.67-.36A34.57,34.57,0,0,1,54.59,109.94ZM51.14,98.23h5.53V95.5H51.14Zm5.53,1.54H51.14v2.81h5.53Zm4.23,9.54-1.45,1a40.09,40.09,0,0,0-3.07-4.66l1.4-.87A36,36,0,0,1,60.9,109.31Z" style="fill: #fff"/>
          <path d="M68.57,97.65l-1.23,1.23a23.55,23.55,0,0,0-4-3.5l1.23-1.19A27.45,27.45,0,0,1,68.57,97.65Zm.46,3.84A78.21,78.21,0,0,1,65.19,110l-1.74-.75a67.5,67.5,0,0,0,4-8.43Zm.07-9.59-1.23,1.21a26.72,26.72,0,0,0-4.1-3.41L65,88.49A26,26,0,0,1,69.1,91.9Zm11,18.14-.43-1.6,2,.08c.62,0,.94-.39.94-1.14v-2.56H78.09v4.93H76.5v-4.93H72v5.32H70.41V94.56h5.53c-1-.63-2.15-1.28-3.45-2l1.13-1.09c1.26.65,2.37,1.31,3.38,1.93a30.27,30.27,0,0,0,4.13-2.72H70v-1.6H83.48v1.43a26.59,26.59,0,0,1-5.1,3.84,1.66,1.66,0,0,0,.24.17h5.56v13.18c0,1.53-.68,2.3-2,2.3ZM76.5,99V96.17H72V99Zm0,4.28v-2.76H72v2.76ZM78.09,99h4.47V96.17H78.09Zm0,4.28h4.47v-2.76H78.09Z" style="fill: #fff"/>
        </g>
        <g>
          <path d="M49.51,38.49c-5.34-3.08-9.65-10.56-9.63-16.7a8.06,8.06,0,0,1,1.36-4.86c-2.36.72-3.8,3.36-3.81,7.17,0,6.14,4.3,13.62,9.64,16.7,3.89,2.25,7.25,1.53,8.79-1.38C54.16,40.13,51.94,39.89,49.51,38.49Z"/>
          <path d="M47.19,5.73C41.42,2.4,36.38,2.09,32.61,4.28c1.58-.91,3.13-1.92,4.78-2.88,3.78-2.19,9-1.88,14.77,1.45C63.62,9.46,72.88,25.5,72.84,38.67a23.45,23.45,0,0,1-3.32,12.81L53.7,75.62l-6,3.47L65.94,50.42a19.06,19.06,0,0,0,1.93-8.87C67.91,28.39,58.65,12.35,47.19,5.73Z"/>
        </g>
        <path d="M67.87,41.55a19.06,19.06,0,0,1-1.93,8.87L47.75,79.09l-18-46.54c-2-7-2.56-10.41-2.55-15.21,0-13.17,8.57-18.22,20-11.61S67.91,28.39,67.87,41.55Zm-20.78-.86c5.35,3.09,9.69.61,9.71-5.53s-4.3-13.62-9.65-16.71-9.68-.6-9.7,5.54,4.3,13.62,9.64,16.7h0" style="fill: #be0000"/>
      </g>
    </g>
  </g>
</svg>
