<?xml version="1.0" encoding="utf-8"?>
<!-- Generator: Adobe Illustrator 26.0.1, SVG Export Plug-In . SVG Version: 6.00 Build 0)  -->
<svg version="1.1" id="Layer_1" xmlns="http://www.w3.org/2000/svg" xmlns:xlink="http://www.w3.org/1999/xlink" x="0px" y="0px"
	 width="120px" height="135.4px" viewBox="0 0 120 135.4" style="enable-background:new 0 0 120 135.4;" xml:space="preserve">
<path style="fill:#BE0000;" d="M93.5,135.5h-67C11.9,135.5,0,123.7,0,109v0c0-14.6,11.9-26.5,26.5-26.5h67
	c14.6,0,26.5,11.9,26.5,26.5v0C120,123.7,108.2,135.5,93.5,135.5z"/>
<g>
	<path style="fill:#FFFFFF;" d="M25.1,98l-0.5-2.4c1.3-1.4,2.2-3.2,2.9-5.4l2,0.6L29,92h3.4v1.5c-0.4,1-0.9,1.8-1.3,2.6H33v10.2
		h-7.2v-8.8C25.5,97.6,25.3,97.8,25.1,98z M27.3,107.3c-0.1,2-0.5,3.8-1,5.3l-1.4-0.5c0.6-1.4,0.9-3.1,1-5L27.3,107.3z M30.2,93.8
		h-2.1c-0.4,0.8-0.9,1.5-1.4,2.2h2.1C29.3,95.4,29.8,94.6,30.2,93.8z M28.6,100.2v-2.4h-1v2.4H28.6z M28.6,101.8h-1v2.7h1V101.8z
		 M29.3,111.9l-1.3,0.1c0-2.1-0.1-3.6-0.3-4.8l1.2-0.1C29.1,108.3,29.2,109.9,29.3,111.9z M31.4,111.5l-1.3,0.1
		c-0.1-2-0.3-3.5-0.7-4.6l1.3-0.1C31,108.1,31.3,109.6,31.4,111.5z M30.2,100.2h1v-2.4h-1V100.2z M31.2,101.8h-1v2.7h1V101.8z
		 M33.5,110.5c0.7-1.2,1.2-2.4,1.6-3.6l1.6,0.8c-0.5,1.6-1.2,3.1-2,4.6l-1.7-0.9C33.2,111.2,33.3,110.9,33.5,110.5l-1.3,0.4
		c-0.2-1.4-0.6-2.6-0.9-3.8l1.2-0.4C32.9,107.8,33.2,109.1,33.5,110.5z M39.9,91.3v15h-6v-15H39.9z M37.9,95.5v-2.3h-2v2.3H37.9z
		 M37.9,99.9v-2.5h-2v2.5H37.9z M37.9,101.8h-2v2.7h2V101.8z M40.8,110.9l-1.5,1c-0.5-1.3-1.2-2.7-2-4.2l1.4-0.9
		C39.6,108.4,40.3,109.7,40.8,110.9z M43,92.5v14.9h-1.9V92.5H43z M42.1,112.4l-0.5-2c0.7,0.1,1.3,0.1,1.9,0.1c0.5,0,0.8-0.3,0.8-1
		v-19h2.1V110c0,1.5-0.7,2.3-2.1,2.3H42.1z"/>
	<path style="fill:#FFFFFF;" d="M54.3,107.9c-0.9,1.8-2,3.5-3.3,4.8l-1.9-1.4c1.3-1.2,2.4-2.7,3.3-4.4L54.3,107.9z M50.6,98.5
		l-1.5-1.8c2.8-1.5,5.2-3.7,7.2-6.4l2.3,0.5c-0.3,0.5-0.7,0.9-1,1.4h7.9v1.7c-0.6,0.8-1.3,1.5-1.9,2.1h4.8v10.7H52.1v-9.1
		C51.6,97.9,51.1,98.2,50.6,98.5z M62.7,94.2H56c-0.6,0.6-1.2,1.2-1.8,1.7h6.8C61.5,95.4,62.1,94.8,62.7,94.2z M59.2,100.2v-2.1
		h-4.9v2.1H59.2z M59.2,102.2h-4.9v2.2h4.9V102.2z M59.2,112.1l-2.3,0.5c-0.3-1.8-0.6-3.4-1-4.7l2.2-0.4
		C58.5,108.9,58.9,110.5,59.2,112.1z M64.8,112.1l-2.3,0.5c-0.5-1.8-1.1-3.4-1.8-4.8l2.2-0.5C63.6,108.8,64.2,110.4,64.8,112.1z
		 M61.4,100.2h5v-2.1h-5V100.2z M66.3,102.2h-5v2.2h5V102.2z M71.1,111.3l-1.9,1.4c-0.7-1.4-1.7-2.9-2.9-4.6l1.9-1.2
		C69.4,108.6,70.4,110.1,71.1,111.3z"/>
	<path style="fill:#FFFFFF;" d="M78.8,99.7l-1.6,1.6c-0.9-1.1-2.3-2.2-4-3.5l1.6-1.6C76.4,97.4,77.7,98.5,78.8,99.7z M79.3,103.8
		c-1.1,3-2.4,5.9-3.7,8.6l-2.3-1c1.5-2.7,2.8-5.5,3.9-8.4L79.3,103.8z M79.4,93.9l-1.6,1.6c-1-1.1-2.4-2.2-4.1-3.4l1.6-1.6
		C76.9,91.7,78.2,92.8,79.4,93.9z M90.2,112.3l-0.6-2.1l2,0.1c0.5,0,0.8-0.4,0.8-1.1v-2h-4v4.8h-2.1v-4.8h-3.9v5.1h-2.1V96.6h4.9
		c-0.9-0.5-1.8-1.1-2.8-1.6l1.5-1.4c1.2,0.6,2.2,1.3,3.2,1.9c1.2-0.6,2.3-1.4,3.5-2.2H80v-2.1h13.7V93c-1.4,1.3-3,2.5-4.8,3.6h5.5
		v13.2c0,1.7-0.7,2.6-2.2,2.6H90.2z M86.3,101v-2.3h-3.9v2.3H86.3z M86.3,105.3V103h-3.9v2.3H86.3z M88.4,101h4v-2.3h-4V101z
		 M88.4,105.3h4V103h-4V105.3z"/>
	<path style="fill:#FFFFFF;" d="M33.6,129.7c-1.4-0.4-2.7-0.8-3.9-1.3c-0.2-0.1-0.4-0.1-0.7-0.1c-2.3-0.1-4.4-1.8-4.4-5.1
		c0-3.1,1.9-5.3,4.8-5.3c2.9,0,4.7,2.2,4.7,5.1c0,2.4-1.1,4.1-2.6,4.7v0.1c0.9,0.2,1.8,0.5,2.7,0.6L33.6,129.7z M29.3,126.8
		c1.8,0,2.8-1.6,2.8-3.8c0-1.9-0.9-3.7-2.8-3.7c-1.8,0-2.8,1.8-2.8,3.8S27.6,126.8,29.3,126.8L29.3,126.8z"/>
	<path style="fill:#FFFFFF;" d="M42.2,125.9c0,0.9,0,1.6,0.1,2.2h-1.6l-0.1-1.1h0c-0.3,0.5-1,1.3-2.4,1.3c-1.3,0-2.5-0.8-2.5-3.2
		v-4.3h1.8v4c0,1.2,0.4,2,1.4,2c0.8,0,1.2-0.5,1.4-1c0.1-0.2,0.1-0.4,0.1-0.6v-4.4h1.8V125.9z"/>
	<path style="fill:#FFFFFF;" d="M49.9,126.4c0,0.7,0,1.3,0.1,1.8h-1.7l-0.1-0.8h0c-0.4,0.6-1.2,1-2.2,1c-1.5,0-2.3-1.1-2.3-2.2
		c0-1.8,1.6-2.8,4.3-2.8v-0.1c0-0.5-0.2-1.3-1.5-1.3c-0.7,0-1.5,0.2-2,0.5l-0.4-1.2c0.5-0.3,1.5-0.6,2.6-0.6c2.3,0,3,1.5,3,3.1
		V126.4z M48.1,124.5c-1.3,0-2.5,0.3-2.5,1.4c0,0.7,0.5,1.1,1,1.1c0.8,0,1.3-0.5,1.5-1c0-0.1,0-0.3,0-0.4V124.5z"/>
	<path style="fill:#FFFFFF;" d="M51.8,123.2c0-1,0-1.7-0.1-2.4h1.6l0.1,1.4h0c0.4-1,1.2-1.5,2-1.5c0.2,0,0.3,0,0.4,0v1.7
		c-0.2,0-0.3,0-0.6,0c-0.9,0-1.5,0.6-1.7,1.4c0,0.2,0,0.4,0,0.6v3.8h-1.8V123.2z"/>
	<path style="fill:#FFFFFF;" d="M57.1,123.2c0-1,0-1.7-0.1-2.4h1.6l0.1,1.4h0c0.4-1,1.2-1.5,2-1.5c0.2,0,0.3,0,0.4,0v1.7
		c-0.2,0-0.3,0-0.6,0c-0.9,0-1.5,0.6-1.7,1.4c0,0.2,0,0.4,0,0.6v3.8h-1.8V123.2z"/>
	<path style="fill:#FFFFFF;" d="M64,120.8l1.3,3.9c0.1,0.4,0.3,1,0.4,1.4h0c0.1-0.4,0.2-1,0.4-1.4l1.1-3.9h2l-1.8,5
		c-1,2.7-1.7,3.9-2.5,4.7c-0.7,0.6-1.5,0.9-1.9,0.9l-0.4-1.5c0.3-0.1,0.7-0.2,1.1-0.5c0.3-0.2,0.8-0.7,1-1.2
		c0.1-0.1,0.1-0.2,0.1-0.3c0-0.1,0-0.2-0.1-0.4l-2.7-6.7H64z"/>
	<path style="fill:#FFFFFF;" d="M73.5,118.2c0.6-0.1,1.6-0.2,2.7-0.2c1.4,0,2.2,0.2,2.9,0.6c0.6,0.4,1,1,1,1.9
		c0,0.9-0.6,1.8-1.7,2.2v0c1.1,0.3,2,1.1,2,2.5c0,0.9-0.4,1.6-1,2.1c-0.7,0.6-1.9,0.9-3.8,0.9c-1,0-1.8-0.1-2.3-0.1V118.2z
		 M75.3,122.1h0.9c1.3,0,2-0.6,2-1.5c0-1-0.7-1.4-1.9-1.4c-0.5,0-0.9,0-1.1,0.1V122.1z M75.3,126.8c0.2,0,0.6,0,1,0
		c1.2,0,2.2-0.4,2.2-1.7c0-1.2-1-1.6-2.3-1.6h-0.9V126.8z"/>
	<path style="fill:#FFFFFF;" d="M87.7,126.4c0,0.7,0,1.3,0.1,1.8h-1.7l-0.1-0.8h0c-0.4,0.6-1.2,1-2.2,1c-1.5,0-2.3-1.1-2.3-2.2
		c0-1.8,1.6-2.8,4.3-2.8v-0.1c0-0.5-0.2-1.3-1.5-1.3c-0.7,0-1.5,0.2-2,0.5l-0.4-1.2c0.5-0.3,1.5-0.6,2.6-0.6c2.3,0,3,1.5,3,3.1
		V126.4z M85.9,124.5c-1.3,0-2.5,0.3-2.5,1.4c0,0.7,0.5,1.1,1,1.1c0.8,0,1.3-0.5,1.5-1c0-0.1,0-0.3,0-0.4V124.5z"/>
	<path style="fill:#FFFFFF;" d="M90.7,120.8l1.3,3.9c0.1,0.4,0.3,1,0.4,1.4h0c0.1-0.4,0.2-1,0.4-1.4l1.1-3.9h2l-1.8,5
		c-1,2.7-1.7,3.9-2.5,4.7c-0.7,0.6-1.5,0.9-1.9,0.9l-0.4-1.5c0.3-0.1,0.7-0.2,1.1-0.5c0.3-0.2,0.8-0.7,1-1.2
		c0.1-0.1,0.1-0.2,0.1-0.3c0-0.1,0-0.2-0.1-0.4l-2.7-6.7H90.7z"/>
</g>
<g>
	<path d="M59.6,38.7c-5.3-3.1-9.7-10.6-9.6-16.7c0-2.1,0.5-3.7,1.4-4.9c-2.4,0.7-3.8,3.4-3.8,7.2c0,6.1,4.3,13.6,9.6,16.7
		c3.9,2.2,7.2,1.5,8.8-1.4C64.2,40.4,62,40.1,59.6,38.7z"/>
	<path d="M57.2,6c-5.8-3.3-10.8-3.6-14.6-1.5c1.6-0.9,3.1-1.9,4.8-2.9c3.8-2.2,9-1.9,14.8,1.4c11.5,6.6,20.7,22.7,20.7,35.8
		c0,3.6-0.5,8.3-3.3,12.8L63.7,75.8l-5.9,3.5L76,50.6c1.2-2.3,1.9-5.3,1.9-8.9C77.9,28.6,68.7,12.6,57.2,6z"/>
</g>
<path style="fill:#BE0000;" d="M77.9,41.8c0,3.6-0.7,6.5-1.9,8.9L57.8,79.3l-18-46.5c-2-7-2.6-10.4-2.5-15.2
	c0-13.2,8.6-18.2,20-11.6C68.7,12.6,77.9,28.6,77.9,41.8z M57.1,40.9c5.3,3.1,9.7,0.6,9.7-5.5c0-6.1-4.3-13.6-9.6-16.7
	c-5.3-3.1-9.7-0.6-9.7,5.5C47.5,30.4,51.8,37.8,57.1,40.9L57.1,40.9"/>
</svg>
