<?xml version="1.0" encoding="utf-8"?>
<!-- Generator: Adobe Illustrator 26.0.1, SVG Export Plug-In . SVG Version: 6.00 Build 0)  -->
<svg version="1.1" id="Layer_1" xmlns="http://www.w3.org/2000/svg" xmlns:xlink="http://www.w3.org/1999/xlink" x="0px" y="0px"
	 width="100.1px" height="135.3px" viewBox="0 0 100.1 135.3" style="enable-background:new 0 0 100.1 135.3;" xml:space="preserve"
	>
<path style="fill:#BE0000;" d="M73.6,135.3h-47c-14.6,0-26.5-11.9-26.5-26.5v0c0-14.6,11.9-26.5,26.5-26.5h47
	c14.6,0,26.5,11.9,26.5,26.5v0C100.1,123.4,88.2,135.3,73.6,135.3z"/>
<g>
	<path style="fill:#FFFFFF;" d="M31,105.3c-0.6,2.4-1.4,4.6-2.4,6.4l-1.9-1.2c1-1.7,1.8-3.6,2.2-5.6L31,105.3z M27.1,99.6v-2.1h2.6
		c-0.3-0.8-0.7-1.6-1-2.4l2-0.7c0.4,0.9,0.7,1.9,1.1,3.1H34c0.4-1,0.7-2,1-3.1l2.1,0.7c-0.3,0.9-0.6,1.7-1,2.4h2.5v2.1H34v2.2h4.1
		v2.1H34v8.6h-2.3v-8.6h-4.2v-2.1h4.2v-2.2H27.1z M31.7,92c-0.3-0.6-0.6-1.2-1-1.8l2.4-0.4c0.3,0.6,0.6,1.4,0.9,2.2h4.4v2.1h-11V92
		H31.7z M37.9,108.9l-1.9,0.7c-0.4-1.5-0.8-2.9-1.4-4.4l1.9-0.5C37.1,106.3,37.6,107.6,37.9,108.9z M48.7,92.3
		c-2.1,0.7-4.4,1.1-6.9,1.3v3.9h7.4v2.2h-2.3v12.7h-2.2V99.7h-2.9v2.4c-0.1,4.3-1,7.7-2.8,10.2l-1.6-1.7c1.4-2,2.1-4.9,2.2-8.5V91.8
		c2.9,0,5.6-0.6,8-1.5L48.7,92.3z"/>
	<path style="fill:#FFFFFF;" d="M53.6,96.3v-6.1h2.2v6.1h2.1v2.2h-2.1v7.4c0.7-0.3,1.4-0.7,2.1-1v2.2c-2,1-4.1,1.8-6.4,2.5l-0.6-2.2
		c0.9-0.2,1.8-0.4,2.7-0.7v-8.2h-2.2v-2.2H53.6z M66.1,90.1v1.1h5.7V93h-5.7v1.1h6.7v1c-0.2,1.2-0.5,2.4-1,3.6l-2-0.6
		c0.3-0.7,0.6-1.4,0.8-2.1h-4.7v1.4l3.3-0.4l0.3,1.7l-3.6,0.5v0.3c0,0.5,0.2,0.7,0.7,0.7h4.8v1.7h-5.7c-1.3,0-2-0.5-2-1.5v-0.9
		l-2.1,0.3l-0.2-1.7l2.4-0.3v-1.7h-3v4.8c0,4.5-1.1,8.4-3.2,11.6l-1.6-1.4c1.8-2.7,2.7-6.1,2.8-10.1v-6.8h5v-4H66.1z M64.3,109.9
		v-1.6h-2.8v-4.5h1.6v2.9h1.2v-3.9h1.8v7.2h1.3v-7.2h1.8v3.9h1.2v-2.9H72v4.5h-2.8v1.6h4v1.9h-13v-1.9H64.3z"/>
	<path style="fill:#FFFFFF;" d="M26.3,125.9c0.6,0.3,1.5,0.6,2.4,0.6c1.2,0,1.8-0.6,1.8-1.4c0-0.8-0.5-1.2-1.8-1.7
		c-1.7-0.6-2.7-1.5-2.7-2.9c0-1.7,1.4-2.9,3.6-2.9c1.1,0,1.9,0.2,2.4,0.5l-0.4,1.5c-0.4-0.2-1.1-0.5-2-0.5c-1.2,0-1.7,0.6-1.7,1.2
		c0,0.8,0.6,1.1,1.9,1.7c1.8,0.7,2.6,1.6,2.6,3c0,1.6-1.2,3-3.8,3c-1.1,0-2.2-0.3-2.7-0.6L26.3,125.9z"/>
	<path style="fill:#FFFFFF;" d="M39.8,126.1c0,0.7,0,1.3,0.1,1.8h-1.7l-0.1-0.8h0c-0.4,0.6-1.2,1-2.2,1c-1.5,0-2.3-1.1-2.3-2.2
		c0-1.8,1.6-2.8,4.3-2.8V123c0-0.5-0.2-1.3-1.5-1.3c-0.7,0-1.5,0.2-2,0.5l-0.4-1.2c0.5-0.3,1.5-0.6,2.6-0.6c2.3,0,3,1.5,3,3.1V126.1
		z M38,124.3c-1.3,0-2.6,0.3-2.6,1.4c0,0.7,0.5,1,1.1,1c0.8,0,1.3-0.5,1.5-1c0-0.1,0-0.3,0-0.4V124.3z"/>
	<path style="fill:#FFFFFF;" d="M41.8,122.8c0-0.8,0-1.5-0.1-2.2h1.6l0.1,1.1h0c0.3-0.6,1.1-1.3,2.3-1.3c1.3,0,2.6,0.8,2.6,3.1v4.3
		h-1.8v-4.1c0-1-0.4-1.8-1.4-1.8c-0.7,0-1.2,0.5-1.4,1.1c-0.1,0.1-0.1,0.4-0.1,0.6v4.3h-1.8V122.8z"/>
	<path style="fill:#FFFFFF;" d="M55.4,117.8v4h4.3v-4h1.8v10.1h-1.8v-4.5h-4.3v4.5h-1.8v-10.1H55.4z"/>
	<path style="fill:#FFFFFF;" d="M70.1,125.7c0,0.9,0,1.6,0.1,2.2h-1.6l-0.1-1.1h0c-0.3,0.5-1,1.3-2.4,1.3c-1.3,0-2.5-0.8-2.5-3.2
		v-4.3h1.8v4c0,1.2,0.4,2,1.4,2c0.8,0,1.2-0.5,1.4-1c0.1-0.2,0.1-0.4,0.1-0.6v-4.4h1.8V125.7z"/>
	<path style="fill:#FFFFFF;" d="M73,119.5c-0.6,0-1-0.5-1-1c0-0.6,0.4-1,1-1c0.6,0,1,0.4,1,1C74,119.1,73.6,119.5,73,119.5L73,119.5
		z M72.1,127.9v-7.3h1.8v7.3H72.1z"/>
</g>
<g>
	<path d="M49.6,38.5C44.3,35.4,40,27.9,40,21.8c0-2.1,0.5-3.7,1.4-4.9c-2.4,0.7-3.8,3.4-3.8,7.2c0,6.1,4.3,13.6,9.6,16.7
		c3.9,2.2,7.2,1.5,8.8-1.4C54.3,40.1,52,39.9,49.6,38.5z"/>
	<path d="M47.3,5.7c-5.8-3.3-10.8-3.6-14.6-1.5c1.6-0.9,3.1-1.9,4.8-2.9c3.8-2.2,9-1.9,14.8,1.4C63.7,9.5,73,25.5,72.9,38.7
		c0,3.6-0.5,8.3-3.3,12.8L53.8,75.6l-5.9,3.5L66,50.4c1.2-2.3,1.9-5.3,1.9-8.9C68,28.4,58.7,12.3,47.3,5.7z"/>
</g>
<path style="fill:#BE0000;" d="M68,41.6c0,3.6-0.7,6.5-1.9,8.9L47.9,79.1l-18-46.5c-2-7-2.6-10.4-2.5-15.2c0-13.2,8.6-18.2,20-11.6
	C58.7,12.3,68,28.4,68,41.6z M47.2,40.7c5.3,3.1,9.7,0.6,9.7-5.5c0-6.1-4.3-13.6-9.6-16.7c-5.3-3.1-9.7-0.6-9.7,5.5
	C37.5,30.1,41.8,37.6,47.2,40.7L47.2,40.7"/>
</svg>
