<svg xmlns="http://www.w3.org/2000/svg" width="80" height="114.51" viewBox="0 0 80 114.51">
  <g id="Layer_2" data-name="Layer 2">
    <g id="Pointer">
      <g>
        <rect y="82.31" width="80" height="32.2" rx="14.4" style="fill: #be0000"/>
        <g>
          <path d="M20.73,103.25a22.92,22.92,0,0,1-2.54,6.38l-1.42-.92a18.08,18.08,0,0,0,2.39-5.8Zm-3.65-5.94V95.74h2.8A21.1,21.1,0,0,0,18.73,93l1.52-.55a21.13,21.13,0,0,1,1.18,3.28H24a32.32,32.32,0,0,0,1.09-3.28L26.7,93a25,25,0,0,1-1.09,2.75h2.75v1.57H23.63V100H28v1.57H23.63v8.79H21.89v-8.79H17.47V100h4.42V97.31Zm4.88-7a17.18,17.18,0,0,0-1.06-2L22.71,88c.31.68.63,1.45.94,2.3h4.57v1.59H17.32V90.26ZM27.61,107l-1.47.55a38.81,38.81,0,0,0-1.5-4.37l1.48-.39C26.74,104.34,27.25,105.74,27.61,107Zm10.8-17a24.93,24.93,0,0,1-7.1,1.4v4.44H39v1.67H36.53v12.85H34.81V97.48h-3.5v2.68q-.15,6.3-2.75,10.07L27.3,109c1.45-2.12,2.22-5,2.34-8.79V90a21,21,0,0,0,7.9-1.57Z" style="fill: #fff"/>
          <path d="M43.77,94.58V88.25h1.67v6.33h2.24v1.69H45.44v8c.77-.34,1.52-.68,2.27-1.07v1.67a38.8,38.8,0,0,1-6.28,2.51L41,105.72c.94-.22,1.86-.49,2.78-.8V96.27H41.33V94.58Zm12-6.42v1.25h5.8v1.4h-5.8v1.55h6.76v.8a18.7,18.7,0,0,1-1,3.57L60,96.32a14.4,14.4,0,0,0,.87-2.46H55.51v1.83L59,95.21l.22,1.35-3.74.51v.63a.74.74,0,0,0,.84.84h4.86v1.31H55.68c-1.19,0-1.77-.49-1.77-1.45V97.29l-2.34.31-.17-1.35,2.51-.34v-2H50.46v5a21.07,21.07,0,0,1-3.07,11.5l-1.23-1.09a19,19,0,0,0,2.78-10.36V92.36h5.12v-4.2Zm-1.4,20v-2h-2.9v-4.3h1.26v3h1.64v-4h1.4v7.39h1.71v-7.39h1.41v4h1.64v-3h1.25v4.3H58.87v2H63v1.45h-13V108.2Z" style="fill: #fff"/>
        </g>
        <g>
          <path d="M39.51,38.49c-5.34-3.08-9.65-10.56-9.63-16.7a8.06,8.06,0,0,1,1.36-4.86c-2.36.72-3.8,3.36-3.81,7.17,0,6.14,4.3,13.62,9.64,16.7,3.89,2.25,7.25,1.53,8.79-1.38C44.16,40.13,41.94,39.89,39.51,38.49Z"/>
          <path d="M37.19,5.73C31.42,2.4,26.38,2.09,22.61,4.28c1.58-.91,3.13-1.92,4.78-2.88,3.78-2.19,9-1.88,14.77,1.45C53.62,9.46,62.88,25.5,62.84,38.67a23.45,23.45,0,0,1-3.32,12.81L43.7,75.62l-6,3.47L55.94,50.42a19.06,19.06,0,0,0,1.93-8.87C57.91,28.39,48.65,12.35,37.19,5.73Z"/>
        </g>
        <path d="M57.87,41.55a19.06,19.06,0,0,1-1.93,8.87L37.75,79.09l-18-46.54c-2-7-2.56-10.41-2.55-15.21,0-13.17,8.57-18.22,20-11.61S57.91,28.39,57.87,41.55Zm-20.78-.86c5.35,3.09,9.69.61,9.71-5.53s-4.3-13.62-9.65-16.71-9.68-.6-9.7,5.54,4.3,13.62,9.64,16.7h0" style="fill: #be0000"/>
      </g>
    </g>
  </g>
</svg>
