<svg id="Layer_1" data-name="Layer 1" xmlns="http://www.w3.org/2000/svg" viewBox="0 0 66.06 24.45">
  <g>
    <g style="opacity: 0.4">
      <rect x="3.66" y="1.05" width="62.4" height="23.41" rx="3.72" style="fill: #010101;opacity: 0"/>
      <rect x="3.68" y="1.06" width="62.36" height="23.38" rx="3.72" style="fill: #010101;opacity: 0.0033222590573186825"/>
      <rect x="3.7" y="1.07" width="62.32" height="23.35" rx="3.72" style="fill: #010101;opacity: 0.0066445181940590625"/>
      <rect x="3.72" y="1.09" width="62.27" height="23.33" rx="3.72" style="fill: #010101;opacity: 0.009966777330799443"/>
      <rect x="3.74" y="1.1" width="62.23" height="23.3" rx="3.72" style="fill: #010101;opacity: 0.013289036467539823"/>
      <rect x="3.76" y="1.12" width="62.19" height="23.27" rx="3.72" style="fill: #010101;opacity: 0.016611295604280204"/>
      <rect x="3.79" y="1.13" width="62.15" height="23.24" rx="3.72" style="fill: #010101;opacity: 0.019933554741020584"/>
      <rect x="3.81" y="1.14" width="62.1" height="23.22" rx="3.72" style="fill: #010101;opacity: 0.023255813877760965"/>
      <rect x="3.83" y="1.16" width="62.06" height="23.19" rx="3.72" style="fill: #010101;opacity: 0.026578073014501345"/>
      <rect x="3.85" y="1.17" width="62.02" height="23.16" rx="3.72" style="fill: #010101;opacity: 0.029900332151241726"/>
      <rect x="3.87" y="1.18" width="61.98" height="23.14" rx="3.72" style="fill: #010101;opacity: 0.033222591287982106"/>
      <rect x="3.89" y="1.2" width="61.94" height="23.11" rx="3.72" style="fill: #010101;opacity: 0.03654485042472248"/>
      <rect x="3.91" y="1.21" width="61.89" height="23.08" rx="3.72" style="fill: #010101;opacity: 0.03986710956146286"/>
      <rect x="3.93" y="1.22" width="61.85" height="23.05" rx="3.72" style="fill: #010101;opacity: 0.04318936869820324"/>
      <rect x="3.95" y="1.24" width="61.81" height="23.03" rx="3.72" style="fill: #010101;opacity: 0.046511627834943614"/>
      <rect x="3.98" y="1.25" width="61.77" height="23" rx="3.72" style="fill: #010101;opacity: 0.04983388697168399"/>
      <rect x="4" y="1.26" width="61.72" height="22.97" rx="3.72" style="fill: #010101;opacity: 0.05315614610842437"/>
      <rect x="4.02" y="1.28" width="61.68" height="22.95" rx="3.72" style="fill: #010101;opacity: 0.056478405245164745"/>
      <rect x="4.04" y="1.29" width="61.64" height="22.92" rx="3.72" style="fill: #010101;opacity: 0.05980066438190512"/>
      <rect x="4.06" y="1.3" width="61.6" height="22.89" rx="3.72" style="fill: #010101;opacity: 0.0631229235186455"/>
      <rect x="4.08" y="1.32" width="61.56" height="22.86" rx="3.72" style="fill: #010101;opacity: 0.06644518265538588"/>
      <rect x="4.1" y="1.33" width="61.51" height="22.84" rx="3.72" style="fill: #010101;opacity: 0.06976744179212625"/>
      <rect x="4.12" y="1.35" width="61.47" height="22.81" rx="3.72" style="fill: #010101;opacity: 0.07308970092886663"/>
      <rect x="4.14" y="1.36" width="61.43" height="22.78" rx="3.72" style="fill: #010101;opacity: 0.076411960065607"/>
      <rect x="4.16" y="1.37" width="61.39" height="22.76" rx="3.72" style="fill: #010101;opacity: 0.07973421920234738"/>
      <rect x="4.19" y="1.39" width="61.34" height="22.73" rx="3.72" style="fill: #010101;opacity: 0.08305647833908776"/>
      <rect x="4.21" y="1.4" width="61.3" height="22.7" rx="3.72" style="fill: #010101;opacity: 0.08637873747582814"/>
      <rect x="4.23" y="1.41" width="61.26" height="22.67" rx="3.72" style="fill: #010101;opacity: 0.08970099661256851"/>
      <rect x="4.25" y="1.43" width="61.22" height="22.65" rx="3.72" style="fill: #010101;opacity: 0.09302325574930889"/>
      <rect x="4.27" y="1.44" width="61.18" height="22.62" rx="3.72" style="fill: #010101;opacity: 0.09634551488604927"/>
      <rect x="4.29" y="1.45" width="61.13" height="22.59" rx="3.72" style="fill: #010101;opacity: 0.09966777402278965"/>
      <rect x="4.31" y="1.47" width="61.09" height="22.57" rx="3.72" style="fill: #010101;opacity: 0.10299003315953002"/>
      <rect x="4.33" y="1.48" width="61.05" height="22.54" rx="3.72" style="fill: #010101;opacity: 0.1063122922962704"/>
      <rect x="4.35" y="1.49" width="61.01" height="22.51" rx="3.72" style="fill: #010101;opacity: 0.10963455143301078"/>
      <rect x="4.38" y="1.51" width="60.96" height="22.48" rx="3.72" style="fill: #010101;opacity: 0.11295681056975115"/>
      <rect x="4.4" y="1.52" width="60.92" height="22.46" rx="3.72" style="fill: #010101;opacity: 0.11627906970649153"/>
      <rect x="4.42" y="1.54" width="60.88" height="22.43" rx="3.72" style="fill: #010101;opacity: 0.11960132884323191"/>
      <rect x="4.44" y="1.55" width="60.84" height="22.4" rx="3.72" style="fill: #010101;opacity: 0.12292358797997228"/>
      <rect x="4.46" y="1.56" width="60.8" height="22.38" rx="3.72" style="fill: #010101;opacity: 0.12624584711671266"/>
      <rect x="4.48" y="1.58" width="60.75" height="22.35" rx="3.72" style="fill: #010101;opacity: 0.12956810625345305"/>
      <rect x="4.5" y="1.59" width="60.71" height="22.32" rx="3.72" style="fill: #010101;opacity: 0.13289036539019344"/>
      <rect x="4.52" y="1.6" width="60.67" height="22.29" rx="3.72" style="fill: #010101;opacity: 0.13621262452693383"/>
      <rect x="4.54" y="1.62" width="60.63" height="22.27" rx="3.72" style="fill: #010101;opacity: 0.13953488366367423"/>
      <rect x="4.57" y="1.63" width="60.58" height="22.24" rx="3.72" style="fill: #010101;opacity: 0.14285714280041462"/>
      <rect x="4.59" y="1.64" width="60.54" height="22.21" rx="3.72" style="fill: #010101;opacity: 0.146179401937155"/>
      <rect x="4.61" y="1.66" width="60.5" height="22.19" rx="3.72" style="fill: #010101;opacity: 0.1495016610738954"/>
      <rect x="4.63" y="1.67" width="60.46" height="22.16" rx="3.72" style="fill: #010101;opacity: 0.1528239202106358"/>
      <rect x="4.65" y="1.68" width="60.42" height="22.13" rx="3.72" style="fill: #010101;opacity: 0.15614617934737618"/>
      <rect x="4.67" y="1.7" width="60.37" height="22.11" rx="3.72" style="fill: #010101;opacity: 0.15946843848411657"/>
      <rect x="4.69" y="1.71" width="60.33" height="22.08" rx="3.72" style="fill: #010101;opacity: 0.16279069762085696"/>
      <rect x="4.71" y="1.73" width="60.29" height="22.05" rx="3.72" style="fill: #010101;opacity: 0.16611295675759735"/>
      <rect x="4.73" y="1.74" width="60.25" height="22.02" rx="3.72" style="fill: #010101;opacity: 0.16943521589433774"/>
      <rect x="4.76" y="1.75" width="60.2" height="22" rx="3.72" style="fill: #010101;opacity: 0.17275747503107813"/>
      <rect x="4.78" y="1.77" width="60.16" height="21.97" rx="3.72" style="fill: #010101;opacity: 0.17607973416781852"/>
      <rect x="4.8" y="1.78" width="60.12" height="21.94" rx="3.72" style="fill: #010101;opacity: 0.17940199330455892"/>
      <rect x="4.82" y="1.79" width="60.08" height="21.92" rx="3.72" style="fill: #010101;opacity: 0.1827242524412993"/>
      <rect x="4.84" y="1.81" width="60.04" height="21.89" rx="3.72" style="fill: #010101;opacity: 0.1860465115780397"/>
      <rect x="4.86" y="1.82" width="59.99" height="21.86" rx="3.72" style="fill: #010101;opacity: 0.1893687707147801"/>
      <rect x="4.88" y="1.83" width="59.95" height="21.83" rx="3.72" style="fill: #010101;opacity: 0.19269102985152048"/>
      <rect x="4.9" y="1.85" width="59.91" height="21.81" rx="3.72" style="fill: #010101;opacity: 0.19601328898826087"/>
      <rect x="4.92" y="1.86" width="59.87" height="21.78" rx="3.72" style="fill: #010101;opacity: 0.19933554812500126"/>
      <rect x="4.95" y="1.87" width="59.82" height="21.75" rx="3.72" style="fill: #010101;opacity: 0.20265780726174165"/>
      <rect x="4.97" y="1.89" width="59.78" height="21.73" rx="3.72" style="fill: #010101;opacity: 0.20598006639848204"/>
      <rect x="4.99" y="1.9" width="59.74" height="21.7" rx="3.72" style="fill: #010101;opacity: 0.20930232553522243"/>
      <rect x="5.01" y="1.92" width="59.7" height="21.67" rx="3.72" style="fill: #010101;opacity: 0.21262458467196282"/>
      <rect x="5.03" y="1.93" width="59.66" height="21.64" rx="3.72" style="fill: #010101;opacity: 0.21594684380870321"/>
      <rect x="5.05" y="1.94" width="59.61" height="21.62" rx="3.72" style="fill: #010101;opacity: 0.2192691029454436"/>
      <rect x="5.07" y="1.96" width="59.57" height="21.59" rx="3.72" style="fill: #010101;opacity: 0.222591362082184"/>
      <rect x="5.09" y="1.97" width="59.53" height="21.56" rx="3.72" style="fill: #010101;opacity: 0.2259136212189244"/>
      <rect x="5.11" y="1.98" width="59.49" height="21.54" rx="3.72" style="fill: #010101;opacity: 0.22923588035566478"/>
      <rect x="5.14" y="2" width="59.44" height="21.51" rx="3.72" style="fill: #010101;opacity: 0.23255813949240517"/>
      <rect x="5.16" y="2.01" width="59.4" height="21.48" rx="3.72" style="fill: #010101;opacity: 0.23588039862914556"/>
      <rect x="5.18" y="2.02" width="59.36" height="21.45" rx="3.72" style="fill: #010101;opacity: 0.23920265776588595"/>
      <rect x="5.2" y="2.04" width="59.32" height="21.43" rx="3.72" style="fill: #010101;opacity: 0.24252491690262634"/>
      <rect x="5.22" y="2.05" width="59.28" height="21.4" rx="3.72" style="fill: #010101;opacity: 0.24584717603936673"/>
      <rect x="5.24" y="2.06" width="59.23" height="21.37" rx="3.72" style="fill: #010101;opacity: 0.24916943517610712"/>
      <rect x="5.26" y="2.08" width="59.19" height="21.35" rx="3.72" style="fill: #010101;opacity: 0.2524916943128475"/>
      <rect x="5.28" y="2.09" width="59.15" height="21.32" rx="3.72" style="fill: #010101;opacity: 0.2558139534495879"/>
      <rect x="5.3" y="2.1" width="59.11" height="21.29" rx="3.72" style="fill: #010101;opacity: 0.2591362125863283"/>
      <rect x="5.33" y="2.12" width="59.07" height="21.26" rx="3.72" style="fill: #010101;opacity: 0.2624584717230687"/>
      <rect x="5.35" y="2.13" width="59.02" height="21.24" rx="3.72" style="fill: #010101;opacity: 0.2657807308598091"/>
      <rect x="5.37" y="2.15" width="58.98" height="21.21" rx="3.72" style="fill: #010101;opacity: 0.26910298999654947"/>
      <rect x="5.39" y="2.16" width="58.94" height="21.18" rx="3.72" style="fill: #010101;opacity: 0.27242524913328986"/>
      <rect x="5.41" y="2.17" width="58.9" height="21.16" rx="3.72" style="fill: #010101;opacity: 0.27574750827003025"/>
      <rect x="5.43" y="2.19" width="58.85" height="21.13" rx="3.72" style="fill: #010101;opacity: 0.27906976740677064"/>
      <rect x="5.45" y="2.2" width="58.81" height="21.1" rx="3.72" style="fill: #010101;opacity: 0.28239202654351103"/>
      <rect x="5.47" y="2.21" width="58.77" height="21.07" rx="3.72" style="fill: #010101;opacity: 0.2857142856802514"/>
      <rect x="5.49" y="2.23" width="58.73" height="21.05" rx="3.72" style="fill: #010101;opacity: 0.2890365448169918"/>
      <rect x="5.52" y="2.24" width="58.69" height="21.02" rx="3.72" style="fill: #010101;opacity: 0.2923588039537322"/>
      <rect x="5.54" y="2.25" width="58.64" height="20.99" rx="3.72" style="fill: #010101;opacity: 0.2956810630904726"/>
      <rect x="5.56" y="2.27" width="58.6" height="20.97" rx="3.72" style="fill: #010101;opacity: 0.299003322227213"/>
      <rect x="5.58" y="2.28" width="58.56" height="20.94" rx="3.72" style="fill: #010101;opacity: 0.3023255813639534"/>
      <rect x="5.6" y="2.29" width="58.52" height="20.91" rx="3.72" style="fill: #010101;opacity: 0.30564784050069377"/>
      <rect x="5.62" y="2.31" width="58.47" height="20.88" rx="3.72" style="fill: #010101;opacity: 0.30897009963743416"/>
      <rect x="5.64" y="2.32" width="58.43" height="20.86" rx="3.72" style="fill: #010101;opacity: 0.31229235877417455"/>
      <rect x="5.66" y="2.34" width="58.39" height="20.83" rx="3.72" style="fill: #010101;opacity: 0.31561461791091494"/>
      <rect x="5.68" y="2.35" width="58.35" height="20.8" rx="3.72" style="fill: #010101;opacity: 0.31893687704765533"/>
      <rect x="5.71" y="2.36" width="58.31" height="20.78" rx="3.72" style="fill: #010101;opacity: 0.3222591361843957"/>
      <rect x="5.73" y="2.38" width="58.26" height="20.75" rx="3.72" style="fill: #010101;opacity: 0.3255813953211361"/>
      <rect x="5.75" y="2.39" width="58.22" height="20.72" rx="3.72" style="fill: #010101;opacity: 0.3289036544578765"/>
      <rect x="5.77" y="2.4" width="58.18" height="20.69" rx="3.72" style="fill: #010101;opacity: 0.3322259135946169"/>
      <rect x="5.79" y="2.42" width="58.14" height="20.67" rx="3.72" style="fill: #010101;opacity: 0.3355481727313573"/>
      <rect x="5.81" y="2.43" width="58.09" height="20.64" rx="3.72" style="fill: #010101;opacity: 0.3388704318680977"/>
      <rect x="5.83" y="2.44" width="58.05" height="20.61" rx="3.72" style="fill: #010101;opacity: 0.34219269100483807"/>
      <rect x="5.85" y="2.46" width="58.01" height="20.59" rx="3.72" style="fill: #010101;opacity: 0.34551495014157846"/>
      <rect x="5.87" y="2.47" width="57.97" height="20.56" rx="3.72" style="fill: #010101;opacity: 0.34883720927831885"/>
      <rect x="5.9" y="2.48" width="57.93" height="20.53" rx="3.72" style="fill: #010101;opacity: 0.35215946841505924"/>
      <rect x="5.92" y="2.5" width="57.88" height="20.51" rx="3.72" style="fill: #010101;opacity: 0.35548172755179963"/>
      <rect x="5.94" y="2.51" width="57.84" height="20.48" rx="3.72" style="fill: #010101;opacity: 0.35880398668854"/>
      <rect x="5.96" y="2.53" width="57.8" height="20.45" rx="3.72" style="fill: #010101;opacity: 0.3621262458252804"/>
      <rect x="5.98" y="2.54" width="57.76" height="20.42" rx="3.72" style="fill: #010101;opacity: 0.3654485049620208"/>
      <rect x="6" y="2.55" width="57.71" height="20.4" rx="3.72" style="fill: #010101;opacity: 0.3687707640987612"/>
      <rect x="6.02" y="2.57" width="57.67" height="20.37" rx="3.72" style="fill: #010101;opacity: 0.3720930232355016"/>
      <rect x="6.04" y="2.58" width="57.63" height="20.34" rx="3.72" style="fill: #010101;opacity: 0.375415282372242"/>
      <rect x="6.06" y="2.59" width="57.59" height="20.32" rx="3.72" style="fill: #010101;opacity: 0.37873754150898237"/>
      <rect x="6.09" y="2.61" width="57.55" height="20.29" rx="3.72" style="fill: #010101;opacity: 0.38205980064572276"/>
      <rect x="6.11" y="2.62" width="57.5" height="20.26" rx="3.72" style="fill: #010101;opacity: 0.38538205978246315"/>
      <rect x="6.13" y="2.63" width="57.46" height="20.23" rx="3.72" style="fill: #010101;opacity: 0.38870431891920354"/>
      <rect x="6.15" y="2.65" width="57.42" height="20.21" rx="3.72" style="fill: #010101;opacity: 0.39202657805594393"/>
      <rect x="6.17" y="2.66" width="57.38" height="20.18" rx="3.72" style="fill: #010101;opacity: 0.3953488371926843"/>
      <rect x="6.19" y="2.67" width="57.33" height="20.15" rx="3.72" style="fill: #010101;opacity: 0.3986710963294247"/>
      <rect x="6.21" y="2.69" width="57.29" height="20.13" rx="3.72" style="fill: #010101;opacity: 0.4019933554661651"/>
      <rect x="6.23" y="2.7" width="57.25" height="20.1" rx="3.72" style="fill: #010101;opacity: 0.4053156146029055"/>
      <rect x="6.25" y="2.72" width="57.21" height="20.07" rx="3.72" style="fill: #010101;opacity: 0.4086378737396459"/>
      <rect x="6.28" y="2.73" width="57.17" height="20.04" rx="3.72" style="fill: #010101;opacity: 0.4119601328763863"/>
      <rect x="6.3" y="2.74" width="57.12" height="20.02" rx="3.72" style="fill: #010101;opacity: 0.41528239201312667"/>
      <rect x="6.32" y="2.76" width="57.08" height="19.99" rx="3.72" style="fill: #010101;opacity: 0.41860465114986706"/>
      <rect x="6.34" y="2.77" width="57.04" height="19.96" rx="3.72" style="fill: #010101;opacity: 0.42192691028660745"/>
      <rect x="6.36" y="2.78" width="57" height="19.94" rx="3.72" style="fill: #010101;opacity: 0.42524916942334784"/>
      <rect x="6.38" y="2.8" width="56.95" height="19.91" rx="3.72" style="fill: #010101;opacity: 0.42857142856008823"/>
      <rect x="6.4" y="2.81" width="56.91" height="19.88" rx="3.72" style="fill: #010101;opacity: 0.4318936876968286"/>
      <rect x="6.42" y="2.82" width="56.87" height="19.85" rx="3.72" style="fill: #010101;opacity: 0.435215946833569"/>
      <rect x="6.44" y="2.84" width="56.83" height="19.83" rx="3.72" style="fill: #010101;opacity: 0.4385382059703094"/>
      <rect x="6.47" y="2.85" width="56.79" height="19.8" rx="3.72" style="fill: #010101;opacity: 0.4418604651070498"/>
      <rect x="6.49" y="2.86" width="56.74" height="19.77" rx="3.72" style="fill: #010101;opacity: 0.4451827242437902"/>
      <rect x="6.51" y="2.88" width="56.7" height="19.75" rx="3.72" style="fill: #010101;opacity: 0.4485049833805306"/>
      <rect x="6.53" y="2.89" width="56.66" height="19.72" rx="3.72" style="fill: #010101;opacity: 0.45182724251727097"/>
      <rect x="6.55" y="2.91" width="56.62" height="19.69" rx="3.72" style="fill: #010101;opacity: 0.45514950165401136"/>
      <rect x="6.57" y="2.92" width="56.57" height="19.66" rx="3.72" style="fill: #010101;opacity: 0.45847176079075175"/>
      <rect x="6.59" y="2.93" width="56.53" height="19.64" rx="3.72" style="fill: #010101;opacity: 0.46179401992749214"/>
      <rect x="6.61" y="2.95" width="56.49" height="19.61" rx="3.72" style="fill: #010101;opacity: 0.46511627906423253"/>
      <rect x="6.63" y="2.96" width="56.45" height="19.58" rx="3.72" style="fill: #010101;opacity: 0.4684385382009729"/>
      <rect x="6.66" y="2.97" width="56.41" height="19.56" rx="3.72" style="fill: #010101;opacity: 0.4717607973377133"/>
      <rect x="6.68" y="2.99" width="56.36" height="19.53" rx="3.72" style="fill: #010101;opacity: 0.4750830564744537"/>
      <rect x="6.7" y="3" width="56.32" height="19.5" rx="3.72" style="fill: #010101;opacity: 0.4784053156111941"/>
      <rect x="6.72" y="3.01" width="56.28" height="19.47" rx="3.72" style="fill: #010101;opacity: 0.4817275747479345"/>
      <rect x="6.74" y="3.03" width="56.24" height="19.45" rx="3.72" style="fill: #010101;opacity: 0.4850498338846749"/>
      <rect x="6.76" y="3.04" width="56.19" height="19.42" rx="3.72" style="fill: #010101;opacity: 0.48837209302141527"/>
      <rect x="6.78" y="3.05" width="56.15" height="19.39" rx="3.72" style="fill: #010101;opacity: 0.49169435215815566"/>
      <rect x="6.8" y="3.07" width="56.11" height="19.37" rx="3.72" style="fill: #010101;opacity: 0.49501661129489605"/>
      <rect x="6.82" y="3.08" width="56.07" height="19.34" rx="3.72" style="fill: #010101;opacity: 0.49833887043163644"/>
      <rect x="6.85" y="3.09" width="56.03" height="19.31" rx="3.72" style="fill: #010101;opacity: 0.5016611295683768"/>
      <rect x="6.87" y="3.11" width="55.98" height="19.28" rx="3.72" style="fill: #010101;opacity: 0.5049833887051172"/>
      <rect x="6.89" y="3.12" width="55.94" height="19.26" rx="3.72" style="fill: #010101;opacity: 0.5083056478418575"/>
      <rect x="6.91" y="3.14" width="55.9" height="19.23" rx="3.72" style="fill: #010101;opacity: 0.5116279069785978"/>
      <rect x="6.93" y="3.15" width="55.86" height="19.2" rx="3.72" style="fill: #010101;opacity: 0.5149501661153382"/>
      <rect x="6.95" y="3.16" width="55.81" height="19.18" rx="3.72" style="fill: #010101;opacity: 0.5182724252520785"/>
      <rect x="6.97" y="3.18" width="55.77" height="19.15" rx="3.72" style="fill: #010101;opacity: 0.5215946843888188"/>
      <rect x="6.99" y="3.19" width="55.73" height="19.12" rx="3.72" style="fill: #010101;opacity: 0.5249169435255592"/>
      <rect x="7.01" y="3.2" width="55.69" height="19.09" rx="3.72" style="fill: #010101;opacity: 0.5282392026622995"/>
      <rect x="7.04" y="3.22" width="55.65" height="19.07" rx="3.72" style="fill: #010101;opacity: 0.5315614617990398"/>
      <rect x="7.06" y="3.23" width="55.6" height="19.04" rx="3.72" style="fill: #010101;opacity: 0.5348837209357802"/>
      <rect x="7.08" y="3.24" width="55.56" height="19.01" rx="3.72" style="fill: #010101;opacity: 0.5382059800725205"/>
      <rect x="7.1" y="3.26" width="55.52" height="18.99" rx="3.72" style="fill: #010101;opacity: 0.5415282392092609"/>
      <rect x="7.12" y="3.27" width="55.48" height="18.96" rx="3.72" style="fill: #010101;opacity: 0.5448504983460012"/>
      <rect x="7.14" y="3.28" width="55.43" height="18.93" rx="3.72" style="fill: #010101;opacity: 0.5481727574827415"/>
      <rect x="7.16" y="3.3" width="55.39" height="18.9" rx="3.72" style="fill: #010101;opacity: 0.5514950166194819"/>
      <rect x="7.18" y="3.31" width="55.35" height="18.88" rx="3.72" style="fill: #010101;opacity: 0.5548172757562222"/>
      <rect x="7.2" y="3.33" width="55.31" height="18.85" rx="3.72" style="fill: #010101;opacity: 0.5581395348929625"/>
      <rect x="7.23" y="3.34" width="55.27" height="18.82" rx="3.72" style="fill: #010101;opacity: 0.5614617940297029"/>
      <rect x="7.25" y="3.35" width="55.22" height="18.8" rx="3.72" style="fill: #010101;opacity: 0.5647840531664432"/>
      <rect x="7.27" y="3.37" width="55.18" height="18.77" rx="3.72" style="fill: #010101;opacity: 0.5681063123031835"/>
      <rect x="7.29" y="3.38" width="55.14" height="18.74" rx="3.72" style="fill: #010101;opacity: 0.5714285714399239"/>
      <rect x="7.31" y="3.39" width="55.1" height="18.72" rx="3.72" style="fill: #010101;opacity: 0.5747508305766642"/>
      <rect x="7.33" y="3.41" width="55.06" height="18.69" rx="3.72" style="fill: #010101;opacity: 0.5780730897134045"/>
      <rect x="7.35" y="3.42" width="55.01" height="18.66" rx="3.72" style="fill: #010101;opacity: 0.5813953488501449"/>
      <rect x="7.37" y="3.43" width="54.97" height="18.63" rx="3.72" style="fill: #010101;opacity: 0.5847176079868852"/>
      <rect x="7.39" y="3.45" width="54.93" height="18.61" rx="3.72" style="fill: #010101;opacity: 0.5880398671236255"/>
      <rect x="7.42" y="3.46" width="54.89" height="18.58" rx="3.72" style="fill: #010101;opacity: 0.5913621262603659"/>
      <rect x="7.44" y="3.47" width="54.84" height="18.55" rx="3.72" style="fill: #010101;opacity: 0.5946843853971062"/>
      <rect x="7.46" y="3.49" width="54.8" height="18.53" rx="3.72" style="fill: #010101;opacity: 0.5980066445338466"/>
      <rect x="7.48" y="3.5" width="54.76" height="18.5" rx="3.72" style="fill: #010101;opacity: 0.6013289036705869"/>
      <rect x="7.5" y="3.52" width="54.72" height="18.47" rx="3.72" style="fill: #010101;opacity: 0.6046511628073272"/>
      <rect x="7.52" y="3.53" width="54.68" height="18.44" rx="3.72" style="fill: #010101;opacity: 0.6079734219440676"/>
      <rect x="7.54" y="3.54" width="54.63" height="18.42" rx="3.72" style="fill: #010101;opacity: 0.6112956810808079"/>
      <rect x="7.56" y="3.56" width="54.59" height="18.39" rx="3.72" style="fill: #010101;opacity: 0.6146179402175482"/>
      <rect x="7.58" y="3.57" width="54.55" height="18.36" rx="3.72" style="fill: #010101;opacity: 0.6179401993542886"/>
      <rect x="7.61" y="3.58" width="54.51" height="18.34" rx="3.72" style="fill: #010101;opacity: 0.6212624584910289"/>
      <rect x="7.63" y="3.6" width="54.46" height="18.31" rx="3.72" style="fill: #010101;opacity: 0.6245847176277692"/>
      <rect x="7.65" y="3.61" width="54.42" height="18.28" rx="3.72" style="fill: #010101;opacity: 0.6279069767645096"/>
      <rect x="7.67" y="3.62" width="54.38" height="18.25" rx="3.72" style="fill: #010101;opacity: 0.6312292359012499"/>
      <rect x="7.69" y="3.64" width="54.34" height="18.23" rx="3.72" style="fill: #010101;opacity: 0.6345514950379902"/>
      <rect x="7.71" y="3.65" width="54.3" height="18.2" rx="3.72" style="fill: #010101;opacity: 0.6378737541747306"/>
      <rect x="7.73" y="3.66" width="54.25" height="18.17" rx="3.72" style="fill: #010101;opacity: 0.6411960133114709"/>
      <rect x="7.75" y="3.68" width="54.21" height="18.15" rx="3.72" style="fill: #010101;opacity: 0.6445182724482112"/>
      <rect x="7.77" y="3.69" width="54.17" height="18.12" rx="3.72" style="fill: #010101;opacity: 0.6478405315849516"/>
      <rect x="7.8" y="3.71" width="54.13" height="18.09" rx="3.72" style="fill: #010101;opacity: 0.6511627907216919"/>
      <rect x="7.82" y="3.72" width="54.08" height="18.06" rx="3.72" style="fill: #010101;opacity: 0.6544850498584323"/>
      <rect x="7.84" y="3.73" width="54.04" height="18.04" rx="3.72" style="fill: #010101;opacity: 0.6578073089951726"/>
      <rect x="7.86" y="3.75" width="54" height="18.01" rx="3.72" style="fill: #010101;opacity: 0.6611295681319129"/>
      <rect x="7.88" y="3.76" width="53.96" height="17.98" rx="3.72" style="fill: #010101;opacity: 0.6644518272686533"/>
      <rect x="7.9" y="3.77" width="53.92" height="17.96" rx="3.72" style="fill: #010101;opacity: 0.6677740864053936"/>
      <rect x="7.92" y="3.79" width="53.87" height="17.93" rx="3.72" style="fill: #010101;opacity: 0.6710963455421339"/>
      <rect x="7.94" y="3.8" width="53.83" height="17.9" rx="3.72" style="fill: #010101;opacity: 0.6744186046788743"/>
      <rect x="7.96" y="3.81" width="53.79" height="17.87" rx="3.72" style="fill: #010101;opacity: 0.6777408638156146"/>
      <rect x="7.98" y="3.83" width="53.75" height="17.85" rx="3.72" style="fill: #010101;opacity: 0.6810631229523549"/>
      <rect x="8.01" y="3.84" width="53.7" height="17.82" rx="3.72" style="fill: #010101;opacity: 0.6843853820890953"/>
      <rect x="8.03" y="3.85" width="53.66" height="17.79" rx="3.72" style="fill: #010101;opacity: 0.6877076412258356"/>
      <rect x="8.05" y="3.87" width="53.62" height="17.77" rx="3.72" style="fill: #010101;opacity: 0.6910299003625759"/>
      <rect x="8.07" y="3.88" width="53.58" height="17.74" rx="3.72" style="fill: #010101;opacity: 0.6943521594993163"/>
      <rect x="8.09" y="3.89" width="53.54" height="17.71" rx="3.72" style="fill: #010101;opacity: 0.6976744186360566"/>
      <rect x="8.11" y="3.91" width="53.49" height="17.68" rx="3.72" style="fill: #010101;opacity: 0.700996677772797"/>
      <rect x="8.13" y="3.92" width="53.45" height="17.66" rx="3.72" style="fill: #010101;opacity: 0.7043189369095373"/>
      <rect x="8.15" y="3.94" width="53.41" height="17.63" rx="3.72" style="fill: #010101;opacity: 0.7076411960462776"/>
      <rect x="8.17" y="3.95" width="53.37" height="17.6" rx="3.72" style="fill: #010101;opacity: 0.710963455183018"/>
      <rect x="8.2" y="3.96" width="53.32" height="17.58" rx="3.72" style="fill: #010101;opacity: 0.7142857143197583"/>
      <rect x="8.22" y="3.98" width="53.28" height="17.55" rx="3.72" style="fill: #010101;opacity: 0.7176079734564986"/>
      <rect x="8.24" y="3.99" width="53.24" height="17.52" rx="3.72" style="fill: #010101;opacity: 0.720930232593239"/>
      <rect x="8.26" y="4" width="53.2" height="17.49" rx="3.72" style="fill: #010101;opacity: 0.7242524917299793"/>
      <rect x="8.28" y="4.02" width="53.16" height="17.47" rx="3.72" style="fill: #010101;opacity: 0.7275747508667196"/>
      <rect x="8.3" y="4.03" width="53.11" height="17.44" rx="3.72" style="fill: #010101;opacity: 0.73089701000346"/>
      <rect x="8.32" y="4.04" width="53.07" height="17.41" rx="3.72" style="fill: #010101;opacity: 0.7342192691402003"/>
      <rect x="8.34" y="4.06" width="53.03" height="17.39" rx="3.72" style="fill: #010101;opacity: 0.7375415282769406"/>
      <rect x="8.36" y="4.07" width="52.99" height="17.36" rx="3.72" style="fill: #010101;opacity: 0.740863787413681"/>
      <rect x="8.39" y="4.08" width="52.94" height="17.33" rx="3.72" style="fill: #010101;opacity: 0.7441860465504213"/>
      <rect x="8.41" y="4.1" width="52.9" height="17.3" rx="3.72" style="fill: #010101;opacity: 0.7475083056871616"/>
      <rect x="8.43" y="4.11" width="52.86" height="17.28" rx="3.72" style="fill: #010101;opacity: 0.750830564823902"/>
      <rect x="8.45" y="4.13" width="52.82" height="17.25" rx="3.72" style="fill: #010101;opacity: 0.7541528239606423"/>
      <rect x="8.47" y="4.14" width="52.78" height="17.22" rx="3.72" style="fill: #010101;opacity: 0.7574750830973827"/>
      <rect x="8.49" y="4.15" width="52.73" height="17.2" rx="3.72" style="fill: #010101;opacity: 0.760797342234123"/>
      <rect x="8.51" y="4.17" width="52.69" height="17.17" rx="3.72" style="fill: #010101;opacity: 0.7641196013708633"/>
      <rect x="8.53" y="4.18" width="52.65" height="17.14" rx="3.72" style="fill: #010101;opacity: 0.7674418605076037"/>
      <rect x="8.55" y="4.19" width="52.61" height="17.11" rx="3.72" style="fill: #010101;opacity: 0.770764119644344"/>
      <rect x="8.58" y="4.21" width="52.56" height="17.09" rx="3.72" style="fill: #010101;opacity: 0.7740863787810843"/>
      <rect x="8.6" y="4.22" width="52.52" height="17.06" rx="3.72" style="fill: #010101;opacity: 0.7774086379178247"/>
      <rect x="8.62" y="4.23" width="52.48" height="17.03" rx="3.72" style="fill: #010101;opacity: 0.780730897054565"/>
      <rect x="8.64" y="4.25" width="52.44" height="17.01" rx="3.72" style="fill: #010101;opacity: 0.7840531561913053"/>
      <rect x="8.66" y="4.26" width="52.4" height="16.98" rx="3.72" style="fill: #010101;opacity: 0.7873754153280457"/>
      <rect x="8.68" y="4.27" width="52.35" height="16.95" rx="3.72" style="fill: #010101;opacity: 0.790697674464786"/>
      <rect x="8.7" y="4.29" width="52.31" height="16.93" rx="3.72" style="fill: #010101;opacity: 0.7940199336015263"/>
      <rect x="8.72" y="4.3" width="52.27" height="16.9" rx="3.72" style="fill: #010101;opacity: 0.7973421927382667"/>
      <rect x="8.74" y="4.32" width="52.23" height="16.87" rx="3.72" style="fill: #010101;opacity: 0.800664451875007"/>
      <rect x="8.77" y="4.33" width="52.18" height="16.84" rx="3.72" style="fill: #010101;opacity: 0.8039867110117473"/>
      <rect x="8.79" y="4.34" width="52.14" height="16.82" rx="3.72" style="fill: #010101;opacity: 0.8073089701484877"/>
      <rect x="8.81" y="4.36" width="52.1" height="16.79" rx="3.72" style="fill: #010101;opacity: 0.810631229285228"/>
      <rect x="8.83" y="4.37" width="52.06" height="16.76" rx="3.72" style="fill: #010101;opacity: 0.8139534884219684"/>
      <rect x="8.85" y="4.38" width="52.02" height="16.74" rx="3.72" style="fill: #010101;opacity: 0.8172757475587087"/>
      <rect x="8.87" y="4.4" width="51.97" height="16.71" rx="3.72" style="fill: #010101;opacity: 0.820598006695449"/>
      <rect x="8.89" y="4.41" width="51.93" height="16.68" rx="3.72" style="fill: #010101;opacity: 0.8239202658321894"/>
      <rect x="8.91" y="4.42" width="51.89" height="16.65" rx="3.72" style="fill: #010101;opacity: 0.8272425249689297"/>
      <rect x="8.93" y="4.44" width="51.85" height="16.63" rx="3.72" style="fill: #010101;opacity: 0.83056478410567"/>
      <rect x="8.96" y="4.45" width="51.8" height="16.6" rx="3.72" style="fill: #010101;opacity: 0.8338870432424104"/>
      <rect x="8.98" y="4.46" width="51.76" height="16.57" rx="3.72" style="fill: #010101;opacity: 0.8372093023791507"/>
      <rect x="9" y="4.48" width="51.72" height="16.55" rx="3.72" style="fill: #010101;opacity: 0.840531561515891"/>
      <rect x="9.02" y="4.49" width="51.68" height="16.52" rx="3.72" style="fill: #010101;opacity: 0.8438538206526314"/>
      <rect x="9.04" y="4.51" width="51.64" height="16.49" rx="3.72" style="fill: #010101;opacity: 0.8471760797893717"/>
      <rect x="9.06" y="4.52" width="51.59" height="16.46" rx="3.72" style="fill: #010101;opacity: 0.850498338926112"/>
      <rect x="9.08" y="4.53" width="51.55" height="16.44" rx="3.72" style="fill: #010101;opacity: 0.8538205980628524"/>
      <rect x="9.1" y="4.55" width="51.51" height="16.41" rx="3.72" style="fill: #010101;opacity: 0.8571428571995927"/>
      <rect x="9.12" y="4.56" width="51.47" height="16.38" rx="3.72" style="fill: #010101;opacity: 0.860465116336333"/>
      <rect x="9.15" y="4.57" width="51.42" height="16.36" rx="3.72" style="fill: #010101;opacity: 0.8637873754730734"/>
      <rect x="9.17" y="4.59" width="51.38" height="16.33" rx="3.72" style="fill: #010101;opacity: 0.8671096346098137"/>
      <rect x="9.19" y="4.6" width="51.34" height="16.3" rx="3.72" style="fill: #010101;opacity: 0.870431893746554"/>
      <rect x="9.21" y="4.61" width="51.3" height="16.27" rx="3.72" style="fill: #010101;opacity: 0.8737541528832944"/>
      <rect x="9.23" y="4.63" width="51.26" height="16.25" rx="3.72" style="fill: #010101;opacity: 0.8770764120200347"/>
      <rect x="9.25" y="4.64" width="51.21" height="16.22" rx="3.72" style="fill: #010101;opacity: 0.8803986711567751"/>
      <rect x="9.27" y="4.65" width="51.17" height="16.19" rx="3.72" style="fill: #010101;opacity: 0.8837209302935154"/>
      <rect x="9.29" y="4.67" width="51.13" height="16.17" rx="3.72" style="fill: #010101;opacity: 0.8870431894302557"/>
      <rect x="9.31" y="4.68" width="51.09" height="16.14" rx="3.72" style="fill: #010101;opacity: 0.8903654485669961"/>
      <rect x="9.34" y="4.7" width="51.05" height="16.11" rx="3.72" style="fill: #010101;opacity: 0.8936877077037364"/>
      <rect x="9.36" y="4.71" width="51" height="16.08" rx="3.72" style="fill: #010101;opacity: 0.8970099668404767"/>
      <rect x="9.38" y="4.72" width="50.96" height="16.06" rx="3.72" style="fill: #010101;opacity: 0.9003322259772171"/>
      <rect x="9.4" y="4.74" width="50.92" height="16.03" rx="3.72" style="fill: #010101;opacity: 0.9036544851139574"/>
      <rect x="9.42" y="4.75" width="50.88" height="16" rx="3.72" style="fill: #010101;opacity: 0.9069767442506977"/>
      <rect x="9.44" y="4.76" width="50.83" height="15.98" rx="3.72" style="fill: #010101;opacity: 0.9102990033874381"/>
      <rect x="9.46" y="4.78" width="50.79" height="15.95" rx="3.72" style="fill: #010101;opacity: 0.9136212625241784"/>
      <rect x="9.48" y="4.79" width="50.75" height="15.92" rx="3.72" style="fill: #010101;opacity: 0.9169435216609187"/>
      <rect x="9.5" y="4.8" width="50.71" height="15.89" rx="3.72" style="fill: #010101;opacity: 0.9202657807976591"/>
      <rect x="9.53" y="4.82" width="50.67" height="15.87" rx="3.72" style="fill: #010101;opacity: 0.9235880399343994"/>
      <rect x="9.55" y="4.83" width="50.62" height="15.84" rx="3.72" style="fill: #010101;opacity: 0.9269102990711398"/>
      <rect x="9.57" y="4.84" width="50.58" height="15.81" rx="3.72" style="fill: #010101;opacity: 0.9302325582078801"/>
      <rect x="9.59" y="4.86" width="50.54" height="15.79" rx="3.72" style="fill: #010101;opacity: 0.9335548173446204"/>
      <rect x="9.61" y="4.87" width="50.5" height="15.76" rx="3.72" style="fill: #010101;opacity: 0.9368770764813608"/>
      <rect x="9.63" y="4.88" width="50.45" height="15.73" rx="3.72" style="fill: #010101;opacity: 0.9401993356181011"/>
      <rect x="9.65" y="4.9" width="50.41" height="15.7" rx="3.72" style="fill: #010101;opacity: 0.9435215947548414"/>
      <rect x="9.67" y="4.91" width="50.37" height="15.68" rx="3.72" style="fill: #010101;opacity: 0.9468438538915818"/>
      <rect x="9.69" y="4.93" width="50.33" height="15.65" rx="3.72" style="fill: #010101;opacity: 0.9501661130283221"/>
      <rect x="9.72" y="4.94" width="50.29" height="15.62" rx="3.72" style="fill: #010101;opacity: 0.9534883721650624"/>
      <rect x="9.74" y="4.95" width="50.24" height="15.6" rx="3.72" style="fill: #010101;opacity: 0.9568106313018028"/>
      <rect x="9.76" y="4.97" width="50.2" height="15.57" rx="3.72" style="fill: #010101;opacity: 0.9601328904385431"/>
      <rect x="9.78" y="4.98" width="50.16" height="15.54" rx="3.72" style="fill: #010101;opacity: 0.9634551495752834"/>
      <rect x="9.8" y="4.99" width="50.12" height="15.51" rx="3.72" style="fill: #010101;opacity: 0.9667774087120238"/>
      <rect x="9.82" y="5.01" width="50.07" height="15.49" rx="3.72" style="fill: #010101;opacity: 0.9700996678487641"/>
      <rect x="9.84" y="5.02" width="50.03" height="15.46" rx="3.72" style="fill: #010101;opacity: 0.9734219269855044"/>
      <rect x="9.86" y="5.03" width="49.99" height="15.43" rx="3.72" style="fill: #010101;opacity: 0.9767441861222448"/>
      <rect x="9.88" y="5.05" width="49.95" height="15.41" rx="3.72" style="fill: #010101;opacity: 0.9800664452589851"/>
      <rect x="9.91" y="5.06" width="49.91" height="15.38" rx="3.72" style="fill: #010101;opacity: 0.9833887043957255"/>
      <rect x="9.93" y="5.07" width="49.86" height="15.35" rx="3.72" style="fill: #010101;opacity: 0.9867109635324658"/>
      <rect x="9.95" y="5.09" width="49.82" height="15.32" rx="3.72" style="fill: #010101;opacity: 0.9900332226692061"/>
      <rect x="9.97" y="5.1" width="49.78" height="15.3" rx="3.72" style="fill: #010101;opacity: 0.9933554818059465"/>
      <rect x="9.99" y="5.12" width="49.74" height="15.27" rx="3.72" style="fill: #010101;opacity: 0.9966777409426868"/>
      <rect x="10.01" y="5.13" width="49.69" height="15.24" rx="3.72" style="fill: #010101"/>
    </g>
    <rect width="64.16" height="21.88" rx="3.72" style="fill: #c0ddde"/>
    <g>
      <path d="M844.91,436.42a13,13,0,0,1,2.15-.17,3.88,3.88,0,0,1,2.3.51,1.72,1.72,0,0,1,.84,1.52,1.86,1.86,0,0,1-1.34,1.73v0a2,2,0,0,1,1.63,2,2.11,2.11,0,0,1-.77,1.66,4.5,4.5,0,0,1-3,.75,13.86,13.86,0,0,1-1.81-.11Zm1.46,3.19h.75c1,0,1.6-.48,1.6-1.16s-.58-1.12-1.51-1.12a4.55,4.55,0,0,0-.84.06Zm0,3.69a4.19,4.19,0,0,0,.78,0c.94,0,1.79-.35,1.79-1.35s-.82-1.32-1.84-1.32h-.73Z" transform="translate(-826.8 -428.11)" style="fill: #3065a2"/>
      <path d="M853.42,442.08l-.7,2.29H851.2l2.59-8.06h1.87l2.62,8.06H856.7l-.72-2.29Zm2.3-1.11-.63-2c-.16-.49-.29-1-.41-1.5h0c-.12.46-.24,1-.38,1.5l-.63,2Z" transform="translate(-826.8 -428.11)" style="fill: #3065a2"/>
      <path d="M864.93,444.13a5.24,5.24,0,0,1-2.09.36,3.8,3.8,0,0,1-4.11-4.06,4,4,0,0,1,4.31-4.24,4.74,4.74,0,0,1,2,.34l-.31,1.17a4.08,4.08,0,0,0-1.58-.31,2.68,2.68,0,0,0-2.82,3,2.64,2.64,0,0,0,2.81,2.9,4.36,4.36,0,0,0,1.6-.29Z" transform="translate(-826.8 -428.11)" style="fill: #3065a2"/>
      <path d="M866.19,436.31h1.46V440h0c.19-.31.4-.59.59-.87l2.12-2.83h1.8l-2.77,3.43,3,4.63h-1.72l-2.27-3.7-.73.86v2.84h-1.46Z" transform="translate(-826.8 -428.11)" style="fill: #3065a2"/>
    </g>
  </g>
</svg>
