<?xml version="1.0" encoding="utf-8"?>
<!-- Generator: Adobe Illustrator 25.4.1, SVG Export Plug-In . SVG Version: 6.00 Build 0)  -->
<svg version="1.1" id="Layer_1" xmlns="http://www.w3.org/2000/svg" xmlns:xlink="http://www.w3.org/1999/xlink" x="0px" y="0px"
	 width="364.46px" height="110.04px" viewBox="0 0 364.46 110.04" style="enable-background:new 0 0 364.46 110.04;"
	 xml:space="preserve">
<g>
	<path style="fill:#FFFFFF;" d="M94.41,27.42H73.19V3.3c0-1.82-1.48-3.3-3.3-3.3s-3.3,1.48-3.3,3.3v24.12H48.2
		c-0.35-1.45-1.65-2.53-3.2-2.53c-12.27,0-22.25,10.32-22.25,23s9.98,23,22.25,23c1.55,0,2.85-1.08,3.2-2.53H66.6v23.67
		c0,1.82,1.48,3.3,3.3,3.3s3.3-1.48,3.3-3.3V68.37h21.22c11.08,0,20.1-9.01,20.1-20.09v-0.76C114.51,36.43,105.49,27.42,94.41,27.42
		z M48.2,66.83c-0.35-1.45-1.65-2.53-3.2-2.53c-8.63,0-15.66-7.36-15.66-16.41s7.02-16.41,15.66-16.41c1.55,0,2.85-1.08,3.2-2.53
		H66.6v37.87H48.2z M112.97,48.27c0,10.23-8.33,18.56-18.56,18.56H73.19V28.96h21.22c10.23,0,18.56,8.33,18.56,18.56V48.27z"/>
	<path style="fill:#FFFFFF;" d="M216.9,28.57c-1.55,0-2.85,1.08-3.2,2.53h-7.19v-16c0-0.28-0.04-0.54-0.11-0.8h28.01v-1.54h-28.87
		c-0.6-0.59-1.42-0.96-2.33-0.96h-0.35c-0.91,0-1.73,0.37-2.33,0.96h-19.26c-0.6-0.59-1.42-0.96-2.33-0.96h-0.35
		c-0.91,0-1.73,0.37-2.33,0.96h-28.52v1.54h27.66c-0.06,0.26-0.11,0.52-0.11,0.8c0,0.51,0.12,1.02,0.35,1.47V31.1h-9.27
		c-0.35-1.45-1.65-2.53-3.2-2.53c-11.47,0-20.8,9.33-20.8,20.8v18.86c0,11.47,9.33,20.8,20.8,20.8c1.55,0,2.85-1.08,3.2-2.53h47.32
		c0.35,1.45,1.65,2.53,3.2,2.53c11.47,0,20.8-9.33,20.8-20.8V49.37C237.7,37.9,228.37,28.57,216.9,28.57z M182.14,14.3h17.54
		c-0.06,0.26-0.11,0.52-0.11,0.8c0,0.51,0.12,1.02,0.35,1.47V31.1h-17.67v-16C182.25,14.82,182.2,14.55,182.14,14.3z M178.95,60.33
		c1.82,0,3.3-1.48,3.3-3.3v-24.4h17.67v24.4c0,1.82,1.48,3.3,3.3,3.3s3.3-1.48,3.3-3.3v-24.4h7.19c0.35,1.45,1.65,2.53,3.2,2.53
		c7.83,0,14.21,6.37,14.21,14.21v18.86c0,7.83-6.37,14.21-14.21,14.21c-1.55,0-2.85,1.08-3.2,2.53h-47.32
		c-0.35-1.45-1.65-2.53-3.2-2.53c-7.83,0-14.21-6.37-14.21-14.21V49.37c0-7.83,6.37-14.21,14.21-14.21c1.55,0,2.85-1.08,3.2-2.53
		h9.27v24.4C175.65,58.85,177.13,60.33,178.95,60.33z"/>
	<path style="fill:#FFFFFF;" d="M328.74,50.09c-2.18,0-4.27,0.45-6.16,1.24c-5.69,2.41-9.68,8.04-9.68,14.6
		c0,8.19,6.23,14.95,14.23,15.77c0.52,0.05,1.07,0.07,1.61,0.07c8.74,0,15.84-7.1,15.84-15.84
		C344.58,57.19,337.48,50.09,328.74,50.09z M328.74,75.54c-5.29,0-9.61-4.3-9.61-9.61c0-5.29,4.32-9.61,9.61-9.61
		c5.31,0,9.61,4.32,9.61,9.61C338.35,71.24,334.05,75.54,328.74,75.54z"/>
	<ellipse style="fill:#FFFFFF;" cx="293.24" cy="65.93" rx="12.61" ry="12.49"/>
	<path style="fill:#FFFFFF;" d="M316.82,49.44c6.73-2.86,11.47-9.51,11.47-17.23c0-10.3-8.42-18.69-18.77-18.69
		c-10.35,0-18.77,8.39-18.77,18.69s8.42,18.7,18.77,18.7C312.1,50.91,314.59,50.39,316.82,49.44z M293.86,32.21
		c0-8.59,7.03-15.57,15.67-15.57c8.64,0,15.64,6.98,15.64,15.57s-7,15.57-15.64,15.57C300.88,47.78,293.86,40.8,293.86,32.21z"/>
	<path style="fill:#FFFFFF;" d="M326.85,85.89h-30.76c-13.26,0-24.21-9.98-25.55-22.74c0.87-0.57,1.44-1.54,1.44-2.63v-28.2
		c0-12.61,10.35-22.87,23.11-22.87h14.42h15.77c1.74,0,3.13-1.39,3.13-3.1c0-1.74-1.39-3.13-3.13-3.13H295.1
		c-3.92,0-7.72,0.74-11.25,2.18c-3.53,1.44-6.75,3.58-9.51,6.31c-5.51,5.46-8.57,12.69-8.59,20.41c-0.02,0.02-0.02,0.02-0.02,0.05
		v28.35c0,1.22,0.7,2.26,1.71,2.78c0.62,6.58,3.53,12.66,8.29,17.38c5.36,5.34,12.51,8.29,20.11,8.34c0,0,0.02,0,0.05,0h30.96
		c0.87,0,1.56-0.7,1.56-1.56C328.42,86.61,327.72,85.89,326.85,85.89z"/>
</g>
<line style="fill:none;stroke:#FFFFFF;stroke-width:1.9531;stroke-miterlimit:10;" x1="0" y1="102.44" x2="364.46" y2="102.44"/>
</svg>
