<?xml version="1.0" encoding="utf-8"?>
<!-- Generator: Adobe Illustrator 25.4.1, SVG Export Plug-In . SVG Version: 6.00 Build 0)  -->
<svg version="1.1" id="Layer_1" xmlns="http://www.w3.org/2000/svg" xmlns:xlink="http://www.w3.org/1999/xlink" x="0px" y="0px"
	 width="229.53px" height="100.94px" viewBox="0 0 229.53 100.94" style="enable-background:new 0 0 229.53 100.94;"
	 xml:space="preserve">
<line style="fill:none;stroke:#FFFFFF;stroke-width:1.9531;stroke-miterlimit:10;" x1="0" y1="100.94" x2="229.53" y2="100.94"/>
<g>
	<g>
		<g>
			<path style="fill:#FFFFFF;" d="M100.38,14.12H25.02c-0.58,0-1.05-0.47-1.05-1.05s0.47-1.05,1.05-1.05h75.36
				c0.58,0,1.05,0.47,1.05,1.05S100.96,14.12,100.38,14.12z"/>
		</g>
		<g>
			<path style="fill:#FFFFFF;" d="M79.08,63.05H46.32c-7.58,0-13.75-6.17-13.75-13.75V36.97c0-7.58,6.17-13.75,13.75-13.75h32.76
				c7.58,0,13.75,6.17,13.75,13.75V49.3C92.83,56.89,86.66,63.05,79.08,63.05z M46.32,25.32c-6.43,0-11.65,5.23-11.65,11.65V49.3
				c0,6.43,5.23,11.65,11.65,11.65h32.76c6.43,0,11.65-5.23,11.65-11.65V36.97c0-6.43-5.23-11.65-11.65-11.65H46.32z"/>
		</g>
		<g>
			<path style="fill:#FFFFFF;" d="M91.78,52.97c-2.03,0-3.67-1.64-3.67-3.67V36.97c0-4.98-4.05-9.03-9.03-9.03
				c-2.03,0-3.67-1.64-3.67-3.67s1.64-3.67,3.67-3.67c9.03,0,16.38,7.35,16.38,16.38V49.3C95.45,51.33,93.81,52.97,91.78,52.97z"/>
		</g>
		<g>
			<path style="fill:#FFFFFF;" d="M33.62,52.97c-2.03,0-3.67-1.64-3.67-3.67V36.97c0-9.03,7.35-16.38,16.38-16.38
				c2.03,0,3.67,1.64,3.67,3.67s-1.64,3.67-3.67,3.67c-4.98,0-9.03,4.05-9.03,9.03V49.3C37.29,51.33,35.64,52.97,33.62,52.97z"/>
		</g>
		<g>
			<path style="fill:#FFFFFF;" d="M62.7,93.84c-2.03,0-3.67-1.64-3.67-3.67V3.67C59.03,1.64,60.67,0,62.7,0s3.67,1.64,3.67,3.67
				v86.5C66.37,92.2,64.73,93.84,62.7,93.84z"/>
		</g>
		<g>
			<path style="fill:#FFFFFF;" d="M90.46,44.19H36.33c-0.58,0-1.05-0.47-1.05-1.05s0.47-1.05,1.05-1.05h54.13
				c0.58,0,1.05,0.47,1.05,1.05S91.04,44.19,90.46,44.19z"/>
		</g>
		<g>
			<path style="fill:#FFFFFF;" d="M23.95,91.22c-0.09,0-0.15,0-0.17,0c-0.58-0.01-1.04-0.49-1.02-1.07c0.01-0.58,0.47-1,1.07-1.03
				c0.1,0,9.68,0.12,16.59-6.64c4.8-4.7,7.23-11.59,7.23-20.48c0-0.58,0.47-1.05,1.05-1.05s1.05,0.47,1.05,1.05
				c0,9.49-2.65,16.89-7.88,22C34.75,90.94,25.38,91.22,23.95,91.22z"/>
		</g>
		<g>
			<path style="fill:#FFFFFF;" d="M101.48,91.22c-1.43,0-10.8-0.27-17.91-7.22c-5.23-5.11-7.88-12.51-7.88-22
				c0-0.58,0.47-1.05,1.05-1.05s1.05,0.47,1.05,1.05c0,8.89,2.43,15.78,7.23,20.48c6.91,6.76,16.49,6.62,16.59,6.64
				c0.01,0,0.02,0,0.02,0c0.57,0,1.04,0.45,1.05,1.03c0.01,0.58-0.44,1.06-1.02,1.07C101.62,91.22,101.57,91.22,101.48,91.22z"/>
		</g>
	</g>
	<g>
		<path style="fill:#FFFFFF;" d="M193.72,50.92c-2.2,0-4.3,0.45-6.21,1.25c-5.73,2.43-9.76,8.11-9.76,14.72
			c0,8.26,6.28,15.07,14.34,15.89c0.53,0.05,1.08,0.08,1.63,0.08c8.81,0,15.97-7.16,15.97-15.97
			C209.69,58.08,202.53,50.92,193.72,50.92z M193.72,76.58c-5.33,0-9.69-4.33-9.69-9.69c0-5.33,4.35-9.69,9.69-9.69
			c5.36,0,9.69,4.35,9.69,9.69C203.41,72.25,199.08,76.58,193.72,76.58z"/>
		<ellipse style="fill:#FFFFFF;" cx="157.93" cy="66.89" rx="12.71" ry="12.59"/>
		<path style="fill:#FFFFFF;" d="M181.71,50.27c6.78-2.88,11.56-9.59,11.56-17.37c0-10.39-8.48-18.85-18.92-18.85
			s-18.92,8.46-18.92,18.85s8.48,18.85,18.92,18.85C176.95,51.75,179.45,51.23,181.71,50.27z M158.56,32.9
			c0-8.66,7.08-15.69,15.79-15.69c8.71,0,15.77,7.03,15.77,15.69s-7.06,15.69-15.77,15.69C165.64,48.6,158.56,41.56,158.56,32.9z"/>
		<path style="fill:#FFFFFF;" d="M191.82,87.02h-31.01c-13.37,0-24.4-10.06-25.75-22.93c0.88-0.58,1.45-1.55,1.45-2.65V33
			c0-12.71,10.44-23.05,23.3-23.05h14.54h15.89c1.75,0,3.15-1.4,3.15-3.13c0-1.75-1.4-3.15-3.15-3.15h-30.43
			c-3.95,0-7.78,0.75-11.34,2.2c-3.55,1.45-6.81,3.6-9.59,6.36c-5.56,5.51-8.63,12.79-8.66,20.57c-0.03,0.02-0.03,0.02-0.03,0.05
			v28.58c0,1.23,0.7,2.28,1.73,2.8c0.63,6.63,3.55,12.76,8.36,17.52c5.41,5.38,12.61,8.36,20.27,8.41c0,0,0.02,0,0.05,0h31.21
			c0.88,0,1.58-0.7,1.58-1.58C193.4,87.74,192.69,87.02,191.82,87.02z"/>
	</g>
</g>
</svg>
