<svg id="Layer_1" data-name="Layer 1" xmlns="http://www.w3.org/2000/svg" width="345.09" height="104.41" viewBox="0 0 345.09 104.41">
  <g>
    <g>
      <path d="M986.57,455.78a9.69,9.69,0,1,0,9.69-9.69A9.69,9.69,0,0,0,986.57,455.78Zm-6.28,0a16,16,0,1,1,16,16c-.56,0-1.11,0-1.63-.08A16,16,0,0,1,980.29,455.78Z" transform="translate(-687.29 -388.13)" style="fill: #fff"/>
      <ellipse cx="273.18" cy="67.65" rx="12.71" ry="12.59" style="fill: #fff"/>
      <path d="M976.88,440.64a18.89,18.89,0,1,1,7.36-1.48A18.91,18.91,0,0,1,976.88,440.64Zm-15.79-18.85a15.78,15.78,0,1,0,15.79-15.69A15.75,15.75,0,0,0,961.09,421.79Z" transform="translate(-687.29 -388.13)" style="fill: #fff"/>
      <path d="M937.59,453a25.82,25.82,0,0,0,25.75,22.92h31a1.59,1.59,0,0,1,1.58,1.58,1.57,1.57,0,0,1-1.58,1.58H963.09a28.83,28.83,0,0,1-20.27-8.41,28.3,28.3,0,0,1-8.36-17.52,3.15,3.15,0,0,1-1.73-2.81V421.74s0,0,0-.05a28.84,28.84,0,0,1,8.66-20.57,29.49,29.49,0,0,1,9.58-6.36,30,30,0,0,1,11.34-2.2h30.44a3.14,3.14,0,1,1,0,6.28H962.34A23.19,23.19,0,0,0,939,421.89v28.43A3.2,3.2,0,0,1,937.59,453Z" transform="translate(-687.29 -388.13)" style="fill: #fff"/>
    </g>
    <g>
      <path d="M852,462.46l11.76.06,0-4.34a3.26,3.26,0,0,1,3.26-3.28h0a3.3,3.3,0,0,1,3.26,3.31l-.05,11.92A3.27,3.27,0,0,1,867,473.4h0a3.27,3.27,0,0,1-3.26-3.29l0-4.33-12.18-.06a3.26,3.26,0,0,1-6.13-1.59l0-11.95a3.29,3.29,0,0,1,6.57,0Z" transform="translate(-687.29 -388.13)" style="fill: #fff"/>
      <path d="M864.06,400.13a18.49,18.49,0,0,0-18.24,18.66,3.28,3.28,0,0,1-1.56,2.79l0,4.28,19.43-10.26a3.3,3.3,0,0,1,3.29.13L879.69,409A18.22,18.22,0,0,0,864.06,400.13ZM855,438.41h32a1.65,1.65,0,0,1,0,3.29H873a9.66,9.66,0,0,1,2.14,4.17h18a11,11,0,0,1,11,11,3.23,3.23,0,0,1-1.65,2.84l.06,10.78a9.36,9.36,0,0,1-9.34,9.34l0,0s0,0,0,0H871.84a1.68,1.68,0,0,1-1.65-1.64,1.66,1.66,0,0,1,1.65-1.65h21.37a6.05,6.05,0,0,0,6-6.05l0-10.78a3.23,3.23,0,0,1-1.67-2.84,4.46,4.46,0,0,0-4.46-4.46H873.43a3.27,3.27,0,0,1-3.29-3.26,3.31,3.31,0,0,1,1.72-2.9,6.34,6.34,0,0,0-6-4.56H855a14,14,0,0,1-14.06-13.94v0l.05-6.08a3.23,3.23,0,0,1-1.69-2.87,25.1,25.1,0,0,1,21.55-25v-2.4a3.28,3.28,0,0,1,6.55,0v2.4a24.83,24.83,0,0,1,21.47,24.55,3.24,3.24,0,0,1-1.51,2.77v5.06a9.39,9.39,0,0,1-9.4,9.37,1.64,1.64,0,0,1-1.62-1.65,1.66,1.66,0,0,1,1.62-1.64,6.09,6.09,0,0,0,6.11-6.08v-4.9a3.28,3.28,0,0,1-1.75-2.93,18.27,18.27,0,0,0-1.17-6.41l-12.68,6.7a3.2,3.2,0,0,1-1.75,2.77l-20.82,11c-.16.07-.32.15-.5.21A10.83,10.83,0,0,0,855,438.41Z" transform="translate(-687.29 -388.13)" style="fill: #fff"/>
      <path d="M849.5,475.17l-16.12-.05a.66.66,0,0,1-.24,0,3.32,3.32,0,0,1-2.87,1.67,3.27,3.27,0,0,1-3.26-3.29l0-12a3.29,3.29,0,0,1,6.57,0l-.05,10.28,15.94.08a1.63,1.63,0,1,1,0,3.26Z" transform="translate(-687.29 -388.13)" style="fill: #fff"/>
    </g>
    <g>
      <path d="M774.57,406.58a8.58,8.58,0,1,1,8.58,8.5A8.56,8.56,0,0,1,774.57,406.58Zm8.58-5.25a5.23,5.23,0,1,0,5.32,5.25A5.28,5.28,0,0,0,783.15,401.33Z" transform="translate(-687.29 -388.13)" style="fill: #fff"/>
      <path d="M768,460.06v5.8a3.33,3.33,0,0,1-1.3,2.63,10.77,10.77,0,0,0,10.46,8h4.31V460.06Zm0-18.31v15h13.47v-15Zm0-18.29v15h13.47v-15Zm0-3.29h13.78a3.24,3.24,0,0,1,2.82-1.62h16.75a3.28,3.28,0,1,1,0,6.55h-16.6v11.74h16.52a3.28,3.28,0,1,1,0,6.55H784.79v11.74h16.57a3.29,3.29,0,0,1,0,6.58H784.79v14.82h18.29a1.64,1.64,0,1,1,0,3.28h-25.8l0,0,0,0a14.06,14.06,0,0,1-13.75-10.93,3.33,3.33,0,0,1-2-3V409.24a20,20,0,0,1-9,2.11,1.65,1.65,0,0,1,0-3.29,16.68,16.68,0,0,0,16.75-16.59,1.65,1.65,0,0,1,3.29,0,19.79,19.79,0,0,1-4.43,12.47l-.06,4.85Z" transform="translate(-687.29 -388.13)" style="fill: #fff"/>
      <path d="M745.19,422.39a8,8,0,1,1-8-7.93A8,8,0,0,1,745.19,422.39Z" transform="translate(-687.29 -388.13)" style="fill: #fff"/>
      <path d="M731.23,461.52a5.94,5.94,0,0,0,11.87,0,5.78,5.78,0,0,0-1.2-3.52,1.64,1.64,0,0,1,2.61-2,8.93,8.93,0,0,1,1.88,5.5,9.23,9.23,0,0,1-18.45,0,8.93,8.93,0,0,1,1.88-5.5,1.63,1.63,0,1,1,2.58,2A5.75,5.75,0,0,0,731.23,461.52Z" transform="translate(-687.29 -388.13)" style="fill: #fff"/>
      <path d="M719.41,459.28a17.12,17.12,0,0,1,17.17-17.06,19.19,19.19,0,0,1,12.6,4.88,16.2,16.2,0,0,1,5.74,12.18,3.24,3.24,0,0,1-1.64,2.84v16.05a1.64,1.64,0,0,1-1.65,1.64,1.65,1.65,0,0,1-1.64-1.64V462.12a3.26,3.26,0,0,1-1.62-2.84c0-5.5-5.63-10.51-11.79-10.51A10.58,10.58,0,0,0,726,459.28a3.22,3.22,0,0,1-1.64,2.82v16.07a1.64,1.64,0,1,1-3.27,0V462.1A3.22,3.22,0,0,1,719.41,459.28Z" transform="translate(-687.29 -388.13)" style="fill: #fff"/>
      <path d="M719.36,422.34a17.83,17.83,0,0,1,7.51-14.3H714.14a1.63,1.63,0,1,1,0-3.26h19.75V391.42a3.28,3.28,0,1,1,6.55,0v15a3.28,3.28,0,0,1-6,1.88,14.44,14.44,0,1,0,17.19,14.09,1.64,1.64,0,1,1,3.27,0,17.8,17.8,0,0,1-35.59.23v-.28Z" transform="translate(-687.29 -388.13)" style="fill: #fff"/>
    </g>
  </g>
  <line y1="103.43" x2="345.09" y2="103.43" style="fill: none;stroke: #fff;stroke-miterlimit: 10;stroke-width: 1.95304844001024px"/>
</svg>
