<?xml version="1.0" encoding="utf-8"?>
<!-- Generator: Adobe Illustrator 25.4.1, SVG Export Plug-In . SVG Version: 6.00 Build 0)  -->
<svg version="1.1" id="Layer_1" xmlns="http://www.w3.org/2000/svg" xmlns:xlink="http://www.w3.org/1999/xlink" x="0px" y="0px"
	 width="461.29px" height="99.7px" viewBox="0 0 461.29 99.7" style="enable-background:new 0 0 461.29 99.7;" xml:space="preserve"
	>
<line style="fill:none;stroke:#FFFFFF;stroke-width:2;stroke-miterlimit:10;" x1="0" y1="99.7" x2="461.29" y2="99.7"/>
<g>
	<g>
		<path style="fill:#FFFFFF;" d="M425.45,49.06c-2.2,0-4.3,0.45-6.21,1.25c-5.73,2.43-9.76,8.11-9.76,14.72
			c0,8.26,6.28,15.07,14.34,15.89c0.53,0.05,1.08,0.08,1.63,0.08c8.81,0,15.97-7.16,15.97-15.97
			C441.41,56.22,434.26,49.06,425.45,49.06z M425.45,74.72c-5.33,0-9.69-4.33-9.69-9.69c0-5.33,4.35-9.69,9.69-9.69
			c5.36,0,9.69,4.35,9.69,9.69C435.13,70.39,430.8,74.72,425.45,74.72z"/>
		<ellipse style="fill:#FFFFFF;" cx="389.65" cy="65.03" rx="12.71" ry="12.59"/>
		<path style="fill:#FFFFFF;" d="M413.43,48.41c6.78-2.88,11.56-9.59,11.56-17.37c0-10.39-8.48-18.85-18.92-18.85
			s-18.92,8.46-18.92,18.85s8.48,18.85,18.92,18.85C408.68,49.89,411.18,49.36,413.43,48.41z M390.28,31.04
			c0-8.66,7.08-15.69,15.79-15.69c8.71,0,15.77,7.03,15.77,15.69s-7.06,15.69-15.77,15.69C397.36,46.74,390.28,39.7,390.28,31.04z"
			/>
		<path style="fill:#FFFFFF;" d="M423.54,85.16h-31.01c-13.37,0-24.4-10.06-25.75-22.93c0.88-0.58,1.45-1.55,1.45-2.65V31.14
			c0-12.71,10.44-23.05,23.3-23.05h14.54h15.89c1.75,0,3.15-1.4,3.15-3.13c0-1.75-1.4-3.15-3.15-3.15h-30.43
			c-3.95,0-7.78,0.75-11.34,2.2c-3.55,1.45-6.81,3.6-9.59,6.36c-5.56,5.51-8.63,12.79-8.66,20.57c-0.03,0.02-0.03,0.02-0.03,0.05
			v28.58c0,1.23,0.7,2.28,1.73,2.8c0.63,6.63,3.55,12.76,8.36,17.52c5.41,5.38,12.61,8.36,20.27,8.41c0,0,0.02,0,0.05,0h31.21
			c0.88,0,1.58-0.7,1.58-1.58C425.12,85.88,424.42,85.16,423.54,85.16z"/>
	</g>
	<path style="fill:#FFFFFF;" d="M111.22,73.19c-3.16,0-5.48-0.96-7.09-2.95c-4.09-5.05-2.96-15.69-2.18-19.36
		c0.34-1.58-0.57-3.13-2.06-3.65c-1.09-5.18-6.96-26.81-28.81-27.24V3.51c0-1.76-1.42-3.18-3.18-3.18c-1.76,0-3.18,1.42-3.18,3.18
		v14.66c-8.74,0.57-15.83,3.52-21.09,8.83c-9.32,9.41-9.3,22.68-9.29,23.24c0.02,1.74,1.44,3.14,3.18,3.14c0.01,0,0.02,0,0.02,0
		c1.75-0.01,3.16-1.44,3.16-3.2c0-0.11,0.04-11.26,7.49-18.75c4.04-4.06,9.59-6.37,16.53-6.9v61.02
		c-36.86-1.98-39.34-38.19-39.43-39.78c-0.04-0.7-0.66-1.25-1.34-1.2c-0.7,0.04-1.24,0.64-1.2,1.34
		c0.02,0.41,2.68,40.13,41.97,42.18v0.09c0,1.76,1.42,3.18,3.18,3.18c1.76,0,3.18-1.42,3.18-3.18V22.52
		c9.33,0.19,16.6,4.53,21.6,12.93c2.88,4.83,4.17,9.72,4.66,11.97c-0.79,0.43-1.4,1.17-1.6,2.12c-0.14,0.66-3.39,16.23,3.44,24.69
		c2.85,3.53,6.9,5.32,12.04,5.32c1.76,0,3.18-1.42,3.18-3.18C114.4,74.61,112.98,73.19,111.22,73.19z"/>
	<g>
		<path style="fill:#FFFFFF;" d="M161.69,42.94c-9.38,0-17.01,7.63-17.01,17.01c0,1.75,1.42,3.16,3.16,3.16
			c0.07,0,0.14-0.02,0.2-0.02v2.12c-0.73,0.69-1.12,1.72-0.95,2.79c0.11,0.71,0.46,1.32,0.95,1.78v8.01
			c-0.73,0.69-1.12,1.72-0.95,2.79c0.11,0.71,0.46,1.32,0.95,1.78v5.83c0,0.7,0.57,1.26,1.26,1.26s1.26-0.57,1.26-1.26v-4.98
			c0.05-0.01,0.1,0,0.15-0.01l13.73-2.2c1.28-0.21,2.25-1.15,2.56-2.33l5.36-0.86V88.2c0,1.75,1.42,3.16,3.16,3.16
			s3.16-1.42,3.16-3.16V59.94C178.7,50.57,171.07,42.94,161.69,42.94z M161.69,49.26c5.89,0,10.68,4.79,10.68,10.68v2.72l-5.76,0.92
			c-0.66-1.02-1.88-1.62-3.16-1.41l-12.88,2.07v-2.06c0-0.17-0.04-0.34-0.1-0.49c0.33-0.5,0.53-1.1,0.53-1.75
			C151,54.05,155.8,49.26,161.69,49.26z M166.61,76.17c-0.66-1.03-1.88-1.62-3.16-1.41l-12.88,2.07v-6.2c0.05-0.01,0.1,0,0.15-0.01
			l13.73-2.2c1.28-0.21,2.25-1.15,2.56-2.33l5.36-0.86v10.03L166.61,76.17z"/>
		<path style="fill:#FFFFFF;" d="M179.45,37h-10.08c3.37-2.45,5.58-6.42,5.58-10.89c0-0.73-0.59-1.32-1.32-1.32
			c-0.73,0-1.32,0.59-1.32,1.32c0,5.98-4.86,10.84-10.84,10.84c-5.05,0-9.3-3.48-10.49-8.17c0.9-0.56,1.5-1.54,1.5-2.68
			c0-3.8,2.37-7.05,5.71-8.37c0.52,1.03,1.58,1.74,2.81,1.74c1.75,0,3.16-1.42,3.16-3.16v-0.71c0.3-0.48,0.48-1.05,0.48-1.66
			c0-0.61-0.18-1.18-0.48-1.66V3.16c0-1.75-1.42-3.16-3.16-3.16c-1.75,0-3.16,1.42-3.16,3.16v8.08c-1.91,0.47-3.68,1.29-5.24,2.4
			h-10.34c-0.7,0-1.26,0.57-1.26,1.26s0.57,1.26,1.26,1.26h7.58c-2.29,2.68-3.68,6.14-3.68,9.93c0,1.41,0.92,2.58,2.19,2.99
			c0.74,3.23,2.63,6.01,5.23,7.9h-9.64c-0.7,0-1.26,0.57-1.26,1.26c0,0.7,0.57,1.26,1.26,1.26h16.52c0.34,0.03,0.68,0.05,1.02,0.05
			s0.68-0.03,1.02-0.05h16.96c0.7,0,1.26-0.57,1.26-1.26C180.72,37.57,180.15,37,179.45,37z"/>
		<path style="fill:#FFFFFF;" d="M222,76.56c-0.73,0-1.32,0.59-1.32,1.32c0,5.9-5.06,7.76-6,8.06h-15.3
			c-0.5-1.09-1.59-1.85-2.87-1.85c-6.73,0-7.85-3.83-8.03-4.82v-1.39l11.07-1.78c1.34-0.21,2.33-1.24,2.59-2.49l7.99-1.54
			c0.71-0.14,1.18-0.83,1.04-1.54c-0.14-0.71-0.83-1.18-1.54-1.04l-8.1,1.56c-0.68-0.88-1.8-1.38-2.99-1.19l-10.07,1.62v-5.66
			l11.07-1.78c1.33-0.21,2.33-1.24,2.59-2.49l7.99-1.54c0.71-0.14,1.18-0.83,1.04-1.54c-0.14-0.71-0.83-1.18-1.54-1.04l-8.1,1.56
			c-0.69-0.88-1.81-1.38-2.99-1.19l-10.07,1.62v-5.24l11.07-1.78c1.33-0.21,2.33-1.24,2.59-2.49l7.99-1.54
			c0.71-0.14,1.18-0.83,1.04-1.54c-0.14-0.71-0.83-1.18-1.54-1.04l-8.1,1.56c-0.69-0.88-1.81-1.38-2.99-1.19l-10.07,1.62v-7.46h11.7
			c3.82,0,5.63-3.18,6.45-5.52c0.09,0.01,0.17,0.03,0.26,0.03c1.75,0,3.16-1.42,3.16-3.16c0-4.58-1.41-8.1-4.19-10.45
			c-4.35-3.67-10.17-2.81-10.82-2.7c-1.09,0.19-1.95,0.91-2.36,1.85h-4.2v-9.63c0.21,0.16,0.47,0.28,0.75,0.28h17.08
			c0.7,0,1.26-0.57,1.26-1.26s-0.57-1.26-1.26-1.26h-17.08c-0.29,0-0.54,0.11-0.75,0.28V3.16c0-1.75-1.42-3.16-3.16-3.16
			c-1.75,0-3.16,1.42-3.16,3.16v18.46c0,1.75,1.42,3.16,3.16,3.16c1.31,0,2.43-0.8,2.91-1.93c0.06,0.01,0.11,0.03,0.16,0.03h4.29
			c0.57,1.28,1.93,2.08,3.38,1.86c0.04,0,3.57-0.53,5.73,1.32c1.28,1.1,1.93,2.98,1.93,5.6c0,0.67,0.21,1.29,0.57,1.8
			c-0.51,1.68-1.69,4.23-4.12,4.23h-11.99c-0.5-1.09-1.59-1.85-2.87-1.85c-1.75,0-3.16,1.42-3.16,3.16v40.49
			c0,0.11,0.01,0.22,0.02,0.33c0.38,3.67,3.86,10.6,14.33,10.6c1.27,0,2.37-0.76,2.87-1.85h15.49c0.11,0,0.22-0.01,0.33-0.04
			c2.81-0.73,8.12-3.9,8.12-10.65C223.32,77.15,222.73,76.56,222,76.56z"/>
	</g>
	<path style="fill:#FFFFFF;" d="M326.59,49.25c-0.71,0-1.29,0.58-1.29,1.29c0,13-3,22.38-8.93,27.86
		c-3.77,3.49-7.92,4.54-10.43,4.85V60.59l2.78,2.4c0.24,0.21,0.54,0.31,0.84,0.31c0.36,0,0.72-0.15,0.98-0.45
		c0.47-0.54,0.41-1.36-0.13-1.82l-4.47-3.86V27.51c4.86-0.34,9.11-0.29,11.51-0.22v8.76c0,1.71,1.39,3.1,3.1,3.1s3.1-1.39,3.1-3.1
		V16.83c0-1.71-1.39-3.1-3.1-3.1s-3.1,1.39-3.1,3.1v7.87c-2.45-0.09-6.66-0.14-11.51,0.19V3.1c0-1.71-1.39-3.1-3.1-3.1
		s-3.1,1.39-3.1,3.1v22.43c-8.23,1.14-16.85,3.65-21.27,8.98c-1.07-0.17-2.19,0.22-2.91,1.12c-0.33,0.41-2.29,3.1-3.68,9.29h-7.26
		V14.64c0-1.71-1.39-3.1-3.1-3.1s-3.1,1.39-3.1,3.1v30.29h-9.95c-0.71,0-1.29,0.58-1.29,1.29s0.58,1.29,1.29,1.29h9.95v36.4
		c-5.24-0.98-9.17-4.53-11.71-10.62c-2.34-5.6-2.57-11.31-2.57-11.37c-0.03-0.71-0.59-1.27-1.34-1.25
		c-0.71,0.03-1.27,0.62-1.25,1.34c0.01,0.23,0.97,22,16.87,24.52v0.05c0,1.71,1.39,3.1,3.1,3.1s3.1-1.39,3.1-3.1V47.51h6.76
		c-0.5,2.95-0.85,6.52-0.89,10.83c-0.02,1.71,1.36,3.12,3.08,3.13c0.01,0,0.02,0,0.03,0c1.7,0,3.09-1.37,3.1-3.08
		c0.04-4.53,0.46-8.11,0.99-10.89h2.68c0.93,0.13,9.5,1.59,9.5,11.06c0,8.03-7.45,10.1-11.89,10.62c-0.2,0.02-0.33,0.04-0.39,0.05
		c-0.69,0.14-1.13,0.8-1,1.49c0.11,0.62,0.67,1.06,1.29,1.06c0.07,0,0.13,0,0.2-0.02l0.21-0.03c9.01-1.06,14.17-5.86,14.17-13.19
		c0-12.13-11.74-13.63-11.85-13.64c-0.05-0.01-0.1-0.01-0.15-0.01h-2.18c0.99-3.74,2.1-5.36,2.17-5.47c0.8-1.05,0.83-2.44,0.18-3.51
		c3.88-4.52,11.58-6.74,19.11-7.8v23.66l-3.33-2.87c-0.54-0.47-1.36-0.41-1.82,0.13c-0.47,0.54-0.41,1.36,0.13,1.82l5.02,4.33v31.35
		c0,1.71,1.39,3.1,3.1,3.1s3.1-1.39,3.1-3.1v-0.71c2.86-0.3,7.69-1.43,12.13-5.53c6.51-5.99,9.81-16.02,9.81-29.8
		C327.88,49.83,327.3,49.25,326.59,49.25z"/>
</g>
</svg>
