<?xml version="1.0" encoding="utf-8"?>
<!-- Generator: Adobe Illustrator 25.4.1, SVG Export Plug-In . SVG Version: 6.00 Build 0)  -->
<svg version="1.1" id="Layer_1" xmlns="http://www.w3.org/2000/svg" xmlns:xlink="http://www.w3.org/1999/xlink" x="0px" y="0px"
	 width="354.6px" height="108.9px" viewBox="0 0 354.6 108.9" style="enable-background:new 0 0 354.6 108.9;" xml:space="preserve"
	>
<line style="fill:none;stroke:#FFFFFF;stroke-width:1.953;stroke-miterlimit:10;" x1="7.07" y1="108.9" x2="354.6" y2="108.9"/>
<g>
	<g>
		<path style="fill:#FFFFFF;" d="M32.13,20.92h28.65v6.47c0,1.61,1.3,2.91,2.91,2.91c1.61,0,2.91-1.3,2.91-2.91v-6.47h19.71v6.47
			c0,1.61,1.3,2.91,2.91,2.91s2.91-1.3,2.91-2.91v-6.47h28.58c0.8,0,1.45-0.65,1.45-1.45c0-0.8-0.65-1.45-1.45-1.45H92.13V9.69
			c0-1.61-1.3-2.91-2.91-2.91s-2.91,1.3-2.91,2.91v8.32H66.6V9.69c0-1.61-1.3-2.91-2.91-2.91c-1.61,0-2.91,1.3-2.91,2.91v8.32H32.13
			c-0.8,0-1.45,0.65-1.45,1.45C30.68,20.27,31.33,20.92,32.13,20.92z"/>
		<path style="fill:#FFFFFF;" d="M51.45,58.83c0.01-0.02,0.01-0.05,0.02-0.08c1.9-3.25,3.06-7.13,3.46-11.62
			c0.13,0.02,0.26,0.05,0.4,0.05c1.05,0,2.06-0.57,2.58-1.56c0.75-1.42,0.2-3.18-1.22-3.93l-22.6-11.86
			c-1.42-0.75-3.18-0.2-3.93,1.22c-0.75,1.42-0.2,3.18,1.22,3.93l20.74,10.89c-0.25,3.98-1.12,7.44-2.58,10.34l-16.75-8.6
			c-0.72-0.37-1.59-0.09-1.96,0.63c-0.37,0.71-0.09,1.59,0.63,1.96l16.57,8.51c-0.61,0.86-1.27,1.68-2.01,2.42
			c-5.79,5.7-13.78,5.65-13.86,5.63c-0.8,0.05-1.46,0.62-1.48,1.42c-0.02,0.8,0.62,1.47,1.42,1.48c0.02,0,0.06,0,0.12,0
			c1.15,0,9.46-0.22,15.81-6.44c1.29-1.26,2.39-2.7,3.33-4.26C51.39,58.92,51.43,58.88,51.45,58.83z"/>
		<path style="fill:#FFFFFF;" d="M121.34,34.99c1.42-0.75,1.97-2.5,1.22-3.93c-0.75-1.42-2.51-1.97-3.93-1.22L96.04,41.7
			c-1.42,0.75-1.97,2.5-1.22,3.93c0.52,0.99,1.53,1.56,2.58,1.56c0.13,0,0.26-0.03,0.4-0.05c0.41,4.49,1.57,8.37,3.46,11.62
			c0.01,0.02,0.01,0.05,0.02,0.07c0.02,0.05,0.06,0.08,0.09,0.13c0.94,1.57,2.04,3.01,3.33,4.27c6.34,6.22,14.66,6.44,15.81,6.44
			c0.06,0,0.1,0,0.12,0c0.8-0.02,1.44-0.68,1.42-1.48c-0.01-0.8-0.67-1.44-1.48-1.43c-0.08-0.02-8.07,0.07-13.86-5.63
			c-0.75-0.73-1.4-1.55-2.01-2.41l16.57-8.51c0.71-0.37,1-1.24,0.63-1.96c-0.37-0.71-1.24-1-1.96-0.63l-16.75,8.6
			c-1.46-2.91-2.33-6.36-2.58-10.34L121.34,34.99z"/>
		<path style="fill:#FFFFFF;" d="M99.06,69.07c0.8,0,1.45-0.65,1.45-1.45c0-0.8-0.65-1.45-1.45-1.45H72.75l12.01-19.05h4.81
			c1.61,0,2.91-1.3,2.91-2.91s-1.3-2.91-2.91-2.91H64.05c-1.61,0-2.91,1.3-2.91,2.91s1.3,2.91,2.91,2.91h17.27L69.31,66.16H53.66
			c-0.8,0-1.45,0.65-1.45,1.45c0,0.8,0.65,1.45,1.45,1.45h13.81L48.42,99.29c-0.43,0.68-0.23,1.58,0.45,2.01
			c0.24,0.15,0.51,0.22,0.77,0.22c0.48,0,0.96-0.24,1.23-0.68l20.04-31.78H99.06z"/>
		<path style="fill:#FFFFFF;" d="M85.05,76.24c-1.03-1.23-2.87-1.39-4.1-0.36c-1.23,1.03-1.39,2.87-0.35,4.1l18.46,21.96
			c0.58,0.68,1.4,1.04,2.23,1.04c0.66,0,1.33-0.22,1.87-0.68c1.23-1.03,1.39-2.87,0.35-4.1L85.05,76.24z"/>
	</g>
	<g>
		<path style="fill:#FFFFFF;" d="M232.22,38.06h-39.99v-8.9h15.39c0.75,0,1.36-0.61,1.36-1.36s-0.61-1.36-1.36-1.36h-15.39v-8.9
			h15.39c0.75,0,1.36-0.61,1.36-1.36s-0.61-1.36-1.36-1.36h-15.39v-2.13c0-1.5-1.22-2.72-2.72-2.72s-2.72,1.22-2.72,2.72v2.13
			h-16.07c-0.75,0-1.36,0.61-1.36,1.36s0.61,1.36,1.36,1.36h16.07v8.9h-16.07c-0.75,0-1.36,0.61-1.36,1.36s0.61,1.36,1.36,1.36
			h16.07v8.9H146.8c-0.75,0-1.36,0.61-1.36,1.36s0.61,1.36,1.36,1.36h85.42c0.75,0,1.36-0.61,1.36-1.36S232.97,38.06,232.22,38.06z"
			/>
		<path style="fill:#FFFFFF;" d="M199.37,45.18c-6.69-3.43-14.57-3.1-21.09,0.88c-6.79,4.15-10.85,11.35-10.85,19.25v0.06
			c0,1,0.55,1.86,1.36,2.32v29.39c0,0.75,0.61,1.36,1.36,1.36c0.75,0,1.36-0.61,1.36-1.36V89.6c0.32,0.13,0.66,0.22,1.01,0.22
			c0.42,0,0.84-0.1,1.24-0.3l17.61-9.02c0.88-0.45,1.39-1.31,1.46-2.22l13.19-6.39v25.19c0,1.5,1.22,2.72,2.72,2.72
			s2.72-1.22,2.72-2.72V66.81c0-4.65-1.19-9.27-3.43-13.34C206.11,49.96,203.11,47.1,199.37,45.18z M172.88,65.31
			c0-6,3.08-11.46,8.24-14.61c4.96-3.03,10.71-3.28,15.77-0.68c2.77,1.42,4.98,3.52,6.38,6.07c0.27,0.49,0.52,0.99,0.75,1.5
			c-0.17,0.01-0.33,0.05-0.49,0.12l-11.88,5.75c-0.8-0.54-1.84-0.64-2.76-0.18l-17.38,8.9v-4.52
			C172.33,67.2,172.88,66.32,172.88,65.31z M191.65,75.83c-0.8-0.54-1.84-0.64-2.75-0.18l-17.38,8.9v-7.32
			c0.32,0.13,0.66,0.22,1.01,0.22c0.42,0,0.84-0.1,1.24-0.3l17.61-9.02c0.87-0.45,1.39-1.31,1.46-2.22l11.87-5.75
			c0.09-0.05,0.16-0.12,0.24-0.18c0.71,2.2,1.08,4.5,1.08,6.82v2.06L191.65,75.83z"/>
	</g>
	<g>
		<path style="fill:#FFFFFF;" d="M318.58,58.89c-2.2,0-4.3,0.45-6.21,1.25c-5.73,2.43-9.76,8.11-9.76,14.72
			c0,8.26,6.28,15.07,14.34,15.89c0.53,0.05,1.08,0.07,1.63,0.07c8.81,0,15.97-7.16,15.97-15.97
			C334.55,66.05,327.39,58.89,318.58,58.89z M318.58,84.54c-5.33,0-9.69-4.33-9.69-9.69c0-5.33,4.35-9.69,9.69-9.69
			c5.36,0,9.69,4.35,9.69,9.69C328.26,80.21,323.93,84.54,318.58,84.54z"/>
		<ellipse style="fill:#FFFFFF;" cx="282.79" cy="74.86" rx="12.71" ry="12.59"/>
		<path style="fill:#FFFFFF;" d="M306.56,58.24c6.78-2.88,11.56-9.59,11.56-17.37c0-10.39-8.48-18.85-18.92-18.85
			s-18.92,8.46-18.92,18.85s8.48,18.85,18.92,18.85C301.81,59.71,304.31,59.19,306.56,58.24z M283.41,40.87
			c0-8.66,7.08-15.69,15.79-15.69c8.71,0,15.77,7.03,15.77,15.69s-7.06,15.69-15.77,15.69C290.5,56.56,283.41,49.53,283.41,40.87z"
			/>
		<path style="fill:#FFFFFF;" d="M316.68,94.98h-31.01c-13.37,0-24.4-10.06-25.75-22.93c0.88-0.58,1.45-1.55,1.45-2.65V40.97
			c0-12.71,10.44-23.05,23.3-23.05h14.54h15.89c1.75,0,3.15-1.4,3.15-3.13c0-1.75-1.4-3.15-3.15-3.15h-30.43
			c-3.95,0-7.78,0.75-11.34,2.2c-3.55,1.45-6.81,3.6-9.59,6.36c-5.56,5.51-8.63,12.79-8.66,20.57c-0.03,0.02-0.03,0.02-0.03,0.05
			V69.4c0,1.23,0.7,2.28,1.73,2.8c0.63,6.63,3.55,12.76,8.36,17.52c5.41,5.38,12.61,8.36,20.27,8.41c0,0,0.03,0,0.05,0h31.21
			c0.88,0,1.58-0.7,1.58-1.58C318.25,95.7,317.55,94.98,316.68,94.98z"/>
	</g>
</g>
</svg>
