<?xml version="1.0" encoding="utf-8"?>
<!-- Generator: Adobe Illustrator 25.4.1, SVG Export Plug-In . SVG Version: 6.00 Build 0)  -->
<svg version="1.1" id="Layer_1" xmlns="http://www.w3.org/2000/svg" xmlns:xlink="http://www.w3.org/1999/xlink" x="0px" y="0px"
	 width="332.59px" height="111.64px" viewBox="0 0 332.59 111.64" style="enable-background:new 0 0 332.59 111.64;"
	 xml:space="preserve">
<line style="fill:none;stroke:#FFFFFF;stroke-width:1.953;stroke-miterlimit:10;" x1="0" y1="102.04" x2="332.59" y2="102.04"/>
<g>
	<g>
		<path style="fill:#FFFFFF;" d="M34.96,15.29c-1.59,0-2.87-1.29-2.87-2.87V2.87c0-1.59,1.29-2.87,2.87-2.87s2.87,1.29,2.87,2.87
			v9.54C37.83,14,36.55,15.29,34.96,15.29z"/>
	</g>
	<g>
		<path style="fill:#FFFFFF;" d="M52.34,15.29c-1.59,0-2.87-1.29-2.87-2.87V2.87c0-1.59,1.29-2.87,2.87-2.87s2.87,1.29,2.87,2.87
			v9.54C55.21,14,53.92,15.29,52.34,15.29z"/>
	</g>
	<g>
		<path style="fill:#FFFFFF;" d="M62.95,8.6H25.21c-0.53,0-0.96-0.43-0.96-0.96s0.43-0.96,0.96-0.96h37.74
			c0.53,0,0.96,0.43,0.96,0.96S63.48,8.6,62.95,8.6z"/>
	</g>
	<g>
		<path style="fill:#FFFFFF;" d="M34.39,38.42c-5.61,0-10.18-4.57-10.18-10.18s4.57-10.18,10.18-10.18s10.18,4.57,10.18,10.18
			S40,38.42,34.39,38.42z M34.39,20.06c-4.51,0-8.18,3.67-8.18,8.18s3.67,8.18,8.18,8.18s8.18-3.67,8.18-8.18
			S38.9,20.06,34.39,20.06z"/>
	</g>
	<g>
		<path style="fill:#FFFFFF;" d="M53.54,38.42c-5.61,0-10.18-4.57-10.18-10.18s4.57-10.18,10.18-10.18
			c5.61,0,10.18,4.57,10.18,10.18S59.15,38.42,53.54,38.42z M53.54,20.06c-4.51,0-8.18,3.67-8.18,8.18s3.67,8.18,8.18,8.18
			c4.51,0,8.18-3.67,8.18-8.18S58.05,20.06,53.54,20.06z"/>
	</g>
	<g>
		<path style="fill:#FFFFFF;" d="M27.54,77.17c-1.59,0-2.87-1.29-2.87-2.87V43.88c0-1.59,1.29-2.87,2.87-2.87s2.87,1.29,2.87,2.87
			v30.41C30.41,75.88,29.13,77.17,27.54,77.17z"/>
	</g>
	<g>
		<path style="fill:#FFFFFF;" d="M60.71,85.04H37.9c-6.26,0-11.36-5.1-11.36-11.36v-2.15c0-0.55,0.45-1,1-1s1,0.45,1,1v2.15
			c0,5.16,4.2,9.36,9.36,9.36h22.81c0.55,0,1,0.45,1,1S61.26,85.04,60.71,85.04z"/>
	</g>
	<g>
		<path style="fill:#FFFFFF;" d="M44.12,50.07H27.54c-0.55,0-1-0.45-1-1s0.45-1,1-1h16.58c0.55,0,1,0.45,1,1
			S44.68,50.07,44.12,50.07z"/>
	</g>
	<g>
		<path style="fill:#FFFFFF;" d="M60.71,51.95H47.25c-1.59,0-2.87-1.29-2.87-2.87s1.29-2.87,2.87-2.87h13.46
			c1.59,0,2.87,1.29,2.87,2.87S62.29,51.95,60.71,51.95z"/>
	</g>
	<g>
		<path style="fill:#FFFFFF;" d="M60.71,63.6H47.25c-1.59,0-2.87-1.29-2.87-2.87s1.29-2.87,2.87-2.87h13.46
			c1.59,0,2.87,1.29,2.87,2.87S62.29,63.6,60.71,63.6z"/>
	</g>
	<g>
		<path style="fill:#FFFFFF;" d="M60.71,63.18H47.25c-1.59,0-2.87-1.29-2.87-2.87s1.29-2.87,2.87-2.87h13.46
			c1.59,0,2.87,1.29,2.87,2.87S62.29,63.18,60.71,63.18z"/>
	</g>
	<g>
		<path style="fill:#FFFFFF;" d="M60.71,75.58H47.25c-1.59,0-2.87-1.29-2.87-2.87s1.29-2.87,2.87-2.87h13.46
			c1.59,0,2.87,1.29,2.87,2.87S62.29,75.58,60.71,75.58z"/>
	</g>
	<g>
		<path style="fill:#FFFFFF;" d="M44.12,61.31H27.54c-0.55,0-1-0.45-1-1s0.45-1,1-1h16.58c0.55,0,1,0.45,1,1
			S44.68,61.31,44.12,61.31z"/>
	</g>
	<g>
		<path style="fill:#FFFFFF;" d="M43.57,73.7H27.54c-0.55,0-1-0.45-1-1s0.45-1,1-1h16.03c0.55,0,1,0.45,1,1S44.12,73.7,43.57,73.7z"
			/>
	</g>
	<g>
		<path style="fill:#FFFFFF;" d="M44.12,85.04c-0.55,0-1-0.45-1-1V41.13c0-0.55,0.45-1,1-1s1,0.45,1,1v42.92
			C45.12,84.59,44.68,85.04,44.12,85.04z"/>
	</g>
	<g>
		<path style="fill:#FFFFFF;" d="M104.36,48.29c-1.59,0-2.87-1.29-2.87-2.87V25.29c0-8.14-6.19-14.77-13.8-14.77
			s-13.8,6.63-13.8,14.77c0,1.59-1.29,2.87-2.87,2.87s-2.87-1.29-2.87-2.87c0-11.31,8.77-20.52,19.55-20.52s19.55,9.2,19.55,20.52
			v20.13C107.23,47.01,105.95,48.29,104.36,48.29z"/>
	</g>
	<g>
		<path style="fill:#FFFFFF;" d="M88.55,61.28c-9.74,0-17.66-8.01-17.66-17.86V24.16c0-0.54,0.44-0.98,0.98-0.98
			s0.98,0.44,0.98,0.98v19.27c0,8.77,7.04,15.91,15.7,15.91c8.66,0,15.7-7.14,15.7-15.91c0-0.54,0.44-0.98,0.98-0.98
			s0.98,0.44,0.98,0.98C106.2,53.27,98.28,61.28,88.55,61.28z"/>
	</g>
	<g>
		<path style="fill:#FFFFFF;" d="M71.87,33.84c-0.41,0-0.78-0.25-0.92-0.66c-0.18-0.51,0.09-1.07,0.61-1.24l30.38-10.49
			c0.51-0.18,1.07,0.09,1.24,0.61c0.18,0.51-0.09,1.07-0.61,1.24l-10.35,3.57c0,0-0.01,0-0.01,0l-20.02,6.91
			C72.08,33.82,71.97,33.84,71.87,33.84z"/>
	</g>
	<g>
		<path style="fill:#FFFFFF;" d="M72.51,49.03c-0.39,0-0.76-0.24-0.91-0.63c-0.19-0.5,0.06-1.07,0.56-1.26l31.85-12.17
			c0.5-0.19,1.07,0.06,1.26,0.56c0.19,0.5-0.06,1.07-0.56,1.26L72.86,48.96C72.75,49.01,72.63,49.03,72.51,49.03z"/>
	</g>
	<g>
		<path style="fill:#FFFFFF;" d="M74.93,34.68c-1.19,0-2.31-0.75-2.72-1.94c-0.52-1.5,0.28-3.14,1.78-3.66l15.28-5.28
			c1.5-0.52,3.14,0.28,3.66,1.78c0.52,1.5-0.28,3.14-1.78,3.66l-15.28,5.28C75.55,34.63,75.24,34.68,74.93,34.68z"/>
	</g>
	<g>
		<path style="fill:#FFFFFF;" d="M74.93,49.4c-1.19,0-2.31-0.75-2.72-1.94c-0.52-1.5,0.28-3.14,1.78-3.66l15.28-5.28
			c1.5-0.52,3.14,0.28,3.66,1.78c0.52,1.5-0.28,3.14-1.78,3.66l-15.28,5.28C75.55,49.34,75.24,49.4,74.93,49.4z"/>
	</g>
	<g>
		<path style="fill:#FFFFFF;" d="M85.08,85.04c-10.67,0-19.35-8.22-19.35-18.32c0-0.55,0.45-1,1-1s1,0.45,1,1
			c0,8.69,7.24,15.81,16.35,16.3V59.94c0-0.55,0.45-1,1-1s1,0.45,1,1v24.11C86.08,84.59,85.63,85.04,85.08,85.04z"/>
	</g>
	<g>
		<path style="fill:#FFFFFF;" d="M147.99,83.98c-10.67,0-19.35-11.17-19.35-24.89c0-0.55,0.45-1,1-1s1,0.45,1,1
			c0,12.62,7.78,22.89,17.35,22.89c0.55,0,1,0.45,1,1S148.54,83.98,147.99,83.98z"/>
	</g>
	<g>
		<path style="fill:#FFFFFF;" d="M91.44,85.04c-0.55,0-1-0.45-1-1V59.94c0-0.55,0.45-1,1-1s1,0.45,1,1v23.08
			c9.1-0.49,16.35-7.61,16.35-16.3c0-0.55,0.45-1,1-1s1,0.45,1,1C110.78,76.82,102.1,85.04,91.44,85.04z"/>
	</g>
	<g>
		<path style="fill:#FFFFFF;" d="M210.43,43.23h-73.11c-0.55,0-1-0.45-1-1s0.45-1,1-1h73.11c0.55,0,1,0.45,1,1
			S210.99,43.23,210.43,43.23z"/>
	</g>
	<g>
		<path style="fill:#FFFFFF;" d="M147.07,84.59c-1.59,0-2.87-1.29-2.87-2.87v-67.6c0-1.59,1.29-2.87,2.87-2.87s2.87,1.29,2.87,2.87
			v67.6C149.94,83.3,148.65,84.59,147.07,84.59z"/>
	</g>
	<g>
		<path style="fill:#FFFFFF;" d="M159.59,66.6c-0.55,0-1-0.45-1-1v-18.1c0-18.97,14.91-34.4,33.24-34.4h13.93c0.55,0,1,0.45,1,1
			s-0.45,1-1,1h-13.93c-17.23,0-31.25,14.54-31.25,32.4v18.1C160.59,66.16,160.15,66.6,159.59,66.6z"/>
	</g>
	<g>
		<path style="fill:#FFFFFF;" d="M159.59,68.48c-1.59,0-2.87-1.29-2.87-2.87v-18.1c0-8.25,2.76-16.33,7.76-22.75
			c0.98-1.25,2.78-1.47,4.03-0.5c1.25,0.98,1.48,2.78,0.5,4.03c-4.22,5.41-6.54,12.23-6.54,19.21v18.1
			C162.47,67.19,161.18,68.48,159.59,68.48z"/>
	</g>
	<g>
		<path style="fill:#FFFFFF;" d="M188.39,68.48c-1.59,0-2.87-1.29-2.87-2.87V2.87c0-1.59,1.29-2.87,2.87-2.87s2.87,1.29,2.87,2.87
			V65.6C191.27,67.19,189.98,68.48,188.39,68.48z"/>
	</g>
	<g>
		<path style="fill:#FFFFFF;" d="M194.22,54.31H176.1c-0.55,0-1-0.45-1-1s0.45-1,1-1h18.12c5.82,0,10.55-4.73,10.55-10.55
			c0-5.82-4.73-10.55-10.55-10.55h-18.76c-0.55,0-1-0.45-1-1s0.45-1,1-1h18.76c6.92,0,12.55,5.63,12.55,12.55
			S201.14,54.31,194.22,54.31z"/>
	</g>
	<g>
		<path style="fill:#FFFFFF;" d="M205.77,44.64c-1.59,0-2.87-1.29-2.87-2.87c0-4.78-3.89-8.68-8.68-8.68h-18.76
			c-1.59,0-2.87-1.29-2.87-2.87s1.29-2.87,2.87-2.87h18.76c7.95,0,14.42,6.47,14.42,14.42C208.65,43.35,207.36,44.64,205.77,44.64z"
			/>
	</g>
	<g>
		<path style="fill:#FFFFFF;" d="M205.77,66.6h-15.15c-0.55,0-1-0.45-1-1s0.45-1,1-1h15.15c0.55,0,1,0.45,1,1
			S206.32,66.6,205.77,66.6z"/>
	</g>
	<g>
		<path style="fill:#FFFFFF;" d="M188.39,83.98h-0.64c-10.13,0-18.38-8.24-18.38-18.38c0-0.55,0.45-1,1-1s1,0.45,1,1
			c0,9.03,7.35,16.38,16.38,16.38h0.64c9.03,0,16.38-7.35,16.38-16.38c0-0.55,0.45-1,1-1s1,0.45,1,1
			C206.77,75.74,198.53,83.98,188.39,83.98z"/>
	</g>
	<g>
		<path style="fill:#FFFFFF;" d="M188.39,85.86h-0.64c-1.59,0-2.87-1.29-2.87-2.87s1.29-2.87,2.87-2.87h0.64
			c8,0,14.5-6.51,14.5-14.5c0-1.59,1.29-2.87,2.87-2.87s2.87,1.29,2.87,2.87C208.64,76.77,199.56,85.86,188.39,85.86z"/>
	</g>
	<g>
		<g>
			<path style="fill:#FFFFFF;" d="M294.92,86.38h-29.28c-14.52,0-26.53-10.47-28.58-24.06c0.67-0.46,1.11-1.22,1.11-2.09V34.65
				c0-14.73,12.33-26.71,27.48-26.71h29.28c1.4,0,2.53-1.13,2.53-2.53s-1.13-2.53-2.53-2.53h-29.28
				c-17.94,0-32.54,14.25-32.54,31.77v25.58c0,1.15,0.77,2.11,1.82,2.42c2.21,14.63,15.12,25.9,30.72,25.9h29.28
				c0.6,0,1.08-0.49,1.08-1.08S295.52,86.38,294.92,86.38z"/>
		</g>
		<g>
			<path style="fill:#FFFFFF;" d="M294.87,31c0-9.99-8.14-18.12-18.15-18.12c-10.01,0-18.15,8.13-18.15,18.12
				s8.14,18.12,18.15,18.12C286.73,49.12,294.87,40.99,294.87,31z M260.75,31c0-8.8,7.17-15.95,15.98-15.95S292.7,22.2,292.7,31
				s-7.17,15.95-15.98,15.95S260.75,39.8,260.75,31z"/>
		</g>
		<g>
			<path style="fill:#FFFFFF;" d="M296.38,48.96c-8.86,0-16.05,7.18-16.05,16.03c0,8.85,7.19,16.03,16.05,16.03
				s16.05-7.18,16.05-16.03C312.43,56.14,305.24,48.96,296.38,48.96z M296.38,74.72c-5.38,0-9.75-4.37-9.75-9.73
				s4.37-9.73,9.75-9.73c5.38,0,9.75,4.37,9.75,9.73S301.75,74.72,296.38,74.72z"/>
		</g>
		<g>
			<ellipse style="fill:#FFFFFF;" cx="260.97" cy="64.58" rx="12.64" ry="12.62"/>
		</g>
	</g>
</g>
</svg>
