<svg id="Layer_1" data-name="Layer 1" xmlns="http://www.w3.org/2000/svg" width="238.78" height="100.97" viewBox="0 0 238.78 100.97">
  <g>
    <line y1="99.97" x2="238.78" y2="99.97" style="fill: none;stroke: #fff;stroke-miterlimit: 10;stroke-width: 2px"/>
    <path d="M277.77,403.5a16.18,16.18,0,0,0-1.65,32.27c.53.05,1.09.08,1.65.08a16.18,16.18,0,0,0,0-32.35Zm0,26a9.81,9.81,0,1,1,9.81-9.81A9.82,9.82,0,0,1,277.77,429.49Z" transform="translate(-74.59 -355.32)" style="fill: #fff"/>
    <path d="M228.65,419.68a12.88,12.88,0,1,0,12.87-12.75A12.8,12.8,0,0,0,228.65,419.68Z" transform="translate(-74.59 -355.32)" style="fill: #fff"/>
    <path d="M265.6,402.85a19.2,19.2,0,1,0-7.45,1.49A19.17,19.17,0,0,0,265.6,402.85Zm-23.44-17.6a16,16,0,1,1,16,15.9A16,16,0,0,1,242.16,385.25Z" transform="translate(-74.59 -355.32)" style="fill: #fff"/>
    <path d="M275.84,440.06h-31.4a26.15,26.15,0,0,1-26.09-23.22,3.22,3.22,0,0,0,1.47-2.69V385.36A23.49,23.49,0,0,1,243.42,362h30.83a3.18,3.18,0,1,0,0-6.36H243.42a30.29,30.29,0,0,0-11.48,2.23,29.84,29.84,0,0,0-9.71,6.44,29.24,29.24,0,0,0-8.77,20.83s0,0,0,.05v28.95a3.18,3.18,0,0,0,1.75,2.84,28.62,28.62,0,0,0,8.46,17.74,29.21,29.21,0,0,0,20.53,8.52h31.66a1.6,1.6,0,1,0,0-3.19Z" transform="translate(-74.59 -355.32)" style="fill: #fff"/>
    <path d="M134,355.43a2.78,2.78,0,0,0-2.76,2.8l.18,28.11-24.07.15a1.39,1.39,0,1,0,0,2.77l24.08-.15.31,50.18c-16-1.43-28.63-16-28.74-33.69a1.39,1.39,0,0,0-2.78,0c.12,19.39,14.2,35.23,31.86,36.49a2.77,2.77,0,0,0,5.22-1.33l-.52-82.59A2.78,2.78,0,0,0,134,355.43Z" transform="translate(-74.59 -355.32)" style="fill: #fff"/>
    <path d="M184.65,403.7a1.39,1.39,0,0,0-1.38,1.4c.11,17.73-12.36,32.41-28.32,34L154.64,389l24.54-.15a1.39,1.39,0,0,0,0-2.77l-24.55.15-.18-28.11a2.78,2.78,0,1,0-5.55,0l.52,82.59a2.78,2.78,0,0,0,5.24,1.26c17.64-1.48,31.52-17.5,31.4-36.89A1.39,1.39,0,0,0,184.65,403.7Z" transform="translate(-74.59 -355.32)" style="fill: #fff"/>
  </g>
</svg>
