<?xml version="1.0" encoding="utf-8"?>
<!-- Generator: Adobe Illustrator 25.4.1, SVG Export Plug-In . SVG Version: 6.00 Build 0)  -->
<svg version="1.1" id="Layer_1" xmlns="http://www.w3.org/2000/svg" xmlns:xlink="http://www.w3.org/1999/xlink" x="0px" y="0px"
	 width="340.9px" height="103px" viewBox="0 0 340.9 103" style="enable-background:new 0 0 340.9 103;" xml:space="preserve">
<g>
	<g>
		<path style="fill:#FFFFFF;" d="M295.7,64.57c0,5.35,4.34,9.69,9.69,9.69s9.69-4.34,9.69-9.69c0-5.35-4.34-9.69-9.69-9.69
			c0,0-0.01,0-0.01,0C300.03,54.88,295.7,59.22,295.7,64.57z M289.41,64.57c0-8.84,7.16-16,16-16s16,7.16,16,16s-7.16,16-16,16
			c-0.55,0-1.1,0-1.63-0.08C295.62,79.65,289.41,72.77,289.41,64.57z"/>
		<ellipse style="fill:#FFFFFF;" cx="269.59" cy="64.53" rx="12.71" ry="12.59"/>
		<path style="fill:#FFFFFF;" d="M286.01,49.39c-10.43-0.02-18.88-8.49-18.86-18.92c0.02-10.43,8.49-18.88,18.92-18.86
			c10.43,0.02,18.88,8.49,18.86,18.92c-0.01,7.59-4.57,14.43-11.56,17.38C291.04,48.89,288.54,49.39,286.01,49.39z M270.22,30.57
			c-0.05,8.71,6.97,15.82,15.69,15.87c8.71,0.05,15.82-6.97,15.87-15.69c0.05-8.71-6.97-15.82-15.69-15.87c-0.03,0-0.05,0-0.08,0
			C277.32,14.85,270.25,21.87,270.22,30.57z"/>
		<path style="fill:#FFFFFF;" d="M246.71,61.72c1.48,13.1,12.58,22.98,25.76,22.93h31c0.87,0.01,1.57,0.71,1.58,1.58
			c0,0.87-0.7,1.57-1.57,1.57c0,0-0.01,0-0.01,0h-31.25c-7.6-0.02-14.89-3.04-20.27-8.4c-4.77-4.67-7.73-10.88-8.36-17.52
			c-1.06-0.53-1.74-1.62-1.74-2.81V30.49c0,0,0,0,0-0.05c0.02-7.74,3.14-15.15,8.66-20.57c2.75-2.73,6.01-4.89,9.59-6.36
			c3.6-1.46,7.45-2.21,11.34-2.2h30.43c1.73,0,3.14,1.4,3.14,3.14c0,1.73-1.4,3.14-3.14,3.14c0,0,0,0,0,0h-30.4
			c-12.8-0.07-23.23,10.25-23.3,23.05v28.43C248.16,60.14,247.61,61.14,246.71,61.72z"/>
	</g>
	<g>
		<ellipse style="fill:#FFFFFF;" cx="60.82" cy="41.83" rx="7.92" ry="7.91"/>
		<path style="fill:#FFFFFF;" d="M109.64,6.66c1.64,0.25,3.17-0.87,3.42-2.51s-0.87-3.17-2.51-3.42c-0.3-0.05-0.61-0.05-0.91,0h-30
			c-1.26,0.02-2.37,0.81-2.79,2H32.17c-0.55,0-1,0.45-1,1s0.45,1,1,1h44.46v12.84c-1.9-0.23-3.81-0.35-5.73-0.35
			c-22.77,0-41.22,15.94-41.22,35.6s18.45,35.6,41.22,35.6s41.23-15.94,41.23-35.6c0-16.16-12.48-29.8-29.56-34.15v-12L109.64,6.66z
			 M106.2,52.78c0,16.36-15.83,29.67-35.3,29.67S35.61,69.14,35.61,52.78S51.44,23.1,70.9,23.1c1.92,0,3.83,0.13,5.73,0.4v26.24
			c0.23,1.64,1.75,2.78,3.39,2.55c1.32-0.19,2.36-1.23,2.55-2.55v-25C96.31,28.83,106.2,39.86,106.2,52.78z"/>
	</g>
	<g>
		<path style="fill:#FFFFFF;" d="M211.58,14.1h-32.17c-0.41,0-0.82,0.09-1.2,0.26V5.57c0.38,0.17,0.79,0.25,1.2,0.25h16
			c1.6,0.09,2.98-1.13,3.08-2.73c0.09-1.6-1.13-2.98-2.73-3.08c-0.11-0.01-0.23-0.01-0.34,0h-16c-1.24,0.01-2.34,0.78-2.78,1.94
			h-21.12c-0.53-0.14-1.08,0.17-1.23,0.7c-0.14,0.53,0.17,1.08,0.7,1.23c0.17,0.05,0.35,0.05,0.52,0h20.72v12.17h-35.32
			c-0.53-0.14-1.08,0.17-1.23,0.7c-0.14,0.53,0.17,1.08,0.7,1.23c0.17,0.05,0.35,0.05,0.52,0h35.72c0.44,1.16,1.54,1.93,2.78,1.94
			h32.17c1.6,0.09,2.98-1.13,3.08-2.73c0.09-1.6-1.13-2.98-2.73-3.08c-0.11-0.01-0.23-0.01-0.34,0L211.58,14.1z"/>
		<ellipse style="fill:#FFFFFF;" cx="165.49" cy="83.42" rx="5.81" ry="5.67"/>
		<path style="fill:#FFFFFF;" d="M188.95,77.76c-3.14,0.07-5.62,2.67-5.55,5.81c0.07,3.14,2.67,5.62,5.81,5.55
			c3.09-0.07,5.55-2.6,5.55-5.69C194.72,80.26,192.12,77.72,188.95,77.76C188.95,77.76,188.95,77.76,188.95,77.76z M188.95,86.2
			c-1.53-0.04-2.73-1.32-2.69-2.85c0.04-1.53,1.32-2.73,2.85-2.69c1.5,0.04,2.69,1.27,2.69,2.77
			C191.78,84.98,190.5,86.22,188.95,86.2C188.95,86.2,188.95,86.2,188.95,86.2z"/>
		<path style="fill:#FFFFFF;" d="M182.85,22.88h-11.24c-10.49-0.04-19.03,8.44-19.07,18.93c0,0,0,0,0,0v28.41
			c0.02,1.62,1.36,2.92,2.98,2.9c0.01,0,0.01,0,0.02,0h43.43c1.62,0.03,2.97-1.26,3-2.88c0-0.01,0-0.01,0-0.02V41.81
			c-0.04-10.49-8.58-18.97-19.07-18.93C182.88,22.87,182.87,22.87,182.85,22.88z M178.13,53.88c-0.44-1.16-1.55-1.93-2.79-1.94h-16
			c-0.28,0-0.56,0.05-0.83,0.13v-9.5c0.27,0.08,0.55,0.12,0.83,0.13h16c1.24-0.01,2.35-0.78,2.79-1.94h17.8c0,0.37,0,0.73,0,1.1
			v12.07L178.13,53.88z M171.62,28.69h11.23c6.08,0.01,11.35,4.18,12.76,10.09h-17.49c-0.44-1.16-1.55-1.93-2.79-1.94h-15.87
			c2.02-4.93,6.82-8.15,12.15-8.15H171.62z M158.48,67.32v-9.7c0.27,0.08,0.55,0.12,0.83,0.13h16c1.24-0.01,2.35-0.78,2.79-1.94
			h17.85v11.51H158.48z"/>
	</g>
</g>
<line style="fill:none;stroke:#FFFFFF;stroke-width:1.953;stroke-miterlimit:10;" x1="4.47" y1="100.83" x2="340.9" y2="100.83"/>
</svg>
