<?xml version="1.0" encoding="utf-8"?>
<!-- Generator: Adobe Illustrator 25.4.1, SVG Export Plug-In . SVG Version: 6.00 Build 0)  -->
<svg version="1.1" id="Layer_1" xmlns="http://www.w3.org/2000/svg" xmlns:xlink="http://www.w3.org/1999/xlink" x="0px" y="0px"
	 width="339.82px" height="104.76px" viewBox="0 0 339.82 104.76" style="enable-background:new 0 0 339.82 104.76;"
	 xml:space="preserve">
<g>
	<g>
		<g>
			<path style="fill:#FFFFFF;" d="M294.22,65.94c0,5.36,4.35,9.69,9.69,9.69c5.36,0,9.69-4.33,9.69-9.69c0-5.33-4.33-9.69-9.69-9.69
				C298.57,56.25,294.22,60.61,294.22,65.94z M287.94,65.94c0-6.61,4.03-12.29,9.76-14.72c1.9-0.8,4-1.25,6.21-1.25
				c8.81,0,15.97,7.16,15.97,15.97s-7.16,15.97-15.97,15.97c-0.55,0-1.1-0.03-1.63-0.08C294.22,81.01,287.94,74.2,287.94,65.94z"/>
		</g>
		<g>
			<ellipse style="fill:#FFFFFF;" cx="268.11" cy="65.94" rx="12.71" ry="12.59"/>
		</g>
		<g>
			<path style="fill:#FFFFFF;" d="M284.53,50.8c-10.44,0-18.92-8.46-18.92-18.85s8.48-18.85,18.92-18.85
				c10.44,0,18.92,8.46,18.92,18.85c0,7.78-4.78,14.49-11.56,17.37C289.64,50.27,287.14,50.8,284.53,50.8z M268.74,31.95
				c0,8.66,7.08,15.69,15.79,15.69s15.77-7.03,15.77-15.69s-7.06-15.69-15.77-15.69S268.74,23.29,268.74,31.95z"/>
		</g>
		<g>
			<path style="fill:#FFFFFF;" d="M245.24,63.14c1.35,12.86,12.39,22.93,25.75,22.93H302c0.88,0,1.58,0.73,1.58,1.58
				c0,0.88-0.7,1.58-1.58,1.58h-31.21c-0.03,0-0.05,0-0.05,0c-7.66-0.05-14.87-3.03-20.27-8.41c-4.81-4.76-7.73-10.89-8.36-17.52
				c-1.03-0.53-1.73-1.58-1.73-2.8V31.9c0-0.03,0-0.03,0.03-0.05c0.03-7.78,3.1-15.07,8.66-20.57c2.78-2.75,6.03-4.91,9.59-6.36
				c3.55-1.45,7.38-2.2,11.34-2.2h30.43c1.75,0,3.15,1.4,3.15,3.15c0,1.73-1.4,3.13-3.15,3.13h-15.89h-14.54
				c-12.86,0-23.3,10.34-23.3,23.05v28.43C246.69,61.59,246.11,62.56,245.24,63.14z"/>
		</g>
	</g>
	<path style="fill:#FFFFFF;" d="M171.61,5.19c-22.48,0-40.78,18.29-40.78,40.78c0,22.48,18.29,40.78,40.78,40.78
		s40.78-18.29,40.78-40.78C212.38,23.48,194.09,5.19,171.61,5.19z M206.02,45.2h-32.47c-0.34-0.28-0.74-0.5-1.18-0.61V11.55
		C190.75,11.95,205.62,26.82,206.02,45.2z M170.85,11.55v33.04c-0.44,0.11-0.84,0.33-1.18,0.61h-32.47
		C137.59,26.82,152.46,11.95,170.85,11.55z M137.19,46.73h31.49c-0.07,0.26-0.12,0.53-0.12,0.81v31.44c0,0.47,0.11,0.91,0.3,1.31
		C151.4,78.9,137.58,64.45,137.19,46.73z M174.36,80.28c0.19-0.4,0.3-0.84,0.3-1.31V47.54c0-0.28-0.05-0.55-0.12-0.81h31.49
		C205.64,64.45,191.81,78.9,174.36,80.28z"/>
	<g>
		<path style="fill:#FFFFFF;" d="M106.07,50.02c-0.63,0-1.14,0.51-1.14,1.14c0,20.62-14.76,37.4-32.91,37.4
			c-0.63,0-1.14,0.51-1.14,1.14s0.51,1.14,1.14,1.14c19.41,0,35.2-17.8,35.2-39.69C107.22,50.54,106.7,50.02,106.07,50.02z"/>
		<path style="fill:#FFFFFF;" d="M77.2,60.78c0,1.47,1.2,2.67,2.67,2.67s2.67-1.2,2.67-2.67V24.09c9.52,1.12,16.89,8.13,16.89,16.59
			c0,0.63,0.51,1.14,1.14,1.14s1.14-0.51,1.14-1.14c0-9.72-8.39-17.75-19.18-18.9V2.67c0-1.47-1.2-2.67-2.67-2.67
			S77.2,1.2,77.2,2.67v19.11c-10.79,1.15-19.18,9.18-19.18,18.9c0,0.63,0.51,1.14,1.14,1.14c0.63,0,1.14-0.51,1.14-1.14
			c0-8.47,7.37-15.47,16.89-16.59V60.78z"/>
		<path style="fill:#FFFFFF;" d="M48.54,25.56c1.79-2.73,1.58-6.45-0.48-8.97c-3.33-4.06-9.54-3.73-12.41,0.65
			c-1.79,2.73-1.58,6.45,0.48,8.97C39.46,30.27,45.67,29.94,48.54,25.56z"/>
		<path style="fill:#FFFFFF;" d="M48.54,47.67c1.79-2.73,1.58-6.45-0.48-8.97c-3.33-4.06-9.54-3.73-12.41,0.65
			c-1.79,2.73-1.58,6.45,0.48,8.97C39.46,52.38,45.67,52.05,48.54,47.67z"/>
		<path style="fill:#FFFFFF;" d="M44.76,58.41C39.32,57.57,34,59.3,30.15,63.15c-3.84,3.84-5.57,9.15-4.74,14.57
			c1.1,7.15,6.86,12.91,14.02,14.01c0.9,0.14,1.8,0.21,2.68,0.21c4.47,0,8.71-1.73,11.92-4.94c3.84-3.84,5.57-9.15,4.74-14.57
			C57.68,65.27,51.91,59.51,44.76,58.41z M50.26,83.22c-2.63,2.63-6.29,3.81-10.02,3.24c-4.8-0.74-8.82-4.75-9.55-9.54
			c-0.57-3.72,0.61-7.36,3.23-9.98c2.19-2.19,5.1-3.38,8.17-3.38c0.61,0,1.23,0.05,1.85,0.14c4.8,0.74,8.82,4.75,9.55,9.54
			C54.07,76.95,52.89,80.59,50.26,83.22z"/>
	</g>
</g>
<line style="fill:none;stroke:#FFFFFF;stroke-width:1.953;stroke-miterlimit:10;" x1="0" y1="103.66" x2="339.82" y2="103.66"/>
</svg>
