<?xml version="1.0" encoding="utf-8"?>
<!-- Generator: Adobe Illustrator 25.4.1, SVG Export Plug-In . SVG Version: 6.00 Build 0)  -->
<svg version="1.1" id="Layer_1" xmlns="http://www.w3.org/2000/svg" xmlns:xlink="http://www.w3.org/1999/xlink" x="0px" y="0px"
	 width="473.49px" height="107.27px" viewBox="0 0 473.49 107.27" style="enable-background:new 0 0 473.49 107.27;"
	 xml:space="preserve">
<line style="fill:none;stroke:#FFFFFF;stroke-width:1.953;stroke-miterlimit:10;" x1="0" y1="107.27" x2="473.49" y2="107.27"/>
<g>
	<g>
		<path style="fill:#FFFFFF;" d="M27.98,21.22c-1.2-1.19-3.13-1.2-4.33,0c-1.2,1.2-1.2,3.14,0,4.33l9.15,9.15
			c0.6,0.6,1.38,0.9,2.17,0.9c0.78,0,1.57-0.3,2.17-0.9c1.2-1.2,1.2-3.14,0-4.33L27.98,21.22z"/>
		<path style="fill:#FFFFFF;" d="M32.8,60.61l-9.15,9.15c-1.2,1.2-1.2,3.14,0,4.33c0.6,0.6,1.38,0.9,2.17,0.9
			c0.78,0,1.57-0.3,2.17-0.9l9.15-9.15c1.2-1.2,1.2-3.14,0-4.33C35.93,59.42,33.99,59.42,32.8,60.61z"/>
		<path style="fill:#FFFFFF;" d="M34.96,50.2c1.06,0,1.91-0.86,1.91-1.91s-0.86-1.91-1.91-1.91h-9.15c-1.06,0-1.91,0.86-1.91,1.91
			s0.86,1.91,1.91,1.91H34.96z"/>
		<path style="fill:#FFFFFF;" d="M82.22,0c-1,0-1.89,0.49-2.44,1.24C48.66,3.02,43.78,38.53,43.73,38.9
			c-0.13,1.05,0.61,2.01,1.66,2.14c0.08,0.01,0.16,0.02,0.24,0.02c0.95,0,1.77-0.71,1.9-1.67c0.01-0.09,1.18-8.84,6.11-17.43
			C59.7,11.39,68.53,5.72,79.9,5.05c0.56,0.66,1.39,1.08,2.32,1.08c12.04,0,21.3,5.5,27.55,16.34c4.81,8.34,5.98,16.88,6,17.07
			c0.2,1.55,1.52,2.68,3.03,2.68c0.13,0,0.26-0.01,0.39-0.02c1.68-0.21,2.87-1.75,2.65-3.42C121.8,38.37,116.54,0,82.22,0z"/>
		<path style="fill:#FFFFFF;" d="M55.11,41.15c5.84,0,21.92-2.09,25.44-24.57c0.16-1.04-0.55-2.02-1.59-2.19
			c-1.05-0.17-2.02,0.55-2.19,1.59c-3.71,23.66-22.45,21.38-23.25,21.27c-1.04-0.15-2.01,0.58-2.16,1.62
			c-0.15,1.05,0.58,2.02,1.62,2.17C53.03,41.04,53.82,41.15,55.11,41.15z"/>
		<path style="fill:#FFFFFF;" d="M109,41.15c1.29,0,2.08-0.1,2.13-0.11c1.04-0.15,1.77-1.12,1.62-2.16
			c-0.15-1.04-1.11-1.78-2.16-1.63c-0.79,0.11-19.54,2.4-23.25-21.27c-0.16-1.04-1.14-1.76-2.19-1.59
			c-1.04,0.16-1.76,1.14-1.59,2.19C87.08,39.06,103.16,41.15,109,41.15z"/>
		<path style="fill:#FFFFFF;" d="M118.81,56.81c1.06,0,1.91-0.86,1.91-1.91s-0.86-1.91-1.91-1.91H84.52v-6.22
			c0-1.69-1.37-3.06-3.06-3.06s-3.06,1.37-3.06,3.06v6.22H45.63c-1.06,0-1.91,0.86-1.91,1.91s0.86,1.91,1.91,1.91h32.76v5
			c-9.8,17.63-31.69,16.64-32.65,16.58c-1.05-0.04-1.96,0.75-2.02,1.8c-0.06,1.06,0.74,1.96,1.8,2.02c0.03,0,0.38,0.02,0.99,0.02
			c4.27,0,21.35-0.85,31.88-13.64v24.92c0,1.69,1.37,3.06,3.06,3.06s3.06-1.37,3.06-3.06V67.11c10.38,14.21,28.6,15.12,33.03,15.12
			c0.61,0,0.96-0.02,0.99-0.02c1.05-0.06,1.86-0.97,1.8-2.02c-0.06-1.06-0.96-1.86-2.02-1.8c-1.01,0.06-24.69,1.14-33.8-18.85v-2.73
			H118.81z"/>
		<path style="fill:#FFFFFF;" d="M171.39,25.8l-22.11-6.86c-1.61-0.5-3.33,0.4-3.83,2.02c-0.5,1.62,0.4,3.33,2.02,3.83l21.04,6.53
			c-1.72,49.5-32.11,52.06-33.46,52.15c-1.05,0.06-1.86,0.97-1.8,2.02c0.06,1.02,0.9,1.8,1.91,1.8c0.04,0,0.08,0,0.11,0
			c0.38-0.02,9.38-0.63,18.49-8.29c14.26-11.97,18.04-32.16,18.57-47.85c0.49-0.37,0.87-0.89,1.07-1.52
			C173.91,28.02,173.01,26.31,171.39,25.8z"/>
		<path style="fill:#FFFFFF;" d="M231.27,83.47c-0.32-0.02-31.7-2.44-33.45-52.15l21.04-6.53c1.62-0.5,2.52-2.22,2.02-3.83
			c-0.5-1.62-2.22-2.52-3.83-2.02l-22.11,6.86c-1.62,0.5-2.52,2.22-2.02,3.83c0.2,0.63,0.58,1.15,1.07,1.52
			c0.9,27.34,10.53,41.09,18.57,47.85c9.12,7.65,18.12,8.26,18.49,8.29c0.04,0,0.08,0,0.11,0c1.01,0,1.85-0.79,1.91-1.8
			C233.13,84.44,232.33,83.54,231.27,83.47z"/>
		<path style="fill:#FFFFFF;" d="M183.19,0c-1.69,0-3.06,1.37-3.06,3.06v90.45c0,1.69,1.37,3.06,3.06,3.06s3.06-1.37,3.06-3.06V3.06
			C186.25,1.37,184.88,0,183.19,0z"/>
		<path style="fill:#FFFFFF;" d="M344.56,39.52h-30.48v-19.8h16.76c1.06,0,1.91-0.86,1.91-1.91s-0.86-1.91-1.91-1.91h-16.76V3.06
			c0-1.69-1.37-3.06-3.06-3.06s-3.06,1.37-3.06,3.06v36.45h-13.44V21.1c0-1.69-1.37-3.06-3.06-3.06s-3.06,1.37-3.06,3.06v18.41
			h-13.44V12.46c0-1.69-1.37-3.06-3.06-3.06s-3.06,1.37-3.06,3.06v27.05h-12.69c-1.06,0-1.91,0.86-1.91,1.91s0.86,1.91,1.91,1.91
			h12.69v47.89c-13.71-3.34-16.6-28.65-16.63-28.92c-0.11-1.05-1.06-1.81-2.11-1.7c-1.05,0.11-1.81,1.05-1.7,2.11
			c0.04,0.33,0.89,8.1,4.07,16.01c3.93,9.79,9.74,15.43,16.9,16.5c0.55,0.81,1.48,1.35,2.54,1.35c1.69,0,3.06-1.37,3.06-3.06V43.34
			h13.44v5.71c0,1.69,1.37,3.06,3.06,3.06s3.06-1.37,3.06-3.06v-5.71h13.44v27.94c0,1.69,1.37,3.06,3.06,3.06s3.06-1.37,3.06-3.06
			V43.34h30.48c1.06,0,1.91-0.86,1.91-1.91S345.61,39.52,344.56,39.52z"/>
		<path style="fill:#FFFFFF;" d="M333.21,48.92c-1.06-0.05-1.95,0.77-2,1.82c-1.91,41.28-37.75,41.88-39.71,41.88
			c-0.02,0-0.03,0-0.04,0c-1.05,0-1.91,0.85-1.91,1.9c-0.01,1.06,0.85,1.92,1.9,1.93c0,0,0,0,0.01,0c0.72,0,41.5-0.43,43.59-45.53
			C335.09,49.86,334.27,48.97,333.21,48.92z"/>
		<path style="fill:#FFFFFF;" d="M299.66,67.37c0-4.82-3.92-8.74-8.74-8.74s-8.74,3.92-8.74,8.74c0,4.82,3.92,8.74,8.74,8.74
			S299.66,72.19,299.66,67.37z M286,67.37c0-2.71,2.2-4.91,4.91-4.91s4.91,2.21,4.91,4.91c0,2.71-2.2,4.92-4.91,4.92
			S286,70.08,286,67.37z"/>
	</g>
	<path style="fill:#FFFFFF;" d="M436.47,53.21c-2.2,0-4.3,0.45-6.21,1.25c-5.73,2.43-9.76,8.11-9.76,14.72
		c0,8.26,6.28,15.07,14.34,15.89c0.53,0.05,1.08,0.08,1.63,0.08c8.81,0,15.97-7.16,15.97-15.97
		C452.44,60.37,445.28,53.21,436.47,53.21z M436.47,78.87c-5.33,0-9.69-4.33-9.69-9.69c0-5.33,4.35-9.69,9.69-9.69
		c5.36,0,9.69,4.35,9.69,9.69C446.16,74.54,441.83,78.87,436.47,78.87z"/>
	<ellipse style="fill:#FFFFFF;" cx="400.68" cy="69.18" rx="12.71" ry="12.59"/>
	<path style="fill:#FFFFFF;" d="M424.46,52.56c6.78-2.88,11.56-9.59,11.56-17.37c0-10.39-8.48-18.85-18.92-18.85
		s-18.92,8.46-18.92,18.85s8.48,18.85,18.92,18.85C419.71,54.04,422.21,53.51,424.46,52.56z M401.31,35.19
		c0-8.66,7.08-15.69,15.79-15.69c8.71,0,15.77,7.03,15.77,15.69s-7.06,15.69-15.77,15.69C408.39,50.89,401.31,43.85,401.31,35.19z"
		/>
	<path style="fill:#FFFFFF;" d="M434.57,89.3h-31.01c-13.37,0-24.4-10.06-25.75-22.93c0.88-0.58,1.45-1.55,1.45-2.65V35.29
		c0-12.71,10.44-23.05,23.3-23.05h14.54H433c1.75,0,3.15-1.4,3.15-3.13c0-1.75-1.4-3.15-3.15-3.15h-30.43
		c-3.95,0-7.78,0.75-11.34,2.2c-3.55,1.45-6.81,3.6-9.59,6.36c-5.56,5.51-8.63,12.79-8.66,20.57c-0.03,0.02-0.03,0.02-0.03,0.05
		v28.58c0,1.23,0.7,2.28,1.73,2.8c0.63,6.63,3.55,12.76,8.36,17.52c5.41,5.38,12.61,8.36,20.27,8.41c0,0,0.02,0,0.05,0h31.21
		c0.88,0,1.58-0.7,1.58-1.58C436.15,90.03,435.45,89.3,434.57,89.3z"/>
</g>
</svg>
