<?xml version="1.0" encoding="utf-8"?>
<!-- Generator: Adobe Illustrator 25.4.1, SVG Export Plug-In . SVG Version: 6.00 Build 0)  -->
<svg version="1.1" id="btn1" xmlns="http://www.w3.org/2000/svg" xmlns:xlink="http://www.w3.org/1999/xlink" x="0px" y="0px"
	 viewBox="0 0 1720 880" style="enable-background:new 0 0 1720 880;" xml:space="preserve">
<g>
	<path style="fill:#BE1818;" d="M786.94,172.59h-87.8c-8.89,0-16.1-7.21-16.1-16.1v0c0-8.89,7.21-16.1,16.1-16.1h87.8
		c8.89,0,16.1,7.21,16.1,16.1v0C803.04,165.38,795.83,172.59,786.94,172.59z"/>
	<g>
		<path style="fill:#FFFFFF;" d="M697.61,153.63v-0.77c-0.34,0.44-0.7,0.85-1.04,1.28l-0.94-1.28c1.57-1.84,3.02-3.96,4.32-6.4h1.18
			c1.5,1.67,2.92,3.43,4.32,5.31l-1.11,1.18c-1.4-2.03-2.63-3.62-3.65-4.83c-0.77,1.4-1.59,2.71-2.49,3.94h5.36v1.57h-2v2.71h3v1.64
			h-3v7.34c1.01-0.24,2.03-0.51,3.04-0.8v1.62c-2.51,0.72-5.24,1.3-8.14,1.79l-0.41-1.64c1.3-0.17,2.61-0.39,3.86-0.63v-7.68h-3.33
			v-1.64h3.33v-2.71H697.61z M698.96,164.26l-1.23,0.31c-0.39-1.64-0.85-3.19-1.43-4.69l1.26-0.41
			C698.09,160.88,698.55,162.47,698.96,164.26z M704.83,159.45c-0.31,1.59-0.7,3.02-1.14,4.25l-1.23-0.43
			c0.39-1.11,0.75-2.49,1.09-4.18L704.83,159.45z M707.73,165.76c1.38-0.36,2.75-0.82,4.11-1.4l0.39,1.55
			c-1.69,0.68-3.82,1.35-6.38,1.98l-0.39-1.4c0.39-0.12,0.6-0.31,0.6-0.6v-18.65h9.95v10.22h-8.29V165.76z M714.37,148.82h-6.64v2.8
			h6.64V148.82z M707.73,155.9h6.64v-2.73h-6.64V155.9z M717.64,159.79c-1.06,1.3-2.29,2.32-3.67,3c1.11,1.62,2.46,2.9,4.03,3.84
			l-0.97,1.4c-2.97-1.86-5.14-4.73-6.5-8.6l1.3-0.75c0.39,1.06,0.82,2,1.33,2.85c1.16-0.58,2.29-1.52,3.38-2.8L717.64,159.79z"/>
		<path style="fill:#FFFFFF;" d="M720.67,149.28v-1.69h6.88v1.69h-3.19c-0.29,1.96-0.7,3.79-1.26,5.48h3.86v11.4h-3.5v1.4h-1.52
			v-9.78c-0.43,0.89-0.89,1.74-1.38,2.56l-0.92-1.45c1.55-2.8,2.56-5.99,3.07-9.61H720.67z M725.58,164.62v-8.36h-2.1v8.36H725.58z
			 M730.34,157.93c-0.1,4.25-0.94,7.68-2.54,10.27l-1.26-1.09c1.43-2.2,2.17-5.27,2.22-9.18v-9.73h6.14
			c-0.24-0.63-0.51-1.21-0.8-1.74l1.74-0.31c0.24,0.6,0.51,1.28,0.75,2.05h4.88v1.52h-2.27v1.35h1.88v1.28h-1.88v2.42h-6.18v-2.42
			h-1.84v-1.28h1.84v-1.35h-2.68v6.14h11.43v1.3h-11.43V157.93z M740.82,158.32v6.47h-6.47l0.92,1.04
			c-1.09,1.01-2.44,1.84-4.06,2.51l-0.7-1.4c1.52-0.53,2.78-1.26,3.74-2.15h-2.73v-6.47H740.82z M735.43,161.05v-1.47h-2.44v1.47
			H735.43z M735.43,162.08h-2.44v1.45h2.44V162.08z M734.44,151.07h3.31v-1.35h-3.31V151.07z M734.44,153.77h3.31v-1.42h-3.31
			V153.77z M736.86,161.05h2.51v-1.47h-2.51V161.05z M739.37,162.08h-2.51v1.45h2.51V162.08z M741.93,166.99l-0.82,1.26
			c-1.3-0.97-2.66-1.74-4.01-2.27l0.8-1.16C739.35,165.39,740.7,166.12,741.93,166.99z"/>
		<path style="fill:#FFFFFF;" d="M748.98,156.31l-1.14,1.18c-0.92-1.14-2.15-2.34-3.72-3.62l1.16-1.11
			C746.73,153.94,747.96,155.13,748.98,156.31z M748.76,159.79c-0.87,2.95-1.81,5.7-2.83,8.26l-1.62-0.7
			c1.14-2.66,2.13-5.36,2.95-8.14L748.76,159.79z M749.7,150.42l-1.16,1.14c-0.97-1.11-2.27-2.32-3.96-3.62l1.16-1.11
			C747.31,148.03,748.64,149.21,749.7,150.42z M763.98,146.89v6.47h-2.56v1.38h3.77v1.35h-3.77v1.5h4.23v1.38h-3.91
			c0.97,1.06,2.49,2.03,4.54,2.9l-1.01,1.26c-1.01-0.53-1.88-1.06-2.61-1.59c-0.7,0.65-1.5,1.23-2.37,1.71l-0.85-1.09
			c0.82-0.46,1.57-0.94,2.2-1.47c-0.63-0.56-1.14-1.14-1.52-1.71h-4.76c-0.48,0.68-1.11,1.3-1.84,1.88c0.77,0.51,1.45,1.01,2,1.52
			l-0.94,0.94c-0.58-0.56-1.3-1.11-2.2-1.69c-0.7,0.43-1.47,0.82-2.32,1.21l-0.82-1.35c1.93-0.68,3.41-1.5,4.4-2.51h-4.11v-1.38
			h4.49v-1.5h-3.74v-1.35h3.74v-1.38h-2.66v-6.47H763.98z M755.79,164.86c-1.57,0.87-3.53,1.67-5.85,2.34l-0.58-1.35
			c2.37-0.6,4.4-1.35,6.11-2.25L755.79,164.86z M762.36,149.48v-1.3h-9.37v1.3H762.36z M762.36,150.73h-9.37v1.35h9.37V150.73z
			 M754.46,168.36l-0.36-1.55c0.68,0.05,1.33,0.1,1.96,0.1c0.48,0,0.75-0.22,0.75-0.63v-6.47h1.62v6.86c0,1.11-0.6,1.69-1.79,1.69
			H754.46z M759.82,154.74v-1.38h-4.18v1.38H759.82z M759.82,157.59v-1.5h-4.18v1.5H759.82z M765.62,166.41l-0.85,1.3
			c-1.79-1.16-3.62-2.1-5.48-2.78l0.77-1.14C762.1,164.52,763.93,165.39,765.62,166.41z"/>
		<path style="fill:#FFFFFF;" d="M781.63,152.59v2.95h6.81v8.12c0,1.5-0.77,2.27-2.27,2.27h-2.27l-0.43-1.62l2.15,0.05
			c0.77,0,1.16-0.36,1.16-1.06v-6.14h-5.14v11.23h-1.67v-11.23h-5.17v8.94h-1.67v-9.25c-1.21,1.23-2.51,2.39-3.94,3.48l-1.11-1.45
			c3.07-2.27,5.48-4.85,7.25-7.8h-6.45v-1.69h7.37c0.53-1.06,0.97-2.13,1.33-3.24l1.76,0.22c-0.34,1.06-0.72,2.08-1.16,3.02h11.71
			v1.69h-12.56c-0.87,1.59-1.88,3.09-3.04,4.47h5.68v-2.95H781.63z"/>
	</g>
	<g>
		<path style="fill:#020203;" d="M742.55,96.57c-5.34-3.08-9.66-10.56-9.64-16.7c0.01-2.06,0.51-3.7,1.36-4.86
			c-2.36,0.73-3.79,3.37-3.81,7.17c-0.02,6.14,4.3,13.62,9.64,16.7c3.89,2.25,7.24,1.53,8.79-1.39
			C747.2,98.22,744.98,97.97,742.55,96.57z"/>
		<path style="fill:#020203;" d="M740.22,63.82c-5.77-3.33-10.81-3.64-14.58-1.45c1.58-0.92,3.13-1.92,4.78-2.88
			c3.77-2.19,9-1.88,14.76,1.45c11.46,6.62,20.72,22.65,20.68,35.82c-0.01,3.56-0.45,8.26-3.32,12.81l-15.82,24.14l-5.95,3.47
			l18.18-28.67c1.23-2.33,1.93-5.31,1.94-8.87C760.95,86.47,751.68,70.43,740.22,63.82z"/>
	</g>
	<path style="fill:#BE1818;" d="M760.91,99.64c-0.01,3.56-0.71,6.54-1.94,8.87l-18.18,28.67l-18.04-46.54
		c-2.04-6.99-2.56-10.41-2.55-15.22c0.03-13.17,8.57-18.22,20.03-11.6C751.68,70.43,760.95,86.47,760.91,99.64z M740.13,98.77
		c5.34,3.09,9.69,0.61,9.71-5.53c0.02-6.14-4.3-13.62-9.65-16.7c-5.34-3.08-9.68-0.61-9.7,5.54
		C730.47,88.21,734.79,95.69,740.13,98.77L740.13,98.77"/>
</g>
</svg>
