<?xml version="1.0" encoding="utf-8"?>
<!-- Generator: Adobe Illustrator 25.4.1, SVG Export Plug-In . SVG Version: 6.00 Build 0)  -->
<svg version="1.1" id="Layer_1" xmlns="http://www.w3.org/2000/svg" xmlns:xlink="http://www.w3.org/1999/xlink" x="0px" y="0px"
	 width="240.92px" height="102.84px" viewBox="0 0 240.92 102.84" style="enable-background:new 0 0 240.92 102.84;"
	 xml:space="preserve">
<line style="fill:none;stroke:#FFFFFF;stroke-width:1.9531;stroke-miterlimit:10;" x1="0" y1="101.65" x2="240.92" y2="101.65"/>
<g>
	<g>
		<g>
			<g>
				<path style="fill:#FFFFFF;" d="M26.22,71.68c-1.91,0-3.46-1.55-3.46-3.46v-23.8c0-1.91,1.55-3.46,3.46-3.46
					c1.91,0,3.46,1.55,3.46,3.46v23.8C29.68,70.13,28.13,71.68,26.22,71.68z"/>
			</g>
		</g>
		<g>
			<g>
				<g>
					<path style="fill:#FFFFFF;" d="M26.22,48.27c-1.91,0-3.46-1.55-3.46-3.46c0-10.96,8.38-19.88,18.68-19.88
						c1.91,0,3.46,1.55,3.46,3.46c0,1.91-1.55,3.46-3.46,3.46c-6.48,0-11.76,5.81-11.76,12.96C29.68,46.72,28.13,48.27,26.22,48.27z
						"/>
				</g>
			</g>
			<g>
				<g>
					<path style="fill:#FFFFFF;" d="M41.44,84.98c-9.21,0-16.71-8.03-16.71-17.9c0-0.82,0.66-1.48,1.48-1.48
						c0.82,0,1.48,0.66,1.48,1.48c0,8.24,6.16,14.94,13.74,14.94c0.82,0,1.48,0.66,1.48,1.48C42.92,84.31,42.26,84.98,41.44,84.98z"
						/>
				</g>
			</g>
			<g>
				<g>
					<path style="fill:#FFFFFF;" d="M94.36,29.87H41.44c-0.82,0-1.48-0.66-1.48-1.48c0-0.82,0.66-1.48,1.48-1.48h52.92
						c0.82,0,1.48,0.66,1.48,1.48C95.84,29.21,95.18,29.87,94.36,29.87z"/>
				</g>
			</g>
			<g>
				<g>
					<path style="fill:#FFFFFF;" d="M94.36,86.96c-1.91,0-3.46-1.55-3.46-3.46s1.55-3.46,3.46-3.46c6.48,0,11.76-5.81,11.76-12.96
						c0-1.91,1.55-3.46,3.46-3.46c1.91,0,3.46,1.55,3.46,3.46C113.04,78.04,104.66,86.96,94.36,86.96z"/>
				</g>
			</g>
			<g>
				<g>
					<path style="fill:#FFFFFF;" d="M109.58,46.29c-0.82,0-1.48-0.66-1.48-1.48c0-8.24-6.16-14.94-13.74-14.94
						c-0.82,0-1.48-0.66-1.48-1.48c0-0.82,0.66-1.48,1.48-1.48c9.21,0,16.71,8.03,16.71,17.9C111.06,45.63,110.4,46.29,109.58,46.29
						z"/>
				</g>
			</g>
			<g>
				<g>
					<path style="fill:#FFFFFF;" d="M109.58,70.66c-1.91,0-3.46-1.55-3.46-3.46v-22.9c0-1.91,1.55-3.46,3.46-3.46
						c1.91,0,3.46,1.55,3.46,3.46v22.9C113.04,69.11,111.49,70.66,109.58,70.66z"/>
				</g>
			</g>
			<g>
				<g>
					<path style="fill:#FFFFFF;" d="M67.9,25.27c-1.91,0-3.46-1.55-3.46-3.46V3.46C64.43,1.55,65.98,0,67.9,0s3.46,1.55,3.46,3.46
						v18.35C71.36,23.72,69.81,25.27,67.9,25.27z"/>
				</g>
			</g>
			<g>
				<g>
					<path style="fill:#FFFFFF;" d="M104.46,14.3H31.34c-0.82,0-1.48-0.66-1.48-1.48c0-0.82,0.66-1.48,1.48-1.48h73.12
						c0.82,0,1.48,0.66,1.48,1.48C105.94,13.64,105.28,14.3,104.46,14.3z"/>
				</g>
			</g>
			<g>
				<g>
					<path style="fill:#FFFFFF;" d="M67.9,49.53c-0.82,0-1.48-0.66-1.48-1.48c0-0.82,0.66-1.48,1.48-1.48
						c5.84,0,10.6-4.75,10.6-10.6c0-0.82,0.66-1.48,1.48-1.48c0.82,0,1.48,0.66,1.48,1.48C81.46,43.44,75.38,49.53,67.9,49.53z"/>
				</g>
			</g>
			<g>
				<g>
					<path style="fill:#FFFFFF;" d="M67.9,49.53c-7.48,0-13.56-6.09-13.56-13.56c0-0.82,0.66-1.48,1.48-1.48
						c0.82,0,1.48,0.66,1.48,1.48c0,5.84,4.75,10.6,10.6,10.6c0.82,0,1.48,0.66,1.48,1.48C69.38,48.86,68.72,49.53,67.9,49.53z"/>
				</g>
			</g>
			<g>
				<g>
					<path style="fill:#FFFFFF;" d="M85.98,60.53H49.81c-0.82,0-1.48-0.66-1.48-1.48c0-0.82,0.66-1.48,1.48-1.48h36.17
						c0.82,0,1.48,0.66,1.48,1.48C87.47,59.87,86.8,60.53,85.98,60.53z"/>
				</g>
			</g>
			<g>
				<g>
					<path style="fill:#FFFFFF;" d="M85.98,71.86H49.81c-0.82,0-1.48-0.66-1.48-1.48c0-0.82,0.66-1.48,1.48-1.48h36.17
						c0.82,0,1.48,0.66,1.48,1.48C87.47,71.2,86.8,71.86,85.98,71.86z"/>
				</g>
			</g>
			<g>
				<g>
					<path style="fill:#FFFFFF;" d="M67.9,84.98c-1.91,0-3.46-1.55-3.46-3.46V48.69c0-1.91,1.55-3.46,3.46-3.46s3.46,1.55,3.46,3.46
						v32.83C71.36,83.43,69.81,84.98,67.9,84.98z"/>
				</g>
			</g>
		</g>
	</g>
	<path style="fill:#FFFFFF;" d="M205.14,52.02c-2.2,0-4.3,0.45-6.21,1.25c-5.73,2.43-9.76,8.11-9.76,14.72
		c0,8.26,6.28,15.07,14.34,15.89c0.53,0.05,1.08,0.08,1.63,0.08c8.81,0,15.97-7.16,15.97-15.97
		C221.11,59.17,213.95,52.02,205.14,52.02z M205.14,77.67c-5.33,0-9.69-4.33-9.69-9.69c0-5.33,4.35-9.69,9.69-9.69
		c5.36,0,9.69,4.35,9.69,9.69C214.82,73.34,210.49,77.67,205.14,77.67z"/>
	<ellipse style="fill:#FFFFFF;" cx="169.35" cy="67.98" rx="12.71" ry="12.59"/>
	<path style="fill:#FFFFFF;" d="M193.13,51.37c6.78-2.88,11.56-9.59,11.56-17.37c0-10.39-8.48-18.85-18.92-18.85
		S166.85,23.61,166.85,34s8.48,18.85,18.92,18.85C188.37,52.84,190.87,52.32,193.13,51.37z M169.97,34
		c0-8.66,7.08-15.69,15.79-15.69c8.71,0,15.77,7.03,15.77,15.69s-7.06,15.69-15.77,15.69C177.06,49.69,169.97,42.66,169.97,34z"/>
	<path style="fill:#FFFFFF;" d="M203.24,88.11h-31.01c-13.37,0-24.4-10.06-25.75-22.93c0.88-0.58,1.45-1.55,1.45-2.65V34.1
		c0-12.71,10.44-23.05,23.3-23.05h14.54h15.89c1.75,0,3.15-1.4,3.15-3.13c0-1.75-1.4-3.15-3.15-3.15h-30.43
		c-3.95,0-7.78,0.75-11.34,2.2c-3.55,1.45-6.81,3.6-9.59,6.36c-5.56,5.51-8.63,12.79-8.66,20.57c-0.03,0.02-0.03,0.02-0.03,0.05
		v28.58c0,1.23,0.7,2.28,1.73,2.8c0.63,6.63,3.55,12.76,8.36,17.52c5.41,5.38,12.61,8.36,20.27,8.41c0,0,0.02,0,0.05,0h31.21
		c0.88,0,1.58-0.7,1.58-1.58C204.81,88.83,204.11,88.11,203.24,88.11z"/>
</g>
</svg>
