<?xml version="1.0" encoding="utf-8"?>
<!-- Generator: Adobe Illustrator 25.4.1, SVG Export Plug-In . SVG Version: 6.00 Build 0)  -->
<svg version="1.1" id="Layer_1" xmlns="http://www.w3.org/2000/svg" xmlns:xlink="http://www.w3.org/1999/xlink" x="0px" y="0px"
	 width="348.92px" height="107.62px" viewBox="0 0 348.92 107.62" style="enable-background:new 0 0 348.92 107.62;"
	 xml:space="preserve">
<g>
	<g>
		<g>
			<path style="fill:#FFFFFF;" d="M303.61,65.95c0,5.36,4.35,9.69,9.69,9.69c5.36,0,9.69-4.33,9.69-9.69c0-5.33-4.33-9.69-9.69-9.69
				C307.97,56.26,303.61,60.62,303.61,65.95z M297.33,65.95c0-6.61,4.03-12.29,9.76-14.72c1.9-0.8,4-1.25,6.21-1.25
				c8.81,0,15.97,7.16,15.97,15.97s-7.16,15.97-15.97,15.97c-0.55,0-1.1-0.03-1.63-0.08C303.61,81.02,297.33,74.21,297.33,65.95z"/>
		</g>
		<g>
			<ellipse style="fill:#FFFFFF;" cx="277.51" cy="65.95" rx="12.71" ry="12.59"/>
		</g>
		<g>
			<path style="fill:#FFFFFF;" d="M293.93,50.81c-10.44,0-18.92-8.46-18.92-18.85s8.48-18.85,18.92-18.85s18.92,8.46,18.92,18.85
				c0,7.78-4.78,14.49-11.56,17.37C299.03,50.28,296.53,50.81,293.93,50.81z M278.14,31.96c0,8.66,7.08,15.69,15.79,15.69
				c8.71,0,15.77-7.03,15.77-15.69s-7.06-15.69-15.77-15.69S278.14,23.3,278.14,31.96z"/>
		</g>
		<g>
			<path style="fill:#FFFFFF;" d="M254.63,63.14c1.35,12.86,12.39,22.93,25.75,22.93h31.01c0.88,0,1.58,0.73,1.58,1.58
				c0,0.88-0.7,1.58-1.58,1.58h-31.21c-0.03,0-0.05,0-0.05,0c-7.66-0.05-14.87-3.03-20.27-8.41c-4.81-4.76-7.73-10.89-8.36-17.52
				c-1.03-0.53-1.73-1.58-1.73-2.8V31.92c0-0.03,0-0.03,0.03-0.05c0.03-7.78,3.1-15.07,8.66-20.57c2.78-2.75,6.03-4.91,9.59-6.36
				c3.55-1.45,7.38-2.2,11.34-2.2h30.43c1.75,0,3.15,1.4,3.15,3.15c0,1.73-1.4,3.13-3.15,3.13h-15.89h-14.54
				c-12.86,0-23.3,10.34-23.3,23.05V60.5C256.09,61.59,255.51,62.57,254.63,63.14z"/>
		</g>
	</g>
	<g>
		<path style="fill:#FFFFFF;" d="M119.12,35.53c0.59,0,1.06-0.48,1.06-1.06c0-0.59-0.48-1.06-1.06-1.06H78.19V2.76
			c0-1.76-1.43-3.19-3.19-3.19S71.81,1,71.81,2.76v28.53H30.88c-1.76,0-3.19,1.43-3.19,3.19s1.43,3.19,3.19,3.19H75
			c1.39,0,2.55-0.89,2.99-2.13L119.12,35.53C119.12,35.54,119.12,35.53,119.12,35.53z"/>
		<path style="fill:#FFFFFF;" d="M76.1,41.42c-0.59,0-1.06,0.48-1.06,1.06c0,11.75-4.59,22.8-12.93,31.1
			c-8.34,8.31-19.43,12.89-31.23,12.89c-0.59,0-1.06,0.48-1.06,1.06c0,0.59,0.48,1.06,1.06,1.06c12.36,0,23.99-4.8,32.73-13.51
			s13.56-20.29,13.56-32.61C77.16,41.89,76.69,41.42,76.1,41.42z"/>
		<path style="fill:#FFFFFF;" d="M99.92,50.72c-11.52,0-20.86,9.33-20.86,20.83c0,11.51,9.34,20.83,20.86,20.83
			s20.86-9.33,20.86-20.83S111.44,50.72,99.92,50.72z M99.92,86.01c-7.99,0-14.49-6.49-14.49-14.46s6.5-14.46,14.49-14.46
			s14.49,6.49,14.49,14.46S107.91,86.01,99.92,86.01z"/>
	</g>
	<g>
		<path style="fill:#FFFFFF;" d="M198.43,17.47h19c0.53,0,0.95-0.43,0.95-0.95c0-0.53-0.43-0.95-0.95-0.95h-19
			c-0.53,0-0.95,0.43-0.95,0.95C197.48,17.05,197.91,17.47,198.43,17.47z"/>
		<path style="fill:#FFFFFF;" d="M168.03,19.71h24.22c1.76,0,3.19-1.43,3.19-3.19V3.19c0-1.76-1.43-3.19-3.19-3.19
			s-3.19,1.43-3.19,3.19v10.15h-21.03c-1.76,0-3.19,1.43-3.19,3.19C164.84,18.28,166.27,19.71,168.03,19.71z"/>
		<path style="fill:#FFFFFF;" d="M159.58,60.07c-0.59,0-1.06,0.48-1.06,1.06c0,8.69-6.11,15.75-13.62,15.75
			c-0.59,0-1.06,0.48-1.06,1.06S144.32,79,144.9,79c8.68,0,15.74-8.02,15.74-17.88C160.64,60.55,160.17,60.07,159.58,60.07z"/>
		<path style="fill:#FFFFFF;" d="M160.13,48.82h-5.23V36c0-1.47-1.19-2.66-2.66-2.66s-2.66,1.19-2.66,2.66v12.82h-5.23
			c-0.59,0-1.06,0.48-1.06,1.06s0.48,1.06,1.06,1.06h5.23v12.82c0,1.47,1.19,2.66,2.66,2.66s2.66-1.19,2.66-2.66V50.94h5.23
			c0.59,0,1.06-0.48,1.06-1.06S160.71,48.82,160.13,48.82z"/>
		<path style="fill:#FFFFFF;" d="M199.12,29.83h-5.79v-7.2c0-0.57-0.47-1.04-1.04-1.04s-1.04,0.47-1.04,1.04v7.2h-4.9
			c-11.74,0-21.29,10.43-21.29,23.24v35.9c0,1.64,1.33,2.98,2.98,2.98s2.98-1.33,2.98-2.98V70.58h20.24v18.39
			c0,0.57,0.47,1.04,1.04,1.04s1.04-0.47,1.04-1.04V72.38c0.39,0.18,0.82,0.28,1.28,0.28h19.84v16.31c0,1.64,1.33,2.98,2.98,2.98
			s2.98-1.33,2.98-2.98v-35.9C220.41,40.26,210.86,29.83,199.12,29.83z M199.12,35.79c6.67,0,12.34,4.83,14.45,11.55h-18.02
			c-0.87,0-1.65,0.36-2.22,0.93V35.79H199.12z M214.45,66.42h-19.84c-0.46,0-0.89,0.1-1.28,0.28V52.65
			c0.57,0.57,1.35,0.93,2.22,0.93h18.9V66.42L214.45,66.42z M186.34,35.79h4.9v13.63h-19.89C172.86,41.64,179,35.79,186.34,35.79z
			 M171.01,68.5V53.07c0-0.53,0.03-1.06,0.07-1.58h20.17v17L171.01,68.5L171.01,68.5z"/>
		<path style="fill:#FFFFFF;" d="M206.49,12.72c2.82,0,5.1-2.28,5.1-5.1s-2.28-5.1-5.1-5.1s-5.1,2.28-5.1,5.1
			S203.68,12.72,206.49,12.72z"/>
	</g>
</g>
<line style="fill:none;stroke:#FFFFFF;stroke-width:1.953;stroke-miterlimit:10;" x1="2.48" y1="104.11" x2="348.92" y2="104.11"/>
</svg>
