<?xml version="1.0" encoding="utf-8"?>
<!-- Generator: Adobe Illustrator 25.4.1, SVG Export Plug-In . SVG Version: 6.00 Build 0)  -->
<svg version="1.1" id="Layer_1" xmlns="http://www.w3.org/2000/svg" xmlns:xlink="http://www.w3.org/1999/xlink" x="0px" y="0px"
	 width="330.1px" height="99.78px" viewBox="0 0 330.1 99.78" style="enable-background:new 0 0 330.1 99.78;" xml:space="preserve"
	>
<g>
	<path style="fill:#FFFFFF;" d="M100.64,9.01H82.95V3.77c0-1.42-1.15-2.58-2.58-2.58c-1.42,0-2.58,1.15-2.58,2.58v5.23H50.64V3.77
		c0-1.42-1.15-2.58-2.58-2.58s-2.58,1.15-2.58,2.58v5.23H27.79c-0.4,0-0.72,0.32-0.72,0.72c0,0.4,0.32,0.72,0.72,0.72h17.69v5.23
		c0,1.42,1.15,2.58,2.58,2.58s2.58-1.15,2.58-2.58v-5.23h27.15v5.23c0,1.42,1.15,2.58,2.58,2.58c1.42,0,2.58-1.15,2.58-2.58v-5.23
		h17.69c0.4,0,0.72-0.32,0.72-0.72C101.36,9.33,101.04,9.01,100.64,9.01z"/>
	<path style="fill:#FFFFFF;" d="M89.15,20.3c-3.57-0.56-7.15,0.3-10.07,2.43c-2.92,2.13-4.84,5.27-5.4,8.84
		c-0.56,3.57,0.31,7.15,2.44,10.07c2.13,2.92,5.27,4.84,8.85,5.4c0.71,0.11,1.41,0.17,2.11,0.17c6.55,0,12.32-4.77,13.37-11.43v0
		C101.6,28.39,96.53,21.46,89.15,20.3z M95.34,34.97c-0.72,4.56-5.02,7.69-9.58,6.97c-2.21-0.35-4.16-1.53-5.48-3.34
		c-1.32-1.81-1.85-4.02-1.51-6.23c0.35-2.21,1.53-4.15,3.34-5.47c1.45-1.06,3.16-1.61,4.92-1.61c0.44,0,0.88,0.03,1.32,0.1
		C92.92,26.11,96.06,30.41,95.34,34.97L95.34,34.97z"/>
	<path style="fill:#FFFFFF;" d="M97.68,82.6H64.94V70.64h14.15c1.42,0,2.58-1.15,2.58-2.58s-1.15-2.58-2.58-2.58H64.94v-11.1
		c0.84-0.25,1.49-0.9,1.74-1.74h12.44c0.4,0,0.72-0.32,0.72-0.72s-0.32-0.72-0.72-0.72H66.68c-0.31-1.07-1.29-1.85-2.46-1.85H50.94
		c-1.42,0-2.58,1.15-2.58,2.58s1.15,2.58,2.58,2.58h12.55v10.98H49.34c-1.42,0-2.58,1.15-2.58,2.58s1.15,2.58,2.58,2.58h14.15V82.6
		H30.75c-1.42,0-2.58,1.15-2.58,2.58c0,1.42,1.15,2.58,2.58,2.58h66.93c1.42,0,2.58-1.15,2.58-2.58
		C100.26,83.75,99.1,82.6,97.68,82.6z"/>
	<path style="fill:#FFFFFF;" d="M292.55,85.07h-29.83c-14.78,0-27.06-10.66-29.15-24.49c0.7-0.46,1.16-1.25,1.16-2.15V32.37
		c0-15,12.56-27.21,27.99-27.21h29.83c1.42,0,2.58-1.15,2.58-2.58S293.98,0,292.55,0h-29.83c-18.28,0-33.15,14.52-33.15,32.37v26.06
		c0,1.16,0.77,2.12,1.81,2.45c2.24,14.91,15.44,26.4,31.34,26.4h29.83c0.61,0,1.11-0.49,1.11-1.11S293.16,85.07,292.55,85.07z"/>
	<path style="fill:#FFFFFF;" d="M292.5,28.65c0-10.18-8.29-18.46-18.49-18.46c-10.19,0-18.49,8.28-18.49,18.46
		c0,10.18,8.29,18.46,18.49,18.46C284.21,47.11,292.5,38.83,292.5,28.65z M257.74,28.65c0-8.96,7.3-16.25,16.28-16.25
		c8.97,0,16.28,7.29,16.28,16.25s-7.3,16.25-16.28,16.25C265.04,44.9,257.74,37.61,257.74,28.65z"/>
	<path style="fill:#FFFFFF;" d="M294.04,46.95c-9.03,0-16.35,7.31-16.35,16.33s7.32,16.33,16.35,16.33
		c9.03,0,16.35-7.31,16.35-16.33S303.07,46.95,294.04,46.95z M294.04,73.19c-5.48,0-9.94-4.45-9.94-9.91c0-5.47,4.46-9.91,9.94-9.91
		c5.48,0,9.94,4.45,9.94,9.91C303.97,68.74,299.52,73.19,294.04,73.19z"/>
	<ellipse style="fill:#FFFFFF;" cx="257.96" cy="62.86" rx="12.87" ry="12.86"/>
	<path style="fill:#FFFFFF;" d="M64.34,22.76c0-1.42-1.15-2.58-2.58-2.58c-1.42,0-2.58,1.15-2.58,2.58
		c0,9.95-14.38,18.36-31.4,18.36c-1.42,0-2.58,1.15-2.58,2.58c0,1.42,1.15,2.58,2.58,2.58C48.29,46.28,64.34,35.95,64.34,22.76z"/>
	<path style="fill:#FFFFFF;" d="M137.67,17.23c1.62-2.48,1.44-5.86-0.44-8.15c-3.02-3.69-8.67-3.39-11.27,0.59
		c-1.62,2.48-1.44,5.86,0.44,8.16C129.42,21.51,135.07,21.21,137.67,17.23z"/>
	<path style="fill:#FFFFFF;" d="M137.67,42.53c1.62-2.48,1.44-5.86-0.44-8.16c-3.02-3.69-8.67-3.39-11.27,0.59
		c-1.62,2.48-1.44,5.86,0.44,8.16C129.42,46.81,135.07,46.51,137.67,42.53z"/>
	<path style="fill:#FFFFFF;" d="M147.34,69.81c-1.02-6.66-6.39-12.03-13.06-13.05c-5.06-0.78-10.02,0.83-13.6,4.41
		c-3.58,3.58-5.19,8.52-4.41,13.57c1.02,6.66,6.39,12.03,13.06,13.05c0.84,0.13,1.67,0.19,2.5,0.19c4.17,0,8.12-1.62,11.11-4.61
		C146.51,79.8,148.12,74.86,147.34,69.81L147.34,69.81z M138.95,79.41c-2.3,2.3-5.5,3.34-8.78,2.83c-4.2-0.65-7.71-4.16-8.35-8.35
		c-0.5-3.26,0.53-6.44,2.83-8.74c1.92-1.92,4.46-2.96,7.15-2.96c0.54,0,1.08,0.04,1.62,0.12c4.2,0.65,7.71,4.16,8.35,8.35
		c0,0,0,0,0,0C142.28,73.92,141.25,77.11,138.95,79.41z"/>
	<path style="fill:#FFFFFF;" d="M172.28,21.1h14.14c0.33,0,0.59-0.27,0.59-0.59c0-0.33-0.27-0.59-0.59-0.59h-14.14
		c-0.33,0-0.59,0.27-0.59,0.59C171.69,20.83,171.95,21.1,172.28,21.1z"/>
	<path style="fill:#FFFFFF;" d="M172.28,27.13h14.14c0.33,0,0.59-0.27,0.59-0.59s-0.27-0.59-0.59-0.59h-14.14
		c-0.33,0-0.59,0.27-0.59,0.59S171.95,27.13,172.28,27.13z"/>
	<path style="fill:#FFFFFF;" d="M167.01,13.14h11.33c0.42,0,0.75-0.34,0.75-0.75s-0.34-0.75-0.75-0.75h-11.33
		c-0.42,0-0.75,0.34-0.75,0.75S166.59,13.14,167.01,13.14z"/>
	<path style="fill:#FFFFFF;" d="M183.95,15.2h6.65c1.55,0,2.81-1.26,2.81-2.81c0-1.55-1.26-2.81-2.81-2.81h-3.84v-5.8
		c0-1.55-1.26-2.81-2.81-2.81c-1.55,0-2.81,1.26-2.81,2.81v8.61C181.13,13.94,182.39,15.2,183.95,15.2z"/>
	<path style="fill:#FFFFFF;" d="M173.5,34.97c-1.62,2.48-1.44,5.86,0.44,8.16c3.02,3.69,8.67,3.39,11.27-0.59
		c1.62-2.48,1.44-5.86-0.44-8.16C181.75,30.69,176.1,30.99,173.5,34.97z"/>
	<path style="fill:#FFFFFF;" d="M148.69,34.6h13.44c0.62,0,1.13-0.51,1.13-1.13s-0.51-1.13-1.13-1.13h-12.27
		c0.55-6.57,5.84-11.74,12.27-11.74c0.62,0,1.13-0.51,1.13-1.13c0-0.62-0.51-1.13-1.13-1.13c-8.04,0-14.57,6.78-14.57,15.12
		C147.56,34.1,148.07,34.6,148.69,34.6z"/>
	<path style="fill:#FFFFFF;" d="M148.69,21.57c0.62,0,1.13-0.51,1.13-1.13c0-3.15,1.1-6.18,3.1-8.54c2.34-2.75,5.7-4.33,9.21-4.33
		c0.62,0,1.13-0.51,1.13-1.13s-0.51-1.13-1.13-1.13c-4.18,0-8.16,1.87-10.93,5.12c-2.35,2.76-3.64,6.31-3.64,10
		C147.56,21.07,148.07,21.57,148.69,21.57z"/>
	<path style="fill:#FFFFFF;" d="M163.71,41.74c0-1.74-1.41-3.16-3.16-3.16h-11.11c-1.74,0-3.16,1.41-3.16,3.16
		c0,1.74,1.41,3.16,3.16,3.16h11.11C162.3,44.89,163.71,43.48,163.71,41.74z"/>
	<path style="fill:#FFFFFF;" d="M197.54,34.6h13.44c0.62,0,1.13-0.51,1.13-1.13s-0.51-1.13-1.13-1.13h-12.27
		c0.55-6.57,5.84-11.74,12.27-11.74c0.62,0,1.13-0.51,1.13-1.13c0-0.62-0.51-1.13-1.13-1.13c-8.04,0-14.57,6.78-14.57,15.12
		C196.41,34.1,196.91,34.6,197.54,34.6z"/>
	<path style="fill:#FFFFFF;" d="M197.54,21.57c0.62,0,1.13-0.51,1.13-1.13c0-3.15,1.1-6.19,3.1-8.54c2.34-2.75,5.69-4.33,9.21-4.33
		c0.62,0,1.13-0.51,1.13-1.13s-0.51-1.13-1.13-1.13c-4.18,0-8.16,1.87-10.93,5.12c-2.35,2.76-3.64,6.31-3.64,10
		C196.41,21.07,196.91,21.57,197.54,21.57z"/>
	<path style="fill:#FFFFFF;" d="M210.16,38.58h-11.11c-1.74,0-3.16,1.41-3.16,3.16c0,1.74,1.41,3.16,3.16,3.16h11.11
		c1.74,0,3.16-1.41,3.16-3.16C213.31,40,211.9,38.58,210.16,38.58z"/>
	<path style="fill:#FFFFFF;" d="M190.79,64.72h-28.85c-0.44,0-0.79,0.35-0.79,0.79s0.35,0.79,0.79,0.79h28.85
		c4.2,0,7.62-3.6,7.62-8.02s-3.42-8.02-7.62-8.02h-28.85c-0.44,0-0.79,0.35-0.79,0.79c0,0.44,0.35,0.79,0.79,0.79h28.85
		c3.33,0,6.05,2.89,6.05,6.45S194.13,64.72,190.79,64.72z"/>
	<path style="fill:#FFFFFF;" d="M197.72,82.82h-28.85c-2.32,0-4.22-2.07-4.22-4.62c0-1.01-0.58-1.88-1.42-2.32
		c0.87-2.41,3.07-4.13,5.64-4.13h28.85c0.44,0,0.79-0.35,0.79-0.79c0-0.44-0.35-0.79-0.79-0.79h-28.85c-3.34,0-6.19,2.28-7.21,5.44
		c-1.27,0.18-2.24,1.26-2.24,2.58c0,5.43,4.24,9.85,9.45,9.85h28.85c1.45,0,2.62-1.17,2.62-2.62
		C200.34,83.99,199.17,82.82,197.72,82.82z"/>
</g>
<line style="fill:none;stroke:#FFFFFF;stroke-width:1.953;stroke-miterlimit:10;" x1="0" y1="99.78" x2="330.1" y2="99.78"/>
</svg>
