<?xml version="1.0" encoding="utf-8"?>
<!-- Generator: Adobe Illustrator 25.4.1, SVG Export Plug-In . SVG Version: 6.00 Build 0)  -->
<svg version="1.1" id="Layer_1" xmlns="http://www.w3.org/2000/svg" xmlns:xlink="http://www.w3.org/1999/xlink" x="0px" y="0px"
	 width="331.49px" height="102.51px" viewBox="0 0 331.49 102.51" style="enable-background:new 0 0 331.49 102.51;"
	 xml:space="preserve">
<g>
	<g>
		<path style="fill:#FFFFFF;" d="M149.02,0.41h-8.4c-8.12,0-14.72,6.9-14.72,15.37v72.33c0,1.48,1.2,2.68,2.68,2.68
			s2.68-1.2,2.68-2.68V27.18c0.05,0,0.1,0.02,0.15,0.02h11.99c1.43,0,2.61-0.98,2.96-2.3h12.02v10.7h-23.62
			c-1.48,0-2.68,1.2-2.68,2.68c0,1.48,1.2,2.68,2.68,2.68h26.3c1.48,0,2.68-1.2,2.68-2.68V15.78C163.74,7.3,157.13,0.41,149.02,0.41
			z M146.36,23.36c-0.34-1.32-1.53-2.3-2.96-2.3h-11.99c-0.05,0-0.1,0.01-0.15,0.02v-5.3c0-5.52,4.2-10.01,9.36-10.01h8.4
			c5.16,0,9.36,4.49,9.36,10.01v7.58H146.36z"/>
		<path style="fill:#FFFFFF;" d="M188.66,0.41h-8.4c-8.12,0-14.72,6.9-14.72,15.37v22.49c0,1.48,1.2,2.68,2.68,2.68h26.3
			c1.48,0,2.68-1.2,2.68-2.68c0-1.48-1.2-2.68-2.68-2.68H170.9v-8.78h11.89c1.22,0,2.23-0.82,2.56-1.93h12.67v58.61l-4.82-2.76
			c-1.28-0.73-2.92-0.29-3.66,1c-0.74,1.29-0.29,2.92,1,3.66l8.83,5.05c0.41,0.24,0.87,0.35,1.33,0.35c0.46,0,0.93-0.12,1.35-0.36
			c0.83-0.48,1.34-1.36,1.34-2.32V15.78C203.38,7.3,196.78,0.41,188.66,0.41z M185.35,23.37c-0.33-1.11-1.34-1.93-2.56-1.93H170.9
			v-5.67c0-5.52,4.2-10.01,9.36-10.01h8.4c5.16,0,9.36,4.49,9.36,10.01v7.59H185.35z"/>
	</g>
	<g>
		<path style="fill:#FFFFFF;" d="M90.39,30.99c-0.63,0-1.15,0.51-1.15,1.15v19.77c0,4.01-3.21,7.28-7.16,7.28H60.24
			c-0.05-0.09-0.09-0.18-0.14-0.27c0-0.16-0.02-0.32-0.02-0.48V26.27c0-0.63-0.51-1.15-1.15-1.15s-1.15,0.51-1.15,1.15v31.45
			l-21.6-0.09c-0.95,0-1.86-0.28-2.67-0.74c-1.21-1.3-1.96-3.05-1.96-4.98V32.14c0-0.62-0.49-1.12-1.11-1.14
			c-0.41-0.94-1.35-1.6-2.44-1.6c0,0-0.01,0-0.01,0c-1.48,0-2.67,1.19-2.68,2.67l-0.08,19.77c-0.01,2.95,1.12,5.74,3.18,7.85
			c2.07,2.12,4.83,3.3,7.76,3.31l21.7,0.09c0,0,0.01,0,0.01,0c0.1,0,0.19-0.02,0.29-0.03c2.21,14.81,14.8,26.21,30,26.21
			c0.63,0,1.15-0.51,1.15-1.15s-0.51-1.15-1.15-1.15c-14.44,0-26.35-11.12-27.9-25.37c0.02-0.04,0.04-0.07,0.06-0.1h21.78
			c5.21,0,9.45-4.3,9.45-9.58V32.14C91.54,31.5,91.03,30.99,90.39,30.99z"/>
		<path style="fill:#FFFFFF;" d="M26.39,21.93h29.1c0.63,0,1.15-0.51,1.15-1.15s-0.51-1.15-1.15-1.15h-29.1
			c-0.63,0-1.15,0.51-1.15,1.15S25.75,21.93,26.39,21.93z"/>
		<path style="fill:#FFFFFF;" d="M88.92,18.1H63.07V2.68c0-1.48-1.2-2.68-2.68-2.68s-2.68,1.2-2.68,2.68v18.1
			c0,1.48,1.2,2.68,2.68,2.68h28.53c1.48,0,2.68-1.2,2.68-2.68C91.6,19.3,90.4,18.1,88.92,18.1z"/>
	</g>
	<g>
		<g>
			<path style="fill:#FFFFFF;" d="M286.35,66.74c0,5.36,4.35,9.69,9.69,9.69c5.36,0,9.69-4.33,9.69-9.69c0-5.33-4.33-9.69-9.69-9.69
				C290.7,57.05,286.35,61.4,286.35,66.74z M280.07,66.74c0-6.61,4.03-12.29,9.76-14.72c1.9-0.8,4-1.25,6.21-1.25
				c8.81,0,15.97,7.16,15.97,15.97s-7.16,15.97-15.97,15.97c-0.55,0-1.1-0.03-1.63-0.08C286.35,81.8,280.07,75,280.07,66.74z"/>
		</g>
		<g>
			<ellipse style="fill:#FFFFFF;" cx="260.24" cy="66.74" rx="12.71" ry="12.59"/>
		</g>
		<g>
			<path style="fill:#FFFFFF;" d="M276.66,51.59c-10.44,0-18.92-8.46-18.92-18.85s8.48-18.85,18.92-18.85
				c10.44,0,18.92,8.46,18.92,18.85c0,7.78-4.78,14.49-11.56,17.37C281.77,51.07,279.27,51.59,276.66,51.59z M260.87,32.75
				c0,8.66,7.08,15.69,15.79,15.69c8.71,0,15.77-7.03,15.77-15.69s-7.06-15.69-15.77-15.69C267.95,17.05,260.87,24.09,260.87,32.75z
				"/>
		</g>
		<g>
			<path style="fill:#FFFFFF;" d="M237.37,63.93c1.35,12.86,12.39,22.93,25.75,22.93h31.01c0.88,0,1.58,0.73,1.58,1.58
				c0,0.88-0.7,1.58-1.58,1.58h-31.21c-0.03,0-0.05,0-0.05,0c-7.66-0.05-14.87-3.03-20.27-8.41c-4.81-4.76-7.73-10.89-8.36-17.52
				c-1.03-0.53-1.73-1.58-1.73-2.8V32.7c0-0.03,0-0.03,0.03-0.05c0.03-7.78,3.1-15.07,8.66-20.57c2.78-2.75,6.03-4.91,9.59-6.36
				s7.38-2.2,11.34-2.2h30.43c1.75,0,3.15,1.4,3.15,3.15c0,1.73-1.4,3.13-3.15,3.13h-15.89h-14.54c-12.86,0-23.3,10.34-23.3,23.05
				v28.43C238.82,62.38,238.24,63.36,237.37,63.93z"/>
		</g>
	</g>
</g>
<line style="fill:none;stroke:#FFFFFF;stroke-width:1.953;stroke-miterlimit:10;" x1="0" y1="102.51" x2="331.49" y2="102.51"/>
</svg>
