<?xml version="1.0" encoding="utf-8"?>
<!-- Generator: Adobe Illustrator 25.4.1, SVG Export Plug-In . SVG Version: 6.00 Build 0)  -->
<svg version="1.1" id="Layer_1" xmlns="http://www.w3.org/2000/svg" xmlns:xlink="http://www.w3.org/1999/xlink" x="0px" y="0px"
	 width="367.76px" height="103.78px" viewBox="0 0 367.76 103.78" style="enable-background:new 0 0 367.76 103.78;"
	 xml:space="preserve">
<line style="fill:none;stroke:#FFFFFF;stroke-width:1.9531;stroke-miterlimit:10;" x1="0" y1="103.78" x2="367.76" y2="103.78"/>
<g>
	<g>
		<path style="fill:#FFFFFF;" d="M40.74,17.71c1.77-2.7,1.57-6.38-0.48-8.88c-3.29-4.01-9.44-3.69-12.27,0.65
			c-1.77,2.7-1.57,6.38,0.48,8.88C31.75,22.37,37.9,22.05,40.74,17.71z"/>
		<path style="fill:#FFFFFF;" d="M40.74,45.26c1.77-2.7,1.57-6.38-0.48-8.88c-3.29-4.01-9.44-3.69-12.27,0.65
			c-1.77,2.7-1.57,6.38,0.48,8.88C31.75,49.92,37.9,49.59,40.74,45.26z"/>
		<path style="fill:#FFFFFF;" d="M51.27,74.96c-1.11-7.25-6.96-13.1-14.22-14.21c-5.51-0.85-10.91,0.9-14.81,4.81
			c-3.9,3.89-5.65,9.28-4.8,14.77c1.11,7.25,6.96,13.09,14.22,14.21c0.91,0.14,1.82,0.21,2.72,0.21c4.54,0,8.84-1.76,12.09-5.01
			C50.36,85.84,52.11,80.45,51.27,74.96L51.27,74.96z M42.13,85.4c-2.51,2.51-5.99,3.63-9.55,3.08c-4.57-0.7-8.4-4.53-9.1-9.09
			c-0.54-3.55,0.58-7.02,3.08-9.52c2.09-2.09,4.86-3.22,7.79-3.22c0.58,0,1.17,0.05,1.76,0.14c4.57,0.7,8.4,4.53,9.1,9.09
			c0,0,0,0,0,0C45.76,79.43,44.63,82.9,42.13,85.4z"/>
		<path style="fill:#FFFFFF;" d="M78.42,21.92h15.4c0.36,0,0.64-0.29,0.64-0.64s-0.29-0.64-0.64-0.64h-15.4
			c-0.36,0-0.64,0.29-0.64,0.64S78.06,21.92,78.42,21.92z"/>
		<path style="fill:#FFFFFF;" d="M78.42,28.49h15.4c0.36,0,0.64-0.29,0.64-0.64s-0.29-0.64-0.64-0.64h-15.4
			c-0.36,0-0.64,0.29-0.64,0.64S78.06,28.49,78.42,28.49z"/>
		<path style="fill:#FFFFFF;" d="M72.68,13.26h12.34c0.45,0,0.82-0.37,0.82-0.82s-0.37-0.82-0.82-0.82H72.68
			c-0.45,0-0.82,0.37-0.82,0.82S72.23,13.26,72.68,13.26z"/>
		<path style="fill:#FFFFFF;" d="M91.12,15.5h7.24c1.69,0,3.06-1.37,3.06-3.06c0-1.69-1.37-3.06-3.06-3.06h-4.18V3.06
			c0-1.69-1.37-3.06-3.06-3.06c-1.69,0-3.06,1.37-3.06,3.06v9.38C88.06,14.13,89.43,15.5,91.12,15.5z"/>
		<path style="fill:#FFFFFF;" d="M79.74,37.02c-1.77,2.7-1.57,6.38,0.48,8.88c3.29,4.01,9.44,3.69,12.27-0.65
			c1.77-2.7,1.57-6.38-0.48-8.88C88.72,32.36,82.58,32.69,79.74,37.02z"/>
		<path style="fill:#FFFFFF;" d="M52.73,36.62h14.64c0.68,0,1.23-0.55,1.23-1.23c0-0.68-0.55-1.23-1.23-1.23H54.01
			c0.6-7.15,6.36-12.78,13.36-12.78c0.68,0,1.23-0.55,1.23-1.23s-0.55-1.23-1.23-1.23c-8.75,0-15.87,7.39-15.87,16.46
			C51.5,36.07,52.05,36.62,52.73,36.62z"/>
		<path style="fill:#FFFFFF;" d="M52.73,22.44c0.68,0,1.23-0.55,1.23-1.23c0-3.43,1.2-6.73,3.38-9.3c2.55-2.99,6.2-4.71,10.03-4.71
			c0.68,0,1.23-0.55,1.23-1.23s-0.55-1.23-1.23-1.23c-4.55,0-8.89,2.03-11.9,5.57c-2.56,3.01-3.97,6.87-3.97,10.89
			C51.5,21.89,52.05,22.44,52.73,22.44z"/>
		<path style="fill:#FFFFFF;" d="M69.09,44.39c0-1.9-1.54-3.44-3.44-3.44H53.56c-1.9,0-3.44,1.54-3.44,3.44
			c0,1.9,1.54,3.44,3.44,3.44h12.09C67.55,47.83,69.09,46.29,69.09,44.39z"/>
		<path style="fill:#FFFFFF;" d="M105.91,36.62h14.64c0.68,0,1.23-0.55,1.23-1.23c0-0.68-0.55-1.23-1.23-1.23h-13.36
			c0.6-7.15,6.36-12.78,13.36-12.78c0.68,0,1.23-0.55,1.23-1.23s-0.55-1.23-1.23-1.23c-8.75,0-15.87,7.39-15.87,16.46
			C104.68,36.07,105.23,36.62,105.91,36.62z"/>
		<path style="fill:#FFFFFF;" d="M105.91,22.44c0.68,0,1.23-0.55,1.23-1.23c0-3.43,1.2-6.73,3.38-9.3c2.54-2.99,6.2-4.71,10.03-4.71
			c0.68,0,1.23-0.55,1.23-1.23s-0.55-1.23-1.23-1.23c-4.55,0-8.89,2.03-11.9,5.57c-2.56,3.01-3.97,6.87-3.97,10.89
			C104.68,21.89,105.23,22.44,105.91,22.44z"/>
		<path style="fill:#FFFFFF;" d="M119.66,40.96h-12.09c-1.9,0-3.44,1.54-3.44,3.44c0,1.9,1.54,3.44,3.44,3.44h12.09
			c1.9,0,3.44-1.54,3.44-3.44C123.09,42.5,121.55,40.96,119.66,40.96z"/>
		<path style="fill:#FFFFFF;" d="M98.57,69.41H67.16c-0.47,0-0.86,0.38-0.86,0.86s0.38,0.86,0.86,0.86h31.41
			c4.58,0,8.3-3.92,8.3-8.74s-3.72-8.74-8.3-8.74H67.16c-0.47,0-0.86,0.38-0.86,0.86c0,0.47,0.38,0.86,0.86,0.86h31.41
			c3.63,0,6.58,3.15,6.58,7.02S102.2,69.41,98.57,69.41z"/>
		<path style="fill:#FFFFFF;" d="M106.12,89.12H74.71c-2.53,0-4.59-2.25-4.59-5.03c0-1.1-0.63-2.05-1.55-2.52
			c0.95-2.63,3.34-4.5,6.14-4.5h31.41c0.47,0,0.86-0.38,0.86-0.86c0-0.47-0.38-0.86-0.86-0.86H74.71c-3.64,0-6.74,2.49-7.85,5.93
			c-1.38,0.2-2.44,1.38-2.44,2.81c0,5.92,4.62,10.73,10.29,10.73h31.41c1.57,0,2.85-1.28,2.85-2.85
			C108.97,90.4,107.69,89.12,106.12,89.12z"/>
	</g>
	<g>
		<path style="fill:#FFFFFF;" d="M170.89,2.08c-1.67-0.65-3.56,0.18-4.21,1.86l-19.41,50.09c-0.31,0.81-0.29,1.72,0.07,2.51
			c0.36,0.79,1.02,1.41,1.83,1.71l19.1,7.07v30.38c0,0.8,0.65,1.44,1.44,1.44c0.8,0,1.44-0.65,1.44-1.44v-30.4
			c0.72-0.36,1.3-0.97,1.6-1.78c0.62-1.68-0.24-3.55-1.92-4.18l-16.32-6.04l18.22-47.01C173.39,4.61,172.56,2.72,170.89,2.08z"/>
		<path style="fill:#FFFFFF;" d="M226.17,61.35h-15.07V43.49c0-0.03-0.01-0.06-0.01-0.09c5.91-4.13,9.78-10.97,9.78-18.7
			c0-12.57-10.23-22.8-22.8-22.8c-1.59,0-2.87,1.29-2.87,2.87s1.29,2.87,2.87,2.87c9.41,0,17.06,7.65,17.06,17.06
			c0,9.41-7.65,17.06-17.06,17.06c-1.59,0-2.87,1.29-2.87,2.87c0,1.59,1.29,2.87,2.87,2.87c2.91,0,5.69-0.55,8.25-1.55v15.4h-15.08
			c-0.53,0-0.96,0.43-0.96,0.96c0,0.53,0.43,0.96,0.96,0.96h15.08v30.52c-0.17-0.27-0.46-0.46-0.8-0.46c-2.84,0-4.96-0.9-6.46-2.76
			c-4.14-5.13-1.95-15.67-1.92-15.78c0.11-0.52-0.22-1.03-0.73-1.14c-0.52-0.11-1.03,0.22-1.14,0.73c-0.1,0.47-2.41,11.54,2.3,17.38
			c1.86,2.3,4.53,3.47,7.95,3.47c0.38,0,0.7-0.23,0.86-0.55c0.24,1.07,1.19,1.88,2.33,1.88c1.32,0,2.39-1.07,2.39-2.39V63.26h15.07
			c0.53,0,0.96-0.43,0.96-0.96C227.12,61.78,226.7,61.35,226.17,61.35z"/>
	</g>
	<g>
		<path style="fill:#FFFFFF;" d="M331.51,51.77c-2.2,0-4.3,0.45-6.21,1.25c-5.73,2.43-9.76,8.11-9.76,14.72
			c0,8.26,6.28,15.07,14.34,15.89c0.53,0.05,1.08,0.07,1.63,0.07c8.81,0,15.97-7.16,15.97-15.97
			C347.48,58.93,340.32,51.77,331.51,51.77z M331.51,77.42c-5.33,0-9.69-4.33-9.69-9.69c0-5.33,4.35-9.69,9.69-9.69
			c5.36,0,9.69,4.35,9.69,9.69C341.19,73.09,336.86,77.42,331.51,77.42z"/>
		<ellipse style="fill:#FFFFFF;" cx="295.72" cy="67.74" rx="12.71" ry="12.59"/>
		<path style="fill:#FFFFFF;" d="M319.49,51.12c6.78-2.88,11.56-9.59,11.56-17.37c0-10.39-8.48-18.85-18.92-18.85
			s-18.92,8.46-18.92,18.85s8.48,18.85,18.92,18.85C314.74,52.59,317.24,52.07,319.49,51.12z M296.34,33.75
			c0-8.66,7.08-15.69,15.79-15.69c8.71,0,15.77,7.03,15.77,15.69s-7.06,15.69-15.77,15.69C303.42,49.44,296.34,42.41,296.34,33.75z"
			/>
		<path style="fill:#FFFFFF;" d="M329.6,87.86h-31.01c-13.37,0-24.4-10.06-25.75-22.93c0.88-0.58,1.45-1.55,1.45-2.65V33.85
			c0-12.71,10.44-23.05,23.3-23.05h14.54h15.89c1.75,0,3.15-1.4,3.15-3.13c0-1.75-1.4-3.15-3.15-3.15h-30.43
			c-3.95,0-7.78,0.75-11.34,2.2c-3.55,1.45-6.81,3.6-9.59,6.36c-5.56,5.51-8.63,12.79-8.66,20.57c-0.03,0.02-0.03,0.02-0.03,0.05
			v28.58c0,1.23,0.7,2.28,1.73,2.8c0.63,6.63,3.55,12.76,8.36,17.52c5.41,5.38,12.61,8.36,20.27,8.41c0,0,0.03,0,0.05,0h31.21
			c0.88,0,1.58-0.7,1.58-1.58C331.18,88.58,330.48,87.86,329.6,87.86z"/>
	</g>
</g>
</svg>
