<?xml version="1.0" encoding="utf-8"?>
<!-- Generator: Adobe Illustrator 25.4.1, SVG Export Plug-In . SVG Version: 6.00 Build 0)  -->
<svg version="1.1" id="Layer_1" xmlns="http://www.w3.org/2000/svg" xmlns:xlink="http://www.w3.org/1999/xlink" x="0px" y="0px"
	 width="466.21px" height="113.79px" viewBox="0 0 466.21 113.79" style="enable-background:new 0 0 466.21 113.79;"
	 xml:space="preserve">
<line style="fill:none;stroke:#FFFFFF;stroke-width:1.953;stroke-miterlimit:10;" x1="0" y1="100.35" x2="466.21" y2="100.35"/>
<g>
	<path style="fill:#FFFFFF;" d="M114.02,29.36H88.03c0.02-0.15,0.04-0.29,0.04-0.44V16.33h12.24c0.75,0,1.35-0.61,1.35-1.35
		s-0.61-1.35-1.35-1.35H88.07V5.31c0-1.68-1.37-3.05-3.05-3.05s-3.05,1.37-3.05,3.05v8.31H55.7V5.31c0-1.68-1.37-3.05-3.05-3.05
		S49.6,3.63,49.6,5.31v8.31H37.37c-0.75,0-1.35,0.61-1.35,1.35s0.61,1.35,1.35,1.35H49.6v12.58c0,0.15,0.02,0.3,0.04,0.44H24.11
		c-0.75,0-1.35,0.61-1.35,1.35s0.61,1.35,1.35,1.35h89.92c0.75,0,1.35-0.61,1.35-1.35S114.77,29.36,114.02,29.36z M55.7,28.91V16.33
		h26.28v12.58c0,0.15,0.02,0.3,0.04,0.44H55.65C55.67,29.21,55.7,29.06,55.7,28.91z"/>
	<path style="fill:#FFFFFF;" d="M100.53,69.9V51.59c0.94-0.52,1.59-1.51,1.59-2.66c0-6.35-5.16-11.51-11.51-11.51
		c-1.19,0-2.22,0.69-2.72,1.69h-38.1c-0.5-1-1.52-1.69-2.72-1.69c-6.35,0-11.51,5.16-11.51,11.51c0,1.24,0.74,2.3,1.8,2.78v18.2
		c0,4.88,3.58,8.92,8.25,9.68l-8.31,7.8c-1.23,1.15-1.29,3.08-0.14,4.31c0.6,0.64,1.41,0.96,2.22,0.96c0.75,0,1.5-0.27,2.09-0.83
		l11.02-10.34c0.52-0.49,0.82-1.11,0.91-1.76h31.47c0.1,0.65,0.4,1.28,0.91,1.76l11.02,10.34c0.59,0.55,1.34,0.83,2.09,0.83
		c0.81,0,1.62-0.32,2.22-0.96c1.15-1.23,1.09-3.16-0.14-4.31l-8.37-7.85C97.12,78.64,100.53,74.66,100.53,69.9z M40.07,51.59
		c0.94-0.52,1.59-1.51,1.59-2.66c0-2.98,2.43-5.41,5.41-5.41c1.19,0,2.22-0.69,2.72-1.69h15.9v15.56H40.07V51.59z M72.66,41.82
		h15.23c0.5,1,1.52,1.69,2.72,1.69c2.98,0,5.41,2.43,5.41,5.41c0,1.24,0.74,2.3,1.8,2.78v5.68H72.66V41.82z M40.07,69.9v-9.81h25.62
		v16.92H52.44c-1.15-1.04-2.92-1.06-4.08,0h-1.18C43.26,77.01,40.07,73.82,40.07,69.9z M90.71,77.01h-0.78
		c-1.17-1.06-2.93-1.04-4.08,0H72.66V60.09h25.16v9.81C97.82,73.82,94.63,77.01,90.71,77.01z"/>
	<path style="fill:#FFFFFF;" d="M226.41,88.17c-0.12-0.01-12.2-1.08-24.09-7.06c-13.46-6.77-21.22-16.81-23.17-29.87
		c0.76-0.59,1.26-1.51,1.26-2.54V33h38.96c0.8,0,1.44-0.64,1.44-1.44s-0.64-1.44-1.44-1.44h-38.96V4.87c0-1.79-1.45-3.24-3.24-3.24
		s-3.24,1.45-3.24,3.24v23.45h-40.8c-1.79,0-3.24,1.45-3.24,3.24s1.45,3.24,3.24,3.24h40.8v13.9c0,0.97,0.43,1.83,1.1,2.42
		c-1.92,13.13-9.68,23.21-23.19,30c-11.88,5.98-23.97,7.05-24.09,7.06c-0.79,0.07-1.38,0.76-1.32,1.55
		c0.06,0.75,0.69,1.32,1.43,1.32c0.04,0,0.08,0,0.12,0c0.46-0.04,41.2-3.81,49.09-35.43c7.88,31.62,48.63,35.39,49.09,35.43
		c0.04,0,0.08,0,0.12,0c0.74,0,1.37-0.57,1.43-1.32C227.79,88.93,227.2,88.23,226.41,88.17z"/>
	<path style="fill:#FFFFFF;" d="M335.21,31.87c-1.71,0-3.1,1.39-3.1,3.1v15.27H312V10.94c0-1.71-1.39-3.1-3.1-3.1s-3.1,1.39-3.1,3.1
		v41.98c0,1.71,1.39,3.1,3.1,3.1c1.69,0,3.06-1.35,3.1-3.04h20.11v23.96c0,1.71,1.39,3.1,3.1,3.1s3.1-1.39,3.1-3.1V34.97
		C338.31,33.26,336.92,31.87,335.21,31.87z"/>
	<path style="fill:#FFFFFF;" d="M267.68,0.21c-1.6-0.62-3.4,0.17-4.02,1.77l-18.54,47.83c-0.3,0.77-0.28,1.64,0.06,2.4
		s0.97,1.35,1.75,1.64l18.23,6.75V89.6c0,0.76,0.62,1.38,1.38,1.38s1.38-0.62,1.38-1.38V60.57c0.68-0.34,1.24-0.93,1.53-1.7
		c0.6-1.61-0.23-3.39-1.83-3.99l-15.58-5.77l17.4-44.89C270.07,2.63,269.28,0.83,267.68,0.21z"/>
	<path style="fill:#FFFFFF;" d="M308.9,65.57h-23.22V26.51c0-1.71-1.39-3.1-3.1-3.1s-3.1,1.39-3.1,3.1v41.98
		c0,1.71,1.39,3.1,3.1,3.1s3.1-1.39,3.1-3.1v-0.16h23.22c0.76,0,1.38-0.62,1.38-1.38S309.66,65.57,308.9,65.57z"/>
	<path style="fill:#FFFFFF;" d="M430.41,50.36c-2.2,0-4.3,0.45-6.21,1.25c-5.73,2.43-9.76,8.11-9.76,14.72
		c0,8.26,6.28,15.07,14.34,15.89c0.53,0.05,1.08,0.08,1.63,0.08c8.81,0,15.97-7.16,15.97-15.97
		C446.38,57.52,439.22,50.36,430.41,50.36z M430.41,76.01c-5.33,0-9.69-4.33-9.69-9.69c0-5.33,4.35-9.69,9.69-9.69
		c5.36,0,9.69,4.35,9.69,9.69C440.1,71.68,435.77,76.01,430.41,76.01z"/>
	<ellipse style="fill:#FFFFFF;" cx="394.62" cy="66.33" rx="12.71" ry="12.59"/>
	<path style="fill:#FFFFFF;" d="M418.4,49.71c6.78-2.88,11.56-9.59,11.56-17.37c0-10.39-8.48-18.85-18.92-18.85
		s-18.92,8.46-18.92,18.85s8.48,18.85,18.92,18.85C413.64,51.18,416.14,50.66,418.4,49.71z M395.25,32.34
		c0-8.66,7.08-15.69,15.79-15.69c8.71,0,15.77,7.03,15.77,15.69s-7.06,15.69-15.77,15.69C402.33,48.03,395.25,41,395.25,32.34z"/>
	<path style="fill:#FFFFFF;" d="M428.51,86.45H397.5c-13.37,0-24.4-10.06-25.75-22.93c0.88-0.58,1.45-1.55,1.45-2.65V32.44
		c0-12.71,10.44-23.05,23.3-23.05h14.54h15.89c1.75,0,3.15-1.4,3.15-3.13c0-1.75-1.4-3.15-3.15-3.15H396.5
		c-3.95,0-7.78,0.75-11.34,2.2c-3.55,1.45-6.81,3.6-9.59,6.36c-5.56,5.51-8.63,12.79-8.66,20.57c-0.03,0.02-0.03,0.02-0.03,0.05
		v28.58c0,1.23,0.7,2.28,1.73,2.8c0.63,6.63,3.55,12.76,8.36,17.52c5.41,5.38,12.61,8.36,20.27,8.41c0,0,0.02,0,0.05,0h31.21
		c0.88,0,1.58-0.7,1.58-1.58C430.09,87.17,429.38,86.45,428.51,86.45z"/>
</g>
</svg>
