<?xml version="1.0" encoding="utf-8"?>
<!-- Generator: Adobe Illustrator 25.4.1, SVG Export Plug-In . SVG Version: 6.00 Build 0)  -->
<svg version="1.1" id="Layer_1" xmlns="http://www.w3.org/2000/svg" xmlns:xlink="http://www.w3.org/1999/xlink" x="0px" y="0px"
	 width="476.35px" height="125.17px" viewBox="0 0 476.35 125.17" style="enable-background:new 0 0 476.35 125.17;"
	 xml:space="preserve">
<g>
	<g>
		<g>
			<path style="fill:#FFFFFF;" d="M430.85,79.68c0,5.36,4.35,9.69,9.69,9.69c5.36,0,9.69-4.33,9.69-9.69c0-5.33-4.33-9.69-9.69-9.69
				C435.2,69.99,430.85,74.34,430.85,79.68z M424.57,79.68c0-6.61,4.03-12.29,9.76-14.72c1.9-0.8,4-1.25,6.21-1.25
				c8.81,0,15.97,7.16,15.97,15.97s-7.16,15.97-15.97,15.97c-0.55,0-1.1-0.03-1.63-0.08C430.85,94.74,424.57,87.93,424.57,79.68z"/>
		</g>
		<g>
			<ellipse style="fill:#FFFFFF;" cx="404.74" cy="79.68" rx="12.71" ry="12.59"/>
		</g>
		<g>
			<path style="fill:#FFFFFF;" d="M421.16,64.53c-10.44,0-18.92-8.46-18.92-18.85s8.48-18.85,18.92-18.85
				c10.44,0,18.92,8.46,18.92,18.85c0,7.78-4.78,14.49-11.56,17.37C426.27,64.01,423.77,64.53,421.16,64.53z M405.37,45.69
				c0,8.66,7.08,15.69,15.79,15.69s15.77-7.03,15.77-15.69s-7.06-15.69-15.77-15.69S405.37,37.03,405.37,45.69z"/>
		</g>
		<g>
			<path style="fill:#FFFFFF;" d="M381.87,76.87c1.35,12.86,12.39,22.93,25.75,22.93h31.01c0.88,0,1.58,0.73,1.58,1.58
				c0,0.88-0.7,1.58-1.58,1.58h-31.21c-0.03,0-0.05,0-0.05,0c-7.66-0.05-14.87-3.03-20.27-8.41c-4.81-4.76-7.73-10.89-8.36-17.52
				c-1.03-0.53-1.73-1.58-1.73-2.8V45.64c0-0.03,0-0.03,0.03-0.05c0.03-7.78,3.1-15.07,8.66-20.57c2.78-2.75,6.03-4.91,9.59-6.36
				c3.55-1.45,7.38-2.2,11.34-2.2h30.43c1.75,0,3.15,1.4,3.15,3.15c0,1.73-1.4,3.13-3.15,3.13h-15.89h-14.54
				c-12.86,0-23.3,10.34-23.3,23.05v28.43C383.32,75.32,382.74,76.3,381.87,76.87z"/>
		</g>
	</g>
	<g>
		<path style="fill:#FFFFFF;" d="M108.45,30.57V13.33c0-1.59-1.29-2.87-2.87-2.87s-2.87,1.29-2.87,2.87v17.24
			c-19.22,1.46-34.38,17.36-34.38,36.8c0,20.4,16.68,36.94,37.25,36.94s37.25-16.54,37.25-36.94
			C142.83,47.93,127.68,32.03,108.45,30.57z M137.03,66.41h-28.58v-30.1C124.16,37.73,136.55,50.61,137.03,66.41z M102.71,36.31
			v30.1H74.13C74.61,50.61,87,37.73,102.71,36.31z M74.13,68.33h28.58v30.1C87,97.01,74.61,84.13,74.13,68.33z M108.45,98.42v-30.1
			h28.58C136.55,84.13,124.16,97.01,108.45,98.42z"/>
		<path style="fill:#FFFFFF;" d="M51.19,29.28c1.99-3.04,1.76-7.18-0.54-9.99c-3.7-4.52-10.62-4.15-13.81,0.73
			c-1.99,3.04-1.76,7.18,0.54,9.99C41.07,34.52,47.99,34.16,51.19,29.28z"/>
		<path style="fill:#FFFFFF;" d="M51.19,53.89c1.99-3.04,1.76-7.18-0.54-9.99c-3.7-4.52-10.62-4.15-13.81,0.73
			c-1.99,3.04-1.76,7.18,0.54,9.99C41.07,59.14,47.99,58.77,51.19,53.89z"/>
		<path style="fill:#FFFFFF;" d="M46.98,65.86c-6.05-0.92-11.98,0.99-16.27,5.28c-4.28,4.28-6.2,10.19-5.27,16.22
			c1.22,7.96,7.64,14.38,15.6,15.6c1,0.15,2,0.23,2.99,0.23c4.98,0,9.7-1.93,13.28-5.51c4.28-4.28,6.2-10.19,5.27-16.22
			C61.36,73.5,54.94,67.08,46.98,65.86z M53.1,93.47c-2.93,2.93-7,4.25-11.16,3.6c-5.34-0.82-9.81-5.29-10.63-10.62
			c-0.64-4.14,0.68-8.19,3.6-11.12c2.44-2.44,5.68-3.76,9.1-3.76c0.68,0,1.37,0.05,2.06,0.16c5.34,0.82,9.81,5.29,10.63,10.62
			C57.34,86.5,56.03,90.55,53.1,93.47z"/>
	</g>
	<g>
		<path style="fill:#FFFFFF;" d="M179.65,46.57c0.7,0,1.27-0.57,1.27-1.27c0-9.5,9.03-17.35,20.66-18.51v13.93
			c0,1.64,1.33,2.97,2.97,2.97s2.97-1.33,2.97-2.97V26.79c11.63,1.16,20.66,9.01,20.66,18.51c0,0.7,0.57,1.27,1.27,1.27
			c0.7,0,1.27-0.57,1.27-1.27c0-10.88-10.17-19.87-23.21-21.07V2.97c0-1.64-1.33-2.97-2.97-2.97s-2.97,1.33-2.97,2.97v21.25
			c-13.04,1.2-23.21,10.19-23.21,21.07C178.37,46,178.94,46.57,179.65,46.57z"/>
		<path style="fill:#FFFFFF;" d="M230.91,73.21c-8.26,0-14.99,6.38-14.99,14.23s6.72,14.24,14.99,14.24
			c8.26,0,14.99-6.39,14.99-14.24S239.17,73.21,230.91,73.21z M230.91,95.73c-4.98,0-9.04-3.72-9.04-8.29
			c0-4.57,4.06-8.29,9.04-8.29c4.98,0,9.04,3.72,9.04,8.29C239.95,92.01,235.89,95.73,230.91,95.73z"/>
		<path style="fill:#FFFFFF;" d="M205.83,66.76v-2.9h38.75c0.7,0,1.27-0.57,1.27-1.27c0-0.7-0.57-1.27-1.27-1.27h-38.75v-10
			c0-0.7-0.57-1.27-1.27-1.27s-1.27,0.57-1.27,1.27v10h-10.77c-0.48-1-1.49-1.7-2.68-1.7h-21.26c-1.64,0-2.97,1.33-2.97,2.97
			s1.33,2.97,2.97,2.97h21.26c1.18,0,2.2-0.7,2.68-1.7h10.77v2.9c-1,0.48-1.7,1.49-1.7,2.68c0,23.11-18.75,26.08-35.08,26.08
			c-1.64,0-2.97,1.33-2.97,2.97c0,1.64,1.33,2.97,2.97,2.97c10.15,0,41.02,0,41.02-32.02C207.53,68.25,206.83,67.24,205.83,66.76z"
			/>
	</g>
	<g>
		<path style="fill:#FFFFFF;" d="M291.88,53.52c0-11.54-4.6-20.25-10.71-20.25h-5.64c-6.1,0-10.71,8.7-10.71,20.25v31.21
			c0,1.45,1.18,2.63,2.63,2.63h21.79c1.45,0,2.63-1.18,2.63-2.63V53.52z M275.54,38.54h5.64c2.17,0,5.45,5.98,5.45,14.98v7.45h-6.54
			c-0.48-1-1.49-1.7-2.68-1.7h-7.32v-5.75C270.09,44.51,273.37,38.54,275.54,38.54z M270.09,82.1V65.22h7.32
			c1.18,0,2.2-0.7,2.68-1.7h6.54V82.1H270.09z"/>
		<path style="fill:#FFFFFF;" d="M323.93,22.43h28.03c1.64,0,2.97-1.33,2.97-2.97s-1.33-2.97-2.97-2.97h-57.74
			c-1.64,0-2.97,1.33-2.97,2.97s1.33,2.97,2.97,2.97h27.16v39.08h-23.5c-0.7,0-1.27,0.57-1.27,1.27c0,0.7,0.57,1.27,1.27,1.27h23.5
			v33.45h-27.16c-1.64,0-2.97,1.33-2.97,2.97c0,1.64,1.33,2.97,2.97,2.97h57.74c1.64,0,2.97-1.33,2.97-2.97
			c0-1.64-1.33-2.97-2.97-2.97h-28.03V64.06h1.94c0.48,1,1.49,1.7,2.68,1.7h18.89c1.64,0,2.97-1.33,2.97-2.97
			c0-1.64-1.33-2.97-2.97-2.97h-18.89c-1.18,0-2.2,0.7-2.68,1.7h-1.94V22.43z"/>
	</g>
</g>
<line style="fill:none;stroke:#FFFFFF;stroke-width:1.953;stroke-miterlimit:10;" x1="0" y1="116.03" x2="476.35" y2="116.03"/>
</svg>
