<?xml version="1.0" encoding="utf-8"?>
<!-- Generator: Adobe Illustrator 25.4.1, SVG Export Plug-In . SVG Version: 6.00 Build 0)  -->
<svg version="1.1" id="Layer_1" xmlns="http://www.w3.org/2000/svg" xmlns:xlink="http://www.w3.org/1999/xlink" x="0px" y="0px"
	 width="304.82px" height="101.37px" viewBox="0 0 304.82 101.37" style="enable-background:new 0 0 304.82 101.37;"
	 xml:space="preserve">
<g>
	<path style="fill:#FFFFFF;" d="M265.95,83.81h-29.03c-14.39,0-26.33-10.37-28.36-23.83c0.68-0.45,1.12-1.22,1.12-2.09V32.54
		c0-14.6,12.22-26.48,27.24-26.48h29.03c1.39,0,2.51-1.12,2.51-2.51s-1.12-2.51-2.51-2.51h-29.03c-17.79,0-32.26,14.13-32.26,31.49
		v25.36c0,1.12,0.74,2.06,1.76,2.38c2.18,14.51,15.02,25.69,30.49,25.69h29.03c0.59,0,1.08-0.48,1.08-1.08
		C267.03,84.3,266.54,83.81,265.95,83.81z"/>
	<path style="fill:#FFFFFF;" d="M265.9,28.92c0-9.91-8.07-17.97-17.99-17.97c-9.92,0-17.99,8.06-17.99,17.97
		c0,9.91,8.07,17.96,17.99,17.96C257.83,46.88,265.9,38.82,265.9,28.92z M232.08,28.92c0-8.72,7.1-15.81,15.84-15.81
		s15.84,7.09,15.84,15.81s-7.1,15.81-15.84,15.81S232.08,37.64,232.08,28.92z"/>
	<path style="fill:#FFFFFF;" d="M267.39,46.72c-8.79,0-15.91,7.11-15.91,15.89c0,8.78,7.12,15.89,15.91,15.89
		s15.91-7.11,15.91-15.89C283.3,53.83,276.18,46.72,267.39,46.72z M267.39,72.26c-5.33,0-9.67-4.33-9.67-9.65s4.34-9.65,9.67-9.65
		s9.67,4.33,9.67,9.65S272.72,72.26,267.39,72.26z"/>
	<ellipse style="fill:#FFFFFF;" cx="232.3" cy="62.2" rx="12.53" ry="12.51"/>
	<path style="fill:#FFFFFF;" d="M142.02,8.42c-0.48-4.75-3.8-8.43-7.84-8.43c-4.03,0-7.36,3.68-7.84,8.43
		c-5.7,1.76-9.87,7.27-9.87,13.79v62.02c0,0.91,0.49,1.75,1.29,2.19c0.38,0.21,0.8,0.32,1.22,0.32c0.46,0,0.92-0.13,1.32-0.37
		l11.05-6.83c0.01-0.01,0.02-0.01,0.03-0.02c1.23,1.24,2.78,2.13,4.52,2.56c0.77,0.19,1.55,0.28,2.32,0.28
		c1.73,0,3.44-0.47,4.96-1.39c2.2-1.33,3.75-3.43,4.36-5.93s0.22-5.08-1.11-7.27c-1.33-2.2-3.44-3.74-5.93-4.36
		c-2.5-0.61-5.08-0.22-7.28,1.11c-2.2,1.33-3.75,3.43-4.36,5.93c-0.39,1.58-0.37,3.2,0.04,4.74c-0.06,0.03-0.12,0.05-0.17,0.08
		l-7.23,4.47v-49h11.86c0.31,1.04,1.26,1.8,2.4,1.8h11.12v8.22h-22.1c-1.39,0-2.51,1.12-2.51,2.51c0,1.39,1.12,2.51,2.51,2.51h24.61
		c1.39,0,2.51-1.12,2.51-2.51V22.21C151.89,15.7,147.72,10.19,142.02,8.42z M130.94,70.96c0.48-1.93,1.68-3.57,3.38-4.6
		c1.18-0.71,2.51-1.08,3.85-1.08c0.6,0,1.2,0.07,1.8,0.22c1.94,0.48,3.58,1.68,4.61,3.39c1.03,1.71,1.34,3.71,0.86,5.64
		c-0.48,1.93-1.68,3.57-3.39,4.6c-1.71,1.03-3.71,1.34-5.65,0.86c-1.54-0.38-2.88-1.22-3.88-2.4c0.04-0.51-0.07-1.04-0.36-1.51
		c-0.26-0.42-0.63-0.73-1.04-0.93C130.67,73.81,130.6,72.37,130.94,70.96z M121.49,22.21c0-5.17,3.93-9.37,8.76-9.37h7.86
		c4.83,0,8.76,4.2,8.76,9.37v5.3h-11.12c-1.14,0-2.09,0.76-2.4,1.8h-11.86V22.21z"/>
	<path style="fill:#FFFFFF;" d="M98.77,40.57c1.39,0,2.51-1.12,2.51-2.51c0-1.39-1.12-2.51-2.51-2.51H27.72
		c-1.39,0-2.51,1.12-2.51,2.51c0,1.39,1.12,2.51,2.51,2.51H98.77z"/>
	<path style="fill:#FFFFFF;" d="M48.65,15.18h29.19c1.39,0,2.51-1.12,2.51-2.51s-1.12-2.51-2.51-2.51H48.65
		c-1.39,0-2.51,1.12-2.51,2.51S47.26,15.18,48.65,15.18z"/>
	<path style="fill:#FFFFFF;" d="M188.8,15.66c0-8.06-6.96-14.62-15.51-14.62c-8.55,0-15.51,6.56-15.51,14.62
		c0,1.14,0.76,2.09,1.8,2.4v69.09c0,0.39,0.32,0.7,0.7,0.7s0.7-0.32,0.7-0.7V60.43h9.9c0.31,1.04,1.26,1.8,2.4,1.8h12.04v24.91
		c0,0.39,0.32,0.7,0.7,0.7s0.7-0.32,0.7-0.7V62.13c1.04-0.31,1.8-1.26,1.8-2.4c0-1.14-0.76-2.09-1.8-2.4V41.49
		c1.04-0.31,1.8-1.26,1.8-2.4c0-1.14-0.76-2.09-1.8-2.4V18.13C187.91,17.92,188.8,16.9,188.8,15.66z M162.79,15.66
		c0-5.29,4.71-9.6,10.49-9.6s10.49,4.31,10.49,9.6c0,1.04,0.64,1.94,1.55,2.32v18.6h-12.04c-1.14,0-2.09,0.76-2.4,1.8h-9.9V18.06
		C162.03,17.75,162.79,16.8,162.79,15.66z M160.99,39.8h9.9c0.31,1.04,1.26,1.8,2.4,1.8h12.04v15.62h-12.04
		c-1.14,0-2.09,0.76-2.4,1.8h-9.9V39.8z"/>
	<ellipse style="fill:#FFFFFF;" cx="88.74" cy="73.76" rx="13.07" ry="13.05"/>
	<path style="fill:#FFFFFF;" d="M60.8,51.8c-0.59,0-1.08,0.48-1.08,1.08c0,17.65-14.36,32-32,32c-0.59,0-1.08,0.48-1.08,1.08
		c0,0.59,0.48,1.08,1.08,1.08c18.83,0,34.15-15.32,34.15-34.15C61.87,52.28,61.39,51.8,60.8,51.8z"/>
</g>
<line style="fill:none;stroke:#FFFFFF;stroke-width:1.953;stroke-miterlimit:10;" x1="0" y1="99.57" x2="303.74" y2="99.57"/>
</svg>
