<svg xmlns="http://www.w3.org/2000/svg" width="170" height="114.51" viewBox="0 0 170 114.51">
  <g id="Layer_2" data-name="Layer 2">
    <g id="Pointer">
      <g>
        <rect y="82.31" width="170" height="32.2" rx="16.1" style="fill: #be0000"/>
        <g>
          <path d="M24.85,98.81a22.59,22.59,0,0,0,4.25-3.19H16.46V94.05h15v1.33a27.87,27.87,0,0,1-5.08,4.15h8.41V101a25.76,25.76,0,0,1-4.59,4.92l-1.3-1.13a25.9,25.9,0,0,0,3.79-3.62H26.44v6.95a1.93,1.93,0,0,1-2.15,2.2H20.91l-.36-1.64c1.11.07,2.15.12,3.16.12.68,0,1-.39,1-1.11v-6.52h-.27c-1.64,2.89-4.83,5.41-9.61,7.53l-1-1.62c4.39-1.74,7.34-3.69,8.88-5.91H14.12V99.53h9.25c-1.06-.72-2.29-1.49-3.69-2.27l1.13-1.11A34.94,34.94,0,0,1,24.85,98.81ZM19.48,90V88.11H21.2V90h2.87v1.57H21.2v1.77H19.48V91.56H14.22V90ZM29.8,88.11V90h5.26v1.57H29.8v1.77H28.08V91.56h-2.9V90h2.9V88.11Z" style="fill: #fff"/>
          <path d="M42.86,97.87l-1.18,1.18a26.48,26.48,0,0,0-4-3.6l1.18-1.13A27.09,27.09,0,0,1,42.86,97.87Zm0,3.47A91.73,91.73,0,0,1,39.62,110l-1.57-.7a78.45,78.45,0,0,0,3.34-8.55ZM43.27,92l-1.21,1.21a23.51,23.51,0,0,0-3.89-3.43l1.19-1.14A28.3,28.3,0,0,1,43.27,92Zm7.2,15.44h-5.1v1.42H43.8V99.19h2.56V94.61H43.22V93h3.14V88.86H48V93h3.14v1.57H48v4.58h2.44ZM48.9,106v-5.27H45.37V106Zm2.34,4.25L50,109.1a15.77,15.77,0,0,0,2.12-8.31V89.05H59v19.3c0,1.26-.65,1.88-2,1.88H55.08l-.41-1.54c.65,0,1.26.09,1.84.09s.84-.33.84-1v-5.72c-1.18.31-2.44.57-3.77.79A15.52,15.52,0,0,1,51.24,110.21Zm2.47-9.52c0,.15,0,.32,0,.51,1.35-.24,2.59-.48,3.67-.77V97.12a30.78,30.78,0,0,0-3.64-.92Zm3.64-10H53.71V94.7a30.65,30.65,0,0,1,3.64.87Z" style="fill: #fff"/>
          <path d="M62.2,99.85,61.62,98a27,27,0,0,0,5.83-10l1.59.75a28,28,0,0,1-2.46,5.43v16.16H64.84V96.78A31.34,31.34,0,0,1,62.2,99.85Zm13.6-1.5V94.87a28.64,28.64,0,0,0,4.47-4.2H70.56V89.1H82.3v1.57a35.28,35.28,0,0,1-4.73,4.83v2.85h6.49V100H77.57v7.68a2.21,2.21,0,0,1-2.47,2.51H72.45L72,108.62c.72,0,1.52.07,2.39.07s1.4-.51,1.4-1.5V100H68.65V98.35Z" style="fill: #fff"/>
          <path d="M106.59,92.26v17.59h-1.73v-1.62H89.28v1.59H87.54V92.19h1.74v14.37h6.9V88.3H98v18.26h6.89V92.26Z" style="fill: #fff"/>
          <path d="M118.52,89.36V91H115a31.34,31.34,0,0,1-1.38,5.65h4V108h-3.84v1.57h-1.55V100a23.94,23.94,0,0,1-1.3,2.24l-.92-1.44A26.31,26.31,0,0,0,113.35,91h-2.8V89.36Zm-2.44,17.08V98.2h-2.29v8.24Zm5-4.37a17.76,17.76,0,0,1-1.79,8.28l-1.3-1.18a15.73,15.73,0,0,0,1.45-7v-13h12V108c0,1.43-.67,2.15-2,2.15h-2.13l-.41-1.59c.73.05,1.4.07,2,.07s.89-.41.89-1.21V98.69h-8.67Zm0-11.38v2.83h3.53V90.69Zm0,6.55h3.53V95h-3.53Zm7.1,3.16v6.16h-5.6V100.4Zm-1.42,1.4H124v3.36h2.73Zm3-11.11h-3.57v2.83h3.57Zm0,4.28h-3.57v2.27h3.57Z" style="fill: #fff"/>
          <path d="M134.73,97.67l-.54-1.74A20.52,20.52,0,0,0,140,88.18l1.52.7a21,21,0,0,1-2.2,4v9.25H137.6V94.94A28.65,28.65,0,0,1,134.73,97.67Zm9.85,6.31v-2.32h1.69V104h8v1.57h-8V108h9.59v1.6h-21V108h9.69v-2.46h-8V104Zm1.72-5.29a17.6,17.6,0,0,1-4.52,3l-.92-1.18a17.64,17.64,0,0,0,4.4-2.78Zm7.63-9.64v4.81h-4.76v1.71h6.43v1.55h-6.43v4.59h-1.69V97.12h-6.43V95.57h6.43V93.86h-4.71V89.05Zm-1.64,1.4h-7.88v2h7.88Zm3.33,10.1-1,1.11a29.77,29.77,0,0,0-4.22-2.92l.92-1A31.3,31.3,0,0,1,155.62,100.55Z" style="fill: #fff"/>
        </g>
        <g>
          <path d="M84.51,38.49c-5.34-3.08-9.65-10.56-9.63-16.7a8.06,8.06,0,0,1,1.36-4.86c-2.36.72-3.8,3.36-3.81,7.17,0,6.14,4.3,13.62,9.64,16.7,3.89,2.25,7.25,1.53,8.79-1.38C89.16,40.13,86.94,39.89,84.51,38.49Z"/>
          <path d="M82.19,5.73C76.42,2.4,71.38,2.09,67.61,4.28c1.58-.91,3.13-1.92,4.78-2.88,3.78-2.19,9-1.88,14.77,1.45,11.46,6.61,20.72,22.65,20.68,35.82a23.45,23.45,0,0,1-3.32,12.81L88.7,75.62l-6,3.47,18.19-28.67a19.06,19.06,0,0,0,1.93-8.87C102.91,28.39,93.65,12.35,82.19,5.73Z"/>
        </g>
        <path d="M102.87,41.55a19.06,19.06,0,0,1-1.93,8.87L82.75,79.09l-18-46.54c-2-7-2.56-10.41-2.55-15.21,0-13.17,8.57-18.22,20-11.61S102.91,28.39,102.87,41.55Zm-20.78-.86c5.35,3.09,9.69.61,9.71-5.53s-4.3-13.62-9.65-16.71-9.68-.6-9.7,5.54,4.3,13.62,9.64,16.7h0" style="fill: #be0000"/>
      </g>
    </g>
  </g>
</svg>
