<?xml version="1.0" encoding="utf-8"?>
<!-- Generator: Adobe Illustrator 26.0.1, SVG Export Plug-In . SVG Version: 6.00 Build 0)  -->
<svg version="1.1" id="Layer_1" xmlns="http://www.w3.org/2000/svg" xmlns:xlink="http://www.w3.org/1999/xlink" x="0px" y="0px"
	 width="191.1px" height="135.5px" viewBox="0 0 191.1 135.5" style="enable-background:new 0 0 191.1 135.5;" xml:space="preserve"
	>
<path style="fill:#BE0000;" d="M164.6,135.5h-137c-14.6,0-26.5-11.9-26.5-26.5v0c0-14.6,11.9-26.5,26.5-26.5h137
	c14.6,0,26.5,11.9,26.5,26.5v0C191.1,123.7,179.2,135.5,164.6,135.5z"/>
<g>
	<path style="fill:#FFFFFF;" d="M36,100.8c1.3-0.8,2.5-1.7,3.6-2.7H27.4v-2.1h15.2v1.7c-1.4,1.4-2.9,2.7-4.4,3.7H46v1.9
		c-1.3,1.8-2.8,3.4-4.6,4.9l-1.7-1.5c1.1-0.8,2.3-1.9,3.5-3.1h-5.4v6.4c0,1.7-0.8,2.5-2.5,2.5H32l-0.5-2.2c1.1,0.1,2.1,0.2,3,0.2
		c0.7,0,1-0.4,1-1.1v-5.8h-0.1c-1.6,2.9-4.8,5.3-9.4,7.4l-1.4-2.1c4-1.6,6.8-3.3,8.4-5.3h-7.9v-2.1h8.6c-0.9-0.6-2-1.2-3.1-1.8
		l1.5-1.5C33.6,99.1,34.8,99.9,36,100.8z M30.2,91.9v-1.7h2.3v1.7h2.7V94h-2.7v1.5h-2.3V94h-5v-2.1H30.2z M41.2,90.2v1.7h5V94h-5
		v1.5h-2.3V94h-2.7v-2.1h2.7v-1.7H41.2z"/>
	<path style="fill:#FFFFFF;" d="M54.1,99.9l-1.6,1.6c-0.9-1.1-2.2-2.3-3.9-3.6l1.6-1.5C51.7,97.6,53,98.7,54.1,99.9z M54.2,103.6
		c-1,3.1-2.1,6-3.2,8.7l-2.1-0.9c1.3-2.8,2.4-5.6,3.3-8.5L54.2,103.6z M54.5,94L53,95.6c-0.9-1.1-2.2-2.2-3.9-3.4l1.6-1.5
		C52.2,91.8,53.5,92.9,54.5,94z M61.7,109.6c0.9-1.9,1.3-4.1,1.4-6.6v-12h7.2v19.3c0,1.5-0.8,2.2-2.3,2.2h-1.7l-0.6-2
		c0.6,0.1,1.1,0.1,1.7,0.1c0.5,0,0.8-0.4,0.8-1.1v-5.1c-1,0.2-2,0.5-3.1,0.7c-0.3,2.9-1.1,5.4-2.4,7.3l-1.6-1.4
		c0.2-0.4,0.5-0.8,0.7-1.2h-4.8v1.3h-2.1v-9.9h2.5v-4.2h-2.9V95h2.9v-4h2.2v4h2.9v2.1h-2.9v4.2h2.3V109.6z M59.6,107.9v-4.7h-2.9
		v4.7H59.6z M68.1,93.1h-3v3.6c1,0.2,2.1,0.4,3,0.7V93.1z M65.1,103c1.1-0.2,2.1-0.4,3-0.6v-2.9c-1-0.3-2-0.6-3-0.7V103z"/>
	<path style="fill:#FFFFFF;" d="M73.4,102.3l-0.7-2.5c2.5-2.8,4.4-6,5.6-9.8l2.1,1c-0.6,1.9-1.4,3.7-2.5,5.4v16.1h-2.3V99.8
		C74.9,100.7,74.2,101.5,73.4,102.3z M86.6,100.3V97c1.4-1.1,2.9-2.4,4.2-3.9h-9.3v-2.1h11.9v2.1c-1.4,1.6-2.9,3.2-4.5,4.7v2.4h6.3
		v2.2h-6.3v7.2c0,1.9-0.9,2.8-2.7,2.8h-2.7l-0.6-2.1c0.7,0,1.5,0.1,2.3,0.1c0.9,0,1.3-0.5,1.3-1.4v-6.5h-7v-2.2H86.6z"/>
	<path style="fill:#FFFFFF;" d="M117.9,94.5v17.6h-2.3v-1.4h-14.9v1.4h-2.3V94.4h2.3v14.1h6.3v-18h2.3v18h6.3v-14H117.9z"/>
	<path style="fill:#FFFFFF;" d="M129.7,91.3v2.2h-3.4c-0.3,1.8-0.7,3.6-1.3,5.2h3.9v11.7h-3.7v1.5h-2V103c-0.3,0.5-0.6,1-0.9,1.5
		l-1.2-1.9c1.5-2.7,2.6-5.8,3.1-9.2h-2.5v-2.2H129.7z M126.9,108.4v-7.7h-1.7v7.7H126.9z M132.5,104.3c0,3.5-0.7,6.3-1.8,8.4
		l-1.7-1.5c0.9-1.8,1.4-4,1.4-6.7V91.1h12.3V110c0,1.6-0.8,2.5-2.4,2.5h-1.9l-0.6-2.1c0.7,0,1.3,0.1,1.8,0.1c0.6,0,0.9-0.4,0.9-1.2
		v-8.1h-8V104.3z M132.5,93.2v2.3h3v-2.3H132.5z M132.5,99.2h3v-1.8h-3V99.2z M139.4,102.5v6.4h-5.8v-6.4H139.4z M137.5,104.3h-2.1
		v2.8h2.1V104.3z M140.5,93.2h-3v2.3h3V93.2z M140.5,97.4h-3v1.8h3V97.4z"/>
	<path style="fill:#FFFFFF;" d="M145.9,100l-0.7-2.3c2.5-2.1,4.4-4.6,5.6-7.4l2,0.9c-0.6,1.3-1.3,2.6-2.1,3.8v9.4h-2.2v-6.7
		C147.7,98.5,146.8,99.2,145.9,100z M155.4,106v-2.1h2.2v2.1h7.8v2.1h-7.8v1.9h9.4v2.1h-21.1v-2.1h9.5V108h-7.8V106H155.4z
		 M157.5,101.1c-1.2,1.1-2.7,2.1-4.4,2.9l-1.2-1.5c1.7-0.7,3.1-1.6,4.3-2.6L157.5,101.1z M165.3,91.1v5.2h-4.7v1.4h6.2v2h-6.2v4.3
		h-2.2v-4.3h-6.2v-2h6.2v-1.4h-4.7v-5.2H165.3z M163.1,92.9h-7.3v1.5h7.3V92.9z M166.8,102.6l-1.3,1.4c-1.3-1.1-2.7-2-4.2-2.8
		l1.2-1.3C164.1,100.7,165.6,101.6,166.8,102.6z"/>
	<path style="fill:#FFFFFF;" d="M51,124c-0.1-1.3-0.1-2.9-0.1-4.2h0c-0.3,1.2-0.8,2.6-1.2,3.9l-1.5,4.4h-1.4l-1.4-4.3
		c-0.4-1.3-0.7-2.7-1-3.9h0c0,1.3-0.1,2.9-0.2,4.3l-0.2,4.1h-1.7l0.7-10.1h2.4l1.3,4.1c0.4,1.2,0.7,2.4,0.9,3.5h0
		c0.3-1.1,0.6-2.3,1-3.5l1.4-4h2.4l0.6,10.1h-1.8L51,124z"/>
	<path style="fill:#FFFFFF;" d="M60.5,126.4c0,0.7,0,1.3,0.1,1.8h-1.7l-0.1-0.8h0c-0.4,0.6-1.2,1-2.2,1c-1.5,0-2.3-1.1-2.3-2.2
		c0-1.8,1.6-2.8,4.3-2.8v-0.1c0-0.5-0.2-1.3-1.5-1.3c-0.7,0-1.5,0.2-2,0.5l-0.4-1.2c0.5-0.3,1.5-0.6,2.6-0.6c2.3,0,3,1.5,3,3.1
		V126.4z M58.7,124.5c-1.3,0-2.6,0.3-2.6,1.4c0,0.7,0.5,1.1,1.1,1.1c0.8,0,1.3-0.5,1.5-1c0-0.1,0-0.3,0-0.4V124.5z"/>
	<path style="fill:#FFFFFF;" d="M69,125.9c0,0.9,0,1.6,0.1,2.2h-1.6l-0.1-1.1h0c-0.3,0.5-1,1.3-2.4,1.3c-1.3,0-2.5-0.8-2.5-3.2v-4.3
		h1.8v4c0,1.2,0.4,2,1.4,2c0.7,0,1.2-0.5,1.4-1c0.1-0.2,0.1-0.4,0.1-0.6v-4.4H69V125.9z"/>
	<path style="fill:#FFFFFF;" d="M75.2,128.1L72.8,118h2l1,4.6c0.3,1.2,0.5,2.5,0.7,3.5h0c0.2-1.1,0.4-2.3,0.7-3.6l1.1-4.6h1.9l1,4.6
		c0.2,1.2,0.5,2.3,0.6,3.4h0c0.2-1.1,0.4-2.3,0.7-3.5l1.1-4.6h1.9l-2.7,10.1h-2l-1-4.8c-0.3-1.1-0.4-2.1-0.6-3.2h0
		c-0.2,1.1-0.4,2.1-0.7,3.2l-1.2,4.8H75.2z"/>
	<path style="fill:#FFFFFF;" d="M92.7,125.9c0,0.9,0,1.6,0.1,2.2h-1.6l-0.1-1.1h0c-0.3,0.5-1,1.3-2.4,1.3c-1.3,0-2.5-0.8-2.5-3.2
		v-4.3H88v4c0,1.2,0.4,2,1.4,2c0.7,0,1.2-0.5,1.4-1c0.1-0.2,0.1-0.4,0.1-0.6v-4.4h1.8V125.9z"/>
	<path style="fill:#FFFFFF;" d="M97.9,118h1.8v8.6h4.2v1.5h-6V118z"/>
	<path style="fill:#FFFFFF;" d="M108.3,128.3c-2.1,0-3.7-1.4-3.7-3.8c0-2.4,1.6-3.9,3.8-3.9c2.2,0,3.6,1.5,3.6,3.8
		C112,127.1,110.1,128.3,108.3,128.3L108.3,128.3z M108.3,126.9c1,0,1.8-1,1.8-2.5c0-1.1-0.5-2.5-1.8-2.5c-1.3,0-1.8,1.3-1.8,2.5
		C106.5,125.9,107.2,126.9,108.3,126.9L108.3,126.9z"/>
	<path style="fill:#FFFFFF;" d="M116.7,128.3c-2.1,0-3.7-1.4-3.7-3.8c0-2.4,1.6-3.9,3.8-3.9c2.2,0,3.6,1.5,3.6,3.8
		C120.5,127.1,118.6,128.3,116.7,128.3L116.7,128.3z M116.8,126.9c1,0,1.8-1,1.8-2.5c0-1.1-0.5-2.5-1.8-2.5c-1.3,0-1.8,1.3-1.8,2.5
		C115,125.9,115.7,126.9,116.8,126.9L116.8,126.9z"/>
	<path style="fill:#FFFFFF;" d="M123.8,124L123.8,124c0.2-0.3,0.4-0.6,0.6-0.9l1.8-2.4h2.2l-2.7,3l3.1,4.3h-2.3l-2.1-3.2l-0.6,0.7
		v2.5H122v-10.7h1.8V124z"/>
	<path style="fill:#FFFFFF;" d="M132.7,128.3c-2.1,0-3.7-1.4-3.7-3.8c0-2.4,1.6-3.9,3.8-3.9c2.2,0,3.6,1.5,3.6,3.8
		C136.5,127.1,134.6,128.3,132.7,128.3L132.7,128.3z M132.8,126.9c1,0,1.8-1,1.8-2.5c0-1.1-0.5-2.5-1.8-2.5c-1.3,0-1.8,1.3-1.8,2.5
		C130.9,125.9,131.7,126.9,132.8,126.9L132.8,126.9z"/>
	<path style="fill:#FFFFFF;" d="M144.5,125.9c0,0.9,0,1.6,0.1,2.2H143l-0.1-1.1h0c-0.3,0.5-1,1.3-2.4,1.3c-1.3,0-2.5-0.8-2.5-3.2
		v-4.3h1.8v4c0,1.2,0.4,2,1.4,2c0.8,0,1.2-0.5,1.4-1c0.1-0.2,0.1-0.4,0.1-0.6v-4.4h1.8V125.9z"/>
	<path style="fill:#FFFFFF;" d="M148.6,118.9v1.9h1.8v1.4h-1.8v3.2c0,0.9,0.2,1.4,0.9,1.4c0.3,0,0.5,0,0.7-0.1l0,1.4
		c-0.3,0.1-0.8,0.2-1.3,0.2c-0.7,0-1.2-0.2-1.6-0.6c-0.4-0.4-0.6-1.1-0.6-2.1v-3.4h-1v-1.4h1v-1.4L148.6,118.9z"/>
</g>
<g>
	<path d="M95.6,38.7c-5.3-3.1-9.7-10.6-9.6-16.7c0-2.1,0.5-3.7,1.4-4.9c-2.4,0.7-3.8,3.4-3.8,7.2c0,6.1,4.3,13.6,9.6,16.7
		c3.9,2.2,7.2,1.5,8.8-1.4C100.2,40.4,98,40.1,95.6,38.7z"/>
	<path d="M93.3,6c-5.8-3.3-10.8-3.6-14.6-1.5c1.6-0.9,3.1-1.9,4.8-2.9c3.8-2.2,9-1.9,14.8,1.4c11.5,6.6,20.7,22.7,20.7,35.8
		c0,3.6-0.5,8.3-3.3,12.8L99.8,75.8l-5.9,3.5L112,50.6c1.2-2.3,1.9-5.3,1.9-8.9C114,28.6,104.7,12.6,93.3,6z"/>
</g>
<path style="fill:#BE0000;" d="M113.9,41.8c0,3.6-0.7,6.5-1.9,8.9L93.8,79.3l-18-46.5c-2-7-2.6-10.4-2.5-15.2
	c0-13.2,8.6-18.2,20-11.6C104.7,12.6,114,28.6,113.9,41.8z M93.2,40.9c5.3,3.1,9.7,0.6,9.7-5.5c0-6.1-4.3-13.6-9.6-16.7
	c-5.3-3.1-9.7-0.6-9.7,5.5C83.5,30.4,87.8,37.8,93.2,40.9L93.2,40.9"/>
</svg>
