<?xml version="1.0" encoding="utf-8"?>
<!-- Generator: Adobe Illustrator 26.0.1, SVG Export Plug-In . SVG Version: 6.00 Build 0)  -->
<svg version="1.1" id="Layer_1" xmlns="http://www.w3.org/2000/svg" xmlns:xlink="http://www.w3.org/1999/xlink" x="0px" y="0px"
	 width="160px" height="135.8px" viewBox="0 0 160 135.8" style="enable-background:new 0 0 160 135.8;" xml:space="preserve">
<g>
	<path style="fill:#BE0000;" d="M133.5,135.3h-107C11.9,135.3,0,123.4,0,108.8v0c0-14.6,11.9-26.5,26.5-26.5h107
		c14.6,0,26.5,11.9,26.5,26.5v0C160,123.4,148.1,135.3,133.5,135.3z"/>
</g>
<g>
	<path style="fill:#FFFFFF;" d="M23.1,96.3v-6.1h2.2v6.1h2.1v2.2h-2.1v6.6c0.7-0.3,1.4-0.7,2.1-1v2.3c-1.9,1-4,1.9-6.2,2.5l-0.6-2.3
		c0.8-0.2,1.6-0.4,2.4-0.7v-7.4h-2.2v-2.2H23.1z M34.7,107.6c-2.4,0.9-4.9,1.6-7.6,2.3l-0.6-2.2c2.8-0.4,5.5-1.2,8.2-2.1V107.6z
		 M35.6,93.2c0-1,0-2,0-3h2.2c0,1.1,0,2.1,0,3h1.9c-0.3-0.8-0.6-1.6-0.9-2.2l2.1-0.3c0.2,0.7,0.5,1.6,0.7,2.6h1.1v2.2h-4.9
		c0,3.1,0.2,5.7,0.4,7.8c0.8-1.8,1.4-3.9,1.8-6.1l2,0.8c-0.8,3.6-1.9,6.6-3.3,9c0.4,1.9,0.8,2.9,1.3,3c0.4,0,0.8-1.2,1.3-3.5
		l1.7,1.4c-0.8,2.9-1.8,4.4-3,4.4c-0.8,0-1.6-0.7-2.2-1.9c-0.2-0.4-0.4-0.8-0.5-1.3c-1.1,1.4-2.4,2.5-3.7,3.4l-1.4-1.8
		c1.7-1,3.2-2.4,4.4-4.2c-0.1-0.7-0.2-1.3-0.3-2c-0.3-2.4-0.5-5.4-0.6-9h-8.4v-2.2H35.6z M34.6,97.4v7.1h-6.4v-7.1H34.6z M32.6,99.2
		h-2.4v3.3h2.4V99.2z"/>
	<path style="fill:#FFFFFF;" d="M57.6,91c-0.3,0.4-0.7,0.7-1,1h6.4v1.8c-2.6,4.6-7.4,7.3-14.5,7.9l-1-2.1c2-0.1,3.8-0.4,5.4-0.8
		c-0.7-0.8-1.4-1.6-2.1-2.2l2-0.9c0.8,0.8,1.6,1.6,2.3,2.5c2.2-0.9,4-2.3,5.3-4h-6.5c-1.9,1.1-4.1,1.9-6.6,2.5l-1.4-2.1
		c4.3-0.8,7.5-2.3,9.6-4.5L57.6,91z M57.6,107.8c2.4-1.1,4.3-2.5,5.7-4.3h-6.6c-2.1,1-4.6,1.7-7.4,2.3l-1.4-2.1
		c5.3-0.5,9.2-2.1,11.6-4.7l2,1.1c-0.4,0.5-0.9,0.9-1.4,1.3h6.2v1.8c-3.5,5.7-9.9,8.6-19.3,8.8l-0.9-2.2c3.6,0,6.8-0.4,9.4-1.2
		c-0.7-1-1.5-1.9-2.3-2.6l2-1C56,105.9,56.8,106.8,57.6,107.8z"/>
	<path style="fill:#FFFFFF;" d="M73.8,96.4v-2.7c-1.2,0.2-2.4,0.4-3.7,0.5l-0.7-2.1c4-0.3,7.2-1,9.7-2l1.1,1.9
		c-1.3,0.5-2.7,0.9-4.1,1.3v3.1h4.3v2.2h-4.3v0.8c1.5,1.2,3,2.6,4.5,4.2l-1.4,2.1c-1.3-1.6-2.3-2.9-3.2-3.8v10.6h-2.3v-9.9
		c-1.1,2.1-2.5,3.9-4.1,5.7l-1-2.7c2.3-2,4-4.3,5.1-6.8v-0.1h-4.5v-2.2H73.8z M84.4,92.4v14.8h-2.3V92.4H84.4z M84,112.2l-0.5-2.2
		c1.1,0.1,2.2,0.1,3.3,0.1c0.6,0,0.9-0.4,0.9-1.1V90.2H90v19.4c0,1.7-0.8,2.6-2.4,2.6H84z"/>
	<path style="fill:#FFFFFF;" d="M112.4,109.9h2.6v2.1H93.4v-2.1h2.5v-5.6h16.5V109.9z M101.4,101.2h3.8v2H94.5V90.9H105v2h-3.6v1.6
		h2.8v5.1h-2.8V101.2z M99.3,94.4v-1.6h-2.6v1.6H99.3z M102.1,97.8v-1.6h-5.5v1.6H102.1z M99.3,101.2v-1.7h-2.6v1.7H99.3z
		 M100.8,109.9v-3.6h-2.7v3.6H100.8z M105.6,109.9v-3.6h-2.7v3.6H105.6z M105.9,98.7l-1.4-1.7c1.4-1.7,2.4-3.9,2.9-6.8l2.1,0.4
		c-0.2,1-0.4,2-0.7,2.8h5.7v2.1H108C107.4,96.7,106.7,97.8,105.9,98.7z M114,99.3v2.1h-7.4v-2.1H114z M110.2,109.9v-3.6h-2.6v3.6
		H110.2z"/>
	<path style="fill:#FFFFFF;" d="M124.4,91.5c-0.7,1.4-1.4,2.7-2.1,3.6l0.4,0.9c0.6,1.9,0.9,4.7,1,8.3c0,3.9-0.4,6.3-1.2,7.1
		c-0.5,0.4-1.1,0.6-2,0.6c-0.7,0-1.3,0-1.7,0L118,110c0.7,0.1,1.3,0.2,1.9,0.2c0.5,0,0.8-0.1,1-0.4c0.4-0.6,0.6-2.4,0.6-5.5
		c0-0.4,0-0.8,0-1.2c-0.9,1.2-1.9,2.3-2.9,3.2l-1.3-1.9c1.7-1.3,3-2.8,4-4.5c-0.1-1.1-0.3-2.1-0.6-2.9c0,0,0,0,0,0
		c-0.7,0.6-1.4,1.3-2.1,1.9l-1.2-1.9c0.8-0.5,1.6-1.2,2.4-2.1c-0.6-1.1-1.3-2.1-2.1-2.9l1.8-1.4c0.7,0.8,1.3,1.6,1.8,2.4
		c0.5-0.8,1-1.6,1.4-2.6L124.4,91.5z M127.1,93c-0.3-0.8-0.6-1.6-1-2.4l2.2-0.6c0.4,1.1,0.8,2.1,1,3h2.2v2h-7.2v-2H127.1z
		 M131,110.4c1.5-2.3,2.5-6.1,2.8-11.3h-2.2v-2.2h2.3c0-0.6,0-1.2,0-1.8v-5h2v4.5c0,0.8,0,1.5,0,2.3h2.9v2.2H136
		c0.2,4.6,1.4,8.5,3.6,11.7l-1.6,1.6c-1.4-2.4-2.3-5.1-2.9-8c-0.6,3.6-1.6,6.2-3,8.1l-1.2-1.5h-4.2v1.3h-2v-8.5h6.2V110.4z
		 M130.7,96.7v1.9H125v-1.9H130.7z M130.7,100v1.9H125V100H130.7z M129,108.9v-3.4h-2.2v3.4H129z M139.3,94.8l-1.4,1
		c-0.5-1.1-1.2-2.3-2-3.6l1.5-0.9C138.3,92.6,138.9,93.8,139.3,94.8z"/>
	<path style="fill:#FFFFFF;" d="M36.5,127.9l-3.3-10.1h2l1.4,4.6c0.4,1.3,0.7,2.5,1,3.7h0c0.3-1.2,0.6-2.4,1-3.7l1.5-4.6h2
		l-3.5,10.1H36.5z"/>
	<path style="fill:#FFFFFF;" d="M43.7,119.5c-0.6,0-1-0.5-1-1c0-0.6,0.4-1,1-1c0.6,0,1,0.4,1,1C44.8,119.1,44.4,119.5,43.7,119.5
		L43.7,119.5z M42.8,127.9v-7.3h1.8v7.3H42.8z"/>
	<path style="fill:#FFFFFF;" d="M52,127.7c-0.4,0.2-1.2,0.4-2.1,0.4c-2.3,0-3.8-1.5-3.8-3.7c0-2.2,1.5-3.9,4.1-3.9
		c0.7,0,1.4,0.1,1.8,0.3l-0.3,1.4c-0.3-0.1-0.7-0.3-1.4-0.3c-1.4,0-2.2,1-2.2,2.4c0,1.5,1,2.4,2.2,2.4c0.6,0,1.1-0.1,1.5-0.3
		L52,127.7z"/>
	<path style="fill:#FFFFFF;" d="M55.7,118.7v1.9h1.8v1.4h-1.8v3.2c0,0.9,0.2,1.4,0.9,1.4c0.3,0,0.5,0,0.7-0.1l0,1.4
		c-0.3,0.1-0.8,0.2-1.3,0.2c-0.7,0-1.2-0.2-1.6-0.6c-0.4-0.4-0.6-1.1-0.6-2.1V122h-1v-1.4h1v-1.4L55.7,118.7z"/>
	<path style="fill:#FFFFFF;" d="M62,128.1c-2.1,0-3.7-1.4-3.7-3.8c0-2.4,1.6-3.9,3.8-3.9c2.2,0,3.6,1.5,3.6,3.8
		C65.7,126.9,63.9,128.1,62,128.1L62,128.1z M62.1,126.7c1,0,1.8-1,1.8-2.5c0-1.1-0.5-2.5-1.8-2.5c-1.3,0-1.8,1.3-1.8,2.5
		C60.2,125.7,60.9,126.7,62.1,126.7L62.1,126.7z"/>
	<path style="fill:#FFFFFF;" d="M67.3,122.9c0-1,0-1.7-0.1-2.4h1.6l0.1,1.4h0c0.4-1,1.2-1.5,2-1.5c0.2,0,0.3,0,0.4,0v1.7
		c-0.2,0-0.3,0-0.6,0c-0.9,0-1.5,0.6-1.7,1.4c0,0.2,0,0.4,0,0.6v3.8h-1.8V122.9z"/>
	<path style="fill:#FFFFFF;" d="M73.5,119.5c-0.6,0-1-0.5-1-1c0-0.6,0.4-1,1-1c0.6,0,1,0.4,1,1C74.6,119.1,74.2,119.5,73.5,119.5
		L73.5,119.5z M72.6,127.9v-7.3h1.8v7.3H72.6z"/>
	<path style="fill:#FFFFFF;" d="M82.1,126.1c0,0.7,0,1.3,0.1,1.8h-1.7l-0.1-0.8h0c-0.4,0.6-1.2,1-2.2,1c-1.5,0-2.3-1.1-2.3-2.2
		c0-1.8,1.6-2.8,4.3-2.8V123c0-0.5-0.2-1.3-1.5-1.3c-0.7,0-1.5,0.2-2,0.5l-0.4-1.2c0.5-0.3,1.5-0.6,2.6-0.6c2.3,0,3,1.5,3,3.1V126.1
		z M80.3,124.3c-1.3,0-2.5,0.3-2.5,1.4c0,0.7,0.5,1.1,1,1.1c0.8,0,1.3-0.5,1.5-1c0-0.1,0-0.3,0-0.4V124.3z"/>
	<path style="fill:#FFFFFF;" d="M87.2,117.9c0.7-0.1,1.6-0.2,2.8-0.2c1.3,0,2.3,0.3,3,0.8c0.6,0.5,1,1.3,1,2.2c0,1-0.3,1.7-0.9,2.3
		c-0.8,0.7-1.9,1.1-3.2,1.1c-0.3,0-0.6,0-0.9-0.1v3.8h-1.8V117.9z M89.1,122.6c0.2,0.1,0.5,0.1,0.9,0.1c1.4,0,2.2-0.7,2.2-1.9
		c0-1.1-0.8-1.7-2.1-1.7c-0.5,0-0.9,0-1.1,0.1V122.6z"/>
	<path style="fill:#FFFFFF;" d="M95.4,122.9c0-1,0-1.7-0.1-2.4h1.6L97,122h0c0.4-1,1.2-1.5,2-1.5c0.2,0,0.3,0,0.4,0v1.7
		c-0.2,0-0.3,0-0.6,0c-0.9,0-1.5,0.6-1.7,1.4c0,0.2,0,0.4,0,0.6v3.8h-1.8V122.9z"/>
	<path style="fill:#FFFFFF;" d="M101.6,119.5c-0.6,0-1-0.5-1-1c0-0.6,0.4-1,1-1c0.6,0,1,0.4,1,1
		C102.7,119.1,102.3,119.5,101.6,119.5L101.6,119.5z M100.7,127.9v-7.3h1.8v7.3H100.7z"/>
	<path style="fill:#FFFFFF;" d="M104.5,126.2c0.4,0.3,1.2,0.5,1.9,0.5c0.8,0,1.2-0.3,1.2-0.8c0-0.5-0.3-0.7-1.2-1.1
		c-1.4-0.5-2-1.3-2-2.1c0-1.3,1.1-2.3,2.8-2.3c0.8,0,1.5,0.2,2,0.4l-0.4,1.3c-0.3-0.2-0.9-0.4-1.5-0.4c-0.7,0-1,0.3-1,0.8
		c0,0.5,0.3,0.7,1.3,1c1.3,0.5,1.9,1.1,1.9,2.2c0,1.3-1,2.3-3,2.3c-0.9,0-1.7-0.2-2.2-0.5L104.5,126.2z"/>
	<path style="fill:#FFFFFF;" d="M114,128.1c-2.1,0-3.7-1.4-3.7-3.8c0-2.4,1.6-3.9,3.8-3.9c2.2,0,3.6,1.5,3.6,3.8
		C117.7,126.9,115.9,128.1,114,128.1L114,128.1z M114.1,126.7c1,0,1.8-1,1.8-2.5c0-1.1-0.5-2.5-1.8-2.5c-1.3,0-1.8,1.3-1.8,2.5
		C112.2,125.7,112.9,126.7,114.1,126.7L114.1,126.7z"/>
	<path style="fill:#FFFFFF;" d="M119.3,122.8c0-0.8,0-1.5-0.1-2.2h1.6l0.1,1.1h0c0.3-0.6,1.1-1.3,2.3-1.3c1.3,0,2.6,0.8,2.6,3.1v4.3
		H124v-4.1c0-1-0.4-1.8-1.4-1.8c-0.7,0-1.2,0.5-1.4,1.1c-0.1,0.1-0.1,0.4-0.1,0.6v4.3h-1.8V122.8z"/>
</g>
<g>
	<path d="M79.5,38.5c-5.3-3.1-9.7-10.6-9.6-16.7c0-2.1,0.5-3.7,1.4-4.9c-2.4,0.7-3.8,3.4-3.8,7.2c0,6.1,4.3,13.6,9.6,16.7
		c3.9,2.2,7.2,1.5,8.8-1.4C84.2,40.1,81.9,39.9,79.5,38.5z"/>
	<path d="M77.2,5.7c-5.8-3.3-10.8-3.6-14.6-1.5c1.6-0.9,3.1-1.9,4.8-2.9c3.8-2.2,9-1.9,14.8,1.4c11.5,6.6,20.7,22.7,20.7,35.8
		c0,3.6-0.5,8.3-3.3,12.8L83.7,75.6l-5.9,3.5l18.2-28.7c1.2-2.3,1.9-5.3,1.9-8.9C97.9,28.4,88.6,12.3,77.2,5.7z"/>
</g>
<g>
	<path style="fill:#BE0000;" d="M97.9,41.6c0,3.6-0.7,6.5-1.9,8.9L77.8,79.1l-18-46.5c-2-7-2.6-10.4-2.5-15.2
		c0-13.2,8.6-18.2,20-11.6C88.6,12.3,97.9,28.4,97.9,41.6z M77.1,40.7c5.3,3.1,9.7,0.6,9.7-5.5c0-6.1-4.3-13.6-9.6-16.7
		c-5.3-3.1-9.7-0.6-9.7,5.5C67.4,30.1,71.8,37.6,77.1,40.7L77.1,40.7"/>
</g>
</svg>
