<svg xmlns="http://www.w3.org/2000/svg" width="140" height="114.51" viewBox="0 0 140 114.51">
  <g id="Layer_2" data-name="Layer 2">
    <g id="Pointer">
      <g>
        <rect y="82.31" width="140" height="32.2" rx="16.1" style="fill: #be0000"/>
        <g>
          <path d="M13.32,94.58V88.2H15v6.38h2.29v1.69H15v7.3c.77-.34,1.54-.73,2.27-1.11v1.73a35.33,35.33,0,0,1-6.14,2.54L10.74,105c.87-.22,1.74-.46,2.58-.75v-8H11V94.58Zm11.35,10.77A54.58,54.58,0,0,1,17,107.67L16.58,106a43.53,43.53,0,0,0,8.09-2.23Zm1.24-13.91c0-1.06,0-2.15,0-3.26h1.69c0,1.14,0,2.22,0,3.26h2.46A23.6,23.6,0,0,0,29,89l1.57-.26c.31.79.63,1.71.94,2.75h1.18v1.64H27.62c.07,3.72.24,6.77.51,9.11a30.88,30.88,0,0,0,2.22-7.08l1.5.63a31.25,31.25,0,0,1-3.33,9.08c.48,2.3,1,3.48,1.64,3.58.48-.05.94-1.28,1.42-3.65l1.31,1.06c-.78,2.9-1.67,4.35-2.73,4.35-.8,0-1.5-.63-2.13-1.88a12.6,12.6,0,0,1-.67-1.72,15,15,0,0,1-4,3.7l-1.06-1.38a13.79,13.79,0,0,0,4.59-4.42c-.15-.68-.24-1.38-.34-2.15a87.9,87.9,0,0,1-.58-9.23H17.36V91.44Zm-1.45,4v6.82H18.32V95.47Zm-1.55,1.45H19.84v3.94h3.07Z" style="fill: #fff"/>
          <path d="M47.47,106.22a15,15,0,0,0,6.33-5H46.65a28.92,28.92,0,0,1-7.56,2.3l-1-1.55c5.27-.53,9.16-2.15,11.67-4.81l1.5.82a18.4,18.4,0,0,1-1.86,1.65H56v1.37c-3.43,5.7-9.8,8.65-19.18,8.87l-.7-1.67a31.25,31.25,0,0,0,9.76-1.4,24.88,24.88,0,0,0-2.56-2.95l1.55-.72A32.24,32.24,0,0,1,47.47,106.22ZM47.3,88.9a16.22,16.22,0,0,1-1.37,1.38h6.93v1.38c-2.61,4.64-7.47,7.24-14.52,7.8l-.75-1.57a27.46,27.46,0,0,0,5.85-1,24.74,24.74,0,0,0-2.37-2.51l1.52-.72a27.15,27.15,0,0,1,2.47,2.65,12.5,12.5,0,0,0,5.82-4.51H43.82a22.92,22.92,0,0,1-6.69,2.53l-1-1.59c4.3-.82,7.51-2.37,9.64-4.69Z" style="fill: #fff"/>
          <path d="M64.13,94.68V91.39a38.24,38.24,0,0,1-4.2.53l-.53-1.61a33.63,33.63,0,0,0,9.85-2.06l.85,1.48A30.56,30.56,0,0,1,65.9,91v3.65h4.46v1.66H65.9v1.12c1.49,1.3,3,2.77,4.63,4.44l-1,1.55a53.49,53.49,0,0,0-3.6-4.21v11.07H64.13V99.46a24.68,24.68,0,0,1-4.56,6.38l-.77-2a18.77,18.77,0,0,0,5.33-7.44v0h-4.8V94.68Zm10-4.25v14.92H72.37V90.43ZM74,110.09l-.36-1.69c1.16,0,2.27.09,3.33.09.7,0,1.07-.41,1.07-1.18V88.23h1.76v19.51c0,1.55-.75,2.35-2.25,2.35Z" style="fill: #fff"/>
          <path d="M102.2,108.16h2.7v1.57H83.45v-1.57h2.68v-5.73H102.2ZM91,99.48H95.1V101H84.64V89.05H94.93v1.52H91v2h3.1v4.8H91Zm-1.62-6.9v-2H86.3v2ZM92.49,96v-2.1H86.3V96Zm-3.1,3.45v-2.1H86.3v2.1ZM91,108.16V104H87.82v4.18Zm4.88,0V104H92.58v4.18Zm-.24-11.62-1.06-1.31a14.36,14.36,0,0,0,3.09-7.1l1.62.32a23.7,23.7,0,0,1-.85,3.14h6V93.2H97.82A14,14,0,0,1,95.65,96.54ZM104,97.6v1.57H96.59V97.6Zm-3.45,10.56V104H97.44v4.18Z" style="fill: #fff"/>
          <path d="M114.2,89.36A22.45,22.45,0,0,1,112,93.08c.15.37.29.73.41,1.07a30.35,30.35,0,0,1,1,8.21c0,3.89-.39,6.23-1.13,7a2.63,2.63,0,0,1-1.84.63l-1.79,0-.5-1.62a14.3,14.3,0,0,0,1.9.14,1.25,1.25,0,0,0,1.12-.43c.38-.63.6-2.59.6-5.85,0-.72,0-1.38,0-2a17.86,17.86,0,0,1-3.38,3.89l-1-1.45a16.17,16.17,0,0,0,4.16-4.93,19.8,19.8,0,0,0-.58-2.92,2.61,2.61,0,0,0-.15-.41c-.7.68-1.5,1.38-2.39,2.1l-.92-1.45A10.77,10.77,0,0,0,110,92.84a13.28,13.28,0,0,0-2.24-3.14l1.32-1a20.47,20.47,0,0,1,2,2.78,20.51,20.51,0,0,0,1.66-3Zm3.26,2a17.18,17.18,0,0,0-1.19-2.8l1.67-.46A30,30,0,0,1,119,91l-.92.33h3.26v1.53h-7V91.34Zm3.36,17.3h-4.35V110h-1.55v-8.24h5.9Zm-.25-13.72v1.47h-5.43V94.92Zm0,3.38v1.47h-5.44V98.3Zm-1.33,8.89v-4h-2.8v4Zm4.78-12c0-.72,0-1.43,0-2.15V88.2h1.52v4.47c0,.87,0,1.69,0,2.49h3.09V96.8h-2.9a21.33,21.33,0,0,0,3.82,12.27l-1.23,1.19a23,23,0,0,1-3.31-8.89c-.58,4-1.64,6.91-3.14,8.89l-1-1.33c1.74-2.32,2.78-6.38,3.09-12.13h-2.37V95.16Zm5.15-2.29-1.11.79a31.89,31.89,0,0,0-2-3.62l1.16-.72A29.93,29.93,0,0,1,129.2,92.87Z" style="fill: #fff"/>
        </g>
        <g>
          <path d="M69.51,38.49c-5.34-3.08-9.65-10.56-9.63-16.7a8.06,8.06,0,0,1,1.36-4.86c-2.36.72-3.8,3.36-3.81,7.17,0,6.14,4.3,13.62,9.64,16.7,3.89,2.25,7.25,1.53,8.79-1.38C74.16,40.13,71.94,39.89,69.51,38.49Z"/>
          <path d="M67.19,5.73C61.42,2.4,56.38,2.09,52.61,4.28c1.58-.91,3.13-1.92,4.78-2.88,3.78-2.19,9-1.88,14.77,1.45C83.62,9.46,92.88,25.5,92.84,38.67a23.45,23.45,0,0,1-3.32,12.81L73.7,75.62l-6,3.47L85.94,50.42a19.06,19.06,0,0,0,1.93-8.87C87.91,28.39,78.65,12.35,67.19,5.73Z"/>
        </g>
        <path d="M87.87,41.55a19.06,19.06,0,0,1-1.93,8.87L67.75,79.09l-18-46.54c-2-7-2.56-10.41-2.55-15.21,0-13.17,8.57-18.22,20-11.61S87.91,28.39,87.87,41.55Zm-20.78-.86c5.35,3.09,9.69.61,9.71-5.53s-4.3-13.62-9.65-16.71-9.68-.6-9.7,5.54,4.3,13.62,9.64,16.7h0" style="fill: #be0000"/>
      </g>
    </g>
  </g>
</svg>
