<?xml version="1.0" encoding="utf-8"?>
<!-- Generator: Adobe Illustrator 26.0.1, SVG Export Plug-In . SVG Version: 6.00 Build 0)  -->
<svg version="1.1" id="Layer_1" xmlns="http://www.w3.org/2000/svg" xmlns:xlink="http://www.w3.org/1999/xlink" x="0px" y="0px"
	 width="140px" height="134.5px" viewBox="0 0 140 134.5" style="enable-background:new 0 0 140 134.5;" xml:space="preserve">
<g>
	<path style="fill:#BE0000;" d="M113.5,132.5h-87C11.9,132.5,0,120.6,0,106v0c0-14.6,11.9-26.5,26.5-26.5h87
		c14.6,0,26.5,11.9,26.5,26.5v0C140,120.6,128.1,132.5,113.5,132.5z"/>
</g>
<g>
	<path style="fill:#FFFFFF;" d="M27.6,89.9v-2.6h2.2v2.6h2.4v1.9c0.6-1,1.1-2.1,1.6-3.2l1.9,0.8C35,91.3,34.1,93,33,94.5h2.2v2.1
		h-3.9c-0.6,0.7-1.3,1.3-2,1.9h4.9v11H32v-0.9h-4.4v0.9h-2.2v-8.5c-0.6,0.3-1.2,0.6-1.7,0.8l-1.2-1.8c2.2-0.9,4.1-2.1,5.7-3.6h-5
		v-2.1h4.4v-2.6h-3.3v-2.1H27.6z M32,100.4h-4.4v2.1H32V100.4z M27.6,106.6H32v-2.1h-4.4V106.6z M32.1,91.9h-2.3v2.6h0.5
		C30.9,93.7,31.6,92.9,32.1,91.9z M44.2,88.1v1.7c-0.7,2.5-1.5,4.7-2.4,6.9c1.8,2.4,2.7,4.3,2.7,5.8c0,1.4-0.3,2.5-0.9,3
		c-0.7,0.6-2,0.9-4,0.9l-0.7-2.3c0.8,0.1,1.5,0.1,2.1,0.1c0.6,0,0.9-0.1,1.1-0.4c0.1-0.2,0.2-0.7,0.2-1.4c0-1.5-0.9-3.4-2.8-5.8
		c0.8-1.8,1.5-4,2.3-6.5h-3.5v19.3H36V88.1H44.2z"/>
	<path style="fill:#FFFFFF;" d="M63.5,90.8c-0.8,0.6-1.7,1.1-2.7,1.6c2.3,0.6,5.2,1.1,8.5,1.5l-1.5,1.7c-3.8-0.6-7-1.4-9.6-2.1
		c-2.9,1-6.3,1.8-10.2,2.3l-1.2-1.9c3.2-0.4,6-0.9,8.5-1.5c-1-0.4-1.8-0.8-2.5-1.3l1.9-1.1c0.9,0.5,2,1,3.3,1.5
		c1.4-0.5,2.6-1.1,3.7-1.7L63.5,90.8z M56.4,88.4c-1.1,0.8-2.1,1.4-3.2,1.9c-1.1,0.5-2.7,1-4.6,1.6L47.3,90c1.5-0.3,2.9-0.7,4.2-1.2
		c1.1-0.4,2.1-1,3-1.6L56.4,88.4z M59.2,106.2c2-0.6,3.6-1.4,4.8-2.4h-5.7c-2,0.7-4.3,1.2-7,1.5l-1.2-1.9c5.2-0.3,9.1-1.4,11.5-3.3
		l1.9,1c-0.4,0.3-0.8,0.6-1.3,0.9h4.8v1.5c-3.2,3.9-9.3,5.9-18,6.1l-0.9-2.1c3.4,0,6.4-0.3,8.9-0.8c-0.4-0.5-0.8-0.9-1.2-1.3
		l1.9-0.9C58.3,105.1,58.7,105.6,59.2,106.2z M59.6,95c-0.3,0.2-0.6,0.4-0.8,0.6h5.6v1.5c-2.4,3-7,4.7-13.7,5.1l-0.9-1.9
		c1.9-0.1,3.7-0.2,5.2-0.5c-0.4-0.4-0.8-0.8-1.2-1.2l1.9-0.9c0.5,0.5,1,1,1.5,1.6c1.8-0.5,3.3-1.2,4.4-2h-6.3
		c-1.7,0.6-3.7,1.1-5.9,1.5l-1.2-1.8c4.3-0.5,7.5-1.5,9.7-3L59.6,95z M68.9,90.1l-1.5,1.6c-1.9-1-4.5-2-7.9-3.1l1.5-1.4
		C64.1,88.1,66.7,89.1,68.9,90.1z"/>
	<path style="fill:#FFFFFF;" d="M75.9,93.6v-2.7c-1.2,0.2-2.4,0.4-3.7,0.5l-0.7-2.1c4-0.3,7.2-1,9.7-2l1.1,1.9
		c-1.3,0.5-2.7,0.9-4.1,1.3v3.1h4.3v2.2h-4.3v0.8c1.5,1.2,3,2.6,4.5,4.2l-1.4,2.1c-1.3-1.6-2.3-2.9-3.2-3.8v10.6h-2.3v-9.9
		c-1.1,2.1-2.5,3.9-4.1,5.7l-1-2.7c2.3-2,4-4.3,5.1-6.8v-0.1h-4.5v-2.2H75.9z M86.4,89.5v14.8h-2.3V89.5H86.4z M86.1,109.3l-0.5-2.2
		c1.1,0.1,2.2,0.1,3.3,0.1c0.6,0,0.9-0.4,0.9-1.1V87.3h2.3v19.4c0,1.7-0.8,2.6-2.4,2.6H86.1z"/>
	<path style="fill:#FFFFFF;" d="M100.9,88c-1.1,2.7-2.8,5.1-5.4,7.2L94.9,93c1.9-1.7,3.2-3.7,4.1-6L100.9,88z M101.5,94.2
		c-0.5,1.2-1.1,2.4-1.9,3.5v11.7h-2.1v-9.2c-0.6,0.6-1.1,1.1-1.7,1.6l-0.7-2.1c2-1.8,3.6-4,4.5-6.4L101.5,94.2z M104.7,100.2v-2.1
		h2.2v2.1h3.3v2h-3.3v2.8c1.4-0.2,2.7-0.5,4-0.8v2c-3,0.7-6.3,1.3-9.8,1.8l-0.5-2.2c1.4-0.1,2.8-0.3,4.1-0.5v-3.2h-3.2v-2H104.7z
		 M104.8,90.6v-3h2.2v3h3.2v2H107v2.8h3.5v-1h7v2.1h-2.1V107c0,1.6-0.7,2.4-2.1,2.4h-2.9l-0.5-2.1c0.9,0.1,1.8,0.2,2.7,0.2
		c0.4,0,0.6-0.3,0.6-1v-10h-2.4v1h-9.5v-2h3.6v-2.8h-3.1v-2H104.8z M117,88.7v2.1h-6.1v-2.1H117z"/>
	<path style="fill:#FFFFFF;" d="M24.2,115.1c0.8-0.1,1.8-0.2,2.9-0.2c1.9,0,3.2,0.4,4.1,1.2c1,0.8,1.6,2,1.6,3.7
		c0,1.8-0.6,3.1-1.6,4c-1,0.9-2.6,1.4-4.6,1.4c-1.1,0-1.9-0.1-2.5-0.1V115.1z M26,123.7c0.3,0,0.6,0,1,0c2.4,0,3.8-1.3,3.8-3.9
		c0-2.2-1.3-3.5-3.6-3.5c-0.6,0-1,0-1.3,0.1V123.7z"/>
	<path style="fill:#FFFFFF;" d="M41,122.9c0,0.9,0,1.6,0.1,2.2h-1.6l-0.1-1.1h0c-0.3,0.5-1,1.3-2.4,1.3c-1.3,0-2.5-0.8-2.5-3.2v-4.3
		h1.8v4c0,1.2,0.4,2,1.4,2c0.8,0,1.2-0.5,1.4-1c0.1-0.2,0.1-0.4,0.1-0.6v-4.4H41V122.9z"/>
	<path style="fill:#FFFFFF;" d="M49.7,114.4v8.6c0,0.7,0,1.6,0.1,2.1h-1.6l-0.1-1.2h0c-0.4,0.8-1.3,1.3-2.4,1.3
		c-1.8,0-3.1-1.5-3.1-3.7c0-2.4,1.5-3.9,3.3-3.9c1,0,1.7,0.4,2.1,0.9h0v-4.1H49.7z M47.8,120.8c0-0.1,0-0.3,0-0.5
		c-0.2-0.7-0.8-1.3-1.6-1.3c-1.2,0-1.8,1.1-1.8,2.4c0,1.4,0.7,2.3,1.8,2.3c0.8,0,1.4-0.5,1.6-1.3c0-0.2,0.1-0.3,0.1-0.5V120.8z"/>
	<path style="fill:#FFFFFF;" d="M58.4,114.4v8.6c0,0.7,0,1.6,0.1,2.1h-1.6l-0.1-1.2h0c-0.4,0.8-1.3,1.3-2.4,1.3
		c-1.8,0-3.1-1.5-3.1-3.7c0-2.4,1.5-3.9,3.3-3.9c1,0,1.7,0.4,2.1,0.9h0v-4.1H58.4z M56.6,120.8c0-0.1,0-0.3,0-0.5
		c-0.2-0.7-0.8-1.3-1.6-1.3c-1.2,0-1.8,1.1-1.8,2.4c0,1.4,0.7,2.3,1.8,2.3c0.8,0,1.4-0.5,1.6-1.3c0-0.2,0.1-0.3,0.1-0.5V120.8z"/>
	<path style="fill:#FFFFFF;" d="M61.7,121.9c0,1.3,1.1,1.9,2.2,1.9c0.9,0,1.5-0.1,2-0.3l0.3,1.3c-0.6,0.3-1.5,0.5-2.5,0.5
		c-2.4,0-3.8-1.5-3.8-3.7c0-2,1.2-3.9,3.6-3.9c2.4,0,3.1,2,3.1,3.6c0,0.3,0,0.6-0.1,0.8H61.7z M64.9,120.6c0-0.7-0.3-1.8-1.5-1.8
		c-1.1,0-1.6,1-1.7,1.8H64.9z"/>
	<path style="fill:#FFFFFF;" d="M68.1,114.4H70v10.7h-1.8V114.4z"/>
	<path style="fill:#FFFFFF;" d="M72,114.4h1.8v10.7H72V114.4z"/>
	<path style="fill:#FFFFFF;" d="M79,123c0.6,0.3,1.5,0.6,2.4,0.6c1.2,0,1.8-0.6,1.8-1.4c0-0.8-0.5-1.2-1.8-1.7
		c-1.7-0.6-2.7-1.5-2.7-2.9c0-1.7,1.4-2.9,3.6-2.9c1.1,0,1.9,0.2,2.4,0.5l-0.4,1.5c-0.4-0.2-1.1-0.5-2-0.5c-1.2,0-1.7,0.6-1.7,1.2
		c0,0.8,0.6,1.1,1.9,1.6c1.8,0.7,2.6,1.6,2.6,3c0,1.6-1.2,3-3.8,3c-1.1,0-2.2-0.3-2.7-0.6L79,123z"/>
	<path style="fill:#FFFFFF;" d="M88.8,115.9v1.9h1.8v1.4h-1.8v3.2c0,0.9,0.2,1.4,0.9,1.4c0.3,0,0.5,0,0.7-0.1l0,1.4
		c-0.3,0.1-0.8,0.2-1.3,0.2c-0.7,0-1.2-0.2-1.6-0.6c-0.4-0.4-0.6-1.1-0.6-2.1v-3.4h-1v-1.4h1v-1.4L88.8,115.9z"/>
	<path style="fill:#FFFFFF;" d="M91.9,120.1c0-1,0-1.7-0.1-2.4h1.6l0.1,1.4h0c0.4-1,1.2-1.5,2-1.5c0.2,0,0.3,0,0.4,0v1.7
		c-0.2,0-0.3,0-0.6,0c-0.9,0-1.5,0.6-1.6,1.4c0,0.2,0,0.4,0,0.6v3.8h-1.8V120.1z"/>
	<path style="fill:#FFFFFF;" d="M98.4,121.9c0,1.3,1.1,1.9,2.2,1.9c0.9,0,1.5-0.1,2-0.3l0.3,1.3c-0.6,0.3-1.5,0.5-2.5,0.5
		c-2.4,0-3.8-1.5-3.8-3.7c0-2,1.2-3.9,3.6-3.9c2.4,0,3.1,2,3.1,3.6c0,0.3,0,0.6-0.1,0.8H98.4z M101.6,120.6c0-0.7-0.3-1.8-1.5-1.8
		c-1.1,0-1.6,1-1.7,1.8H101.6z"/>
	<path style="fill:#FFFFFF;" d="M106.2,121.9c0,1.3,1.1,1.9,2.2,1.9c0.9,0,1.5-0.1,2-0.3l0.3,1.3c-0.6,0.3-1.5,0.5-2.5,0.5
		c-2.4,0-3.8-1.5-3.8-3.7c0-2,1.2-3.9,3.6-3.9c2.4,0,3.1,2,3.1,3.6c0,0.3,0,0.6-0.1,0.8H106.2z M109.4,120.6c0-0.7-0.3-1.8-1.5-1.8
		c-1.1,0-1.6,1-1.7,1.8H109.4z"/>
	<path style="fill:#FFFFFF;" d="M114.7,115.9v1.9h1.8v1.4h-1.8v3.2c0,0.9,0.2,1.4,0.9,1.4c0.3,0,0.5,0,0.7-0.1l0,1.4
		c-0.3,0.1-0.8,0.2-1.3,0.2c-0.7,0-1.2-0.2-1.6-0.6c-0.4-0.4-0.6-1.1-0.6-2.1v-3.4h-1v-1.4h1v-1.4L114.7,115.9z"/>
</g>
<g>
	<path d="M69.5,35.7c-5.3-3.1-9.7-10.6-9.6-16.7c0-2.1,0.5-3.7,1.4-4.9c-2.4,0.7-3.8,3.4-3.8,7.2c0,6.1,4.3,13.6,9.6,16.7
		c3.9,2.2,7.2,1.5,8.8-1.4C74.2,37.3,71.9,37.1,69.5,35.7z"/>
	<path d="M67.2,2.9c-5.8-3.3-10.8-3.6-14.6-1.5c1.6-0.9,3.1-1.9,4.8-2.9c3.8-2.2,9-1.9,14.8,1.4c11.5,6.6,20.7,22.7,20.7,35.8
		c0,3.6-0.5,8.3-3.3,12.8L73.7,72.8l-5.9,3.5l18.2-28.7c1.2-2.3,1.9-5.3,1.9-8.9C87.9,25.6,78.6,9.5,67.2,2.9z"/>
</g>
<g>
	<path style="fill:#BE0000;" d="M87.9,38.7c0,3.6-0.7,6.5-1.9,8.9L67.8,76.3l-18-46.5c-2-7-2.6-10.4-2.5-15.2
		c0-13.2,8.6-18.2,20-11.6C78.6,9.5,87.9,25.6,87.9,38.7z M67.1,37.9c5.3,3.1,9.7,0.6,9.7-5.5c0-6.1-4.3-13.6-9.6-16.7
		c-5.3-3.1-9.7-0.6-9.7,5.5C57.4,27.3,61.8,34.8,67.1,37.9L67.1,37.9"/>
</g>
</svg>
