<svg xmlns="http://www.w3.org/2000/svg" width="120" height="114.51" viewBox="0 0 120 114.51">
  <g id="Layer_2" data-name="Layer 2">
    <g id="Pointer">
      <g>
        <rect y="82.31" width="120" height="32.2" rx="16.1" style="fill: #be0000"/>
        <g>
          <path d="M17.84,91V88.2h1.69V91h2.58v1.55H19.53v3.09h.82A22.13,22.13,0,0,0,24,89.51l1.47.65a22.47,22.47,0,0,1-3,5.46h2.66v1.59h-4a25.51,25.51,0,0,1-2.53,2.35H24v10.72H22.33v-1H17.18v1.06H15.52v-8.71l-2,1-.92-1.36a21.47,21.47,0,0,0,6.26-4H13.25V95.62h4.59V92.53H14.36V91Zm4.49,10.07H17.18v2.59h5.15Zm-5.15,6.65h5.15v-2.56H17.18ZM34.07,89.24v1.31a73.76,73.76,0,0,1-2.47,7c1.79,2.41,2.69,4.37,2.71,5.91a3.46,3.46,0,0,1-.94,2.78c-.66.53-2,.82-3.94.82l-.51-1.76a15.32,15.32,0,0,0,1.6.12,2.82,2.82,0,0,0,1.71-.44,2.3,2.3,0,0,0,.39-1.52c0-1.49-.94-3.48-2.8-5.91a66.32,66.32,0,0,0,2.41-6.72H28v19.42H26.27v-21Z" style="fill: #fff"/>
          <path d="M53.31,91.49a20.79,20.79,0,0,1-3.16,1.83A72.61,72.61,0,0,0,59,95l-1.11,1.3a67.75,67.75,0,0,1-9.76-2.19,49.49,49.49,0,0,1-10.36,2.46l-.92-1.45A52.64,52.64,0,0,0,46,93.37a17.52,17.52,0,0,1-3-1.52l1.4-.82A19.14,19.14,0,0,0,48,92.67a21,21,0,0,0,3.89-1.93ZM46.19,89A19.28,19.28,0,0,1,43,91a38.5,38.5,0,0,1-4.64,1.57l-.87-1.45a26.13,26.13,0,0,0,4.28-1.23,19.08,19.08,0,0,0,3.07-1.67Zm3,18.39a14.26,14.26,0,0,0,5.57-3H48.63a37.8,37.8,0,0,1-7.3,1.66l-.94-1.45c5.17-.38,9-1.54,11.47-3.52l1.43.77A19,19,0,0,1,51.58,103H57v1.19c-3.24,3.94-9.23,6-18,6.13l-.65-1.57a42,42,0,0,0,9.28-.94,17.12,17.12,0,0,0-1.5-1.71l1.45-.7A20.83,20.83,0,0,1,49.14,107.41Zm.24-11.67a12.28,12.28,0,0,1-1.31.92h6.09v1.18q-3.69,4.6-13.84,5.15l-.68-1.45a39.13,39.13,0,0,0,5.82-.63,14.77,14.77,0,0,0-1.57-1.52l1.43-.68a25.45,25.45,0,0,1,1.81,1.79A12.83,12.83,0,0,0,52.08,98H45.34a27.89,27.89,0,0,1-6,1.52l-.9-1.37q6.42-.84,9.62-3.12Zm9.37-4.59-1.18,1.21a58.62,58.62,0,0,0-8-3.14l1.11-1.09A69.25,69.25,0,0,1,58.75,91.15Z" style="fill: #fff"/>
          <path d="M66.21,94.68V91.39a38.86,38.86,0,0,1-4.2.53l-.54-1.62a33.73,33.73,0,0,0,9.86-2l.84,1.48A30.56,30.56,0,0,1,68,91v3.65h4.47v1.66H68v1.11c1.5,1.31,3,2.78,4.64,4.45l-1,1.55A53.49,53.49,0,0,0,68,99.24V110.3H66.21V99.46a24.49,24.49,0,0,1-4.57,6.38l-.77-2a18.69,18.69,0,0,0,5.34-7.44v0H61.4V94.68Zm10-4.25v14.92H74.44V90.43Zm-.09,19.66-.37-1.69c1.16,0,2.28.09,3.34.09.7,0,1.06-.41,1.06-1.18V88.23h1.76v19.51c0,1.55-.74,2.35-2.24,2.35Z" style="fill: #fff"/>
          <path d="M90.79,88.66a18.67,18.67,0,0,1-5.34,7.25L85,94.27A16.43,16.43,0,0,0,89.3,88Zm.53,6.26a18.31,18.31,0,0,1-2,3.69v11.62H87.75v-9.68a20.79,20.79,0,0,1-2.08,2L85.16,101a17.89,17.89,0,0,0,4.76-6.69Zm3.68,6.4V98.93h1.66v2.39h3.51v1.55H96.66v3.4c1.43-.24,2.83-.53,4.21-.82V107c-3,.72-6.21,1.3-9.67,1.78l-.41-1.66c1.43-.15,2.83-.34,4.21-.56v-3.69H91.59v-1.55Zm0-9.66V88.47h1.67v3.19H100V93.2H96.69v3.26h3.86v-1h6.84V97h-2.3v10.89c0,1.5-.65,2.25-1.93,2.25h-2.85l-.36-1.62c.92.07,1.81.12,2.65.12.54,0,.8-.38.8-1.16V97h-2.75v1h-9.4V96.46H95V93.2H91.73V91.66ZM107,89.8v1.57h-6V89.8Z" style="fill: #fff"/>
        </g>
        <g>
          <path d="M59.51,38.49c-5.34-3.08-9.65-10.56-9.63-16.7a8.06,8.06,0,0,1,1.36-4.86c-2.36.72-3.8,3.36-3.81,7.17,0,6.14,4.3,13.62,9.64,16.7,3.89,2.25,7.25,1.53,8.79-1.38C64.16,40.13,61.94,39.89,59.51,38.49Z"/>
          <path d="M57.19,5.73C51.42,2.4,46.38,2.09,42.61,4.28c1.58-.91,3.13-1.92,4.78-2.88,3.78-2.19,9-1.88,14.77,1.45C73.62,9.46,82.88,25.5,82.84,38.67a23.45,23.45,0,0,1-3.32,12.81L63.7,75.62l-6,3.47L75.94,50.42a19.06,19.06,0,0,0,1.93-8.87C77.91,28.39,68.65,12.35,57.19,5.73Z"/>
        </g>
        <path d="M77.87,41.55a19.06,19.06,0,0,1-1.93,8.87L57.75,79.09l-18-46.54c-2-7-2.56-10.41-2.55-15.21,0-13.17,8.57-18.22,20-11.61S77.91,28.39,77.87,41.55Zm-20.78-.86c5.35,3.09,9.69.61,9.71-5.53s-4.3-13.62-9.65-16.71-9.68-.6-9.7,5.54,4.3,13.62,9.64,16.7h0" style="fill: #be0000"/>
      </g>
    </g>
  </g>
</svg>
